<svg xmlns="http://www.w3.org/2000/svg" xmlns:xlink="http://www.w3.org/1999/xlink" contentStyleType="text/css" height="664px" preserveAspectRatio="none" style="width:1052px;height:664px;background:#FFFFFF;" version="1.1" viewBox="0 0 1052 664" width="1052px" zoomAndPan="magnify"><title>UI Sequence Diagram (SSD) - Add Figure To Proposal</title><defs/><g><text fill="#000000" font-family="sans-serif" font-size="11.2" font-weight="bold" lengthAdjust="spacing" textLength="289.8101" x="380.5694" y="23.9727">UI Sequence Diagram (SSD) - Add Figure To Proposal</text><rect fill="#FFFFFF" height="475.5315" style="stroke:#181818;stroke-width:0.8000000000000002;" width="8" x="48.9246" y="107.3087"/><rect fill="#FFFFFF" height="253.6481" style="stroke:#181818;stroke-width:0.8000000000000002;" width="8" x="300.5224" y="126.2735"/><rect fill="#FFFFFF" height="177.5537" style="stroke:#181818;stroke-width:0.8000000000000002;" width="8" x="300.5224" y="405.2864"/><rect fill="#FFFFFF" height="50.7296" style="stroke:#181818;stroke-width:0.8000000000000002;" width="8" x="468.9563" y="177.0031"/><rect fill="#FFFFFF" height="50.7296" style="stroke:#181818;stroke-width:0.8000000000000002;" width="8" x="468.9563" y="253.0975"/><rect fill="#FFFFFF" height="25.3648" style="stroke:#181818;stroke-width:0.8000000000000002;" width="8" x="624.9862" y="202.3679"/><rect fill="#FFFFFF" height="25.3648" style="stroke:#181818;stroke-width:0.8000000000000002;" width="8" x="624.9862" y="278.4624"/><rect fill="#FFFFFF" height="25.3648" style="stroke:#181818;stroke-width:0.8000000000000002;" width="8" x="742.5666" y="329.192"/><rect fill="#FFFFFF" height="25.3648" style="stroke:#181818;stroke-width:0.8000000000000002;" width="8" x="742.5666" y="430.6512"/><rect fill="#FFFFFF" height="25.3648" style="stroke:#181818;stroke-width:0.8000000000000002;" width="8" x="861.043" y="481.3809"/><line style="stroke:#181818;stroke-width:0.4000000000000001;stroke-dasharray:5.0,5.0;" x1="52.8" x2="52.8" y1="99.3087" y2="597.2401"/><line style="stroke:#181818;stroke-width:0.4000000000000001;stroke-dasharray:5.0,5.0;" x1="304.1451" x2="304.1451" y1="99.3087" y2="597.2401"/><line style="stroke:#181818;stroke-width:0.4000000000000001;stroke-dasharray:5.0,5.0;" x1="472.8998" x2="472.8998" y1="99.3087" y2="597.2401"/><line style="stroke:#181818;stroke-width:0.4000000000000001;stroke-dasharray:5.0,5.0;" x1="628.2128" x2="628.2128" y1="99.3087" y2="597.2401"/><line style="stroke:#181818;stroke-width:0.4000000000000001;stroke-dasharray:5.0,5.0;" x1="746.5596" x2="746.5596" y1="99.3087" y2="597.2401"/><line style="stroke:#181818;stroke-width:0.4000000000000001;stroke-dasharray:5.0,5.0;" x1="864.9736" x2="864.9736" y1="99.3087" y2="597.2401"/><line style="stroke:#181818;stroke-width:0.4000000000000001;stroke-dasharray:5.0,5.0;" x1="954.7125" x2="954.7125" y1="99.3087" y2="597.2401"/><line style="stroke:#181818;stroke-width:0.4000000000000001;stroke-dasharray:5.0,5.0;" x1="1016.7683" x2="1016.7683" y1="99.3087" y2="597.2401"/><text fill="#000000" font-family="sans-serif" font-size="11.2" lengthAdjust="spacing" textLength="93.0493" x="4" y="96.0271">CRM Collaborator</text><ellipse cx="52.9246" cy="42.8543" fill="#E3E3E3" rx="6.4" ry="6.4" style="stroke:#181818;stroke-width:0.4000000000000001;"/><path d="M52.9246,49.2543 L52.9246,70.8543 M42.5246,55.6543 L63.3246,55.6543 M52.9246,70.8543 L42.5246,82.8543 M52.9246,70.8543 L63.3246,82.8543 " fill="none" style="stroke:#181818;stroke-width:0.4000000000000001;"/><text fill="#000000" font-family="sans-serif" font-size="11.2" lengthAdjust="spacing" textLength="93.0493" x="4" y="608.4129">CRM Collaborator</text><ellipse cx="52.9246" cy="618.4945" fill="#E3E3E3" rx="6.4" ry="6.4" style="stroke:#181818;stroke-width:0.4000000000000001;"/><path d="M52.9246,624.8945 L52.9246,646.4945 M42.5246,631.2945 L63.3246,631.2945 M52.9246,646.4945 L42.5246,658.4945 M52.9246,646.4945 L63.3246,658.4945 " fill="none" style="stroke:#181818;stroke-width:0.4000000000000001;"/><rect fill="#E3E3E3" height="26.4543" rx="2" ry="2" style="stroke:#181818;stroke-width:0.4000000000000001;" width="139.9547" x="234.5451" y="72.0543"/><text fill="#000000" font-family="sans-serif" font-size="11.2" lengthAdjust="spacing" textLength="128.7547" x="240.1451" y="89.6271">:AddFigureToProposalUI</text><rect fill="#E3E3E3" height="26.4543" rx="2" ry="2" style="stroke:#181818;stroke-width:0.4000000000000001;" width="139.9547" x="234.5451" y="596.4401"/><text fill="#000000" font-family="sans-serif" font-size="11.2" lengthAdjust="spacing" textLength="128.7547" x="240.1451" y="614.0129">:AddFigureToProposalUI</text><rect fill="#E3E3E3" height="26.4543" rx="2" ry="2" style="stroke:#181818;stroke-width:0.4000000000000001;" width="180.913" x="382.4998" y="72.0543"/><text fill="#000000" font-family="sans-serif" font-size="11.2" lengthAdjust="spacing" textLength="169.713" x="388.0998" y="89.6271">:AddFigureToProposalController</text><rect fill="#E3E3E3" height="26.4543" rx="2" ry="2" style="stroke:#181818;stroke-width:0.4000000000000001;" width="180.913" x="382.4998" y="596.4401"/><text fill="#000000" font-family="sans-serif" font-size="11.2" lengthAdjust="spacing" textLength="169.713" x="388.0998" y="614.0129">:AddFigureToProposalController</text><rect fill="#E3E3E3" height="41.7087" rx="2" ry="2" style="stroke:#181818;stroke-width:0.4000000000000001;" width="115.1468" x="571.4128" y="56.8"/><text fill="#000000" font-family="sans-serif" font-size="11.2" lengthAdjust="spacing" textLength="98.6044" x="579.684" y="74.3727">repositoryProvider</text><text fill="#000000" font-family="sans-serif" font-size="11.2" lengthAdjust="spacing" textLength="103.9468" x="577.0128" y="89.6271">:RepositoryProvider</text><rect fill="#E3E3E3" height="41.7087" rx="2" ry="2" style="stroke:#181818;stroke-width:0.4000000000000001;" width="115.1468" x="571.4128" y="596.4401"/><text fill="#000000" font-family="sans-serif" font-size="11.2" lengthAdjust="spacing" textLength="98.6044" x="579.684" y="614.0129">repositoryProvider</text><text fill="#000000" font-family="sans-serif" font-size="11.2" lengthAdjust="spacing" textLength="103.9468" x="577.0128" y="629.2672">:RepositoryProvider</text><rect fill="#E3E3E3" height="41.7087" rx="2" ry="2" style="stroke:#181818;stroke-width:0.4000000000000001;" width="104.0141" x="694.5596" y="56.8"/><text fill="#000000" font-family="sans-serif" font-size="11.2" lengthAdjust="spacing" textLength="87.8525" x="702.6404" y="74.3727">figureRepository</text><text fill="#000000" font-family="sans-serif" font-size="11.2" lengthAdjust="spacing" textLength="92.8141" x="700.1596" y="89.6271">:FigureRepository</text><rect fill="#E3E3E3" height="41.7087" rx="2" ry="2" style="stroke:#181818;stroke-width:0.4000000000000001;" width="104.0141" x="694.5596" y="596.4401"/><text fill="#000000" font-family="sans-serif" font-size="11.2" lengthAdjust="spacing" textLength="87.8525" x="702.6404" y="614.0129">figureRepository</text><text fill="#000000" font-family="sans-serif" font-size="11.2" lengthAdjust="spacing" textLength="92.8141" x="700.1596" y="629.2672">:FigureRepository</text><rect fill="#E3E3E3" height="41.7087" rx="2" ry="2" style="stroke:#181818;stroke-width:0.4000000000000001;" width="116.9388" x="806.5736" y="56.8"/><text fill="#000000" font-family="sans-serif" font-size="11.2" lengthAdjust="spacing" textLength="102.8492" x="813.6184" y="74.3727">proposalRepository</text><text fill="#000000" font-family="sans-serif" font-size="11.2" lengthAdjust="spacing" textLength="105.7388" x="812.1736" y="89.6271">:ProposalRepository</text><rect fill="#E3E3E3" height="41.7087" rx="2" ry="2" style="stroke:#181818;stroke-width:0.4000000000000001;" width="116.9388" x="806.5736" y="596.4401"/><text fill="#000000" font-family="sans-serif" font-size="11.2" lengthAdjust="spacing" textLength="102.8492" x="813.6184" y="614.0129">proposalRepository</text><text fill="#000000" font-family="sans-serif" font-size="11.2" lengthAdjust="spacing" textLength="105.7388" x="812.1736" y="629.2672">:ProposalRepository</text><rect fill="#E3E3E3" height="41.7087" rx="2" ry="2" style="stroke:#181818;stroke-width:0.4000000000000001;" width="47.6559" x="931.5125" y="56.8"/><text fill="#000000" font-family="sans-serif" font-size="11.2" lengthAdjust="spacing" textLength="31.4943" x="939.5932" y="74.3727">figure</text><text fill="#000000" font-family="sans-serif" font-size="11.2" lengthAdjust="spacing" textLength="36.4559" x="937.1125" y="89.6271">:Figure</text><rect fill="#E3E3E3" height="41.7087" rx="2" ry="2" style="stroke:#181818;stroke-width:0.4000000000000001;" width="47.6559" x="931.5125" y="596.4401"/><text fill="#000000" font-family="sans-serif" font-size="11.2" lengthAdjust="spacing" textLength="31.4943" x="939.5932" y="614.0129">figure</text><text fill="#000000" font-family="sans-serif" font-size="11.2" lengthAdjust="spacing" textLength="36.4559" x="937.1125" y="629.2672">:Figure</text><rect fill="#E3E3E3" height="41.7087" rx="2" ry="2" style="stroke:#181818;stroke-width:0.4000000000000001;" width="60.5806" x="987.1683" y="56.8"/><text fill="#000000" font-family="sans-serif" font-size="11.2" lengthAdjust="spacing" textLength="46.491" x="994.2131" y="74.3727">proposal</text><text fill="#000000" font-family="sans-serif" font-size="11.2" lengthAdjust="spacing" textLength="49.3806" x="992.7683" y="89.6271">:Proposal</text><rect fill="#E3E3E3" height="41.7087" rx="2" ry="2" style="stroke:#181818;stroke-width:0.4000000000000001;" width="60.5806" x="987.1683" y="596.4401"/><text fill="#000000" font-family="sans-serif" font-size="11.2" lengthAdjust="spacing" textLength="46.491" x="994.2131" y="614.0129">proposal</text><text fill="#000000" font-family="sans-serif" font-size="11.2" lengthAdjust="spacing" textLength="49.3806" x="992.7683" y="629.2672">:Proposal</text><rect fill="#FFFFFF" height="475.5315" style="stroke:#181818;stroke-width:0.8000000000000002;" width="8" x="48.9246" y="107.3087"/><rect fill="#FFFFFF" height="253.6481" style="stroke:#181818;stroke-width:0.8000000000000002;" width="8" x="300.5224" y="126.2735"/><rect fill="#FFFFFF" height="177.5537" style="stroke:#181818;stroke-width:0.8000000000000002;" width="8" x="300.5224" y="405.2864"/><rect fill="#FFFFFF" height="50.7296" style="stroke:#181818;stroke-width:0.8000000000000002;" width="8" x="468.9563" y="177.0031"/><rect fill="#FFFFFF" height="50.7296" style="stroke:#181818;stroke-width:0.8000000000000002;" width="8" x="468.9563" y="253.0975"/><rect fill="#FFFFFF" height="25.3648" style="stroke:#181818;stroke-width:0.8000000000000002;" width="8" x="624.9862" y="202.3679"/><rect fill="#FFFFFF" height="25.3648" style="stroke:#181818;stroke-width:0.8000000000000002;" width="8" x="624.9862" y="278.4624"/><rect fill="#FFFFFF" height="25.3648" style="stroke:#181818;stroke-width:0.8000000000000002;" width="8" x="742.5666" y="329.192"/><rect fill="#FFFFFF" height="25.3648" style="stroke:#181818;stroke-width:0.8000000000000002;" width="8" x="742.5666" y="430.6512"/><rect fill="#FFFFFF" height="25.3648" style="stroke:#181818;stroke-width:0.8000000000000002;" width="8" x="861.043" y="481.3809"/><polygon fill="#181818" points="290.9224,123.0735,298.9224,126.2735,290.9224,129.4735,294.1224,126.2735" style="stroke:#181818;stroke-width:0.8000000000000002;"/><line style="stroke:#181818;stroke-width:0.8000000000000002;" x1="56.9246" x2="295.7224" y1="126.2735" y2="126.2735"/><text fill="#000000" font-family="sans-serif" font-size="10.4" font-weight="bold" lengthAdjust="spacing" textLength="5.9488" x="62.5246" y="121.6263">1</text><text fill="#000000" font-family="sans-serif" font-size="10.4" lengthAdjust="spacing" textLength="141.0241" x="71.6734" y="121.6263">ask to add figure to proposal</text><polygon fill="#181818" points="463.3563,148.4383,471.3563,151.6383,463.3563,154.8383,466.5563,151.6383" style="stroke:#181818;stroke-width:0.8000000000000002;"/><line style="stroke:#181818;stroke-width:0.8000000000000002;" x1="308.5224" x2="468.1563" y1="151.6383" y2="151.6383"/><text fill="#000000" font-family="sans-serif" font-size="10.4" font-weight="bold" lengthAdjust="spacing" textLength="5.9488" x="314.1224" y="146.9911">2</text><text fill="#000000" font-family="sans-serif" font-size="10.4" lengthAdjust="spacing" textLength="30.6072" x="323.2712" y="146.9911">create</text><polygon fill="#181818" points="459.3563,173.8031,467.3563,177.0031,459.3563,180.2031,462.5563,177.0031" style="stroke:#181818;stroke-width:0.8000000000000002;"/><line style="stroke:#181818;stroke-width:0.8000000000000002;" x1="308.5224" x2="464.1563" y1="177.0031" y2="177.0031"/><text fill="#000000" font-family="sans-serif" font-size="10.4" font-weight="bold" lengthAdjust="spacing" textLength="5.9488" x="314.1224" y="172.3559">3</text><text fill="#000000" font-family="sans-serif" font-size="10.4" lengthAdjust="spacing" textLength="105.6537" x="323.2712" y="172.3559">getFigureRepository()</text><polygon fill="#181818" points="615.3862,199.1679,623.3862,202.3679,615.3862,205.5679,618.5862,202.3679" style="stroke:#181818;stroke-width:0.8000000000000002;"/><line style="stroke:#181818;stroke-width:0.8000000000000002;" x1="476.9563" x2="620.1862" y1="202.3679" y2="202.3679"/><text fill="#000000" font-family="sans-serif" font-size="10.4" font-weight="bold" lengthAdjust="spacing" textLength="5.9488" x="482.5563" y="197.7207">4</text><text fill="#000000" font-family="sans-serif" font-size="10.4" lengthAdjust="spacing" textLength="87.8177" x="491.7051" y="197.7207">figureRepository()</text><polygon fill="#181818" points="481.7563,224.5327,473.7563,227.7327,481.7563,230.9327,478.5563,227.7327" style="stroke:#181818;stroke-width:0.8000000000000002;"/><line style="stroke:#181818;stroke-width:0.8000000000000002;stroke-dasharray:2.0,2.0;" x1="476.9563" x2="628.1862" y1="227.7327" y2="227.7327"/><text fill="#000000" font-family="sans-serif" font-size="10.4" font-weight="bold" lengthAdjust="spacing" textLength="5.9488" x="486.5563" y="223.0855">5</text><text fill="#000000" font-family="sans-serif" font-size="10.4" lengthAdjust="spacing" textLength="37.6792" x="495.7051" y="223.0855">figRepo</text><polygon fill="#181818" points="459.3563,249.8975,467.3563,253.0975,459.3563,256.2975,462.5563,253.0975" style="stroke:#181818;stroke-width:0.8000000000000002;"/><line style="stroke:#181818;stroke-width:0.8000000000000002;" x1="308.5224" x2="464.1563" y1="253.0975" y2="253.0975"/><text fill="#000000" font-family="sans-serif" font-size="10.4" font-weight="bold" lengthAdjust="spacing" textLength="5.9488" x="314.1224" y="248.4503">6</text><text fill="#000000" font-family="sans-serif" font-size="10.4" lengthAdjust="spacing" textLength="117.6553" x="323.2712" y="248.4503">getProposalRepository()</text><polygon fill="#181818" points="615.3862,275.2624,623.3862,278.4624,615.3862,281.6624,618.5862,278.4624" style="stroke:#181818;stroke-width:0.8000000000000002;"/><line style="stroke:#181818;stroke-width:0.8000000000000002;" x1="476.9563" x2="620.1862" y1="278.4624" y2="278.4624"/><text fill="#000000" font-family="sans-serif" font-size="10.4" font-weight="bold" lengthAdjust="spacing" textLength="5.9488" x="482.5563" y="273.8152">7</text><text fill="#000000" font-family="sans-serif" font-size="10.4" lengthAdjust="spacing" textLength="101.7433" x="491.7051" y="273.8152">proposalRepository()</text><polygon fill="#181818" points="481.7563,300.6272,473.7563,303.8272,481.7563,307.0272,478.5563,303.8272" style="stroke:#181818;stroke-width:0.8000000000000002;"/><line style="stroke:#181818;stroke-width:0.8000000000000002;stroke-dasharray:2.0,2.0;" x1="476.9563" x2="628.1862" y1="303.8272" y2="303.8272"/><text fill="#000000" font-family="sans-serif" font-size="10.4" font-weight="bold" lengthAdjust="spacing" textLength="5.9488" x="486.5563" y="299.18">8</text><text fill="#000000" font-family="sans-serif" font-size="10.4" lengthAdjust="spacing" textLength="48.4016" x="495.7051" y="299.18">propRepo</text><polygon fill="#181818" points="732.9666,325.992,740.9666,329.192,732.9666,332.392,736.1666,329.192" style="stroke:#181818;stroke-width:0.8000000000000002;"/><line style="stroke:#181818;stroke-width:0.8000000000000002;" x1="308.5224" x2="737.7666" y1="329.192" y2="329.192"/><text fill="#000000" font-family="sans-serif" font-size="10.4" font-weight="bold" lengthAdjust="spacing" textLength="5.9488" x="314.1224" y="324.5448">9</text><text fill="#000000" font-family="sans-serif" font-size="10.4" lengthAdjust="spacing" textLength="102.2113" x="323.2712" y="324.5448">getAvailableFigures()</text><polygon fill="#181818" points="317.3224,351.3568,309.3224,354.5568,317.3224,357.7568,314.1224,354.5568" style="stroke:#181818;stroke-width:0.8000000000000002;"/><line style="stroke:#181818;stroke-width:0.8000000000000002;stroke-dasharray:2.0,2.0;" x1="312.5224" x2="745.7666" y1="354.5568" y2="354.5568"/><text fill="#000000" font-family="sans-serif" font-size="10.4" font-weight="bold" lengthAdjust="spacing" textLength="11.8976" x="322.1224" y="349.9096">10</text><text fill="#000000" font-family="sans-serif" font-size="10.4" lengthAdjust="spacing" textLength="94.0577" x="337.22" y="349.9096">listAvailableFigures</text><polygon fill="#181818" points="65.7246,376.7216,57.7246,379.9216,65.7246,383.1216,62.5246,379.9216" style="stroke:#181818;stroke-width:0.8000000000000002;"/><line style="stroke:#181818;stroke-width:0.8000000000000002;stroke-dasharray:2.0,2.0;" x1="60.9246" x2="303.7224" y1="379.9216" y2="379.9216"/><text fill="#000000" font-family="sans-serif" font-size="10.4" font-weight="bold" lengthAdjust="spacing" textLength="11.8976" x="70.5246" y="375.2744">11</text><text fill="#000000" font-family="sans-serif" font-size="10.4" lengthAdjust="spacing" textLength="112.3721" x="85.6222" y="375.2744">options to select figure</text><polygon fill="#181818" points="290.9224,402.0864,298.9224,405.2864,290.9224,408.4864,294.1224,405.2864" style="stroke:#181818;stroke-width:0.8000000000000002;"/><line style="stroke:#181818;stroke-width:0.8000000000000002;" x1="56.9246" x2="295.7224" y1="405.2864" y2="405.2864"/><text fill="#000000" font-family="sans-serif" font-size="10.4" font-weight="bold" lengthAdjust="spacing" textLength="11.8976" x="62.5246" y="400.6392">12</text><text fill="#000000" font-family="sans-serif" font-size="10.4" lengthAdjust="spacing" textLength="132.3089" x="77.6222" y="400.6392">selects figure and proposal</text><polygon fill="#181818" points="732.9666,427.4512,740.9666,430.6512,732.9666,433.8512,736.1666,430.6512" style="stroke:#181818;stroke-width:0.8000000000000002;"/><line style="stroke:#181818;stroke-width:0.8000000000000002;" x1="308.5224" x2="737.7666" y1="430.6512" y2="430.6512"/><text fill="#000000" font-family="sans-serif" font-size="10.4" font-weight="bold" lengthAdjust="spacing" textLength="11.8976" x="314.1224" y="426.004">13</text><text fill="#000000" font-family="sans-serif" font-size="10.4" lengthAdjust="spacing" textLength="87.6721" x="329.22" y="426.004">findById(figureID)</text><polygon fill="#181818" points="317.3224,452.8161,309.3224,456.0161,317.3224,459.2161,314.1224,456.0161" style="stroke:#181818;stroke-width:0.8000000000000002;"/><line style="stroke:#181818;stroke-width:0.8000000000000002;stroke-dasharray:2.0,2.0;" x1="312.5224" x2="745.7666" y1="456.0161" y2="456.0161"/><text fill="#000000" font-family="sans-serif" font-size="10.4" font-weight="bold" lengthAdjust="spacing" textLength="11.8976" x="322.1224" y="451.3688">14</text><text fill="#000000" font-family="sans-serif" font-size="10.4" lengthAdjust="spacing" textLength="29.2448" x="337.22" y="451.3688">figure</text><polygon fill="#181818" points="851.443,478.1809,859.443,481.3809,851.443,484.5809,854.643,481.3809" style="stroke:#181818;stroke-width:0.8000000000000002;"/><line style="stroke:#181818;stroke-width:0.8000000000000002;" x1="308.5224" x2="856.243" y1="481.3809" y2="481.3809"/><text fill="#000000" font-family="sans-serif" font-size="10.4" font-weight="bold" lengthAdjust="spacing" textLength="11.8976" x="314.1224" y="476.7337">15</text><text fill="#000000" font-family="sans-serif" font-size="10.4" lengthAdjust="spacing" textLength="101.5977" x="329.22" y="476.7337">findById(proposalID)</text><polygon fill="#181818" points="317.3224,503.5457,309.3224,506.7457,317.3224,509.9457,314.1224,506.7457" style="stroke:#181818;stroke-width:0.8000000000000002;"/><line style="stroke:#181818;stroke-width:0.8000000000000002;stroke-dasharray:2.0,2.0;" x1="312.5224" x2="864.243" y1="506.7457" y2="506.7457"/><text fill="#000000" font-family="sans-serif" font-size="10.4" font-weight="bold" lengthAdjust="spacing" textLength="11.8976" x="322.1224" y="502.0985">16</text><text fill="#000000" font-family="sans-serif" font-size="10.4" lengthAdjust="spacing" textLength="43.1704" x="337.22" y="502.0985">proposal</text><polygon fill="#181818" points="1007.8586,528.9105,1015.8586,532.1105,1007.8586,535.3105,1011.0586,532.1105" style="stroke:#181818;stroke-width:0.8000000000000002;"/><line style="stroke:#181818;stroke-width:0.8000000000000002;" x1="308.5224" x2="1012.6586" y1="532.1105" y2="532.1105"/><text fill="#000000" font-family="sans-serif" font-size="10.4" font-weight="bold" lengthAdjust="spacing" textLength="11.8976" x="314.1224" y="527.4633">17</text><text fill="#000000" font-family="sans-serif" font-size="10.4" lengthAdjust="spacing" textLength="85.1761" x="329.22" y="527.4633">addFigure(figure)</text><polygon fill="#181818" points="855.443,554.2753,863.443,557.4753,855.443,560.6753,858.643,557.4753" style="stroke:#181818;stroke-width:0.8000000000000002;"/><line style="stroke:#181818;stroke-width:0.8000000000000002;" x1="308.5224" x2="860.243" y1="557.4753" y2="557.4753"/><text fill="#000000" font-family="sans-serif" font-size="10.4" font-weight="bold" lengthAdjust="spacing" textLength="11.8976" x="314.1224" y="552.8281">18</text><text fill="#000000" font-family="sans-serif" font-size="10.4" lengthAdjust="spacing" textLength="71.3753" x="329.22" y="552.8281">save(proposal)</text><polygon fill="#181818" points="61.7246,579.6401,53.7246,582.8401,61.7246,586.0401,58.5246,582.8401" style="stroke:#181818;stroke-width:0.8000000000000002;"/><line style="stroke:#181818;stroke-width:0.8000000000000002;stroke-dasharray:2.0,2.0;" x1="56.9246" x2="303.7224" y1="582.8401" y2="582.8401"/><text fill="#000000" font-family="sans-serif" font-size="10.4" font-weight="bold" lengthAdjust="spacing" textLength="11.8976" x="66.5246" y="578.1929">19</text><text fill="#000000" font-family="sans-serif" font-size="10.4" lengthAdjust="spacing" textLength="209.3002" x="81.6222" y="578.1929">confirmation of figure addition to proposal</text><!--SRC=[bLJDRgCm4Bxp5AESaaDU88TARQ9AI5kfoizjBwuPg1MmgMsoojlls61ZGfJDtc3u_Zmpnfo5R9bc3JHAAlwjLODWTOUPYLzQni-imeEzrWWQkMMogbE0-MQ5-YDa1IMh3MQP5PQWfnmE-DEXv0WxmIe7NHuEknMiuRKeu5rKdKOuAlZKgbM6rLd6EgjartoXfcTkbOR5Tly1MrNNx4jfHfK5C0DSDwwMKG0hk6YPjB3Oa6elUbH1yfHx_2d_DtIhfDKaYht5zhZ_DILf99oW25UYN4I1-hVSx6T5ptROK9YgbDvsf976-qt9An3ELQRaTiWweN_EYbx0OUSAlNqq3LRqUDyfqO-gmwou5HTcCGuZ6nvW_UA6lo7u6Qm2HiFkBTnR58Xy6av6U6AvdXEFQwJwj5QXlMtJSZLg-6bvA57IvXErVC2Rp6d2Mu_UOHG5tkSbTPzZbdm-eMUpjm-PJwMFU_2VyOTJzoTulJ11Lx36VWWcJH7Q4mZhCFzQc1anTGj4RqYai3yRKAqLIXgtBmPh-kU47KtORcrkDwu7Xuq69ek7-pOUiHIoUBlcnR9dvhjdpZVFD3dHIsnzQX3oJ2p6kneOqIJcJsmYFF5n67VdmezjECbg7iMm2yOOgplTvqgMGZVCpG1K6RjP5CANqbjyCv3aTT3x2m00]--></g></svg>