<svg xmlns="http://www.w3.org/2000/svg" xmlns:xlink="http://www.w3.org/1999/xlink" contentStyleType="text/css" height="556px" preserveAspectRatio="none" style="width:939px;height:556px;background:#FFFFFF;" version="1.1" viewBox="0 0 939 556" width="939px" zoomAndPan="magnify"><title>System Sequence Diagram (SSD) - Inactivate/Activate Figure Category</title><defs/><g><text fill="#000000" font-family="sans-serif" font-size="14" font-weight="bold" lengthAdjust="spacing" textLength="506.1055" x="217.7249" y="28.5352">System Sequence Diagram (SSD) - Inactivate/Activate Figure Category</text><rect fill="#FFFFFF" height="336.7051" style="stroke:#181818;stroke-width:1.0;" width="10" x="78.2305" y="128.9766"/><rect fill="#FFFFFF" height="315.3945" style="stroke:#181818;stroke-width:1.0;" width="10" x="512.3623" y="150.2871"/><rect fill="none" height="251.084" style="stroke:#000000;stroke-width:1.5;" width="922.5552" x="10" y="207.5977"/><rect fill="none" height="133.1973" style="stroke:#000000;stroke-width:1.5;" width="902.5552" x="20" y="318.4844"/><line style="stroke:#181818;stroke-width:0.5;stroke-dasharray:5.0,5.0;" x1="83" x2="83" y1="118.9766" y2="475.6816"/><line style="stroke:#181818;stroke-width:0.5;stroke-dasharray:5.0,5.0;" x1="517.0986" x2="517.0986" y1="118.9766" y2="475.6816"/><text fill="#000000" font-family="sans-serif" font-size="14" lengthAdjust="spacing" textLength="100.4609" x="30" y="116.0234">Show Designer</text><ellipse cx="83.2305" cy="50.9883" fill="#E3E3E3" rx="8" ry="8" style="stroke:#181818;stroke-width:0.5;"/><path d="M83.2305,58.9883 L83.2305,85.9883 M70.2305,66.9883 L96.2305,66.9883 M83.2305,85.9883 L70.2305,100.9883 M83.2305,85.9883 L96.2305,100.9883 " fill="none" style="stroke:#181818;stroke-width:0.5;"/><text fill="#000000" font-family="sans-serif" font-size="14" lengthAdjust="spacing" textLength="100.4609" x="30" y="488.2168">Show Designer</text><ellipse cx="83.2305" cy="499.6699" fill="#E3E3E3" rx="8" ry="8" style="stroke:#181818;stroke-width:0.5;"/><path d="M83.2305,507.6699 L83.2305,534.6699 M70.2305,515.6699 L96.2305,515.6699 M83.2305,534.6699 L70.2305,549.6699 M83.2305,534.6699 L96.2305,549.6699 " fill="none" style="stroke:#181818;stroke-width:0.5;"/><rect fill="#E3E3E3" height="30.4883" rx="2.5" ry="2.5" style="stroke:#181818;stroke-width:0.5;" width="66.5273" x="484.0986" y="87.4883"/><text fill="#000000" font-family="sans-serif" font-size="14" lengthAdjust="spacing" textLength="52.5273" x="491.0986" y="108.0234">:System</text><rect fill="#E3E3E3" height="30.4883" rx="2.5" ry="2.5" style="stroke:#181818;stroke-width:0.5;" width="66.5273" x="484.0986" y="474.6816"/><text fill="#000000" font-family="sans-serif" font-size="14" lengthAdjust="spacing" textLength="52.5273" x="491.0986" y="495.2168">:System</text><rect fill="#FFFFFF" height="336.7051" style="stroke:#181818;stroke-width:1.0;" width="10" x="78.2305" y="128.9766"/><rect fill="#FFFFFF" height="315.3945" style="stroke:#181818;stroke-width:1.0;" width="10" x="512.3623" y="150.2871"/><polygon fill="#181818" points="500.3623,146.2871,510.3623,150.2871,500.3623,154.2871,504.3623,150.2871" style="stroke:#181818;stroke-width:1.0;"/><line style="stroke:#181818;stroke-width:1.0;" x1="88.2305" x2="506.3623" y1="150.2871" y2="150.2871"/><text fill="#000000" font-family="sans-serif" font-size="13" font-weight="bold" lengthAdjust="spacing" textLength="8.5757" x="95.2305" y="145.5449">1</text><text fill="#000000" font-family="sans-serif" font-size="13" lengthAdjust="spacing" textLength="257.4165" x="107.8062" y="145.5449">requestChangeCategoryStatus(id, action)</text><line style="stroke:#181818;stroke-width:1.0;" x1="522.3623" x2="564.3623" y1="179.5977" y2="179.5977"/><line style="stroke:#181818;stroke-width:1.0;" x1="564.3623" x2="564.3623" y1="179.5977" y2="192.5977"/><line style="stroke:#181818;stroke-width:1.0;" x1="523.3623" x2="564.3623" y1="192.5977" y2="192.5977"/><polygon fill="#181818" points="533.3623,188.5977,523.3623,192.5977,533.3623,196.5977,529.3623,192.5977" style="stroke:#181818;stroke-width:1.0;"/><text fill="#000000" font-family="sans-serif" font-size="13" font-weight="bold" lengthAdjust="spacing" textLength="8.5757" x="529.3623" y="174.8555">2</text><text fill="#000000" font-family="sans-serif" font-size="13" lengthAdjust="spacing" textLength="162.6587" x="541.938" y="174.8555">validateCategoryExists(id)</text><path d="M10,207.5977 L72.1387,207.5977 L72.1387,214.9082 L62.1387,224.9082 L10,224.9082 L10,207.5977 " fill="#EEEEEE" style="stroke:#000000;stroke-width:1.5;"/><rect fill="none" height="251.084" style="stroke:#000000;stroke-width:1.5;" width="922.5552" x="10" y="207.5977"/><text fill="#000000" font-family="sans-serif" font-size="13" font-weight="bold" lengthAdjust="spacing" textLength="17.1387" x="25" y="221.166">alt</text><text fill="#000000" font-family="sans-serif" font-size="11" font-weight="bold" lengthAdjust="spacing" textLength="142.8174" x="87.1387" y="220.2324">[Category does not exist]</text><polygon fill="#181818" points="99.2305,242.2188,89.2305,246.2188,99.2305,250.2188,95.2305,246.2188" style="stroke:#181818;stroke-width:1.0;"/><line style="stroke:#181818;stroke-width:1.0;stroke-dasharray:2.0,2.0;" x1="93.2305" x2="511.3623" y1="246.2188" y2="246.2188"/><text fill="#000000" font-family="sans-serif" font-size="13" font-weight="bold" lengthAdjust="spacing" textLength="8.5757" x="105.2305" y="241.4766">3</text><text fill="#000000" font-family="sans-serif" font-size="13" lengthAdjust="spacing" textLength="226.2813" x="117.8062" y="241.4766">errorMessage("Category not found")</text><line style="stroke:#000000;stroke-width:1.0;stroke-dasharray:2.0,2.0;" x1="10" x2="932.5552" y1="255.2188" y2="255.2188"/><text fill="#000000" font-family="sans-serif" font-size="11" font-weight="bold" lengthAdjust="spacing" textLength="96.0996" x="15" y="265.8535">[Category exists]</text><line style="stroke:#181818;stroke-width:1.0;" x1="522.3623" x2="564.3623" y1="290.4844" y2="290.4844"/><line style="stroke:#181818;stroke-width:1.0;" x1="564.3623" x2="564.3623" y1="290.4844" y2="303.4844"/><line style="stroke:#181818;stroke-width:1.0;" x1="523.3623" x2="564.3623" y1="303.4844" y2="303.4844"/><polygon fill="#181818" points="533.3623,299.4844,523.3623,303.4844,533.3623,307.4844,529.3623,303.4844" style="stroke:#181818;stroke-width:1.0;"/><text fill="#000000" font-family="sans-serif" font-size="13" font-weight="bold" lengthAdjust="spacing" textLength="8.5757" x="529.3623" y="285.7422">4</text><text fill="#000000" font-family="sans-serif" font-size="13" lengthAdjust="spacing" textLength="151.7026" x="541.938" y="285.7422">checkCategoryStatus(id)</text><path d="M20,318.4844 L82.1387,318.4844 L82.1387,325.7949 L72.1387,335.7949 L20,335.7949 L20,318.4844 " fill="#EEEEEE" style="stroke:#000000;stroke-width:1.5;"/><rect fill="none" height="133.1973" style="stroke:#000000;stroke-width:1.5;" width="902.5552" x="20" y="318.4844"/><text fill="#000000" font-family="sans-serif" font-size="13" font-weight="bold" lengthAdjust="spacing" textLength="17.1387" x="35" y="332.0527">alt</text><text fill="#000000" font-family="sans-serif" font-size="11" font-weight="bold" lengthAdjust="spacing" textLength="165.3008" x="97.1387" y="331.1191">[Status already as requested]</text><polygon fill="#181818" points="99.2305,353.1055,89.2305,357.1055,99.2305,361.1055,95.2305,357.1055" style="stroke:#181818;stroke-width:1.0;"/><line style="stroke:#181818;stroke-width:1.0;stroke-dasharray:2.0,2.0;" x1="93.2305" x2="511.3623" y1="357.1055" y2="357.1055"/><text fill="#000000" font-family="sans-serif" font-size="13" font-weight="bold" lengthAdjust="spacing" textLength="8.5757" x="105.2305" y="352.3633">5</text><text fill="#000000" font-family="sans-serif" font-size="13" lengthAdjust="spacing" textLength="335.1816" x="117.8062" y="352.3633">errorMessage("Category already in requested status")</text><line style="stroke:#000000;stroke-width:1.0;stroke-dasharray:2.0,2.0;" x1="20" x2="922.5552" y1="366.1055" y2="366.1055"/><text fill="#000000" font-family="sans-serif" font-size="11" font-weight="bold" lengthAdjust="spacing" textLength="134.8574" x="25" y="376.7402">[Status change allowed]</text><line style="stroke:#181818;stroke-width:1.0;" x1="522.3623" x2="564.3623" y1="401.3711" y2="401.3711"/><line style="stroke:#181818;stroke-width:1.0;" x1="564.3623" x2="564.3623" y1="401.3711" y2="414.3711"/><line style="stroke:#181818;stroke-width:1.0;" x1="523.3623" x2="564.3623" y1="414.3711" y2="414.3711"/><polygon fill="#181818" points="533.3623,410.3711,523.3623,414.3711,533.3623,418.3711,529.3623,414.3711" style="stroke:#181818;stroke-width:1.0;"/><text fill="#000000" font-family="sans-serif" font-size="13" font-weight="bold" lengthAdjust="spacing" textLength="8.5757" x="529.3623" y="396.6289">6</text><text fill="#000000" font-family="sans-serif" font-size="13" lengthAdjust="spacing" textLength="358.6172" x="541.938" y="396.6289">updateCategoryStatus(id, action, updatedOn, updatedBy)</text><polygon fill="#181818" points="99.2305,439.6816,89.2305,443.6816,99.2305,447.6816,95.2305,443.6816" style="stroke:#181818;stroke-width:1.0;"/><line style="stroke:#181818;stroke-width:1.0;stroke-dasharray:2.0,2.0;" x1="93.2305" x2="511.3623" y1="443.6816" y2="443.6816"/><text fill="#000000" font-family="sans-serif" font-size="13" font-weight="bold" lengthAdjust="spacing" textLength="8.5757" x="105.2305" y="438.9395">7</text><text fill="#000000" font-family="sans-serif" font-size="13" lengthAdjust="spacing" textLength="387.5562" x="117.8062" y="438.9395">confirmationMessage("Category status updated successfully")</text><!--SRC=[ZP9DJiCm48NtFiKegqPgnRuB920WiK0iV8B1dYPM4xlOOqfkZvsV9b2GY1HfPB_vvhr9mj7O4thie7FMgSQxZe1z914kDoTKHwn9SjyIU5ACjcxNWj2WTcTZQpXW6qW8DfoaiWzC7KXwZsGLGMMmplADb5K9EtYsgDXy8DFDtLJ0awcZ9tX8TUryBmH6TZPsR-HJhTXvA6JZpb1HCBKbNm06a9L8JjWeSqBBKEp7qUFTK0xDuuWa5hA2tUrqjK-PaiF03qqAHlDeoSWnR8pUGcvrjbmX9kQKS8NwmDRe99afZvycSAQaxfOlkK0x2c0T0sM1WFJCi4ohza3UE_z28QJLRufBO-uvk6XrKGfAorwG0obyGos-L4FgU1Mj7DJPs7YKIa-e-xotQIca1yt_3Su8OnS4X05VZFC6szD0DUmyDRNk_Cke9K0yhTTwzN6saq2_BkLzN_xbNJbxCBx3t7eTONGxOo14fPBc4DksdoDOBV8hDFtyATOdbVW2]--></g></svg>