<svg xmlns="http://www.w3.org/2000/svg" xmlns:xlink="http://www.w3.org/1999/xlink" contentStyleType="text/css" height="421px" preserveAspectRatio="none" style="width:680px;height:421px;background:#FFFFFF;" version="1.1" viewBox="0 0 680 421" width="680px" zoomAndPan="magnify"><title>System Sequence Diagram (SSD) - Inactivate/Activate Figure Category</title><defs/><g><text fill="#000000" font-family="sans-serif" font-size="14" font-weight="bold" lengthAdjust="spacing" textLength="506.1055" x="94.3203" y="28.5352">System Sequence Diagram (SSD) - Inactivate/Activate Figure Category</text><rect fill="#FFFFFF" height="193.8633" style="stroke:#181818;stroke-width:1.0;" width="10" x="53.2305" y="128.9766"/><rect fill="#FFFFFF" height="172.5527" style="stroke:#181818;stroke-width:1.0;" width="10" x="418.5747" y="150.2871"/><line style="stroke:#181818;stroke-width:0.5;stroke-dasharray:5.0,5.0;" x1="58" x2="58" y1="118.9766" y2="340.8398"/><line style="stroke:#181818;stroke-width:0.5;stroke-dasharray:5.0,5.0;" x1="423.311" x2="423.311" y1="118.9766" y2="340.8398"/><text fill="#000000" font-family="sans-serif" font-size="14" lengthAdjust="spacing" textLength="100.4609" x="5" y="116.0234">Show Designer</text><ellipse cx="58.2305" cy="50.9883" fill="#E3E3E3" rx="8" ry="8" style="stroke:#181818;stroke-width:0.5;"/><path d="M58.2305,58.9883 L58.2305,85.9883 M45.2305,66.9883 L71.2305,66.9883 M58.2305,85.9883 L45.2305,100.9883 M58.2305,85.9883 L71.2305,100.9883 " fill="none" style="stroke:#181818;stroke-width:0.5;"/><text fill="#000000" font-family="sans-serif" font-size="14" lengthAdjust="spacing" textLength="100.4609" x="5" y="353.375">Show Designer</text><ellipse cx="58.2305" cy="364.8281" fill="#E3E3E3" rx="8" ry="8" style="stroke:#181818;stroke-width:0.5;"/><path d="M58.2305,372.8281 L58.2305,399.8281 M45.2305,380.8281 L71.2305,380.8281 M58.2305,399.8281 L45.2305,414.8281 M58.2305,399.8281 L71.2305,414.8281 " fill="none" style="stroke:#181818;stroke-width:0.5;"/><rect fill="#E3E3E3" height="30.4883" rx="2.5" ry="2.5" style="stroke:#181818;stroke-width:0.5;" width="66.5273" x="390.311" y="87.4883"/><text fill="#000000" font-family="sans-serif" font-size="14" lengthAdjust="spacing" textLength="52.5273" x="397.311" y="108.0234">:System</text><rect fill="#E3E3E3" height="30.4883" rx="2.5" ry="2.5" style="stroke:#181818;stroke-width:0.5;" width="66.5273" x="390.311" y="339.8398"/><text fill="#000000" font-family="sans-serif" font-size="14" lengthAdjust="spacing" textLength="52.5273" x="397.311" y="360.375">:System</text><rect fill="#FFFFFF" height="193.8633" style="stroke:#181818;stroke-width:1.0;" width="10" x="53.2305" y="128.9766"/><rect fill="#FFFFFF" height="172.5527" style="stroke:#181818;stroke-width:1.0;" width="10" x="418.5747" y="150.2871"/><polygon fill="#181818" points="406.5747,146.2871,416.5747,150.2871,406.5747,154.2871,410.5747,150.2871" style="stroke:#181818;stroke-width:1.0;"/><line style="stroke:#181818;stroke-width:1.0;" x1="63.2305" x2="412.5747" y1="150.2871" y2="150.2871"/><text fill="#000000" font-family="sans-serif" font-size="13" font-weight="bold" lengthAdjust="spacing" textLength="8.5757" x="70.2305" y="145.5449">1</text><text fill="#000000" font-family="sans-serif" font-size="13" lengthAdjust="spacing" textLength="323.7686" x="82.8062" y="145.5449">requests to change the current category availability</text><line style="stroke:#181818;stroke-width:1.0;" x1="428.5747" x2="470.5747" y1="179.5977" y2="179.5977"/><line style="stroke:#181818;stroke-width:1.0;" x1="470.5747" x2="470.5747" y1="179.5977" y2="192.5977"/><line style="stroke:#181818;stroke-width:1.0;" x1="429.5747" x2="470.5747" y1="192.5977" y2="192.5977"/><polygon fill="#181818" points="439.5747,188.5977,429.5747,192.5977,439.5747,196.5977,435.5747,192.5977" style="stroke:#181818;stroke-width:1.0;"/><text fill="#000000" font-family="sans-serif" font-size="13" font-weight="bold" lengthAdjust="spacing" textLength="8.5757" x="435.5747" y="174.8555">2</text><text fill="#000000" font-family="sans-serif" font-size="13" lengthAdjust="spacing" textLength="133.3833" x="448.1504" y="174.8555">fetches all categories</text><polygon fill="#181818" points="74.2305,217.9082,64.2305,221.9082,74.2305,225.9082,70.2305,221.9082" style="stroke:#181818;stroke-width:1.0;"/><line style="stroke:#181818;stroke-width:1.0;stroke-dasharray:2.0,2.0;" x1="68.2305" x2="417.5747" y1="221.9082" y2="221.9082"/><text fill="#000000" font-family="sans-serif" font-size="13" font-weight="bold" lengthAdjust="spacing" textLength="8.5757" x="80.2305" y="217.166">3</text><text fill="#000000" font-family="sans-serif" font-size="13" lengthAdjust="spacing" textLength="243.8579" x="92.8062" y="217.166">sends all categories for user to choose</text><polygon fill="#181818" points="406.5747,247.2188,416.5747,251.2188,406.5747,255.2188,410.5747,251.2188" style="stroke:#181818;stroke-width:1.0;"/><line style="stroke:#181818;stroke-width:1.0;" x1="63.2305" x2="412.5747" y1="251.2188" y2="251.2188"/><text fill="#000000" font-family="sans-serif" font-size="13" font-weight="bold" lengthAdjust="spacing" textLength="8.5757" x="70.2305" y="246.4766">4</text><text fill="#000000" font-family="sans-serif" font-size="13" lengthAdjust="spacing" textLength="133.7388" x="82.8062" y="246.4766">chooses the category</text><line style="stroke:#181818;stroke-width:1.0;" x1="428.5747" x2="470.5747" y1="280.5293" y2="280.5293"/><line style="stroke:#181818;stroke-width:1.0;" x1="470.5747" x2="470.5747" y1="280.5293" y2="293.5293"/><line style="stroke:#181818;stroke-width:1.0;" x1="429.5747" x2="470.5747" y1="293.5293" y2="293.5293"/><polygon fill="#181818" points="439.5747,289.5293,429.5747,293.5293,439.5747,297.5293,435.5747,293.5293" style="stroke:#181818;stroke-width:1.0;"/><text fill="#000000" font-family="sans-serif" font-size="13" font-weight="bold" lengthAdjust="spacing" textLength="8.5757" x="435.5747" y="275.7871">5</text><text fill="#000000" font-family="sans-serif" font-size="13" lengthAdjust="spacing" textLength="225.5957" x="448.1504" y="275.7871">changes the chosen category status</text><polygon fill="#181818" points="69.2305,318.8398,59.2305,322.8398,69.2305,326.8398,65.2305,322.8398" style="stroke:#181818;stroke-width:1.0;"/><line style="stroke:#181818;stroke-width:1.0;stroke-dasharray:2.0,2.0;" x1="63.2305" x2="422.5747" y1="322.8398" y2="322.8398"/><text fill="#000000" font-family="sans-serif" font-size="13" font-weight="bold" lengthAdjust="spacing" textLength="8.5757" x="75.2305" y="318.0977">6</text><text fill="#000000" font-family="sans-serif" font-size="13" lengthAdjust="spacing" textLength="278.6431" x="87.8062" y="318.0977">informs user about the successful operation</text><!--SRC=[PL2xRiCm3Dpr5KIcTWYwPoXGr2ZGML_0ABH5H9PSaKhWluyIEQcRRWVoU0_AaUE46KSOKqpEvpGIQ2vavB6Pq1rn8Ajp8CZa5ECGrWJnU4XdZWFq68ICKTPAjRCeZM3ffr1q11tZSAM_MDkzmXQ-8phb4ogzVIm0ldWecU2puY7bsHWicc8PzvGhTfeoRAnFP-X8U8YKDu02jZCrYRBZ2QF2PjUis-u6RyVDefADxM3xlgnsjLDDA2gW2PolxUeBF84hELELSqiOm1Dom3q7rdcbrmoMjYlPdjHv4i0GxXfCyY1UcTqEXEBXcGDzxLc4SakKqlMfVpEtgRIWzs_zpz3gB3HVB-9l7L7K8kOv4CVgFahpntqgUhkMuXo9z2L0cYYZSeh6c0CzFs8zwSm5]--></g></svg>