<svg xmlns="http://www.w3.org/2000/svg" xmlns:xlink="http://www.w3.org/1999/xlink" contentStyleType="text/css" height="1204px" preserveAspectRatio="none" style="width:636px;height:1204px;background:#FFFFFF;" version="1.1" viewBox="0 0 636 1204" width="636px" zoomAndPan="magnify"><title>Show Proposal Domain Model - US310</title><defs/><g><text fill="#000000" font-family="sans-serif" font-size="14" font-weight="bold" lengthAdjust="spacing" textLength="261.589" x="180.2055" y="24.9659">Show Proposal Domain Model - US310</text><!--cluster Show Proposal Aggregate--><g id="cluster_Show Proposal Aggregate"><rect fill="none" height="1076" rx="2.5" ry="2.5" style="stroke:#000000;stroke-width:1.5;" width="391" x="7" y="47.0679"/><text fill="#000000" font-family="sans-serif" font-size="14" font-weight="bold" lengthAdjust="spacing" textLength="179.5493" x="112.7253" y="64.0339">Show Proposal Aggregate</text></g><!--cluster Figure Aggregate--><g id="cluster_Figure Aggregate"><rect fill="none" height="108" rx="2.5" ry="2.5" style="stroke:#000000;stroke-width:1.5;" width="137" x="493" y="1090.0679"/><text fill="#000000" font-family="sans-serif" font-size="14" font-weight="bold" lengthAdjust="spacing" textLength="121.9675" x="500.5162" y="1107.0339">Figure Aggregate</text></g><!--class ShowProposal--><g id="elem_ShowProposal"><rect codeLine="14" fill="#F1F1F1" height="53.412" id="ShowProposal" rx="2.5" ry="2.5" style="stroke:#181818;stroke-width:0.5;" width="99.7857" x="23" y="613.5679"/><text fill="#000000" font-family="sans-serif" font-size="12" font-style="italic" lengthAdjust="spacing" textLength="90.9606" x="27.4125" y="631.396">&#171;AggregateRoot&#187;</text><text fill="#000000" font-family="sans-serif" font-size="14" lengthAdjust="spacing" textLength="93.7857" x="26" y="649.878">ShowProposal</text><line style="stroke:#181818;stroke-width:0.5;" x1="24" x2="121.7857" y1="658.9799" y2="658.9799"/></g><!--class ShowProposalId--><g id="elem_ShowProposalId"><rect codeLine="17" fill="#F1F1F1" height="53.412" id="ShowProposalId" rx="2.5" ry="2.5" style="stroke:#181818;stroke-width:0.5;" width="113.1416" x="263.5" y="1053.5679"/><text fill="#000000" font-family="sans-serif" font-size="12" font-style="italic" lengthAdjust="spacing" textLength="75.0245" x="282.5585" y="1071.396">&#171;ValueObject&#187;</text><text fill="#000000" font-family="sans-serif" font-size="14" lengthAdjust="spacing" textLength="107.1416" x="266.5" y="1089.878">ShowProposalId</text><line style="stroke:#181818;stroke-width:0.5;" x1="264.5" x2="375.6416" y1="1098.9799" y2="1098.9799"/></g><!--class ShowRequestId--><g id="elem_ShowRequestId"><rect codeLine="20" fill="#F1F1F1" height="53.412" id="ShowRequestId" rx="2.5" ry="2.5" style="stroke:#181818;stroke-width:0.5;" width="108.6896" x="265.5" y="965.5679"/><text fill="#000000" font-family="sans-serif" font-size="12" font-style="italic" lengthAdjust="spacing" textLength="75.0245" x="282.3325" y="983.396">&#171;ValueObject&#187;</text><text fill="#000000" font-family="sans-serif" font-size="14" lengthAdjust="spacing" textLength="102.6896" x="268.5" y="1001.878">ShowRequestId</text><line style="stroke:#181818;stroke-width:0.5;" x1="266.5" x2="373.1896" y1="1010.9799" y2="1010.9799"/></g><!--class Template--><g id="elem_Template"><rect codeLine="23" fill="#F1F1F1" height="53.412" id="Template" rx="2.5" ry="2.5" style="stroke:#181818;stroke-width:0.5;" width="77.0245" x="281.5" y="877.5679"/><text fill="#000000" font-family="sans-serif" font-size="12" font-style="italic" lengthAdjust="spacing" textLength="75.0245" x="282.5" y="895.396">&#171;ValueObject&#187;</text><text fill="#000000" font-family="sans-serif" font-size="14" lengthAdjust="spacing" textLength="61.7958" x="289.1144" y="913.878">Template</text><line style="stroke:#181818;stroke-width:0.5;" x1="282.5" x2="357.5245" y1="922.9799" y2="922.9799"/></g><!--class NumberOfDrones--><g id="elem_NumberOfDrones"><rect codeLine="26" fill="#F1F1F1" height="53.412" id="NumberOfDrones" rx="2.5" ry="2.5" style="stroke:#181818;stroke-width:0.5;" width="124.1455" x="258" y="789.5679"/><text fill="#000000" font-family="sans-serif" font-size="12" font-style="italic" lengthAdjust="spacing" textLength="75.0245" x="282.5605" y="807.396">&#171;ValueObject&#187;</text><text fill="#000000" font-family="sans-serif" font-size="14" lengthAdjust="spacing" textLength="118.1455" x="261" y="825.878">NumberOfDrones</text><line style="stroke:#181818;stroke-width:0.5;" x1="259" x2="381.1455" y1="834.9799" y2="834.9799"/></g><!--class ShowDate--><g id="elem_ShowDate"><rect codeLine="29" fill="#F1F1F1" height="53.412" id="ShowDate" rx="2.5" ry="2.5" style="stroke:#181818;stroke-width:0.5;" width="77.0245" x="281.5" y="701.5679"/><text fill="#000000" font-family="sans-serif" font-size="12" font-style="italic" lengthAdjust="spacing" textLength="75.0245" x="282.5" y="719.396">&#171;ValueObject&#187;</text><text fill="#000000" font-family="sans-serif" font-size="14" lengthAdjust="spacing" textLength="66.8357" x="286.5944" y="737.878">ShowDate</text><line style="stroke:#181818;stroke-width:0.5;" x1="282.5" x2="357.5245" y1="746.9799" y2="746.9799"/></g><!--class Location--><g id="elem_Location"><rect codeLine="32" fill="#F1F1F1" height="53.412" id="Location" rx="2.5" ry="2.5" style="stroke:#181818;stroke-width:0.5;" width="77.0245" x="281.5" y="613.5679"/><text fill="#000000" font-family="sans-serif" font-size="12" font-style="italic" lengthAdjust="spacing" textLength="75.0245" x="282.5" y="631.396">&#171;ValueObject&#187;</text><text fill="#000000" font-family="sans-serif" font-size="14" lengthAdjust="spacing" textLength="56.1678" x="291.9284" y="649.878">Location</text><line style="stroke:#181818;stroke-width:0.5;" x1="282.5" x2="357.5245" y1="658.9799" y2="658.9799"/></g><!--class Description--><g id="elem_Description"><rect codeLine="35" fill="#F1F1F1" height="53.412" id="Description" rx="2.5" ry="2.5" style="stroke:#181818;stroke-width:0.5;" width="81.3337" x="279.5" y="525.5679"/><text fill="#000000" font-family="sans-serif" font-size="12" font-style="italic" lengthAdjust="spacing" textLength="75.0245" x="282.6546" y="543.396">&#171;ValueObject&#187;</text><text fill="#000000" font-family="sans-serif" font-size="14" lengthAdjust="spacing" textLength="75.3337" x="282.5" y="561.878">Description</text><line style="stroke:#181818;stroke-width:0.5;" x1="280.5" x2="359.8337" y1="570.9799" y2="570.9799"/></g><!--class ShowDuration--><g id="elem_ShowDuration"><rect codeLine="38" fill="#F1F1F1" height="53.412" id="ShowDuration" rx="2.5" ry="2.5" style="stroke:#181818;stroke-width:0.5;" width="100.1076" x="270" y="437.5679"/><text fill="#000000" font-family="sans-serif" font-size="12" font-style="italic" lengthAdjust="spacing" textLength="75.0245" x="282.5416" y="455.396">&#171;ValueObject&#187;</text><text fill="#000000" font-family="sans-serif" font-size="14" lengthAdjust="spacing" textLength="94.1076" x="273" y="473.878">ShowDuration</text><line style="stroke:#181818;stroke-width:0.5;" x1="271" x2="369.1076" y1="482.9799" y2="482.9799"/></g><!--class Status--><g id="elem_Status"><rect codeLine="41" fill="#F1F1F1" height="53.412" id="Status" rx="2.5" ry="2.5" style="stroke:#181818;stroke-width:0.5;" width="77.0245" x="281.5" y="349.5679"/><text fill="#000000" font-family="sans-serif" font-size="12" font-style="italic" lengthAdjust="spacing" textLength="75.0245" x="282.5" y="367.396">&#171;ValueObject&#187;</text><text fill="#000000" font-family="sans-serif" font-size="14" lengthAdjust="spacing" textLength="41.0059" x="299.5093" y="385.878">Status</text><line style="stroke:#181818;stroke-width:0.5;" x1="282.5" x2="357.5245" y1="394.9799" y2="394.9799"/></g><!--class CreatedAt--><g id="elem_CreatedAt"><rect codeLine="44" fill="#F1F1F1" height="53.412" id="CreatedAt" rx="2.5" ry="2.5" style="stroke:#181818;stroke-width:0.5;" width="77.0245" x="281.5" y="261.5679"/><text fill="#000000" font-family="sans-serif" font-size="12" font-style="italic" lengthAdjust="spacing" textLength="75.0245" x="282.5" y="279.396">&#171;ValueObject&#187;</text><text fill="#000000" font-family="sans-serif" font-size="14" lengthAdjust="spacing" textLength="65.9398" x="287.0424" y="297.878">CreatedAt</text><line style="stroke:#181818;stroke-width:0.5;" x1="282.5" x2="357.5245" y1="306.9799" y2="306.9799"/></g><!--class CreatedBy--><g id="elem_CreatedBy"><rect codeLine="47" fill="#F1F1F1" height="53.412" id="CreatedBy" rx="2.5" ry="2.5" style="stroke:#181818;stroke-width:0.5;" width="77.0245" x="281.5" y="173.5679"/><text fill="#000000" font-family="sans-serif" font-size="12" font-style="italic" lengthAdjust="spacing" textLength="75.0245" x="282.5" y="191.396">&#171;ValueObject&#187;</text><text fill="#000000" font-family="sans-serif" font-size="14" lengthAdjust="spacing" textLength="68.1797" x="285.9224" y="209.878">CreatedBy</text><line style="stroke:#181818;stroke-width:0.5;" x1="282.5" x2="357.5245" y1="218.9799" y2="218.9799"/></g><!--class Video--><g id="elem_Video"><rect codeLine="50" fill="#F1F1F1" height="53.412" id="Video" rx="2.5" ry="2.5" style="stroke:#181818;stroke-width:0.5;" width="77.0245" x="281.5" y="85.5679"/><text fill="#000000" font-family="sans-serif" font-size="12" font-style="italic" lengthAdjust="spacing" textLength="75.0245" x="282.5" y="103.396">&#171;ValueObject&#187;</text><text fill="#000000" font-family="sans-serif" font-size="14" lengthAdjust="spacing" textLength="36.9879" x="301.5183" y="121.878">Video</text><line style="stroke:#181818;stroke-width:0.5;" x1="282.5" x2="357.5245" y1="130.9799" y2="130.9799"/></g><!--class Figure--><g id="elem_Figure"><rect codeLine="57" fill="#F1F1F1" height="53.412" id="Figure" rx="2.5" ry="2.5" style="stroke:#181818;stroke-width:0.5;" width="92.9606" x="515" y="1128.5679"/><text fill="#000000" font-family="sans-serif" font-size="12" font-style="italic" lengthAdjust="spacing" textLength="90.9606" x="516" y="1146.396">&#171;AggregateRoot&#187;</text><text fill="#000000" font-family="sans-serif" font-size="14" lengthAdjust="spacing" textLength="41.8178" x="540.5714" y="1164.878">Figure</text><line style="stroke:#181818;stroke-width:0.5;" x1="516" x2="606.9606" y1="1173.9799" y2="1173.9799"/></g><!--link ShowProposal to ShowProposalId--><g id="link_ShowProposal_ShowProposalId"><path codeLine="61" d="M80.95,666.9079 C99.7,735.1279 156.83,918.0979 258,1036.0679 C263.36,1042.3079 269.77,1048.1479 276.4,1053.3979 " fill="none" id="ShowProposal-ShowProposalId" style="stroke:#181818;stroke-width:1.0;"/><polygon fill="#000000" points="191.2564,927.0298,189.7972,917.6319,184.5519,920.2844,191.2564,927.0298" style="stroke:#000000;stroke-width:1.0;"/><text fill="#000000" font-family="sans-serif" font-size="13" lengthAdjust="spacing" textLength="7.436" x="75.0543" y="689.0113">1</text><text fill="#000000" font-family="sans-serif" font-size="13" lengthAdjust="spacing" textLength="7.436" x="257.9553" y="1041.7581">1</text></g><!--link ShowProposal to ShowRequestId--><g id="link_ShowProposal_ShowRequestId"><path codeLine="62" d="M85.41,666.7679 C110.48,723.3179 174.85,857.4079 258,948.0679 C263.65,954.2279 270.29,960.0579 277.06,965.3379 " fill="none" id="ShowProposal-ShowRequestId" style="stroke:#181818;stroke-width:1.0;"/><polygon fill="#000000" points="191.7009,849.7757,189.2882,840.5762,184.3417,843.7513,191.7009,849.7757" style="stroke:#000000;stroke-width:1.0;"/><text fill="#000000" font-family="sans-serif" font-size="13" lengthAdjust="spacing" textLength="7.436" x="89.1644" y="688.8389">1</text><text fill="#000000" font-family="sans-serif" font-size="13" lengthAdjust="spacing" textLength="7.436" x="258.8312" y="953.6834">1</text></g><!--link ShowProposal to Template--><g id="link_ShowProposal_Template"><path codeLine="63" d="M92.8,666.6179 C124.15,709.8979 190.39,797.1379 258,860.0679 C265.17,866.7379 273.37,873.2779 281.39,879.1879 " fill="none" id="ShowProposal-Template" style="stroke:#181818;stroke-width:1.0;"/><polygon fill="#000000" points="192.3183,780.3081,188.5139,771.5916,184.117,775.4925,192.3183,780.3081" style="stroke:#000000;stroke-width:1.0;"/><text fill="#000000" font-family="sans-serif" font-size="13" lengthAdjust="spacing" textLength="7.436" x="98.5586" y="689.0942">1</text><text fill="#000000" font-family="sans-serif" font-size="13" lengthAdjust="spacing" textLength="7.436" x="266.1401" y="889.8891">1</text></g><!--link ShowProposal to NumberOfDrones--><g id="link_ShowProposal_NumberOfDrones"><path codeLine="64" d="M110.94,666.6079 C157.06,699.7379 235.5,756.0779 281.75,789.3079 " fill="none" id="ShowProposal-NumberOfDrones" style="stroke:#181818;stroke-width:1.0;"/><polygon fill="#000000" points="193.0609,716.485,187.4293,708.821,184.0001,713.5949,193.0609,716.485" style="stroke:#000000;stroke-width:1.0;"/><text fill="#000000" font-family="sans-serif" font-size="13" lengthAdjust="spacing" textLength="7.436" x="112.414" y="689.0818">1</text><text fill="#000000" font-family="sans-serif" font-size="13" lengthAdjust="spacing" textLength="7.436" x="264.6088" y="777.6461">1</text></g><!--link ShowProposal to ShowDate--><g id="link_ShowProposal_ShowDate"><path codeLine="65" d="M123.28,657.7679 C169.96,674.5379 239.02,699.3379 281.41,714.5679 " fill="none" id="ShowProposal-ShowDate" style="stroke:#181818;stroke-width:1.0;"/><polygon fill="#000000" points="193.7056,675.2582,186.1866,669.4346,184.1996,674.9664,193.7056,675.2582" style="stroke:#000000;stroke-width:1.0;"/><text fill="#000000" font-family="sans-serif" font-size="13" lengthAdjust="spacing" textLength="7.436" x="130.8885" y="675.37">1</text><text fill="#000000" font-family="sans-serif" font-size="13" lengthAdjust="spacing" textLength="7.436" x="266.164" y="727.5095">1</text></g><!--link ShowProposal to Location--><g id="link_ShowProposal_Location"><path codeLine="66" d="M123.28,640.0679 C169.96,640.0679 239.02,640.0679 281.41,640.0679 " fill="none" id="ShowProposal-Location" style="stroke:#181818;stroke-width:1.0;"/><polygon fill="#000000" points="194,633.5679,184.9549,630.629,184.9549,636.5068,194,633.5679" style="stroke:#000000;stroke-width:1.0;"/><text fill="#000000" font-family="sans-serif" font-size="13" lengthAdjust="spacing" textLength="7.436" x="130.8885" y="655.1809">1</text><text fill="#000000" font-family="sans-serif" font-size="13" lengthAdjust="spacing" textLength="7.436" x="266.164" y="655.6673">1</text></g><!--link ShowProposal to Description--><g id="link_ShowProposal_Description"><path codeLine="67" d="M123.28,622.3679 C169.26,605.8579 236.96,581.5379 279.48,566.2579 " fill="none" id="ShowProposal-Description" style="stroke:#181818;stroke-width:1.0;"/><polygon fill="#000000" points="193.7056,587.8776,184.1995,588.1695,186.1866,593.7013,193.7056,587.8776" style="stroke:#000000;stroke-width:1.0;"/><text fill="#000000" font-family="sans-serif" font-size="13" lengthAdjust="spacing" textLength="7.436" x="130.8885" y="634.9919">1</text><text fill="#000000" font-family="sans-serif" font-size="13" lengthAdjust="spacing" textLength="7.436" x="264.0984" y="584.5082">1</text></g><!--link ShowProposal to ShowDuration--><g id="link_ShowProposal_ShowDuration"><path codeLine="68" d="M110.94,613.5279 C157.06,580.3979 235.5,524.0579 281.75,490.8279 " fill="none" id="ShowProposal-ShowDuration" style="stroke:#181818;stroke-width:1.0;"/><polygon fill="#000000" points="193.0609,542.6508,184.0001,545.541,187.4293,550.3148,193.0609,542.6508" style="stroke:#000000;stroke-width:1.0;"/><text fill="#000000" font-family="sans-serif" font-size="13" lengthAdjust="spacing" textLength="7.436" x="112.414" y="601.9198">1</text><text fill="#000000" font-family="sans-serif" font-size="13" lengthAdjust="spacing" textLength="7.436" x="265.1333" y="512.9128">1</text></g><!--link ShowProposal to Status--><g id="link_ShowProposal_Status"><path codeLine="69" d="M92.8,613.5179 C124.15,570.2379 190.39,482.9979 258,420.0679 C265.17,413.3979 273.37,406.8579 281.39,400.9479 " fill="none" id="ShowProposal-Status" style="stroke:#181818;stroke-width:1.0;"/><polygon fill="#000000" points="192.3183,473.8277,184.117,478.6434,188.5139,482.5442,192.3183,473.8277" style="stroke:#000000;stroke-width:1.0;"/><text fill="#000000" font-family="sans-serif" font-size="13" lengthAdjust="spacing" textLength="7.436" x="89.8524" y="601.9073">1</text><text fill="#000000" font-family="sans-serif" font-size="13" lengthAdjust="spacing" textLength="7.436" x="266.1401" y="421.4456">1</text></g><!--link ShowProposal to CreatedAt--><g id="link_ShowProposal_CreatedAt"><path codeLine="70" d="M85.41,613.3679 C110.48,556.8179 174.85,422.7279 258,332.0679 C264.8,324.6579 273.02,317.7279 281.2,311.6479 " fill="none" id="ShowProposal-CreatedAt" style="stroke:#181818;stroke-width:1.0;"/><polygon fill="#000000" points="191.7217,400.3736,184.3327,406.3614,189.2634,409.561,191.7217,400.3736" style="stroke:#000000;stroke-width:1.0;"/><text fill="#000000" font-family="sans-serif" font-size="13" lengthAdjust="spacing" textLength="7.436" x="80.6611" y="601.7208">1</text><text fill="#000000" font-family="sans-serif" font-size="13" lengthAdjust="spacing" textLength="7.436" x="266.1758" y="331.6882">1</text></g><!--link ShowProposal to CreatedBy--><g id="link_ShowProposal_CreatedBy"><path codeLine="71" d="M80.97,613.2379 C99.76,545.0579 156.99,362.1779 258,244.0679 C264.7,236.2279 273.08,229.0379 281.46,222.8379 " fill="none" id="ShowProposal-CreatedBy" style="stroke:#181818;stroke-width:1.0;"/><polygon fill="#000000" points="191.2842,321.1201,184.5377,327.8236,189.7664,330.5088,191.2842,321.1201" style="stroke:#000000;stroke-width:1.0;"/><text fill="#000000" font-family="sans-serif" font-size="13" lengthAdjust="spacing" textLength="7.436" x="75.1388" y="601.5591">1</text><text fill="#000000" font-family="sans-serif" font-size="13" lengthAdjust="spacing" textLength="7.436" x="265.8317" y="243.2147">1</text></g><!--link ShowProposal to Video--><g id="link_ShowProposal_Video"><path codeLine="72" d="M77.88,613.3979 C90.48,534.9479 136.72,301.3279 258,156.0679 C264.61,148.1479 272.95,140.9279 281.32,134.7279 " fill="none" id="ShowProposal-Video" style="stroke:#181818;stroke-width:1.0;"/><polygon fill="#000000" points="190.9557,235.9663,184.713,243.1412,190.1225,245.4403,190.9557,235.9663" style="stroke:#000000;stroke-width:1.0;"/><text fill="#000000" font-family="sans-serif" font-size="13" lengthAdjust="spacing" textLength="7.436" x="71.2956" y="601.7581">1</text><text fill="#000000" font-family="sans-serif" font-size="13" lengthAdjust="spacing" textLength="21.84" x="251.6324" y="154.2015">0..1</text></g><!--link ShowProposal to Figure--><g id="link_ShowProposal_Figure"><path codeLine="74" d="M74.21,666.6679 C75.77,772.1279 88.36,1155.0679 189.5,1155.0679 C189.5,1155.0679 189.5,1155.0679 446,1155.0679 C468.66,1155.0679 493.85,1155.0679 514.81,1155.0679 " fill="none" id="ShowProposal-Figure" style="stroke:#181818;stroke-width:1.0;"/><polygon fill="#000000" points="321.8492,1152.2805,317.9726,1143.5958,313.6083,1147.533,321.8492,1152.2805" style="stroke:#000000;stroke-width:1.0;"/><text fill="#000000" font-family="sans-serif" font-size="13" lengthAdjust="spacing" textLength="7.436" x="66.7556" y="688.7158">1</text><text fill="#000000" font-family="sans-serif" font-size="13" lengthAdjust="spacing" textLength="7.163" x="499.8271" y="1170.343">*</text></g><!--SRC=[bPBBQiCm44Nt-eh1ou93GdSX1DAQGg5jIjnchyWJMutiSIMP44h-lN8UpeFQKRsnXSxScS77h6HHSirpoAaWaMdA4Qoka9dcfkHYnLECxKOXQ1IM5waw1qp64rhB8eKbLmQPmgK5Iw1bcbb8P5qZgM3CIkiYuepMyAwf9CCLH9HpMS0h9QWWXC_uVj1dB9C9Wf1QA3JxGuuseyGmTXW7WikSIPfgJBd507uO0_S8nOtPTMkWqQZ1PaHsF7PiZMxRAfuJLpFdgiBfuikjqLunm-yAZVKh-C2yL6u87_QjoXUefyj8Ku76Tvp8C_s51Az_ZWyReH5QbhxuRenAUyV7bjlAQy57ZMwzP6B_0JziVE2vKutQmUsPVayohJIsUdUuRZVEPLsu6Gm22CDmzxvIS0ZZRlOaNoVQQDT9NGbtitbqCx6Hh9Cwr-jsqwDOtUHUgKxc99CFvZHgn_gzdllSErHJVs8rU1SS_HY2utu1]--></g></svg>