<svg xmlns="http://www.w3.org/2000/svg" xmlns:xlink="http://www.w3.org/1999/xlink" contentStyleType="text/css" height="881px" preserveAspectRatio="none" style="width:625px;height:881px;background:#FFFFFF;" version="1.1" viewBox="0 0 625 881" width="625px" zoomAndPan="magnify"><title>Complete Domain Model - US315 (ShowProposal)</title><defs/><g><text fill="#000000" font-family="sans-serif" font-size="14" font-weight="bold" lengthAdjust="spacing" textLength="329.041" x="140.9795" y="25.1074">Complete Domain Model - US315 (ShowProposal)</text><!--cluster Show Proposal Aggregate--><g id="cluster_Show Proposal Aggregate"><rect fill="none" height="552" rx="2.5" ry="2.5" style="stroke:#000000;stroke-width:1.5;" width="591" x="7" y="46.6211"/><text fill="#000000" font-family="sans-serif" font-size="14" font-weight="bold" lengthAdjust="spacing" textLength="174.248" x="215.376" y="63.7285">Show Proposal Aggregate</text></g><!--cluster Figures Aggregate--><g id="cluster_Figures Aggregate"><rect fill="none" height="107" rx="2.5" ry="2.5" style="stroke:#000000;stroke-width:1.5;" width="139" x="445" y="622.6211"/><text fill="#000000" font-family="sans-serif" font-size="14" font-weight="bold" lengthAdjust="spacing" textLength="123.6895" x="452.6553" y="639.7285">Figures Aggregate</text></g><!--cluster DroneModel Aggregate--><g id="cluster_DroneModel Aggregate"><rect fill="none" height="107" rx="2.5" ry="2.5" style="stroke:#000000;stroke-width:1.5;" width="170" x="200" y="687.6211"/><text fill="#000000" font-family="sans-serif" font-size="14" font-weight="bold" lengthAdjust="spacing" textLength="154.0137" x="207.9932" y="704.7285">DroneModel Aggregate</text></g><!--cluster ProposalTemplate Aggregate--><g id="cluster_ProposalTemplate Aggregate"><rect fill="none" height="107" rx="2.5" ry="2.5" style="stroke:#000000;stroke-width:1.5;" width="210" x="409" y="768.6211"/><text fill="#000000" font-family="sans-serif" font-size="14" font-weight="bold" lengthAdjust="spacing" textLength="194.4893" x="416.7554" y="785.7285">ProposalTemplate Aggregate</text></g><!--class ShowProposal--><g id="elem_ShowProposal"><rect codeLine="14" fill="#F1F1F1" height="52.582" id="ShowProposal" rx="2.5" ry="2.5" style="stroke:#181818;stroke-width:0.5;" width="96.2754" x="23" y="432.1211"/><text fill="#000000" font-family="sans-serif" font-size="12" font-style="italic" lengthAdjust="spacing" textLength="43.3594" x="49.458" y="450.0703">&#171;Entity&#187;</text><text fill="#000000" font-family="sans-serif" font-size="14" lengthAdjust="spacing" textLength="90.2754" x="26" y="468.1895">ShowProposal</text><line style="stroke:#181818;stroke-width:0.5;" x1="24" x2="118.2754" y1="476.7031" y2="476.7031"/></g><!--class Show Request--><g id="elem_Show Request"><rect codeLine="16" fill="#F1F1F1" height="52.582" id="Show Request" rx="2.5" ry="2.5" style="stroke:#181818;stroke-width:0.5;" width="97.0547" x="465.5" y="524.1211"/><text fill="#000000" font-family="sans-serif" font-size="12" font-style="italic" lengthAdjust="spacing" textLength="94.0723" x="466.9912" y="542.0703">&#171;AggregateRoot&#187;</text><text fill="#000000" font-family="sans-serif" font-size="14" lengthAdjust="spacing" textLength="91.0547" x="468.5" y="560.1895">Show Request</text><line style="stroke:#181818;stroke-width:0.5;" x1="466.5" x2="561.5547" y1="568.7031" y2="568.7031"/></g><!--class Description--><g id="elem_Description"><rect codeLine="17" fill="#F1F1F1" height="52.582" id="Description" rx="2.5" ry="2.5" style="stroke:#181818;stroke-width:0.5;" width="80.7207" x="473.5" y="436.1211"/><text fill="#000000" font-family="sans-serif" font-size="12" font-style="italic" lengthAdjust="spacing" textLength="78.7207" x="474.5" y="454.0703">&#171;ValueObject&#187;</text><text fill="#000000" font-family="sans-serif" font-size="14" lengthAdjust="spacing" textLength="70.0273" x="478.8467" y="472.1895">Description</text><line style="stroke:#181818;stroke-width:0.5;" x1="474.5" x2="553.2207" y1="480.7031" y2="480.7031"/></g><!--class Location--><g id="elem_Location"><rect codeLine="18" fill="#F1F1F1" height="52.582" id="Location" rx="2.5" ry="2.5" style="stroke:#181818;stroke-width:0.5;" width="80.7207" x="473.5" y="348.1211"/><text fill="#000000" font-family="sans-serif" font-size="12" font-style="italic" lengthAdjust="spacing" textLength="78.7207" x="474.5" y="366.0703">&#171;ValueObject&#187;</text><text fill="#000000" font-family="sans-serif" font-size="14" lengthAdjust="spacing" textLength="52.9307" x="487.395" y="384.1895">Location</text><line style="stroke:#181818;stroke-width:0.5;" x1="474.5" x2="553.2207" y1="392.7031" y2="392.7031"/></g><!--class Video--><g id="elem_Video"><rect codeLine="19" fill="#F1F1F1" height="52.582" id="Video" rx="2.5" ry="2.5" style="stroke:#181818;stroke-width:0.5;" width="80.7207" x="473.5" y="260.1211"/><text fill="#000000" font-family="sans-serif" font-size="12" font-style="italic" lengthAdjust="spacing" textLength="78.7207" x="474.5" y="278.0703">&#171;ValueObject&#187;</text><text fill="#000000" font-family="sans-serif" font-size="14" lengthAdjust="spacing" textLength="35.8066" x="495.957" y="296.1895">Video</text><line style="stroke:#181818;stroke-width:0.5;" x1="474.5" x2="553.2207" y1="304.7031" y2="304.7031"/></g><!--class ShowProposalStatus--><g id="elem_ShowProposalStatus"><rect codeLine="20" fill="#F1F1F1" height="52.582" id="ShowProposalStatus" rx="2.5" ry="2.5" style="stroke:#181818;stroke-width:0.5;" width="135.9648" x="446" y="172.1211"/><text fill="#000000" font-family="sans-serif" font-size="12" font-style="italic" lengthAdjust="spacing" textLength="78.7207" x="474.6221" y="190.0703">&#171;ValueObject&#187;</text><text fill="#000000" font-family="sans-serif" font-size="14" lengthAdjust="spacing" textLength="129.9648" x="449" y="208.1895">ShowProposalStatus</text><line style="stroke:#181818;stroke-width:0.5;" x1="447" x2="580.9648" y1="216.7031" y2="216.7031"/></g><!--class Name--><g id="elem_Name"><rect codeLine="21" fill="#F1F1F1" height="52.582" id="Name" rx="2.5" ry="2.5" style="stroke:#181818;stroke-width:0.5;" width="80.7207" x="473.5" y="84.1211"/><text fill="#000000" font-family="sans-serif" font-size="12" font-style="italic" lengthAdjust="spacing" textLength="78.7207" x="474.5" y="102.0703">&#171;ValueObject&#187;</text><text fill="#000000" font-family="sans-serif" font-size="14" lengthAdjust="spacing" textLength="37.3447" x="495.188" y="120.1895">Name</text><line style="stroke:#181818;stroke-width:0.5;" x1="474.5" x2="553.2207" y1="128.7031" y2="128.7031"/></g><!--class Figures--><g id="elem_Figures"><rect codeLine="26" fill="#F1F1F1" height="52.582" id="Figures" rx="2.5" ry="2.5" style="stroke:#181818;stroke-width:0.5;" width="96.0723" x="466" y="660.1211"/><text fill="#000000" font-family="sans-serif" font-size="12" font-style="italic" lengthAdjust="spacing" textLength="94.0723" x="467" y="678.0703">&#171;AggregateRoot&#187;</text><text fill="#000000" font-family="sans-serif" font-size="14" lengthAdjust="spacing" textLength="46.6826" x="490.6948" y="696.1895">Figures</text><line style="stroke:#181818;stroke-width:0.5;" x1="467" x2="561.0723" y1="704.7031" y2="704.7031"/></g><!--class DroneModel--><g id="elem_DroneModel"><rect codeLine="32" fill="#F1F1F1" height="52.582" id="DroneModel" rx="2.5" ry="2.5" style="stroke:#181818;stroke-width:0.5;" width="96.0723" x="237" y="725.1211"/><text fill="#000000" font-family="sans-serif" font-size="12" font-style="italic" lengthAdjust="spacing" textLength="94.0723" x="238" y="743.0703">&#171;AggregateRoot&#187;</text><text fill="#000000" font-family="sans-serif" font-size="14" lengthAdjust="spacing" textLength="76.2617" x="246.9053" y="761.1895">DroneModel</text><line style="stroke:#181818;stroke-width:0.5;" x1="238" x2="332.0723" y1="769.7031" y2="769.7031"/></g><!--class ProposalTemplate--><g id="elem_ProposalTemplate"><rect codeLine="38" fill="#F1F1F1" height="52.582" id="ProposalTemplate" rx="2.5" ry="2.5" style="stroke:#181818;stroke-width:0.5;" width="119.6133" x="454" y="806.1211"/><text fill="#000000" font-family="sans-serif" font-size="12" font-style="italic" lengthAdjust="spacing" textLength="94.0723" x="466.7705" y="824.0703">&#171;AggregateRoot&#187;</text><text fill="#000000" font-family="sans-serif" font-size="14" lengthAdjust="spacing" textLength="113.6133" x="457" y="842.1895">ProposalTemplate</text><line style="stroke:#181818;stroke-width:0.5;" x1="455" x2="572.6133" y1="850.7031" y2="850.7031"/></g><!--link ShowProposal to Show Request--><g id="link_ShowProposal_Show Request"><path codeLine="42" d="M119.17,471.0411 C141.22,476.6911 167.89,483.2811 192,488.6211 C288.56,510.0011 402.39,531.0011 465.25,542.2311 " fill="none" id="ShowProposal-Show Request" style="stroke:#181818;stroke-width:1.0;"/><polygon fill="#000000" points="270.8975,480.274,262.63,475.5729,261.4457,481.3302,270.8975,480.274" style="stroke:#000000;stroke-width:1.0;"/><text fill="#000000" font-family="sans-serif" font-size="13" lengthAdjust="spacing" textLength="33.23" x="275" y="484.6494">refers</text><text fill="#000000" font-family="sans-serif" font-size="13" lengthAdjust="spacing" textLength="7.23" x="127.4013" y="488.46">1</text><text fill="#000000" font-family="sans-serif" font-size="13" lengthAdjust="spacing" textLength="7.23" x="450.2626" y="556.3305">1</text></g><!--link ShowProposal to ProposalTemplate--><g id="link_ShowProposal_ProposalTemplate"><path codeLine="43" d="M71.29,485.2911 C71.1,554.1711 81.42,737.9011 192,813.6211 C269.84,866.9311 384.8,858.1311 453.95,846.0011 " fill="none" id="ShowProposal-ProposalTemplate" style="stroke:#181818;stroke-width:1.0;"/><polygon fill="#000000" points="272.6383,807.6962,268.0724,799.3534,264.0406,803.6305,272.6383,807.6962" style="stroke:#000000;stroke-width:1.0;"/><text fill="#000000" font-family="sans-serif" font-size="13" lengthAdjust="spacing" textLength="27.46" x="278" y="809.6494">uses</text><text fill="#000000" font-family="sans-serif" font-size="13" lengthAdjust="spacing" textLength="7.23" x="63.6233" y="506.6463">1</text><text fill="#000000" font-family="sans-serif" font-size="13" lengthAdjust="spacing" textLength="7.23" x="438.8472" y="862.8782">1</text></g><!--link ShowProposal to DroneModel--><g id="link_ShowProposal_DroneModel"><path codeLine="44" d="M74.76,485.1311 C80.73,530.4011 98.66,623.3511 149,681.6211 C172.13,708.3911 208.03,726.3211 237,737.3211 " fill="none" id="ShowProposal-DroneModel" style="stroke:#181818;stroke-width:1.0;"/><polygon fill="#000000" points="156.7052,676.4716,154.2831,667.2746,149.3398,670.4548,156.7052,676.4716" style="stroke:#000000;stroke-width:1.0;"/><text fill="#000000" font-family="sans-serif" font-size="13" lengthAdjust="spacing" textLength="20.96" x="163" y="677.6494">has</text><text fill="#000000" font-family="sans-serif" font-size="13" lengthAdjust="spacing" textLength="7.23" x="76.3432" y="506.8954">1</text><text fill="#000000" font-family="sans-serif" font-size="13" lengthAdjust="spacing" textLength="5.0591" x="223.9505" y="750.4815">*</text></g><!--link ShowProposal to Description--><g id="link_ShowProposal_Description"><path codeLine="45" d="M119.19,459.0511 C206.52,459.8411 391.81,461.5211 473.22,462.2611 " fill="none" id="ShowProposal-Description" style="stroke:#181818;stroke-width:1.0;"/><polygon fill="#000000" points="277.4998,451.3119,268.4817,448.2911,268.4284,454.1687,277.4998,451.3119" style="stroke:#000000;stroke-width:1.0;"/><text fill="#000000" font-family="sans-serif" font-size="13" lengthAdjust="spacing" textLength="20.96" x="281.5" y="456.6494">has</text><text fill="#000000" font-family="sans-serif" font-size="13" lengthAdjust="spacing" textLength="7.23" x="127.4245" y="464.7044">1</text><text fill="#000000" font-family="sans-serif" font-size="13" lengthAdjust="spacing" textLength="7.23" x="458.378" y="477.8025">1</text></g><!--link ShowProposal to Location--><g id="link_ShowProposal_Location"><path codeLine="46" d="M119.25,448.5111 C141.33,443.8511 167.98,438.3311 192,433.6211 C293.2,413.7811 412.75,392.3311 473.41,381.5911 " fill="none" id="ShowProposal-Location" style="stroke:#181818;stroke-width:1.0;"/><polygon fill="#000000" points="277.4131,389.3383,267.9796,388.1298,269.0709,393.9055,277.4131,389.3383" style="stroke:#000000;stroke-width:1.0;"/><text fill="#000000" font-family="sans-serif" font-size="13" lengthAdjust="spacing" textLength="20.96" x="281.5" y="395.6494">has</text><text fill="#000000" font-family="sans-serif" font-size="13" lengthAdjust="spacing" textLength="7.23" x="127.1707" y="442.744">1</text><text fill="#000000" font-family="sans-serif" font-size="13" lengthAdjust="spacing" textLength="7.23" x="458.3279" y="398.5371">1</text></g><!--link ShowProposal to Video--><g id="link_ShowProposal_Video"><path codeLine="47" d="M102.62,431.9011 C125.78,412.9411 159.1,388.1811 192,372.6211 C287.7,327.3511 411.14,302.7911 473.37,292.5111 " fill="none" id="ShowProposal-Video" style="stroke:#181818;stroke-width:1.0;"/><polygon fill="#000000" points="277.1802,300.507,267.6794,300.9392,269.7479,306.4411,277.1802,300.507" style="stroke:#000000;stroke-width:1.0;"/><text fill="#000000" font-family="sans-serif" font-size="13" lengthAdjust="spacing" textLength="20.96" x="281.5" y="307.6494">has</text><text fill="#000000" font-family="sans-serif" font-size="13" lengthAdjust="spacing" textLength="7.23" x="102.1175" y="420.8668">1</text><text fill="#000000" font-family="sans-serif" font-size="13" lengthAdjust="spacing" textLength="7.23" x="458.2805" y="309.2579">1</text></g><!--link ShowProposal to ShowProposalStatus--><g id="link_ShowProposal_ShowProposalStatus"><path codeLine="48" d="M83.03,432.1111 C100.42,393.6411 137.88,322.8011 192,284.6211 C268.37,230.7411 376.63,210.6111 445.84,203.1011 " fill="none" id="ShowProposal-ShowProposalStatus" style="stroke:#181818;stroke-width:1.0;"/><polygon fill="#000000" points="276.7281,201.5977,267.5106,203.9405,270.6481,208.911,276.7281,201.5977" style="stroke:#000000;stroke-width:1.0;"/><text fill="#000000" font-family="sans-serif" font-size="13" lengthAdjust="spacing" textLength="20.96" x="281.5" y="209.6494">has</text><text fill="#000000" font-family="sans-serif" font-size="13" lengthAdjust="spacing" textLength="7.23" x="78.1037" y="420.6921">1</text><text fill="#000000" font-family="sans-serif" font-size="13" lengthAdjust="spacing" textLength="7.23" x="430.5696" y="218.6712">1</text></g><!--link ShowProposal to Name--><g id="link_ShowProposal_Name"><path codeLine="49" d="M75.8,431.8811 C85.06,377.0311 114.03,251.4811 192,186.6211 C274.22,118.2211 407.31,109.1711 473.29,109.2811 " fill="none" id="ShowProposal-Name" style="stroke:#181818;stroke-width:1.0;"/><polygon fill="#000000" points="276.3823,103.1158,267.5071,106.5337,271.2112,111.0976,276.3823,103.1158" style="stroke:#000000;stroke-width:1.0;"/><text fill="#000000" font-family="sans-serif" font-size="13" lengthAdjust="spacing" textLength="20.96" x="281.5" y="111.6494">has</text><text fill="#000000" font-family="sans-serif" font-size="13" lengthAdjust="spacing" textLength="7.23" x="69.0954" y="420.8421">1</text><text fill="#000000" font-family="sans-serif" font-size="13" lengthAdjust="spacing" textLength="7.23" x="458.1857" y="124.6949">1</text></g><!--link ShowProposal to Figures--><g id="link_ShowProposal_Figures"><path codeLine="50" d="M100.9,485.2811 C124.22,505.8311 158.55,533.9711 192,553.6211 C283.8,607.5611 401.6,650.3411 465.91,671.7111 " fill="none" id="ShowProposal-Figures" style="stroke:#181818;stroke-width:1.0;"/><polygon fill="#000000" points="276.9528,546.5409,270.2344,539.8094,267.5608,545.044,276.9528,546.5409" style="stroke:#000000;stroke-width:1.0;"/><text fill="#000000" font-family="sans-serif" font-size="13" lengthAdjust="spacing" textLength="20.96" x="281.5" y="549.6494">has</text><text fill="#000000" font-family="sans-serif" font-size="13" lengthAdjust="spacing" textLength="7.23" x="99.3403" y="506.6343">1</text><text fill="#000000" font-family="sans-serif" font-size="13" lengthAdjust="spacing" textLength="19.5127" x="438.4838" y="684.85">1..*</text></g><!--SRC=[ZP9BIyD058NtyoikMQcGGX4tfGJ4wieNZReV9xV9sCdSE3EXbDB_xhGnPTgQn6n2kDyvkOzZbr9NtF0IIj8a2aCbWZCrCdkeL5miUOwfMoi4Wy9ndQiGi0NFQ2Lr3WkkB3A52mUEmCYyS939dKQIPin9votkgAmKEeGPbLngUA8C5SJmdbwFR-0YBMZrQgWYozKbOuNC48GqGg5jFafq1MMMiT_68Df9eDN0RPuRpBd323QCWN-4ujP2Q0pJwRtsxQoJPBD7jW7O-CtnkqRh8eyU7ET4Baa2T8PM65djnlFS1rSrldn- -NcFg4SIV03vy9DHJpriFdNSrRO7VkR-YgVbRR2m1vdN1ctdgjhwsUZGRYjqcndIs5onop10_kVPplg6FYmUxNG-0tlzZp8GZIE8utZ_Fhdvn0TzWSP2qYqv-_C4QeiT4eYked0B4oXuhtkOh47u4B11iidP8FP7t0Or-zGDKAEHNqERhfPbx0S0]--></g></svg>