<svg xmlns="http://www.w3.org/2000/svg" xmlns:xlink="http://www.w3.org/1999/xlink" contentStyleType="text/css" height="986px" preserveAspectRatio="none" style="width:2435px;height:986px;background:#FFFFFF;" version="1.1" viewBox="0 0 2435 986" width="2435px" zoomAndPan="magnify"><defs/><g><!--class Repositories--><g id="elem_Repositories"><rect codeLine="6" fill="#F1F1F1" height="143.3396" id="Repositories" rx="2.5" ry="2.5" style="stroke:#181818;stroke-width:0.5;" width="395.6545" x="354" y="433"/><ellipse cx="506.8164" cy="449" fill="#ADD1B2" rx="11" ry="11" style="stroke:#181818;stroke-width:1.0;"/><path d="M509.7852,454.6406 Q509.207,454.9375 508.5664,455.0781 Q507.9258,455.2344 507.2227,455.2344 Q504.7227,455.2344 503.3945,453.5938 Q502.082,451.9375 502.082,448.8125 Q502.082,445.6875 503.3945,444.0313 Q504.7227,442.375 507.2227,442.375 Q507.9258,442.375 508.5664,442.5313 Q509.2227,442.6875 509.7852,442.9844 L509.7852,445.7031 Q509.1602,445.125 508.5664,444.8594 Q507.9727,444.5781 507.3477,444.5781 Q506.0039,444.5781 505.3164,445.6563 Q504.6289,446.7188 504.6289,448.8125 Q504.6289,450.9063 505.3164,451.9844 Q506.0039,453.0469 507.3477,453.0469 Q507.9727,453.0469 508.5664,452.7813 Q509.1602,452.5 509.7852,451.9219 L509.7852,454.6406 Z " fill="#000000"/><text fill="#000000" font-family="sans-serif" font-size="14" lengthAdjust="spacing" textLength="81.5217" x="527.3164" y="454.432">Repositories</text><line style="stroke:#181818;stroke-width:0.5;" x1="355" x2="748.6545" y1="465" y2="465"/><line style="stroke:#181818;stroke-width:0.5;" x1="355" x2="748.6545" y1="473" y2="473"/><text fill="#000000" font-family="sans-serif" font-size="14" lengthAdjust="spacing" textLength="94.4296" x="360" y="491.9659">-Repositories()</text><text fill="#000000" font-family="sans-serif" font-size="14" lengthAdjust="spacing" textLength="186.8013" x="360" y="511.0339">+getInstance() : Repositories</text><text fill="#000000" font-family="sans-serif" font-size="14" lengthAdjust="spacing" textLength="368.5626" x="360" y="530.1018">+getShowRequestRepository() : ShowRequestRepository</text><text fill="#000000" font-family="sans-serif" font-size="14" lengthAdjust="spacing" textLength="383.6545" x="360" y="549.1697">+getAuthenticationRepository() : AuthenticationRepository</text><text fill="#000000" font-family="sans-serif" font-size="14" lengthAdjust="spacing" textLength="273.5309" x="360" y="568.2376">+getFigureRepository() : FigureRepository</text></g><!--class AuthenticationController--><g id="elem_AuthenticationController"><rect codeLine="14" fill="#F1F1F1" height="67.0679" id="AuthenticationController" rx="2.5" ry="2.5" style="stroke:#181818;stroke-width:0.5;" width="294.6029" x="23.5" y="471"/><ellipse cx="85.0228" cy="487" fill="#ADD1B2" rx="11" ry="11" style="stroke:#181818;stroke-width:1.0;"/><path d="M87.9915,492.6406 Q87.4134,492.9375 86.7728,493.0781 Q86.1321,493.2344 85.429,493.2344 Q82.929,493.2344 81.6009,491.5938 Q80.2884,489.9375 80.2884,486.8125 Q80.2884,483.6875 81.6009,482.0313 Q82.929,480.375 85.429,480.375 Q86.1321,480.375 86.7728,480.5313 Q87.429,480.6875 87.9915,480.9844 L87.9915,483.7031 Q87.3665,483.125 86.7728,482.8594 Q86.179,482.5781 85.554,482.5781 Q84.2103,482.5781 83.5228,483.6563 Q82.8353,484.7188 82.8353,486.8125 Q82.8353,488.9063 83.5228,489.9844 Q84.2103,491.0469 85.554,491.0469 Q86.179,491.0469 86.7728,490.7813 Q87.3665,490.5 87.9915,489.9219 L87.9915,492.6406 Z " fill="#000000"/><text fill="#000000" font-family="sans-serif" font-size="14" lengthAdjust="spacing" textLength="163.0574" x="105.5228" y="492.432">AuthenticationController</text><line style="stroke:#181818;stroke-width:0.5;" x1="24.5" x2="317.1029" y1="503" y2="503"/><line style="stroke:#181818;stroke-width:0.5;" x1="24.5" x2="317.1029" y1="511" y2="511"/><text fill="#000000" font-family="sans-serif" font-size="14" lengthAdjust="spacing" textLength="282.6029" x="29.5" y="529.9659">+getMyActiveCustomers() : List&lt;Customer&gt;</text></g><!--class FigureController--><g id="elem_FigureController"><rect codeLine="18" fill="#F1F1F1" height="67.0679" id="FigureController" rx="2.5" ry="2.5" style="stroke:#181818;stroke-width:0.5;" width="504.5182" x="785.5" y="471"/><ellipse cx="979.5113" cy="487" fill="#ADD1B2" rx="11" ry="11" style="stroke:#181818;stroke-width:1.0;"/><path d="M982.4801,492.6406 Q981.902,492.9375 981.2613,493.0781 Q980.6207,493.2344 979.9176,493.2344 Q977.4176,493.2344 976.0895,491.5938 Q974.777,489.9375 974.777,486.8125 Q974.777,483.6875 976.0895,482.0313 Q977.4176,480.375 979.9176,480.375 Q980.6207,480.375 981.2613,480.5313 Q981.9176,480.6875 982.4801,480.9844 L982.4801,483.7031 Q981.8551,483.125 981.2613,482.8594 Q980.6676,482.5781 980.0426,482.5781 Q978.6988,482.5781 978.0113,483.6563 Q977.3238,484.7188 977.3238,486.8125 Q977.3238,488.9063 978.0113,489.9844 Q978.6988,491.0469 980.0426,491.0469 Q980.6676,491.0469 981.2613,490.7813 Q981.8551,490.5 982.4801,489.9219 L982.4801,492.6406 Z " fill="#000000"/><text fill="#000000" font-family="sans-serif" font-size="14" lengthAdjust="spacing" textLength="107.9956" x="1000.0113" y="492.432">FigureController</text><line style="stroke:#181818;stroke-width:0.5;" x1="786.5" x2="1289.0182" y1="503" y2="503"/><line style="stroke:#181818;stroke-width:0.5;" x1="786.5" x2="1289.0182" y1="511" y2="511"/><text fill="#000000" font-family="sans-serif" font-size="14" lengthAdjust="spacing" textLength="492.5182" x="791.5" y="529.9659">+getAvailableFiguresForCustomer(CustomerID identification) : List&lt;Figure&gt;</text></g><!--class RegisterShowRequestController--><g id="elem_RegisterShowRequestController"><rect codeLine="22" fill="#F1F1F1" height="124.2717" id="RegisterShowRequestController" rx="2.5" ry="2.5" style="stroke:#181818;stroke-width:0.5;" width="633.6959" x="877" y="230"/><ellipse cx="1084.7104" cy="246" fill="#ADD1B2" rx="11" ry="11" style="stroke:#181818;stroke-width:1.0;"/><path d="M1087.6791,251.6406 Q1087.101,251.9375 1086.4604,252.0781 Q1085.8197,252.2344 1085.1166,252.2344 Q1082.6166,252.2344 1081.2885,250.5938 Q1079.976,248.9375 1079.976,245.8125 Q1079.976,242.6875 1081.2885,241.0313 Q1082.6166,239.375 1085.1166,239.375 Q1085.8197,239.375 1086.4604,239.5313 Q1087.1166,239.6875 1087.6791,239.9844 L1087.6791,242.7031 Q1087.0541,242.125 1086.4604,241.8594 Q1085.8666,241.5781 1085.2416,241.5781 Q1083.8979,241.5781 1083.2104,242.6563 Q1082.5229,243.7188 1082.5229,245.8125 Q1082.5229,247.9063 1083.2104,248.9844 Q1083.8979,250.0469 1085.2416,250.0469 Q1085.8666,250.0469 1086.4604,249.7813 Q1087.0541,249.5 1087.6791,248.9219 L1087.6791,251.6406 Z " fill="#000000"/><text fill="#000000" font-family="sans-serif" font-size="14" lengthAdjust="spacing" textLength="209.7752" x="1105.2104" y="251.432">RegisterShowRequestController</text><line style="stroke:#181818;stroke-width:0.5;" x1="878" x2="1509.6959" y1="262" y2="262"/><line style="stroke:#181818;stroke-width:0.5;" x1="878" x2="1509.6959" y1="270" y2="270"/><text fill="#000000" font-family="sans-serif" font-size="14" lengthAdjust="spacing" textLength="226.1831" x="883" y="288.9659">+RegisterShowRequestController()</text><text fill="#000000" font-family="sans-serif" font-size="14" lengthAdjust="spacing" textLength="621.6959" x="883" y="308.0339">+registerShowRequest(location, date, numDrones, duration, description, listFigures, customer)</text><text fill="#000000" font-family="sans-serif" font-size="14" lengthAdjust="spacing" textLength="164.4294" x="883" y="327.1018">+getResponsible() : Email</text><text fill="#000000" font-family="sans-serif" font-size="14" lengthAdjust="spacing" textLength="205.5332" x="883" y="346.1697">+getThisTime() : LocalDateTime</text></g><!--class RegisterShowRequestUI--><g id="elem_RegisterShowRequestUI"><rect codeLine="29" fill="#F1F1F1" height="162.4075" id="RegisterShowRequestUI" rx="2.5" ry="2.5" style="stroke:#181818;stroke-width:0.5;" width="373.5346" x="1007" y="7"/><ellipse cx="1110.2286" cy="23" fill="#ADD1B2" rx="11" ry="11" style="stroke:#181818;stroke-width:1.0;"/><path d="M1113.1973,28.6406 Q1112.6192,28.9375 1111.9786,29.0781 Q1111.338,29.2344 1110.6348,29.2344 Q1108.1348,29.2344 1106.8067,27.5938 Q1105.4942,25.9375 1105.4942,22.8125 Q1105.4942,19.6875 1106.8067,18.0313 Q1108.1348,16.375 1110.6348,16.375 Q1111.338,16.375 1111.9786,16.5313 Q1112.6348,16.6875 1113.1973,16.9844 L1113.1973,19.7031 Q1112.5723,19.125 1111.9786,18.8594 Q1111.3848,18.5781 1110.7598,18.5781 Q1109.4161,18.5781 1108.7286,19.6563 Q1108.0411,20.7188 1108.0411,22.8125 Q1108.0411,24.9063 1108.7286,25.9844 Q1109.4161,27.0469 1110.7598,27.0469 Q1111.3848,27.0469 1111.9786,26.7813 Q1112.5723,26.5 1113.1973,25.9219 L1113.1973,28.6406 Z " fill="#000000"/><text fill="#000000" font-family="sans-serif" font-size="14" lengthAdjust="spacing" textLength="158.5774" x="1130.7286" y="28.432">RegisterShowRequestUI</text><line style="stroke:#181818;stroke-width:0.5;" x1="1008" x2="1379.5346" y1="39" y2="39"/><line style="stroke:#181818;stroke-width:0.5;" x1="1008" x2="1379.5346" y1="47" y2="47"/><text fill="#000000" font-family="sans-serif" font-size="14" lengthAdjust="spacing" textLength="198.2952" x="1013" y="65.9659">+askToRegisterShowRequest()</text><text fill="#000000" font-family="sans-serif" font-size="14" lengthAdjust="spacing" textLength="361.5346" x="1013" y="85.0339">+optionsToSelectCustomer(List&lt;Customer&gt; customers)</text><text fill="#000000" font-family="sans-serif" font-size="14" lengthAdjust="spacing" textLength="299.8789" x="1013" y="104.1018">+optionsToSelectFigures(List&lt;Figure&gt; figures)</text><text fill="#000000" font-family="sans-serif" font-size="14" lengthAdjust="spacing" textLength="97.9856" x="1013" y="123.1697">+requestData()</text><text fill="#000000" font-family="sans-serif" font-size="14" lengthAdjust="spacing" textLength="138.1515" x="1013" y="142.2376">+showConfirmation()</text><text fill="#000000" font-family="sans-serif" font-size="14" lengthAdjust="spacing" textLength="175.8953" x="1013" y="161.3055">+showsOperationSuccess()</text></g><!--class ShowRequestFactory--><g id="elem_ShowRequestFactory"><rect codeLine="38" fill="#F1F1F1" height="67.0679" id="ShowRequestFactory" rx="2.5" ry="2.5" style="stroke:#181818;stroke-width:0.5;" width="902.7751" x="1525.5" y="471"/><ellipse cx="1903.8278" cy="487" fill="#ADD1B2" rx="11" ry="11" style="stroke:#181818;stroke-width:1.0;"/><path d="M1906.7966,492.6406 Q1906.2185,492.9375 1905.5778,493.0781 Q1904.9372,493.2344 1904.2341,493.2344 Q1901.7341,493.2344 1900.406,491.5938 Q1899.0935,489.9375 1899.0935,486.8125 Q1899.0935,483.6875 1900.406,482.0313 Q1901.7341,480.375 1904.2341,480.375 Q1904.9372,480.375 1905.5778,480.5313 Q1906.2341,480.6875 1906.7966,480.9844 L1906.7966,483.7031 Q1906.1716,483.125 1905.5778,482.8594 Q1904.9841,482.5781 1904.3591,482.5781 Q1903.0153,482.5781 1902.3278,483.6563 Q1901.6403,484.7188 1901.6403,486.8125 Q1901.6403,488.9063 1902.3278,489.9844 Q1903.0153,491.0469 1904.3591,491.0469 Q1904.9841,491.0469 1905.5778,490.7813 Q1906.1716,490.5 1906.7966,489.9219 L1906.7966,492.6406 Z " fill="#000000"/><text fill="#000000" font-family="sans-serif" font-size="14" lengthAdjust="spacing" textLength="137.6195" x="1924.3278" y="492.432">ShowRequestFactory</text><line style="stroke:#181818;stroke-width:0.5;" x1="1526.5" x2="2427.2751" y1="503" y2="503"/><line style="stroke:#181818;stroke-width:0.5;" x1="1526.5" x2="2427.2751" y1="511" y2="511"/><text fill="#000000" font-family="sans-serif" font-size="14" lengthAdjust="spacing" textLength="890.7751" x="1531.5" y="529.9659">+registerShowRequest(location, date, numDrones, duration, description, listFigures, customer, registrationTime, author) : ShowRequest</text></g><!--class ShowRequest--><g id="elem_ShowRequest"><rect codeLine="42" fill="#F1F1F1" height="67.0679" id="ShowRequest" rx="2.5" ry="2.5" style="stroke:#181818;stroke-width:0.5;" width="121.3336" x="1916.5" y="646.5"/><ellipse cx="1931.5" cy="662.5" fill="#ADD1B2" rx="11" ry="11" style="stroke:#181818;stroke-width:1.0;"/><path d="M1934.4688,668.1406 Q1933.8906,668.4375 1933.25,668.5781 Q1932.6094,668.7344 1931.9063,668.7344 Q1929.4063,668.7344 1928.0781,667.0938 Q1926.7656,665.4375 1926.7656,662.3125 Q1926.7656,659.1875 1928.0781,657.5313 Q1929.4063,655.875 1931.9063,655.875 Q1932.6094,655.875 1933.25,656.0313 Q1933.9063,656.1875 1934.4688,656.4844 L1934.4688,659.2031 Q1933.8438,658.625 1933.25,658.3594 Q1932.6563,658.0781 1932.0313,658.0781 Q1930.6875,658.0781 1930,659.1563 Q1929.3125,660.2188 1929.3125,662.3125 Q1929.3125,664.4063 1930,665.4844 Q1930.6875,666.5469 1932.0313,666.5469 Q1932.6563,666.5469 1933.25,666.2813 Q1933.8438,666 1934.4688,665.4219 L1934.4688,668.1406 Z " fill="#000000"/><text fill="#000000" font-family="sans-serif" font-size="14" lengthAdjust="spacing" textLength="89.3336" x="1945.5" y="667.932">ShowRequest</text><line style="stroke:#181818;stroke-width:0.5;" x1="1917.5" x2="2036.8336" y1="678.5" y2="678.5"/><line style="stroke:#181818;stroke-width:0.5;" x1="1917.5" x2="2036.8336" y1="686.5" y2="686.5"/><text fill="#000000" font-family="sans-serif" font-size="14" lengthAdjust="spacing" textLength="68.8657" x="1922.5" y="705.4659">+create(...)</text></g><!--class AuthenticationRepository--><g id="elem_AuthenticationRepository"><rect codeLine="46" fill="#F1F1F1" height="86.1358" id="AuthenticationRepository" rx="2.5" ry="2.5" style="stroke:#181818;stroke-width:0.5;" width="294.6029" x="23.5" y="637"/><ellipse cx="82.8878" cy="653" fill="#ADD1B2" rx="11" ry="11" style="stroke:#181818;stroke-width:1.0;"/><path d="M85.8565,658.6406 Q85.2784,658.9375 84.6378,659.0781 Q83.9971,659.2344 83.294,659.2344 Q80.794,659.2344 79.4659,657.5938 Q78.1534,655.9375 78.1534,652.8125 Q78.1534,649.6875 79.4659,648.0313 Q80.794,646.375 83.294,646.375 Q83.9971,646.375 84.6378,646.5313 Q85.294,646.6875 85.8565,646.9844 L85.8565,649.7031 Q85.2315,649.125 84.6378,648.8594 Q84.044,648.5781 83.419,648.5781 Q82.0753,648.5781 81.3878,649.6563 Q80.7003,650.7188 80.7003,652.8125 Q80.7003,654.9063 81.3878,655.9844 Q82.0753,657.0469 83.419,657.0469 Q84.044,657.0469 84.6378,656.7813 Q85.2315,656.5 85.8565,655.9219 L85.8565,658.6406 Z " fill="#000000"/><text fill="#000000" font-family="sans-serif" font-size="14" lengthAdjust="spacing" textLength="167.3274" x="103.3878" y="658.432">AuthenticationRepository</text><line style="stroke:#181818;stroke-width:0.5;" x1="24.5" x2="317.1029" y1="669" y2="669"/><line style="stroke:#181818;stroke-width:0.5;" x1="24.5" x2="317.1029" y1="677" y2="677"/><text fill="#000000" font-family="sans-serif" font-size="14" lengthAdjust="spacing" textLength="282.6029" x="29.5" y="695.9659">+getMyActiveCustomers() : List&lt;Customer&gt;</text><text fill="#000000" font-family="sans-serif" font-size="14" lengthAdjust="spacing" textLength="260.357" x="29.5" y="715.0339">+getCurrentUserSession() : UserSession</text></g><!--class FigureRepository--><g id="elem_FigureRepository"><rect codeLine="51" fill="#F1F1F1" height="67.0679" id="FigureRepository" rx="2.5" ry="2.5" style="stroke:#181818;stroke-width:0.5;" width="430.5145" x="763.5" y="646.5"/><ellipse cx="918.3745" cy="662.5" fill="#ADD1B2" rx="11" ry="11" style="stroke:#181818;stroke-width:1.0;"/><path d="M921.3432,668.1406 Q920.7651,668.4375 920.1245,668.5781 Q919.4838,668.7344 918.7807,668.7344 Q916.2807,668.7344 914.9526,667.0938 Q913.6401,665.4375 913.6401,662.3125 Q913.6401,659.1875 914.9526,657.5313 Q916.2807,655.875 918.7807,655.875 Q919.4838,655.875 920.1245,656.0313 Q920.7807,656.1875 921.3432,656.4844 L921.3432,659.2031 Q920.7182,658.625 920.1245,658.3594 Q919.5307,658.0781 918.9057,658.0781 Q917.562,658.0781 916.8745,659.1563 Q916.187,660.2188 916.187,662.3125 Q916.187,664.4063 916.8745,665.4844 Q917.562,666.5469 918.9057,666.5469 Q919.5307,666.5469 920.1245,666.2813 Q920.7182,666 921.3432,665.4219 L921.3432,668.1406 Z " fill="#000000"/><text fill="#000000" font-family="sans-serif" font-size="14" lengthAdjust="spacing" textLength="112.2656" x="938.8745" y="667.932">FigureRepository</text><line style="stroke:#181818;stroke-width:0.5;" x1="764.5" x2="1193.0145" y1="678.5" y2="678.5"/><line style="stroke:#181818;stroke-width:0.5;" x1="764.5" x2="1193.0145" y1="686.5" y2="686.5"/><text fill="#000000" font-family="sans-serif" font-size="14" lengthAdjust="spacing" textLength="418.5145" x="769.5" y="705.4659">+getAvailableFiguresForCustomer(CustomerID id) : List&lt;Figure&gt;</text></g><!--class ShowRequestRepository--><g id="elem_ShowRequestRepository"><rect codeLine="55" fill="#F1F1F1" height="67.0679" id="ShowRequestRepository" rx="2.5" ry="2.5" style="stroke:#181818;stroke-width:0.5;" width="234.8091" x="434.5" y="646.5"/><ellipse cx="468.8625" cy="662.5" fill="#ADD1B2" rx="11" ry="11" style="stroke:#181818;stroke-width:1.0;"/><path d="M471.8312,668.1406 Q471.2531,668.4375 470.6125,668.5781 Q469.9719,668.7344 469.2687,668.7344 Q466.7687,668.7344 465.4406,667.0938 Q464.1281,665.4375 464.1281,662.3125 Q464.1281,659.1875 465.4406,657.5313 Q466.7687,655.875 469.2687,655.875 Q469.9719,655.875 470.6125,656.0313 Q471.2687,656.1875 471.8312,656.4844 L471.8312,659.2031 Q471.2062,658.625 470.6125,658.3594 Q470.0187,658.0781 469.3937,658.0781 Q468.05,658.0781 467.3625,659.1563 Q466.675,660.2188 466.675,662.3125 Q466.675,664.4063 467.3625,665.4844 Q468.05,666.5469 469.3937,666.5469 Q470.0187,666.5469 470.6125,666.2813 Q471.2062,666 471.8312,665.4219 L471.8312,668.1406 Z " fill="#000000"/><text fill="#000000" font-family="sans-serif" font-size="14" lengthAdjust="spacing" textLength="159.7814" x="487.1653" y="667.932">ShowRequestRepository</text><line style="stroke:#181818;stroke-width:0.5;" x1="435.5" x2="668.3091" y1="678.5" y2="678.5"/><line style="stroke:#181818;stroke-width:0.5;" x1="435.5" x2="668.3091" y1="686.5" y2="686.5"/><text fill="#000000" font-family="sans-serif" font-size="14" lengthAdjust="spacing" textLength="222.8091" x="440.5" y="705.4659">+add(ShowRequest showRequest)</text></g><!--class UserSession--><g id="elem_UserSession"><rect codeLine="59" fill="#F1F1F1" height="67.0679" id="UserSession" rx="2.5" ry="2.5" style="stroke:#181818;stroke-width:0.5;" width="140.9255" x="100.5" y="784"/><ellipse cx="128.3609" cy="800" fill="#ADD1B2" rx="11" ry="11" style="stroke:#181818;stroke-width:1.0;"/><path d="M131.3297,805.6406 Q130.7515,805.9375 130.1109,806.0781 Q129.4703,806.2344 128.7672,806.2344 Q126.2672,806.2344 124.939,804.5938 Q123.6265,802.9375 123.6265,799.8125 Q123.6265,796.6875 124.939,795.0313 Q126.2672,793.375 128.7672,793.375 Q129.4703,793.375 130.1109,793.5313 Q130.7672,793.6875 131.3297,793.9844 L131.3297,796.7031 Q130.7047,796.125 130.1109,795.8594 Q129.5172,795.5781 128.8922,795.5781 Q127.5484,795.5781 126.8609,796.6563 Q126.1734,797.7188 126.1734,799.8125 Q126.1734,801.9063 126.8609,802.9844 Q127.5484,804.0469 128.8922,804.0469 Q129.5172,804.0469 130.1109,803.7813 Q130.7047,803.5 131.3297,802.9219 L131.3297,805.6406 Z " fill="#000000"/><text fill="#000000" font-family="sans-serif" font-size="14" lengthAdjust="spacing" textLength="80.3457" x="145.2189" y="805.432">UserSession</text><line style="stroke:#181818;stroke-width:0.5;" x1="101.5" x2="240.4255" y1="816" y2="816"/><line style="stroke:#181818;stroke-width:0.5;" x1="101.5" x2="240.4255" y1="824" y2="824"/><text fill="#000000" font-family="sans-serif" font-size="14" lengthAdjust="spacing" textLength="128.9255" x="106.5" y="842.9659">+getUserId() : Email</text></g><!--class Email--><g id="elem_Email"><rect codeLine="63" fill="#F1F1F1" height="67.0679" id="Email" rx="2.5" ry="2.5" style="stroke:#181818;stroke-width:0.5;" width="136.3475" x="103" y="912"/><ellipse cx="148.9478" cy="928" fill="#ADD1B2" rx="11" ry="11" style="stroke:#181818;stroke-width:1.0;"/><path d="M151.9166,933.6406 Q151.3385,933.9375 150.6978,934.0781 Q150.0572,934.2344 149.3541,934.2344 Q146.8541,934.2344 145.526,932.5938 Q144.2135,930.9375 144.2135,927.8125 Q144.2135,924.6875 145.526,923.0313 Q146.8541,921.375 149.3541,921.375 Q150.0572,921.375 150.6978,921.5313 Q151.3541,921.6875 151.9166,921.9844 L151.9166,924.7031 Q151.2916,924.125 150.6978,923.8594 Q150.1041,923.5781 149.4791,923.5781 Q148.1353,923.5781 147.4478,924.6563 Q146.7603,925.7188 146.7603,927.8125 Q146.7603,929.9063 147.4478,930.9844 Q148.1353,932.0469 149.4791,932.0469 Q150.1041,932.0469 150.6978,931.7813 Q151.2916,931.5 151.9166,930.9219 L151.9166,933.6406 Z " fill="#000000"/><text fill="#000000" font-family="sans-serif" font-size="14" lengthAdjust="spacing" textLength="35.9519" x="169.4478" y="933.432">Email</text><line style="stroke:#181818;stroke-width:0.5;" x1="104" x2="238.3475" y1="944" y2="944"/><line style="stroke:#181818;stroke-width:0.5;" x1="104" x2="238.3475" y1="952" y2="952"/><text fill="#000000" font-family="sans-serif" font-size="14" lengthAdjust="spacing" textLength="124.3475" x="109" y="970.9659">+getEmail() : String</text></g><!--class LocalDateTime--><g id="elem_LocalDateTime"><rect codeLine="67" fill="#F1F1F1" height="67.0679" id="LocalDateTime" rx="2.5" ry="2.5" style="stroke:#181818;stroke-width:0.5;" width="164.9634" x="1325.5" y="471"/><ellipse cx="1356.5046" cy="487" fill="#ADD1B2" rx="11" ry="11" style="stroke:#181818;stroke-width:1.0;"/><path d="M1359.4733,492.6406 Q1358.8952,492.9375 1358.2546,493.0781 Q1357.614,493.2344 1356.9108,493.2344 Q1354.4108,493.2344 1353.0827,491.5938 Q1351.7702,489.9375 1351.7702,486.8125 Q1351.7702,483.6875 1353.0827,482.0313 Q1354.4108,480.375 1356.9108,480.375 Q1357.614,480.375 1358.2546,480.5313 Q1358.9108,480.6875 1359.4733,480.9844 L1359.4733,483.7031 Q1358.8483,483.125 1358.2546,482.8594 Q1357.6608,482.5781 1357.0358,482.5781 Q1355.6921,482.5781 1355.0046,483.6563 Q1354.3171,484.7188 1354.3171,486.8125 Q1354.3171,488.9063 1355.0046,489.9844 Q1355.6921,491.0469 1357.0358,491.0469 Q1357.6608,491.0469 1358.2546,490.7813 Q1358.8483,490.5 1359.4733,489.9219 L1359.4733,492.6406 Z " fill="#000000"/><text fill="#000000" font-family="sans-serif" font-size="14" lengthAdjust="spacing" textLength="97.3976" x="1374.0612" y="492.432">LocalDateTime</text><line style="stroke:#181818;stroke-width:0.5;" x1="1326.5" x2="1489.4634" y1="503" y2="503"/><line style="stroke:#181818;stroke-width:0.5;" x1="1326.5" x2="1489.4634" y1="511" y2="511"/><text fill="#000000" font-family="sans-serif" font-size="14" lengthAdjust="spacing" textLength="152.9634" x="1331.5" y="529.9659">+now() : LocalDateTime</text></g><!--link RegisterShowRequestUI to RegisterShowRequestController--><g id="link_RegisterShowRequestUI_RegisterShowRequestController"><path codeLine="71" d="M1194,169.13 C1194,189.39 1194,204.83 1194,223.99 " fill="none" id="RegisterShowRequestUI-to-RegisterShowRequestController" style="stroke:#181818;stroke-width:1.0;stroke-dasharray:7.0,7.0;"/><polygon fill="#181818" points="1194,229.99,1198,220.99,1194,224.99,1190,220.99,1194,229.99" style="stroke:#181818;stroke-width:1.0;"/></g><!--link RegisterShowRequestController to Repositories--><g id="link_RegisterShowRequestController_Repositories"><path codeLine="72" d="M1007.88,354.03 C927.06,380.52 838.0113,409.7204 755.8913,436.6504 " fill="none" id="RegisterShowRequestController-to-Repositories" style="stroke:#181818;stroke-width:1.0;stroke-dasharray:7.0,7.0;"/><polygon fill="#181818" points="750.19,438.52,759.9883,439.5164,754.9411,436.962,757.4955,431.9147,750.19,438.52" style="stroke:#181818;stroke-width:1.0;"/><text fill="#000000" font-family="sans-serif" font-size="13" lengthAdjust="spacing" textLength="72.9821" x="912" y="398.897">repositories</text></g><!--link Repositories to ShowRequestRepository--><g id="link_Repositories_ShowRequestRepository"><path codeLine="73" d="M552,576.07 C552,600.46 552,620.62 552,640.47 " fill="none" id="Repositories-to-ShowRequestRepository" style="stroke:#181818;stroke-width:1.0;"/><polygon fill="#181818" points="552,646.47,556,637.47,552,641.47,548,637.47,552,646.47" style="stroke:#181818;stroke-width:1.0;"/><text fill="#000000" font-family="sans-serif" font-size="13" lengthAdjust="spacing" textLength="7.436" x="544.3428" y="634.7641">1</text></g><!--link Repositories to AuthenticationRepository--><g id="link_Repositories_AuthenticationRepository"><path codeLine="74" d="M397.03,576.07 C351.71,596.71 309.0607,616.1339 268.9307,634.4039 " fill="none" id="Repositories-to-AuthenticationRepository" style="stroke:#181818;stroke-width:1.0;"/><polygon fill="#181818" points="263.47,636.89,273.3185,636.8013,268.0206,634.8183,270.0037,629.5204,263.47,636.89" style="stroke:#181818;stroke-width:1.0;"/><text fill="#000000" font-family="sans-serif" font-size="13" lengthAdjust="spacing" textLength="7.436" x="271.2746" y="625.2863">1</text></g><!--link Repositories to FigureRepository--><g id="link_Repositories_FigureRepository"><path codeLine="75" d="M725.68,576.07 C785.71,600.46 844.5415,624.3609 893.3815,644.2109 " fill="none" id="Repositories-to-FigureRepository" style="stroke:#181818;stroke-width:1.0;"/><polygon fill="#181818" points="898.94,646.47,892.1084,639.3757,894.308,644.5874,889.0962,646.787,898.94,646.47" style="stroke:#181818;stroke-width:1.0;"/><text fill="#000000" font-family="sans-serif" font-size="13" lengthAdjust="spacing" textLength="7.436" x="874.8008" y="634.7641">1</text></g><!--link RegisterShowRequestController to AuthenticationRepository--><g id="link_RegisterShowRequestController_AuthenticationRepository"><path codeLine="77" d="M876.81,330.38 C524.89,371.85 6,433 6,433 C6,433 6,576 6,576 C6,576 52.7608,605.182 98.3208,633.632 " fill="none" id="RegisterShowRequestController-to-AuthenticationRepository" style="stroke:#181818;stroke-width:1.0;stroke-dasharray:7.0,7.0;"/><polygon fill="#181818" points="103.41,636.81,97.8948,628.6502,99.169,634.1617,93.6575,635.4359,103.41,636.81" style="stroke:#181818;stroke-width:1.0;"/></g><!--link AuthenticationController to AuthenticationRepository--><g id="link_AuthenticationController_AuthenticationRepository"><path codeLine="78" d="M171,538.13 C171,566.11 171,600.59 171,630.98 " fill="none" id="AuthenticationController-to-AuthenticationRepository" style="stroke:#181818;stroke-width:1.0;stroke-dasharray:7.0,7.0;"/><polygon fill="#181818" points="171,636.98,175,627.98,171,631.98,167,627.98,171,636.98" style="stroke:#181818;stroke-width:1.0;"/></g><!--link AuthenticationRepository to UserSession--><g id="link_AuthenticationRepository_UserSession"><path codeLine="79" d="M171,723.13 C171,742.71 171,759.63 171,777.87 " fill="none" id="AuthenticationRepository-to-UserSession" style="stroke:#181818;stroke-width:1.0;"/><polygon fill="#181818" points="171,783.87,175,774.87,171,778.87,167,774.87,171,783.87" style="stroke:#181818;stroke-width:1.0;"/></g><!--link UserSession to Email--><g id="link_UserSession_Email"><path codeLine="80" d="M171,851.28 C171,869.94 171,887.25 171,905.89 " fill="none" id="UserSession-to-Email" style="stroke:#181818;stroke-width:1.0;"/><polygon fill="#181818" points="171,911.89,175,902.89,171,906.89,167,902.89,171,911.89" style="stroke:#181818;stroke-width:1.0;"/></g><!--link RegisterShowRequestController to ShowRequestFactory--><g id="link_RegisterShowRequestController_ShowRequestFactory"><path codeLine="82" d="M1421,354.03 C1563.03,392.21 1734.5658,438.3221 1850.2358,469.4221 " fill="none" id="RegisterShowRequestController-to-ShowRequestFactory" style="stroke:#181818;stroke-width:1.0;stroke-dasharray:7.0,7.0;"/><polygon fill="#181818" points="1856.03,470.98,1848.3773,464.7804,1851.2015,469.6818,1846.3001,472.506,1856.03,470.98" style="stroke:#181818;stroke-width:1.0;"/></g><!--link ShowRequestFactory to ShowRequest--><g id="link_ShowRequestFactory_ShowRequest"><path codeLine="83" d="M1977,538.13 C1977,569.05 1977,609.25 1977,640.22 " fill="none" id="ShowRequestFactory-to-ShowRequest" style="stroke:#181818;stroke-width:1.0;"/><polygon fill="#181818" points="1977,646.22,1981,637.22,1977,641.22,1973,637.22,1977,646.22" style="stroke:#181818;stroke-width:1.0;"/></g><!--link RegisterShowRequestController to LocalDateTime--><g id="link_RegisterShowRequestController_LocalDateTime"><path codeLine="85" d="M1256.19,354.17 C1294.93,392.28 1338.9836,435.6014 1370.5536,466.6714 " fill="none" id="RegisterShowRequestController-to-LocalDateTime" style="stroke:#181818;stroke-width:1.0;stroke-dasharray:7.0,7.0;"/><polygon fill="#181818" points="1374.83,470.88,1371.2212,461.7161,1371.2664,467.3728,1365.6097,467.418,1374.83,470.88" style="stroke:#181818;stroke-width:1.0;"/></g><!--link FigureController to FigureRepository--><g id="link_FigureController_FigureRepository"><path codeLine="87" d="M1026.9,538.13 C1016.39,569.05 1002.6114,609.5694 992.0814,640.5394 " fill="none" id="FigureController-to-FigureRepository" style="stroke:#181818;stroke-width:1.0;stroke-dasharray:7.0,7.0;"/><polygon fill="#181818" points="990.15,646.22,996.8343,638.9867,991.7595,641.4861,989.2601,636.4114,990.15,646.22" style="stroke:#181818;stroke-width:1.0;"/></g><!--SRC=[jLLDZzem4BtdLrXx2YgWzhgga10K2MchIi3-0Ayp10l7JZtE8bhrlzU9W-E0WzZ3SY8pRxwUvzbuvBAacXQafEn8SzYQim2YWHagSm49UW0UQAPENEPaJmM67i4bc7C9f5JYN7y4FYOeujmOpTyg0skcv9R_0V8rIHeFsK2fa1kbEI3vcn3xc_ICwQWnVY4vcBL4snQ3T4IUUw0EiZseqmP-Lu360yuDFkhf0kULEO0qd573bRoA7N9suIkULngkmgwDoR_BsFs42oMDLaA0RYbeKluypvdXxx2eqAW2D3OvNpYQxnVJhCleQiKppTyf5_HDW0FXIkbBXlJoPxqaFAjRshTD-M8kA2YrWTpQGGUCHkhUHVbJrRUeL2ZNmPXarC2OoAfOQYK1hQ7I5nSWqxnq7yBcQ6SR4zPE52pE1h1K4hcbe27nHs49wTox0ySTBvplnLONIrkujjmT-dNjXwLutAa8nC-fcavnfxOWhBWy_VtZzBtZG5mxP1eU3DaxOqTfKzgEG7rvj2rPzlTS5mr_FGV-Ai7HkgqO0wmrv-SEXbbHLc-n7_eJpsxS9dSHzKcC2RMQKVfAoj56VOTCW-qYdKwdeo7jTUhyiFOyUb5fRJE-ekN2qjVmQ-71zxLEurKVrkcmDgEtNBUcMPQ6F67tFo0ew3lihZQliq0_Fg3v3A6DmTswzkQNUGVjgSk7I7MAQo-kkkbqTlzwIUvVKIu-U7YUxRe5hqdFDvdCoDEtfu7t8meTV2wYw9jNue7k1oiCFYmVY0eMf-unNEDmDMgVMuG76hwzHfB8pLAd3CNzGEB-oYGtps2DkM7uFm00]--></g></svg>