<?xml version="1.0" encoding="UTF-8" standalone="no"?><svg xmlns="http://www.w3.org/2000/svg" xmlns:xlink="http://www.w3.org/1999/xlink" contentScriptType="application/ecmascript" contentStyleType="text/css" height="295px" preserveAspectRatio="none" style="width:206px;height:295px;" version="1.1" viewBox="0 0 206 295" width="206px" zoomAndPan="magnify"><defs><filter height="300%" id="f2vuzfwpyib2a" width="300%" x="-1" y="-1"><feGaussianBlur result="blurOut" stdDeviation="2.0"/><feColorMatrix in="blurOut" result="blurOut2" type="matrix" values="0 0 0 0 0 0 0 0 0 0 0 0 0 0 0 0 0 0 .4 0"/><feOffset dx="4.0" dy="4.0" in="blurOut2" result="blurOut3"/><feBlend in="SourceGraphic" in2="blurOut3" mode="normal"/></filter></defs><g><!--MD5=[edbdeb3b9ed2a66957cd528de875fe00]
class authz.Email--><a href="Email.html" target="_top" title="Email.html" xlink:actuate="onRequest" xlink:href="Email.html" xlink:show="new" xlink:title="Email.html" xlink:type="simple"><rect codeLine="5" fill="#FEFECE" filter="url(#f2vuzfwpyib2a)" height="148.5792" id="authz.Email" style="stroke: #A80036; stroke-width: 1.5;" width="180" x="7" y="110"/><ellipse cx="74.25" cy="131.344" fill="#ADD1B2" rx="11" ry="11" style="stroke: #A80036; stroke-width: 1.0;"/><path d="M77.2188,136.9846 Q76.6406,137.2815 76,137.4221 Q75.3594,137.5783 74.6563,137.5783 Q72.1563,137.5783 70.8281,135.9377 Q69.5156,134.2815 69.5156,131.1565 Q69.5156,128.0315 70.8281,126.3752 Q72.1563,124.719 74.6563,124.719 Q75.3594,124.719 76,124.8752 Q76.6563,125.0315 77.2188,125.3283 L77.2188,128.0471 Q76.5938,127.469 76,127.2033 Q75.4063,126.9221 74.7813,126.9221 Q73.4375,126.9221 72.75,128.0002 Q72.0625,129.0627 72.0625,131.1565 Q72.0625,133.2502 72.75,134.3283 Q73.4375,135.3908 74.7813,135.3908 Q75.4063,135.3908 76,135.1252 Q76.5938,134.844 77.2188,134.2658 L77.2188,136.9846 Z "/><text fill="#000000" font-family="sans-serif" font-size="14" lengthAdjust="spacingAndGlyphs" textLength="37" x="94.75" y="129.9659">Email</text><text fill="#000000" font-family="sans-serif" font-size="10" lengthAdjust="spacingAndGlyphs" textLength="27" x="99.75" y="144.7579">authz</text><line style="stroke: #A80036; stroke-width: 1.5;" x1="8" x2="186" y1="152.6879" y2="152.6879"/><rect fill="none" height="6" style="stroke: #C82930; stroke-width: 1.0;" width="6" x="15" y="160.6879"/><text fill="#000000" font-family="sans-serif" font-size="11" lengthAdjust="spacingAndGlyphs" textLength="66" x="27" y="168.4468">email: String</text><line style="stroke: #A80036; stroke-width: 1.5;" x1="8" x2="186" y1="175.6698" y2="175.6698"/><ellipse cx="18" cy="186.6698" fill="#84BE84" rx="3" ry="3" style="stroke: #038048; stroke-width: 1.0;"/><text fill="#000000" font-family="sans-serif" font-size="11" lengthAdjust="spacingAndGlyphs" textLength="34" x="27" y="191.4287">Email()</text><ellipse cx="18" cy="201.6517" fill="#84BE84" rx="3" ry="3" style="stroke: #038048; stroke-width: 1.0;"/><text fill="#000000" font-family="sans-serif" font-size="11" lengthAdjust="spacingAndGlyphs" textLength="66" x="27" y="206.4106">Email(String)</text><rect fill="#F24D5C" height="6" style="stroke: #C82930; stroke-width: 1.0;" width="6" x="15" y="213.6336"/><text fill="#000000" font-family="sans-serif" font-size="11" lengthAdjust="spacingAndGlyphs" textLength="128" x="27" y="221.3925">validate(String): boolean</text><rect fill="#F24D5C" height="6" style="stroke: #C82930; stroke-width: 1.0;" width="6" x="15" y="228.6155"/><text fill="#000000" font-family="sans-serif" font-size="11" lengthAdjust="spacingAndGlyphs" textLength="154" x="27" y="236.3744">checkFormat(String): boolean</text><ellipse cx="18" cy="246.5973" fill="#84BE84" rx="3" ry="3" style="stroke: #038048; stroke-width: 1.0;"/><text fill="#000000" font-family="sans-serif" font-size="11" lengthAdjust="spacingAndGlyphs" textLength="89" x="27" y="251.3563">getEmail(): String</text></a><!--MD5=[5a5af9b0547913863cbe0ddf55a9ab5e]
class java.io.Serializable--><rect codeLine="14" fill="#FEFECE" filter="url(#f2vuzfwpyib2a)" height="42.6879" id="java.io.Serializable" style="stroke: #A80036; stroke-width: 1.5;" width="105" x="44.5" y="7"/><ellipse cx="59.5" cy="28.344" fill="#B4A7E5" rx="11" ry="11" style="stroke: #A80036; stroke-width: 1.0;"/><path d="M55.4219,24.1096 L55.4219,21.9533 L62.8125,21.9533 L62.8125,24.1096 L60.3438,24.1096 L60.3438,32.1877 L62.8125,32.1877 L62.8125,34.344 L55.4219,34.344 L55.4219,32.1877 L57.8906,32.1877 L57.8906,24.1096 L55.4219,24.1096 Z "/><text fill="#000000" font-family="sans-serif" font-size="14" font-style="italic" lengthAdjust="spacingAndGlyphs" textLength="73" x="73.5" y="26.9659">Serializable</text><text fill="#000000" font-family="sans-serif" font-size="10" font-style="italic" lengthAdjust="spacingAndGlyphs" textLength="32" x="94" y="41.7579">java.io</text><!--MD5=[32e701f4719460df32b651376dacfd8b]
reverse link java.io.Serializable to authz.Email--><path codeLine="16" d="M97,70.64 C97,82.74 97,96.37 97,109.86 " fill="none" id="java.io.Serializable-backto-authz.Email" style="stroke: #A80036; stroke-width: 1.0; stroke-dasharray: 7.0,7.0;"/><polygon fill="none" points="90,70.27,97,50.27,104,70.27,90,70.27" style="stroke: #A80036; stroke-width: 1.0;"/><text fill="#888888" font-family="sans-serif" font-size="10" lengthAdjust="spacingAndGlyphs" textLength="188" x="0" y="282.2692">UMLDoclet 2.0.12, PlantUML 1.2020.16</text><!--MD5=[b496bbe8927aab495032b481138f2822]
@startuml
    set namespaceSeparator none
    hide empty fields
    hide empty methods

    class "<size:14>Email\n<size:10>authz" as authz.Email [[Email.html]] {
        -email: String
        +Email()
        +Email(String)
        -validate(String): boolean
        -checkFormat(String): boolean
        +getEmail(): String
    }

    interface "<size:14>Serializable\n<size:10>java.io" as java.io.Serializable

    java.io.Serializable <|.. authz.Email

    center footer UMLDoclet 2.0.12, PlantUML 1.2020.16
@enduml

PlantUML version 1.2020.16(Sun Aug 23 21:20:43 WEST 2020)
(APACHE source distribution)
Java Runtime: Java(TM) SE Runtime Environment
JVM: Java HotSpot(TM) 64-Bit Server VM
Default Encoding: UTF-8
Language: en
Country: US
--></g></svg>