<?xml version="1.0" encoding="UTF-8" standalone="no"?><svg xmlns="http://www.w3.org/2000/svg" xmlns:xlink="http://www.w3.org/1999/xlink" contentScriptType="application/ecmascript" contentStyleType="text/css" height="273px" preserveAspectRatio="none" style="width:210px;height:273px;" version="1.1" viewBox="0 0 210 273" width="210px" zoomAndPan="magnify"><defs><filter height="300%" id="f2vuzfwpyib2a" width="300%" x="-1" y="-1"><feGaussianBlur result="blurOut" stdDeviation="2.0"/><feColorMatrix in="blurOut" result="blurOut2" type="matrix" values="0 0 0 0 0 0 0 0 0 0 0 0 0 0 0 0 0 0 .4 0"/><feOffset dx="4.0" dy="4.0" in="blurOut2" result="blurOut3"/><feBlend in="SourceGraphic" in2="blurOut3" mode="normal"/></filter></defs><g><!--MD5=[edbdeb3b9ed2a66957cd528de875fe00]
class authz.Email--><a href="Email.html" target="_top" title="Email.html" xlink:actuate="onRequest" xlink:href="Email.html" xlink:show="new" xlink:title="Email.html" xlink:type="simple"><rect codeLine="5" fill="#FEFECE" filter="url(#f2vuzfwpyib2a)" height="131.9961" id="authz.Email" style="stroke: #A80036; stroke-width: 1.5;" width="184" x="7" y="105.26"/><ellipse cx="76.25" cy="124.3928" fill="#ADD1B2" rx="11" ry="11" style="stroke: #A80036; stroke-width: 1.0;"/><path d="M78.7231,130.5359 Q78.1421,130.8347 77.5029,130.9841 Q76.8638,131.1335 76.1582,131.1335 Q73.6514,131.1335 72.3315,129.4817 Q71.0117,127.8298 71.0117,124.7087 Q71.0117,121.5793 72.3315,119.9275 Q73.6514,118.2756 76.1582,118.2756 Q76.8638,118.2756 77.5112,118.425 Q78.1587,118.5745 78.7231,118.8733 L78.7231,121.5959 Q78.0923,121.0149 77.4988,120.7451 Q76.9053,120.4753 76.2744,120.4753 Q74.9297,120.4753 74.2449,121.542 Q73.5601,122.6086 73.5601,124.7087 Q73.5601,126.8005 74.2449,127.8672 Q74.9297,128.9338 76.2744,128.9338 Q76.9053,128.9338 77.4988,128.6641 Q78.0923,128.3943 78.7231,127.8132 Z "/><text fill="#000000" font-family="sans-serif" font-size="14" lengthAdjust="spacingAndGlyphs" textLength="37" x="96.75" y="123.7952">Email</text><text fill="#000000" font-family="sans-serif" font-size="10" lengthAdjust="spacingAndGlyphs" textLength="28" x="101.25" y="136.4163">authz</text><line style="stroke: #A80036; stroke-width: 1.5;" x1="8" x2="190" y1="143.5256" y2="143.5256"/><rect fill="none" height="6" style="stroke: #C82930; stroke-width: 1.0;" width="6" x="15" y="151.5256"/><text fill="#000000" font-family="sans-serif" font-size="11" lengthAdjust="spacingAndGlyphs" textLength="66" x="27" y="158.1604">email: String</text><line style="stroke: #A80036; stroke-width: 1.5;" x1="8" x2="190" y1="164.4807" y2="164.4807"/><ellipse cx="18" cy="175.4807" fill="#84BE84" rx="3" ry="3" style="stroke: #038048; stroke-width: 1.0;"/><text fill="#000000" font-family="sans-serif" font-size="11" lengthAdjust="spacingAndGlyphs" textLength="36" x="27" y="179.1155">Email()</text><ellipse cx="18" cy="188.4358" fill="#84BE84" rx="3" ry="3" style="stroke: #038048; stroke-width: 1.0;"/><text fill="#000000" font-family="sans-serif" font-size="11" lengthAdjust="spacingAndGlyphs" textLength="68" x="27" y="192.0705">Email(String)</text><rect fill="#F24D5C" height="6" style="stroke: #C82930; stroke-width: 1.0;" width="6" x="15" y="198.3909"/><text fill="#000000" font-family="sans-serif" font-size="11" lengthAdjust="spacingAndGlyphs" textLength="130" x="27" y="205.0256">validate(String): boolean</text><rect fill="#F24D5C" height="6" style="stroke: #C82930; stroke-width: 1.0;" width="6" x="15" y="211.3459"/><text fill="#000000" font-family="sans-serif" font-size="11" lengthAdjust="spacingAndGlyphs" textLength="158" x="27" y="217.9807">checkFormat(String): boolean</text><ellipse cx="18" cy="227.301" fill="#84BE84" rx="3" ry="3" style="stroke: #038048; stroke-width: 1.0;"/><text fill="#000000" font-family="sans-serif" font-size="11" lengthAdjust="spacingAndGlyphs" textLength="91" x="27" y="230.9358">getEmail(): String</text></a><!--MD5=[5a5af9b0547913863cbe0ddf55a9ab5e]
class java.io.Serializable--><rect codeLine="14" fill="#FEFECE" filter="url(#f2vuzfwpyib2a)" height="38.2656" id="java.io.Serializable" style="stroke: #A80036; stroke-width: 1.5;" width="111" x="43.5" y="7"/><ellipse cx="58.5" cy="26.1328" fill="#B4A7E5" rx="11" ry="11" style="stroke: #A80036; stroke-width: 1.0;"/><path d="M54.9277,22.3979 L54.9277,20.2397 L62.3071,20.2397 L62.3071,22.3979 L59.8418,22.3979 L59.8418,30.4746 L62.3071,30.4746 L62.3071,32.6328 L54.9277,32.6328 L54.9277,30.4746 L57.3931,30.4746 L57.3931,22.3979 Z "/><text fill="#000000" font-family="sans-serif" font-size="14" font-style="italic" lengthAdjust="spacingAndGlyphs" textLength="79" x="72.5" y="25.5352">Serializable</text><text fill="#000000" font-family="sans-serif" font-size="10" font-style="italic" lengthAdjust="spacingAndGlyphs" textLength="32" x="96" y="38.1563">java.io</text><!--MD5=[32e701f4719460df32b651376dacfd8b]
reverse link java.io.Serializable to authz.Email--><path codeLine="16" d="M99,66.66 C99,78.52 99,91.86 99,104.92 " fill="none" id="java.io.Serializable-backto-authz.Email" style="stroke: #A80036; stroke-width: 1.0; stroke-dasharray: 7.0,7.0;"/><polygon fill="none" points="92,67.06,99,47.06,106,67.06,92,67.06" style="stroke: #A80036; stroke-width: 1.0;"/><text fill="#888888" font-family="sans-serif" font-size="10" lengthAdjust="spacingAndGlyphs" textLength="188" x="2" y="259.9241">UMLDoclet 2.0.12, PlantUML 1.2020.16</text><!--MD5=[5af2b1ec85c184f9bd05c844a22d755b]
@startuml
    set namespaceSeparator none
    hide empty fields
    hide empty methods

    class "<size:14>Email\n<size:10>authz" as authz.Email [[Email.html]] {
        -email: String
        +Email()
        +Email(String)
        -validate(String): boolean
        -checkFormat(String): boolean
        +getEmail(): String
    }

    interface "<size:14>Serializable\n<size:10>java.io" as java.io.Serializable

    java.io.Serializable <|.. authz.Email

    center footer UMLDoclet 2.0.12, PlantUML 1.2020.16
@enduml

PlantUML version 1.2020.16(Sun Aug 23 21:20:43 WEST 2020)
(APACHE source distribution)
Java Runtime: OpenJDK Runtime Environment
JVM: OpenJDK 64-Bit Server VM
Default Encoding: UTF-8
Language: pt
Country: PT
--></g></svg>