<?xml version="1.0" encoding="UTF-8" standalone="no"?><svg xmlns="http://www.w3.org/2000/svg" xmlns:xlink="http://www.w3.org/1999/xlink" contentScriptType="application/ecmascript" contentStyleType="text/css" height="544px" preserveAspectRatio="none" style="width:976px;height:544px;" version="1.1" viewBox="0 0 976 544" width="976px" zoomAndPan="magnify"><defs><filter height="300%" id="fe93fs20s49rs" width="300%" x="-1" y="-1"><feGaussianBlur result="blurOut" stdDeviation="2.0"/><feColorMatrix in="blurOut" result="blurOut2" type="matrix" values="0 0 0 0 0 0 0 0 0 0 0 0 0 0 0 0 0 0 .4 0"/><feOffset dx="4.0" dy="4.0" in="blurOut2" result="blurOut3"/><feBlend in="SourceGraphic" in2="blurOut3" mode="normal"/></filter></defs><g><!--MD5=[b32cd23d5b2ac20bedadec64b8d242b5]
cluster authz--><polygon fill="#FFFFFF" filter="url(#fe93fs20s49rs)" points="16,6,62,6,69,28.4883,800,28.4883,800,515.01,16,515.01,16,6" style="stroke: #000000; stroke-width: 1.5;"/><line style="stroke: #000000; stroke-width: 1.5;" x1="16" x2="69" y1="28.4883" y2="28.4883"/><text fill="#000000" font-family="sans-serif" font-size="14" font-weight="bold" lengthAdjust="spacingAndGlyphs" textLength="40" x="20" y="21.5352">authz</text><!--MD5=[0d852700fdad35b7061d461d6907a324]
cluster java.io--><polygon fill="#FFFFFF" filter="url(#fe93fs20s49rs)" points="824,83.73,876,83.73,883,106.2183,954,106.2183,954,182.73,824,182.73,824,83.73" style="stroke: #000000; stroke-width: 1.5;"/><line style="stroke: #000000; stroke-width: 1.5;" x1="824" x2="883" y1="106.2183" y2="106.2183"/><text fill="#000000" font-family="sans-serif" font-size="14" font-weight="bold" lengthAdjust="spacingAndGlyphs" textLength="46" x="828" y="99.2652">java.io</text><!--MD5=[6e9ce638ce98935d7a91f661d591ba67]
class authz.UserRole--><a href="UserRole.html" target="_top" title="UserRole.html" xlink:actuate="onRequest" xlink:href="UserRole.html" xlink:show="new" xlink:title="UserRole.html" xlink:type="simple"><rect codeLine="3" fill="#FEFECE" filter="url(#fe93fs20s49rs)" height="177.5508" id="authz.UserRole" style="stroke: #A80036; stroke-width: 1.5;" width="216" x="84" y="321.46"/><ellipse cx="162.25" cy="337.46" fill="#ADD1B2" rx="11" ry="11" style="stroke: #A80036; stroke-width: 1.0;"/><path d="M164.7231,343.6031 Q164.1421,343.9019 163.5029,344.0513 Q162.8638,344.2007 162.1582,344.2007 Q159.6514,344.2007 158.3315,342.5489 Q157.0117,340.897 157.0117,337.7759 Q157.0117,334.6465 158.3315,332.9947 Q159.6514,331.3428 162.1582,331.3428 Q162.8638,331.3428 163.5112,331.4922 Q164.1587,331.6416 164.7231,331.9405 L164.7231,334.6631 Q164.0923,334.0821 163.4988,333.8123 Q162.9053,333.5425 162.2744,333.5425 Q160.9297,333.5425 160.2449,334.6092 Q159.5601,335.6758 159.5601,337.7759 Q159.5601,339.8677 160.2449,340.9344 Q160.9297,342.001 162.2744,342.001 Q162.9053,342.001 163.4988,341.7312 Q164.0923,341.4615 164.7231,340.8804 Z "/><text fill="#000000" font-family="sans-serif" font-size="12" lengthAdjust="spacingAndGlyphs" textLength="51" x="182.75" y="341.9952">UserRole</text><line style="stroke: #A80036; stroke-width: 1.5;" x1="85" x2="299" y1="353.46" y2="353.46"/><rect fill="none" height="6" style="stroke: #C82930; stroke-width: 1.0;" width="6" x="92" y="361.46"/><text fill="#000000" font-family="sans-serif" font-size="11" lengthAdjust="spacingAndGlyphs" textLength="48" x="104" y="368.0948">id: String</text><rect fill="none" height="6" style="stroke: #C82930; stroke-width: 1.0;" width="6" x="92" y="374.4151"/><text fill="#000000" font-family="sans-serif" font-size="11" lengthAdjust="spacingAndGlyphs" textLength="99" x="104" y="381.0498">description: String</text><line style="stroke: #A80036; stroke-width: 1.5;" x1="85" x2="299" y1="387.3702" y2="387.3702"/><ellipse cx="95" cy="398.3702" fill="#84BE84" rx="3" ry="3" style="stroke: #038048; stroke-width: 1.0;"/><text fill="#000000" font-family="sans-serif" font-size="11" lengthAdjust="spacingAndGlyphs" textLength="56" x="104" y="402.0049">UserRole()</text><ellipse cx="95" cy="411.3252" fill="#84BE84" rx="3" ry="3" style="stroke: #038048; stroke-width: 1.0;"/><text fill="#000000" font-family="sans-serif" font-size="11" lengthAdjust="spacingAndGlyphs" textLength="126" x="104" y="414.96">UserRole(String, String)</text><ellipse cx="95" cy="424.2803" fill="#84BE84" rx="3" ry="3" style="stroke: #038048; stroke-width: 1.0;"/><text fill="#000000" font-family="sans-serif" font-size="11" lengthAdjust="spacingAndGlyphs" textLength="73" x="104" y="427.9151">getId(): String</text><ellipse cx="95" cy="437.2354" fill="#84BE84" rx="3" ry="3" style="stroke: #038048; stroke-width: 1.0;"/><text fill="#000000" font-family="sans-serif" font-size="11" lengthAdjust="spacingAndGlyphs" textLength="95" x="104" y="440.8702">setId(String): void</text><ellipse cx="95" cy="450.1905" fill="#84BE84" rx="3" ry="3" style="stroke: #038048; stroke-width: 1.0;"/><text fill="#000000" font-family="sans-serif" font-size="11" lengthAdjust="spacingAndGlyphs" textLength="125" x="104" y="453.8252">getDescription(): String</text><ellipse cx="95" cy="463.1455" fill="#84BE84" rx="3" ry="3" style="stroke: #038048; stroke-width: 1.0;"/><text fill="#000000" font-family="sans-serif" font-size="11" lengthAdjust="spacingAndGlyphs" textLength="147" x="104" y="466.7803">setDescription(String): void</text><ellipse cx="95" cy="476.1006" fill="#84BE84" rx="3" ry="3" style="stroke: #038048; stroke-width: 1.0;"/><text fill="#000000" font-family="sans-serif" font-size="11" lengthAdjust="spacingAndGlyphs" textLength="190" x="104" y="479.7354">changeDescription(String): boolean</text><ellipse cx="95" cy="489.0557" fill="#84BE84" rx="3" ry="3" style="stroke: #038048; stroke-width: 1.0;"/><text fill="#000000" font-family="sans-serif" font-size="11" lengthAdjust="spacingAndGlyphs" textLength="118" x="104" y="492.6905">hasId(String): boolean</text></a><!--MD5=[edbdeb3b9ed2a66957cd528de875fe00]
class authz.Email--><a href="Email.html" target="_top" title="Email.html" xlink:actuate="onRequest" xlink:href="Email.html" xlink:show="new" xlink:title="Email.html" xlink:type="simple"><rect codeLine="16" fill="#FEFECE" filter="url(#fe93fs20s49rs)" height="125.7305" id="authz.Email" style="stroke: #A80036; stroke-width: 1.5;" width="184" x="593" y="347.37"/><ellipse cx="665.25" cy="363.37" fill="#ADD1B2" rx="11" ry="11" style="stroke: #A80036; stroke-width: 1.0;"/><path d="M667.7231,369.5131 Q667.1421,369.8119 666.5029,369.9613 Q665.8638,370.1107 665.1582,370.1107 Q662.6514,370.1107 661.3315,368.4589 Q660.0117,366.807 660.0117,363.6859 Q660.0117,360.5565 661.3315,358.9047 Q662.6514,357.2528 665.1582,357.2528 Q665.8638,357.2528 666.5112,357.4022 Q667.1587,357.5516 667.7231,357.8505 L667.7231,360.5731 Q667.0923,359.9921 666.4988,359.7223 Q665.9053,359.4525 665.2744,359.4525 Q663.9297,359.4525 663.2449,360.5192 Q662.5601,361.5858 662.5601,363.6859 Q662.5601,365.7777 663.2449,366.8444 Q663.9297,367.911 665.2744,367.911 Q665.9053,367.911 666.4988,367.6412 Q667.0923,367.3715 667.7231,366.7904 Z "/><text fill="#000000" font-family="sans-serif" font-size="12" lengthAdjust="spacingAndGlyphs" textLength="31" x="685.75" y="367.9052">Email</text><line style="stroke: #A80036; stroke-width: 1.5;" x1="594" x2="776" y1="379.37" y2="379.37"/><rect fill="none" height="6" style="stroke: #C82930; stroke-width: 1.0;" width="6" x="601" y="387.37"/><text fill="#000000" font-family="sans-serif" font-size="11" lengthAdjust="spacingAndGlyphs" textLength="66" x="613" y="394.0048">email: String</text><line style="stroke: #A80036; stroke-width: 1.5;" x1="594" x2="776" y1="400.3251" y2="400.3251"/><ellipse cx="604" cy="411.3251" fill="#84BE84" rx="3" ry="3" style="stroke: #038048; stroke-width: 1.0;"/><text fill="#000000" font-family="sans-serif" font-size="11" lengthAdjust="spacingAndGlyphs" textLength="36" x="613" y="414.9598">Email()</text><ellipse cx="604" cy="424.2802" fill="#84BE84" rx="3" ry="3" style="stroke: #038048; stroke-width: 1.0;"/><text fill="#000000" font-family="sans-serif" font-size="11" lengthAdjust="spacingAndGlyphs" textLength="68" x="613" y="427.9149">Email(String)</text><rect fill="#F24D5C" height="6" style="stroke: #C82930; stroke-width: 1.0;" width="6" x="601" y="434.2352"/><text fill="#000000" font-family="sans-serif" font-size="11" lengthAdjust="spacingAndGlyphs" textLength="130" x="613" y="440.87">validate(String): boolean</text><rect fill="#F24D5C" height="6" style="stroke: #C82930; stroke-width: 1.0;" width="6" x="601" y="447.1903"/><text fill="#000000" font-family="sans-serif" font-size="11" lengthAdjust="spacingAndGlyphs" textLength="158" x="613" y="453.8251">checkFormat(String): boolean</text><ellipse cx="604" cy="463.1454" fill="#84BE84" rx="3" ry="3" style="stroke: #038048; stroke-width: 1.0;"/><text fill="#000000" font-family="sans-serif" font-size="11" lengthAdjust="spacingAndGlyphs" textLength="91" x="613" y="466.7802">getEmail(): String</text></a><!--MD5=[5884b9fe79cd7fdd9385cb1d59f809e1]
class authz.UserRoleRepository--><a href="UserRoleRepository.html" target="_top" title="UserRoleRepository.html" xlink:actuate="onRequest" xlink:href="UserRoleRepository.html" xlink:show="new" xlink:title="UserRoleRepository.html" xlink:type="simple"><rect codeLine="25" fill="#FEFECE" filter="url(#fe93fs20s49rs)" height="99.8203" id="authz.UserRoleRepository" style="stroke: #A80036; stroke-width: 1.5;" width="227" x="32.5" y="92.82"/><ellipse cx="85.75" cy="108.82" fill="#ADD1B2" rx="11" ry="11" style="stroke: #A80036; stroke-width: 1.0;"/><path d="M88.2231,114.9631 Q87.6421,115.2619 87.0029,115.4113 Q86.3638,115.5607 85.6582,115.5607 Q83.1514,115.5607 81.8315,113.9089 Q80.5117,112.257 80.5117,109.1359 Q80.5117,106.0065 81.8315,104.3547 Q83.1514,102.7028 85.6582,102.7028 Q86.3638,102.7028 87.0112,102.8522 Q87.6587,103.0016 88.2231,103.3005 L88.2231,106.0231 Q87.5923,105.4421 86.9988,105.1723 Q86.4053,104.9025 85.7744,104.9025 Q84.4297,104.9025 83.7449,105.9692 Q83.0601,107.0358 83.0601,109.1359 Q83.0601,111.2277 83.7449,112.2944 Q84.4297,113.361 85.7744,113.361 Q86.4053,113.361 86.9988,113.0912 Q87.5923,112.8215 88.2231,112.2404 Z "/><text fill="#000000" font-family="sans-serif" font-size="12" lengthAdjust="spacingAndGlyphs" textLength="112" x="106.25" y="113.3552">UserRoleRepository</text><line style="stroke: #A80036; stroke-width: 1.5;" x1="33.5" x2="258.5" y1="124.82" y2="124.82"/><rect fill="none" height="6" style="stroke: #C82930; stroke-width: 1.0;" width="6" x="40.5" y="132.82"/><text fill="#000000" font-family="sans-serif" font-size="11" lengthAdjust="spacingAndGlyphs" text-decoration="underline" textLength="142" x="52.5" y="139.4548">emf: EntityManagerFactory</text><line style="stroke: #A80036; stroke-width: 1.5;" x1="33.5" x2="258.5" y1="145.7751" y2="145.7751"/><ellipse cx="43.5" cy="156.7751" fill="#84BE84" rx="3" ry="3" style="stroke: #038048; stroke-width: 1.0;"/><text fill="#000000" font-family="sans-serif" font-size="11" lengthAdjust="spacingAndGlyphs" textLength="109" x="52.5" y="160.4098">save(UserRole): void</text><ellipse cx="43.5" cy="169.7302" fill="#84BE84" rx="3" ry="3" style="stroke: #038048; stroke-width: 1.0;"/><text fill="#000000" font-family="sans-serif" font-size="11" lengthAdjust="spacingAndGlyphs" textLength="201" x="52.5" y="173.3649">findById(String): Optional&lt;UserRole&gt;</text><ellipse cx="43.5" cy="182.6852" fill="#84BE84" rx="3" ry="3" style="stroke: #038048; stroke-width: 1.0;"/><text fill="#000000" font-family="sans-serif" font-size="11" lengthAdjust="spacingAndGlyphs" textLength="134" x="52.5" y="186.32">findAll(): List&lt;UserRole&gt;</text></a><!--MD5=[7f998eb8c0b7fa9e2a563127bc3df404]
class authz.User--><a href="User.html" target="_top" title="User.html" xlink:actuate="onRequest" xlink:href="User.html" xlink:show="new" xlink:title="User.html" xlink:type="simple"><rect codeLine="32" fill="#FEFECE" filter="url(#fe93fs20s49rs)" height="203.4609" id="authz.User" style="stroke: #A80036; stroke-width: 1.5;" width="236" x="295" y="41"/><ellipse cx="395.75" cy="57" fill="#ADD1B2" rx="11" ry="11" style="stroke: #A80036; stroke-width: 1.0;"/><path d="M398.2231,63.1431 Q397.6421,63.4419 397.0029,63.5913 Q396.3638,63.7407 395.6582,63.7407 Q393.1514,63.7407 391.8315,62.0889 Q390.5117,60.437 390.5117,57.3159 Q390.5117,54.1865 391.8315,52.5347 Q393.1514,50.8828 395.6582,50.8828 Q396.3638,50.8828 397.0112,51.0322 Q397.6587,51.1816 398.2231,51.4805 L398.2231,54.2031 Q397.5923,53.6221 396.9988,53.3523 Q396.4053,53.0825 395.7744,53.0825 Q394.4297,53.0825 393.7449,54.1492 Q393.0601,55.2158 393.0601,57.3159 Q393.0601,59.4077 393.7449,60.4744 Q394.4297,61.541 395.7744,61.541 Q396.4053,61.541 396.9988,61.2712 Q397.5923,61.0015 398.2231,60.4204 Z "/><text fill="#000000" font-family="sans-serif" font-size="12" lengthAdjust="spacingAndGlyphs" textLength="26" x="416.25" y="61.5352">User</text><line style="stroke: #A80036; stroke-width: 1.5;" x1="296" x2="530" y1="73" y2="73"/><rect fill="none" height="6" style="stroke: #C82930; stroke-width: 1.0;" width="6" x="303" y="81"/><text fill="#000000" font-family="sans-serif" font-size="11" lengthAdjust="spacingAndGlyphs" textLength="67" x="315" y="87.6348">name: String</text><line style="stroke: #A80036; stroke-width: 1.5;" x1="296" x2="530" y1="93.9551" y2="93.9551"/><ellipse cx="306" cy="104.9551" fill="#84BE84" rx="3" ry="3" style="stroke: #038048; stroke-width: 1.0;"/><text fill="#000000" font-family="sans-serif" font-size="11" lengthAdjust="spacingAndGlyphs" textLength="33" x="315" y="108.5898">User()</text><ellipse cx="306" cy="117.9102" fill="#84BE84" rx="3" ry="3" style="stroke: #038048; stroke-width: 1.0;"/><text fill="#000000" font-family="sans-serif" font-size="11" lengthAdjust="spacingAndGlyphs" textLength="156" x="315" y="121.5449">User(Email, Password, String)</text><ellipse cx="306" cy="130.8652" fill="#84BE84" rx="3" ry="3" style="stroke: #038048; stroke-width: 1.0;"/><text fill="#000000" font-family="sans-serif" font-size="11" lengthAdjust="spacingAndGlyphs" textLength="93" x="315" y="134.5">getName(): String</text><ellipse cx="306" cy="143.8203" fill="#84BE84" rx="3" ry="3" style="stroke: #038048; stroke-width: 1.0;"/><text fill="#000000" font-family="sans-serif" font-size="11" lengthAdjust="spacingAndGlyphs" textLength="114" x="315" y="147.4551">hasId(Email): boolean</text><ellipse cx="306" cy="156.7754" fill="#84BE84" rx="3" ry="3" style="stroke: #038048; stroke-width: 1.0;"/><text fill="#000000" font-family="sans-serif" font-size="11" lengthAdjust="spacingAndGlyphs" textLength="159" x="315" y="160.4102">hasPassword(String): boolean</text><ellipse cx="306" cy="169.7305" fill="#84BE84" rx="3" ry="3" style="stroke: #038048; stroke-width: 1.0;"/><text fill="#000000" font-family="sans-serif" font-size="11" lengthAdjust="spacingAndGlyphs" textLength="148" x="315" y="173.3652">addRole(UserRole): boolean</text><ellipse cx="306" cy="182.6855" fill="#84BE84" rx="3" ry="3" style="stroke: #038048; stroke-width: 1.0;"/><text fill="#000000" font-family="sans-serif" font-size="11" lengthAdjust="spacingAndGlyphs" textLength="168" x="315" y="186.3203">removeRole(UserRole): boolean</text><ellipse cx="306" cy="195.6406" fill="#84BE84" rx="3" ry="3" style="stroke: #038048; stroke-width: 1.0;"/><text fill="#000000" font-family="sans-serif" font-size="11" lengthAdjust="spacingAndGlyphs" textLength="147" x="315" y="199.2754">hasRole(UserRole): boolean</text><ellipse cx="306" cy="208.5957" fill="#84BE84" rx="3" ry="3" style="stroke: #038048; stroke-width: 1.0;"/><text fill="#000000" font-family="sans-serif" font-size="11" lengthAdjust="spacingAndGlyphs" textLength="131" x="315" y="212.2305">hasRole(String): boolean</text><ellipse cx="306" cy="221.5508" fill="#84BE84" rx="3" ry="3" style="stroke: #038048; stroke-width: 1.0;"/><text fill="#000000" font-family="sans-serif" font-size="11" lengthAdjust="spacingAndGlyphs" textLength="158" x="315" y="225.1855">changeName(String): boolean</text><ellipse cx="306" cy="234.5059" fill="#84BE84" rx="3" ry="3" style="stroke: #038048; stroke-width: 1.0;"/><text fill="#000000" font-family="sans-serif" font-size="11" lengthAdjust="spacingAndGlyphs" textLength="210" x="315" y="238.1406">changeRoles(List&lt;UserRole&gt;): boolean</text></a><!--MD5=[8fe13fce12ccf034da838c0d6e59d899]
class authz.UserRepository--><a href="UserRepository.html" target="_top" title="UserRepository.html" xlink:actuate="onRequest" xlink:href="UserRepository.html" xlink:show="new" xlink:title="UserRepository.html" xlink:type="simple"><rect codeLine="47" fill="#FEFECE" filter="url(#fe93fs20s49rs)" height="112.7754" id="authz.UserRepository" style="stroke: #A80036; stroke-width: 1.5;" width="218" x="566" y="86.34"/><ellipse cx="627.25" cy="102.34" fill="#ADD1B2" rx="11" ry="11" style="stroke: #A80036; stroke-width: 1.0;"/><path d="M629.7231,108.4831 Q629.1421,108.7819 628.5029,108.9313 Q627.8638,109.0807 627.1582,109.0807 Q624.6514,109.0807 623.3315,107.4289 Q622.0117,105.777 622.0117,102.6559 Q622.0117,99.5265 623.3315,97.8747 Q624.6514,96.2228 627.1582,96.2228 Q627.8638,96.2228 628.5112,96.3722 Q629.1587,96.5216 629.7231,96.8205 L629.7231,99.5431 Q629.0923,98.9621 628.4988,98.6923 Q627.9053,98.4225 627.2744,98.4225 Q625.9297,98.4225 625.2449,99.4892 Q624.5601,100.5558 624.5601,102.6559 Q624.5601,104.7477 625.2449,105.8144 Q625.9297,106.881 627.2744,106.881 Q627.9053,106.881 628.4988,106.6112 Q629.0923,106.3415 629.7231,105.7604 Z "/><text fill="#000000" font-family="sans-serif" font-size="12" lengthAdjust="spacingAndGlyphs" textLength="87" x="647.75" y="106.8752">UserRepository</text><line style="stroke: #A80036; stroke-width: 1.5;" x1="567" x2="783" y1="118.34" y2="118.34"/><rect fill="none" height="6" style="stroke: #C82930; stroke-width: 1.0;" width="6" x="574" y="126.34"/><text fill="#000000" font-family="sans-serif" font-size="11" lengthAdjust="spacingAndGlyphs" text-decoration="underline" textLength="142" x="586" y="132.9748">emf: EntityManagerFactory</text><line style="stroke: #A80036; stroke-width: 1.5;" x1="567" x2="783" y1="139.2951" y2="139.2951"/><ellipse cx="577" cy="150.2951" fill="#84BE84" rx="3" ry="3" style="stroke: #038048; stroke-width: 1.0;"/><text fill="#000000" font-family="sans-serif" font-size="11" lengthAdjust="spacingAndGlyphs" textLength="86" x="586" y="153.9298">save(User): void</text><ellipse cx="577" cy="163.2502" fill="#84BE84" rx="3" ry="3" style="stroke: #038048; stroke-width: 1.0;"/><text fill="#000000" font-family="sans-serif" font-size="11" lengthAdjust="spacingAndGlyphs" textLength="192" x="586" y="166.8849">findByEmail(Email): Optional&lt;User&gt;</text><ellipse cx="577" cy="176.2052" fill="#84BE84" rx="3" ry="3" style="stroke: #038048; stroke-width: 1.0;"/><text fill="#000000" font-family="sans-serif" font-size="11" lengthAdjust="spacingAndGlyphs" textLength="111" x="586" y="179.84">findAll(): List&lt;User&gt;</text><ellipse cx="577" cy="189.1603" fill="#84BE84" rx="3" ry="3" style="stroke: #038048; stroke-width: 1.0;"/><text fill="#000000" font-family="sans-serif" font-size="11" lengthAdjust="spacingAndGlyphs" textLength="94" x="586" y="192.7951">delete(User): void</text></a><!--MD5=[08fd7ab900567ed24f06ec2229bbfea9]
class authz.Password--><a href="Password.html" target="_top" title="Password.html" xlink:actuate="onRequest" xlink:href="Password.html" xlink:show="new" xlink:title="Password.html" xlink:type="simple"><rect codeLine="55" fill="#FEFECE" filter="url(#fe93fs20s49rs)" height="138.6855" id="authz.Password" style="stroke: #A80036; stroke-width: 1.5;" width="197" x="334.5" y="340.89"/><ellipse cx="401.25" cy="356.89" fill="#ADD1B2" rx="11" ry="11" style="stroke: #A80036; stroke-width: 1.0;"/><path d="M403.7231,363.0331 Q403.1421,363.3319 402.5029,363.4813 Q401.8638,363.6307 401.1582,363.6307 Q398.6514,363.6307 397.3315,361.9789 Q396.0117,360.327 396.0117,357.2059 Q396.0117,354.0765 397.3315,352.4247 Q398.6514,350.7728 401.1582,350.7728 Q401.8638,350.7728 402.5112,350.9222 Q403.1587,351.0716 403.7231,351.3705 L403.7231,354.0931 Q403.0923,353.5121 402.4988,353.2423 Q401.9053,352.9725 401.2744,352.9725 Q399.9297,352.9725 399.2449,354.0392 Q398.5601,355.1058 398.5601,357.2059 Q398.5601,359.2977 399.2449,360.3644 Q399.9297,361.431 401.2744,361.431 Q401.9053,361.431 402.4988,361.1612 Q403.0923,360.8915 403.7231,360.3104 Z "/><text fill="#000000" font-family="sans-serif" font-size="12" lengthAdjust="spacingAndGlyphs" textLength="55" x="421.75" y="361.4252">Password</text><line style="stroke: #A80036; stroke-width: 1.5;" x1="335.5" x2="530.5" y1="372.89" y2="372.89"/><rect fill="none" height="6" style="stroke: #C82930; stroke-width: 1.0;" width="6" x="342.5" y="380.89"/><text fill="#000000" font-family="sans-serif" font-size="11" lengthAdjust="spacingAndGlyphs" textLength="90" x="354.5" y="387.5248">password: String</text><line style="stroke: #A80036; stroke-width: 1.5;" x1="335.5" x2="530.5" y1="393.8451" y2="393.8451"/><ellipse cx="345.5" cy="404.8451" fill="#84BE84" rx="3" ry="3" style="stroke: #038048; stroke-width: 1.0;"/><text fill="#000000" font-family="sans-serif" font-size="11" lengthAdjust="spacingAndGlyphs" textLength="59" x="354.5" y="408.4798">Password()</text><ellipse cx="345.5" cy="417.8002" fill="#84BE84" rx="3" ry="3" style="stroke: #038048; stroke-width: 1.0;"/><text fill="#000000" font-family="sans-serif" font-size="11" lengthAdjust="spacingAndGlyphs" textLength="91" x="354.5" y="421.4349">Password(String)</text><rect fill="#F24D5C" height="6" style="stroke: #C82930; stroke-width: 1.0;" width="6" x="342.5" y="427.7552"/><text fill="#000000" font-family="sans-serif" font-size="11" lengthAdjust="spacingAndGlyphs" textLength="130" x="354.5" y="434.39">validate(String): boolean</text><rect fill="#F24D5C" height="6" style="stroke: #C82930; stroke-width: 1.0;" width="6" x="342.5" y="440.7103"/><text fill="#000000" font-family="sans-serif" font-size="11" lengthAdjust="spacingAndGlyphs" textLength="138" x="354.5" y="447.3451">createHash(String): String</text><ellipse cx="345.5" cy="456.6654" fill="#84BE84" rx="3" ry="3" style="stroke: #038048; stroke-width: 1.0;"/><text fill="#000000" font-family="sans-serif" font-size="11" lengthAdjust="spacingAndGlyphs" textLength="171" x="354.5" y="460.3002">checkPassword(String): boolean</text><ellipse cx="345.5" cy="469.6205" fill="#84BE84" rx="3" ry="3" style="stroke: #038048; stroke-width: 1.0;"/><text fill="#000000" font-family="sans-serif" font-size="11" lengthAdjust="spacingAndGlyphs" textLength="114" x="354.5" y="473.2552">getPassword(): String</text></a><!--MD5=[5a5af9b0547913863cbe0ddf55a9ab5e]
class java.io.Serializable--><rect codeLine="72" fill="#FEFECE" filter="url(#fe93fs20s49rs)" height="48" id="java.io.Serializable" style="stroke: #A80036; stroke-width: 1.5;" width="98" x="840" y="118.73"/><ellipse cx="855" cy="134.73" fill="#B4A7E5" rx="11" ry="11" style="stroke: #A80036; stroke-width: 1.0;"/><path d="M851.4277,130.9951 L851.4277,128.8369 L858.8071,128.8369 L858.8071,130.9951 L856.3418,130.9951 L856.3418,139.0718 L858.8071,139.0718 L858.8071,141.23 L851.4277,141.23 L851.4277,139.0718 L853.8931,139.0718 L853.8931,130.9951 Z "/><text fill="#000000" font-family="sans-serif" font-size="12" font-style="italic" lengthAdjust="spacingAndGlyphs" textLength="66" x="869" y="139.2652">Serializable</text><line style="stroke: #A80036; stroke-width: 1.5;" x1="841" x2="937" y1="150.73" y2="150.73"/><line style="stroke: #A80036; stroke-width: 1.5;" x1="841" x2="937" y1="158.73" y2="158.73"/><!--MD5=[32e701f4719460df32b651376dacfd8b]
reverse link java.io.Serializable to authz.Email--><path codeLine="65" d="M858.34,183.64 C825.07,226.94 771.51,296.64 732.73,347.11 " fill="none" id="java.io.Serializable-backto-authz.Email" style="stroke: #A80036; stroke-width: 1.0; stroke-dasharray: 7.0,7.0;"/><polygon fill="none" points="852.59,179.62,870.33,168.03,863.7,188.15,852.59,179.62" style="stroke: #A80036; stroke-width: 1.0;"/><!--MD5=[297d7eb6b5aed6b3372ca8451e8421af]
link authz.User to authz.Password--><path codeLine="66" d="M420.62,244.86 C422.86,274.56 425.26,306.51 427.35,334.26 " fill="none" id="authz.User-to-authz.Password" style="stroke: #A80036; stroke-width: 1.0;"/><polygon fill="#A80036" points="427.71,338.98,431.0303,329.7077,427.3385,333.9938,423.0524,330.302,427.71,338.98" style="stroke: #A80036; stroke-width: 1.0;"/><text fill="#000000" font-family="sans-serif" font-size="13" lengthAdjust="spacingAndGlyphs" textLength="60" x="424.6" y="288.0284">password</text><!--MD5=[b6950107922eb9f95d074ace9b52e6b8]
link authz.User to authz.Email--><path codeLine="67" d="M516.61,244.86 C550.23,277.69 586.67,313.25 617.01,342.87 " fill="none" id="authz.User-to-authz.Email" style="stroke: #A80036; stroke-width: 1.0;"/><polygon fill="#A80036" points="620.36,346.14,616.7318,336.9838,616.7889,342.6404,611.1324,342.6975,620.36,346.14" style="stroke: #A80036; stroke-width: 1.0;"/><text fill="#000000" font-family="sans-serif" font-size="13" lengthAdjust="spacingAndGlyphs" textLength="12" x="558.16" y="288.0284">id</text><!--MD5=[b8e7ca12d14e042b1d9d39959553e74f]
link authz.User to authz.UserRole--><path codeLine="68" d="M328.82,244.86 C309.35,268.26 288.71,293.04 269.54,316.08 " fill="none" id="authz.User-to-authz.UserRole" style="stroke: #A80036; stroke-width: 1.0;"/><polygon fill="#A80036" points="266.44,319.8,275.273,315.4435,269.6395,315.9577,269.1253,310.3243,266.44,319.8" style="stroke: #A80036; stroke-width: 1.0;"/><text fill="#000000" font-family="sans-serif" font-size="13" lengthAdjust="spacingAndGlyphs" textLength="31" x="303.5" y="288.0284">roles</text><text fill="#000000" font-family="sans-serif" font-size="13" lengthAdjust="spacingAndGlyphs" textLength="6" x="265.0856" y="310.8397">*</text><text fill="#888888" font-family="sans-serif" font-size="10" lengthAdjust="spacingAndGlyphs" textLength="188" x="385" y="530.678">UMLDoclet 2.0.12, PlantUML 1.2020.16</text><!--MD5=[4ca043930fa99b519fbda9cfcb5e1c43]
@startuml
    namespace authz {

        class UserRole [[UserRole.html]] {
            -id: String
            -description: String
            +UserRole()
            +UserRole(String, String)
            +getId(): String
            +setId(String): void
            +getDescription(): String
            +setDescription(String): void
            +changeDescription(String): boolean
            +hasId(String): boolean
        }

        class Email [[Email.html]] {
            -email: String
            +Email()
            +Email(String)
            -validate(String): boolean
            -checkFormat(String): boolean
            +getEmail(): String
        }

        class UserRoleRepository [[UserRoleRepository.html]] {
            {static} -emf: EntityManagerFactory
            +save(UserRole): void
            +findById(String): Optional<UserRole>
            +findAll(): List<UserRole>
        }

        class User [[User.html]] {
            -name: String
            +User()
            +User(Email, Password, String)
            +getName(): String
            +hasId(Email): boolean
            +hasPassword(String): boolean
            +addRole(UserRole): boolean
            +removeRole(UserRole): boolean
            +hasRole(UserRole): boolean
            +hasRole(String): boolean
            +changeName(String): boolean
            +changeRoles(List<UserRole>): boolean
        }

        class UserRepository [[UserRepository.html]] {
            {static} -emf: EntityManagerFactory
            +save(User): void
            +findByEmail(Email): Optional<User>
            +findAll(): List<User>
            +delete(User): void
        }

        class Password [[Password.html]] {
            -password: String
            +Password()
            +Password(String)
            -validate(String): boolean
            -createHash(String): String
            +checkPassword(String): boolean
            +getPassword(): String
        }

        java.io.Serializable <|.. Email
        User - -> Password: password
        User - -> Email: id
        User - -> "*" UserRole: roles
    }

    namespace java.io {
        interface Serializable
    }

    center footer UMLDoclet 2.0.12, PlantUML 1.2020.16
@enduml

PlantUML version 1.2020.16(Sun Aug 23 21:20:43 WEST 2020)
(APACHE source distribution)
Java Runtime: OpenJDK Runtime Environment
JVM: OpenJDK 64-Bit Server VM
Default Encoding: UTF-8
Language: pt
Country: PT
--></g></svg>