<?xml version="1.0" encoding="UTF-8" standalone="no"?><svg xmlns="http://www.w3.org/2000/svg" xmlns:xlink="http://www.w3.org/1999/xlink" contentScriptType="application/ecmascript" contentStyleType="text/css" height="595px" preserveAspectRatio="none" style="width:942px;height:595px;" version="1.1" viewBox="0 0 942 595" width="942px" zoomAndPan="magnify"><defs><filter height="300%" id="f1jtorx3mhadbq" width="300%" x="-1" y="-1"><feGaussianBlur result="blurOut" stdDeviation="2.0"/><feColorMatrix in="blurOut" result="blurOut2" type="matrix" values="0 0 0 0 0 0 0 0 0 0 0 0 0 0 0 0 0 0 .4 0"/><feOffset dx="4.0" dy="4.0" in="blurOut2" result="blurOut3"/><feBlend in="SourceGraphic" in2="blurOut3" mode="normal"/></filter></defs><g><!--MD5=[b32cd23d5b2ac20bedadec64b8d242b5]
cluster authz--><polygon fill="#FFFFFF" filter="url(#f1jtorx3mhadbq)" points="16,6.602,61,6.602,68,31.6699,772,31.6699,772,565.602,16,565.602,16,6.602" style="stroke: #000000; stroke-width: 1.5;"/><line style="stroke: #000000; stroke-width: 1.5;" x1="16" x2="68" y1="31.6699" y2="31.6699"/><text fill="#000000" font-family="sans-serif" font-size="14" font-weight="bold" lengthAdjust="spacingAndGlyphs" textLength="39" x="20" y="23.5679">authz</text><!--MD5=[0d852700fdad35b7061d461d6907a324]
cluster java.io--><polygon fill="#FFFFFF" filter="url(#f1jtorx3mhadbq)" points="796,96.602,847,96.602,854,121.6699,920,121.6699,920,198.602,796,198.602,796,96.602" style="stroke: #000000; stroke-width: 1.5;"/><line style="stroke: #000000; stroke-width: 1.5;" x1="796" x2="854" y1="121.6699" y2="121.6699"/><text fill="#000000" font-family="sans-serif" font-size="14" font-weight="bold" lengthAdjust="spacingAndGlyphs" textLength="45" x="800" y="113.5679">java.io</text><!--MD5=[08fd7ab900567ed24f06ec2229bbfea9]
class authz.Password--><a href="Password.html" target="_top" title="Password.html" xlink:actuate="onRequest" xlink:href="Password.html" xlink:show="new" xlink:title="Password.html" xlink:type="simple"><rect codeLine="3" fill="#FEFECE" filter="url(#f1jtorx3mhadbq)" height="152.8732" id="authz.Password" style="stroke: #A80036; stroke-width: 1.5;" width="193" x="39.5" y="374.102"/><ellipse cx="104.75" cy="390.102" fill="#ADD1B2" rx="11" ry="11" style="stroke: #A80036; stroke-width: 1.0;"/><path d="M107.7188,395.7426 Q107.1406,396.0395 106.5,396.1801 Q105.8594,396.3364 105.1563,396.3364 Q102.6563,396.3364 101.3281,394.6957 Q100.0156,393.0395 100.0156,389.9145 Q100.0156,386.7895 101.3281,385.1332 Q102.6563,383.477 105.1563,383.477 Q105.8594,383.477 106.5,383.6332 Q107.1563,383.7895 107.7188,384.0864 L107.7188,386.8051 Q107.0938,386.227 106.5,385.9614 Q105.9063,385.6801 105.2813,385.6801 Q103.9375,385.6801 103.25,386.7582 Q102.5625,387.8207 102.5625,389.9145 Q102.5625,392.0082 103.25,393.0864 Q103.9375,394.1489 105.2813,394.1489 Q105.9063,394.1489 106.5,393.8832 Q107.0938,393.602 107.7188,393.0239 L107.7188,395.7426 Z "/><text fill="#000000" font-family="sans-serif" font-size="12" lengthAdjust="spacingAndGlyphs" textLength="54" x="125.25" y="394.758">Password</text><line style="stroke: #A80036; stroke-width: 1.5;" x1="40.5" x2="231.5" y1="406.102" y2="406.102"/><rect fill="none" height="6" style="stroke: #C82930; stroke-width: 1.0;" width="6" x="47.5" y="414.102"/><text fill="#000000" font-family="sans-serif" font-size="11" lengthAdjust="spacingAndGlyphs" textLength="89" x="59.5" y="421.8609">password: String</text><line style="stroke: #A80036; stroke-width: 1.5;" x1="40.5" x2="231.5" y1="429.0839" y2="429.0839"/><ellipse cx="50.5" cy="440.0839" fill="#84BE84" rx="3" ry="3" style="stroke: #038048; stroke-width: 1.0;"/><text fill="#000000" font-family="sans-serif" font-size="11" lengthAdjust="spacingAndGlyphs" textLength="57" x="59.5" y="444.8428">Password()</text><ellipse cx="50.5" cy="455.0658" fill="#84BE84" rx="3" ry="3" style="stroke: #038048; stroke-width: 1.0;"/><text fill="#000000" font-family="sans-serif" font-size="11" lengthAdjust="spacingAndGlyphs" textLength="89" x="59.5" y="459.8247">Password(String)</text><rect fill="#F24D5C" height="6" style="stroke: #C82930; stroke-width: 1.0;" width="6" x="47.5" y="467.0476"/><text fill="#000000" font-family="sans-serif" font-size="11" lengthAdjust="spacingAndGlyphs" textLength="128" x="59.5" y="474.8066">validate(String): boolean</text><rect fill="#F24D5C" height="6" style="stroke: #C82930; stroke-width: 1.0;" width="6" x="47.5" y="482.0295"/><text fill="#000000" font-family="sans-serif" font-size="11" lengthAdjust="spacingAndGlyphs" textLength="134" x="59.5" y="489.7884">createHash(String): String</text><ellipse cx="50.5" cy="500.0114" fill="#84BE84" rx="3" ry="3" style="stroke: #038048; stroke-width: 1.0;"/><text fill="#000000" font-family="sans-serif" font-size="11" lengthAdjust="spacingAndGlyphs" textLength="167" x="59.5" y="504.7703">checkPassword(String): boolean</text><ellipse cx="50.5" cy="514.9933" fill="#84BE84" rx="3" ry="3" style="stroke: #038048; stroke-width: 1.0;"/><text fill="#000000" font-family="sans-serif" font-size="11" lengthAdjust="spacingAndGlyphs" textLength="112" x="59.5" y="519.7522">getPassword(): String</text></a><!--MD5=[8fe13fce12ccf034da838c0d6e59d899]
class authz.UserRepository--><a href="UserRepository.html" target="_top" title="UserRepository.html" xlink:actuate="onRequest" xlink:href="UserRepository.html" xlink:show="new" xlink:title="UserRepository.html" xlink:type="simple"><rect codeLine="13" fill="#FEFECE" filter="url(#f1jtorx3mhadbq)" height="122.9094" id="authz.UserRepository" style="stroke: #A80036; stroke-width: 1.5;" width="210" x="546" y="97.102"/><ellipse cx="603.75" cy="113.102" fill="#ADD1B2" rx="11" ry="11" style="stroke: #A80036; stroke-width: 1.0;"/><path d="M606.7188,118.7426 Q606.1406,119.0395 605.5,119.1801 Q604.8594,119.3364 604.1563,119.3364 Q601.6563,119.3364 600.3281,117.6957 Q599.0156,116.0395 599.0156,112.9145 Q599.0156,109.7895 600.3281,108.1332 Q601.6563,106.477 604.1563,106.477 Q604.8594,106.477 605.5,106.6332 Q606.1563,106.7895 606.7188,107.0864 L606.7188,109.8051 Q606.0938,109.227 605.5,108.9614 Q604.9063,108.6801 604.2813,108.6801 Q602.9375,108.6801 602.25,109.7582 Q601.5625,110.8207 601.5625,112.9145 Q601.5625,115.0082 602.25,116.0864 Q602.9375,117.1489 604.2813,117.1489 Q604.9063,117.1489 605.5,116.8832 Q606.0938,116.602 606.7188,116.0239 L606.7188,118.7426 Z "/><text fill="#000000" font-family="sans-serif" font-size="12" lengthAdjust="spacingAndGlyphs" textLength="86" x="624.25" y="117.758">UserRepository</text><line style="stroke: #A80036; stroke-width: 1.5;" x1="547" x2="755" y1="129.102" y2="129.102"/><rect fill="none" height="6" style="stroke: #C82930; stroke-width: 1.0;" width="6" x="554" y="137.102"/><text fill="#000000" font-family="sans-serif" font-size="11" lengthAdjust="spacingAndGlyphs" text-decoration="underline" textLength="142" x="566" y="144.8609">emf: EntityManagerFactory</text><line style="stroke: #A80036; stroke-width: 1.5;" x1="547" x2="755" y1="152.0839" y2="152.0839"/><ellipse cx="557" cy="163.0839" fill="#84BE84" rx="3" ry="3" style="stroke: #038048; stroke-width: 1.0;"/><text fill="#000000" font-family="sans-serif" font-size="11" lengthAdjust="spacingAndGlyphs" textLength="82" x="566" y="167.8428">save(User): void</text><ellipse cx="557" cy="178.0658" fill="#84BE84" rx="3" ry="3" style="stroke: #038048; stroke-width: 1.0;"/><text fill="#000000" font-family="sans-serif" font-size="11" lengthAdjust="spacingAndGlyphs" textLength="184" x="566" y="182.8247">findByEmail(Email): Optional&lt;User&gt;</text><ellipse cx="557" cy="193.0476" fill="#84BE84" rx="3" ry="3" style="stroke: #038048; stroke-width: 1.0;"/><text fill="#000000" font-family="sans-serif" font-size="11" lengthAdjust="spacingAndGlyphs" textLength="100" x="566" y="197.8066">findAll(): List&lt;User&gt;</text><ellipse cx="557" cy="208.0295" fill="#84BE84" rx="3" ry="3" style="stroke: #038048; stroke-width: 1.0;"/><text fill="#000000" font-family="sans-serif" font-size="11" lengthAdjust="spacingAndGlyphs" textLength="91" x="566" y="212.7884">delete(User): void</text></a><!--MD5=[edbdeb3b9ed2a66957cd528de875fe00]
class authz.Email--><a href="Email.html" target="_top" title="Email.html" xlink:actuate="onRequest" xlink:href="Email.html" xlink:show="new" xlink:title="Email.html" xlink:type="simple"><rect codeLine="21" fill="#FEFECE" filter="url(#f1jtorx3mhadbq)" height="137.8913" id="authz.Email" style="stroke: #A80036; stroke-width: 1.5;" width="180" x="545" y="381.602"/><ellipse cx="615.25" cy="397.602" fill="#ADD1B2" rx="11" ry="11" style="stroke: #A80036; stroke-width: 1.0;"/><path d="M618.2188,403.2426 Q617.6406,403.5395 617,403.6801 Q616.3594,403.8364 615.6563,403.8364 Q613.1563,403.8364 611.8281,402.1957 Q610.5156,400.5395 610.5156,397.4145 Q610.5156,394.2895 611.8281,392.6332 Q613.1563,390.977 615.6563,390.977 Q616.3594,390.977 617,391.1332 Q617.6563,391.2895 618.2188,391.5864 L618.2188,394.3051 Q617.5938,393.727 617,393.4614 Q616.4063,393.1801 615.7813,393.1801 Q614.4375,393.1801 613.75,394.2582 Q613.0625,395.3207 613.0625,397.4145 Q613.0625,399.5082 613.75,400.5864 Q614.4375,401.6489 615.7813,401.6489 Q616.4063,401.6489 617,401.3832 Q617.5938,401.102 618.2188,400.5239 L618.2188,403.2426 Z "/><text fill="#000000" font-family="sans-serif" font-size="12" lengthAdjust="spacingAndGlyphs" textLength="31" x="635.75" y="402.258">Email</text><line style="stroke: #A80036; stroke-width: 1.5;" x1="546" x2="724" y1="413.602" y2="413.602"/><rect fill="none" height="6" style="stroke: #C82930; stroke-width: 1.0;" width="6" x="553" y="421.602"/><text fill="#000000" font-family="sans-serif" font-size="11" lengthAdjust="spacingAndGlyphs" textLength="66" x="565" y="429.3609">email: String</text><line style="stroke: #A80036; stroke-width: 1.5;" x1="546" x2="724" y1="436.5839" y2="436.5839"/><ellipse cx="556" cy="447.5839" fill="#84BE84" rx="3" ry="3" style="stroke: #038048; stroke-width: 1.0;"/><text fill="#000000" font-family="sans-serif" font-size="11" lengthAdjust="spacingAndGlyphs" textLength="34" x="565" y="452.3428">Email()</text><ellipse cx="556" cy="462.5658" fill="#84BE84" rx="3" ry="3" style="stroke: #038048; stroke-width: 1.0;"/><text fill="#000000" font-family="sans-serif" font-size="11" lengthAdjust="spacingAndGlyphs" textLength="66" x="565" y="467.3247">Email(String)</text><rect fill="#F24D5C" height="6" style="stroke: #C82930; stroke-width: 1.0;" width="6" x="553" y="474.5476"/><text fill="#000000" font-family="sans-serif" font-size="11" lengthAdjust="spacingAndGlyphs" textLength="128" x="565" y="482.3066">validate(String): boolean</text><rect fill="#F24D5C" height="6" style="stroke: #C82930; stroke-width: 1.0;" width="6" x="553" y="489.5295"/><text fill="#000000" font-family="sans-serif" font-size="11" lengthAdjust="spacingAndGlyphs" textLength="154" x="565" y="497.2884">checkFormat(String): boolean</text><ellipse cx="556" cy="507.5114" fill="#84BE84" rx="3" ry="3" style="stroke: #038048; stroke-width: 1.0;"/><text fill="#000000" font-family="sans-serif" font-size="11" lengthAdjust="spacingAndGlyphs" textLength="89" x="565" y="512.2703">getEmail(): String</text></a><!--MD5=[5884b9fe79cd7fdd9385cb1d59f809e1]
class authz.UserRoleRepository--><a href="UserRoleRepository.html" target="_top" title="UserRoleRepository.html" xlink:actuate="onRequest" xlink:href="UserRoleRepository.html" xlink:show="new" xlink:title="UserRoleRepository.html" xlink:type="simple"><rect codeLine="30" fill="#FEFECE" filter="url(#f1jtorx3mhadbq)" height="107.9276" id="authz.UserRoleRepository" style="stroke: #A80036; stroke-width: 1.5;" width="220" x="291" y="104.602"/><ellipse cx="341.75" cy="120.602" fill="#ADD1B2" rx="11" ry="11" style="stroke: #A80036; stroke-width: 1.0;"/><path d="M344.7188,126.2426 Q344.1406,126.5395 343.5,126.6801 Q342.8594,126.8364 342.1563,126.8364 Q339.6563,126.8364 338.3281,125.1957 Q337.0156,123.5395 337.0156,120.4145 Q337.0156,117.2895 338.3281,115.6332 Q339.6563,113.977 342.1563,113.977 Q342.8594,113.977 343.5,114.1332 Q344.1563,114.2895 344.7188,114.5864 L344.7188,117.3051 Q344.0938,116.727 343.5,116.4614 Q342.9063,116.1801 342.2813,116.1801 Q340.9375,116.1801 340.25,117.2582 Q339.5625,118.3207 339.5625,120.4145 Q339.5625,122.5082 340.25,123.5864 Q340.9375,124.6489 342.2813,124.6489 Q342.9063,124.6489 343.5,124.3832 Q344.0938,124.102 344.7188,123.5239 L344.7188,126.2426 Z "/><text fill="#000000" font-family="sans-serif" font-size="12" lengthAdjust="spacingAndGlyphs" textLength="110" x="362.25" y="125.258">UserRoleRepository</text><line style="stroke: #A80036; stroke-width: 1.5;" x1="292" x2="510" y1="136.602" y2="136.602"/><rect fill="none" height="6" style="stroke: #C82930; stroke-width: 1.0;" width="6" x="299" y="144.602"/><text fill="#000000" font-family="sans-serif" font-size="11" lengthAdjust="spacingAndGlyphs" text-decoration="underline" textLength="142" x="311" y="152.3609">emf: EntityManagerFactory</text><line style="stroke: #A80036; stroke-width: 1.5;" x1="292" x2="510" y1="159.5839" y2="159.5839"/><ellipse cx="302" cy="170.5839" fill="#84BE84" rx="3" ry="3" style="stroke: #038048; stroke-width: 1.0;"/><text fill="#000000" font-family="sans-serif" font-size="11" lengthAdjust="spacingAndGlyphs" textLength="105" x="311" y="175.3428">save(UserRole): void</text><ellipse cx="302" cy="185.5658" fill="#84BE84" rx="3" ry="3" style="stroke: #038048; stroke-width: 1.0;"/><text fill="#000000" font-family="sans-serif" font-size="11" lengthAdjust="spacingAndGlyphs" textLength="194" x="311" y="190.3247">findById(String): Optional&lt;UserRole&gt;</text><ellipse cx="302" cy="200.5476" fill="#84BE84" rx="3" ry="3" style="stroke: #038048; stroke-width: 1.0;"/><text fill="#000000" font-family="sans-serif" font-size="11" lengthAdjust="spacingAndGlyphs" textLength="123" x="311" y="205.3066">findAll(): List&lt;UserRole&gt;</text></a><!--MD5=[7f998eb8c0b7fa9e2a563127bc3df404]
class authz.User--><a href="User.html" target="_top" title="User.html" xlink:actuate="onRequest" xlink:href="User.html" xlink:show="new" xlink:title="User.html" xlink:type="simple"><rect codeLine="37" fill="#FEFECE" filter="url(#f1jtorx3mhadbq)" height="227.7827" id="authz.User" style="stroke: #A80036; stroke-width: 1.5;" width="224" x="32" y="44.602"/><ellipse cx="126.25" cy="60.602" fill="#ADD1B2" rx="11" ry="11" style="stroke: #A80036; stroke-width: 1.0;"/><path d="M129.2188,66.2426 Q128.6406,66.5395 128,66.6801 Q127.3594,66.8364 126.6563,66.8364 Q124.1563,66.8364 122.8281,65.1957 Q121.5156,63.5395 121.5156,60.4145 Q121.5156,57.2895 122.8281,55.6332 Q124.1563,53.977 126.6563,53.977 Q127.3594,53.977 128,54.1332 Q128.6563,54.2895 129.2188,54.5864 L129.2188,57.3051 Q128.5938,56.727 128,56.4614 Q127.4063,56.1801 126.7813,56.1801 Q125.4375,56.1801 124.75,57.2582 Q124.0625,58.3207 124.0625,60.4145 Q124.0625,62.5082 124.75,63.5864 Q125.4375,64.6489 126.7813,64.6489 Q127.4063,64.6489 128,64.3832 Q128.5938,64.102 129.2188,63.5239 L129.2188,66.2426 Z "/><text fill="#000000" font-family="sans-serif" font-size="12" lengthAdjust="spacingAndGlyphs" textLength="27" x="146.75" y="65.258">User</text><line style="stroke: #A80036; stroke-width: 1.5;" x1="33" x2="255" y1="76.602" y2="76.602"/><rect fill="none" height="6" style="stroke: #C82930; stroke-width: 1.0;" width="6" x="40" y="84.602"/><text fill="#000000" font-family="sans-serif" font-size="11" lengthAdjust="spacingAndGlyphs" textLength="67" x="52" y="92.3609">name: String</text><line style="stroke: #A80036; stroke-width: 1.5;" x1="33" x2="255" y1="99.5839" y2="99.5839"/><ellipse cx="43" cy="110.5839" fill="#84BE84" rx="3" ry="3" style="stroke: #038048; stroke-width: 1.0;"/><text fill="#000000" font-family="sans-serif" font-size="11" lengthAdjust="spacingAndGlyphs" textLength="30" x="52" y="115.3428">User()</text><ellipse cx="43" cy="125.5658" fill="#84BE84" rx="3" ry="3" style="stroke: #038048; stroke-width: 1.0;"/><text fill="#000000" font-family="sans-serif" font-size="11" lengthAdjust="spacingAndGlyphs" textLength="153" x="52" y="130.3247">User(Email, Password, String)</text><ellipse cx="43" cy="140.5476" fill="#84BE84" rx="3" ry="3" style="stroke: #038048; stroke-width: 1.0;"/><text fill="#000000" font-family="sans-serif" font-size="11" lengthAdjust="spacingAndGlyphs" textLength="91" x="52" y="145.3066">getName(): String</text><ellipse cx="43" cy="155.5295" fill="#84BE84" rx="3" ry="3" style="stroke: #038048; stroke-width: 1.0;"/><text fill="#000000" font-family="sans-serif" font-size="11" lengthAdjust="spacingAndGlyphs" textLength="112" x="52" y="160.2884">hasId(Email): boolean</text><ellipse cx="43" cy="170.5114" fill="#84BE84" rx="3" ry="3" style="stroke: #038048; stroke-width: 1.0;"/><text fill="#000000" font-family="sans-serif" font-size="11" lengthAdjust="spacingAndGlyphs" textLength="156" x="52" y="175.2703">hasPassword(String): boolean</text><ellipse cx="43" cy="185.4933" fill="#84BE84" rx="3" ry="3" style="stroke: #038048; stroke-width: 1.0;"/><text fill="#000000" font-family="sans-serif" font-size="11" lengthAdjust="spacingAndGlyphs" textLength="145" x="52" y="190.2522">addRole(UserRole): boolean</text><ellipse cx="43" cy="200.4752" fill="#84BE84" rx="3" ry="3" style="stroke: #038048; stroke-width: 1.0;"/><text fill="#000000" font-family="sans-serif" font-size="11" lengthAdjust="spacingAndGlyphs" textLength="165" x="52" y="205.2341">removeRole(UserRole): boolean</text><ellipse cx="43" cy="215.4571" fill="#84BE84" rx="3" ry="3" style="stroke: #038048; stroke-width: 1.0;"/><text fill="#000000" font-family="sans-serif" font-size="11" lengthAdjust="spacingAndGlyphs" textLength="143" x="52" y="220.216">hasRole(UserRole): boolean</text><ellipse cx="43" cy="230.439" fill="#84BE84" rx="3" ry="3" style="stroke: #038048; stroke-width: 1.0;"/><text fill="#000000" font-family="sans-serif" font-size="11" lengthAdjust="spacingAndGlyphs" textLength="128" x="52" y="235.1979">hasRole(String): boolean</text><ellipse cx="43" cy="245.4209" fill="#84BE84" rx="3" ry="3" style="stroke: #038048; stroke-width: 1.0;"/><text fill="#000000" font-family="sans-serif" font-size="11" lengthAdjust="spacingAndGlyphs" textLength="155" x="52" y="250.1798">changeName(String): boolean</text><ellipse cx="43" cy="260.4027" fill="#84BE84" rx="3" ry="3" style="stroke: #038048; stroke-width: 1.0;"/><text fill="#000000" font-family="sans-serif" font-size="11" lengthAdjust="spacingAndGlyphs" textLength="198" x="52" y="265.1617">changeRoles(List&lt;UserRole&gt;): boolean</text></a><!--MD5=[6e9ce638ce98935d7a91f661d591ba67]
class authz.UserRole--><a href="UserRole.html" target="_top" title="UserRole.html" xlink:actuate="onRequest" xlink:href="UserRole.html" xlink:show="new" xlink:title="UserRole.html" xlink:type="simple"><rect codeLine="52" fill="#FEFECE" filter="url(#f1jtorx3mhadbq)" height="197.8189" id="authz.UserRole" style="stroke: #A80036; stroke-width: 1.5;" width="211" x="267.5" y="351.602"/><ellipse cx="343.25" cy="367.602" fill="#ADD1B2" rx="11" ry="11" style="stroke: #A80036; stroke-width: 1.0;"/><path d="M346.2188,373.2426 Q345.6406,373.5395 345,373.6801 Q344.3594,373.8364 343.6563,373.8364 Q341.1563,373.8364 339.8281,372.1957 Q338.5156,370.5395 338.5156,367.4145 Q338.5156,364.2895 339.8281,362.6332 Q341.1563,360.977 343.6563,360.977 Q344.3594,360.977 345,361.1332 Q345.6563,361.2895 346.2188,361.5864 L346.2188,364.3051 Q345.5938,363.727 345,363.4614 Q344.4063,363.1801 343.7813,363.1801 Q342.4375,363.1801 341.75,364.2582 Q341.0625,365.3207 341.0625,367.4145 Q341.0625,369.5082 341.75,370.5864 Q342.4375,371.6489 343.7813,371.6489 Q344.4063,371.6489 345,371.3832 Q345.5938,371.102 346.2188,370.5239 L346.2188,373.2426 Z "/><text fill="#000000" font-family="sans-serif" font-size="12" lengthAdjust="spacingAndGlyphs" textLength="51" x="363.75" y="372.258">UserRole</text><line style="stroke: #A80036; stroke-width: 1.5;" x1="268.5" x2="477.5" y1="383.602" y2="383.602"/><rect fill="none" height="6" style="stroke: #C82930; stroke-width: 1.0;" width="6" x="275.5" y="391.602"/><text fill="#000000" font-family="sans-serif" font-size="11" lengthAdjust="spacingAndGlyphs" textLength="48" x="287.5" y="399.3609">id: String</text><rect fill="none" height="6" style="stroke: #C82930; stroke-width: 1.0;" width="6" x="275.5" y="406.5839"/><text fill="#000000" font-family="sans-serif" font-size="11" lengthAdjust="spacingAndGlyphs" textLength="97" x="287.5" y="414.3428">description: String</text><line style="stroke: #A80036; stroke-width: 1.5;" x1="268.5" x2="477.5" y1="421.5658" y2="421.5658"/><ellipse cx="278.5" cy="432.5658" fill="#84BE84" rx="3" ry="3" style="stroke: #038048; stroke-width: 1.0;"/><text fill="#000000" font-family="sans-serif" font-size="11" lengthAdjust="spacingAndGlyphs" textLength="53" x="287.5" y="437.3247">UserRole()</text><ellipse cx="278.5" cy="447.5476" fill="#84BE84" rx="3" ry="3" style="stroke: #038048; stroke-width: 1.0;"/><text fill="#000000" font-family="sans-serif" font-size="11" lengthAdjust="spacingAndGlyphs" textLength="123" x="287.5" y="452.3066">UserRole(String, String)</text><ellipse cx="278.5" cy="462.5295" fill="#84BE84" rx="3" ry="3" style="stroke: #038048; stroke-width: 1.0;"/><text fill="#000000" font-family="sans-serif" font-size="11" lengthAdjust="spacingAndGlyphs" textLength="72" x="287.5" y="467.2884">getId(): String</text><ellipse cx="278.5" cy="477.5114" fill="#84BE84" rx="3" ry="3" style="stroke: #038048; stroke-width: 1.0;"/><text fill="#000000" font-family="sans-serif" font-size="11" lengthAdjust="spacingAndGlyphs" textLength="93" x="287.5" y="482.2703">setId(String): void</text><ellipse cx="278.5" cy="492.4933" fill="#84BE84" rx="3" ry="3" style="stroke: #038048; stroke-width: 1.0;"/><text fill="#000000" font-family="sans-serif" font-size="11" lengthAdjust="spacingAndGlyphs" textLength="121" x="287.5" y="497.2522">getDescription(): String</text><ellipse cx="278.5" cy="507.4752" fill="#84BE84" rx="3" ry="3" style="stroke: #038048; stroke-width: 1.0;"/><text fill="#000000" font-family="sans-serif" font-size="11" lengthAdjust="spacingAndGlyphs" textLength="142" x="287.5" y="512.2341">setDescription(String): void</text><ellipse cx="278.5" cy="522.4571" fill="#84BE84" rx="3" ry="3" style="stroke: #038048; stroke-width: 1.0;"/><text fill="#000000" font-family="sans-serif" font-size="11" lengthAdjust="spacingAndGlyphs" textLength="185" x="287.5" y="527.216">changeDescription(String): boolean</text><ellipse cx="278.5" cy="537.439" fill="#84BE84" rx="3" ry="3" style="stroke: #038048; stroke-width: 1.0;"/><text fill="#000000" font-family="sans-serif" font-size="11" lengthAdjust="spacingAndGlyphs" textLength="116" x="287.5" y="542.1979">hasId(String): boolean</text></a><!--MD5=[5a5af9b0547913863cbe0ddf55a9ab5e]
class java.io.Serializable--><rect codeLine="72" fill="#FEFECE" filter="url(#f1jtorx3mhadbq)" height="48" id="java.io.Serializable" style="stroke: #A80036; stroke-width: 1.5;" width="93" x="811.5" y="134.602"/><ellipse cx="826.5" cy="150.602" fill="#B4A7E5" rx="11" ry="11" style="stroke: #A80036; stroke-width: 1.0;"/><path d="M822.4219,146.3676 L822.4219,144.2114 L829.8125,144.2114 L829.8125,146.3676 L827.3438,146.3676 L827.3438,154.4457 L829.8125,154.4457 L829.8125,156.602 L822.4219,156.602 L822.4219,154.4457 L824.8906,154.4457 L824.8906,146.3676 L822.4219,146.3676 Z "/><text fill="#000000" font-family="sans-serif" font-size="12" font-style="italic" lengthAdjust="spacingAndGlyphs" textLength="61" x="840.5" y="155.258">Serializable</text><line style="stroke: #A80036; stroke-width: 1.5;" x1="812.5" x2="903.5" y1="166.602" y2="166.602"/><line style="stroke: #A80036; stroke-width: 1.5;" x1="812.5" x2="903.5" y1="174.602" y2="174.602"/><!--MD5=[32e701f4719460df32b651376dacfd8b]
reverse link java.io.Serializable to authz.Email--><path codeLine="65" d="M828.1,199.052 C811.6,220.782 790.71,248.222 772,272.602 C744.44,308.512 713.59,348.392 688.15,381.202 " fill="none" id="java.io.Serializable-backto-authz.Email" style="stroke: #A80036; stroke-width: 1.0; stroke-dasharray: 7.0,7.0;"/><polygon fill="none" points="822.6,194.722,840.27,183.022,833.75,203.182,822.6,194.722" style="stroke: #A80036; stroke-width: 1.0;"/><!--MD5=[297d7eb6b5aed6b3372ca8451e8421af]
link authz.User to authz.Password--><path codeLine="66" d="M140.87,272.972 C139.99,304.952 139.05,339.102 138.23,368.762 " fill="none" id="authz.User-to-authz.Password" style="stroke: #A80036; stroke-width: 1.0;"/><polygon fill="#A80036" points="138.09,373.862,142.3454,364.9799,138.2328,368.864,134.3487,364.7514,138.09,373.862" style="stroke: #A80036; stroke-width: 1.0;"/><text fill="#000000" font-family="sans-serif" font-size="13" lengthAdjust="spacingAndGlyphs" textLength="58" x="141" y="317.499">password</text><!--MD5=[b6950107922eb9f95d074ace9b52e6b8]
link authz.User to authz.Email--><path codeLine="67" d="M256.28,261.412 C262.14,265.372 268.06,269.132 274,272.602 C364.43,325.432 403.01,303.432 496,351.602 C511.34,359.552 526.92,368.982 541.84,378.802 " fill="none" id="authz.User-to-authz.Email" style="stroke: #A80036; stroke-width: 1.0;"/><polygon fill="#A80036" points="546.03,381.582,540.7405,373.2741,541.8632,378.8184,536.3188,379.941,546.03,381.582" style="stroke: #A80036; stroke-width: 1.0;"/><text fill="#000000" font-family="sans-serif" font-size="13" lengthAdjust="spacingAndGlyphs" textLength="11" x="416" y="317.499">id</text><!--MD5=[b8e7ca12d14e042b1d9d39959553e74f]
link authz.User to authz.UserRole--><path codeLine="68" d="M233.52,272.972 C252.85,297.452 273.18,323.192 292.15,347.222 " fill="none" id="authz.User-to-authz.UserRole" style="stroke: #A80036; stroke-width: 1.0;"/><polygon fill="#A80036" points="295.43,351.372,292.995,341.8289,292.3327,347.4468,286.7148,346.7846,295.43,351.372" style="stroke: #A80036; stroke-width: 1.0;"/><text fill="#000000" font-family="sans-serif" font-size="13" lengthAdjust="spacingAndGlyphs" textLength="29" x="267" y="317.499">roles</text><text fill="#000000" font-family="sans-serif" font-size="13" lengthAdjust="spacingAndGlyphs" textLength="7" x="281.9697" y="339.7196">*</text><text fill="#888888" font-family="sans-serif" font-size="10" lengthAdjust="spacingAndGlyphs" textLength="188" x="368" y="582.292">UMLDoclet 2.0.12, PlantUML 1.2020.16</text><!--MD5=[8c8ea2d81fee1298293ce5c839319e41]
@startuml
    namespace authz {

        class Password [[Password.html]] {
            -password: String
            +Password()
            +Password(String)
            -validate(String): boolean
            -createHash(String): String
            +checkPassword(String): boolean
            +getPassword(): String
        }

        class UserRepository [[UserRepository.html]] {
            {static} -emf: EntityManagerFactory
            +save(User): void
            +findByEmail(Email): Optional<User>
            +findAll(): List<User>
            +delete(User): void
        }

        class Email [[Email.html]] {
            -email: String
            +Email()
            +Email(String)
            -validate(String): boolean
            -checkFormat(String): boolean
            +getEmail(): String
        }

        class UserRoleRepository [[UserRoleRepository.html]] {
            {static} -emf: EntityManagerFactory
            +save(UserRole): void
            +findById(String): Optional<UserRole>
            +findAll(): List<UserRole>
        }

        class User [[User.html]] {
            -name: String
            +User()
            +User(Email, Password, String)
            +getName(): String
            +hasId(Email): boolean
            +hasPassword(String): boolean
            +addRole(UserRole): boolean
            +removeRole(UserRole): boolean
            +hasRole(UserRole): boolean
            +hasRole(String): boolean
            +changeName(String): boolean
            +changeRoles(List<UserRole>): boolean
        }

        class UserRole [[UserRole.html]] {
            -id: String
            -description: String
            +UserRole()
            +UserRole(String, String)
            +getId(): String
            +setId(String): void
            +getDescription(): String
            +setDescription(String): void
            +changeDescription(String): boolean
            +hasId(String): boolean
        }

        java.io.Serializable <|.. Email
        User - -> Password: password
        User - -> Email: id
        User - -> "*" UserRole: roles
    }

    namespace java.io {
        interface Serializable
    }

    center footer UMLDoclet 2.0.12, PlantUML 1.2020.16
@enduml

PlantUML version 1.2020.16(Sun Aug 23 21:20:43 WEST 2020)
(APACHE source distribution)
Java Runtime: Java(TM) SE Runtime Environment
JVM: Java HotSpot(TM) 64-Bit Server VM
Default Encoding: UTF-8
Language: en
Country: US
--></g></svg>