<?xml version="1.0" encoding="UTF-8" standalone="no"?><svg xmlns="http://www.w3.org/2000/svg" xmlns:xlink="http://www.w3.org/1999/xlink" contentScriptType="application/ecmascript" contentStyleType="text/css" height="182px" preserveAspectRatio="none" style="width:223px;height:182px;" version="1.1" viewBox="0 0 223 182" width="223px" zoomAndPan="magnify"><defs><filter height="300%" id="f104u3gj0rwq72" width="300%" x="-1" y="-1"><feGaussianBlur result="blurOut" stdDeviation="2.0"/><feColorMatrix in="blurOut" result="blurOut2" type="matrix" values="0 0 0 0 0 0 0 0 0 0 0 0 0 0 0 0 0 0 .4 0"/><feOffset dx="4.0" dy="4.0" in="blurOut2" result="blurOut3"/><feBlend in="SourceGraphic" in2="blurOut3" mode="normal"/></filter></defs><g><!--MD5=[08fd7ab900567ed24f06ec2229bbfea9]
class authz.Password--><a href="Password.html" target="_top" title="Password.html" xlink:actuate="onRequest" xlink:href="Password.html" xlink:show="new" xlink:title="Password.html" xlink:type="simple"><rect codeLine="5" fill="#FEFECE" filter="url(#f104u3gj0rwq72)" height="144.9512" id="authz.Password" style="stroke: #A80036; stroke-width: 1.5;" width="197" x="7" y="7"/><ellipse cx="68.75" cy="26.1328" fill="#ADD1B2" rx="11" ry="11" style="stroke: #A80036; stroke-width: 1.0;"/><path d="M71.2231,32.2759 Q70.6421,32.5747 70.0029,32.7241 Q69.3638,32.8735 68.6582,32.8735 Q66.1514,32.8735 64.8315,31.2217 Q63.5117,29.5698 63.5117,26.4487 Q63.5117,23.3193 64.8315,21.6675 Q66.1514,20.0156 68.6582,20.0156 Q69.3638,20.0156 70.0112,20.165 Q70.6587,20.3145 71.2231,20.6133 L71.2231,23.3359 Q70.5923,22.7549 69.9988,22.4851 Q69.4053,22.2153 68.7744,22.2153 Q67.4297,22.2153 66.7449,23.282 Q66.0601,24.3486 66.0601,26.4487 Q66.0601,28.5405 66.7449,29.6072 Q67.4297,30.6738 68.7744,30.6738 Q69.4053,30.6738 69.9988,30.4041 Q70.5923,30.1343 71.2231,29.5532 Z "/><text fill="#000000" font-family="sans-serif" font-size="14" lengthAdjust="spacingAndGlyphs" textLength="65" x="89.25" y="25.5352">Password</text><text fill="#000000" font-family="sans-serif" font-size="10" lengthAdjust="spacingAndGlyphs" textLength="28" x="107.75" y="38.1563">authz</text><line style="stroke: #A80036; stroke-width: 1.5;" x1="8" x2="203" y1="45.2656" y2="45.2656"/><rect fill="none" height="6" style="stroke: #C82930; stroke-width: 1.0;" width="6" x="15" y="53.2656"/><text fill="#000000" font-family="sans-serif" font-size="11" lengthAdjust="spacingAndGlyphs" textLength="90" x="27" y="59.9004">password: String</text><line style="stroke: #A80036; stroke-width: 1.5;" x1="8" x2="203" y1="66.2207" y2="66.2207"/><ellipse cx="18" cy="77.2207" fill="#84BE84" rx="3" ry="3" style="stroke: #038048; stroke-width: 1.0;"/><text fill="#000000" font-family="sans-serif" font-size="11" lengthAdjust="spacingAndGlyphs" textLength="59" x="27" y="80.8555">Password()</text><ellipse cx="18" cy="90.1758" fill="#84BE84" rx="3" ry="3" style="stroke: #038048; stroke-width: 1.0;"/><text fill="#000000" font-family="sans-serif" font-size="11" lengthAdjust="spacingAndGlyphs" textLength="91" x="27" y="93.8105">Password(String)</text><rect fill="#F24D5C" height="6" style="stroke: #C82930; stroke-width: 1.0;" width="6" x="15" y="100.1309"/><text fill="#000000" font-family="sans-serif" font-size="11" lengthAdjust="spacingAndGlyphs" textLength="130" x="27" y="106.7656">validate(String): boolean</text><rect fill="#F24D5C" height="6" style="stroke: #C82930; stroke-width: 1.0;" width="6" x="15" y="113.0859"/><text fill="#000000" font-family="sans-serif" font-size="11" lengthAdjust="spacingAndGlyphs" textLength="138" x="27" y="119.7207">createHash(String): String</text><ellipse cx="18" cy="129.041" fill="#84BE84" rx="3" ry="3" style="stroke: #038048; stroke-width: 1.0;"/><text fill="#000000" font-family="sans-serif" font-size="11" lengthAdjust="spacingAndGlyphs" textLength="171" x="27" y="132.6758">checkPassword(String): boolean</text><ellipse cx="18" cy="141.9961" fill="#84BE84" rx="3" ry="3" style="stroke: #038048; stroke-width: 1.0;"/><text fill="#000000" font-family="sans-serif" font-size="11" lengthAdjust="spacingAndGlyphs" textLength="114" x="27" y="145.6309">getPassword(): String</text></a><text fill="#888888" font-family="sans-serif" font-size="10" lengthAdjust="spacingAndGlyphs" textLength="188" x="11.5" y="168.6191">UMLDoclet 2.0.12, PlantUML 1.2020.16</text><!--MD5=[0371e2bcbf719861f1887abc98272a3e]
@startuml
    set namespaceSeparator none
    hide empty fields
    hide empty methods

    class "<size:14>Password\n<size:10>authz" as authz.Password [[Password.html]] {
        -password: String
        +Password()
        +Password(String)
        -validate(String): boolean
        -createHash(String): String
        +checkPassword(String): boolean
        +getPassword(): String
    }

    center footer UMLDoclet 2.0.12, PlantUML 1.2020.16
@enduml

PlantUML version 1.2020.16(Sun Aug 23 21:20:43 WEST 2020)
(APACHE source distribution)
Java Runtime: OpenJDK Runtime Environment
JVM: OpenJDK 64-Bit Server VM
Default Encoding: UTF-8
Language: pt
Country: PT
--></g></svg>