<?xml version="1.0" encoding="UTF-8" standalone="no"?><svg xmlns="http://www.w3.org/2000/svg" xmlns:xlink="http://www.w3.org/1999/xlink" contentScriptType="application/ecmascript" contentStyleType="text/css" height="201px" preserveAspectRatio="none" style="width:219px;height:201px;" version="1.1" viewBox="0 0 219 201" width="219px" zoomAndPan="magnify"><defs><filter height="300%" id="f104u3gj0rwq72" width="300%" x="-1" y="-1"><feGaussianBlur result="blurOut" stdDeviation="2.0"/><feColorMatrix in="blurOut" result="blurOut2" type="matrix" values="0 0 0 0 0 0 0 0 0 0 0 0 0 0 0 0 0 0 .4 0"/><feOffset dx="4.0" dy="4.0" in="blurOut2" result="blurOut3"/><feBlend in="SourceGraphic" in2="blurOut3" mode="normal"/></filter></defs><g><!--MD5=[08fd7ab900567ed24f06ec2229bbfea9]
class authz.Password--><a href="Password.html" target="_top" title="Password.html" xlink:actuate="onRequest" xlink:href="Password.html" xlink:show="new" xlink:title="Password.html" xlink:type="simple"><rect codeLine="5" fill="#FEFECE" filter="url(#f104u3gj0rwq72)" height="163.5611" id="authz.Password" style="stroke: #A80036; stroke-width: 1.5;" width="193" x="7" y="7"/><ellipse cx="67.25" cy="28.344" fill="#ADD1B2" rx="11" ry="11" style="stroke: #A80036; stroke-width: 1.0;"/><path d="M70.2188,33.9846 Q69.6406,34.2815 69,34.4221 Q68.3594,34.5783 67.6563,34.5783 Q65.1563,34.5783 63.8281,32.9377 Q62.5156,31.2815 62.5156,28.1565 Q62.5156,25.0315 63.8281,23.3752 Q65.1563,21.719 67.6563,21.719 Q68.3594,21.719 69,21.8752 Q69.6563,22.0315 70.2188,22.3283 L70.2188,25.0471 Q69.5938,24.469 69,24.2033 Q68.4063,23.9221 67.7813,23.9221 Q66.4375,23.9221 65.75,25.0002 Q65.0625,26.0627 65.0625,28.1565 Q65.0625,30.2502 65.75,31.3283 Q66.4375,32.3908 67.7813,32.3908 Q68.4063,32.3908 69,32.1252 Q69.5938,31.844 70.2188,31.2658 L70.2188,33.9846 Z "/><text fill="#000000" font-family="sans-serif" font-size="14" lengthAdjust="spacingAndGlyphs" textLength="64" x="87.75" y="26.9659">Password</text><text fill="#000000" font-family="sans-serif" font-size="10" lengthAdjust="spacingAndGlyphs" textLength="27" x="106.25" y="41.7579">authz</text><line style="stroke: #A80036; stroke-width: 1.5;" x1="8" x2="199" y1="49.6879" y2="49.6879"/><rect fill="none" height="6" style="stroke: #C82930; stroke-width: 1.0;" width="6" x="15" y="57.6879"/><text fill="#000000" font-family="sans-serif" font-size="11" lengthAdjust="spacingAndGlyphs" textLength="89" x="27" y="65.4468">password: String</text><line style="stroke: #A80036; stroke-width: 1.5;" x1="8" x2="199" y1="72.6698" y2="72.6698"/><ellipse cx="18" cy="83.6698" fill="#84BE84" rx="3" ry="3" style="stroke: #038048; stroke-width: 1.0;"/><text fill="#000000" font-family="sans-serif" font-size="11" lengthAdjust="spacingAndGlyphs" textLength="57" x="27" y="88.4287">Password()</text><ellipse cx="18" cy="98.6517" fill="#84BE84" rx="3" ry="3" style="stroke: #038048; stroke-width: 1.0;"/><text fill="#000000" font-family="sans-serif" font-size="11" lengthAdjust="spacingAndGlyphs" textLength="89" x="27" y="103.4106">Password(String)</text><rect fill="#F24D5C" height="6" style="stroke: #C82930; stroke-width: 1.0;" width="6" x="15" y="110.6336"/><text fill="#000000" font-family="sans-serif" font-size="11" lengthAdjust="spacingAndGlyphs" textLength="128" x="27" y="118.3925">validate(String): boolean</text><rect fill="#F24D5C" height="6" style="stroke: #C82930; stroke-width: 1.0;" width="6" x="15" y="125.6155"/><text fill="#000000" font-family="sans-serif" font-size="11" lengthAdjust="spacingAndGlyphs" textLength="134" x="27" y="133.3744">createHash(String): String</text><ellipse cx="18" cy="143.5973" fill="#84BE84" rx="3" ry="3" style="stroke: #038048; stroke-width: 1.0;"/><text fill="#000000" font-family="sans-serif" font-size="11" lengthAdjust="spacingAndGlyphs" textLength="167" x="27" y="148.3563">checkPassword(String): boolean</text><ellipse cx="18" cy="158.5792" fill="#84BE84" rx="3" ry="3" style="stroke: #038048; stroke-width: 1.0;"/><text fill="#000000" font-family="sans-serif" font-size="11" lengthAdjust="spacingAndGlyphs" textLength="112" x="27" y="163.3381">getPassword(): String</text></a><text fill="#888888" font-family="sans-serif" font-size="10" lengthAdjust="spacingAndGlyphs" textLength="188" x="9.5" y="188.2511">UMLDoclet 2.0.12, PlantUML 1.2020.16</text><!--MD5=[e72033b5344ba70052db9e16f4a21de0]
@startuml
    set namespaceSeparator none
    hide empty fields
    hide empty methods

    class "<size:14>Password\n<size:10>authz" as authz.Password [[Password.html]] {
        -password: String
        +Password()
        +Password(String)
        -validate(String): boolean
        -createHash(String): String
        +checkPassword(String): boolean
        +getPassword(): String
    }

    center footer UMLDoclet 2.0.12, PlantUML 1.2020.16
@enduml

PlantUML version 1.2020.16(Sun Aug 23 21:20:43 WEST 2020)
(APACHE source distribution)
Java Runtime: Java(TM) SE Runtime Environment
JVM: Java HotSpot(TM) 64-Bit Server VM
Default Encoding: UTF-8
Language: en
Country: US
--></g></svg>