<?xml version="1.0" encoding="UTF-8" standalone="no"?><svg xmlns="http://www.w3.org/2000/svg" xmlns:xlink="http://www.w3.org/1999/xlink" contentScriptType="application/ecmascript" contentStyleType="text/css" height="351px" preserveAspectRatio="none" style="width:250px;height:351px;" version="1.1" viewBox="0 0 250 351" width="250px" zoomAndPan="magnify"><defs><filter height="300%" id="fh8aggp90ru2l" width="300%" x="-1" y="-1"><feGaussianBlur result="blurOut" stdDeviation="2.0"/><feColorMatrix in="blurOut" result="blurOut2" type="matrix" values="0 0 0 0 0 0 0 0 0 0 0 0 0 0 0 0 0 0 .4 0"/><feOffset dx="4.0" dy="4.0" in="blurOut2" result="blurOut3"/><feBlend in="SourceGraphic" in2="blurOut3" mode="normal"/></filter></defs><g><!--MD5=[7f998eb8c0b7fa9e2a563127bc3df404]
class authz.User--><a href="User.html" target="_top" title="User.html" xlink:actuate="onRequest" xlink:href="User.html" xlink:show="new" xlink:title="User.html" xlink:type="simple"><rect codeLine="5" fill="#FEFECE" filter="url(#fh8aggp90ru2l)" height="313.38" id="authz.User" style="stroke: #A80036; stroke-width: 1.5;" width="224" x="7" y="7"/><ellipse cx="99.25" cy="28.344" fill="#ADD1B2" rx="11" ry="11" style="stroke: #A80036; stroke-width: 1.0;"/><path d="M102.2188,33.9846 Q101.6406,34.2815 101,34.4221 Q100.3594,34.5783 99.6563,34.5783 Q97.1563,34.5783 95.8281,32.9377 Q94.5156,31.2815 94.5156,28.1565 Q94.5156,25.0315 95.8281,23.3752 Q97.1563,21.719 99.6563,21.719 Q100.3594,21.719 101,21.8752 Q101.6563,22.0315 102.2188,22.3283 L102.2188,25.0471 Q101.5938,24.469 101,24.2033 Q100.4063,23.9221 99.7813,23.9221 Q98.4375,23.9221 97.75,25.0002 Q97.0625,26.0627 97.0625,28.1565 Q97.0625,30.2502 97.75,31.3283 Q98.4375,32.3908 99.7813,32.3908 Q100.4063,32.3908 101,32.1252 Q101.5938,31.844 102.2188,31.2658 L102.2188,33.9846 Z "/><text fill="#000000" font-family="sans-serif" font-size="14" lengthAdjust="spacingAndGlyphs" textLength="31" x="119.75" y="26.9659">User</text><text fill="#000000" font-family="sans-serif" font-size="10" lengthAdjust="spacingAndGlyphs" textLength="27" x="121.75" y="41.7579">authz</text><line style="stroke: #A80036; stroke-width: 1.5;" x1="8" x2="230" y1="49.6879" y2="49.6879"/><rect fill="none" height="6" style="stroke: #C82930; stroke-width: 1.0;" width="6" x="15" y="57.6879"/><text fill="#000000" font-family="sans-serif" font-size="11" lengthAdjust="spacingAndGlyphs" textLength="44" x="27" y="65.4468">id: Email</text><rect fill="none" height="6" style="stroke: #C82930; stroke-width: 1.0;" width="6" x="15" y="72.6698"/><text fill="#000000" font-family="sans-serif" font-size="11" lengthAdjust="spacingAndGlyphs" textLength="108" x="27" y="80.4287">password: Password</text><rect fill="none" height="6" style="stroke: #C82930; stroke-width: 1.0;" width="6" x="15" y="87.6517"/><text fill="#000000" font-family="sans-serif" font-size="11" lengthAdjust="spacingAndGlyphs" textLength="67" x="27" y="95.4106">name: String</text><rect fill="none" height="6" style="stroke: #C82930; stroke-width: 1.0;" width="6" x="15" y="102.6336"/><text fill="#000000" font-family="sans-serif" font-size="11" lengthAdjust="spacingAndGlyphs" textLength="107" x="27" y="110.3925">roles: Set&lt;UserRole&gt;</text><line style="stroke: #A80036; stroke-width: 1.5;" x1="8" x2="230" y1="117.6155" y2="117.6155"/><ellipse cx="18" cy="128.6155" fill="#84BE84" rx="3" ry="3" style="stroke: #038048; stroke-width: 1.0;"/><text fill="#000000" font-family="sans-serif" font-size="11" lengthAdjust="spacingAndGlyphs" textLength="30" x="27" y="133.3744">User()</text><ellipse cx="18" cy="143.5973" fill="#84BE84" rx="3" ry="3" style="stroke: #038048; stroke-width: 1.0;"/><text fill="#000000" font-family="sans-serif" font-size="11" lengthAdjust="spacingAndGlyphs" textLength="153" x="27" y="148.3563">User(Email, Password, String)</text><ellipse cx="18" cy="158.5792" fill="#84BE84" rx="3" ry="3" style="stroke: #038048; stroke-width: 1.0;"/><text fill="#000000" font-family="sans-serif" font-size="11" lengthAdjust="spacingAndGlyphs" textLength="68" x="27" y="163.3381">getId(): Email</text><ellipse cx="18" cy="173.5611" fill="#84BE84" rx="3" ry="3" style="stroke: #038048; stroke-width: 1.0;"/><text fill="#000000" font-family="sans-serif" font-size="11" lengthAdjust="spacingAndGlyphs" textLength="91" x="27" y="178.32">getName(): String</text><ellipse cx="18" cy="188.543" fill="#84BE84" rx="3" ry="3" style="stroke: #038048; stroke-width: 1.0;"/><text fill="#000000" font-family="sans-serif" font-size="11" lengthAdjust="spacingAndGlyphs" textLength="112" x="27" y="193.3019">hasId(Email): boolean</text><ellipse cx="18" cy="203.5249" fill="#84BE84" rx="3" ry="3" style="stroke: #038048; stroke-width: 1.0;"/><text fill="#000000" font-family="sans-serif" font-size="11" lengthAdjust="spacingAndGlyphs" textLength="156" x="27" y="208.2838">hasPassword(String): boolean</text><ellipse cx="18" cy="218.5068" fill="#84BE84" rx="3" ry="3" style="stroke: #038048; stroke-width: 1.0;"/><text fill="#000000" font-family="sans-serif" font-size="11" lengthAdjust="spacingAndGlyphs" textLength="145" x="27" y="223.2657">addRole(UserRole): boolean</text><ellipse cx="18" cy="233.4887" fill="#84BE84" rx="3" ry="3" style="stroke: #038048; stroke-width: 1.0;"/><text fill="#000000" font-family="sans-serif" font-size="11" lengthAdjust="spacingAndGlyphs" textLength="165" x="27" y="238.2476">removeRole(UserRole): boolean</text><ellipse cx="18" cy="248.4706" fill="#84BE84" rx="3" ry="3" style="stroke: #038048; stroke-width: 1.0;"/><text fill="#000000" font-family="sans-serif" font-size="11" lengthAdjust="spacingAndGlyphs" textLength="143" x="27" y="253.2295">hasRole(UserRole): boolean</text><ellipse cx="18" cy="263.4524" fill="#84BE84" rx="3" ry="3" style="stroke: #038048; stroke-width: 1.0;"/><text fill="#000000" font-family="sans-serif" font-size="11" lengthAdjust="spacingAndGlyphs" textLength="128" x="27" y="268.2114">hasRole(String): boolean</text><ellipse cx="18" cy="278.4343" fill="#84BE84" rx="3" ry="3" style="stroke: #038048; stroke-width: 1.0;"/><text fill="#000000" font-family="sans-serif" font-size="11" lengthAdjust="spacingAndGlyphs" textLength="134" x="27" y="283.1932">getRoles(): List&lt;UserRole&gt;</text><ellipse cx="18" cy="293.4162" fill="#84BE84" rx="3" ry="3" style="stroke: #038048; stroke-width: 1.0;"/><text fill="#000000" font-family="sans-serif" font-size="11" lengthAdjust="spacingAndGlyphs" textLength="155" x="27" y="298.1751">changeName(String): boolean</text><ellipse cx="18" cy="308.3981" fill="#84BE84" rx="3" ry="3" style="stroke: #038048; stroke-width: 1.0;"/><text fill="#000000" font-family="sans-serif" font-size="11" lengthAdjust="spacingAndGlyphs" textLength="198" x="27" y="313.157">changeRoles(List&lt;UserRole&gt;): boolean</text></a><text fill="#888888" font-family="sans-serif" font-size="10" lengthAdjust="spacingAndGlyphs" textLength="188" x="25" y="338.07">UMLDoclet 2.0.12, PlantUML 1.2020.16</text><!--MD5=[eefaa697bdcb7bef8b84fb92537590b0]
@startuml
    set namespaceSeparator none
    hide empty fields
    hide empty methods

    class "<size:14>User\n<size:10>authz" as authz.User [[User.html]] {
        -id: Email
        -password: Password
        -name: String
        -roles: Set<UserRole>
        +User()
        +User(Email, Password, String)
        +getId(): Email
        +getName(): String
        +hasId(Email): boolean
        +hasPassword(String): boolean
        +addRole(UserRole): boolean
        +removeRole(UserRole): boolean
        +hasRole(UserRole): boolean
        +hasRole(String): boolean
        +getRoles(): List<UserRole>
        +changeName(String): boolean
        +changeRoles(List<UserRole>): boolean
    }

    center footer UMLDoclet 2.0.12, PlantUML 1.2020.16
@enduml

PlantUML version 1.2020.16(Sun Aug 23 21:20:43 WEST 2020)
(APACHE source distribution)
Java Runtime: Java(TM) SE Runtime Environment
JVM: Java HotSpot(TM) 64-Bit Server VM
Default Encoding: UTF-8
Language: en
Country: US
--></g></svg>