<?xml version="1.0" encoding="UTF-8" standalone="no"?><svg xmlns="http://www.w3.org/2000/svg" xmlns:xlink="http://www.w3.org/1999/xlink" contentScriptType="application/ecmascript" contentStyleType="text/css" height="171px" preserveAspectRatio="none" style="width:236px;height:171px;" version="1.1" viewBox="0 0 236 171" width="236px" zoomAndPan="magnify"><defs><filter height="300%" id="fdqpir08fuo04" width="300%" x="-1" y="-1"><feGaussianBlur result="blurOut" stdDeviation="2.0"/><feColorMatrix in="blurOut" result="blurOut2" type="matrix" values="0 0 0 0 0 0 0 0 0 0 0 0 0 0 0 0 0 0 .4 0"/><feOffset dx="4.0" dy="4.0" in="blurOut2" result="blurOut3"/><feBlend in="SourceGraphic" in2="blurOut3" mode="normal"/></filter></defs><g><!--MD5=[8fe13fce12ccf034da838c0d6e59d899]
class authz.UserRepository--><a href="UserRepository.html" target="_top" title="UserRepository.html" xlink:actuate="onRequest" xlink:href="UserRepository.html" xlink:show="new" xlink:title="UserRepository.html" xlink:type="simple"><rect codeLine="5" fill="#FEFECE" filter="url(#fdqpir08fuo04)" height="133.5973" id="authz.UserRepository" style="stroke: #A80036; stroke-width: 1.5;" width="210" x="7" y="7"/><ellipse cx="56.75" cy="28.344" fill="#ADD1B2" rx="11" ry="11" style="stroke: #A80036; stroke-width: 1.0;"/><path d="M59.7188,33.9846 Q59.1406,34.2815 58.5,34.4221 Q57.8594,34.5783 57.1563,34.5783 Q54.6563,34.5783 53.3281,32.9377 Q52.0156,31.2815 52.0156,28.1565 Q52.0156,25.0315 53.3281,23.3752 Q54.6563,21.719 57.1563,21.719 Q57.8594,21.719 58.5,21.8752 Q59.1563,22.0315 59.7188,22.3283 L59.7188,25.0471 Q59.0938,24.469 58.5,24.2033 Q57.9063,23.9221 57.2813,23.9221 Q55.9375,23.9221 55.25,25.0002 Q54.5625,26.0627 54.5625,28.1565 Q54.5625,30.2502 55.25,31.3283 Q55.9375,32.3908 57.2813,32.3908 Q57.9063,32.3908 58.5,32.1252 Q59.0938,31.844 59.7188,31.2658 L59.7188,33.9846 Z "/><text fill="#000000" font-family="sans-serif" font-size="14" lengthAdjust="spacingAndGlyphs" textLength="102" x="77.25" y="26.9659">UserRepository</text><text fill="#000000" font-family="sans-serif" font-size="10" lengthAdjust="spacingAndGlyphs" textLength="27" x="114.75" y="41.7579">authz</text><line style="stroke: #A80036; stroke-width: 1.5;" x1="8" x2="216" y1="49.6879" y2="49.6879"/><rect fill="none" height="6" style="stroke: #C82930; stroke-width: 1.0;" width="6" x="15" y="57.6879"/><text fill="#000000" font-family="sans-serif" font-size="11" lengthAdjust="spacingAndGlyphs" text-decoration="underline" textLength="142" x="27" y="65.4468">emf: EntityManagerFactory</text><line style="stroke: #A80036; stroke-width: 1.5;" x1="8" x2="216" y1="72.6698" y2="72.6698"/><ellipse cx="18" cy="83.6698" fill="#84BE84" rx="3" ry="3" style="stroke: #038048; stroke-width: 1.0;"/><text fill="#000000" font-family="sans-serif" font-size="11" lengthAdjust="spacingAndGlyphs" textLength="82" x="27" y="88.4287">save(User): void</text><ellipse cx="18" cy="98.6517" fill="#84BE84" rx="3" ry="3" style="stroke: #038048; stroke-width: 1.0;"/><text fill="#000000" font-family="sans-serif" font-size="11" lengthAdjust="spacingAndGlyphs" textLength="184" x="27" y="103.4106">findByEmail(Email): Optional&lt;User&gt;</text><ellipse cx="18" cy="113.6336" fill="#84BE84" rx="3" ry="3" style="stroke: #038048; stroke-width: 1.0;"/><text fill="#000000" font-family="sans-serif" font-size="11" lengthAdjust="spacingAndGlyphs" textLength="100" x="27" y="118.3925">findAll(): List&lt;User&gt;</text><ellipse cx="18" cy="128.6155" fill="#84BE84" rx="3" ry="3" style="stroke: #038048; stroke-width: 1.0;"/><text fill="#000000" font-family="sans-serif" font-size="11" lengthAdjust="spacingAndGlyphs" textLength="91" x="27" y="133.3744">delete(User): void</text></a><text fill="#888888" font-family="sans-serif" font-size="10" lengthAdjust="spacingAndGlyphs" textLength="188" x="18" y="158.2873">UMLDoclet 2.0.12, PlantUML 1.2020.16</text><!--MD5=[d27395830d2aa069e5ac6198d7d78a36]
@startuml
    set namespaceSeparator none
    hide empty fields
    hide empty methods

    class "<size:14>UserRepository\n<size:10>authz" as authz.UserRepository [[UserRepository.html]] {
        {static} -emf: EntityManagerFactory
        +save(User): void
        +findByEmail(Email): Optional<User>
        +findAll(): List<User>
        +delete(User): void
    }

    center footer UMLDoclet 2.0.12, PlantUML 1.2020.16
@enduml

PlantUML version 1.2020.16(Sun Aug 23 21:20:43 WEST 2020)
(APACHE source distribution)
Java Runtime: Java(TM) SE Runtime Environment
JVM: Java HotSpot(TM) 64-Bit Server VM
Default Encoding: UTF-8
Language: en
Country: US
--></g></svg>