<?xml version="1.0" encoding="UTF-8" standalone="no"?><svg xmlns="http://www.w3.org/2000/svg" xmlns:xlink="http://www.w3.org/1999/xlink" contentScriptType="application/ecmascript" contentStyleType="text/css" height="143px" preserveAspectRatio="none" style="width:253px;height:143px;" version="1.1" viewBox="0 0 253 143" width="253px" zoomAndPan="magnify"><defs><filter height="300%" id="f16c21esuyesfp" width="300%" x="-1" y="-1"><feGaussianBlur result="blurOut" stdDeviation="2.0"/><feColorMatrix in="blurOut" result="blurOut2" type="matrix" values="0 0 0 0 0 0 0 0 0 0 0 0 0 0 0 0 0 0 .4 0"/><feOffset dx="4.0" dy="4.0" in="blurOut2" result="blurOut3"/><feBlend in="SourceGraphic" in2="blurOut3" mode="normal"/></filter></defs><g><!--MD5=[5884b9fe79cd7fdd9385cb1d59f809e1]
class authz.UserRoleRepository--><a href="UserRoleRepository.html" target="_top" title="UserRoleRepository.html" xlink:actuate="onRequest" xlink:href="UserRoleRepository.html" xlink:show="new" xlink:title="UserRoleRepository.html" xlink:type="simple"><rect codeLine="5" fill="#FEFECE" filter="url(#f16c21esuyesfp)" height="106.0859" id="authz.UserRoleRepository" style="stroke: #A80036; stroke-width: 1.5;" width="227" x="7" y="7"/><ellipse cx="49.45" cy="26.1328" fill="#ADD1B2" rx="11" ry="11" style="stroke: #A80036; stroke-width: 1.0;"/><path d="M51.9231,32.2759 Q51.3421,32.5747 50.7029,32.7241 Q50.0638,32.8735 49.3582,32.8735 Q46.8514,32.8735 45.5315,31.2217 Q44.2117,29.5698 44.2117,26.4487 Q44.2117,23.3193 45.5315,21.6675 Q46.8514,20.0156 49.3582,20.0156 Q50.0638,20.0156 50.7112,20.165 Q51.3587,20.3145 51.9231,20.6133 L51.9231,23.3359 Q51.2923,22.7549 50.6988,22.4851 Q50.1053,22.2153 49.4744,22.2153 Q48.1297,22.2153 47.4449,23.282 Q46.7601,24.3486 46.7601,26.4487 Q46.7601,28.5405 47.4449,29.6072 Q48.1297,30.6738 49.4744,30.6738 Q50.1053,30.6738 50.6988,30.4041 Q51.2923,30.1343 51.9231,29.5532 Z "/><text fill="#000000" font-family="sans-serif" font-size="14" lengthAdjust="spacingAndGlyphs" textLength="134" x="69.55" y="25.5352">UserRoleRepository</text><text fill="#000000" font-family="sans-serif" font-size="10" lengthAdjust="spacingAndGlyphs" textLength="28" x="122.55" y="38.1563">authz</text><line style="stroke: #A80036; stroke-width: 1.5;" x1="8" x2="233" y1="45.2656" y2="45.2656"/><rect fill="none" height="6" style="stroke: #C82930; stroke-width: 1.0;" width="6" x="15" y="53.2656"/><text fill="#000000" font-family="sans-serif" font-size="11" lengthAdjust="spacingAndGlyphs" text-decoration="underline" textLength="142" x="27" y="59.9004">emf: EntityManagerFactory</text><line style="stroke: #A80036; stroke-width: 1.5;" x1="8" x2="233" y1="66.2207" y2="66.2207"/><ellipse cx="18" cy="77.2207" fill="#84BE84" rx="3" ry="3" style="stroke: #038048; stroke-width: 1.0;"/><text fill="#000000" font-family="sans-serif" font-size="11" lengthAdjust="spacingAndGlyphs" textLength="109" x="27" y="80.8555">save(UserRole): void</text><ellipse cx="18" cy="90.1758" fill="#84BE84" rx="3" ry="3" style="stroke: #038048; stroke-width: 1.0;"/><text fill="#000000" font-family="sans-serif" font-size="11" lengthAdjust="spacingAndGlyphs" textLength="201" x="27" y="93.8105">findById(String): Optional&lt;UserRole&gt;</text><ellipse cx="18" cy="103.1309" fill="#84BE84" rx="3" ry="3" style="stroke: #038048; stroke-width: 1.0;"/><text fill="#000000" font-family="sans-serif" font-size="11" lengthAdjust="spacingAndGlyphs" textLength="134" x="27" y="106.7656">findAll(): List&lt;UserRole&gt;</text></a><text fill="#888888" font-family="sans-serif" font-size="10" lengthAdjust="spacingAndGlyphs" textLength="188" x="26.5" y="129.7539">UMLDoclet 2.0.12, PlantUML 1.2020.16</text><!--MD5=[6cbeb509a3c5117bdcce8bf0b6d32d55]
@startuml
    set namespaceSeparator none
    hide empty fields
    hide empty methods

    class "<size:14>UserRoleRepository\n<size:10>authz" as authz.UserRoleRepository [[UserRoleRepository.html]] {
        {static} -emf: EntityManagerFactory
        +save(UserRole): void
        +findById(String): Optional<UserRole>
        +findAll(): List<UserRole>
    }

    center footer UMLDoclet 2.0.12, PlantUML 1.2020.16
@enduml

PlantUML version 1.2020.16(Sun Aug 23 21:20:43 WEST 2020)
(APACHE source distribution)
Java Runtime: OpenJDK Runtime Environment
JVM: OpenJDK 64-Bit Server VM
Default Encoding: UTF-8
Language: pt
Country: PT
--></g></svg>