<?xml version="1.0" encoding="UTF-8" standalone="no"?><svg xmlns="http://www.w3.org/2000/svg" xmlns:xlink="http://www.w3.org/1999/xlink" contentScriptType="application/ecmascript" contentStyleType="text/css" height="156px" preserveAspectRatio="none" style="width:244px;height:156px;" version="1.1" viewBox="0 0 244 156" width="244px" zoomAndPan="magnify"><defs><filter height="300%" id="fdqpir08fuo04" width="300%" x="-1" y="-1"><feGaussianBlur result="blurOut" stdDeviation="2.0"/><feColorMatrix in="blurOut" result="blurOut2" type="matrix" values="0 0 0 0 0 0 0 0 0 0 0 0 0 0 0 0 0 0 .4 0"/><feOffset dx="4.0" dy="4.0" in="blurOut2" result="blurOut3"/><feBlend in="SourceGraphic" in2="blurOut3" mode="normal"/></filter></defs><g><!--MD5=[8fe13fce12ccf034da838c0d6e59d899]
class authz.UserRepository--><a href="UserRepository.html" target="_top" title="UserRepository.html" xlink:actuate="onRequest" xlink:href="UserRepository.html" xlink:show="new" xlink:title="UserRepository.html" xlink:type="simple"><rect codeLine="5" fill="#FEFECE" filter="url(#fdqpir08fuo04)" height="119.041" id="authz.UserRepository" style="stroke: #A80036; stroke-width: 1.5;" width="218" x="7" y="7"/><ellipse cx="59.75" cy="26.1328" fill="#ADD1B2" rx="11" ry="11" style="stroke: #A80036; stroke-width: 1.0;"/><path d="M62.2231,32.2759 Q61.6421,32.5747 61.0029,32.7241 Q60.3638,32.8735 59.6582,32.8735 Q57.1514,32.8735 55.8315,31.2217 Q54.5117,29.5698 54.5117,26.4487 Q54.5117,23.3193 55.8315,21.6675 Q57.1514,20.0156 59.6582,20.0156 Q60.3638,20.0156 61.0112,20.165 Q61.6587,20.3145 62.2231,20.6133 L62.2231,23.3359 Q61.5923,22.7549 60.9988,22.4851 Q60.4053,22.2153 59.7744,22.2153 Q58.4297,22.2153 57.7449,23.282 Q57.0601,24.3486 57.0601,26.4487 Q57.0601,28.5405 57.7449,29.6072 Q58.4297,30.6738 59.7744,30.6738 Q60.4053,30.6738 60.9988,30.4041 Q61.5923,30.1343 62.2231,29.5532 Z "/><text fill="#000000" font-family="sans-serif" font-size="14" lengthAdjust="spacingAndGlyphs" textLength="104" x="80.25" y="25.5352">UserRepository</text><text fill="#000000" font-family="sans-serif" font-size="10" lengthAdjust="spacingAndGlyphs" textLength="28" x="118.25" y="38.1563">authz</text><line style="stroke: #A80036; stroke-width: 1.5;" x1="8" x2="224" y1="45.2656" y2="45.2656"/><rect fill="none" height="6" style="stroke: #C82930; stroke-width: 1.0;" width="6" x="15" y="53.2656"/><text fill="#000000" font-family="sans-serif" font-size="11" lengthAdjust="spacingAndGlyphs" text-decoration="underline" textLength="142" x="27" y="59.9004">emf: EntityManagerFactory</text><line style="stroke: #A80036; stroke-width: 1.5;" x1="8" x2="224" y1="66.2207" y2="66.2207"/><ellipse cx="18" cy="77.2207" fill="#84BE84" rx="3" ry="3" style="stroke: #038048; stroke-width: 1.0;"/><text fill="#000000" font-family="sans-serif" font-size="11" lengthAdjust="spacingAndGlyphs" textLength="86" x="27" y="80.8555">save(User): void</text><ellipse cx="18" cy="90.1758" fill="#84BE84" rx="3" ry="3" style="stroke: #038048; stroke-width: 1.0;"/><text fill="#000000" font-family="sans-serif" font-size="11" lengthAdjust="spacingAndGlyphs" textLength="192" x="27" y="93.8105">findByEmail(Email): Optional&lt;User&gt;</text><ellipse cx="18" cy="103.1309" fill="#84BE84" rx="3" ry="3" style="stroke: #038048; stroke-width: 1.0;"/><text fill="#000000" font-family="sans-serif" font-size="11" lengthAdjust="spacingAndGlyphs" textLength="111" x="27" y="106.7656">findAll(): List&lt;User&gt;</text><ellipse cx="18" cy="116.0859" fill="#84BE84" rx="3" ry="3" style="stroke: #038048; stroke-width: 1.0;"/><text fill="#000000" font-family="sans-serif" font-size="11" lengthAdjust="spacingAndGlyphs" textLength="94" x="27" y="119.7207">delete(User): void</text></a><text fill="#888888" font-family="sans-serif" font-size="10" lengthAdjust="spacingAndGlyphs" textLength="188" x="22" y="142.709">UMLDoclet 2.0.12, PlantUML 1.2020.16</text><!--MD5=[a7812ab880e5d5cbc3b411c905de4a3b]
@startuml
    set namespaceSeparator none
    hide empty fields
    hide empty methods

    class "<size:14>UserRepository\n<size:10>authz" as authz.UserRepository [[UserRepository.html]] {
        {static} -emf: EntityManagerFactory
        +save(User): void
        +findByEmail(Email): Optional<User>
        +findAll(): List<User>
        +delete(User): void
    }

    center footer UMLDoclet 2.0.12, PlantUML 1.2020.16
@enduml

PlantUML version 1.2020.16(Sun Aug 23 21:20:43 WEST 2020)
(APACHE source distribution)
Java Runtime: OpenJDK Runtime Environment
JVM: OpenJDK 64-Bit Server VM
Default Encoding: UTF-8
Language: pt
Country: PT
--></g></svg>