<?xml version="1.0" encoding="UTF-8" standalone="no"?><svg xmlns="http://www.w3.org/2000/svg" xmlns:xlink="http://www.w3.org/1999/xlink" contentScriptType="application/ecmascript" contentStyleType="text/css" height="220px" preserveAspectRatio="none" style="width:242px;height:220px;" version="1.1" viewBox="0 0 242 220" width="242px" zoomAndPan="magnify"><defs><filter height="300%" id="f7ori9hcznnyo" width="300%" x="-1" y="-1"><feGaussianBlur result="blurOut" stdDeviation="2.0"/><feColorMatrix in="blurOut" result="blurOut2" type="matrix" values="0 0 0 0 0 0 0 0 0 0 0 0 0 0 0 0 0 0 .4 0"/><feOffset dx="4.0" dy="4.0" in="blurOut2" result="blurOut3"/><feBlend in="SourceGraphic" in2="blurOut3" mode="normal"/></filter></defs><g><!--MD5=[6e9ce638ce98935d7a91f661d591ba67]
class authz.UserRole--><a href="UserRole.html" target="_top" title="UserRole.html" xlink:actuate="onRequest" xlink:href="UserRole.html" xlink:show="new" xlink:title="UserRole.html" xlink:type="simple"><rect codeLine="5" fill="#FEFECE" filter="url(#f7ori9hcznnyo)" height="183.8164" id="authz.UserRole" style="stroke: #A80036; stroke-width: 1.5;" width="216" x="7" y="7"/><ellipse cx="80.25" cy="26.1328" fill="#ADD1B2" rx="11" ry="11" style="stroke: #A80036; stroke-width: 1.0;"/><path d="M82.7231,32.2759 Q82.1421,32.5747 81.5029,32.7241 Q80.8638,32.8735 80.1582,32.8735 Q77.6514,32.8735 76.3315,31.2217 Q75.0117,29.5698 75.0117,26.4487 Q75.0117,23.3193 76.3315,21.6675 Q77.6514,20.0156 80.1582,20.0156 Q80.8638,20.0156 81.5112,20.165 Q82.1587,20.3145 82.7231,20.6133 L82.7231,23.3359 Q82.0923,22.7549 81.4988,22.4851 Q80.9053,22.2153 80.2744,22.2153 Q78.9297,22.2153 78.2449,23.282 Q77.5601,24.3486 77.5601,26.4487 Q77.5601,28.5405 78.2449,29.6072 Q78.9297,30.6738 80.2744,30.6738 Q80.9053,30.6738 81.4988,30.4041 Q82.0923,30.1343 82.7231,29.5532 Z "/><text fill="#000000" font-family="sans-serif" font-size="14" lengthAdjust="spacingAndGlyphs" textLength="61" x="100.75" y="25.5352">UserRole</text><text fill="#000000" font-family="sans-serif" font-size="10" lengthAdjust="spacingAndGlyphs" textLength="28" x="117.25" y="38.1563">authz</text><line style="stroke: #A80036; stroke-width: 1.5;" x1="8" x2="222" y1="45.2656" y2="45.2656"/><rect fill="none" height="6" style="stroke: #C82930; stroke-width: 1.0;" width="6" x="15" y="53.2656"/><text fill="#000000" font-family="sans-serif" font-size="11" lengthAdjust="spacingAndGlyphs" textLength="48" x="27" y="59.9004">id: String</text><rect fill="none" height="6" style="stroke: #C82930; stroke-width: 1.0;" width="6" x="15" y="66.2207"/><text fill="#000000" font-family="sans-serif" font-size="11" lengthAdjust="spacingAndGlyphs" textLength="99" x="27" y="72.8555">description: String</text><line style="stroke: #A80036; stroke-width: 1.5;" x1="8" x2="222" y1="79.1758" y2="79.1758"/><ellipse cx="18" cy="90.1758" fill="#84BE84" rx="3" ry="3" style="stroke: #038048; stroke-width: 1.0;"/><text fill="#000000" font-family="sans-serif" font-size="11" lengthAdjust="spacingAndGlyphs" textLength="56" x="27" y="93.8105">UserRole()</text><ellipse cx="18" cy="103.1309" fill="#84BE84" rx="3" ry="3" style="stroke: #038048; stroke-width: 1.0;"/><text fill="#000000" font-family="sans-serif" font-size="11" lengthAdjust="spacingAndGlyphs" textLength="126" x="27" y="106.7656">UserRole(String, String)</text><ellipse cx="18" cy="116.0859" fill="#84BE84" rx="3" ry="3" style="stroke: #038048; stroke-width: 1.0;"/><text fill="#000000" font-family="sans-serif" font-size="11" lengthAdjust="spacingAndGlyphs" textLength="73" x="27" y="119.7207">getId(): String</text><ellipse cx="18" cy="129.041" fill="#84BE84" rx="3" ry="3" style="stroke: #038048; stroke-width: 1.0;"/><text fill="#000000" font-family="sans-serif" font-size="11" lengthAdjust="spacingAndGlyphs" textLength="95" x="27" y="132.6758">setId(String): void</text><ellipse cx="18" cy="141.9961" fill="#84BE84" rx="3" ry="3" style="stroke: #038048; stroke-width: 1.0;"/><text fill="#000000" font-family="sans-serif" font-size="11" lengthAdjust="spacingAndGlyphs" textLength="125" x="27" y="145.6309">getDescription(): String</text><ellipse cx="18" cy="154.9512" fill="#84BE84" rx="3" ry="3" style="stroke: #038048; stroke-width: 1.0;"/><text fill="#000000" font-family="sans-serif" font-size="11" lengthAdjust="spacingAndGlyphs" textLength="147" x="27" y="158.5859">setDescription(String): void</text><ellipse cx="18" cy="167.9063" fill="#84BE84" rx="3" ry="3" style="stroke: #038048; stroke-width: 1.0;"/><text fill="#000000" font-family="sans-serif" font-size="11" lengthAdjust="spacingAndGlyphs" textLength="190" x="27" y="171.541">changeDescription(String): boolean</text><ellipse cx="18" cy="180.8613" fill="#84BE84" rx="3" ry="3" style="stroke: #038048; stroke-width: 1.0;"/><text fill="#000000" font-family="sans-serif" font-size="11" lengthAdjust="spacingAndGlyphs" textLength="118" x="27" y="184.4961">hasId(String): boolean</text></a><text fill="#888888" font-family="sans-serif" font-size="10" lengthAdjust="spacingAndGlyphs" textLength="188" x="21" y="207.4844">UMLDoclet 2.0.12, PlantUML 1.2020.16</text><!--MD5=[1a736c4e99d414f3ee3c66f65af5714e]
@startuml
    set namespaceSeparator none
    hide empty fields
    hide empty methods

    class "<size:14>UserRole\n<size:10>authz" as authz.UserRole [[UserRole.html]] {
        -id: String
        -description: String
        +UserRole()
        +UserRole(String, String)
        +getId(): String
        +setId(String): void
        +getDescription(): String
        +setDescription(String): void
        +changeDescription(String): boolean
        +hasId(String): boolean
    }

    center footer UMLDoclet 2.0.12, PlantUML 1.2020.16
@enduml

PlantUML version 1.2020.16(Sun Aug 23 21:20:43 WEST 2020)
(APACHE source distribution)
Java Runtime: OpenJDK Runtime Environment
JVM: OpenJDK 64-Bit Server VM
Default Encoding: UTF-8
Language: pt
Country: PT
--></g></svg>