<?xml version="1.0" encoding="UTF-8" standalone="no"?><svg xmlns="http://www.w3.org/2000/svg" xmlns:xlink="http://www.w3.org/1999/xlink" contentScriptType="application/ecmascript" contentStyleType="text/css" height="275px" preserveAspectRatio="none" style="width:247px;height:275px;" version="1.1" viewBox="0 0 247 275" width="247px" zoomAndPan="magnify"><defs><filter height="300%" id="fiu23lhjymbl3" width="300%" x="-1" y="-1"><feGaussianBlur result="blurOut" stdDeviation="2.0"/><feColorMatrix in="blurOut" result="blurOut2" type="matrix" values="0 0 0 0 0 0 0 0 0 0 0 0 0 0 0 0 0 0 .4 0"/><feOffset dx="4.0" dy="4.0" in="blurOut2" result="blurOut3"/><feBlend in="SourceGraphic" in2="blurOut3" mode="normal"/></filter></defs><g><!--MD5=[18826ddc68954886090dcda6a3a893a2]
class Bootstrap--><a href="Bootstrap.html" target="_top" title="Bootstrap.html" xlink:actuate="onRequest" xlink:href="Bootstrap.html" xlink:show="new" xlink:title="Bootstrap.html" xlink:type="simple"><rect codeLine="5" fill="#FEFECE" filter="url(#fiu23lhjymbl3)" height="112.7754" id="Bootstrap" style="stroke: #A80036; stroke-width: 1.5;" width="219" x="9" y="126.22"/><ellipse cx="86.75" cy="142.22" fill="#ADD1B2" rx="11" ry="11" style="stroke: #A80036; stroke-width: 1.0;"/><path d="M89.2231,148.3631 Q88.6421,148.6619 88.0029,148.8113 Q87.3638,148.9607 86.6582,148.9607 Q84.1514,148.9607 82.8315,147.3089 Q81.5117,145.657 81.5117,142.5359 Q81.5117,139.4065 82.8315,137.7547 Q84.1514,136.1028 86.6582,136.1028 Q87.3638,136.1028 88.0112,136.2522 Q88.6587,136.4016 89.2231,136.7005 L89.2231,139.4231 Q88.5923,138.8421 87.9988,138.5723 Q87.4053,138.3025 86.7744,138.3025 Q85.4297,138.3025 84.7449,139.3692 Q84.0601,140.4358 84.0601,142.5359 Q84.0601,144.6277 84.7449,145.6944 Q85.4297,146.761 86.7744,146.761 Q87.4053,146.761 87.9988,146.4912 Q88.5923,146.2215 89.2231,145.6404 Z "/><text fill="#000000" font-family="sans-serif" font-size="12" lengthAdjust="spacingAndGlyphs" textLength="55" x="107.25" y="146.7552">Bootstrap</text><line style="stroke: #A80036; stroke-width: 1.5;" x1="10" x2="227" y1="158.22" y2="158.22"/><rect fill="none" height="6" style="stroke: #C82930; stroke-width: 1.0;" width="6" x="17" y="166.22"/><text fill="#000000" font-family="sans-serif" font-size="11" lengthAdjust="spacingAndGlyphs" text-decoration="underline" textLength="166" x="29" y="172.8548">PROD_MANAGER_EMAIL: String</text><rect fill="none" height="6" style="stroke: #C82930; stroke-width: 1.0;" width="6" x="17" y="179.1751"/><text fill="#000000" font-family="sans-serif" font-size="11" lengthAdjust="spacingAndGlyphs" text-decoration="underline" textLength="193" x="29" y="185.8098">PROD_MANAGER_PASSWORD: String</text><line style="stroke: #A80036; stroke-width: 1.5;" x1="10" x2="227" y1="192.1302" y2="192.1302"/><ellipse cx="20" cy="203.1302" fill="#84BE84" rx="3" ry="3" style="stroke: #038048; stroke-width: 1.0;"/><text fill="#000000" font-family="sans-serif" font-size="11" lengthAdjust="spacingAndGlyphs" textLength="56" x="29" y="206.7649">run(): void</text><polygon fill="#FFFF44" points="20,211.0852,24,215.0852,20,219.0852,16,215.0852" style="stroke: #B38D22; stroke-width: 1.0;"/><text fill="#000000" font-family="sans-serif" font-size="11" lengthAdjust="spacingAndGlyphs" text-decoration="underline" textLength="150" x="29" y="219.72">inputAppInformation(): void</text><rect fill="#F24D5C" height="6" style="stroke: #C82930; stroke-width: 1.0;" width="6" x="17" y="226.0403"/><text fill="#000000" font-family="sans-serif" font-size="11" lengthAdjust="spacingAndGlyphs" textLength="88" x="29" y="232.6751">addUsers(): void</text></a><!--MD5=[8dac795f9edbf65a524ac462449c98fb]
class java.lang.Runnable--><rect codeLine="13" fill="#FEFECE" filter="url(#fiu23lhjymbl3)" height="59.2207" id="java.lang.Runnable" style="stroke: #A80036; stroke-width: 1.5;" width="97" x="70" y="7"/><ellipse cx="85" cy="26.1328" fill="#B4A7E5" rx="11" ry="11" style="stroke: #A80036; stroke-width: 1.0;"/><path d="M81.4277,22.3979 L81.4277,20.2397 L88.8071,20.2397 L88.8071,22.3979 L86.3418,22.3979 L86.3418,30.4746 L88.8071,30.4746 L88.8071,32.6328 L81.4277,32.6328 L81.4277,30.4746 L83.8931,30.4746 L83.8931,22.3979 Z "/><text fill="#000000" font-family="sans-serif" font-size="14" font-style="italic" lengthAdjust="spacingAndGlyphs" textLength="65" x="99" y="25.5352">Runnable</text><text fill="#000000" font-family="sans-serif" font-size="10" font-style="italic" lengthAdjust="spacingAndGlyphs" textLength="44" x="109.5" y="38.1563">java.lang</text><line style="stroke: #A80036; stroke-width: 1.5;" x1="71" x2="166" y1="45.2656" y2="45.2656"/><ellipse cx="81" cy="56.2656" fill="#84BE84" rx="3" ry="3" style="stroke: #038048; stroke-width: 1.0;"/><text fill="#000000" font-family="sans-serif" font-size="11" font-style="italic" lengthAdjust="spacingAndGlyphs" textLength="56" x="90" y="59.9004">run(): void</text><!--MD5=[53013683c5a3ab207b549cdf12e376f1]
reverse link java.lang.Runnable to Bootstrap--><path codeLine="17" d="M118.5,87.77 C118.5,100.04 118.5,113.24 118.5,125.76 " fill="none" id="java.lang.Runnable-backto-Bootstrap" style="stroke: #A80036; stroke-width: 1.0; stroke-dasharray: 7.0,7.0;"/><polygon fill="none" points="111.5,87.92,118.5,67.92,125.5,87.92,111.5,87.92" style="stroke: #A80036; stroke-width: 1.0;"/><text fill="#888888" font-family="sans-serif" font-size="10" lengthAdjust="spacingAndGlyphs" textLength="188" x="20.5" y="261.6634">UMLDoclet 2.0.12, PlantUML 1.2020.16</text><!--MD5=[26105684a88ac98dc13be17cff6f5707]
@startuml
    set namespaceSeparator none
    hide empty fields
    hide empty methods

    class Bootstrap [[Bootstrap.html]] {
        {static} -PROD_MANAGER_EMAIL: String
        {static} -PROD_MANAGER_PASSWORD: String
        +run(): void
        {static} #inputAppInformation(): void
        -addUsers(): void
    }

    interface "<size:14>Runnable\n<size:10>java.lang" as java.lang.Runnable {
        {abstract} +run(): void
    }

    java.lang.Runnable <|.. Bootstrap

    center footer UMLDoclet 2.0.12, PlantUML 1.2020.16
@enduml

PlantUML version 1.2020.16(Sun Aug 23 21:20:43 WEST 2020)
(APACHE source distribution)
Java Runtime: OpenJDK Runtime Environment
JVM: OpenJDK 64-Bit Server VM
Default Encoding: UTF-8
Language: pt
Country: PT
--></g></svg>