<?xml version="1.0" encoding="UTF-8" standalone="no"?><svg xmlns="http://www.w3.org/2000/svg" xmlns:xlink="http://www.w3.org/1999/xlink" contentScriptType="application/ecmascript" contentStyleType="text/css" height="293px" preserveAspectRatio="none" style="width:246px;height:293px;" version="1.1" viewBox="0 0 246 293" width="246px" zoomAndPan="magnify"><defs><filter height="300%" id="fiu23lhjymbl3" width="300%" x="-1" y="-1"><feGaussianBlur result="blurOut" stdDeviation="2.0"/><feColorMatrix in="blurOut" result="blurOut2" type="matrix" values="0 0 0 0 0 0 0 0 0 0 0 0 0 0 0 0 0 0 .4 0"/><feOffset dx="4.0" dy="4.0" in="blurOut2" result="blurOut3"/><feBlend in="SourceGraphic" in2="blurOut3" mode="normal"/></filter></defs><g><!--MD5=[18826ddc68954886090dcda6a3a893a2]
class Bootstrap--><a href="Bootstrap.html" target="_top" title="Bootstrap.html" xlink:actuate="onRequest" xlink:href="Bootstrap.html" xlink:show="new" xlink:title="Bootstrap.html" xlink:type="simple"><rect codeLine="5" fill="#FEFECE" filter="url(#fiu23lhjymbl3)" height="122.9094" id="Bootstrap" style="stroke: #A80036; stroke-width: 1.5;" width="218" x="9" y="133"/><ellipse cx="86.25" cy="149" fill="#ADD1B2" rx="11" ry="11" style="stroke: #A80036; stroke-width: 1.0;"/><path d="M89.2188,154.6406 Q88.6406,154.9375 88,155.0781 Q87.3594,155.2344 86.6563,155.2344 Q84.1563,155.2344 82.8281,153.5938 Q81.5156,151.9375 81.5156,148.8125 Q81.5156,145.6875 82.8281,144.0313 Q84.1563,142.375 86.6563,142.375 Q87.3594,142.375 88,142.5313 Q88.6563,142.6875 89.2188,142.9844 L89.2188,145.7031 Q88.5938,145.125 88,144.8594 Q87.4063,144.5781 86.7813,144.5781 Q85.4375,144.5781 84.75,145.6563 Q84.0625,146.7188 84.0625,148.8125 Q84.0625,150.9063 84.75,151.9844 Q85.4375,153.0469 86.7813,153.0469 Q87.4063,153.0469 88,152.7813 Q88.5938,152.5 89.2188,151.9219 L89.2188,154.6406 Z "/><text fill="#000000" font-family="sans-serif" font-size="12" lengthAdjust="spacingAndGlyphs" textLength="55" x="106.75" y="153.656">Bootstrap</text><line style="stroke: #A80036; stroke-width: 1.5;" x1="10" x2="226" y1="165" y2="165"/><rect fill="none" height="6" style="stroke: #C82930; stroke-width: 1.0;" width="6" x="17" y="173"/><text fill="#000000" font-family="sans-serif" font-size="11" lengthAdjust="spacingAndGlyphs" text-decoration="underline" textLength="165" x="29" y="180.7589">PROD_MANAGER_EMAIL: String</text><rect fill="none" height="6" style="stroke: #C82930; stroke-width: 1.0;" width="6" x="17" y="187.9819"/><text fill="#000000" font-family="sans-serif" font-size="11" lengthAdjust="spacingAndGlyphs" text-decoration="underline" textLength="192" x="29" y="195.7408">PROD_MANAGER_PASSWORD: String</text><line style="stroke: #A80036; stroke-width: 1.5;" x1="10" x2="226" y1="202.9638" y2="202.9638"/><ellipse cx="20" cy="213.9638" fill="#84BE84" rx="3" ry="3" style="stroke: #038048; stroke-width: 1.0;"/><text fill="#000000" font-family="sans-serif" font-size="11" lengthAdjust="spacingAndGlyphs" textLength="54" x="29" y="218.7227">run(): void</text><polygon fill="#FFFF44" points="20,223.9457,24,227.9457,20,231.9457,16,227.9457" style="stroke: #B38D22; stroke-width: 1.0;"/><text fill="#000000" font-family="sans-serif" font-size="11" lengthAdjust="spacingAndGlyphs" text-decoration="underline" textLength="148" x="29" y="233.7046">inputAppInformation(): void</text><rect fill="#F24D5C" height="6" style="stroke: #C82930; stroke-width: 1.0;" width="6" x="17" y="240.9276"/><text fill="#000000" font-family="sans-serif" font-size="11" lengthAdjust="spacingAndGlyphs" textLength="84" x="29" y="248.6865">addUsers(): void</text></a><!--MD5=[8dac795f9edbf65a524ac462449c98fb]
class java.lang.Runnable--><rect codeLine="13" fill="#FEFECE" filter="url(#fiu23lhjymbl3)" height="65.6698" id="java.lang.Runnable" style="stroke: #A80036; stroke-width: 1.5;" width="91" x="72.5" y="7"/><ellipse cx="87.5" cy="28.344" fill="#B4A7E5" rx="11" ry="11" style="stroke: #A80036; stroke-width: 1.0;"/><path d="M83.4219,24.1096 L83.4219,21.9533 L90.8125,21.9533 L90.8125,24.1096 L88.3438,24.1096 L88.3438,32.1877 L90.8125,32.1877 L90.8125,34.344 L83.4219,34.344 L83.4219,32.1877 L85.8906,32.1877 L85.8906,24.1096 L83.4219,24.1096 Z "/><text fill="#000000" font-family="sans-serif" font-size="14" font-style="italic" lengthAdjust="spacingAndGlyphs" textLength="59" x="101.5" y="26.9659">Runnable</text><text fill="#000000" font-family="sans-serif" font-size="10" font-style="italic" lengthAdjust="spacingAndGlyphs" textLength="44" x="109" y="41.7579">java.lang</text><line style="stroke: #A80036; stroke-width: 1.5;" x1="73.5" x2="162.5" y1="49.6879" y2="49.6879"/><ellipse cx="83.5" cy="60.6879" fill="#84BE84" rx="3" ry="3" style="stroke: #038048; stroke-width: 1.0;"/><text fill="#000000" font-family="sans-serif" font-size="11" font-style="italic" lengthAdjust="spacingAndGlyphs" textLength="48" x="92.5" y="65.4468">run(): void</text><!--MD5=[53013683c5a3ab207b549cdf12e376f1]
reverse link java.lang.Runnable to Bootstrap--><path codeLine="17" d="M118,93.5 C118,106.19 118,119.85 118,132.89 " fill="none" id="java.lang.Runnable-backto-Bootstrap" style="stroke: #A80036; stroke-width: 1.0; stroke-dasharray: 7.0,7.0;"/><polygon fill="none" points="111,93.34,118,73.34,125,93.34,111,93.34" style="stroke: #A80036; stroke-width: 1.0;"/><text fill="#888888" font-family="sans-serif" font-size="10" lengthAdjust="spacingAndGlyphs" textLength="188" x="20" y="279.5994">UMLDoclet 2.0.12, PlantUML 1.2020.16</text><!--MD5=[df8ea6bf1f2549d23403e9265deb22bd]
@startuml
    set namespaceSeparator none
    hide empty fields
    hide empty methods

    class Bootstrap [[Bootstrap.html]] {
        {static} -PROD_MANAGER_EMAIL: String
        {static} -PROD_MANAGER_PASSWORD: String
        +run(): void
        {static} #inputAppInformation(): void
        -addUsers(): void
    }

    interface "<size:14>Runnable\n<size:10>java.lang" as java.lang.Runnable {
        {abstract} +run(): void
    }

    java.lang.Runnable <|.. Bootstrap

    center footer UMLDoclet 2.0.12, PlantUML 1.2020.16
@enduml

PlantUML version 1.2020.16(Sun Aug 23 21:20:43 WEST 2020)
(APACHE source distribution)
Java Runtime: Java(TM) SE Runtime Environment
JVM: Java HotSpot(TM) 64-Bit Server VM
Default Encoding: UTF-8
Language: en
Country: US
--></g></svg>