<?xml version="1.0" encoding="UTF-8" standalone="no"?><svg xmlns="http://www.w3.org/2000/svg" xmlns:xlink="http://www.w3.org/1999/xlink" contentScriptType="application/ecmascript" contentStyleType="text/css" height="93px" preserveAspectRatio="none" style="width:200px;height:93px;" version="1.1" viewBox="0 0 200 93" width="200px" zoomAndPan="magnify"><defs><filter height="300%" id="f7gdnvwh69yyq" width="300%" x="-1" y="-1"><feGaussianBlur result="blurOut" stdDeviation="2.0"/><feColorMatrix in="blurOut" result="blurOut2" type="matrix" values="0 0 0 0 0 0 0 0 0 0 0 0 0 0 0 0 0 0 .4 0"/><feOffset dx="4.0" dy="4.0" in="blurOut2" result="blurOut3"/><feBlend in="SourceGraphic" in2="blurOut3" mode="normal"/></filter></defs><g><!--MD5=[84718776d214be480e4c259efcb737fc]
class Main--><a href="Main.html" target="_top" title="Main.html" xlink:actuate="onRequest" xlink:href="Main.html" xlink:show="new" xlink:title="Main.html" xlink:type="simple"><rect codeLine="5" fill="#FEFECE" filter="url(#f7gdnvwh69yyq)" height="54.9819" id="Main" style="stroke: #A80036; stroke-width: 1.5;" width="127" x="30.5" y="7"/><ellipse cx="75.75" cy="23" fill="#ADD1B2" rx="11" ry="11" style="stroke: #A80036; stroke-width: 1.0;"/><path d="M78.7188,28.6406 Q78.1406,28.9375 77.5,29.0781 Q76.8594,29.2344 76.1563,29.2344 Q73.6563,29.2344 72.3281,27.5938 Q71.0156,25.9375 71.0156,22.8125 Q71.0156,19.6875 72.3281,18.0313 Q73.6563,16.375 76.1563,16.375 Q76.8594,16.375 77.5,16.5313 Q78.1563,16.6875 78.7188,16.9844 L78.7188,19.7031 Q78.0938,19.125 77.5,18.8594 Q76.9063,18.5781 76.2813,18.5781 Q74.9375,18.5781 74.25,19.6563 Q73.5625,20.7188 73.5625,22.8125 Q73.5625,24.9063 74.25,25.9844 Q74.9375,27.0469 76.2813,27.0469 Q76.9063,27.0469 77.5,26.7813 Q78.0938,26.5 78.7188,25.9219 L78.7188,28.6406 Z "/><text fill="#000000" font-family="sans-serif" font-size="12" lengthAdjust="spacingAndGlyphs" textLength="28" x="96.25" y="27.656">Main</text><line style="stroke: #A80036; stroke-width: 1.5;" x1="31.5" x2="156.5" y1="39" y2="39"/><ellipse cx="41.5" cy="50" fill="#84BE84" rx="3" ry="3" style="stroke: #038048; stroke-width: 1.0;"/><text fill="#000000" font-family="sans-serif" font-size="11" lengthAdjust="spacingAndGlyphs" text-decoration="underline" textLength="101" x="50.5" y="54.7589">main(String[]): void</text></a><text fill="#888888" font-family="sans-serif" font-size="10" lengthAdjust="spacingAndGlyphs" textLength="188" x="0" y="79.6719">UMLDoclet 2.0.12, PlantUML 1.2020.16</text><!--MD5=[7bcf9090568c1c2f9bfbedd757f05376]
@startuml
    set namespaceSeparator none
    hide empty fields
    hide empty methods

    class Main [[Main.html]] {
        {static} +main(String[]): void
    }

    center footer UMLDoclet 2.0.12, PlantUML 1.2020.16
@enduml

PlantUML version 1.2020.16(Sun Aug 23 21:20:43 WEST 2020)
(APACHE source distribution)
Java Runtime: Java(TM) SE Runtime Environment
JVM: Java HotSpot(TM) 64-Bit Server VM
Default Encoding: UTF-8
Language: en
Country: US
--></g></svg>