<?xml version="1.0" encoding="UTF-8" standalone="no"?><svg xmlns="http://www.w3.org/2000/svg" xmlns:xlink="http://www.w3.org/1999/xlink" contentScriptType="application/ecmascript" contentStyleType="text/css" height="90px" preserveAspectRatio="none" style="width:200px;height:90px;" version="1.1" viewBox="0 0 200 90" width="200px" zoomAndPan="magnify"><defs><filter height="300%" id="f7gdnvwh69yyq" width="300%" x="-1" y="-1"><feGaussianBlur result="blurOut" stdDeviation="2.0"/><feColorMatrix in="blurOut" result="blurOut2" type="matrix" values="0 0 0 0 0 0 0 0 0 0 0 0 0 0 0 0 0 0 .4 0"/><feOffset dx="4.0" dy="4.0" in="blurOut2" result="blurOut3"/><feBlend in="SourceGraphic" in2="blurOut3" mode="normal"/></filter></defs><g><!--MD5=[84718776d214be480e4c259efcb737fc]
class Main--><a href="Main.html" target="_top" title="Main.html" xlink:actuate="onRequest" xlink:href="Main.html" xlink:show="new" xlink:title="Main.html" xlink:type="simple"><rect codeLine="5" fill="#FEFECE" filter="url(#f7gdnvwh69yyq)" height="52.9551" id="Main" style="stroke: #A80036; stroke-width: 1.5;" width="129" x="29.5" y="7"/><ellipse cx="76.25" cy="23" fill="#ADD1B2" rx="11" ry="11" style="stroke: #A80036; stroke-width: 1.0;"/><path d="M78.7231,29.1431 Q78.1421,29.4419 77.5029,29.5913 Q76.8638,29.7407 76.1582,29.7407 Q73.6514,29.7407 72.3315,28.0889 Q71.0117,26.437 71.0117,23.3159 Q71.0117,20.1865 72.3315,18.5347 Q73.6514,16.8828 76.1582,16.8828 Q76.8638,16.8828 77.5112,17.0322 Q78.1587,17.1816 78.7231,17.4805 L78.7231,20.2031 Q78.0923,19.6221 77.4988,19.3523 Q76.9053,19.0825 76.2744,19.0825 Q74.9297,19.0825 74.2449,20.1492 Q73.5601,21.2158 73.5601,23.3159 Q73.5601,25.4077 74.2449,26.4744 Q74.9297,27.541 76.2744,27.541 Q76.9053,27.541 77.4988,27.2712 Q78.0923,27.0015 78.7231,26.4204 Z "/><text fill="#000000" font-family="sans-serif" font-size="12" lengthAdjust="spacingAndGlyphs" textLength="27" x="96.75" y="27.5352">Main</text><line style="stroke: #A80036; stroke-width: 1.5;" x1="30.5" x2="157.5" y1="39" y2="39"/><ellipse cx="40.5" cy="50" fill="#84BE84" rx="3" ry="3" style="stroke: #038048; stroke-width: 1.0;"/><text fill="#000000" font-family="sans-serif" font-size="11" lengthAdjust="spacingAndGlyphs" text-decoration="underline" textLength="103" x="49.5" y="53.6348">main(String[]): void</text></a><text fill="#888888" font-family="sans-serif" font-size="10" lengthAdjust="spacingAndGlyphs" textLength="188" x="0" y="76.623">UMLDoclet 2.0.12, PlantUML 1.2020.16</text><!--MD5=[ecd28c8ddfb81afb67a1be99200fcd42]
@startuml
    set namespaceSeparator none
    hide empty fields
    hide empty methods

    class Main [[Main.html]] {
        {static} +main(String[]): void
    }

    center footer UMLDoclet 2.0.12, PlantUML 1.2020.16
@enduml

PlantUML version 1.2020.16(Sun Aug 23 21:20:43 WEST 2020)
(APACHE source distribution)
Java Runtime: OpenJDK Runtime Environment
JVM: OpenJDK 64-Bit Server VM
Default Encoding: UTF-8
Language: pt
Country: PT
--></g></svg>