<?xml version="1.0" encoding="UTF-8" standalone="no"?><svg xmlns="http://www.w3.org/2000/svg" xmlns:xlink="http://www.w3.org/1999/xlink" contentScriptType="application/ecmascript" contentStyleType="text/css" height="334px" preserveAspectRatio="none" style="width:454px;height:334px;" version="1.1" viewBox="0 0 454 334" width="454px" zoomAndPan="magnify"><defs><filter height="300%" id="fass9n17w5qtx" width="300%" x="-1" y="-1"><feGaussianBlur result="blurOut" stdDeviation="2.0"/><feColorMatrix in="blurOut" result="blurOut2" type="matrix" values="0 0 0 0 0 0 0 0 0 0 0 0 0 0 0 0 0 0 .4 0"/><feOffset dx="4.0" dy="4.0" in="blurOut2" result="blurOut3"/><feBlend in="SourceGraphic" in2="blurOut3" mode="normal"/></filter></defs><g><!--MD5=[77436a392c2bd073a69130669fb11e28]
cluster unnamed--><polygon fill="#FFFFFF" filter="url(#fass9n17w5qtx)" points="16,141.95,88,141.95,95,164.4383,432,164.4383,432,305.73,16,305.73,16,141.95" style="stroke: #000000; stroke-width: 1.5;"/><line style="stroke: #000000; stroke-width: 1.5;" x1="16" x2="95" y1="164.4383" y2="164.4383"/><text fill="#000000" font-family="sans-serif" font-size="14" font-weight="bold" lengthAdjust="spacingAndGlyphs" textLength="66" x="20" y="157.4852">unnamed</text><!--MD5=[aa8f7b917213fcc1c2766e2d59b49067]
cluster java.lang--><polygon fill="#FFFFFF" filter="url(#fass9n17w5qtx)" points="83,6,152,6,159,28.4883,201,28.4883,201,117.95,83,117.95,83,6" style="stroke: #000000; stroke-width: 1.5;"/><line style="stroke: #000000; stroke-width: 1.5;" x1="83" x2="159" y1="28.4883" y2="28.4883"/><text fill="#000000" font-family="sans-serif" font-size="14" font-weight="bold" lengthAdjust="spacingAndGlyphs" textLength="63" x="87" y="21.5352">java.lang</text><!--MD5=[3d9ca61c870fedcdf8737fd2ee2fd8ab]
class unnamed.Bootstrap--><a href="Bootstrap.html" target="_top" title="Bootstrap.html" xlink:actuate="onRequest" xlink:href="Bootstrap.html" xlink:show="new" xlink:title="Bootstrap.html" xlink:type="simple"><rect codeLine="3" fill="#FEFECE" filter="url(#fass9n17w5qtx)" height="112.7754" id="unnamed.Bootstrap" style="stroke: #A80036; stroke-width: 1.5;" width="219" x="32.5" y="176.95"/><ellipse cx="110.25" cy="192.95" fill="#ADD1B2" rx="11" ry="11" style="stroke: #A80036; stroke-width: 1.0;"/><path d="M112.7231,199.0931 Q112.1421,199.3919 111.5029,199.5413 Q110.8638,199.6907 110.1582,199.6907 Q107.6514,199.6907 106.3315,198.0389 Q105.0117,196.387 105.0117,193.2659 Q105.0117,190.1365 106.3315,188.4847 Q107.6514,186.8328 110.1582,186.8328 Q110.8638,186.8328 111.5112,186.9822 Q112.1587,187.1316 112.7231,187.4305 L112.7231,190.1531 Q112.0923,189.5721 111.4988,189.3023 Q110.9053,189.0325 110.2744,189.0325 Q108.9297,189.0325 108.2449,190.0992 Q107.5601,191.1658 107.5601,193.2659 Q107.5601,195.3577 108.2449,196.4244 Q108.9297,197.491 110.2744,197.491 Q110.9053,197.491 111.4988,197.2212 Q112.0923,196.9515 112.7231,196.3704 Z "/><text fill="#000000" font-family="sans-serif" font-size="12" lengthAdjust="spacingAndGlyphs" textLength="55" x="130.75" y="197.4852">Bootstrap</text><line style="stroke: #A80036; stroke-width: 1.5;" x1="33.5" x2="250.5" y1="208.95" y2="208.95"/><rect fill="none" height="6" style="stroke: #C82930; stroke-width: 1.0;" width="6" x="40.5" y="216.95"/><text fill="#000000" font-family="sans-serif" font-size="11" lengthAdjust="spacingAndGlyphs" text-decoration="underline" textLength="166" x="52.5" y="223.5848">PROD_MANAGER_EMAIL: String</text><rect fill="none" height="6" style="stroke: #C82930; stroke-width: 1.0;" width="6" x="40.5" y="229.9051"/><text fill="#000000" font-family="sans-serif" font-size="11" lengthAdjust="spacingAndGlyphs" text-decoration="underline" textLength="193" x="52.5" y="236.5398">PROD_MANAGER_PASSWORD: String</text><line style="stroke: #A80036; stroke-width: 1.5;" x1="33.5" x2="250.5" y1="242.8602" y2="242.8602"/><ellipse cx="43.5" cy="253.8602" fill="#84BE84" rx="3" ry="3" style="stroke: #038048; stroke-width: 1.0;"/><text fill="#000000" font-family="sans-serif" font-size="11" lengthAdjust="spacingAndGlyphs" textLength="56" x="52.5" y="257.4949">run(): void</text><polygon fill="#FFFF44" points="43.5,261.8152,47.5,265.8152,43.5,269.8152,39.5,265.8152" style="stroke: #B38D22; stroke-width: 1.0;"/><text fill="#000000" font-family="sans-serif" font-size="11" lengthAdjust="spacingAndGlyphs" text-decoration="underline" textLength="150" x="52.5" y="270.45">inputAppInformation(): void</text><rect fill="#F24D5C" height="6" style="stroke: #C82930; stroke-width: 1.0;" width="6" x="40.5" y="276.7703"/><text fill="#000000" font-family="sans-serif" font-size="11" lengthAdjust="spacingAndGlyphs" textLength="88" x="52.5" y="283.4051">addUsers(): void</text></a><!--MD5=[4c6be2572c56b9d8d12cf921ccb4858b]
class unnamed.Main--><a href="Main.html" target="_top" title="Main.html" xlink:actuate="onRequest" xlink:href="Main.html" xlink:show="new" xlink:title="Main.html" xlink:type="simple"><rect codeLine="11" fill="#FEFECE" filter="url(#fass9n17w5qtx)" height="60.9551" id="unnamed.Main" style="stroke: #A80036; stroke-width: 1.5;" width="129" x="286.5" y="202.86"/><ellipse cx="333.25" cy="218.86" fill="#ADD1B2" rx="11" ry="11" style="stroke: #A80036; stroke-width: 1.0;"/><path d="M335.7231,225.0031 Q335.1421,225.3019 334.5029,225.4513 Q333.8638,225.6007 333.1582,225.6007 Q330.6514,225.6007 329.3315,223.9489 Q328.0117,222.297 328.0117,219.1759 Q328.0117,216.0465 329.3315,214.3947 Q330.6514,212.7428 333.1582,212.7428 Q333.8638,212.7428 334.5112,212.8922 Q335.1587,213.0416 335.7231,213.3405 L335.7231,216.0631 Q335.0923,215.4821 334.4988,215.2123 Q333.9053,214.9425 333.2744,214.9425 Q331.9297,214.9425 331.2449,216.0092 Q330.5601,217.0758 330.5601,219.1759 Q330.5601,221.2677 331.2449,222.3344 Q331.9297,223.401 333.2744,223.401 Q333.9053,223.401 334.4988,223.1312 Q335.0923,222.8615 335.7231,222.2804 Z "/><text fill="#000000" font-family="sans-serif" font-size="12" lengthAdjust="spacingAndGlyphs" textLength="27" x="353.75" y="223.3952">Main</text><line style="stroke: #A80036; stroke-width: 1.5;" x1="287.5" x2="414.5" y1="234.86" y2="234.86"/><line style="stroke: #A80036; stroke-width: 1.5;" x1="287.5" x2="414.5" y1="242.86" y2="242.86"/><ellipse cx="297.5" cy="253.86" fill="#84BE84" rx="3" ry="3" style="stroke: #038048; stroke-width: 1.0;"/><text fill="#000000" font-family="sans-serif" font-size="11" lengthAdjust="spacingAndGlyphs" text-decoration="underline" textLength="103" x="306.5" y="257.4948">main(String[]): void</text></a><!--MD5=[8dac795f9edbf65a524ac462449c98fb]
class java.lang.Runnable--><rect codeLine="19" fill="#FEFECE" filter="url(#fass9n17w5qtx)" height="60.9551" id="java.lang.Runnable" style="stroke: #A80036; stroke-width: 1.5;" width="86" x="99" y="41"/><ellipse cx="114" cy="57" fill="#B4A7E5" rx="11" ry="11" style="stroke: #A80036; stroke-width: 1.0;"/><path d="M110.4277,53.2651 L110.4277,51.1069 L117.8071,51.1069 L117.8071,53.2651 L115.3418,53.2651 L115.3418,61.3418 L117.8071,61.3418 L117.8071,63.5 L110.4277,63.5 L110.4277,61.3418 L112.8931,61.3418 L112.8931,53.2651 Z "/><text fill="#000000" font-family="sans-serif" font-size="12" font-style="italic" lengthAdjust="spacingAndGlyphs" textLength="54" x="128" y="61.5352">Runnable</text><line style="stroke: #A80036; stroke-width: 1.5;" x1="100" x2="184" y1="73" y2="73"/><line style="stroke: #A80036; stroke-width: 1.5;" x1="100" x2="184" y1="81" y2="81"/><ellipse cx="110" cy="92" fill="#84BE84" rx="3" ry="3" style="stroke: #038048; stroke-width: 1.0;"/><text fill="#000000" font-family="sans-serif" font-size="11" font-style="italic" lengthAdjust="spacingAndGlyphs" textLength="56" x="119" y="95.6348">run(): void</text><!--MD5=[84b406f272363e4f9e562751d1cbb842]
reverse link java.lang.Runnable to unnamed.Bootstrap--><path codeLine="15" d="M142,123.63 C142,140.52 142,159.39 142,176.6 " fill="none" id="java.lang.Runnable-backto-unnamed.Bootstrap" style="stroke: #A80036; stroke-width: 1.0; stroke-dasharray: 7.0,7.0;"/><polygon fill="none" points="135,123.69,142,103.69,149,123.69,135,123.69" style="stroke: #A80036; stroke-width: 1.0;"/><text fill="#888888" font-family="sans-serif" font-size="10" lengthAdjust="spacingAndGlyphs" textLength="188" x="124" y="321.398">UMLDoclet 2.0.12, PlantUML 1.2020.16</text><!--MD5=[140802d43403d14bcbfbb4bf8b712ddb]
@startuml
    namespace unnamed {

        class Bootstrap [[Bootstrap.html]] {
            {static} -PROD_MANAGER_EMAIL: String
            {static} -PROD_MANAGER_PASSWORD: String
            +run(): void
            {static} #inputAppInformation(): void
            -addUsers(): void
        }

        class Main [[Main.html]] {
            {static} +main(String[]): void
        }

        java.lang.Runnable <|.. Bootstrap
    }

    namespace java.lang {
        interface Runnable {
            {abstract} +run(): void
        }
    }

    center footer UMLDoclet 2.0.12, PlantUML 1.2020.16
@enduml

PlantUML version 1.2020.16(Sun Aug 23 21:20:43 WEST 2020)
(APACHE source distribution)
Java Runtime: OpenJDK Runtime Environment
JVM: OpenJDK 64-Bit Server VM
Default Encoding: UTF-8
Language: pt
Country: PT
--></g></svg>