<?xml version="1.0" encoding="UTF-8" standalone="no"?><svg xmlns="http://www.w3.org/2000/svg" xmlns:xlink="http://www.w3.org/1999/xlink" contentScriptType="application/ecmascript" contentStyleType="text/css" height="339px" preserveAspectRatio="none" style="width:451px;height:339px;" version="1.1" viewBox="0 0 451 339" width="451px" zoomAndPan="magnify"><defs><filter height="300%" id="f13s2krry78ldr" width="300%" x="-1" y="-1"><feGaussianBlur result="blurOut" stdDeviation="2.0"/><feColorMatrix in="blurOut" result="blurOut2" type="matrix" values="0 0 0 0 0 0 0 0 0 0 0 0 0 0 0 0 0 0 .4 0"/><feOffset dx="4.0" dy="4.0" in="blurOut2" result="blurOut3"/><feBlend in="SourceGraphic" in2="blurOut3" mode="normal"/></filter></defs><g><!--MD5=[77436a392c2bd073a69130669fb11e28]
cluster unnamed--><polygon fill="#FFFFFF" filter="url(#f13s2krry78ldr)" points="16,147.602,88,147.602,95,172.6699,429,172.6699,429,309.602,16,309.602,16,147.602" style="stroke: #000000; stroke-width: 1.5;"/><line style="stroke: #000000; stroke-width: 1.5;" x1="16" x2="95" y1="172.6699" y2="172.6699"/><text fill="#000000" font-family="sans-serif" font-size="14" font-weight="bold" lengthAdjust="spacingAndGlyphs" textLength="66" x="20" y="164.5679">unnamed</text><!--MD5=[aa8f7b917213fcc1c2766e2d59b49067]
cluster java.lang--><polygon fill="#FFFFFF" filter="url(#f13s2krry78ldr)" points="83,6.602,151,6.602,158,31.6699,199,31.6699,199,123.602,83,123.602,83,6.602" style="stroke: #000000; stroke-width: 1.5;"/><line style="stroke: #000000; stroke-width: 1.5;" x1="83" x2="158" y1="31.6699" y2="31.6699"/><text fill="#000000" font-family="sans-serif" font-size="14" font-weight="bold" lengthAdjust="spacingAndGlyphs" textLength="62" x="87" y="23.5679">java.lang</text><!--MD5=[4c6be2572c56b9d8d12cf921ccb4858b]
class unnamed.Main--><a href="Main.html" target="_top" title="Main.html" xlink:actuate="onRequest" xlink:href="Main.html" xlink:show="new" xlink:title="Main.html" xlink:type="simple"><rect codeLine="3" fill="#FEFECE" filter="url(#f13s2krry78ldr)" height="62.9819" id="unnamed.Main" style="stroke: #A80036; stroke-width: 1.5;" width="127" x="285.5" y="208.102"/><ellipse cx="330.75" cy="224.102" fill="#ADD1B2" rx="11" ry="11" style="stroke: #A80036; stroke-width: 1.0;"/><path d="M333.7188,229.7426 Q333.1406,230.0395 332.5,230.1801 Q331.8594,230.3364 331.1563,230.3364 Q328.6563,230.3364 327.3281,228.6957 Q326.0156,227.0395 326.0156,223.9145 Q326.0156,220.7895 327.3281,219.1332 Q328.6563,217.477 331.1563,217.477 Q331.8594,217.477 332.5,217.6332 Q333.1563,217.7895 333.7188,218.0864 L333.7188,220.8051 Q333.0938,220.227 332.5,219.9614 Q331.9063,219.6801 331.2813,219.6801 Q329.9375,219.6801 329.25,220.7582 Q328.5625,221.8207 328.5625,223.9145 Q328.5625,226.0082 329.25,227.0864 Q329.9375,228.1489 331.2813,228.1489 Q331.9063,228.1489 332.5,227.8832 Q333.0938,227.602 333.7188,227.0239 L333.7188,229.7426 Z "/><text fill="#000000" font-family="sans-serif" font-size="12" lengthAdjust="spacingAndGlyphs" textLength="28" x="351.25" y="228.758">Main</text><line style="stroke: #A80036; stroke-width: 1.5;" x1="286.5" x2="411.5" y1="240.102" y2="240.102"/><line style="stroke: #A80036; stroke-width: 1.5;" x1="286.5" x2="411.5" y1="248.102" y2="248.102"/><ellipse cx="296.5" cy="259.102" fill="#84BE84" rx="3" ry="3" style="stroke: #038048; stroke-width: 1.0;"/><text fill="#000000" font-family="sans-serif" font-size="11" lengthAdjust="spacingAndGlyphs" text-decoration="underline" textLength="101" x="305.5" y="263.8609">main(String[]): void</text></a><!--MD5=[3d9ca61c870fedcdf8737fd2ee2fd8ab]
class unnamed.Bootstrap--><a href="Bootstrap.html" target="_top" title="Bootstrap.html" xlink:actuate="onRequest" xlink:href="Bootstrap.html" xlink:show="new" xlink:title="Bootstrap.html" xlink:type="simple"><rect codeLine="7" fill="#FEFECE" filter="url(#f13s2krry78ldr)" height="107.9276" id="unnamed.Bootstrap" style="stroke: #A80036; stroke-width: 1.5;" width="218" x="32" y="185.602"/><ellipse cx="109.25" cy="201.602" fill="#ADD1B2" rx="11" ry="11" style="stroke: #A80036; stroke-width: 1.0;"/><path d="M112.2188,207.2426 Q111.6406,207.5395 111,207.6801 Q110.3594,207.8364 109.6563,207.8364 Q107.1563,207.8364 105.8281,206.1957 Q104.5156,204.5395 104.5156,201.4145 Q104.5156,198.2895 105.8281,196.6332 Q107.1563,194.977 109.6563,194.977 Q110.3594,194.977 111,195.1332 Q111.6563,195.2895 112.2188,195.5864 L112.2188,198.3051 Q111.5938,197.727 111,197.4614 Q110.4063,197.1801 109.7813,197.1801 Q108.4375,197.1801 107.75,198.2582 Q107.0625,199.3207 107.0625,201.4145 Q107.0625,203.5082 107.75,204.5864 Q108.4375,205.6489 109.7813,205.6489 Q110.4063,205.6489 111,205.3832 Q111.5938,205.102 112.2188,204.5239 L112.2188,207.2426 Z "/><text fill="#000000" font-family="sans-serif" font-size="12" lengthAdjust="spacingAndGlyphs" textLength="55" x="129.75" y="206.258">Bootstrap</text><line style="stroke: #A80036; stroke-width: 1.5;" x1="33" x2="249" y1="217.602" y2="217.602"/><rect fill="none" height="6" style="stroke: #C82930; stroke-width: 1.0;" width="6" x="40" y="225.602"/><text fill="#000000" font-family="sans-serif" font-size="11" lengthAdjust="spacingAndGlyphs" text-decoration="underline" textLength="165" x="52" y="233.3609">PROD_MANAGER_EMAIL: String</text><rect fill="none" height="6" style="stroke: #C82930; stroke-width: 1.0;" width="6" x="40" y="240.5839"/><text fill="#000000" font-family="sans-serif" font-size="11" lengthAdjust="spacingAndGlyphs" text-decoration="underline" textLength="192" x="52" y="248.3428">PROD_MANAGER_PASSWORD: String</text><line style="stroke: #A80036; stroke-width: 1.5;" x1="33" x2="249" y1="255.5658" y2="255.5658"/><ellipse cx="43" cy="266.5658" fill="#84BE84" rx="3" ry="3" style="stroke: #038048; stroke-width: 1.0;"/><text fill="#000000" font-family="sans-serif" font-size="11" lengthAdjust="spacingAndGlyphs" textLength="54" x="52" y="271.3247">run(): void</text><rect fill="#F24D5C" height="6" style="stroke: #C82930; stroke-width: 1.0;" width="6" x="40" y="278.5476"/><text fill="#000000" font-family="sans-serif" font-size="11" lengthAdjust="spacingAndGlyphs" textLength="84" x="52" y="286.3066">addUsers(): void</text></a><!--MD5=[8dac795f9edbf65a524ac462449c98fb]
class java.lang.Runnable--><rect codeLine="18" fill="#FEFECE" filter="url(#f13s2krry78ldr)" height="62.9819" id="java.lang.Runnable" style="stroke: #A80036; stroke-width: 1.5;" width="83" x="99.5" y="44.602"/><ellipse cx="114.5" cy="60.602" fill="#B4A7E5" rx="11" ry="11" style="stroke: #A80036; stroke-width: 1.0;"/><path d="M110.4219,56.3676 L110.4219,54.2114 L117.8125,54.2114 L117.8125,56.3676 L115.3438,56.3676 L115.3438,64.4457 L117.8125,64.4457 L117.8125,66.602 L110.4219,66.602 L110.4219,64.4457 L112.8906,64.4457 L112.8906,56.3676 L110.4219,56.3676 Z "/><text fill="#000000" font-family="sans-serif" font-size="12" font-style="italic" lengthAdjust="spacingAndGlyphs" textLength="51" x="128.5" y="65.258">Runnable</text><line style="stroke: #A80036; stroke-width: 1.5;" x1="100.5" x2="181.5" y1="76.602" y2="76.602"/><line style="stroke: #A80036; stroke-width: 1.5;" x1="100.5" x2="181.5" y1="84.602" y2="84.602"/><ellipse cx="110.5" cy="95.602" fill="#84BE84" rx="3" ry="3" style="stroke: #038048; stroke-width: 1.0;"/><text fill="#000000" font-family="sans-serif" font-size="11" font-style="italic" lengthAdjust="spacingAndGlyphs" textLength="48" x="119.5" y="100.3609">run(): void</text><!--MD5=[84b406f272363e4f9e562751d1cbb842]
reverse link java.lang.Runnable to unnamed.Bootstrap--><path codeLine="14" d="M141,127.952 C141,146.242 141,166.902 141,185.382 " fill="none" id="java.lang.Runnable-backto-unnamed.Bootstrap" style="stroke: #A80036; stroke-width: 1.0; stroke-dasharray: 7.0,7.0;"/><polygon fill="none" points="134,127.862,141,107.862,148,127.862,134,127.862" style="stroke: #A80036; stroke-width: 1.0;"/><text fill="#888888" font-family="sans-serif" font-size="10" lengthAdjust="spacingAndGlyphs" textLength="188" x="122.5" y="326.292">UMLDoclet 2.0.12, PlantUML 1.2020.16</text><!--MD5=[db1156f10fcfc0fe762a794e7c9466a1]
@startuml
    namespace unnamed {

        class Main [[Main.html]] {
            {static} +main(String[]): void
        }

        class Bootstrap [[Bootstrap.html]] {
            {static} -PROD_MANAGER_EMAIL: String
            {static} -PROD_MANAGER_PASSWORD: String
            +run(): void
            -addUsers(): void
        }

        java.lang.Runnable <|.. Bootstrap
    }

    namespace java.lang {
        interface Runnable {
            {abstract} +run(): void
        }
    }

    center footer UMLDoclet 2.0.12, PlantUML 1.2020.16
@enduml

PlantUML version 1.2020.16(Sun Aug 23 21:20:43 WEST 2020)
(APACHE source distribution)
Java Runtime: Java(TM) SE Runtime Environment
JVM: Java HotSpot(TM) 64-Bit Server VM
Default Encoding: UTF-8
Language: en
Country: US
--></g></svg>