<?xml version="1.0" encoding="UTF-8" standalone="no"?><svg xmlns="http://www.w3.org/2000/svg" xmlns:xlink="http://www.w3.org/1999/xlink" contentScriptType="application/ecmascript" contentStyleType="text/css" height="354px" preserveAspectRatio="none" style="width:451px;height:354px;" version="1.1" viewBox="0 0 451 354" width="451px" zoomAndPan="magnify"><defs><filter height="300%" id="f1m2bn4jq2rol1" width="300%" x="-1" y="-1"><feGaussianBlur result="blurOut" stdDeviation="2.0"/><feColorMatrix in="blurOut" result="blurOut2" type="matrix" values="0 0 0 0 0 0 0 0 0 0 0 0 0 0 0 0 0 0 .4 0"/><feOffset dx="4.0" dy="4.0" in="blurOut2" result="blurOut3"/><feBlend in="SourceGraphic" in2="blurOut3" mode="normal"/></filter></defs><g><!--MD5=[77436a392c2bd073a69130669fb11e28]
cluster unnamed--><polygon fill="#FFFFFF" filter="url(#f1m2bn4jq2rol1)" points="16,147.602,88,147.602,95,172.6699,429,172.6699,429,324.602,16,324.602,16,147.602" style="stroke: #000000; stroke-width: 1.5;"/><line style="stroke: #000000; stroke-width: 1.5;" x1="16" x2="95" y1="172.6699" y2="172.6699"/><text fill="#000000" font-family="sans-serif" font-size="14" font-weight="bold" lengthAdjust="spacingAndGlyphs" textLength="66" x="20" y="164.5679">unnamed</text><!--MD5=[aa8f7b917213fcc1c2766e2d59b49067]
cluster java.lang--><polygon fill="#FFFFFF" filter="url(#f1m2bn4jq2rol1)" points="83,6.602,151,6.602,158,31.6699,199,31.6699,199,123.602,83,123.602,83,6.602" style="stroke: #000000; stroke-width: 1.5;"/><line style="stroke: #000000; stroke-width: 1.5;" x1="83" x2="158" y1="31.6699" y2="31.6699"/><text fill="#000000" font-family="sans-serif" font-size="14" font-weight="bold" lengthAdjust="spacingAndGlyphs" textLength="62" x="87" y="23.5679">java.lang</text><!--MD5=[4c6be2572c56b9d8d12cf921ccb4858b]
class unnamed.Main--><a href="Main.html" target="_top" title="Main.html" xlink:actuate="onRequest" xlink:href="Main.html" xlink:show="new" xlink:title="Main.html" xlink:type="simple"><rect codeLine="3" fill="#FEFECE" filter="url(#f1m2bn4jq2rol1)" height="62.9819" id="unnamed.Main" style="stroke: #A80036; stroke-width: 1.5;" width="127" x="285.5" y="215.602"/><ellipse cx="330.75" cy="231.602" fill="#ADD1B2" rx="11" ry="11" style="stroke: #A80036; stroke-width: 1.0;"/><path d="M333.7188,237.2426 Q333.1406,237.5395 332.5,237.6801 Q331.8594,237.8364 331.1563,237.8364 Q328.6563,237.8364 327.3281,236.1957 Q326.0156,234.5395 326.0156,231.4145 Q326.0156,228.2895 327.3281,226.6332 Q328.6563,224.977 331.1563,224.977 Q331.8594,224.977 332.5,225.1332 Q333.1563,225.2895 333.7188,225.5864 L333.7188,228.3051 Q333.0938,227.727 332.5,227.4614 Q331.9063,227.1801 331.2813,227.1801 Q329.9375,227.1801 329.25,228.2582 Q328.5625,229.3207 328.5625,231.4145 Q328.5625,233.5082 329.25,234.5864 Q329.9375,235.6489 331.2813,235.6489 Q331.9063,235.6489 332.5,235.3832 Q333.0938,235.102 333.7188,234.5239 L333.7188,237.2426 Z "/><text fill="#000000" font-family="sans-serif" font-size="12" lengthAdjust="spacingAndGlyphs" textLength="28" x="351.25" y="236.258">Main</text><line style="stroke: #A80036; stroke-width: 1.5;" x1="286.5" x2="411.5" y1="247.602" y2="247.602"/><line style="stroke: #A80036; stroke-width: 1.5;" x1="286.5" x2="411.5" y1="255.602" y2="255.602"/><ellipse cx="296.5" cy="266.602" fill="#84BE84" rx="3" ry="3" style="stroke: #038048; stroke-width: 1.0;"/><text fill="#000000" font-family="sans-serif" font-size="11" lengthAdjust="spacingAndGlyphs" text-decoration="underline" textLength="101" x="305.5" y="271.3609">main(String[]): void</text></a><!--MD5=[3d9ca61c870fedcdf8737fd2ee2fd8ab]
class unnamed.Bootstrap--><a href="Bootstrap.html" target="_top" title="Bootstrap.html" xlink:actuate="onRequest" xlink:href="Bootstrap.html" xlink:show="new" xlink:title="Bootstrap.html" xlink:type="simple"><rect codeLine="7" fill="#FEFECE" filter="url(#f1m2bn4jq2rol1)" height="122.9094" id="unnamed.Bootstrap" style="stroke: #A80036; stroke-width: 1.5;" width="218" x="32" y="185.602"/><ellipse cx="109.25" cy="201.602" fill="#ADD1B2" rx="11" ry="11" style="stroke: #A80036; stroke-width: 1.0;"/><path d="M112.2188,207.2426 Q111.6406,207.5395 111,207.6801 Q110.3594,207.8364 109.6563,207.8364 Q107.1563,207.8364 105.8281,206.1957 Q104.5156,204.5395 104.5156,201.4145 Q104.5156,198.2895 105.8281,196.6332 Q107.1563,194.977 109.6563,194.977 Q110.3594,194.977 111,195.1332 Q111.6563,195.2895 112.2188,195.5864 L112.2188,198.3051 Q111.5938,197.727 111,197.4614 Q110.4063,197.1801 109.7813,197.1801 Q108.4375,197.1801 107.75,198.2582 Q107.0625,199.3207 107.0625,201.4145 Q107.0625,203.5082 107.75,204.5864 Q108.4375,205.6489 109.7813,205.6489 Q110.4063,205.6489 111,205.3832 Q111.5938,205.102 112.2188,204.5239 L112.2188,207.2426 Z "/><text fill="#000000" font-family="sans-serif" font-size="12" lengthAdjust="spacingAndGlyphs" textLength="55" x="129.75" y="206.258">Bootstrap</text><line style="stroke: #A80036; stroke-width: 1.5;" x1="33" x2="249" y1="217.602" y2="217.602"/><rect fill="none" height="6" style="stroke: #C82930; stroke-width: 1.0;" width="6" x="40" y="225.602"/><text fill="#000000" font-family="sans-serif" font-size="11" lengthAdjust="spacingAndGlyphs" text-decoration="underline" textLength="165" x="52" y="233.3609">PROD_MANAGER_EMAIL: String</text><rect fill="none" height="6" style="stroke: #C82930; stroke-width: 1.0;" width="6" x="40" y="240.5839"/><text fill="#000000" font-family="sans-serif" font-size="11" lengthAdjust="spacingAndGlyphs" text-decoration="underline" textLength="192" x="52" y="248.3428">PROD_MANAGER_PASSWORD: String</text><line style="stroke: #A80036; stroke-width: 1.5;" x1="33" x2="249" y1="255.5658" y2="255.5658"/><ellipse cx="43" cy="266.5658" fill="#84BE84" rx="3" ry="3" style="stroke: #038048; stroke-width: 1.0;"/><text fill="#000000" font-family="sans-serif" font-size="11" lengthAdjust="spacingAndGlyphs" textLength="54" x="52" y="271.3247">run(): void</text><polygon fill="#FFFF44" points="43,276.5476,47,280.5476,43,284.5476,39,280.5476" style="stroke: #B38D22; stroke-width: 1.0;"/><text fill="#000000" font-family="sans-serif" font-size="11" lengthAdjust="spacingAndGlyphs" text-decoration="underline" textLength="148" x="52" y="286.3066">inputAppInformation(): void</text><rect fill="#F24D5C" height="6" style="stroke: #C82930; stroke-width: 1.0;" width="6" x="40" y="293.5295"/><text fill="#000000" font-family="sans-serif" font-size="11" lengthAdjust="spacingAndGlyphs" textLength="84" x="52" y="301.2884">addUsers(): void</text></a><!--MD5=[8dac795f9edbf65a524ac462449c98fb]
class java.lang.Runnable--><rect codeLine="19" fill="#FEFECE" filter="url(#f1m2bn4jq2rol1)" height="62.9819" id="java.lang.Runnable" style="stroke: #A80036; stroke-width: 1.5;" width="83" x="99.5" y="44.602"/><ellipse cx="114.5" cy="60.602" fill="#B4A7E5" rx="11" ry="11" style="stroke: #A80036; stroke-width: 1.0;"/><path d="M110.4219,56.3676 L110.4219,54.2114 L117.8125,54.2114 L117.8125,56.3676 L115.3438,56.3676 L115.3438,64.4457 L117.8125,64.4457 L117.8125,66.602 L110.4219,66.602 L110.4219,64.4457 L112.8906,64.4457 L112.8906,56.3676 L110.4219,56.3676 Z "/><text fill="#000000" font-family="sans-serif" font-size="12" font-style="italic" lengthAdjust="spacingAndGlyphs" textLength="51" x="128.5" y="65.258">Runnable</text><line style="stroke: #A80036; stroke-width: 1.5;" x1="100.5" x2="181.5" y1="76.602" y2="76.602"/><line style="stroke: #A80036; stroke-width: 1.5;" x1="100.5" x2="181.5" y1="84.602" y2="84.602"/><ellipse cx="110.5" cy="95.602" fill="#84BE84" rx="3" ry="3" style="stroke: #038048; stroke-width: 1.0;"/><text fill="#000000" font-family="sans-serif" font-size="11" font-style="italic" lengthAdjust="spacingAndGlyphs" textLength="48" x="119.5" y="100.3609">run(): void</text><!--MD5=[84b406f272363e4f9e562751d1cbb842]
reverse link java.lang.Runnable to unnamed.Bootstrap--><path codeLine="15" d="M141,127.882 C141,145.942 141,166.452 141,185.272 " fill="none" id="java.lang.Runnable-backto-unnamed.Bootstrap" style="stroke: #A80036; stroke-width: 1.0; stroke-dasharray: 7.0,7.0;"/><polygon fill="none" points="134,127.702,141,107.702,148,127.702,134,127.702" style="stroke: #A80036; stroke-width: 1.0;"/><text fill="#888888" font-family="sans-serif" font-size="10" lengthAdjust="spacingAndGlyphs" textLength="188" x="122.5" y="341.292">UMLDoclet 2.0.12, PlantUML 1.2020.16</text><!--MD5=[ab8fd24cfac6caca6ee7c74b4af64f1d]
@startuml
    namespace unnamed {

        class Main [[Main.html]] {
            {static} +main(String[]): void
        }

        class Bootstrap [[Bootstrap.html]] {
            {static} -PROD_MANAGER_EMAIL: String
            {static} -PROD_MANAGER_PASSWORD: String
            +run(): void
            {static} #inputAppInformation(): void
            -addUsers(): void
        }

        java.lang.Runnable <|.. Bootstrap
    }

    namespace java.lang {
        interface Runnable {
            {abstract} +run(): void
        }
    }

    center footer UMLDoclet 2.0.12, PlantUML 1.2020.16
@enduml

PlantUML version 1.2020.16(Sun Aug 23 21:20:43 WEST 2020)
(APACHE source distribution)
Java Runtime: Java(TM) SE Runtime Environment
JVM: Java HotSpot(TM) 64-Bit Server VM
Default Encoding: UTF-8
Language: en
Country: US
--></g></svg>