<svg xmlns="http://www.w3.org/2000/svg" xmlns:xlink="http://www.w3.org/1999/xlink" contentStyleType="text/css" height="511.8px" preserveAspectRatio="none" style="width:946px;height:511px;background:#FFFFFF;" version="1.1" viewBox="0 0 946 511" width="946.8px" zoomAndPan="magnify"><title>UI Sequence Diagram (SSD) - Register User Flow (US211)</title><defs/><g><text fill="#000000" font-family="sans-serif" font-size="8.4" font-weight="bold" lengthAdjust="spacing" textLength="228.7277" x="356.7252" y="18.0645">UI Sequence Diagram (SSD) - Register User Flow (US211)</text><rect fill="#FFFFFF" height="335.7469" style="stroke:#181818;stroke-width:0.6;" width="6" x="191.4243" y="121.0945"/><rect fill="#FFFFFF" height="316.3723" style="stroke:#181818;stroke-width:0.6;" width="6" x="393.3056" y="139.8691"/><rect fill="#FFFFFF" height="18.7746" style="stroke:#181818;stroke-width:0.6;" width="6" x="488.4674" y="158.6437"/><rect fill="#FFFFFF" height="53.3238" style="stroke:#181818;stroke-width:0.6;" width="6" x="569.8582" y="196.193"/><rect fill="#FFFFFF" height="18.7746" style="stroke:#181818;stroke-width:0.6;" width="6" x="569.8582" y="409.6922"/><rect fill="#FFFFFF" height="18.7746" style="stroke:#181818;stroke-width:0.6;" width="6" x="759.0088" y="297.0445"/><rect fill="#FFFFFF" height="18.7746" style="stroke:#181818;stroke-width:0.6;" width="6" x="913.5437" y="372.143"/><rect fill="none" height="246.8484" style="stroke:#000000;stroke-width:0.8999999999999999;" width="782.4275" x="154.3506" y="205.193"/><line style="stroke:#181818;stroke-width:0.3;stroke-dasharray:5.0,5.0;" x1="26.4" x2="26.4" y1="73.9453" y2="462.2414"/><line style="stroke:#181818;stroke-width:0.3;stroke-dasharray:5.0,5.0;" x1="193.9506" x2="193.9506" y1="73.9453" y2="462.2414"/><line style="stroke:#181818;stroke-width:0.3;stroke-dasharray:5.0,5.0;" x1="396.225" x2="396.225" y1="73.9453" y2="462.2414"/><line style="stroke:#181818;stroke-width:0.3;stroke-dasharray:5.0,5.0;" x1="491.1861" x2="491.1861" y1="73.9453" y2="462.2414"/><line style="stroke:#181818;stroke-width:0.3;stroke-dasharray:5.0,5.0;" x1="572.7486" x2="572.7486" y1="73.9453" y2="462.2414"/><line style="stroke:#181818;stroke-width:0.3;stroke-dasharray:5.0,5.0;" x1="662.9678" x2="662.9678" y1="73.9453" y2="462.2414"/><line style="stroke:#181818;stroke-width:0.3;stroke-dasharray:5.0,5.0;" x1="761.6613" x2="761.6613" y1="73.9453" y2="462.2414"/><line style="stroke:#181818;stroke-width:0.3;stroke-dasharray:5.0,5.0;" x1="826.5563" x2="826.5563" y1="73.9453" y2="462.2414"/><line style="stroke:#181818;stroke-width:0.3;stroke-dasharray:5.0,5.0;" x1="872.0941" x2="872.0941" y1="73.9453" y2="462.2414"/><line style="stroke:#181818;stroke-width:0.3;stroke-dasharray:5.0,5.0;" x1="916.1092" x2="916.1092" y1="73.9453" y2="462.2414"/><text fill="#000000" font-family="sans-serif" font-size="8.4" lengthAdjust="spacing" textLength="43.8785" x="3" y="71.8371">Admin User</text><ellipse cx="26.7393" cy="31.8727" fill="#E3E3E3" rx="4.8" ry="4.8" style="stroke:#181818;stroke-width:0.3;"/><path d="M26.7393,36.6727 L26.7393,52.8727 M18.9393,41.4727 L34.5393,41.4727 M26.7393,52.8727 L18.9393,61.8727 M26.7393,52.8727 L34.5393,61.8727 " fill="none" style="stroke:#181818;stroke-width:0.3;"/><text fill="#000000" font-family="sans-serif" font-size="8.4" lengthAdjust="spacing" textLength="43.8785" x="3" y="470.7059">Admin User</text><ellipse cx="26.7393" cy="477.9141" fill="#E3E3E3" rx="4.8" ry="4.8" style="stroke:#181818;stroke-width:0.3;"/><path d="M26.7393,482.7141 L26.7393,498.9141 M18.9393,487.5141 L34.5393,487.5141 M26.7393,498.9141 L18.9393,507.9141 M26.7393,498.9141 L34.5393,507.9141 " fill="none" style="stroke:#181818;stroke-width:0.3;"/><rect fill="#E3E3E3" height="19.5727" rx="1.5" ry="1.5" style="stroke:#181818;stroke-width:0.3;" width="68.1475" x="160.3506" y="53.7727"/><text fill="#000000" font-family="sans-serif" font-size="8.4" lengthAdjust="spacing" textLength="59.7475" x="164.5506" y="67.0371">:RegisterUserUI</text><rect fill="#E3E3E3" height="19.5727" rx="1.5" ry="1.5" style="stroke:#181818;stroke-width:0.3;" width="68.1475" x="160.3506" y="461.6414"/><text fill="#000000" font-family="sans-serif" font-size="8.4" lengthAdjust="spacing" textLength="59.7475" x="164.5506" y="474.9059">:RegisterUserUI</text><rect fill="#E3E3E3" height="19.5727" rx="1.5" ry="1.5" style="stroke:#181818;stroke-width:0.3;" width="96.1611" x="348.225" y="53.7727"/><text fill="#000000" font-family="sans-serif" font-size="8.4" lengthAdjust="spacing" textLength="87.7611" x="352.425" y="67.0371">:RegisterUserController</text><rect fill="#E3E3E3" height="19.5727" rx="1.5" ry="1.5" style="stroke:#181818;stroke-width:0.3;" width="96.1611" x="348.225" y="461.6414"/><text fill="#000000" font-family="sans-serif" font-size="8.4" lengthAdjust="spacing" textLength="87.7611" x="352.425" y="474.9059">:RegisterUserController</text><rect fill="#E3E3E3" height="19.5727" rx="1.5" ry="1.5" style="stroke:#181818;stroke-width:0.3;" width="82.1625" x="450.3861" y="53.7727"/><text fill="#000000" font-family="sans-serif" font-size="8.4" lengthAdjust="spacing" textLength="73.7625" x="454.5861" y="67.0371">:RepositoryProvider</text><rect fill="#E3E3E3" height="19.5727" rx="1.5" ry="1.5" style="stroke:#181818;stroke-width:0.3;" width="82.1625" x="450.3861" y="461.6414"/><text fill="#000000" font-family="sans-serif" font-size="8.4" lengthAdjust="spacing" textLength="73.7625" x="454.5861" y="474.9059">:RepositoryProvider</text><rect fill="#E3E3E3" height="19.5727" rx="1.5" ry="1.5" style="stroke:#181818;stroke-width:0.3;" width="68.6191" x="538.5486" y="53.7727"/><text fill="#000000" font-family="sans-serif" font-size="8.4" lengthAdjust="spacing" textLength="60.2191" x="542.7486" y="67.0371">:UserRepository</text><rect fill="#E3E3E3" height="19.5727" rx="1.5" ry="1.5" style="stroke:#181818;stroke-width:0.3;" width="68.6191" x="538.5486" y="461.6414"/><text fill="#000000" font-family="sans-serif" font-size="8.4" lengthAdjust="spacing" textLength="60.2191" x="542.7486" y="474.9059">:UserRepository</text><rect fill="#E3E3E3" height="19.5727" rx="1.5" ry="1.5" style="stroke:#181818;stroke-width:0.3;" width="99.8936" x="613.1678" y="53.7727"/><text fill="#000000" font-family="sans-serif" font-size="8.4" lengthAdjust="spacing" textLength="91.4936" x="617.3678" y="67.0371">:UserRepositoryJPAImpl</text><rect fill="#E3E3E3" height="19.5727" rx="1.5" ry="1.5" style="stroke:#181818;stroke-width:0.3;" width="99.8936" x="613.1678" y="461.6414"/><text fill="#000000" font-family="sans-serif" font-size="8.4" lengthAdjust="spacing" textLength="91.4936" x="617.3678" y="474.9059">:UserRepositoryJPAImpl</text><rect fill="#E3E3E3" height="19.5727" rx="1.5" ry="1.5" style="stroke:#181818;stroke-width:0.3;" width="85.8949" x="719.0613" y="53.7727"/><text fill="#000000" font-family="sans-serif" font-size="8.4" lengthAdjust="spacing" textLength="77.4949" x="723.2613" y="67.0371">:UserRoleRepository</text><rect fill="#E3E3E3" height="19.5727" rx="1.5" ry="1.5" style="stroke:#181818;stroke-width:0.3;" width="85.8949" x="719.0613" y="461.6414"/><text fill="#000000" font-family="sans-serif" font-size="8.4" lengthAdjust="spacing" textLength="77.4949" x="723.2613" y="474.9059">:UserRoleRepository</text><rect fill="#E3E3E3" height="19.5727" rx="1.5" ry="1.5" style="stroke:#181818;stroke-width:0.3;" width="31.7379" x="810.9563" y="53.7727"/><text fill="#000000" font-family="sans-serif" font-size="8.4" lengthAdjust="spacing" textLength="23.3379" x="815.1563" y="67.0371">:Email</text><rect fill="#E3E3E3" height="19.5727" rx="1.5" ry="1.5" style="stroke:#181818;stroke-width:0.3;" width="31.7379" x="810.9563" y="461.6414"/><text fill="#000000" font-family="sans-serif" font-size="8.4" lengthAdjust="spacing" textLength="23.3379" x="815.1563" y="474.9059">:Email</text><rect fill="#E3E3E3" height="19.5727" rx="1.5" ry="1.5" style="stroke:#181818;stroke-width:0.3;" width="47.615" x="848.6941" y="53.7727"/><text fill="#000000" font-family="sans-serif" font-size="8.4" lengthAdjust="spacing" textLength="39.215" x="852.8941" y="67.0371">:Password</text><rect fill="#E3E3E3" height="19.5727" rx="1.5" ry="1.5" style="stroke:#181818;stroke-width:0.3;" width="47.615" x="848.6941" y="461.6414"/><text fill="#000000" font-family="sans-serif" font-size="8.4" lengthAdjust="spacing" textLength="39.215" x="852.8941" y="474.9059">:Password</text><rect fill="#E3E3E3" height="19.5727" rx="1.5" ry="1.5" style="stroke:#181818;stroke-width:0.3;" width="28.4689" x="902.3092" y="53.7727"/><text fill="#000000" font-family="sans-serif" font-size="8.4" lengthAdjust="spacing" textLength="20.0689" x="906.5092" y="67.0371">:User</text><rect fill="#E3E3E3" height="19.5727" rx="1.5" ry="1.5" style="stroke:#181818;stroke-width:0.3;" width="28.4689" x="902.3092" y="461.6414"/><text fill="#000000" font-family="sans-serif" font-size="8.4" lengthAdjust="spacing" textLength="20.0689" x="906.5092" y="474.9059">:User</text><rect fill="#FFFFFF" height="335.7469" style="stroke:#181818;stroke-width:0.6;" width="6" x="191.4243" y="121.0945"/><rect fill="#FFFFFF" height="316.3723" style="stroke:#181818;stroke-width:0.6;" width="6" x="393.3056" y="139.8691"/><rect fill="#FFFFFF" height="18.7746" style="stroke:#181818;stroke-width:0.6;" width="6" x="488.4674" y="158.6437"/><rect fill="#FFFFFF" height="53.3238" style="stroke:#181818;stroke-width:0.6;" width="6" x="569.8582" y="196.193"/><rect fill="#FFFFFF" height="18.7746" style="stroke:#181818;stroke-width:0.6;" width="6" x="569.8582" y="409.6922"/><rect fill="#FFFFFF" height="18.7746" style="stroke:#181818;stroke-width:0.6;" width="6" x="759.0088" y="297.0445"/><rect fill="#FFFFFF" height="18.7746" style="stroke:#181818;stroke-width:0.6;" width="6" x="913.5437" y="372.143"/><rect fill="#EEEEEE" height="1.8" style="stroke:#EEEEEE;stroke-width:0.6;" width="942.7781" x="0" y="92.9326"/><line style="stroke:#000000;stroke-width:0.6;" x1="0" x2="942.7781" y1="92.9326" y2="92.9326"/><line style="stroke:#000000;stroke-width:0.6;" x1="0" x2="942.7781" y1="94.7326" y2="94.7326"/><rect fill="#EEEEEE" height="15.1746" style="stroke:#000000;stroke-width:1.2;" width="36.5646" x="453.1068" y="85.9453"/><text fill="#000000" font-family="sans-serif" font-size="7.8" font-weight="bold" lengthAdjust="spacing" textLength="25.9975" x="456.7068" y="96.7623">START</text><polygon fill="#181818" points="184.2243,118.6945,190.2243,121.0945,184.2243,123.4945,186.6243,121.0945" style="stroke:#181818;stroke-width:0.6;"/><line style="stroke:#181818;stroke-width:0.6;" x1="26.7393" x2="187.8243" y1="121.0945" y2="121.0945"/><text fill="#000000" font-family="sans-serif" font-size="7.8" font-weight="bold" lengthAdjust="spacing" textLength="4.338" x="30.9393" y="117.9369">1</text><text fill="#000000" font-family="sans-serif" font-size="7.8" lengthAdjust="spacing" textLength="146.5471" x="37.6772" y="117.9369">inputs name, email, phone, password, role</text><polygon fill="#181818" points="386.1056,137.4691,392.1056,139.8691,386.1056,142.2691,388.5056,139.8691" style="stroke:#181818;stroke-width:0.6;"/><line style="stroke:#181818;stroke-width:0.6;" x1="197.4243" x2="389.7056" y1="139.8691" y2="139.8691"/><text fill="#000000" font-family="sans-serif" font-size="7.8" font-weight="bold" lengthAdjust="spacing" textLength="4.338" x="201.6243" y="136.7115">2</text><text fill="#000000" font-family="sans-serif" font-size="7.8" lengthAdjust="spacing" textLength="177.7433" x="208.3623" y="136.7115">registerUser(name, email, phone, password, roleId)</text><polygon fill="#181818" points="481.2674,156.2438,487.2674,158.6437,481.2674,161.0438,483.6674,158.6437" style="stroke:#181818;stroke-width:0.6;"/><line style="stroke:#181818;stroke-width:0.6;" x1="399.3056" x2="484.8674" y1="158.6437" y2="158.6437"/><text fill="#000000" font-family="sans-serif" font-size="7.8" font-weight="bold" lengthAdjust="spacing" textLength="4.338" x="403.5056" y="155.4861">3</text><text fill="#000000" font-family="sans-serif" font-size="7.8" lengthAdjust="spacing" textLength="57.6507" x="410.2436" y="155.4861">userRepository()</text><polygon fill="#181818" points="405.9056,175.0184,399.9056,177.4184,405.9056,179.8184,403.5056,177.4184" style="stroke:#181818;stroke-width:0.6;"/><line style="stroke:#181818;stroke-width:0.6;stroke-dasharray:2.0,2.0;" x1="402.3056" x2="490.8674" y1="177.4184" y2="177.4184"/><text fill="#000000" font-family="sans-serif" font-size="7.8" font-weight="bold" lengthAdjust="spacing" textLength="4.338" x="409.5056" y="174.2607">4</text><text fill="#000000" font-family="sans-serif" font-size="7.8" lengthAdjust="spacing" textLength="64.171" x="416.2436" y="174.2607">userRepoInterface</text><polygon fill="#181818" points="562.6582,193.793,568.6582,196.193,562.6582,198.593,565.0582,196.193" style="stroke:#181818;stroke-width:0.6;"/><line style="stroke:#181818;stroke-width:0.6;" x1="399.3056" x2="566.2582" y1="196.193" y2="196.193"/><text fill="#000000" font-family="sans-serif" font-size="7.8" font-weight="bold" lengthAdjust="spacing" textLength="4.338" x="403.5056" y="193.0354">5</text><text fill="#000000" font-family="sans-serif" font-size="7.8" lengthAdjust="spacing" textLength="72.3785" x="410.2436" y="193.0354">existsByEmail(email)</text><path d="M154.3506,205.193 L190.4531,205.193 L190.4531,210.7676 L184.4531,216.7676 L154.3506,216.7676 L154.3506,205.193 " fill="#EEEEEE" style="stroke:#000000;stroke-width:0.8999999999999999;"/><rect fill="none" height="246.8484" style="stroke:#000000;stroke-width:0.8999999999999999;" width="782.4275" x="154.3506" y="205.193"/><text fill="#000000" font-family="sans-serif" font-size="7.8" font-weight="bold" lengthAdjust="spacing" textLength="9.1025" x="163.3506" y="214.21">alt</text><text fill="#000000" font-family="sans-serif" font-size="6.6" font-weight="bold" lengthAdjust="spacing" textLength="66.7702" x="199.4531" y="213.515">[email already exists]</text><polygon fill="#181818" points="405.9056,228.3422,399.9056,230.7422,405.9056,233.1422,403.5056,230.7422" style="stroke:#181818;stroke-width:0.6;"/><line style="stroke:#181818;stroke-width:0.6;stroke-dasharray:2.0,2.0;" x1="402.3056" x2="569.2582" y1="230.7422" y2="230.7422"/><text fill="#000000" font-family="sans-serif" font-size="7.8" font-weight="bold" lengthAdjust="spacing" textLength="4.338" x="409.5056" y="227.5846">6</text><text fill="#000000" font-family="sans-serif" font-size="7.8" lengthAdjust="spacing" textLength="13.4405" x="416.2436" y="227.5846">true</text><polygon fill="#181818" points="204.0243,247.1168,198.0243,249.5168,204.0243,251.9168,201.6243,249.5168" style="stroke:#181818;stroke-width:0.6;"/><line style="stroke:#181818;stroke-width:0.6;stroke-dasharray:2.0,2.0;" x1="200.4243" x2="392.7056" y1="249.5168" y2="249.5168"/><text fill="#000000" font-family="sans-serif" font-size="7.8" font-weight="bold" lengthAdjust="spacing" textLength="4.338" x="207.6243" y="246.3592">7</text><text fill="#000000" font-family="sans-serif" font-size="7.8" lengthAdjust="spacing" textLength="114.7834" x="214.3623" y="246.3592">show error "Email already in use"</text><line style="stroke:#000000;stroke-width:0.6;stroke-dasharray:2.0,2.0;" x1="154.3506" x2="936.7781" y1="254.9168" y2="254.9168"/><text fill="#000000" font-family="sans-serif" font-size="6.6" font-weight="bold" lengthAdjust="spacing" textLength="54.2728" x="157.3506" y="262.0389">[email not in use]</text><polygon fill="#181818" points="405.9056,275.8699,399.9056,278.2699,405.9056,280.6699,403.5056,278.2699" style="stroke:#181818;stroke-width:0.6;"/><line style="stroke:#181818;stroke-width:0.6;stroke-dasharray:2.0,2.0;" x1="402.3056" x2="572.2582" y1="278.2699" y2="278.2699"/><text fill="#000000" font-family="sans-serif" font-size="7.8" font-weight="bold" lengthAdjust="spacing" textLength="4.338" x="409.5056" y="275.1123">8</text><text fill="#000000" font-family="sans-serif" font-size="7.8" lengthAdjust="spacing" textLength="16.476" x="416.2436" y="275.1123">false</text><polygon fill="#181818" points="751.8088,294.6445,757.8088,297.0445,751.8088,299.4445,754.2088,297.0445" style="stroke:#181818;stroke-width:0.6;"/><line style="stroke:#181818;stroke-width:0.6;" x1="399.3056" x2="755.4088" y1="297.0445" y2="297.0445"/><text fill="#000000" font-family="sans-serif" font-size="7.8" font-weight="bold" lengthAdjust="spacing" textLength="4.338" x="403.5056" y="293.8869">9</text><text fill="#000000" font-family="sans-serif" font-size="7.8" lengthAdjust="spacing" textLength="52.8899" x="410.2436" y="293.8869">findById(roleId)</text><polygon fill="#181818" points="405.9056,313.4191,399.9056,315.8191,405.9056,318.2191,403.5056,315.8191" style="stroke:#181818;stroke-width:0.6;"/><line style="stroke:#181818;stroke-width:0.6;stroke-dasharray:2.0,2.0;" x1="402.3056" x2="761.4088" y1="315.8191" y2="315.8191"/><text fill="#000000" font-family="sans-serif" font-size="7.8" font-weight="bold" lengthAdjust="spacing" textLength="8.676" x="409.5056" y="312.6615">10</text><text fill="#000000" font-family="sans-serif" font-size="7.8" lengthAdjust="spacing" textLength="32.5102" x="420.5815" y="312.6615">UserRole</text><polygon fill="#181818" points="819.6252,332.1937,825.6252,334.5938,819.6252,336.9938,822.0252,334.5938" style="stroke:#181818;stroke-width:0.6;"/><line style="stroke:#181818;stroke-width:0.6;" x1="399.3056" x2="823.2252" y1="334.5938" y2="334.5938"/><text fill="#000000" font-family="sans-serif" font-size="7.8" font-weight="bold" lengthAdjust="spacing" textLength="8.676" x="403.5056" y="331.4361">11</text><text fill="#000000" font-family="sans-serif" font-size="7.8" lengthAdjust="spacing" textLength="59.814" x="414.5815" y="331.4361">new Email(email)</text><polygon fill="#181818" points="865.3017,350.9684,871.3017,353.3684,865.3017,355.7684,867.7017,353.3684" style="stroke:#181818;stroke-width:0.6;"/><line style="stroke:#181818;stroke-width:0.6;" x1="399.3056" x2="868.9017" y1="353.3684" y2="353.3684"/><text fill="#000000" font-family="sans-serif" font-size="7.8" font-weight="bold" lengthAdjust="spacing" textLength="8.676" x="403.5056" y="350.2107">12</text><text fill="#000000" font-family="sans-serif" font-size="7.8" lengthAdjust="spacing" textLength="159.1078" x="414.5815" y="350.2107">new Password(password)  // hashed internally</text><polygon fill="#181818" points="906.3437,369.743,912.3437,372.143,906.3437,374.543,908.7437,372.143" style="stroke:#181818;stroke-width:0.6;"/><line style="stroke:#181818;stroke-width:0.6;" x1="399.3056" x2="909.9437" y1="372.143" y2="372.143"/><text fill="#000000" font-family="sans-serif" font-size="7.8" font-weight="bold" lengthAdjust="spacing" textLength="8.676" x="403.5056" y="368.9854">13</text><text fill="#000000" font-family="sans-serif" font-size="7.8" lengthAdjust="spacing" textLength="161.7053" x="414.5815" y="368.9854">new User(name, email, phone, password, role)</text><polygon fill="#181818" points="405.9056,388.5176,399.9056,390.9176,405.9056,393.3176,403.5056,390.9176" style="stroke:#181818;stroke-width:0.6;"/><line style="stroke:#181818;stroke-width:0.6;stroke-dasharray:2.0,2.0;" x1="402.3056" x2="915.9437" y1="390.9176" y2="390.9176"/><text fill="#000000" font-family="sans-serif" font-size="7.8" font-weight="bold" lengthAdjust="spacing" textLength="8.676" x="409.5056" y="387.76">14</text><text fill="#000000" font-family="sans-serif" font-size="7.8" lengthAdjust="spacing" textLength="15.1734" x="420.5815" y="387.76">user</text><polygon fill="#181818" points="562.6582,407.2922,568.6582,409.6922,562.6582,412.0922,565.0582,409.6922" style="stroke:#181818;stroke-width:0.6;"/><line style="stroke:#181818;stroke-width:0.6;" x1="399.3056" x2="566.2582" y1="409.6922" y2="409.6922"/><text fill="#000000" font-family="sans-serif" font-size="7.8" font-weight="bold" lengthAdjust="spacing" textLength="8.676" x="403.5056" y="406.5346">15</text><text fill="#000000" font-family="sans-serif" font-size="7.8" lengthAdjust="spacing" textLength="36.8443" x="414.5815" y="406.5346">save(user)</text><polygon fill="#181818" points="405.9056,426.0668,399.9056,428.4668,405.9056,430.8668,403.5056,428.4668" style="stroke:#181818;stroke-width:0.6;"/><line style="stroke:#181818;stroke-width:0.6;stroke-dasharray:2.0,2.0;" x1="402.3056" x2="572.2582" y1="428.4668" y2="428.4668"/><text fill="#000000" font-family="sans-serif" font-size="7.8" font-weight="bold" lengthAdjust="spacing" textLength="8.676" x="409.5056" y="425.3092">16</text><text fill="#000000" font-family="sans-serif" font-size="7.8" lengthAdjust="spacing" textLength="14.3089" x="420.5815" y="425.3092">void</text><polygon fill="#181818" points="204.0243,444.8414,198.0243,447.2414,204.0243,449.6414,201.6243,447.2414" style="stroke:#181818;stroke-width:0.6;"/><line style="stroke:#181818;stroke-width:0.6;stroke-dasharray:2.0,2.0;" x1="200.4243" x2="392.7056" y1="447.2414" y2="447.2414"/><text fill="#000000" font-family="sans-serif" font-size="7.8" font-weight="bold" lengthAdjust="spacing" textLength="8.676" x="207.6243" y="444.0838">17</text><text fill="#000000" font-family="sans-serif" font-size="7.8" lengthAdjust="spacing" textLength="48.552" x="218.7003" y="444.0838">show success</text><!--SRC=[bLJ1Zfim4BtxAqOv4IdHQdjSAIjbTrE9gbAZaFJkujbWBTZKDadv-uu940FHfiqX0lkzDsE_UTWFgKfkU065LZhDZ2uGdAcGsNwdvEa7FsBYwXp1OEguEkOXm6PSwBDKHtZdkKN6d7G4FSIGuEyALOhm9ldHGwCaUPl34dPubDQXWOEblw-vFaDqIBuyFiuPuvNJgYf-eQ7dr6a3ixKef6gmC-0MAdfWLDl9L9PSEPWzTO8USuWRr27-1FEgbJCwprl5r_tk-mHTQYkfVBqr-YH5YpIqt2sC65xtokexzKknehhlFCLFAT-swxWeyvv9xxVmEiTH6TCkZT2RWikB6lgddpz6-rjkxLaRqK3AivW01ZU-KUHhpTXg1Sb-lTl3QiMOtu3bipVx2MWWAcT1yG8Nbv8BA3EjwAriIosQNhslyiIT7n96L1Bm3f242JoAxWl5OdxLQanaZH09XaQHS3MuwIYW3HmTi9RNlgP62hojq3SmeP0C_g7JsPUwSIPgJXPqCYt2StSvF_3S81Trgy20VjC2GSDDY3tgqavdaSqeQcYCJzLc84m18y5PmmdEDkq9AUDjKqgxbdU_eSktuQvwqFDpFzUUBfLugMCHTRPxtDM1BW1-jMS5rRlWZ1leYOEwRLo8f_0C0xD2M1EP5jHbAUe6T0xmy00PjnaAkYGwd-9vNWyBNNFLolpZt8-E7yIpyw5L7OtmhVllSZtkQpoxbfymyXitYWyzl3iB9ot5Vut2O7njbQPeBKCbM1X33_qB]--></g></svg>