<svg xmlns="http://www.w3.org/2000/svg" xmlns:xlink="http://www.w3.org/1999/xlink" contentStyleType="text/css" height="474px" preserveAspectRatio="none" style="width:940px;height:474px;background:#FFFFFF;" version="1.1" viewBox="0 0 940 474" width="940.2px" zoomAndPan="magnify"><title>UI Sequence Diagram (SSD) - Add Drones to a Proposal (US311)</title><defs/><g><text fill="#000000" font-family="sans-serif" font-size="8.4" font-weight="bold" lengthAdjust="spacing" textLength="255.7857" x="340.0582" y="18.0645">UI Sequence Diagram (SSD) - Add Drones to a Proposal (US311)</text><rect fill="#FFFFFF" height="297.5977" style="stroke:#181818;stroke-width:0.6;" width="6" x="183.1143" y="121.0945"/><rect fill="#FFFFFF" height="56.3238" style="stroke:#181818;stroke-width:0.6;" width="6" x="358.5677" y="196.193"/><rect fill="#FFFFFF" height="128.6262" style="stroke:#181818;stroke-width:0.6;" width="6" x="358.5677" y="290.066"/><rect fill="#FFFFFF" height="18.7746" style="stroke:#181818;stroke-width:0.6;" width="6" x="576.9234" y="139.8691"/><rect fill="#FFFFFF" height="18.7746" style="stroke:#181818;stroke-width:0.6;" width="6" x="576.9234" y="343.3898"/><rect fill="#FFFFFF" height="18.7746" style="stroke:#181818;stroke-width:0.6;" width="6" x="690.7699" y="214.9676"/><rect fill="none" height="115.4262" style="stroke:#000000;stroke-width:0.8999999999999999;" width="808.0497" x="122.4524" y="299.066"/><line style="stroke:#181818;stroke-width:0.3;stroke-dasharray:5.0,5.0;" x1="38.4" x2="38.4" y1="73.9453" y2="424.6922"/><line style="stroke:#181818;stroke-width:0.3;stroke-dasharray:5.0,5.0;" x1="186.0524" x2="186.0524" y1="73.9453" y2="424.6922"/><line style="stroke:#181818;stroke-width:0.3;stroke-dasharray:5.0,5.0;" x1="361.299" x2="361.299" y1="73.9453" y2="424.6922"/><line style="stroke:#181818;stroke-width:0.3;stroke-dasharray:5.0,5.0;" x1="480.0363" x2="480.0363" y1="73.9453" y2="424.6922"/><line style="stroke:#181818;stroke-width:0.3;stroke-dasharray:5.0,5.0;" x1="579.5988" x2="579.5988" y1="73.9453" y2="424.6922"/><line style="stroke:#181818;stroke-width:0.3;stroke-dasharray:5.0,5.0;" x1="693.648" x2="693.648" y1="73.9453" y2="424.6922"/><line style="stroke:#181818;stroke-width:0.3;stroke-dasharray:5.0,5.0;" x1="804.2918" x2="804.2918" y1="73.9453" y2="424.6922"/><line style="stroke:#181818;stroke-width:0.3;stroke-dasharray:5.0,5.0;" x1="892.0031" x2="892.0031" y1="73.9453" y2="424.6922"/><text fill="#000000" font-family="sans-serif" font-size="8.4" lengthAdjust="spacing" textLength="67.2205" x="3" y="71.8371">CRM Collaborator</text><ellipse cx="38.4103" cy="31.8727" fill="#E3E3E3" rx="4.8" ry="4.8" style="stroke:#181818;stroke-width:0.3;"/><path d="M38.4103,36.6727 L38.4103,52.8727 M30.6103,41.4727 L46.2103,41.4727 M38.4103,52.8727 L30.6103,61.8727 M38.4103,52.8727 L46.2103,61.8727 " fill="none" style="stroke:#181818;stroke-width:0.3;"/><text fill="#000000" font-family="sans-serif" font-size="8.4" lengthAdjust="spacing" textLength="67.2205" x="3" y="433.1566">CRM Collaborator</text><ellipse cx="38.4103" cy="440.3648" fill="#E3E3E3" rx="4.8" ry="4.8" style="stroke:#181818;stroke-width:0.3;"/><path d="M38.4103,445.1648 L38.4103,461.3648 M30.6103,449.9648 L46.2103,449.9648 M38.4103,461.3648 L30.6103,470.3648 M38.4103,461.3648 L46.2103,470.3648 " fill="none" style="stroke:#181818;stroke-width:0.3;"/><rect fill="#E3E3E3" height="19.5727" rx="1.5" ry="1.5" style="stroke:#181818;stroke-width:0.3;" width="115.3236" x="128.4524" y="53.7727"/><text fill="#000000" font-family="sans-serif" font-size="8.4" lengthAdjust="spacing" textLength="106.9236" x="132.6524" y="67.0371">:AddDronesShowProposalUI</text><rect fill="#E3E3E3" height="19.5727" rx="1.5" ry="1.5" style="stroke:#181818;stroke-width:0.3;" width="115.3236" x="128.4524" y="424.0922"/><text fill="#000000" font-family="sans-serif" font-size="8.4" lengthAdjust="spacing" textLength="106.9236" x="132.6524" y="437.3566">:AddDronesShowProposalUI</text><rect fill="#E3E3E3" height="19.5727" rx="1.5" ry="1.5" style="stroke:#181818;stroke-width:0.3;" width="143.3373" x="289.899" y="53.7727"/><text fill="#000000" font-family="sans-serif" font-size="8.4" lengthAdjust="spacing" textLength="134.9373" x="294.099" y="67.0371">:AddDronesShowProposalController</text><rect fill="#E3E3E3" height="19.5727" rx="1.5" ry="1.5" style="stroke:#181818;stroke-width:0.3;" width="143.3373" x="289.899" y="424.0922"/><text fill="#000000" font-family="sans-serif" font-size="8.4" lengthAdjust="spacing" textLength="134.9373" x="294.099" y="437.3566">:AddDronesShowProposalController</text><rect fill="#E3E3E3" height="19.5727" rx="1.5" ry="1.5" style="stroke:#181818;stroke-width:0.3;" width="82.1625" x="439.2363" y="53.7727"/><text fill="#000000" font-family="sans-serif" font-size="8.4" lengthAdjust="spacing" textLength="73.7625" x="443.4363" y="67.0371">:RepositoryProvider</text><rect fill="#E3E3E3" height="19.5727" rx="1.5" ry="1.5" style="stroke:#181818;stroke-width:0.3;" width="82.1625" x="439.2363" y="424.0922"/><text fill="#000000" font-family="sans-serif" font-size="8.4" lengthAdjust="spacing" textLength="73.7625" x="443.4363" y="437.3566">:RepositoryProvider</text><rect fill="#E3E3E3" height="19.5727" rx="1.5" ry="1.5" style="stroke:#181818;stroke-width:0.3;" width="105.0492" x="527.3988" y="53.7727"/><text fill="#000000" font-family="sans-serif" font-size="8.4" lengthAdjust="spacing" textLength="96.6492" x="531.5988" y="67.0371">:ShowProposalRepository</text><rect fill="#E3E3E3" height="19.5727" rx="1.5" ry="1.5" style="stroke:#181818;stroke-width:0.3;" width="105.0492" x="527.3988" y="424.0922"/><text fill="#000000" font-family="sans-serif" font-size="8.4" lengthAdjust="spacing" textLength="96.6492" x="531.5988" y="437.3566">:ShowProposalRepository</text><rect fill="#E3E3E3" height="19.5727" rx="1.5" ry="1.5" style="stroke:#181818;stroke-width:0.3;" width="110.6438" x="638.448" y="53.7727"/><text fill="#000000" font-family="sans-serif" font-size="8.4" lengthAdjust="spacing" textLength="102.2437" x="642.648" y="67.0371">:GetDroneModelsController</text><rect fill="#E3E3E3" height="19.5727" rx="1.5" ry="1.5" style="stroke:#181818;stroke-width:0.3;" width="110.6438" x="638.448" y="424.0922"/><text fill="#000000" font-family="sans-serif" font-size="8.4" lengthAdjust="spacing" textLength="102.2437" x="642.648" y="437.3566">:GetDroneModelsController</text><rect fill="#E3E3E3" height="19.5727" rx="1.5" ry="1.5" style="stroke:#181818;stroke-width:0.3;" width="98.5113" x="755.0918" y="53.7727"/><text fill="#000000" font-family="sans-serif" font-size="8.4" lengthAdjust="spacing" textLength="90.1113" x="759.2918" y="67.0371">:DroneModelInformation</text><rect fill="#E3E3E3" height="19.5727" rx="1.5" ry="1.5" style="stroke:#181818;stroke-width:0.3;" width="98.5113" x="755.0918" y="424.0922"/><text fill="#000000" font-family="sans-serif" font-size="8.4" lengthAdjust="spacing" textLength="90.1113" x="759.2918" y="437.3566">:DroneModelInformation</text><rect fill="#E3E3E3" height="19.5727" rx="1.5" ry="1.5" style="stroke:#181818;stroke-width:0.3;" width="64.899" x="859.6031" y="53.7727"/><text fill="#000000" font-family="sans-serif" font-size="8.4" lengthAdjust="spacing" textLength="56.499" x="863.8031" y="67.0371">:ShowProposal</text><rect fill="#E3E3E3" height="19.5727" rx="1.5" ry="1.5" style="stroke:#181818;stroke-width:0.3;" width="64.899" x="859.6031" y="424.0922"/><text fill="#000000" font-family="sans-serif" font-size="8.4" lengthAdjust="spacing" textLength="56.499" x="863.8031" y="437.3566">:ShowProposal</text><rect fill="#FFFFFF" height="297.5977" style="stroke:#181818;stroke-width:0.6;" width="6" x="183.1143" y="121.0945"/><rect fill="#FFFFFF" height="56.3238" style="stroke:#181818;stroke-width:0.6;" width="6" x="358.5677" y="196.193"/><rect fill="#FFFFFF" height="128.6262" style="stroke:#181818;stroke-width:0.6;" width="6" x="358.5677" y="290.066"/><rect fill="#FFFFFF" height="18.7746" style="stroke:#181818;stroke-width:0.6;" width="6" x="576.9234" y="139.8691"/><rect fill="#FFFFFF" height="18.7746" style="stroke:#181818;stroke-width:0.6;" width="6" x="576.9234" y="343.3898"/><rect fill="#FFFFFF" height="18.7746" style="stroke:#181818;stroke-width:0.6;" width="6" x="690.7699" y="214.9676"/><rect fill="#EEEEEE" height="1.8" style="stroke:#EEEEEE;stroke-width:0.6;" width="936.5021" x="0" y="92.9326"/><line style="stroke:#000000;stroke-width:0.6;" x1="0" x2="936.5021" y1="92.9326" y2="92.9326"/><line style="stroke:#000000;stroke-width:0.6;" x1="0" x2="936.5021" y1="94.7326" y2="94.7326"/><rect fill="#EEEEEE" height="15.1746" style="stroke:#000000;stroke-width:1.2;" width="36.5646" x="449.9688" y="85.9453"/><text fill="#000000" font-family="sans-serif" font-size="7.8" font-weight="bold" lengthAdjust="spacing" textLength="25.9975" x="453.5688" y="96.7623">START</text><polygon fill="#181818" points="175.9143,118.6945,181.9143,121.0945,175.9143,123.4945,178.3143,121.0945" style="stroke:#181818;stroke-width:0.6;"/><line style="stroke:#181818;stroke-width:0.6;" x1="38.4103" x2="179.5143" y1="121.0945" y2="121.0945"/><text fill="#000000" font-family="sans-serif" font-size="7.8" font-weight="bold" lengthAdjust="spacing" textLength="4.338" x="42.6103" y="117.9369">1</text><text fill="#000000" font-family="sans-serif" font-size="7.8" lengthAdjust="spacing" textLength="114.7948" x="49.3482" y="117.9369">selects "Add Drones to Proposal"</text><polygon fill="#181818" points="569.7234,137.4691,575.7234,139.8691,569.7234,142.2691,572.1234,139.8691" style="stroke:#181818;stroke-width:0.6;"/><line style="stroke:#181818;stroke-width:0.6;" x1="189.1143" x2="573.3234" y1="139.8691" y2="139.8691"/><text fill="#000000" font-family="sans-serif" font-size="7.8" font-weight="bold" lengthAdjust="spacing" textLength="4.338" x="193.3143" y="136.7115">2</text><text fill="#000000" font-family="sans-serif" font-size="7.8" lengthAdjust="spacing" textLength="79.3444" x="200.0522" y="136.7115">getStandbyProposals()</text><polygon fill="#181818" points="195.7143,156.2438,189.7143,158.6437,195.7143,161.0438,193.3143,158.6437" style="stroke:#181818;stroke-width:0.6;"/><line style="stroke:#181818;stroke-width:0.6;stroke-dasharray:2.0,2.0;" x1="192.1143" x2="579.3234" y1="158.6437" y2="158.6437"/><text fill="#000000" font-family="sans-serif" font-size="7.8" font-weight="bold" lengthAdjust="spacing" textLength="4.338" x="199.3143" y="155.4861">3</text><text fill="#000000" font-family="sans-serif" font-size="7.8" lengthAdjust="spacing" textLength="71.5444" x="206.0522" y="155.4861">List&lt;ShowProposal&gt;</text><polygon fill="#181818" points="175.9143,175.0184,181.9143,177.4184,175.9143,179.8184,178.3143,177.4184" style="stroke:#181818;stroke-width:0.6;"/><line style="stroke:#181818;stroke-width:0.6;" x1="38.4103" x2="179.5143" y1="177.4184" y2="177.4184"/><text fill="#000000" font-family="sans-serif" font-size="7.8" font-weight="bold" lengthAdjust="spacing" textLength="4.338" x="42.6103" y="174.2607">4</text><text fill="#000000" font-family="sans-serif" font-size="7.8" lengthAdjust="spacing" textLength="56.3634" x="49.3482" y="174.2607">selects proposal</text><polygon fill="#181818" points="351.3677,193.793,357.3677,196.193,351.3677,198.593,353.7677,196.193" style="stroke:#181818;stroke-width:0.6;"/><line style="stroke:#181818;stroke-width:0.6;" x1="189.1143" x2="354.9677" y1="196.193" y2="196.193"/><text fill="#000000" font-family="sans-serif" font-size="7.8" font-weight="bold" lengthAdjust="spacing" textLength="4.338" x="193.3143" y="193.0354">5</text><text fill="#000000" font-family="sans-serif" font-size="7.8" lengthAdjust="spacing" textLength="118.3559" x="200.0522" y="193.0354">getCurrentDroneModels(proposal)</text><polygon fill="#181818" points="683.5699,212.5676,689.5699,214.9676,683.5699,217.3676,685.9699,214.9676" style="stroke:#181818;stroke-width:0.6;"/><line style="stroke:#181818;stroke-width:0.6;" x1="364.5677" x2="687.1699" y1="214.9676" y2="214.9676"/><text fill="#000000" font-family="sans-serif" font-size="7.8" font-weight="bold" lengthAdjust="spacing" textLength="4.338" x="368.7677" y="211.81">6</text><text fill="#000000" font-family="sans-serif" font-size="7.8" lengthAdjust="spacing" textLength="87.5748" x="375.5057" y="211.81">getDroneModelQuantity()</text><polygon fill="#181818" points="371.1677,231.3422,365.1677,233.7422,371.1677,236.1422,368.7677,233.7422" style="stroke:#181818;stroke-width:0.6;"/><line style="stroke:#181818;stroke-width:0.6;stroke-dasharray:2.0,2.0;" x1="367.5677" x2="693.1699" y1="233.7422" y2="233.7422"/><text fill="#000000" font-family="sans-serif" font-size="7.8" font-weight="bold" lengthAdjust="spacing" textLength="4.338" x="374.7677" y="230.5846">7</text><text fill="#000000" font-family="sans-serif" font-size="7.8" lengthAdjust="spacing" textLength="95.39" x="381.5057" y="230.5846">Map&lt;DroneModel, Integer&gt;</text><polygon fill="#181818" points="195.7143,250.1168,189.7143,252.5168,195.7143,254.9168,193.3143,252.5168" style="stroke:#181818;stroke-width:0.6;"/><line style="stroke:#181818;stroke-width:0.6;stroke-dasharray:2.0,2.0;" x1="192.1143" x2="360.9677" y1="252.5168" y2="252.5168"/><text fill="#000000" font-family="sans-serif" font-size="7.8" font-weight="bold" lengthAdjust="spacing" textLength="4.338" x="199.3143" y="249.3592">8</text><text fill="#000000" font-family="sans-serif" font-size="7.8" lengthAdjust="spacing" textLength="102.7559" x="206.0522" y="249.3592">List&lt;DroneModelInformation&gt;</text><polygon fill="#181818" points="175.9143,268.8914,181.9143,271.2914,175.9143,273.6914,178.3143,271.2914" style="stroke:#181818;stroke-width:0.6;"/><line style="stroke:#181818;stroke-width:0.6;" x1="38.4103" x2="179.5143" y1="271.2914" y2="271.2914"/><text fill="#000000" font-family="sans-serif" font-size="7.8" font-weight="bold" lengthAdjust="spacing" textLength="4.338" x="42.6103" y="268.1338">9</text><text fill="#000000" font-family="sans-serif" font-size="7.8" lengthAdjust="spacing" textLength="123.566" x="49.3482" y="268.1338">selects drone model(s) and quantity</text><polygon fill="#181818" points="351.3677,287.666,357.3677,290.066,351.3677,292.466,353.7677,290.066" style="stroke:#181818;stroke-width:0.6;"/><line style="stroke:#181818;stroke-width:0.6;" x1="189.1143" x2="354.9677" y1="290.066" y2="290.066"/><text fill="#000000" font-family="sans-serif" font-size="7.8" font-weight="bold" lengthAdjust="spacing" textLength="8.676" x="193.3143" y="286.9084">10</text><text fill="#000000" font-family="sans-serif" font-size="7.8" lengthAdjust="spacing" textLength="146.9774" x="204.3902" y="286.9084">addDroneModels(proposal, modelsToAdd)</text><path d="M122.4524,299.066 L158.555,299.066 L158.555,304.6406 L152.555,310.6406 L122.4524,310.6406 L122.4524,299.066 " fill="#EEEEEE" style="stroke:#000000;stroke-width:0.8999999999999999;"/><rect fill="none" height="115.4262" style="stroke:#000000;stroke-width:0.8999999999999999;" width="808.0497" x="122.4524" y="299.066"/><text fill="#000000" font-family="sans-serif" font-size="7.8" font-weight="bold" lengthAdjust="spacing" textLength="9.1025" x="131.4524" y="308.083">alt</text><text fill="#000000" font-family="sans-serif" font-size="6.6" font-weight="bold" lengthAdjust="spacing" textLength="37.3957" x="167.555" y="307.3881">[valid input]</text><polygon fill="#181818" points="884.8526,322.2152,890.8526,324.6152,884.8526,327.0152,887.2526,324.6152" style="stroke:#181818;stroke-width:0.6;"/><line style="stroke:#181818;stroke-width:0.6;" x1="364.5677" x2="888.4526" y1="324.6152" y2="324.6152"/><text fill="#000000" font-family="sans-serif" font-size="7.8" font-weight="bold" lengthAdjust="spacing" textLength="8.676" x="368.7677" y="321.4576">11</text><text fill="#000000" font-family="sans-serif" font-size="7.8" lengthAdjust="spacing" textLength="154.9869" x="379.8437" y="321.4576">update modelsUsed + setNumberOfDrones()</text><polygon fill="#181818" points="569.7234,340.9898,575.7234,343.3898,569.7234,345.7898,572.1234,343.3898" style="stroke:#181818;stroke-width:0.6;"/><line style="stroke:#181818;stroke-width:0.6;" x1="364.5677" x2="573.3234" y1="343.3898" y2="343.3898"/><text fill="#000000" font-family="sans-serif" font-size="7.8" font-weight="bold" lengthAdjust="spacing" textLength="8.676" x="368.7677" y="340.2322">12</text><text fill="#000000" font-family="sans-serif" font-size="7.8" lengthAdjust="spacing" textLength="76.7394" x="379.8437" y="340.2322">saveInStore(proposal)</text><polygon fill="#181818" points="371.1677,359.7645,365.1677,362.1645,371.1677,364.5645,368.7677,362.1645" style="stroke:#181818;stroke-width:0.6;"/><line style="stroke:#181818;stroke-width:0.6;stroke-dasharray:2.0,2.0;" x1="367.5677" x2="579.3234" y1="362.1645" y2="362.1645"/><text fill="#000000" font-family="sans-serif" font-size="7.8" font-weight="bold" lengthAdjust="spacing" textLength="8.676" x="374.7677" y="359.0068">13</text><text fill="#000000" font-family="sans-serif" font-size="7.8" lengthAdjust="spacing" textLength="88.4584" x="385.8437" y="359.0068">Optional&lt;ShowProposal&gt;</text><polygon fill="#181818" points="195.7143,378.5391,189.7143,380.9391,195.7143,383.3391,193.3143,380.9391" style="stroke:#181818;stroke-width:0.6;"/><line style="stroke:#181818;stroke-width:0.6;stroke-dasharray:2.0,2.0;" x1="192.1143" x2="357.9677" y1="380.9391" y2="380.9391"/><text fill="#000000" font-family="sans-serif" font-size="7.8" font-weight="bold" lengthAdjust="spacing" textLength="8.676" x="199.3143" y="377.7814">14</text><text fill="#000000" font-family="sans-serif" font-size="7.8" lengthAdjust="spacing" textLength="61.9925" x="210.3902" y="377.7814">success message</text><line style="stroke:#000000;stroke-width:0.6;stroke-dasharray:2.0,2.0;" x1="122.4524" x2="930.5021" y1="386.3391" y2="386.3391"/><text fill="#000000" font-family="sans-serif" font-size="6.6" font-weight="bold" lengthAdjust="spacing" textLength="43.2609" x="125.4524" y="393.4611">[invalid input]</text><polygon fill="#181818" points="195.7143,407.2922,189.7143,409.6922,195.7143,412.0922,193.3143,409.6922" style="stroke:#181818;stroke-width:0.6;"/><line style="stroke:#181818;stroke-width:0.6;stroke-dasharray:2.0,2.0;" x1="192.1143" x2="357.9677" y1="409.6922" y2="409.6922"/><text fill="#000000" font-family="sans-serif" font-size="7.8" font-weight="bold" lengthAdjust="spacing" textLength="8.676" x="199.3143" y="406.5346">15</text><text fill="#000000" font-family="sans-serif" font-size="7.8" lengthAdjust="spacing" textLength="50.2849" x="210.3902" y="406.5346">error message</text><!--SRC=[ZPJTRk8m48Nl_HGZheAsN5HxLnMaAaYhI6MxIyW3kF4Gh3fsQZjKlFsE4_93oAwM2mJEV2V7PyPs7r9NtF8IIgDDVhAcHF2sHkRw9nNFFtY1gRye18kvvxfGum9tui9yILt0aIk7Z7dfgJHB8CNF6dMEi9My2ALHccwNi88N8M1hZKO7tW27NzPKnd45KPP-VtnSCiPhRtHTlgEbtxat5XRnVWUnKOg_6yjfPG7SGUseWdnucSkAQm-B9n9ljTEJ-UgKiwGfpvB_AOwDzfRUXEqxuiF-TOBjaGebcRWGSvRYMcbfkLkO46FzWMweQhGyeNwWR-pjZ43b9hv4U19xgoRGG2JwQ6p9lJIw8SfkyH_cRYmnjbv3UdZP7s2zPYoa3QjDwEqJE5Gq3GuMjztiTKBVv9dxC0gC4KBWUAiaKQ1FQPx4-wMZNBGSkDjWnkYgC_4gdNyUszymWVC2y-xxdRO6GwzROt5jBUfn_55NExBOp0PhAABxZhGI0_kxfg2blqHBDh13_zW0hWOJEruz3n8Fa6YF1TeD6szn46bDt0GpEmat2RN-PvDfbDkHYTmIg4tmUTt6RLZyUeOcAJsqh3iO6f2xo2W7vU7CbHH0Dqdj6T2d2xBJ8FMw4e5gjJA70hwHHV-pkHpUZktWKQvp-7NC73zZebCwS3ZgOG3c9oKykHktwsRVgf0XLvEX2yZV1czmraTSvpawEe_qHNShevqXfJ2VHWUXjNGDzeWMxAwHe_zPyWS0]--></g></svg>