<svg xmlns="http://www.w3.org/2000/svg" xmlns:xlink="http://www.w3.org/1999/xlink" contentStyleType="text/css" height="870px" preserveAspectRatio="none" style="width:1757px;height:870px;background:#FFFFFF;" version="1.1" viewBox="0 0 1757 870" width="1757px" zoomAndPan="magnify"><title>UI Sequence Diagram (SSD) - Get Show Info</title><defs/><g><text fill="#000000" font-family="sans-serif" font-size="14" font-weight="bold" lengthAdjust="spacing" textLength="292.4824" x="731.2961" y="30.1074">UI Sequence Diagram (SSD) - Get Show Info</text><rect fill="#FFFFFF" height="644.4512" style="stroke:#181818;stroke-width:1.0;" width="10" x="65.0825" y="133.2422"/><rect fill="#FFFFFF" height="621.1602" style="stroke:#181818;stroke-width:1.0;" width="10" x="366.6118" y="156.5332"/><rect fill="#FFFFFF" height="406.7832" style="stroke:#181818;stroke-width:1.0;" width="10" x="729.0806" y="187.8242"/><rect fill="#FFFFFF" height="156.4551" style="stroke:#181818;stroke-width:1.0;" width="10" x="961.4668" y="219.1152"/><rect fill="#FFFFFF" height="156.4551" style="stroke:#181818;stroke-width:1.0;" width="10" x="1217.3384" y="406.8613"/><rect fill="#FFFFFF" height="31.291" style="stroke:#181818;stroke-width:1.0;" width="10" x="1402.0137" y="250.4063"/><rect fill="#FFFFFF" height="31.291" style="stroke:#181818;stroke-width:1.0;" width="10" x="1402.0137" y="438.1523"/><rect fill="#FFFFFF" height="31.291" style="stroke:#181818;stroke-width:1.0;" width="10" x="1549.3374" y="312.9883"/><rect fill="#FFFFFF" height="31.291" style="stroke:#181818;stroke-width:1.0;" width="10" x="1688.106" y="500.7344"/><rect fill="none" height="161.0859" style="stroke:#000000;stroke-width:1.5;" width="428.0254" x="10" y="609.6074"/><line style="stroke:#181818;stroke-width:0.5;stroke-dasharray:5.0,5.0;" x1="70" x2="70" y1="123.2422" y2="787.6934"/><line style="stroke:#181818;stroke-width:0.5;stroke-dasharray:5.0,5.0;" x1="371.1982" x2="371.1982" y1="123.2422" y2="787.6934"/><line style="stroke:#181818;stroke-width:0.5;stroke-dasharray:5.0,5.0;" x1="733.3223" x2="733.3223" y1="123.2422" y2="787.6934"/><line style="stroke:#181818;stroke-width:0.5;stroke-dasharray:5.0,5.0;" x1="965.7466" x2="965.7466" y1="123.2422" y2="787.6934"/><line style="stroke:#181818;stroke-width:0.5;stroke-dasharray:5.0,5.0;" x1="1222.187" x2="1222.187" y1="123.2422" y2="787.6934"/><line style="stroke:#181818;stroke-width:0.5;stroke-dasharray:5.0,5.0;" x1="1406.4897" x2="1406.4897" y1="123.2422" y2="787.6934"/><line style="stroke:#181818;stroke-width:0.5;stroke-dasharray:5.0,5.0;" x1="1553.5376" x2="1553.5376" y1="123.2422" y2="787.6934"/><line style="stroke:#181818;stroke-width:0.5;stroke-dasharray:5.0,5.0;" x1="1692.1372" x2="1692.1372" y1="123.2422" y2="787.6934"/><text fill="#000000" font-family="sans-serif" font-size="14" lengthAdjust="spacing" textLength="94.165" x="20" y="119.7285">Show Manager</text><ellipse cx="70.0825" cy="53.1211" fill="#E3E3E3" rx="8" ry="8" style="stroke:#181818;stroke-width:0.5;"/><path d="M70.0825,61.1211 L70.0825,88.1211 M57.0825,69.1211 L83.0825,69.1211 M70.0825,88.1211 L57.0825,103.1211 M70.0825,88.1211 L83.0825,103.1211 " fill="none" style="stroke:#181818;stroke-width:0.5;"/><text fill="#000000" font-family="sans-serif" font-size="14" lengthAdjust="spacing" textLength="94.165" x="20" y="801.8008">Show Manager</text><ellipse cx="70.0825" cy="813.8145" fill="#E3E3E3" rx="8" ry="8" style="stroke:#181818;stroke-width:0.5;"/><path d="M70.0825,821.8145 L70.0825,848.8145 M57.0825,829.8145 L83.0825,829.8145 M70.0825,848.8145 L57.0825,863.8145 M70.0825,848.8145 L83.0825,863.8145 " fill="none" style="stroke:#181818;stroke-width:0.5;"/><rect fill="#E3E3E3" height="32.6211" rx="2.5" ry="2.5" style="stroke:#181818;stroke-width:0.5;" width="112.8271" x="315.1982" y="89.6211"/><text fill="#000000" font-family="sans-serif" font-size="14" lengthAdjust="spacing" textLength="98.8271" x="322.1982" y="111.7285">:GetShowInfoUI</text><rect fill="#E3E3E3" height="32.6211" rx="2.5" ry="2.5" style="stroke:#181818;stroke-width:0.5;" width="112.8271" x="315.1982" y="786.6934"/><text fill="#000000" font-family="sans-serif" font-size="14" lengthAdjust="spacing" textLength="98.8271" x="322.1982" y="808.8008">:GetShowInfoUI</text><rect fill="#E3E3E3" height="32.6211" rx="2.5" ry="2.5" style="stroke:#181818;stroke-width:0.5;" width="159.5166" x="654.3223" y="89.6211"/><text fill="#000000" font-family="sans-serif" font-size="14" lengthAdjust="spacing" textLength="145.5166" x="661.3223" y="111.7285">:GetShowInfoController</text><rect fill="#E3E3E3" height="32.6211" rx="2.5" ry="2.5" style="stroke:#181818;stroke-width:0.5;" width="159.5166" x="654.3223" y="786.6934"/><text fill="#000000" font-family="sans-serif" font-size="14" lengthAdjust="spacing" textLength="145.5166" x="661.3223" y="808.8008">:GetShowInfoController</text><rect fill="#E3E3E3" height="32.6211" rx="2.5" ry="2.5" style="stroke:#181818;stroke-width:0.5;" width="275.4404" x="828.7466" y="89.6211"/><text fill="#000000" font-family="sans-serif" font-size="14" lengthAdjust="spacing" textLength="261.4404" x="835.7466" y="111.7285">:FindCustomerOfRepresentativeController</text><rect fill="#E3E3E3" height="32.6211" rx="2.5" ry="2.5" style="stroke:#181818;stroke-width:0.5;" width="275.4404" x="828.7466" y="786.6934"/><text fill="#000000" font-family="sans-serif" font-size="14" lengthAdjust="spacing" textLength="261.4404" x="835.7466" y="808.8008">:FindCustomerOfRepresentativeController</text><rect fill="#E3E3E3" height="32.6211" rx="2.5" ry="2.5" style="stroke:#181818;stroke-width:0.5;" width="216.3027" x="1114.187" y="89.6211"/><text fill="#000000" font-family="sans-serif" font-size="14" lengthAdjust="spacing" textLength="202.3027" x="1121.187" y="111.7285">:FindShows4CustomerController</text><rect fill="#E3E3E3" height="32.6211" rx="2.5" ry="2.5" style="stroke:#181818;stroke-width:0.5;" width="216.3027" x="1114.187" y="786.6934"/><text fill="#000000" font-family="sans-serif" font-size="14" lengthAdjust="spacing" textLength="202.3027" x="1121.187" y="808.8008">:FindShows4CustomerController</text><rect fill="#E3E3E3" height="32.6211" rx="2.5" ry="2.5" style="stroke:#181818;stroke-width:0.5;" width="133.0479" x="1340.4897" y="89.6211"/><text fill="#000000" font-family="sans-serif" font-size="14" lengthAdjust="spacing" textLength="119.0479" x="1347.4897" y="111.7285">RepositoryProvider</text><rect fill="#E3E3E3" height="32.6211" rx="2.5" ry="2.5" style="stroke:#181818;stroke-width:0.5;" width="133.0479" x="1340.4897" y="786.6934"/><text fill="#000000" font-family="sans-serif" font-size="14" lengthAdjust="spacing" textLength="119.0479" x="1347.4897" y="808.8008">RepositoryProvider</text><rect fill="#E3E3E3" height="32.6211" rx="2.5" ry="2.5" style="stroke:#181818;stroke-width:0.5;" width="141.5996" x="1483.5376" y="89.6211"/><text fill="#000000" font-family="sans-serif" font-size="14" lengthAdjust="spacing" textLength="127.5996" x="1490.5376" y="111.7285">CostumerRepository</text><rect fill="#E3E3E3" height="32.6211" rx="2.5" ry="2.5" style="stroke:#181818;stroke-width:0.5;" width="141.5996" x="1483.5376" y="786.6934"/><text fill="#000000" font-family="sans-serif" font-size="14" lengthAdjust="spacing" textLength="127.5996" x="1490.5376" y="808.8008">CostumerRepository</text><rect fill="#E3E3E3" height="32.6211" rx="2.5" ry="2.5" style="stroke:#181818;stroke-width:0.5;" width="115.9375" x="1635.1372" y="89.6211"/><text fill="#000000" font-family="sans-serif" font-size="14" lengthAdjust="spacing" textLength="101.9375" x="1642.1372" y="111.7285">ShowRepository</text><rect fill="#E3E3E3" height="32.6211" rx="2.5" ry="2.5" style="stroke:#181818;stroke-width:0.5;" width="115.9375" x="1635.1372" y="786.6934"/><text fill="#000000" font-family="sans-serif" font-size="14" lengthAdjust="spacing" textLength="101.9375" x="1642.1372" y="808.8008">ShowRepository</text><rect fill="#FFFFFF" height="644.4512" style="stroke:#181818;stroke-width:1.0;" width="10" x="65.0825" y="133.2422"/><rect fill="#FFFFFF" height="621.1602" style="stroke:#181818;stroke-width:1.0;" width="10" x="366.6118" y="156.5332"/><rect fill="#FFFFFF" height="406.7832" style="stroke:#181818;stroke-width:1.0;" width="10" x="729.0806" y="187.8242"/><rect fill="#FFFFFF" height="156.4551" style="stroke:#181818;stroke-width:1.0;" width="10" x="961.4668" y="219.1152"/><rect fill="#FFFFFF" height="156.4551" style="stroke:#181818;stroke-width:1.0;" width="10" x="1217.3384" y="406.8613"/><rect fill="#FFFFFF" height="31.291" style="stroke:#181818;stroke-width:1.0;" width="10" x="1402.0137" y="250.4063"/><rect fill="#FFFFFF" height="31.291" style="stroke:#181818;stroke-width:1.0;" width="10" x="1402.0137" y="438.1523"/><rect fill="#FFFFFF" height="31.291" style="stroke:#181818;stroke-width:1.0;" width="10" x="1549.3374" y="312.9883"/><rect fill="#FFFFFF" height="31.291" style="stroke:#181818;stroke-width:1.0;" width="10" x="1688.106" y="500.7344"/><polygon fill="#181818" points="354.6118,152.5332,364.6118,156.5332,354.6118,160.5332,358.6118,156.5332" style="stroke:#181818;stroke-width:1.0;"/><line style="stroke:#181818;stroke-width:1.0;" x1="75.0825" x2="360.6118" y1="156.5332" y2="156.5332"/><text fill="#000000" font-family="sans-serif" font-size="13" font-weight="bold" lengthAdjust="spacing" textLength="7.23" x="82.0825" y="151.2705">1</text><text fill="#000000" font-family="sans-serif" font-size="13" lengthAdjust="spacing" textLength="145.2344" x="93.3125" y="151.2705">request to retrieve shows</text><polygon fill="#181818" points="717.0806,183.8242,727.0806,187.8242,717.0806,191.8242,721.0806,187.8242" style="stroke:#181818;stroke-width:1.0;"/><line style="stroke:#181818;stroke-width:1.0;" x1="376.6118" x2="723.0806" y1="187.8242" y2="187.8242"/><text fill="#000000" font-family="sans-serif" font-size="13" font-weight="bold" lengthAdjust="spacing" textLength="7.23" x="383.6118" y="182.5615">2</text><text fill="#000000" font-family="sans-serif" font-size="13" lengthAdjust="spacing" textLength="322.2388" x="394.8418" y="182.5615">getCustomerNIFOfTheRepresentativeAssociated(email)</text><polygon fill="#181818" points="949.4668,215.1152,959.4668,219.1152,949.4668,223.1152,953.4668,219.1152" style="stroke:#181818;stroke-width:1.0;"/><line style="stroke:#181818;stroke-width:1.0;" x1="739.0806" x2="955.4668" y1="219.1152" y2="219.1152"/><text fill="#000000" font-family="sans-serif" font-size="13" font-weight="bold" lengthAdjust="spacing" textLength="7.23" x="746.0806" y="213.8525">3</text><text fill="#000000" font-family="sans-serif" font-size="13" lengthAdjust="spacing" textLength="192.1563" x="757.3105" y="213.8525">getCustomerIDbyHisEmail(email)</text><polygon fill="#181818" points="1390.0137,246.4063,1400.0137,250.4063,1390.0137,254.4063,1394.0137,250.4063" style="stroke:#181818;stroke-width:1.0;"/><line style="stroke:#181818;stroke-width:1.0;" x1="971.4668" x2="1396.0137" y1="250.4063" y2="250.4063"/><text fill="#000000" font-family="sans-serif" font-size="13" font-weight="bold" lengthAdjust="spacing" textLength="7.23" x="978.4668" y="245.1436">4</text><text fill="#000000" font-family="sans-serif" font-size="13" lengthAdjust="spacing" textLength="124.2554" x="989.6968" y="245.1436">costumerRepository()</text><polygon fill="#181818" points="982.4668,277.6973,972.4668,281.6973,982.4668,285.6973,978.4668,281.6973" style="stroke:#181818;stroke-width:1.0;"/><line style="stroke:#181818;stroke-width:1.0;stroke-dasharray:2.0,2.0;" x1="976.4668" x2="1406.0137" y1="281.6973" y2="281.6973"/><text fill="#000000" font-family="sans-serif" font-size="13" font-weight="bold" lengthAdjust="spacing" textLength="7.23" x="988.4668" y="276.4346">5</text><text fill="#000000" font-family="sans-serif" font-size="13" lengthAdjust="spacing" textLength="118.4854" x="999.6968" y="276.4346">CostumerRepository</text><polygon fill="#181818" points="1537.3374,308.9883,1547.3374,312.9883,1537.3374,316.9883,1541.3374,312.9883" style="stroke:#181818;stroke-width:1.0;"/><line style="stroke:#181818;stroke-width:1.0;" x1="971.4668" x2="1543.3374" y1="312.9883" y2="312.9883"/><text fill="#000000" font-family="sans-serif" font-size="13" font-weight="bold" lengthAdjust="spacing" textLength="7.23" x="978.4668" y="307.7256">6</text><text fill="#000000" font-family="sans-serif" font-size="13" lengthAdjust="spacing" textLength="117.7363" x="989.6968" y="307.7256">findByNIF(emailNIF)</text><polygon fill="#181818" points="982.4668,340.2793,972.4668,344.2793,982.4668,348.2793,978.4668,344.2793" style="stroke:#181818;stroke-width:1.0;"/><line style="stroke:#181818;stroke-width:1.0;stroke-dasharray:2.0,2.0;" x1="976.4668" x2="1553.3374" y1="344.2793" y2="344.2793"/><text fill="#000000" font-family="sans-serif" font-size="13" font-weight="bold" lengthAdjust="spacing" textLength="7.23" x="988.4668" y="339.0166">7</text><text fill="#000000" font-family="sans-serif" font-size="13" lengthAdjust="spacing" textLength="119.9517" x="999.6968" y="339.0166">Optional&lt;Costumer&gt;</text><polygon fill="#181818" points="750.0806,371.5703,740.0806,375.5703,750.0806,379.5703,746.0806,375.5703" style="stroke:#181818;stroke-width:1.0;"/><line style="stroke:#181818;stroke-width:1.0;stroke-dasharray:2.0,2.0;" x1="744.0806" x2="965.4668" y1="375.5703" y2="375.5703"/><text fill="#000000" font-family="sans-serif" font-size="13" font-weight="bold" lengthAdjust="spacing" textLength="7.23" x="756.0806" y="370.3076">8</text><text fill="#000000" font-family="sans-serif" font-size="13" lengthAdjust="spacing" textLength="84.5444" x="767.3105" y="370.3076">Optional&lt;NIF&gt;</text><polygon fill="#181818" points="1205.3384,402.8613,1215.3384,406.8613,1205.3384,410.8613,1209.3384,406.8613" style="stroke:#181818;stroke-width:1.0;"/><line style="stroke:#181818;stroke-width:1.0;" x1="739.0806" x2="1211.3384" y1="406.8613" y2="406.8613"/><text fill="#000000" font-family="sans-serif" font-size="13" font-weight="bold" lengthAdjust="spacing" textLength="7.23" x="746.0806" y="401.5986">9</text><text fill="#000000" font-family="sans-serif" font-size="13" lengthAdjust="spacing" textLength="203.728" x="757.3105" y="401.5986">getShows4Customer(customerNIF)</text><polygon fill="#181818" points="1390.0137,434.1523,1400.0137,438.1523,1390.0137,442.1523,1394.0137,438.1523" style="stroke:#181818;stroke-width:1.0;"/><line style="stroke:#181818;stroke-width:1.0;" x1="1227.3384" x2="1396.0137" y1="438.1523" y2="438.1523"/><text fill="#000000" font-family="sans-serif" font-size="13" font-weight="bold" lengthAdjust="spacing" textLength="14.46" x="1234.3384" y="432.8896">10</text><text fill="#000000" font-family="sans-serif" font-size="13" lengthAdjust="spacing" textLength="101.1436" x="1252.7983" y="432.8896">showRepository()</text><polygon fill="#181818" points="1238.3384,465.4434,1228.3384,469.4434,1238.3384,473.4434,1234.3384,469.4434" style="stroke:#181818;stroke-width:1.0;"/><line style="stroke:#181818;stroke-width:1.0;stroke-dasharray:2.0,2.0;" x1="1232.3384" x2="1406.0137" y1="469.4434" y2="469.4434"/><text fill="#000000" font-family="sans-serif" font-size="13" font-weight="bold" lengthAdjust="spacing" textLength="14.46" x="1244.3384" y="464.1807">11</text><text fill="#000000" font-family="sans-serif" font-size="13" lengthAdjust="spacing" textLength="94.6563" x="1262.7983" y="464.1807">ShowRepository</text><polygon fill="#181818" points="1676.106,496.7344,1686.106,500.7344,1676.106,504.7344,1680.106,500.7344" style="stroke:#181818;stroke-width:1.0;"/><line style="stroke:#181818;stroke-width:1.0;" x1="1227.3384" x2="1682.106" y1="500.7344" y2="500.7344"/><text fill="#000000" font-family="sans-serif" font-size="13" font-weight="bold" lengthAdjust="spacing" textLength="14.46" x="1234.3384" y="495.4717">12</text><text fill="#000000" font-family="sans-serif" font-size="13" lengthAdjust="spacing" textLength="157.4854" x="1252.7983" y="495.4717">findByCostumer(Costumer)</text><polygon fill="#181818" points="1238.3384,528.0254,1228.3384,532.0254,1238.3384,536.0254,1234.3384,532.0254" style="stroke:#181818;stroke-width:1.0;"/><line style="stroke:#181818;stroke-width:1.0;stroke-dasharray:2.0,2.0;" x1="1232.3384" x2="1692.106" y1="532.0254" y2="532.0254"/><text fill="#000000" font-family="sans-serif" font-size="13" font-weight="bold" lengthAdjust="spacing" textLength="14.46" x="1244.3384" y="526.7627">13</text><text fill="#000000" font-family="sans-serif" font-size="13" lengthAdjust="spacing" textLength="131.5361" x="1262.7983" y="526.7627">Optional&lt;List&lt;Show&gt;&gt;</text><polygon fill="#181818" points="750.0806,559.3164,740.0806,563.3164,750.0806,567.3164,746.0806,563.3164" style="stroke:#181818;stroke-width:1.0;"/><line style="stroke:#181818;stroke-width:1.0;stroke-dasharray:2.0,2.0;" x1="744.0806" x2="1221.3384" y1="563.3164" y2="563.3164"/><text fill="#000000" font-family="sans-serif" font-size="13" font-weight="bold" lengthAdjust="spacing" textLength="14.46" x="756.0806" y="558.0537">14</text><text fill="#000000" font-family="sans-serif" font-size="13" lengthAdjust="spacing" textLength="158.9771" x="774.5405" y="558.0537">Optional&lt;List&lt;ShowDTO&gt;&gt;</text><polygon fill="#181818" points="387.6118,590.6074,377.6118,594.6074,387.6118,598.6074,383.6118,594.6074" style="stroke:#181818;stroke-width:1.0;"/><line style="stroke:#181818;stroke-width:1.0;stroke-dasharray:2.0,2.0;" x1="381.6118" x2="733.0806" y1="594.6074" y2="594.6074"/><text fill="#000000" font-family="sans-serif" font-size="13" font-weight="bold" lengthAdjust="spacing" textLength="14.46" x="393.6118" y="589.3447">15</text><text fill="#000000" font-family="sans-serif" font-size="13" lengthAdjust="spacing" textLength="158.9771" x="412.0718" y="589.3447">Optional&lt;List&lt;ShowDTO&gt;&gt;</text><path d="M10,609.6074 L70.1709,609.6074 L70.1709,618.8984 L60.1709,628.8984 L10,628.8984 L10,609.6074 " fill="#EEEEEE" style="stroke:#000000;stroke-width:1.5;"/><rect fill="none" height="161.0859" style="stroke:#000000;stroke-width:1.5;" width="428.0254" x="10" y="609.6074"/><text fill="#000000" font-family="sans-serif" font-size="13" font-weight="bold" lengthAdjust="spacing" textLength="15.1709" x="25" y="624.6357">alt</text><text fill="#000000" font-family="sans-serif" font-size="11" font-weight="bold" lengthAdjust="spacing" textLength="102.0723" x="85.1709" y="623.4775">[show list is empty]</text><polygon fill="#181818" points="86.0825,648.1895,76.0825,652.1895,86.0825,656.1895,82.0825,652.1895" style="stroke:#181818;stroke-width:1.0;"/><line style="stroke:#181818;stroke-width:1.0;" x1="80.0825" x2="365.6118" y1="652.1895" y2="652.1895"/><text fill="#000000" font-family="sans-serif" font-size="13" font-weight="bold" lengthAdjust="spacing" textLength="14.46" x="92.0825" y="646.9268">16</text><text fill="#000000" font-family="sans-serif" font-size="13" lengthAdjust="spacing" textLength="249.0693" x="110.5425" y="646.9268">&#10006; No shows found for associated customer</text><line style="stroke:#000000;stroke-width:1.0;stroke-dasharray:2.0,2.0;" x1="10" x2="438.0254" y1="661.1895" y2="661.1895"/><text fill="#000000" font-family="sans-serif" font-size="11" font-weight="bold" lengthAdjust="spacing" textLength="103.9199" x="15" y="673.0596">[show list available]</text><polygon fill="#181818" points="86.0825,696.1113,76.0825,700.1113,86.0825,704.1113,82.0825,700.1113" style="stroke:#181818;stroke-width:1.0;"/><line style="stroke:#181818;stroke-width:1.0;" x1="80.0825" x2="365.6118" y1="700.1113" y2="700.1113"/><text fill="#000000" font-family="sans-serif" font-size="13" font-weight="bold" lengthAdjust="spacing" textLength="14.46" x="92.0825" y="694.8486">17</text><text fill="#000000" font-family="sans-serif" font-size="13" lengthAdjust="spacing" textLength="177.7598" x="110.5425" y="694.8486">Display paginated list of shows</text><polygon fill="#181818" points="354.6118,727.4023,364.6118,731.4023,354.6118,735.4023,358.6118,731.4023" style="stroke:#181818;stroke-width:1.0;"/><line style="stroke:#181818;stroke-width:1.0;" x1="75.0825" x2="360.6118" y1="731.4023" y2="731.4023"/><text fill="#000000" font-family="sans-serif" font-size="13" font-weight="bold" lengthAdjust="spacing" textLength="14.46" x="82.0825" y="726.1396">18</text><text fill="#000000" font-family="sans-serif" font-size="13" lengthAdjust="spacing" textLength="74.4199" x="100.5425" y="726.1396">selects show</text><polygon fill="#181818" points="86.0825,758.6934,76.0825,762.6934,86.0825,766.6934,82.0825,762.6934" style="stroke:#181818;stroke-width:1.0;"/><line style="stroke:#181818;stroke-width:1.0;" x1="80.0825" x2="365.6118" y1="762.6934" y2="762.6934"/><text fill="#000000" font-family="sans-serif" font-size="13" font-weight="bold" lengthAdjust="spacing" textLength="14.46" x="92.0825" y="757.4307">19</text><text fill="#000000" font-family="sans-serif" font-size="13" lengthAdjust="spacing" textLength="170.5234" x="110.5425" y="757.4307">show selected ShowDTO info</text><!--SRC=[ZLL1Rjim4Bpp5OkSd8DlFGL1WDPkMWDrN5J90nXfPHEHIPLSEV17Ukhh-f8k9PCc9Hk83uPipipkpf2KUrEwbLRkOM-qANVMx178TYXSN6bb-IQtMD2nGR1OajJR9WMudQpCkz9Rg6NZK0XInD2N5HJukqDT8YoLt7heh2YMjp27RqXGxCmxh7HjX90T6TtjNz7oSqd6mas_kfQQAziRa0wAjU1of4hLIarmSySQ7kGLNbOzv6Lr7R8mcgnfcfFQWcmp0ZygNIqwHso1tTI_iBNeK9CaTS0n-mIxek9hkayHb7FzufJ7vOnJFFdnfpK7LPt0uKSENXX77IkVIR4h_rSEzlL6mF1NRxOwI4BlhYZMC7_miTrnp1oS8o33ZsGL7f1ZvgdE33PRC9OPVXhcR972o4-hnqtzlCFSnC_EcL8njvhXNghczYpM6o9w8I-Os9iBhvQln-_AVVNqgKYQYiX4M3HOoOBbnBzP8XCz5v4odpOrpK1KU45Zt4O8YILgtYfVZkpLC0a_Z8OPCegC2rriMb96o-O-jFEGTf5hdBiuPnRvN7n2JRmyDH_sxX1AlirdvJdyP8wutKKavs6uR7z-88YaYNnlNmuWBHlmqVnWsomyZ3eVt8kqKVdetW_bwDulF6GcvWfNlO_ivVDcAf0c48xd1wW3JJRK6mmD0q4vm7rBHm7y6Sukd_ax-FVt3poPuO13RJfTyRVbcoASLmZP2kGBFb6K1zwuyfLV1oF9fN9j8u_yyjWgtKlqU5EVhX4FJ-uRXms_M5o_E9Rggmq0bZaD2yg_E51N8XsQxwJKlVL_]--></g></svg>