<?xml version="1.0" encoding="UTF-8" standalone="no"?><svg xmlns="http://www.w3.org/2000/svg" xmlns:xlink="http://www.w3.org/1999/xlink" contentScriptType="application/ecmascript" contentStyleType="text/css" height="773px" preserveAspectRatio="none" style="width:521px;height:773px;" version="1.1" viewBox="0 0 521 773" width="521px" zoomAndPan="magnify"><defs><filter height="300%" id="f45psouds8ojp" width="300%" x="-1" y="-1"><feGaussianBlur result="blurOut" stdDeviation="2.0"/><feColorMatrix in="blurOut" result="blurOut2" type="matrix" values="0 0 0 0 0 0 0 0 0 0 0 0 0 0 0 0 0 0 .4 0"/><feOffset dx="4.0" dy="4.0" in="blurOut2" result="blurOut3"/><feBlend in="SourceGraphic" in2="blurOut3" mode="normal"/></filter></defs><g><!--MD5=[be6c3843c808c12b9bb038b6ac52a053]
cluster more--><polygon fill="#FFFFFF" filter="url(#f45psouds8ojp)" points="16,6,59,6,66,28.4883,499,28.4883,499,744.16,16,744.16,16,6" style="stroke: #000000; stroke-width: 1.5;"/><line style="stroke: #000000; stroke-width: 1.5;" x1="16" x2="66" y1="28.4883" y2="28.4883"/><text fill="#000000" font-family="sans-serif" font-size="14" font-weight="bold" lengthAdjust="spacingAndGlyphs" textLength="37" x="20" y="21.5352">more</text><!--MD5=[13e3fb4313892b59063e5657c6905dbe]
class more.ColorPaletteDemo--><a href="ColorPaletteDemo.html" target="_top" title="ColorPaletteDemo.html" xlink:actuate="onRequest" xlink:href="ColorPaletteDemo.html" xlink:show="new" xlink:title="ColorPaletteDemo.html" xlink:type="simple"><rect codeLine="3" fill="#FEFECE" filter="url(#f45psouds8ojp)" height="73.9102" id="more.ColorPaletteDemo" style="stroke: #A80036; stroke-width: 1.5;" width="189" x="34.5" y="41"/><ellipse cx="73.8" cy="57" fill="#ADD1B2" rx="11" ry="11" style="stroke: #A80036; stroke-width: 1.0;"/><path d="M76.2731,63.1431 Q75.6921,63.4419 75.0529,63.5913 Q74.4138,63.7407 73.7082,63.7407 Q71.2014,63.7407 69.8815,62.0889 Q68.5617,60.437 68.5617,57.3159 Q68.5617,54.1865 69.8815,52.5347 Q71.2014,50.8828 73.7082,50.8828 Q74.4138,50.8828 75.0612,51.0322 Q75.7087,51.1816 76.2731,51.4805 L76.2731,54.2031 Q75.6423,53.6221 75.0488,53.3523 Q74.4553,53.0825 73.8244,53.0825 Q72.4797,53.0825 71.7949,54.1492 Q71.1101,55.2158 71.1101,57.3159 Q71.1101,59.4077 71.7949,60.4744 Q72.4797,61.541 73.8244,61.541 Q74.4553,61.541 75.0488,61.2712 Q75.6423,61.0015 76.2731,60.4204 Z "/><text fill="#000000" font-family="sans-serif" font-size="12" lengthAdjust="spacingAndGlyphs" textLength="103" x="93.2" y="61.5352">ColorPaletteDemo</text><line style="stroke: #A80036; stroke-width: 1.5;" x1="35.5" x2="222.5" y1="73" y2="73"/><line style="stroke: #A80036; stroke-width: 1.5;" x1="35.5" x2="222.5" y1="81" y2="81"/><ellipse cx="45.5" cy="92" fill="#84BE84" rx="3" ry="3" style="stroke: #038048; stroke-width: 1.0;"/><text fill="#000000" font-family="sans-serif" font-size="11" lengthAdjust="spacingAndGlyphs" text-decoration="underline" textLength="103" x="54.5" y="95.6348">main(String[]): void</text><rect fill="#F24D5C" height="6" style="stroke: #C82930; stroke-width: 1.0;" width="6" x="42.5" y="101.9551"/><text fill="#000000" font-family="sans-serif" font-size="11" lengthAdjust="spacingAndGlyphs" text-decoration="underline" textLength="163" x="54.5" y="108.5898">printColor(String, String): void</text></a><!--MD5=[ce077d864de9dd86a33eeb0a1ad62ad3]
class more.TextEffectDemo--><a href="TextEffectDemo.html" target="_top" title="TextEffectDemo.html" xlink:actuate="onRequest" xlink:href="TextEffectDemo.html" xlink:show="new" xlink:title="TextEffectDemo.html" xlink:type="simple"><rect codeLine="8" fill="#FEFECE" filter="url(#f45psouds8ojp)" height="73.9102" id="more.TextEffectDemo" style="stroke: #A80036; stroke-width: 1.5;" width="189" x="258.5" y="41"/><ellipse cx="302.75" cy="57" fill="#ADD1B2" rx="11" ry="11" style="stroke: #A80036; stroke-width: 1.0;"/><path d="M305.2231,63.1431 Q304.6421,63.4419 304.0029,63.5913 Q303.3638,63.7407 302.6582,63.7407 Q300.1514,63.7407 298.8315,62.0889 Q297.5117,60.437 297.5117,57.3159 Q297.5117,54.1865 298.8315,52.5347 Q300.1514,50.8828 302.6582,50.8828 Q303.3638,50.8828 304.0112,51.0322 Q304.6587,51.1816 305.2231,51.4805 L305.2231,54.2031 Q304.5923,53.6221 303.9988,53.3523 Q303.4053,53.0825 302.7744,53.0825 Q301.4297,53.0825 300.7449,54.1492 Q300.0601,55.2158 300.0601,57.3159 Q300.0601,59.4077 300.7449,60.4744 Q301.4297,61.541 302.7744,61.541 Q303.4053,61.541 303.9988,61.2712 Q304.5923,61.0015 305.2231,60.4204 Z "/><text fill="#000000" font-family="sans-serif" font-size="12" lengthAdjust="spacingAndGlyphs" textLength="92" x="323.25" y="61.5352">TextEffectDemo</text><line style="stroke: #A80036; stroke-width: 1.5;" x1="259.5" x2="446.5" y1="73" y2="73"/><line style="stroke: #A80036; stroke-width: 1.5;" x1="259.5" x2="446.5" y1="81" y2="81"/><ellipse cx="269.5" cy="92" fill="#84BE84" rx="3" ry="3" style="stroke: #038048; stroke-width: 1.0;"/><text fill="#000000" font-family="sans-serif" font-size="11" lengthAdjust="spacingAndGlyphs" text-decoration="underline" textLength="103" x="278.5" y="95.6348">main(String[]): void</text><rect fill="#F24D5C" height="6" style="stroke: #C82930; stroke-width: 1.0;" width="6" x="266.5" y="101.9551"/><text fill="#000000" font-family="sans-serif" font-size="11" lengthAdjust="spacingAndGlyphs" text-decoration="underline" textLength="163" x="278.5" y="108.5898">printEffect(String, String): void</text></a><!--MD5=[677b1c4c652852f6ca3ff4490aded2ef]
class more.TextEffects--><a href="TextEffects.html" target="_top" title="TextEffects.html" xlink:actuate="onRequest" xlink:href="TextEffects.html" xlink:show="new" xlink:title="TextEffects.html" xlink:type="simple"><rect codeLine="13" fill="#FEFECE" filter="url(#f45psouds8ojp)" height="268.2363" id="more.TextEffects" style="stroke: #A80036; stroke-width: 1.5;" width="193" x="32.5" y="317.42"/><ellipse cx="92.75" cy="333.42" fill="#ADD1B2" rx="11" ry="11" style="stroke: #A80036; stroke-width: 1.0;"/><path d="M95.2231,339.5631 Q94.6421,339.8619 94.0029,340.0113 Q93.3638,340.1607 92.6582,340.1607 Q90.1514,340.1607 88.8315,338.5089 Q87.5117,336.857 87.5117,333.7359 Q87.5117,330.6065 88.8315,328.9547 Q90.1514,327.3028 92.6582,327.3028 Q93.3638,327.3028 94.0112,327.4522 Q94.6587,327.6016 95.2231,327.9005 L95.2231,330.6231 Q94.5923,330.0421 93.9988,329.7723 Q93.4053,329.5025 92.7744,329.5025 Q91.4297,329.5025 90.7449,330.5692 Q90.0601,331.6358 90.0601,333.7359 Q90.0601,335.8277 90.7449,336.8944 Q91.4297,337.961 92.7744,337.961 Q93.4053,337.961 93.9988,337.6912 Q94.5923,337.4215 95.2231,336.8404 Z "/><text fill="#000000" font-family="sans-serif" font-size="12" lengthAdjust="spacingAndGlyphs" textLength="64" x="113.25" y="337.9552">TextEffects</text><line style="stroke: #A80036; stroke-width: 1.5;" x1="33.5" x2="224.5" y1="349.42" y2="349.42"/><ellipse cx="43.5" cy="360.42" fill="none" rx="3" ry="3" style="stroke: #038048; stroke-width: 1.0;"/><text fill="#000000" font-family="sans-serif" font-size="11" lengthAdjust="spacingAndGlyphs" text-decoration="underline" textLength="70" x="52.5" y="364.0548">RESET: String</text><ellipse cx="43.5" cy="373.3751" fill="none" rx="3" ry="3" style="stroke: #038048; stroke-width: 1.0;"/><text fill="#000000" font-family="sans-serif" font-size="11" lengthAdjust="spacingAndGlyphs" text-decoration="underline" textLength="67" x="52.5" y="377.0098">BOLD: String</text><ellipse cx="43.5" cy="386.3302" fill="none" rx="3" ry="3" style="stroke: #038048; stroke-width: 1.0;"/><text fill="#000000" font-family="sans-serif" font-size="11" lengthAdjust="spacingAndGlyphs" text-decoration="underline" textLength="58" x="52.5" y="389.9649">DIM: String</text><ellipse cx="43.5" cy="399.2852" fill="none" rx="3" ry="3" style="stroke: #038048; stroke-width: 1.0;"/><text fill="#000000" font-family="sans-serif" font-size="11" lengthAdjust="spacingAndGlyphs" text-decoration="underline" textLength="73" x="52.5" y="402.92">ITALIC: String</text><ellipse cx="43.5" cy="412.2403" fill="none" rx="3" ry="3" style="stroke: #038048; stroke-width: 1.0;"/><text fill="#000000" font-family="sans-serif" font-size="11" lengthAdjust="spacingAndGlyphs" text-decoration="underline" textLength="98" x="52.5" y="415.8751">UNDERLINE: String</text><ellipse cx="43.5" cy="425.1954" fill="none" rx="3" ry="3" style="stroke: #038048; stroke-width: 1.0;"/><text fill="#000000" font-family="sans-serif" font-size="11" lengthAdjust="spacingAndGlyphs" text-decoration="underline" textLength="68" x="52.5" y="428.8302">BLINK: String</text><ellipse cx="43.5" cy="438.1505" fill="none" rx="3" ry="3" style="stroke: #038048; stroke-width: 1.0;"/><text fill="#000000" font-family="sans-serif" font-size="11" lengthAdjust="spacingAndGlyphs" text-decoration="underline" textLength="76" x="52.5" y="441.7852">INVERT: String</text><ellipse cx="43.5" cy="451.1055" fill="none" rx="3" ry="3" style="stroke: #038048; stroke-width: 1.0;"/><text fill="#000000" font-family="sans-serif" font-size="11" lengthAdjust="spacingAndGlyphs" text-decoration="underline" textLength="79" x="52.5" y="454.7403">HIDDEN: String</text><ellipse cx="43.5" cy="464.0606" fill="none" rx="3" ry="3" style="stroke: #038048; stroke-width: 1.0;"/><text fill="#000000" font-family="sans-serif" font-size="11" lengthAdjust="spacingAndGlyphs" text-decoration="underline" textLength="129" x="52.5" y="467.6954">STRIKETHROUGH: String</text><ellipse cx="43.5" cy="477.0157" fill="none" rx="3" ry="3" style="stroke: #038048; stroke-width: 1.0;"/><text fill="#000000" font-family="sans-serif" font-size="11" lengthAdjust="spacingAndGlyphs" text-decoration="underline" textLength="105" x="52.5" y="480.6505">RESET_BOLD: String</text><ellipse cx="43.5" cy="489.9708" fill="none" rx="3" ry="3" style="stroke: #038048; stroke-width: 1.0;"/><text fill="#000000" font-family="sans-serif" font-size="11" lengthAdjust="spacingAndGlyphs" text-decoration="underline" textLength="96" x="52.5" y="493.6055">RESET_DIM: String</text><ellipse cx="43.5" cy="502.9259" fill="none" rx="3" ry="3" style="stroke: #038048; stroke-width: 1.0;"/><text fill="#000000" font-family="sans-serif" font-size="11" lengthAdjust="spacingAndGlyphs" text-decoration="underline" textLength="111" x="52.5" y="506.5606">RESET_ITALIC: String</text><ellipse cx="43.5" cy="515.8809" fill="none" rx="3" ry="3" style="stroke: #038048; stroke-width: 1.0;"/><text fill="#000000" font-family="sans-serif" font-size="11" lengthAdjust="spacingAndGlyphs" text-decoration="underline" textLength="136" x="52.5" y="519.5157">RESET_UNDERLINE: String</text><ellipse cx="43.5" cy="528.836" fill="none" rx="3" ry="3" style="stroke: #038048; stroke-width: 1.0;"/><text fill="#000000" font-family="sans-serif" font-size="11" lengthAdjust="spacingAndGlyphs" text-decoration="underline" textLength="106" x="52.5" y="532.4708">RESET_BLINK: String</text><ellipse cx="43.5" cy="541.7911" fill="none" rx="3" ry="3" style="stroke: #038048; stroke-width: 1.0;"/><text fill="#000000" font-family="sans-serif" font-size="11" lengthAdjust="spacingAndGlyphs" text-decoration="underline" textLength="114" x="52.5" y="545.4259">RESET_INVERT: String</text><ellipse cx="43.5" cy="554.7462" fill="none" rx="3" ry="3" style="stroke: #038048; stroke-width: 1.0;"/><text fill="#000000" font-family="sans-serif" font-size="11" lengthAdjust="spacingAndGlyphs" text-decoration="underline" textLength="117" x="52.5" y="558.3809">RESET_HIDDEN: String</text><ellipse cx="43.5" cy="567.7013" fill="none" rx="3" ry="3" style="stroke: #038048; stroke-width: 1.0;"/><text fill="#000000" font-family="sans-serif" font-size="11" lengthAdjust="spacingAndGlyphs" text-decoration="underline" textLength="167" x="52.5" y="571.336">RESET_STRIKETHROUGH: String</text><line style="stroke: #A80036; stroke-width: 1.5;" x1="33.5" x2="224.5" y1="577.6563" y2="577.6563"/></a><!--MD5=[33bbf5f256e355573f100c546c2f58fc]
class more.ColorfulOutput--><a href="ColorfulOutput.html" target="_top" title="ColorfulOutput.html" xlink:actuate="onRequest" xlink:href="ColorfulOutput.html" xlink:show="new" xlink:title="ColorfulOutput.html" xlink:type="simple"><rect codeLine="33" fill="#FEFECE" filter="url(#f45psouds8ojp)" height="553.248" id="more.ColorfulOutput" style="stroke: #A80036; stroke-width: 1.5;" width="223" x="260.5" y="174.91"/><ellipse cx="326.25" cy="190.91" fill="#ADD1B2" rx="11" ry="11" style="stroke: #A80036; stroke-width: 1.0;"/><path d="M328.7231,197.0531 Q328.1421,197.3519 327.5029,197.5013 Q326.8638,197.6507 326.1582,197.6507 Q323.6514,197.6507 322.3315,195.9989 Q321.0117,194.347 321.0117,191.2259 Q321.0117,188.0965 322.3315,186.4447 Q323.6514,184.7928 326.1582,184.7928 Q326.8638,184.7928 327.5112,184.9422 Q328.1587,185.0916 328.7231,185.3905 L328.7231,188.1131 Q328.0923,187.5321 327.4988,187.2623 Q326.9053,186.9925 326.2744,186.9925 Q324.9297,186.9925 324.2449,188.0592 Q323.5601,189.1258 323.5601,191.2259 Q323.5601,193.3177 324.2449,194.3844 Q324.9297,195.451 326.2744,195.451 Q326.9053,195.451 327.4988,195.1812 Q328.0923,194.9115 328.7231,194.3304 Z "/><text fill="#000000" font-family="sans-serif" font-size="12" lengthAdjust="spacingAndGlyphs" textLength="83" x="346.75" y="195.4452">ColorfulOutput</text><line style="stroke: #A80036; stroke-width: 1.5;" x1="261.5" x2="482.5" y1="206.91" y2="206.91"/><ellipse cx="271.5" cy="217.91" fill="none" rx="3" ry="3" style="stroke: #038048; stroke-width: 1.0;"/><text fill="#000000" font-family="sans-serif" font-size="11" lengthAdjust="spacingAndGlyphs" text-decoration="underline" textLength="101" x="280.5" y="221.5448">ANSI_RESET: String</text><ellipse cx="271.5" cy="230.8651" fill="none" rx="3" ry="3" style="stroke: #038048; stroke-width: 1.0;"/><text fill="#000000" font-family="sans-serif" font-size="11" lengthAdjust="spacingAndGlyphs" text-decoration="underline" textLength="104" x="280.5" y="234.4998">ANSI_BLACK: String</text><ellipse cx="271.5" cy="243.8202" fill="none" rx="3" ry="3" style="stroke: #038048; stroke-width: 1.0;"/><text fill="#000000" font-family="sans-serif" font-size="11" lengthAdjust="spacingAndGlyphs" text-decoration="underline" textLength="112" x="280.5" y="247.4549">ANSI_YELLOW: String</text><ellipse cx="271.5" cy="256.7752" fill="none" rx="3" ry="3" style="stroke: #038048; stroke-width: 1.0;"/><text fill="#000000" font-family="sans-serif" font-size="11" lengthAdjust="spacingAndGlyphs" text-decoration="underline" textLength="95" x="280.5" y="260.41">ANSI_BLUE: String</text><ellipse cx="271.5" cy="269.7303" fill="none" rx="3" ry="3" style="stroke: #038048; stroke-width: 1.0;"/><text fill="#000000" font-family="sans-serif" font-size="11" lengthAdjust="spacingAndGlyphs" text-decoration="underline" textLength="108" x="280.5" y="273.3651">ANSI_PURPLE: String</text><ellipse cx="271.5" cy="282.6854" fill="none" rx="3" ry="3" style="stroke: #038048; stroke-width: 1.0;"/><text fill="#000000" font-family="sans-serif" font-size="11" lengthAdjust="spacingAndGlyphs" text-decoration="underline" textLength="100" x="280.5" y="286.3202">ANSI_CYAN: String</text><ellipse cx="271.5" cy="295.6405" fill="none" rx="3" ry="3" style="stroke: #038048; stroke-width: 1.0;"/><text fill="#000000" font-family="sans-serif" font-size="11" lengthAdjust="spacingAndGlyphs" text-decoration="underline" textLength="102" x="280.5" y="299.2752">ANSI_WHITE: String</text><ellipse cx="271.5" cy="308.5955" fill="none" rx="3" ry="3" style="stroke: #038048; stroke-width: 1.0;"/><text fill="#000000" font-family="sans-serif" font-size="11" lengthAdjust="spacingAndGlyphs" text-decoration="underline" textLength="149" x="280.5" y="312.2303">ANSI_BRIGHT_BLACK: String</text><ellipse cx="271.5" cy="321.5506" fill="none" rx="3" ry="3" style="stroke: #038048; stroke-width: 1.0;"/><text fill="#000000" font-family="sans-serif" font-size="11" lengthAdjust="spacingAndGlyphs" text-decoration="underline" textLength="157" x="280.5" y="325.1854">ANSI_BRIGHT_YELLOW: String</text><ellipse cx="271.5" cy="334.5057" fill="none" rx="3" ry="3" style="stroke: #038048; stroke-width: 1.0;"/><text fill="#000000" font-family="sans-serif" font-size="11" lengthAdjust="spacingAndGlyphs" text-decoration="underline" textLength="140" x="280.5" y="338.1405">ANSI_BRIGHT_BLUE: String</text><ellipse cx="271.5" cy="347.4608" fill="none" rx="3" ry="3" style="stroke: #038048; stroke-width: 1.0;"/><text fill="#000000" font-family="sans-serif" font-size="11" lengthAdjust="spacingAndGlyphs" text-decoration="underline" textLength="153" x="280.5" y="351.0955">ANSI_BRIGHT_PURPLE: String</text><ellipse cx="271.5" cy="360.4159" fill="none" rx="3" ry="3" style="stroke: #038048; stroke-width: 1.0;"/><text fill="#000000" font-family="sans-serif" font-size="11" lengthAdjust="spacingAndGlyphs" text-decoration="underline" textLength="145" x="280.5" y="364.0506">ANSI_BRIGHT_CYAN: String</text><ellipse cx="271.5" cy="373.3709" fill="none" rx="3" ry="3" style="stroke: #038048; stroke-width: 1.0;"/><text fill="#000000" font-family="sans-serif" font-size="11" lengthAdjust="spacingAndGlyphs" text-decoration="underline" textLength="147" x="280.5" y="377.0057">ANSI_BRIGHT_WHITE: String</text><ellipse cx="271.5" cy="386.326" fill="none" rx="3" ry="3" style="stroke: #038048; stroke-width: 1.0;"/><text fill="#000000" font-family="sans-serif" font-size="11" lengthAdjust="spacingAndGlyphs" text-decoration="underline" textLength="104" x="280.5" y="389.9608">ANSI_GREEN: String</text><ellipse cx="271.5" cy="399.2811" fill="none" rx="3" ry="3" style="stroke: #038048; stroke-width: 1.0;"/><text fill="#000000" font-family="sans-serif" font-size="11" lengthAdjust="spacingAndGlyphs" text-decoration="underline" textLength="149" x="280.5" y="402.9159">ANSI_BRIGHT_GREEN: String</text><ellipse cx="271.5" cy="412.2362" fill="none" rx="3" ry="3" style="stroke: #038048; stroke-width: 1.0;"/><text fill="#000000" font-family="sans-serif" font-size="11" lengthAdjust="spacingAndGlyphs" text-decoration="underline" textLength="142" x="280.5" y="415.8709">ANSI_LIGHT_GREEN: String</text><ellipse cx="271.5" cy="425.1912" fill="none" rx="3" ry="3" style="stroke: #038048; stroke-width: 1.0;"/><text fill="#000000" font-family="sans-serif" font-size="11" lengthAdjust="spacingAndGlyphs" text-decoration="underline" textLength="136" x="280.5" y="428.826">ANSI_PALE_GREEN: String</text><ellipse cx="271.5" cy="438.1463" fill="none" rx="3" ry="3" style="stroke: #038048; stroke-width: 1.0;"/><text fill="#000000" font-family="sans-serif" font-size="11" lengthAdjust="spacingAndGlyphs" text-decoration="underline" textLength="130" x="280.5" y="441.7811">ANSI_SEA_GREEN: String</text><ellipse cx="271.5" cy="451.1014" fill="none" rx="3" ry="3" style="stroke: #038048; stroke-width: 1.0;"/><text fill="#000000" font-family="sans-serif" font-size="11" lengthAdjust="spacingAndGlyphs" text-decoration="underline" textLength="151" x="280.5" y="454.7362">ANSI_FOREST_GREEN: String</text><ellipse cx="271.5" cy="464.0565" fill="none" rx="3" ry="3" style="stroke: #038048; stroke-width: 1.0;"/><text fill="#000000" font-family="sans-serif" font-size="11" lengthAdjust="spacingAndGlyphs" text-decoration="underline" textLength="148" x="280.5" y="467.6912">ANSI_SPRING_GREEN: String</text><ellipse cx="271.5" cy="477.0116" fill="none" rx="3" ry="3" style="stroke: #038048; stroke-width: 1.0;"/><text fill="#000000" font-family="sans-serif" font-size="11" lengthAdjust="spacingAndGlyphs" text-decoration="underline" textLength="134" x="280.5" y="480.6463">ANSI_LIME_GREEN: String</text><ellipse cx="271.5" cy="489.9666" fill="none" rx="3" ry="3" style="stroke: #038048; stroke-width: 1.0;"/><text fill="#000000" font-family="sans-serif" font-size="11" lengthAdjust="spacingAndGlyphs" text-decoration="underline" textLength="153" x="280.5" y="493.6014">ANSI_GREEN_YELLOW: String</text><ellipse cx="271.5" cy="502.9217" fill="none" rx="3" ry="3" style="stroke: #038048; stroke-width: 1.0;"/><text fill="#000000" font-family="sans-serif" font-size="11" lengthAdjust="spacingAndGlyphs" text-decoration="underline" textLength="197" x="280.5" y="506.5565">ANSI_MEDIUM_SPRING_GREEN: String</text><ellipse cx="271.5" cy="515.8768" fill="none" rx="3" ry="3" style="stroke: #038048; stroke-width: 1.0;"/><text fill="#000000" font-family="sans-serif" font-size="11" lengthAdjust="spacingAndGlyphs" text-decoration="underline" textLength="90" x="280.5" y="519.5116">ANSI_RED: String</text><ellipse cx="271.5" cy="528.8319" fill="none" rx="3" ry="3" style="stroke: #038048; stroke-width: 1.0;"/><text fill="#000000" font-family="sans-serif" font-size="11" lengthAdjust="spacingAndGlyphs" text-decoration="underline" textLength="135" x="280.5" y="532.4666">ANSI_BRIGHT_RED: String</text><ellipse cx="271.5" cy="541.787" fill="none" rx="3" ry="3" style="stroke: #038048; stroke-width: 1.0;"/><text fill="#000000" font-family="sans-serif" font-size="11" lengthAdjust="spacingAndGlyphs" text-decoration="underline" textLength="128" x="280.5" y="545.4217">ANSI_LIGHT_RED: String</text><ellipse cx="271.5" cy="554.742" fill="none" rx="3" ry="3" style="stroke: #038048; stroke-width: 1.0;"/><text fill="#000000" font-family="sans-serif" font-size="11" lengthAdjust="spacingAndGlyphs" text-decoration="underline" textLength="126" x="280.5" y="558.3768">ANSI_DARK_RED: String</text><ellipse cx="271.5" cy="567.6971" fill="none" rx="3" ry="3" style="stroke: #038048; stroke-width: 1.0;"/><text fill="#000000" font-family="sans-serif" font-size="11" lengthAdjust="spacingAndGlyphs" text-decoration="underline" textLength="93" x="280.5" y="571.3319">ANSI_PINK: String</text><ellipse cx="271.5" cy="580.6522" fill="none" rx="3" ry="3" style="stroke: #038048; stroke-width: 1.0;"/><text fill="#000000" font-family="sans-serif" font-size="11" lengthAdjust="spacingAndGlyphs" text-decoration="underline" textLength="119" x="280.5" y="584.287">ANSI_CRIMSON: String</text><ellipse cx="271.5" cy="593.6073" fill="none" rx="3" ry="3" style="stroke: #038048; stroke-width: 1.0;"/><text fill="#000000" font-family="sans-serif" font-size="11" lengthAdjust="spacingAndGlyphs" text-decoration="underline" textLength="115" x="280.5" y="597.242">ANSI_SALMON: String</text><ellipse cx="271.5" cy="606.5623" fill="none" rx="3" ry="3" style="stroke: #038048; stroke-width: 1.0;"/><text fill="#000000" font-family="sans-serif" font-size="11" lengthAdjust="spacingAndGlyphs" text-decoration="underline" textLength="122" x="280.5" y="610.1971">ANSI_FIREBRICK: String</text><ellipse cx="271.5" cy="619.5174" fill="none" rx="3" ry="3" style="stroke: #038048; stroke-width: 1.0;"/><text fill="#000000" font-family="sans-serif" font-size="11" lengthAdjust="spacingAndGlyphs" text-decoration="underline" textLength="134" x="280.5" y="623.1522">ANSI_INDIAN_RED: String</text><ellipse cx="271.5" cy="632.4725" fill="none" rx="3" ry="3" style="stroke: #038048; stroke-width: 1.0;"/><text fill="#000000" font-family="sans-serif" font-size="11" lengthAdjust="spacingAndGlyphs" text-decoration="underline" textLength="119" x="280.5" y="636.1073">ANSI_MAROON: String</text><ellipse cx="271.5" cy="645.4276" fill="none" rx="3" ry="3" style="stroke: #038048; stroke-width: 1.0;"/><text fill="#000000" font-family="sans-serif" font-size="11" lengthAdjust="spacingAndGlyphs" text-decoration="underline" textLength="115" x="280.5" y="649.0623">ANSI_ORANGE: String</text><ellipse cx="271.5" cy="658.3827" fill="none" rx="3" ry="3" style="stroke: #038048; stroke-width: 1.0;"/><text fill="#000000" font-family="sans-serif" font-size="11" lengthAdjust="spacingAndGlyphs" text-decoration="underline" textLength="151" x="280.5" y="662.0174">ANSI_DARK_ORANGE: String</text><ellipse cx="271.5" cy="671.3377" fill="none" rx="3" ry="3" style="stroke: #038048; stroke-width: 1.0;"/><text fill="#000000" font-family="sans-serif" font-size="11" lengthAdjust="spacingAndGlyphs" text-decoration="underline" textLength="153" x="280.5" y="674.9725">ANSI_LIGHT_ORANGE: String</text><ellipse cx="271.5" cy="684.2928" fill="none" rx="3" ry="3" style="stroke: #038048; stroke-width: 1.0;"/><text fill="#000000" font-family="sans-serif" font-size="11" lengthAdjust="spacingAndGlyphs" text-decoration="underline" textLength="107" x="280.5" y="687.9276">ANSI_CORAL: String</text><ellipse cx="271.5" cy="697.2479" fill="none" rx="3" ry="3" style="stroke: #038048; stroke-width: 1.0;"/><text fill="#000000" font-family="sans-serif" font-size="11" lengthAdjust="spacingAndGlyphs" text-decoration="underline" textLength="118" x="280.5" y="700.8827">ANSI_TOMATO: String</text><ellipse cx="271.5" cy="710.203" fill="none" rx="3" ry="3" style="stroke: #038048; stroke-width: 1.0;"/><text fill="#000000" font-family="sans-serif" font-size="11" lengthAdjust="spacingAndGlyphs" text-decoration="underline" textLength="142" x="280.5" y="713.8377">ANSI_ORANGE_RED: String</text><line style="stroke: #A80036; stroke-width: 1.5;" x1="261.5" x2="482.5" y1="720.158" y2="720.158"/></a><!--MD5=[8fbf04d05eabe890fecbced83088138d]
link more.ColorPaletteDemo to more.TextEffectDemo--><!--MD5=[358ab6ad0f24d67ec75f0308a28f58c8]
link more.ColorPaletteDemo to more.TextEffects--><!--MD5=[07eda010bfb0e2b07f905c8d4aa42aa5]
link more.TextEffects to more.ColorfulOutput--><text fill="#888888" font-family="sans-serif" font-size="10" lengthAdjust="spacingAndGlyphs" textLength="188" x="157.5" y="759.828">UMLDoclet 2.0.12, PlantUML 1.2020.16</text><!--MD5=[e28cf52143a06280d2cb863d4488c34e]
@startuml
    namespace more {

        class ColorPaletteDemo [[ColorPaletteDemo.html]] {
            {static} +main(String[]): void
            {static} -printColor(String, String): void
        }

        class TextEffectDemo [[TextEffectDemo.html]] {
            {static} +main(String[]): void
            {static} -printEffect(String, String): void
        }

        class TextEffects [[TextEffects.html]] {
            {static} +RESET: String
            {static} +BOLD: String
            {static} +DIM: String
            {static} +ITALIC: String
            {static} +UNDERLINE: String
            {static} +BLINK: String
            {static} +INVERT: String
            {static} +HIDDEN: String
            {static} +STRIKETHROUGH: String
            {static} +RESET_BOLD: String
            {static} +RESET_DIM: String
            {static} +RESET_ITALIC: String
            {static} +RESET_UNDERLINE: String
            {static} +RESET_BLINK: String
            {static} +RESET_INVERT: String
            {static} +RESET_HIDDEN: String
            {static} +RESET_STRIKETHROUGH: String
        }

        class ColorfulOutput [[ColorfulOutput.html]] {
            {static} +ANSI_RESET: String
            {static} +ANSI_BLACK: String
            {static} +ANSI_YELLOW: String
            {static} +ANSI_BLUE: String
            {static} +ANSI_PURPLE: String
            {static} +ANSI_CYAN: String
            {static} +ANSI_WHITE: String
            {static} +ANSI_BRIGHT_BLACK: String
            {static} +ANSI_BRIGHT_YELLOW: String
            {static} +ANSI_BRIGHT_BLUE: String
            {static} +ANSI_BRIGHT_PURPLE: String
            {static} +ANSI_BRIGHT_CYAN: String
            {static} +ANSI_BRIGHT_WHITE: String
            {static} +ANSI_GREEN: String
            {static} +ANSI_BRIGHT_GREEN: String
            {static} +ANSI_LIGHT_GREEN: String
            {static} +ANSI_PALE_GREEN: String
            {static} +ANSI_SEA_GREEN: String
            {static} +ANSI_FOREST_GREEN: String
            {static} +ANSI_SPRING_GREEN: String
            {static} +ANSI_LIME_GREEN: String
            {static} +ANSI_GREEN_YELLOW: String
            {static} +ANSI_MEDIUM_SPRING_GREEN: String
            {static} +ANSI_RED: String
            {static} +ANSI_BRIGHT_RED: String
            {static} +ANSI_LIGHT_RED: String
            {static} +ANSI_DARK_RED: String
            {static} +ANSI_PINK: String
            {static} +ANSI_CRIMSON: String
            {static} +ANSI_SALMON: String
            {static} +ANSI_FIREBRICK: String
            {static} +ANSI_INDIAN_RED: String
            {static} +ANSI_MAROON: String
            {static} +ANSI_ORANGE: String
            {static} +ANSI_DARK_ORANGE: String
            {static} +ANSI_LIGHT_ORANGE: String
            {static} +ANSI_CORAL: String
            {static} +ANSI_TOMATO: String
            {static} +ANSI_ORANGE_RED: String
        }

    }

    center footer UMLDoclet 2.0.12, PlantUML 1.2020.16
@enduml

PlantUML version 1.2020.16(Sun Aug 23 21:20:43 WEST 2020)
(APACHE source distribution)
Java Runtime: OpenJDK Runtime Environment
JVM: OpenJDK 64-Bit Server VM
Default Encoding: UTF-8
Language: pt
Country: PT
--></g></svg>