<?xml version="1.0" encoding="UTF-8" standalone="no"?><svg xmlns="http://www.w3.org/2000/svg" xmlns:xlink="http://www.w3.org/1999/xlink" contentScriptType="application/ecmascript" contentStyleType="text/css" height="109px" preserveAspectRatio="none" style="width:215px;height:109px;" version="1.1" viewBox="0 0 215 109" width="215px" zoomAndPan="magnify"><defs><filter height="300%" id="fc0kglj52mhe4" width="300%" x="-1" y="-1"><feGaussianBlur result="blurOut" stdDeviation="2.0"/><feColorMatrix in="blurOut" result="blurOut2" type="matrix" values="0 0 0 0 0 0 0 0 0 0 0 0 0 0 0 0 0 0 .4 0"/><feOffset dx="4.0" dy="4.0" in="blurOut2" result="blurOut3"/><feBlend in="SourceGraphic" in2="blurOut3" mode="normal"/></filter></defs><g><!--MD5=[ce077d864de9dd86a33eeb0a1ad62ad3]
class more.TextEffectDemo--><a href="TextEffectDemo.html" target="_top" title="TextEffectDemo.html" xlink:actuate="onRequest" xlink:href="TextEffectDemo.html" xlink:show="new" xlink:title="TextEffectDemo.html" xlink:type="simple"><rect codeLine="5" fill="#FEFECE" filter="url(#fc0kglj52mhe4)" height="72.1758" id="more.TextEffectDemo" style="stroke: #A80036; stroke-width: 1.5;" width="189" x="7" y="7"/><ellipse cx="43.6" cy="26.1328" fill="#ADD1B2" rx="11" ry="11" style="stroke: #A80036; stroke-width: 1.0;"/><path d="M46.0731,32.2759 Q45.4921,32.5747 44.8529,32.7241 Q44.2138,32.8735 43.5082,32.8735 Q41.0014,32.8735 39.6815,31.2217 Q38.3617,29.5698 38.3617,26.4487 Q38.3617,23.3193 39.6815,21.6675 Q41.0014,20.0156 43.5082,20.0156 Q44.2138,20.0156 44.8612,20.165 Q45.5087,20.3145 46.0731,20.6133 L46.0731,23.3359 Q45.4423,22.7549 44.8488,22.4851 Q44.2553,22.2153 43.6244,22.2153 Q42.2797,22.2153 41.5949,23.282 Q40.9101,24.3486 40.9101,26.4487 Q40.9101,28.5405 41.5949,29.6072 Q42.2797,30.6738 43.6244,30.6738 Q44.2553,30.6738 44.8488,30.4041 Q45.4423,30.1343 46.0731,29.5532 Z "/><text fill="#000000" font-family="sans-serif" font-size="14" lengthAdjust="spacingAndGlyphs" textLength="109" x="62.4" y="25.5352">TextEffectDemo</text><text fill="#000000" font-family="sans-serif" font-size="10" lengthAdjust="spacingAndGlyphs" textLength="25" x="104.4" y="38.1563">more</text><line style="stroke: #A80036; stroke-width: 1.5;" x1="8" x2="195" y1="45.2656" y2="45.2656"/><ellipse cx="18" cy="56.2656" fill="#84BE84" rx="3" ry="3" style="stroke: #038048; stroke-width: 1.0;"/><text fill="#000000" font-family="sans-serif" font-size="11" lengthAdjust="spacingAndGlyphs" text-decoration="underline" textLength="103" x="27" y="59.9004">main(String[]): void</text><rect fill="#F24D5C" height="6" style="stroke: #C82930; stroke-width: 1.0;" width="6" x="15" y="66.2207"/><text fill="#000000" font-family="sans-serif" font-size="11" lengthAdjust="spacingAndGlyphs" text-decoration="underline" textLength="163" x="27" y="72.8555">printEffect(String, String): void</text></a><text fill="#888888" font-family="sans-serif" font-size="10" lengthAdjust="spacingAndGlyphs" textLength="188" x="7.5" y="95.8438">UMLDoclet 2.0.12, PlantUML 1.2020.16</text><!--MD5=[e785becc52a881f6ae70c60a44e1008e]
@startuml
    set namespaceSeparator none
    hide empty fields
    hide empty methods

    class "<size:14>TextEffectDemo\n<size:10>more" as more.TextEffectDemo [[TextEffectDemo.html]] {
        {static} +main(String[]): void
        {static} -printEffect(String, String): void
    }

    center footer UMLDoclet 2.0.12, PlantUML 1.2020.16
@enduml

PlantUML version 1.2020.16(Sun Aug 23 21:20:43 WEST 2020)
(APACHE source distribution)
Java Runtime: OpenJDK Runtime Environment
JVM: OpenJDK 64-Bit Server VM
Default Encoding: UTF-8
Language: pt
Country: PT
--></g></svg>