<svg xmlns="http://www.w3.org/2000/svg" xmlns:xlink="http://www.w3.org/1999/xlink" contentStyleType="text/css" height="1180px" preserveAspectRatio="none" style="width:1392px;height:1180px;background:#FFFFFF;" version="1.1" viewBox="0 0 1392 1180" width="1392px" zoomAndPan="magnify"><title>UI Sequence Diagram (SD) - List Drones in the Inventory</title><defs/><g><text fill="#000000" font-family="sans-serif" font-size="14" font-weight="bold" lengthAdjust="spacing" textLength="374.1787" x="508.0576" y="30.1074">UI Sequence Diagram (SD) - List Drones in the Inventory</text><rect fill="#FFFFFF" height="946.1484" style="stroke:#181818;stroke-width:1.0;" width="10" x="39.5723" y="133.2422"/><rect fill="#FFFFFF" height="931.8574" style="stroke:#181818;stroke-width:1.0;" width="10" x="328.3301" y="156.5332"/><rect fill="#FFFFFF" height="445.7832" style="stroke:#181818;stroke-width:1.0;" width="10" x="333.3301" y="633.6074"/><rect fill="#FFFFFF" height="383.2012" style="stroke:#181818;stroke-width:1.0;" width="10" x="602.6152" y="187.8242"/><rect fill="#FFFFFF" height="167.4551" style="stroke:#181818;stroke-width:1.0;" width="10" x="607.6152" y="227.1152"/><rect fill="#FFFFFF" height="383.2012" style="stroke:#181818;stroke-width:1.0;" width="10" x="602.6152" y="664.8984"/><rect fill="#FFFFFF" height="167.4551" style="stroke:#181818;stroke-width:1.0;" width="10" x="607.6152" y="704.1895"/><rect fill="#FFFFFF" height="31.291" style="stroke:#181818;stroke-width:1.0;" width="10" x="923.7334" y="263.4063"/><rect fill="#FFFFFF" height="31.291" style="stroke:#181818;stroke-width:1.0;" width="10" x="923.7334" y="740.4805"/><rect fill="#FFFFFF" height="31.291" style="stroke:#181818;stroke-width:1.0;" width="10" x="1029.4365" y="325.9883"/><rect fill="#FFFFFF" height="31.291" style="stroke:#181818;stroke-width:1.0;" width="10" x="1029.4365" y="803.0625"/><rect fill="#FFFFFF" height="31.291" style="stroke:#181818;stroke-width:1.0;" width="10" x="1167.8223" y="508.4434"/><rect fill="#FFFFFF" height="31.291" style="stroke:#181818;stroke-width:1.0;" width="10" x="1319.8252" y="985.5176"/><line style="stroke:#181818;stroke-width:0.5;stroke-dasharray:5.0,5.0;" x1="44" x2="44" y1="123.2422" y2="1097.3906"/><line style="stroke:#181818;stroke-width:0.5;stroke-dasharray:5.0,5.0;" x1="333.2959" x2="333.2959" y1="123.2422" y2="1097.3906"/><line style="stroke:#181818;stroke-width:0.5;stroke-dasharray:5.0,5.0;" x1="607.2363" x2="607.2363" y1="123.2422" y2="1097.3906"/><line style="stroke:#181818;stroke-width:0.5;stroke-dasharray:5.0,5.0;" x1="812.1719" x2="812.1719" y1="123.2422" y2="1097.3906"/><line style="stroke:#181818;stroke-width:0.5;stroke-dasharray:5.0,5.0;" x1="927.8818" x2="927.8818" y1="123.2422" y2="1097.3906"/><line style="stroke:#181818;stroke-width:0.5;stroke-dasharray:5.0,5.0;" x1="1033.585" x2="1033.585" y1="123.2422" y2="1097.3906"/><line style="stroke:#181818;stroke-width:0.5;stroke-dasharray:5.0,5.0;" x1="1172.2881" x2="1172.2881" y1="123.2422" y2="1097.3906"/><line style="stroke:#181818;stroke-width:0.5;stroke-dasharray:5.0,5.0;" x1="1324.3564" x2="1324.3564" y1="123.2422" y2="1097.3906"/><text fill="#000000" font-family="sans-serif" font-size="14" lengthAdjust="spacing" textLength="73.1445" x="5" y="119.7285">Drone Tech</text><ellipse cx="44.5723" cy="53.1211" fill="#E3E3E3" rx="8" ry="8" style="stroke:#181818;stroke-width:0.5;"/><path d="M44.5723,61.1211 L44.5723,88.1211 M31.5723,69.1211 L57.5723,69.1211 M44.5723,88.1211 L31.5723,103.1211 M44.5723,88.1211 L57.5723,103.1211 " fill="none" style="stroke:#181818;stroke-width:0.5;"/><text fill="#000000" font-family="sans-serif" font-size="14" lengthAdjust="spacing" textLength="73.1445" x="5" y="1111.498">Drone Tech</text><ellipse cx="44.5723" cy="1123.5117" fill="#E3E3E3" rx="8" ry="8" style="stroke:#181818;stroke-width:0.5;"/><path d="M44.5723,1131.5117 L44.5723,1158.5117 M31.5723,1139.5117 L57.5723,1139.5117 M44.5723,1158.5117 L31.5723,1173.5117 M44.5723,1158.5117 L57.5723,1173.5117 " fill="none" style="stroke:#181818;stroke-width:0.5;"/><rect fill="#E3E3E3" height="32.6211" rx="2.5" ry="2.5" style="stroke:#181818;stroke-width:0.5;" width="168.0684" x="249.2959" y="89.6211"/><text fill="#000000" font-family="sans-serif" font-size="14" lengthAdjust="spacing" textLength="154.0684" x="256.2959" y="111.7285">:ListDronesInInventoryUI</text><rect fill="#E3E3E3" height="32.6211" rx="2.5" ry="2.5" style="stroke:#181818;stroke-width:0.5;" width="168.0684" x="249.2959" y="1096.3906"/><text fill="#000000" font-family="sans-serif" font-size="14" lengthAdjust="spacing" textLength="154.0684" x="256.2959" y="1118.498">:ListDronesInInventoryUI</text><rect fill="#E3E3E3" height="32.6211" rx="2.5" ry="2.5" style="stroke:#181818;stroke-width:0.5;" width="214.7578" x="500.2363" y="89.6211"/><text fill="#000000" font-family="sans-serif" font-size="14" lengthAdjust="spacing" textLength="200.7578" x="507.2363" y="111.7285">:ListDronesInInventoryController</text><rect fill="#E3E3E3" height="32.6211" rx="2.5" ry="2.5" style="stroke:#181818;stroke-width:0.5;" width="214.7578" x="500.2363" y="1096.3906"/><text fill="#000000" font-family="sans-serif" font-size="14" lengthAdjust="spacing" textLength="200.7578" x="507.2363" y="1118.498">:ListDronesInInventoryController</text><rect fill="#E3E3E3" height="51.2422" rx="2.5" ry="2.5" style="stroke:#181818;stroke-width:0.5;" width="116.71" x="754.1719" y="71"/><text fill="#000000" font-family="sans-serif" font-size="14" lengthAdjust="spacing" textLength="96.4961" x="764.2788" y="93.1074">droneController</text><text fill="#000000" font-family="sans-serif" font-size="14" lengthAdjust="spacing" textLength="102.71" x="761.1719" y="111.7285">:DroneController</text><rect fill="#E3E3E3" height="51.2422" rx="2.5" ry="2.5" style="stroke:#181818;stroke-width:0.5;" width="116.71" x="754.1719" y="1096.3906"/><text fill="#000000" font-family="sans-serif" font-size="14" lengthAdjust="spacing" textLength="96.4961" x="764.2788" y="1118.498">droneController</text><text fill="#000000" font-family="sans-serif" font-size="14" lengthAdjust="spacing" textLength="102.71" x="761.1719" y="1137.1191">:DroneController</text><rect fill="#E3E3E3" height="32.6211" rx="2.5" ry="2.5" style="stroke:#181818;stroke-width:0.5;" width="95.7031" x="880.8818" y="89.6211"/><text fill="#000000" font-family="sans-serif" font-size="14" lengthAdjust="spacing" textLength="81.7031" x="887.8818" y="111.7285">:Repositories</text><rect fill="#E3E3E3" height="32.6211" rx="2.5" ry="2.5" style="stroke:#181818;stroke-width:0.5;" width="95.7031" x="880.8818" y="1096.3906"/><text fill="#000000" font-family="sans-serif" font-size="14" lengthAdjust="spacing" textLength="81.7031" x="887.8818" y="1118.498">:Repositories</text><rect fill="#E3E3E3" height="51.2422" rx="2.5" ry="2.5" style="stroke:#181818;stroke-width:0.5;" width="95.7031" x="986.585" y="71"/><text fill="#000000" font-family="sans-serif" font-size="14" lengthAdjust="spacing" textLength="72.3652" x="998.2539" y="93.1074">repositories</text><text fill="#000000" font-family="sans-serif" font-size="14" lengthAdjust="spacing" textLength="81.7031" x="993.585" y="111.7285">:Repositories</text><rect fill="#E3E3E3" height="51.2422" rx="2.5" ry="2.5" style="stroke:#181818;stroke-width:0.5;" width="95.7031" x="986.585" y="1096.3906"/><text fill="#000000" font-family="sans-serif" font-size="14" lengthAdjust="spacing" textLength="72.3652" x="998.2539" y="1118.498">repositories</text><text fill="#000000" font-family="sans-serif" font-size="14" lengthAdjust="spacing" textLength="81.7031" x="993.585" y="1137.1191">:Repositories</text><rect fill="#E3E3E3" height="51.2422" rx="2.5" ry="2.5" style="stroke:#181818;stroke-width:0.5;" width="161.0684" x="1092.2881" y="71"/><text fill="#000000" font-family="sans-serif" font-size="14" lengthAdjust="spacing" textLength="140.8545" x="1102.395" y="93.1074">droneModelRepository</text><text fill="#000000" font-family="sans-serif" font-size="14" lengthAdjust="spacing" textLength="147.0684" x="1099.2881" y="111.7285">:DroneModelRepository</text><rect fill="#E3E3E3" height="51.2422" rx="2.5" ry="2.5" style="stroke:#181818;stroke-width:0.5;" width="161.0684" x="1092.2881" y="1096.3906"/><text fill="#000000" font-family="sans-serif" font-size="14" lengthAdjust="spacing" textLength="140.8545" x="1102.395" y="1118.498">droneModelRepository</text><text fill="#000000" font-family="sans-serif" font-size="14" lengthAdjust="spacing" textLength="147.0684" x="1099.2881" y="1137.1191">:DroneModelRepository</text><rect fill="#E3E3E3" height="51.2422" rx="2.5" ry="2.5" style="stroke:#181818;stroke-width:0.5;" width="122.9375" x="1263.3564" y="71"/><text fill="#000000" font-family="sans-serif" font-size="14" lengthAdjust="spacing" textLength="102.7236" x="1273.4634" y="93.1074">droneRepository</text><text fill="#000000" font-family="sans-serif" font-size="14" lengthAdjust="spacing" textLength="108.9375" x="1270.3564" y="111.7285">:DroneRepository</text><rect fill="#E3E3E3" height="51.2422" rx="2.5" ry="2.5" style="stroke:#181818;stroke-width:0.5;" width="122.9375" x="1263.3564" y="1096.3906"/><text fill="#000000" font-family="sans-serif" font-size="14" lengthAdjust="spacing" textLength="102.7236" x="1273.4634" y="1118.498">droneRepository</text><text fill="#000000" font-family="sans-serif" font-size="14" lengthAdjust="spacing" textLength="108.9375" x="1270.3564" y="1137.1191">:DroneRepository</text><rect fill="#FFFFFF" height="946.1484" style="stroke:#181818;stroke-width:1.0;" width="10" x="39.5723" y="133.2422"/><rect fill="#FFFFFF" height="931.8574" style="stroke:#181818;stroke-width:1.0;" width="10" x="328.3301" y="156.5332"/><rect fill="#FFFFFF" height="445.7832" style="stroke:#181818;stroke-width:1.0;" width="10" x="333.3301" y="633.6074"/><rect fill="#FFFFFF" height="383.2012" style="stroke:#181818;stroke-width:1.0;" width="10" x="602.6152" y="187.8242"/><rect fill="#FFFFFF" height="167.4551" style="stroke:#181818;stroke-width:1.0;" width="10" x="607.6152" y="227.1152"/><rect fill="#FFFFFF" height="383.2012" style="stroke:#181818;stroke-width:1.0;" width="10" x="602.6152" y="664.8984"/><rect fill="#FFFFFF" height="167.4551" style="stroke:#181818;stroke-width:1.0;" width="10" x="607.6152" y="704.1895"/><rect fill="#FFFFFF" height="31.291" style="stroke:#181818;stroke-width:1.0;" width="10" x="923.7334" y="263.4063"/><rect fill="#FFFFFF" height="31.291" style="stroke:#181818;stroke-width:1.0;" width="10" x="923.7334" y="740.4805"/><rect fill="#FFFFFF" height="31.291" style="stroke:#181818;stroke-width:1.0;" width="10" x="1029.4365" y="325.9883"/><rect fill="#FFFFFF" height="31.291" style="stroke:#181818;stroke-width:1.0;" width="10" x="1029.4365" y="803.0625"/><rect fill="#FFFFFF" height="31.291" style="stroke:#181818;stroke-width:1.0;" width="10" x="1167.8223" y="508.4434"/><rect fill="#FFFFFF" height="31.291" style="stroke:#181818;stroke-width:1.0;" width="10" x="1319.8252" y="985.5176"/><polygon fill="#181818" points="316.3301,152.5332,326.3301,156.5332,316.3301,160.5332,320.3301,156.5332" style="stroke:#181818;stroke-width:1.0;"/><line style="stroke:#181818;stroke-width:1.0;" x1="49.5723" x2="322.3301" y1="156.5332" y2="156.5332"/><text fill="#000000" font-family="sans-serif" font-size="13" font-weight="bold" lengthAdjust="spacing" textLength="7.23" x="56.5723" y="151.2705">1</text><text fill="#000000" font-family="sans-serif" font-size="13" lengthAdjust="spacing" textLength="136.5635" x="67.8022" y="151.2705">ask to list drone models</text><polygon fill="#181818" points="590.6152,183.8242,600.6152,187.8242,590.6152,191.8242,594.6152,187.8242" style="stroke:#181818;stroke-width:1.0;"/><line style="stroke:#181818;stroke-width:1.0;" x1="338.3301" x2="596.6152" y1="187.8242" y2="187.8242"/><text fill="#000000" font-family="sans-serif" font-size="13" font-weight="bold" lengthAdjust="spacing" textLength="7.23" x="345.3301" y="182.5615">2</text><text fill="#000000" font-family="sans-serif" font-size="13" lengthAdjust="spacing" textLength="36.1309" x="356.5601" y="182.5615">create</text><line style="stroke:#181818;stroke-width:1.0;" x1="612.6152" x2="659.6152" y1="214.1152" y2="214.1152"/><line style="stroke:#181818;stroke-width:1.0;" x1="659.6152" x2="659.6152" y1="214.1152" y2="227.1152"/><line style="stroke:#181818;stroke-width:1.0;" x1="618.6152" x2="659.6152" y1="227.1152" y2="227.1152"/><polygon fill="#181818" points="628.6152,223.1152,618.6152,227.1152,628.6152,231.1152,624.6152,227.1152" style="stroke:#181818;stroke-width:1.0;"/><text fill="#000000" font-family="sans-serif" font-size="13" font-weight="bold" lengthAdjust="spacing" textLength="7.23" x="624.6152" y="208.8525">3</text><text fill="#000000" font-family="sans-serif" font-size="13" lengthAdjust="spacing" textLength="159.6816" x="635.8452" y="208.8525">getDroneModelRepository()</text><polygon fill="#181818" points="911.7334,259.4063,921.7334,263.4063,911.7334,267.4063,915.7334,263.4063" style="stroke:#181818;stroke-width:1.0;"/><line style="stroke:#181818;stroke-width:1.0;" x1="617.6152" x2="917.7334" y1="263.4063" y2="263.4063"/><text fill="#000000" font-family="sans-serif" font-size="13" font-weight="bold" lengthAdjust="spacing" textLength="7.23" x="624.6152" y="258.1436">4</text><text fill="#000000" font-family="sans-serif" font-size="13" lengthAdjust="spacing" textLength="75.8735" x="635.8452" y="258.1436">getInstance()</text><polygon fill="#181818" points="628.6152,290.6973,618.6152,294.6973,628.6152,298.6973,624.6152,294.6973" style="stroke:#181818;stroke-width:1.0;"/><line style="stroke:#181818;stroke-width:1.0;stroke-dasharray:2.0,2.0;" x1="622.6152" x2="927.7334" y1="294.6973" y2="294.6973"/><text fill="#000000" font-family="sans-serif" font-size="13" font-weight="bold" lengthAdjust="spacing" textLength="7.23" x="634.6152" y="289.4346">5</text><text fill="#000000" font-family="sans-serif" font-size="13" lengthAdjust="spacing" textLength="67.1963" x="645.8452" y="289.4346">repositories</text><polygon fill="#181818" points="1017.4365,321.9883,1027.4365,325.9883,1017.4365,329.9883,1021.4365,325.9883" style="stroke:#181818;stroke-width:1.0;"/><line style="stroke:#181818;stroke-width:1.0;" x1="617.6152" x2="1023.4365" y1="325.9883" y2="325.9883"/><text fill="#000000" font-family="sans-serif" font-size="13" font-weight="bold" lengthAdjust="spacing" textLength="7.23" x="624.6152" y="320.7256">6</text><text fill="#000000" font-family="sans-serif" font-size="13" lengthAdjust="spacing" textLength="159.6816" x="635.8452" y="320.7256">getDroneModelRepository()</text><polygon fill="#181818" points="628.6152,353.2793,618.6152,357.2793,628.6152,361.2793,624.6152,357.2793" style="stroke:#181818;stroke-width:1.0;"/><line style="stroke:#181818;stroke-width:1.0;stroke-dasharray:2.0,2.0;" x1="622.6152" x2="1033.4365" y1="357.2793" y2="357.2793"/><text fill="#000000" font-family="sans-serif" font-size="13" font-weight="bold" lengthAdjust="spacing" textLength="7.23" x="634.6152" y="352.0166">7</text><text fill="#000000" font-family="sans-serif" font-size="13" lengthAdjust="spacing" textLength="130.7935" x="645.8452" y="352.0166">droneModelRepository</text><line style="stroke:#181818;stroke-width:1.0;stroke-dasharray:2.0,2.0;" x1="617.6152" x2="659.6152" y1="393.5703" y2="393.5703"/><line style="stroke:#181818;stroke-width:1.0;stroke-dasharray:2.0,2.0;" x1="659.6152" x2="659.6152" y1="393.5703" y2="406.5703"/><line style="stroke:#181818;stroke-width:1.0;stroke-dasharray:2.0,2.0;" x1="612.6152" x2="659.6152" y1="406.5703" y2="406.5703"/><polygon fill="#181818" points="622.6152,402.5703,612.6152,406.5703,622.6152,410.5703,618.6152,406.5703" style="stroke:#181818;stroke-width:1.0;"/><text fill="#000000" font-family="sans-serif" font-size="13" font-weight="bold" lengthAdjust="spacing" textLength="7.23" x="624.6152" y="388.3076">8</text><text fill="#000000" font-family="sans-serif" font-size="13" lengthAdjust="spacing" textLength="130.7935" x="635.8452" y="388.3076">droneModelRepository</text><line style="stroke:#181818;stroke-width:1.0;" x1="338.3301" x2="380.3301" y1="432.8613" y2="432.8613"/><line style="stroke:#181818;stroke-width:1.0;" x1="380.3301" x2="380.3301" y1="432.8613" y2="445.8613"/><line style="stroke:#181818;stroke-width:1.0;" x1="339.3301" x2="380.3301" y1="445.8613" y2="445.8613"/><polygon fill="#181818" points="349.3301,441.8613,339.3301,445.8613,349.3301,449.8613,345.3301,445.8613" style="stroke:#181818;stroke-width:1.0;"/><text fill="#000000" font-family="sans-serif" font-size="13" font-weight="bold" lengthAdjust="spacing" textLength="7.23" x="345.3301" y="427.5986">9</text><text fill="#000000" font-family="sans-serif" font-size="13" lengthAdjust="spacing" textLength="132.9517" x="356.5601" y="427.5986">doShowDroneModels()</text><polygon fill="#181818" points="590.6152,473.1523,600.6152,477.1523,590.6152,481.1523,594.6152,477.1523" style="stroke:#181818;stroke-width:1.0;"/><line style="stroke:#181818;stroke-width:1.0;" x1="338.3301" x2="596.6152" y1="477.1523" y2="477.1523"/><text fill="#000000" font-family="sans-serif" font-size="13" font-weight="bold" lengthAdjust="spacing" textLength="14.46" x="345.3301" y="471.8896">10</text><text fill="#000000" font-family="sans-serif" font-size="13" lengthAdjust="spacing" textLength="101.8608" x="363.79" y="471.8896">listDroneModels()</text><polygon fill="#181818" points="1155.8223,504.4434,1165.8223,508.4434,1155.8223,512.4434,1159.8223,508.4434" style="stroke:#181818;stroke-width:1.0;"/><line style="stroke:#181818;stroke-width:1.0;" x1="612.6152" x2="1161.8223" y1="508.4434" y2="508.4434"/><text fill="#000000" font-family="sans-serif" font-size="13" font-weight="bold" lengthAdjust="spacing" textLength="14.46" x="619.6152" y="503.1807">11</text><text fill="#000000" font-family="sans-serif" font-size="13" lengthAdjust="spacing" textLength="44.0654" x="638.0752" y="503.1807">findAll()</text><polygon fill="#181818" points="623.6152,535.7344,613.6152,539.7344,623.6152,543.7344,619.6152,539.7344" style="stroke:#181818;stroke-width:1.0;"/><line style="stroke:#181818;stroke-width:1.0;stroke-dasharray:2.0,2.0;" x1="617.6152" x2="1171.8223" y1="539.7344" y2="539.7344"/><text fill="#000000" font-family="sans-serif" font-size="13" font-weight="bold" lengthAdjust="spacing" textLength="14.46" x="629.6152" y="534.4717">12</text><text fill="#000000" font-family="sans-serif" font-size="13" lengthAdjust="spacing" textLength="95.3862" x="648.0752" y="534.4717">droneModelsList</text><polygon fill="#181818" points="349.3301,567.0254,339.3301,571.0254,349.3301,575.0254,345.3301,571.0254" style="stroke:#181818;stroke-width:1.0;"/><line style="stroke:#181818;stroke-width:1.0;" x1="343.3301" x2="606.6152" y1="571.0254" y2="571.0254"/><text fill="#000000" font-family="sans-serif" font-size="13" font-weight="bold" lengthAdjust="spacing" textLength="14.46" x="355.3301" y="565.7627">13</text><text fill="#000000" font-family="sans-serif" font-size="13" lengthAdjust="spacing" textLength="221.8252" x="373.79" y="565.7627">displayDroneModels(droneModelsList)</text><polygon fill="#181818" points="60.5723,598.3164,50.5723,602.3164,60.5723,606.3164,56.5723,602.3164" style="stroke:#181818;stroke-width:1.0;"/><line style="stroke:#181818;stroke-width:1.0;" x1="54.5723" x2="327.3301" y1="602.3164" y2="602.3164"/><text fill="#000000" font-family="sans-serif" font-size="13" font-weight="bold" lengthAdjust="spacing" textLength="14.46" x="66.5723" y="597.0537">14</text><text fill="#000000" font-family="sans-serif" font-size="13" lengthAdjust="spacing" textLength="153.1816" x="85.0322" y="597.0537">shows list of drone models</text><polygon fill="#181818" points="321.3301,629.6074,331.3301,633.6074,321.3301,637.6074,325.3301,633.6074" style="stroke:#181818;stroke-width:1.0;"/><line style="stroke:#181818;stroke-width:1.0;" x1="49.5723" x2="327.3301" y1="633.6074" y2="633.6074"/><text fill="#000000" font-family="sans-serif" font-size="13" font-weight="bold" lengthAdjust="spacing" textLength="14.46" x="56.5723" y="628.3447">15</text><text fill="#000000" font-family="sans-serif" font-size="13" lengthAdjust="spacing" textLength="236.2979" x="75.0322" y="628.3447">select drone model and ask to list drones</text><polygon fill="#181818" points="590.6152,660.8984,600.6152,664.8984,590.6152,668.8984,594.6152,664.8984" style="stroke:#181818;stroke-width:1.0;"/><line style="stroke:#181818;stroke-width:1.0;" x1="343.3301" x2="596.6152" y1="664.8984" y2="664.8984"/><text fill="#000000" font-family="sans-serif" font-size="13" font-weight="bold" lengthAdjust="spacing" textLength="14.46" x="350.3301" y="659.6357">16</text><text fill="#000000" font-family="sans-serif" font-size="13" lengthAdjust="spacing" textLength="36.1309" x="368.79" y="659.6357">create</text><line style="stroke:#181818;stroke-width:1.0;" x1="612.6152" x2="659.6152" y1="691.1895" y2="691.1895"/><line style="stroke:#181818;stroke-width:1.0;" x1="659.6152" x2="659.6152" y1="691.1895" y2="704.1895"/><line style="stroke:#181818;stroke-width:1.0;" x1="618.6152" x2="659.6152" y1="704.1895" y2="704.1895"/><polygon fill="#181818" points="628.6152,700.1895,618.6152,704.1895,628.6152,708.1895,624.6152,704.1895" style="stroke:#181818;stroke-width:1.0;"/><text fill="#000000" font-family="sans-serif" font-size="13" font-weight="bold" lengthAdjust="spacing" textLength="14.46" x="624.6152" y="685.9268">17</text><text fill="#000000" font-family="sans-serif" font-size="13" lengthAdjust="spacing" textLength="124.2744" x="643.0752" y="685.9268">getDroneRepository()</text><polygon fill="#181818" points="911.7334,736.4805,921.7334,740.4805,911.7334,744.4805,915.7334,740.4805" style="stroke:#181818;stroke-width:1.0;"/><line style="stroke:#181818;stroke-width:1.0;" x1="617.6152" x2="917.7334" y1="740.4805" y2="740.4805"/><text fill="#000000" font-family="sans-serif" font-size="13" font-weight="bold" lengthAdjust="spacing" textLength="14.46" x="624.6152" y="735.2178">18</text><text fill="#000000" font-family="sans-serif" font-size="13" lengthAdjust="spacing" textLength="75.8735" x="643.0752" y="735.2178">getInstance()</text><polygon fill="#181818" points="628.6152,767.7715,618.6152,771.7715,628.6152,775.7715,624.6152,771.7715" style="stroke:#181818;stroke-width:1.0;"/><line style="stroke:#181818;stroke-width:1.0;stroke-dasharray:2.0,2.0;" x1="622.6152" x2="927.7334" y1="771.7715" y2="771.7715"/><text fill="#000000" font-family="sans-serif" font-size="13" font-weight="bold" lengthAdjust="spacing" textLength="14.46" x="634.6152" y="766.5088">19</text><text fill="#000000" font-family="sans-serif" font-size="13" lengthAdjust="spacing" textLength="67.1963" x="653.0752" y="766.5088">repositories</text><polygon fill="#181818" points="1017.4365,799.0625,1027.4365,803.0625,1017.4365,807.0625,1021.4365,803.0625" style="stroke:#181818;stroke-width:1.0;"/><line style="stroke:#181818;stroke-width:1.0;" x1="617.6152" x2="1023.4365" y1="803.0625" y2="803.0625"/><text fill="#000000" font-family="sans-serif" font-size="13" font-weight="bold" lengthAdjust="spacing" textLength="14.46" x="624.6152" y="797.7998">20</text><text fill="#000000" font-family="sans-serif" font-size="13" lengthAdjust="spacing" textLength="124.2744" x="643.0752" y="797.7998">getDroneRepository()</text><polygon fill="#181818" points="628.6152,830.3535,618.6152,834.3535,628.6152,838.3535,624.6152,834.3535" style="stroke:#181818;stroke-width:1.0;"/><line style="stroke:#181818;stroke-width:1.0;stroke-dasharray:2.0,2.0;" x1="622.6152" x2="1033.4365" y1="834.3535" y2="834.3535"/><text fill="#000000" font-family="sans-serif" font-size="13" font-weight="bold" lengthAdjust="spacing" textLength="14.46" x="634.6152" y="829.0908">21</text><text fill="#000000" font-family="sans-serif" font-size="13" lengthAdjust="spacing" textLength="95.3862" x="653.0752" y="829.0908">droneRepository</text><line style="stroke:#181818;stroke-width:1.0;stroke-dasharray:2.0,2.0;" x1="617.6152" x2="659.6152" y1="870.6445" y2="870.6445"/><line style="stroke:#181818;stroke-width:1.0;stroke-dasharray:2.0,2.0;" x1="659.6152" x2="659.6152" y1="870.6445" y2="883.6445"/><line style="stroke:#181818;stroke-width:1.0;stroke-dasharray:2.0,2.0;" x1="612.6152" x2="659.6152" y1="883.6445" y2="883.6445"/><polygon fill="#181818" points="622.6152,879.6445,612.6152,883.6445,622.6152,887.6445,618.6152,883.6445" style="stroke:#181818;stroke-width:1.0;"/><text fill="#000000" font-family="sans-serif" font-size="13" font-weight="bold" lengthAdjust="spacing" textLength="14.46" x="624.6152" y="865.3818">22</text><text fill="#000000" font-family="sans-serif" font-size="13" lengthAdjust="spacing" textLength="95.3862" x="643.0752" y="865.3818">droneRepository</text><line style="stroke:#181818;stroke-width:1.0;" x1="343.3301" x2="385.3301" y1="909.9355" y2="909.9355"/><line style="stroke:#181818;stroke-width:1.0;" x1="385.3301" x2="385.3301" y1="909.9355" y2="922.9355"/><line style="stroke:#181818;stroke-width:1.0;" x1="344.3301" x2="385.3301" y1="922.9355" y2="922.9355"/><polygon fill="#181818" points="354.3301,918.9355,344.3301,922.9355,354.3301,926.9355,350.3301,922.9355" style="stroke:#181818;stroke-width:1.0;"/><text fill="#000000" font-family="sans-serif" font-size="13" font-weight="bold" lengthAdjust="spacing" textLength="14.46" x="350.3301" y="904.6729">23</text><text fill="#000000" font-family="sans-serif" font-size="13" lengthAdjust="spacing" textLength="97.5444" x="368.79" y="904.6729">doShowDrones()</text><polygon fill="#181818" points="590.6152,950.2266,600.6152,954.2266,590.6152,958.2266,594.6152,954.2266" style="stroke:#181818;stroke-width:1.0;"/><line style="stroke:#181818;stroke-width:1.0;" x1="343.3301" x2="596.6152" y1="954.2266" y2="954.2266"/><text fill="#000000" font-family="sans-serif" font-size="13" font-weight="bold" lengthAdjust="spacing" textLength="14.46" x="350.3301" y="948.9639">24</text><text fill="#000000" font-family="sans-serif" font-size="13" lengthAdjust="spacing" textLength="196.5298" x="368.79" y="948.9639">listDrones(selectedDroneModelId)</text><polygon fill="#181818" points="1307.8252,981.5176,1317.8252,985.5176,1307.8252,989.5176,1311.8252,985.5176" style="stroke:#181818;stroke-width:1.0;"/><line style="stroke:#181818;stroke-width:1.0;" x1="612.6152" x2="1313.8252" y1="985.5176" y2="985.5176"/><text fill="#000000" font-family="sans-serif" font-size="13" font-weight="bold" lengthAdjust="spacing" textLength="14.46" x="619.6152" y="980.2549">25</text><text fill="#000000" font-family="sans-serif" font-size="13" lengthAdjust="spacing" textLength="503.2676" x="638.0752" y="980.2549">findAllActiveByModelOrderedBySerialNumber(selectedDroneModelId, status=available)</text><polygon fill="#181818" points="623.6152,1012.8086,613.6152,1016.8086,623.6152,1020.8086,619.6152,1016.8086" style="stroke:#181818;stroke-width:1.0;"/><line style="stroke:#181818;stroke-width:1.0;stroke-dasharray:2.0,2.0;" x1="617.6152" x2="1323.8252" y1="1016.8086" y2="1016.8086"/><text fill="#000000" font-family="sans-serif" font-size="13" font-weight="bold" lengthAdjust="spacing" textLength="14.46" x="629.6152" y="1011.5459">26</text><text fill="#000000" font-family="sans-serif" font-size="13" lengthAdjust="spacing" textLength="71.519" x="648.0752" y="1011.5459">listOfDrones</text><polygon fill="#181818" points="354.3301,1044.0996,344.3301,1048.0996,354.3301,1052.0996,350.3301,1048.0996" style="stroke:#181818;stroke-width:1.0;"/><line style="stroke:#181818;stroke-width:1.0;" x1="348.3301" x2="606.6152" y1="1048.0996" y2="1048.0996"/><text fill="#000000" font-family="sans-serif" font-size="13" font-weight="bold" lengthAdjust="spacing" textLength="14.46" x="360.3301" y="1042.8369">27</text><text fill="#000000" font-family="sans-serif" font-size="13" lengthAdjust="spacing" textLength="162.5508" x="378.79" y="1042.8369">displayDrones(listOfDrones)</text><polygon fill="#181818" points="55.5723,1075.3906,45.5723,1079.3906,55.5723,1083.3906,51.5723,1079.3906" style="stroke:#181818;stroke-width:1.0;"/><line style="stroke:#181818;stroke-width:1.0;" x1="49.5723" x2="327.3301" y1="1079.3906" y2="1079.3906"/><text fill="#000000" font-family="sans-serif" font-size="13" font-weight="bold" lengthAdjust="spacing" textLength="14.46" x="61.5723" y="1074.1279">28</text><text fill="#000000" font-family="sans-serif" font-size="13" lengthAdjust="spacing" textLength="114.1626" x="80.0322" y="1074.1279">shows list of drones</text><!--SRC=[xLR1Zjem4BtdAqQSMAdx0v5QYOLB9DgjDd3hnPiCO65iQXjG_hvZ1n8xCIhIRc_DQUEyz_p6Cy-isNDvP9eTuA2agdPQ7H2iFc5ckYz7LktP5alR20IDbMLoAqA0sR5QNRZSmeO9WrbckINeke0IVvzGLWWBphOEEYqNJ_0CIsuiBBIIQ81Bi3k4GfvHMgMRB6Cdg-Jfy8wQ_gve3IOU2okiTXDW1chtwjuoSc1vnOzCMfZaJhULBMGdk2uyPrqy0fuhQRKI0hKdpLTlovZcj-vHlsI-Y5TwWtEhnM3FDpmgmsaZZiO3kuMcvEvOgVAOeWC6RJOI-BcShH8ElwiQHIz-ipbORhqUt492OqmVCZtHzOYVcSMWBHdGqxt2ypSt3Jbnzc0L2DT-_vN6ZWmP3-zag5D-WIX4T2qWQgMHliL0tns_v1uFx0bRjAcIfqyTuOvEg9LeJojTI4Cvg32GYoHJVOsGxacfFryho27iV4IjyV5jReMuCNdeKA8g_72DR7kjtcTgtkxvzO9ZVttNac9PGYdkMJigwu84LBbJbxv8GxKDOArjSOj_1nkUMHkC73PSrZCXKfDppKvKhLzAdeznLqwgc87CpO2lXvkZO4teT21uhIzvDct1VH1pkgpLnRG9L9iuX7T2Qr3GfHz2WSbwdEL_ckB_0Ou3_9dP_QpOVZonVm-hcRRZY7MVYA9EP3UAxinvm9V6mrzrZHhhbwP4pPduuV_JICf-0PeHUp9VsPbnmTu5fgw0yGqmk02S-TVDei_8CFqFXTzCGvqFXvxY7f0fhA6XxdVy3m00]--></g></svg>