<svg xmlns="http://www.w3.org/2000/svg" xmlns:xlink="http://www.w3.org/1999/xlink" contentStyleType="text/css" height="1786px" preserveAspectRatio="none" style="width:2392px;height:1786px;background:#FFFFFF;" version="1.1" viewBox="0 0 2392 1786" width="2392px" zoomAndPan="magnify"><title>UI Sequence Diagram (SD) - List Drones in the Inventory</title><defs/><g><text fill="#000000" font-family="sans-serif" font-size="14" font-weight="bold" lengthAdjust="spacing" textLength="374.1787" x="1009.9651" y="30.1074">UI Sequence Diagram (SD) - List Drones in the Inventory</text><rect fill="#FFFFFF" height="455.6953" style="stroke:#181818;stroke-width:1.0;" width="10" x="74.5723" y="133.2422"/><rect fill="#FFFFFF" height="432.4043" style="stroke:#181818;stroke-width:1.0;" width="10" x="556.1821" y="156.5332"/><rect fill="#FFFFFF" height="299.9102" style="stroke:#181818;stroke-width:1.0;" width="10" x="830.3608" y="231.4453"/><rect fill="#FFFFFF" height="93.873" style="stroke:#181818;stroke-width:1.0;" width="10" x="830.3608" y="896.5176"/><rect fill="#FFFFFF" height="299.9102" style="stroke:#181818;stroke-width:1.0;" width="10" x="1005.7017" y="1281.0488"/><rect fill="#FFFFFF" height="52.2422" style="stroke:#181818;stroke-width:1.0;" width="10" x="1258.2778" y="272.7363"/><rect fill="#FFFFFF" height="52.2422" style="stroke:#181818;stroke-width:1.0;" width="10" x="1258.2778" y="1322.3398"/><rect fill="#FFFFFF" height="31.291" style="stroke:#181818;stroke-width:1.0;" width="10" x="1417.2808" y="927.8086"/><rect fill="#FFFFFF" height="31.291" style="stroke:#181818;stroke-width:1.0;" width="10" x="1750.459" y="382.5605"/><rect fill="#FFFFFF" height="31.291" style="stroke:#181818;stroke-width:1.0;" width="10" x="1962.3687" y="461.7734"/><rect fill="#FFFFFF" height="31.291" style="stroke:#181818;stroke-width:1.0;" width="10" x="2155.2129" y="1432.1641"/><rect fill="#FFFFFF" height="31.291" style="stroke:#181818;stroke-width:1.0;" width="10" x="2307.9814" y="1511.377"/><rect fill="none" height="161.0859" style="stroke:#000000;stroke-width:1.5;" width="1336.4141" x="733.1577" y="339.9785"/><rect fill="none" height="1140.4766" style="stroke:#000000;stroke-width:1.5;" width="2375.1089" x="10" y="546.3555"/><rect fill="none" height="538.6172" style="stroke:#000000;stroke-width:1.5;" width="1492.8149" x="20" y="668.5195"/><rect fill="none" height="194.7461" style="stroke:#000000;stroke-width:1.5;" width="820.3608" x="30" y="1005.3906"/><rect fill="none" height="65.582" style="stroke:#000000;stroke-width:1.5;" width="357.644" x="482.7168" y="1127.5547"/><rect fill="none" height="161.0859" style="stroke:#000000;stroke-width:1.5;" width="1447.5449" x="927.564" y="1389.582"/><rect fill="none" height="83.873" style="stroke:#000000;stroke-width:1.5;" width="609.6475" x="30" y="1595.959"/><line style="stroke:#181818;stroke-width:0.5;stroke-dasharray:5.0,5.0;" x1="79" x2="79" y1="123.2422" y2="1703.832"/><line style="stroke:#181818;stroke-width:0.5;stroke-dasharray:5.0,5.0;" x1="560.7168" x2="560.7168" y1="123.2422" y2="1703.832"/><line style="stroke:#181818;stroke-width:0.5;stroke-dasharray:5.0,5.0;" x1="835.1577" x2="835.1577" y1="861.416" y2="1703.832"/><line style="stroke:#181818;stroke-width:0.5;stroke-dasharray:5.0,5.0;" x1="1010.564" x2="1010.564" y1="1245.9473" y2="1703.832"/><line style="stroke:#181818;stroke-width:0.5;stroke-dasharray:5.0,5.0;" x1="1262.8091" x2="1262.8091" y1="1330.1699" y2="1703.832"/><line style="stroke:#181818;stroke-width:0.5;stroke-dasharray:5.0,5.0;" x1="1421.7466" x2="1421.7466" y1="123.2422" y2="1703.832"/><line style="stroke:#181818;stroke-width:0.5;stroke-dasharray:5.0,5.0;" x1="1573.8149" x2="1573.8149" y1="123.2422" y2="1703.832"/><line style="stroke:#181818;stroke-width:0.5;stroke-dasharray:5.0,5.0;" x1="1754.7524" x2="1754.7524" y1="123.2422" y2="1703.832"/><line style="stroke:#181818;stroke-width:0.5;stroke-dasharray:5.0,5.0;" x1="1967.1655" x2="1967.1655" y1="123.2422" y2="1703.832"/><line style="stroke:#181818;stroke-width:0.5;stroke-dasharray:5.0,5.0;" x1="2159.5718" x2="2159.5718" y1="123.2422" y2="1703.832"/><line style="stroke:#181818;stroke-width:0.5;stroke-dasharray:5.0,5.0;" x1="2312.854" x2="2312.854" y1="123.2422" y2="1703.832"/><text fill="#000000" font-family="sans-serif" font-size="14" lengthAdjust="spacing" textLength="73.1445" x="40" y="119.7285">Drone Tech</text><ellipse cx="79.5723" cy="53.1211" fill="#E3E3E3" rx="8" ry="8" style="stroke:#181818;stroke-width:0.5;"/><path d="M79.5723,61.1211 L79.5723,88.1211 M66.5723,69.1211 L92.5723,69.1211 M79.5723,88.1211 L66.5723,103.1211 M79.5723,88.1211 L92.5723,103.1211 " fill="none" style="stroke:#181818;stroke-width:0.5;"/><text fill="#000000" font-family="sans-serif" font-size="14" lengthAdjust="spacing" textLength="73.1445" x="40" y="1717.9395">Drone Tech</text><ellipse cx="79.5723" cy="1729.9531" fill="#E3E3E3" rx="8" ry="8" style="stroke:#181818;stroke-width:0.5;"/><path d="M79.5723,1737.9531 L79.5723,1764.9531 M66.5723,1745.9531 L92.5723,1745.9531 M79.5723,1764.9531 L66.5723,1779.9531 M79.5723,1764.9531 L92.5723,1779.9531 " fill="none" style="stroke:#181818;stroke-width:0.5;"/><rect fill="#E3E3E3" height="32.6211" rx="2.5" ry="2.5" style="stroke:#181818;stroke-width:0.5;" width="136.9307" x="492.7168" y="89.6211"/><text fill="#000000" font-family="sans-serif" font-size="14" lengthAdjust="spacing" textLength="122.9307" x="499.7168" y="111.7285">:ListActiveDronesUI</text><rect fill="#E3E3E3" height="32.6211" rx="2.5" ry="2.5" style="stroke:#181818;stroke-width:0.5;" width="136.9307" x="492.7168" y="1702.832"/><text fill="#000000" font-family="sans-serif" font-size="14" lengthAdjust="spacing" textLength="122.9307" x="499.7168" y="1724.9395">:ListActiveDronesUI</text><rect fill="#E3E3E3" height="32.6211" rx="2.5" ry="2.5" style="stroke:#181818;stroke-width:0.5;" width="184.4063" x="743.1577" y="1702.832"/><text fill="#000000" font-family="sans-serif" font-size="14" lengthAdjust="spacing" textLength="170.4063" x="750.1577" y="1724.9395">:GetDroneModelsController</text><rect fill="#E3E3E3" height="32.6211" rx="2.5" ry="2.5" style="stroke:#181818;stroke-width:0.5;" width="146.2754" x="937.564" y="1702.832"/><text fill="#000000" font-family="sans-serif" font-size="14" lengthAdjust="spacing" textLength="132.2754" x="944.564" y="1724.9395">:GetDronesController</text><rect fill="#E3E3E3" height="51.2422" rx="2.5" ry="2.5" style="stroke:#181818;stroke-width:0.5;" width="136.9375" x="1194.8091" y="1702.832"/><text fill="#000000" font-family="sans-serif" font-size="14" lengthAdjust="spacing" textLength="113.5996" x="1206.478" y="1724.9395">repositoryProvider</text><text fill="#000000" font-family="sans-serif" font-size="14" lengthAdjust="spacing" textLength="122.9375" x="1201.8091" y="1743.5605">:RepositoryProvider</text><rect fill="#E3E3E3" height="51.2422" rx="2.5" ry="2.5" style="stroke:#181818;stroke-width:0.5;" width="161.0684" x="1341.7466" y="71"/><text fill="#000000" font-family="sans-serif" font-size="14" lengthAdjust="spacing" textLength="143.1787" x="1350.6914" y="93.1074">DroneModelRepository</text><text fill="#000000" font-family="sans-serif" font-size="14" lengthAdjust="spacing" textLength="147.0684" x="1348.7466" y="111.7285">:DroneModelRepository</text><rect fill="#E3E3E3" height="51.2422" rx="2.5" ry="2.5" style="stroke:#181818;stroke-width:0.5;" width="161.0684" x="1341.7466" y="1702.832"/><text fill="#000000" font-family="sans-serif" font-size="14" lengthAdjust="spacing" textLength="143.1787" x="1350.6914" y="1724.9395">DroneModelRepository</text><text fill="#000000" font-family="sans-serif" font-size="14" lengthAdjust="spacing" textLength="147.0684" x="1348.7466" y="1743.5605">:DroneModelRepository</text><rect fill="#E3E3E3" height="51.2422" rx="2.5" ry="2.5" style="stroke:#181818;stroke-width:0.5;" width="122.9375" x="1512.8149" y="71"/><text fill="#000000" font-family="sans-serif" font-size="14" lengthAdjust="spacing" textLength="105.0479" x="1521.7598" y="93.1074">DroneRepository</text><text fill="#000000" font-family="sans-serif" font-size="14" lengthAdjust="spacing" textLength="108.9375" x="1519.8149" y="111.7285">:DroneRepository</text><rect fill="#E3E3E3" height="51.2422" rx="2.5" ry="2.5" style="stroke:#181818;stroke-width:0.5;" width="122.9375" x="1512.8149" y="1702.832"/><text fill="#000000" font-family="sans-serif" font-size="14" lengthAdjust="spacing" textLength="105.0479" x="1521.7598" y="1724.9395">DroneRepository</text><text fill="#000000" font-family="sans-serif" font-size="14" lengthAdjust="spacing" textLength="108.9375" x="1519.8149" y="1743.5605">:DroneRepository</text><rect fill="#E3E3E3" height="32.6211" rx="2.5" ry="2.5" style="stroke:#181818;stroke-width:0.5;" width="219.4131" x="1645.7524" y="89.6211"/><text fill="#000000" font-family="sans-serif" font-size="14" lengthAdjust="spacing" textLength="205.4131" x="1652.7524" y="111.7285">InMemoryDroneModelRepository</text><rect fill="#E3E3E3" height="32.6211" rx="2.5" ry="2.5" style="stroke:#181818;stroke-width:0.5;" width="219.4131" x="1645.7524" y="1702.832"/><text fill="#000000" font-family="sans-serif" font-size="14" lengthAdjust="spacing" textLength="205.4131" x="1652.7524" y="1724.9395">InMemoryDroneModelRepository</text><rect fill="#E3E3E3" height="32.6211" rx="2.5" ry="2.5" style="stroke:#181818;stroke-width:0.5;" width="184.4063" x="1875.1655" y="89.6211"/><text fill="#000000" font-family="sans-serif" font-size="14" lengthAdjust="spacing" textLength="170.4063" x="1882.1655" y="111.7285">CreateDroneModelJPAImpl</text><rect fill="#E3E3E3" height="32.6211" rx="2.5" ry="2.5" style="stroke:#181818;stroke-width:0.5;" width="184.4063" x="1875.1655" y="1702.832"/><text fill="#000000" font-family="sans-serif" font-size="14" lengthAdjust="spacing" textLength="170.4063" x="1882.1655" y="1724.9395">CreateDroneModelJPAImpl</text><rect fill="#E3E3E3" height="32.6211" rx="2.5" ry="2.5" style="stroke:#181818;stroke-width:0.5;" width="181.2822" x="2069.5718" y="89.6211"/><text fill="#000000" font-family="sans-serif" font-size="14" lengthAdjust="spacing" textLength="167.2822" x="2076.5718" y="111.7285">InMemoryDroneRepository</text><rect fill="#E3E3E3" height="32.6211" rx="2.5" ry="2.5" style="stroke:#181818;stroke-width:0.5;" width="181.2822" x="2069.5718" y="1702.832"/><text fill="#000000" font-family="sans-serif" font-size="14" lengthAdjust="spacing" textLength="167.2822" x="2076.5718" y="1724.9395">InMemoryDroneRepository</text><rect fill="#E3E3E3" height="32.6211" rx="2.5" ry="2.5" style="stroke:#181818;stroke-width:0.5;" width="104.2549" x="2260.854" y="89.6211"/><text fill="#000000" font-family="sans-serif" font-size="14" lengthAdjust="spacing" textLength="90.2549" x="2267.854" y="111.7285">DroneJPAImpl</text><rect fill="#E3E3E3" height="32.6211" rx="2.5" ry="2.5" style="stroke:#181818;stroke-width:0.5;" width="104.2549" x="2260.854" y="1702.832"/><text fill="#000000" font-family="sans-serif" font-size="14" lengthAdjust="spacing" textLength="90.2549" x="2267.854" y="1724.9395">DroneJPAImpl</text><rect fill="#FFFFFF" height="455.6953" style="stroke:#181818;stroke-width:1.0;" width="10" x="74.5723" y="133.2422"/><rect fill="#FFFFFF" height="432.4043" style="stroke:#181818;stroke-width:1.0;" width="10" x="556.1821" y="156.5332"/><rect fill="#FFFFFF" height="299.9102" style="stroke:#181818;stroke-width:1.0;" width="10" x="830.3608" y="231.4453"/><rect fill="#FFFFFF" height="93.873" style="stroke:#181818;stroke-width:1.0;" width="10" x="830.3608" y="896.5176"/><rect fill="#FFFFFF" height="299.9102" style="stroke:#181818;stroke-width:1.0;" width="10" x="1005.7017" y="1281.0488"/><rect fill="#FFFFFF" height="52.2422" style="stroke:#181818;stroke-width:1.0;" width="10" x="1258.2778" y="272.7363"/><rect fill="#FFFFFF" height="52.2422" style="stroke:#181818;stroke-width:1.0;" width="10" x="1258.2778" y="1322.3398"/><rect fill="#FFFFFF" height="31.291" style="stroke:#181818;stroke-width:1.0;" width="10" x="1417.2808" y="927.8086"/><rect fill="#FFFFFF" height="31.291" style="stroke:#181818;stroke-width:1.0;" width="10" x="1750.459" y="382.5605"/><rect fill="#FFFFFF" height="31.291" style="stroke:#181818;stroke-width:1.0;" width="10" x="1962.3687" y="461.7734"/><rect fill="#FFFFFF" height="31.291" style="stroke:#181818;stroke-width:1.0;" width="10" x="2155.2129" y="1432.1641"/><rect fill="#FFFFFF" height="31.291" style="stroke:#181818;stroke-width:1.0;" width="10" x="2307.9814" y="1511.377"/><polygon fill="#181818" points="544.1821,152.5332,554.1821,156.5332,544.1821,160.5332,548.1821,156.5332" style="stroke:#181818;stroke-width:1.0;"/><line style="stroke:#181818;stroke-width:1.0;" x1="84.5723" x2="550.1821" y1="156.5332" y2="156.5332"/><text fill="#000000" font-family="sans-serif" font-size="13" font-weight="bold" lengthAdjust="spacing" textLength="7.23" x="91.5723" y="151.2705">1</text><text fill="#000000" font-family="sans-serif" font-size="13" lengthAdjust="spacing" textLength="218.9497" x="102.8022" y="151.2705">requests to list drones in the inventory</text><polygon fill="#181818" points="731.1577,183.8242,741.1577,187.8242,731.1577,191.8242,735.1577,187.8242" style="stroke:#181818;stroke-width:1.0;"/><line style="stroke:#181818;stroke-width:1.0;" x1="566.1821" x2="737.1577" y1="187.8242" y2="187.8242"/><text fill="#000000" font-family="sans-serif" font-size="13" font-weight="bold" lengthAdjust="spacing" textLength="7.23" x="573.1821" y="182.5615">2</text><text fill="#000000" font-family="sans-serif" font-size="13" lengthAdjust="spacing" textLength="36.1309" x="584.4121" y="182.5615">create</text><rect fill="#E3E3E3" height="32.6211" rx="2.5" ry="2.5" style="stroke:#181818;stroke-width:0.5;" width="184.4063" x="743.1577" y="164.5332"/><text fill="#000000" font-family="sans-serif" font-size="14" lengthAdjust="spacing" textLength="170.4063" x="750.1577" y="186.6406">:GetDroneModelsController</text><polygon fill="#181818" points="818.3608,227.4453,828.3608,231.4453,818.3608,235.4453,822.3608,231.4453" style="stroke:#181818;stroke-width:1.0;"/><line style="stroke:#181818;stroke-width:1.0;" x1="566.1821" x2="824.3608" y1="231.4453" y2="231.4453"/><text fill="#000000" font-family="sans-serif" font-size="13" font-weight="bold" lengthAdjust="spacing" textLength="7.23" x="573.1821" y="226.1826">3</text><text fill="#000000" font-family="sans-serif" font-size="13" lengthAdjust="spacing" textLength="83.0845" x="584.4121" y="226.1826">getAllModels()</text><polygon fill="#181818" points="1182.8091,258.7363,1192.8091,262.7363,1182.8091,266.7363,1186.8091,262.7363" style="stroke:#181818;stroke-width:1.0;"/><line style="stroke:#181818;stroke-width:1.0;" x1="840.3608" x2="1188.8091" y1="262.7363" y2="262.7363"/><text fill="#000000" font-family="sans-serif" font-size="13" font-weight="bold" lengthAdjust="spacing" textLength="7.23" x="847.3608" y="257.4736">4</text><text fill="#000000" font-family="sans-serif" font-size="13" lengthAdjust="spacing" textLength="139.4517" x="858.5908" y="257.4736">droneModelRepository()</text><rect fill="#E3E3E3" height="51.2422" rx="2.5" ry="2.5" style="stroke:#181818;stroke-width:0.5;" width="136.9375" x="1194.8091" y="239.4453"/><text fill="#000000" font-family="sans-serif" font-size="14" lengthAdjust="spacing" textLength="113.5996" x="1206.478" y="261.5527">repositoryProvider</text><text fill="#000000" font-family="sans-serif" font-size="14" lengthAdjust="spacing" textLength="122.9375" x="1201.8091" y="280.1738">:RepositoryProvider</text><polygon fill="#181818" points="851.3608,320.9785,841.3608,324.9785,851.3608,328.9785,847.3608,324.9785" style="stroke:#181818;stroke-width:1.0;"/><line style="stroke:#181818;stroke-width:1.0;stroke-dasharray:2.0,2.0;" x1="845.3608" x2="1262.2778" y1="324.9785" y2="324.9785"/><text fill="#000000" font-family="sans-serif" font-size="13" font-weight="bold" lengthAdjust="spacing" textLength="7.23" x="857.3608" y="319.7158">5</text><text fill="#000000" font-family="sans-serif" font-size="13" lengthAdjust="spacing" textLength="200.1162" x="868.5908" y="319.7158">repository (dynamic: inMem or jpa)</text><path d="M733.1577,339.9785 L793.3286,339.9785 L793.3286,349.2695 L783.3286,359.2695 L733.1577,359.2695 L733.1577,339.9785 " fill="#EEEEEE" style="stroke:#000000;stroke-width:1.5;"/><rect fill="none" height="161.0859" style="stroke:#000000;stroke-width:1.5;" width="1336.4141" x="733.1577" y="339.9785"/><text fill="#000000" font-family="sans-serif" font-size="13" font-weight="bold" lengthAdjust="spacing" textLength="15.1709" x="748.1577" y="355.0068">alt</text><text fill="#000000" font-family="sans-serif" font-size="11" font-weight="bold" lengthAdjust="spacing" textLength="253.0322" x="808.3286" y="353.8486">[Repository is InMemoryDroneModelRepository]</text><polygon fill="#181818" points="1738.459,378.5605,1748.459,382.5605,1738.459,386.5605,1742.459,382.5605" style="stroke:#181818;stroke-width:1.0;"/><line style="stroke:#181818;stroke-width:1.0;" x1="840.3608" x2="1744.459" y1="382.5605" y2="382.5605"/><text fill="#000000" font-family="sans-serif" font-size="13" font-weight="bold" lengthAdjust="spacing" textLength="7.23" x="847.3608" y="377.2979">6</text><text fill="#000000" font-family="sans-serif" font-size="13" lengthAdjust="spacing" textLength="44.0654" x="858.5908" y="377.2979">findAll()</text><polygon fill="#181818" points="851.3608,409.8516,841.3608,413.8516,851.3608,417.8516,847.3608,413.8516" style="stroke:#181818;stroke-width:1.0;"/><line style="stroke:#181818;stroke-width:1.0;stroke-dasharray:2.0,2.0;" x1="845.3608" x2="1754.459" y1="413.8516" y2="413.8516"/><text fill="#000000" font-family="sans-serif" font-size="13" font-weight="bold" lengthAdjust="spacing" textLength="7.23" x="857.3608" y="408.5889">7</text><text fill="#000000" font-family="sans-serif" font-size="13" lengthAdjust="spacing" textLength="95.3862" x="868.5908" y="408.5889">droneModelsList</text><line style="stroke:#000000;stroke-width:1.0;stroke-dasharray:2.0,2.0;" x1="733.1577" x2="2069.5718" y1="422.8516" y2="422.8516"/><text fill="#000000" font-family="sans-serif" font-size="11" font-weight="bold" lengthAdjust="spacing" textLength="221.8745" x="738.1577" y="434.7217">[Repository is CreateDroneModelJPAImpl]</text><polygon fill="#181818" points="1950.3687,457.7734,1960.3687,461.7734,1950.3687,465.7734,1954.3687,461.7734" style="stroke:#181818;stroke-width:1.0;"/><line style="stroke:#181818;stroke-width:1.0;" x1="840.3608" x2="1956.3687" y1="461.7734" y2="461.7734"/><text fill="#000000" font-family="sans-serif" font-size="13" font-weight="bold" lengthAdjust="spacing" textLength="7.23" x="847.3608" y="456.5107">8</text><text fill="#000000" font-family="sans-serif" font-size="13" lengthAdjust="spacing" textLength="44.0654" x="858.5908" y="456.5107">findAll()</text><polygon fill="#181818" points="851.3608,489.0645,841.3608,493.0645,851.3608,497.0645,847.3608,493.0645" style="stroke:#181818;stroke-width:1.0;"/><line style="stroke:#181818;stroke-width:1.0;stroke-dasharray:2.0,2.0;" x1="845.3608" x2="1966.3687" y1="493.0645" y2="493.0645"/><text fill="#000000" font-family="sans-serif" font-size="13" font-weight="bold" lengthAdjust="spacing" textLength="7.23" x="857.3608" y="487.8018">9</text><text fill="#000000" font-family="sans-serif" font-size="13" lengthAdjust="spacing" textLength="95.3862" x="868.5908" y="487.8018">droneModelsList</text><polygon fill="#181818" points="577.1821,527.3555,567.1821,531.3555,577.1821,535.3555,573.1821,531.3555" style="stroke:#181818;stroke-width:1.0;"/><line style="stroke:#181818;stroke-width:1.0;stroke-dasharray:2.0,2.0;" x1="571.1821" x2="834.3608" y1="531.3555" y2="531.3555"/><text fill="#000000" font-family="sans-serif" font-size="13" font-weight="bold" lengthAdjust="spacing" textLength="14.46" x="583.1821" y="526.0928">10</text><text fill="#000000" font-family="sans-serif" font-size="13" lengthAdjust="spacing" textLength="158.9897" x="601.6421" y="526.0928">Optional&lt;droneModelsList&gt;</text><path d="M10,546.3555 L70.1709,546.3555 L70.1709,555.6465 L60.1709,565.6465 L10,565.6465 L10,546.3555 " fill="#EEEEEE" style="stroke:#000000;stroke-width:1.5;"/><rect fill="none" height="1140.4766" style="stroke:#000000;stroke-width:1.5;" width="2375.1089" x="10" y="546.3555"/><text fill="#000000" font-family="sans-serif" font-size="13" font-weight="bold" lengthAdjust="spacing" textLength="15.1709" x="25" y="561.3838">alt</text><text fill="#000000" font-family="sans-serif" font-size="11" font-weight="bold" lengthAdjust="spacing" textLength="143.0161" x="85.1709" y="560.2256">[droneModelsList is empty]</text><polygon fill="#181818" points="90.5723,584.9375,80.5723,588.9375,90.5723,592.9375,86.5723,588.9375" style="stroke:#181818;stroke-width:1.0;"/><line style="stroke:#181818;stroke-width:1.0;stroke-dasharray:2.0,2.0;" x1="84.5723" x2="560.1821" y1="588.9375" y2="588.9375"/><text fill="#000000" font-family="sans-serif" font-size="13" font-weight="bold" lengthAdjust="spacing" textLength="14.46" x="96.5723" y="583.6748">11</text><text fill="#000000" font-family="sans-serif" font-size="13" lengthAdjust="spacing" textLength="316.291" x="115.0322" y="583.6748">error message ("No drone models in the system yet...")</text><line style="stroke:#000000;stroke-width:1.0;stroke-dasharray:2.0,2.0;" x1="10" x2="2385.1089" y1="597.9375" y2="597.9375"/><polygon fill="#181818" points="90.5723,618.2285,80.5723,622.2285,90.5723,626.2285,86.5723,622.2285" style="stroke:#181818;stroke-width:1.0;"/><line style="stroke:#181818;stroke-width:1.0;" x1="84.5723" x2="560.1821" y1="622.2285" y2="622.2285"/><text fill="#000000" font-family="sans-serif" font-size="13" font-weight="bold" lengthAdjust="spacing" textLength="14.46" x="96.5723" y="616.9658">12</text><text fill="#000000" font-family="sans-serif" font-size="13" lengthAdjust="spacing" textLength="168.3652" x="115.0322" y="616.9658">showSelectionMethodMenu()</text><polygon fill="#181818" points="549.1821,649.5195,559.1821,653.5195,549.1821,657.5195,553.1821,653.5195" style="stroke:#181818;stroke-width:1.0;"/><line style="stroke:#181818;stroke-width:1.0;" x1="79.5723" x2="555.1821" y1="653.5195" y2="653.5195"/><text fill="#000000" font-family="sans-serif" font-size="13" font-weight="bold" lengthAdjust="spacing" textLength="14.46" x="86.5723" y="648.2568">13</text><text fill="#000000" font-family="sans-serif" font-size="13" lengthAdjust="spacing" textLength="85.979" x="105.0322" y="648.2568">selectMethod()</text><path d="M20,668.5195 L80.1709,668.5195 L80.1709,677.8105 L70.1709,687.8105 L20,687.8105 L20,668.5195 " fill="#EEEEEE" style="stroke:#000000;stroke-width:1.5;"/><rect fill="none" height="538.6172" style="stroke:#000000;stroke-width:1.5;" width="1492.8149" x="20" y="668.5195"/><text fill="#000000" font-family="sans-serif" font-size="13" font-weight="bold" lengthAdjust="spacing" textLength="15.1709" x="35" y="683.5479">alt</text><text fill="#000000" font-family="sans-serif" font-size="11" font-weight="bold" lengthAdjust="spacing" textLength="177.8906" x="95.1709" y="682.3896">[option is "Select a Drone Model"]</text><polygon fill="#181818" points="90.5723,707.1016,80.5723,711.1016,90.5723,715.1016,86.5723,711.1016" style="stroke:#181818;stroke-width:1.0;"/><line style="stroke:#181818;stroke-width:1.0;" x1="84.5723" x2="560.1821" y1="711.1016" y2="711.1016"/><text fill="#000000" font-family="sans-serif" font-size="13" font-weight="bold" lengthAdjust="spacing" textLength="14.46" x="96.5723" y="705.8389">14</text><text fill="#000000" font-family="sans-serif" font-size="13" lengthAdjust="spacing" textLength="113.4326" x="115.0322" y="705.8389">selectDroneModel()</text><polygon fill="#181818" points="549.1821,738.3926,559.1821,742.3926,549.1821,746.3926,553.1821,742.3926" style="stroke:#181818;stroke-width:1.0;"/><line style="stroke:#181818;stroke-width:1.0;" x1="79.5723" x2="555.1821" y1="742.3926" y2="742.3926"/><text fill="#000000" font-family="sans-serif" font-size="13" font-weight="bold" lengthAdjust="spacing" textLength="14.46" x="86.5723" y="737.1299">15</text><text fill="#000000" font-family="sans-serif" font-size="13" lengthAdjust="spacing" textLength="77.3271" x="105.0322" y="737.1299">chosenModel</text><line style="stroke:#000000;stroke-width:1.0;stroke-dasharray:2.0,2.0;" x1="20" x2="1512.8149" y1="751.3926" y2="751.3926"/><text fill="#000000" font-family="sans-serif" font-size="11" font-weight="bold" lengthAdjust="spacing" textLength="173.5991" x="25" y="763.2627">[option is "Enter a Drone Model"]</text><polygon fill="#181818" points="90.5723,786.3145,80.5723,790.3145,90.5723,794.3145,86.5723,790.3145" style="stroke:#181818;stroke-width:1.0;"/><line style="stroke:#181818;stroke-width:1.0;" x1="84.5723" x2="560.1821" y1="790.3145" y2="790.3145"/><text fill="#000000" font-family="sans-serif" font-size="13" font-weight="bold" lengthAdjust="spacing" textLength="14.46" x="96.5723" y="785.0518">16</text><text fill="#000000" font-family="sans-serif" font-size="13" lengthAdjust="spacing" textLength="99.7026" x="115.0322" y="785.0518">provideModelID()</text><polygon fill="#181818" points="549.1821,817.6055,559.1821,821.6055,549.1821,825.6055,553.1821,821.6055" style="stroke:#181818;stroke-width:1.0;"/><line style="stroke:#181818;stroke-width:1.0;" x1="79.5723" x2="555.1821" y1="821.6055" y2="821.6055"/><text fill="#000000" font-family="sans-serif" font-size="13" font-weight="bold" lengthAdjust="spacing" textLength="14.46" x="86.5723" y="816.3428">17</text><text fill="#000000" font-family="sans-serif" font-size="13" lengthAdjust="spacing" textLength="48.4072" x="105.0322" y="816.3428">modelID</text><polygon fill="#181818" points="731.1577,848.8965,741.1577,852.8965,731.1577,856.8965,735.1577,852.8965" style="stroke:#181818;stroke-width:1.0;"/><line style="stroke:#181818;stroke-width:1.0;" x1="561.1821" x2="737.1577" y1="852.8965" y2="852.8965"/><text fill="#000000" font-family="sans-serif" font-size="13" font-weight="bold" lengthAdjust="spacing" textLength="14.46" x="568.1821" y="847.6338">18</text><text fill="#000000" font-family="sans-serif" font-size="13" lengthAdjust="spacing" textLength="36.1309" x="586.6421" y="847.6338">create</text><rect fill="#E3E3E3" height="32.6211" rx="2.5" ry="2.5" style="stroke:#181818;stroke-width:0.5;" width="184.4063" x="743.1577" y="829.6055"/><text fill="#000000" font-family="sans-serif" font-size="14" lengthAdjust="spacing" textLength="170.4063" x="750.1577" y="851.7129">:GetDroneModelsController</text><polygon fill="#181818" points="818.3608,892.5176,828.3608,896.5176,818.3608,900.5176,822.3608,896.5176" style="stroke:#181818;stroke-width:1.0;"/><line style="stroke:#181818;stroke-width:1.0;" x1="561.1821" x2="824.3608" y1="896.5176" y2="896.5176"/><text fill="#000000" font-family="sans-serif" font-size="13" font-weight="bold" lengthAdjust="spacing" textLength="14.46" x="568.1821" y="891.2549">19</text><text fill="#000000" font-family="sans-serif" font-size="13" lengthAdjust="spacing" textLength="136.5571" x="586.6421" y="891.2549">getModelById(modelID)</text><polygon fill="#181818" points="1405.2808,923.8086,1415.2808,927.8086,1405.2808,931.8086,1409.2808,927.8086" style="stroke:#181818;stroke-width:1.0;"/><line style="stroke:#181818;stroke-width:1.0;" x1="840.3608" x2="1411.2808" y1="927.8086" y2="927.8086"/><text fill="#000000" font-family="sans-serif" font-size="13" font-weight="bold" lengthAdjust="spacing" textLength="14.46" x="847.3608" y="922.5459">20</text><text fill="#000000" font-family="sans-serif" font-size="13" lengthAdjust="spacing" textLength="177.0107" x="865.8208" y="922.5459">findByDroneModelID(modelID)</text><polygon fill="#181818" points="851.3608,955.0996,841.3608,959.0996,851.3608,963.0996,847.3608,959.0996" style="stroke:#181818;stroke-width:1.0;"/><line style="stroke:#181818;stroke-width:1.0;stroke-dasharray:2.0,2.0;" x1="845.3608" x2="1421.2808" y1="959.0996" y2="959.0996"/><text fill="#000000" font-family="sans-serif" font-size="13" font-weight="bold" lengthAdjust="spacing" textLength="14.46" x="857.3608" y="953.8369">21</text><text fill="#000000" font-family="sans-serif" font-size="13" lengthAdjust="spacing" textLength="134.418" x="875.8208" y="953.8369">Optional&lt;DroneModel&gt;</text><polygon fill="#181818" points="572.1821,986.3906,562.1821,990.3906,572.1821,994.3906,568.1821,990.3906" style="stroke:#181818;stroke-width:1.0;"/><line style="stroke:#181818;stroke-width:1.0;stroke-dasharray:2.0,2.0;" x1="566.1821" x2="834.3608" y1="990.3906" y2="990.3906"/><text fill="#000000" font-family="sans-serif" font-size="13" font-weight="bold" lengthAdjust="spacing" textLength="14.46" x="578.1821" y="985.1279">22</text><text fill="#000000" font-family="sans-serif" font-size="13" lengthAdjust="spacing" textLength="182.8379" x="596.6421" y="985.1279">Optional&lt;selectedDroneModel&gt;</text><path d="M30,1005.3906 L90.1709,1005.3906 L90.1709,1014.6816 L80.1709,1024.6816 L30,1024.6816 L30,1005.3906 " fill="#EEEEEE" style="stroke:#000000;stroke-width:1.5;"/><rect fill="none" height="194.7461" style="stroke:#000000;stroke-width:1.5;" width="820.3608" x="30" y="1005.3906"/><text fill="#000000" font-family="sans-serif" font-size="13" font-weight="bold" lengthAdjust="spacing" textLength="15.1709" x="45" y="1020.4189">alt</text><text fill="#000000" font-family="sans-serif" font-size="11" font-weight="bold" lengthAdjust="spacing" textLength="162.5938" x="105.1709" y="1019.2607">[selectedDroneModel is empty]</text><polygon fill="#181818" points="90.5723,1043.9727,80.5723,1047.9727,90.5723,1051.9727,86.5723,1047.9727" style="stroke:#181818;stroke-width:1.0;"/><line style="stroke:#181818;stroke-width:1.0;stroke-dasharray:2.0,2.0;" x1="84.5723" x2="560.1821" y1="1047.9727" y2="1047.9727"/><text fill="#000000" font-family="sans-serif" font-size="13" font-weight="bold" lengthAdjust="spacing" textLength="14.46" x="96.5723" y="1042.71">23</text><text fill="#000000" font-family="sans-serif" font-size="13" lengthAdjust="spacing" textLength="386.3945" x="115.0322" y="1042.71">error message ("No drone model with that ID found in the system!")</text><line style="stroke:#000000;stroke-width:1.0;stroke-dasharray:2.0,2.0;" x1="30" x2="850.3608" y1="1056.9727" y2="1056.9727"/><polygon fill="#181818" points="90.5723,1077.2637,80.5723,1081.2637,90.5723,1085.2637,86.5723,1081.2637" style="stroke:#181818;stroke-width:1.0;"/><line style="stroke:#181818;stroke-width:1.0;" x1="84.5723" x2="560.1821" y1="1081.2637" y2="1081.2637"/><text fill="#000000" font-family="sans-serif" font-size="13" font-weight="bold" lengthAdjust="spacing" textLength="14.46" x="96.5723" y="1076.001">24</text><text fill="#000000" font-family="sans-serif" font-size="13" lengthAdjust="spacing" textLength="149.5571" x="115.0322" y="1076.001">showDroneModelDetails()</text><polygon fill="#181818" points="549.1821,1108.5547,559.1821,1112.5547,549.1821,1116.5547,553.1821,1112.5547" style="stroke:#181818;stroke-width:1.0;"/><line style="stroke:#181818;stroke-width:1.0;" x1="79.5723" x2="555.1821" y1="1112.5547" y2="1112.5547"/><text fill="#000000" font-family="sans-serif" font-size="13" font-weight="bold" lengthAdjust="spacing" textLength="14.46" x="86.5723" y="1107.292">25</text><text fill="#000000" font-family="sans-serif" font-size="13" lengthAdjust="spacing" textLength="104.7554" x="105.0322" y="1107.292">confirmSelection()</text><path d="M482.7168,1127.5547 L542.8877,1127.5547 L542.8877,1136.8457 L532.8877,1146.8457 L482.7168,1146.8457 L482.7168,1127.5547 " fill="#EEEEEE" style="stroke:#000000;stroke-width:1.5;"/><rect fill="none" height="65.582" style="stroke:#000000;stroke-width:1.5;" width="357.644" x="482.7168" y="1127.5547"/><text fill="#000000" font-family="sans-serif" font-size="13" font-weight="bold" lengthAdjust="spacing" textLength="15.1709" x="497.7168" y="1142.583">alt</text><text fill="#000000" font-family="sans-serif" font-size="11" font-weight="bold" lengthAdjust="spacing" textLength="60.5" x="557.8877" y="1141.4248">[confirmed]</text><line style="stroke:#181818;stroke-width:1.0;" x1="561.1821" x2="603.1821" y1="1170.1367" y2="1170.1367"/><line style="stroke:#181818;stroke-width:1.0;" x1="603.1821" x2="603.1821" y1="1170.1367" y2="1183.1367"/><line style="stroke:#181818;stroke-width:1.0;" x1="562.1821" x2="603.1821" y1="1183.1367" y2="1183.1367"/><polygon fill="#181818" points="572.1821,1179.1367,562.1821,1183.1367,572.1821,1187.1367,568.1821,1183.1367" style="stroke:#181818;stroke-width:1.0;"/><text fill="#000000" font-family="sans-serif" font-size="13" font-weight="bold" lengthAdjust="spacing" textLength="14.46" x="568.1821" y="1164.874">26</text><text fill="#000000" font-family="sans-serif" font-size="13" lengthAdjust="spacing" textLength="241.7188" x="586.6421" y="1164.874">chosenModel = selectedDroneModel.get()</text><line style="stroke:#000000;stroke-width:1.0;stroke-dasharray:2.0,2.0;" x1="482.7168" x2="840.3608" y1="1192.1367" y2="1192.1367"/><polygon fill="#181818" points="925.564,1233.4277,935.564,1237.4277,925.564,1241.4277,929.564,1237.4277" style="stroke:#181818;stroke-width:1.0;"/><line style="stroke:#181818;stroke-width:1.0;" x1="561.1821" x2="931.564" y1="1237.4277" y2="1237.4277"/><text fill="#000000" font-family="sans-serif" font-size="13" font-weight="bold" lengthAdjust="spacing" textLength="14.46" x="568.1821" y="1232.165">27</text><text fill="#000000" font-family="sans-serif" font-size="13" lengthAdjust="spacing" textLength="36.1309" x="586.6421" y="1232.165">create</text><rect fill="#E3E3E3" height="32.6211" rx="2.5" ry="2.5" style="stroke:#181818;stroke-width:0.5;" width="146.2754" x="937.564" y="1214.1367"/><text fill="#000000" font-family="sans-serif" font-size="14" lengthAdjust="spacing" textLength="132.2754" x="944.564" y="1236.2441">:GetDronesController</text><polygon fill="#181818" points="993.7017,1277.0488,1003.7017,1281.0488,993.7017,1285.0488,997.7017,1281.0488" style="stroke:#181818;stroke-width:1.0;"/><line style="stroke:#181818;stroke-width:1.0;" x1="561.1821" x2="999.7017" y1="1281.0488" y2="1281.0488"/><text fill="#000000" font-family="sans-serif" font-size="13" font-weight="bold" lengthAdjust="spacing" textLength="14.46" x="568.1821" y="1275.7861">28</text><text fill="#000000" font-family="sans-serif" font-size="13" lengthAdjust="spacing" textLength="190.0425" x="586.6421" y="1275.7861">getDroneByModel(chosenModel)</text><polygon fill="#181818" points="1182.8091,1308.3398,1192.8091,1312.3398,1182.8091,1316.3398,1186.8091,1312.3398" style="stroke:#181818;stroke-width:1.0;"/><line style="stroke:#181818;stroke-width:1.0;" x1="1015.7017" x2="1188.8091" y1="1312.3398" y2="1312.3398"/><text fill="#000000" font-family="sans-serif" font-size="13" font-weight="bold" lengthAdjust="spacing" textLength="14.46" x="1022.7017" y="1307.0771">29</text><text fill="#000000" font-family="sans-serif" font-size="13" lengthAdjust="spacing" textLength="104.0444" x="1041.1616" y="1307.0771">droneRepository()</text><rect fill="#E3E3E3" height="51.2422" rx="2.5" ry="2.5" style="stroke:#181818;stroke-width:0.5;" width="136.9375" x="1194.8091" y="1289.0488"/><text fill="#000000" font-family="sans-serif" font-size="14" lengthAdjust="spacing" textLength="113.5996" x="1206.478" y="1311.1563">repositoryProvider</text><text fill="#000000" font-family="sans-serif" font-size="14" lengthAdjust="spacing" textLength="122.9375" x="1201.8091" y="1329.7773">:RepositoryProvider</text><polygon fill="#181818" points="1026.7017,1370.582,1016.7017,1374.582,1026.7017,1378.582,1022.7017,1374.582" style="stroke:#181818;stroke-width:1.0;"/><line style="stroke:#181818;stroke-width:1.0;stroke-dasharray:2.0,2.0;" x1="1020.7017" x2="1262.2778" y1="1374.582" y2="1374.582"/><text fill="#000000" font-family="sans-serif" font-size="13" font-weight="bold" lengthAdjust="spacing" textLength="14.46" x="1032.7017" y="1369.3193">30</text><text fill="#000000" font-family="sans-serif" font-size="13" lengthAdjust="spacing" textLength="200.1162" x="1051.1616" y="1369.3193">repository (dynamic: inMem or jpa)</text><path d="M927.564,1389.582 L987.7349,1389.582 L987.7349,1398.873 L977.7349,1408.873 L927.564,1408.873 L927.564,1389.582 " fill="#EEEEEE" style="stroke:#000000;stroke-width:1.5;"/><rect fill="none" height="161.0859" style="stroke:#000000;stroke-width:1.5;" width="1447.5449" x="927.564" y="1389.582"/><text fill="#000000" font-family="sans-serif" font-size="13" font-weight="bold" lengthAdjust="spacing" textLength="15.1709" x="942.564" y="1404.6104">alt</text><text fill="#000000" font-family="sans-serif" font-size="11" font-weight="bold" lengthAdjust="spacing" textLength="221.2568" x="1002.7349" y="1403.4521">[Repository is InMemoryDroneRepository]</text><polygon fill="#181818" points="2143.2129,1428.1641,2153.2129,1432.1641,2143.2129,1436.1641,2147.2129,1432.1641" style="stroke:#181818;stroke-width:1.0;"/><line style="stroke:#181818;stroke-width:1.0;" x1="1015.7017" x2="2149.2129" y1="1432.1641" y2="1432.1641"/><text fill="#000000" font-family="sans-serif" font-size="13" font-weight="bold" lengthAdjust="spacing" textLength="14.46" x="1022.7017" y="1426.9014">31</text><text fill="#000000" font-family="sans-serif" font-size="13" lengthAdjust="spacing" textLength="192.9307" x="1041.1616" y="1426.9014">findByDroneModel(chosenModel)</text><polygon fill="#181818" points="1026.7017,1459.4551,1016.7017,1463.4551,1026.7017,1467.4551,1022.7017,1463.4551" style="stroke:#181818;stroke-width:1.0;"/><line style="stroke:#181818;stroke-width:1.0;stroke-dasharray:2.0,2.0;" x1="1020.7017" x2="2159.2129" y1="1463.4551" y2="1463.4551"/><text fill="#000000" font-family="sans-serif" font-size="13" font-weight="bold" lengthAdjust="spacing" textLength="14.46" x="1032.7017" y="1458.1924">32</text><text fill="#000000" font-family="sans-serif" font-size="13" lengthAdjust="spacing" textLength="134.4243" x="1051.1616" y="1458.1924">Optional&lt;List&lt;Drone&gt;&gt;</text><line style="stroke:#000000;stroke-width:1.0;stroke-dasharray:2.0,2.0;" x1="927.564" x2="2375.1089" y1="1472.4551" y2="1472.4551"/><text fill="#000000" font-family="sans-serif" font-size="11" font-weight="bold" lengthAdjust="spacing" textLength="155.8584" x="932.564" y="1484.3252">[Repository is DroneJPAImpl]</text><polygon fill="#181818" points="2295.9814,1507.377,2305.9814,1511.377,2295.9814,1515.377,2299.9814,1511.377" style="stroke:#181818;stroke-width:1.0;"/><line style="stroke:#181818;stroke-width:1.0;" x1="1015.7017" x2="2301.9814" y1="1511.377" y2="1511.377"/><text fill="#000000" font-family="sans-serif" font-size="13" font-weight="bold" lengthAdjust="spacing" textLength="14.46" x="1022.7017" y="1506.1143">33</text><text fill="#000000" font-family="sans-serif" font-size="13" lengthAdjust="spacing" textLength="192.9307" x="1041.1616" y="1506.1143">findByDroneModel(chosenModel)</text><polygon fill="#181818" points="1026.7017,1538.668,1016.7017,1542.668,1026.7017,1546.668,1022.7017,1542.668" style="stroke:#181818;stroke-width:1.0;"/><line style="stroke:#181818;stroke-width:1.0;stroke-dasharray:2.0,2.0;" x1="1020.7017" x2="2311.9814" y1="1542.668" y2="1542.668"/><text fill="#000000" font-family="sans-serif" font-size="13" font-weight="bold" lengthAdjust="spacing" textLength="14.46" x="1032.7017" y="1537.4053">34</text><text fill="#000000" font-family="sans-serif" font-size="13" lengthAdjust="spacing" textLength="134.4243" x="1051.1616" y="1537.4053">Optional&lt;List&lt;Drone&gt;&gt;</text><polygon fill="#181818" points="572.1821,1576.959,562.1821,1580.959,572.1821,1584.959,568.1821,1580.959" style="stroke:#181818;stroke-width:1.0;"/><line style="stroke:#181818;stroke-width:1.0;stroke-dasharray:2.0,2.0;" x1="566.1821" x2="1009.7017" y1="1580.959" y2="1580.959"/><text fill="#000000" font-family="sans-serif" font-size="13" font-weight="bold" lengthAdjust="spacing" textLength="14.46" x="578.1821" y="1575.6963">35</text><text fill="#000000" font-family="sans-serif" font-size="13" lengthAdjust="spacing" textLength="123.5825" x="596.6421" y="1575.6963">Optional&lt;dronesList&gt;</text><path d="M30,1595.959 L90.1709,1595.959 L90.1709,1605.25 L80.1709,1615.25 L30,1615.25 L30,1595.959 " fill="#EEEEEE" style="stroke:#000000;stroke-width:1.5;"/><rect fill="none" height="83.873" style="stroke:#000000;stroke-width:1.5;" width="609.6475" x="30" y="1595.959"/><text fill="#000000" font-family="sans-serif" font-size="13" font-weight="bold" lengthAdjust="spacing" textLength="15.1709" x="45" y="1610.9873">alt</text><text fill="#000000" font-family="sans-serif" font-size="11" font-weight="bold" lengthAdjust="spacing" textLength="111.2407" x="105.1709" y="1609.8291">[dronesList is empty]</text><polygon fill="#181818" points="90.5723,1634.541,80.5723,1638.541,90.5723,1642.541,86.5723,1638.541" style="stroke:#181818;stroke-width:1.0;"/><line style="stroke:#181818;stroke-width:1.0;stroke-dasharray:2.0,2.0;" x1="84.5723" x2="560.1821" y1="1638.541" y2="1638.541"/><text fill="#000000" font-family="sans-serif" font-size="13" font-weight="bold" lengthAdjust="spacing" textLength="14.46" x="96.5723" y="1633.2783">36</text><text fill="#000000" font-family="sans-serif" font-size="13" lengthAdjust="spacing" textLength="439.1499" x="115.0322" y="1633.2783">error message ("There are no drones of this model available in the system.")</text><line style="stroke:#000000;stroke-width:1.0;stroke-dasharray:2.0,2.0;" x1="30" x2="639.6475" y1="1647.541" y2="1647.541"/><polygon fill="#181818" points="90.5723,1667.832,80.5723,1671.832,90.5723,1675.832,86.5723,1671.832" style="stroke:#181818;stroke-width:1.0;"/><line style="stroke:#181818;stroke-width:1.0;stroke-dasharray:2.0,2.0;" x1="84.5723" x2="560.1821" y1="1671.832" y2="1671.832"/><text fill="#000000" font-family="sans-serif" font-size="13" font-weight="bold" lengthAdjust="spacing" textLength="14.46" x="96.5723" y="1666.5693">37</text><text fill="#000000" font-family="sans-serif" font-size="13" lengthAdjust="spacing" textLength="171.2407" x="115.0322" y="1666.5693">displayDronesList(dronesList)</text><!--SRC=[fLRRRjiu47tNLt3zP1T8Fi3e1aZYnK95qoqsoTk-CDBOOYkHAaaxyD_la9Hu4vsqg84WDZbpvi8p5_MTyP5AEf11SD5qKWn0j3n2fVpDI9llz02F-jm3aT1eoWzzBA0wsefNnWzaJti5LQMPHj7dcZp2ZoFm1iYEqOCHNJ_kDkIAV6PAavqK71HXdEWEICrFmBMGvwgYHotuSNW1YTyRF2ChAqkUeEbMX2goUwhGj6OD6odNPBKrWBUDPYTmgC-rbNkkCxc_GLk11z52h-u5rrBqFKWhVG1jp- -rx2_e5LIcyuMEX54ePYBwAiM9jI3_uzj_5uSMPfn-f0Z1qw266ALZYz8Evg20iLJFDPUADN-00UylMcD6m5waYlSIg8QWzkdhRJsClTNvDjA2HcAgPCLU5EBAe9sOeGmxeGk69TNkYLpT62fkaRf8HgKLqOBqXe1jGa3c2UW1a3uLgY90J0touGEYDJRCqlNM_BpjUyUnzIRW9GHBT11Zve23RmjfZw42OsQrgwKVWO9atPuv7LYpTHabM5IOiKtLmXAIzfe4guGfyXOPAeAVF9X03dHZptYB-K3tZQYt5n78d4SgXL12FfIfTQiH-HvXeGHaxb-WPD7pcQAN_VOaDgTU_DTzzZZ0sumDCsN_6JKJdFOVCwYR-DqILjd7owHD2c0OjNigmrZ4nyBO4f0IYJ20KjZWoNhrHJXTd0P6UIuDTLOQENC6VNrzlThaWM2PP2TOUUOPlBt9dEh4woFqE48mgWVGdMWVW1-d14UbggoGavZJZt49cmuJpih14Egc2B71hgnWRjCAXhUVu3A3JISKSFSSzjwoABBt5zTOO- -Rcuh82jIxih71NMRg5rlC6s9R__FkNBVh2JWOBNDalisfx-R7HFoxgDWnaClGqzIPpoUGGZbuCWVWcw06bm3VgGptlj2-0veMYGy2IRK4IEibJl_FrGrvPRh3mg6Qr3ko5qVUffNqnsgJG2zhgN23DJMV-jegyHrhB8Io0qsP7KAnU4nymVTC3hugCqcJe4a4skGccCqBYFnPoEarFa26lOZ2VBZ0K2KxT1f1Uo56HLvm_pGpEosj58e7v-Rlvd-Lr4tOr1RrLPBP-jztPzSweY2pcP3kWHDj8wpoV4z6UuBdPx4vpKTyukDFpFYCI0dsExC-6_F5mCAALcWTovmjTm2tjyrt4LmfNb_uPhAvLd9JhFWCkh0Mn3lavV3cnVBNW_ChwNpZeNuhi0HsPdlcTdc1c7Q7PMkCkEjP4JIM_V2jNlZKWGH2yO-BUSKMU-n-YEBQ8prXJw8lFQHTSTuiahuGMsgP6dlgycyTMmSVDpuRjkxJZffsqVy1]--></g></svg>