<svg xmlns="http://www.w3.org/2000/svg" xmlns:xlink="http://www.w3.org/1999/xlink" contentStyleType="text/css" height="730px" preserveAspectRatio="none" style="width:636px;height:730px;background:#FFFFFF;" version="1.1" viewBox="0 0 636 730" width="636px" zoomAndPan="magnify"><title>Figure and Category domain model section</title><defs/><g><text fill="#000000" font-family="sans-serif" font-size="14" font-weight="bold" lengthAdjust="spacing" textLength="310.3994" x="156.2553" y="23.5352">Figure and Category domain model section</text><!--cluster Category Aggregate--><g id="cluster_Category Aggregate"><rect fill="none" height="680" rx="2.5" ry="2.5" style="stroke:#000000;stroke-width:1.5;" width="376.91" x="254" y="44.4883"/><text fill="#000000" font-family="sans-serif" font-size="14" font-weight="bold" lengthAdjust="spacing" textLength="144.0879" x="370.4111" y="60.0234">Category Aggregate</text></g><!--cluster Figure Aggregate--><g id="cluster_Figure Aggregate"><rect fill="none" height="99" rx="2.5" ry="2.5" style="stroke:#000000;stroke-width:1.5;" width="140" x="7" y="324.4883"/><text fill="#000000" font-family="sans-serif" font-size="14" font-weight="bold" lengthAdjust="spacing" textLength="124.8926" x="14.5537" y="340.0234">Figure Aggregate</text></g><!--class Category--><g id="elem_Category"><rect codeLine="14" fill="#F1F1F1" height="48.6211" id="Category" rx="2.5" ry="2.5" style="stroke:#181818;stroke-width:0.5;" width="101.5156" x="270" y="359.1783"/><text fill="#000000" font-family="sans-serif" font-size="12" font-style="italic" lengthAdjust="spacing" textLength="99.5156" x="271" y="375.7798">&#171;AggregateRoot&#187;</text><text fill="#000000" font-family="sans-serif" font-size="14" lengthAdjust="spacing" textLength="60.8262" x="290.3447" y="391.8463">Category</text><line style="stroke:#181818;stroke-width:0.5;" x1="271" x2="370.5156" y1="399.7994" y2="399.7994"/></g><!--class Name--><g id="elem_Name"><rect codeLine="17" fill="#F1F1F1" height="34.4883" id="Name" rx="2.5" ry="2.5" style="stroke:#181818;stroke-width:0.5;" width="44.9443" x="538.24" y="656.2483"/><text fill="#000000" font-family="sans-serif" font-size="14" lengthAdjust="spacing" textLength="38.9443" x="541.24" y="674.7834">Name</text><line style="stroke:#181818;stroke-width:0.5;" x1="539.24" x2="582.1843" y1="682.7366" y2="682.7366"/></g><!--class ID--><g id="elem_ID"><rect codeLine="20" fill="#F1F1F1" height="34.4883" id="ID" rx="2.5" ry="2.5" style="stroke:#181818;stroke-width:0.5;" width="20.5195" x="550.45" y="573.2483"/><text fill="#000000" font-family="sans-serif" font-size="14" lengthAdjust="spacing" textLength="14.5195" x="553.45" y="591.7834">ID</text><line style="stroke:#181818;stroke-width:0.5;" x1="551.45" x2="569.9695" y1="599.7366" y2="599.7366"/></g><!--class CategoryStatus--><g id="elem_CategoryStatus"><rect codeLine="23" fill="#F1F1F1" height="34.4883" id="CategoryStatus" rx="2.5" ry="2.5" style="stroke:#181818;stroke-width:0.5;" width="108.3955" x="506.51" y="490.2483"/><text fill="#000000" font-family="sans-serif" font-size="14" lengthAdjust="spacing" textLength="102.3955" x="509.51" y="508.7834">CategoryStatus</text><line style="stroke:#181818;stroke-width:0.5;" x1="507.51" x2="613.9055" y1="516.7366" y2="516.7366"/></g><!--class CreatedOn--><g id="elem_CreatedOn"><rect codeLine="26" fill="#F1F1F1" height="34.4883" id="CreatedOn" rx="2.5" ry="2.5" style="stroke:#181818;stroke-width:0.5;" width="78.3584" x="521.53" y="407.2483"/><text fill="#000000" font-family="sans-serif" font-size="14" lengthAdjust="spacing" textLength="72.3584" x="524.53" y="425.7834">CreatedOn</text><line style="stroke:#181818;stroke-width:0.5;" x1="522.53" x2="598.8884" y1="433.7366" y2="433.7366"/></g><!--class CreatedBy--><g id="elem_CreatedBy"><rect codeLine="29" fill="#F1F1F1" height="34.4883" id="CreatedBy" rx="2.5" ry="2.5" style="stroke:#181818;stroke-width:0.5;" width="74.1611" x="523.63" y="324.2483"/><text fill="#000000" font-family="sans-serif" font-size="14" lengthAdjust="spacing" textLength="68.1611" x="526.63" y="342.7834">CreatedBy</text><line style="stroke:#181818;stroke-width:0.5;" x1="524.63" x2="596.7911" y1="350.7366" y2="350.7366"/></g><!--class Description--><g id="elem_Description"><rect codeLine="32" fill="#F1F1F1" height="34.4883" id="Description" rx="2.5" ry="2.5" style="stroke:#181818;stroke-width:0.5;" width="83.752" x="518.84" y="241.2483"/><text fill="#000000" font-family="sans-serif" font-size="14" lengthAdjust="spacing" textLength="77.752" x="521.84" y="259.7834">Description</text><line style="stroke:#181818;stroke-width:0.5;" x1="519.84" x2="601.592" y1="267.7366" y2="267.7366"/></g><!--class UpdatedOn--><g id="elem_UpdatedOn"><rect codeLine="35" fill="#F1F1F1" height="34.4883" id="UpdatedOn" rx="2.5" ry="2.5" style="stroke:#181818;stroke-width:0.5;" width="82.4668" x="519.48" y="158.2483"/><text fill="#000000" font-family="sans-serif" font-size="14" lengthAdjust="spacing" textLength="76.4668" x="522.48" y="176.7834">UpdatedOn</text><line style="stroke:#181818;stroke-width:0.5;" x1="520.48" x2="600.9468" y1="184.7366" y2="184.7366"/></g><!--class UpdatedBy--><g id="elem_UpdatedBy"><rect codeLine="38" fill="#F1F1F1" height="34.4883" id="UpdatedBy" rx="2.5" ry="2.5" style="stroke:#181818;stroke-width:0.5;" width="78.2695" x="521.58" y="79.2483"/><text fill="#000000" font-family="sans-serif" font-size="14" lengthAdjust="spacing" textLength="72.2695" x="524.58" y="97.7834">UpdatedBy</text><line style="stroke:#181818;stroke-width:0.5;" x1="522.58" x2="598.8495" y1="105.7366" y2="105.7366"/></g><!--class Figure--><g id="elem_Figure"><rect codeLine="44" fill="#F1F1F1" height="48.6211" id="Figure" rx="2.5" ry="2.5" style="stroke:#181818;stroke-width:0.5;" width="101.5156" x="25.74" y="359.1783"/><text fill="#000000" font-family="sans-serif" font-size="12" font-style="italic" lengthAdjust="spacing" textLength="99.5156" x="26.74" y="375.7798">&#171;AggregateRoot&#187;</text><text fill="#000000" font-family="sans-serif" font-size="14" lengthAdjust="spacing" textLength="42.499" x="55.2483" y="391.8463">Figure</text><line style="stroke:#181818;stroke-width:0.5;" x1="26.74" x2="126.2556" y1="399.7994" y2="399.7994"/></g><!--link Figure to Category--><g id="link_Figure_Category"><path codeLine="49" d="M127.69,383.4883 C169.27,383.4883 228.06,383.4883 269.62,383.4883 " fill="none" id="Figure-Category" style="stroke:#181818;stroke-width:1.0;"/><polygon fill="#000000" points="204,376.9883,194.9549,374.0494,194.9549,379.9272,204,376.9883" style="stroke:#000000;stroke-width:1.0;"/><text fill="#000000" font-family="sans-serif" font-size="13" lengthAdjust="spacing" textLength="6.2651" x="135.3294" y="397.1331">*</text><text fill="#000000" font-family="sans-serif" font-size="13" lengthAdjust="spacing" textLength="18.5986" x="243.5792" y="397.0852">1 *</text></g><!--link Category to ID--><g id="link_Category_ID"><path codeLine="50" d="M349.99,408.0483 C403.42,454.5283 516.96,553.2983 550.31,582.3083 " fill="none" id="Category-ID" style="stroke:#181818;stroke-width:1.0;"/><polygon fill="#000000" points="441.2824,476.8699,436.387,468.716,432.5292,473.1507,441.2824,476.8699" style="stroke:#000000;stroke-width:1.0;"/><text fill="#000000" font-family="sans-serif" font-size="13" lengthAdjust="spacing" textLength="8.2202" x="348.1672" y="428.469">1</text><text fill="#000000" font-family="sans-serif" font-size="13" lengthAdjust="spacing" textLength="8.2202" x="534.2721" y="594.5792">1</text></g><!--link Category to Name--><g id="link_Category_Name"><path codeLine="51" d="M338.21,408.0083 C368.93,453.0683 438.11,551.2283 506.51,625.4883 C516.37,636.1883 528.33,647.1383 538.41,655.8683 " fill="none" id="Category-Name" style="stroke:#181818;stroke-width:1.0;"/><polygon fill="#000000" points="440.6517,537.6079,437.2546,528.7248,432.682,532.4181,440.6517,537.6079" style="stroke:#000000;stroke-width:1.0;"/><text fill="#000000" font-family="sans-serif" font-size="13" lengthAdjust="spacing" textLength="8.2202" x="333.5158" y="428.4192">1</text><text fill="#000000" font-family="sans-serif" font-size="13" lengthAdjust="spacing" textLength="8.2202" x="522.0613" y="665.2591">1</text></g><!--link Category to CategoryStatus--><g id="link_Category_CategoryStatus"><path codeLine="52" d="M369.34,408.2883 C415.59,432.3883 484.68,468.3883 525.67,489.7483 " fill="none" id="Category-CategoryStatus" style="stroke:#181818;stroke-width:1.0;"/><polygon fill="#000000" points="441.9441,437.1688,435.2808,430.3827,432.5646,435.5953,441.9441,437.1688" style="stroke:#000000;stroke-width:1.0;"/><text fill="#000000" font-family="sans-serif" font-size="13" lengthAdjust="spacing" textLength="8.2202" x="371.6751" y="428.3618">1</text><text fill="#000000" font-family="sans-serif" font-size="13" lengthAdjust="spacing" textLength="8.2202" x="505.7484" y="479.6332">1</text></g><!--link Category to CreatedOn--><g id="link_Category_CreatedOn"><path codeLine="53" d="M371.93,392.1283 C416.52,399.8183 480.75,410.8783 521.34,417.8783 " fill="none" id="Category-CreatedOn" style="stroke:#181818;stroke-width:1.0;"/><polygon fill="#000000" points="442.4374,396.9675,434.0228,392.535,433.0245,398.3275,442.4374,396.9675" style="stroke:#000000;stroke-width:1.0;"/><text fill="#000000" font-family="sans-serif" font-size="13" lengthAdjust="spacing" textLength="8.2202" x="379.3586" y="406.8862">1</text><text fill="#000000" font-family="sans-serif" font-size="13" lengthAdjust="spacing" textLength="8.2202" x="505.3641" y="430.6386">1</text></g><!--link Category to CreatedBy--><g id="link_Category_CreatedBy"><path codeLine="54" d="M371.93,374.6283 C417.2,366.6383 482.72,355.0783 523.19,347.9383 " fill="none" id="Category-CreatedBy" style="stroke:#181818;stroke-width:1.0;"/><polygon fill="#000000" points="442.4339,354.4194,433.0158,353.097,434.0371,358.8854,442.4339,354.4194" style="stroke:#000000;stroke-width:1.0;"/><text fill="#000000" font-family="sans-serif" font-size="13" lengthAdjust="spacing" textLength="8.2202" x="379.3586" y="387.0347">1</text><text fill="#000000" font-family="sans-serif" font-size="13" lengthAdjust="spacing" textLength="8.2202" x="507.2961" y="363.1947">1</text></g><!--link Category to Description--><g id="link_Category_Description"><path codeLine="55" d="M368.77,358.7883 C415.23,334.3883 485.13,297.6683 526.22,276.0783 " fill="none" id="Category-Description" style="stroke:#181818;stroke-width:1.0;"/><polygon fill="#000000" points="441.9364,310.083,432.5622,311.6877,435.2957,316.8912,441.9364,310.083" style="stroke:#000000;stroke-width:1.0;"/><text fill="#000000" font-family="sans-serif" font-size="13" lengthAdjust="spacing" textLength="8.2202" x="371.5248" y="348.5456">1</text><text fill="#000000" font-family="sans-serif" font-size="13" lengthAdjust="spacing" textLength="8.2202" x="506.4643" y="296.3767">1</text></g><!--link Category to UpdatedOn--><g id="link_Category_UpdatedOn"><path codeLine="56" d="M349.99,358.8083 C398.61,316.3083 497.04,230.2683 539.48,193.1683 " fill="none" id="Category-UpdatedOn" style="stroke:#181818;stroke-width:1.0;"/><polygon fill="#000000" points="441.2745,266.2276,432.5302,269.9678,436.3987,274.3932,441.2745,266.2276" style="stroke:#000000;stroke-width:1.0;"/><text fill="#000000" font-family="sans-serif" font-size="13" lengthAdjust="spacing" textLength="8.2202" x="348.1672" y="348.5705">1</text><text fill="#000000" font-family="sans-serif" font-size="13" lengthAdjust="spacing" textLength="8.2202" x="524.1" y="213.1777">1</text></g><!--link Category to UpdatedBy--><g id="link_Category_UpdatedBy"><path codeLine="57" d="M337.65,358.9283 C367.71,313.3583 436.24,213.7083 506.51,140.4883 C515.56,131.0583 526.55,121.6883 536.18,114.0283 " fill="none" id="Category-UpdatedBy" style="stroke:#181818;stroke-width:1.0;"/><polygon fill="#000000" points="440.6587,200.2442,432.6797,205.4198,437.2457,209.1213,440.6587,200.2442" style="stroke:#000000;stroke-width:1.0;"/><text fill="#000000" font-family="sans-serif" font-size="13" lengthAdjust="spacing" textLength="8.2202" x="332.9818" y="348.3209">1</text><text fill="#000000" font-family="sans-serif" font-size="13" lengthAdjust="spacing" textLength="8.2202" x="519.4749" y="134.3114">1</text></g><!--SRC=[ZP71QiCm44Jl-ef5nq8EkPPWQ1eAlQJGq0zOf8qi8aj6MbDCoRzNJcp70ST49sddQIHcqidw6YDMK0KVL1b3HS2n8P56fKPrGaC7RXr19CNeZPi2gKGTVgqtS4INI3WwCd20Q4t9e6rtnmOl15lE5X_MD940lOPtP38Xjg13XTRdJsXoa0Q-j9f0sQWSfUkX8Yw3JaBqdm8vMhmP4ydaauG_8I0lvJ2bsnkRpOXyXy15aRaEEq_fFUO0PkQVkxdfu7rWv2RD4f4oex_yWhXjvyGT9HLjtIKn9__K-h5nBqwDpvFC-WRk4hjTxjN7SMMhowu7vOk4rMe5SWrvDyRz2iM56WToFN0onxaeToqi0lV1BwD30yzGstQHcdIoo8tbF4DTtnJ_]--></g></svg>