<svg xmlns="http://www.w3.org/2000/svg" xmlns:xlink="http://www.w3.org/1999/xlink" contentStyleType="text/css" height="613px" preserveAspectRatio="none" style="width:879px;height:613px;background:#FFFFFF;" version="1.1" viewBox="0 0 879 613" width="879px" zoomAndPan="magnify"><title>System Sequence Diagram (SSD) - Add Drones to Inventory</title><defs/><g><text fill="#000000" font-family="sans-serif" font-size="14" font-weight="bold" lengthAdjust="spacing" textLength="397.5303" x="240.6067" y="30.1074">System Sequence Diagram (SSD) - Add Drones to Inventory</text><rect fill="#FFFFFF" height="258.3281" style="stroke:#181818;stroke-width:1.0;" width="10" x="64.5723" y="133.2422"/><rect fill="#FFFFFF" height="31.291" style="stroke:#181818;stroke-width:1.0;" width="10" x="497.9932" y="156.5332"/><rect fill="#FFFFFF" height="172.4551" style="stroke:#181818;stroke-width:1.0;" width="10" x="497.9932" y="219.1152"/><rect fill="none" height="203.7461" style="stroke:#000000;stroke-width:1.5;" width="806.272" x="10" y="234.1152"/><rect fill="none" height="81.873" style="stroke:#000000;stroke-width:1.5;" width="525.2759" x="20" y="348.9883"/><line style="stroke:#181818;stroke-width:0.5;stroke-dasharray:5.0,5.0;" x1="69" x2="69" y1="123.2422" y2="530.4434"/><line style="stroke:#181818;stroke-width:0.5;stroke-dasharray:5.0,5.0;" x1="502.7104" x2="502.7104" y1="123.2422" y2="530.4434"/><text fill="#000000" font-family="sans-serif" font-size="14" lengthAdjust="spacing" textLength="73.1445" x="30" y="119.7285">Drone Tech</text><ellipse cx="69.5723" cy="53.1211" fill="#E3E3E3" rx="8" ry="8" style="stroke:#181818;stroke-width:0.5;"/><path d="M69.5723,61.1211 L69.5723,88.1211 M56.5723,69.1211 L82.5723,69.1211 M69.5723,88.1211 L56.5723,103.1211 M69.5723,88.1211 L82.5723,103.1211 " fill="none" style="stroke:#181818;stroke-width:0.5;"/><text fill="#000000" font-family="sans-serif" font-size="14" lengthAdjust="spacing" textLength="73.1445" x="30" y="544.5508">Drone Tech</text><ellipse cx="69.5723" cy="556.5645" fill="#E3E3E3" rx="8" ry="8" style="stroke:#181818;stroke-width:0.5;"/><path d="M69.5723,564.5645 L69.5723,591.5645 M56.5723,572.5645 L82.5723,572.5645 M69.5723,591.5645 L56.5723,606.5645 M69.5723,591.5645 L82.5723,606.5645 " fill="none" style="stroke:#181818;stroke-width:0.5;"/><rect fill="#E3E3E3" height="32.6211" rx="2.5" ry="2.5" style="stroke:#181818;stroke-width:0.5;" width="64.5654" x="470.7104" y="89.6211"/><text fill="#000000" font-family="sans-serif" font-size="14" lengthAdjust="spacing" textLength="50.5654" x="477.7104" y="111.7285">:System</text><rect fill="#E3E3E3" height="32.6211" rx="2.5" ry="2.5" style="stroke:#181818;stroke-width:0.5;" width="64.5654" x="470.7104" y="529.4434"/><text fill="#000000" font-family="sans-serif" font-size="14" lengthAdjust="spacing" textLength="50.5654" x="477.7104" y="551.5508">:System</text><rect fill="#FFFFFF" height="258.3281" style="stroke:#181818;stroke-width:1.0;" width="10" x="64.5723" y="133.2422"/><rect fill="#FFFFFF" height="31.291" style="stroke:#181818;stroke-width:1.0;" width="10" x="497.9932" y="156.5332"/><rect fill="#FFFFFF" height="172.4551" style="stroke:#181818;stroke-width:1.0;" width="10" x="497.9932" y="219.1152"/><polygon fill="#181818" points="485.9932,152.5332,495.9932,156.5332,485.9932,160.5332,489.9932,156.5332" style="stroke:#181818;stroke-width:1.0;"/><line style="stroke:#181818;stroke-width:1.0;" x1="74.5723" x2="491.9932" y1="156.5332" y2="156.5332"/><text fill="#000000" font-family="sans-serif" font-size="13" font-weight="bold" lengthAdjust="spacing" textLength="7.23" x="81.5723" y="151.2705">1</text><text fill="#000000" font-family="sans-serif" font-size="13" lengthAdjust="spacing" textLength="149.5635" x="92.8022" y="151.2705">requestListDroneModels()</text><polygon fill="#181818" points="85.5723,183.8242,75.5723,187.8242,85.5723,191.8242,81.5723,187.8242" style="stroke:#181818;stroke-width:1.0;"/><line style="stroke:#181818;stroke-width:1.0;stroke-dasharray:2.0,2.0;" x1="79.5723" x2="501.9932" y1="187.8242" y2="187.8242"/><text fill="#000000" font-family="sans-serif" font-size="13" font-weight="bold" lengthAdjust="spacing" textLength="7.23" x="91.5723" y="182.5615">2</text><text fill="#000000" font-family="sans-serif" font-size="13" lengthAdjust="spacing" textLength="95.3862" x="102.8022" y="182.5615">droneModelsList</text><polygon fill="#181818" points="485.9932,215.1152,495.9932,219.1152,485.9932,223.1152,489.9932,219.1152" style="stroke:#181818;stroke-width:1.0;"/><line style="stroke:#181818;stroke-width:1.0;" x1="74.5723" x2="491.9932" y1="219.1152" y2="219.1152"/><text fill="#000000" font-family="sans-serif" font-size="13" font-weight="bold" lengthAdjust="spacing" textLength="7.23" x="81.5723" y="213.8525">3</text><text fill="#000000" font-family="sans-serif" font-size="13" lengthAdjust="spacing" textLength="289.7388" x="92.8022" y="213.8525">requestAddDrones(DroneModelId, serialNumbers)</text><path d="M10,234.1152 L82.4346,234.1152 L82.4346,243.4063 L72.4346,253.4063 L10,253.4063 L10,234.1152 " fill="#EEEEEE" style="stroke:#000000;stroke-width:1.5;"/><rect fill="none" height="203.7461" style="stroke:#000000;stroke-width:1.5;" width="806.272" x="10" y="234.1152"/><text fill="#000000" font-family="sans-serif" font-size="13" font-weight="bold" lengthAdjust="spacing" textLength="27.4346" x="25" y="249.1436">loop</text><text fill="#000000" font-family="sans-serif" font-size="11" font-weight="bold" lengthAdjust="spacing" textLength="215.7944" x="97.4346" y="247.9854">[for each serialNumber in serialNumbers]</text><line style="stroke:#181818;stroke-width:1.0;" x1="507.9932" x2="549.9932" y1="276.6973" y2="276.6973"/><line style="stroke:#181818;stroke-width:1.0;" x1="549.9932" x2="549.9932" y1="276.6973" y2="289.6973"/><line style="stroke:#181818;stroke-width:1.0;" x1="508.9932" x2="549.9932" y1="289.6973" y2="289.6973"/><polygon fill="#181818" points="518.9932,285.6973,508.9932,289.6973,518.9932,293.6973,514.9932,289.6973" style="stroke:#181818;stroke-width:1.0;"/><text fill="#000000" font-family="sans-serif" font-size="13" font-weight="bold" lengthAdjust="spacing" textLength="7.23" x="514.9932" y="271.4346">4</text><text fill="#000000" font-family="sans-serif" font-size="13" lengthAdjust="spacing" textLength="210.2407" x="526.2231" y="271.4346">validateSerialNumber(serialNumber)</text><line style="stroke:#181818;stroke-width:1.0;" x1="507.9932" x2="549.9932" y1="320.9883" y2="320.9883"/><line style="stroke:#181818;stroke-width:1.0;" x1="549.9932" x2="549.9932" y1="320.9883" y2="333.9883"/><line style="stroke:#181818;stroke-width:1.0;" x1="508.9932" x2="549.9932" y1="333.9883" y2="333.9883"/><polygon fill="#181818" points="518.9932,329.9883,508.9932,333.9883,518.9932,337.9883,514.9932,333.9883" style="stroke:#181818;stroke-width:1.0;"/><text fill="#000000" font-family="sans-serif" font-size="13" font-weight="bold" lengthAdjust="spacing" textLength="7.23" x="514.9932" y="315.7256">5</text><text fill="#000000" font-family="sans-serif" font-size="13" lengthAdjust="spacing" textLength="268.0488" x="526.2231" y="315.7256">checkSerialNumberUniqueness(serialNumber)</text><path d="M20,348.9883 L80.1709,348.9883 L80.1709,358.2793 L70.1709,368.2793 L20,368.2793 L20,348.9883 " fill="#EEEEEE" style="stroke:#000000;stroke-width:1.5;"/><rect fill="none" height="81.873" style="stroke:#000000;stroke-width:1.5;" width="525.2759" x="20" y="348.9883"/><text fill="#000000" font-family="sans-serif" font-size="13" font-weight="bold" lengthAdjust="spacing" textLength="15.1709" x="35" y="364.0166">alt</text><text fill="#000000" font-family="sans-serif" font-size="11" font-weight="bold" lengthAdjust="spacing" textLength="183.9814" x="95.1709" y="362.8584">[Serial number invalid or duplicate]</text><polygon fill="#181818" points="80.5723,387.5703,70.5723,391.5703,80.5723,395.5703,76.5723,391.5703" style="stroke:#181818;stroke-width:1.0;"/><line style="stroke:#181818;stroke-width:1.0;stroke-dasharray:2.0,2.0;" x1="74.5723" x2="501.9932" y1="391.5703" y2="391.5703"/><text fill="#000000" font-family="sans-serif" font-size="13" font-weight="bold" lengthAdjust="spacing" textLength="7.23" x="86.5723" y="386.3076">6</text><text fill="#000000" font-family="sans-serif" font-size="13" lengthAdjust="spacing" textLength="388.1909" x="97.8022" y="386.3076">errorMessage("Invalid or duplicate serial number: " + serialNumber)</text><polygon fill="#181818" points="490.9932,418.8613,500.9932,422.8613,490.9932,426.8613,494.9932,422.8613" style="stroke:#181818;stroke-width:1.0;"/><line style="stroke:#181818;stroke-width:1.0;stroke-dasharray:2.0,2.0;" x1="69.5723" x2="496.9932" y1="422.8613" y2="422.8613"/><text fill="#000000" font-family="sans-serif" font-size="13" font-weight="bold" lengthAdjust="spacing" textLength="7.23" x="76.5723" y="417.5986">7</text><text fill="#000000" font-family="sans-serif" font-size="13" lengthAdjust="spacing" textLength="3.6118" x="87.8022" y="417.5986">&#160;</text><line style="stroke:#181818;stroke-width:1.0;" x1="502.9932" x2="544.9932" y1="468.1523" y2="468.1523"/><line style="stroke:#181818;stroke-width:1.0;" x1="544.9932" x2="544.9932" y1="468.1523" y2="481.1523"/><line style="stroke:#181818;stroke-width:1.0;" x1="503.9932" x2="544.9932" y1="481.1523" y2="481.1523"/><polygon fill="#181818" points="513.9932,477.1523,503.9932,481.1523,513.9932,485.1523,509.9932,481.1523" style="stroke:#181818;stroke-width:1.0;"/><text fill="#000000" font-family="sans-serif" font-size="13" font-weight="bold" lengthAdjust="spacing" textLength="7.23" x="509.9932" y="462.8896">8</text><text fill="#000000" font-family="sans-serif" font-size="13" lengthAdjust="spacing" textLength="351.5205" x="521.2231" y="462.8896">saveDrones(DroneModelId, serialNumbers, status=available)</text><polygon fill="#181818" points="80.5723,508.4434,70.5723,512.4434,80.5723,516.4434,76.5723,512.4434" style="stroke:#181818;stroke-width:1.0;"/><line style="stroke:#181818;stroke-width:1.0;stroke-dasharray:2.0,2.0;" x1="74.5723" x2="501.9932" y1="512.4434" y2="512.4434"/><text fill="#000000" font-family="sans-serif" font-size="13" font-weight="bold" lengthAdjust="spacing" textLength="7.23" x="86.5723" y="507.1807">9</text><text fill="#000000" font-family="sans-serif" font-size="13" lengthAdjust="spacing" textLength="387.8291" x="97.8022" y="507.1807">confirmationMessage("Drones added successfully", serialNumbers)</text><!--SRC=[XLD1RkCm3Bph5OHF3hhvG80MAE1BW6qlpZw0bPXOY2nv9Sf5Vb_QSHgdzc8569346Gv7fDFP-WuZjj067tGJGql0CPDAtv4EzHbFLFF54KJIZFxave3Ke0cVrf_WY2wHKcnPeFKbCRLGqzzCNXDK5ay3lAphQWDRU3K6gXWy9U00Uz-Jvn0lIc7cu7FxGL7sMkwW675m8DqKW0cgWn9fjjfsw1cAtLLhZ5st8zFso3I0LNM0xSiKsea9AIdnRvjuJFmM3BbKRkwSASbaOIlSwh03SmSFN6Ne9s5TI9nUZPPtkRtv1OcYHVS-MarBTUL2wE0e_aMdUK23zOzi1R9kvTuBwD5P8odh6RQS4pV_8Eg6z7dE-kFjq4TAQOMFZk4A1d-hRvG6ATxapbajHOpGkTpqh1HZY6-IMQQiBFOhpCdhb7m71Jp1iefXBLko4f69kDr6uXpzU2HlrF2fvMiaxEd_7PGZ8-VqZ3rQXn-EDZydI0T_jB55ji5_Evv-0ZI63AIijGIEsRbBiHYHbP5xzFK5]--></g></svg>