<?xml version="1.0" encoding="UTF-8" standalone="no"?><svg xmlns="http://www.w3.org/2000/svg" xmlns:xlink="http://www.w3.org/1999/xlink" contentScriptType="application/ecmascript" contentStyleType="text/css" height="117px" preserveAspectRatio="none" style="width:200px;height:117px;" version="1.1" viewBox="0 0 200 117" width="200px" zoomAndPan="magnify"><defs><filter height="300%" id="f1dy6pq7at2iou" width="300%" x="-1" y="-1"><feGaussianBlur result="blurOut" stdDeviation="2.0"/><feColorMatrix in="blurOut" result="blurOut2" type="matrix" values="0 0 0 0 0 0 0 0 0 0 0 0 0 0 0 0 0 0 .4 0"/><feOffset dx="4.0" dy="4.0" in="blurOut2" result="blurOut3"/><feBlend in="SourceGraphic" in2="blurOut3" mode="normal"/></filter></defs><g><!--MD5=[00e043cd67e6250741ec09a6d49e0d03]
class app.Application--><a href="Application.html" target="_top" title="Application.html" xlink:actuate="onRequest" xlink:href="Application.html" xlink:show="new" xlink:title="Application.html" xlink:type="simple"><rect codeLine="5" fill="#FEFECE" filter="url(#f1dy6pq7at2iou)" height="80.1758" id="app.Application" style="stroke: #A80036; stroke-width: 1.5;" width="148" x="20" y="7"/><ellipse cx="52.1" cy="26.1328" fill="#ADD1B2" rx="11" ry="11" style="stroke: #A80036; stroke-width: 1.0;"/><path d="M54.5731,32.2759 Q53.9921,32.5747 53.3529,32.7241 Q52.7138,32.8735 52.0082,32.8735 Q49.5014,32.8735 48.1815,31.2217 Q46.8617,29.5698 46.8617,26.4487 Q46.8617,23.3193 48.1815,21.6675 Q49.5014,20.0156 52.0082,20.0156 Q52.7138,20.0156 53.3612,20.165 Q54.0087,20.3145 54.5731,20.6133 L54.5731,23.3359 Q53.9423,22.7549 53.3488,22.4851 Q52.7553,22.2153 52.1244,22.2153 Q50.7797,22.2153 50.0949,23.282 Q49.4101,24.3486 49.4101,26.4487 Q49.4101,28.5405 50.0949,29.6072 Q50.7797,30.6738 52.1244,30.6738 Q52.7553,30.6738 53.3488,30.4041 Q53.9423,30.1343 54.5731,29.5532 Z "/><text fill="#000000" font-family="sans-serif" font-size="14" lengthAdjust="spacingAndGlyphs" textLength="78" x="69.9" y="25.5352">Application</text><text fill="#000000" font-family="sans-serif" font-size="10" lengthAdjust="spacingAndGlyphs" textLength="18" x="99.9" y="38.1563">app</text><line style="stroke: #A80036; stroke-width: 1.5;" x1="21" x2="167" y1="45.2656" y2="45.2656"/><rect fill="none" height="6" style="stroke: #C82930; stroke-width: 1.0;" width="6" x="28" y="53.2656"/><text fill="#000000" font-family="sans-serif" font-size="11" lengthAdjust="spacingAndGlyphs" text-decoration="underline" textLength="122" x="40" y="59.9004">SETTINGS: AppSettings</text><line style="stroke: #A80036; stroke-width: 1.5;" x1="21" x2="167" y1="66.2207" y2="66.2207"/><ellipse cx="31" cy="77.2207" fill="#84BE84" rx="3" ry="3" style="stroke: #038048; stroke-width: 1.0;"/><text fill="#000000" font-family="sans-serif" font-size="11" lengthAdjust="spacingAndGlyphs" text-decoration="underline" textLength="122" x="40" y="80.8555">settings(): AppSettings</text></a><text fill="#888888" font-family="sans-serif" font-size="10" lengthAdjust="spacingAndGlyphs" textLength="188" x="0" y="103.8438">UMLDoclet 2.0.12, PlantUML 1.2020.16</text><!--MD5=[a6fbf0410ed49a3972e909098ce14493]
@startuml
    set namespaceSeparator none
    hide empty fields
    hide empty methods

    class "<size:14>Application\n<size:10>app" as app.Application [[Application.html]] {
        {static} -SETTINGS: AppSettings
        {static} +settings(): AppSettings
    }

    center footer UMLDoclet 2.0.12, PlantUML 1.2020.16
@enduml

PlantUML version 1.2020.16(Sun Aug 23 21:20:43 WEST 2020)
(APACHE source distribution)
Java Runtime: OpenJDK Runtime Environment
JVM: OpenJDK 64-Bit Server VM
Default Encoding: UTF-8
Language: pt
Country: PT
--></g></svg>