<?xml version="1.0" encoding="UTF-8" standalone="no"?><svg xmlns="http://www.w3.org/2000/svg" xmlns:xlink="http://www.w3.org/1999/xlink" contentScriptType="application/ecmascript" contentStyleType="text/css" height="126px" preserveAspectRatio="none" style="width:200px;height:126px;" version="1.1" viewBox="0 0 200 126" width="200px" zoomAndPan="magnify"><defs><filter height="300%" id="f1dy6pq7at2iou" width="300%" x="-1" y="-1"><feGaussianBlur result="blurOut" stdDeviation="2.0"/><feColorMatrix in="blurOut" result="blurOut2" type="matrix" values="0 0 0 0 0 0 0 0 0 0 0 0 0 0 0 0 0 0 .4 0"/><feOffset dx="4.0" dy="4.0" in="blurOut2" result="blurOut3"/><feBlend in="SourceGraphic" in2="blurOut3" mode="normal"/></filter></defs><g><!--MD5=[00e043cd67e6250741ec09a6d49e0d03]
class app.Application--><a href="Application.html" target="_top" title="Application.html" xlink:actuate="onRequest" xlink:href="Application.html" xlink:show="new" xlink:title="Application.html" xlink:type="simple"><rect codeLine="5" fill="#FEFECE" filter="url(#f1dy6pq7at2iou)" height="88.6517" id="app.Application" style="stroke: #A80036; stroke-width: 1.5;" width="145" x="21.5" y="7"/><ellipse cx="53.15" cy="28.344" fill="#ADD1B2" rx="11" ry="11" style="stroke: #A80036; stroke-width: 1.0;"/><path d="M56.1188,33.9846 Q55.5406,34.2815 54.9,34.4221 Q54.2594,34.5783 53.5563,34.5783 Q51.0563,34.5783 49.7281,32.9377 Q48.4156,31.2815 48.4156,28.1565 Q48.4156,25.0315 49.7281,23.3752 Q51.0563,21.719 53.5563,21.719 Q54.2594,21.719 54.9,21.8752 Q55.5563,22.0315 56.1188,22.3283 L56.1188,25.0471 Q55.4938,24.469 54.9,24.2033 Q54.3063,23.9221 53.6813,23.9221 Q52.3375,23.9221 51.65,25.0002 Q50.9625,26.0627 50.9625,28.1565 Q50.9625,30.2502 51.65,31.3283 Q52.3375,32.3908 53.6813,32.3908 Q54.3063,32.3908 54.9,32.1252 Q55.4938,31.844 56.1188,31.2658 L56.1188,33.9846 Z "/><text fill="#000000" font-family="sans-serif" font-size="14" lengthAdjust="spacingAndGlyphs" textLength="76" x="70.85" y="26.9659">Application</text><text fill="#000000" font-family="sans-serif" font-size="10" lengthAdjust="spacingAndGlyphs" textLength="18" x="99.85" y="41.7579">app</text><line style="stroke: #A80036; stroke-width: 1.5;" x1="22.5" x2="165.5" y1="49.6879" y2="49.6879"/><rect fill="none" height="6" style="stroke: #C82930; stroke-width: 1.0;" width="6" x="29.5" y="57.6879"/><text fill="#000000" font-family="sans-serif" font-size="11" lengthAdjust="spacingAndGlyphs" text-decoration="underline" textLength="119" x="41.5" y="65.4468">SETTINGS: AppSettings</text><line style="stroke: #A80036; stroke-width: 1.5;" x1="22.5" x2="165.5" y1="72.6698" y2="72.6698"/><ellipse cx="32.5" cy="83.6698" fill="#84BE84" rx="3" ry="3" style="stroke: #038048; stroke-width: 1.0;"/><text fill="#000000" font-family="sans-serif" font-size="11" lengthAdjust="spacingAndGlyphs" text-decoration="underline" textLength="116" x="41.5" y="88.4287">settings(): AppSettings</text></a><text fill="#888888" font-family="sans-serif" font-size="10" lengthAdjust="spacingAndGlyphs" textLength="188" x="0" y="113.3417">UMLDoclet 2.0.12, PlantUML 1.2020.16</text><!--MD5=[081cc2e443dfe8f259bca953c86d457f]
@startuml
    set namespaceSeparator none
    hide empty fields
    hide empty methods

    class "<size:14>Application\n<size:10>app" as app.Application [[Application.html]] {
        {static} -SETTINGS: AppSettings
        {static} +settings(): AppSettings
    }

    center footer UMLDoclet 2.0.12, PlantUML 1.2020.16
@enduml

PlantUML version 1.2020.16(Sun Aug 23 21:20:43 WEST 2020)
(APACHE source distribution)
Java Runtime: Java(TM) SE Runtime Environment
JVM: Java HotSpot(TM) 64-Bit Server VM
Default Encoding: UTF-8
Language: en
Country: US
--></g></svg>