<?xml version="1.0" encoding="UTF-8" standalone="no"?><svg xmlns="http://www.w3.org/2000/svg" xmlns:xlink="http://www.w3.org/1999/xlink" contentScriptType="application/ecmascript" contentStyleType="text/css" height="141px" preserveAspectRatio="none" style="width:332px;height:141px;" version="1.1" viewBox="0 0 332 141" width="332px" zoomAndPan="magnify"><defs><filter height="300%" id="fso60veefx3c8" width="300%" x="-1" y="-1"><feGaussianBlur result="blurOut" stdDeviation="2.0"/><feColorMatrix in="blurOut" result="blurOut2" type="matrix" values="0 0 0 0 0 0 0 0 0 0 0 0 0 0 0 0 0 0 .4 0"/><feOffset dx="4.0" dy="4.0" in="blurOut2" result="blurOut3"/><feBlend in="SourceGraphic" in2="blurOut3" mode="normal"/></filter></defs><g><!--MD5=[1dfaaad021b58a6213fcda173cb4be6d]
class app.AppSettings--><a href="AppSettings.html" target="_top" title="AppSettings.html" xlink:actuate="onRequest" xlink:href="AppSettings.html" xlink:show="new" xlink:title="AppSettings.html" xlink:type="simple"><rect codeLine="5" fill="#FEFECE" filter="url(#fso60veefx3c8)" height="103.6336" id="app.AppSettings" style="stroke: #A80036; stroke-width: 1.5;" width="306" x="7" y="7"/><ellipse cx="114.75" cy="28.344" fill="#ADD1B2" rx="11" ry="11" style="stroke: #A80036; stroke-width: 1.0;"/><path d="M117.7188,33.9846 Q117.1406,34.2815 116.5,34.4221 Q115.8594,34.5783 115.1563,34.5783 Q112.6563,34.5783 111.3281,32.9377 Q110.0156,31.2815 110.0156,28.1565 Q110.0156,25.0315 111.3281,23.3752 Q112.6563,21.719 115.1563,21.719 Q115.8594,21.719 116.5,21.8752 Q117.1563,22.0315 117.7188,22.3283 L117.7188,25.0471 Q117.0938,24.469 116.5,24.2033 Q115.9063,23.9221 115.2813,23.9221 Q113.9375,23.9221 113.25,25.0002 Q112.5625,26.0627 112.5625,28.1565 Q112.5625,30.2502 113.25,31.3283 Q113.9375,32.3908 115.2813,32.3908 Q115.9063,32.3908 116.5,32.1252 Q117.0938,31.844 117.7188,31.2658 L117.7188,33.9846 Z "/><text fill="#000000" font-family="sans-serif" font-size="14" lengthAdjust="spacingAndGlyphs" textLength="82" x="135.25" y="26.9659">AppSettings</text><text fill="#000000" font-family="sans-serif" font-size="10" lengthAdjust="spacingAndGlyphs" textLength="18" x="167.25" y="41.7579">app</text><line style="stroke: #A80036; stroke-width: 1.5;" x1="8" x2="312" y1="49.6879" y2="49.6879"/><rect fill="none" height="6" style="stroke: #C82930; stroke-width: 1.0;" width="6" x="15" y="57.6879"/><text fill="#000000" font-family="sans-serif" font-size="11" lengthAdjust="spacingAndGlyphs" textLength="92" x="27" y="65.4468">props: Properties</text><line style="stroke: #A80036; stroke-width: 1.5;" x1="8" x2="312" y1="72.6698" y2="72.6698"/><ellipse cx="18" cy="83.6698" fill="#84BE84" rx="3" ry="3" style="stroke: #038048; stroke-width: 1.0;"/><text fill="#000000" font-family="sans-serif" font-size="11" lengthAdjust="spacingAndGlyphs" textLength="155" x="27" y="88.4287">persistenceUnitName(): String</text><ellipse cx="18" cy="98.6517" fill="#84BE84" rx="3" ry="3" style="stroke: #038048; stroke-width: 1.0;"/><text fill="#000000" font-family="sans-serif" font-size="11" lengthAdjust="spacingAndGlyphs" textLength="280" x="27" y="103.4106">extendedPersistenceProperties(): Map&lt;String, String&gt;</text></a><text fill="#888888" font-family="sans-serif" font-size="10" lengthAdjust="spacingAndGlyphs" textLength="188" x="66" y="128.3236">UMLDoclet 2.0.12, PlantUML 1.2020.16</text><!--MD5=[7d698e1ce1c662ed21dfb22f6cccd4b7]
@startuml
    set namespaceSeparator none
    hide empty fields
    hide empty methods

    class "<size:14>AppSettings\n<size:10>app" as app.AppSettings [[AppSettings.html]] {
        -props: Properties
        +persistenceUnitName(): String
        +extendedPersistenceProperties(): Map<String, String>
    }

    center footer UMLDoclet 2.0.12, PlantUML 1.2020.16
@enduml

PlantUML version 1.2020.16(Sun Aug 23 21:20:43 WEST 2020)
(APACHE source distribution)
Java Runtime: Java(TM) SE Runtime Environment
JVM: Java HotSpot(TM) 64-Bit Server VM
Default Encoding: UTF-8
Language: en
Country: US
--></g></svg>