<?xml version="1.0" encoding="UTF-8" standalone="no"?><svg xmlns="http://www.w3.org/2000/svg" xmlns:xlink="http://www.w3.org/1999/xlink" contentScriptType="application/ecmascript" contentStyleType="text/css" height="130px" preserveAspectRatio="none" style="width:342px;height:130px;" version="1.1" viewBox="0 0 342 130" width="342px" zoomAndPan="magnify"><defs><filter height="300%" id="fso60veefx3c8" width="300%" x="-1" y="-1"><feGaussianBlur result="blurOut" stdDeviation="2.0"/><feColorMatrix in="blurOut" result="blurOut2" type="matrix" values="0 0 0 0 0 0 0 0 0 0 0 0 0 0 0 0 0 0 .4 0"/><feOffset dx="4.0" dy="4.0" in="blurOut2" result="blurOut3"/><feBlend in="SourceGraphic" in2="blurOut3" mode="normal"/></filter></defs><g><!--MD5=[1dfaaad021b58a6213fcda173cb4be6d]
class app.AppSettings--><a href="AppSettings.html" target="_top" title="AppSettings.html" xlink:actuate="onRequest" xlink:href="AppSettings.html" xlink:show="new" xlink:title="AppSettings.html" xlink:type="simple"><rect codeLine="5" fill="#FEFECE" filter="url(#fso60veefx3c8)" height="93.1309" id="app.AppSettings" style="stroke: #A80036; stroke-width: 1.5;" width="316" x="7" y="7"/><ellipse cx="119.25" cy="26.1328" fill="#ADD1B2" rx="11" ry="11" style="stroke: #A80036; stroke-width: 1.0;"/><path d="M121.7231,32.2759 Q121.1421,32.5747 120.5029,32.7241 Q119.8638,32.8735 119.1582,32.8735 Q116.6514,32.8735 115.3315,31.2217 Q114.0117,29.5698 114.0117,26.4487 Q114.0117,23.3193 115.3315,21.6675 Q116.6514,20.0156 119.1582,20.0156 Q119.8638,20.0156 120.5112,20.165 Q121.1587,20.3145 121.7231,20.6133 L121.7231,23.3359 Q121.0923,22.7549 120.4988,22.4851 Q119.9053,22.2153 119.2744,22.2153 Q117.9297,22.2153 117.2449,23.282 Q116.5601,24.3486 116.5601,26.4487 Q116.5601,28.5405 117.2449,29.6072 Q117.9297,30.6738 119.2744,30.6738 Q119.9053,30.6738 120.4988,30.4041 Q121.0923,30.1343 121.7231,29.5532 Z "/><text fill="#000000" font-family="sans-serif" font-size="14" lengthAdjust="spacingAndGlyphs" textLength="83" x="139.75" y="25.5352">AppSettings</text><text fill="#000000" font-family="sans-serif" font-size="10" lengthAdjust="spacingAndGlyphs" textLength="18" x="172.25" y="38.1563">app</text><line style="stroke: #A80036; stroke-width: 1.5;" x1="8" x2="322" y1="45.2656" y2="45.2656"/><rect fill="none" height="6" style="stroke: #C82930; stroke-width: 1.0;" width="6" x="15" y="53.2656"/><text fill="#000000" font-family="sans-serif" font-size="11" lengthAdjust="spacingAndGlyphs" textLength="93" x="27" y="59.9004">props: Properties</text><line style="stroke: #A80036; stroke-width: 1.5;" x1="8" x2="322" y1="66.2207" y2="66.2207"/><ellipse cx="18" cy="77.2207" fill="#84BE84" rx="3" ry="3" style="stroke: #038048; stroke-width: 1.0;"/><text fill="#000000" font-family="sans-serif" font-size="11" lengthAdjust="spacingAndGlyphs" textLength="160" x="27" y="80.8555">persistenceUnitName(): String</text><ellipse cx="18" cy="90.1758" fill="#84BE84" rx="3" ry="3" style="stroke: #038048; stroke-width: 1.0;"/><text fill="#000000" font-family="sans-serif" font-size="11" lengthAdjust="spacingAndGlyphs" textLength="290" x="27" y="93.8105">extendedPersistenceProperties(): Map&lt;String, String&gt;</text></a><text fill="#888888" font-family="sans-serif" font-size="10" lengthAdjust="spacingAndGlyphs" textLength="188" x="71" y="116.7988">UMLDoclet 2.0.12, PlantUML 1.2020.16</text><!--MD5=[925ec7fbd397404685f6b6720599f4d1]
@startuml
    set namespaceSeparator none
    hide empty fields
    hide empty methods

    class "<size:14>AppSettings\n<size:10>app" as app.AppSettings [[AppSettings.html]] {
        -props: Properties
        +persistenceUnitName(): String
        +extendedPersistenceProperties(): Map<String, String>
    }

    center footer UMLDoclet 2.0.12, PlantUML 1.2020.16
@enduml

PlantUML version 1.2020.16(Sun Aug 23 21:20:43 WEST 2020)
(APACHE source distribution)
Java Runtime: OpenJDK Runtime Environment
JVM: OpenJDK 64-Bit Server VM
Default Encoding: UTF-8
Language: pt
Country: PT
--></g></svg>