<?xml version="1.0" encoding="UTF-8" standalone="no"?><svg xmlns="http://www.w3.org/2000/svg" xmlns:xlink="http://www.w3.org/1999/xlink" contentScriptType="application/ecmascript" contentStyleType="text/css" height="325px" preserveAspectRatio="none" style="width:376px;height:325px;" version="1.1" viewBox="0 0 376 325" width="376px" zoomAndPan="magnify"><defs><filter height="300%" id="f1dupko9z5s0v7" width="300%" x="-1" y="-1"><feGaussianBlur result="blurOut" stdDeviation="2.0"/><feColorMatrix in="blurOut" result="blurOut2" type="matrix" values="0 0 0 0 0 0 0 0 0 0 0 0 0 0 0 0 0 0 .4 0"/><feOffset dx="4.0" dy="4.0" in="blurOut2" result="blurOut3"/><feBlend in="SourceGraphic" in2="blurOut3" mode="normal"/></filter></defs><g><!--MD5=[d5ac3844f66b12d9e08170e47495e096]
cluster app--><polygon fill="#FFFFFF" filter="url(#f1dupko9z5s0v7)" points="16,6.602,48,6.602,55,31.6699,354,31.6699,354,295.602,16,295.602,16,6.602" style="stroke: #000000; stroke-width: 1.5;"/><line style="stroke: #000000; stroke-width: 1.5;" x1="16" x2="55" y1="31.6699" y2="31.6699"/><text fill="#000000" font-family="sans-serif" font-size="14" font-weight="bold" lengthAdjust="spacingAndGlyphs" textLength="26" x="20" y="23.5679">app</text><!--MD5=[00e043cd67e6250741ec09a6d49e0d03]
class app.Application--><a href="Application.html" target="_top" title="Application.html" xlink:actuate="onRequest" xlink:href="Application.html" xlink:show="new" xlink:title="Application.html" xlink:type="simple"><rect codeLine="3" fill="#FEFECE" filter="url(#f1dupko9z5s0v7)" height="62.9819" id="app.Application" style="stroke: #A80036; stroke-width: 1.5;" width="142" x="114" y="44.602"/><ellipse cx="150.6" cy="60.602" fill="#ADD1B2" rx="11" ry="11" style="stroke: #A80036; stroke-width: 1.0;"/><path d="M153.5688,66.2426 Q152.9906,66.5395 152.35,66.6801 Q151.7094,66.8364 151.0063,66.8364 Q148.5063,66.8364 147.1781,65.1957 Q145.8656,63.5395 145.8656,60.4145 Q145.8656,57.2895 147.1781,55.6332 Q148.5063,53.977 151.0063,53.977 Q151.7094,53.977 152.35,54.1332 Q153.0063,54.2895 153.5688,54.5864 L153.5688,57.3051 Q152.9438,56.727 152.35,56.4614 Q151.7563,56.1801 151.1313,56.1801 Q149.7875,56.1801 149.1,57.2582 Q148.4125,58.3207 148.4125,60.4145 Q148.4125,62.5082 149.1,63.5864 Q149.7875,64.6489 151.1313,64.6489 Q151.7563,64.6489 152.35,64.3832 Q152.9438,64.102 153.5688,63.5239 L153.5688,66.2426 Z "/><text fill="#000000" font-family="sans-serif" font-size="12" lengthAdjust="spacingAndGlyphs" textLength="62" x="169.4" y="65.258">Application</text><line style="stroke: #A80036; stroke-width: 1.5;" x1="115" x2="255" y1="76.602" y2="76.602"/><line style="stroke: #A80036; stroke-width: 1.5;" x1="115" x2="255" y1="84.602" y2="84.602"/><ellipse cx="125" cy="95.602" fill="#84BE84" rx="3" ry="3" style="stroke: #038048; stroke-width: 1.0;"/><text fill="#000000" font-family="sans-serif" font-size="11" lengthAdjust="spacingAndGlyphs" text-decoration="underline" textLength="116" x="134" y="100.3609">settings(): AppSettings</text></a><!--MD5=[1dfaaad021b58a6213fcda173cb4be6d]
class app.AppSettings--><a href="AppSettings.html" target="_top" title="AppSettings.html" xlink:actuate="onRequest" xlink:href="AppSettings.html" xlink:show="new" xlink:title="AppSettings.html" xlink:type="simple"><rect codeLine="7" fill="#FEFECE" filter="url(#f1dupko9z5s0v7)" height="92.9457" id="app.AppSettings" style="stroke: #A80036; stroke-width: 1.5;" width="306" x="32" y="186.602"/><ellipse cx="147.25" cy="202.602" fill="#ADD1B2" rx="11" ry="11" style="stroke: #A80036; stroke-width: 1.0;"/><path d="M150.2188,208.2426 Q149.6406,208.5395 149,208.6801 Q148.3594,208.8364 147.6563,208.8364 Q145.1563,208.8364 143.8281,207.1957 Q142.5156,205.5395 142.5156,202.4145 Q142.5156,199.2895 143.8281,197.6332 Q145.1563,195.977 147.6563,195.977 Q148.3594,195.977 149,196.1332 Q149.6563,196.2895 150.2188,196.5864 L150.2188,199.3051 Q149.5938,198.727 149,198.4614 Q148.4063,198.1801 147.7813,198.1801 Q146.4375,198.1801 145.75,199.2582 Q145.0625,200.3207 145.0625,202.4145 Q145.0625,204.5082 145.75,205.5864 Q146.4375,206.6489 147.7813,206.6489 Q148.4063,206.6489 149,206.3832 Q149.5938,206.102 150.2188,205.5239 L150.2188,208.2426 Z "/><text fill="#000000" font-family="sans-serif" font-size="12" lengthAdjust="spacingAndGlyphs" textLength="67" x="167.75" y="207.258">AppSettings</text><line style="stroke: #A80036; stroke-width: 1.5;" x1="33" x2="337" y1="218.602" y2="218.602"/><rect fill="none" height="6" style="stroke: #C82930; stroke-width: 1.0;" width="6" x="40" y="226.602"/><text fill="#000000" font-family="sans-serif" font-size="11" lengthAdjust="spacingAndGlyphs" textLength="92" x="52" y="234.3609">props: Properties</text><line style="stroke: #A80036; stroke-width: 1.5;" x1="33" x2="337" y1="241.5839" y2="241.5839"/><ellipse cx="43" cy="252.5839" fill="#84BE84" rx="3" ry="3" style="stroke: #038048; stroke-width: 1.0;"/><text fill="#000000" font-family="sans-serif" font-size="11" lengthAdjust="spacingAndGlyphs" textLength="155" x="52" y="257.3428">persistenceUnitName(): String</text><ellipse cx="43" cy="267.5658" fill="#84BE84" rx="3" ry="3" style="stroke: #038048; stroke-width: 1.0;"/><text fill="#000000" font-family="sans-serif" font-size="11" lengthAdjust="spacingAndGlyphs" textLength="280" x="52" y="272.3247">extendedPersistenceProperties(): Map&lt;String, String&gt;</text></a><!--MD5=[a3111910667d0e15ae38674609e9e65a]
link app.Application to app.AppSettings--><path codeLine="13" d="M185,107.722 C185,128.732 185,157.092 185,181.422 " fill="none" id="app.Application-to-app.AppSettings" style="stroke: #A80036; stroke-width: 1.0;"/><polygon fill="#A80036" points="185,186.552,189,177.552,185,181.552,181,177.552,185,186.552" style="stroke: #A80036; stroke-width: 1.0;"/><text fill="#000000" font-family="sans-serif" font-size="13" lengthAdjust="spacingAndGlyphs" textLength="58" x="186" y="152.499">SETTINGS</text><text fill="#888888" font-family="sans-serif" font-size="10" lengthAdjust="spacingAndGlyphs" textLength="188" x="85" y="312.292">UMLDoclet 2.0.12, PlantUML 1.2020.16</text><!--MD5=[f1f0f41a087bcfebd61fdb65c7f7c738]
@startuml
    namespace app {

        class Application [[Application.html]] {
            {static} +settings(): AppSettings
        }

        class AppSettings [[AppSettings.html]] {
            -props: Properties
            +persistenceUnitName(): String
            +extendedPersistenceProperties(): Map<String, String>
        }

        Application - -> AppSettings: SETTINGS
    }

    center footer UMLDoclet 2.0.12, PlantUML 1.2020.16
@enduml

PlantUML version 1.2020.16(Sun Aug 23 21:20:43 WEST 2020)
(APACHE source distribution)
Java Runtime: Java(TM) SE Runtime Environment
JVM: Java HotSpot(TM) 64-Bit Server VM
Default Encoding: UTF-8
Language: en
Country: US
--></g></svg>