<?xml version="1.0" encoding="UTF-8" standalone="no"?><svg xmlns="http://www.w3.org/2000/svg" xmlns:xlink="http://www.w3.org/1999/xlink" contentScriptType="application/ecmascript" contentStyleType="text/css" height="310px" preserveAspectRatio="none" style="width:386px;height:310px;" version="1.1" viewBox="0 0 386 310" width="386px" zoomAndPan="magnify"><defs><filter height="300%" id="f1dupko9z5s0v7" width="300%" x="-1" y="-1"><feGaussianBlur result="blurOut" stdDeviation="2.0"/><feColorMatrix in="blurOut" result="blurOut2" type="matrix" values="0 0 0 0 0 0 0 0 0 0 0 0 0 0 0 0 0 0 .4 0"/><feOffset dx="4.0" dy="4.0" in="blurOut2" result="blurOut3"/><feBlend in="SourceGraphic" in2="blurOut3" mode="normal"/></filter></defs><g><!--MD5=[d5ac3844f66b12d9e08170e47495e096]
cluster app--><polygon fill="#FFFFFF" filter="url(#f1dupko9z5s0v7)" points="16,6,48,6,55,28.4883,364,28.4883,364,281.82,16,281.82,16,6" style="stroke: #000000; stroke-width: 1.5;"/><line style="stroke: #000000; stroke-width: 1.5;" x1="16" x2="55" y1="28.4883" y2="28.4883"/><text fill="#000000" font-family="sans-serif" font-size="14" font-weight="bold" lengthAdjust="spacingAndGlyphs" textLength="26" x="20" y="21.5352">app</text><!--MD5=[00e043cd67e6250741ec09a6d49e0d03]
class app.Application--><a href="Application.html" target="_top" title="Application.html" xlink:actuate="onRequest" xlink:href="Application.html" xlink:show="new" xlink:title="Application.html" xlink:type="simple"><rect codeLine="3" fill="#FEFECE" filter="url(#f1dupko9z5s0v7)" height="60.9551" id="app.Application" style="stroke: #A80036; stroke-width: 1.5;" width="148" x="116" y="41"/><ellipse cx="154.4" cy="57" fill="#ADD1B2" rx="11" ry="11" style="stroke: #A80036; stroke-width: 1.0;"/><path d="M156.8731,63.1431 Q156.2921,63.4419 155.6529,63.5913 Q155.0138,63.7407 154.3082,63.7407 Q151.8014,63.7407 150.4815,62.0889 Q149.1617,60.437 149.1617,57.3159 Q149.1617,54.1865 150.4815,52.5347 Q151.8014,50.8828 154.3082,50.8828 Q155.0138,50.8828 155.6612,51.0322 Q156.3087,51.1816 156.8731,51.4805 L156.8731,54.2031 Q156.2423,53.6221 155.6488,53.3523 Q155.0553,53.0825 154.4244,53.0825 Q153.0797,53.0825 152.3949,54.1492 Q151.7101,55.2158 151.7101,57.3159 Q151.7101,59.4077 152.3949,60.4744 Q153.0797,61.541 154.4244,61.541 Q155.0553,61.541 155.6488,61.2712 Q156.2423,61.0015 156.8731,60.4204 Z "/><text fill="#000000" font-family="sans-serif" font-size="12" lengthAdjust="spacingAndGlyphs" textLength="64" x="173.6" y="61.5352">Application</text><line style="stroke: #A80036; stroke-width: 1.5;" x1="117" x2="263" y1="73" y2="73"/><line style="stroke: #A80036; stroke-width: 1.5;" x1="117" x2="263" y1="81" y2="81"/><ellipse cx="127" cy="92" fill="#84BE84" rx="3" ry="3" style="stroke: #038048; stroke-width: 1.0;"/><text fill="#000000" font-family="sans-serif" font-size="11" lengthAdjust="spacingAndGlyphs" text-decoration="underline" textLength="122" x="136" y="95.6348">settings(): AppSettings</text></a><!--MD5=[1dfaaad021b58a6213fcda173cb4be6d]
class app.AppSettings--><a href="AppSettings.html" target="_top" title="AppSettings.html" xlink:actuate="onRequest" xlink:href="AppSettings.html" xlink:show="new" xlink:title="AppSettings.html" xlink:type="simple"><rect codeLine="7" fill="#FEFECE" filter="url(#f1dupko9z5s0v7)" height="86.8652" id="app.AppSettings" style="stroke: #A80036; stroke-width: 1.5;" width="316" x="32" y="178.95"/><ellipse cx="151.75" cy="194.95" fill="#ADD1B2" rx="11" ry="11" style="stroke: #A80036; stroke-width: 1.0;"/><path d="M154.2231,201.0931 Q153.6421,201.3919 153.0029,201.5413 Q152.3638,201.6907 151.6582,201.6907 Q149.1514,201.6907 147.8315,200.0389 Q146.5117,198.387 146.5117,195.2659 Q146.5117,192.1365 147.8315,190.4847 Q149.1514,188.8328 151.6582,188.8328 Q152.3638,188.8328 153.0112,188.9822 Q153.6587,189.1316 154.2231,189.4305 L154.2231,192.1531 Q153.5923,191.5721 152.9988,191.3023 Q152.4053,191.0325 151.7744,191.0325 Q150.4297,191.0325 149.7449,192.0992 Q149.0601,193.1658 149.0601,195.2659 Q149.0601,197.3577 149.7449,198.4244 Q150.4297,199.491 151.7744,199.491 Q152.4053,199.491 152.9988,199.2212 Q153.5923,198.9515 154.2231,198.3704 Z "/><text fill="#000000" font-family="sans-serif" font-size="12" lengthAdjust="spacingAndGlyphs" textLength="68" x="172.25" y="199.4852">AppSettings</text><line style="stroke: #A80036; stroke-width: 1.5;" x1="33" x2="347" y1="210.95" y2="210.95"/><rect fill="none" height="6" style="stroke: #C82930; stroke-width: 1.0;" width="6" x="40" y="218.95"/><text fill="#000000" font-family="sans-serif" font-size="11" lengthAdjust="spacingAndGlyphs" textLength="93" x="52" y="225.5848">props: Properties</text><line style="stroke: #A80036; stroke-width: 1.5;" x1="33" x2="347" y1="231.9051" y2="231.9051"/><ellipse cx="43" cy="242.9051" fill="#84BE84" rx="3" ry="3" style="stroke: #038048; stroke-width: 1.0;"/><text fill="#000000" font-family="sans-serif" font-size="11" lengthAdjust="spacingAndGlyphs" textLength="160" x="52" y="246.5398">persistenceUnitName(): String</text><ellipse cx="43" cy="255.8602" fill="#84BE84" rx="3" ry="3" style="stroke: #038048; stroke-width: 1.0;"/><text fill="#000000" font-family="sans-serif" font-size="11" lengthAdjust="spacingAndGlyphs" textLength="290" x="52" y="259.4949">extendedPersistenceProperties(): Map&lt;String, String&gt;</text></a><!--MD5=[a3111910667d0e15ae38674609e9e65a]
link app.Application to app.AppSettings--><path codeLine="13" d="M190,102.25 C190,122.27 190,149.12 190,172.27 " fill="none" id="app.Application-to-app.AppSettings" style="stroke: #A80036; stroke-width: 1.0;"/><polygon fill="#A80036" points="190,177.17,194,168.17,190,172.17,186,168.17,190,177.17" style="stroke: #A80036; stroke-width: 1.0;"/><text fill="#000000" font-family="sans-serif" font-size="13" lengthAdjust="spacingAndGlyphs" textLength="60" x="191" y="145.5184">SETTINGS</text><text fill="#888888" font-family="sans-serif" font-size="10" lengthAdjust="spacingAndGlyphs" textLength="188" x="90" y="297.488">UMLDoclet 2.0.12, PlantUML 1.2020.16</text><!--MD5=[f37e8a0563089f1667b1eee6e7df944b]
@startuml
    namespace app {

        class Application [[Application.html]] {
            {static} +settings(): AppSettings
        }

        class AppSettings [[AppSettings.html]] {
            -props: Properties
            +persistenceUnitName(): String
            +extendedPersistenceProperties(): Map<String, String>
        }

        Application - -> AppSettings: SETTINGS
    }

    center footer UMLDoclet 2.0.12, PlantUML 1.2020.16
@enduml

PlantUML version 1.2020.16(Sun Aug 23 21:20:43 WEST 2020)
(APACHE source distribution)
Java Runtime: OpenJDK Runtime Environment
JVM: OpenJDK 64-Bit Server VM
Default Encoding: UTF-8
Language: pt
Country: PT
--></g></svg>