<svg xmlns="http://www.w3.org/2000/svg" xmlns:xlink="http://www.w3.org/1999/xlink" contentStyleType="text/css" height="1271px" preserveAspectRatio="none" style="width:2314px;height:1271px;background:#FFFFFF;" version="1.1" viewBox="0 0 2314 1271" width="2314px" zoomAndPan="magnify"><title>UI Sequence Diagram (SSD) - Edit Show Request of Client (with History)</title><defs/><g><text fill="#000000" font-family="sans-serif" font-size="14" font-weight="bold" lengthAdjust="spacing" textLength="491.9581" x="910.364" y="29.9659">UI Sequence Diagram (SSD) - Edit Show Request of Client (with History)</text><rect fill="#FFFFFF" height="1036.108" style="stroke:#181818;stroke-width:1.0;" width="10" x="61.1558" y="134.1358"/><rect fill="#FFFFFF" height="1012.402" style="stroke:#181818;stroke-width:1.0;" width="10" x="330.803" y="157.8419"/><rect fill="#FFFFFF" height="945.6281" style="stroke:#181818;stroke-width:1.0;" width="10" x="718.2303" y="233.6158"/><rect fill="#FFFFFF" height="303.0602" style="stroke:#181818;stroke-width:1.0;" width="10" x="723.2303" y="867.1837"/><rect fill="#FFFFFF" height="94.8419" style="stroke:#181818;stroke-width:1.0;" width="10" x="973.7335" y="265.3218"/><rect fill="#FFFFFF" height="94.8419" style="stroke:#181818;stroke-width:1.0;" width="10" x="973.7335" y="582.1058"/><rect fill="#FFFFFF" height="31.706" style="stroke:#181818;stroke-width:1.0;" width="10" x="1161.7569" y="391.8697"/><rect fill="#FFFFFF" height="31.706" style="stroke:#181818;stroke-width:1.0;" width="10" x="1396.288" y="708.6536"/><rect fill="#FFFFFF" height="31.706" style="stroke:#181818;stroke-width:1.0;" width="10" x="1396.288" y="1011.7138"/><rect fill="#FFFFFF" height="31.706" style="stroke:#181818;stroke-width:1.0;" width="10" x="1831.9606" y="948.3018"/><rect fill="#FFFFFF" height="31.706" style="stroke:#181818;stroke-width:1.0;" width="10" x="1831.9606" y="1075.1258"/><line style="stroke:#181818;stroke-width:0.5;stroke-dasharray:5.0,5.0;" x1="66" x2="66" y1="124.1358" y2="1188.2439"/><line style="stroke:#181818;stroke-width:0.5;stroke-dasharray:5.0,5.0;" x1="335.2402" x2="335.2402" y1="124.1358" y2="1188.2439"/><line style="stroke:#181818;stroke-width:0.5;stroke-dasharray:5.0,5.0;" x1="723.0686" x2="723.0686" y1="197.8758" y2="1188.2439"/><line style="stroke:#181818;stroke-width:0.5;stroke-dasharray:5.0,5.0;" x1="977.7667" x2="977.7667" y1="124.1358" y2="1188.2439"/><line style="stroke:#181818;stroke-width:0.5;stroke-dasharray:5.0,5.0;" x1="1166.7002" x2="1166.7002" y1="314.8897" y2="1188.2439"/><line style="stroke:#181818;stroke-width:0.5;stroke-dasharray:5.0,5.0;" x1="1400.8135" x2="1400.8135" y1="631.6737" y2="1188.2439"/><line style="stroke:#181818;stroke-width:0.5;stroke-dasharray:5.0,5.0;" x1="1649.7626" x2="1649.7626" y1="124.1358" y2="1188.2439"/><line style="stroke:#181818;stroke-width:0.5;stroke-dasharray:5.0,5.0;" x1="1836.1638" x2="1836.1638" y1="124.1358" y2="1188.2439"/><line style="stroke:#181818;stroke-width:0.5;stroke-dasharray:5.0,5.0;" x1="2090.6609" x2="2090.6609" y1="124.1358" y2="1188.2439"/><line style="stroke:#181818;stroke-width:0.5;stroke-dasharray:5.0,5.0;" x1="2228.9626" x2="2228.9626" y1="124.1358" y2="1188.2439"/><text fill="#000000" font-family="sans-serif" font-size="14" lengthAdjust="spacing" textLength="116.3116" x="5" y="120.0339">CRM Collaborator</text><ellipse cx="66.1558" cy="53.5679" fill="#E3E3E3" rx="8" ry="8" style="stroke:#181818;stroke-width:0.5;"/><path d="M66.1558,61.5679 L66.1558,88.5679 M53.1558,69.5679 L79.1558,69.5679 M66.1558,88.5679 L53.1558,103.5679 M66.1558,88.5679 L79.1558,103.5679 " fill="none" style="stroke:#181818;stroke-width:0.5;"/><text fill="#000000" font-family="sans-serif" font-size="14" lengthAdjust="spacing" textLength="116.3116" x="5" y="1202.2098">CRM Collaborator</text><ellipse cx="66.1558" cy="1214.8118" fill="#E3E3E3" rx="8" ry="8" style="stroke:#181818;stroke-width:0.5;"/><path d="M66.1558,1222.8118 L66.1558,1249.8118 M53.1558,1230.8118 L79.1558,1230.8118 M66.1558,1249.8118 L53.1558,1264.8118 M66.1558,1249.8118 L79.1558,1264.8118 " fill="none" style="stroke:#181818;stroke-width:0.5;"/><rect fill="#E3E3E3" height="33.0679" rx="2.5" ry="2.5" style="stroke:#181818;stroke-width:0.5;" width="147.1255" x="262.2402" y="90.0679"/><text fill="#000000" font-family="sans-serif" font-size="14" lengthAdjust="spacing" textLength="133.1255" x="269.2402" y="112.0339">:EditShowRequestUI</text><rect fill="#E3E3E3" height="33.0679" rx="2.5" ry="2.5" style="stroke:#181818;stroke-width:0.5;" width="147.1255" x="262.2402" y="1187.2439"/><text fill="#000000" font-family="sans-serif" font-size="14" lengthAdjust="spacing" textLength="133.1255" x="269.2402" y="1209.2098">:EditShowRequestUI</text><rect fill="#E3E3E3" height="33.0679" rx="2.5" ry="2.5" style="stroke:#181818;stroke-width:0.5;" width="198.3233" x="624.0686" y="1187.2439"/><text fill="#000000" font-family="sans-serif" font-size="14" lengthAdjust="spacing" textLength="184.3233" x="631.0686" y="1209.2098">:EditShowRequestController</text><rect fill="#E3E3E3" height="52.1358" rx="2.5" ry="2.5" style="stroke:#181818;stroke-width:0.5;" width="143.9335" x="906.7667" y="71"/><text fill="#000000" font-family="sans-serif" font-size="14" lengthAdjust="spacing" textLength="123.2556" x="917.1057" y="92.9659">repositoryProvider</text><text fill="#000000" font-family="sans-serif" font-size="14" lengthAdjust="spacing" textLength="129.9335" x="913.7667" y="112.0339">:RepositoryProvider</text><rect fill="#E3E3E3" height="52.1358" rx="2.5" ry="2.5" style="stroke:#181818;stroke-width:0.5;" width="143.9335" x="906.7667" y="1187.2439"/><text fill="#000000" font-family="sans-serif" font-size="14" lengthAdjust="spacing" textLength="123.2556" x="917.1057" y="1209.2098">repositoryProvider</text><text fill="#000000" font-family="sans-serif" font-size="14" lengthAdjust="spacing" textLength="129.9335" x="913.7667" y="1228.2777">:RepositoryProvider</text><rect fill="#E3E3E3" height="52.1358" rx="2.5" ry="2.5" style="stroke:#181818;stroke-width:0.5;" width="212.1133" x="1060.7002" y="1187.2439"/><text fill="#000000" font-family="sans-serif" font-size="14" lengthAdjust="spacing" textLength="192.2333" x="1070.6402" y="1209.2098">costumerRepositoryInterface</text><text fill="#000000" font-family="sans-serif" font-size="14" lengthAdjust="spacing" textLength="198.1133" x="1067.7002" y="1228.2777">:CostumerRepositoryInterface</text><rect fill="#E3E3E3" height="52.1358" rx="2.5" ry="2.5" style="stroke:#181818;stroke-width:0.5;" width="236.9491" x="1282.8135" y="1187.2439"/><text fill="#000000" font-family="sans-serif" font-size="14" lengthAdjust="spacing" textLength="218.2172" x="1292.1795" y="1209.2098">showRequestRepositoryInterface</text><text fill="#000000" font-family="sans-serif" font-size="14" lengthAdjust="spacing" textLength="222.9491" x="1289.8135" y="1228.2777">:ShowRequestRepositoryInterface</text><rect fill="#E3E3E3" height="52.1358" rx="2.5" ry="2.5" style="stroke:#181818;stroke-width:0.5;" width="241.4012" x="1529.7626" y="71"/><text fill="#000000" font-family="sans-serif" font-size="14" lengthAdjust="spacing" textLength="222.6692" x="1539.1286" y="92.9659">showProposalRepositoryInterface</text><text fill="#000000" font-family="sans-serif" font-size="14" lengthAdjust="spacing" textLength="227.4012" x="1536.7626" y="112.0339">:ShowProposalRepositoryInterface</text><rect fill="#E3E3E3" height="52.1358" rx="2.5" ry="2.5" style="stroke:#181818;stroke-width:0.5;" width="241.4012" x="1529.7626" y="1187.2439"/><text fill="#000000" font-family="sans-serif" font-size="14" lengthAdjust="spacing" textLength="222.6692" x="1539.1286" y="1209.2098">showProposalRepositoryInterface</text><text fill="#000000" font-family="sans-serif" font-size="14" lengthAdjust="spacing" textLength="227.4012" x="1536.7626" y="1228.2777">:ShowProposalRepositoryInterface</text><rect fill="#E3E3E3" height="52.1358" rx="2.5" ry="2.5" style="stroke:#181818;stroke-width:0.5;" width="111.5936" x="1781.1638" y="71"/><text fill="#000000" font-family="sans-serif" font-size="14" lengthAdjust="spacing" textLength="92.1197" x="1790.9008" y="92.9659">historyLogger</text><text fill="#000000" font-family="sans-serif" font-size="14" lengthAdjust="spacing" textLength="97.5936" x="1788.1638" y="112.0339">:HistoryLogger</text><rect fill="#E3E3E3" height="52.1358" rx="2.5" ry="2.5" style="stroke:#181818;stroke-width:0.5;" width="111.5936" x="1781.1638" y="1187.2439"/><text fill="#000000" font-family="sans-serif" font-size="14" lengthAdjust="spacing" textLength="92.1197" x="1790.9008" y="1209.2098">historyLogger</text><text fill="#000000" font-family="sans-serif" font-size="14" lengthAdjust="spacing" textLength="97.5936" x="1788.1638" y="1228.2777">:HistoryLogger</text><rect fill="#E3E3E3" height="52.1358" rx="2.5" ry="2.5" style="stroke:#181818;stroke-width:0.5;" width="99.3017" x="2041.6609" y="71"/><text fill="#000000" font-family="sans-serif" font-size="14" lengthAdjust="spacing" textLength="79.8277" x="2051.3979" y="92.9659">historyEntry</text><text fill="#000000" font-family="sans-serif" font-size="14" lengthAdjust="spacing" textLength="85.3017" x="2048.6609" y="112.0339">:HistoryEntry</text><rect fill="#E3E3E3" height="52.1358" rx="2.5" ry="2.5" style="stroke:#181818;stroke-width:0.5;" width="99.3017" x="2041.6609" y="1187.2439"/><text fill="#000000" font-family="sans-serif" font-size="14" lengthAdjust="spacing" textLength="79.8277" x="2051.3979" y="1209.2098">historyEntry</text><text fill="#000000" font-family="sans-serif" font-size="14" lengthAdjust="spacing" textLength="85.3017" x="2048.6609" y="1228.2777">:HistoryEntry</text><rect fill="#E3E3E3" height="33.0679" rx="2.5" ry="2.5" style="stroke:#181818;stroke-width:0.5;" width="157.7234" x="2150.9626" y="90.0679"/><text fill="#000000" font-family="sans-serif" font-size="14" lengthAdjust="spacing" textLength="143.7234" x="2157.9626" y="112.0339">selectedShowRequest</text><rect fill="#E3E3E3" height="33.0679" rx="2.5" ry="2.5" style="stroke:#181818;stroke-width:0.5;" width="157.7234" x="2150.9626" y="1187.2439"/><text fill="#000000" font-family="sans-serif" font-size="14" lengthAdjust="spacing" textLength="143.7234" x="2157.9626" y="1209.2098">selectedShowRequest</text><rect fill="#FFFFFF" height="1036.108" style="stroke:#181818;stroke-width:1.0;" width="10" x="61.1558" y="134.1358"/><rect fill="#FFFFFF" height="1012.402" style="stroke:#181818;stroke-width:1.0;" width="10" x="330.803" y="157.8419"/><rect fill="#FFFFFF" height="945.6281" style="stroke:#181818;stroke-width:1.0;" width="10" x="718.2303" y="233.6158"/><rect fill="#FFFFFF" height="303.0602" style="stroke:#181818;stroke-width:1.0;" width="10" x="723.2303" y="867.1837"/><rect fill="#FFFFFF" height="94.8419" style="stroke:#181818;stroke-width:1.0;" width="10" x="973.7335" y="265.3218"/><rect fill="#FFFFFF" height="94.8419" style="stroke:#181818;stroke-width:1.0;" width="10" x="973.7335" y="582.1058"/><rect fill="#FFFFFF" height="31.706" style="stroke:#181818;stroke-width:1.0;" width="10" x="1161.7569" y="391.8697"/><rect fill="#FFFFFF" height="31.706" style="stroke:#181818;stroke-width:1.0;" width="10" x="1396.288" y="708.6536"/><rect fill="#FFFFFF" height="31.706" style="stroke:#181818;stroke-width:1.0;" width="10" x="1396.288" y="1011.7138"/><rect fill="#FFFFFF" height="31.706" style="stroke:#181818;stroke-width:1.0;" width="10" x="1831.9606" y="948.3018"/><rect fill="#FFFFFF" height="31.706" style="stroke:#181818;stroke-width:1.0;" width="10" x="1831.9606" y="1075.1258"/><polygon fill="#181818" points="318.803,153.8419,328.803,157.8419,318.803,161.8419,322.803,157.8419" style="stroke:#181818;stroke-width:1.0;"/><line style="stroke:#181818;stroke-width:1.0;" x1="71.1558" x2="324.803" y1="157.8419" y2="157.8419"/><text fill="#000000" font-family="sans-serif" font-size="13" font-weight="bold" lengthAdjust="spacing" textLength="7.436" x="78.1558" y="152.0328">1</text><text fill="#000000" font-family="sans-serif" font-size="13" lengthAdjust="spacing" textLength="215.6442" x="89.5918" y="152.0328">ask to edit a Show Request of client</text><polygon fill="#181818" points="612.0686,185.5479,622.0686,189.5479,612.0686,193.5479,616.0686,189.5479" style="stroke:#181818;stroke-width:1.0;"/><line style="stroke:#181818;stroke-width:1.0;" x1="340.803" x2="618.0686" y1="189.5479" y2="189.5479"/><text fill="#000000" font-family="sans-serif" font-size="13" font-weight="bold" lengthAdjust="spacing" textLength="7.436" x="347.803" y="183.7389">2</text><text fill="#000000" font-family="sans-serif" font-size="13" lengthAdjust="spacing" textLength="38.259" x="359.239" y="183.7389">create</text><rect fill="#E3E3E3" height="33.0679" rx="2.5" ry="2.5" style="stroke:#181818;stroke-width:0.5;" width="198.3233" x="624.0686" y="165.8419"/><text fill="#000000" font-family="sans-serif" font-size="14" lengthAdjust="spacing" textLength="184.3233" x="631.0686" y="187.8078">:EditShowRequestController</text><polygon fill="#181818" points="706.2303,229.6158,716.2303,233.6158,706.2303,237.6158,710.2303,233.6158" style="stroke:#181818;stroke-width:1.0;"/><line style="stroke:#181818;stroke-width:1.0;" x1="340.803" x2="712.2303" y1="233.6158" y2="233.6158"/><text fill="#000000" font-family="sans-serif" font-size="13" font-weight="bold" lengthAdjust="spacing" textLength="7.436" x="347.803" y="227.8068">3</text><text fill="#000000" font-family="sans-serif" font-size="13" lengthAdjust="spacing" textLength="141.9341" x="359.239" y="227.8068">listCostumerInSystem()</text><polygon fill="#181818" points="961.7335,261.3218,971.7335,265.3218,961.7335,269.3218,965.7335,265.3218" style="stroke:#181818;stroke-width:1.0;"/><line style="stroke:#181818;stroke-width:1.0;" x1="728.2303" x2="967.7335" y1="265.3218" y2="265.3218"/><text fill="#000000" font-family="sans-serif" font-size="13" font-weight="bold" lengthAdjust="spacing" textLength="7.436" x="735.2303" y="259.5128">4</text><text fill="#000000" font-family="sans-serif" font-size="13" lengthAdjust="spacing" textLength="153.1272" x="746.6663" y="259.5128">getCostumerRepository()</text><polygon fill="#181818" points="1048.7002,293.0278,1058.7002,297.0278,1048.7002,301.0278,1052.7002,297.0278" style="stroke:#181818;stroke-width:1.0;"/><line style="stroke:#181818;stroke-width:1.0;" x1="983.7335" x2="1054.7002" y1="297.0278" y2="297.0278"/><text fill="#000000" font-family="sans-serif" font-size="13" font-weight="bold" lengthAdjust="spacing" textLength="7.436" x="990.7335" y="291.2188">5</text><text fill="#000000" font-family="sans-serif" font-size="13" lengthAdjust="spacing" textLength="38.259" x="1002.1695" y="291.2188">create</text><rect fill="#E3E3E3" height="52.1358" rx="2.5" ry="2.5" style="stroke:#181818;stroke-width:0.5;" width="212.1133" x="1060.7002" y="273.3218"/><text fill="#000000" font-family="sans-serif" font-size="14" lengthAdjust="spacing" textLength="192.2333" x="1070.6402" y="295.2877">costumerRepositoryInterface</text><text fill="#000000" font-family="sans-serif" font-size="14" lengthAdjust="spacing" textLength="198.1133" x="1067.7002" y="314.3557">:CostumerRepositoryInterface</text><polygon fill="#181818" points="739.2303,356.1637,729.2303,360.1637,739.2303,364.1637,735.2303,360.1637" style="stroke:#181818;stroke-width:1.0;"/><line style="stroke:#181818;stroke-width:1.0;stroke-dasharray:2.0,2.0;" x1="733.2303" x2="977.7335" y1="360.1637" y2="360.1637"/><text fill="#000000" font-family="sans-serif" font-size="13" font-weight="bold" lengthAdjust="spacing" textLength="7.436" x="745.2303" y="354.3546">6</text><text fill="#000000" font-family="sans-serif" font-size="13" lengthAdjust="spacing" textLength="178.5031" x="756.6663" y="354.3546">costumerRepositoryInterface</text><polygon fill="#181818" points="1149.7569,387.8697,1159.7569,391.8697,1149.7569,395.8697,1153.7569,391.8697" style="stroke:#181818;stroke-width:1.0;"/><line style="stroke:#181818;stroke-width:1.0;" x1="728.2303" x2="1155.7569" y1="391.8697" y2="391.8697"/><text fill="#000000" font-family="sans-serif" font-size="13" font-weight="bold" lengthAdjust="spacing" textLength="7.436" x="735.2303" y="386.0607">7</text><text fill="#000000" font-family="sans-serif" font-size="13" lengthAdjust="spacing" textLength="159.3412" x="746.6663" y="386.0607">getAllCostumerInSystem()</text><polygon fill="#181818" points="739.2303,419.5757,729.2303,423.5757,739.2303,427.5757,735.2303,423.5757" style="stroke:#181818;stroke-width:1.0;"/><line style="stroke:#181818;stroke-width:1.0;stroke-dasharray:2.0,2.0;" x1="733.2303" x2="1165.7569" y1="423.5757" y2="423.5757"/><text fill="#000000" font-family="sans-serif" font-size="13" font-weight="bold" lengthAdjust="spacing" textLength="7.436" x="745.2303" y="417.7667">8</text><text fill="#000000" font-family="sans-serif" font-size="13" lengthAdjust="spacing" textLength="134.1341" x="756.6663" y="417.7667">listCostumerInSystem</text><polygon fill="#181818" points="351.803,451.2817,341.803,455.2817,351.803,459.2817,347.803,455.2817" style="stroke:#181818;stroke-width:1.0;"/><line style="stroke:#181818;stroke-width:1.0;stroke-dasharray:2.0,2.0;" x1="345.803" x2="717.2303" y1="455.2817" y2="455.2817"/><text fill="#000000" font-family="sans-serif" font-size="13" font-weight="bold" lengthAdjust="spacing" textLength="7.436" x="357.803" y="449.4727">9</text><text fill="#000000" font-family="sans-serif" font-size="13" lengthAdjust="spacing" textLength="134.1341" x="369.239" y="449.4727">listCostumerInSystem</text><polygon fill="#181818" points="82.1558,482.9877,72.1558,486.9877,82.1558,490.9877,78.1558,486.9877" style="stroke:#181818;stroke-width:1.0;"/><line style="stroke:#181818;stroke-width:1.0;stroke-dasharray:2.0,2.0;" x1="76.1558" x2="329.803" y1="486.9877" y2="486.9877"/><text fill="#000000" font-family="sans-serif" font-size="13" font-weight="bold" lengthAdjust="spacing" textLength="14.872" x="88.1558" y="481.1787">10</text><text fill="#000000" font-family="sans-serif" font-size="13" lengthAdjust="spacing" textLength="146.9261" x="107.0278" y="481.1787">ask to select a costumer</text><polygon fill="#181818" points="318.803,514.6937,328.803,518.6937,318.803,522.6937,322.803,518.6937" style="stroke:#181818;stroke-width:1.0;"/><line style="stroke:#181818;stroke-width:1.0;" x1="71.1558" x2="324.803" y1="518.6937" y2="518.6937"/><text fill="#000000" font-family="sans-serif" font-size="13" font-weight="bold" lengthAdjust="spacing" textLength="14.872" x="78.1558" y="512.8847">11</text><text fill="#000000" font-family="sans-serif" font-size="13" lengthAdjust="spacing" textLength="107.1461" x="97.0278" y="512.8847">select a costumer</text><polygon fill="#181818" points="706.2303,546.3997,716.2303,550.3997,706.2303,554.3997,710.2303,550.3997" style="stroke:#181818;stroke-width:1.0;"/><line style="stroke:#181818;stroke-width:1.0;" x1="340.803" x2="712.2303" y1="550.3997" y2="550.3997"/><text fill="#000000" font-family="sans-serif" font-size="13" font-weight="bold" lengthAdjust="spacing" textLength="14.872" x="347.803" y="544.5907">12</text><text fill="#000000" font-family="sans-serif" font-size="13" lengthAdjust="spacing" textLength="326.2483" x="366.675" y="544.5907">getEditableShowRequestsOfClient(selectedCostumer)</text><polygon fill="#181818" points="961.7335,578.1058,971.7335,582.1058,961.7335,586.1058,965.7335,582.1058" style="stroke:#181818;stroke-width:1.0;"/><line style="stroke:#181818;stroke-width:1.0;" x1="728.2303" x2="967.7335" y1="582.1058" y2="582.1058"/><text fill="#000000" font-family="sans-serif" font-size="13" font-weight="bold" lengthAdjust="spacing" textLength="14.872" x="735.2303" y="576.2968">13</text><text fill="#000000" font-family="sans-serif" font-size="13" lengthAdjust="spacing" textLength="176.1892" x="754.1023" y="576.2968">getShowRequestRepository()</text><polygon fill="#181818" points="1270.8135,609.8118,1280.8135,613.8118,1270.8135,617.8118,1274.8135,613.8118" style="stroke:#181818;stroke-width:1.0;"/><line style="stroke:#181818;stroke-width:1.0;" x1="983.7335" x2="1276.8135" y1="613.8118" y2="613.8118"/><text fill="#000000" font-family="sans-serif" font-size="13" font-weight="bold" lengthAdjust="spacing" textLength="14.872" x="990.7335" y="608.0028">14</text><text fill="#000000" font-family="sans-serif" font-size="13" lengthAdjust="spacing" textLength="38.259" x="1009.6055" y="608.0028">create</text><rect fill="#E3E3E3" height="52.1358" rx="2.5" ry="2.5" style="stroke:#181818;stroke-width:0.5;" width="236.9491" x="1282.8135" y="590.1058"/><text fill="#000000" font-family="sans-serif" font-size="14" lengthAdjust="spacing" textLength="218.2172" x="1292.1795" y="612.0717">showRequestRepositoryInterface</text><text fill="#000000" font-family="sans-serif" font-size="14" lengthAdjust="spacing" textLength="222.9491" x="1289.8135" y="631.1396">:ShowRequestRepositoryInterface</text><polygon fill="#181818" points="739.2303,672.9476,729.2303,676.9476,739.2303,680.9476,735.2303,676.9476" style="stroke:#181818;stroke-width:1.0;"/><line style="stroke:#181818;stroke-width:1.0;stroke-dasharray:2.0,2.0;" x1="733.2303" x2="977.7335" y1="676.9476" y2="676.9476"/><text fill="#000000" font-family="sans-serif" font-size="13" font-weight="bold" lengthAdjust="spacing" textLength="14.872" x="745.2303" y="671.1386">15</text><text fill="#000000" font-family="sans-serif" font-size="13" lengthAdjust="spacing" textLength="202.6312" x="764.1023" y="671.1386">showRequestRepositoryInterface</text><polygon fill="#181818" points="1384.288,704.6536,1394.288,708.6536,1384.288,712.6536,1388.288,708.6536" style="stroke:#181818;stroke-width:1.0;"/><line style="stroke:#181818;stroke-width:1.0;" x1="728.2303" x2="1390.288" y1="708.6536" y2="708.6536"/><text fill="#000000" font-family="sans-serif" font-size="13" font-weight="bold" lengthAdjust="spacing" textLength="14.872" x="735.2303" y="702.8446">16</text><text fill="#000000" font-family="sans-serif" font-size="13" lengthAdjust="spacing" textLength="277.0043" x="754.1023" y="702.8446">getShowRequestsOfClient(selectedCostumer)</text><polygon fill="#181818" points="739.2303,736.3596,729.2303,740.3596,739.2303,744.3596,735.2303,740.3596" style="stroke:#181818;stroke-width:1.0;"/><line style="stroke:#181818;stroke-width:1.0;stroke-dasharray:2.0,2.0;" x1="733.2303" x2="1400.288" y1="740.3596" y2="740.3596"/><text fill="#000000" font-family="sans-serif" font-size="13" font-weight="bold" lengthAdjust="spacing" textLength="14.872" x="745.2303" y="734.5506">17</text><text fill="#000000" font-family="sans-serif" font-size="13" lengthAdjust="spacing" textLength="103.1291" x="764.1023" y="734.5506">showRequestList</text><polygon fill="#181818" points="351.803,768.0657,341.803,772.0657,351.803,776.0657,347.803,772.0657" style="stroke:#181818;stroke-width:1.0;"/><line style="stroke:#181818;stroke-width:1.0;stroke-dasharray:2.0,2.0;" x1="345.803" x2="717.2303" y1="772.0657" y2="772.0657"/><text fill="#000000" font-family="sans-serif" font-size="13" font-weight="bold" lengthAdjust="spacing" textLength="14.872" x="357.803" y="766.2567">18</text><text fill="#000000" font-family="sans-serif" font-size="13" lengthAdjust="spacing" textLength="153.3871" x="376.675" y="766.2567">editableShowRequestList</text><polygon fill="#181818" points="82.1558,799.7717,72.1558,803.7717,82.1558,807.7717,78.1558,803.7717" style="stroke:#181818;stroke-width:1.0;"/><line style="stroke:#181818;stroke-width:1.0;stroke-dasharray:2.0,2.0;" x1="76.1558" x2="329.803" y1="803.7717" y2="803.7717"/><text fill="#000000" font-family="sans-serif" font-size="13" font-weight="bold" lengthAdjust="spacing" textLength="14.872" x="88.1558" y="797.9627">19</text><text fill="#000000" font-family="sans-serif" font-size="13" lengthAdjust="spacing" textLength="214.1102" x="107.0278" y="797.9627">show list of editable show requests</text><polygon fill="#181818" points="318.803,831.4777,328.803,835.4777,318.803,839.4777,322.803,835.4777" style="stroke:#181818;stroke-width:1.0;"/><line style="stroke:#181818;stroke-width:1.0;" x1="71.1558" x2="324.803" y1="835.4777" y2="835.4777"/><text fill="#000000" font-family="sans-serif" font-size="13" font-weight="bold" lengthAdjust="spacing" textLength="14.872" x="78.1558" y="829.6687">20</text><text fill="#000000" font-family="sans-serif" font-size="13" lengthAdjust="spacing" textLength="174.6292" x="97.0278" y="829.6687">select a show request to edit</text><polygon fill="#181818" points="711.2303,863.1837,721.2303,867.1837,711.2303,871.1837,715.2303,867.1837" style="stroke:#181818;stroke-width:1.0;"/><line style="stroke:#181818;stroke-width:1.0;" x1="340.803" x2="717.2303" y1="867.1837" y2="867.1837"/><text fill="#000000" font-family="sans-serif" font-size="13" font-weight="bold" lengthAdjust="spacing" textLength="14.872" x="347.803" y="861.3747">21</text><text fill="#000000" font-family="sans-serif" font-size="13" lengthAdjust="spacing" textLength="334.5553" x="366.675" y="861.3747">editShowRequest(selectedShowRequest, updatedData)</text><polygon fill="#181818" points="2217.8243,912.5957,2227.8243,916.5957,2217.8243,920.5957,2221.8243,916.5957" style="stroke:#181818;stroke-width:1.0;"/><line style="stroke:#181818;stroke-width:1.0;" x1="733.2303" x2="2223.8243" y1="916.5957" y2="916.5957"/><text fill="#000000" font-family="sans-serif" font-size="13" font-weight="bold" lengthAdjust="spacing" textLength="14.872" x="740.2303" y="901.9337">22</text><text fill="#000000" font-family="sans-serif" font-size="13" lengthAdjust="spacing" textLength="40.625" x="759.1023" y="893.0807">clone()</text><text fill="#000000" font-family="sans-serif" font-size="13" lengthAdjust="spacing" textLength="178.0352" x="759.1023" y="910.7867">(get snapshot before update)</text><polygon fill="#181818" points="1819.9606,944.3018,1829.9606,948.3018,1819.9606,952.3018,1823.9606,948.3018" style="stroke:#181818;stroke-width:1.0;"/><line style="stroke:#181818;stroke-width:1.0;" x1="733.2303" x2="1825.9606" y1="948.3018" y2="948.3018"/><text fill="#000000" font-family="sans-serif" font-size="13" font-weight="bold" lengthAdjust="spacing" textLength="14.872" x="740.2303" y="942.4928">23</text><text fill="#000000" font-family="sans-serif" font-size="13" lengthAdjust="spacing" textLength="145.5741" x="759.1023" y="942.4928">registerSnapshot(clone)</text><polygon fill="#181818" points="2079.3118,976.0078,2089.3118,980.0078,2079.3118,984.0078,2083.3118,980.0078" style="stroke:#181818;stroke-width:1.0;"/><line style="stroke:#181818;stroke-width:1.0;" x1="1836.9606" x2="2085.3118" y1="980.0078" y2="980.0078"/><text fill="#000000" font-family="sans-serif" font-size="13" font-weight="bold" lengthAdjust="spacing" textLength="14.872" x="1843.9606" y="974.1988">24</text><text fill="#000000" font-family="sans-serif" font-size="13" lengthAdjust="spacing" textLength="206.4792" x="1862.8326" y="974.1988">create entry with timestamp, user</text><polygon fill="#181818" points="1384.288,1007.7138,1394.288,1011.7138,1384.288,1015.7138,1388.288,1011.7138" style="stroke:#181818;stroke-width:1.0;"/><line style="stroke:#181818;stroke-width:1.0;" x1="733.2303" x2="1390.288" y1="1011.7138" y2="1011.7138"/><text fill="#000000" font-family="sans-serif" font-size="13" font-weight="bold" lengthAdjust="spacing" textLength="14.872" x="740.2303" y="1005.9048">25</text><text fill="#000000" font-family="sans-serif" font-size="13" lengthAdjust="spacing" textLength="354.5233" x="759.1023" y="1005.9048">updateShowRequest(selectedShowRequest, updatedData)</text><polygon fill="#181818" points="744.2303,1039.4198,734.2303,1043.4198,744.2303,1047.4198,740.2303,1043.4198" style="stroke:#181818;stroke-width:1.0;"/><line style="stroke:#181818;stroke-width:1.0;stroke-dasharray:2.0,2.0;" x1="738.2303" x2="1400.288" y1="1043.4198" y2="1043.4198"/><text fill="#000000" font-family="sans-serif" font-size="13" font-weight="bold" lengthAdjust="spacing" textLength="14.872" x="750.2303" y="1037.6108">26</text><text fill="#000000" font-family="sans-serif" font-size="13" lengthAdjust="spacing" textLength="134.2901" x="769.1023" y="1037.6108">updatedShowRequest</text><polygon fill="#181818" points="1819.9606,1071.1258,1829.9606,1075.1258,1819.9606,1079.1258,1823.9606,1075.1258" style="stroke:#181818;stroke-width:1.0;"/><line style="stroke:#181818;stroke-width:1.0;" x1="733.2303" x2="1825.9606" y1="1075.1258" y2="1075.1258"/><text fill="#000000" font-family="sans-serif" font-size="13" font-weight="bold" lengthAdjust="spacing" textLength="14.872" x="740.2303" y="1069.3168">27</text><text fill="#000000" font-family="sans-serif" font-size="13" lengthAdjust="spacing" textLength="281.7233" x="759.1023" y="1069.3168">logChange(clone, updatedShowRequest, user)</text><polygon fill="#181818" points="744.2303,1102.8318,734.2303,1106.8318,744.2303,1110.8318,740.2303,1106.8318" style="stroke:#181818;stroke-width:1.0;"/><line style="stroke:#181818;stroke-width:1.0;stroke-dasharray:2.0,2.0;" x1="738.2303" x2="1835.9606" y1="1106.8318" y2="1106.8318"/><text fill="#000000" font-family="sans-serif" font-size="13" font-weight="bold" lengthAdjust="spacing" textLength="14.872" x="750.2303" y="1101.0228">28</text><text fill="#000000" font-family="sans-serif" font-size="13" lengthAdjust="spacing" textLength="78.7281" x="769.1023" y="1101.0228">confirmation</text><polygon fill="#181818" points="351.803,1134.5379,341.803,1138.5379,351.803,1142.5379,347.803,1138.5379" style="stroke:#181818;stroke-width:1.0;"/><line style="stroke:#181818;stroke-width:1.0;stroke-dasharray:2.0,2.0;" x1="345.803" x2="722.2303" y1="1138.5379" y2="1138.5379"/><text fill="#000000" font-family="sans-serif" font-size="13" font-weight="bold" lengthAdjust="spacing" textLength="14.872" x="357.803" y="1132.7289">29</text><text fill="#000000" font-family="sans-serif" font-size="13" lengthAdjust="spacing" textLength="134.2901" x="376.675" y="1132.7289">updatedShowRequest</text><polygon fill="#181818" points="77.1558,1166.2439,67.1558,1170.2439,77.1558,1174.2439,73.1558,1170.2439" style="stroke:#181818;stroke-width:1.0;"/><line style="stroke:#181818;stroke-width:1.0;stroke-dasharray:2.0,2.0;" x1="71.1558" x2="334.803" y1="1170.2439" y2="1170.2439"/><text fill="#000000" font-family="sans-serif" font-size="13" font-weight="bold" lengthAdjust="spacing" textLength="14.872" x="83.1558" y="1164.4349">30</text><text fill="#000000" font-family="sans-serif" font-size="13" lengthAdjust="spacing" textLength="216.7752" x="102.0278" y="1164.4349">show updated show request details</text><!--SRC=[dLPDR-8m4BtdLunw2bNx1pYijAALYiHgLsIvzMAI8R7gs5dR5F7lT-muO3SXhNh3utbllfudc3SkEwPP2wsIgcoqQX6iFc9cBZSTAzzOZOKz2mIDfMMo5h63QLYbJbpMS632O9PPRibrjuO2_nrHbWXFdDNEDI-AfmKymdF5BHIDEi7MkHWBwW0hmL5Qo4_SDl32ZLNwlCWoThHA7jizQlfTaX7kLjjVi592iBtIZ2ntm4nYo2WpoqlUCIAyMxfmBbe8jbjxm6uzxxPIqceYnS3_Txj90HexPRXByuzMxxn2_IgNsv7HevtlO4XPIcNiiKLz1QwbHNrW9HBTwlQjvoKq6L96SwrXchIOTV2yfZbDyb8D163YDl6CXsVkw7v4tVJZtgYwzbryYSyUbdXCWfzfNEShrXzZg3Tu3V5tPZ4LJ1QVuF67a- -Im6zW5Q2JAni9jlI2lHAIe3A24TXf1Uxlbr1gf9lOkWJ1dRRwiQvbSJOMstmHvUM4bdbd0iN28N2DTYo969q8BG4JMQ-MEBFKuvhaZ2gp2gUZNN8EONosFuMOApReDo0UvxiKHmx047COs2JATTyHnnE-pDQWe9r6qnqglY65iLyoLAhKhG-s5nYzBlFxq6-rl8TZDIItc9lmvFlyyf3xf_kL8SylYi_d729zp7ckwWjZM321OZgf3KqppY9WFimSntttmEcnEtel4_U21sXlrI7zpnGGEm_h8LK3fb-IInyYsmCSkugAgfwOPJTV_mJGFKwX9EOBU9KvTHwCP1tbP66F1wKn42yk9Cdg9BZ6cYoeYu3BFL-KGxfhK_YLp-zJ64G6w8_-usrvIucojgCY3J548qofnqhgS_zcxsvgAhX75BTbDUwNKFMgeNyzs3VgOOAkB_IhBOpNh3nmtJBBbVoqJOCG9wgPqNhmJbLReMLSaDAZc5vvqPa-P_5j_BNy3m00]--></g></svg>