<svg xmlns="http://www.w3.org/2000/svg" xmlns:xlink="http://www.w3.org/1999/xlink" contentStyleType="text/css" height="886px" preserveAspectRatio="none" style="width:726px;height:886px;background:#FFFFFF;" version="1.1" viewBox="0 0 726 886" width="726px" zoomAndPan="magnify"><title>Show and Costumer domain model section for US373</title><defs/><g><text fill="#000000" font-family="sans-serif" font-size="14" font-weight="bold" lengthAdjust="spacing" textLength="356.2822" x="178.1089" y="25.1074">Show and Costumer domain model section for US373</text><!--cluster Customer Aggregate--><g id="cluster_Customer Aggregate"><rect fill="none" height="107" rx="2.5" ry="2.5" style="stroke:#000000;stroke-width:1.5;" width="440" x="7" y="46.6211"/><text fill="#000000" font-family="sans-serif" font-size="14" font-weight="bold" lengthAdjust="spacing" textLength="138.4688" x="157.7656" y="63.7285">Customer Aggregate</text></g><!--cluster Show Aggregate--><g id="cluster_Show Aggregate"><rect fill="none" height="516" rx="2.5" ry="2.5" style="stroke:#000000;stroke-width:1.5;" width="492" x="210" y="177.6211"/><text fill="#000000" font-family="sans-serif" font-size="14" font-weight="bold" lengthAdjust="spacing" textLength="110.4551" x="400.7725" y="194.7285">Show Aggregate</text></g><!--cluster Figure/Designer Subdomain--><g id="cluster_Figure/Designer Subdomain"><rect fill="none" height="163" rx="2.5" ry="2.5" style="stroke:#000000;stroke-width:1.5;" width="202" x="518.5" y="717.6211"/><text fill="#000000" font-family="sans-serif" font-size="14" font-weight="bold" lengthAdjust="spacing" textLength="186.6895" x="526.1553" y="734.7285">Figure/Designer Subdomain</text></g><!--class Costumer--><g id="elem_Costumer"><rect codeLine="13" fill="#F1F1F1" height="52.582" id="Costumer" rx="2.5" ry="2.5" style="stroke:#181818;stroke-width:0.5;" width="96.0723" x="23" y="84.1211"/><text fill="#000000" font-family="sans-serif" font-size="12" font-style="italic" lengthAdjust="spacing" textLength="94.0723" x="24" y="102.0703">&#171;AggregateRoot&#187;</text><text fill="#000000" font-family="sans-serif" font-size="14" lengthAdjust="spacing" textLength="60.6826" x="40.6948" y="120.1895">Costumer</text><line style="stroke:#181818;stroke-width:0.5;" x1="24" x2="118.0723" y1="128.7031" y2="128.7031"/></g><!--class NIF--><g id="elem_NIF"><rect codeLine="16" fill="#F1F1F1" height="36.6211" id="NIF" rx="2.5" ry="2.5" style="stroke:#181818;stroke-width:0.5;" width="28.5518" x="402" y="84.1211"/><text fill="#000000" font-family="sans-serif" font-size="14" lengthAdjust="spacing" textLength="22.5518" x="405" y="104.2285">NIF</text><line style="stroke:#181818;stroke-width:0.5;" x1="403" x2="429.5518" y1="112.7422" y2="112.7422"/></g><!--class Show--><g id="elem_Show"><rect codeLine="21" fill="#F1F1F1" height="52.582" id="Show" rx="2.5" ry="2.5" style="stroke:#181818;stroke-width:0.5;" width="96.0723" x="226" y="450.1211"/><text fill="#000000" font-family="sans-serif" font-size="12" font-style="italic" lengthAdjust="spacing" textLength="94.0723" x="227" y="468.0703">&#171;AggregateRoot&#187;</text><text fill="#000000" font-family="sans-serif" font-size="14" lengthAdjust="spacing" textLength="35.0205" x="256.5259" y="486.1895">Show</text><line style="stroke:#181818;stroke-width:0.5;" x1="227" x2="321.0723" y1="494.7031" y2="494.7031"/></g><!--class ShowID--><g id="elem_ShowID"><rect codeLine="24" fill="#F1F1F1" height="36.6211" id="ShowID" rx="2.5" ry="2.5" style="stroke:#181818;stroke-width:0.5;" width="55.0205" x="592" y="624.1211"/><text fill="#000000" font-family="sans-serif" font-size="14" lengthAdjust="spacing" textLength="49.0205" x="595" y="644.2285">ShowID</text><line style="stroke:#181818;stroke-width:0.5;" x1="593" x2="646.0205" y1="652.7422" y2="652.7422"/></g><!--class Name--><g id="elem_Name"><rect codeLine="27" fill="#F1F1F1" height="36.6211" id="Name" rx="2.5" ry="2.5" style="stroke:#181818;stroke-width:0.5;" width="43.3447" x="598" y="541.1211"/><text fill="#000000" font-family="sans-serif" font-size="14" lengthAdjust="spacing" textLength="37.3447" x="601" y="561.2285">Name</text><line style="stroke:#181818;stroke-width:0.5;" x1="599" x2="640.3447" y1="569.7422" y2="569.7422"/></g><!--class Description--><g id="elem_Description"><rect codeLine="30" fill="#F1F1F1" height="36.6211" id="Description" rx="2.5" ry="2.5" style="stroke:#181818;stroke-width:0.5;" width="76.0273" x="581.5" y="458.1211"/><text fill="#000000" font-family="sans-serif" font-size="14" lengthAdjust="spacing" textLength="70.0273" x="584.5" y="478.2285">Description</text><line style="stroke:#181818;stroke-width:0.5;" x1="582.5" x2="656.5273" y1="486.7422" y2="486.7422"/></g><!--class Status--><g id="elem_Status"><rect codeLine="33" fill="#F1F1F1" height="36.6211" id="Status" rx="2.5" ry="2.5" style="stroke:#181818;stroke-width:0.5;" width="45.6895" x="596.5" y="375.1211"/><text fill="#000000" font-family="sans-serif" font-size="14" lengthAdjust="spacing" textLength="39.6895" x="599.5" y="395.2285">Status</text><line style="stroke:#181818;stroke-width:0.5;" x1="597.5" x2="641.1895" y1="403.7422" y2="403.7422"/></g><!--class ScheduledDateTime--><g id="elem_ScheduledDateTime"><rect codeLine="36" fill="#F1F1F1" height="36.6211" id="ScheduledDateTime" rx="2.5" ry="2.5" style="stroke:#181818;stroke-width:0.5;" width="132.8477" x="553" y="292.1211"/><text fill="#000000" font-family="sans-serif" font-size="14" lengthAdjust="spacing" textLength="126.8477" x="556" y="312.2285">ScheduledDateTime</text><line style="stroke:#181818;stroke-width:0.5;" x1="554" x2="684.8477" y1="320.7422" y2="320.7422"/></g><!--class Progress--><g id="elem_Progress"><rect codeLine="39" fill="#F1F1F1" height="36.6211" id="Progress" rx="2.5" ry="2.5" style="stroke:#181818;stroke-width:0.5;" width="62.0205" x="588.5" y="215.1211"/><text fill="#000000" font-family="sans-serif" font-size="14" lengthAdjust="spacing" textLength="56.0205" x="591.5" y="235.2285">Progress</text><line style="stroke:#181818;stroke-width:0.5;" x1="589.5" x2="649.5205" y1="243.7422" y2="243.7422"/></g><!--class Figure--><g id="elem_Figure"><rect codeLine="44" fill="#F1F1F1" height="36.6211" id="Figure" rx="2.5" ry="2.5" style="stroke:#181818;stroke-width:0.5;" width="45.6826" x="596.5" y="755.1211"/><text fill="#000000" font-family="sans-serif" font-size="14" lengthAdjust="spacing" textLength="39.6826" x="599.5" y="775.2285">Figure</text><line style="stroke:#181818;stroke-width:0.5;" x1="597.5" x2="641.1826" y1="783.7422" y2="783.7422"/></g><!--class Designer--><g id="elem_Designer"><rect codeLine="47" fill="#F1F1F1" height="36.6211" id="Designer" rx="2.5" ry="2.5" style="stroke:#181818;stroke-width:0.5;" width="62.0273" x="588.5" y="827.1211"/><text fill="#000000" font-family="sans-serif" font-size="14" lengthAdjust="spacing" textLength="56.0273" x="591.5" y="847.2285">Designer</text><line style="stroke:#181818;stroke-width:0.5;" x1="589.5" x2="649.5273" y1="855.7422" y2="855.7422"/></g><!--link Costumer to NIF--><g id="link_Costumer_NIF"><path codeLine="51" d="M119.04,109.5211 C198.42,107.6811 354.9,104.0311 401.86,102.9411 " fill="none" id="Costumer-NIF" style="stroke:#181818;stroke-width:1.0;"/><polygon fill="#000000" points="277.4986,99.0048,268.3877,96.277,268.5244,102.1533,277.4986,99.0048" style="stroke:#000000;stroke-width:1.0;"/><text fill="#000000" font-family="sans-serif" font-size="13" lengthAdjust="spacing" textLength="7.23" x="126.9441" y="124.7368">1</text><text fill="#000000" font-family="sans-serif" font-size="13" lengthAdjust="spacing" textLength="7.23" x="386.6271" y="121.2036">1</text></g><!--reverse link Costumer to Show--><g id="link_Costumer_Show"><path codeLine="52" d="M89.5082,142.5002 C126.6382,210.1102 221.37,382.6011 258.44,450.1011 " fill="none" id="Costumer-backto-Show" style="stroke:#181818;stroke-width:1.0;"/><polygon fill="#181818" points="86.62,137.2411,87.4462,147.0552,89.0268,141.6237,94.4584,143.2043,86.62,137.2411" style="stroke:#181818;stroke-width:1.0;"/><polygon fill="#000000" points="156.4069,256.6492,154.6288,247.3063,149.4768,250.1357,156.4069,256.6492" style="stroke:#000000;stroke-width:1.0;"/><text fill="#000000" font-family="sans-serif" font-size="13" lengthAdjust="spacing" textLength="30.3481" x="163" y="257.6494">owns</text><text fill="#000000" font-family="sans-serif" font-size="13" lengthAdjust="spacing" textLength="7.23" x="82.136" y="158.586">1</text><text fill="#000000" font-family="sans-serif" font-size="13" lengthAdjust="spacing" textLength="5.0591" x="249.0363" y="438.6797">*</text></g><!--link Show to ShowID--><g id="link_Show_ShowID"><path codeLine="54" d="M316.04,503.1311 C335.9,515.4911 360.31,530.0011 383,541.6211 C456.64,579.3511 547.59,615.5711 591.82,632.5611 " fill="none" id="Show-ShowID" style="stroke:#181818;stroke-width:1.0;"/><polygon fill="#000000" points="419.5263,537.2454,412.5868,530.742,410.0895,536.063,419.5263,537.2454" style="stroke:#000000;stroke-width:1.0;"/><text fill="#000000" font-family="sans-serif" font-size="13" lengthAdjust="spacing" textLength="7.23" x="317.4879" y="524.8954">1</text><text fill="#000000" font-family="sans-serif" font-size="13" lengthAdjust="spacing" textLength="7.23" x="576.857" y="646.2755">1</text></g><!--link Show to Name--><g id="link_Show_Name"><path codeLine="55" d="M322.04,487.9911 C397.74,506.2811 543.58,541.5211 597.65,554.5811 " fill="none" id="Show-Name" style="stroke:#181818;stroke-width:1.0;"/><polygon fill="#000000" points="419.8602,498.2954,411.7583,493.3144,410.3778,499.0278,419.8602,498.2954" style="stroke:#000000;stroke-width:1.0;"/><text fill="#000000" font-family="sans-serif" font-size="13" lengthAdjust="spacing" textLength="7.23" x="329.9441" y="505.1163">1</text><text fill="#000000" font-family="sans-serif" font-size="13" lengthAdjust="spacing" textLength="7.23" x="582.869" y="569.7716">1</text></g><!--link Show to Description--><g id="link_Show_Description"><path codeLine="56" d="M322.04,476.6211 C391.13,476.6211 518.63,476.6211 581.48,476.6211 " fill="none" id="Show-Description" style="stroke:#181818;stroke-width:1.0;"/><polygon fill="#000000" points="420,470.1211,410.9549,467.1822,410.9549,473.06,420,470.1211" style="stroke:#000000;stroke-width:1.0;"/><text fill="#000000" font-family="sans-serif" font-size="13" lengthAdjust="spacing" textLength="7.23" x="329.9441" y="472.4021">1</text><text fill="#000000" font-family="sans-serif" font-size="13" lengthAdjust="spacing" textLength="7.23" x="566.3257" y="492.3888">1</text></g><!--link Show to Status--><g id="link_Show_Status"><path codeLine="57" d="M322.04,465.2511 C397.19,447.0911 541.46,412.2411 596.46,398.9511 " fill="none" id="Show-Status" style="stroke:#181818;stroke-width:1.0;"/><polygon fill="#000000" points="419.8602,425.9469,410.3779,425.2143,411.7582,430.9278,419.8602,425.9469" style="stroke:#000000;stroke-width:1.0;"/><text fill="#000000" font-family="sans-serif" font-size="13" lengthAdjust="spacing" textLength="7.23" x="329.9441" y="459.2911">1</text><text fill="#000000" font-family="sans-serif" font-size="13" lengthAdjust="spacing" textLength="7.23" x="581.4149" y="417.3174">1</text></g><!--link Show to ScheduledDateTime--><g id="link_Show_ScheduledDateTime"><path codeLine="58" d="M317.14,449.9711 C336.82,437.9611 360.77,423.9611 383,412.6211 C446.5,380.2211 522.62,348.4711 570.78,329.2211 " fill="none" id="Show-ScheduledDateTime" style="stroke:#181818;stroke-width:1.0;"/><polygon fill="#000000" points="419.5145,370.9719,410.0844,372.2063,412.611,377.5134,419.5145,370.9719" style="stroke:#000000;stroke-width:1.0;"/><text fill="#000000" font-family="sans-serif" font-size="13" lengthAdjust="spacing" textLength="7.23" x="319.325" y="438.953">1</text><text fill="#000000" font-family="sans-serif" font-size="13" lengthAdjust="spacing" textLength="7.23" x="549.7972" y="350.6226">1</text></g><!--link Show to Progress--><g id="link_Show_Progress"><path codeLine="59" d="M296.08,450.0211 C316.72,424.8811 349.82,386.9111 383,358.6211 C434.63,314.5911 450.08,305.5211 510.5,274.6211 C535.86,261.6511 566.31,250.4611 588.41,243.0611 " fill="none" id="Show-Progress" style="stroke:#181818;stroke-width:1.0;"/><polygon fill="#000000" points="419.0808,296.232,410.0004,299.0598,413.3967,303.8571,419.0808,296.232" style="stroke:#000000;stroke-width:1.0;"/><text fill="#000000" font-family="sans-serif" font-size="13" lengthAdjust="spacing" textLength="7.23" x="293.3949" y="439.0145">1</text><text fill="#000000" font-family="sans-serif" font-size="13" lengthAdjust="spacing" textLength="7.23" x="573.4353" y="261.3155">1</text></g><!--link Show to Figure--><g id="link_Show_Figure"><path codeLine="61" d="M294.88,503.3011 C315.4,529.9611 349.12,571.3611 383,602.6211 C455.05,669.0811 553.14,733.0211 596.43,760.0811 " fill="none" id="Show-Figure" style="stroke:#181818;stroke-width:1.0;"/><polygon fill="#000000" points="391.8068,596.5082,386.8256,588.4065,383.0148,592.8817,391.8068,596.5082" style="stroke:#000000;stroke-width:1.0;"/><text fill="#000000" font-family="sans-serif" font-size="13" lengthAdjust="spacing" textLength="52.0381" x="397" y="598.6494">assigned</text><text fill="#000000" font-family="sans-serif" font-size="13" lengthAdjust="spacing" textLength="7.23" x="291.4809" y="524.6584">1</text><text fill="#000000" font-family="sans-serif" font-size="13" lengthAdjust="spacing" textLength="5.0591" x="583.3396" y="772.6097">*</text></g><!--link Show to Designer--><g id="link_Show_Designer"><path codeLine="62" d="M284.98,503.1911 C301.49,545.2311 337.29,628.5411 383,689.6211 C429.63,751.9211 443.69,769.7211 510.5,809.6211 C534.76,824.1111 565.62,833.6511 588.13,839.2411 " fill="none" id="Show-Designer" style="stroke:#181818;stroke-width:1.0;"/><polygon fill="#000000" points="391.3491,683.9792,387.4727,675.2945,383.1083,679.2316,391.3491,683.9792" style="stroke:#000000;stroke-width:1.0;"/><text fill="#000000" font-family="sans-serif" font-size="13" lengthAdjust="spacing" textLength="52.0381" x="397" y="685.6494">assigned</text><text fill="#000000" font-family="sans-serif" font-size="13" lengthAdjust="spacing" textLength="7.23" x="279.539" y="524.5257">1</text><text fill="#000000" font-family="sans-serif" font-size="13" lengthAdjust="spacing" textLength="5.0591" x="575.3012" y="853.8371">*</text></g><!--SRC=[ZP71QiCm44Jl-eh5nq0e9OU22O6I4CYbbBhz0DNQo2AoDcXbGYdvzyfMwZgD2lN5M3CxEthcWt57wMKBBJcg6qyjGl0T2XwLewmFKcCLFYo2npf8f-tKm8rKT39EmrvQHc5n7o0GUAER0ChqCuQS4C64654rT0Bf5Ao9GzUY1qMjD2vMK6Y1anlsvE6jMZmiX6YCGgYDhoro-cWnDAHOY4ivADOT1-h37hNsg6N00Zu5nAUsalbdsN8vEbw8mcfriPt5nFsqsux7vycMeViV6mRjN-czSxV9xfMHV-PyWrnxSnp0v0A331rdbRf1rLbKczZerUJJdpt5pipPAs-DxZpUnGP6kyYlwjxJ_xg-VRBzqJrDJjB7lr7S5p2VpuTtX5x2wbfRzjgi692LG2V7qI46rDFHHBIVlf5wf5bXmZIh9wXvwJVLhEiRQtbRETue0IiX8khng9k4MJ6Ykt9z0G00]--></g></svg>