<svg xmlns="http://www.w3.org/2000/svg" xmlns:xlink="http://www.w3.org/1999/xlink" contentStyleType="text/css" height="609px" preserveAspectRatio="none" style="width:520px;height:609px;background:#FFFFFF;" version="1.1" viewBox="0 0 520 609" width="520px" zoomAndPan="magnify"><title>System Sequence Diagram (SSD) - List public figures in Figure catalogue</title><defs/><g><text fill="#000000" font-family="sans-serif" font-size="14" font-weight="bold" lengthAdjust="spacing" textLength="486.9922" x="15.3176" y="30.1074">System Sequence Diagram (SSD) - List public figures in Figure catalogue</text><rect fill="#FFFFFF" height="375.2012" style="stroke:#181818;stroke-width:1.0;" width="10" x="50.4688" y="133.2422"/><rect fill="#FFFFFF" height="31.291" style="stroke:#181818;stroke-width:1.0;" width="10" x="326.2012" y="156.5332"/><rect fill="#FFFFFF" height="31.291" style="stroke:#181818;stroke-width:1.0;" width="10" x="326.2012" y="219.1152"/><rect fill="#FFFFFF" height="31.291" style="stroke:#181818;stroke-width:1.0;" width="10" x="326.2012" y="281.6973"/><rect fill="#FFFFFF" height="164.1641" style="stroke:#181818;stroke-width:1.0;" width="10" x="326.2012" y="344.2793"/><rect fill="#FFFFFF" height="86.582" style="stroke:#181818;stroke-width:1.0;" width="10" x="331.2012" y="383.5703"/><line style="stroke:#181818;stroke-width:0.5;stroke-dasharray:5.0,5.0;" x1="55" x2="55" y1="123.2422" y2="526.4434"/><line style="stroke:#181818;stroke-width:0.5;stroke-dasharray:5.0,5.0;" x1="330.9185" x2="330.9185" y1="123.2422" y2="526.4434"/><text fill="#000000" font-family="sans-serif" font-size="14" lengthAdjust="spacing" textLength="94.9375" x="5" y="119.7285">Show Designer</text><ellipse cx="55.4688" cy="53.1211" fill="#E3E3E3" rx="8" ry="8" style="stroke:#181818;stroke-width:0.5;"/><path d="M55.4688,61.1211 L55.4688,88.1211 M42.4688,69.1211 L68.4688,69.1211 M55.4688,88.1211 L42.4688,103.1211 M55.4688,88.1211 L68.4688,103.1211 " fill="none" style="stroke:#181818;stroke-width:0.5;"/><text fill="#000000" font-family="sans-serif" font-size="14" lengthAdjust="spacing" textLength="94.9375" x="5" y="540.5508">Show Designer</text><ellipse cx="55.4688" cy="552.5645" fill="#E3E3E3" rx="8" ry="8" style="stroke:#181818;stroke-width:0.5;"/><path d="M55.4688,560.5645 L55.4688,587.5645 M42.4688,568.5645 L68.4688,568.5645 M55.4688,587.5645 L42.4688,602.5645 M55.4688,587.5645 L68.4688,602.5645 " fill="none" style="stroke:#181818;stroke-width:0.5;"/><rect fill="#E3E3E3" height="32.6211" rx="2.5" ry="2.5" style="stroke:#181818;stroke-width:0.5;" width="64.5654" x="298.9185" y="89.6211"/><text fill="#000000" font-family="sans-serif" font-size="14" lengthAdjust="spacing" textLength="50.5654" x="305.9185" y="111.7285">:System</text><rect fill="#E3E3E3" height="32.6211" rx="2.5" ry="2.5" style="stroke:#181818;stroke-width:0.5;" width="64.5654" x="298.9185" y="525.4434"/><text fill="#000000" font-family="sans-serif" font-size="14" lengthAdjust="spacing" textLength="50.5654" x="305.9185" y="547.5508">:System</text><rect fill="#FFFFFF" height="375.2012" style="stroke:#181818;stroke-width:1.0;" width="10" x="50.4688" y="133.2422"/><rect fill="#FFFFFF" height="31.291" style="stroke:#181818;stroke-width:1.0;" width="10" x="326.2012" y="156.5332"/><rect fill="#FFFFFF" height="31.291" style="stroke:#181818;stroke-width:1.0;" width="10" x="326.2012" y="219.1152"/><rect fill="#FFFFFF" height="31.291" style="stroke:#181818;stroke-width:1.0;" width="10" x="326.2012" y="281.6973"/><rect fill="#FFFFFF" height="164.1641" style="stroke:#181818;stroke-width:1.0;" width="10" x="326.2012" y="344.2793"/><rect fill="#FFFFFF" height="86.582" style="stroke:#181818;stroke-width:1.0;" width="10" x="331.2012" y="383.5703"/><polygon fill="#181818" points="314.2012,152.5332,324.2012,156.5332,314.2012,160.5332,318.2012,156.5332" style="stroke:#181818;stroke-width:1.0;"/><line style="stroke:#181818;stroke-width:1.0;" x1="60.4688" x2="320.2012" y1="156.5332" y2="156.5332"/><text fill="#000000" font-family="sans-serif" font-size="13" font-weight="bold" lengthAdjust="spacing" textLength="7.23" x="67.4688" y="151.2705">1</text><text fill="#000000" font-family="sans-serif" font-size="13" lengthAdjust="spacing" textLength="36.1245" x="78.6987" y="151.2705">login()</text><polygon fill="#181818" points="71.4688,183.8242,61.4688,187.8242,71.4688,191.8242,67.4688,187.8242" style="stroke:#181818;stroke-width:1.0;"/><line style="stroke:#181818;stroke-width:1.0;stroke-dasharray:2.0,2.0;" x1="65.4688" x2="330.2012" y1="187.8242" y2="187.8242"/><text fill="#000000" font-family="sans-serif" font-size="13" font-weight="bold" lengthAdjust="spacing" textLength="7.23" x="77.4688" y="182.5615">2</text><text fill="#000000" font-family="sans-serif" font-size="13" lengthAdjust="spacing" textLength="78.0635" x="88.6987" y="182.5615">authenticated</text><polygon fill="#181818" points="314.2012,215.1152,324.2012,219.1152,314.2012,223.1152,318.2012,219.1152" style="stroke:#181818;stroke-width:1.0;"/><line style="stroke:#181818;stroke-width:1.0;" x1="60.4688" x2="320.2012" y1="219.1152" y2="219.1152"/><text fill="#000000" font-family="sans-serif" font-size="13" font-weight="bold" lengthAdjust="spacing" textLength="7.23" x="67.4688" y="213.8525">3</text><text fill="#000000" font-family="sans-serif" font-size="13" lengthAdjust="spacing" textLength="165.4707" x="78.6987" y="213.8525">ask to show all public figures</text><polygon fill="#181818" points="71.4688,246.4063,61.4688,250.4063,71.4688,254.4063,67.4688,250.4063" style="stroke:#181818;stroke-width:1.0;"/><line style="stroke:#181818;stroke-width:1.0;stroke-dasharray:2.0,2.0;" x1="65.4688" x2="330.2012" y1="250.4063" y2="250.4063"/><text fill="#000000" font-family="sans-serif" font-size="13" font-weight="bold" lengthAdjust="spacing" textLength="7.23" x="77.4688" y="245.1436">4</text><text fill="#000000" font-family="sans-serif" font-size="13" lengthAdjust="spacing" textLength="172.7261" x="88.6987" y="245.1436">request data (page, pagesize)</text><polygon fill="#181818" points="314.2012,277.6973,324.2012,281.6973,314.2012,285.6973,318.2012,281.6973" style="stroke:#181818;stroke-width:1.0;"/><line style="stroke:#181818;stroke-width:1.0;" x1="60.4688" x2="320.2012" y1="281.6973" y2="281.6973"/><text fill="#000000" font-family="sans-serif" font-size="13" font-weight="bold" lengthAdjust="spacing" textLength="7.23" x="67.4688" y="276.4346">5</text><text fill="#000000" font-family="sans-serif" font-size="13" lengthAdjust="spacing" textLength="221.8696" x="78.6987" y="276.4346">types requested data (page, pagesize)</text><polygon fill="#181818" points="71.4688,308.9883,61.4688,312.9883,71.4688,316.9883,67.4688,312.9883" style="stroke:#181818;stroke-width:1.0;"/><line style="stroke:#181818;stroke-width:1.0;stroke-dasharray:2.0,2.0;" x1="65.4688" x2="330.2012" y1="312.9883" y2="312.9883"/><text fill="#000000" font-family="sans-serif" font-size="13" font-weight="bold" lengthAdjust="spacing" textLength="7.23" x="77.4688" y="307.7256">6</text><text fill="#000000" font-family="sans-serif" font-size="13" lengthAdjust="spacing" textLength="230.5024" x="88.6987" y="307.7256">show all data registered for confirmation</text><polygon fill="#181818" points="314.2012,340.2793,324.2012,344.2793,314.2012,348.2793,318.2012,344.2793" style="stroke:#181818;stroke-width:1.0;"/><line style="stroke:#181818;stroke-width:1.0;" x1="60.4688" x2="320.2012" y1="344.2793" y2="344.2793"/><text fill="#000000" font-family="sans-serif" font-size="13" font-weight="bold" lengthAdjust="spacing" textLength="7.23" x="67.4688" y="339.0166">7</text><text fill="#000000" font-family="sans-serif" font-size="13" lengthAdjust="spacing" textLength="232.686" x="78.6987" y="339.0166">requestPublicFigureList(page, pagesize)</text><line style="stroke:#181818;stroke-width:1.0;" x1="336.2012" x2="383.2012" y1="370.5703" y2="370.5703"/><line style="stroke:#181818;stroke-width:1.0;" x1="383.2012" x2="383.2012" y1="370.5703" y2="383.5703"/><line style="stroke:#181818;stroke-width:1.0;" x1="342.2012" x2="383.2012" y1="383.5703" y2="383.5703"/><polygon fill="#181818" points="352.2012,379.5703,342.2012,383.5703,352.2012,387.5703,348.2012,383.5703" style="stroke:#181818;stroke-width:1.0;"/><text fill="#000000" font-family="sans-serif" font-size="13" font-weight="bold" lengthAdjust="spacing" textLength="7.23" x="348.2012" y="365.3076">8</text><text fill="#000000" font-family="sans-serif" font-size="13" lengthAdjust="spacing" textLength="117.749" x="359.4312" y="365.3076">listAllPublicFigures()</text><line style="stroke:#181818;stroke-width:1.0;" x1="341.2012" x2="383.2012" y1="419.8613" y2="419.8613"/><line style="stroke:#181818;stroke-width:1.0;" x1="383.2012" x2="383.2012" y1="419.8613" y2="432.8613"/><line style="stroke:#181818;stroke-width:1.0;" x1="342.2012" x2="383.2012" y1="432.8613" y2="432.8613"/><polygon fill="#181818" points="352.2012,428.8613,342.2012,432.8613,352.2012,436.8613,348.2012,432.8613" style="stroke:#181818;stroke-width:1.0;"/><text fill="#000000" font-family="sans-serif" font-size="13" font-weight="bold" lengthAdjust="spacing" textLength="7.23" x="348.2012" y="414.5986">9</text><text fill="#000000" font-family="sans-serif" font-size="13" lengthAdjust="spacing" textLength="132.1963" x="359.4312" y="414.5986">filterByStatus(ACTIVE)</text><line style="stroke:#181818;stroke-width:1.0;stroke-dasharray:2.0,2.0;" x1="341.2012" x2="383.2012" y1="469.1523" y2="469.1523"/><line style="stroke:#181818;stroke-width:1.0;stroke-dasharray:2.0,2.0;" x1="383.2012" x2="383.2012" y1="469.1523" y2="482.1523"/><line style="stroke:#181818;stroke-width:1.0;stroke-dasharray:2.0,2.0;" x1="336.2012" x2="383.2012" y1="482.1523" y2="482.1523"/><polygon fill="#181818" points="346.2012,478.1523,336.2012,482.1523,346.2012,486.1523,342.2012,482.1523" style="stroke:#181818;stroke-width:1.0;"/><text fill="#000000" font-family="sans-serif" font-size="13" font-weight="bold" lengthAdjust="spacing" textLength="14.46" x="348.2012" y="463.8896">10</text><text fill="#000000" font-family="sans-serif" font-size="13" lengthAdjust="spacing" textLength="91.0444" x="366.6611" y="463.8896">publicFigureList</text><polygon fill="#181818" points="66.4688,504.4434,56.4688,508.4434,66.4688,512.4434,62.4688,508.4434" style="stroke:#181818;stroke-width:1.0;"/><line style="stroke:#181818;stroke-width:1.0;stroke-dasharray:2.0,2.0;" x1="60.4688" x2="330.2012" y1="508.4434" y2="508.4434"/><text fill="#000000" font-family="sans-serif" font-size="13" font-weight="bold" lengthAdjust="spacing" textLength="14.46" x="72.4688" y="503.1807">11</text><text fill="#000000" font-family="sans-serif" font-size="13" lengthAdjust="spacing" textLength="199.4497" x="90.9287" y="503.1807">show the output of public figure list</text><!--SRC=[ZLB1Yjim4BthAuQS4cX-88U5RTr2eOU2bjvdvR4pH9PSQTGb_VgEPPEwsHhYWn6QDs_UUwDyuJ1YmW666A8xfpWGI2faygqoehjWJrQkdY2H4mozNmFo6Tlung673dqcOuH5eVQQXGQmzBDGS0GDOp_1zzOs1pZ2Dyu2OtdrxA3ZlYJAm06-r2Cu5FInLoLO98Ool58o1ft413jxZc_GKEO-KDe1Ph2DKJ72ZaSC0hlJF7skrMDjvbyeD84Dw6SRE3ujvHFeD0xxGwtyXIwz5JuREauzpGbKrvc2ZbHSEoDQkczyFmRp1IHgQ6e1lRzBm3myFasvQeAj1WNxKJVq0QP_vjzqU5YDN4UDVU6YTeFjOL4tLvKdKQyxfgIydQxDnT1n6b0uXWs1_r6uQFjUOveVn_Ho7jHORzT2L_jMbcVlryHvMV-ctMssZhqw_NYrWbBo_ldJozSVdm_lvwzQnZjBD-n6BbjvwpE4M6Gi0h7xzprLanjPhsyQymS0]--></g></svg>