<svg xmlns="http://www.w3.org/2000/svg" xmlns:xlink="http://www.w3.org/1999/xlink" contentStyleType="text/css" height="622px" preserveAspectRatio="none" style="width:470px;height:622px;background:#FFFFFF;" version="1.1" viewBox="0 0 470 622" width="470px" zoomAndPan="magnify"><title>System Sequence Diagram (SSD) - Add Figure Category</title><defs/><g><text fill="#000000" font-family="sans-serif" font-size="14" font-weight="bold" lengthAdjust="spacing" textLength="372.6406" x="55.8943" y="30.1074">System Sequence Diagram (SSD) - Add Figure Category</text><rect fill="#FFFFFF" height="388.2012" style="stroke:#181818;stroke-width:1.0;" width="10" x="50.4688" y="133.2422"/><rect fill="#FFFFFF" height="62.582" style="stroke:#181818;stroke-width:1.0;" width="10" x="302.3784" y="156.5332"/><rect fill="#FFFFFF" height="31.291" style="stroke:#181818;stroke-width:1.0;" width="10" x="302.3784" y="250.4063"/><rect fill="#FFFFFF" height="208.4551" style="stroke:#181818;stroke-width:1.0;" width="10" x="302.3784" y="312.9883"/><rect fill="#FFFFFF" height="130.873" style="stroke:#181818;stroke-width:1.0;" width="10" x="307.3784" y="352.2793"/><rect fill="#FFFFFF" height="42.291" style="stroke:#181818;stroke-width:1.0;" width="10" x="312.3784" y="396.5703"/><line style="stroke:#181818;stroke-width:0.5;stroke-dasharray:5.0,5.0;" x1="55" x2="55" y1="123.2422" y2="539.4434"/><line style="stroke:#181818;stroke-width:0.5;stroke-dasharray:5.0,5.0;" x1="307.0957" x2="307.0957" y1="123.2422" y2="539.4434"/><text fill="#000000" font-family="sans-serif" font-size="14" lengthAdjust="spacing" textLength="94.9375" x="5" y="119.7285">Show Designer</text><ellipse cx="55.4688" cy="53.1211" fill="#E3E3E3" rx="8" ry="8" style="stroke:#181818;stroke-width:0.5;"/><path d="M55.4688,61.1211 L55.4688,88.1211 M42.4688,69.1211 L68.4688,69.1211 M55.4688,88.1211 L42.4688,103.1211 M55.4688,88.1211 L68.4688,103.1211 " fill="none" style="stroke:#181818;stroke-width:0.5;"/><text fill="#000000" font-family="sans-serif" font-size="14" lengthAdjust="spacing" textLength="94.9375" x="5" y="553.5508">Show Designer</text><ellipse cx="55.4688" cy="565.5645" fill="#E3E3E3" rx="8" ry="8" style="stroke:#181818;stroke-width:0.5;"/><path d="M55.4688,573.5645 L55.4688,600.5645 M42.4688,581.5645 L68.4688,581.5645 M55.4688,600.5645 L42.4688,615.5645 M55.4688,600.5645 L68.4688,615.5645 " fill="none" style="stroke:#181818;stroke-width:0.5;"/><rect fill="#E3E3E3" height="32.6211" rx="2.5" ry="2.5" style="stroke:#181818;stroke-width:0.5;" width="64.5654" x="275.0957" y="89.6211"/><text fill="#000000" font-family="sans-serif" font-size="14" lengthAdjust="spacing" textLength="50.5654" x="282.0957" y="111.7285">:System</text><rect fill="#E3E3E3" height="32.6211" rx="2.5" ry="2.5" style="stroke:#181818;stroke-width:0.5;" width="64.5654" x="275.0957" y="538.4434"/><text fill="#000000" font-family="sans-serif" font-size="14" lengthAdjust="spacing" textLength="50.5654" x="282.0957" y="560.5508">:System</text><rect fill="#FFFFFF" height="388.2012" style="stroke:#181818;stroke-width:1.0;" width="10" x="50.4688" y="133.2422"/><rect fill="#FFFFFF" height="62.582" style="stroke:#181818;stroke-width:1.0;" width="10" x="302.3784" y="156.5332"/><rect fill="#FFFFFF" height="31.291" style="stroke:#181818;stroke-width:1.0;" width="10" x="302.3784" y="250.4063"/><rect fill="#FFFFFF" height="208.4551" style="stroke:#181818;stroke-width:1.0;" width="10" x="302.3784" y="312.9883"/><rect fill="#FFFFFF" height="130.873" style="stroke:#181818;stroke-width:1.0;" width="10" x="307.3784" y="352.2793"/><rect fill="#FFFFFF" height="42.291" style="stroke:#181818;stroke-width:1.0;" width="10" x="312.3784" y="396.5703"/><polygon fill="#181818" points="290.3784,152.5332,300.3784,156.5332,290.3784,160.5332,294.3784,156.5332" style="stroke:#181818;stroke-width:1.0;"/><line style="stroke:#181818;stroke-width:1.0;" x1="60.4688" x2="296.3784" y1="156.5332" y2="156.5332"/><text fill="#000000" font-family="sans-serif" font-size="13" font-weight="bold" lengthAdjust="spacing" textLength="7.23" x="67.4688" y="151.2705">1</text><text fill="#000000" font-family="sans-serif" font-size="13" lengthAdjust="spacing" textLength="144.5044" x="78.6987" y="151.2705">requestPublicFigureList()</text><polygon fill="#181818" points="290.3784,183.8242,300.3784,187.8242,290.3784,191.8242,294.3784,187.8242" style="stroke:#181818;stroke-width:1.0;"/><line style="stroke:#181818;stroke-width:1.0;" x1="60.4688" x2="296.3784" y1="187.8242" y2="187.8242"/><text fill="#000000" font-family="sans-serif" font-size="13" font-weight="bold" lengthAdjust="spacing" textLength="7.23" x="67.4688" y="182.5615">2</text><text fill="#000000" font-family="sans-serif" font-size="13" lengthAdjust="spacing" textLength="36.1245" x="78.6987" y="182.5615">login()</text><polygon fill="#181818" points="71.4688,215.1152,61.4688,219.1152,71.4688,223.1152,67.4688,219.1152" style="stroke:#181818;stroke-width:1.0;"/><line style="stroke:#181818;stroke-width:1.0;stroke-dasharray:2.0,2.0;" x1="65.4688" x2="306.3784" y1="219.1152" y2="219.1152"/><text fill="#000000" font-family="sans-serif" font-size="13" font-weight="bold" lengthAdjust="spacing" textLength="7.23" x="77.4688" y="213.8525">3</text><text fill="#000000" font-family="sans-serif" font-size="13" lengthAdjust="spacing" textLength="78.0635" x="88.6987" y="213.8525">authenticated</text><polygon fill="#181818" points="290.3784,246.4063,300.3784,250.4063,290.3784,254.4063,294.3784,250.4063" style="stroke:#181818;stroke-width:1.0;"/><line style="stroke:#181818;stroke-width:1.0;" x1="60.4688" x2="296.3784" y1="250.4063" y2="250.4063"/><text fill="#000000" font-family="sans-serif" font-size="13" font-weight="bold" lengthAdjust="spacing" textLength="7.23" x="67.4688" y="245.1436">4</text><text fill="#000000" font-family="sans-serif" font-size="13" lengthAdjust="spacing" textLength="165.4707" x="78.6987" y="245.1436">ask to show all public figures</text><polygon fill="#181818" points="71.4688,277.6973,61.4688,281.6973,71.4688,285.6973,67.4688,281.6973" style="stroke:#181818;stroke-width:1.0;"/><line style="stroke:#181818;stroke-width:1.0;stroke-dasharray:2.0,2.0;" x1="65.4688" x2="306.3784" y1="281.6973" y2="281.6973"/><text fill="#000000" font-family="sans-serif" font-size="13" font-weight="bold" lengthAdjust="spacing" textLength="7.23" x="77.4688" y="276.4346">5</text><text fill="#000000" font-family="sans-serif" font-size="13" lengthAdjust="spacing" textLength="70.8081" x="88.6987" y="276.4346">confirmation</text><polygon fill="#181818" points="290.3784,308.9883,300.3784,312.9883,290.3784,316.9883,294.3784,312.9883" style="stroke:#181818;stroke-width:1.0;"/><line style="stroke:#181818;stroke-width:1.0;" x1="60.4688" x2="296.3784" y1="312.9883" y2="312.9883"/><text fill="#000000" font-family="sans-serif" font-size="13" font-weight="bold" lengthAdjust="spacing" textLength="7.23" x="67.4688" y="307.7256">6</text><text fill="#000000" font-family="sans-serif" font-size="13" lengthAdjust="spacing" textLength="144.5044" x="78.6987" y="307.7256">requestPublicFigureList()</text><line style="stroke:#181818;stroke-width:1.0;" x1="312.3784" x2="359.3784" y1="339.2793" y2="339.2793"/><line style="stroke:#181818;stroke-width:1.0;" x1="359.3784" x2="359.3784" y1="339.2793" y2="352.2793"/><line style="stroke:#181818;stroke-width:1.0;" x1="318.3784" x2="359.3784" y1="352.2793" y2="352.2793"/><polygon fill="#181818" points="328.3784,348.2793,318.3784,352.2793,328.3784,356.2793,324.3784,352.2793" style="stroke:#181818;stroke-width:1.0;"/><text fill="#000000" font-family="sans-serif" font-size="13" font-weight="bold" lengthAdjust="spacing" textLength="7.23" x="324.3784" y="334.0166">7</text><text fill="#000000" font-family="sans-serif" font-size="13" lengthAdjust="spacing" textLength="103.3018" x="335.6084" y="334.0166">listPublicFigures()</text><line style="stroke:#181818;stroke-width:1.0;" x1="317.3784" x2="364.3784" y1="383.5703" y2="383.5703"/><line style="stroke:#181818;stroke-width:1.0;" x1="364.3784" x2="364.3784" y1="383.5703" y2="396.5703"/><line style="stroke:#181818;stroke-width:1.0;" x1="323.3784" x2="364.3784" y1="396.5703" y2="396.5703"/><polygon fill="#181818" points="333.3784,392.5703,323.3784,396.5703,333.3784,400.5703,329.3784,396.5703" style="stroke:#181818;stroke-width:1.0;"/><text fill="#000000" font-family="sans-serif" font-size="13" font-weight="bold" lengthAdjust="spacing" textLength="7.23" x="329.3784" y="378.3076">8</text><text fill="#000000" font-family="sans-serif" font-size="13" lengthAdjust="spacing" textLength="122.8208" x="340.6084" y="378.3076">findAllPublicFigures()</text><line style="stroke:#181818;stroke-width:1.0;" x1="322.3784" x2="364.3784" y1="437.8613" y2="437.8613"/><line style="stroke:#181818;stroke-width:1.0;" x1="364.3784" x2="364.3784" y1="437.8613" y2="450.8613"/><line style="stroke:#181818;stroke-width:1.0;" x1="317.3784" x2="364.3784" y1="450.8613" y2="450.8613"/><polygon fill="#181818" points="327.3784,446.8613,317.3784,450.8613,327.3784,454.8613,323.3784,450.8613" style="stroke:#181818;stroke-width:1.0;"/><text fill="#000000" font-family="sans-serif" font-size="13" font-weight="bold" lengthAdjust="spacing" textLength="7.23" x="329.3784" y="432.5986">9</text><text fill="#000000" font-family="sans-serif" font-size="13" lengthAdjust="spacing" textLength="91.0444" x="340.6084" y="432.5986">publicFigureList</text><line style="stroke:#181818;stroke-width:1.0;" x1="317.3784" x2="359.3784" y1="482.1523" y2="482.1523"/><line style="stroke:#181818;stroke-width:1.0;" x1="359.3784" x2="359.3784" y1="482.1523" y2="495.1523"/><line style="stroke:#181818;stroke-width:1.0;" x1="312.3784" x2="359.3784" y1="495.1523" y2="495.1523"/><polygon fill="#181818" points="322.3784,491.1523,312.3784,495.1523,322.3784,499.1523,318.3784,495.1523" style="stroke:#181818;stroke-width:1.0;"/><text fill="#000000" font-family="sans-serif" font-size="13" font-weight="bold" lengthAdjust="spacing" textLength="14.46" x="324.3784" y="476.8896">10</text><text fill="#000000" font-family="sans-serif" font-size="13" lengthAdjust="spacing" textLength="91.0444" x="342.8384" y="476.8896">publicFigureList</text><polygon fill="#181818" points="66.4688,517.4434,56.4688,521.4434,66.4688,525.4434,62.4688,521.4434" style="stroke:#181818;stroke-width:1.0;"/><line style="stroke:#181818;stroke-width:1.0;stroke-dasharray:2.0,2.0;" x1="60.4688" x2="306.3784" y1="521.4434" y2="521.4434"/><text fill="#000000" font-family="sans-serif" font-size="13" font-weight="bold" lengthAdjust="spacing" textLength="14.46" x="72.4688" y="516.1807">11</text><text fill="#000000" font-family="sans-serif" font-size="13" lengthAdjust="spacing" textLength="199.4497" x="90.9287" y="516.1807">show the output of public figure list</text><!--SRC=[hLAxRiCm3Dpr5KIcPCWFP2WGrEZKeO2-W95fcOWikHBL87zV-T4qIUDEqII8nxlZKUd8liU87NJ11zF6q158pAJIfTAZEQ8bBMT74Ca8Ukkk0Qd5EfpOMsZG9L9AM0fKdvDG1ve-Ctb3K37Q0RxMkjh05lPr3MziSoHuHI4Rubafp19yxWuKozr8YB3IRJX1HOcjfxW2JA0hLPI53VVe1LQxIMggZTUncRyAxG1MkeBjorpQbHcAeoGV-U3OJ0xUESbwew2StyQPQNYy9N31if_XyvJReLpjeFXloHThXQ6UUckwf_pBYEa84agIPLHq3lhH6pIZkQJ-CNOhRu9lE7Oe7Fo2-0FrvK0U2iDyVhIlWk5RbZI7j6Z_CKt3ljuxzmIc_cwa2tGXb-Upp8iPDrk-1eGiVHO8pUsEn-WMDdRzKgbl]--></g></svg>