<?xml version="1.0" encoding="UTF-8" standalone="no"?><svg xmlns="http://www.w3.org/2000/svg" xmlns:xlink="http://www.w3.org/1999/xlink" contentStyleType="text/css" height="313px" preserveAspectRatio="none" style="width:341px;height:313px;background:#FFFFFF;" version="1.1" viewBox="0 0 341 313" width="341px" zoomAndPan="magnify"><defs/><g><!--class ApplicationSession--><g id="elem_ApplicationSession"><rect codeLine="3" fill="#F1F1F1" height="67.5547" id="ApplicationSession" rx="2.5" ry="2.5" style="stroke:#181818;stroke-width:0.5;" width="119" x="7" y="238.56"/><ellipse cx="20" cy="252.56" fill="#ADD1B2" rx="9" ry="9" style="stroke:#181818;stroke-width:1.0;"/><path d="M21.2783,256.35 Q20.9365,256.5258 20.5605,256.6137 Q20.1846,256.7016 19.7695,256.7016 Q18.2949,256.7016 17.5186,255.7299 Q16.7422,254.7582 16.7422,252.9223 Q16.7422,251.0815 17.5186,250.1098 Q18.2949,249.1381 19.7695,249.1381 Q20.1846,249.1381 20.5654,249.226 Q20.9463,249.3139 21.2783,249.4897 L21.2783,251.0913 Q20.9072,250.7495 20.5581,250.5908 Q20.209,250.4321 19.8379,250.4321 Q19.0469,250.4321 18.644,251.0595 Q18.2412,251.687 18.2412,252.9223 Q18.2412,254.1528 18.644,254.7802 Q19.0469,255.4077 19.8379,255.4077 Q20.209,255.4077 20.5581,255.249 Q20.9072,255.0903 21.2783,254.7485 Z " fill="#000000"/><text fill="#000000" font-family="Times" font-size="10" lengthAdjust="spacing" textLength="91" x="32" y="256.3393">ApplicationSession</text><line style="stroke:#181818;stroke-width:0.5;" x1="8" x2="125" y1="266.56" y2="266.56"/><line style="stroke:#181818;stroke-width:0.5;" x1="8" x2="125" y1="274.56" y2="274.56"/><text fill="#000000" font-family="Times" font-size="10" lengthAdjust="spacing" textLength="101" x="13" y="288.228">+static getInstance()</text><text fill="#000000" font-family="Times" font-size="10" lengthAdjust="spacing" textLength="103" x="13" y="300.0053">+getCurrentSession()</text></g><!--class UserSession--><g id="elem_UserSession"><rect codeLine="9" fill="#F1F1F1" height="55.7773" id="UserSession" rx="2.5" ry="2.5" style="stroke:#181818;stroke-width:0.5;" width="173" x="161" y="244.44"/><ellipse cx="214.75" cy="258.44" fill="#ADD1B2" rx="9" ry="9" style="stroke:#181818;stroke-width:1.0;"/><path d="M216.0283,262.23 Q215.6865,262.4058 215.3105,262.4937 Q214.9346,262.5816 214.5195,262.5816 Q213.0449,262.5816 212.2686,261.6099 Q211.4922,260.6382 211.4922,258.8023 Q211.4922,256.9615 212.2686,255.9898 Q213.0449,255.0181 214.5195,255.0181 Q214.9346,255.0181 215.3154,255.106 Q215.6963,255.1939 216.0283,255.3697 L216.0283,256.9713 Q215.6572,256.6295 215.3081,256.4708 Q214.959,256.3121 214.5879,256.3121 Q213.7969,256.3121 213.394,256.9395 Q212.9912,257.567 212.9912,258.8023 Q212.9912,260.0328 213.394,260.6602 Q213.7969,261.2877 214.5879,261.2877 Q214.959,261.2877 215.3081,261.129 Q215.6572,260.9703 216.0283,260.6285 Z " fill="#000000"/><text fill="#000000" font-family="Times" font-size="10" lengthAdjust="spacing" textLength="58" x="232.25" y="262.2193">UserSession</text><line style="stroke:#181818;stroke-width:0.5;" x1="162" x2="333" y1="272.44" y2="272.44"/><line style="stroke:#181818;stroke-width:0.5;" x1="162" x2="333" y1="280.44" y2="280.44"/><text fill="#000000" font-family="Times" font-size="10" lengthAdjust="spacing" textLength="161" x="167" y="294.108">+isLoggedInWithRole(USER_ROLE)</text></g><!--class {NameOfUC}Controller--><g id="elem_{NameOfUC}Controller"><rect codeLine="14" fill="#F1F1F1" height="67.5547" id="{NameOfUC}Controller" rx="2.5" ry="2.5" style="stroke:#181818;stroke-width:0.5;" width="137" x="88" y="111"/><ellipse cx="101" cy="125" fill="#ADD1B2" rx="9" ry="9" style="stroke:#181818;stroke-width:1.0;"/><path d="M102.2783,128.79 Q101.9365,128.9658 101.5605,129.0537 Q101.1846,129.1416 100.7695,129.1416 Q99.2949,129.1416 98.5186,128.1699 Q97.7422,127.1982 97.7422,125.3623 Q97.7422,123.5215 98.5186,122.5498 Q99.2949,121.5781 100.7695,121.5781 Q101.1846,121.5781 101.5654,121.666 Q101.9463,121.7539 102.2783,121.9297 L102.2783,123.5313 Q101.9072,123.1895 101.5581,123.0308 Q101.209,122.8721 100.8379,122.8721 Q100.0469,122.8721 99.644,123.4995 Q99.2412,124.127 99.2412,125.3623 Q99.2412,126.5928 99.644,127.2202 Q100.0469,127.8477 100.8379,127.8477 Q101.209,127.8477 101.5581,127.689 Q101.9072,127.5303 102.2783,127.1885 Z " fill="#000000"/><text fill="#000000" font-family="Times" font-size="10" lengthAdjust="spacing" textLength="109" x="113" y="128.7793">{NameOfUC}Controller</text><line style="stroke:#181818;stroke-width:0.5;" x1="89" x2="224" y1="139" y2="139"/><line style="stroke:#181818;stroke-width:0.5;" x1="89" x2="224" y1="147" y2="147"/><text fill="#000000" font-family="Times" font-size="10" lengthAdjust="spacing" textLength="123" x="94" y="160.668">+{NameOfUC}Controller()</text><text fill="#000000" font-family="Times" font-size="10" lengthAdjust="spacing" textLength="66" x="94" y="172.4453">+methodX(...)</text></g><!--class {NameOfUC}ui--><g id="elem_{NameOfUC}ui"><rect codeLine="19" fill="#F1F1F1" height="44" id="{NameOfUC}ui" rx="2.5" ry="2.5" style="stroke:#181818;stroke-width:0.5;" width="98" x="107.5" y="7"/><ellipse cx="120.5" cy="21" fill="#ADD1B2" rx="9" ry="9" style="stroke:#181818;stroke-width:1.0;"/><path d="M121.7783,24.79 Q121.4365,24.9658 121.0605,25.0537 Q120.6846,25.1416 120.2695,25.1416 Q118.7949,25.1416 118.0186,24.1699 Q117.2422,23.1982 117.2422,21.3623 Q117.2422,19.5215 118.0186,18.5498 Q118.7949,17.5781 120.2695,17.5781 Q120.6846,17.5781 121.0654,17.666 Q121.4463,17.7539 121.7783,17.9297 L121.7783,19.5313 Q121.4072,19.1895 121.0581,19.0308 Q120.709,18.8721 120.3379,18.8721 Q119.5469,18.8721 119.144,19.4995 Q118.7412,20.127 118.7412,21.3623 Q118.7412,22.5928 119.144,23.2202 Q119.5469,23.8477 120.3379,23.8477 Q120.709,23.8477 121.0581,23.689 Q121.4072,23.5303 121.7783,23.1885 Z " fill="#000000"/><text fill="#000000" font-family="Times" font-size="10" lengthAdjust="spacing" textLength="70" x="132.5" y="24.7793">{NameOfUC}ui</text><line style="stroke:#181818;stroke-width:0.5;" x1="108.5" x2="204.5" y1="35" y2="35"/><line style="stroke:#181818;stroke-width:0.5;" x1="108.5" x2="204.5" y1="43" y2="43"/></g><!--link {NameOfUC}ui to {NameOfUC}Controller--><g id="link_{NameOfUC}UI_{NameOfUC}Controller"><path codeLine="22" d="M156.5,51.4 C156.5,66.31 156.5,86.63 156.5,104.41 " fill="none" id="{NameOfUC}ui-to-{NameOfUC}Controller" style="stroke:#181818;stroke-width:1.0;stroke-dasharray:7.0,7.0;"/><polygon fill="#181818" points="156.5,109.32,160.5,100.32,156.5,104.32,152.5,100.32,156.5,109.32" style="stroke:#181818;stroke-width:1.0;"/></g><!--link {NameOfUC}Controller to ApplicationSession--><g id="link_{NameOfUC}Controller_ApplicationSession"><path codeLine="23" d="M132.85,178.77 C120.96,195.36 106.47,215.57 94.08,232.86 " fill="none" id="{NameOfUC}Controller-to-ApplicationSession" style="stroke:#181818;stroke-width:1.0;stroke-dasharray:7.0,7.0;"/><polygon fill="#181818" points="91.18,236.9,99.6594,231.8901,94.0808,232.8275,93.1434,227.2488,91.18,236.9" style="stroke:#181818;stroke-width:1.0;"/></g><!--link {NameOfUC}Controller to UserSession--><g id="link_{NameOfUC}Controller_UserSession"><path codeLine="24" d="M180.41,178.77 C193.89,197.36 210.65,220.5 224.06,238.99 " fill="none" id="{NameOfUC}Controller-to-UserSession" style="stroke:#181818;stroke-width:1.0;stroke-dasharray:7.0,7.0;"/><polygon fill="#181818" points="226.85,242.84,224.8096,233.2048,223.9168,238.7908,218.3309,237.8979,226.85,242.84" style="stroke:#181818;stroke-width:1.0;"/></g><!--SRC=[VP1DQiCm48NtEiMGbKl1f1S819E28IJWrBIxeieJHqIMZ6QyISZTEt8fJOlTbSHxRxxveRFrlOwwSy6SiO46Ztfm_1myxtI7y68x94NpgOEz83mjVo9Wd2PQCqVxCJ2M9lWnirHgT63TzyuQpLOC9997NHN08x5e1bhaqilV6ymUaYv2CSI8qkihBlBj6rOJnbyKIzlGjjYK_jNogGeEi_gmgTwh_NPpLxUuflNsnxgu5R953CvXN41220Ict76QP7R8fz2yPNcUJnFhCf74-QFb-MgciPgP9rLCtEkVzFr1FW40]--></g></svg>