<?xml version="1.0" encoding="UTF-8" standalone="no"?><svg xmlns="http://www.w3.org/2000/svg" xmlns:xlink="http://www.w3.org/1999/xlink" contentStyleType="text/css" height="470px" preserveAspectRatio="none" style="width:648px;height:470px;background:#FFFFFF;" version="1.1" viewBox="0 0 648 470" width="648px" zoomAndPan="magnify"><defs/><g><rect fill="#FFFFFF" height="364.5508" style="stroke:#181818;stroke-width:1.0;" width="10" x="235" y="53.5547"/><rect fill="#FFFFFF" height="30.7773" style="stroke:#181818;stroke-width:1.0;" width="10" x="240" y="280.5508"/><rect fill="#FFFFFF" height="25.7773" style="stroke:#181818;stroke-width:1.0;" width="10" x="360.5" y="97.1094"/><rect fill="#FFFFFF" height="25.7773" style="stroke:#181818;stroke-width:1.0;" width="10" x="477" y="148.6641"/><rect fill="#FFFFFF" height="25.7773" style="stroke:#181818;stroke-width:1.0;" width="10" x="583.5" y="200.2188"/><rect fill="none" height="170.1094" style="stroke:#000000;stroke-width:1.5;" width="630" x="11" y="240.9961"/><line style="stroke:#181818;stroke-width:0.5;stroke-dasharray:5.0,5.0;" x1="240" x2="240" y1="43.5547" y2="428.1055"/><line style="stroke:#181818;stroke-width:0.5;stroke-dasharray:5.0,5.0;" x1="365" x2="365" y1="43.5547" y2="428.1055"/><line style="stroke:#181818;stroke-width:0.5;stroke-dasharray:5.0,5.0;" x1="482" x2="482" y1="43.5547" y2="428.1055"/><line style="stroke:#181818;stroke-width:0.5;stroke-dasharray:5.0,5.0;" x1="588" x2="588" y1="43.5547" y2="428.1055"/><rect fill="#E3E3E3" height="25.7773" rx="2.5" ry="2.5" style="stroke:#181818;stroke-width:0.5;" width="126" x="177" y="16.7773"/><text fill="#000000" font-family="Times" font-size="10" lengthAdjust="spacing" textLength="112" x="184" y="33.4453">:{NameOfUC}Controller</text><rect fill="#E3E3E3" height="25.7773" rx="2.5" ry="2.5" style="stroke:#181818;stroke-width:0.5;" width="126" x="177" y="427.1055"/><text fill="#000000" font-family="Times" font-size="10" lengthAdjust="spacing" textLength="112" x="184" y="443.7734">:{NameOfUC}Controller</text><rect fill="#E3E3E3" height="25.7773" rx="2.5" ry="2.5" style="stroke:#181818;stroke-width:0.5;" width="105" x="313" y="16.7773"/><text fill="#000000" font-family="Times" font-size="10" lengthAdjust="spacing" textLength="91" x="320" y="33.4453">ApplicationSession</text><rect fill="#E3E3E3" height="25.7773" rx="2.5" ry="2.5" style="stroke:#181818;stroke-width:0.5;" width="105" x="313" y="427.1055"/><text fill="#000000" font-family="Times" font-size="10" lengthAdjust="spacing" textLength="91" x="320" y="443.7734">ApplicationSession</text><rect fill="#E3E3E3" height="37.5547" rx="2.5" ry="2.5" style="stroke:#181818;stroke-width:0.5;" width="108" x="428" y="5"/><text fill="#000000" font-family="Times" font-size="10" lengthAdjust="spacing" textLength="54" x="455" y="21.668">appSession</text><text fill="#000000" font-family="Times" font-size="10" lengthAdjust="spacing" textLength="94" x="435" y="33.4453">:ApplicationSession</text><rect fill="#E3E3E3" height="37.5547" rx="2.5" ry="2.5" style="stroke:#181818;stroke-width:0.5;" width="108" x="428" y="427.1055"/><text fill="#000000" font-family="Times" font-size="10" lengthAdjust="spacing" textLength="54" x="455" y="443.7734">appSession</text><text fill="#000000" font-family="Times" font-size="10" lengthAdjust="spacing" textLength="94" x="435" y="455.5508">:ApplicationSession</text><rect fill="#E3E3E3" height="37.5547" rx="2.5" ry="2.5" style="stroke:#181818;stroke-width:0.5;" width="85" x="546" y="5"/><text fill="#000000" font-family="Times" font-size="10" lengthAdjust="spacing" textLength="71" x="553" y="21.668">currentSession</text><text fill="#000000" font-family="Times" font-size="10" lengthAdjust="spacing" textLength="61" x="558" y="33.4453">:UserSession</text><rect fill="#E3E3E3" height="37.5547" rx="2.5" ry="2.5" style="stroke:#181818;stroke-width:0.5;" width="85" x="546" y="427.1055"/><text fill="#000000" font-family="Times" font-size="10" lengthAdjust="spacing" textLength="71" x="553" y="443.7734">currentSession</text><text fill="#000000" font-family="Times" font-size="10" lengthAdjust="spacing" textLength="61" x="558" y="455.5508">:UserSession</text><rect fill="#FFFFFF" height="364.5508" style="stroke:#181818;stroke-width:1.0;" width="10" x="235" y="53.5547"/><rect fill="#FFFFFF" height="30.7773" style="stroke:#181818;stroke-width:1.0;" width="10" x="240" y="280.5508"/><rect fill="#FFFFFF" height="25.7773" style="stroke:#181818;stroke-width:1.0;" width="10" x="360.5" y="97.1094"/><rect fill="#FFFFFF" height="25.7773" style="stroke:#181818;stroke-width:1.0;" width="10" x="477" y="148.6641"/><rect fill="#FFFFFF" height="25.7773" style="stroke:#181818;stroke-width:1.0;" width="10" x="583.5" y="200.2188"/><ellipse cx="7.5" cy="70.582" fill="none" rx="4" ry="4" style="stroke:#181818;stroke-width:1.5;"/><polygon fill="#181818" points="223,67.332,233,71.332,223,75.332,227,71.332" style="stroke:#181818;stroke-width:1.0;"/><line style="stroke:#181818;stroke-width:1.0;" x1="12" x2="229" y1="71.332" y2="71.332"/><text fill="#000000" font-family="Times" font-size="10" font-weight="bold" lengthAdjust="spacing" textLength="7" x="15" y="67.2227">1</text><text fill="#000000" font-family="Times" font-size="10" lengthAdjust="spacing" textLength="37" x="26" y="67.2227">create()</text><polygon fill="#181818" points="348.5,93.1094,358.5,97.1094,348.5,101.1094,352.5,97.1094" style="stroke:#181818;stroke-width:1.0;"/><line style="stroke:#181818;stroke-width:1.0;" x1="245" x2="354.5" y1="97.1094" y2="97.1094"/><text fill="#000000" font-family="Times" font-size="10" font-weight="bold" lengthAdjust="spacing" textLength="7" x="252" y="93">2</text><text fill="#000000" font-family="Times" font-size="10" lengthAdjust="spacing" textLength="63" x="263" y="93">getinstance()</text><polygon fill="#181818" points="256,118.8867,246,122.8867,256,126.8867,252,122.8867" style="stroke:#181818;stroke-width:1.0;"/><line style="stroke:#181818;stroke-width:1.0;stroke-dasharray:2.0,2.0;" x1="250" x2="364.5" y1="122.8867" y2="122.8867"/><text fill="#000000" font-family="Times" font-size="10" font-weight="bold" lengthAdjust="spacing" textLength="7" x="262" y="118.7773">3</text><text fill="#000000" font-family="Times" font-size="10" lengthAdjust="spacing" textLength="54" x="273" y="118.7773">appSession</text><polygon fill="#181818" points="465,144.6641,475,148.6641,465,152.6641,469,148.6641" style="stroke:#181818;stroke-width:1.0;"/><line style="stroke:#181818;stroke-width:1.0;" x1="245" x2="471" y1="148.6641" y2="148.6641"/><text fill="#000000" font-family="Times" font-size="10" font-weight="bold" lengthAdjust="spacing" textLength="7" x="252" y="144.5547">4</text><text fill="#000000" font-family="Times" font-size="10" lengthAdjust="spacing" textLength="95" x="263" y="144.5547">getCurrentSession()</text><polygon fill="#181818" points="256,170.4414,246,174.4414,256,178.4414,252,174.4414" style="stroke:#181818;stroke-width:1.0;"/><line style="stroke:#181818;stroke-width:1.0;stroke-dasharray:2.0,2.0;" x1="250" x2="481" y1="174.4414" y2="174.4414"/><text fill="#000000" font-family="Times" font-size="10" font-weight="bold" lengthAdjust="spacing" textLength="7" x="262" y="170.332">5</text><text fill="#000000" font-family="Times" font-size="10" lengthAdjust="spacing" textLength="71" x="273" y="170.332">currentSession</text><polygon fill="#181818" points="571.5,196.2188,581.5,200.2188,571.5,204.2188,575.5,200.2188" style="stroke:#181818;stroke-width:1.0;"/><line style="stroke:#181818;stroke-width:1.0;" x1="245" x2="577.5" y1="200.2188" y2="200.2188"/><text fill="#000000" font-family="Times" font-size="10" font-weight="bold" lengthAdjust="spacing" textLength="7" x="252" y="196.1094">6</text><text fill="#000000" font-family="Times" font-size="10" lengthAdjust="spacing" textLength="153" x="263" y="196.1094">isLoggedInWithRole(USER_ROLE)</text><polygon fill="#181818" points="256,221.9961,246,225.9961,256,229.9961,252,225.9961" style="stroke:#181818;stroke-width:1.0;"/><line style="stroke:#181818;stroke-width:1.0;stroke-dasharray:2.0,2.0;" x1="250" x2="587.5" y1="225.9961" y2="225.9961"/><text fill="#000000" font-family="Times" font-size="10" font-weight="bold" lengthAdjust="spacing" textLength="7" x="262" y="221.8867">7</text><text fill="#000000" font-family="Times" font-size="10" lengthAdjust="spacing" textLength="35" x="273" y="221.8867">answer</text><path d="M11,240.9961 L69,240.9961 L69,244.7734 L59,254.7734 L11,254.7734 L11,240.9961 " fill="#EEEEEE" style="stroke:#000000;stroke-width:1.5;"/><rect fill="none" height="170.1094" style="stroke:#000000;stroke-width:1.5;" width="630" x="11" y="240.9961"/><text fill="#000000" font-family="Times" font-size="10" font-weight="bold" lengthAdjust="spacing" textLength="13" x="26" y="251.6641">alt</text><text fill="#000000" font-family="Times" font-size="10" font-weight="bold" lengthAdjust="spacing" textLength="83" x="84" y="252.6641">[answer = true]</text><line style="stroke:#181818;stroke-width:1.0;" x1="245" x2="292" y1="267.5508" y2="267.5508"/><line style="stroke:#181818;stroke-width:1.0;" x1="292" x2="292" y1="267.5508" y2="280.5508"/><line style="stroke:#181818;stroke-width:1.0;" x1="251" x2="292" y1="280.5508" y2="280.5508"/><polygon fill="#181818" points="261,276.5508,251,280.5508,261,284.5508,257,280.5508" style="stroke:#181818;stroke-width:1.0;"/><text fill="#000000" font-family="Times" font-size="10" font-weight="bold" lengthAdjust="spacing" textLength="7" x="257" y="263.4414">8</text><text fill="#000000" font-family="Times" font-size="10" lengthAdjust="spacing" textLength="84" x="268" y="263.4414">doesOtherThing()</text><ellipse cx="7.5" cy="310.5781" fill="none" rx="4" ry="4" style="stroke:#181818;stroke-width:1.5;"/><polygon fill="#181818" points="24.5,307.3281,14.5,311.3281,24.5,315.3281,20.5,311.3281" style="stroke:#181818;stroke-width:1.0;"/><line style="stroke:#181818;stroke-width:1.0;stroke-dasharray:2.0,2.0;" x1="22.5" x2="234" y1="311.3281" y2="311.3281"/><text fill="#000000" font-family="Times" font-size="10" font-weight="bold" lengthAdjust="spacing" textLength="7" x="25" y="307.2188">9</text><text fill="#000000" font-family="Times" font-size="10" lengthAdjust="spacing" textLength="12" x="36" y="307.2188">ok</text><polygon fill="#FFFFFF" points="576.5,321.3281,586.5,325.3281,576.5,329.3281,580.5,325.3281" style="stroke:#FFFFFF;stroke-width:1.0;"/><line style="stroke:#FFFFFF;stroke-width:1.0;" x1="245" x2="582.5" y1="325.3281" y2="325.3281"/><line style="stroke:#000000;stroke-width:1.0;stroke-dasharray:2.0,2.0;" x1="11" x2="641" y1="334.3281" y2="334.3281"/><ellipse cx="7.5" cy="377.3555" fill="none" rx="4" ry="4" style="stroke:#181818;stroke-width:1.5;"/><polygon fill="#181818" points="24.5,374.1055,14.5,378.1055,24.5,382.1055,20.5,378.1055" style="stroke:#181818;stroke-width:1.0;"/><line style="stroke:#181818;stroke-width:1.0;stroke-dasharray:2.0,2.0;" x1="22.5" x2="234" y1="378.1055" y2="378.1055"/><text fill="#000000" font-family="Times" font-size="10" font-weight="bold" lengthAdjust="spacing" textLength="14" x="25" y="373.9961">10</text><text fill="#000000" font-family="Times" font-size="10" lengthAdjust="spacing" textLength="190" x="43" y="373.9961">illegalStateException("Not Authorized")</text><!--SRC=[XPHFYzim4CNl_XGYFJHx26oleLq89Wk6a2nsGWzfMRJon1QHDKOQDzis_UwL_oIMKuVgOcEzz_oRiSRsA7N93IyKYYEaB8K3hnGzewOrBu1jPG4siFTLYVm5xDDZBs45QXIvGUScKu6tKt9nv1aaz5C1Co28wqpv0flp54zIP-p0bOKWu1MXheetC47mCPSfi0CYlU5xu0maXIov9ZQP_wvXDuTT-2TqJ0QL0ZDXtB9m6w-6saLPAYauITG9MEikZN3nyf8iaoJQhCEXdfTbf_kcv_yrHqEpg8m1rwHhmCw2yPtXBkwShbX1yWSdQA7tE7jgxjYS2GFk-VGXO6urpzoUH-ma6P3KrdLKrBf6UCtpQsFTyjsp_arzjOqoXT6GEnnHon4EYkweHtAY4PZ8XnbsxpvGD0JgU-eof5rXba4QwQ-IyXWLJ7V9CdwDDwlb3PdtBIvWNfJV96rFxaJUyFYViibLr2dPbtOIhgaNq3OkHR0Roi5iStVqktuDoUe3mRorny-psSMFn-kUZ-Dx-ZbYbh2y8Tb_EEMIuFlJM0iygm5R5MqPK8_dHN8-duDHCkdcCECg8GUqV1TGreCpdQoHsAAY78txUQIJXt-2GATr-uBWjfw_]--></g></svg>