<?xml version="1.0" encoding="UTF-8" standalone="no"?><svg xmlns="http://www.w3.org/2000/svg" xmlns:xlink="http://www.w3.org/1999/xlink" contentStyleType="text/css" height="757px" preserveAspectRatio="none" style="width:812px;height:757px;background:#FFFFFF;" version="1.1" viewBox="0 0 812 757" width="812px" zoomAndPan="magnify"><defs/><g><rect fill="#FFFFFF" height="584.5469" style="stroke:#181818;stroke-width:1.0;" width="10" x="29" y="86.7773"/><rect fill="#FFFFFF" height="250.2188" style="stroke:#181818;stroke-width:1.0;" width="10" x="152" y="104.5547"/><rect fill="#FFFFFF" height="26.7773" style="stroke:#181818;stroke-width:1.0;" width="10" x="266.5" y="140.332"/><rect fill="#FFFFFF" height="55.7773" style="stroke:#181818;stroke-width:1.0;" width="10" x="266.5" y="324.7734"/><rect fill="#FFFFFF" height="179.2188" style="stroke:#181818;stroke-width:1.0;" width="10" x="266.5" y="452.1055"/><rect fill="#FFFFFF" height="121.8867" style="stroke:#181818;stroke-width:1.0;" width="10" x="400.5" y="177.1094"/><rect fill="#FFFFFF" height="127.6641" style="stroke:#181818;stroke-width:1.0;" width="10" x="400.5" y="477.8828"/><rect fill="#FFFFFF" height="34.666" style="stroke:#181818;stroke-width:1.0;" width="10" x="526" y="212.7754"/><rect fill="#FFFFFF" height="76.1094" style="stroke:#181818;stroke-width:1.0;" width="10" x="526" y="503.6602"/><rect fill="#FFFFFF" height="25.7773" style="stroke:#181818;stroke-width:1.0;" width="10" x="642.5" y="273.2188"/><rect fill="none" height="243.7734" style="stroke:#000000;stroke-width:1.5;" width="796.5" x="10" y="420.5508"/><line style="stroke:#181818;stroke-width:0.5;stroke-dasharray:5.0,5.0;" x1="34" x2="34" y1="76.7773" y2="681.3242"/><line style="stroke:#181818;stroke-width:0.5;stroke-dasharray:5.0,5.0;" x1="157" x2="157" y1="76.7773" y2="681.3242"/><line style="stroke:#181818;stroke-width:0.5;stroke-dasharray:5.0,5.0;" x1="271" x2="271" y1="140.9434" y2="681.3242"/><line style="stroke:#181818;stroke-width:0.5;stroke-dasharray:5.0,5.0;" x1="405.5" x2="405.5" y1="177.7207" y2="681.3242"/><line style="stroke:#181818;stroke-width:0.5;stroke-dasharray:5.0,5.0;" x1="530.5" x2="530.5" y1="76.7773" y2="681.3242"/><line style="stroke:#181818;stroke-width:0.5;stroke-dasharray:5.0,5.0;" x1="647.5" x2="647.5" y1="76.7773" y2="681.3242"/><line style="stroke:#181818;stroke-width:0.5;stroke-dasharray:5.0,5.0;" x1="753.5" x2="753.5" y1="76.7773" y2="681.3242"/><text fill="#000000" font-family="Times" font-size="10" lengthAdjust="spacing" textLength="22" x="20" y="74.668">User</text><ellipse cx="34" cy="13.5" fill="#E3E3E3" rx="8" ry="8" style="stroke:#181818;stroke-width:0.5;"/><path d="M34,21.5 L34,48.5 M21,29.5 L47,29.5 M34,48.5 L21,63.5 M34,48.5 L47,63.5 " fill="none" style="stroke:#181818;stroke-width:0.5;"/><text fill="#000000" font-family="Times" font-size="10" lengthAdjust="spacing" textLength="22" x="20" y="689.9922">User</text><ellipse cx="34" cy="700.6016" fill="#E3E3E3" rx="8" ry="8" style="stroke:#181818;stroke-width:0.5;"/><path d="M34,708.6016 L34,735.6016 M21,716.6016 L47,716.6016 M34,735.6016 L21,750.6016 M34,735.6016 L47,750.6016 " fill="none" style="stroke:#181818;stroke-width:0.5;"/><rect fill="#E3E3E3" height="25.7773" rx="2.5" ry="2.5" style="stroke:#181818;stroke-width:0.5;" width="66" x="124" y="50"/><text fill="#000000" font-family="Times" font-size="10" lengthAdjust="spacing" textLength="52" x="131" y="66.668">:{MenuX}UI</text><rect fill="#E3E3E3" height="25.7773" rx="2.5" ry="2.5" style="stroke:#181818;stroke-width:0.5;" width="66" x="124" y="680.3242"/><text fill="#000000" font-family="Times" font-size="10" lengthAdjust="spacing" textLength="52" x="131" y="696.9922">:{MenuX}UI</text><rect fill="#E3E3E3" height="25.7773" rx="2.5" ry="2.5" style="stroke:#181818;stroke-width:0.5;" width="87" x="228" y="680.3242"/><text fill="#000000" font-family="Times" font-size="10" lengthAdjust="spacing" textLength="73" x="235" y="696.9922">:{NameOfUC}UI</text><rect fill="#E3E3E3" height="25.7773" rx="2.5" ry="2.5" style="stroke:#181818;stroke-width:0.5;" width="126" x="342.5" y="680.3242"/><text fill="#000000" font-family="Times" font-size="10" lengthAdjust="spacing" textLength="112" x="349.5" y="696.9922">:{NameOfUC}Controller</text><rect fill="#E3E3E3" height="25.7773" rx="2.5" ry="2.5" style="stroke:#181818;stroke-width:0.5;" width="105" x="478.5" y="50"/><text fill="#000000" font-family="Times" font-size="10" lengthAdjust="spacing" textLength="91" x="485.5" y="66.668">ApplicationSession</text><rect fill="#E3E3E3" height="25.7773" rx="2.5" ry="2.5" style="stroke:#181818;stroke-width:0.5;" width="105" x="478.5" y="680.3242"/><text fill="#000000" font-family="Times" font-size="10" lengthAdjust="spacing" textLength="91" x="485.5" y="696.9922">ApplicationSession</text><rect fill="#E3E3E3" height="37.5547" rx="2.5" ry="2.5" style="stroke:#181818;stroke-width:0.5;" width="108" x="593.5" y="38.2227"/><text fill="#000000" font-family="Times" font-size="10" lengthAdjust="spacing" textLength="54" x="620.5" y="54.8906">appSession</text><text fill="#000000" font-family="Times" font-size="10" lengthAdjust="spacing" textLength="94" x="600.5" y="66.668">:ApplicationSession</text><rect fill="#E3E3E3" height="37.5547" rx="2.5" ry="2.5" style="stroke:#181818;stroke-width:0.5;" width="108" x="593.5" y="680.3242"/><text fill="#000000" font-family="Times" font-size="10" lengthAdjust="spacing" textLength="54" x="620.5" y="696.9922">appSession</text><text fill="#000000" font-family="Times" font-size="10" lengthAdjust="spacing" textLength="94" x="600.5" y="708.7695">:ApplicationSession</text><rect fill="#E3E3E3" height="37.5547" rx="2.5" ry="2.5" style="stroke:#181818;stroke-width:0.5;" width="85" x="711.5" y="38.2227"/><text fill="#000000" font-family="Times" font-size="10" lengthAdjust="spacing" textLength="71" x="718.5" y="54.8906">currentSession</text><text fill="#000000" font-family="Times" font-size="10" lengthAdjust="spacing" textLength="61" x="723.5" y="66.668">:UserSession</text><rect fill="#E3E3E3" height="37.5547" rx="2.5" ry="2.5" style="stroke:#181818;stroke-width:0.5;" width="85" x="711.5" y="680.3242"/><text fill="#000000" font-family="Times" font-size="10" lengthAdjust="spacing" textLength="71" x="718.5" y="696.9922">currentSession</text><text fill="#000000" font-family="Times" font-size="10" lengthAdjust="spacing" textLength="61" x="723.5" y="708.7695">:UserSession</text><rect fill="#FFFFFF" height="584.5469" style="stroke:#181818;stroke-width:1.0;" width="10" x="29" y="86.7773"/><rect fill="#FFFFFF" height="250.2188" style="stroke:#181818;stroke-width:1.0;" width="10" x="152" y="104.5547"/><rect fill="#FFFFFF" height="26.7773" style="stroke:#181818;stroke-width:1.0;" width="10" x="266.5" y="140.332"/><rect fill="#FFFFFF" height="55.7773" style="stroke:#181818;stroke-width:1.0;" width="10" x="266.5" y="324.7734"/><rect fill="#FFFFFF" height="179.2188" style="stroke:#181818;stroke-width:1.0;" width="10" x="266.5" y="452.1055"/><rect fill="#FFFFFF" height="121.8867" style="stroke:#181818;stroke-width:1.0;" width="10" x="400.5" y="177.1094"/><rect fill="#FFFFFF" height="127.6641" style="stroke:#181818;stroke-width:1.0;" width="10" x="400.5" y="477.8828"/><rect fill="#FFFFFF" height="34.666" style="stroke:#181818;stroke-width:1.0;" width="10" x="526" y="212.7754"/><rect fill="#FFFFFF" height="76.1094" style="stroke:#181818;stroke-width:1.0;" width="10" x="526" y="503.6602"/><rect fill="#FFFFFF" height="25.7773" style="stroke:#181818;stroke-width:1.0;" width="10" x="642.5" y="273.2188"/><polygon fill="#181818" points="140,100.5547,150,104.5547,140,108.5547,144,104.5547" style="stroke:#181818;stroke-width:1.0;"/><line style="stroke:#181818;stroke-width:1.0;" x1="39" x2="146" y1="104.5547" y2="104.5547"/><text fill="#000000" font-family="Times" font-size="10" font-weight="bold" lengthAdjust="spacing" textLength="7" x="46" y="100.4453">1</text><text fill="#000000" font-family="Times" font-size="10" lengthAdjust="spacing" textLength="83" x="57" y="100.4453">selects an option</text><polygon fill="#181818" points="216,126.332,226,130.332,216,134.332,220,130.332" style="stroke:#181818;stroke-width:1.0;"/><line style="stroke:#181818;stroke-width:1.0;stroke-dasharray:2.0,2.0;" x1="162" x2="222" y1="130.332" y2="130.332"/><text fill="#000000" font-family="Times" font-size="10" font-weight="bold" lengthAdjust="spacing" textLength="7" x="169" y="126.2227">2</text><text fill="#000000" font-family="Times" font-size="10" lengthAdjust="spacing" textLength="31" x="180" y="126.2227">create</text><rect fill="#E3E3E3" height="25.7773" rx="2.5" ry="2.5" style="stroke:#181818;stroke-width:0.5;" width="87" x="228" y="112.5547"/><text fill="#000000" font-family="Times" font-size="10" lengthAdjust="spacing" textLength="73" x="235" y="129.2227">:{NameOfUC}UI</text><polygon fill="#181818" points="330.5,163.1094,340.5,167.1094,330.5,171.1094,334.5,167.1094" style="stroke:#181818;stroke-width:1.0;"/><line style="stroke:#181818;stroke-width:1.0;stroke-dasharray:2.0,2.0;" x1="271.5" x2="336.5" y1="167.1094" y2="167.1094"/><text fill="#000000" font-family="Times" font-size="10" font-weight="bold" lengthAdjust="spacing" textLength="7" x="278.5" y="163">3</text><text fill="#000000" font-family="Times" font-size="10" lengthAdjust="spacing" textLength="31" x="289.5" y="163">create</text><rect fill="#E3E3E3" height="25.7773" rx="2.5" ry="2.5" style="stroke:#181818;stroke-width:0.5;" width="126" x="342.5" y="149.332"/><text fill="#000000" font-family="Times" font-size="10" lengthAdjust="spacing" textLength="112" x="349.5" y="166">:{NameOfUC}Controller</text><polygon fill="#181818" points="514,208.7754,524,212.7754,514,216.7754,518,212.7754" style="stroke:#181818;stroke-width:1.0;"/><line style="stroke:#181818;stroke-width:1.0;" x1="410.5" x2="520" y1="212.7754" y2="212.7754"/><text fill="#000000" font-family="Times" font-size="10" font-weight="bold" lengthAdjust="spacing" textLength="7" x="417.5" y="208.666">4</text><text fill="#000000" font-family="Times" font-size="10" lengthAdjust="spacing" textLength="63" x="428.5" y="208.666">getinstance()</text><path d="M541,191.1094 L541,224.1094 L652,224.1094 L652,201.1094 L642,191.1094 L541,191.1094 " fill="#FAFAFA" style="stroke:#181818;stroke-width:0.5;"/><path d="M642,191.1094 L642,201.1094 L652,201.1094 L642,191.1094 " fill="#FAFAFA" style="stroke:#181818;stroke-width:0.5;"/><text fill="#000000" font-family="Times" font-size="10" lengthAdjust="spacing" textLength="67" x="547" y="205.7773">static method</text><text fill="#000000" font-family="Times" font-size="10" lengthAdjust="spacing" textLength="90" x="547" y="217.5547">(Singleton pattern)</text><polygon fill="#181818" points="421.5,243.4414,411.5,247.4414,421.5,251.4414,417.5,247.4414" style="stroke:#181818;stroke-width:1.0;"/><line style="stroke:#181818;stroke-width:1.0;stroke-dasharray:2.0,2.0;" x1="415.5" x2="530" y1="247.4414" y2="247.4414"/><text fill="#000000" font-family="Times" font-size="10" font-weight="bold" lengthAdjust="spacing" textLength="7" x="427.5" y="243.332">5</text><text fill="#000000" font-family="Times" font-size="10" lengthAdjust="spacing" textLength="54" x="438.5" y="243.332">appSession</text><polygon fill="#181818" points="630.5,269.2188,640.5,273.2188,630.5,277.2188,634.5,273.2188" style="stroke:#181818;stroke-width:1.0;"/><line style="stroke:#181818;stroke-width:1.0;" x1="410.5" x2="636.5" y1="273.2188" y2="273.2188"/><text fill="#000000" font-family="Times" font-size="10" font-weight="bold" lengthAdjust="spacing" textLength="7" x="417.5" y="269.1094">6</text><text fill="#000000" font-family="Times" font-size="10" lengthAdjust="spacing" textLength="95" x="428.5" y="269.1094">getCurrentSession()</text><polygon fill="#181818" points="416.5,294.9961,406.5,298.9961,416.5,302.9961,412.5,298.9961" style="stroke:#181818;stroke-width:1.0;"/><line style="stroke:#181818;stroke-width:1.0;stroke-dasharray:2.0,2.0;" x1="410.5" x2="646.5" y1="298.9961" y2="298.9961"/><text fill="#000000" font-family="Times" font-size="10" font-weight="bold" lengthAdjust="spacing" textLength="7" x="422.5" y="294.8867">7</text><text fill="#000000" font-family="Times" font-size="10" lengthAdjust="spacing" textLength="71" x="433.5" y="294.8867">currentSession</text><polygon fill="#181818" points="254.5,320.7734,264.5,324.7734,254.5,328.7734,258.5,324.7734" style="stroke:#181818;stroke-width:1.0;"/><line style="stroke:#181818;stroke-width:1.0;" x1="162" x2="260.5" y1="324.7734" y2="324.7734"/><text fill="#000000" font-family="Times" font-size="10" font-weight="bold" lengthAdjust="spacing" textLength="7" x="169" y="320.6641">8</text><text fill="#000000" font-family="Times" font-size="10" lengthAdjust="spacing" textLength="22" x="180" y="320.6641">run()</text><polygon fill="#181818" points="50,376.5508,40,380.5508,50,384.5508,46,380.5508" style="stroke:#181818;stroke-width:1.0;"/><line style="stroke:#181818;stroke-width:1.0;stroke-dasharray:2.0,2.0;" x1="44" x2="270.5" y1="380.5508" y2="380.5508"/><text fill="#000000" font-family="Times" font-size="10" font-weight="bold" lengthAdjust="spacing" textLength="7" x="56" y="376.4414">9</text><text fill="#000000" font-family="Times" font-size="10" lengthAdjust="spacing" textLength="96" x="67" y="376.4414">requests something</text><path d="M10,420.5508 L77,420.5508 L77,424.3281 L67,434.3281 L10,434.3281 L10,420.5508 " fill="#EEEEEE" style="stroke:#000000;stroke-width:1.5;"/><rect fill="none" height="243.7734" style="stroke:#000000;stroke-width:1.5;" width="796.5" x="10" y="420.5508"/><text fill="#000000" font-family="Times" font-size="10" font-weight="bold" lengthAdjust="spacing" textLength="22" x="25" y="431.2188">loop</text><polygon fill="#181818" points="254.5,448.1055,264.5,452.1055,254.5,456.1055,258.5,452.1055" style="stroke:#181818;stroke-width:1.0;"/><line style="stroke:#181818;stroke-width:1.0;" x1="39" x2="260.5" y1="452.1055" y2="452.1055"/><text fill="#000000" font-family="Times" font-size="10" font-weight="bold" lengthAdjust="spacing" textLength="14" x="46" y="447.9961">10</text><text fill="#000000" font-family="Times" font-size="10" lengthAdjust="spacing" textLength="77" x="64" y="447.9961">does something</text><polygon fill="#181818" points="388.5,473.8828,398.5,477.8828,388.5,481.8828,392.5,477.8828" style="stroke:#181818;stroke-width:1.0;"/><line style="stroke:#181818;stroke-width:1.0;" x1="276.5" x2="394.5" y1="477.8828" y2="477.8828"/><text fill="#000000" font-family="Times" font-size="10" font-weight="bold" lengthAdjust="spacing" textLength="14" x="283.5" y="473.7734">11</text><text fill="#000000" font-family="Times" font-size="10" lengthAdjust="spacing" textLength="58" x="301.5" y="473.7734">methodX(...)</text><polygon fill="#181818" points="514,499.6602,524,503.6602,514,507.6602,518,503.6602" style="stroke:#181818;stroke-width:1.0;"/><line style="stroke:#181818;stroke-width:1.0;" x1="410.5" x2="520" y1="503.6602" y2="503.6602"/><text fill="#000000" font-family="Times" font-size="10" font-weight="bold" lengthAdjust="spacing" textLength="14" x="417.5" y="499.5508">12</text><text fill="#000000" font-family="Times" font-size="10" lengthAdjust="spacing" textLength="58" x="435.5" y="499.5508">methodY(...)</text><rect fill="none" height="45.332" style="stroke:#000000;stroke-width:1.5;" width="324" x="475.5" y="511.6602"/><path d="M475.5,511.6602 L535.5,511.6602 L535.5,514.6602 L525.5,524.6602 L475.5,524.6602 L475.5,511.6602 " fill="#EEEEEE" style="stroke:#000000;stroke-width:2.0;"/><text fill="#000000" font-family="Times" font-size="10" font-weight="bold" lengthAdjust="spacing" textLength="15" x="488.5" y="523.3281">ref</text><text fill="#000000" font-family="Times" font-size="10" lengthAdjust="spacing" textLength="3" x="636" y="538.3281"> </text><text fill="#000000" font-family="Times" font-size="10" lengthAdjust="spacing" textLength="3" x="636" y="550.1055"> </text><polygon fill="#181818" points="421.5,575.7695,411.5,579.7695,421.5,583.7695,417.5,579.7695" style="stroke:#181818;stroke-width:1.0;"/><line style="stroke:#181818;stroke-width:1.0;stroke-dasharray:2.0,2.0;" x1="415.5" x2="530" y1="579.7695" y2="579.7695"/><text fill="#000000" font-family="Times" font-size="10" font-weight="bold" lengthAdjust="spacing" textLength="14" x="427.5" y="575.6602">13</text><text fill="#000000" font-family="Times" font-size="10" lengthAdjust="spacing" textLength="35" x="445.5" y="575.6602">answer</text><polygon fill="#181818" points="287.5,601.5469,277.5,605.5469,287.5,609.5469,283.5,605.5469" style="stroke:#181818;stroke-width:1.0;"/><line style="stroke:#181818;stroke-width:1.0;stroke-dasharray:2.0,2.0;" x1="281.5" x2="404.5" y1="605.5469" y2="605.5469"/><text fill="#000000" font-family="Times" font-size="10" font-weight="bold" lengthAdjust="spacing" textLength="14" x="293.5" y="601.4375">14</text><text fill="#000000" font-family="Times" font-size="10" lengthAdjust="spacing" textLength="35" x="311.5" y="601.4375">answer</text><polygon fill="#181818" points="50,627.3242,40,631.3242,50,635.3242,46,631.3242" style="stroke:#181818;stroke-width:1.0;"/><line style="stroke:#181818;stroke-width:1.0;stroke-dasharray:2.0,2.0;" x1="44" x2="270.5" y1="631.3242" y2="631.3242"/><text fill="#000000" font-family="Times" font-size="10" font-weight="bold" lengthAdjust="spacing" textLength="14" x="56" y="627.2148">15</text><text fill="#000000" font-family="Times" font-size="10" lengthAdjust="spacing" textLength="156" x="74" y="627.2148">answers/requests another thing</text><!--SRC=[bLNBRjim4BphAmXVwWQ9qrvzA608BY0WTW8h0bAW5qPQMuGbKYMff0_ttxkaB9cKfJZbnGOvEzoTdQNKdl6AIbeM8jr3HZBOqhhGNmNNQre2UMGbg42DesBs6yZdJoS8AGKNQIu5HcjPWtDIqNHFTn3hNmKG2QccV5Uu09NJJBmolYDRMYW80bfhmUlo6MGGVCXP1cGhX7uMFmEQQY79954W9uGgaiJBJO0icgMieboJoVpF2dZzz3U9B62rN2TzW2dnVfk4BIO9rulLCeb6SI5MB4LH72yD7pTtFdPHLGLBgMQ2nw0K_bZWuk4XNiPnTByEVJojgYFkEvzV3EubbjPI0hQW8p1gk95XiZb61aOmza8rD4e519VvHsw-M6d8d2Wei2UAK4v4PPAme2xE2aYEouRSO6mhsTKLCgGI4Dc1JbUskdP7zlhZhkKnKWvnPF06ItTa6-5ocmrJcYCySkz0CwxGTYbCFtfuBf15ibsklMsp48-Ian9qBhApqsdCZ8dHfcXlhK5odnXuPiczpIvlrnTzPZVrLY6iuUGOueKuGhci5rI96bL2pqazRGPuepUoZTniVOjUJZWQQhpjRizw9-VXBR9sSputJ8_FEddSYdOia1H-rA1m7fGmlSSsUo67m-6oIGiXgWxLZfkJU2PWY7-uWlDaEvaRSpvDPxFPIE_E9cHyIXgoR-TaxxQkMHAsHBo0T87NJgEltSTfaC6C3h8CdeqD1rUl-Ateezyp6oSz_1ODK8vQSynA3OUwxIn5yKd8KPl_jrKhZ7LMu2BCi_uF]--></g></svg>