<svg xmlns="http://www.w3.org/2000/svg" xmlns:xlink="http://www.w3.org/1999/xlink" contentStyleType="text/css" height="596px" preserveAspectRatio="none" style="width:840px;height:596px;background:#FFFFFF;" version="1.1" viewBox="0 0 840 596" width="840px" zoomAndPan="magnify"><title>System Sequence Diagram (SSD) - Add Video of Simulation to Proposal</title><defs/><g><text fill="#000000" font-family="sans-serif" font-size="14" font-weight="bold" lengthAdjust="spacing" textLength="486.6941" x="183.9732" y="29.9659">System Sequence Diagram (SSD) - Add Video of Simulation to Proposal</text><rect fill="#FFFFFF" height="361.0602" style="stroke:#181818;stroke-width:1.0;" width="10" x="61.1558" y="134.1358"/><rect fill="#FFFFFF" height="31.706" style="stroke:#181818;stroke-width:1.0;" width="10" x="378.7131" y="157.8419"/><rect fill="#FFFFFF" height="31.706" style="stroke:#181818;stroke-width:1.0;" width="10" x="378.7131" y="221.2539"/><rect fill="#FFFFFF" height="210.5301" style="stroke:#181818;stroke-width:1.0;" width="10" x="378.7131" y="284.6659"/><line style="stroke:#181818;stroke-width:0.5;stroke-dasharray:5.0,5.0;" x1="66" x2="66" y1="124.1358" y2="513.196"/><line style="stroke:#181818;stroke-width:0.5;stroke-dasharray:5.0,5.0;" x1="383.0512" x2="383.0512" y1="124.1358" y2="513.196"/><text fill="#000000" font-family="sans-serif" font-size="14" lengthAdjust="spacing" textLength="116.3116" x="5" y="120.0339">CRM Collaborator</text><ellipse cx="66.1558" cy="53.5679" fill="#E3E3E3" rx="8" ry="8" style="stroke:#181818;stroke-width:0.5;"/><path d="M66.1558,61.5679 L66.1558,88.5679 M53.1558,69.5679 L79.1558,69.5679 M66.1558,88.5679 L53.1558,103.5679 M66.1558,88.5679 L79.1558,103.5679 " fill="none" style="stroke:#181818;stroke-width:0.5;"/><text fill="#000000" font-family="sans-serif" font-size="14" lengthAdjust="spacing" textLength="116.3116" x="5" y="527.1619">CRM Collaborator</text><ellipse cx="66.1558" cy="539.7639" fill="#E3E3E3" rx="8" ry="8" style="stroke:#181818;stroke-width:0.5;"/><path d="M66.1558,547.7639 L66.1558,574.7639 M53.1558,555.7639 L79.1558,555.7639 M66.1558,574.7639 L53.1558,589.7639 M66.1558,574.7639 L79.1558,589.7639 " fill="none" style="stroke:#181818;stroke-width:0.5;"/><rect fill="#E3E3E3" height="33.0679" rx="2.5" ry="2.5" style="stroke:#181818;stroke-width:0.5;" width="65.3238" x="351.0512" y="90.0679"/><text fill="#000000" font-family="sans-serif" font-size="14" lengthAdjust="spacing" textLength="51.3238" x="358.0512" y="112.0339">:System</text><rect fill="#E3E3E3" height="33.0679" rx="2.5" ry="2.5" style="stroke:#181818;stroke-width:0.5;" width="65.3238" x="351.0512" y="512.196"/><text fill="#000000" font-family="sans-serif" font-size="14" lengthAdjust="spacing" textLength="51.3238" x="358.0512" y="534.1619">:System</text><rect fill="#FFFFFF" height="361.0602" style="stroke:#181818;stroke-width:1.0;" width="10" x="61.1558" y="134.1358"/><rect fill="#FFFFFF" height="31.706" style="stroke:#181818;stroke-width:1.0;" width="10" x="378.7131" y="157.8419"/><rect fill="#FFFFFF" height="31.706" style="stroke:#181818;stroke-width:1.0;" width="10" x="378.7131" y="221.2539"/><rect fill="#FFFFFF" height="210.5301" style="stroke:#181818;stroke-width:1.0;" width="10" x="378.7131" y="284.6659"/><polygon fill="#181818" points="366.7131,153.8419,376.7131,157.8419,366.7131,161.8419,370.7131,157.8419" style="stroke:#181818;stroke-width:1.0;"/><line style="stroke:#181818;stroke-width:1.0;" x1="71.1558" x2="372.7131" y1="157.8419" y2="157.8419"/><text fill="#000000" font-family="sans-serif" font-size="13" font-weight="bold" lengthAdjust="spacing" textLength="7.436" x="78.1558" y="152.0328">1</text><text fill="#000000" font-family="sans-serif" font-size="13" lengthAdjust="spacing" textLength="38.4021" x="89.5918" y="152.0328">login()</text><polygon fill="#181818" points="82.1558,185.5479,72.1558,189.5479,82.1558,193.5479,78.1558,189.5479" style="stroke:#181818;stroke-width:1.0;"/><line style="stroke:#181818;stroke-width:1.0;stroke-dasharray:2.0,2.0;" x1="76.1558" x2="382.7131" y1="189.5479" y2="189.5479"/><text fill="#000000" font-family="sans-serif" font-size="13" font-weight="bold" lengthAdjust="spacing" textLength="7.436" x="88.1558" y="183.7389">2</text><text fill="#000000" font-family="sans-serif" font-size="13" lengthAdjust="spacing" textLength="85.0201" x="99.5918" y="183.7389">authenticated</text><polygon fill="#181818" points="366.7131,217.2539,376.7131,221.2539,366.7131,225.2539,370.7131,221.2539" style="stroke:#181818;stroke-width:1.0;"/><line style="stroke:#181818;stroke-width:1.0;" x1="71.1558" x2="372.7131" y1="221.2539" y2="221.2539"/><text fill="#000000" font-family="sans-serif" font-size="13" font-weight="bold" lengthAdjust="spacing" textLength="7.436" x="78.1558" y="215.4449">3</text><text fill="#000000" font-family="sans-serif" font-size="13" lengthAdjust="spacing" textLength="159.2241" x="89.5918" y="215.4449">openProposal(proposalId)</text><polygon fill="#181818" points="82.1558,248.9599,72.1558,252.9599,82.1558,256.9599,78.1558,252.9599" style="stroke:#181818;stroke-width:1.0;"/><line style="stroke:#181818;stroke-width:1.0;stroke-dasharray:2.0,2.0;" x1="76.1558" x2="382.7131" y1="252.9599" y2="252.9599"/><text fill="#000000" font-family="sans-serif" font-size="13" font-weight="bold" lengthAdjust="spacing" textLength="7.436" x="88.1558" y="247.1509">4</text><text fill="#000000" font-family="sans-serif" font-size="13" lengthAdjust="spacing" textLength="198.5752" x="99.5918" y="247.1509">proposal data (status, metadata)</text><polygon fill="#181818" points="366.7131,280.6659,376.7131,284.6659,366.7131,288.6659,370.7131,284.6659" style="stroke:#181818;stroke-width:1.0;"/><line style="stroke:#181818;stroke-width:1.0;" x1="71.1558" x2="372.7131" y1="284.6659" y2="284.6659"/><text fill="#000000" font-family="sans-serif" font-size="13" font-weight="bold" lengthAdjust="spacing" textLength="7.436" x="78.1558" y="278.8569">5</text><text fill="#000000" font-family="sans-serif" font-size="13" lengthAdjust="spacing" textLength="277.1213" x="89.5918" y="278.8569">uploadSimulationVideo(proposalId, videoFile)</text><line style="stroke:#181818;stroke-width:1.0;" x1="388.7131" x2="430.7131" y1="316.3719" y2="316.3719"/><line style="stroke:#181818;stroke-width:1.0;" x1="430.7131" x2="430.7131" y1="316.3719" y2="329.3719"/><line style="stroke:#181818;stroke-width:1.0;" x1="389.7131" x2="430.7131" y1="329.3719" y2="329.3719"/><polygon fill="#181818" points="399.7131,325.3719,389.7131,329.3719,399.7131,333.3719,395.7131,329.3719" style="stroke:#181818;stroke-width:1.0;"/><text fill="#000000" font-family="sans-serif" font-size="13" font-weight="bold" lengthAdjust="spacing" textLength="7.436" x="395.7131" y="310.5629">6</text><text fill="#000000" font-family="sans-serif" font-size="13" lengthAdjust="spacing" textLength="235.7942" x="407.1491" y="310.5629">validateProposalIsEditable(proposalId)</text><line style="stroke:#181818;stroke-width:1.0;" x1="388.7131" x2="430.7131" y1="361.0779" y2="361.0779"/><line style="stroke:#181818;stroke-width:1.0;" x1="430.7131" x2="430.7131" y1="361.0779" y2="374.0779"/><line style="stroke:#181818;stroke-width:1.0;" x1="389.7131" x2="430.7131" y1="374.0779" y2="374.0779"/><polygon fill="#181818" points="399.7131,370.0779,389.7131,374.0779,399.7131,378.0779,395.7131,374.0779" style="stroke:#181818;stroke-width:1.0;"/><text fill="#000000" font-family="sans-serif" font-size="13" font-weight="bold" lengthAdjust="spacing" textLength="7.436" x="395.7131" y="355.2689">7</text><text fill="#000000" font-family="sans-serif" font-size="13" lengthAdjust="spacing" textLength="201.3962" x="407.1491" y="355.2689">uploadVideoToStorage(videoFile)</text><line style="stroke:#181818;stroke-width:1.0;" x1="388.7131" x2="430.7131" y1="405.784" y2="405.784"/><line style="stroke:#181818;stroke-width:1.0;" x1="430.7131" x2="430.7131" y1="405.784" y2="418.784"/><line style="stroke:#181818;stroke-width:1.0;" x1="389.7131" x2="430.7131" y1="418.784" y2="418.784"/><polygon fill="#181818" points="399.7131,414.784,389.7131,418.784,399.7131,422.784,395.7131,418.784" style="stroke:#181818;stroke-width:1.0;"/><text fill="#000000" font-family="sans-serif" font-size="13" font-weight="bold" lengthAdjust="spacing" textLength="7.436" x="395.7131" y="399.975">8</text><text fill="#000000" font-family="sans-serif" font-size="13" lengthAdjust="spacing" textLength="115.7521" x="407.1491" y="399.975">generateVideoUrl()</text><line style="stroke:#181818;stroke-width:1.0;" x1="388.7131" x2="430.7131" y1="450.49" y2="450.49"/><line style="stroke:#181818;stroke-width:1.0;" x1="430.7131" x2="430.7131" y1="450.49" y2="463.49"/><line style="stroke:#181818;stroke-width:1.0;" x1="389.7131" x2="430.7131" y1="463.49" y2="463.49"/><polygon fill="#181818" points="399.7131,459.49,389.7131,463.49,399.7131,467.49,395.7131,463.49" style="stroke:#181818;stroke-width:1.0;"/><text fill="#000000" font-family="sans-serif" font-size="13" font-weight="bold" lengthAdjust="spacing" textLength="7.436" x="395.7131" y="444.681">9</text><text fill="#000000" font-family="sans-serif" font-size="13" lengthAdjust="spacing" textLength="426.4914" x="407.1491" y="444.681">attachVideoToProposal(proposalId, videoUrl, uploadedBy, timestamp)</text><polygon fill="#181818" points="77.1558,491.196,67.1558,495.196,77.1558,499.196,73.1558,495.196" style="stroke:#181818;stroke-width:1.0;"/><line style="stroke:#181818;stroke-width:1.0;stroke-dasharray:2.0,2.0;" x1="71.1558" x2="382.7131" y1="495.196" y2="495.196"/><text fill="#000000" font-family="sans-serif" font-size="13" font-weight="bold" lengthAdjust="spacing" textLength="14.872" x="83.1558" y="489.387">10</text><text fill="#000000" font-family="sans-serif" font-size="13" lengthAdjust="spacing" textLength="144.3001" x="102.0278" y="489.387">confirmation + videoUrl</text><!--SRC=[bL9DJyCm3BttLrWxTMBx0piWmG290nAYmDrhl2uYYKlY3ktVusRTXw0WoCbwViz-jfFUR6WneWVFWUjDP4yWiQCY7JCjrc_OK2KxHn2f5WoDEoUa3Hh-iA61DRf4HI5Mb5hjaf27Yjux2ZN1ZSMcfvTLTJE5ELmP0w_M40EleRA-SoYM0mZ3O-IM4xgYm4uuT7v5KUDQEC9a-VG0ItOELnnHaGbW0WKBTIEsjYq6WSbYtpudzs4kOBSebDa5wEjhpIy7mW8SDpQKqvmwaWTrZmqZpLMYoWMekmq5RQeyanc6lkh6-d1BuJ1ZsGx1lVbxuuC630f2cGIbIpFm9DWZqtzuwLh7Q4xxpoSvCpM3RO_SMKVZ_Z9uRl9KUulEgXywp7gVReqLN3dwDlLuWRsvREcPApssViJoYvznPKE1z7jGrhv4L_v6HX6iDqERaSCCEz0oiy4IcUlT3CHwqjtxTbgCdgdciBRHx__rnR78JzSvWrJ-2G00]--></g></svg>