<svg xmlns="http://www.w3.org/2000/svg" xmlns:xlink="http://www.w3.org/1999/xlink" contentStyleType="text/css" height="1000px" preserveAspectRatio="none" style="width:547px;height:1000px;background:#FFFFFF;" version="1.1" viewBox="0 0 547 1000" width="547px" zoomAndPan="magnify"><title>System Sequence Diagram (SSD) - Add Video of Simulation to Proposal</title><defs/><g><text fill="#000000" font-family="sans-serif" font-size="14" font-weight="bold" lengthAdjust="spacing" textLength="476.8545" x="42.2649" y="30.1074">System Sequence Diagram (SSD) - Add Video of Simulation to Proposal</text><rect fill="#FFFFFF" height="774.4512" style="stroke:#181818;stroke-width:1.0;" width="10" x="74.0171" y="133.2422"/><rect fill="#FFFFFF" height="31.291" style="stroke:#181818;stroke-width:1.0;" width="10" x="294.6519" y="156.5332"/><rect fill="#FFFFFF" height="31.291" style="stroke:#181818;stroke-width:1.0;" width="10" x="294.6519" y="219.1152"/><rect fill="#FFFFFF" height="341.3281" style="stroke:#181818;stroke-width:1.0;" width="10" x="294.6519" y="281.6973"/><rect fill="#FFFFFF" height="253.377" style="stroke:#181818;stroke-width:1.0;" width="10" x="294.6519" y="654.3164"/><rect fill="none" height="98.5039" style="stroke:#000000;stroke-width:1.5;" width="331.9346" x="10" y="802.1895"/><line style="stroke:#181818;stroke-width:0.5;stroke-dasharray:5.0,5.0;" x1="79" x2="79" y1="123.2422" y2="917.6934"/><line style="stroke:#181818;stroke-width:0.5;stroke-dasharray:5.0,5.0;" x1="299.3691" x2="299.3691" y1="123.2422" y2="917.6934"/><text fill="#000000" font-family="sans-serif" font-size="14" lengthAdjust="spacing" textLength="112.0342" x="20" y="119.7285">CRM Collaborator</text><ellipse cx="79.0171" cy="53.1211" fill="#E3E3E3" rx="8" ry="8" style="stroke:#181818;stroke-width:0.5;"/><path d="M79.0171,61.1211 L79.0171,88.1211 M66.0171,69.1211 L92.0171,69.1211 M79.0171,88.1211 L66.0171,103.1211 M79.0171,88.1211 L92.0171,103.1211 " fill="none" style="stroke:#181818;stroke-width:0.5;"/><text fill="#000000" font-family="sans-serif" font-size="14" lengthAdjust="spacing" textLength="112.0342" x="20" y="931.8008">CRM Collaborator</text><ellipse cx="79.0171" cy="943.8145" fill="#E3E3E3" rx="8" ry="8" style="stroke:#181818;stroke-width:0.5;"/><path d="M79.0171,951.8145 L79.0171,978.8145 M66.0171,959.8145 L92.0171,959.8145 M79.0171,978.8145 L66.0171,993.8145 M79.0171,978.8145 L92.0171,993.8145 " fill="none" style="stroke:#181818;stroke-width:0.5;"/><rect fill="#E3E3E3" height="32.6211" rx="2.5" ry="2.5" style="stroke:#181818;stroke-width:0.5;" width="64.5654" x="267.3691" y="89.6211"/><text fill="#000000" font-family="sans-serif" font-size="14" lengthAdjust="spacing" textLength="50.5654" x="274.3691" y="111.7285">:System</text><rect fill="#E3E3E3" height="32.6211" rx="2.5" ry="2.5" style="stroke:#181818;stroke-width:0.5;" width="64.5654" x="267.3691" y="916.6934"/><text fill="#000000" font-family="sans-serif" font-size="14" lengthAdjust="spacing" textLength="50.5654" x="274.3691" y="938.8008">:System</text><rect fill="#FFFFFF" height="774.4512" style="stroke:#181818;stroke-width:1.0;" width="10" x="74.0171" y="133.2422"/><rect fill="#FFFFFF" height="31.291" style="stroke:#181818;stroke-width:1.0;" width="10" x="294.6519" y="156.5332"/><rect fill="#FFFFFF" height="31.291" style="stroke:#181818;stroke-width:1.0;" width="10" x="294.6519" y="219.1152"/><rect fill="#FFFFFF" height="341.3281" style="stroke:#181818;stroke-width:1.0;" width="10" x="294.6519" y="281.6973"/><rect fill="#FFFFFF" height="253.377" style="stroke:#181818;stroke-width:1.0;" width="10" x="294.6519" y="654.3164"/><polygon fill="#181818" points="282.6519,152.5332,292.6519,156.5332,282.6519,160.5332,286.6519,156.5332" style="stroke:#181818;stroke-width:1.0;"/><line style="stroke:#181818;stroke-width:1.0;" x1="84.0171" x2="288.6519" y1="156.5332" y2="156.5332"/><text fill="#000000" font-family="sans-serif" font-size="13" font-weight="bold" lengthAdjust="spacing" textLength="7.23" x="91.0171" y="151.2705">1</text><text fill="#000000" font-family="sans-serif" font-size="13" lengthAdjust="spacing" textLength="36.1245" x="102.2471" y="151.2705">login()</text><polygon fill="#181818" points="95.0171,183.8242,85.0171,187.8242,95.0171,191.8242,91.0171,187.8242" style="stroke:#181818;stroke-width:1.0;"/><line style="stroke:#181818;stroke-width:1.0;stroke-dasharray:2.0,2.0;" x1="89.0171" x2="298.6519" y1="187.8242" y2="187.8242"/><text fill="#000000" font-family="sans-serif" font-size="13" font-weight="bold" lengthAdjust="spacing" textLength="7.23" x="101.0171" y="182.5615">2</text><text fill="#000000" font-family="sans-serif" font-size="13" lengthAdjust="spacing" textLength="78.0635" x="112.2471" y="182.5615">authenticated</text><polygon fill="#181818" points="282.6519,215.1152,292.6519,219.1152,282.6519,223.1152,286.6519,219.1152" style="stroke:#181818;stroke-width:1.0;"/><line style="stroke:#181818;stroke-width:1.0;" x1="84.0171" x2="288.6519" y1="219.1152" y2="219.1152"/><text fill="#000000" font-family="sans-serif" font-size="13" font-weight="bold" lengthAdjust="spacing" textLength="7.23" x="91.0171" y="213.8525">3</text><text fill="#000000" font-family="sans-serif" font-size="13" lengthAdjust="spacing" textLength="116.3462" x="102.2471" y="213.8525">launchAddVideoUI()</text><polygon fill="#181818" points="95.0171,246.4063,85.0171,250.4063,95.0171,254.4063,91.0171,250.4063" style="stroke:#181818;stroke-width:1.0;"/><line style="stroke:#181818;stroke-width:1.0;" x1="89.0171" x2="298.6519" y1="250.4063" y2="250.4063"/><text fill="#000000" font-family="sans-serif" font-size="13" font-weight="bold" lengthAdjust="spacing" textLength="7.23" x="101.0171" y="245.1436">4</text><text fill="#000000" font-family="sans-serif" font-size="13" lengthAdjust="spacing" textLength="134.4116" x="112.2471" y="245.1436">request video file name</text><polygon fill="#181818" points="282.6519,277.6973,292.6519,281.6973,282.6519,285.6973,286.6519,281.6973" style="stroke:#181818;stroke-width:1.0;"/><line style="stroke:#181818;stroke-width:1.0;" x1="84.0171" x2="288.6519" y1="281.6973" y2="281.6973"/><text fill="#000000" font-family="sans-serif" font-size="13" font-weight="bold" lengthAdjust="spacing" textLength="7.23" x="91.0171" y="276.4346">5</text><text fill="#000000" font-family="sans-serif" font-size="13" lengthAdjust="spacing" textLength="159.6816" x="102.2471" y="276.4346">enterVideoFileName(name)</text><line style="stroke:#181818;stroke-width:1.0;" x1="304.6519" x2="346.6519" y1="312.9883" y2="312.9883"/><line style="stroke:#181818;stroke-width:1.0;" x1="346.6519" x2="346.6519" y1="312.9883" y2="325.9883"/><line style="stroke:#181818;stroke-width:1.0;" x1="305.6519" x2="346.6519" y1="325.9883" y2="325.9883"/><polygon fill="#181818" points="315.6519,321.9883,305.6519,325.9883,315.6519,329.9883,311.6519,325.9883" style="stroke:#181818;stroke-width:1.0;"/><text fill="#000000" font-family="sans-serif" font-size="13" font-weight="bold" lengthAdjust="spacing" textLength="7.23" x="311.6519" y="307.7256">6</text><text fill="#000000" font-family="sans-serif" font-size="13" lengthAdjust="spacing" textLength="217.5024" x="322.8818" y="307.7256">launch Drone3DSimulation with name</text><line style="stroke:#181818;stroke-width:1.0;" x1="304.6519" x2="346.6519" y1="357.2793" y2="357.2793"/><line style="stroke:#181818;stroke-width:1.0;" x1="346.6519" x2="346.6519" y1="357.2793" y2="370.2793"/><line style="stroke:#181818;stroke-width:1.0;" x1="305.6519" x2="346.6519" y1="370.2793" y2="370.2793"/><polygon fill="#181818" points="315.6519,366.2793,305.6519,370.2793,315.6519,374.2793,311.6519,370.2793" style="stroke:#181818;stroke-width:1.0;"/><text fill="#000000" font-family="sans-serif" font-size="13" font-weight="bold" lengthAdjust="spacing" textLength="7.23" x="311.6519" y="352.0166">7</text><text fill="#000000" font-family="sans-serif" font-size="13" lengthAdjust="spacing" textLength="152.4517" x="322.8818" y="352.0166">wait for simulation to finish</text><line style="stroke:#181818;stroke-width:1.0;" x1="304.6519" x2="346.6519" y1="401.5703" y2="401.5703"/><line style="stroke:#181818;stroke-width:1.0;" x1="346.6519" x2="346.6519" y1="401.5703" y2="414.5703"/><line style="stroke:#181818;stroke-width:1.0;" x1="305.6519" x2="346.6519" y1="414.5703" y2="414.5703"/><polygon fill="#181818" points="315.6519,410.5703,305.6519,414.5703,315.6519,418.5703,311.6519,414.5703" style="stroke:#181818;stroke-width:1.0;"/><text fill="#000000" font-family="sans-serif" font-size="13" font-weight="bold" lengthAdjust="spacing" textLength="7.23" x="311.6519" y="396.3076">8</text><text fill="#000000" font-family="sans-serif" font-size="13" lengthAdjust="spacing" textLength="135.8335" x="322.8818" y="396.3076">check if video file exists</text><line style="stroke:#181818;stroke-width:1.0;" x1="304.6519" x2="346.6519" y1="445.8613" y2="445.8613"/><line style="stroke:#181818;stroke-width:1.0;" x1="346.6519" x2="346.6519" y1="445.8613" y2="458.8613"/><line style="stroke:#181818;stroke-width:1.0;" x1="305.6519" x2="346.6519" y1="458.8613" y2="458.8613"/><polygon fill="#181818" points="315.6519,454.8613,305.6519,458.8613,315.6519,462.8613,311.6519,458.8613" style="stroke:#181818;stroke-width:1.0;"/><text fill="#000000" font-family="sans-serif" font-size="13" font-weight="bold" lengthAdjust="spacing" textLength="7.23" x="311.6519" y="440.5986">9</text><text fill="#000000" font-family="sans-serif" font-size="13" lengthAdjust="spacing" textLength="171.2471" x="322.8818" y="440.5986">read .mov video as byte array</text><line style="stroke:#181818;stroke-width:1.0;" x1="304.6519" x2="346.6519" y1="490.1523" y2="490.1523"/><line style="stroke:#181818;stroke-width:1.0;" x1="346.6519" x2="346.6519" y1="490.1523" y2="503.1523"/><line style="stroke:#181818;stroke-width:1.0;" x1="305.6519" x2="346.6519" y1="503.1523" y2="503.1523"/><polygon fill="#181818" points="315.6519,499.1523,305.6519,503.1523,315.6519,507.1523,311.6519,503.1523" style="stroke:#181818;stroke-width:1.0;"/><text fill="#000000" font-family="sans-serif" font-size="13" font-weight="bold" lengthAdjust="spacing" textLength="14.46" x="311.6519" y="484.8896">10</text><text fill="#000000" font-family="sans-serif" font-size="13" lengthAdjust="spacing" textLength="111.2935" x="330.1118" y="484.8896">create Video object</text><line style="stroke:#181818;stroke-width:1.0;" x1="304.6519" x2="346.6519" y1="534.4434" y2="534.4434"/><line style="stroke:#181818;stroke-width:1.0;" x1="346.6519" x2="346.6519" y1="534.4434" y2="547.4434"/><line style="stroke:#181818;stroke-width:1.0;" x1="305.6519" x2="346.6519" y1="547.4434" y2="547.4434"/><polygon fill="#181818" points="315.6519,543.4434,305.6519,547.4434,315.6519,551.4434,311.6519,547.4434" style="stroke:#181818;stroke-width:1.0;"/><text fill="#000000" font-family="sans-serif" font-size="13" font-weight="bold" lengthAdjust="spacing" textLength="14.46" x="311.6519" y="529.1807">11</text><text fill="#000000" font-family="sans-serif" font-size="13" lengthAdjust="spacing" textLength="143.7681" x="330.1118" y="529.1807">start local preview server</text><line style="stroke:#181818;stroke-width:1.0;" x1="304.6519" x2="346.6519" y1="578.7344" y2="578.7344"/><line style="stroke:#181818;stroke-width:1.0;" x1="346.6519" x2="346.6519" y1="578.7344" y2="591.7344"/><line style="stroke:#181818;stroke-width:1.0;" x1="305.6519" x2="346.6519" y1="591.7344" y2="591.7344"/><polygon fill="#181818" points="315.6519,587.7344,305.6519,591.7344,315.6519,595.7344,311.6519,591.7344" style="stroke:#181818;stroke-width:1.0;"/><text fill="#000000" font-family="sans-serif" font-size="13" font-weight="bold" lengthAdjust="spacing" textLength="14.46" x="311.6519" y="573.4717">12</text><text fill="#000000" font-family="sans-serif" font-size="13" lengthAdjust="spacing" textLength="168.3525" x="330.1118" y="573.4717">get proposals from repository</text><polygon fill="#181818" points="95.0171,619.0254,85.0171,623.0254,95.0171,627.0254,91.0171,623.0254" style="stroke:#181818;stroke-width:1.0;"/><line style="stroke:#181818;stroke-width:1.0;" x1="89.0171" x2="298.6519" y1="623.0254" y2="623.0254"/><text fill="#000000" font-family="sans-serif" font-size="13" font-weight="bold" lengthAdjust="spacing" textLength="14.46" x="101.0171" y="617.7627">13</text><text fill="#000000" font-family="sans-serif" font-size="13" lengthAdjust="spacing" textLength="151.7598" x="119.4771" y="617.7627">request proposal selection</text><polygon fill="#181818" points="282.6519,650.3164,292.6519,654.3164,282.6519,658.3164,286.6519,654.3164" style="stroke:#181818;stroke-width:1.0;"/><line style="stroke:#181818;stroke-width:1.0;" x1="84.0171" x2="288.6519" y1="654.3164" y2="654.3164"/><text fill="#000000" font-family="sans-serif" font-size="13" font-weight="bold" lengthAdjust="spacing" textLength="14.46" x="91.0171" y="649.0537">14</text><text fill="#000000" font-family="sans-serif" font-size="13" lengthAdjust="spacing" textLength="87.439" x="109.4771" y="649.0537">select proposal</text><line style="stroke:#181818;stroke-width:1.0;" x1="304.6519" x2="346.6519" y1="685.6074" y2="685.6074"/><line style="stroke:#181818;stroke-width:1.0;" x1="346.6519" x2="346.6519" y1="685.6074" y2="698.6074"/><line style="stroke:#181818;stroke-width:1.0;" x1="305.6519" x2="346.6519" y1="698.6074" y2="698.6074"/><polygon fill="#181818" points="315.6519,694.6074,305.6519,698.6074,315.6519,702.6074,311.6519,698.6074" style="stroke:#181818;stroke-width:1.0;"/><text fill="#000000" font-family="sans-serif" font-size="13" font-weight="bold" lengthAdjust="spacing" textLength="14.46" x="311.6519" y="680.3447">15</text><text fill="#000000" font-family="sans-serif" font-size="13" lengthAdjust="spacing" textLength="175.6143" x="330.1118" y="680.3447">get selected proposal by index</text><line style="stroke:#181818;stroke-width:1.0;" x1="304.6519" x2="346.6519" y1="729.8984" y2="729.8984"/><line style="stroke:#181818;stroke-width:1.0;" x1="346.6519" x2="346.6519" y1="729.8984" y2="742.8984"/><line style="stroke:#181818;stroke-width:1.0;" x1="305.6519" x2="346.6519" y1="742.8984" y2="742.8984"/><polygon fill="#181818" points="315.6519,738.8984,305.6519,742.8984,315.6519,746.8984,311.6519,742.8984" style="stroke:#181818;stroke-width:1.0;"/><text fill="#000000" font-family="sans-serif" font-size="13" font-weight="bold" lengthAdjust="spacing" textLength="14.46" x="311.6519" y="724.6357">16</text><text fill="#000000" font-family="sans-serif" font-size="13" lengthAdjust="spacing" textLength="138.0361" x="330.1118" y="724.6357">attach video to proposal</text><line style="stroke:#181818;stroke-width:1.0;" x1="304.6519" x2="346.6519" y1="774.1895" y2="774.1895"/><line style="stroke:#181818;stroke-width:1.0;" x1="346.6519" x2="346.6519" y1="774.1895" y2="787.1895"/><line style="stroke:#181818;stroke-width:1.0;" x1="305.6519" x2="346.6519" y1="787.1895" y2="787.1895"/><polygon fill="#181818" points="315.6519,783.1895,305.6519,787.1895,315.6519,791.1895,311.6519,787.1895" style="stroke:#181818;stroke-width:1.0;"/><text fill="#000000" font-family="sans-serif" font-size="13" font-weight="bold" lengthAdjust="spacing" textLength="14.46" x="311.6519" y="768.9268">17</text><text fill="#000000" font-family="sans-serif" font-size="13" lengthAdjust="spacing" textLength="206.686" x="330.1118" y="768.9268">save updated proposal to repository</text><path d="M10,802.1895 L70.1709,802.1895 L70.1709,811.4805 L60.1709,821.4805 L10,821.4805 L10,802.1895 " fill="#EEEEEE" style="stroke:#000000;stroke-width:1.5;"/><rect fill="none" height="98.5039" style="stroke:#000000;stroke-width:1.5;" width="331.9346" x="10" y="802.1895"/><text fill="#000000" font-family="sans-serif" font-size="13" font-weight="bold" lengthAdjust="spacing" textLength="15.1709" x="25" y="817.2178">alt</text><text fill="#000000" font-family="sans-serif" font-size="11" font-weight="bold" lengthAdjust="spacing" textLength="157.1152" x="85.1709" y="816.0596">[proposal saved successfully]</text><polygon fill="#181818" points="95.0171,840.7715,85.0171,844.7715,95.0171,848.7715,91.0171,844.7715" style="stroke:#181818;stroke-width:1.0;"/><line style="stroke:#181818;stroke-width:1.0;stroke-dasharray:2.0,2.0;" x1="89.0171" x2="293.6519" y1="844.7715" y2="844.7715"/><text fill="#000000" font-family="sans-serif" font-size="13" font-weight="bold" lengthAdjust="spacing" textLength="14.46" x="101.0171" y="839.5088">18</text><text fill="#000000" font-family="sans-serif" font-size="13" lengthAdjust="spacing" textLength="168.1621" x="119.4771" y="839.5088">&#10004;&#65039; Video added successfully</text><line style="stroke:#000000;stroke-width:1.0;stroke-dasharray:2.0,2.0;" x1="10" x2="341.9346" y1="853.7715" y2="853.7715"/><text fill="#000000" font-family="sans-serif" font-size="11" font-weight="bold" lengthAdjust="spacing" textLength="63.583" x="15" y="865.6416">[save failed]</text><polygon fill="#181818" points="95.0171,888.6934,85.0171,892.6934,95.0171,896.6934,91.0171,892.6934" style="stroke:#181818;stroke-width:1.0;"/><line style="stroke:#181818;stroke-width:1.0;stroke-dasharray:2.0,2.0;" x1="89.0171" x2="293.6519" y1="892.6934" y2="892.6934"/><text fill="#000000" font-family="sans-serif" font-size="13" font-weight="bold" lengthAdjust="spacing" textLength="14.46" x="101.0171" y="887.4307">19</text><text fill="#000000" font-family="sans-serif" font-size="13" lengthAdjust="spacing" textLength="168.1748" x="119.4771" y="887.4307">&#10060; Failed to update proposal</text><!--SRC=[ZLHBZjD04DttAKgpoYp2XbqMI6YYaLY041RiAzrbkqYxstItdV4TaDYmX7jm7Yx05IX_I9p4ZEALtVLUlQfwrOvxTZK6hA3opkio-8eWXOPKF4Pgr7iiA4kT9GYa4xh2pW6nHECFx0h8qKPIAd4IQDR5H1LazAKXfmcsZ4KFNsNPzXxMyDeO-CI6FFWSCguQYuczW-JXVV2rZsYLmYPvrrGx2lAkamzmz_3XBJnuQt7d0yh97M04ELHIJMBDDRe4TvjHVWYEhqC2RZ7HW5PzdlMhARW1wmjsg_iJQ69DRQm5AemDI4KbEH4IZ566Bl5NUR5nkfHcXru_ldb6Ob88_SHYWdOOJiuoIuSLtQ0bTL4OT1w5zKv8gvxvdE9vcR0Dtj7BxSoE0wTorByc7P0Jv69AFBClPyUnNC3halGUE9-tHaySKrGBw41eu4NbsmakJkuwwG53m6ufkn0aFEtKxhEiwW8g9baJSLkZXJfGotI0IA6L3Ri65vG4D2vZX5okXrGbNonxr_tFjty4IMkb1XdA3TQDs2DNtM1PNzn88tCItNN0pj3J0W5JGl5udARuT1HRc1As14rjy2otS6RjAxJpPeLX83PQKunvOssdG9xBw_Fxn_S_lxvD9g4nbnoIFyYedgEiXrbEylChF0xXlgInp5Ctv8nQcFZifB__Vm40]--></g></svg>