<svg xmlns="http://www.w3.org/2000/svg" xmlns:xlink="http://www.w3.org/1999/xlink" contentStyleType="text/css" height="1467px" preserveAspectRatio="none" style="width:945px;height:1467px;background:#FFFFFF;" version="1.1" viewBox="0 0 945 1467" width="945px" zoomAndPan="magnify"><title>System Sequence Diagram (SSD) - Add Drones to Inventory</title><defs/><g><text fill="#000000" font-family="sans-serif" font-size="14" font-weight="bold" lengthAdjust="spacing" textLength="397.5303" x="275.2058" y="30.1074">System Sequence Diagram (SSD) - Add Drones to Inventory</text><rect fill="#FFFFFF" height="112.1641" style="stroke:#181818;stroke-width:1.0;" width="10" x="104.5723" y="133.2422"/><rect fill="#FFFFFF" height="31.291" style="stroke:#181818;stroke-width:1.0;" width="10" x="603.4268" y="156.5332"/><rect fill="#FFFFFF" height="31.291" style="stroke:#181818;stroke-width:1.0;" width="10" x="603.4268" y="278.6973"/><rect fill="#FFFFFF" height="31.291" style="stroke:#181818;stroke-width:1.0;" width="10" x="603.4268" y="367.5703"/><rect fill="#FFFFFF" height="253.377" style="stroke:#181818;stroke-width:1.0;" width="10" x="603.4268" y="430.1523"/><rect fill="#FFFFFF" height="31.291" style="stroke:#181818;stroke-width:1.0;" width="10" x="603.4268" y="723.4512"/><rect fill="#FFFFFF" height="101.873" style="stroke:#181818;stroke-width:1.0;" width="10" x="603.4268" y="845.6152"/><rect fill="#FFFFFF" height="240.377" style="stroke:#181818;stroke-width:1.0;" width="10" x="603.4268" y="1099.2832"/><rect fill="none" height="1164.8359" style="stroke:#000000;stroke-width:1.5;" width="928.9419" x="10" y="202.8242"/><rect fill="none" height="1035.6719" style="stroke:#000000;stroke-width:1.5;" width="908.9419" x="20" y="324.9883"/><rect fill="none" height="98.5039" style="stroke:#000000;stroke-width:1.5;" width="590.7095" x="60" y="578.0254"/><rect fill="none" height="583.918" style="stroke:#000000;stroke-width:1.5;" width="875.0811" x="30" y="769.7422"/><rect fill="none" height="441.7539" style="stroke:#000000;stroke-width:1.5;" width="747.9312" x="40" y="904.9063"/><rect fill="none" height="316.25" style="stroke:#000000;stroke-width:1.5;" width="727.9312" x="50" y="1023.4102"/><rect fill="none" height="98.5039" style="stroke:#000000;stroke-width:1.5;" width="590.7095" x="60" y="1234.1563"/><line style="stroke:#181818;stroke-width:0.5;stroke-dasharray:5.0,5.0;" x1="109" x2="109" y1="123.2422" y2="1384.6602"/><line style="stroke:#181818;stroke-width:0.5;stroke-dasharray:5.0,5.0;" x1="608.144" x2="608.144" y1="123.2422" y2="1384.6602"/><text fill="#000000" font-family="sans-serif" font-size="14" lengthAdjust="spacing" textLength="73.1445" x="70" y="119.7285">Drone Tech</text><ellipse cx="109.5723" cy="53.1211" fill="#E3E3E3" rx="8" ry="8" style="stroke:#181818;stroke-width:0.5;"/><path d="M109.5723,61.1211 L109.5723,88.1211 M96.5723,69.1211 L122.5723,69.1211 M109.5723,88.1211 L96.5723,103.1211 M109.5723,88.1211 L122.5723,103.1211 " fill="none" style="stroke:#181818;stroke-width:0.5;"/><text fill="#000000" font-family="sans-serif" font-size="14" lengthAdjust="spacing" textLength="73.1445" x="70" y="1398.7676">Drone Tech</text><ellipse cx="109.5723" cy="1410.7813" fill="#E3E3E3" rx="8" ry="8" style="stroke:#181818;stroke-width:0.5;"/><path d="M109.5723,1418.7813 L109.5723,1445.7813 M96.5723,1426.7813 L122.5723,1426.7813 M109.5723,1445.7813 L96.5723,1460.7813 M109.5723,1445.7813 L122.5723,1460.7813 " fill="none" style="stroke:#181818;stroke-width:0.5;"/><rect fill="#E3E3E3" height="32.6211" rx="2.5" ry="2.5" style="stroke:#181818;stroke-width:0.5;" width="64.5654" x="576.144" y="89.6211"/><text fill="#000000" font-family="sans-serif" font-size="14" lengthAdjust="spacing" textLength="50.5654" x="583.144" y="111.7285">:System</text><rect fill="#E3E3E3" height="32.6211" rx="2.5" ry="2.5" style="stroke:#181818;stroke-width:0.5;" width="64.5654" x="576.144" y="1383.6602"/><text fill="#000000" font-family="sans-serif" font-size="14" lengthAdjust="spacing" textLength="50.5654" x="583.144" y="1405.7676">:System</text><rect fill="#FFFFFF" height="112.1641" style="stroke:#181818;stroke-width:1.0;" width="10" x="104.5723" y="133.2422"/><rect fill="#FFFFFF" height="31.291" style="stroke:#181818;stroke-width:1.0;" width="10" x="603.4268" y="156.5332"/><rect fill="#FFFFFF" height="31.291" style="stroke:#181818;stroke-width:1.0;" width="10" x="603.4268" y="278.6973"/><rect fill="#FFFFFF" height="31.291" style="stroke:#181818;stroke-width:1.0;" width="10" x="603.4268" y="367.5703"/><rect fill="#FFFFFF" height="253.377" style="stroke:#181818;stroke-width:1.0;" width="10" x="603.4268" y="430.1523"/><rect fill="#FFFFFF" height="31.291" style="stroke:#181818;stroke-width:1.0;" width="10" x="603.4268" y="723.4512"/><rect fill="#FFFFFF" height="101.873" style="stroke:#181818;stroke-width:1.0;" width="10" x="603.4268" y="845.6152"/><rect fill="#FFFFFF" height="240.377" style="stroke:#181818;stroke-width:1.0;" width="10" x="603.4268" y="1099.2832"/><polygon fill="#181818" points="591.4268,152.5332,601.4268,156.5332,591.4268,160.5332,595.4268,156.5332" style="stroke:#181818;stroke-width:1.0;"/><line style="stroke:#181818;stroke-width:1.0;" x1="114.5723" x2="597.4268" y1="156.5332" y2="156.5332"/><text fill="#000000" font-family="sans-serif" font-size="13" font-weight="bold" lengthAdjust="spacing" textLength="7.23" x="121.5723" y="151.2705">1</text><text fill="#000000" font-family="sans-serif" font-size="13" lengthAdjust="spacing" textLength="149.5635" x="132.8022" y="151.2705">requestListDroneModels()</text><polygon fill="#181818" points="125.5723,183.8242,115.5723,187.8242,125.5723,191.8242,121.5723,187.8242" style="stroke:#181818;stroke-width:1.0;"/><line style="stroke:#181818;stroke-width:1.0;stroke-dasharray:2.0,2.0;" x1="119.5723" x2="607.4268" y1="187.8242" y2="187.8242"/><text fill="#000000" font-family="sans-serif" font-size="13" font-weight="bold" lengthAdjust="spacing" textLength="7.23" x="131.5723" y="182.5615">2</text><text fill="#000000" font-family="sans-serif" font-size="13" lengthAdjust="spacing" textLength="95.3862" x="142.8022" y="182.5615">droneModelsList</text><path d="M10,202.8242 L70.1709,202.8242 L70.1709,212.1152 L60.1709,222.1152 L10,222.1152 L10,202.8242 " fill="#EEEEEE" style="stroke:#000000;stroke-width:1.5;"/><rect fill="none" height="1164.8359" style="stroke:#000000;stroke-width:1.5;" width="928.9419" x="10" y="202.8242"/><text fill="#000000" font-family="sans-serif" font-size="13" font-weight="bold" lengthAdjust="spacing" textLength="15.1709" x="25" y="217.8525">alt</text><text fill="#000000" font-family="sans-serif" font-size="11" font-weight="bold" lengthAdjust="spacing" textLength="143.0161" x="85.1709" y="216.6943">[droneModelsList is empty]</text><polygon fill="#181818" points="596.4268,241.4063,606.4268,245.4063,596.4268,249.4063,600.4268,245.4063" style="stroke:#181818;stroke-width:1.0;"/><line style="stroke:#181818;stroke-width:1.0;" x1="109.5723" x2="602.4268" y1="245.4063" y2="245.4063"/><text fill="#000000" font-family="sans-serif" font-size="13" font-weight="bold" lengthAdjust="spacing" textLength="7.23" x="116.5723" y="240.1436">3</text><text fill="#000000" font-family="sans-serif" font-size="13" lengthAdjust="spacing" textLength="299.6665" x="127.8022" y="240.1436">receiveError("No drone models in the system yet...")</text><line style="stroke:#000000;stroke-width:1.0;stroke-dasharray:2.0,2.0;" x1="10" x2="938.9419" y1="254.4063" y2="254.4063"/><polygon fill="#181818" points="591.4268,274.6973,601.4268,278.6973,591.4268,282.6973,595.4268,278.6973" style="stroke:#181818;stroke-width:1.0;"/><line style="stroke:#181818;stroke-width:1.0;" x1="109.5723" x2="597.4268" y1="278.6973" y2="278.6973"/><text fill="#000000" font-family="sans-serif" font-size="13" font-weight="bold" lengthAdjust="spacing" textLength="7.23" x="116.5723" y="273.4346">4</text><text fill="#000000" font-family="sans-serif" font-size="13" lengthAdjust="spacing" textLength="109.1099" x="127.8022" y="273.4346">selectAddMethod()</text><polygon fill="#181818" points="120.5723,305.9883,110.5723,309.9883,120.5723,313.9883,116.5723,309.9883" style="stroke:#181818;stroke-width:1.0;"/><line style="stroke:#181818;stroke-width:1.0;stroke-dasharray:2.0,2.0;" x1="114.5723" x2="607.4268" y1="309.9883" y2="309.9883"/><text fill="#000000" font-family="sans-serif" font-size="13" font-weight="bold" lengthAdjust="spacing" textLength="7.23" x="126.5723" y="304.7256">5</text><text fill="#000000" font-family="sans-serif" font-size="13" lengthAdjust="spacing" textLength="103.3525" x="137.8022" y="304.7256">addMethodOption</text><path d="M20,324.9883 L80.1709,324.9883 L80.1709,334.2793 L70.1709,344.2793 L20,344.2793 L20,324.9883 " fill="#EEEEEE" style="stroke:#000000;stroke-width:1.5;"/><rect fill="none" height="1035.6719" style="stroke:#000000;stroke-width:1.5;" width="908.9419" x="20" y="324.9883"/><text fill="#000000" font-family="sans-serif" font-size="13" font-weight="bold" lengthAdjust="spacing" textLength="15.1709" x="35" y="340.0166">alt</text><text fill="#000000" font-family="sans-serif" font-size="11" font-weight="bold" lengthAdjust="spacing" textLength="169.3398" x="95.1709" y="338.8584">[option is "Create a new Drone"]</text><polygon fill="#181818" points="591.4268,363.5703,601.4268,367.5703,591.4268,371.5703,595.4268,367.5703" style="stroke:#181818;stroke-width:1.0;"/><line style="stroke:#181818;stroke-width:1.0;" x1="109.5723" x2="597.4268" y1="367.5703" y2="367.5703"/><text fill="#000000" font-family="sans-serif" font-size="13" font-weight="bold" lengthAdjust="spacing" textLength="7.23" x="116.5723" y="362.3076">6</text><text fill="#000000" font-family="sans-serif" font-size="13" lengthAdjust="spacing" textLength="113.4326" x="127.8022" y="362.3076">selectDroneModel()</text><polygon fill="#181818" points="120.5723,394.8613,110.5723,398.8613,120.5723,402.8613,116.5723,398.8613" style="stroke:#181818;stroke-width:1.0;"/><line style="stroke:#181818;stroke-width:1.0;stroke-dasharray:2.0,2.0;" x1="114.5723" x2="607.4268" y1="398.8613" y2="398.8613"/><text fill="#000000" font-family="sans-serif" font-size="13" font-weight="bold" lengthAdjust="spacing" textLength="7.23" x="126.5723" y="393.5986">7</text><text fill="#000000" font-family="sans-serif" font-size="13" lengthAdjust="spacing" textLength="77.3271" x="137.8022" y="393.5986">chosenModel</text><polygon fill="#181818" points="591.4268,426.1523,601.4268,430.1523,591.4268,434.1523,595.4268,430.1523" style="stroke:#181818;stroke-width:1.0;"/><line style="stroke:#181818;stroke-width:1.0;" x1="109.5723" x2="597.4268" y1="430.1523" y2="430.1523"/><text fill="#000000" font-family="sans-serif" font-size="13" font-weight="bold" lengthAdjust="spacing" textLength="7.23" x="116.5723" y="424.8896">8</text><text fill="#000000" font-family="sans-serif" font-size="13" lengthAdjust="spacing" textLength="130.7681" x="127.8022" y="424.8896">provideSerialNumber()</text><line style="stroke:#181818;stroke-width:1.0;" x1="613.4268" x2="655.4268" y1="461.4434" y2="461.4434"/><line style="stroke:#181818;stroke-width:1.0;" x1="655.4268" x2="655.4268" y1="461.4434" y2="474.4434"/><line style="stroke:#181818;stroke-width:1.0;" x1="614.4268" x2="655.4268" y1="474.4434" y2="474.4434"/><polygon fill="#181818" points="624.4268,470.4434,614.4268,474.4434,624.4268,478.4434,620.4268,474.4434" style="stroke:#181818;stroke-width:1.0;"/><text fill="#000000" font-family="sans-serif" font-size="13" font-weight="bold" lengthAdjust="spacing" textLength="7.23" x="620.4268" y="456.1807">9</text><text fill="#000000" font-family="sans-serif" font-size="13" lengthAdjust="spacing" textLength="132.939" x="631.6567" y="456.1807">validateSerialNumber()</text><line style="stroke:#181818;stroke-width:1.0;" x1="613.4268" x2="655.4268" y1="505.7344" y2="505.7344"/><line style="stroke:#181818;stroke-width:1.0;" x1="655.4268" x2="655.4268" y1="505.7344" y2="518.7344"/><line style="stroke:#181818;stroke-width:1.0;" x1="614.4268" x2="655.4268" y1="518.7344" y2="518.7344"/><polygon fill="#181818" points="624.4268,514.7344,614.4268,518.7344,624.4268,522.7344,620.4268,518.7344" style="stroke:#181818;stroke-width:1.0;"/><text fill="#000000" font-family="sans-serif" font-size="13" font-weight="bold" lengthAdjust="spacing" textLength="14.46" x="620.4268" y="500.4717">10</text><text fill="#000000" font-family="sans-serif" font-size="13" lengthAdjust="spacing" textLength="268.0552" x="638.8867" y="500.4717">createNewDrone(chosenModel, serialNumber)</text><line style="stroke:#181818;stroke-width:1.0;" x1="613.4268" x2="655.4268" y1="550.0254" y2="550.0254"/><line style="stroke:#181818;stroke-width:1.0;" x1="655.4268" x2="655.4268" y1="550.0254" y2="563.0254"/><line style="stroke:#181818;stroke-width:1.0;" x1="614.4268" x2="655.4268" y1="563.0254" y2="563.0254"/><polygon fill="#181818" points="624.4268,559.0254,614.4268,563.0254,624.4268,567.0254,620.4268,563.0254" style="stroke:#181818;stroke-width:1.0;"/><text fill="#000000" font-family="sans-serif" font-size="13" font-weight="bold" lengthAdjust="spacing" textLength="14.46" x="620.4268" y="544.7627">11</text><text fill="#000000" font-family="sans-serif" font-size="13" lengthAdjust="spacing" textLength="71.5254" x="638.8867" y="544.7627">saveDrone()</text><path d="M60,578.0254 L120.1709,578.0254 L120.1709,587.3164 L110.1709,597.3164 L60,597.3164 L60,578.0254 " fill="#EEEEEE" style="stroke:#000000;stroke-width:1.5;"/><rect fill="none" height="98.5039" style="stroke:#000000;stroke-width:1.5;" width="590.7095" x="60" y="578.0254"/><text fill="#000000" font-family="sans-serif" font-size="13" font-weight="bold" lengthAdjust="spacing" textLength="15.1709" x="75" y="593.0537">alt</text><text fill="#000000" font-family="sans-serif" font-size="11" font-weight="bold" lengthAdjust="spacing" textLength="195.6152" x="135.1709" y="591.8955">[save failed (duplicate serialNumber)]</text><polygon fill="#181818" points="120.5723,616.6074,110.5723,620.6074,120.5723,624.6074,116.5723,620.6074" style="stroke:#181818;stroke-width:1.0;"/><line style="stroke:#181818;stroke-width:1.0;stroke-dasharray:2.0,2.0;" x1="114.5723" x2="602.4268" y1="620.6074" y2="620.6074"/><text fill="#000000" font-family="sans-serif" font-size="13" font-weight="bold" lengthAdjust="spacing" textLength="14.46" x="126.5723" y="615.3447">12</text><text fill="#000000" font-family="sans-serif" font-size="13" lengthAdjust="spacing" textLength="451.3945" x="145.0322" y="615.3447">errorMessage("A Drone with that Serial Number already exists in the system!")</text><line style="stroke:#000000;stroke-width:1.0;stroke-dasharray:2.0,2.0;" x1="60" x2="650.7095" y1="629.6074" y2="629.6074"/><text fill="#000000" font-family="sans-serif" font-size="11" font-weight="bold" lengthAdjust="spacing" textLength="91.7168" x="65" y="641.4775">[save succeeded]</text><polygon fill="#181818" points="120.5723,664.5293,110.5723,668.5293,120.5723,672.5293,116.5723,668.5293" style="stroke:#181818;stroke-width:1.0;"/><line style="stroke:#181818;stroke-width:1.0;stroke-dasharray:2.0,2.0;" x1="114.5723" x2="602.4268" y1="668.5293" y2="668.5293"/><text fill="#000000" font-family="sans-serif" font-size="13" font-weight="bold" lengthAdjust="spacing" textLength="14.46" x="126.5723" y="663.2666">13</text><text fill="#000000" font-family="sans-serif" font-size="13" lengthAdjust="spacing" textLength="270.0674" x="145.0322" y="663.2666">successMessage("Drone added successfully!")</text><line style="stroke:#000000;stroke-width:1.0;stroke-dasharray:2.0,2.0;" x1="20" x2="928.9419" y1="684.5293" y2="684.5293"/><text fill="#000000" font-family="sans-serif" font-size="11" font-weight="bold" lengthAdjust="spacing" textLength="183.3745" x="25" y="696.3994">[option is "Add an existing Drone"]</text><polygon fill="#181818" points="591.4268,719.4512,601.4268,723.4512,591.4268,727.4512,595.4268,723.4512" style="stroke:#181818;stroke-width:1.0;"/><line style="stroke:#181818;stroke-width:1.0;" x1="109.5723" x2="597.4268" y1="723.4512" y2="723.4512"/><text fill="#000000" font-family="sans-serif" font-size="13" font-weight="bold" lengthAdjust="spacing" textLength="14.46" x="116.5723" y="718.1885">14</text><text fill="#000000" font-family="sans-serif" font-size="13" lengthAdjust="spacing" textLength="108.3735" x="135.0322" y="718.1885">requestAllDrones()</text><polygon fill="#181818" points="120.5723,750.7422,110.5723,754.7422,120.5723,758.7422,116.5723,754.7422" style="stroke:#181818;stroke-width:1.0;"/><line style="stroke:#181818;stroke-width:1.0;stroke-dasharray:2.0,2.0;" x1="114.5723" x2="607.4268" y1="754.7422" y2="754.7422"/><text fill="#000000" font-family="sans-serif" font-size="13" font-weight="bold" lengthAdjust="spacing" textLength="14.46" x="126.5723" y="749.4795">15</text><text fill="#000000" font-family="sans-serif" font-size="13" lengthAdjust="spacing" textLength="59.979" x="145.0322" y="749.4795">dronesList</text><path d="M30,769.7422 L90.1709,769.7422 L90.1709,779.0332 L80.1709,789.0332 L30,789.0332 L30,769.7422 " fill="#EEEEEE" style="stroke:#000000;stroke-width:1.5;"/><rect fill="none" height="583.918" style="stroke:#000000;stroke-width:1.5;" width="875.0811" x="30" y="769.7422"/><text fill="#000000" font-family="sans-serif" font-size="13" font-weight="bold" lengthAdjust="spacing" textLength="15.1709" x="45" y="784.7705">alt</text><text fill="#000000" font-family="sans-serif" font-size="11" font-weight="bold" lengthAdjust="spacing" textLength="111.2407" x="105.1709" y="783.6123">[dronesList is empty]</text><polygon fill="#181818" points="596.4268,808.3242,606.4268,812.3242,596.4268,816.3242,600.4268,812.3242" style="stroke:#181818;stroke-width:1.0;"/><line style="stroke:#181818;stroke-width:1.0;" x1="109.5723" x2="602.4268" y1="812.3242" y2="812.3242"/><text fill="#000000" font-family="sans-serif" font-size="13" font-weight="bold" lengthAdjust="spacing" textLength="14.46" x="116.5723" y="807.0615">16</text><text fill="#000000" font-family="sans-serif" font-size="13" lengthAdjust="spacing" textLength="260.6475" x="135.0322" y="807.0615">receiveError("No drones in the system yet...")</text><line style="stroke:#000000;stroke-width:1.0;stroke-dasharray:2.0,2.0;" x1="30" x2="905.0811" y1="821.3242" y2="821.3242"/><polygon fill="#181818" points="591.4268,841.6152,601.4268,845.6152,591.4268,849.6152,595.4268,845.6152" style="stroke:#181818;stroke-width:1.0;"/><line style="stroke:#181818;stroke-width:1.0;" x1="109.5723" x2="597.4268" y1="845.6152" y2="845.6152"/><text fill="#000000" font-family="sans-serif" font-size="13" font-weight="bold" lengthAdjust="spacing" textLength="14.46" x="116.5723" y="840.3525">17</text><text fill="#000000" font-family="sans-serif" font-size="13" lengthAdjust="spacing" textLength="130.7681" x="135.0322" y="840.3525">provideSerialNumber()</text><line style="stroke:#181818;stroke-width:1.0;" x1="613.4268" x2="655.4268" y1="876.9063" y2="876.9063"/><line style="stroke:#181818;stroke-width:1.0;" x1="655.4268" x2="655.4268" y1="876.9063" y2="889.9063"/><line style="stroke:#181818;stroke-width:1.0;" x1="614.4268" x2="655.4268" y1="889.9063" y2="889.9063"/><polygon fill="#181818" points="624.4268,885.9063,614.4268,889.9063,624.4268,893.9063,620.4268,889.9063" style="stroke:#181818;stroke-width:1.0;"/><text fill="#000000" font-family="sans-serif" font-size="13" font-weight="bold" lengthAdjust="spacing" textLength="14.46" x="620.4268" y="871.6436">18</text><text fill="#000000" font-family="sans-serif" font-size="13" lengthAdjust="spacing" textLength="244.1943" x="638.8867" y="871.6436">fetchDroneBySerialNumber(serialNumber)</text><path d="M40,904.9063 L100.1709,904.9063 L100.1709,914.1973 L90.1709,924.1973 L40,924.1973 L40,904.9063 " fill="#EEEEEE" style="stroke:#000000;stroke-width:1.5;"/><rect fill="none" height="441.7539" style="stroke:#000000;stroke-width:1.5;" width="747.9312" x="40" y="904.9063"/><text fill="#000000" font-family="sans-serif" font-size="13" font-weight="bold" lengthAdjust="spacing" textLength="15.1709" x="55" y="919.9346">alt</text><text fill="#000000" font-family="sans-serif" font-size="11" font-weight="bold" lengthAdjust="spacing" textLength="91.6362" x="115.1709" y="918.7764">[drone not found]</text><polygon fill="#181818" points="120.5723,943.4883,110.5723,947.4883,120.5723,951.4883,116.5723,947.4883" style="stroke:#181818;stroke-width:1.0;"/><line style="stroke:#181818;stroke-width:1.0;stroke-dasharray:2.0,2.0;" x1="114.5723" x2="607.4268" y1="947.4883" y2="947.4883"/><text fill="#000000" font-family="sans-serif" font-size="13" font-weight="bold" lengthAdjust="spacing" textLength="14.46" x="126.5723" y="942.2256">19</text><text fill="#000000" font-family="sans-serif" font-size="13" lengthAdjust="spacing" textLength="410.2363" x="145.0322" y="942.2256">errorMessage("No drone with that Serial Number found in the system!")</text><line style="stroke:#000000;stroke-width:1.0;stroke-dasharray:2.0,2.0;" x1="40" x2="787.9312" y1="956.4883" y2="956.4883"/><text fill="#000000" font-family="sans-serif" font-size="11" font-weight="bold" lengthAdjust="spacing" textLength="71.4785" x="45" y="968.3584">[drone found]</text><line style="stroke:#181818;stroke-width:1.0;" x1="608.4268" x2="650.4268" y1="995.4102" y2="995.4102"/><line style="stroke:#181818;stroke-width:1.0;" x1="650.4268" x2="650.4268" y1="995.4102" y2="1008.4102"/><line style="stroke:#181818;stroke-width:1.0;" x1="609.4268" x2="650.4268" y1="1008.4102" y2="1008.4102"/><polygon fill="#181818" points="619.4268,1004.4102,609.4268,1008.4102,619.4268,1012.4102,615.4268,1008.4102" style="stroke:#181818;stroke-width:1.0;"/><text fill="#000000" font-family="sans-serif" font-size="13" font-weight="bold" lengthAdjust="spacing" textLength="14.46" x="615.4268" y="990.1475">20</text><text fill="#000000" font-family="sans-serif" font-size="13" lengthAdjust="spacing" textLength="114.8799" x="633.8867" y="990.1475">checkDroneStatus()</text><path d="M50,1023.4102 L110.1709,1023.4102 L110.1709,1032.7012 L100.1709,1042.7012 L50,1042.7012 L50,1023.4102 " fill="#EEEEEE" style="stroke:#000000;stroke-width:1.5;"/><rect fill="none" height="316.25" style="stroke:#000000;stroke-width:1.5;" width="727.9312" x="50" y="1023.4102"/><text fill="#000000" font-family="sans-serif" font-size="13" font-weight="bold" lengthAdjust="spacing" textLength="15.1709" x="65" y="1038.4385">alt</text><text fill="#000000" font-family="sans-serif" font-size="11" font-weight="bold" lengthAdjust="spacing" textLength="151.5669" x="125.1709" y="1037.2803">[drone status is AVAILABLE]</text><polygon fill="#181818" points="120.5723,1061.9922,110.5723,1065.9922,120.5723,1069.9922,116.5723,1065.9922" style="stroke:#181818;stroke-width:1.0;"/><line style="stroke:#181818;stroke-width:1.0;stroke-dasharray:2.0,2.0;" x1="114.5723" x2="607.4268" y1="1065.9922" y2="1065.9922"/><text fill="#000000" font-family="sans-serif" font-size="13" font-weight="bold" lengthAdjust="spacing" textLength="14.46" x="126.5723" y="1060.7295">21</text><text fill="#000000" font-family="sans-serif" font-size="13" lengthAdjust="spacing" textLength="310.5273" x="145.0322" y="1060.7295">errorMessage("This drone is already in the inventory")</text><line style="stroke:#000000;stroke-width:1.0;stroke-dasharray:2.0,2.0;" x1="50" x2="777.9312" y1="1074.9922" y2="1074.9922"/><polygon fill="#181818" points="120.5723,1095.2832,110.5723,1099.2832,120.5723,1103.2832,116.5723,1099.2832" style="stroke:#181818;stroke-width:1.0;"/><line style="stroke:#181818;stroke-width:1.0;stroke-dasharray:2.0,2.0;" x1="114.5723" x2="602.4268" y1="1099.2832" y2="1099.2832"/><text fill="#000000" font-family="sans-serif" font-size="13" font-weight="bold" lengthAdjust="spacing" textLength="14.46" x="126.5723" y="1094.0205">22</text><text fill="#000000" font-family="sans-serif" font-size="13" lengthAdjust="spacing" textLength="114.1499" x="145.0322" y="1094.0205">showDroneDetails()</text><polygon fill="#181818" points="591.4268,1126.5742,601.4268,1130.5742,591.4268,1134.5742,595.4268,1130.5742" style="stroke:#181818;stroke-width:1.0;"/><line style="stroke:#181818;stroke-width:1.0;" x1="109.5723" x2="597.4268" y1="1130.5742" y2="1130.5742"/><text fill="#000000" font-family="sans-serif" font-size="13" font-weight="bold" lengthAdjust="spacing" textLength="14.46" x="116.5723" y="1125.3115">23</text><text fill="#000000" font-family="sans-serif" font-size="13" lengthAdjust="spacing" textLength="104.7554" x="135.0322" y="1125.3115">confirmSelection()</text><line style="stroke:#181818;stroke-width:1.0;" x1="613.4268" x2="655.4268" y1="1161.8652" y2="1161.8652"/><line style="stroke:#181818;stroke-width:1.0;" x1="655.4268" x2="655.4268" y1="1161.8652" y2="1174.8652"/><line style="stroke:#181818;stroke-width:1.0;" x1="614.4268" x2="655.4268" y1="1174.8652" y2="1174.8652"/><polygon fill="#181818" points="624.4268,1170.8652,614.4268,1174.8652,624.4268,1178.8652,620.4268,1174.8652" style="stroke:#181818;stroke-width:1.0;"/><text fill="#000000" font-family="sans-serif" font-size="13" font-weight="bold" lengthAdjust="spacing" textLength="14.46" x="620.4268" y="1156.6025">24</text><text fill="#000000" font-family="sans-serif" font-size="13" lengthAdjust="spacing" textLength="111.2744" x="638.8867" y="1156.6025">addExistingDrone()</text><line style="stroke:#181818;stroke-width:1.0;" x1="613.4268" x2="655.4268" y1="1206.1563" y2="1206.1563"/><line style="stroke:#181818;stroke-width:1.0;" x1="655.4268" x2="655.4268" y1="1206.1563" y2="1219.1563"/><line style="stroke:#181818;stroke-width:1.0;" x1="614.4268" x2="655.4268" y1="1219.1563" y2="1219.1563"/><polygon fill="#181818" points="624.4268,1215.1563,614.4268,1219.1563,624.4268,1223.1563,620.4268,1219.1563" style="stroke:#181818;stroke-width:1.0;"/><text fill="#000000" font-family="sans-serif" font-size="13" font-weight="bold" lengthAdjust="spacing" textLength="14.46" x="620.4268" y="1200.8936">25</text><text fill="#000000" font-family="sans-serif" font-size="13" lengthAdjust="spacing" textLength="117.0444" x="638.8867" y="1200.8936">saveExistingDrone()</text><path d="M60,1234.1563 L120.1709,1234.1563 L120.1709,1243.4473 L110.1709,1253.4473 L60,1253.4473 L60,1234.1563 " fill="#EEEEEE" style="stroke:#000000;stroke-width:1.5;"/><rect fill="none" height="98.5039" style="stroke:#000000;stroke-width:1.5;" width="590.7095" x="60" y="1234.1563"/><text fill="#000000" font-family="sans-serif" font-size="13" font-weight="bold" lengthAdjust="spacing" textLength="15.1709" x="75" y="1249.1846">alt</text><text fill="#000000" font-family="sans-serif" font-size="11" font-weight="bold" lengthAdjust="spacing" textLength="63.583" x="135.1709" y="1248.0264">[save failed]</text><polygon fill="#181818" points="120.5723,1272.7383,110.5723,1276.7383,120.5723,1280.7383,116.5723,1276.7383" style="stroke:#181818;stroke-width:1.0;"/><line style="stroke:#181818;stroke-width:1.0;stroke-dasharray:2.0,2.0;" x1="114.5723" x2="602.4268" y1="1276.7383" y2="1276.7383"/><text fill="#000000" font-family="sans-serif" font-size="13" font-weight="bold" lengthAdjust="spacing" textLength="14.46" x="126.5723" y="1271.4756">26</text><text fill="#000000" font-family="sans-serif" font-size="13" lengthAdjust="spacing" textLength="451.3945" x="145.0322" y="1271.4756">errorMessage("A Drone with that Serial Number already exists in the system!")</text><line style="stroke:#000000;stroke-width:1.0;stroke-dasharray:2.0,2.0;" x1="60" x2="650.7095" y1="1285.7383" y2="1285.7383"/><text fill="#000000" font-family="sans-serif" font-size="11" font-weight="bold" lengthAdjust="spacing" textLength="91.7168" x="65" y="1297.6084">[save succeeded]</text><polygon fill="#181818" points="120.5723,1320.6602,110.5723,1324.6602,120.5723,1328.6602,116.5723,1324.6602" style="stroke:#181818;stroke-width:1.0;"/><line style="stroke:#181818;stroke-width:1.0;stroke-dasharray:2.0,2.0;" x1="114.5723" x2="602.4268" y1="1324.6602" y2="1324.6602"/><text fill="#000000" font-family="sans-serif" font-size="13" font-weight="bold" lengthAdjust="spacing" textLength="14.46" x="126.5723" y="1319.3975">27</text><text fill="#000000" font-family="sans-serif" font-size="13" lengthAdjust="spacing" textLength="270.0674" x="145.0322" y="1319.3975">successMessage("Drone added successfully!")</text><!--SRC=[lLLDRzim3BtxLt0-kS3Q7z33W7JfeK3R7HpihabCB5IMF4jEvdy_IdBYn5zfYs41WZZM8_b8FZ_RDwahLhCIIgCDBsfJ8hYwmSIUJYh6tzWESzSgX1gvOtgdpW6sOC8SfDx1bYcBIUAa8sZUMeSbvFYxGSqHrfBjF3pBy_KDtC9A25ZNHgC5P-19xr4xKxT9mXfdT5F-mfgkETs3DE1WWxn8WLbORn8gxIIN5TCEqljOAvp5on0fzyoX1oVh3Tn-wuxkgGcYPDspj2uaVZ42bSrk-fWkITV2BSMkD_SWUh2FJGGE0nAct106qWAMbMiJeC-G2KUvnyUwDdMMlfeOIylmmI0rk0B1HXOjkhkxk_Gcf1cN7jobhj4lOrpJeg8bqlHVq1L6P37XLBf1- -mOygDoqkWP7Z4RZS44bEy-_LwZHp3GU8WxJmDiZbo_bOxT7CC9bhmm5dK8Fa5cM8xBLxNPIu4vrfAfrw313p3ey-oPaeAGCud60JnCw1KFeVNih8clD9C-oL8Eo_OOmyyeqoByVNeqfK81cMWg9RblOZhjn4JHg_C5hIKNoD9LN20Sf2j8din1R19Y9gf8hOWMy0zfVw3XBsbVoAipKhCDvuW2nHA90BBsH2EI84bIKztPjb6glIYXnJK911PdIlMcn7GaxnrjKQoTZwoKYZxsSR66npsQoJkqUZAN2L-POpZbBulECizZvfISvdod2soMdwwbiKqBVekE5s7q3-r5qdbfdqO8sZZOcaPVgkwg_4yUFQV_a7DUzkyRRv1bhBFCySn12kHlOHYvOwwnsRXctxmD4A-WrS_Lq_FguVbnXBuwYar1yJ4VNHoV-wvpUNoVJ_H-lVz9CSqvGs6YQwxHaSbDDNvDMjDovKPlPLtcuPL41Z6JUBmASgN7pa26VhmSwEtmFP43Lv_4_3SZ7-bsmTJ_iS5VbDRYiq8RH0x_psSu8lsl_oQNjlWN]--></g></svg>