<svg xmlns="http://www.w3.org/2000/svg" xmlns:xlink="http://www.w3.org/1999/xlink" contentStyleType="text/css" height="696px" preserveAspectRatio="none" style="width:842px;height:696px;background:#FFFFFF;" version="1.1" viewBox="0 0 842 696" width="842px" zoomAndPan="magnify"><title>System Sequence Diagram (SSD) - Add Maintenance Type</title><defs/><g><text fill="#000000" font-family="sans-serif" font-size="14" font-weight="bold" lengthAdjust="spacing" textLength="386.6543" x="228.9592" y="30.1074">System Sequence Diagram (SSD) - Add Maintenance Type</text><rect fill="#FFFFFF" height="470.0449" style="stroke:#181818;stroke-width:1.0;" width="10" x="54.5723" y="133.2422"/><rect fill="#FFFFFF" height="31.291" style="stroke:#181818;stroke-width:1.0;" width="10" x="495.5977" y="156.5332"/><rect fill="#FFFFFF" height="31.291" style="stroke:#181818;stroke-width:1.0;" width="10" x="495.5977" y="219.1152"/><rect fill="#FFFFFF" height="57.582" style="stroke:#181818;stroke-width:1.0;" width="10" x="495.5977" y="281.6973"/><rect fill="#FFFFFF" height="232.7168" style="stroke:#181818;stroke-width:1.0;" width="10" x="495.5977" y="370.5703"/><rect fill="none" height="187.0859" style="stroke:#000000;stroke-width:1.5;" width="825.5728" x="10" y="296.6973"/><rect fill="none" height="98.5039" style="stroke:#000000;stroke-width:1.5;" width="532.8804" x="10" y="497.7832"/><line style="stroke:#181818;stroke-width:0.5;stroke-dasharray:5.0,5.0;" x1="59" x2="59" y1="123.2422" y2="613.2871"/><line style="stroke:#181818;stroke-width:0.5;stroke-dasharray:5.0,5.0;" x1="500.3149" x2="500.3149" y1="123.2422" y2="613.2871"/><text fill="#000000" font-family="sans-serif" font-size="14" lengthAdjust="spacing" textLength="73.1445" x="20" y="119.7285">Drone Tech</text><ellipse cx="59.5723" cy="53.1211" fill="#E3E3E3" rx="8" ry="8" style="stroke:#181818;stroke-width:0.5;"/><path d="M59.5723,61.1211 L59.5723,88.1211 M46.5723,69.1211 L72.5723,69.1211 M59.5723,88.1211 L46.5723,103.1211 M59.5723,88.1211 L72.5723,103.1211 " fill="none" style="stroke:#181818;stroke-width:0.5;"/><text fill="#000000" font-family="sans-serif" font-size="14" lengthAdjust="spacing" textLength="73.1445" x="20" y="627.3945">Drone Tech</text><ellipse cx="59.5723" cy="639.4082" fill="#E3E3E3" rx="8" ry="8" style="stroke:#181818;stroke-width:0.5;"/><path d="M59.5723,647.4082 L59.5723,674.4082 M46.5723,655.4082 L72.5723,655.4082 M59.5723,674.4082 L46.5723,689.4082 M59.5723,674.4082 L72.5723,689.4082 " fill="none" style="stroke:#181818;stroke-width:0.5;"/><rect fill="#E3E3E3" height="32.6211" rx="2.5" ry="2.5" style="stroke:#181818;stroke-width:0.5;" width="64.5654" x="468.3149" y="89.6211"/><text fill="#000000" font-family="sans-serif" font-size="14" lengthAdjust="spacing" textLength="50.5654" x="475.3149" y="111.7285">:System</text><rect fill="#E3E3E3" height="32.6211" rx="2.5" ry="2.5" style="stroke:#181818;stroke-width:0.5;" width="64.5654" x="468.3149" y="612.2871"/><text fill="#000000" font-family="sans-serif" font-size="14" lengthAdjust="spacing" textLength="50.5654" x="475.3149" y="634.3945">:System</text><rect fill="#FFFFFF" height="470.0449" style="stroke:#181818;stroke-width:1.0;" width="10" x="54.5723" y="133.2422"/><rect fill="#FFFFFF" height="31.291" style="stroke:#181818;stroke-width:1.0;" width="10" x="495.5977" y="156.5332"/><rect fill="#FFFFFF" height="31.291" style="stroke:#181818;stroke-width:1.0;" width="10" x="495.5977" y="219.1152"/><rect fill="#FFFFFF" height="57.582" style="stroke:#181818;stroke-width:1.0;" width="10" x="495.5977" y="281.6973"/><rect fill="#FFFFFF" height="232.7168" style="stroke:#181818;stroke-width:1.0;" width="10" x="495.5977" y="370.5703"/><polygon fill="#181818" points="483.5977,152.5332,493.5977,156.5332,483.5977,160.5332,487.5977,156.5332" style="stroke:#181818;stroke-width:1.0;"/><line style="stroke:#181818;stroke-width:1.0;" x1="64.5723" x2="489.5977" y1="156.5332" y2="156.5332"/><text fill="#000000" font-family="sans-serif" font-size="13" font-weight="bold" lengthAdjust="spacing" textLength="7.23" x="71.5723" y="151.2705">1</text><text fill="#000000" font-family="sans-serif" font-size="13" lengthAdjust="spacing" textLength="178.4897" x="82.8022" y="151.2705">requestAddMaintenanceType()</text><polygon fill="#181818" points="75.5723,183.8242,65.5723,187.8242,75.5723,191.8242,71.5723,187.8242" style="stroke:#181818;stroke-width:1.0;"/><line style="stroke:#181818;stroke-width:1.0;stroke-dasharray:2.0,2.0;" x1="69.5723" x2="499.5977" y1="187.8242" y2="187.8242"/><text fill="#000000" font-family="sans-serif" font-size="13" font-weight="bold" lengthAdjust="spacing" textLength="7.23" x="81.5723" y="182.5615">2</text><text fill="#000000" font-family="sans-serif" font-size="13" lengthAdjust="spacing" textLength="190.0361" x="92.8022" y="182.5615">requestMaintenanceTypeName()</text><polygon fill="#181818" points="483.5977,215.1152,493.5977,219.1152,483.5977,223.1152,487.5977,219.1152" style="stroke:#181818;stroke-width:1.0;"/><line style="stroke:#181818;stroke-width:1.0;" x1="64.5723" x2="489.5977" y1="219.1152" y2="219.1152"/><text fill="#000000" font-family="sans-serif" font-size="13" font-weight="bold" lengthAdjust="spacing" textLength="7.23" x="71.5723" y="213.8525">3</text><text fill="#000000" font-family="sans-serif" font-size="13" lengthAdjust="spacing" textLength="221.8315" x="82.8022" y="213.8525">provideMaintenanceTypeName(name)</text><polygon fill="#181818" points="75.5723,246.4063,65.5723,250.4063,75.5723,254.4063,71.5723,250.4063" style="stroke:#181818;stroke-width:1.0;"/><line style="stroke:#181818;stroke-width:1.0;stroke-dasharray:2.0,2.0;" x1="69.5723" x2="499.5977" y1="250.4063" y2="250.4063"/><text fill="#000000" font-family="sans-serif" font-size="13" font-weight="bold" lengthAdjust="spacing" textLength="7.23" x="81.5723" y="245.1436">4</text><text fill="#000000" font-family="sans-serif" font-size="13" lengthAdjust="spacing" textLength="140.1753" x="92.8022" y="245.1436">requestAddDescription()</text><polygon fill="#181818" points="483.5977,277.6973,493.5977,281.6973,483.5977,285.6973,487.5977,281.6973" style="stroke:#181818;stroke-width:1.0;"/><line style="stroke:#181818;stroke-width:1.0;" x1="64.5723" x2="489.5977" y1="281.6973" y2="281.6973"/><text fill="#000000" font-family="sans-serif" font-size="13" font-weight="bold" lengthAdjust="spacing" textLength="7.23" x="71.5723" y="276.4346">5</text><text fill="#000000" font-family="sans-serif" font-size="13" lengthAdjust="spacing" textLength="242.7534" x="82.8022" y="276.4346">confirmDescriptionChoice(hasDescription)</text><path d="M10,296.6973 L70.1709,296.6973 L70.1709,305.9883 L60.1709,315.9883 L10,315.9883 L10,296.6973 " fill="#EEEEEE" style="stroke:#000000;stroke-width:1.5;"/><rect fill="none" height="187.0859" style="stroke:#000000;stroke-width:1.5;" width="825.5728" x="10" y="296.6973"/><text fill="#000000" font-family="sans-serif" font-size="13" font-weight="bold" lengthAdjust="spacing" textLength="15.1709" x="25" y="311.7256">alt</text><text fill="#000000" font-family="sans-serif" font-size="11" font-weight="bold" lengthAdjust="spacing" textLength="120.1084" x="85.1709" y="310.5674">[hasDescription = true]</text><polygon fill="#181818" points="75.5723,335.2793,65.5723,339.2793,75.5723,343.2793,71.5723,339.2793" style="stroke:#181818;stroke-width:1.0;"/><line style="stroke:#181818;stroke-width:1.0;stroke-dasharray:2.0,2.0;" x1="69.5723" x2="499.5977" y1="339.2793" y2="339.2793"/><text fill="#000000" font-family="sans-serif" font-size="13" font-weight="bold" lengthAdjust="spacing" textLength="7.23" x="81.5723" y="334.0166">6</text><text fill="#000000" font-family="sans-serif" font-size="13" lengthAdjust="spacing" textLength="117.0444" x="92.8022" y="334.0166">requestDescription()</text><polygon fill="#181818" points="483.5977,366.5703,493.5977,370.5703,483.5977,374.5703,487.5977,370.5703" style="stroke:#181818;stroke-width:1.0;"/><line style="stroke:#181818;stroke-width:1.0;" x1="64.5723" x2="489.5977" y1="370.5703" y2="370.5703"/><text fill="#000000" font-family="sans-serif" font-size="13" font-weight="bold" lengthAdjust="spacing" textLength="7.23" x="71.5723" y="365.3076">7</text><text fill="#000000" font-family="sans-serif" font-size="13" lengthAdjust="spacing" textLength="179.188" x="82.8022" y="365.3076">provideDescription(description)</text><line style="stroke:#181818;stroke-width:1.0;" x1="505.5977" x2="547.5977" y1="401.8613" y2="401.8613"/><line style="stroke:#181818;stroke-width:1.0;" x1="547.5977" x2="547.5977" y1="401.8613" y2="414.8613"/><line style="stroke:#181818;stroke-width:1.0;" x1="506.5977" x2="547.5977" y1="414.8613" y2="414.8613"/><polygon fill="#181818" points="516.5977,410.8613,506.5977,414.8613,516.5977,418.8613,512.5977,414.8613" style="stroke:#181818;stroke-width:1.0;"/><text fill="#000000" font-family="sans-serif" font-size="13" font-weight="bold" lengthAdjust="spacing" textLength="7.23" x="512.5977" y="396.5986">8</text><text fill="#000000" font-family="sans-serif" font-size="13" lengthAdjust="spacing" textLength="250.7388" x="523.8276" y="396.5986">createMaintenanceType(name, description)</text><line style="stroke:#000000;stroke-width:1.0;stroke-dasharray:2.0,2.0;" x1="10" x2="835.5728" y1="423.8613" y2="423.8613"/><text fill="#000000" font-family="sans-serif" font-size="11" font-weight="bold" lengthAdjust="spacing" textLength="124.3999" x="15" y="435.7314">[hasDescription = false]</text><line style="stroke:#181818;stroke-width:1.0;" x1="505.5977" x2="547.5977" y1="462.7832" y2="462.7832"/><line style="stroke:#181818;stroke-width:1.0;" x1="547.5977" x2="547.5977" y1="462.7832" y2="475.7832"/><line style="stroke:#181818;stroke-width:1.0;" x1="506.5977" x2="547.5977" y1="475.7832" y2="475.7832"/><polygon fill="#181818" points="516.5977,471.7832,506.5977,475.7832,516.5977,479.7832,512.5977,475.7832" style="stroke:#181818;stroke-width:1.0;"/><text fill="#000000" font-family="sans-serif" font-size="13" font-weight="bold" lengthAdjust="spacing" textLength="7.23" x="512.5977" y="457.5205">9</text><text fill="#000000" font-family="sans-serif" font-size="13" lengthAdjust="spacing" textLength="289.7451" x="523.8276" y="457.5205">createMaintenanceTypeWithoutDescription(name)</text><path d="M10,497.7832 L70.1709,497.7832 L70.1709,507.0742 L60.1709,517.0742 L10,517.0742 L10,497.7832 " fill="#EEEEEE" style="stroke:#000000;stroke-width:1.5;"/><rect fill="none" height="98.5039" style="stroke:#000000;stroke-width:1.5;" width="532.8804" x="10" y="497.7832"/><text fill="#000000" font-family="sans-serif" font-size="13" font-weight="bold" lengthAdjust="spacing" textLength="15.1709" x="25" y="512.8115">alt</text><text fill="#000000" font-family="sans-serif" font-size="11" font-weight="bold" lengthAdjust="spacing" textLength="110.0376" x="85.1709" y="511.6533">[creation successful]</text><polygon fill="#181818" points="75.5723,536.3652,65.5723,540.3652,75.5723,544.3652,71.5723,540.3652" style="stroke:#181818;stroke-width:1.0;"/><line style="stroke:#181818;stroke-width:1.0;stroke-dasharray:2.0,2.0;" x1="69.5723" x2="494.5977" y1="540.3652" y2="540.3652"/><text fill="#000000" font-family="sans-serif" font-size="13" font-weight="bold" lengthAdjust="spacing" textLength="14.46" x="81.5723" y="535.1025">10</text><text fill="#000000" font-family="sans-serif" font-size="13" lengthAdjust="spacing" textLength="340.8818" x="100.0322" y="535.1025">successMessage("Maintenance type created successfully")</text><line style="stroke:#000000;stroke-width:1.0;stroke-dasharray:2.0,2.0;" x1="10" x2="542.8804" y1="549.3652" y2="549.3652"/><text fill="#000000" font-family="sans-serif" font-size="11" font-weight="bold" lengthAdjust="spacing" textLength="111.8906" x="15" y="561.2354">[name already exists]</text><polygon fill="#181818" points="75.5723,584.2871,65.5723,588.2871,75.5723,592.2871,71.5723,588.2871" style="stroke:#181818;stroke-width:1.0;"/><line style="stroke:#181818;stroke-width:1.0;stroke-dasharray:2.0,2.0;" x1="69.5723" x2="494.5977" y1="588.2871" y2="588.2871"/><text fill="#000000" font-family="sans-serif" font-size="13" font-weight="bold" lengthAdjust="spacing" textLength="14.46" x="81.5723" y="583.0244">11</text><text fill="#000000" font-family="sans-serif" font-size="13" lengthAdjust="spacing" textLength="388.5654" x="100.0322" y="583.0244">errorMessage("A Maintenance Type with that name already exists")</text><!--SRC=[bLF1ReCm3Btp5HQdLbf_eD8cLUEwNQYqivUu41KIbfXs_FqSO5tQSkYGG57iv_UUiSFHs0uzjj0wwrJjNKl0lgSiN28TgYDMLFBG47XIZBPgqeHGetPdOoiuO1CeozYmf9P3O6gXfA-Uh28e35OnVLMMnHesiDCQtj1O9einlXywmMBFplRj9tavAtOUyi8xAs5ITGuOeDXdmij6cGujGxwTYCROT1oHveHCCJahzh1vcKDRSI1w0WjxGXwvL-i_s5ndjh0HUB6_G6zmxzX6hAPRz0rnvzt9Q5f2M_ayoYx22mhAcuwDiuyGAsSFnhS9whLsHj6gnf1StWl0Xk4w1vwdwG1vbkLTQujvz_hYxM9lKh1EbKN4KfLV3ObPJv9p-sjZWv_WgYJ9gDwxcoRu7wK_3DUklx8z_KsoEXixEC9YzT0hHI4S-cQfVtFqJLxPjbMUhWOBqKolapBDaCy-8YLW8nbw0FesWSCI1tdl_8LXTxT-S1Otm3NoKiLyChKmRycLBDmF]--></g></svg>