<svg xmlns="http://www.w3.org/2000/svg" xmlns:xlink="http://www.w3.org/1999/xlink" contentStyleType="text/css" height="646px" preserveAspectRatio="none" style="width:701px;height:646px;background:#FFFFFF;" version="1.1" viewBox="0 0 701 646" width="701px" zoomAndPan="magnify"><title>System Sequence Diagram (SSD) - Add Maintenance Type</title><defs/><g><text fill="#000000" font-family="sans-serif" font-size="14" font-weight="bold" lengthAdjust="spacing" textLength="386.6543" x="164.3315" y="30.1074">System Sequence Diagram (SSD) - Add Maintenance Type</text><rect fill="#FFFFFF" height="420.4629" style="stroke:#181818;stroke-width:1.0;" width="10" x="64.5723" y="133.2422"/><rect fill="#FFFFFF" height="31.291" style="stroke:#181818;stroke-width:1.0;" width="10" x="442.085" y="156.5332"/><rect fill="#FFFFFF" height="101.873" style="stroke:#181818;stroke-width:1.0;" width="10" x="442.085" y="219.1152"/><rect fill="none" height="268.2988" style="stroke:#000000;stroke-width:1.5;" width="647.9629" x="10" y="278.4063"/><rect fill="none" height="98.5039" style="stroke:#000000;stroke-width:1.5;" width="469.3677" x="20" y="441.2012"/><line style="stroke:#181818;stroke-width:0.5;stroke-dasharray:5.0,5.0;" x1="69" x2="69" y1="123.2422" y2="563.7051"/><line style="stroke:#181818;stroke-width:0.5;stroke-dasharray:5.0,5.0;" x1="446.8022" x2="446.8022" y1="123.2422" y2="563.7051"/><text fill="#000000" font-family="sans-serif" font-size="14" lengthAdjust="spacing" textLength="73.1445" x="30" y="119.7285">Drone Tech</text><ellipse cx="69.5723" cy="53.1211" fill="#E3E3E3" rx="8" ry="8" style="stroke:#181818;stroke-width:0.5;"/><path d="M69.5723,61.1211 L69.5723,88.1211 M56.5723,69.1211 L82.5723,69.1211 M69.5723,88.1211 L56.5723,103.1211 M69.5723,88.1211 L82.5723,103.1211 " fill="none" style="stroke:#181818;stroke-width:0.5;"/><text fill="#000000" font-family="sans-serif" font-size="14" lengthAdjust="spacing" textLength="73.1445" x="30" y="577.8125">Drone Tech</text><ellipse cx="69.5723" cy="589.8262" fill="#E3E3E3" rx="8" ry="8" style="stroke:#181818;stroke-width:0.5;"/><path d="M69.5723,597.8262 L69.5723,624.8262 M56.5723,605.8262 L82.5723,605.8262 M69.5723,624.8262 L56.5723,639.8262 M69.5723,624.8262 L82.5723,639.8262 " fill="none" style="stroke:#181818;stroke-width:0.5;"/><rect fill="#E3E3E3" height="32.6211" rx="2.5" ry="2.5" style="stroke:#181818;stroke-width:0.5;" width="64.5654" x="414.8022" y="89.6211"/><text fill="#000000" font-family="sans-serif" font-size="14" lengthAdjust="spacing" textLength="50.5654" x="421.8022" y="111.7285">:System</text><rect fill="#E3E3E3" height="32.6211" rx="2.5" ry="2.5" style="stroke:#181818;stroke-width:0.5;" width="64.5654" x="414.8022" y="562.7051"/><text fill="#000000" font-family="sans-serif" font-size="14" lengthAdjust="spacing" textLength="50.5654" x="421.8022" y="584.8125">:System</text><rect fill="#FFFFFF" height="420.4629" style="stroke:#181818;stroke-width:1.0;" width="10" x="64.5723" y="133.2422"/><rect fill="#FFFFFF" height="31.291" style="stroke:#181818;stroke-width:1.0;" width="10" x="442.085" y="156.5332"/><rect fill="#FFFFFF" height="101.873" style="stroke:#181818;stroke-width:1.0;" width="10" x="442.085" y="219.1152"/><polygon fill="#181818" points="430.085,152.5332,440.085,156.5332,430.085,160.5332,434.085,156.5332" style="stroke:#181818;stroke-width:1.0;"/><line style="stroke:#181818;stroke-width:1.0;" x1="74.5723" x2="436.085" y1="156.5332" y2="156.5332"/><text fill="#000000" font-family="sans-serif" font-size="13" font-weight="bold" lengthAdjust="spacing" textLength="7.23" x="81.5723" y="151.2705">1</text><text fill="#000000" font-family="sans-serif" font-size="13" lengthAdjust="spacing" textLength="178.4897" x="92.8022" y="151.2705">requestAddMaintenanceType()</text><polygon fill="#181818" points="85.5723,183.8242,75.5723,187.8242,85.5723,191.8242,81.5723,187.8242" style="stroke:#181818;stroke-width:1.0;"/><line style="stroke:#181818;stroke-width:1.0;stroke-dasharray:2.0,2.0;" x1="79.5723" x2="446.085" y1="187.8242" y2="187.8242"/><text fill="#000000" font-family="sans-serif" font-size="13" font-weight="bold" lengthAdjust="spacing" textLength="7.23" x="91.5723" y="182.5615">2</text><text fill="#000000" font-family="sans-serif" font-size="13" lengthAdjust="spacing" textLength="195.0952" x="102.8022" y="182.5615">requestMaintenanceTypeDetails()</text><polygon fill="#181818" points="430.085,215.1152,440.085,219.1152,430.085,223.1152,434.085,219.1152" style="stroke:#181818;stroke-width:1.0;"/><line style="stroke:#181818;stroke-width:1.0;" x1="74.5723" x2="436.085" y1="219.1152" y2="219.1152"/><text fill="#000000" font-family="sans-serif" font-size="13" font-weight="bold" lengthAdjust="spacing" textLength="7.23" x="81.5723" y="213.8525">3</text><text fill="#000000" font-family="sans-serif" font-size="13" lengthAdjust="spacing" textLength="226.8906" x="92.8022" y="213.8525">provideMaintenanceTypeDetails(name)</text><line style="stroke:#181818;stroke-width:1.0;" x1="452.085" x2="494.085" y1="250.4063" y2="250.4063"/><line style="stroke:#181818;stroke-width:1.0;" x1="494.085" x2="494.085" y1="250.4063" y2="263.4063"/><line style="stroke:#181818;stroke-width:1.0;" x1="453.085" x2="494.085" y1="263.4063" y2="263.4063"/><polygon fill="#181818" points="463.085,259.4063,453.085,263.4063,463.085,267.4063,459.085,263.4063" style="stroke:#181818;stroke-width:1.0;"/><text fill="#000000" font-family="sans-serif" font-size="13" font-weight="bold" lengthAdjust="spacing" textLength="7.23" x="459.085" y="245.1436">4</text><text fill="#000000" font-family="sans-serif" font-size="13" lengthAdjust="spacing" textLength="224.0024" x="470.3149" y="245.1436">validateMaintenanceTypeName(name)</text><path d="M10,278.4063 L70.1709,278.4063 L70.1709,287.6973 L60.1709,297.6973 L10,297.6973 L10,278.4063 " fill="#EEEEEE" style="stroke:#000000;stroke-width:1.5;"/><rect fill="none" height="268.2988" style="stroke:#000000;stroke-width:1.5;" width="647.9629" x="10" y="278.4063"/><text fill="#000000" font-family="sans-serif" font-size="13" font-weight="bold" lengthAdjust="spacing" textLength="15.1709" x="25" y="293.4346">alt</text><text fill="#000000" font-family="sans-serif" font-size="11" font-weight="bold" lengthAdjust="spacing" textLength="107.5562" x="85.1709" y="292.2764">[name is not unique]</text><polygon fill="#181818" points="85.5723,316.9883,75.5723,320.9883,85.5723,324.9883,81.5723,320.9883" style="stroke:#181818;stroke-width:1.0;"/><line style="stroke:#181818;stroke-width:1.0;stroke-dasharray:2.0,2.0;" x1="79.5723" x2="446.085" y1="320.9883" y2="320.9883"/><text fill="#000000" font-family="sans-serif" font-size="13" font-weight="bold" lengthAdjust="spacing" textLength="7.23" x="91.5723" y="315.7256">5</text><text fill="#000000" font-family="sans-serif" font-size="13" lengthAdjust="spacing" textLength="298.2573" x="102.8022" y="315.7256">errorMessage("Duplicate maintenance type name!")</text><line style="stroke:#000000;stroke-width:1.0;stroke-dasharray:2.0,2.0;" x1="10" x2="657.9629" y1="329.9883" y2="329.9883"/><text fill="#000000" font-family="sans-serif" font-size="11" font-weight="bold" lengthAdjust="spacing" textLength="87.3984" x="15" y="341.8584">[name is unique]</text><line style="stroke:#181818;stroke-width:1.0;" x1="447.085" x2="489.085" y1="368.9102" y2="368.9102"/><line style="stroke:#181818;stroke-width:1.0;" x1="489.085" x2="489.085" y1="368.9102" y2="381.9102"/><line style="stroke:#181818;stroke-width:1.0;" x1="448.085" x2="489.085" y1="381.9102" y2="381.9102"/><polygon fill="#181818" points="458.085,377.9102,448.085,381.9102,458.085,385.9102,454.085,381.9102" style="stroke:#181818;stroke-width:1.0;"/><text fill="#000000" font-family="sans-serif" font-size="13" font-weight="bold" lengthAdjust="spacing" textLength="7.23" x="454.085" y="363.6475">6</text><text fill="#000000" font-family="sans-serif" font-size="13" lengthAdjust="spacing" textLength="180.6479" x="465.3149" y="363.6475">createMaintenanceType(name)</text><line style="stroke:#181818;stroke-width:1.0;" x1="447.085" x2="489.085" y1="413.2012" y2="413.2012"/><line style="stroke:#181818;stroke-width:1.0;" x1="489.085" x2="489.085" y1="413.2012" y2="426.2012"/><line style="stroke:#181818;stroke-width:1.0;" x1="448.085" x2="489.085" y1="426.2012" y2="426.2012"/><polygon fill="#181818" points="458.085,422.2012,448.085,426.2012,458.085,430.2012,454.085,426.2012" style="stroke:#181818;stroke-width:1.0;"/><text fill="#000000" font-family="sans-serif" font-size="13" font-weight="bold" lengthAdjust="spacing" textLength="7.23" x="454.085" y="407.9385">7</text><text fill="#000000" font-family="sans-serif" font-size="13" lengthAdjust="spacing" textLength="139.458" x="465.3149" y="407.9385">saveMaintenanceType()</text><path d="M20,441.2012 L80.1709,441.2012 L80.1709,450.4922 L70.1709,460.4922 L20,460.4922 L20,441.2012 " fill="#EEEEEE" style="stroke:#000000;stroke-width:1.5;"/><rect fill="none" height="98.5039" style="stroke:#000000;stroke-width:1.5;" width="469.3677" x="20" y="441.2012"/><text fill="#000000" font-family="sans-serif" font-size="13" font-weight="bold" lengthAdjust="spacing" textLength="15.1709" x="35" y="456.2295">alt</text><text fill="#000000" font-family="sans-serif" font-size="11" font-weight="bold" lengthAdjust="spacing" textLength="63.583" x="95.1709" y="455.0713">[save failed]</text><polygon fill="#181818" points="85.5723,479.7832,75.5723,483.7832,85.5723,487.7832,81.5723,483.7832" style="stroke:#181818;stroke-width:1.0;"/><line style="stroke:#181818;stroke-width:1.0;stroke-dasharray:2.0,2.0;" x1="79.5723" x2="446.085" y1="483.7832" y2="483.7832"/><text fill="#000000" font-family="sans-serif" font-size="13" font-weight="bold" lengthAdjust="spacing" textLength="7.23" x="91.5723" y="478.5205">8</text><text fill="#000000" font-family="sans-serif" font-size="13" lengthAdjust="spacing" textLength="288.8628" x="102.8022" y="478.5205">errorMessage("Failed to save maintenance type!")</text><line style="stroke:#000000;stroke-width:1.0;stroke-dasharray:2.0,2.0;" x1="20" x2="489.3677" y1="492.7832" y2="492.7832"/><text fill="#000000" font-family="sans-serif" font-size="11" font-weight="bold" lengthAdjust="spacing" textLength="91.7168" x="25" y="504.6533">[save succeeded]</text><polygon fill="#181818" points="85.5723,527.7051,75.5723,531.7051,85.5723,535.7051,81.5723,531.7051" style="stroke:#181818;stroke-width:1.0;"/><line style="stroke:#181818;stroke-width:1.0;stroke-dasharray:2.0,2.0;" x1="79.5723" x2="446.085" y1="531.7051" y2="531.7051"/><text fill="#000000" font-family="sans-serif" font-size="13" font-weight="bold" lengthAdjust="spacing" textLength="7.23" x="91.5723" y="526.4424">9</text><text fill="#000000" font-family="sans-serif" font-size="13" lengthAdjust="spacing" textLength="337.2827" x="102.8022" y="526.4424">successMessage("Maintenance type added successfully!")</text><!--SRC=[XL9BRi8m4Dtd5DEiOC45M5Ig57L7Dya5flOGB1mxjSTKtBvZ0o4Ae6PbvVtcUHoFneqOS831EwyEmGy4719LSK96L4VigUMp9GYa65rlvuHuGEr_ZUjXZpPILR5XeRRdo3H0Ip-9d29e3FQPlchRPWqR-D0QTcWSayECT-THj9ZOkpHyKv2pOX-WRe9t0fCwr80HcgwIN3RAZEWOwkqbg62NOr6Q4p9bSjLqi7c_Gbjf8FD4blHPUCvUhU-ogy-rmaRaJJT95xg668sD8jUqD5XaZy6VZAON1Wu7UZt3tUM4rcXXB6o-H7xpi0pv12Q2ymp96Pcy0laMbIW47tOKesnuLJTfj4Rby66s61RpOlTMhul7Oq-IlK-9JzBkmwj0ZwDVntwkY7YYnrLbRgwPKNbtnf8k__xj-5cumFuYNHQzTIoD2YCcfOZqQ_z2Y75As2tl3hMeRxHzilOyfJZzwaO5cJyeUSX_]--></g></svg>