<svg xmlns="http://www.w3.org/2000/svg" xmlns:xlink="http://www.w3.org/1999/xlink" contentStyleType="text/css" height="544px" preserveAspectRatio="none" style="width:1103px;height:544px;background:#FFFFFF;" version="1.1" viewBox="0 0 1103 544" width="1103px" zoomAndPan="magnify"><title>UI Sequence Diagram (SSD) - Figure Description Language Parsing and Validation</title><defs/><g><text fill="#000000" font-family="sans-serif" font-size="14" font-weight="bold" lengthAdjust="spacing" textLength="565.0938" x="268.1842" y="29.9659">UI Sequence Diagram (SSD) - Figure Description Language Parsing and Validation</text><rect fill="#FFFFFF" height="309.0602" style="stroke:#181818;stroke-width:1.0;" width="10" x="52.8328" y="134.1358"/><rect fill="#FFFFFF" height="285.3541" style="stroke:#181818;stroke-width:1.0;" width="10" x="336.598" y="157.8419"/><rect fill="#FFFFFF" height="158.5301" style="stroke:#181818;stroke-width:1.0;" width="10" x="569.8712" y="189.5479"/><rect fill="#FFFFFF" height="31.706" style="stroke:#181818;stroke-width:1.0;" width="10" x="737.0443" y="284.6659"/><rect fill="#FFFFFF" height="31.706" style="stroke:#181818;stroke-width:1.0;" width="10" x="852.7229" y="221.2539"/><rect fill="#FFFFFF" height="31.706" style="stroke:#181818;stroke-width:1.0;" width="10" x="1003.2404" y="379.784"/><line style="stroke:#181818;stroke-width:0.5;stroke-dasharray:5.0,5.0;" x1="57" x2="57" y1="124.1358" y2="461.196"/><line style="stroke:#181818;stroke-width:0.5;stroke-dasharray:5.0,5.0;" x1="340.6563" x2="340.6563" y1="124.1358" y2="461.196"/><line style="stroke:#181818;stroke-width:0.5;stroke-dasharray:5.0,5.0;" x1="574.3884" x2="574.3884" y1="124.1358" y2="461.196"/><line style="stroke:#181818;stroke-width:0.5;stroke-dasharray:5.0,5.0;" x1="741.6615" x2="741.6615" y1="124.1358" y2="461.196"/><line style="stroke:#181818;stroke-width:0.5;stroke-dasharray:5.0,5.0;" x1="857.4271" x2="857.4271" y1="124.1358" y2="461.196"/><line style="stroke:#181818;stroke-width:0.5;stroke-dasharray:5.0,5.0;" x1="1008.0188" x2="1008.0188" y1="124.1358" y2="461.196"/><text fill="#000000" font-family="sans-serif" font-size="14" lengthAdjust="spacing" textLength="99.6656" x="5" y="120.0339">Product Owner</text><ellipse cx="57.8328" cy="53.5679" fill="#E3E3E3" rx="8" ry="8" style="stroke:#181818;stroke-width:0.5;"/><path d="M57.8328,61.5679 L57.8328,88.5679 M44.8328,69.5679 L70.8328,69.5679 M57.8328,88.5679 L44.8328,103.5679 M57.8328,88.5679 L70.8328,103.5679 " fill="none" style="stroke:#181818;stroke-width:0.5;"/><text fill="#000000" font-family="sans-serif" font-size="14" lengthAdjust="spacing" textLength="99.6656" x="5" y="475.1619">Product Owner</text><ellipse cx="57.8328" cy="487.7639" fill="#E3E3E3" rx="8" ry="8" style="stroke:#181818;stroke-width:0.5;"/><path d="M57.8328,495.7639 L57.8328,522.7639 M44.8328,503.7639 L70.8328,503.7639 M57.8328,522.7639 L44.8328,537.7639 M57.8328,522.7639 L70.8328,537.7639 " fill="none" style="stroke:#181818;stroke-width:0.5;"/><rect fill="#E3E3E3" height="33.0679" rx="2.5" ry="2.5" style="stroke:#181818;stroke-width:0.5;" width="149.8835" x="266.6563" y="90.0679"/><text fill="#000000" font-family="sans-serif" font-size="14" lengthAdjust="spacing" textLength="135.8835" x="273.6563" y="112.0339">:FigureDescriptionUI</text><rect fill="#E3E3E3" height="33.0679" rx="2.5" ry="2.5" style="stroke:#181818;stroke-width:0.5;" width="149.8835" x="266.6563" y="460.196"/><text fill="#000000" font-family="sans-serif" font-size="14" lengthAdjust="spacing" textLength="135.8835" x="273.6563" y="482.1619">:FigureDescriptionUI</text><rect fill="#E3E3E3" height="33.0679" rx="2.5" ry="2.5" style="stroke:#181818;stroke-width:0.5;" width="154.9655" x="497.3884" y="90.0679"/><text fill="#000000" font-family="sans-serif" font-size="14" lengthAdjust="spacing" textLength="140.9655" x="504.3884" y="112.0339">:FiguresParserFacade</text><rect fill="#E3E3E3" height="33.0679" rx="2.5" ry="2.5" style="stroke:#181818;stroke-width:0.5;" width="154.9655" x="497.3884" y="460.196"/><text fill="#000000" font-family="sans-serif" font-size="14" lengthAdjust="spacing" textLength="140.9655" x="504.3884" y="482.1619">:FiguresParserFacade</text><rect fill="#E3E3E3" height="33.0679" rx="2.5" ry="2.5" style="stroke:#181818;stroke-width:0.5;" width="108.7657" x="687.6615" y="90.0679"/><text fill="#000000" font-family="sans-serif" font-size="14" lengthAdjust="spacing" textLength="94.7657" x="694.6615" y="112.0339">:FiguresParser</text><rect fill="#E3E3E3" height="33.0679" rx="2.5" ry="2.5" style="stroke:#181818;stroke-width:0.5;" width="108.7657" x="687.6615" y="460.196"/><text fill="#000000" font-family="sans-serif" font-size="14" lengthAdjust="spacing" textLength="94.7657" x="694.6615" y="482.1619">:FiguresParser</text><rect fill="#E3E3E3" height="33.0679" rx="2.5" ry="2.5" style="stroke:#181818;stroke-width:0.5;" width="102.5917" x="806.4271" y="90.0679"/><text fill="#000000" font-family="sans-serif" font-size="14" lengthAdjust="spacing" textLength="88.5917" x="813.4271" y="112.0339">:FiguresLexer</text><rect fill="#E3E3E3" height="33.0679" rx="2.5" ry="2.5" style="stroke:#181818;stroke-width:0.5;" width="102.5917" x="806.4271" y="460.196"/><text fill="#000000" font-family="sans-serif" font-size="14" lengthAdjust="spacing" textLength="88.5917" x="813.4271" y="482.1619">:FiguresLexer</text><rect fill="#E3E3E3" height="33.0679" rx="2.5" ry="2.5" style="stroke:#181818;stroke-width:0.5;" width="178.4434" x="919.0188" y="90.0679"/><text fill="#000000" font-family="sans-serif" font-size="14" lengthAdjust="spacing" textLength="164.4434" x="926.0188" y="112.0339">:FiguresLanguageService</text><rect fill="#E3E3E3" height="33.0679" rx="2.5" ry="2.5" style="stroke:#181818;stroke-width:0.5;" width="178.4434" x="919.0188" y="460.196"/><text fill="#000000" font-family="sans-serif" font-size="14" lengthAdjust="spacing" textLength="164.4434" x="926.0188" y="482.1619">:FiguresLanguageService</text><rect fill="#FFFFFF" height="309.0602" style="stroke:#181818;stroke-width:1.0;" width="10" x="52.8328" y="134.1358"/><rect fill="#FFFFFF" height="285.3541" style="stroke:#181818;stroke-width:1.0;" width="10" x="336.598" y="157.8419"/><rect fill="#FFFFFF" height="158.5301" style="stroke:#181818;stroke-width:1.0;" width="10" x="569.8712" y="189.5479"/><rect fill="#FFFFFF" height="31.706" style="stroke:#181818;stroke-width:1.0;" width="10" x="737.0443" y="284.6659"/><rect fill="#FFFFFF" height="31.706" style="stroke:#181818;stroke-width:1.0;" width="10" x="852.7229" y="221.2539"/><rect fill="#FFFFFF" height="31.706" style="stroke:#181818;stroke-width:1.0;" width="10" x="1003.2404" y="379.784"/><polygon fill="#181818" points="324.598,153.8419,334.598,157.8419,324.598,161.8419,328.598,157.8419" style="stroke:#181818;stroke-width:1.0;"/><line style="stroke:#181818;stroke-width:1.0;" x1="62.8328" x2="330.598" y1="157.8419" y2="157.8419"/><text fill="#000000" font-family="sans-serif" font-size="13" font-weight="bold" lengthAdjust="spacing" textLength="7.436" x="69.8328" y="152.0328">1</text><text fill="#000000" font-family="sans-serif" font-size="13" lengthAdjust="spacing" textLength="182.9232" x="81.2688" y="152.0328">inputs figure description code</text><polygon fill="#181818" points="557.8712,185.5479,567.8712,189.5479,557.8712,193.5479,561.8712,189.5479" style="stroke:#181818;stroke-width:1.0;"/><line style="stroke:#181818;stroke-width:1.0;" x1="346.598" x2="563.8712" y1="189.5479" y2="189.5479"/><text fill="#000000" font-family="sans-serif" font-size="13" font-weight="bold" lengthAdjust="spacing" textLength="7.436" x="353.598" y="183.7389">2</text><text fill="#000000" font-family="sans-serif" font-size="13" lengthAdjust="spacing" textLength="71.4481" x="365.034" y="183.7389">parse(code)</text><polygon fill="#181818" points="840.7229,217.2539,850.7229,221.2539,840.7229,225.2539,844.7229,221.2539" style="stroke:#181818;stroke-width:1.0;"/><line style="stroke:#181818;stroke-width:1.0;" x1="579.8712" x2="846.7229" y1="221.2539" y2="221.2539"/><text fill="#000000" font-family="sans-serif" font-size="13" font-weight="bold" lengthAdjust="spacing" textLength="7.436" x="586.8712" y="215.4449">3</text><text fill="#000000" font-family="sans-serif" font-size="13" lengthAdjust="spacing" textLength="88.8941" x="598.3072" y="215.4449">tokenize(code)</text><polygon fill="#181818" points="590.8712,248.9599,580.8712,252.9599,590.8712,256.9599,586.8712,252.9599" style="stroke:#181818;stroke-width:1.0;"/><line style="stroke:#181818;stroke-width:1.0;stroke-dasharray:2.0,2.0;" x1="584.8712" x2="856.7229" y1="252.9599" y2="252.9599"/><text fill="#000000" font-family="sans-serif" font-size="13" font-weight="bold" lengthAdjust="spacing" textLength="7.436" x="596.8712" y="247.1509">4</text><text fill="#000000" font-family="sans-serif" font-size="13" lengthAdjust="spacing" textLength="41.093" x="608.3072" y="247.1509">tokens</text><polygon fill="#181818" points="725.0443,280.6659,735.0443,284.6659,725.0443,288.6659,729.0443,284.6659" style="stroke:#181818;stroke-width:1.0;"/><line style="stroke:#181818;stroke-width:1.0;" x1="579.8712" x2="731.0443" y1="284.6659" y2="284.6659"/><text fill="#000000" font-family="sans-serif" font-size="13" font-weight="bold" lengthAdjust="spacing" textLength="7.436" x="586.8712" y="278.8569">5</text><text fill="#000000" font-family="sans-serif" font-size="13" lengthAdjust="spacing" textLength="126.7371" x="598.3072" y="278.8569">parseTokens(tokens)</text><polygon fill="#181818" points="590.8712,312.3719,580.8712,316.3719,590.8712,320.3719,586.8712,316.3719" style="stroke:#181818;stroke-width:1.0;"/><line style="stroke:#181818;stroke-width:1.0;stroke-dasharray:2.0,2.0;" x1="584.8712" x2="741.0443" y1="316.3719" y2="316.3719"/><text fill="#000000" font-family="sans-serif" font-size="13" font-weight="bold" lengthAdjust="spacing" textLength="7.436" x="596.8712" y="310.5629">6</text><text fill="#000000" font-family="sans-serif" font-size="13" lengthAdjust="spacing" textLength="119.0021" x="608.3072" y="310.5629">parseTree or errors</text><polygon fill="#181818" points="357.598,344.0779,347.598,348.0779,357.598,352.0779,353.598,348.0779" style="stroke:#181818;stroke-width:1.0;"/><line style="stroke:#181818;stroke-width:1.0;stroke-dasharray:2.0,2.0;" x1="351.598" x2="573.8712" y1="348.0779" y2="348.0779"/><text fill="#000000" font-family="sans-serif" font-size="13" font-weight="bold" lengthAdjust="spacing" textLength="7.436" x="363.598" y="342.2689">7</text><text fill="#000000" font-family="sans-serif" font-size="13" lengthAdjust="spacing" textLength="187.8372" x="375.034" y="342.2689">parse result (success or errors)</text><polygon fill="#181818" points="991.2404,375.784,1001.2404,379.784,991.2404,383.784,995.2404,379.784" style="stroke:#181818;stroke-width:1.0;"/><line style="stroke:#181818;stroke-width:1.0;" x1="346.598" x2="997.2404" y1="379.784" y2="379.784"/><text fill="#000000" font-family="sans-serif" font-size="13" font-weight="bold" lengthAdjust="spacing" textLength="7.436" x="353.598" y="373.975">8</text><text fill="#000000" font-family="sans-serif" font-size="13" lengthAdjust="spacing" textLength="85.1501" x="365.034" y="373.975">validate(code)</text><polygon fill="#181818" points="357.598,407.49,347.598,411.49,357.598,415.49,353.598,411.49" style="stroke:#181818;stroke-width:1.0;"/><line style="stroke:#181818;stroke-width:1.0;stroke-dasharray:2.0,2.0;" x1="351.598" x2="1007.2404" y1="411.49" y2="411.49"/><text fill="#000000" font-family="sans-serif" font-size="13" font-weight="bold" lengthAdjust="spacing" textLength="7.436" x="363.598" y="405.681">9</text><text fill="#000000" font-family="sans-serif" font-size="13" lengthAdjust="spacing" textLength="101.8421" x="375.034" y="405.681">validation report</text><polygon fill="#181818" points="68.8328,439.196,58.8328,443.196,68.8328,447.196,64.8328,443.196" style="stroke:#181818;stroke-width:1.0;"/><line style="stroke:#181818;stroke-width:1.0;" x1="62.8328" x2="340.598" y1="443.196" y2="443.196"/><text fill="#000000" font-family="sans-serif" font-size="13" font-weight="bold" lengthAdjust="spacing" textLength="14.872" x="74.8328" y="437.387">10</text><text fill="#000000" font-family="sans-serif" font-size="13" lengthAdjust="spacing" textLength="230.8932" x="93.7048" y="437.387">show parsing and validation feedback</text><!--SRC=[VPJ1ZXen38RlUGgB4tlW1VRGqsebf9K6QKhltemP8ePawYJGzkdh9CCqm6mvJPpVNtxR2Vvax8YCPpWxw_IHtPaWS2JbvvqHzGbxQiFlWO191xJzK0ly4JjtDRQ70mwUb0ecY7I_XPP-HhAQuCrWdwJhjdrxWGsycpwoXCbhDcCmpiA7OAES0pjads1eE_Y1W-amxIk5CJWRpv_4ygs3OrZjs7LH1sYkbdW5w67NA34LZ3OZsW2hrt9ITT1-cuNxxQBGfzE9tr5ZHuLO1VwNKecNPH_qQrBbhoz4KnTQuelHnK6AJUjSkRbWe5If0ldj6jXyIyr-1Hb831uEfRbTrLpjn7nIp-bIVmv8egJNHGfeJCjrIdgvpxfhHjxA5kfieUNw11FSYQpvKvFkQAKFSxoaRPxjP8wVTHrzHNWqKjQtWhvdpBhG5knCmtkWBHagE2O2kON4x7ZHtJBmPkysjGoJX-NZ463jezRa_JzmCVf4hMTGPbXT4w5UoijPdEBTXSgThr9dNvVvxOcvqN5uDFA4cUvI8yd-wAwvijjBhcW7ekvJ_bIKgc1o7-iQ6_KN]--></g></svg>