<svg xmlns="http://www.w3.org/2000/svg" xmlns:xlink="http://www.w3.org/1999/xlink" contentStyleType="text/css" height="705px" preserveAspectRatio="none" style="width:593px;height:705px;background:#FFFFFF;" version="1.1" viewBox="0 0 593 705" width="593px" zoomAndPan="magnify"><title>Class Diagram - US213 - List Users</title><defs/><g><text fill="#000000" font-family="sans-serif" font-size="14" font-weight="bold" lengthAdjust="spacing" textLength="232.6543" x="173.1729" y="25.1074">Class Diagram - US213 - List Users</text><!--cluster usermanagement--><g id="cluster_usermanagement"><path d="M8.5,45.6348 L125.4307,45.6348 A3.75,3.75 0 0 1 127.9307,48.1348 L134.9307,70.2559 L583.5,70.2559 A2.5,2.5 0 0 1 586,72.7559 L586,696.1348 A2.5,2.5 0 0 1 583.5,698.6348 L8.5,698.6348 A2.5,2.5 0 0 1 6,696.1348 L6,48.1348 A2.5,2.5 0 0 1 8.5,45.6348 " fill="none" style="stroke:#000000;stroke-width:1.5;"/><line style="stroke:#000000;stroke-width:1.5;" x1="6" x2="134.9307" y1="70.2559" y2="70.2559"/><text fill="#000000" font-family="sans-serif" font-size="14" font-weight="bold" lengthAdjust="spacing" textLength="115.9307" x="10" y="62.7422">usermanagement</text></g><!--cluster domain--><g id="cluster_domain"><path d="M266.5,277.6348 L317.2793,277.6348 A3.75,3.75 0 0 1 319.7793,280.1348 L326.7793,302.2559 L559.5,302.2559 A2.5,2.5 0 0 1 562,304.7559 L562,672.1348 A2.5,2.5 0 0 1 559.5,674.6348 L266.5,674.6348 A2.5,2.5 0 0 1 264,672.1348 L264,280.1348 A2.5,2.5 0 0 1 266.5,277.6348 " fill="none" style="stroke:#000000;stroke-width:1.5;"/><line style="stroke:#000000;stroke-width:1.5;" x1="264" x2="326.7793" y1="302.2559" y2="302.2559"/><text fill="#000000" font-family="sans-serif" font-size="14" font-weight="bold" lengthAdjust="spacing" textLength="49.7793" x="268" y="294.7422">domain</text></g><!--cluster application--><g id="cluster_application"><path d="M32.5,90.6348 L107.3965,90.6348 A3.75,3.75 0 0 1 109.8965,93.1348 L116.8965,115.2559 L237.5,115.2559 A2.5,2.5 0 0 1 240,117.7559 L240,469.6348 A2.5,2.5 0 0 1 237.5,472.1348 L32.5,472.1348 A2.5,2.5 0 0 1 30,469.6348 L30,93.1348 A2.5,2.5 0 0 1 32.5,90.6348 " fill="none" style="stroke:#000000;stroke-width:1.5;"/><line style="stroke:#000000;stroke-width:1.5;" x1="30" x2="116.8965" y1="115.2559" y2="115.2559"/><text fill="#000000" font-family="sans-serif" font-size="14" font-weight="bold" lengthAdjust="spacing" textLength="73.8965" x="34" y="107.7422">application</text></g><!--class User--><g id="elem_User"><rect codeLine="6" fill="#F1F1F1" height="215.5898" id="User" rx="2.5" ry="2.5" style="stroke:#181818;stroke-width:0.5;" width="145.8477" x="280" y="314.6348"/><ellipse cx="333.8945" cy="330.6348" fill="#ADD1B2" rx="11" ry="11" style="stroke:#181818;stroke-width:1.0;"/><path d="M336.6602,326.5098 Q336.8164,326.291 337.0039,326.1816 Q337.1914,326.0723 337.4102,326.0723 Q337.7852,326.0723 338.0195,326.3379 Q338.2539,326.5879 338.2539,327.1973 L338.2539,328.6504 Q338.2539,329.2598 338.0195,329.5254 Q337.7852,329.791 337.4102,329.791 Q337.0664,329.791 336.8633,329.5879 Q336.6602,329.4004 336.5508,328.8848 Q336.5039,328.5254 336.3164,328.3379 Q335.9883,327.9629 335.3789,327.7441 Q334.7695,327.5254 334.1445,327.5254 Q333.3789,327.5254 332.7383,327.8535 Q332.1133,328.1816 331.6133,328.9316 Q331.1289,329.6816 331.1289,330.7129 L331.1289,331.8066 Q331.1289,333.041 332.0195,333.8691 Q332.9102,334.6816 334.5039,334.6816 Q335.4414,334.6816 336.0977,334.4316 Q336.4883,334.2754 336.9102,333.8379 Q337.1758,333.5723 337.3164,333.4941 Q337.4727,333.416 337.6758,333.416 Q338.0039,333.416 338.2539,333.6816 Q338.5195,333.9316 338.5195,334.2754 Q338.5195,334.6191 338.1758,335.0254 Q337.6758,335.6035 336.8789,335.9316 Q335.8008,336.3848 334.5039,336.3848 Q332.9883,336.3848 331.7852,335.7598 Q330.8008,335.2598 330.1133,334.1973 Q329.4258,333.1191 329.4258,331.8379 L329.4258,330.6816 Q329.4258,329.3535 330.0352,328.2129 Q330.6602,327.0566 331.7539,326.4473 Q332.8477,325.8223 334.082,325.8223 Q334.8164,325.8223 335.457,325.9941 Q336.1133,326.1504 336.6602,326.5098 Z " fill="#000000"/><text fill="#000000" font-family="sans-serif" font-size="14" lengthAdjust="spacing" textLength="29.5586" x="354.3945" y="336.4316">User</text><line style="stroke:#181818;stroke-width:0.5;" x1="281" x2="424.8477" y1="346.6348" y2="346.6348"/><text fill="#000000" font-family="sans-serif" font-size="14" lengthAdjust="spacing" textLength="54.4551" x="286" y="365.7422">-Email id</text><text fill="#000000" font-family="sans-serif" font-size="14" lengthAdjust="spacing" textLength="129.9375" x="286" y="384.3633">-Password password</text><text fill="#000000" font-family="sans-serif" font-size="14" lengthAdjust="spacing" textLength="80.1445" x="286" y="402.9844">-String name</text><text fill="#000000" font-family="sans-serif" font-size="14" lengthAdjust="spacing" textLength="133.8477" x="286" y="421.6055">-String phoneNumber</text><text fill="#000000" font-family="sans-serif" font-size="14" lengthAdjust="spacing" textLength="94.9512" x="286" y="440.2266">-boolean active</text><text fill="#000000" font-family="sans-serif" font-size="14" lengthAdjust="spacing" textLength="90.248" x="286" y="458.8477">-UserRole role</text><line style="stroke:#181818;stroke-width:0.5;" x1="281" x2="424.8477" y1="466.3613" y2="466.3613"/><text fill="#000000" font-family="sans-serif" font-size="14" lengthAdjust="spacing" textLength="123.3408" x="286" y="485.4688">+isActive(): boolean</text><text fill="#000000" font-family="sans-serif" font-size="14" lengthAdjust="spacing" textLength="93.7412" x="286" y="504.0898">+email(): Email</text><text fill="#000000" font-family="sans-serif" font-size="14" lengthAdjust="spacing" textLength="96.8721" x="286" y="522.7109">+name(): String</text></g><!--class Email--><g id="elem_Email"><rect codeLine="18" fill="#F1F1F1" height="66.6211" id="Email" rx="2.5" ry="2.5" style="stroke:#181818;stroke-width:0.5;" width="90.5928" x="280.5" y="591.6348"/><ellipse cx="306.1137" cy="607.6348" fill="#ADD1B2" rx="11" ry="11" style="stroke:#181818;stroke-width:1.0;"/><path d="M308.8793,603.5098 Q309.0355,603.291 309.223,603.1816 Q309.4105,603.0723 309.6293,603.0723 Q310.0043,603.0723 310.2387,603.3379 Q310.473,603.5879 310.473,604.1973 L310.473,605.6504 Q310.473,606.2598 310.2387,606.5254 Q310.0043,606.791 309.6293,606.791 Q309.2855,606.791 309.0824,606.5879 Q308.8793,606.4004 308.7699,605.8848 Q308.723,605.5254 308.5355,605.3379 Q308.2074,604.9629 307.598,604.7441 Q306.9887,604.5254 306.3637,604.5254 Q305.598,604.5254 304.9574,604.8535 Q304.3324,605.1816 303.8324,605.9316 Q303.348,606.6816 303.348,607.7129 L303.348,608.8066 Q303.348,610.041 304.2387,610.8691 Q305.1293,611.6816 306.723,611.6816 Q307.6605,611.6816 308.3168,611.4316 Q308.7074,611.2754 309.1293,610.8379 Q309.3949,610.5723 309.5355,610.4941 Q309.6918,610.416 309.8949,610.416 Q310.223,610.416 310.473,610.6816 Q310.7387,610.9316 310.7387,611.2754 Q310.7387,611.6191 310.3949,612.0254 Q309.8949,612.6035 309.098,612.9316 Q308.0199,613.3848 306.723,613.3848 Q305.2074,613.3848 304.0043,612.7598 Q303.0199,612.2598 302.3324,611.1973 Q301.6449,610.1191 301.6449,608.8379 L301.6449,607.6816 Q301.6449,606.3535 302.2543,605.2129 Q302.8793,604.0566 303.973,603.4473 Q305.0668,602.8223 306.3012,602.8223 Q307.0355,602.8223 307.6762,602.9941 Q308.3324,603.1504 308.8793,603.5098 Z " fill="#000000"/><text fill="#000000" font-family="sans-serif" font-size="14" lengthAdjust="spacing" textLength="35.0068" x="322.4723" y="613.4316">Email</text><line style="stroke:#181818;stroke-width:0.5;" x1="281.5" x2="370.0928" y1="623.6348" y2="623.6348"/><text fill="#000000" font-family="sans-serif" font-size="14" lengthAdjust="spacing" textLength="78.5928" x="286.5" y="642.7422">-String value</text><line style="stroke:#181818;stroke-width:0.5;" x1="281.5" x2="370.0928" y1="650.2559" y2="650.2559"/></g><!--class Password--><g id="elem_Password"><rect codeLine="22" fill="#F1F1F1" height="66.6211" id="Password" rx="2.5" ry="2.5" style="stroke:#181818;stroke-width:0.5;" width="138.8613" x="406.5" y="591.6348"/><ellipse cx="441.9267" cy="607.6348" fill="#ADD1B2" rx="11" ry="11" style="stroke:#181818;stroke-width:1.0;"/><path d="M444.6923,603.5098 Q444.8485,603.291 445.036,603.1816 Q445.2235,603.0723 445.4423,603.0723 Q445.8173,603.0723 446.0517,603.3379 Q446.286,603.5879 446.286,604.1973 L446.286,605.6504 Q446.286,606.2598 446.0517,606.5254 Q445.8173,606.791 445.4423,606.791 Q445.0985,606.791 444.8954,606.5879 Q444.6923,606.4004 444.5829,605.8848 Q444.536,605.5254 444.3485,605.3379 Q444.0204,604.9629 443.411,604.7441 Q442.8017,604.5254 442.1767,604.5254 Q441.411,604.5254 440.7704,604.8535 Q440.1454,605.1816 439.6454,605.9316 Q439.161,606.6816 439.161,607.7129 L439.161,608.8066 Q439.161,610.041 440.0517,610.8691 Q440.9423,611.6816 442.536,611.6816 Q443.4735,611.6816 444.1298,611.4316 Q444.5204,611.2754 444.9423,610.8379 Q445.2079,610.5723 445.3485,610.4941 Q445.5048,610.416 445.7079,610.416 Q446.036,610.416 446.286,610.6816 Q446.5517,610.9316 446.5517,611.2754 Q446.5517,611.6191 446.2079,612.0254 Q445.7079,612.6035 444.911,612.9316 Q443.8329,613.3848 442.536,613.3848 Q441.0204,613.3848 439.8173,612.7598 Q438.8329,612.2598 438.1454,611.1973 Q437.4579,610.1191 437.4579,608.8379 L437.4579,607.6816 Q437.4579,606.3535 438.0673,605.2129 Q438.6923,604.0566 439.786,603.4473 Q440.8798,602.8223 442.1142,602.8223 Q442.8485,602.8223 443.4892,602.9941 Q444.1454,603.1504 444.6923,603.5098 Z " fill="#000000"/><text fill="#000000" font-family="sans-serif" font-size="14" lengthAdjust="spacing" textLength="61.4688" x="460.4659" y="613.4316">Password</text><line style="stroke:#181818;stroke-width:0.5;" x1="407.5" x2="544.3613" y1="623.6348" y2="623.6348"/><text fill="#000000" font-family="sans-serif" font-size="14" lengthAdjust="spacing" textLength="126.8613" x="412.5" y="642.7422">-String hashedValue</text><line style="stroke:#181818;stroke-width:0.5;" x1="407.5" x2="544.3613" y1="650.2559" y2="650.2559"/></g><!--class ListUsersController--><g id="elem_ListUsersController"><rect codeLine="31" fill="#F1F1F1" height="85.2422" id="ListUsersController" rx="2.5" ry="2.5" style="stroke:#181818;stroke-width:0.5;" width="177.7305" x="46" y="127.6348"/><ellipse cx="73.0133" cy="143.6348" fill="#ADD1B2" rx="11" ry="11" style="stroke:#181818;stroke-width:1.0;"/><path d="M75.779,139.5098 Q75.9352,139.291 76.1227,139.1816 Q76.3102,139.0723 76.529,139.0723 Q76.904,139.0723 77.1383,139.3379 Q77.3727,139.5879 77.3727,140.1973 L77.3727,141.6504 Q77.3727,142.2598 77.1383,142.5254 Q76.904,142.791 76.529,142.791 Q76.1852,142.791 75.9821,142.5879 Q75.779,142.4004 75.6696,141.8848 Q75.6227,141.5254 75.4352,141.3379 Q75.1071,140.9629 74.4977,140.7441 Q73.8883,140.5254 73.2633,140.5254 Q72.4977,140.5254 71.8571,140.8535 Q71.2321,141.1816 70.7321,141.9316 Q70.2477,142.6816 70.2477,143.7129 L70.2477,144.8066 Q70.2477,146.041 71.1383,146.8691 Q72.029,147.6816 73.6227,147.6816 Q74.5602,147.6816 75.2165,147.4316 Q75.6071,147.2754 76.029,146.8379 Q76.2946,146.5723 76.4352,146.4941 Q76.5915,146.416 76.7946,146.416 Q77.1227,146.416 77.3727,146.6816 Q77.6383,146.9316 77.6383,147.2754 Q77.6383,147.6191 77.2946,148.0254 Q76.7946,148.6035 75.9977,148.9316 Q74.9196,149.3848 73.6227,149.3848 Q72.1071,149.3848 70.904,148.7598 Q69.9196,148.2598 69.2321,147.1973 Q68.5446,146.1191 68.5446,144.8379 L68.5446,143.6816 Q68.5446,142.3535 69.154,141.2129 Q69.779,140.0566 70.8727,139.4473 Q71.9665,138.8223 73.2008,138.8223 Q73.9352,138.8223 74.5758,138.9941 Q75.2321,139.1504 75.779,139.5098 Z " fill="#000000"/><text fill="#000000" font-family="sans-serif" font-size="14" lengthAdjust="spacing" textLength="119.0342" x="89.683" y="149.4316">ListUsersController</text><line style="stroke:#181818;stroke-width:0.5;" x1="47" x2="222.7305" y1="159.6348" y2="159.6348"/><text fill="#000000" font-family="sans-serif" font-size="14" lengthAdjust="spacing" textLength="165.7305" x="52" y="178.7422">-UserRepository userRepo</text><line style="stroke:#181818;stroke-width:0.5;" x1="47" x2="222.7305" y1="186.2559" y2="186.2559"/><text fill="#000000" font-family="sans-serif" font-size="14" lengthAdjust="spacing" textLength="162.2031" x="52" y="205.3633">+listAllUsers(): List&lt;User&gt;</text></g><!--class UserRepository--><g id="elem_UserRepository"><rect codeLine="36" fill="#F1F1F1" height="66.6211" id="UserRepository" rx="2.5" ry="2.5" style="stroke:#181818;stroke-width:0.5;" width="143.1064" x="63.5" y="389.1348"/><ellipse cx="85.0839" cy="405.1348" fill="#B4A7E5" rx="11" ry="11" style="stroke:#181818;stroke-width:1.0;"/><path d="M86.037,401.7754 L86.037,408.4316 L87.7558,408.4316 Q88.3651,408.4316 88.6308,408.666 Q88.8964,408.9004 88.8964,409.291 Q88.8964,409.666 88.6308,409.9004 Q88.3651,410.1348 87.7558,410.1348 L82.6151,410.1348 Q82.0058,410.1348 81.7401,409.9004 Q81.4745,409.666 81.4745,409.2754 Q81.4745,408.9004 81.7401,408.666 Q82.0058,408.4316 82.6151,408.4316 L84.3339,408.4316 L84.3339,401.7754 L82.6151,401.7754 Q82.0058,401.7754 81.7401,401.541 Q81.4745,401.3066 81.4745,400.916 Q81.4745,400.541 81.7401,400.3066 Q82.0058,400.0723 82.6151,400.0723 L87.7558,400.0723 Q88.3651,400.0723 88.6308,400.3066 Q88.8964,400.541 88.8964,400.916 Q88.8964,401.3066 88.6308,401.541 Q88.3651,401.7754 87.7558,401.7754 L86.037,401.7754 Z " fill="#000000"/><text fill="#000000" font-family="sans-serif" font-size="14" font-style="italic" lengthAdjust="spacing" textLength="96.4756" x="100.547" y="410.9316">UserRepository</text><line style="stroke:#181818;stroke-width:0.5;" x1="64.5" x2="205.6064" y1="421.1348" y2="421.1348"/><line style="stroke:#181818;stroke-width:0.5;" x1="64.5" x2="205.6064" y1="429.1348" y2="429.1348"/><text fill="#000000" font-family="sans-serif" font-size="14" lengthAdjust="spacing" textLength="131.1064" x="69.5" y="448.2422">+findAll(): List&lt;User&gt;</text></g><!--link User to Email--><g id="link_User_Email"><path codeLine="26" d="M338.59,530.6348 C335.6,552.8448 333.4703,568.6584 331.1903,585.5984 " fill="none" id="User-to-Email" style="stroke:#181818;stroke-width:1.0;"/><polygon fill="#181818" points="330.39,591.5448,335.5548,583.1588,331.0569,586.5894,327.6263,582.0916,330.39,591.5448" style="stroke:#181818;stroke-width:1.0;"/></g><!--link User to Password--><g id="link_User_Password"><path codeLine="27" d="M418.64,530.6348 C432.27,552.8448 442.483,569.4902 452.873,586.4302 " fill="none" id="User-to-Password" style="stroke:#181818;stroke-width:1.0;"/><polygon fill="#181818" points="456.01,591.5448,454.7142,581.7815,453.3958,587.2826,447.8948,585.9642,456.01,591.5448" style="stroke:#181818;stroke-width:1.0;"/></g><!--link ListUsersController to UserRepository--><g id="link_ListUsersController_UserRepository"><path codeLine="41" d="M135,212.7848 C135,262.3048 135,337.9348 135,383.0748 " fill="none" id="ListUsersController-to-UserRepository" style="stroke:#181818;stroke-width:1.0;"/><polygon fill="#181818" points="135,389.0748,139,380.0748,135,384.0748,131,380.0748,135,389.0748" style="stroke:#181818;stroke-width:1.0;"/></g><!--link ListUsersController to User--><g id="link_ListUsersController_User"><path codeLine="42" d="M183,212.8348 C201.53,229.7648 222.45,249.9548 240,269.6348 C253.46,284.7248 263.3019,296.5966 276.0719,313.1266 " fill="none" id="ListUsersController-to-User" style="stroke:#181818;stroke-width:1.0;"/><polygon fill="#181818" points="279.74,317.8748,277.4033,308.3071,276.6832,313.918,271.0724,313.1979,279.74,317.8748" style="stroke:#181818;stroke-width:1.0;"/><polygon fill="#000000" points="240.4012,255.9453,236.4026,247.3161,232.0942,251.3144,240.4012,255.9453" style="stroke:#000000;stroke-width:1.0;"/><text fill="#000000" font-family="sans-serif" font-size="13" lengthAdjust="spacing" textLength="40.46" x="246" y="257.6631">returns</text></g><!--SRC=[VL5DJyCm3BtdLrWxWL0H7xS9JQe61oI44DMuUwstMKkJA4c7ODf_9ya-5Bf23ctiPxyyFxirAuCMMwWbEbTwRtdUUNgkjQhuc-162CzU4amZ3e-CorXTmAowkxqF_nTs7cQEh1F2OBt69S6e2t6BAjnRKlwwqIso6i5MG3ZffTHoICHJm5EeaS1DbdeBXP_QDc0EbmohWbAr18KjdMVDIYjwxTevsGoSQoq95M3jUPDtHItl0GCRFgVy5R0hK-d5vVZOdA4K1KSeAS-0g2dczs8Ii1FPwFj9j-UoDoWxEgy_sJ3GiaAtekQZtvZSBOf9fksKEjA9tTyRGsCar-XPzzOMrvssFTNA1xjaRul9IZBQiTVs2xf3cBaZ0qCfPIA9BaN6XnXDyW5OUR8BhAdFkCse5goQG3N84dY6j4O3VZF-MmPZiEGxgnnCVW00]--></g></svg>