<svg xmlns="http://www.w3.org/2000/svg" xmlns:xlink="http://www.w3.org/1999/xlink" contentStyleType="text/css" height="705px" preserveAspectRatio="none" style="width:667px;height:705px;background:#FFFFFF;" version="1.1" viewBox="0 0 667 705" width="667px" zoomAndPan="magnify"><title>Class Diagram - US213 - List Users</title><defs/><g><text fill="#000000" font-family="sans-serif" font-size="14" font-weight="bold" lengthAdjust="spacing" textLength="232.6543" x="210.1729" y="25.1074">Class Diagram - US213 - List Users</text><!--cluster usermanagement--><g id="cluster_usermanagement"><path d="M8.5,45.6348 L125.4307,45.6348 A3.75,3.75 0 0 1 127.9307,48.1348 L134.9307,70.2559 L657.5,70.2559 A2.5,2.5 0 0 1 660,72.7559 L660,696.1348 A2.5,2.5 0 0 1 657.5,698.6348 L8.5,698.6348 A2.5,2.5 0 0 1 6,696.1348 L6,48.1348 A2.5,2.5 0 0 1 8.5,45.6348 " fill="none" style="stroke:#000000;stroke-width:1.5;"/><line style="stroke:#000000;stroke-width:1.5;" x1="6" x2="134.9307" y1="70.2559" y2="70.2559"/><text fill="#000000" font-family="sans-serif" font-size="14" font-weight="bold" lengthAdjust="spacing" textLength="115.9307" x="10" y="62.7422">usermanagement</text></g><!--cluster domain--><g id="cluster_domain"><path d="M340.5,277.6348 L391.2793,277.6348 A3.75,3.75 0 0 1 393.7793,280.1348 L400.7793,302.2559 L633.5,302.2559 A2.5,2.5 0 0 1 636,304.7559 L636,672.1348 A2.5,2.5 0 0 1 633.5,674.6348 L340.5,674.6348 A2.5,2.5 0 0 1 338,672.1348 L338,280.1348 A2.5,2.5 0 0 1 340.5,277.6348 " fill="none" style="stroke:#000000;stroke-width:1.5;"/><line style="stroke:#000000;stroke-width:1.5;" x1="338" x2="400.7793" y1="302.2559" y2="302.2559"/><text fill="#000000" font-family="sans-serif" font-size="14" font-weight="bold" lengthAdjust="spacing" textLength="49.7793" x="342" y="294.7422">domain</text></g><!--cluster application--><g id="cluster_application"><path d="M32.5,90.6348 L107.3965,90.6348 A3.75,3.75 0 0 1 109.8965,93.1348 L116.8965,115.2559 L311.5,115.2559 A2.5,2.5 0 0 1 314,117.7559 L314,469.6348 A2.5,2.5 0 0 1 311.5,472.1348 L32.5,472.1348 A2.5,2.5 0 0 1 30,469.6348 L30,93.1348 A2.5,2.5 0 0 1 32.5,90.6348 " fill="none" style="stroke:#000000;stroke-width:1.5;"/><line style="stroke:#000000;stroke-width:1.5;" x1="30" x2="116.8965" y1="115.2559" y2="115.2559"/><text fill="#000000" font-family="sans-serif" font-size="14" font-weight="bold" lengthAdjust="spacing" textLength="73.8965" x="34" y="107.7422">application</text></g><!--class User--><g id="elem_User"><rect codeLine="6" fill="#F1F1F1" height="215.5898" id="User" rx="2.5" ry="2.5" style="stroke:#181818;stroke-width:0.5;" width="145.8477" x="354" y="314.6348"/><ellipse cx="407.8945" cy="330.6348" fill="#ADD1B2" rx="11" ry="11" style="stroke:#181818;stroke-width:1.0;"/><path d="M410.6602,326.5098 Q410.8164,326.291 411.0039,326.1816 Q411.1914,326.0723 411.4102,326.0723 Q411.7852,326.0723 412.0195,326.3379 Q412.2539,326.5879 412.2539,327.1973 L412.2539,328.6504 Q412.2539,329.2598 412.0195,329.5254 Q411.7852,329.791 411.4102,329.791 Q411.0664,329.791 410.8633,329.5879 Q410.6602,329.4004 410.5508,328.8848 Q410.5039,328.5254 410.3164,328.3379 Q409.9883,327.9629 409.3789,327.7441 Q408.7695,327.5254 408.1445,327.5254 Q407.3789,327.5254 406.7383,327.8535 Q406.1133,328.1816 405.6133,328.9316 Q405.1289,329.6816 405.1289,330.7129 L405.1289,331.8066 Q405.1289,333.041 406.0195,333.8691 Q406.9102,334.6816 408.5039,334.6816 Q409.4414,334.6816 410.0977,334.4316 Q410.4883,334.2754 410.9102,333.8379 Q411.1758,333.5723 411.3164,333.4941 Q411.4727,333.416 411.6758,333.416 Q412.0039,333.416 412.2539,333.6816 Q412.5195,333.9316 412.5195,334.2754 Q412.5195,334.6191 412.1758,335.0254 Q411.6758,335.6035 410.8789,335.9316 Q409.8008,336.3848 408.5039,336.3848 Q406.9883,336.3848 405.7852,335.7598 Q404.8008,335.2598 404.1133,334.1973 Q403.4258,333.1191 403.4258,331.8379 L403.4258,330.6816 Q403.4258,329.3535 404.0352,328.2129 Q404.6602,327.0566 405.7539,326.4473 Q406.8477,325.8223 408.082,325.8223 Q408.8164,325.8223 409.457,325.9941 Q410.1133,326.1504 410.6602,326.5098 Z " fill="#000000"/><text fill="#000000" font-family="sans-serif" font-size="14" lengthAdjust="spacing" textLength="29.5586" x="428.3945" y="336.4316">User</text><line style="stroke:#181818;stroke-width:0.5;" x1="355" x2="498.8477" y1="346.6348" y2="346.6348"/><text fill="#000000" font-family="sans-serif" font-size="14" lengthAdjust="spacing" textLength="54.4551" x="360" y="365.7422">-Email id</text><text fill="#000000" font-family="sans-serif" font-size="14" lengthAdjust="spacing" textLength="129.9375" x="360" y="384.3633">-Password password</text><text fill="#000000" font-family="sans-serif" font-size="14" lengthAdjust="spacing" textLength="80.1445" x="360" y="402.9844">-String name</text><text fill="#000000" font-family="sans-serif" font-size="14" lengthAdjust="spacing" textLength="133.8477" x="360" y="421.6055">-String phoneNumber</text><text fill="#000000" font-family="sans-serif" font-size="14" lengthAdjust="spacing" textLength="94.9512" x="360" y="440.2266">-boolean active</text><text fill="#000000" font-family="sans-serif" font-size="14" lengthAdjust="spacing" textLength="90.248" x="360" y="458.8477">-UserRole role</text><line style="stroke:#181818;stroke-width:0.5;" x1="355" x2="498.8477" y1="466.3613" y2="466.3613"/><text fill="#000000" font-family="sans-serif" font-size="14" lengthAdjust="spacing" textLength="123.3408" x="360" y="485.4688">+isActive(): boolean</text><text fill="#000000" font-family="sans-serif" font-size="14" lengthAdjust="spacing" textLength="91.4238" x="360" y="504.0898">+getId(): Email</text><text fill="#000000" font-family="sans-serif" font-size="14" lengthAdjust="spacing" textLength="118.6582" x="360" y="522.7109">+getName(): String</text></g><!--class Email--><g id="elem_Email"><rect codeLine="18" fill="#F1F1F1" height="66.6211" id="Email" rx="2.5" ry="2.5" style="stroke:#181818;stroke-width:0.5;" width="90.5928" x="354.5" y="591.6348"/><ellipse cx="380.1137" cy="607.6348" fill="#ADD1B2" rx="11" ry="11" style="stroke:#181818;stroke-width:1.0;"/><path d="M382.8793,603.5098 Q383.0355,603.291 383.223,603.1816 Q383.4105,603.0723 383.6293,603.0723 Q384.0043,603.0723 384.2387,603.3379 Q384.473,603.5879 384.473,604.1973 L384.473,605.6504 Q384.473,606.2598 384.2387,606.5254 Q384.0043,606.791 383.6293,606.791 Q383.2855,606.791 383.0824,606.5879 Q382.8793,606.4004 382.7699,605.8848 Q382.723,605.5254 382.5355,605.3379 Q382.2074,604.9629 381.598,604.7441 Q380.9887,604.5254 380.3637,604.5254 Q379.598,604.5254 378.9574,604.8535 Q378.3324,605.1816 377.8324,605.9316 Q377.348,606.6816 377.348,607.7129 L377.348,608.8066 Q377.348,610.041 378.2387,610.8691 Q379.1293,611.6816 380.723,611.6816 Q381.6605,611.6816 382.3168,611.4316 Q382.7074,611.2754 383.1293,610.8379 Q383.3949,610.5723 383.5355,610.4941 Q383.6918,610.416 383.8949,610.416 Q384.223,610.416 384.473,610.6816 Q384.7387,610.9316 384.7387,611.2754 Q384.7387,611.6191 384.3949,612.0254 Q383.8949,612.6035 383.098,612.9316 Q382.0199,613.3848 380.723,613.3848 Q379.2074,613.3848 378.0043,612.7598 Q377.0199,612.2598 376.3324,611.1973 Q375.6449,610.1191 375.6449,608.8379 L375.6449,607.6816 Q375.6449,606.3535 376.2543,605.2129 Q376.8793,604.0566 377.973,603.4473 Q379.0668,602.8223 380.3012,602.8223 Q381.0355,602.8223 381.6762,602.9941 Q382.3324,603.1504 382.8793,603.5098 Z " fill="#000000"/><text fill="#000000" font-family="sans-serif" font-size="14" lengthAdjust="spacing" textLength="35.0068" x="396.4723" y="613.4316">Email</text><line style="stroke:#181818;stroke-width:0.5;" x1="355.5" x2="444.0928" y1="623.6348" y2="623.6348"/><text fill="#000000" font-family="sans-serif" font-size="14" lengthAdjust="spacing" textLength="78.5928" x="360.5" y="642.7422">-String value</text><line style="stroke:#181818;stroke-width:0.5;" x1="355.5" x2="444.0928" y1="650.2559" y2="650.2559"/></g><!--class Password--><g id="elem_Password"><rect codeLine="22" fill="#F1F1F1" height="66.6211" id="Password" rx="2.5" ry="2.5" style="stroke:#181818;stroke-width:0.5;" width="138.8613" x="480.5" y="591.6348"/><ellipse cx="515.9267" cy="607.6348" fill="#ADD1B2" rx="11" ry="11" style="stroke:#181818;stroke-width:1.0;"/><path d="M518.6923,603.5098 Q518.8485,603.291 519.036,603.1816 Q519.2235,603.0723 519.4423,603.0723 Q519.8173,603.0723 520.0517,603.3379 Q520.286,603.5879 520.286,604.1973 L520.286,605.6504 Q520.286,606.2598 520.0517,606.5254 Q519.8173,606.791 519.4423,606.791 Q519.0985,606.791 518.8954,606.5879 Q518.6923,606.4004 518.5829,605.8848 Q518.536,605.5254 518.3485,605.3379 Q518.0204,604.9629 517.411,604.7441 Q516.8017,604.5254 516.1767,604.5254 Q515.411,604.5254 514.7704,604.8535 Q514.1454,605.1816 513.6454,605.9316 Q513.161,606.6816 513.161,607.7129 L513.161,608.8066 Q513.161,610.041 514.0517,610.8691 Q514.9423,611.6816 516.536,611.6816 Q517.4735,611.6816 518.1298,611.4316 Q518.5204,611.2754 518.9423,610.8379 Q519.2079,610.5723 519.3485,610.4941 Q519.5048,610.416 519.7079,610.416 Q520.036,610.416 520.286,610.6816 Q520.5517,610.9316 520.5517,611.2754 Q520.5517,611.6191 520.2079,612.0254 Q519.7079,612.6035 518.911,612.9316 Q517.8329,613.3848 516.536,613.3848 Q515.0204,613.3848 513.8173,612.7598 Q512.8329,612.2598 512.1454,611.1973 Q511.4579,610.1191 511.4579,608.8379 L511.4579,607.6816 Q511.4579,606.3535 512.0673,605.2129 Q512.6923,604.0566 513.786,603.4473 Q514.8798,602.8223 516.1142,602.8223 Q516.8485,602.8223 517.4892,602.9941 Q518.1454,603.1504 518.6923,603.5098 Z " fill="#000000"/><text fill="#000000" font-family="sans-serif" font-size="14" lengthAdjust="spacing" textLength="61.4688" x="534.4659" y="613.4316">Password</text><line style="stroke:#181818;stroke-width:0.5;" x1="481.5" x2="618.3613" y1="623.6348" y2="623.6348"/><text fill="#000000" font-family="sans-serif" font-size="14" lengthAdjust="spacing" textLength="126.8613" x="486.5" y="642.7422">-String hashedValue</text><line style="stroke:#181818;stroke-width:0.5;" x1="481.5" x2="618.3613" y1="650.2559" y2="650.2559"/></g><!--class ListUserController--><g id="elem_ListUserController"><rect codeLine="31" fill="#F1F1F1" height="85.2422" id="ListUserController" rx="2.5" ry="2.5" style="stroke:#181818;stroke-width:0.5;" width="251.2578" x="46.5" y="127.6348"/><ellipse cx="111.8618" cy="143.6348" fill="#ADD1B2" rx="11" ry="11" style="stroke:#181818;stroke-width:1.0;"/><path d="M114.6274,139.5098 Q114.7837,139.291 114.9712,139.1816 Q115.1587,139.0723 115.3774,139.0723 Q115.7524,139.0723 115.9868,139.3379 Q116.2212,139.5879 116.2212,140.1973 L116.2212,141.6504 Q116.2212,142.2598 115.9868,142.5254 Q115.7524,142.791 115.3774,142.791 Q115.0337,142.791 114.8306,142.5879 Q114.6274,142.4004 114.5181,141.8848 Q114.4712,141.5254 114.2837,141.3379 Q113.9556,140.9629 113.3462,140.7441 Q112.7368,140.5254 112.1118,140.5254 Q111.3462,140.5254 110.7056,140.8535 Q110.0806,141.1816 109.5806,141.9316 Q109.0962,142.6816 109.0962,143.7129 L109.0962,144.8066 Q109.0962,146.041 109.9868,146.8691 Q110.8774,147.6816 112.4712,147.6816 Q113.4087,147.6816 114.0649,147.4316 Q114.4556,147.2754 114.8774,146.8379 Q115.1431,146.5723 115.2837,146.4941 Q115.4399,146.416 115.6431,146.416 Q115.9712,146.416 116.2212,146.6816 Q116.4868,146.9316 116.4868,147.2754 Q116.4868,147.6191 116.1431,148.0254 Q115.6431,148.6035 114.8462,148.9316 Q113.7681,149.3848 112.4712,149.3848 Q110.9556,149.3848 109.7524,148.7598 Q108.7681,148.2598 108.0806,147.1973 Q107.3931,146.1191 107.3931,144.8379 L107.3931,143.6816 Q107.3931,142.3535 108.0024,141.2129 Q108.6274,140.0566 109.7212,139.4473 Q110.8149,138.8223 112.0493,138.8223 Q112.7837,138.8223 113.4243,138.9941 Q114.0806,139.1504 114.6274,139.5098 Z " fill="#000000"/><text fill="#000000" font-family="sans-serif" font-size="14" lengthAdjust="spacing" textLength="112.0342" x="132.3618" y="149.4316">ListUserController</text><line style="stroke:#181818;stroke-width:0.5;" x1="47.5" x2="296.7578" y1="159.6348" y2="159.6348"/><line style="stroke:#181818;stroke-width:0.5;" x1="47.5" x2="296.7578" y1="167.6348" y2="167.6348"/><text fill="#000000" font-family="sans-serif" font-size="14" lengthAdjust="spacing" textLength="164.5547" x="52.5" y="186.7422">+getAllUsers(): List&lt;User&gt;</text><text fill="#000000" font-family="sans-serif" font-size="14" lengthAdjust="spacing" textLength="239.2578" x="52.5" y="205.3633">+getAllUsersWithStatus(): List&lt;String&gt;</text></g><!--class UserRepository--><g id="elem_UserRepository"><rect codeLine="36" fill="#F1F1F1" height="66.6211" id="UserRepository" rx="2.5" ry="2.5" style="stroke:#181818;stroke-width:0.5;" width="143.1064" x="100.5" y="389.1348"/><ellipse cx="122.0839" cy="405.1348" fill="#B4A7E5" rx="11" ry="11" style="stroke:#181818;stroke-width:1.0;"/><path d="M123.037,401.7754 L123.037,408.4316 L124.7558,408.4316 Q125.3651,408.4316 125.6308,408.666 Q125.8964,408.9004 125.8964,409.291 Q125.8964,409.666 125.6308,409.9004 Q125.3651,410.1348 124.7558,410.1348 L119.6151,410.1348 Q119.0058,410.1348 118.7401,409.9004 Q118.4745,409.666 118.4745,409.2754 Q118.4745,408.9004 118.7401,408.666 Q119.0058,408.4316 119.6151,408.4316 L121.3339,408.4316 L121.3339,401.7754 L119.6151,401.7754 Q119.0058,401.7754 118.7401,401.541 Q118.4745,401.3066 118.4745,400.916 Q118.4745,400.541 118.7401,400.3066 Q119.0058,400.0723 119.6151,400.0723 L124.7558,400.0723 Q125.3651,400.0723 125.6308,400.3066 Q125.8964,400.541 125.8964,400.916 Q125.8964,401.3066 125.6308,401.541 Q125.3651,401.7754 124.7558,401.7754 L123.037,401.7754 Z " fill="#000000"/><text fill="#000000" font-family="sans-serif" font-size="14" font-style="italic" lengthAdjust="spacing" textLength="96.4756" x="137.547" y="410.9316">UserRepository</text><line style="stroke:#181818;stroke-width:0.5;" x1="101.5" x2="242.6064" y1="421.1348" y2="421.1348"/><line style="stroke:#181818;stroke-width:0.5;" x1="101.5" x2="242.6064" y1="429.1348" y2="429.1348"/><text fill="#000000" font-family="sans-serif" font-size="14" lengthAdjust="spacing" textLength="131.1064" x="106.5" y="448.2422">+findAll(): List&lt;User&gt;</text></g><!--link User to Email--><g id="link_User_Email"><path codeLine="26" d="M412.59,530.6348 C409.6,552.8448 407.4703,568.6584 405.1903,585.5984 " fill="none" id="User-to-Email" style="stroke:#181818;stroke-width:1.0;"/><polygon fill="#181818" points="404.39,591.5448,409.5548,583.1588,405.0569,586.5894,401.6263,582.0916,404.39,591.5448" style="stroke:#181818;stroke-width:1.0;"/></g><!--link User to Password--><g id="link_User_Password"><path codeLine="27" d="M492.64,530.6348 C506.27,552.8448 516.483,569.4902 526.873,586.4302 " fill="none" id="User-to-Password" style="stroke:#181818;stroke-width:1.0;"/><polygon fill="#181818" points="530.01,591.5448,528.7142,581.7815,527.3958,587.2826,521.8948,585.9642,530.01,591.5448" style="stroke:#181818;stroke-width:1.0;"/></g><!--link ListUserController to UserRepository--><g id="link_ListUserController_UserRepository"><path codeLine="41" d="M172,212.7848 C172,262.3048 172,337.9348 172,383.0748 " fill="none" id="ListUserController-to-UserRepository" style="stroke:#181818;stroke-width:1.0;"/><polygon fill="#181818" points="172,389.0748,176,380.0748,172,384.0748,168,380.0748,172,389.0748" style="stroke:#181818;stroke-width:1.0;"/></g><!--link ListUserController to User--><g id="link_ListUserController_User"><path codeLine="42" d="M241.54,212.8048 C265.79,228.9848 292.33,248.6648 314,269.6348 C328.06,283.2448 337.936,294.0542 350.576,309.8142 " fill="none" id="ListUserController-to-User" style="stroke:#181818;stroke-width:1.0;"/><polygon fill="#181818" points="354.33,314.4948,351.8194,304.9713,351.2017,310.5943,345.5787,309.9765,354.33,314.4948" style="stroke:#181818;stroke-width:1.0;"/><polygon fill="#000000" points="311.7355,255.6038,306.9314,247.3958,303.0244,251.7872,311.7355,255.6038" style="stroke:#000000;stroke-width:1.0;"/><text fill="#000000" font-family="sans-serif" font-size="13" lengthAdjust="spacing" textLength="32.519" x="317" y="257.6631">reads</text></g><!--SRC=[VL9DJyCm3BttLrWxWL0H7xS9JPe6XqbeGbI3izUQrbgQL4aw1DF-EqcwZNGhvD0cVi_EUtRCccM36cl81HepjLRpghKqpvNC-9lW9aaiMq4mypWyCfQUdS8okxkzT_zdDXQMXhH9aWRpDPO4ezQTQvHkNvEqruMgaUK8jWcu5MuAAVk0NoayEOu0BgBGYoD-Abr0izz4MEQKoX8ardGURIebQT7MAz8Hk59A44h0tF8cpl9QNXq6sdsEyIjWCmtKYyln8Jb2IxBpmaD1UHzOE5aUwlG4R9T4xZkpstFb6nGjdVEFdHX8gT1KLBoT9eO6f-aaadSC7Sebkx-7XaqZE4VBwcHoVkA-qan9wnecUdCCxgT2X1VXE-3P3_uq6UQyiwqoYxRzPNU-9h4PbfRq1-RKpOeQPTWg_TMx-ODbuSeEtBhpHWTq-rxq2_x7WZ5emiB0v0S0]--></g></svg>