<svg xmlns="http://www.w3.org/2000/svg" xmlns:xlink="http://www.w3.org/1999/xlink" contentStyleType="text/css" height="521px" preserveAspectRatio="none" style="width:710px;height:521px;background:#FFFFFF;" version="1.1" viewBox="0 0 710 521" width="710px" zoomAndPan="magnify"><title>UI Sequence Diagram (SSD) - List Users Flow (US213)</title><defs/><g><text fill="#000000" font-family="sans-serif" font-size="14" font-weight="bold" lengthAdjust="spacing" textLength="357.8682" x="172.1731" y="30.1074">UI Sequence Diagram (SSD) - List Users Flow (US213)</text><rect fill="#FFFFFF" height="219.0371" style="stroke:#181818;stroke-width:1.0;" width="10" x="175.1626" y="201.8242"/><rect fill="#FFFFFF" height="156.4551" style="stroke:#181818;stroke-width:1.0;" width="10" x="356.9497" y="233.1152"/><rect fill="#FFFFFF" height="31.291" style="stroke:#181818;stroke-width:1.0;" width="10" x="500.3804" y="264.4063"/><rect fill="#FFFFFF" height="31.291" style="stroke:#181818;stroke-width:1.0;" width="10" x="636.0317" y="326.9883"/><line style="stroke:#181818;stroke-width:0.5;stroke-dasharray:5.0,5.0;" x1="44" x2="44" y1="123.2422" y2="438.8613"/><line style="stroke:#181818;stroke-width:0.5;stroke-dasharray:5.0,5.0;" x1="179.5454" x2="179.5454" y1="123.2422" y2="438.8613"/><line style="stroke:#181818;stroke-width:0.5;stroke-dasharray:5.0,5.0;" x1="360.9878" x2="360.9878" y1="123.2422" y2="438.8613"/><line style="stroke:#181818;stroke-width:0.5;stroke-dasharray:5.0,5.0;" x1="504.9116" x2="504.9116" y1="123.2422" y2="438.8613"/><line style="stroke:#181818;stroke-width:0.5;stroke-dasharray:5.0,5.0;" x1="640.8491" x2="640.8491" y1="123.2422" y2="438.8613"/><text fill="#000000" font-family="sans-serif" font-size="14" lengthAdjust="spacing" textLength="73.1309" x="5" y="119.7285">Admin User</text><ellipse cx="44.5654" cy="53.1211" fill="#E3E3E3" rx="8" ry="8" style="stroke:#181818;stroke-width:0.5;"/><path d="M44.5654,61.1211 L44.5654,88.1211 M31.5654,69.1211 L57.5654,69.1211 M44.5654,88.1211 L31.5654,103.1211 M44.5654,88.1211 L57.5654,103.1211 " fill="none" style="stroke:#181818;stroke-width:0.5;"/><text fill="#000000" font-family="sans-serif" font-size="14" lengthAdjust="spacing" textLength="73.1309" x="5" y="452.9688">Admin User</text><ellipse cx="44.5654" cy="464.9824" fill="#E3E3E3" rx="8" ry="8" style="stroke:#181818;stroke-width:0.5;"/><path d="M44.5654,472.9824 L44.5654,499.9824 M31.5654,480.9824 L57.5654,480.9824 M44.5654,499.9824 L31.5654,514.9824 M44.5654,499.9824 L57.5654,514.9824 " fill="none" style="stroke:#181818;stroke-width:0.5;"/><rect fill="#E3E3E3" height="32.6211" rx="2.5" ry="2.5" style="stroke:#181818;stroke-width:0.5;" width="83.2344" x="138.5454" y="89.6211"/><text fill="#000000" font-family="sans-serif" font-size="14" lengthAdjust="spacing" textLength="69.2344" x="145.5454" y="111.7285">:ListUserUI</text><rect fill="#E3E3E3" height="32.6211" rx="2.5" ry="2.5" style="stroke:#181818;stroke-width:0.5;" width="83.2344" x="138.5454" y="437.8613"/><text fill="#000000" font-family="sans-serif" font-size="14" lengthAdjust="spacing" textLength="69.2344" x="145.5454" y="459.9688">:ListUserUI</text><rect fill="#E3E3E3" height="32.6211" rx="2.5" ry="2.5" style="stroke:#181818;stroke-width:0.5;" width="129.9238" x="296.9878" y="89.6211"/><text fill="#000000" font-family="sans-serif" font-size="14" lengthAdjust="spacing" textLength="115.9238" x="303.9878" y="111.7285">:ListUserController</text><rect fill="#E3E3E3" height="32.6211" rx="2.5" ry="2.5" style="stroke:#181818;stroke-width:0.5;" width="129.9238" x="296.9878" y="437.8613"/><text fill="#000000" font-family="sans-serif" font-size="14" lengthAdjust="spacing" textLength="115.9238" x="303.9878" y="459.9688">:ListUserController</text><rect fill="#E3E3E3" height="32.6211" rx="2.5" ry="2.5" style="stroke:#181818;stroke-width:0.5;" width="136.9375" x="436.9116" y="89.6211"/><text fill="#000000" font-family="sans-serif" font-size="14" lengthAdjust="spacing" textLength="122.9375" x="443.9116" y="111.7285">:RepositoryProvider</text><rect fill="#E3E3E3" height="32.6211" rx="2.5" ry="2.5" style="stroke:#181818;stroke-width:0.5;" width="136.9375" x="436.9116" y="437.8613"/><text fill="#000000" font-family="sans-serif" font-size="14" lengthAdjust="spacing" textLength="122.9375" x="443.9116" y="459.9688">:RepositoryProvider</text><rect fill="#E3E3E3" height="32.6211" rx="2.5" ry="2.5" style="stroke:#181818;stroke-width:0.5;" width="114.3652" x="583.8491" y="89.6211"/><text fill="#000000" font-family="sans-serif" font-size="14" lengthAdjust="spacing" textLength="100.3652" x="590.8491" y="111.7285">:UserRepository</text><rect fill="#E3E3E3" height="32.6211" rx="2.5" ry="2.5" style="stroke:#181818;stroke-width:0.5;" width="114.3652" x="583.8491" y="437.8613"/><text fill="#000000" font-family="sans-serif" font-size="14" lengthAdjust="spacing" textLength="100.3652" x="590.8491" y="459.9688">:UserRepository</text><rect fill="#FFFFFF" height="219.0371" style="stroke:#181818;stroke-width:1.0;" width="10" x="175.1626" y="201.8242"/><rect fill="#FFFFFF" height="156.4551" style="stroke:#181818;stroke-width:1.0;" width="10" x="356.9497" y="233.1152"/><rect fill="#FFFFFF" height="31.291" style="stroke:#181818;stroke-width:1.0;" width="10" x="500.3804" y="264.4063"/><rect fill="#FFFFFF" height="31.291" style="stroke:#181818;stroke-width:1.0;" width="10" x="636.0317" y="326.9883"/><rect fill="#EEEEEE" height="3" style="stroke:#EEEEEE;stroke-width:1.0;" width="703.2144" x="0" y="154.8877"/><line style="stroke:#000000;stroke-width:1.0;" x1="0" x2="703.2144" y1="154.8877" y2="154.8877"/><line style="stroke:#000000;stroke-width:1.0;" x1="0" x2="703.2144" y1="157.8877" y2="157.8877"/><rect fill="#EEEEEE" height="25.291" style="stroke:#000000;stroke-width:2.0;" width="60.9409" x="321.1367" y="143.2422"/><text fill="#000000" font-family="sans-serif" font-size="13" font-weight="bold" lengthAdjust="spacing" textLength="43.3291" x="327.1367" y="161.2705">START</text><polygon fill="#181818" points="163.1626,197.8242,173.1626,201.8242,163.1626,205.8242,167.1626,201.8242" style="stroke:#181818;stroke-width:1.0;"/><line style="stroke:#181818;stroke-width:1.0;" x1="44.5654" x2="169.1626" y1="201.8242" y2="201.8242"/><text fill="#000000" font-family="sans-serif" font-size="13" font-weight="bold" lengthAdjust="spacing" textLength="7.23" x="51.5654" y="196.5615">1</text><text fill="#000000" font-family="sans-serif" font-size="13" lengthAdjust="spacing" textLength="27.4473" x="62.7954" y="196.5615">run()</text><polygon fill="#181818" points="344.9497,229.1152,354.9497,233.1152,344.9497,237.1152,348.9497,233.1152" style="stroke:#181818;stroke-width:1.0;"/><line style="stroke:#181818;stroke-width:1.0;" x1="185.1626" x2="350.9497" y1="233.1152" y2="233.1152"/><text fill="#000000" font-family="sans-serif" font-size="13" font-weight="bold" lengthAdjust="spacing" textLength="7.23" x="192.1626" y="227.8525">2</text><text fill="#000000" font-family="sans-serif" font-size="13" lengthAdjust="spacing" textLength="137.979" x="203.3926" y="227.8525">getAllUsersWithStatus()</text><polygon fill="#181818" points="488.3804,260.4063,498.3804,264.4063,488.3804,268.4063,492.3804,264.4063" style="stroke:#181818;stroke-width:1.0;"/><line style="stroke:#181818;stroke-width:1.0;" x1="366.9497" x2="494.3804" y1="264.4063" y2="264.4063"/><text fill="#000000" font-family="sans-serif" font-size="13" font-weight="bold" lengthAdjust="spacing" textLength="7.23" x="373.9497" y="259.1436">3</text><text fill="#000000" font-family="sans-serif" font-size="13" lengthAdjust="spacing" textLength="96.0845" x="385.1797" y="259.1436">userRepository()</text><polygon fill="#181818" points="377.9497,291.6973,367.9497,295.6973,377.9497,299.6973,373.9497,295.6973" style="stroke:#181818;stroke-width:1.0;"/><line style="stroke:#181818;stroke-width:1.0;stroke-dasharray:2.0,2.0;" x1="371.9497" x2="504.3804" y1="295.6973" y2="295.6973"/><text fill="#000000" font-family="sans-serif" font-size="13" font-weight="bold" lengthAdjust="spacing" textLength="7.23" x="383.9497" y="290.4346">4</text><text fill="#000000" font-family="sans-serif" font-size="13" lengthAdjust="spacing" textLength="56.3672" x="395.1797" y="290.4346">userRepo</text><polygon fill="#181818" points="624.0317,322.9883,634.0317,326.9883,624.0317,330.9883,628.0317,326.9883" style="stroke:#181818;stroke-width:1.0;"/><line style="stroke:#181818;stroke-width:1.0;" x1="366.9497" x2="630.0317" y1="326.9883" y2="326.9883"/><text fill="#000000" font-family="sans-serif" font-size="13" font-weight="bold" lengthAdjust="spacing" textLength="7.23" x="373.9497" y="321.7256">5</text><text fill="#000000" font-family="sans-serif" font-size="13" lengthAdjust="spacing" textLength="44.0654" x="385.1797" y="321.7256">findAll()</text><polygon fill="#181818" points="377.9497,354.2793,367.9497,358.2793,377.9497,362.2793,373.9497,358.2793" style="stroke:#181818;stroke-width:1.0;"/><line style="stroke:#181818;stroke-width:1.0;stroke-dasharray:2.0,2.0;" x1="371.9497" x2="640.0317" y1="358.2793" y2="358.2793"/><text fill="#000000" font-family="sans-serif" font-size="13" font-weight="bold" lengthAdjust="spacing" textLength="7.23" x="383.9497" y="353.0166">6</text><text fill="#000000" font-family="sans-serif" font-size="13" lengthAdjust="spacing" textLength="62.8608" x="395.1797" y="353.0166">List&lt;User&gt;</text><polygon fill="#181818" points="196.1626,385.5703,186.1626,389.5703,196.1626,393.5703,192.1626,389.5703" style="stroke:#181818;stroke-width:1.0;"/><line style="stroke:#181818;stroke-width:1.0;stroke-dasharray:2.0,2.0;" x1="190.1626" x2="360.9497" y1="389.5703" y2="389.5703"/><text fill="#000000" font-family="sans-serif" font-size="13" font-weight="bold" lengthAdjust="spacing" textLength="7.23" x="202.1626" y="384.3076">7</text><text fill="#000000" font-family="sans-serif" font-size="13" lengthAdjust="spacing" textLength="136.5571" x="213.3926" y="384.3076">List&lt;String&gt; (formatted)</text><polygon fill="#181818" points="55.5654,416.8613,45.5654,420.8613,55.5654,424.8613,51.5654,420.8613" style="stroke:#181818;stroke-width:1.0;"/><line style="stroke:#181818;stroke-width:1.0;stroke-dasharray:2.0,2.0;" x1="49.5654" x2="179.1626" y1="420.8613" y2="420.8613"/><text fill="#000000" font-family="sans-serif" font-size="13" font-weight="bold" lengthAdjust="spacing" textLength="7.23" x="61.5654" y="415.5986">8</text><text fill="#000000" font-family="sans-serif" font-size="13" lengthAdjust="spacing" textLength="95.3672" x="72.7954" y="415.5986">displays user list</text><!--SRC=[TLAnRi8m4Dtz5IUcP61ekw462HLLGkfGOQBERcA2XMEdzXd4t_USGcBITdFktdltxbtyKPbEED52Qusj3iws4j05oVpGwKHr58taUD4IdAnGc4Qd07yGjJqhqy1UQ2yPGuK4BJV0vLUGffAmLgA9q8ppTGvpU5CUeVJIUNZLzWnPoHyVddB6H41hGlif7Rqhj0vcgxfLfWVFG7W8z60q65MbEc4GPeke5llbfaUKct_wBzQWirfVbSRF2NuhE-iL3R-yEtjIzHNlg7mhJ1XHVMGDFcE9iQ80lbjjTr0KZCKop9SndGMuOB8yxgbE0cDYZ56TkgCrGZKILrhtQNqeF70K67pAInPX2PDqKika5EvifX9tkzsnvbCxmsAr_9i-yN334tMlJ4shf8C7jG7sQs0yttDSVvcE7FDDnzsIxJaS7VsLIyZsrhK2KTPvgf365cE_UYLshNodnUNdYA19A-NHcRu1]--></g></svg>