<svg xmlns="http://www.w3.org/2000/svg" xmlns:xlink="http://www.w3.org/1999/xlink" contentStyleType="text/css" height="553px" preserveAspectRatio="none" style="width:940px;height:553px;background:#FFFFFF;" version="1.1" viewBox="0 0 940 553" width="940px" zoomAndPan="magnify"><title>UI Sequence Diagram (SSD) - List Users Flow (US213)</title><defs/><g><text fill="#000000" font-family="sans-serif" font-size="14" font-weight="bold" lengthAdjust="spacing" textLength="357.8682" x="287.229" y="30.1074">UI Sequence Diagram (SSD) - List Users Flow (US213)</text><rect fill="#FFFFFF" height="250.3281" style="stroke:#181818;stroke-width:1.0;" width="10" x="173.0571" y="201.8242"/><rect fill="#FFFFFF" height="219.0371" style="stroke:#181818;stroke-width:1.0;" width="10" x="422.0215" y="233.1152"/><rect fill="#FFFFFF" height="31.291" style="stroke:#181818;stroke-width:1.0;" width="10" x="574.2031" y="264.4063"/><rect fill="#FFFFFF" height="31.291" style="stroke:#181818;stroke-width:1.0;" width="10" x="709.8545" y="389.5703"/><rect fill="#FFFFFF" height="31.291" style="stroke:#181818;stroke-width:1.0;" width="10" x="850.1816" y="326.9883"/><line style="stroke:#181818;stroke-width:0.5;stroke-dasharray:5.0,5.0;" x1="44" x2="44" y1="123.2422" y2="470.1523"/><line style="stroke:#181818;stroke-width:0.5;stroke-dasharray:5.0,5.0;" x1="178.0366" x2="178.0366" y1="123.2422" y2="470.1523"/><line style="stroke:#181818;stroke-width:0.5;stroke-dasharray:5.0,5.0;" x1="426.5596" x2="426.5596" y1="123.2422" y2="470.1523"/><line style="stroke:#181818;stroke-width:0.5;stroke-dasharray:5.0,5.0;" x1="578.7344" x2="578.7344" y1="123.2422" y2="470.1523"/><line style="stroke:#181818;stroke-width:0.5;stroke-dasharray:5.0,5.0;" x1="714.6719" x2="714.6719" y1="123.2422" y2="470.1523"/><line style="stroke:#181818;stroke-width:0.5;stroke-dasharray:5.0,5.0;" x1="855.0371" x2="855.0371" y1="123.2422" y2="470.1523"/><text fill="#000000" font-family="sans-serif" font-size="14" lengthAdjust="spacing" textLength="73.1309" x="5" y="119.7285">Admin User</text><ellipse cx="44.5654" cy="53.1211" fill="#E3E3E3" rx="8" ry="8" style="stroke:#181818;stroke-width:0.5;"/><path d="M44.5654,61.1211 L44.5654,88.1211 M31.5654,69.1211 L57.5654,69.1211 M44.5654,88.1211 L31.5654,103.1211 M44.5654,88.1211 L57.5654,103.1211 " fill="none" style="stroke:#181818;stroke-width:0.5;"/><text fill="#000000" font-family="sans-serif" font-size="14" lengthAdjust="spacing" textLength="73.1309" x="5" y="484.2598">Admin User</text><ellipse cx="44.5654" cy="496.2734" fill="#E3E3E3" rx="8" ry="8" style="stroke:#181818;stroke-width:0.5;"/><path d="M44.5654,504.2734 L44.5654,531.2734 M31.5654,512.2734 L57.5654,512.2734 M44.5654,531.2734 L31.5654,546.2734 M44.5654,531.2734 L57.5654,546.2734 " fill="none" style="stroke:#181818;stroke-width:0.5;"/><rect fill="#E3E3E3" height="32.6211" rx="2.5" ry="2.5" style="stroke:#181818;stroke-width:0.5;" width="112.041" x="122.0366" y="89.6211"/><text fill="#000000" font-family="sans-serif" font-size="14" lengthAdjust="spacing" textLength="98.041" x="129.0366" y="111.7285">:ManageUserUI</text><rect fill="#E3E3E3" height="32.6211" rx="2.5" ry="2.5" style="stroke:#181818;stroke-width:0.5;" width="112.041" x="122.0366" y="469.1523"/><text fill="#000000" font-family="sans-serif" font-size="14" lengthAdjust="spacing" textLength="98.041" x="129.0366" y="491.2598">:ManageUserUI</text><rect fill="#E3E3E3" height="32.6211" rx="2.5" ry="2.5" style="stroke:#181818;stroke-width:0.5;" width="136.9238" x="358.5596" y="89.6211"/><text fill="#000000" font-family="sans-serif" font-size="14" lengthAdjust="spacing" textLength="122.9238" x="365.5596" y="111.7285">:ListUsersController</text><rect fill="#E3E3E3" height="32.6211" rx="2.5" ry="2.5" style="stroke:#181818;stroke-width:0.5;" width="136.9238" x="358.5596" y="469.1523"/><text fill="#000000" font-family="sans-serif" font-size="14" lengthAdjust="spacing" textLength="122.9238" x="365.5596" y="491.2598">:ListUsersController</text><rect fill="#E3E3E3" height="32.6211" rx="2.5" ry="2.5" style="stroke:#181818;stroke-width:0.5;" width="136.9375" x="510.7344" y="89.6211"/><text fill="#000000" font-family="sans-serif" font-size="14" lengthAdjust="spacing" textLength="122.9375" x="517.7344" y="111.7285">:RepositoryProvider</text><rect fill="#E3E3E3" height="32.6211" rx="2.5" ry="2.5" style="stroke:#181818;stroke-width:0.5;" width="136.9375" x="510.7344" y="469.1523"/><text fill="#000000" font-family="sans-serif" font-size="14" lengthAdjust="spacing" textLength="122.9375" x="517.7344" y="491.2598">:RepositoryProvider</text><rect fill="#E3E3E3" height="32.6211" rx="2.5" ry="2.5" style="stroke:#181818;stroke-width:0.5;" width="114.3652" x="657.6719" y="89.6211"/><text fill="#000000" font-family="sans-serif" font-size="14" lengthAdjust="spacing" textLength="100.3652" x="664.6719" y="111.7285">:UserRepository</text><rect fill="#E3E3E3" height="32.6211" rx="2.5" ry="2.5" style="stroke:#181818;stroke-width:0.5;" width="114.3652" x="657.6719" y="469.1523"/><text fill="#000000" font-family="sans-serif" font-size="14" lengthAdjust="spacing" textLength="100.3652" x="664.6719" y="491.2598">:UserRepository</text><rect fill="#E3E3E3" height="32.6211" rx="2.5" ry="2.5" style="stroke:#181818;stroke-width:0.5;" width="146.2891" x="782.0371" y="89.6211"/><text fill="#000000" font-family="sans-serif" font-size="14" lengthAdjust="spacing" textLength="132.2891" x="789.0371" y="111.7285">:AuthorizationService</text><rect fill="#E3E3E3" height="32.6211" rx="2.5" ry="2.5" style="stroke:#181818;stroke-width:0.5;" width="146.2891" x="782.0371" y="469.1523"/><text fill="#000000" font-family="sans-serif" font-size="14" lengthAdjust="spacing" textLength="132.2891" x="789.0371" y="491.2598">:AuthorizationService</text><rect fill="#FFFFFF" height="250.3281" style="stroke:#181818;stroke-width:1.0;" width="10" x="173.0571" y="201.8242"/><rect fill="#FFFFFF" height="219.0371" style="stroke:#181818;stroke-width:1.0;" width="10" x="422.0215" y="233.1152"/><rect fill="#FFFFFF" height="31.291" style="stroke:#181818;stroke-width:1.0;" width="10" x="574.2031" y="264.4063"/><rect fill="#FFFFFF" height="31.291" style="stroke:#181818;stroke-width:1.0;" width="10" x="709.8545" y="389.5703"/><rect fill="#FFFFFF" height="31.291" style="stroke:#181818;stroke-width:1.0;" width="10" x="850.1816" y="326.9883"/><rect fill="#EEEEEE" height="3" style="stroke:#EEEEEE;stroke-width:1.0;" width="933.3262" x="0" y="154.8877"/><line style="stroke:#000000;stroke-width:1.0;" x1="0" x2="933.3262" y1="154.8877" y2="154.8877"/><line style="stroke:#000000;stroke-width:1.0;" x1="0" x2="933.3262" y1="157.8877" y2="157.8877"/><rect fill="#EEEEEE" height="25.291" style="stroke:#000000;stroke-width:2.0;" width="60.9409" x="436.1926" y="143.2422"/><text fill="#000000" font-family="sans-serif" font-size="13" font-weight="bold" lengthAdjust="spacing" textLength="43.3291" x="442.1926" y="161.2705">START</text><polygon fill="#181818" points="161.0571,197.8242,171.0571,201.8242,161.0571,205.8242,165.0571,201.8242" style="stroke:#181818;stroke-width:1.0;"/><line style="stroke:#181818;stroke-width:1.0;" x1="44.5654" x2="167.0571" y1="201.8242" y2="201.8242"/><text fill="#000000" font-family="sans-serif" font-size="13" font-weight="bold" lengthAdjust="spacing" textLength="7.23" x="51.5654" y="196.5615">1</text><text fill="#000000" font-family="sans-serif" font-size="13" lengthAdjust="spacing" textLength="98.2617" x="62.7954" y="196.5615">requests user list</text><polygon fill="#181818" points="410.0215,229.1152,420.0215,233.1152,410.0215,237.1152,414.0215,233.1152" style="stroke:#181818;stroke-width:1.0;"/><line style="stroke:#181818;stroke-width:1.0;" x1="183.0571" x2="416.0215" y1="233.1152" y2="233.1152"/><text fill="#000000" font-family="sans-serif" font-size="13" font-weight="bold" lengthAdjust="spacing" textLength="7.23" x="190.0571" y="227.8525">2</text><text fill="#000000" font-family="sans-serif" font-size="13" lengthAdjust="spacing" textLength="173.3545" x="201.2871" y="227.8525">listAllUsers(currentUserEmail)</text><polygon fill="#181818" points="562.2031,260.4063,572.2031,264.4063,562.2031,268.4063,566.2031,264.4063" style="stroke:#181818;stroke-width:1.0;"/><line style="stroke:#181818;stroke-width:1.0;" x1="432.0215" x2="568.2031" y1="264.4063" y2="264.4063"/><text fill="#000000" font-family="sans-serif" font-size="13" font-weight="bold" lengthAdjust="spacing" textLength="7.23" x="439.0215" y="259.1436">3</text><text fill="#000000" font-family="sans-serif" font-size="13" lengthAdjust="spacing" textLength="96.0845" x="450.2515" y="259.1436">userRepository()</text><polygon fill="#181818" points="443.0215,291.6973,433.0215,295.6973,443.0215,299.6973,439.0215,295.6973" style="stroke:#181818;stroke-width:1.0;"/><line style="stroke:#181818;stroke-width:1.0;stroke-dasharray:2.0,2.0;" x1="437.0215" x2="578.2031" y1="295.6973" y2="295.6973"/><text fill="#000000" font-family="sans-serif" font-size="13" font-weight="bold" lengthAdjust="spacing" textLength="7.23" x="449.0215" y="290.4346">4</text><text fill="#000000" font-family="sans-serif" font-size="13" lengthAdjust="spacing" textLength="106.9517" x="460.2515" y="290.4346">userRepoInterface</text><polygon fill="#181818" points="838.1816,322.9883,848.1816,326.9883,838.1816,330.9883,842.1816,326.9883" style="stroke:#181818;stroke-width:1.0;"/><line style="stroke:#181818;stroke-width:1.0;" x1="432.0215" x2="844.1816" y1="326.9883" y2="326.9883"/><text fill="#000000" font-family="sans-serif" font-size="13" font-weight="bold" lengthAdjust="spacing" textLength="7.23" x="439.0215" y="321.7256">5</text><text fill="#000000" font-family="sans-serif" font-size="13" lengthAdjust="spacing" textLength="155.3081" x="450.2515" y="321.7256">isAdmin(currentUserEmail)</text><polygon fill="#181818" points="443.0215,354.2793,433.0215,358.2793,443.0215,362.2793,439.0215,358.2793" style="stroke:#181818;stroke-width:1.0;"/><line style="stroke:#181818;stroke-width:1.0;stroke-dasharray:2.0,2.0;" x1="437.0215" x2="854.1816" y1="358.2793" y2="358.2793"/><text fill="#000000" font-family="sans-serif" font-size="13" font-weight="bold" lengthAdjust="spacing" textLength="7.23" x="449.0215" y="353.0166">6</text><text fill="#000000" font-family="sans-serif" font-size="13" lengthAdjust="spacing" textLength="22.4009" x="460.2515" y="353.0166">true</text><polygon fill="#181818" points="697.8545,385.5703,707.8545,389.5703,697.8545,393.5703,701.8545,389.5703" style="stroke:#181818;stroke-width:1.0;"/><line style="stroke:#181818;stroke-width:1.0;" x1="432.0215" x2="703.8545" y1="389.5703" y2="389.5703"/><text fill="#000000" font-family="sans-serif" font-size="13" font-weight="bold" lengthAdjust="spacing" textLength="7.23" x="439.0215" y="384.3076">7</text><text fill="#000000" font-family="sans-serif" font-size="13" lengthAdjust="spacing" textLength="44.0654" x="450.2515" y="384.3076">findAll()</text><polygon fill="#181818" points="443.0215,416.8613,433.0215,420.8613,443.0215,424.8613,439.0215,420.8613" style="stroke:#181818;stroke-width:1.0;"/><line style="stroke:#181818;stroke-width:1.0;stroke-dasharray:2.0,2.0;" x1="437.0215" x2="713.8545" y1="420.8613" y2="420.8613"/><text fill="#000000" font-family="sans-serif" font-size="13" font-weight="bold" lengthAdjust="spacing" textLength="7.23" x="449.0215" y="415.5986">8</text><text fill="#000000" font-family="sans-serif" font-size="13" lengthAdjust="spacing" textLength="62.8608" x="460.2515" y="415.5986">List&lt;User&gt;</text><polygon fill="#181818" points="189.0571,448.1523,179.0571,452.1523,189.0571,456.1523,185.0571,452.1523" style="stroke:#181818;stroke-width:1.0;"/><line style="stroke:#181818;stroke-width:1.0;stroke-dasharray:2.0,2.0;" x1="183.0571" x2="426.0215" y1="452.1523" y2="452.1523"/><text fill="#000000" font-family="sans-serif" font-size="13" font-weight="bold" lengthAdjust="spacing" textLength="7.23" x="195.0571" y="446.8896">9</text><text fill="#000000" font-family="sans-serif" font-size="13" lengthAdjust="spacing" textLength="203.7344" x="206.2871" y="446.8896">show user list (name, email, status)</text><!--SRC=[VLFRQkCm47tNLmnvSg1vQFUjR0gXtOL05qeSVy2iF8b5PIcLnYdjr-z8cuiIbxvPqZbpBfBZgt4x3DX3xvtNNV0z0OU1L3oTx52_ufPg_h04WJIZszeI43ji_RjnMzYWZQGK6nPeiuIQtWPock39u3P1gxf-ci8CdaraQ2A52B-jVuUggUzkVqoLme6z6_g_5EHRimymMRIzSHay0Ommo8SIOJRQxD0nJEx_e1E32T4iCwPPNY6INfPxz8w3j_Omx76zUhw2hcZden7bZvVWzwOz88Di7pUk66dmcNKocRQMZYbiKDCLPJ5mvuFvH3RUrHJsHbCcIlxki5PgFeTwlLYjOJvNAes4sKEgzLxSIB6H_mk1bNIfBRD7JhqhmGWoXHDiEbrOc-DNUWY1NExYLu_6Ji-yt8NA926NUMN8S96nAcWNnLomPcSFupvQ-dh2oK3HX0mmCJ-3x_oNrPNamaP-sONoHTj7uP5N8MwCQwN3ClSuqfXOIASN-3FPVYWDZ8SSR1mlEdRoTvmk6Ig7FTq0fUWt41bvYDDoOBx4OYsFuHy0]--></g></svg>