<?xml version="1.0" encoding="UTF-8" standalone="no"?><svg xmlns="http://www.w3.org/2000/svg" xmlns:xlink="http://www.w3.org/1999/xlink" contentScriptType="application/ecmascript" contentStyleType="text/css" height="80px" preserveAspectRatio="none" style="width:200px;height:80px;" version="1.1" viewBox="0 0 200 80" width="200px" zoomAndPan="magnify"><defs><filter height="300%" id="f1lyahz5a0ozqq" width="300%" x="-1" y="-1"><feGaussianBlur result="blurOut" stdDeviation="2.0"/><feColorMatrix in="blurOut" result="blurOut2" type="matrix" values="0 0 0 0 0 0 0 0 0 0 0 0 0 0 0 0 0 0 .4 0"/><feOffset dx="4.0" dy="4.0" in="blurOut2" result="blurOut3"/><feBlend in="SourceGraphic" in2="blurOut3" mode="normal"/></filter></defs><g><!--MD5=[fab086914f15b0210c1dc87656a422b9]
class domain.entity.Costumer--><a href="Costumer.html" target="_top" title="Costumer.html" xlink:actuate="onRequest" xlink:href="Costumer.html" xlink:show="new" xlink:title="Costumer.html" xlink:type="simple"><rect codeLine="5" fill="#FEFECE" filter="url(#f1lyahz5a0ozqq)" height="42.6879" id="domain.entity.Costumer" style="stroke: #A80036; stroke-width: 1.5;" width="99" x="44.5" y="7"/><ellipse cx="59.5" cy="28.344" fill="#ADD1B2" rx="11" ry="11" style="stroke: #A80036; stroke-width: 1.0;"/><path d="M62.4688,33.9846 Q61.8906,34.2815 61.25,34.4221 Q60.6094,34.5783 59.9063,34.5783 Q57.4063,34.5783 56.0781,32.9377 Q54.7656,31.2815 54.7656,28.1565 Q54.7656,25.0315 56.0781,23.3752 Q57.4063,21.719 59.9063,21.719 Q60.6094,21.719 61.25,21.8752 Q61.9063,22.0315 62.4688,22.3283 L62.4688,25.0471 Q61.8438,24.469 61.25,24.2033 Q60.6563,23.9221 60.0313,23.9221 Q58.6875,23.9221 58,25.0002 Q57.3125,26.0627 57.3125,28.1565 Q57.3125,30.2502 58,31.3283 Q58.6875,32.3908 60.0313,32.3908 Q60.6563,32.3908 61.25,32.1252 Q61.8438,31.844 62.4688,31.2658 L62.4688,33.9846 Z "/><text fill="#000000" font-family="sans-serif" font-size="14" lengthAdjust="spacingAndGlyphs" textLength="65" x="74.5" y="26.9659">Costumer</text><text fill="#000000" font-family="sans-serif" font-size="10" lengthAdjust="spacingAndGlyphs" textLength="67" x="73.5" y="41.7579">domain.entity</text></a><text fill="#888888" font-family="sans-serif" font-size="10" lengthAdjust="spacingAndGlyphs" textLength="188" x="0" y="67.3779">UMLDoclet 2.0.12, PlantUML 1.2020.16</text><!--MD5=[8251d726f9fffb86efba359e979a9fdd]
@startuml
    set namespaceSeparator none
    hide empty fields
    hide empty methods

    class "<size:14>Costumer\n<size:10>domain.entity" as domain.entity.Costumer [[Costumer.html]]

    center footer UMLDoclet 2.0.12, PlantUML 1.2020.16
@enduml

PlantUML version 1.2020.16(Sun Aug 23 21:20:43 WEST 2020)
(APACHE source distribution)
Java Runtime: Java(TM) SE Runtime Environment
JVM: Java HotSpot(TM) 64-Bit Server VM
Default Encoding: UTF-8
Language: en
Country: US
--></g></svg>