<?xml version="1.0" encoding="UTF-8" standalone="no"?><svg xmlns="http://www.w3.org/2000/svg" xmlns:xlink="http://www.w3.org/1999/xlink" contentScriptType="application/ecmascript" contentStyleType="text/css" height="377px" preserveAspectRatio="none" style="width:380px;height:377px;" version="1.1" viewBox="0 0 380 377" width="380px" zoomAndPan="magnify"><defs><filter height="300%" id="f1x275ryzovkx3" width="300%" x="-1" y="-1"><feGaussianBlur result="blurOut" stdDeviation="2.0"/><feColorMatrix in="blurOut" result="blurOut2" type="matrix" values="0 0 0 0 0 0 0 0 0 0 0 0 0 0 0 0 0 0 .4 0"/><feOffset dx="4.0" dy="4.0" in="blurOut2" result="blurOut3"/><feBlend in="SourceGraphic" in2="blurOut3" mode="normal"/></filter></defs><g><!--MD5=[a5b1108f438f6fac71dfb2ef2576a28e]
class domain.entity.Customer--><a href="Customer.html" target="_top" title="Customer.html" xlink:actuate="onRequest" xlink:href="Customer.html" xlink:show="new" xlink:title="Customer.html" xlink:type="simple"><rect codeLine="5" fill="#FEFECE" filter="url(#f1x275ryzovkx3)" height="235.6367" id="domain.entity.Customer" style="stroke: #A80036; stroke-width: 1.5;" width="352" x="9" y="105.26"/><ellipse cx="147.25" cy="124.3928" fill="#ADD1B2" rx="11" ry="11" style="stroke: #A80036; stroke-width: 1.0;"/><path d="M149.7231,130.5359 Q149.1421,130.8347 148.5029,130.9841 Q147.8638,131.1335 147.1582,131.1335 Q144.6514,131.1335 143.3315,129.4817 Q142.0117,127.8298 142.0117,124.7087 Q142.0117,121.5793 143.3315,119.9275 Q144.6514,118.2756 147.1582,118.2756 Q147.8638,118.2756 148.5112,118.425 Q149.1587,118.5745 149.7231,118.8733 L149.7231,121.5959 Q149.0923,121.0149 148.4988,120.7451 Q147.9053,120.4753 147.2744,120.4753 Q145.9297,120.4753 145.2449,121.542 Q144.5601,122.6086 144.5601,124.7087 Q144.5601,126.8005 145.2449,127.8672 Q145.9297,128.9338 147.2744,128.9338 Q147.9053,128.9338 148.4988,128.6641 Q149.0923,128.3943 149.7231,127.8132 Z "/><text fill="#000000" font-family="sans-serif" font-size="14" lengthAdjust="spacingAndGlyphs" textLength="67" x="167.75" y="123.7952">Customer</text><text fill="#000000" font-family="sans-serif" font-size="10" lengthAdjust="spacingAndGlyphs" textLength="67" x="167.75" y="136.4163">domain.entity</text><line style="stroke: #A80036; stroke-width: 1.5;" x1="10" x2="360" y1="143.5256" y2="143.5256"/><rect fill="none" height="6" style="stroke: #C82930; stroke-width: 1.0;" width="6" x="17" y="151.5256"/><text fill="#000000" font-family="sans-serif" font-size="11" lengthAdjust="spacingAndGlyphs" textLength="133" x="29" y="158.1604">customerSystemID: Long</text><rect fill="none" height="6" style="stroke: #C82930; stroke-width: 1.0;" width="6" x="17" y="164.4807"/><text fill="#000000" font-family="sans-serif" font-size="11" lengthAdjust="spacingAndGlyphs" textLength="65" x="29" y="171.1155">name: Name</text><rect fill="none" height="6" style="stroke: #C82930; stroke-width: 1.0;" width="6" x="17" y="177.4358"/><text fill="#000000" font-family="sans-serif" font-size="11" lengthAdjust="spacingAndGlyphs" textLength="107" x="29" y="184.0705">email: EmailAddress</text><rect fill="none" height="6" style="stroke: #C82930; stroke-width: 1.0;" width="6" x="17" y="190.3909"/><text fill="#000000" font-family="sans-serif" font-size="11" lengthAdjust="spacingAndGlyphs" textLength="159" x="29" y="197.0256">phoneNumber: PhoneNumber</text><rect fill="none" height="6" style="stroke: #C82930; stroke-width: 1.0;" width="6" x="17" y="203.3459"/><text fill="#000000" font-family="sans-serif" font-size="11" lengthAdjust="spacingAndGlyphs" textLength="37" x="29" y="209.9807">nif: NIF</text><rect fill="none" height="6" style="stroke: #C82930; stroke-width: 1.0;" width="6" x="17" y="216.301"/><text fill="#000000" font-family="sans-serif" font-size="11" lengthAdjust="spacingAndGlyphs" textLength="94" x="29" y="222.9358">address: Address</text><line style="stroke: #A80036; stroke-width: 1.5;" x1="10" x2="360" y1="229.2561" y2="229.2561"/><polygon fill="#FFFF44" points="20,235.2561,24,239.2561,20,243.2561,16,239.2561" style="stroke: #B38D22; stroke-width: 1.0;"/><text fill="#000000" font-family="sans-serif" font-size="11" lengthAdjust="spacingAndGlyphs" textLength="61" x="29" y="243.8909">Customer()</text><ellipse cx="20" cy="253.2112" fill="#84BE84" rx="3" ry="3" style="stroke: #038048; stroke-width: 1.0;"/><text fill="#000000" font-family="sans-serif" font-size="11" lengthAdjust="spacingAndGlyphs" textLength="326" x="29" y="256.8459">Customer(Name, EmailAddress, PhoneNumber, NIF, Address)</text><ellipse cx="20" cy="266.1663" fill="#84BE84" rx="3" ry="3" style="stroke: #038048; stroke-width: 1.0;"/><text fill="#000000" font-family="sans-serif" font-size="11" lengthAdjust="spacingAndGlyphs" textLength="81" x="29" y="269.801">identity(): Long</text><ellipse cx="20" cy="279.1213" fill="#84BE84" rx="3" ry="3" style="stroke: #038048; stroke-width: 1.0;"/><text fill="#000000" font-family="sans-serif" font-size="11" lengthAdjust="spacingAndGlyphs" textLength="73" x="29" y="282.7561">name(): Name</text><ellipse cx="20" cy="292.0764" fill="#84BE84" rx="3" ry="3" style="stroke: #038048; stroke-width: 1.0;"/><text fill="#000000" font-family="sans-serif" font-size="11" lengthAdjust="spacingAndGlyphs" textLength="115" x="29" y="295.7112">email(): EmailAddress</text><ellipse cx="20" cy="305.0315" fill="#84BE84" rx="3" ry="3" style="stroke: #038048; stroke-width: 1.0;"/><text fill="#000000" font-family="sans-serif" font-size="11" lengthAdjust="spacingAndGlyphs" textLength="167" x="29" y="308.6663">phoneNumber(): PhoneNumber</text><ellipse cx="20" cy="317.9866" fill="#84BE84" rx="3" ry="3" style="stroke: #038048; stroke-width: 1.0;"/><text fill="#000000" font-family="sans-serif" font-size="11" lengthAdjust="spacingAndGlyphs" textLength="45" x="29" y="321.6213">nif(): NIF</text><ellipse cx="20" cy="330.9416" fill="#84BE84" rx="3" ry="3" style="stroke: #038048; stroke-width: 1.0;"/><text fill="#000000" font-family="sans-serif" font-size="11" lengthAdjust="spacingAndGlyphs" textLength="102" x="29" y="334.5764">address(): Address</text></a><!--MD5=[5a5af9b0547913863cbe0ddf55a9ab5e]
class java.io.Serializable--><rect codeLine="22" fill="#FEFECE" filter="url(#f1x275ryzovkx3)" height="38.2656" id="java.io.Serializable" style="stroke: #A80036; stroke-width: 1.5;" width="111" x="129.5" y="7"/><ellipse cx="144.5" cy="26.1328" fill="#B4A7E5" rx="11" ry="11" style="stroke: #A80036; stroke-width: 1.0;"/><path d="M140.9277,22.3979 L140.9277,20.2397 L148.3071,20.2397 L148.3071,22.3979 L145.8418,22.3979 L145.8418,30.4746 L148.3071,30.4746 L148.3071,32.6328 L140.9277,32.6328 L140.9277,30.4746 L143.3931,30.4746 L143.3931,22.3979 Z "/><text fill="#000000" font-family="sans-serif" font-size="14" font-style="italic" lengthAdjust="spacingAndGlyphs" textLength="79" x="158.5" y="25.5352">Serializable</text><text fill="#000000" font-family="sans-serif" font-size="10" font-style="italic" lengthAdjust="spacingAndGlyphs" textLength="32" x="182" y="38.1563">java.io</text><!--MD5=[c425ca7143135333395fec3333d58dc5]
reverse link java.io.Serializable to domain.entity.Customer--><path codeLine="24" d="M185,66.9 C185,78.38 185,91.53 185,105.2 " fill="none" id="java.io.Serializable-backto-domain.entity.Customer" style="stroke: #A80036; stroke-width: 1.0; stroke-dasharray: 7.0,7.0;"/><polygon fill="none" points="178,66.98,185,46.98,192,66.98,178,66.98" style="stroke: #A80036; stroke-width: 1.0;"/><text fill="#888888" font-family="sans-serif" font-size="10" lengthAdjust="spacingAndGlyphs" textLength="188" x="87" y="363.5647">UMLDoclet 2.0.12, PlantUML 1.2020.16</text><!--MD5=[90a574065993a3c067792b3f6678d2ba]
@startuml
    set namespaceSeparator none
    hide empty fields
    hide empty methods

    class "<size:14>Customer\n<size:10>domain.entity" as domain.entity.Customer [[Customer.html]] {
        -customerSystemID: Long
        -name: Name
        -email: EmailAddress
        -phoneNumber: PhoneNumber
        -nif: NIF
        -address: Address
        #Customer()
        +Customer(Name, EmailAddress, PhoneNumber, NIF, Address)
        +identity(): Long
        +name(): Name
        +email(): EmailAddress
        +phoneNumber(): PhoneNumber
        +nif(): NIF
        +address(): Address
    }

    interface "<size:14>Serializable\n<size:10>java.io" as java.io.Serializable

    java.io.Serializable <|.. domain.entity.Customer

    center footer UMLDoclet 2.0.12, PlantUML 1.2020.16
@enduml

PlantUML version 1.2020.16(Sun Aug 23 21:20:43 WEST 2020)
(APACHE source distribution)
Java Runtime: OpenJDK Runtime Environment
JVM: OpenJDK 64-Bit Server VM
Default Encoding: UTF-8
Language: pt
Country: PT
--></g></svg>