<?xml version="1.0" encoding="UTF-8" standalone="no"?><svg xmlns="http://www.w3.org/2000/svg" xmlns:xlink="http://www.w3.org/1999/xlink" contentScriptType="application/ecmascript" contentStyleType="text/css" height="96px" preserveAspectRatio="none" style="width:200px;height:96px;" version="1.1" viewBox="0 0 200 96" width="200px" zoomAndPan="magnify"><defs><filter height="300%" id="fdfmnky9p8wm" width="300%" x="-1" y="-1"><feGaussianBlur result="blurOut" stdDeviation="2.0"/><feColorMatrix in="blurOut" result="blurOut2" type="matrix" values="0 0 0 0 0 0 0 0 0 0 0 0 0 0 0 0 0 0 .4 0"/><feOffset dx="4.0" dy="4.0" in="blurOut2" result="blurOut3"/><feBlend in="SourceGraphic" in2="blurOut3" mode="normal"/></filter></defs><g><!--MD5=[9bc80018f7b8d0a2c8390cfff78bf8c6]
class domain.entity.Figure--><a href="Figure.html" target="_top" title="Figure.html" xlink:actuate="onRequest" xlink:href="Figure.html" xlink:show="new" xlink:title="Figure.html" xlink:type="simple"><rect codeLine="5" fill="#FEFECE" filter="url(#fdfmnky9p8wm)" height="59.2207" id="domain.entity.Figure" style="stroke: #A80036; stroke-width: 1.5;" width="99" x="44.5" y="7"/><ellipse cx="59.5" cy="26.1328" fill="#ADD1B2" rx="11" ry="11" style="stroke: #A80036; stroke-width: 1.0;"/><path d="M61.9731,32.2759 Q61.3921,32.5747 60.7529,32.7241 Q60.1138,32.8735 59.4082,32.8735 Q56.9014,32.8735 55.5815,31.2217 Q54.2617,29.5698 54.2617,26.4487 Q54.2617,23.3193 55.5815,21.6675 Q56.9014,20.0156 59.4082,20.0156 Q60.1138,20.0156 60.7612,20.165 Q61.4087,20.3145 61.9731,20.6133 L61.9731,23.3359 Q61.3423,22.7549 60.7488,22.4851 Q60.1553,22.2153 59.5244,22.2153 Q58.1797,22.2153 57.4949,23.282 Q56.8101,24.3486 56.8101,26.4487 Q56.8101,28.5405 57.4949,29.6072 Q58.1797,30.6738 59.5244,30.6738 Q60.1553,30.6738 60.7488,30.4041 Q61.3423,30.1343 61.9731,29.5532 Z "/><text fill="#000000" font-family="sans-serif" font-size="14" lengthAdjust="spacingAndGlyphs" textLength="44" x="85" y="25.5352">Figure</text><text fill="#000000" font-family="sans-serif" font-size="10" lengthAdjust="spacingAndGlyphs" textLength="67" x="73.5" y="38.1563">domain.entity</text><line style="stroke: #A80036; stroke-width: 1.5;" x1="45.5" x2="142.5" y1="45.2656" y2="45.2656"/><rect fill="none" height="6" style="stroke: #C82930; stroke-width: 1.0;" width="6" x="52.5" y="53.2656"/><text fill="#000000" font-family="sans-serif" font-size="11" lengthAdjust="spacingAndGlyphs" textLength="43" x="64.5" y="59.9004">id: Long</text></a><text fill="#888888" font-family="sans-serif" font-size="10" lengthAdjust="spacingAndGlyphs" textLength="188" x="0" y="82.8887">UMLDoclet 2.0.12, PlantUML 1.2020.16</text><!--MD5=[4de22527277a1828b19680a9ae79da14]
@startuml
    set namespaceSeparator none
    hide empty fields
    hide empty methods

    class "<size:14>Figure\n<size:10>domain.entity" as domain.entity.Figure [[Figure.html]] {
        -id: Long
    }

    center footer UMLDoclet 2.0.12, PlantUML 1.2020.16
@enduml

PlantUML version 1.2020.16(Sun Aug 23 21:20:43 WEST 2020)
(APACHE source distribution)
Java Runtime: OpenJDK Runtime Environment
JVM: OpenJDK 64-Bit Server VM
Default Encoding: UTF-8
Language: pt
Country: PT
--></g></svg>