<?xml version="1.0" encoding="UTF-8" standalone="no"?><svg xmlns="http://www.w3.org/2000/svg" xmlns:xlink="http://www.w3.org/1999/xlink" contentScriptType="application/ecmascript" contentStyleType="text/css" height="640px" preserveAspectRatio="none" style="width:796px;height:640px;" version="1.1" viewBox="0 0 796 640" width="796px" zoomAndPan="magnify"><defs><filter height="300%" id="f18td4rk3w82ol" width="300%" x="-1" y="-1"><feGaussianBlur result="blurOut" stdDeviation="2.0"/><feColorMatrix in="blurOut" result="blurOut2" type="matrix" values="0 0 0 0 0 0 0 0 0 0 0 0 0 0 0 0 0 0 .4 0"/><feOffset dx="4.0" dy="4.0" in="blurOut2" result="blurOut3"/><feBlend in="SourceGraphic" in2="blurOut3" mode="normal"/></filter></defs><g><!--MD5=[be605785c22cdfea9a92451023d7e9c0]
cluster domain.entity--><polygon fill="#FFFFFF" filter="url(#f18td4rk3w82ol)" points="16,156.602,120,156.602,127,181.6699,774,181.6699,774,610.602,16,610.602,16,156.602" style="stroke: #000000; stroke-width: 1.5;"/><line style="stroke: #000000; stroke-width: 1.5;" x1="16" x2="127" y1="181.6699" y2="181.6699"/><text fill="#000000" font-family="sans-serif" font-size="14" font-weight="bold" lengthAdjust="spacingAndGlyphs" textLength="98" x="20" y="173.5679">domain.entity</text><!--MD5=[9924618b55dd3727aa6057b8427147b7]
cluster eapli.framework.domain.model--><polygon fill="#FFFFFF" filter="url(#f18td4rk3w82ol)" points="244,6.602,469,6.602,476,31.6699,546,31.6699,546,123.602,244,123.602,244,6.602" style="stroke: #000000; stroke-width: 1.5;"/><line style="stroke: #000000; stroke-width: 1.5;" x1="244" x2="476" y1="31.6699" y2="31.6699"/><text fill="#000000" font-family="sans-serif" font-size="14" font-weight="bold" lengthAdjust="spacingAndGlyphs" textLength="219" x="248" y="23.5679">eapli.framework.domain.model</text><!--MD5=[ae649e042cb5d2bfc156c00714a71c65]
class domain.entity.ShowRequest--><a href="ShowRequest.html" target="_top" title="ShowRequest.html" xlink:actuate="onRequest" xlink:href="ShowRequest.html" xlink:show="new" xlink:title="ShowRequest.html" xlink:type="simple"><rect codeLine="3" fill="#FEFECE" filter="url(#f18td4rk3w82ol)" height="257.7464" id="domain.entity.ShowRequest" style="stroke: #A80036; stroke-width: 1.5;" width="725" x="32.5" y="194.602"/><ellipse cx="353.25" cy="210.602" fill="#ADD1B2" rx="11" ry="11" style="stroke: #A80036; stroke-width: 1.0;"/><path d="M356.2188,216.2426 Q355.6406,216.5395 355,216.6801 Q354.3594,216.8364 353.6563,216.8364 Q351.1563,216.8364 349.8281,215.1957 Q348.5156,213.5395 348.5156,210.4145 Q348.5156,207.2895 349.8281,205.6332 Q351.1563,203.977 353.6563,203.977 Q354.3594,203.977 355,204.1332 Q355.6563,204.2895 356.2188,204.5864 L356.2188,207.3051 Q355.5938,206.727 355,206.4614 Q354.4063,206.1801 353.7813,206.1801 Q352.4375,206.1801 351.75,207.2582 Q351.0625,208.3207 351.0625,210.4145 Q351.0625,212.5082 351.75,213.5864 Q352.4375,214.6489 353.7813,214.6489 Q354.4063,214.6489 355,214.3832 Q355.5938,214.102 356.2188,213.5239 L356.2188,216.2426 Z "/><text fill="#000000" font-family="sans-serif" font-size="12" lengthAdjust="spacingAndGlyphs" textLength="75" x="373.75" y="215.258">ShowRequest</text><line style="stroke: #A80036; stroke-width: 1.5;" x1="33.5" x2="756.5" y1="226.602" y2="226.602"/><rect fill="none" height="6" style="stroke: #C82930; stroke-width: 1.0;" width="6" x="40.5" y="234.602"/><text fill="#000000" font-family="sans-serif" font-size="11" lengthAdjust="spacingAndGlyphs" text-decoration="underline" textLength="118" x="52.5" y="242.3609">serialVersionUID: long</text><rect fill="none" height="6" style="stroke: #C82930; stroke-width: 1.0;" width="6" x="40.5" y="249.5839"/><text fill="#000000" font-family="sans-serif" font-size="11" lengthAdjust="spacingAndGlyphs" textLength="114" x="52.5" y="257.3428">showRequestId: Long</text><rect fill="none" height="6" style="stroke: #C82930; stroke-width: 1.0;" width="6" x="40.5" y="264.5658"/><text fill="#000000" font-family="sans-serif" font-size="11" lengthAdjust="spacingAndGlyphs" textLength="165" x="52.5" y="272.3247">submissionDate: LocalDateTime</text><rect fill="none" height="6" style="stroke: #C82930; stroke-width: 1.0;" width="6" x="40.5" y="279.5476"/><text fill="#000000" font-family="sans-serif" font-size="11" lengthAdjust="spacingAndGlyphs" textLength="140" x="52.5" y="287.3066">status: ShowRequestStatus</text><rect fill="none" height="6" style="stroke: #C82930; stroke-width: 1.0;" width="6" x="40.5" y="294.5295"/><text fill="#000000" font-family="sans-serif" font-size="11" lengthAdjust="spacingAndGlyphs" textLength="134" x="52.5" y="302.2884">submissionAuthor: String</text><rect fill="none" height="6" style="stroke: #C82930; stroke-width: 1.0;" width="6" x="40.5" y="309.5114"/><text fill="#000000" font-family="sans-serif" font-size="11" lengthAdjust="spacingAndGlyphs" textLength="125" x="52.5" y="317.2703">description: Description</text><rect fill="none" height="6" style="stroke: #C82930; stroke-width: 1.0;" width="6" x="40.5" y="324.4933"/><text fill="#000000" font-family="sans-serif" font-size="11" lengthAdjust="spacingAndGlyphs" textLength="93" x="52.5" y="332.2522">location: Location</text><rect fill="none" height="6" style="stroke: #C82930; stroke-width: 1.0;" width="6" x="40.5" y="339.4752"/><text fill="#000000" font-family="sans-serif" font-size="11" lengthAdjust="spacingAndGlyphs" textLength="134" x="52.5" y="347.2341">showDate: LocalDateTime</text><rect fill="none" height="6" style="stroke: #C82930; stroke-width: 1.0;" width="6" x="40.5" y="354.4571"/><text fill="#000000" font-family="sans-serif" font-size="11" lengthAdjust="spacingAndGlyphs" textLength="113" x="52.5" y="362.216">numberOfDrones: int</text><rect fill="none" height="6" style="stroke: #C82930; stroke-width: 1.0;" width="6" x="40.5" y="369.439"/><text fill="#000000" font-family="sans-serif" font-size="11" lengthAdjust="spacingAndGlyphs" textLength="128" x="52.5" y="377.1979">showDuration: Duration</text><line style="stroke: #A80036; stroke-width: 1.5;" x1="33.5" x2="756.5" y1="384.4209" y2="384.4209"/><polygon fill="#FFFF44" points="43.5,390.4209,47.5,394.4209,43.5,398.4209,39.5,394.4209" style="stroke: #B38D22; stroke-width: 1.0;"/><text fill="#000000" font-family="sans-serif" font-size="11" lengthAdjust="spacingAndGlyphs" textLength="77" x="52.5" y="400.1798">ShowRequest()</text><ellipse cx="43.5" cy="410.4027" fill="#84BE84" rx="3" ry="3" style="stroke: #038048; stroke-width: 1.0;"/><text fill="#000000" font-family="sans-serif" font-size="11" lengthAdjust="spacingAndGlyphs" textLength="699" x="52.5" y="415.1617">ShowRequest(LocalDateTime, ShowRequestStatus, String, Costumer, List&lt;Figure&gt;, Description, Location, LocalDateTime, int, Duration)</text><ellipse cx="43.5" cy="425.3846" fill="#84BE84" rx="3" ry="3" style="stroke: #038048; stroke-width: 1.0;"/><text fill="#000000" font-family="sans-serif" font-size="11" lengthAdjust="spacingAndGlyphs" textLength="79" x="52.5" y="430.1435">identity(): Long</text><ellipse cx="43.5" cy="440.3665" fill="#84BE84" rx="3" ry="3" style="stroke: #038048; stroke-width: 1.0;"/><text fill="#000000" font-family="sans-serif" font-size="11" lengthAdjust="spacingAndGlyphs" textLength="128" x="52.5" y="445.1254">sameAs(Object): boolean</text></a><!--MD5=[9bc80018f7b8d0a2c8390cfff78bf8c6]
class domain.entity.Figure--><a href="Figure.html" target="_top" title="Figure.html" xlink:actuate="onRequest" xlink:href="Figure.html" xlink:show="new" xlink:title="Figure.html" xlink:type="simple"><rect codeLine="20" fill="#FEFECE" filter="url(#f18td4rk3w82ol)" height="62.9819" id="domain.entity.Figure" style="stroke: #A80036; stroke-width: 1.5;" width="69" x="311.5" y="531.602"/><ellipse cx="327.4" cy="547.602" fill="#ADD1B2" rx="11" ry="11" style="stroke: #A80036; stroke-width: 1.0;"/><path d="M330.3688,553.2426 Q329.7906,553.5395 329.15,553.6801 Q328.5094,553.8364 327.8063,553.8364 Q325.3063,553.8364 323.9781,552.1957 Q322.6656,550.5395 322.6656,547.4145 Q322.6656,544.2895 323.9781,542.6332 Q325.3063,540.977 327.8063,540.977 Q328.5094,540.977 329.15,541.1332 Q329.8063,541.2895 330.3688,541.5864 L330.3688,544.3051 Q329.7438,543.727 329.15,543.4614 Q328.5563,543.1801 327.9313,543.1801 Q326.5875,543.1801 325.9,544.2582 Q325.2125,545.3207 325.2125,547.4145 Q325.2125,549.5082 325.9,550.5864 Q326.5875,551.6489 327.9313,551.6489 Q328.5563,551.6489 329.15,551.3832 Q329.7438,551.102 330.3688,550.5239 L330.3688,553.2426 Z "/><text fill="#000000" font-family="sans-serif" font-size="12" lengthAdjust="spacingAndGlyphs" textLength="35" x="341.6" y="552.258">Figure</text><line style="stroke: #A80036; stroke-width: 1.5;" x1="312.5" x2="379.5" y1="563.602" y2="563.602"/><rect fill="none" height="6" style="stroke: #C82930; stroke-width: 1.0;" width="6" x="319.5" y="571.602"/><text fill="#000000" font-family="sans-serif" font-size="11" lengthAdjust="spacingAndGlyphs" textLength="43" x="331.5" y="579.3609">id: Long</text><line style="stroke: #A80036; stroke-width: 1.5;" x1="312.5" x2="379.5" y1="586.5839" y2="586.5839"/></a><!--MD5=[fab086914f15b0210c1dc87656a422b9]
class domain.entity.Costumer--><a href="Costumer.html" target="_top" title="Costumer.html" xlink:actuate="onRequest" xlink:href="Costumer.html" xlink:show="new" xlink:title="Costumer.html" xlink:type="simple"><rect codeLine="24" fill="#FEFECE" filter="url(#f18td4rk3w82ol)" height="48" id="domain.entity.Costumer" style="stroke: #A80036; stroke-width: 1.5;" width="87" x="415.5" y="539.102"/><ellipse cx="430.5" cy="555.102" fill="#ADD1B2" rx="11" ry="11" style="stroke: #A80036; stroke-width: 1.0;"/><path d="M433.4688,560.7426 Q432.8906,561.0395 432.25,561.1801 Q431.6094,561.3364 430.9063,561.3364 Q428.4063,561.3364 427.0781,559.6957 Q425.7656,558.0395 425.7656,554.9145 Q425.7656,551.7895 427.0781,550.1332 Q428.4063,548.477 430.9063,548.477 Q431.6094,548.477 432.25,548.6332 Q432.9063,548.7895 433.4688,549.0864 L433.4688,551.8051 Q432.8438,551.227 432.25,550.9614 Q431.6563,550.6801 431.0313,550.6801 Q429.6875,550.6801 429,551.7582 Q428.3125,552.8207 428.3125,554.9145 Q428.3125,557.0082 429,558.0864 Q429.6875,559.1489 431.0313,559.1489 Q431.6563,559.1489 432.25,558.8832 Q432.8438,558.602 433.4688,558.0239 L433.4688,560.7426 Z "/><text fill="#000000" font-family="sans-serif" font-size="12" lengthAdjust="spacingAndGlyphs" textLength="55" x="444.5" y="559.758">Costumer</text><line style="stroke: #A80036; stroke-width: 1.5;" x1="416.5" x2="501.5" y1="571.102" y2="571.102"/><line style="stroke: #A80036; stroke-width: 1.5;" x1="416.5" x2="501.5" y1="579.102" y2="579.102"/></a><!--MD5=[e6ac70fafaf8ea46a71ac8b1fcfb4f61]
class eapli.framework.domain.model.DomainEntityBase--><rect codeLine="32" fill="#FEFECE" filter="url(#f18td4rk3w82ol)" height="62.9819" id="eapli.framework.domain.model.DomainEntityBase" style="stroke: #A80036; stroke-width: 1.5;" width="270" x="260" y="44.602"/><ellipse cx="275" cy="60.602" fill="#A9DCDF" rx="11" ry="11" style="stroke: #A80036; stroke-width: 1.0;"/><path d="M275.1094,55.9457 L273.9531,61.0239 L276.2813,61.0239 L275.1094,55.9457 Z M273.625,53.7114 L276.6094,53.7114 L279.9688,66.102 L277.5156,66.102 L276.75,63.0395 L273.4688,63.0395 L272.7188,66.102 L270.2813,66.102 L273.625,53.7114 Z "/><text fill="#000000" font-family="sans-serif" font-size="12" font-style="italic" lengthAdjust="spacingAndGlyphs" textLength="98" x="289" y="65.258">DomainEntityBase</text><rect fill="#FFFFFF" height="18.3441" style="stroke: #000000; stroke-width: 1.0; stroke-dasharray: 2.0,2.0;" width="138" x="395" y="41.602"/><text fill="#000000" font-family="sans-serif" font-size="12" font-style="italic" lengthAdjust="spacingAndGlyphs" textLength="136" x="396" y="55.4301">I extends Comparable&lt;​I&gt;</text><line style="stroke: #A80036; stroke-width: 1.5;" x1="261" x2="529" y1="76.602" y2="76.602"/><rect fill="none" height="6" style="stroke: #C82930; stroke-width: 1.0;" width="6" x="268" y="84.602"/><text fill="#000000" font-family="sans-serif" font-size="11" lengthAdjust="spacingAndGlyphs" text-decoration="underline" textLength="118" x="280" y="92.3609">serialVersionUID: long</text><line style="stroke: #A80036; stroke-width: 1.5;" x1="261" x2="529" y1="99.5839" y2="99.5839"/><!--MD5=[d628c41bfbbdd35ad5ec2d629946d824]
reverse link eapli.framework.domain.model.DomainEntityBase to domain.entity.ShowRequest--><path codeLine="26" d="M395,127.702 C395,147.342 395,170.802 395,194.532 " fill="none" id="eapli.framework.domain.model.DomainEntityBase-backto-domain.entity.ShowRequest" style="stroke: #A80036; stroke-width: 1.0;"/><polygon fill="none" points="388,127.702,395,107.702,402,127.702,388,127.702" style="stroke: #A80036; stroke-width: 1.0;"/><!--MD5=[0db4940cbebb720da79ac804d5899a7a]
link domain.entity.ShowRequest to domain.entity.Costumer--><path codeLine="27" d="M429.53,452.732 C437.75,483.232 445.74,512.902 451.33,533.622 " fill="none" id="domain.entity.ShowRequest-to-domain.entity.Costumer" style="stroke: #A80036; stroke-width: 1.0;"/><polygon fill="#A80036" points="452.69,538.692,454.2127,528.9615,451.3901,533.8639,446.4878,531.0413,452.69,538.692" style="stroke: #A80036; stroke-width: 1.0;"/><text fill="#000000" font-family="sans-serif" font-size="13" lengthAdjust="spacingAndGlyphs" textLength="57" x="442" y="497.499">costumer</text><!--MD5=[51798ff239fb819c274e3a257e5bc1f8]
link domain.entity.ShowRequest to domain.entity.Figure--><path codeLine="28" d="M364.05,452.902 C361.91,462.932 359.86,472.922 358,482.602 C355.25,496.882 352.76,512.712 350.76,526.462 " fill="none" id="domain.entity.ShowRequest-to-domain.entity.Figure" style="stroke: #A80036; stroke-width: 1.0;"/><polygon fill="#A80036" points="350.04,531.422,355.2591,523.0697,350.7391,526.4711,347.3377,521.9511,350.04,531.422" style="stroke: #A80036; stroke-width: 1.0;"/><text fill="#000000" font-family="sans-serif" font-size="13" lengthAdjust="spacingAndGlyphs" textLength="41" x="359" y="497.499">figures</text><text fill="#000000" font-family="sans-serif" font-size="13" lengthAdjust="spacingAndGlyphs" textLength="7" x="343.1581" y="519.6088">*</text><text fill="#888888" font-family="sans-serif" font-size="10" lengthAdjust="spacingAndGlyphs" textLength="188" x="295" y="627.292">UMLDoclet 2.0.12, PlantUML 1.2020.16</text><!--MD5=[f377a688e8524b4756e499ee051edf9b]
@startuml
    namespace domain.entity {

        class ShowRequest [[ShowRequest.html]] {
            {static} -serialVersionUID: long
            -showRequestId: Long
            -submissionDate: LocalDateTime
            -status: ShowRequestStatus
            -submissionAuthor: String
            -description: Description
            -location: Location
            -showDate: LocalDateTime
            -numberOfDrones: int
            -showDuration: Duration
            #ShowRequest()
            +ShowRequest(LocalDateTime, ShowRequestStatus, String, Costumer, List<Figure>, Description, Location, LocalDateTime, int, Duration)
            +identity(): Long
            +sameAs(Object): boolean
        }

        class Figure [[Figure.html]] {
            -id: Long
        }

        class Costumer [[Costumer.html]]

        eapli.framework.domain.model.DomainEntityBase <|- - ShowRequest
        ShowRequest - -> Costumer: costumer
        ShowRequest - -> "*" Figure: figures
    }

    namespace eapli.framework.domain.model {
        abstract class DomainEntityBase<I extends Comparable<​I>> {
            {static} -serialVersionUID: long
        }
    }

    center footer UMLDoclet 2.0.12, PlantUML 1.2020.16
@enduml

PlantUML version 1.2020.16(Sun Aug 23 21:20:43 WEST 2020)
(APACHE source distribution)
Java Runtime: Java(TM) SE Runtime Environment
JVM: Java HotSpot(TM) 64-Bit Server VM
Default Encoding: UTF-8
Language: en
Country: US
--></g></svg>