<?xml version="1.0" encoding="UTF-8" standalone="no"?><svg xmlns="http://www.w3.org/2000/svg" xmlns:xlink="http://www.w3.org/1999/xlink" contentScriptType="application/ecmascript" contentStyleType="text/css" height="883px" preserveAspectRatio="none" style="width:1052px;height:883px;" version="1.1" viewBox="0 0 1052 883" width="1052px" zoomAndPan="magnify"><defs><filter height="300%" id="fk0ovm8qeh6qv" width="300%" x="-1" y="-1"><feGaussianBlur result="blurOut" stdDeviation="2.0"/><feColorMatrix in="blurOut" result="blurOut2" type="matrix" values="0 0 0 0 0 0 0 0 0 0 0 0 0 0 0 0 0 0 .4 0"/><feOffset dx="4.0" dy="4.0" in="blurOut2" result="blurOut3"/><feBlend in="SourceGraphic" in2="blurOut3" mode="normal"/></filter></defs><g><!--MD5=[be605785c22cdfea9a92451023d7e9c0]
cluster domain.entity--><polygon fill="#FFFFFF" filter="url(#fk0ovm8qeh6qv)" points="91.13,150.95,196.13,150.95,203.13,173.4383,1030.13,173.4383,1030.13,854.29,91.13,854.29,91.13,150.95" style="stroke: #000000; stroke-width: 1.5;"/><line style="stroke: #000000; stroke-width: 1.5;" x1="91.13" x2="203.13" y1="173.4383" y2="173.4383"/><text fill="#000000" font-family="sans-serif" font-size="14" font-weight="bold" lengthAdjust="spacingAndGlyphs" textLength="99" x="95.13" y="166.4852">domain.entity</text><!--MD5=[0d852700fdad35b7061d461d6907a324]
cluster java.io--><polygon fill="#FFFFFF" filter="url(#fk0ovm8qeh6qv)" points="98.13,12.47,150.13,12.47,157.13,34.9583,228.13,34.9583,228.13,111.47,98.13,111.47,98.13,12.47" style="stroke: #000000; stroke-width: 1.5;"/><line style="stroke: #000000; stroke-width: 1.5;" x1="98.13" x2="157.13" y1="34.9583" y2="34.9583"/><text fill="#000000" font-family="sans-serif" font-size="14" font-weight="bold" lengthAdjust="spacingAndGlyphs" textLength="46" x="102.13" y="28.0052">java.io</text><!--MD5=[9924618b55dd3727aa6057b8427147b7]
cluster eapli.framework.domain.model--><polygon fill="#FFFFFF" filter="url(#fk0ovm8qeh6qv)" points="271.13,6,498.13,6,505.13,28.4883,900.13,28.4883,900.13,117.95,271.13,117.95,271.13,6" style="stroke: #000000; stroke-width: 1.5;"/><line style="stroke: #000000; stroke-width: 1.5;" x1="271.13" x2="505.13" y1="28.4883" y2="28.4883"/><text fill="#000000" font-family="sans-serif" font-size="14" font-weight="bold" lengthAdjust="spacingAndGlyphs" textLength="221" x="275.13" y="21.5352">eapli.framework.domain.model</text><!--MD5=[9bc80018f7b8d0a2c8390cfff78bf8c6]
class domain.entity.Figure--><a href="Figure.html" target="_top" title="Figure.html" xlink:actuate="onRequest" xlink:href="Figure.html" xlink:show="new" xlink:title="Figure.html" xlink:type="simple"><rect codeLine="3" fill="#FEFECE" filter="url(#fk0ovm8qeh6qv)" height="60.9551" id="domain.entity.Figure" style="stroke: #A80036; stroke-width: 1.5;" width="69" x="723.63" y="693.13"/><ellipse cx="739.53" cy="709.13" fill="#ADD1B2" rx="11" ry="11" style="stroke: #A80036; stroke-width: 1.0;"/><path d="M742.0031,715.2731 Q741.4221,715.5719 740.7829,715.7213 Q740.1438,715.8707 739.4382,715.8707 Q736.9314,715.8707 735.6115,714.2189 Q734.2917,712.567 734.2917,709.4459 Q734.2917,706.3165 735.6115,704.6647 Q736.9314,703.0128 739.4382,703.0128 Q740.1438,703.0128 740.7912,703.1622 Q741.4387,703.3116 742.0031,703.6105 L742.0031,706.3331 Q741.3723,705.7521 740.7788,705.4823 Q740.1853,705.2125 739.5544,705.2125 Q738.2097,705.2125 737.5249,706.2792 Q736.8401,707.3458 736.8401,709.4459 Q736.8401,711.5377 737.5249,712.6044 Q738.2097,713.671 739.5544,713.671 Q740.1853,713.671 740.7788,713.4012 Q741.3723,713.1315 742.0031,712.5504 Z "/><text fill="#000000" font-family="sans-serif" font-size="12" lengthAdjust="spacingAndGlyphs" textLength="35" x="753.73" y="713.6652">Figure</text><line style="stroke: #A80036; stroke-width: 1.5;" x1="724.63" x2="791.63" y1="725.13" y2="725.13"/><rect fill="none" height="6" style="stroke: #C82930; stroke-width: 1.0;" width="6" x="731.63" y="733.13"/><text fill="#000000" font-family="sans-serif" font-size="11" lengthAdjust="spacingAndGlyphs" textLength="43" x="743.63" y="739.7648">id: Long</text><line style="stroke: #A80036; stroke-width: 1.5;" x1="724.63" x2="791.63" y1="746.0851" y2="746.0851"/></a><!--MD5=[a5b1108f438f6fac71dfb2ef2576a28e]
class domain.entity.Customer--><a href="Customer.html" target="_top" title="Customer.html" xlink:actuate="onRequest" xlink:href="Customer.html" xlink:show="new" xlink:title="Customer.html" xlink:type="simple"><rect codeLine="7" fill="#FEFECE" filter="url(#fk0ovm8qeh6qv)" height="229.3711" id="domain.entity.Customer" style="stroke: #A80036; stroke-width: 1.5;" width="352" x="222.13" y="608.92"/><ellipse cx="366.38" cy="624.92" fill="#ADD1B2" rx="11" ry="11" style="stroke: #A80036; stroke-width: 1.0;"/><path d="M368.8531,631.0631 Q368.2721,631.3619 367.6329,631.5113 Q366.9938,631.6607 366.2882,631.6607 Q363.7814,631.6607 362.4615,630.0089 Q361.1417,628.357 361.1417,625.2359 Q361.1417,622.1065 362.4615,620.4547 Q363.7814,618.8028 366.2882,618.8028 Q366.9938,618.8028 367.6412,618.9522 Q368.2887,619.1016 368.8531,619.4005 L368.8531,622.1231 Q368.2223,621.5421 367.6288,621.2723 Q367.0353,621.0025 366.4044,621.0025 Q365.0597,621.0025 364.3749,622.0692 Q363.6901,623.1358 363.6901,625.2359 Q363.6901,627.3277 364.3749,628.3944 Q365.0597,629.461 366.4044,629.461 Q367.0353,629.461 367.6288,629.1912 Q368.2223,628.9215 368.8531,628.3404 Z "/><text fill="#000000" font-family="sans-serif" font-size="12" lengthAdjust="spacingAndGlyphs" textLength="55" x="386.88" y="629.4552">Customer</text><line style="stroke: #A80036; stroke-width: 1.5;" x1="223.13" x2="573.13" y1="640.92" y2="640.92"/><rect fill="none" height="6" style="stroke: #C82930; stroke-width: 1.0;" width="6" x="230.13" y="648.92"/><text fill="#000000" font-family="sans-serif" font-size="11" lengthAdjust="spacingAndGlyphs" textLength="133" x="242.13" y="655.5548">customerSystemID: Long</text><rect fill="none" height="6" style="stroke: #C82930; stroke-width: 1.0;" width="6" x="230.13" y="661.8751"/><text fill="#000000" font-family="sans-serif" font-size="11" lengthAdjust="spacingAndGlyphs" textLength="65" x="242.13" y="668.5098">name: Name</text><rect fill="none" height="6" style="stroke: #C82930; stroke-width: 1.0;" width="6" x="230.13" y="674.8302"/><text fill="#000000" font-family="sans-serif" font-size="11" lengthAdjust="spacingAndGlyphs" textLength="107" x="242.13" y="681.4649">email: EmailAddress</text><rect fill="none" height="6" style="stroke: #C82930; stroke-width: 1.0;" width="6" x="230.13" y="687.7852"/><text fill="#000000" font-family="sans-serif" font-size="11" lengthAdjust="spacingAndGlyphs" textLength="159" x="242.13" y="694.42">phoneNumber: PhoneNumber</text><rect fill="none" height="6" style="stroke: #C82930; stroke-width: 1.0;" width="6" x="230.13" y="700.7403"/><text fill="#000000" font-family="sans-serif" font-size="11" lengthAdjust="spacingAndGlyphs" textLength="37" x="242.13" y="707.3751">nif: NIF</text><rect fill="none" height="6" style="stroke: #C82930; stroke-width: 1.0;" width="6" x="230.13" y="713.6954"/><text fill="#000000" font-family="sans-serif" font-size="11" lengthAdjust="spacingAndGlyphs" textLength="94" x="242.13" y="720.3302">address: Address</text><line style="stroke: #A80036; stroke-width: 1.5;" x1="223.13" x2="573.13" y1="726.6505" y2="726.6505"/><polygon fill="#FFFF44" points="233.13,732.6505,237.13,736.6505,233.13,740.6505,229.13,736.6505" style="stroke: #B38D22; stroke-width: 1.0;"/><text fill="#000000" font-family="sans-serif" font-size="11" lengthAdjust="spacingAndGlyphs" textLength="61" x="242.13" y="741.2852">Customer()</text><ellipse cx="233.13" cy="750.6055" fill="#84BE84" rx="3" ry="3" style="stroke: #038048; stroke-width: 1.0;"/><text fill="#000000" font-family="sans-serif" font-size="11" lengthAdjust="spacingAndGlyphs" textLength="326" x="242.13" y="754.2403">Customer(Name, EmailAddress, PhoneNumber, NIF, Address)</text><ellipse cx="233.13" cy="763.5606" fill="#84BE84" rx="3" ry="3" style="stroke: #038048; stroke-width: 1.0;"/><text fill="#000000" font-family="sans-serif" font-size="11" lengthAdjust="spacingAndGlyphs" textLength="81" x="242.13" y="767.1954">identity(): Long</text><ellipse cx="233.13" cy="776.5157" fill="#84BE84" rx="3" ry="3" style="stroke: #038048; stroke-width: 1.0;"/><text fill="#000000" font-family="sans-serif" font-size="11" lengthAdjust="spacingAndGlyphs" textLength="73" x="242.13" y="780.1505">name(): Name</text><ellipse cx="233.13" cy="789.4708" fill="#84BE84" rx="3" ry="3" style="stroke: #038048; stroke-width: 1.0;"/><text fill="#000000" font-family="sans-serif" font-size="11" lengthAdjust="spacingAndGlyphs" textLength="115" x="242.13" y="793.1055">email(): EmailAddress</text><ellipse cx="233.13" cy="802.4259" fill="#84BE84" rx="3" ry="3" style="stroke: #038048; stroke-width: 1.0;"/><text fill="#000000" font-family="sans-serif" font-size="11" lengthAdjust="spacingAndGlyphs" textLength="167" x="242.13" y="806.0606">phoneNumber(): PhoneNumber</text><ellipse cx="233.13" cy="815.3809" fill="#84BE84" rx="3" ry="3" style="stroke: #038048; stroke-width: 1.0;"/><text fill="#000000" font-family="sans-serif" font-size="11" lengthAdjust="spacingAndGlyphs" textLength="45" x="242.13" y="819.0157">nif(): NIF</text><ellipse cx="233.13" cy="828.336" fill="#84BE84" rx="3" ry="3" style="stroke: #038048; stroke-width: 1.0;"/><text fill="#000000" font-family="sans-serif" font-size="11" lengthAdjust="spacingAndGlyphs" textLength="102" x="242.13" y="831.9708">address(): Address</text></a><!--MD5=[ae649e042cb5d2bfc156c00714a71c65]
class domain.entity.ShowRequest--><a href="ShowRequest.html" target="_top" title="ShowRequest.html" xlink:actuate="onRequest" xlink:href="ShowRequest.html" xlink:show="new" xlink:title="ShowRequest.html" xlink:type="simple"><rect codeLine="24" fill="#FEFECE" filter="url(#fk0ovm8qeh6qv)" height="229.3711" id="domain.entity.ShowRequest" style="stroke: #A80036; stroke-width: 1.5;" width="512" x="502.13" y="244.25"/><ellipse cx="715.88" cy="260.25" fill="#ADD1B2" rx="11" ry="11" style="stroke: #A80036; stroke-width: 1.0;"/><path d="M718.3531,266.3931 Q717.7721,266.6919 717.1329,266.8413 Q716.4938,266.9907 715.7882,266.9907 Q713.2814,266.9907 711.9615,265.3389 Q710.6417,263.687 710.6417,260.5659 Q710.6417,257.4365 711.9615,255.7847 Q713.2814,254.1328 715.7882,254.1328 Q716.4938,254.1328 717.1412,254.2822 Q717.7887,254.4316 718.3531,254.7305 L718.3531,257.4531 Q717.7223,256.8721 717.1288,256.6023 Q716.5353,256.3325 715.9044,256.3325 Q714.5597,256.3325 713.8749,257.3992 Q713.1901,258.4658 713.1901,260.5659 Q713.1901,262.6577 713.8749,263.7244 Q714.5597,264.791 715.9044,264.791 Q716.5353,264.791 717.1288,264.5212 Q717.7223,264.2515 718.3531,263.6704 Z "/><text fill="#000000" font-family="sans-serif" font-size="12" lengthAdjust="spacingAndGlyphs" textLength="76" x="736.38" y="264.7852">ShowRequest</text><line style="stroke: #A80036; stroke-width: 1.5;" x1="503.13" x2="1013.13" y1="276.25" y2="276.25"/><rect fill="none" height="6" style="stroke: #C82930; stroke-width: 1.0;" width="6" x="510.13" y="284.25"/><text fill="#000000" font-family="sans-serif" font-size="11" lengthAdjust="spacingAndGlyphs" text-decoration="underline" textLength="119" x="522.13" y="290.8848">serialVersionUID: long</text><rect fill="none" height="6" style="stroke: #C82930; stroke-width: 1.0;" width="6" x="510.13" y="297.2051"/><text fill="#000000" font-family="sans-serif" font-size="11" lengthAdjust="spacingAndGlyphs" textLength="114" x="522.13" y="303.8398">showRequestId: Long</text><rect fill="none" height="6" style="stroke: #C82930; stroke-width: 1.0;" width="6" x="510.13" y="310.1602"/><text fill="#000000" font-family="sans-serif" font-size="11" lengthAdjust="spacingAndGlyphs" textLength="170" x="522.13" y="316.7949">submissionDate: LocalDateTime</text><rect fill="none" height="6" style="stroke: #C82930; stroke-width: 1.0;" width="6" x="510.13" y="323.1152"/><text fill="#000000" font-family="sans-serif" font-size="11" lengthAdjust="spacingAndGlyphs" textLength="143" x="522.13" y="329.75">status: ShowRequestStatus</text><rect fill="none" height="6" style="stroke: #C82930; stroke-width: 1.0;" width="6" x="510.13" y="336.0703"/><text fill="#000000" font-family="sans-serif" font-size="11" lengthAdjust="spacingAndGlyphs" textLength="138" x="522.13" y="342.7051">submissionAuthor: String</text><rect fill="none" height="6" style="stroke: #C82930; stroke-width: 1.0;" width="6" x="510.13" y="349.0254"/><text fill="#000000" font-family="sans-serif" font-size="11" lengthAdjust="spacingAndGlyphs" textLength="129" x="522.13" y="355.6602">description: Description</text><rect fill="none" height="6" style="stroke: #C82930; stroke-width: 1.0;" width="6" x="510.13" y="361.9805"/><text fill="#000000" font-family="sans-serif" font-size="11" lengthAdjust="spacingAndGlyphs" textLength="95" x="522.13" y="368.6152">location: Location</text><rect fill="none" height="6" style="stroke: #C82930; stroke-width: 1.0;" width="6" x="510.13" y="374.9355"/><text fill="#000000" font-family="sans-serif" font-size="11" lengthAdjust="spacingAndGlyphs" textLength="136" x="522.13" y="381.5703">showDate: LocalDateTime</text><rect fill="none" height="6" style="stroke: #C82930; stroke-width: 1.0;" width="6" x="510.13" y="387.8906"/><text fill="#000000" font-family="sans-serif" font-size="11" lengthAdjust="spacingAndGlyphs" textLength="114" x="522.13" y="394.5254">numberOfDrones: int</text><rect fill="none" height="6" style="stroke: #C82930; stroke-width: 1.0;" width="6" x="510.13" y="400.8457"/><text fill="#000000" font-family="sans-serif" font-size="11" lengthAdjust="spacingAndGlyphs" textLength="128" x="522.13" y="407.4805">showDuration: Duration</text><line style="stroke: #A80036; stroke-width: 1.5;" x1="503.13" x2="1013.13" y1="413.8008" y2="413.8008"/><polygon fill="#FFFF44" points="513.13,419.8008,517.13,423.8008,513.13,427.8008,509.13,423.8008" style="stroke: #B38D22; stroke-width: 1.0;"/><text fill="#000000" font-family="sans-serif" font-size="11" lengthAdjust="spacingAndGlyphs" textLength="79" x="522.13" y="428.4355">ShowRequest()</text><ellipse cx="513.13" cy="437.7559" fill="#84BE84" rx="3" ry="3" style="stroke: #038048; stroke-width: 1.0;"/><text fill="#000000" font-family="sans-serif" font-size="11" lengthAdjust="spacingAndGlyphs" textLength="486" x="522.13" y="441.3906">ShowRequest(Customer, List&lt;Figure&gt;, Description, Location, LocalDateTime, int, Duration)</text><ellipse cx="513.13" cy="450.7109" fill="#84BE84" rx="3" ry="3" style="stroke: #038048; stroke-width: 1.0;"/><text fill="#000000" font-family="sans-serif" font-size="11" lengthAdjust="spacingAndGlyphs" textLength="81" x="522.13" y="454.3457">identity(): Long</text><ellipse cx="513.13" cy="463.666" fill="#84BE84" rx="3" ry="3" style="stroke: #038048; stroke-width: 1.0;"/><text fill="#000000" font-family="sans-serif" font-size="11" lengthAdjust="spacingAndGlyphs" textLength="134" x="522.13" y="467.3008">sameAs(Object): boolean</text></a><!--MD5=[1837716954425deac0b3cf81a190aaa2]
class domain.entity.FigureCategory--><a href="FigureCategory.html" target="_top" title="FigureCategory.html" xlink:actuate="onRequest" xlink:href="FigureCategory.html" xlink:show="new" xlink:title="FigureCategory.html" xlink:type="simple"><rect codeLine="41" fill="#FEFECE" filter="url(#fk0ovm8qeh6qv)" height="345.9668" id="domain.entity.FigureCategory" style="stroke: #A80036; stroke-width: 1.5;" width="360" x="107.13" y="185.95"/><ellipse cx="239.88" cy="201.95" fill="#ADD1B2" rx="11" ry="11" style="stroke: #A80036; stroke-width: 1.0;"/><path d="M242.3531,208.0931 Q241.7721,208.3919 241.1329,208.5413 Q240.4938,208.6907 239.7882,208.6907 Q237.2814,208.6907 235.9615,207.0389 Q234.6417,205.387 234.6417,202.2659 Q234.6417,199.1365 235.9615,197.4847 Q237.2814,195.8328 239.7882,195.8328 Q240.4938,195.8328 241.1412,195.9822 Q241.7887,196.1316 242.3531,196.4305 L242.3531,199.1531 Q241.7223,198.5721 241.1288,198.3023 Q240.5353,198.0325 239.9044,198.0325 Q238.5597,198.0325 237.8749,199.0992 Q237.1901,200.1658 237.1901,202.2659 Q237.1901,204.3577 237.8749,205.4244 Q238.5597,206.491 239.9044,206.491 Q240.5353,206.491 241.1288,206.2212 Q241.7223,205.9515 242.3531,205.3704 Z "/><text fill="#000000" font-family="sans-serif" font-size="12" lengthAdjust="spacingAndGlyphs" textLength="86" x="260.38" y="206.4852">FigureCategory</text><line style="stroke: #A80036; stroke-width: 1.5;" x1="108.13" x2="466.13" y1="217.95" y2="217.95"/><rect fill="none" height="6" style="stroke: #C82930; stroke-width: 1.0;" width="6" x="115.13" y="225.95"/><text fill="#000000" font-family="sans-serif" font-size="11" lengthAdjust="spacingAndGlyphs" text-decoration="underline" textLength="126" x="127.13" y="232.5848">NAME_MIN_LENGTH: int</text><rect fill="none" height="6" style="stroke: #C82930; stroke-width: 1.0;" width="6" x="115.13" y="238.9051"/><text fill="#000000" font-family="sans-serif" font-size="11" lengthAdjust="spacingAndGlyphs" text-decoration="underline" textLength="130" x="127.13" y="245.5398">NAME_MAX_LENGTH: int</text><rect fill="none" height="6" style="stroke: #C82930; stroke-width: 1.0;" width="6" x="115.13" y="251.8602"/><text fill="#000000" font-family="sans-serif" font-size="11" lengthAdjust="spacingAndGlyphs" text-decoration="underline" textLength="166" x="127.13" y="258.4949">DESCRIPTION_MIN_LENGTH: int</text><rect fill="none" height="6" style="stroke: #C82930; stroke-width: 1.0;" width="6" x="115.13" y="264.8152"/><text fill="#000000" font-family="sans-serif" font-size="11" lengthAdjust="spacingAndGlyphs" text-decoration="underline" textLength="170" x="127.13" y="271.45">DESCRIPTION_MAX_LENGTH: int</text><rect fill="none" height="6" style="stroke: #C82930; stroke-width: 1.0;" width="6" x="115.13" y="277.7703"/><text fill="#000000" font-family="sans-serif" font-size="11" lengthAdjust="spacingAndGlyphs" textLength="46" x="127.13" y="284.4051">pk: Long</text><rect fill="none" height="6" style="stroke: #C82930; stroke-width: 1.0;" width="6" x="115.13" y="290.7254"/><text fill="#000000" font-family="sans-serif" font-size="11" lengthAdjust="spacingAndGlyphs" textLength="73" x="127.13" y="297.3602">version: Long</text><rect fill="none" height="6" style="stroke: #C82930; stroke-width: 1.0;" width="6" x="115.13" y="303.6805"/><text fill="#000000" font-family="sans-serif" font-size="11" lengthAdjust="spacingAndGlyphs" textLength="113" x="127.13" y="310.3152">categoryName: Name</text><rect fill="none" height="6" style="stroke: #C82930; stroke-width: 1.0;" width="6" x="115.13" y="316.6355"/><text fill="#000000" font-family="sans-serif" font-size="11" lengthAdjust="spacingAndGlyphs" textLength="129" x="127.13" y="323.2703">description: Description</text><rect fill="none" height="6" style="stroke: #C82930; stroke-width: 1.0;" width="6" x="115.13" y="329.5906"/><text fill="#000000" font-family="sans-serif" font-size="11" lengthAdjust="spacingAndGlyphs" textLength="80" x="127.13" y="336.2254">active: boolean</text><rect fill="none" height="6" style="stroke: #C82930; stroke-width: 1.0;" width="6" x="115.13" y="342.5457"/><text fill="#000000" font-family="sans-serif" font-size="11" lengthAdjust="spacingAndGlyphs" textLength="140" x="127.13" y="349.1805">createdOn: LocalDateTime</text><rect fill="none" height="6" style="stroke: #C82930; stroke-width: 1.0;" width="6" x="115.13" y="355.5008"/><text fill="#000000" font-family="sans-serif" font-size="11" lengthAdjust="spacingAndGlyphs" textLength="86" x="127.13" y="362.1355">createdBy: Email</text><rect fill="none" height="6" style="stroke: #C82930; stroke-width: 1.0;" width="6" x="115.13" y="368.4559"/><text fill="#000000" font-family="sans-serif" font-size="11" lengthAdjust="spacingAndGlyphs" textLength="144" x="127.13" y="375.0906">updatedOn: LocalDateTime</text><rect fill="none" height="6" style="stroke: #C82930; stroke-width: 1.0;" width="6" x="115.13" y="381.4109"/><text fill="#000000" font-family="sans-serif" font-size="11" lengthAdjust="spacingAndGlyphs" textLength="90" x="127.13" y="388.0457">updatedBy: Email</text><line style="stroke: #A80036; stroke-width: 1.5;" x1="108.13" x2="466.13" y1="394.366" y2="394.366"/><rect fill="#F24D5C" height="6" style="stroke: #C82930; stroke-width: 1.0;" width="6" x="115.13" y="402.366"/><text fill="#000000" font-family="sans-serif" font-size="11" lengthAdjust="spacingAndGlyphs" text-decoration="underline" textLength="270" x="127.13" y="409.0008">nameMeetsMinimumRequirements(Name): boolean</text><rect fill="#F24D5C" height="6" style="stroke: #C82930; stroke-width: 1.0;" width="6" x="115.13" y="415.3211"/><text fill="#000000" font-family="sans-serif" font-size="11" lengthAdjust="spacingAndGlyphs" text-decoration="underline" textLength="334" x="127.13" y="421.9559">descriptionMeetsMinimumRequirements(Description): boolean</text><ellipse cx="118.13" cy="431.2762" fill="#84BE84" rx="3" ry="3" style="stroke: #038048; stroke-width: 1.0;"/><text fill="#000000" font-family="sans-serif" font-size="11" lengthAdjust="spacingAndGlyphs" textLength="214" x="127.13" y="434.9109">changeDescriptionTo(Description): void</text><ellipse cx="118.13" cy="444.2312" fill="#84BE84" rx="3" ry="3" style="stroke: #038048; stroke-width: 1.0;"/><text fill="#000000" font-family="sans-serif" font-size="11" lengthAdjust="spacingAndGlyphs" textLength="199" x="127.13" y="447.866">changeCategoryNameTo(Name): void</text><ellipse cx="118.13" cy="457.1863" fill="#84BE84" rx="3" ry="3" style="stroke: #038048; stroke-width: 1.0;"/><text fill="#000000" font-family="sans-serif" font-size="11" lengthAdjust="spacingAndGlyphs" textLength="99" x="127.13" y="460.8211">isActive(): boolean</text><ellipse cx="118.13" cy="470.1414" fill="#84BE84" rx="3" ry="3" style="stroke: #038048; stroke-width: 1.0;"/><text fill="#000000" font-family="sans-serif" font-size="11" lengthAdjust="spacingAndGlyphs" textLength="117" x="127.13" y="473.7762">toggleState(): boolean</text><ellipse cx="118.13" cy="483.0965" fill="#84BE84" rx="3" ry="3" style="stroke: #038048; stroke-width: 1.0;"/><text fill="#000000" font-family="sans-serif" font-size="11" lengthAdjust="spacingAndGlyphs" textLength="137" x="127.13" y="486.7312">description(): Description</text><ellipse cx="118.13" cy="496.0516" fill="#84BE84" rx="3" ry="3" style="stroke: #038048; stroke-width: 1.0;"/><text fill="#000000" font-family="sans-serif" font-size="11" lengthAdjust="spacingAndGlyphs" textLength="86" x="127.13" y="499.6863">identity(): String</text><ellipse cx="118.13" cy="509.0066" fill="#84BE84" rx="3" ry="3" style="stroke: #038048; stroke-width: 1.0;"/><text fill="#000000" font-family="sans-serif" font-size="11" lengthAdjust="spacingAndGlyphs" textLength="148" x="127.13" y="512.6414">hasIdentity(String): boolean</text><ellipse cx="118.13" cy="521.9617" fill="#84BE84" rx="3" ry="3" style="stroke: #038048; stroke-width: 1.0;"/><text fill="#000000" font-family="sans-serif" font-size="11" lengthAdjust="spacingAndGlyphs" textLength="134" x="127.13" y="525.5965">sameAs(Object): boolean</text></a><!--MD5=[5a5af9b0547913863cbe0ddf55a9ab5e]
class java.io.Serializable--><rect codeLine="76" fill="#FEFECE" filter="url(#fk0ovm8qeh6qv)" height="48" id="java.io.Serializable" style="stroke: #A80036; stroke-width: 1.5;" width="98" x="114.13" y="47.47"/><ellipse cx="129.13" cy="63.47" fill="#B4A7E5" rx="11" ry="11" style="stroke: #A80036; stroke-width: 1.0;"/><path d="M125.5577,59.7351 L125.5577,57.5769 L132.9371,57.5769 L132.9371,59.7351 L130.4718,59.7351 L130.4718,67.8118 L132.9371,67.8118 L132.9371,69.97 L125.5577,69.97 L125.5577,67.8118 L128.0231,67.8118 L128.0231,59.7351 Z "/><text fill="#000000" font-family="sans-serif" font-size="12" font-style="italic" lengthAdjust="spacingAndGlyphs" textLength="66" x="143.13" y="68.0052">Serializable</text><line style="stroke: #A80036; stroke-width: 1.5;" x1="115.13" x2="211.13" y1="79.47" y2="79.47"/><line style="stroke: #A80036; stroke-width: 1.5;" x1="115.13" x2="211.13" y1="87.47" y2="87.47"/><!--MD5=[e6ac70fafaf8ea46a71ac8b1fcfb4f61]
class eapli.framework.domain.model.DomainEntityBase--><rect codeLine="80" fill="#FEFECE" filter="url(#fk0ovm8qeh6qv)" height="60.9551" id="eapli.framework.domain.model.DomainEntityBase" style="stroke: #A80036; stroke-width: 1.5;" width="289" x="594.63" y="41"/><ellipse cx="609.63" cy="57" fill="#A9DCDF" rx="11" ry="11" style="stroke: #A80036; stroke-width: 1.0;"/><path d="M609.4933,52.3481 L608.3395,57.4199 L610.6554,57.4199 Z M607.9991,50.1069 L610.9957,50.1069 L614.3409,62.5 L611.8922,62.5 L611.1285,59.437 L607.8497,59.437 L607.1027,62.5 L604.6539,62.5 Z "/><text fill="#000000" font-family="sans-serif" font-size="12" font-style="italic" lengthAdjust="spacingAndGlyphs" textLength="102" x="623.63" y="61.5352">DomainEntityBase</text><rect fill="#FFFFFF" height="16.1328" style="stroke: #000000; stroke-width: 1.0; stroke-dasharray: 2.0,2.0;" width="153" x="733.63" y="38"/><text fill="#000000" font-family="sans-serif" font-size="12" font-style="italic" lengthAdjust="spacingAndGlyphs" textLength="151" x="734.63" y="50.6016">I extends Comparable&lt;​I&gt;</text><line style="stroke: #A80036; stroke-width: 1.5;" x1="595.63" x2="882.63" y1="73" y2="73"/><rect fill="none" height="6" style="stroke: #C82930; stroke-width: 1.0;" width="6" x="602.63" y="81"/><text fill="#000000" font-family="sans-serif" font-size="11" lengthAdjust="spacingAndGlyphs" text-decoration="underline" textLength="119" x="614.63" y="87.6348">serialVersionUID: long</text><line style="stroke: #A80036; stroke-width: 1.5;" x1="595.63" x2="882.63" y1="93.9551" y2="93.9551"/><!--MD5=[aaa3afea0423f8bbe6dedd0d6399df18]
class eapli.framework.domain.model.AggregateRoot--><rect codeLine="83" fill="#FEFECE" filter="url(#fk0ovm8qeh6qv)" height="48" id="eapli.framework.domain.model.AggregateRoot" style="stroke: #A80036; stroke-width: 1.5;" width="272" x="287.13" y="47.47"/><ellipse cx="302.13" cy="63.47" fill="#B4A7E5" rx="11" ry="11" style="stroke: #A80036; stroke-width: 1.0;"/><path d="M298.5577,59.7351 L298.5577,57.5769 L305.9371,57.5769 L305.9371,59.7351 L303.4718,59.7351 L303.4718,67.8118 L305.9371,67.8118 L305.9371,69.97 L298.5577,69.97 L298.5577,67.8118 L301.0231,67.8118 L301.0231,59.7351 Z "/><text fill="#000000" font-family="sans-serif" font-size="12" font-style="italic" lengthAdjust="spacingAndGlyphs" textLength="85" x="316.13" y="68.0052">AggregateRoot</text><rect fill="#FFFFFF" height="16.1328" style="stroke: #000000; stroke-width: 1.0; stroke-dasharray: 2.0,2.0;" width="153" x="409.13" y="44.47"/><text fill="#000000" font-family="sans-serif" font-size="12" font-style="italic" lengthAdjust="spacingAndGlyphs" textLength="151" x="410.13" y="57.0716">I extends Comparable&lt;​I&gt;</text><line style="stroke: #A80036; stroke-width: 1.5;" x1="288.13" x2="558.13" y1="79.47" y2="79.47"/><line style="stroke: #A80036; stroke-width: 1.5;" x1="288.13" x2="558.13" y1="87.47" y2="87.47"/><!--MD5=[c425ca7143135333395fec3333d58dc5]
reverse link java.io.Serializable to domain.entity.Customer--><path codeLine="67" d="M113.08,110.03 C103.74,119.64 95.31,130.76 90.13,142.95 C22.57,302.08 6,380.89 90.13,531.92 C119.51,584.66 170.17,624.66 222.01,654.06 " fill="none" id="java.io.Serializable-backto-domain.entity.Customer" style="stroke: #A80036; stroke-width: 1.0; stroke-dasharray: 7.0,7.0;"/><polygon fill="none" points="108.07,105.12,127.56,96.8,117.51,115.46,108.07,105.12" style="stroke: #A80036; stroke-width: 1.0;"/><!--MD5=[d628c41bfbbdd35ad5ec2d629946d824]
reverse link eapli.framework.domain.model.DomainEntityBase to domain.entity.ShowRequest--><path codeLine="68" d="M742.51,123.34 C744.74,156.83 747.75,202.04 750.53,243.85 " fill="none" id="eapli.framework.domain.model.DomainEntityBase-backto-domain.entity.ShowRequest" style="stroke: #A80036; stroke-width: 1.0;"/><polygon fill="none" points="735.55,124.15,741.21,103.73,749.52,123.22,735.55,124.15" style="stroke: #A80036; stroke-width: 1.0;"/><!--MD5=[717a64a4e19eb390522d44e7029ffae7]
link domain.entity.ShowRequest to domain.entity.Customer--><path codeLine="69" d="M645.21,473.69 C604.03,515.18 557.38,562.18 515.79,604.07 " fill="none" id="domain.entity.ShowRequest-to-domain.entity.Customer" style="stroke: #A80036; stroke-width: 1.0;"/><polygon fill="#A80036" points="512.33,607.56,521.5081,603.9874,515.8512,604.0102,515.8284,598.3534,512.33,607.56" style="stroke: #A80036; stroke-width: 1.0;"/><text fill="#000000" font-family="sans-serif" font-size="13" lengthAdjust="spacingAndGlyphs" textLength="59" x="557.57" y="575.4884">costumer</text><!--MD5=[51798ff239fb819c274e3a257e5bc1f8]
link domain.entity.ShowRequest to domain.entity.Figure--><path codeLine="70" d="M758.13,473.69 C758.13,546.85 758.13,637.14 758.13,686.37 " fill="none" id="domain.entity.ShowRequest-to-domain.entity.Figure" style="stroke: #A80036; stroke-width: 1.0;"/><polygon fill="#A80036" points="758.13,691.24,762.13,682.24,758.13,686.24,754.13,682.24,758.13,691.24" style="stroke: #A80036; stroke-width: 1.0;"/><text fill="#000000" font-family="sans-serif" font-size="13" lengthAdjust="spacingAndGlyphs" textLength="44" x="759.13" y="575.4884">figures</text><text fill="#000000" font-family="sans-serif" font-size="13" lengthAdjust="spacingAndGlyphs" textLength="6" x="751.5113" y="682.4391">*</text><!--MD5=[3b373178791f7424c97641c4efb3aead]
reverse link eapli.framework.domain.model.AggregateRoot to domain.entity.FigureCategory--><path codeLine="71" d="M402.89,114.96 C393.53,134.59 381.74,159.34 369.29,185.48 " fill="none" id="eapli.framework.domain.model.AggregateRoot-backto-domain.entity.FigureCategory" style="stroke: #A80036; stroke-width: 1.0; stroke-dasharray: 7.0,7.0;"/><polygon fill="none" points="396.43,112.25,411.35,97.2,409.07,118.27,396.43,112.25" style="stroke: #A80036; stroke-width: 1.0;"/><!--MD5=[2133744a0cb25cfd7dc2adb611ec050e]
reverse link java.io.Serializable to domain.entity.FigureCategory--><path codeLine="72" d="M181.72,115.27 C190.23,134.86 200.92,159.48 212.22,185.48 " fill="none" id="java.io.Serializable-backto-domain.entity.FigureCategory" style="stroke: #A80036; stroke-width: 1.0; stroke-dasharray: 7.0,7.0;"/><polygon fill="none" points="175.43,118.36,173.88,97.22,188.27,112.78,175.43,118.36" style="stroke: #A80036; stroke-width: 1.0;"/><text fill="#888888" font-family="sans-serif" font-size="10" lengthAdjust="spacingAndGlyphs" textLength="188" x="423.065" y="869.958">UMLDoclet 2.0.12, PlantUML 1.2020.16</text><!--MD5=[5ef7c0c43e0b5b8adada2cb532ed0a56]
@startuml
    namespace domain.entity {

        class Figure [[Figure.html]] {
            -id: Long
        }

        class Customer [[Customer.html]] {
            -customerSystemID: Long
            -name: Name
            -email: EmailAddress
            -phoneNumber: PhoneNumber
            -nif: NIF
            -address: Address
            #Customer()
            +Customer(Name, EmailAddress, PhoneNumber, NIF, Address)
            +identity(): Long
            +name(): Name
            +email(): EmailAddress
            +phoneNumber(): PhoneNumber
            +nif(): NIF
            +address(): Address
        }

        class ShowRequest [[ShowRequest.html]] {
            {static} -serialVersionUID: long
            -showRequestId: Long
            -submissionDate: LocalDateTime
            -status: ShowRequestStatus
            -submissionAuthor: String
            -description: Description
            -location: Location
            -showDate: LocalDateTime
            -numberOfDrones: int
            -showDuration: Duration
            #ShowRequest()
            +ShowRequest(Customer, List<Figure>, Description, Location, LocalDateTime, int, Duration)
            +identity(): Long
            +sameAs(Object): boolean
        }

        class FigureCategory [[FigureCategory.html]] {
            {static} -NAME_MIN_LENGTH: int
            {static} -NAME_MAX_LENGTH: int
            {static} -DESCRIPTION_MIN_LENGTH: int
            {static} -DESCRIPTION_MAX_LENGTH: int
            -pk: Long
            -version: Long
            -categoryName: Name
            -description: Description
            -active: boolean
            -createdOn: LocalDateTime
            -createdBy: Email
            -updatedOn: LocalDateTime
            -updatedBy: Email
            {static} -nameMeetsMinimumRequirements(Name): boolean
            {static} -descriptionMeetsMinimumRequirements(Description): boolean
            +changeDescriptionTo(Description): void
            +changeCategoryNameTo(Name): void
            +isActive(): boolean
            +toggleState(): boolean
            +description(): Description
            +identity(): String
            +hasIdentity(String): boolean
            +sameAs(Object): boolean
        }

        java.io.Serializable <|.. Customer
        eapli.framework.domain.model.DomainEntityBase <|- - ShowRequest
        ShowRequest - -> Customer: costumer
        ShowRequest - -> "*" Figure: figures
        eapli.framework.domain.model.AggregateRoot <|.. FigureCategory
        java.io.Serializable <|.. FigureCategory
    }

    namespace java.io {
        interface Serializable
    }

    namespace eapli.framework.domain.model {
        abstract class DomainEntityBase<I extends Comparable<​I>> {
            {static} -serialVersionUID: long
        }
        interface AggregateRoot<I extends Comparable<​I>>
    }

    center footer UMLDoclet 2.0.12, PlantUML 1.2020.16
@enduml

PlantUML version 1.2020.16(Sun Aug 23 21:20:43 WEST 2020)
(APACHE source distribution)
Java Runtime: OpenJDK Runtime Environment
JVM: OpenJDK 64-Bit Server VM
Default Encoding: UTF-8
Language: pt
Country: PT
--></g></svg>