<?xml version="1.0" encoding="UTF-8" standalone="no"?><svg xmlns="http://www.w3.org/2000/svg" xmlns:xlink="http://www.w3.org/1999/xlink" contentScriptType="application/ecmascript" contentStyleType="text/css" height="448px" preserveAspectRatio="none" style="width:753px;height:448px;" version="1.1" viewBox="0 0 753 448" width="753px" zoomAndPan="magnify"><defs><filter height="300%" id="fzvxtgg6gztui" width="300%" x="-1" y="-1"><feGaussianBlur result="blurOut" stdDeviation="2.0"/><feColorMatrix in="blurOut" result="blurOut2" type="matrix" values="0 0 0 0 0 0 0 0 0 0 0 0 0 0 0 0 0 0 .4 0"/><feOffset dx="4.0" dy="4.0" in="blurOut2" result="blurOut3"/><feBlend in="SourceGraphic" in2="blurOut3" mode="normal"/></filter></defs><g><!--MD5=[ae649e042cb5d2bfc156c00714a71c65]
class domain.entity.ShowRequest--><a href="ShowRequest.html" target="_top" title="ShowRequest.html" xlink:actuate="onRequest" xlink:href="ShowRequest.html" xlink:show="new" xlink:title="ShowRequest.html" xlink:type="simple"><rect codeLine="5" fill="#FEFECE" filter="url(#fzvxtgg6gztui)" height="298.3981" id="domain.entity.ShowRequest" style="stroke: #A80036; stroke-width: 1.5;" width="725" x="9" y="113.016"/><ellipse cx="321.75" cy="134.36" fill="#ADD1B2" rx="11" ry="11" style="stroke: #A80036; stroke-width: 1.0;"/><path d="M324.7188,140.0006 Q324.1406,140.2975 323.5,140.4381 Q322.8594,140.5944 322.1563,140.5944 Q319.6563,140.5944 318.3281,138.9537 Q317.0156,137.2975 317.0156,134.1725 Q317.0156,131.0475 318.3281,129.3912 Q319.6563,127.735 322.1563,127.735 Q322.8594,127.735 323.5,127.8912 Q324.1563,128.0475 324.7188,128.3444 L324.7188,131.0631 Q324.0938,130.485 323.5,130.2194 Q322.9063,129.9381 322.2813,129.9381 Q320.9375,129.9381 320.25,131.0162 Q319.5625,132.0787 319.5625,134.1725 Q319.5625,136.2662 320.25,137.3444 Q320.9375,138.4069 322.2813,138.4069 Q322.9063,138.4069 323.5,138.1412 Q324.0938,137.86 324.7188,137.2819 L324.7188,140.0006 Z "/><text fill="#000000" font-family="sans-serif" font-size="14" lengthAdjust="spacingAndGlyphs" textLength="91" x="342.25" y="132.982">ShowRequest</text><text fill="#000000" font-family="sans-serif" font-size="10" lengthAdjust="spacingAndGlyphs" textLength="67" x="354.25" y="147.7739">domain.entity</text><line style="stroke: #A80036; stroke-width: 1.5;" x1="10" x2="733" y1="155.7039" y2="155.7039"/><rect fill="none" height="6" style="stroke: #C82930; stroke-width: 1.0;" width="6" x="17" y="163.7039"/><text fill="#000000" font-family="sans-serif" font-size="11" lengthAdjust="spacingAndGlyphs" text-decoration="underline" textLength="118" x="29" y="171.4628">serialVersionUID: long</text><rect fill="none" height="6" style="stroke: #C82930; stroke-width: 1.0;" width="6" x="17" y="178.6858"/><text fill="#000000" font-family="sans-serif" font-size="11" lengthAdjust="spacingAndGlyphs" textLength="114" x="29" y="186.4447">showRequestId: Long</text><rect fill="none" height="6" style="stroke: #C82930; stroke-width: 1.0;" width="6" x="17" y="193.6677"/><text fill="#000000" font-family="sans-serif" font-size="11" lengthAdjust="spacingAndGlyphs" textLength="165" x="29" y="201.4266">submissionDate: LocalDateTime</text><rect fill="none" height="6" style="stroke: #C82930; stroke-width: 1.0;" width="6" x="17" y="208.6496"/><text fill="#000000" font-family="sans-serif" font-size="11" lengthAdjust="spacingAndGlyphs" textLength="140" x="29" y="216.4085">status: ShowRequestStatus</text><rect fill="none" height="6" style="stroke: #C82930; stroke-width: 1.0;" width="6" x="17" y="223.6315"/><text fill="#000000" font-family="sans-serif" font-size="11" lengthAdjust="spacingAndGlyphs" textLength="134" x="29" y="231.3904">submissionAuthor: String</text><rect fill="none" height="6" style="stroke: #C82930; stroke-width: 1.0;" width="6" x="17" y="238.6134"/><text fill="#000000" font-family="sans-serif" font-size="11" lengthAdjust="spacingAndGlyphs" textLength="106" x="29" y="246.3723">costumer: Costumer</text><rect fill="none" height="6" style="stroke: #C82930; stroke-width: 1.0;" width="6" x="17" y="253.5953"/><text fill="#000000" font-family="sans-serif" font-size="11" lengthAdjust="spacingAndGlyphs" textLength="107" x="29" y="261.3542">figures: List&lt;Figure&gt;</text><rect fill="none" height="6" style="stroke: #C82930; stroke-width: 1.0;" width="6" x="17" y="268.5771"/><text fill="#000000" font-family="sans-serif" font-size="11" lengthAdjust="spacingAndGlyphs" textLength="125" x="29" y="276.3361">description: Description</text><rect fill="none" height="6" style="stroke: #C82930; stroke-width: 1.0;" width="6" x="17" y="283.559"/><text fill="#000000" font-family="sans-serif" font-size="11" lengthAdjust="spacingAndGlyphs" textLength="93" x="29" y="291.3179">location: Location</text><rect fill="none" height="6" style="stroke: #C82930; stroke-width: 1.0;" width="6" x="17" y="298.5409"/><text fill="#000000" font-family="sans-serif" font-size="11" lengthAdjust="spacingAndGlyphs" textLength="134" x="29" y="306.2998">showDate: LocalDateTime</text><rect fill="none" height="6" style="stroke: #C82930; stroke-width: 1.0;" width="6" x="17" y="313.5228"/><text fill="#000000" font-family="sans-serif" font-size="11" lengthAdjust="spacingAndGlyphs" textLength="113" x="29" y="321.2817">numberOfDrones: int</text><rect fill="none" height="6" style="stroke: #C82930; stroke-width: 1.0;" width="6" x="17" y="328.5047"/><text fill="#000000" font-family="sans-serif" font-size="11" lengthAdjust="spacingAndGlyphs" textLength="128" x="29" y="336.2636">showDuration: Duration</text><line style="stroke: #A80036; stroke-width: 1.5;" x1="10" x2="733" y1="343.4866" y2="343.4866"/><polygon fill="#FFFF44" points="20,349.4866,24,353.4866,20,357.4866,16,353.4866" style="stroke: #B38D22; stroke-width: 1.0;"/><text fill="#000000" font-family="sans-serif" font-size="11" lengthAdjust="spacingAndGlyphs" textLength="77" x="29" y="359.2455">ShowRequest()</text><ellipse cx="20" cy="369.4685" fill="#84BE84" rx="3" ry="3" style="stroke: #038048; stroke-width: 1.0;"/><text fill="#000000" font-family="sans-serif" font-size="11" lengthAdjust="spacingAndGlyphs" textLength="699" x="29" y="374.2274">ShowRequest(LocalDateTime, ShowRequestStatus, String, Costumer, List&lt;Figure&gt;, Description, Location, LocalDateTime, int, Duration)</text><ellipse cx="20" cy="384.4504" fill="#84BE84" rx="3" ry="3" style="stroke: #038048; stroke-width: 1.0;"/><text fill="#000000" font-family="sans-serif" font-size="11" lengthAdjust="spacingAndGlyphs" textLength="79" x="29" y="389.2093">identity(): Long</text><ellipse cx="20" cy="399.4322" fill="#84BE84" rx="3" ry="3" style="stroke: #038048; stroke-width: 1.0;"/><text fill="#000000" font-family="sans-serif" font-size="11" lengthAdjust="spacingAndGlyphs" textLength="128" x="29" y="404.1912">sameAs(Object): boolean</text></a><!--MD5=[e6ac70fafaf8ea46a71ac8b1fcfb4f61]
class eapli.framework.domain.model.DomainEntityBase--><rect codeLine="24" fill="#FEFECE" filter="url(#fzvxtgg6gztui)" height="42.6879" id="eapli.framework.domain.model.DomainEntityBase" style="stroke: #A80036; stroke-width: 1.5;" width="209" x="267" y="10.016"/><ellipse cx="282" cy="31.36" fill="#A9DCDF" rx="11" ry="11" style="stroke: #A80036; stroke-width: 1.0;"/><path d="M282.1094,26.7037 L280.9531,31.7819 L283.2813,31.7819 L282.1094,26.7037 Z M280.625,24.4694 L283.6094,24.4694 L286.9688,36.86 L284.5156,36.86 L283.75,33.7975 L280.4688,33.7975 L279.7188,36.86 L277.2813,36.86 L280.625,24.4694 Z "/><text fill="#000000" font-family="sans-serif" font-size="14" font-style="italic" lengthAdjust="spacingAndGlyphs" textLength="114" x="312" y="29.982">DomainEntityBase</text><text fill="#000000" font-family="sans-serif" font-size="10" font-style="italic" lengthAdjust="spacingAndGlyphs" textLength="146" x="296" y="44.7739">eapli.framework.domain.model</text><rect fill="#FFFFFF" height="18.3441" style="stroke: #000000; stroke-width: 1.0; stroke-dasharray: 2.0,2.0;" width="29" x="450" y="7.016"/><text fill="#000000" font-family="sans-serif" font-size="12" font-style="italic" lengthAdjust="spacingAndGlyphs" textLength="27" x="451" y="20.8441">Long</text><!--MD5=[d628c41bfbbdd35ad5ec2d629946d824]
reverse link eapli.framework.domain.model.DomainEntityBase to domain.entity.ShowRequest--><path codeLine="26" d="M371.5,73.256 C371.5,84.976 371.5,98.486 371.5,112.786 " fill="none" id="eapli.framework.domain.model.DomainEntityBase-backto-domain.entity.ShowRequest" style="stroke: #A80036; stroke-width: 1.0;"/><polygon fill="none" points="364.5,73.196,371.5,53.196,378.5,73.196,364.5,73.196" style="stroke: #A80036; stroke-width: 1.0;"/><text fill="#888888" font-family="sans-serif" font-size="10" lengthAdjust="spacingAndGlyphs" textLength="188" x="273.5" y="435.1041">UMLDoclet 2.0.12, PlantUML 1.2020.16</text><!--MD5=[e6dd983f3c478248e5bb0be49111af52]
@startuml
    set namespaceSeparator none
    hide empty fields
    hide empty methods

    class "<size:14>ShowRequest\n<size:10>domain.entity" as domain.entity.ShowRequest [[ShowRequest.html]] {
        {static} -serialVersionUID: long
        -showRequestId: Long
        -submissionDate: LocalDateTime
        -status: ShowRequestStatus
        -submissionAuthor: String
        -costumer: Costumer
        -figures: List<Figure>
        -description: Description
        -location: Location
        -showDate: LocalDateTime
        -numberOfDrones: int
        -showDuration: Duration
        #ShowRequest()
        +ShowRequest(LocalDateTime, ShowRequestStatus, String, Costumer, List<Figure>, Description, Location, LocalDateTime, int, Duration)
        +identity(): Long
        +sameAs(Object): boolean
    }

    abstract class "<size:14>DomainEntityBase\n<size:10>eapli.framework.domain.model" as eapli.framework.domain.model.DomainEntityBase<Long>

    eapli.framework.domain.model.DomainEntityBase <|- - domain.entity.ShowRequest

    center footer UMLDoclet 2.0.12, PlantUML 1.2020.16
@enduml

PlantUML version 1.2020.16(Sun Aug 23 21:20:43 WEST 2020)
(APACHE source distribution)
Java Runtime: Java(TM) SE Runtime Environment
JVM: Java HotSpot(TM) 64-Bit Server VM
Default Encoding: UTF-8
Language: en
Country: US
--></g></svg>