<?xml version="1.0" encoding="UTF-8" standalone="no"?><svg xmlns="http://www.w3.org/2000/svg" xmlns:xlink="http://www.w3.org/1999/xlink" contentScriptType="application/ecmascript" contentStyleType="text/css" height="405px" preserveAspectRatio="none" style="width:540px;height:405px;" version="1.1" viewBox="0 0 540 405" width="540px" zoomAndPan="magnify"><defs><filter height="300%" id="f1csdmwpywgtg1" width="300%" x="-1" y="-1"><feGaussianBlur result="blurOut" stdDeviation="2.0"/><feColorMatrix in="blurOut" result="blurOut2" type="matrix" values="0 0 0 0 0 0 0 0 0 0 0 0 0 0 0 0 0 0 .4 0"/><feOffset dx="4.0" dy="4.0" in="blurOut2" result="blurOut3"/><feBlend in="SourceGraphic" in2="blurOut3" mode="normal"/></filter></defs><g><!--MD5=[ae649e042cb5d2bfc156c00714a71c65]
class domain.entity.ShowRequest--><a href="ShowRequest.html" target="_top" title="ShowRequest.html" xlink:actuate="onRequest" xlink:href="ShowRequest.html" xlink:show="new" xlink:title="ShowRequest.html" xlink:type="simple"><rect codeLine="5" fill="#FEFECE" filter="url(#f1csdmwpywgtg1)" height="261.5469" id="domain.entity.ShowRequest" style="stroke: #A80036; stroke-width: 1.5;" width="512" x="9" y="108.26"/><ellipse cx="214.75" cy="127.3928" fill="#ADD1B2" rx="11" ry="11" style="stroke: #A80036; stroke-width: 1.0;"/><path d="M217.2231,133.5359 Q216.6421,133.8347 216.0029,133.9841 Q215.3638,134.1335 214.6582,134.1335 Q212.1514,134.1335 210.8315,132.4817 Q209.5117,130.8298 209.5117,127.7087 Q209.5117,124.5793 210.8315,122.9275 Q212.1514,121.2756 214.6582,121.2756 Q215.3638,121.2756 216.0112,121.425 Q216.6587,121.5745 217.2231,121.8733 L217.2231,124.5959 Q216.5923,124.0149 215.9988,123.7451 Q215.4053,123.4753 214.7744,123.4753 Q213.4297,123.4753 212.7449,124.542 Q212.0601,125.6086 212.0601,127.7087 Q212.0601,129.8005 212.7449,130.8672 Q213.4297,131.9338 214.7744,131.9338 Q215.4053,131.9338 215.9988,131.6641 Q216.5923,131.3943 217.2231,130.8132 Z "/><text fill="#000000" font-family="sans-serif" font-size="14" lengthAdjust="spacingAndGlyphs" textLength="92" x="235.25" y="126.7952">ShowRequest</text><text fill="#000000" font-family="sans-serif" font-size="10" lengthAdjust="spacingAndGlyphs" textLength="67" x="247.75" y="139.4163">domain.entity</text><line style="stroke: #A80036; stroke-width: 1.5;" x1="10" x2="520" y1="146.5256" y2="146.5256"/><rect fill="none" height="6" style="stroke: #C82930; stroke-width: 1.0;" width="6" x="17" y="154.5256"/><text fill="#000000" font-family="sans-serif" font-size="11" lengthAdjust="spacingAndGlyphs" text-decoration="underline" textLength="119" x="29" y="161.1604">serialVersionUID: long</text><rect fill="none" height="6" style="stroke: #C82930; stroke-width: 1.0;" width="6" x="17" y="167.4807"/><text fill="#000000" font-family="sans-serif" font-size="11" lengthAdjust="spacingAndGlyphs" textLength="114" x="29" y="174.1155">showRequestId: Long</text><rect fill="none" height="6" style="stroke: #C82930; stroke-width: 1.0;" width="6" x="17" y="180.4358"/><text fill="#000000" font-family="sans-serif" font-size="11" lengthAdjust="spacingAndGlyphs" textLength="170" x="29" y="187.0705">submissionDate: LocalDateTime</text><rect fill="none" height="6" style="stroke: #C82930; stroke-width: 1.0;" width="6" x="17" y="193.3909"/><text fill="#000000" font-family="sans-serif" font-size="11" lengthAdjust="spacingAndGlyphs" textLength="143" x="29" y="200.0256">status: ShowRequestStatus</text><rect fill="none" height="6" style="stroke: #C82930; stroke-width: 1.0;" width="6" x="17" y="206.3459"/><text fill="#000000" font-family="sans-serif" font-size="11" lengthAdjust="spacingAndGlyphs" textLength="138" x="29" y="212.9807">submissionAuthor: String</text><rect fill="none" height="6" style="stroke: #C82930; stroke-width: 1.0;" width="6" x="17" y="219.301"/><text fill="#000000" font-family="sans-serif" font-size="11" lengthAdjust="spacingAndGlyphs" textLength="110" x="29" y="225.9358">costumer: Customer</text><rect fill="none" height="6" style="stroke: #C82930; stroke-width: 1.0;" width="6" x="17" y="232.2561"/><text fill="#000000" font-family="sans-serif" font-size="11" lengthAdjust="spacingAndGlyphs" textLength="115" x="29" y="238.8909">figures: List&lt;Figure&gt;</text><rect fill="none" height="6" style="stroke: #C82930; stroke-width: 1.0;" width="6" x="17" y="245.2112"/><text fill="#000000" font-family="sans-serif" font-size="11" lengthAdjust="spacingAndGlyphs" textLength="129" x="29" y="251.8459">description: Description</text><rect fill="none" height="6" style="stroke: #C82930; stroke-width: 1.0;" width="6" x="17" y="258.1663"/><text fill="#000000" font-family="sans-serif" font-size="11" lengthAdjust="spacingAndGlyphs" textLength="95" x="29" y="264.801">location: Location</text><rect fill="none" height="6" style="stroke: #C82930; stroke-width: 1.0;" width="6" x="17" y="271.1213"/><text fill="#000000" font-family="sans-serif" font-size="11" lengthAdjust="spacingAndGlyphs" textLength="136" x="29" y="277.7561">showDate: LocalDateTime</text><rect fill="none" height="6" style="stroke: #C82930; stroke-width: 1.0;" width="6" x="17" y="284.0764"/><text fill="#000000" font-family="sans-serif" font-size="11" lengthAdjust="spacingAndGlyphs" textLength="114" x="29" y="290.7112">numberOfDrones: int</text><rect fill="none" height="6" style="stroke: #C82930; stroke-width: 1.0;" width="6" x="17" y="297.0315"/><text fill="#000000" font-family="sans-serif" font-size="11" lengthAdjust="spacingAndGlyphs" textLength="128" x="29" y="303.6663">showDuration: Duration</text><line style="stroke: #A80036; stroke-width: 1.5;" x1="10" x2="520" y1="309.9866" y2="309.9866"/><polygon fill="#FFFF44" points="20,315.9866,24,319.9866,20,323.9866,16,319.9866" style="stroke: #B38D22; stroke-width: 1.0;"/><text fill="#000000" font-family="sans-serif" font-size="11" lengthAdjust="spacingAndGlyphs" textLength="79" x="29" y="324.6213">ShowRequest()</text><ellipse cx="20" cy="333.9416" fill="#84BE84" rx="3" ry="3" style="stroke: #038048; stroke-width: 1.0;"/><text fill="#000000" font-family="sans-serif" font-size="11" lengthAdjust="spacingAndGlyphs" textLength="486" x="29" y="337.5764">ShowRequest(Customer, List&lt;Figure&gt;, Description, Location, LocalDateTime, int, Duration)</text><ellipse cx="20" cy="346.8967" fill="#84BE84" rx="3" ry="3" style="stroke: #038048; stroke-width: 1.0;"/><text fill="#000000" font-family="sans-serif" font-size="11" lengthAdjust="spacingAndGlyphs" textLength="81" x="29" y="350.5315">identity(): Long</text><ellipse cx="20" cy="359.8518" fill="#84BE84" rx="3" ry="3" style="stroke: #038048; stroke-width: 1.0;"/><text fill="#000000" font-family="sans-serif" font-size="11" lengthAdjust="spacingAndGlyphs" textLength="134" x="29" y="363.4866">sameAs(Object): boolean</text></a><!--MD5=[e6ac70fafaf8ea46a71ac8b1fcfb4f61]
class eapli.framework.domain.model.DomainEntityBase--><rect codeLine="24" fill="#FEFECE" filter="url(#f1csdmwpywgtg1)" height="38.2656" id="eapli.framework.domain.model.DomainEntityBase" style="stroke: #A80036; stroke-width: 1.5;" width="215" x="157.5" y="10"/><ellipse cx="172.5" cy="29.1328" fill="#A9DCDF" rx="11" ry="11" style="stroke: #A80036; stroke-width: 1.0;"/><path d="M172.3633,24.481 L171.2095,29.5527 L173.5254,29.5527 Z M170.8691,22.2397 L173.8657,22.2397 L177.2109,34.6328 L174.7622,34.6328 L173.9985,31.5698 L170.7197,31.5698 L169.9727,34.6328 L167.5239,34.6328 Z "/><text fill="#000000" font-family="sans-serif" font-size="14" font-style="italic" lengthAdjust="spacingAndGlyphs" textLength="122" x="201.5" y="28.5352">DomainEntityBase</text><text fill="#000000" font-family="sans-serif" font-size="10" font-style="italic" lengthAdjust="spacingAndGlyphs" textLength="152" x="186.5" y="41.1563">eapli.framework.domain.model</text><rect fill="#FFFFFF" height="16.1328" style="stroke: #000000; stroke-width: 1.0; stroke-dasharray: 2.0,2.0;" width="29" x="346.5" y="7"/><text fill="#000000" font-family="sans-serif" font-size="12" font-style="italic" lengthAdjust="spacingAndGlyphs" textLength="27" x="347.5" y="19.6016">Long</text><!--MD5=[d628c41bfbbdd35ad5ec2d629946d824]
reverse link eapli.framework.domain.model.DomainEntityBase to domain.entity.ShowRequest--><path codeLine="26" d="M265,69.73 C265,81.07 265,94.1 265,107.77 " fill="none" id="eapli.framework.domain.model.DomainEntityBase-backto-domain.entity.ShowRequest" style="stroke: #A80036; stroke-width: 1.0;"/><polygon fill="none" points="258,70.09,265,50.09,272,70.09,258,70.09" style="stroke: #A80036; stroke-width: 1.0;"/><text fill="#888888" font-family="sans-serif" font-size="10" lengthAdjust="spacingAndGlyphs" textLength="188" x="167" y="392.4748">UMLDoclet 2.0.12, PlantUML 1.2020.16</text><!--MD5=[e9aea626870946a11a76ae717bb747d1]
@startuml
    set namespaceSeparator none
    hide empty fields
    hide empty methods

    class "<size:14>ShowRequest\n<size:10>domain.entity" as domain.entity.ShowRequest [[ShowRequest.html]] {
        {static} -serialVersionUID: long
        -showRequestId: Long
        -submissionDate: LocalDateTime
        -status: ShowRequestStatus
        -submissionAuthor: String
        -costumer: Customer
        -figures: List<Figure>
        -description: Description
        -location: Location
        -showDate: LocalDateTime
        -numberOfDrones: int
        -showDuration: Duration
        #ShowRequest()
        +ShowRequest(Customer, List<Figure>, Description, Location, LocalDateTime, int, Duration)
        +identity(): Long
        +sameAs(Object): boolean
    }

    abstract class "<size:14>DomainEntityBase\n<size:10>eapli.framework.domain.model" as eapli.framework.domain.model.DomainEntityBase<Long>

    eapli.framework.domain.model.DomainEntityBase <|- - domain.entity.ShowRequest

    center footer UMLDoclet 2.0.12, PlantUML 1.2020.16
@enduml

PlantUML version 1.2020.16(Sun Aug 23 21:20:43 WEST 2020)
(APACHE source distribution)
Java Runtime: OpenJDK Runtime Environment
JVM: OpenJDK 64-Bit Server VM
Default Encoding: UTF-8
Language: pt
Country: PT
--></g></svg>