<svg xmlns="http://www.w3.org/2000/svg" xmlns:xlink="http://www.w3.org/1999/xlink" contentStyleType="text/css" height="411px" preserveAspectRatio="none" style="width:644px;height:411px;background:#FFFFFF;" version="1.1" viewBox="0 0 644 411" width="644px" zoomAndPan="magnify"><title>Mark Show Proposal as Accepted - Domain Model (US317)</title><defs/><g><text fill="#000000" font-family="sans-serif" font-size="14" font-weight="bold" lengthAdjust="spacing" textLength="388.1992" x="120.9004" y="25.1074">Mark Show Proposal as Accepted - Domain Model (US317)</text><!--cluster Show Proposal Subsystem--><g id="cluster_Show Proposal Subsystem"><rect fill="none" height="359" rx="2.5" ry="2.5" style="stroke:#000000;stroke-width:1.5;" width="631" x="7" y="46.6211"/><text fill="#000000" font-family="sans-serif" font-size="14" font-weight="bold" lengthAdjust="spacing" textLength="179.71" x="232.645" y="63.7285">Show Proposal Subsystem</text></g><!--class AcceptShowProposalController--><g id="elem_AcceptShowProposalController"><rect codeLine="13" fill="#F1F1F1" height="36.6211" id="AcceptShowProposalController" rx="2.5" ry="2.5" style="stroke:#181818;stroke-width:0.5;" width="199.7646" x="173" y="83.6211"/><text fill="#000000" font-family="sans-serif" font-size="14" lengthAdjust="spacing" textLength="193.7646" x="176" y="103.7285">AcceptShowProposalController</text><line style="stroke:#181818;stroke-width:0.5;" x1="174" x2="371.7646" y1="112.2422" y2="112.2422"/></g><!--class ShowProposal--><g id="elem_ShowProposal"><rect codeLine="17" fill="#F1F1F1" height="73.8633" id="ShowProposal" rx="2.5" ry="2.5" style="stroke:#181818;stroke-width:0.5;" width="132.627" x="23.5" y="199.6211"/><text fill="#000000" font-family="sans-serif" font-size="14" lengthAdjust="spacing" textLength="90.2754" x="44.6758" y="219.7285">ShowProposal</text><line style="stroke:#181818;stroke-width:0.5;" x1="24.5" x2="155.127" y1="228.2422" y2="228.2422"/><text fill="#000000" font-family="sans-serif" font-size="14" lengthAdjust="spacing" textLength="120.627" x="29.5" y="247.3496">ShowProposalId: id</text><text fill="#000000" font-family="sans-serif" font-size="14" lengthAdjust="spacing" textLength="84.8203" x="29.5" y="265.9707">Status: status</text></g><!--class ShowProposalId--><g id="elem_ShowProposalId"><rect codeLine="22" fill="#F1F1F1" height="55.2422" id="ShowProposalId" rx="2.5" ry="2.5" style="stroke:#181818;stroke-width:0.5;" width="107.9512" x="26" y="334.6211"/><text fill="#000000" font-family="sans-serif" font-size="14" lengthAdjust="spacing" textLength="101.9512" x="29" y="354.7285">ShowProposalId</text><line style="stroke:#181818;stroke-width:0.5;" x1="27" x2="132.9512" y1="363.2422" y2="363.2422"/><text fill="#000000" font-family="sans-serif" font-size="14" lengthAdjust="spacing" textLength="56.0342" x="32" y="382.3496">int: value</text></g><!--class Status--><g id="elem_Status"><rect codeLine="26" fill="#F1F1F1" height="55.2422" id="Status" rx="2.5" ry="2.5" style="stroke:#181818;stroke-width:0.5;" width="89.8203" x="169" y="334.6211"/><text fill="#000000" font-family="sans-serif" font-size="14" lengthAdjust="spacing" textLength="39.6895" x="194.0654" y="354.7285">Status</text><line style="stroke:#181818;stroke-width:0.5;" x1="170" x2="257.8203" y1="363.2422" y2="363.2422"/><text fill="#000000" font-family="sans-serif" font-size="14" lengthAdjust="spacing" textLength="77.8203" x="175" y="382.3496">String: value</text></g><!--class ShowProposalRepository--><g id="elem_ShowProposalRepository"><rect codeLine="30" fill="#F1F1F1" height="36.6211" id="ShowProposalRepository" rx="2.5" ry="2.5" style="stroke:#181818;stroke-width:0.5;" width="163.1924" x="191.5" y="218.1211"/><text fill="#000000" font-family="sans-serif" font-size="14" lengthAdjust="spacing" textLength="157.1924" x="194.5" y="238.2285">ShowProposalRepository</text><line style="stroke:#181818;stroke-width:0.5;" x1="192.5" x2="353.6924" y1="246.7422" y2="246.7422"/></g><!--class VerifyShowProposalStatusController--><g id="elem_VerifyShowProposalStatusController"><rect codeLine="34" fill="#F1F1F1" height="36.6211" id="VerifyShowProposalStatusController" rx="2.5" ry="2.5" style="stroke:#181818;stroke-width:0.5;" width="232.4404" x="390" y="218.1211"/><text fill="#000000" font-family="sans-serif" font-size="14" lengthAdjust="spacing" textLength="226.4404" x="393" y="238.2285">VerifyShowProposalStatusController</text><line style="stroke:#181818;stroke-width:0.5;" x1="391" x2="621.4404" y1="246.7422" y2="246.7422"/></g><!--link AcceptShowProposalController to ShowProposal--><g id="link_AcceptShowProposalController_ShowProposal"><path codeLine="38" d="M246.95,120.7111 C233.97,129.5711 218.07,140.5411 204,150.6211 C182.03,166.3711 162.788,180.5884 142.478,195.8384 " fill="none" id="AcceptShowProposalController-to-ShowProposal" style="stroke:#181818;stroke-width:1.0;"/><polygon fill="#181818" points="137.68,199.4411,147.2788,197.2358,141.6783,196.4389,142.4753,190.8384,137.68,199.4411" style="stroke:#181818;stroke-width:1.0;"/><polygon fill="#000000" points="204.9406,163.1858,213.9999,160.291,210.5683,155.5189,204.9406,163.1858" style="stroke:#000000;stroke-width:1.0;"/><text fill="#000000" font-family="sans-serif" font-size="13" lengthAdjust="spacing" textLength="46.2617" x="218" y="165.6494">updates</text></g><!--link AcceptShowProposalController to ShowProposalRepository--><g id="link_AcceptShowProposalController_ShowProposalRepository"><path codeLine="39" d="M273,120.7111 C273,146.0611 273,186.5711 273,211.9511 " fill="none" id="AcceptShowProposalController-to-ShowProposalRepository" style="stroke:#181818;stroke-width:1.0;"/><polygon fill="#181818" points="273,217.9511,277,208.9511,273,212.9511,269,208.9511,273,217.9511" style="stroke:#181818;stroke-width:1.0;"/><polygon fill="#000000" points="278,165.2666,280.9389,156.2215,275.0611,156.2215,278,165.2666" style="stroke:#000000;stroke-width:1.0;"/><text fill="#000000" font-family="sans-serif" font-size="13" lengthAdjust="spacing" textLength="44.7891" x="287" y="165.6494">persists</text></g><!--link AcceptShowProposalController to VerifyShowProposalStatusController--><g id="link_AcceptShowProposalController_VerifyShowProposalStatusController"><path codeLine="40" d="M303.94,120.7111 C348.51,146.0611 425.0844,189.6051 469.7144,214.9851 " fill="none" id="AcceptShowProposalController-to-VerifyShowProposalStatusController" style="stroke:#181818;stroke-width:1.0;"/><polygon fill="#181818" points="474.93,217.9511,469.0839,210.025,470.5836,215.4794,465.1292,216.9792,474.93,217.9511" style="stroke:#181818;stroke-width:1.0;"/><polygon fill="#000000" points="398.3463,162.7383,391.9366,155.7122,389.0309,160.8217,398.3463,162.7383" style="stroke:#000000;stroke-width:1.0;"/><text fill="#000000" font-family="sans-serif" font-size="13" lengthAdjust="spacing" textLength="40.46" x="403" y="165.6494">checks</text></g><!--link ShowProposal to ShowProposalId--><g id="link_ShowProposal_ShowProposalId"><path codeLine="42" d="M87.08,273.6711 C85.51,293.0411 84.0918,310.5305 82.6618,328.2805 " fill="none" id="ShowProposal-to-ShowProposalId" style="stroke:#181818;stroke-width:1.0;"/><polygon fill="#181818" points="82.18,334.2611,86.8898,325.6114,82.5815,329.2772,78.9156,324.9689,82.18,334.2611" style="stroke:#181818;stroke-width:1.0;"/></g><!--link ShowProposal to Status--><g id="link_ShowProposal_Status"><path codeLine="43" d="M126.2,273.6711 C145.64,293.0411 164.959,312.2768 182.779,330.0268 " fill="none" id="ShowProposal-to-Status" style="stroke:#181818;stroke-width:1.0;"/><polygon fill="#181818" points="187.03,334.2611,183.4764,325.0757,183.4875,330.7325,177.8307,330.7437,187.03,334.2611" style="stroke:#181818;stroke-width:1.0;"/></g><!--SRC=[bP9DQyCm38Rl_XLYfvRHmzXXa4EXR9SS2cDXkwkssfWuTh2KbJ3wtvT-P7NNjNI-65kFNhsMp9Nr3KQieGu-w3A6ca1YIuf_8Wtg2bTKIES88cb1lt8fm2MQiBP-1KjqJ4g9bHwTOwoWACCQNcDe0gC3P9XfJOsGWGcyX1gjXtamv63qNZm-F8sLAgqXq3PgHxm_r2HbCApKmGdSdQeMxO8x5ghlu4ifw9Tso4EfBJkWpy5B3CvHx4auhFkwDvfICnvCZfh3rNX7RrBrD2DHIwzpau4rnv2Wj9m1x_RhYhb9DAsN33xHzMCvJzg9fGOazgEup2T5tgZVh8JOfUre6uD2kI_w00tejKvyKBJBBXNUc_gxssla4vIy7CKpM8JW27rQvUeS9vFfwIWos3-0OVh_xAGZ6JGKsRBSB7H37pBG9UbgAwb-_vOpCxcvmEp_pqPz0m00]--></g></svg>