<svg xmlns="http://www.w3.org/2000/svg" xmlns:xlink="http://www.w3.org/1999/xlink" contentStyleType="text/css" height="1409px" preserveAspectRatio="none" style="width:930px;height:1409px;background:#FFFFFF;" version="1.1" viewBox="0 0 930 1409" width="930px" zoomAndPan="magnify"><title>System Sequence Diagram (SSD) - Add Figure to the Catalogue with DSL Validation</title><defs/><g><text fill="#000000" font-family="sans-serif" font-size="14" font-weight="bold" lengthAdjust="spacing" textLength="556.1855" x="194.3782" y="30.1074">System Sequence Diagram (SSD) - Add Figure to the Catalogue with DSL Validation</text><rect fill="#FFFFFF" height="1182.7012" style="stroke:#181818;stroke-width:1.0;" width="10" x="85.4688" y="133.2422"/><rect fill="#FFFFFF" height="31.291" style="stroke:#181818;stroke-width:1.0;" width="10" x="429.6733" y="156.5332"/><rect fill="#FFFFFF" height="1096.8281" style="stroke:#181818;stroke-width:1.0;" width="10" x="429.6733" y="219.1152"/><rect fill="none" height="475.123" style="stroke:#000000;stroke-width:1.5;" width="700.3066" x="10" y="499.8613"/><rect fill="none" height="393.9102" style="stroke:#000000;stroke-width:1.5;" width="680.3066" x="20" y="526.1523"/><rect fill="none" height="50.582" style="stroke:#000000;stroke-width:1.5;" width="446.9561" x="30" y="862.4805"/><rect fill="none" height="142.7949" style="stroke:#000000;stroke-width:1.5;" width="633.4331" x="30" y="1166.1484"/><line style="stroke:#181818;stroke-width:0.5;stroke-dasharray:5.0,5.0;" x1="90" x2="90" y1="123.2422" y2="1325.9434"/><line style="stroke:#181818;stroke-width:0.5;stroke-dasharray:5.0,5.0;" x1="434.3906" x2="434.3906" y1="123.2422" y2="1325.9434"/><text fill="#000000" font-family="sans-serif" font-size="14" lengthAdjust="spacing" textLength="94.9375" x="40" y="119.7285">Show Designer</text><ellipse cx="90.4688" cy="53.1211" fill="#E3E3E3" rx="8" ry="8" style="stroke:#181818;stroke-width:0.5;"/><path d="M90.4688,61.1211 L90.4688,88.1211 M77.4688,69.1211 L103.4688,69.1211 M90.4688,88.1211 L77.4688,103.1211 M90.4688,88.1211 L103.4688,103.1211 " fill="none" style="stroke:#181818;stroke-width:0.5;"/><text fill="#000000" font-family="sans-serif" font-size="14" lengthAdjust="spacing" textLength="94.9375" x="40" y="1340.0508">Show Designer</text><ellipse cx="90.4688" cy="1352.0645" fill="#E3E3E3" rx="8" ry="8" style="stroke:#181818;stroke-width:0.5;"/><path d="M90.4688,1360.0645 L90.4688,1387.0645 M77.4688,1368.0645 L103.4688,1368.0645 M90.4688,1387.0645 L77.4688,1402.0645 M90.4688,1387.0645 L103.4688,1402.0645 " fill="none" style="stroke:#181818;stroke-width:0.5;"/><rect fill="#E3E3E3" height="32.6211" rx="2.5" ry="2.5" style="stroke:#181818;stroke-width:0.5;" width="64.5654" x="402.3906" y="89.6211"/><text fill="#000000" font-family="sans-serif" font-size="14" lengthAdjust="spacing" textLength="50.5654" x="409.3906" y="111.7285">:System</text><rect fill="#E3E3E3" height="32.6211" rx="2.5" ry="2.5" style="stroke:#181818;stroke-width:0.5;" width="64.5654" x="402.3906" y="1324.9434"/><text fill="#000000" font-family="sans-serif" font-size="14" lengthAdjust="spacing" textLength="50.5654" x="409.3906" y="1347.0508">:System</text><rect fill="#FFFFFF" height="1182.7012" style="stroke:#181818;stroke-width:1.0;" width="10" x="85.4688" y="133.2422"/><rect fill="#FFFFFF" height="31.291" style="stroke:#181818;stroke-width:1.0;" width="10" x="429.6733" y="156.5332"/><rect fill="#FFFFFF" height="1096.8281" style="stroke:#181818;stroke-width:1.0;" width="10" x="429.6733" y="219.1152"/><polygon fill="#181818" points="417.6733,152.5332,427.6733,156.5332,417.6733,160.5332,421.6733,156.5332" style="stroke:#181818;stroke-width:1.0;"/><line style="stroke:#181818;stroke-width:1.0;" x1="95.4688" x2="423.6733" y1="156.5332" y2="156.5332"/><text fill="#000000" font-family="sans-serif" font-size="13" font-weight="bold" lengthAdjust="spacing" textLength="7.23" x="102.4688" y="151.2705">1</text><text fill="#000000" font-family="sans-serif" font-size="13" lengthAdjust="spacing" textLength="36.1245" x="113.6987" y="151.2705">login()</text><polygon fill="#181818" points="106.4688,183.8242,96.4688,187.8242,106.4688,191.8242,102.4688,187.8242" style="stroke:#181818;stroke-width:1.0;"/><line style="stroke:#181818;stroke-width:1.0;stroke-dasharray:2.0,2.0;" x1="100.4688" x2="433.6733" y1="187.8242" y2="187.8242"/><text fill="#000000" font-family="sans-serif" font-size="13" font-weight="bold" lengthAdjust="spacing" textLength="7.23" x="112.4688" y="182.5615">2</text><text fill="#000000" font-family="sans-serif" font-size="13" lengthAdjust="spacing" textLength="78.0635" x="123.6987" y="182.5615">authenticated</text><polygon fill="#181818" points="417.6733,215.1152,427.6733,219.1152,417.6733,223.1152,421.6733,219.1152" style="stroke:#181818;stroke-width:1.0;"/><line style="stroke:#181818;stroke-width:1.0;" x1="95.4688" x2="423.6733" y1="219.1152" y2="219.1152"/><text fill="#000000" font-family="sans-serif" font-size="13" font-weight="bold" lengthAdjust="spacing" textLength="7.23" x="102.4688" y="213.8525">3</text><text fill="#000000" font-family="sans-serif" font-size="13" lengthAdjust="spacing" textLength="114.1626" x="113.6987" y="213.8525">start addFigure flow</text><line style="stroke:#181818;stroke-width:1.0;" x1="439.6733" x2="481.6733" y1="250.4063" y2="250.4063"/><line style="stroke:#181818;stroke-width:1.0;" x1="481.6733" x2="481.6733" y1="250.4063" y2="263.4063"/><line style="stroke:#181818;stroke-width:1.0;" x1="440.6733" x2="481.6733" y1="263.4063" y2="263.4063"/><polygon fill="#181818" points="450.6733,259.4063,440.6733,263.4063,450.6733,267.4063,446.6733,263.4063" style="stroke:#181818;stroke-width:1.0;"/><text fill="#000000" font-family="sans-serif" font-size="13" font-weight="bold" lengthAdjust="spacing" textLength="7.23" x="446.6733" y="245.1436">4</text><text fill="#000000" font-family="sans-serif" font-size="13" lengthAdjust="spacing" textLength="150.3125" x="457.9033" y="245.1436">validate and prompt name</text><line style="stroke:#181818;stroke-width:1.0;" x1="439.6733" x2="481.6733" y1="294.6973" y2="294.6973"/><line style="stroke:#181818;stroke-width:1.0;" x1="481.6733" x2="481.6733" y1="294.6973" y2="307.6973"/><line style="stroke:#181818;stroke-width:1.0;" x1="440.6733" x2="481.6733" y1="307.6973" y2="307.6973"/><polygon fill="#181818" points="450.6733,303.6973,440.6733,307.6973,450.6733,311.6973,446.6733,307.6973" style="stroke:#181818;stroke-width:1.0;"/><text fill="#000000" font-family="sans-serif" font-size="13" font-weight="bold" lengthAdjust="spacing" textLength="7.23" x="446.6733" y="289.4346">5</text><text fill="#000000" font-family="sans-serif" font-size="13" lengthAdjust="spacing" textLength="229.8105" x="457.9033" y="289.4346">prompt and validate optional description</text><line style="stroke:#181818;stroke-width:1.0;" x1="439.6733" x2="481.6733" y1="338.9883" y2="338.9883"/><line style="stroke:#181818;stroke-width:1.0;" x1="481.6733" x2="481.6733" y1="338.9883" y2="351.9883"/><line style="stroke:#181818;stroke-width:1.0;" x1="440.6733" x2="481.6733" y1="351.9883" y2="351.9883"/><polygon fill="#181818" points="450.6733,347.9883,440.6733,351.9883,450.6733,355.9883,446.6733,351.9883" style="stroke:#181818;stroke-width:1.0;"/><text fill="#000000" font-family="sans-serif" font-size="13" font-weight="bold" lengthAdjust="spacing" textLength="7.23" x="446.6733" y="333.7256">6</text><text fill="#000000" font-family="sans-serif" font-size="13" lengthAdjust="spacing" textLength="161.8462" x="457.9033" y="333.7256">getActiveFigureCategories()</text><line style="stroke:#181818;stroke-width:1.0;" x1="439.6733" x2="481.6733" y1="383.2793" y2="383.2793"/><line style="stroke:#181818;stroke-width:1.0;" x1="481.6733" x2="481.6733" y1="383.2793" y2="396.2793"/><line style="stroke:#181818;stroke-width:1.0;" x1="440.6733" x2="481.6733" y1="396.2793" y2="396.2793"/><polygon fill="#181818" points="450.6733,392.2793,440.6733,396.2793,450.6733,400.2793,446.6733,396.2793" style="stroke:#181818;stroke-width:1.0;"/><text fill="#000000" font-family="sans-serif" font-size="13" font-weight="bold" lengthAdjust="spacing" textLength="7.23" x="446.6733" y="378.0166">7</text><text fill="#000000" font-family="sans-serif" font-size="13" lengthAdjust="spacing" textLength="148.8525" x="457.9033" y="378.0166">prompt category selection</text><line style="stroke:#181818;stroke-width:1.0;" x1="439.6733" x2="481.6733" y1="427.5703" y2="427.5703"/><line style="stroke:#181818;stroke-width:1.0;" x1="481.6733" x2="481.6733" y1="427.5703" y2="440.5703"/><line style="stroke:#181818;stroke-width:1.0;" x1="440.6733" x2="481.6733" y1="440.5703" y2="440.5703"/><polygon fill="#181818" points="450.6733,436.5703,440.6733,440.5703,450.6733,444.5703,446.6733,440.5703" style="stroke:#181818;stroke-width:1.0;"/><text fill="#000000" font-family="sans-serif" font-size="13" font-weight="bold" lengthAdjust="spacing" textLength="7.23" x="446.6733" y="422.3076">8</text><text fill="#000000" font-family="sans-serif" font-size="13" lengthAdjust="spacing" textLength="177.7661" x="457.9033" y="422.3076">prompt and validate availability</text><line style="stroke:#181818;stroke-width:1.0;" x1="439.6733" x2="481.6733" y1="471.8613" y2="471.8613"/><line style="stroke:#181818;stroke-width:1.0;" x1="481.6733" x2="481.6733" y1="471.8613" y2="484.8613"/><line style="stroke:#181818;stroke-width:1.0;" x1="440.6733" x2="481.6733" y1="484.8613" y2="484.8613"/><polygon fill="#181818" points="450.6733,480.8613,440.6733,484.8613,450.6733,488.8613,446.6733,484.8613" style="stroke:#181818;stroke-width:1.0;"/><text fill="#000000" font-family="sans-serif" font-size="13" font-weight="bold" lengthAdjust="spacing" textLength="7.23" x="446.6733" y="466.5986">9</text><text fill="#000000" font-family="sans-serif" font-size="13" lengthAdjust="spacing" textLength="152.4771" x="457.9033" y="466.5986">prompt and validate status</text><path d="M10,499.8613 L70.1709,499.8613 L70.1709,509.1523 L60.1709,519.1523 L10,519.1523 L10,499.8613 " fill="#EEEEEE" style="stroke:#000000;stroke-width:1.5;"/><rect fill="none" height="475.123" style="stroke:#000000;stroke-width:1.5;" width="700.3066" x="10" y="499.8613"/><text fill="#000000" font-family="sans-serif" font-size="13" font-weight="bold" lengthAdjust="spacing" textLength="15.1709" x="25" y="514.8896">alt</text><text fill="#000000" font-family="sans-serif" font-size="11" font-weight="bold" lengthAdjust="spacing" textLength="53.7646" x="85.1709" y="513.7314">[Add DSL]</text><path d="M20,526.1523 L92.4346,526.1523 L92.4346,535.4434 L82.4346,545.4434 L20,545.4434 L20,526.1523 " fill="#EEEEEE" style="stroke:#000000;stroke-width:1.5;"/><rect fill="none" height="393.9102" style="stroke:#000000;stroke-width:1.5;" width="680.3066" x="20" y="526.1523"/><text fill="#000000" font-family="sans-serif" font-size="13" font-weight="bold" lengthAdjust="spacing" textLength="27.4346" x="35" y="541.1807">loop</text><text fill="#000000" font-family="sans-serif" font-size="11" font-weight="bold" lengthAdjust="spacing" textLength="116.7354" x="107.4346" y="540.0225">[While user adds DSL]</text><line style="stroke:#181818;stroke-width:1.0;" x1="439.6733" x2="481.6733" y1="568.7344" y2="568.7344"/><line style="stroke:#181818;stroke-width:1.0;" x1="481.6733" x2="481.6733" y1="568.7344" y2="581.7344"/><line style="stroke:#181818;stroke-width:1.0;" x1="440.6733" x2="481.6733" y1="581.7344" y2="581.7344"/><polygon fill="#181818" points="450.6733,577.7344,440.6733,581.7344,450.6733,585.7344,446.6733,581.7344" style="stroke:#181818;stroke-width:1.0;"/><text fill="#000000" font-family="sans-serif" font-size="13" font-weight="bold" lengthAdjust="spacing" textLength="14.46" x="446.6733" y="563.4717">10</text><text fill="#000000" font-family="sans-serif" font-size="13" lengthAdjust="spacing" textLength="123.5444" x="465.1333" y="563.4717">get DSL lines from UI</text><line style="stroke:#181818;stroke-width:1.0;" x1="439.6733" x2="481.6733" y1="613.0254" y2="613.0254"/><line style="stroke:#181818;stroke-width:1.0;" x1="481.6733" x2="481.6733" y1="613.0254" y2="626.0254"/><line style="stroke:#181818;stroke-width:1.0;" x1="440.6733" x2="481.6733" y1="626.0254" y2="626.0254"/><polygon fill="#181818" points="450.6733,622.0254,440.6733,626.0254,450.6733,630.0254,446.6733,626.0254" style="stroke:#181818;stroke-width:1.0;"/><text fill="#000000" font-family="sans-serif" font-size="13" font-weight="bold" lengthAdjust="spacing" textLength="14.46" x="446.6733" y="607.7627">11</text><text fill="#000000" font-family="sans-serif" font-size="13" lengthAdjust="spacing" textLength="202.3252" x="465.1333" y="607.7627">validate DSL syntax and semantics</text><line style="stroke:#181818;stroke-width:1.0;" x1="439.6733" x2="481.6733" y1="657.3164" y2="657.3164"/><line style="stroke:#181818;stroke-width:1.0;" x1="481.6733" x2="481.6733" y1="657.3164" y2="670.3164"/><line style="stroke:#181818;stroke-width:1.0;" x1="440.6733" x2="481.6733" y1="670.3164" y2="670.3164"/><polygon fill="#181818" points="450.6733,666.3164,440.6733,670.3164,450.6733,674.3164,446.6733,670.3164" style="stroke:#181818;stroke-width:1.0;"/><text fill="#000000" font-family="sans-serif" font-size="13" font-weight="bold" lengthAdjust="spacing" textLength="14.46" x="446.6733" y="652.0537">12</text><text fill="#000000" font-family="sans-serif" font-size="13" lengthAdjust="spacing" textLength="188.5952" x="465.1333" y="652.0537">get drone model name from DSL</text><line style="stroke:#181818;stroke-width:1.0;" x1="439.6733" x2="481.6733" y1="701.6074" y2="701.6074"/><line style="stroke:#181818;stroke-width:1.0;" x1="481.6733" x2="481.6733" y1="701.6074" y2="714.6074"/><line style="stroke:#181818;stroke-width:1.0;" x1="440.6733" x2="481.6733" y1="714.6074" y2="714.6074"/><polygon fill="#181818" points="450.6733,710.6074,440.6733,714.6074,450.6733,718.6074,446.6733,714.6074" style="stroke:#181818;stroke-width:1.0;"/><text fill="#000000" font-family="sans-serif" font-size="13" font-weight="bold" lengthAdjust="spacing" textLength="14.46" x="446.6733" y="696.3447">13</text><text fill="#000000" font-family="sans-serif" font-size="13" lengthAdjust="spacing" textLength="127.1816" x="465.1333" y="696.3447">fetch all drone models</text><line style="stroke:#181818;stroke-width:1.0;" x1="439.6733" x2="481.6733" y1="745.8984" y2="745.8984"/><line style="stroke:#181818;stroke-width:1.0;" x1="481.6733" x2="481.6733" y1="745.8984" y2="758.8984"/><line style="stroke:#181818;stroke-width:1.0;" x1="440.6733" x2="481.6733" y1="758.8984" y2="758.8984"/><polygon fill="#181818" points="450.6733,754.8984,440.6733,758.8984,450.6733,762.8984,446.6733,758.8984" style="stroke:#181818;stroke-width:1.0;"/><text fill="#000000" font-family="sans-serif" font-size="13" font-weight="bold" lengthAdjust="spacing" textLength="14.46" x="446.6733" y="740.6357">14</text><text fill="#000000" font-family="sans-serif" font-size="13" lengthAdjust="spacing" textLength="132.228" x="465.1333" y="740.6357">determine DSL version</text><line style="stroke:#181818;stroke-width:1.0;" x1="439.6733" x2="481.6733" y1="790.1895" y2="790.1895"/><line style="stroke:#181818;stroke-width:1.0;" x1="481.6733" x2="481.6733" y1="790.1895" y2="803.1895"/><line style="stroke:#181818;stroke-width:1.0;" x1="440.6733" x2="481.6733" y1="803.1895" y2="803.1895"/><polygon fill="#181818" points="450.6733,799.1895,440.6733,803.1895,450.6733,807.1895,446.6733,803.1895" style="stroke:#181818;stroke-width:1.0;"/><text fill="#000000" font-family="sans-serif" font-size="13" font-weight="bold" lengthAdjust="spacing" textLength="14.46" x="446.6733" y="784.9268">15</text><text fill="#000000" font-family="sans-serif" font-size="13" lengthAdjust="spacing" textLength="160.4116" x="465.1333" y="784.9268">store DSL in versioned map</text><line style="stroke:#181818;stroke-width:1.0;" x1="439.6733" x2="481.6733" y1="834.4805" y2="834.4805"/><line style="stroke:#181818;stroke-width:1.0;" x1="481.6733" x2="481.6733" y1="834.4805" y2="847.4805"/><line style="stroke:#181818;stroke-width:1.0;" x1="440.6733" x2="481.6733" y1="847.4805" y2="847.4805"/><polygon fill="#181818" points="450.6733,843.4805,440.6733,847.4805,450.6733,851.4805,446.6733,847.4805" style="stroke:#181818;stroke-width:1.0;"/><text fill="#000000" font-family="sans-serif" font-size="13" font-weight="bold" lengthAdjust="spacing" textLength="14.46" x="446.6733" y="829.2178">16</text><text fill="#000000" font-family="sans-serif" font-size="13" lengthAdjust="spacing" textLength="213.1733" x="465.1333" y="829.2178">ask if user wants to add another DSL</text><path d="M30,862.4805 L90.1709,862.4805 L90.1709,871.7715 L80.1709,881.7715 L30,881.7715 L30,862.4805 " fill="#EEEEEE" style="stroke:#000000;stroke-width:1.5;"/><rect fill="none" height="50.582" style="stroke:#000000;stroke-width:1.5;" width="446.9561" x="30" y="862.4805"/><text fill="#000000" font-family="sans-serif" font-size="13" font-weight="bold" lengthAdjust="spacing" textLength="15.1709" x="45" y="877.5088">alt</text><text fill="#000000" font-family="sans-serif" font-size="11" font-weight="bold" lengthAdjust="spacing" textLength="140.5884" x="105.1709" y="876.3506">[DSL has validation errors]</text><polygon fill="#181818" points="106.4688,901.0625,96.4688,905.0625,106.4688,909.0625,102.4688,905.0625" style="stroke:#181818;stroke-width:1.0;"/><line style="stroke:#181818;stroke-width:1.0;" x1="100.4688" x2="428.6733" y1="905.0625" y2="905.0625"/><text fill="#000000" font-family="sans-serif" font-size="13" font-weight="bold" lengthAdjust="spacing" textLength="14.46" x="112.4688" y="899.7998">17</text><text fill="#000000" font-family="sans-serif" font-size="13" lengthAdjust="spacing" textLength="219.6543" x="130.9287" y="899.7998">show validation errors and ask to retry</text><line style="stroke:#000000;stroke-width:1.0;stroke-dasharray:2.0,2.0;" x1="10" x2="710.3066" y1="928.0625" y2="928.0625"/><text fill="#000000" font-family="sans-serif" font-size="11" font-weight="bold" lengthAdjust="spacing" textLength="75.1685" x="15" y="939.9326">[Skipped DSL]</text><polygon fill="#181818" points="106.4688,962.9844,96.4688,966.9844,106.4688,970.9844,102.4688,966.9844" style="stroke:#181818;stroke-width:1.0;"/><line style="stroke:#181818;stroke-width:1.0;" x1="100.4688" x2="428.6733" y1="966.9844" y2="966.9844"/><text fill="#000000" font-family="sans-serif" font-size="13" font-weight="bold" lengthAdjust="spacing" textLength="14.46" x="112.4688" y="961.7217">18</text><text fill="#000000" font-family="sans-serif" font-size="13" lengthAdjust="spacing" textLength="73.709" x="130.9287" y="961.7217">DSL skipped</text><line style="stroke:#181818;stroke-width:1.0;" x1="439.6733" x2="481.6733" y1="1005.2754" y2="1005.2754"/><line style="stroke:#181818;stroke-width:1.0;" x1="481.6733" x2="481.6733" y1="1005.2754" y2="1018.2754"/><line style="stroke:#181818;stroke-width:1.0;" x1="440.6733" x2="481.6733" y1="1018.2754" y2="1018.2754"/><polygon fill="#181818" points="450.6733,1014.2754,440.6733,1018.2754,450.6733,1022.2754,446.6733,1018.2754" style="stroke:#181818;stroke-width:1.0;"/><text fill="#000000" font-family="sans-serif" font-size="13" font-weight="bold" lengthAdjust="spacing" textLength="14.46" x="446.6733" y="1000.0127">19</text><text fill="#000000" font-family="sans-serif" font-size="13" lengthAdjust="spacing" textLength="98.2617" x="465.1333" y="1000.0127">get all customers</text><line style="stroke:#181818;stroke-width:1.0;" x1="439.6733" x2="481.6733" y1="1049.5664" y2="1049.5664"/><line style="stroke:#181818;stroke-width:1.0;" x1="481.6733" x2="481.6733" y1="1049.5664" y2="1062.5664"/><line style="stroke:#181818;stroke-width:1.0;" x1="440.6733" x2="481.6733" y1="1062.5664" y2="1062.5664"/><polygon fill="#181818" points="450.6733,1058.5664,440.6733,1062.5664,450.6733,1066.5664,446.6733,1062.5664" style="stroke:#181818;stroke-width:1.0;"/><text fill="#000000" font-family="sans-serif" font-size="13" font-weight="bold" lengthAdjust="spacing" textLength="14.46" x="446.6733" y="1044.3037">20</text><text fill="#000000" font-family="sans-serif" font-size="13" lengthAdjust="spacing" textLength="187.1353" x="465.1333" y="1044.3037">ask to select (optional) customer</text><line style="stroke:#181818;stroke-width:1.0;" x1="439.6733" x2="481.6733" y1="1093.8574" y2="1093.8574"/><line style="stroke:#181818;stroke-width:1.0;" x1="481.6733" x2="481.6733" y1="1093.8574" y2="1106.8574"/><line style="stroke:#181818;stroke-width:1.0;" x1="440.6733" x2="481.6733" y1="1106.8574" y2="1106.8574"/><polygon fill="#181818" points="450.6733,1102.8574,440.6733,1106.8574,450.6733,1110.8574,446.6733,1106.8574" style="stroke:#181818;stroke-width:1.0;"/><text fill="#000000" font-family="sans-serif" font-size="13" font-weight="bold" lengthAdjust="spacing" textLength="14.46" x="446.6733" y="1088.5947">21</text><text fill="#000000" font-family="sans-serif" font-size="13" lengthAdjust="spacing" textLength="458.8086" x="465.1333" y="1088.5947">call addFigure(name, desc, category, availability, status, dslVersions, customer)</text><line style="stroke:#181818;stroke-width:1.0;" x1="439.6733" x2="481.6733" y1="1138.1484" y2="1138.1484"/><line style="stroke:#181818;stroke-width:1.0;" x1="481.6733" x2="481.6733" y1="1138.1484" y2="1151.1484"/><line style="stroke:#181818;stroke-width:1.0;" x1="440.6733" x2="481.6733" y1="1151.1484" y2="1151.1484"/><polygon fill="#181818" points="450.6733,1147.1484,440.6733,1151.1484,450.6733,1155.1484,446.6733,1151.1484" style="stroke:#181818;stroke-width:1.0;"/><text fill="#000000" font-family="sans-serif" font-size="13" font-weight="bold" lengthAdjust="spacing" textLength="14.46" x="446.6733" y="1132.8857">22</text><text fill="#000000" font-family="sans-serif" font-size="13" lengthAdjust="spacing" textLength="286.876" x="465.1333" y="1132.8857">validate all inputs (uniqueness, enums, nulls, etc.)</text><path d="M30,1166.1484 L90.1709,1166.1484 L90.1709,1175.4395 L80.1709,1185.4395 L30,1185.4395 L30,1166.1484 " fill="#EEEEEE" style="stroke:#000000;stroke-width:1.5;"/><rect fill="none" height="142.7949" style="stroke:#000000;stroke-width:1.5;" width="633.4331" x="30" y="1166.1484"/><text fill="#000000" font-family="sans-serif" font-size="13" font-weight="bold" lengthAdjust="spacing" textLength="15.1709" x="45" y="1181.1768">alt</text><text fill="#000000" font-family="sans-serif" font-size="11" font-weight="bold" lengthAdjust="spacing" textLength="83.7354" x="105.1709" y="1180.0186">[validation fails]</text><polygon fill="#181818" points="106.4688,1204.7305,96.4688,1208.7305,106.4688,1212.7305,102.4688,1208.7305" style="stroke:#181818;stroke-width:1.0;"/><line style="stroke:#181818;stroke-width:1.0;stroke-dasharray:2.0,2.0;" x1="100.4688" x2="428.6733" y1="1208.7305" y2="1208.7305"/><text fill="#000000" font-family="sans-serif" font-size="13" font-weight="bold" lengthAdjust="spacing" textLength="14.46" x="112.4688" y="1203.4678">23</text><text fill="#000000" font-family="sans-serif" font-size="13" lengthAdjust="spacing" textLength="238.2847" x="130.9287" y="1203.4678">errorMessage("Invalid or duplicate input")</text><line style="stroke:#000000;stroke-width:1.0;stroke-dasharray:2.0,2.0;" x1="30" x2="663.4331" y1="1217.7305" y2="1217.7305"/><text fill="#000000" font-family="sans-serif" font-size="11" font-weight="bold" lengthAdjust="spacing" textLength="111.8691" x="35" y="1229.6006">[validation succeeds]</text><line style="stroke:#181818;stroke-width:1.0;" x1="439.6733" x2="481.6733" y1="1256.6523" y2="1256.6523"/><line style="stroke:#181818;stroke-width:1.0;" x1="481.6733" x2="481.6733" y1="1256.6523" y2="1269.6523"/><line style="stroke:#181818;stroke-width:1.0;" x1="440.6733" x2="481.6733" y1="1269.6523" y2="1269.6523"/><polygon fill="#181818" points="450.6733,1265.6523,440.6733,1269.6523,450.6733,1273.6523,446.6733,1269.6523" style="stroke:#181818;stroke-width:1.0;"/><text fill="#000000" font-family="sans-serif" font-size="13" font-weight="bold" lengthAdjust="spacing" textLength="14.46" x="446.6733" y="1251.3896">24</text><text fill="#000000" font-family="sans-serif" font-size="13" lengthAdjust="spacing" textLength="176.2998" x="465.1333" y="1251.3896">persist new figure in repository</text><polygon fill="#181818" points="106.4688,1296.9434,96.4688,1300.9434,106.4688,1304.9434,102.4688,1300.9434" style="stroke:#181818;stroke-width:1.0;"/><line style="stroke:#181818;stroke-width:1.0;stroke-dasharray:2.0,2.0;" x1="100.4688" x2="428.6733" y1="1300.9434" y2="1300.9434"/><text fill="#000000" font-family="sans-serif" font-size="13" font-weight="bold" lengthAdjust="spacing" textLength="14.46" x="112.4688" y="1295.6807">25</text><text fill="#000000" font-family="sans-serif" font-size="13" lengthAdjust="spacing" textLength="291.7446" x="130.9287" y="1295.6807">confirmationMessage("Figure added successfully")</text><!--SRC=[ZLJBRjim4BphAnO-sO3J3yYXG62ZG83uP3GzC-HA8aoHB9Uqgx_lahHL9v626Z0icRCxmza7dRJr8eW11cUTx8CR4698sD1queKyYGwFSJG80MKKjZFt0Eg5SXTjEsY58MoQg2D3ZoD57E28lnDQYR3NeilmzV6uty03F2a5FtIN0ZCwY3t2JaHXN9SGBZhsi3- -mAimMecedMqQaQApQNZ3mCyokW2hO-yki4VIdSMm0a6mEpIiAcgflR0HLezLHZchZoLOdqN436vs1tZuVXFx2ColxNhp3tCDkW8U6CiHZy1YUhJCmnZLAFo8_vYN8gi2eTJrogrnbqya4yjTuBawW22i0iy5yX6i670EUptEo2dC-UoUCA2GPD2-UZaJt65yodgmAkHYOEU2Hc8tbhbaXOr0QBWtbfBFAHDdeOruqqR7yNzZsCQOY4jeOcaWxf6cCSvv-DLhRhf46BBBL4w0F_CtBSrbj4M2bcdWv_CIUABE4JJQAFuKIOI3oFMdhrXKS1PvjXIQKhHAzeMq5gFiGHXp7xf8eJ1Y6FWMHTmP0sN_5y344rE1sjwmg60GlbaA4NG2tLPJBtnRofFAxh81Zji_LFjpSAv7Jjtpc9sdcGKCmOKg_pr5cI7Aq_i9NTpDpCmLC8QnXADLJVusR0VFoqbxZsh6oPAubAf2Qj12URBFCh4n0zlHB1Z0Ccflm_esIvifQZQrp7cdKL_dmc_B-6sdSTc-w_xjjQyPHUQrbePVRYIRh_S2a_4gJboTTR8wRriaZaRUbVnZap7vBSflcpetTuwthE5zTzqiBBKuS29U_UlLior1m3jN9M_Argkagqsjo5rIIb8YgiMkzVc2n5iCBz3MRSWT6T0xqjoZuwmUwMohmr0O9bdNNSfMSoyKMgAMxpjcLRdkd_VotJ-xmry0]--></g></svg>