<svg xmlns="http://www.w3.org/2000/svg" xmlns:xlink="http://www.w3.org/1999/xlink" contentStyleType="text/css" height="820px" preserveAspectRatio="none" style="width:862px;height:820px;background:#FFFFFF;" version="1.1" viewBox="0 0 862 820" width="862px" zoomAndPan="magnify"><title>System Sequence Diagram (SSD) - Send/Accept/Reject Show Proposal</title><defs/><g><text fill="#000000" font-family="sans-serif" font-size="14" font-weight="bold" lengthAdjust="spacing" textLength="503.002" x="175.5168" y="28.5352">System Sequence Diagram (SSD) - Send/Accept/Reject Show Proposal</text><rect fill="#FFFFFF" height="263.1738" style="stroke:#181818;stroke-width:1.0;" width="10" x="62.7871" y="128.9766"/><rect fill="#FFFFFF" height="329.7949" style="stroke:#181818;stroke-width:1.0;" width="10" x="223.7192" y="392.1504"/><rect fill="#FFFFFF" height="528.3477" style="stroke:#181818;stroke-width:1.0;" width="10" x="473.7183" y="193.5977"/><line style="stroke:#181818;stroke-width:0.5;stroke-dasharray:5.0,5.0;" x1="67" x2="67" y1="118.9766" y2="739.9453"/><line style="stroke:#181818;stroke-width:0.5;stroke-dasharray:5.0,5.0;" x1="228.5742" x2="228.5742" y1="118.9766" y2="739.9453"/><line style="stroke:#181818;stroke-width:0.5;stroke-dasharray:5.0,5.0;" x1="478.4546" x2="478.4546" y1="118.9766" y2="739.9453"/><text fill="#000000" font-family="sans-serif" font-size="14" lengthAdjust="spacing" textLength="119.5742" x="5" y="116.0234">CRM Collaborator</text><ellipse cx="67.7871" cy="50.9883" fill="#E3E3E3" rx="8" ry="8" style="stroke:#181818;stroke-width:0.5;"/><path d="M67.7871,58.9883 L67.7871,85.9883 M54.7871,66.9883 L80.7871,66.9883 M67.7871,85.9883 L54.7871,100.9883 M67.7871,85.9883 L80.7871,100.9883 " fill="none" style="stroke:#181818;stroke-width:0.5;"/><text fill="#000000" font-family="sans-serif" font-size="14" lengthAdjust="spacing" textLength="119.5742" x="5" y="752.4805">CRM Collaborator</text><ellipse cx="67.7871" cy="763.9336" fill="#E3E3E3" rx="8" ry="8" style="stroke:#181818;stroke-width:0.5;"/><path d="M67.7871,771.9336 L67.7871,798.9336 M54.7871,779.9336 L80.7871,779.9336 M67.7871,798.9336 L54.7871,813.9336 M67.7871,798.9336 L80.7871,813.9336 " fill="none" style="stroke:#181818;stroke-width:0.5;"/><text fill="#000000" font-family="sans-serif" font-size="14" lengthAdjust="spacing" textLength="170.29" x="140.5742" y="116.0234">Customer Representative</text><ellipse cx="228.7192" cy="50.9883" fill="#E3E3E3" rx="8" ry="8" style="stroke:#181818;stroke-width:0.5;"/><path d="M228.7192,58.9883 L228.7192,85.9883 M215.7192,66.9883 L241.7192,66.9883 M228.7192,85.9883 L215.7192,100.9883 M228.7192,85.9883 L241.7192,100.9883 " fill="none" style="stroke:#181818;stroke-width:0.5;"/><text fill="#000000" font-family="sans-serif" font-size="14" lengthAdjust="spacing" textLength="170.29" x="140.5742" y="752.4805">Customer Representative</text><ellipse cx="228.7192" cy="763.9336" fill="#E3E3E3" rx="8" ry="8" style="stroke:#181818;stroke-width:0.5;"/><path d="M228.7192,771.9336 L228.7192,798.9336 M215.7192,779.9336 L241.7192,779.9336 M228.7192,798.9336 L215.7192,813.9336 M228.7192,798.9336 L241.7192,813.9336 " fill="none" style="stroke:#181818;stroke-width:0.5;"/><rect fill="#E3E3E3" height="30.4883" rx="2.5" ry="2.5" style="stroke:#181818;stroke-width:0.5;" width="66.5273" x="445.4546" y="87.4883"/><text fill="#000000" font-family="sans-serif" font-size="14" lengthAdjust="spacing" textLength="52.5273" x="452.4546" y="108.0234">:System</text><rect fill="#E3E3E3" height="30.4883" rx="2.5" ry="2.5" style="stroke:#181818;stroke-width:0.5;" width="66.5273" x="445.4546" y="738.9453"/><text fill="#000000" font-family="sans-serif" font-size="14" lengthAdjust="spacing" textLength="52.5273" x="452.4546" y="759.4805">:System</text><rect fill="#FFFFFF" height="263.1738" style="stroke:#181818;stroke-width:1.0;" width="10" x="62.7871" y="128.9766"/><rect fill="#FFFFFF" height="329.7949" style="stroke:#181818;stroke-width:1.0;" width="10" x="223.7192" y="392.1504"/><rect fill="#FFFFFF" height="528.3477" style="stroke:#181818;stroke-width:1.0;" width="10" x="473.7183" y="193.5977"/><rect fill="#EEEEEE" height="3" style="stroke:#EEEEEE;stroke-width:1.0;" width="855.0356" x="0" y="149.6318"/><line style="stroke:#000000;stroke-width:1.0;" x1="0" x2="855.0356" y1="149.6318" y2="149.6318"/><line style="stroke:#000000;stroke-width:1.0;" x1="0" x2="855.0356" y1="152.6318" y2="152.6318"/><rect fill="#EEEEEE" height="23.3105" style="stroke:#000000;stroke-width:2.0;" width="167.2451" x="343.8953" y="138.9766"/><text fill="#000000" font-family="sans-serif" font-size="13" font-weight="bold" lengthAdjust="spacing" textLength="148.9604" x="349.8953" y="155.5449">CRM sends a proposal</text><polygon fill="#181818" points="461.7183,189.5977,471.7183,193.5977,461.7183,197.5977,465.7183,193.5977" style="stroke:#181818;stroke-width:1.0;"/><line style="stroke:#181818;stroke-width:1.0;" x1="72.7871" x2="467.7183" y1="193.5977" y2="193.5977"/><text fill="#000000" font-family="sans-serif" font-size="13" font-weight="bold" lengthAdjust="spacing" textLength="8.5757" x="79.7871" y="188.8555">1</text><text fill="#000000" font-family="sans-serif" font-size="13" lengthAdjust="spacing" textLength="212.7988" x="92.3628" y="188.8555">requests to send a show proposal</text><line style="stroke:#181818;stroke-width:1.0;" x1="483.7183" x2="525.7183" y1="222.9082" y2="222.9082"/><line style="stroke:#181818;stroke-width:1.0;" x1="525.7183" x2="525.7183" y1="222.9082" y2="235.9082"/><line style="stroke:#181818;stroke-width:1.0;" x1="484.7183" x2="525.7183" y1="235.9082" y2="235.9082"/><polygon fill="#181818" points="494.7183,231.9082,484.7183,235.9082,494.7183,239.9082,490.7183,235.9082" style="stroke:#181818;stroke-width:1.0;"/><text fill="#000000" font-family="sans-serif" font-size="13" font-weight="bold" lengthAdjust="spacing" textLength="8.5757" x="490.7183" y="218.166">2</text><text fill="#000000" font-family="sans-serif" font-size="13" lengthAdjust="spacing" textLength="188.5381" x="503.2939" y="218.166">generates proposal document</text><line style="stroke:#181818;stroke-width:1.0;" x1="483.7183" x2="525.7183" y1="265.2188" y2="265.2188"/><line style="stroke:#181818;stroke-width:1.0;" x1="525.7183" x2="525.7183" y1="265.2188" y2="278.2188"/><line style="stroke:#181818;stroke-width:1.0;" x1="484.7183" x2="525.7183" y1="278.2188" y2="278.2188"/><polygon fill="#181818" points="494.7183,274.2188,484.7183,278.2188,494.7183,282.2188,490.7183,278.2188" style="stroke:#181818;stroke-width:1.0;"/><text fill="#000000" font-family="sans-serif" font-size="13" font-weight="bold" lengthAdjust="spacing" textLength="8.5757" x="490.7183" y="260.4766">3</text><text fill="#000000" font-family="sans-serif" font-size="13" lengthAdjust="spacing" textLength="198.1675" x="503.2939" y="260.4766">attaches video link (if available)</text><line style="stroke:#181818;stroke-width:1.0;" x1="483.7183" x2="525.7183" y1="307.5293" y2="307.5293"/><line style="stroke:#181818;stroke-width:1.0;" x1="525.7183" x2="525.7183" y1="307.5293" y2="320.5293"/><line style="stroke:#181818;stroke-width:1.0;" x1="484.7183" x2="525.7183" y1="320.5293" y2="320.5293"/><polygon fill="#181818" points="494.7183,316.5293,484.7183,320.5293,494.7183,324.5293,490.7183,320.5293" style="stroke:#181818;stroke-width:1.0;"/><text fill="#000000" font-family="sans-serif" font-size="13" font-weight="bold" lengthAdjust="spacing" textLength="8.5757" x="490.7183" y="302.7871">4</text><text fill="#000000" font-family="sans-serif" font-size="13" lengthAdjust="spacing" textLength="238.6973" x="503.2939" y="302.7871">updates proposal status to STAND_BY</text><line style="stroke:#181818;stroke-width:1.0;" x1="483.7183" x2="525.7183" y1="349.8398" y2="349.8398"/><line style="stroke:#181818;stroke-width:1.0;" x1="525.7183" x2="525.7183" y1="349.8398" y2="362.8398"/><line style="stroke:#181818;stroke-width:1.0;" x1="484.7183" x2="525.7183" y1="362.8398" y2="362.8398"/><polygon fill="#181818" points="494.7183,358.8398,484.7183,362.8398,494.7183,366.8398,490.7183,362.8398" style="stroke:#181818;stroke-width:1.0;"/><text fill="#000000" font-family="sans-serif" font-size="13" font-weight="bold" lengthAdjust="spacing" textLength="8.5757" x="490.7183" y="345.0977">5</text><text fill="#000000" font-family="sans-serif" font-size="13" lengthAdjust="spacing" textLength="217.9023" x="503.2939" y="345.0977">saves who sent it and when (audit)</text><polygon fill="#181818" points="78.7871,388.1504,68.7871,392.1504,78.7871,396.1504,74.7871,392.1504" style="stroke:#181818;stroke-width:1.0;"/><line style="stroke:#181818;stroke-width:1.0;stroke-dasharray:2.0,2.0;" x1="72.7871" x2="472.7183" y1="392.1504" y2="392.1504"/><text fill="#000000" font-family="sans-serif" font-size="13" font-weight="bold" lengthAdjust="spacing" textLength="8.5757" x="84.7871" y="387.4082">6</text><text fill="#000000" font-family="sans-serif" font-size="13" lengthAdjust="spacing" textLength="188.9443" x="97.3628" y="387.4082">informs of successful sending</text><rect fill="#EEEEEE" height="3" style="stroke:#EEEEEE;stroke-width:1.0;" width="855.0356" x="0" y="420.8057"/><line style="stroke:#000000;stroke-width:1.0;" x1="0" x2="855.0356" y1="420.8057" y2="420.8057"/><line style="stroke:#000000;stroke-width:1.0;" x1="0" x2="855.0356" y1="423.8057" y2="423.8057"/><rect fill="#EEEEEE" height="23.3105" style="stroke:#000000;stroke-width:2.0;" width="294.3696" x="280.333" y="410.1504"/><text fill="#000000" font-family="sans-serif" font-size="13" font-weight="bold" lengthAdjust="spacing" textLength="276.085" x="286.333" y="426.7188">Customer Representative accepts/rejects</text><polygon fill="#181818" points="461.7183,460.7715,471.7183,464.7715,461.7183,468.7715,465.7183,464.7715" style="stroke:#181818;stroke-width:1.0;"/><line style="stroke:#181818;stroke-width:1.0;" x1="233.7192" x2="467.7183" y1="464.7715" y2="464.7715"/><text fill="#000000" font-family="sans-serif" font-size="13" font-weight="bold" lengthAdjust="spacing" textLength="8.5757" x="240.7192" y="460.0293">7</text><text fill="#000000" font-family="sans-serif" font-size="13" lengthAdjust="spacing" textLength="156.8188" x="253.2949" y="460.0293">views received proposals</text><line style="stroke:#181818;stroke-width:1.0;" x1="483.7183" x2="525.7183" y1="494.082" y2="494.082"/><line style="stroke:#181818;stroke-width:1.0;" x1="525.7183" x2="525.7183" y1="494.082" y2="507.082"/><line style="stroke:#181818;stroke-width:1.0;" x1="484.7183" x2="525.7183" y1="507.082" y2="507.082"/><polygon fill="#181818" points="494.7183,503.082,484.7183,507.082,494.7183,511.082,490.7183,507.082" style="stroke:#181818;stroke-width:1.0;"/><text fill="#000000" font-family="sans-serif" font-size="13" font-weight="bold" lengthAdjust="spacing" textLength="8.5757" x="490.7183" y="489.3398">8</text><text fill="#000000" font-family="sans-serif" font-size="13" lengthAdjust="spacing" textLength="323.7876" x="503.2939" y="489.3398">retrieves proposals for the customer representative</text><polygon fill="#181818" points="244.7192,532.3926,234.7192,536.3926,244.7192,540.3926,240.7192,536.3926" style="stroke:#181818;stroke-width:1.0;"/><line style="stroke:#181818;stroke-width:1.0;stroke-dasharray:2.0,2.0;" x1="238.7192" x2="472.7183" y1="536.3926" y2="536.3926"/><text fill="#000000" font-family="sans-serif" font-size="13" font-weight="bold" lengthAdjust="spacing" textLength="8.5757" x="250.7192" y="531.6504">9</text><text fill="#000000" font-family="sans-serif" font-size="13" lengthAdjust="spacing" textLength="145.2788" x="263.2949" y="531.6504">shows list of proposals</text><polygon fill="#181818" points="461.7183,561.7031,471.7183,565.7031,461.7183,569.7031,465.7183,565.7031" style="stroke:#181818;stroke-width:1.0;"/><line style="stroke:#181818;stroke-width:1.0;" x1="233.7192" x2="467.7183" y1="565.7031" y2="565.7031"/><text fill="#000000" font-family="sans-serif" font-size="13" font-weight="bold" lengthAdjust="spacing" textLength="17.1514" x="240.7192" y="560.9609">10</text><text fill="#000000" font-family="sans-serif" font-size="13" lengthAdjust="spacing" textLength="194.8477" x="261.8706" y="560.9609">sends accept or reject decision</text><line style="stroke:#181818;stroke-width:1.0;" x1="483.7183" x2="525.7183" y1="595.0137" y2="595.0137"/><line style="stroke:#181818;stroke-width:1.0;" x1="525.7183" x2="525.7183" y1="595.0137" y2="608.0137"/><line style="stroke:#181818;stroke-width:1.0;" x1="484.7183" x2="525.7183" y1="608.0137" y2="608.0137"/><polygon fill="#181818" points="494.7183,604.0137,484.7183,608.0137,494.7183,612.0137,490.7183,608.0137" style="stroke:#181818;stroke-width:1.0;"/><text fill="#000000" font-family="sans-serif" font-size="13" font-weight="bold" lengthAdjust="spacing" textLength="17.1514" x="490.7183" y="590.2715">11</text><text fill="#000000" font-family="sans-serif" font-size="13" lengthAdjust="spacing" textLength="321.166" x="511.8696" y="590.2715">updates proposal status to ACCEPTED or REJECTED</text><line style="stroke:#181818;stroke-width:1.0;" x1="483.7183" x2="525.7183" y1="637.3242" y2="637.3242"/><line style="stroke:#181818;stroke-width:1.0;" x1="525.7183" x2="525.7183" y1="637.3242" y2="650.3242"/><line style="stroke:#181818;stroke-width:1.0;" x1="484.7183" x2="525.7183" y1="650.3242" y2="650.3242"/><polygon fill="#181818" points="494.7183,646.3242,484.7183,650.3242,494.7183,654.3242,490.7183,650.3242" style="stroke:#181818;stroke-width:1.0;"/><text fill="#000000" font-family="sans-serif" font-size="13" font-weight="bold" lengthAdjust="spacing" textLength="17.1514" x="490.7183" y="632.582">12</text><text fill="#000000" font-family="sans-serif" font-size="13" lengthAdjust="spacing" textLength="180.6416" x="511.8696" y="632.582">stores feedback (if provided)</text><line style="stroke:#181818;stroke-width:1.0;" x1="483.7183" x2="525.7183" y1="679.6348" y2="679.6348"/><line style="stroke:#181818;stroke-width:1.0;" x1="525.7183" x2="525.7183" y1="679.6348" y2="692.6348"/><line style="stroke:#181818;stroke-width:1.0;" x1="484.7183" x2="525.7183" y1="692.6348" y2="692.6348"/><polygon fill="#181818" points="494.7183,688.6348,484.7183,692.6348,494.7183,696.6348,490.7183,692.6348" style="stroke:#181818;stroke-width:1.0;"/><text fill="#000000" font-family="sans-serif" font-size="13" font-weight="bold" lengthAdjust="spacing" textLength="17.1514" x="490.7183" y="674.8926">13</text><text fill="#000000" font-family="sans-serif" font-size="13" lengthAdjust="spacing" textLength="285.8604" x="511.8696" y="674.8926">logs who made the decision and when (audit)</text><polygon fill="#181818" points="239.7192,717.9453,229.7192,721.9453,239.7192,725.9453,235.7192,721.9453" style="stroke:#181818;stroke-width:1.0;"/><line style="stroke:#181818;stroke-width:1.0;stroke-dasharray:2.0,2.0;" x1="233.7192" x2="477.7183" y1="721.9453" y2="721.9453"/><text fill="#000000" font-family="sans-serif" font-size="13" font-weight="bold" lengthAdjust="spacing" textLength="17.1514" x="245.7192" y="717.2031">14</text><text fill="#000000" font-family="sans-serif" font-size="13" lengthAdjust="spacing" textLength="193.9019" x="266.8706" y="717.2031">confirmation of decision saved</text><!--SRC=[bLCxZzim3DxzAuXCkU6GtK0Af4cM0YqEyIsT2aQYRJMsv8gqW_ltfHNdTJ1GT9CjVkJteFZaV8SHMsY33wQEeIMGs5F6jviEpGahAkIZ8OXa17tLF1PmZJQSdQ-Wn8OfoyI9bXOVBDH2GNzwyePWvx0QovT5iNk1LxtmThKnXZfP7UYtDeQY3cTuYw4BZ4sMOI_1z-sHefwDX0YBxU4xR4FJu354r3yBG0RzURllMLH3X0DraPYyeBY1fh9C2OiphaCliCWl3DFTvPXbw_NO3HHe6H2wYGkiruc26r0epHkhNhzCk5nzKPKi318IMB4yYhask8ElaoPx7dfKv4b54T_7sc3wLaN0J3cAeAcrUd2M0ZJEds3fIi01dVhJqCiCgE_iymHMW_f4ktZV_DZz-lfp1iKuAEPS9sq2JW1Luhac3qlihPFxA4MfDJauNuROCeGIkDUGcSk-ITReecIMdinCjiyd1vWsX5SnhGX_JaA3U6GwE3hpkAMaM7kJoJEY8abqD3oOmQ2SGMe2SoKJdyWygynJnApEiumwxyC-aPgsAGc1C3PDssx9E7R1_rzCc-rs__Q-tusD3ljl-wsUvoBJvw0DIY9xr0USDaExZRjYvnQZ2TKbuHOj9G-kzFwHTGuc-DB5LXtIOlNX1XpNncRFOJz-JK_XBm00]--></g></svg>