<?xml version="1.0" encoding="UTF-8" standalone="no"?><svg xmlns="http://www.w3.org/2000/svg" xmlns:xlink="http://www.w3.org/1999/xlink" contentStyleType="text/css" height="457px" preserveAspectRatio="none" style="width:557px;height:457px;background:#FFFFFF;" version="1.1" viewBox="0 0 557 457" width="557px" zoomAndPan="magnify"><defs/><g><!--class Entity--><g id="elem_Entity"><rect codeLine="6" fill="#F1F1F1" height="79.332" id="Entity" rx="2.5" ry="2.5" style="stroke:#181818;stroke-width:0.5;" width="150" x="185" y="371.33"/><ellipse cx="242.75" cy="385.33" fill="#ADD1B2" rx="9" ry="9" style="stroke:#181818;stroke-width:1.0;"/><path d="M244.0283,389.12 Q243.6865,389.2958 243.3105,389.3837 Q242.9346,389.4716 242.5195,389.4716 Q241.0449,389.4716 240.2686,388.4999 Q239.4922,387.5282 239.4922,385.6923 Q239.4922,383.8515 240.2686,382.8798 Q241.0449,381.9081 242.5195,381.9081 Q242.9346,381.9081 243.3154,381.996 Q243.6963,382.0839 244.0283,382.2597 L244.0283,383.8613 Q243.6572,383.5195 243.3081,383.3608 Q242.959,383.2021 242.5879,383.2021 Q241.7969,383.2021 241.394,383.8295 Q240.9912,384.457 240.9912,385.6923 Q240.9912,386.9228 241.394,387.5502 Q241.7969,388.1777 242.5879,388.1777 Q242.959,388.1777 243.3081,388.019 Q243.6572,387.8603 244.0283,387.5185 Z " fill="#000000"/><text fill="#000000" font-family="Times" font-size="10" lengthAdjust="spacing" textLength="27" x="260.25" y="389.1093">Entity</text><line style="stroke:#181818;stroke-width:0.5;" x1="186" x2="334" y1="399.33" y2="399.33"/><text fill="#000000" font-family="Times" font-size="10" lengthAdjust="spacing" textLength="80" x="191" y="412.998">-String attribute</text><line style="stroke:#181818;stroke-width:0.5;" x1="186" x2="334" y1="419.1073" y2="419.1073"/><text fill="#000000" font-family="Times" font-size="10" lengthAdjust="spacing" textLength="84" x="191" y="432.7753">+Entity(attribute)</text><text fill="#000000" font-family="Times" font-size="10" lengthAdjust="spacing" textLength="138" x="191" y="444.5527">-validateAttribute(attribute)</text></g><!--class Repository--><g id="elem_Repository"><rect codeLine="12" fill="#F1F1F1" height="79.332" id="Repository" rx="2.5" ry="2.5" style="stroke:#181818;stroke-width:0.5;" width="134" x="193" y="179.33"/><ellipse cx="230.75" cy="193.33" fill="#ADD1B2" rx="9" ry="9" style="stroke:#181818;stroke-width:1.0;"/><path d="M232.0283,197.12 Q231.6865,197.2958 231.3105,197.3837 Q230.9346,197.4716 230.5195,197.4716 Q229.0449,197.4716 228.2686,196.4999 Q227.4922,195.5282 227.4922,193.6923 Q227.4922,191.8515 228.2686,190.8798 Q229.0449,189.9081 230.5195,189.9081 Q230.9346,189.9081 231.3154,189.996 Q231.6963,190.0839 232.0283,190.2597 L232.0283,191.8612 Q231.6572,191.5195 231.3081,191.3608 Q230.959,191.2021 230.5879,191.2021 Q229.7969,191.2021 229.394,191.8295 Q228.9912,192.457 228.9912,193.6923 Q228.9912,194.9228 229.394,195.5502 Q229.7969,196.1777 230.5879,196.1777 Q230.959,196.1777 231.3081,196.019 Q231.6572,195.8603 232.0283,195.5185 Z " fill="#000000"/><text fill="#000000" font-family="Times" font-size="10" lengthAdjust="spacing" textLength="51" x="248.25" y="197.1093">Repository</text><line style="stroke:#181818;stroke-width:0.5;" x1="194" x2="326" y1="207.33" y2="207.33"/><line style="stroke:#181818;stroke-width:0.5;" x1="194" x2="326" y1="215.33" y2="215.33"/><text fill="#000000" font-family="Times" font-size="10" lengthAdjust="spacing" textLength="122" x="199" y="228.998">+registerEntity(attribute)</text><text fill="#000000" font-family="Times" font-size="10" lengthAdjust="spacing" textLength="85" x="199" y="240.7753">-addEntity(entity)</text><text fill="#000000" font-family="Times" font-size="10" lengthAdjust="spacing" textLength="106" x="199" y="252.5527">-validateEntity(entity)</text></g><!--class RepositoryFactory--><g id="elem_RepositoryFactory"><rect codeLine="18" fill="#F1F1F1" height="79.332" id="RepositoryFactory" rx="2.5" ry="2.5" style="stroke:#181818;stroke-width:0.5;" width="178" x="284" y="7"/><ellipse cx="326.25" cy="21" fill="#ADD1B2" rx="9" ry="9" style="stroke:#181818;stroke-width:1.0;"/><path d="M327.5283,24.79 Q327.1865,24.9658 326.8105,25.0537 Q326.4346,25.1416 326.0195,25.1416 Q324.5449,25.1416 323.7686,24.1699 Q322.9922,23.1982 322.9922,21.3623 Q322.9922,19.5215 323.7686,18.5498 Q324.5449,17.5781 326.0195,17.5781 Q326.4346,17.5781 326.8154,17.666 Q327.1963,17.7539 327.5283,17.9297 L327.5283,19.5313 Q327.1572,19.1895 326.8081,19.0308 Q326.459,18.8721 326.0879,18.8721 Q325.2969,18.8721 324.894,19.4995 Q324.4912,20.127 324.4912,21.3623 Q324.4912,22.5928 324.894,23.2202 Q325.2969,23.8477 326.0879,23.8477 Q326.459,23.8477 326.8081,23.689 Q327.1572,23.5303 327.5283,23.1885 Z " fill="#000000"/><text fill="#000000" font-family="Times" font-size="10" lengthAdjust="spacing" textLength="86" x="343.75" y="24.7793">RepositoryFactory</text><line style="stroke:#181818;stroke-width:0.5;" x1="285" x2="461" y1="35" y2="35"/><line style="stroke:#181818;stroke-width:0.5;" x1="285" x2="461" y1="43" y2="43"/><text fill="#000000" font-family="Times" font-size="10" lengthAdjust="spacing" textLength="98" x="290" y="56.668">-RepositoryFactory()</text><text fill="#000000" font-family="Times" font-size="10" lengthAdjust="spacing" textLength="166" x="290" y="68.4453">+getInstance() : RepositoryFactory</text><text fill="#000000" font-family="Times" font-size="10" lengthAdjust="spacing" textLength="81" x="290" y="80.2227">+getRepository()</text></g><!--class Controller--><g id="elem_Controller"><rect codeLine="24" fill="#F1F1F1" height="67.5547" id="Controller" rx="2.5" ry="2.5" style="stroke:#181818;stroke-width:0.5;" width="134" x="80" y="12.89"/><ellipse cx="118.75" cy="26.89" fill="#ADD1B2" rx="9" ry="9" style="stroke:#181818;stroke-width:1.0;"/><path d="M120.0283,30.68 Q119.6865,30.8558 119.3105,30.9437 Q118.9346,31.0316 118.5195,31.0316 Q117.0449,31.0316 116.2686,30.0599 Q115.4922,29.0882 115.4922,27.2523 Q115.4922,25.4115 116.2686,24.4398 Q117.0449,23.4681 118.5195,23.4681 Q118.9346,23.4681 119.3154,23.556 Q119.6963,23.6439 120.0283,23.8197 L120.0283,25.4212 Q119.6572,25.0795 119.3081,24.9208 Q118.959,24.7621 118.5879,24.7621 Q117.7969,24.7621 117.394,25.3895 Q116.9912,26.017 116.9912,27.2523 Q116.9912,28.4828 117.394,29.1102 Q117.7969,29.7377 118.5879,29.7377 Q118.959,29.7377 119.3081,29.579 Q119.6572,29.4203 120.0283,29.0785 Z " fill="#000000"/><text fill="#000000" font-family="Times" font-size="10" lengthAdjust="spacing" textLength="49" x="136.25" y="30.6693">Controller</text><line style="stroke:#181818;stroke-width:0.5;" x1="81" x2="213" y1="40.89" y2="40.89"/><line style="stroke:#181818;stroke-width:0.5;" x1="81" x2="213" y1="48.89" y2="48.89"/><text fill="#000000" font-family="Times" font-size="10" lengthAdjust="spacing" textLength="112" x="86" y="62.558">+Controller(repository)</text><text fill="#000000" font-family="Times" font-size="10" lengthAdjust="spacing" textLength="122" x="86" y="74.3353">+registerEntity(attribute)</text></g><!--class ui--><g id="elem_UI"><rect codeLine="29" fill="#F1F1F1" height="44" id="ui" rx="2.5" ry="2.5" style="stroke:#181818;stroke-width:0.5;" width="38" x="7" y="24.66"/><ellipse cx="20" cy="38.66" fill="#ADD1B2" rx="9" ry="9" style="stroke:#181818;stroke-width:1.0;"/><path d="M21.2783,42.45 Q20.9365,42.6258 20.5605,42.7137 Q20.1846,42.8016 19.7695,42.8016 Q18.2949,42.8016 17.5186,41.8299 Q16.7422,40.8582 16.7422,39.0223 Q16.7422,37.1815 17.5186,36.2098 Q18.2949,35.2381 19.7695,35.2381 Q20.1846,35.2381 20.5654,35.326 Q20.9463,35.4139 21.2783,35.5897 L21.2783,37.1912 Q20.9072,36.8495 20.5581,36.6908 Q20.209,36.5321 19.8379,36.5321 Q19.0469,36.5321 18.644,37.1595 Q18.2412,37.787 18.2412,39.0223 Q18.2412,40.2528 18.644,40.8802 Q19.0469,41.5077 19.8379,41.5077 Q20.209,41.5077 20.5581,41.349 Q20.9072,41.1903 21.2783,40.8485 Z " fill="#000000"/><text fill="#000000" font-family="Times" font-size="10" lengthAdjust="spacing" textLength="10" x="32" y="42.4393">ui</text><line style="stroke:#181818;stroke-width:0.5;" x1="8" x2="44" y1="52.66" y2="52.66"/><line style="stroke:#181818;stroke-width:0.5;" x1="8" x2="44" y1="60.66" y2="60.66"/></g><!--link ui to Controller--><g id="link_UI_Controller"><path codeLine="32" d="M45.22,46.66 C55.61,46.66 66.33,46.66 66.33,46.66 C66.33,46.66 69.13,46.66 73.24,46.66 " fill="none" id="ui-to-Controller" style="stroke:#181818;stroke-width:1.0;stroke-dasharray:7.0,7.0;"/><polygon fill="#181818" points="78.03,46.66,69.03,42.66,73.03,46.66,69.03,50.66,78.03,46.66" style="stroke:#181818;stroke-width:1.0;"/></g><!--link Controller to RepositoryFactory--><g id="link_Controller_RepositoryFactory"><path codeLine="34" d="M214.2,46.66 C234.09,46.66 256.27,46.66 277.59,46.66 " fill="none" id="Controller-to-RepositoryFactory" style="stroke:#181818;stroke-width:1.0;stroke-dasharray:7.0,7.0;"/><polygon fill="#181818" points="282.36,46.66,273.36,42.66,277.36,46.66,273.36,50.66,282.36,46.66" style="stroke:#181818;stroke-width:1.0;"/><text fill="#000000" font-family="Times" font-size="10" lengthAdjust="spacing" textLength="34" x="232" y="41.328">factory</text></g><!--link RepositoryFactory to Repository--><g id="link_RepositoryFactory_Repository"><path codeLine="35" d="M347.08,86.7 C329.73,112.83 306.87,147.24 288.93,174.26 " fill="none" id="RepositoryFactory-to-Repository" style="stroke:#181818;stroke-width:1.0;"/><polygon fill="#181818" points="286.25,178.3,294.5622,173.0172,289.0169,174.1354,287.8987,168.5901,286.25,178.3" style="stroke:#181818;stroke-width:1.0;"/><text fill="#000000" font-family="Times" font-size="10" lengthAdjust="spacing" textLength="6" x="284.0321" y="169.0401">1</text></g><!--link RepositoryFactory to RepositoryFactory--><g id="link_RepositoryFactory_RepositoryFactory"><path codeLine="36" d="M462.45,32.75 C482.42,34.03 497,38.67 497,46.66 C497,53.79 485.44,58.24 468.8,60.04 " fill="none" id="RepositoryFactory-to-RepositoryFactory" style="stroke:#181818;stroke-width:1.0;"/><polygon fill="#181818" points="463.96,60.45,473.2695,63.6645,468.9416,60.0218,472.5844,55.6939,463.96,60.45" style="stroke:#181818;stroke-width:1.0;"/><text fill="#000000" font-family="Times" font-size="10" lengthAdjust="spacing" textLength="41" x="503" y="50.828">instance</text></g><!--link Controller to Repository--><g id="link_Controller_Repository"><path codeLine="38" d="M169.06,80.88 C186.71,107.47 211.62,144.98 230.91,174.03 " fill="none" id="Controller-to-Repository" style="stroke:#181818;stroke-width:1.0;stroke-dasharray:7.0,7.0;"/><polygon fill="#181818" points="233.61,178.09,231.9613,168.3801,230.8431,173.9254,225.2978,172.8072,233.61,178.09" style="stroke:#181818;stroke-width:1.0;"/><text fill="#000000" font-family="Times" font-size="10" lengthAdjust="spacing" textLength="49" x="201.11" y="126.998">repository</text></g><!--link Repository to Entity--><g id="link_Repository_Entity"><path codeLine="40" d="M260,258.28 C260,289.18 260,332.64 260,365.1 " fill="none" id="Repository-to-Entity" style="stroke:#181818;stroke-width:1.0;"/><polygon fill="#181818" points="260,369.92,264,360.92,260,364.92,256,360.92,260,369.92" style="stroke:#181818;stroke-width:1.0;"/><text fill="#000000" font-family="Times" font-size="10" lengthAdjust="spacing" textLength="38" x="261" y="318.998">register</text><text fill="#000000" font-family="Times" font-size="10" lengthAdjust="spacing" textLength="6" x="259.3813" y="361.3284">1</text></g><!--SRC=[XL91JiCm4Bpx5QkU4bMfsciEbH2YKYySA3nWSRR1gcj7zXOK47_7XDHncrJaOdbdTcPdOtzGfa67HstbWIgeQ8ydpHjh-16F1C_gI5xuswoT-YHOBGSAD2WFMDEEMqtWI3AQMbD2y6zOsGzbQjYZzYcYbI5k6uB6wlRtac1Ie_Ttp4wzdfYsqfhEUYb4Xy23OSKjV0a8Nm6xG0mEU6xeolEUbSLotjFVKQiAcQ91Ila-UpnHOxrYwyu-yn2mLfx9tHB6gkeXwevhmojmmcg3Cd4inaYMzxFKn5lZmxubPJcKO-R06w0iCRqFFzHPhSd5V4CfSx4d_pTyb7pP1gbm2-TYdQW9aPW5P9ot3C_ZR-enLXHhcArcITSKQLfLzIkwdE1YXC0Qmef4EXhthwsCAn0_]--></g></svg>