<?xml version="1.0" encoding="UTF-8" standalone="no"?><svg xmlns="http://www.w3.org/2000/svg" xmlns:xlink="http://www.w3.org/1999/xlink" contentStyleType="text/css" height="813px" preserveAspectRatio="none" style="width:863px;height:813px;background:#FFFFFF;" version="1.1" viewBox="0 0 863 813" width="863px" zoomAndPan="magnify"><defs/><g><rect fill="#FFFFFF" height="632.1016" style="stroke:#181818;stroke-width:1.0;" width="10" x="14" y="86.7773"/><rect fill="#FFFFFF" height="62.5547" style="stroke:#181818;stroke-width:1.0;" width="10" x="213" y="104.5547"/><rect fill="#FFFFFF" height="25.7773" style="stroke:#181818;stroke-width:1.0;" width="10" x="213" y="192.8867"/><rect fill="#FFFFFF" height="474.4375" style="stroke:#181818;stroke-width:1.0;" width="10" x="213" y="244.4414"/><rect fill="#FFFFFF" height="422.8828" style="stroke:#181818;stroke-width:1.0;" width="10" x="367" y="270.2188"/><rect fill="#FFFFFF" height="139.8867" style="stroke:#181818;stroke-width:1.0;" width="10" x="372" y="303.9961"/><rect fill="#FFFFFF" height="25.7773" style="stroke:#181818;stroke-width:1.0;" width="10" x="475" y="334.7734"/><rect fill="#FFFFFF" height="25.7773" style="stroke:#181818;stroke-width:1.0;" width="10" x="588" y="386.3281"/><rect fill="#FFFFFF" height="190.6641" style="stroke:#181818;stroke-width:1.0;" width="10" x="683.5" y="476.6602"/><rect fill="#FFFFFF" height="75.5547" style="stroke:#181818;stroke-width:1.0;" width="10" x="688.5" y="558.9922"/><rect fill="#FFFFFF" height="36.7773" style="stroke:#181818;stroke-width:1.0;" width="10" x="693.5" y="597.7695"/><line style="stroke:#181818;stroke-width:0.5;stroke-dasharray:5.0,5.0;" x1="19" x2="19" y1="76.7773" y2="736.8789"/><line style="stroke:#181818;stroke-width:0.5;stroke-dasharray:5.0,5.0;" x1="217.5" x2="217.5" y1="76.7773" y2="736.8789"/><line style="stroke:#181818;stroke-width:0.5;stroke-dasharray:5.0,5.0;" x1="372" x2="372" y1="140.9434" y2="736.8789"/><line style="stroke:#181818;stroke-width:0.5;stroke-dasharray:5.0,5.0;" x1="479.5" x2="479.5" y1="76.7773" y2="736.8789"/><line style="stroke:#181818;stroke-width:0.5;stroke-dasharray:5.0,5.0;" x1="592.5" x2="592.5" y1="76.7773" y2="736.8789"/><line style="stroke:#181818;stroke-width:0.5;stroke-dasharray:5.0,5.0;" x1="688.5" x2="688.5" y1="76.7773" y2="736.8789"/><line style="stroke:#181818;stroke-width:0.5;stroke-dasharray:5.0,5.0;" x1="835.5" x2="835.5" y1="518.9375" y2="736.8789"/><text fill="#000000" font-family="Times" font-size="10" lengthAdjust="spacing" textLength="22" x="5" y="74.668">User</text><ellipse cx="19" cy="13.5" fill="#E3E3E3" rx="8" ry="8" style="stroke:#181818;stroke-width:0.5;"/><path d="M19,21.5 L19,48.5 M6,29.5 L32,29.5 M19,48.5 L6,63.5 M19,48.5 L32,63.5 " fill="none" style="stroke:#181818;stroke-width:0.5;"/><text fill="#000000" font-family="Times" font-size="10" lengthAdjust="spacing" textLength="22" x="5" y="745.5469">User</text><ellipse cx="19" cy="756.1563" fill="#E3E3E3" rx="8" ry="8" style="stroke:#181818;stroke-width:0.5;"/><path d="M19,764.1563 L19,791.1563 M6,772.1563 L32,772.1563 M19,791.1563 L6,806.1563 M19,791.1563 L32,806.1563 " fill="none" style="stroke:#181818;stroke-width:0.5;"/><rect fill="#E3E3E3" height="25.7773" rx="2.5" ry="2.5" style="stroke:#181818;stroke-width:0.5;" width="27" x="204.5" y="50"/><text fill="#000000" font-family="Times" font-size="10" lengthAdjust="spacing" textLength="13" x="211.5" y="66.668">:ui</text><rect fill="#E3E3E3" height="25.7773" rx="2.5" ry="2.5" style="stroke:#181818;stroke-width:0.5;" width="27" x="204.5" y="735.8789"/><text fill="#000000" font-family="Times" font-size="10" lengthAdjust="spacing" textLength="13" x="211.5" y="752.5469">:ui</text><rect fill="#E3E3E3" height="25.7773" rx="2.5" ry="2.5" style="stroke:#181818;stroke-width:0.5;" width="66" x="339" y="735.8789"/><text fill="#000000" font-family="Times" font-size="10" lengthAdjust="spacing" textLength="52" x="346" y="752.5469">:Controller</text><rect fill="#E3E3E3" height="25.7773" rx="2.5" ry="2.5" style="stroke:#181818;stroke-width:0.5;" width="103" x="428.5" y="50"/><text fill="#000000" font-family="Times" font-size="10" lengthAdjust="spacing" textLength="89" x="435.5" y="66.668">:RepositoryFactory</text><rect fill="#E3E3E3" height="25.7773" rx="2.5" ry="2.5" style="stroke:#181818;stroke-width:0.5;" width="103" x="428.5" y="735.8789"/><text fill="#000000" font-family="Times" font-size="10" lengthAdjust="spacing" textLength="89" x="435.5" y="752.5469">:RepositoryFactory</text><rect fill="#E3E3E3" height="37.5547" rx="2.5" ry="2.5" style="stroke:#181818;stroke-width:0.5;" width="103" x="541.5" y="38.2227"/><text fill="#000000" font-family="Times" font-size="10" lengthAdjust="spacing" textLength="34" x="576" y="54.8906">factory</text><text fill="#000000" font-family="Times" font-size="10" lengthAdjust="spacing" textLength="89" x="548.5" y="66.668">:RepositoryFactory</text><rect fill="#E3E3E3" height="37.5547" rx="2.5" ry="2.5" style="stroke:#181818;stroke-width:0.5;" width="103" x="541.5" y="735.8789"/><text fill="#000000" font-family="Times" font-size="10" lengthAdjust="spacing" textLength="34" x="576" y="752.5469">factory</text><text fill="#000000" font-family="Times" font-size="10" lengthAdjust="spacing" textLength="89" x="548.5" y="764.3242">:RepositoryFactory</text><rect fill="#E3E3E3" height="37.5547" rx="2.5" ry="2.5" style="stroke:#181818;stroke-width:0.5;" width="68" x="654.5" y="38.2227"/><text fill="#000000" font-family="Times" font-size="10" lengthAdjust="spacing" textLength="49" x="664" y="54.8906">repository</text><text fill="#000000" font-family="Times" font-size="10" lengthAdjust="spacing" textLength="54" x="661.5" y="66.668">:Repository</text><rect fill="#E3E3E3" height="37.5547" rx="2.5" ry="2.5" style="stroke:#181818;stroke-width:0.5;" width="68" x="654.5" y="735.8789"/><text fill="#000000" font-family="Times" font-size="10" lengthAdjust="spacing" textLength="49" x="664" y="752.5469">repository</text><text fill="#000000" font-family="Times" font-size="10" lengthAdjust="spacing" textLength="54" x="661.5" y="764.3242">:Repository</text><rect fill="#E3E3E3" height="37.5547" rx="2.5" ry="2.5" style="stroke:#181818;stroke-width:0.5;" width="44" x="813.5" y="735.8789"/><text fill="#000000" font-family="Times" font-size="10" lengthAdjust="spacing" textLength="28" x="821.5" y="752.5469">entity</text><text fill="#000000" font-family="Times" font-size="10" lengthAdjust="spacing" textLength="30" x="820.5" y="764.3242">:Entity</text><rect fill="#FFFFFF" height="632.1016" style="stroke:#181818;stroke-width:1.0;" width="10" x="14" y="86.7773"/><rect fill="#FFFFFF" height="62.5547" style="stroke:#181818;stroke-width:1.0;" width="10" x="213" y="104.5547"/><rect fill="#FFFFFF" height="25.7773" style="stroke:#181818;stroke-width:1.0;" width="10" x="213" y="192.8867"/><rect fill="#FFFFFF" height="474.4375" style="stroke:#181818;stroke-width:1.0;" width="10" x="213" y="244.4414"/><rect fill="#FFFFFF" height="422.8828" style="stroke:#181818;stroke-width:1.0;" width="10" x="367" y="270.2188"/><rect fill="#FFFFFF" height="139.8867" style="stroke:#181818;stroke-width:1.0;" width="10" x="372" y="303.9961"/><rect fill="#FFFFFF" height="25.7773" style="stroke:#181818;stroke-width:1.0;" width="10" x="475" y="334.7734"/><rect fill="#FFFFFF" height="25.7773" style="stroke:#181818;stroke-width:1.0;" width="10" x="588" y="386.3281"/><rect fill="#FFFFFF" height="190.6641" style="stroke:#181818;stroke-width:1.0;" width="10" x="683.5" y="476.6602"/><rect fill="#FFFFFF" height="75.5547" style="stroke:#181818;stroke-width:1.0;" width="10" x="688.5" y="558.9922"/><rect fill="#FFFFFF" height="36.7773" style="stroke:#181818;stroke-width:1.0;" width="10" x="693.5" y="597.7695"/><polygon fill="#181818" points="201,100.5547,211,104.5547,201,108.5547,205,104.5547" style="stroke:#181818;stroke-width:1.0;"/><line style="stroke:#181818;stroke-width:1.0;" x1="24" x2="207" y1="104.5547" y2="104.5547"/><text fill="#000000" font-family="Times" font-size="10" font-weight="bold" lengthAdjust="spacing" textLength="7" x="31" y="100.4453">1</text><text fill="#000000" font-family="Times" font-size="10" lengthAdjust="spacing" textLength="159" x="42" y="100.4453">requests to register a new entity</text><polygon fill="#181818" points="327,126.332,337,130.332,327,134.332,331,130.332" style="stroke:#181818;stroke-width:1.0;"/><line style="stroke:#181818;stroke-width:1.0;" x1="223" x2="333" y1="130.332" y2="130.332"/><text fill="#000000" font-family="Times" font-size="10" font-weight="bold" lengthAdjust="spacing" textLength="7" x="230" y="126.2227">2</text><text fill="#000000" font-family="Times" font-size="10" lengthAdjust="spacing" textLength="31" x="241" y="126.2227">create</text><rect fill="#E3E3E3" height="25.7773" rx="2.5" ry="2.5" style="stroke:#181818;stroke-width:0.5;" width="66" x="339" y="112.5547"/><text fill="#000000" font-family="Times" font-size="10" lengthAdjust="spacing" textLength="52" x="346" y="129.2227">:Controller</text><polygon fill="#181818" points="35,163.1094,25,167.1094,35,171.1094,31,167.1094" style="stroke:#181818;stroke-width:1.0;"/><line style="stroke:#181818;stroke-width:1.0;stroke-dasharray:2.0,2.0;" x1="29" x2="217" y1="167.1094" y2="167.1094"/><text fill="#000000" font-family="Times" font-size="10" font-weight="bold" lengthAdjust="spacing" textLength="7" x="41" y="163">3</text><text fill="#000000" font-family="Times" font-size="10" lengthAdjust="spacing" textLength="114" x="52" y="163">request data (attribute)</text><polygon fill="#181818" points="201,188.8867,211,192.8867,201,196.8867,205,192.8867" style="stroke:#181818;stroke-width:1.0;"/><line style="stroke:#181818;stroke-width:1.0;" x1="24" x2="207" y1="192.8867" y2="192.8867"/><text fill="#000000" font-family="Times" font-size="10" font-weight="bold" lengthAdjust="spacing" textLength="7" x="31" y="188.7773">4</text><text fill="#000000" font-family="Times" font-size="10" lengthAdjust="spacing" textLength="118" x="42" y="188.7773">provides data (attribute)</text><polygon fill="#181818" points="35,214.6641,25,218.6641,35,222.6641,31,218.6641" style="stroke:#181818;stroke-width:1.0;"/><line style="stroke:#181818;stroke-width:1.0;stroke-dasharray:2.0,2.0;" x1="29" x2="217" y1="218.6641" y2="218.6641"/><text fill="#000000" font-family="Times" font-size="10" font-weight="bold" lengthAdjust="spacing" textLength="7" x="41" y="214.5547">5</text><text fill="#000000" font-family="Times" font-size="10" lengthAdjust="spacing" textLength="132" x="52" y="214.5547">show data for confirmation</text><polygon fill="#181818" points="201,240.4414,211,244.4414,201,248.4414,205,244.4414" style="stroke:#181818;stroke-width:1.0;"/><line style="stroke:#181818;stroke-width:1.0;" x1="24" x2="207" y1="244.4414" y2="244.4414"/><text fill="#000000" font-family="Times" font-size="10" font-weight="bold" lengthAdjust="spacing" textLength="7" x="31" y="240.332">6</text><text fill="#000000" font-family="Times" font-size="10" lengthAdjust="spacing" textLength="67" x="42" y="240.332">confirms data</text><polygon fill="#181818" points="355,266.2188,365,270.2188,355,274.2188,359,270.2188" style="stroke:#181818;stroke-width:1.0;"/><line style="stroke:#181818;stroke-width:1.0;" x1="223" x2="361" y1="270.2188" y2="270.2188"/><text fill="#000000" font-family="Times" font-size="10" font-weight="bold" lengthAdjust="spacing" textLength="7" x="230" y="266.1094">7</text><text fill="#000000" font-family="Times" font-size="10" lengthAdjust="spacing" textLength="114" x="241" y="266.1094">registerEntity(attribute)</text><line style="stroke:#181818;stroke-width:1.0;" x1="377" x2="424" y1="290.9961" y2="290.9961"/><line style="stroke:#181818;stroke-width:1.0;" x1="424" x2="424" y1="290.9961" y2="303.9961"/><line style="stroke:#181818;stroke-width:1.0;" x1="383" x2="424" y1="303.9961" y2="303.9961"/><polygon fill="#181818" points="393,299.9961,383,303.9961,393,307.9961,389,303.9961" style="stroke:#181818;stroke-width:1.0;"/><text fill="#000000" font-family="Times" font-size="10" font-weight="bold" lengthAdjust="spacing" textLength="7" x="389" y="286.8867">8</text><text fill="#000000" font-family="Times" font-size="10" lengthAdjust="spacing" textLength="73" x="400" y="286.8867">getRepository()</text><polygon fill="#181818" points="463,330.7734,473,334.7734,463,338.7734,467,334.7734" style="stroke:#181818;stroke-width:1.0;"/><line style="stroke:#181818;stroke-width:1.0;" x1="382" x2="469" y1="334.7734" y2="334.7734"/><text fill="#000000" font-family="Times" font-size="10" font-weight="bold" lengthAdjust="spacing" textLength="7" x="389" y="330.6641">9</text><text fill="#000000" font-family="Times" font-size="10" lengthAdjust="spacing" textLength="63" x="400" y="330.6641">getInstance()</text><polygon fill="#181818" points="393,356.5508,383,360.5508,393,364.5508,389,360.5508" style="stroke:#181818;stroke-width:1.0;"/><line style="stroke:#181818;stroke-width:1.0;stroke-dasharray:2.0,2.0;" x1="387" x2="479" y1="360.5508" y2="360.5508"/><text fill="#000000" font-family="Times" font-size="10" font-weight="bold" lengthAdjust="spacing" textLength="14" x="399" y="356.4414">10</text><text fill="#000000" font-family="Times" font-size="10" lengthAdjust="spacing" textLength="34" x="417" y="356.4414">factory</text><polygon fill="#181818" points="576,382.3281,586,386.3281,576,390.3281,580,386.3281" style="stroke:#181818;stroke-width:1.0;"/><line style="stroke:#181818;stroke-width:1.0;" x1="382" x2="582" y1="386.3281" y2="386.3281"/><text fill="#000000" font-family="Times" font-size="10" font-weight="bold" lengthAdjust="spacing" textLength="14" x="389" y="382.2188">11</text><text fill="#000000" font-family="Times" font-size="10" lengthAdjust="spacing" textLength="73" x="407" y="382.2188">getRepository()</text><polygon fill="#181818" points="393,408.1055,383,412.1055,393,416.1055,389,412.1055" style="stroke:#181818;stroke-width:1.0;"/><line style="stroke:#181818;stroke-width:1.0;stroke-dasharray:2.0,2.0;" x1="387" x2="592" y1="412.1055" y2="412.1055"/><text fill="#000000" font-family="Times" font-size="10" font-weight="bold" lengthAdjust="spacing" textLength="14" x="399" y="407.9961">12</text><text fill="#000000" font-family="Times" font-size="10" lengthAdjust="spacing" textLength="49" x="417" y="407.9961">repository</text><line style="stroke:#181818;stroke-width:1.0;stroke-dasharray:2.0,2.0;" x1="382" x2="424" y1="442.8828" y2="442.8828"/><line style="stroke:#181818;stroke-width:1.0;stroke-dasharray:2.0,2.0;" x1="424" x2="424" y1="442.8828" y2="455.8828"/><line style="stroke:#181818;stroke-width:1.0;stroke-dasharray:2.0,2.0;" x1="377" x2="424" y1="455.8828" y2="455.8828"/><polygon fill="#181818" points="387,451.8828,377,455.8828,387,459.8828,383,455.8828" style="stroke:#181818;stroke-width:1.0;"/><text fill="#000000" font-family="Times" font-size="10" font-weight="bold" lengthAdjust="spacing" textLength="14" x="389" y="438.7734">13</text><text fill="#000000" font-family="Times" font-size="10" lengthAdjust="spacing" textLength="49" x="407" y="438.7734">repository</text><polygon fill="#181818" points="671.5,472.6602,681.5,476.6602,671.5,480.6602,675.5,476.6602" style="stroke:#181818;stroke-width:1.0;"/><line style="stroke:#181818;stroke-width:1.0;" x1="377" x2="677.5" y1="476.6602" y2="476.6602"/><text fill="#000000" font-family="Times" font-size="10" font-weight="bold" lengthAdjust="spacing" textLength="14" x="384" y="472.5508">14</text><text fill="#000000" font-family="Times" font-size="10" lengthAdjust="spacing" textLength="114" x="402" y="472.5508">registerEntity(attribute)</text><polygon fill="#181818" points="801.5,498.4375,811.5,502.4375,801.5,506.4375,805.5,502.4375" style="stroke:#181818;stroke-width:1.0;"/><line style="stroke:#181818;stroke-width:1.0;" x1="693.5" x2="807.5" y1="502.4375" y2="502.4375"/><text fill="#000000" font-family="Times" font-size="10" font-weight="bold" lengthAdjust="spacing" textLength="14" x="700.5" y="498.3281">15</text><text fill="#000000" font-family="Times" font-size="10" lengthAdjust="spacing" textLength="31" x="718.5" y="498.3281">create</text><rect fill="#E3E3E3" height="37.5547" rx="2.5" ry="2.5" style="stroke:#181818;stroke-width:0.5;" width="44" x="813.5" y="484.6602"/><text fill="#000000" font-family="Times" font-size="10" lengthAdjust="spacing" textLength="28" x="821.5" y="501.3281">entity</text><text fill="#000000" font-family="Times" font-size="10" lengthAdjust="spacing" textLength="30" x="820.5" y="513.1055">:Entity</text><line style="stroke:#181818;stroke-width:1.0;" x1="693.5" x2="740.5" y1="545.9922" y2="545.9922"/><line style="stroke:#181818;stroke-width:1.0;" x1="740.5" x2="740.5" y1="545.9922" y2="558.9922"/><line style="stroke:#181818;stroke-width:1.0;" x1="699.5" x2="740.5" y1="558.9922" y2="558.9922"/><polygon fill="#181818" points="709.5,554.9922,699.5,558.9922,709.5,562.9922,705.5,558.9922" style="stroke:#181818;stroke-width:1.0;"/><text fill="#000000" font-family="Times" font-size="10" font-weight="bold" lengthAdjust="spacing" textLength="14" x="705.5" y="541.8828">16</text><text fill="#000000" font-family="Times" font-size="10" lengthAdjust="spacing" textLength="79" x="723.5" y="541.8828">addEntity(entity)</text><line style="stroke:#181818;stroke-width:1.0;" x1="698.5" x2="745.5" y1="584.7695" y2="584.7695"/><line style="stroke:#181818;stroke-width:1.0;" x1="745.5" x2="745.5" y1="584.7695" y2="597.7695"/><line style="stroke:#181818;stroke-width:1.0;" x1="704.5" x2="745.5" y1="597.7695" y2="597.7695"/><polygon fill="#181818" points="714.5,593.7695,704.5,597.7695,714.5,601.7695,710.5,597.7695" style="stroke:#181818;stroke-width:1.0;"/><text fill="#000000" font-family="Times" font-size="10" font-weight="bold" lengthAdjust="spacing" textLength="14" x="710.5" y="580.6602">17</text><text fill="#000000" font-family="Times" font-size="10" lengthAdjust="spacing" textLength="100" x="728.5" y="580.6602">validateEntity(entity)</text><line style="stroke:#181818;stroke-width:1.0;stroke-dasharray:2.0,2.0;" x1="703.5" x2="745.5" y1="633.5469" y2="633.5469"/><line style="stroke:#181818;stroke-width:1.0;stroke-dasharray:2.0,2.0;" x1="745.5" x2="745.5" y1="633.5469" y2="646.5469"/><line style="stroke:#181818;stroke-width:1.0;stroke-dasharray:2.0,2.0;" x1="698.5" x2="745.5" y1="646.5469" y2="646.5469"/><polygon fill="#181818" points="708.5,642.5469,698.5,646.5469,708.5,650.5469,704.5,646.5469" style="stroke:#181818;stroke-width:1.0;"/><text fill="#000000" font-family="Times" font-size="10" font-weight="bold" lengthAdjust="spacing" textLength="14" x="710.5" y="629.4375">18</text><text fill="#000000" font-family="Times" font-size="10" lengthAdjust="spacing" textLength="3" x="728.5" y="629.4375"> </text><polygon fill="#181818" points="388,663.3242,378,667.3242,388,671.3242,384,667.3242" style="stroke:#181818;stroke-width:1.0;"/><line style="stroke:#181818;stroke-width:1.0;stroke-dasharray:2.0,2.0;" x1="382" x2="687.5" y1="667.3242" y2="667.3242"/><text fill="#000000" font-family="Times" font-size="10" font-weight="bold" lengthAdjust="spacing" textLength="14" x="394" y="663.2148">19</text><text fill="#000000" font-family="Times" font-size="10" lengthAdjust="spacing" textLength="28" x="412" y="663.2148">entity</text><polygon fill="#181818" points="234,689.1016,224,693.1016,234,697.1016,230,693.1016" style="stroke:#181818;stroke-width:1.0;"/><line style="stroke:#181818;stroke-width:1.0;stroke-dasharray:2.0,2.0;" x1="228" x2="371" y1="693.1016" y2="693.1016"/><text fill="#000000" font-family="Times" font-size="10" font-weight="bold" lengthAdjust="spacing" textLength="14" x="240" y="688.9922">20</text><text fill="#000000" font-family="Times" font-size="10" lengthAdjust="spacing" textLength="28" x="258" y="688.9922">entity</text><polygon fill="#181818" points="30,714.8789,20,718.8789,30,722.8789,26,718.8789" style="stroke:#181818;stroke-width:1.0;"/><line style="stroke:#181818;stroke-width:1.0;stroke-dasharray:2.0,2.0;" x1="24" x2="217" y1="718.8789" y2="718.8789"/><text fill="#000000" font-family="Times" font-size="10" font-weight="bold" lengthAdjust="spacing" textLength="14" x="36" y="714.7695">21</text><text fill="#000000" font-family="Times" font-size="10" lengthAdjust="spacing" textLength="116" x="54" y="714.7695">shows success message</text><!--SRC=[ZLLVY-8m47_lfnXysbqGxbxtuM0H1U5m3wqF2mT7DXqrs2PUaYhUfxynYJRjfjeyHVFxCvcPJCrUo0FJh2eLtsC11MvONTgPadR1AeHSL6WoquzQYNy8txyr4AYKL7od5R6jhZ4wEJ2-PrjSsNE9e95R9hTb330xLgYJa5lOiD9Wbh7QAbbNdwXfpwtIC5eRr2DW1juc-Vio8w8LN1oOj31wNS_TqNhU-Nz2aMfLbe4woPS_EuWb7fGHv72UEQEp0ywSoKSRk_60t_8-wSzyiShV5fDfcwrld9Q0OowdlzxRQ9HMs0jowZOEDLtay_p39KGScSMGYGnekIsCVr0Au9Lo_BT6OmrOHVkjC1OrC91u0Y_iIJSXoXk4HNnIkIJgvOMKk4O2PArZElTsDoCec6NmnApLuhEs-Epm1SO6YJ0FMXr5WIPDxuikiZSxTVBa3RK8Lt8ZTCMiK79O087X0nYG4dTZdqvVbsxCBGdNRH0j9z58RT4sVV3qt8BsYyH2eUEyrbmQUbWSEqejjMjVGs9TnSPDXA7Zly2Zn5uL7yLuUnKFBfuAjtbHT-9k3CPnjQus0-xGsFHSvg5kfEdgbgp-vR4FQgHMAjo8w8Rbf4ZIJuRaW-r2WpihYc3i1yAT8YIT4v97LWfwH_X0TvXsenyCagWetqbCzpphjGXr3TDniCQjBzmuwR1xko4nnGoOcdCq1kYxQ-XZcHfWqKy_-ly3]--></g></svg>