<svg xmlns="http://www.w3.org/2000/svg" xmlns:xlink="http://www.w3.org/1999/xlink" contentStyleType="text/css" height="591px" preserveAspectRatio="none" style="width:602px;height:591px;background:#FFFFFF;" version="1.1" viewBox="0 0 602 591" width="602px" zoomAndPan="magnify"><title>System Sequence Diagram (SSD) - US212 - Disable/Enable User</title><defs/><g><text fill="#000000" font-family="sans-serif" font-size="14" font-weight="bold" lengthAdjust="spacing" textLength="424.0469" x="90.0242" y="30.1074">System Sequence Diagram (SSD) - US212 - Disable/Enable User</text><rect fill="#FFFFFF" height="365.25" style="stroke:#181818;stroke-width:1.0;" width="10" x="37.8413" y="133.2422"/><rect fill="#FFFFFF" height="341.959" style="stroke:#181818;stroke-width:1.0;" width="10" x="309.2974" y="156.5332"/><rect fill="none" height="187.0859" style="stroke:#000000;stroke-width:1.5;" width="585.0952" x="10" y="304.4063"/><line style="stroke:#181818;stroke-width:0.5;stroke-dasharray:5.0,5.0;" x1="42" x2="42" y1="123.2422" y2="508.4922"/><line style="stroke:#181818;stroke-width:0.5;stroke-dasharray:5.0,5.0;" x1="314.0146" x2="314.0146" y1="123.2422" y2="508.4922"/><text fill="#000000" font-family="sans-serif" font-size="14" lengthAdjust="spacing" textLength="39.6826" x="20" y="119.7285">Admin</text><ellipse cx="42.8413" cy="53.1211" fill="#E3E3E3" rx="8" ry="8" style="stroke:#181818;stroke-width:0.5;"/><path d="M42.8413,61.1211 L42.8413,88.1211 M29.8413,69.1211 L55.8413,69.1211 M42.8413,88.1211 L29.8413,103.1211 M42.8413,88.1211 L55.8413,103.1211 " fill="none" style="stroke:#181818;stroke-width:0.5;"/><text fill="#000000" font-family="sans-serif" font-size="14" lengthAdjust="spacing" textLength="39.6826" x="20" y="522.5996">Admin</text><ellipse cx="42.8413" cy="534.6133" fill="#E3E3E3" rx="8" ry="8" style="stroke:#181818;stroke-width:0.5;"/><path d="M42.8413,542.6133 L42.8413,569.6133 M29.8413,550.6133 L55.8413,550.6133 M42.8413,569.6133 L29.8413,584.6133 M42.8413,569.6133 L55.8413,584.6133 " fill="none" style="stroke:#181818;stroke-width:0.5;"/><rect fill="#E3E3E3" height="32.6211" rx="2.5" ry="2.5" style="stroke:#181818;stroke-width:0.5;" width="64.5654" x="282.0146" y="89.6211"/><text fill="#000000" font-family="sans-serif" font-size="14" lengthAdjust="spacing" textLength="50.5654" x="289.0146" y="111.7285">:System</text><rect fill="#E3E3E3" height="32.6211" rx="2.5" ry="2.5" style="stroke:#181818;stroke-width:0.5;" width="64.5654" x="282.0146" y="507.4922"/><text fill="#000000" font-family="sans-serif" font-size="14" lengthAdjust="spacing" textLength="50.5654" x="289.0146" y="529.5996">:System</text><rect fill="#FFFFFF" height="365.25" style="stroke:#181818;stroke-width:1.0;" width="10" x="37.8413" y="133.2422"/><rect fill="#FFFFFF" height="341.959" style="stroke:#181818;stroke-width:1.0;" width="10" x="309.2974" y="156.5332"/><polygon fill="#181818" points="297.2974,152.5332,307.2974,156.5332,297.2974,160.5332,301.2974,156.5332" style="stroke:#181818;stroke-width:1.0;"/><line style="stroke:#181818;stroke-width:1.0;" x1="47.8413" x2="303.2974" y1="156.5332" y2="156.5332"/><text fill="#000000" font-family="sans-serif" font-size="13" font-weight="bold" lengthAdjust="spacing" textLength="7.23" x="54.8413" y="151.2705">1</text><text fill="#000000" font-family="sans-serif" font-size="13" lengthAdjust="spacing" textLength="231.2261" x="66.0713" y="151.2705">toggleUserStatus(userId, desiredStatus)</text><line style="stroke:#181818;stroke-width:1.0;" x1="319.2974" x2="361.2974" y1="187.8242" y2="187.8242"/><line style="stroke:#181818;stroke-width:1.0;" x1="361.2974" x2="361.2974" y1="187.8242" y2="200.8242"/><line style="stroke:#181818;stroke-width:1.0;" x1="320.2974" x2="361.2974" y1="200.8242" y2="200.8242"/><polygon fill="#181818" points="330.2974,196.8242,320.2974,200.8242,330.2974,204.8242,326.2974,200.8242" style="stroke:#181818;stroke-width:1.0;"/><text fill="#000000" font-family="sans-serif" font-size="13" font-weight="bold" lengthAdjust="spacing" textLength="7.23" x="326.2974" y="182.5615">2</text><text fill="#000000" font-family="sans-serif" font-size="13" lengthAdjust="spacing" textLength="147.3608" x="337.5273" y="182.5615">verifyAdminPermissions()</text><line style="stroke:#181818;stroke-width:1.0;" x1="319.2974" x2="361.2974" y1="232.1152" y2="232.1152"/><line style="stroke:#181818;stroke-width:1.0;" x1="361.2974" x2="361.2974" y1="232.1152" y2="245.1152"/><line style="stroke:#181818;stroke-width:1.0;" x1="320.2974" x2="361.2974" y1="245.1152" y2="245.1152"/><polygon fill="#181818" points="330.2974,241.1152,320.2974,245.1152,330.2974,249.1152,326.2974,245.1152" style="stroke:#181818;stroke-width:1.0;"/><text fill="#000000" font-family="sans-serif" font-size="13" font-weight="bold" lengthAdjust="spacing" textLength="7.23" x="326.2974" y="226.8525">3</text><text fill="#000000" font-family="sans-serif" font-size="13" lengthAdjust="spacing" textLength="126.4326" x="337.5273" y="226.8525">fetchUserById(userId)</text><line style="stroke:#181818;stroke-width:1.0;" x1="319.2974" x2="361.2974" y1="276.4063" y2="276.4063"/><line style="stroke:#181818;stroke-width:1.0;" x1="361.2974" x2="361.2974" y1="276.4063" y2="289.4063"/><line style="stroke:#181818;stroke-width:1.0;" x1="320.2974" x2="361.2974" y1="289.4063" y2="289.4063"/><polygon fill="#181818" points="330.2974,285.4063,320.2974,289.4063,330.2974,293.4063,326.2974,289.4063" style="stroke:#181818;stroke-width:1.0;"/><text fill="#000000" font-family="sans-serif" font-size="13" font-weight="bold" lengthAdjust="spacing" textLength="7.23" x="326.2974" y="271.1436">4</text><text fill="#000000" font-family="sans-serif" font-size="13" lengthAdjust="spacing" textLength="129.3335" x="337.5273" y="271.1436">checkIfSelfOperation()</text><path d="M10,304.4063 L70.1709,304.4063 L70.1709,313.6973 L60.1709,323.6973 L10,323.6973 L10,304.4063 " fill="#EEEEEE" style="stroke:#000000;stroke-width:1.5;"/><rect fill="none" height="187.0859" style="stroke:#000000;stroke-width:1.5;" width="585.0952" x="10" y="304.4063"/><text fill="#000000" font-family="sans-serif" font-size="13" font-weight="bold" lengthAdjust="spacing" textLength="15.1709" x="25" y="319.4346">alt</text><text fill="#000000" font-family="sans-serif" font-size="11" font-weight="bold" lengthAdjust="spacing" textLength="129.5884" x="85.1709" y="318.2764">[user exists and not self]</text><line style="stroke:#181818;stroke-width:1.0;" x1="319.2974" x2="361.2974" y1="346.9883" y2="346.9883"/><line style="stroke:#181818;stroke-width:1.0;" x1="361.2974" x2="361.2974" y1="346.9883" y2="359.9883"/><line style="stroke:#181818;stroke-width:1.0;" x1="320.2974" x2="361.2974" y1="359.9883" y2="359.9883"/><polygon fill="#181818" points="330.2974,355.9883,320.2974,359.9883,330.2974,363.9883,326.2974,359.9883" style="stroke:#181818;stroke-width:1.0;"/><text fill="#000000" font-family="sans-serif" font-size="13" font-weight="bold" lengthAdjust="spacing" textLength="7.23" x="326.2974" y="341.7256">5</text><text fill="#000000" font-family="sans-serif" font-size="13" lengthAdjust="spacing" textLength="235.5679" x="337.5273" y="341.7256">updateUserStatus(userId, desiredStatus)</text><line style="stroke:#181818;stroke-width:1.0;" x1="319.2974" x2="361.2974" y1="391.2793" y2="391.2793"/><line style="stroke:#181818;stroke-width:1.0;" x1="361.2974" x2="361.2974" y1="391.2793" y2="404.2793"/><line style="stroke:#181818;stroke-width:1.0;" x1="320.2974" x2="361.2974" y1="404.2793" y2="404.2793"/><polygon fill="#181818" points="330.2974,400.2793,320.2974,404.2793,330.2974,408.2793,326.2974,404.2793" style="stroke:#181818;stroke-width:1.0;"/><text fill="#000000" font-family="sans-serif" font-size="13" font-weight="bold" lengthAdjust="spacing" textLength="7.23" x="326.2974" y="386.0166">6</text><text fill="#000000" font-family="sans-serif" font-size="13" lengthAdjust="spacing" textLength="156.7871" x="337.5273" y="386.0166">persistUserStatusChange()</text><polygon fill="#181818" points="58.8413,431.5703,48.8413,435.5703,58.8413,439.5703,54.8413,435.5703" style="stroke:#181818;stroke-width:1.0;"/><line style="stroke:#181818;stroke-width:1.0;stroke-dasharray:2.0,2.0;" x1="52.8413" x2="308.2974" y1="435.5703" y2="435.5703"/><text fill="#000000" font-family="sans-serif" font-size="13" font-weight="bold" lengthAdjust="spacing" textLength="7.23" x="64.8413" y="430.3076">7</text><text fill="#000000" font-family="sans-serif" font-size="13" lengthAdjust="spacing" textLength="142.3589" x="76.0713" y="430.3076">status update successful</text><line style="stroke:#000000;stroke-width:1.0;stroke-dasharray:2.0,2.0;" x1="10" x2="595.0952" y1="444.5703" y2="444.5703"/><text fill="#000000" font-family="sans-serif" font-size="11" font-weight="bold" lengthAdjust="spacing" textLength="269.5161" x="15" y="456.4404">[error (e.g., user not found or trying to disable self)]</text><polygon fill="#181818" points="58.8413,479.4922,48.8413,483.4922,58.8413,487.4922,54.8413,483.4922" style="stroke:#181818;stroke-width:1.0;"/><line style="stroke:#181818;stroke-width:1.0;stroke-dasharray:2.0,2.0;" x1="52.8413" x2="308.2974" y1="483.4922" y2="483.4922"/><text fill="#000000" font-family="sans-serif" font-size="13" font-weight="bold" lengthAdjust="spacing" textLength="7.23" x="64.8413" y="478.2295">8</text><text fill="#000000" font-family="sans-serif" font-size="13" lengthAdjust="spacing" textLength="164.7661" x="76.0713" y="478.2295">status update failed (reason)</text><!--SRC=[bLBDJkGm3BxtAQmvTIHW1SSv8C7E7kQqArKyW4dSDfeswSOEqBV7JKiP2HX1Bh6IxyTVOZuwFs347lhWWsbZw0aa9YfulHdG7B6XIiQE898Hz4rt2k0MRNXsle4QEwQY42SAhKOMwg6Y_ucy8TWxR2PuMLNxBLp2GtLpVQFxtZ4-TlJhZvysU62AHO59Wa_zOwwDX0YREzixlm5ao5MXvkAC6z0BR7QpMxwUoynpJoYqu0lGbKkul7thRWSI6eqpkLQ2ahXCMXxi1LXY5ydEfzlCNXNVB61PYzgfxXD5Lu_Pxn_5tZ6xuBdSdkFK9AQTMhaV3tPfv2p1j6IEXxgYhluxK4HH3xLOATW9J390Buw50Rq57mHO2Ile2-qqM8twlOSv8wDjiNg_w_nkTO2e_9oepFcBTi0PlRG1d8mXvZfrAuzqs81YrE4ewQgvkfYZJldga3IfNaWSfy6K07OUinpzXzurkeuib96GWtydaxVpKrlwC1adHrdq5G00]--></g></svg>