<svg xmlns="http://www.w3.org/2000/svg" xmlns:xlink="http://www.w3.org/1999/xlink" contentStyleType="text/css" height="1135px" preserveAspectRatio="none" style="width:995px;height:1135px;background:#FFFFFF;" version="1.1" viewBox="0 0 995 1135" width="995px" zoomAndPan="magnify"><title>System Sequence Diagram (SSD) - Create Drone Model</title><defs/><g><text fill="#000000" font-family="sans-serif" font-size="14" font-weight="bold" lengthAdjust="spacing" textLength="366.4336" x="315.5264" y="30.1074">System Sequence Diagram (SSD) - Create Drone Model</text><rect fill="#FFFFFF" height="909.2461" style="stroke:#181818;stroke-width:1.0;" width="10" x="54.5723" y="133.2422"/><rect fill="#FFFFFF" height="75.582" style="stroke:#181818;stroke-width:1.0;" width="10" x="447.165" y="156.5332"/><rect fill="#FFFFFF" height="75.582" style="stroke:#181818;stroke-width:1.0;" width="10" x="447.165" y="263.4063"/><rect fill="#FFFFFF" height="240.377" style="stroke:#181818;stroke-width:1.0;" width="10" x="447.165" y="370.2793"/><rect fill="#FFFFFF" height="75.582" style="stroke:#181818;stroke-width:1.0;" width="10" x="452.165" y="472.1523"/><rect fill="#FFFFFF" height="408.541" style="stroke:#181818;stroke-width:1.0;" width="10" x="447.165" y="633.9473"/><rect fill="#FFFFFF" height="332.959" style="stroke:#181818;stroke-width:1.0;" width="10" x="452.165" y="709.5293"/><rect fill="none" height="174.0859" style="stroke:#000000;stroke-width:1.5;" width="623.1167" x="10" y="429.5703"/><rect fill="none" height="266.668" style="stroke:#000000;stroke-width:1.5;" width="978.4863" x="10" y="768.8203"/><rect fill="none" height="109.873" style="stroke:#000000;stroke-width:1.5;" width="568.604" x="409.8823" y="843.0332"/><line style="stroke:#181818;stroke-width:0.5;stroke-dasharray:5.0,5.0;" x1="59" x2="59" y1="123.2422" y2="1052.4883"/><line style="stroke:#181818;stroke-width:0.5;stroke-dasharray:5.0,5.0;" x1="451.8823" x2="451.8823" y1="123.2422" y2="1052.4883"/><text fill="#000000" font-family="sans-serif" font-size="14" lengthAdjust="spacing" textLength="73.1445" x="20" y="119.7285">Drone Tech</text><ellipse cx="59.5723" cy="53.1211" fill="#E3E3E3" rx="8" ry="8" style="stroke:#181818;stroke-width:0.5;"/><path d="M59.5723,61.1211 L59.5723,88.1211 M46.5723,69.1211 L72.5723,69.1211 M59.5723,88.1211 L46.5723,103.1211 M59.5723,88.1211 L72.5723,103.1211 " fill="none" style="stroke:#181818;stroke-width:0.5;"/><text fill="#000000" font-family="sans-serif" font-size="14" lengthAdjust="spacing" textLength="73.1445" x="20" y="1066.5957">Drone Tech</text><ellipse cx="59.5723" cy="1078.6094" fill="#E3E3E3" rx="8" ry="8" style="stroke:#181818;stroke-width:0.5;"/><path d="M59.5723,1086.6094 L59.5723,1113.6094 M46.5723,1094.6094 L72.5723,1094.6094 M59.5723,1113.6094 L46.5723,1128.6094 M59.5723,1113.6094 L72.5723,1128.6094 " fill="none" style="stroke:#181818;stroke-width:0.5;"/><rect fill="#E3E3E3" height="32.6211" rx="2.5" ry="2.5" style="stroke:#181818;stroke-width:0.5;" width="64.5654" x="419.8823" y="89.6211"/><text fill="#000000" font-family="sans-serif" font-size="14" lengthAdjust="spacing" textLength="50.5654" x="426.8823" y="111.7285">:System</text><rect fill="#E3E3E3" height="32.6211" rx="2.5" ry="2.5" style="stroke:#181818;stroke-width:0.5;" width="64.5654" x="419.8823" y="1051.4883"/><text fill="#000000" font-family="sans-serif" font-size="14" lengthAdjust="spacing" textLength="50.5654" x="426.8823" y="1073.5957">:System</text><rect fill="#FFFFFF" height="909.2461" style="stroke:#181818;stroke-width:1.0;" width="10" x="54.5723" y="133.2422"/><rect fill="#FFFFFF" height="75.582" style="stroke:#181818;stroke-width:1.0;" width="10" x="447.165" y="156.5332"/><rect fill="#FFFFFF" height="75.582" style="stroke:#181818;stroke-width:1.0;" width="10" x="447.165" y="263.4063"/><rect fill="#FFFFFF" height="240.377" style="stroke:#181818;stroke-width:1.0;" width="10" x="447.165" y="370.2793"/><rect fill="#FFFFFF" height="75.582" style="stroke:#181818;stroke-width:1.0;" width="10" x="452.165" y="472.1523"/><rect fill="#FFFFFF" height="408.541" style="stroke:#181818;stroke-width:1.0;" width="10" x="447.165" y="633.9473"/><rect fill="#FFFFFF" height="332.959" style="stroke:#181818;stroke-width:1.0;" width="10" x="452.165" y="709.5293"/><polygon fill="#181818" points="435.165,152.5332,445.165,156.5332,435.165,160.5332,439.165,156.5332" style="stroke:#181818;stroke-width:1.0;"/><line style="stroke:#181818;stroke-width:1.0;" x1="64.5723" x2="441.165" y1="156.5332" y2="156.5332"/><text fill="#000000" font-family="sans-serif" font-size="13" font-weight="bold" lengthAdjust="spacing" textLength="7.23" x="71.5723" y="151.2705">1</text><text fill="#000000" font-family="sans-serif" font-size="13" lengthAdjust="spacing" textLength="99.7026" x="82.8022" y="151.2705">provideModelID()</text><line style="stroke:#181818;stroke-width:1.0;" x1="457.165" x2="499.165" y1="187.8242" y2="187.8242"/><line style="stroke:#181818;stroke-width:1.0;" x1="499.165" x2="499.165" y1="187.8242" y2="200.8242"/><line style="stroke:#181818;stroke-width:1.0;" x1="458.165" x2="499.165" y1="200.8242" y2="200.8242"/><polygon fill="#181818" points="468.165,196.8242,458.165,200.8242,468.165,204.8242,464.165,200.8242" style="stroke:#181818;stroke-width:1.0;"/><text fill="#000000" font-family="sans-serif" font-size="13" font-weight="bold" lengthAdjust="spacing" textLength="7.23" x="464.165" y="182.5615">2</text><text fill="#000000" font-family="sans-serif" font-size="13" lengthAdjust="spacing" textLength="101.8735" x="475.395" y="182.5615">validateModelID()</text><polygon fill="#181818" points="75.5723,228.1152,65.5723,232.1152,75.5723,236.1152,71.5723,232.1152" style="stroke:#181818;stroke-width:1.0;"/><line style="stroke:#181818;stroke-width:1.0;stroke-dasharray:2.0,2.0;" x1="69.5723" x2="451.165" y1="232.1152" y2="232.1152"/><text fill="#000000" font-family="sans-serif" font-size="13" font-weight="bold" lengthAdjust="spacing" textLength="7.23" x="81.5723" y="226.8525">3</text><text fill="#000000" font-family="sans-serif" font-size="13" lengthAdjust="spacing" textLength="124.2617" x="92.8022" y="226.8525">promptForNextInput()</text><polygon fill="#181818" points="435.165,259.4063,445.165,263.4063,435.165,267.4063,439.165,263.4063" style="stroke:#181818;stroke-width:1.0;"/><line style="stroke:#181818;stroke-width:1.0;" x1="64.5723" x2="441.165" y1="263.4063" y2="263.4063"/><text fill="#000000" font-family="sans-serif" font-size="13" font-weight="bold" lengthAdjust="spacing" textLength="7.23" x="71.5723" y="258.1436">4</text><text fill="#000000" font-family="sans-serif" font-size="13" lengthAdjust="spacing" textLength="85.9727" x="82.8022" y="258.1436">provideName()</text><line style="stroke:#181818;stroke-width:1.0;" x1="457.165" x2="499.165" y1="294.6973" y2="294.6973"/><line style="stroke:#181818;stroke-width:1.0;" x1="499.165" x2="499.165" y1="294.6973" y2="307.6973"/><line style="stroke:#181818;stroke-width:1.0;" x1="458.165" x2="499.165" y1="307.6973" y2="307.6973"/><polygon fill="#181818" points="468.165,303.6973,458.165,307.6973,468.165,311.6973,464.165,307.6973" style="stroke:#181818;stroke-width:1.0;"/><text fill="#000000" font-family="sans-serif" font-size="13" font-weight="bold" lengthAdjust="spacing" textLength="7.23" x="464.165" y="289.4346">5</text><text fill="#000000" font-family="sans-serif" font-size="13" lengthAdjust="spacing" textLength="88.1436" x="475.395" y="289.4346">validateName()</text><polygon fill="#181818" points="75.5723,334.9883,65.5723,338.9883,75.5723,342.9883,71.5723,338.9883" style="stroke:#181818;stroke-width:1.0;"/><line style="stroke:#181818;stroke-width:1.0;stroke-dasharray:2.0,2.0;" x1="69.5723" x2="451.165" y1="338.9883" y2="338.9883"/><text fill="#000000" font-family="sans-serif" font-size="13" font-weight="bold" lengthAdjust="spacing" textLength="7.23" x="81.5723" y="333.7256">6</text><text fill="#000000" font-family="sans-serif" font-size="13" lengthAdjust="spacing" textLength="124.2617" x="92.8022" y="333.7256">promptForNextInput()</text><polygon fill="#181818" points="435.165,366.2793,445.165,370.2793,435.165,374.2793,439.165,370.2793" style="stroke:#181818;stroke-width:1.0;"/><line style="stroke:#181818;stroke-width:1.0;" x1="64.5723" x2="441.165" y1="370.2793" y2="370.2793"/><text fill="#000000" font-family="sans-serif" font-size="13" font-weight="bold" lengthAdjust="spacing" textLength="7.23" x="71.5723" y="365.0166">7</text><text fill="#000000" font-family="sans-serif" font-size="13" lengthAdjust="spacing" textLength="139.439" x="82.8022" y="365.0166">provideHasDescription()</text><line style="stroke:#181818;stroke-width:1.0;" x1="457.165" x2="499.165" y1="401.5703" y2="401.5703"/><line style="stroke:#181818;stroke-width:1.0;" x1="499.165" x2="499.165" y1="401.5703" y2="414.5703"/><line style="stroke:#181818;stroke-width:1.0;" x1="458.165" x2="499.165" y1="414.5703" y2="414.5703"/><polygon fill="#181818" points="468.165,410.5703,458.165,414.5703,468.165,418.5703,464.165,414.5703" style="stroke:#181818;stroke-width:1.0;"/><text fill="#000000" font-family="sans-serif" font-size="13" font-weight="bold" lengthAdjust="spacing" textLength="7.23" x="464.165" y="396.3076">8</text><text fill="#000000" font-family="sans-serif" font-size="13" lengthAdjust="spacing" textLength="142.3208" x="475.395" y="396.3076">processHasDescription()</text><path d="M10,429.5703 L70.1709,429.5703 L70.1709,438.8613 L60.1709,448.8613 L10,448.8613 L10,429.5703 " fill="#EEEEEE" style="stroke:#000000;stroke-width:1.5;"/><rect fill="none" height="174.0859" style="stroke:#000000;stroke-width:1.5;" width="623.1167" x="10" y="429.5703"/><text fill="#000000" font-family="sans-serif" font-size="13" font-weight="bold" lengthAdjust="spacing" textLength="15.1709" x="25" y="444.5986">alt</text><text fill="#000000" font-family="sans-serif" font-size="11" font-weight="bold" lengthAdjust="spacing" textLength="122.8584" x="85.1709" y="443.4404">[hasDescription is true]</text><polygon fill="#181818" points="440.165,468.1523,450.165,472.1523,440.165,476.1523,444.165,472.1523" style="stroke:#181818;stroke-width:1.0;"/><line style="stroke:#181818;stroke-width:1.0;" x1="64.5723" x2="446.165" y1="472.1523" y2="472.1523"/><text fill="#000000" font-family="sans-serif" font-size="13" font-weight="bold" lengthAdjust="spacing" textLength="7.23" x="71.5723" y="466.8896">9</text><text fill="#000000" font-family="sans-serif" font-size="13" lengthAdjust="spacing" textLength="116.3208" x="82.8022" y="466.8896">provideDescription()</text><line style="stroke:#181818;stroke-width:1.0;" x1="462.165" x2="504.165" y1="503.4434" y2="503.4434"/><line style="stroke:#181818;stroke-width:1.0;" x1="504.165" x2="504.165" y1="503.4434" y2="516.4434"/><line style="stroke:#181818;stroke-width:1.0;" x1="463.165" x2="504.165" y1="516.4434" y2="516.4434"/><polygon fill="#181818" points="473.165,512.4434,463.165,516.4434,473.165,520.4434,469.165,516.4434" style="stroke:#181818;stroke-width:1.0;"/><text fill="#000000" font-family="sans-serif" font-size="13" font-weight="bold" lengthAdjust="spacing" textLength="14.46" x="469.165" y="498.1807">10</text><text fill="#000000" font-family="sans-serif" font-size="13" lengthAdjust="spacing" textLength="118.4917" x="487.625" y="498.1807">validateDescription()</text><polygon fill="#181818" points="75.5723,543.7344,65.5723,547.7344,75.5723,551.7344,71.5723,547.7344" style="stroke:#181818;stroke-width:1.0;"/><line style="stroke:#181818;stroke-width:1.0;stroke-dasharray:2.0,2.0;" x1="69.5723" x2="446.165" y1="547.7344" y2="547.7344"/><text fill="#000000" font-family="sans-serif" font-size="13" font-weight="bold" lengthAdjust="spacing" textLength="14.46" x="81.5723" y="542.4717">11</text><text fill="#000000" font-family="sans-serif" font-size="13" lengthAdjust="spacing" textLength="124.2617" x="100.0322" y="542.4717">promptForNextInput()</text><line style="stroke:#000000;stroke-width:1.0;stroke-dasharray:2.0,2.0;" x1="10" x2="633.1167" y1="556.7344" y2="556.7344"/><text fill="#000000" font-family="sans-serif" font-size="11" font-weight="bold" lengthAdjust="spacing" textLength="127.1499" x="15" y="568.6045">[hasDescription is false]</text><polygon fill="#181818" points="75.5723,591.6563,65.5723,595.6563,75.5723,599.6563,71.5723,595.6563" style="stroke:#181818;stroke-width:1.0;"/><line style="stroke:#181818;stroke-width:1.0;stroke-dasharray:2.0,2.0;" x1="69.5723" x2="446.165" y1="595.6563" y2="595.6563"/><text fill="#000000" font-family="sans-serif" font-size="13" font-weight="bold" lengthAdjust="spacing" textLength="14.46" x="81.5723" y="590.3936">12</text><text fill="#000000" font-family="sans-serif" font-size="13" lengthAdjust="spacing" textLength="124.2617" x="100.0322" y="590.3936">promptForNextInput()</text><polygon fill="#181818" points="435.165,629.9473,445.165,633.9473,435.165,637.9473,439.165,633.9473" style="stroke:#181818;stroke-width:1.0;"/><line style="stroke:#181818;stroke-width:1.0;" x1="64.5723" x2="441.165" y1="633.9473" y2="633.9473"/><text fill="#000000" font-family="sans-serif" font-size="13" font-weight="bold" lengthAdjust="spacing" textLength="14.46" x="71.5723" y="628.6846">13</text><text fill="#000000" font-family="sans-serif" font-size="13" lengthAdjust="spacing" textLength="143.0635" x="90.0322" y="628.6846">provideMaxWindSpeed()</text><line style="stroke:#181818;stroke-width:1.0;" x1="457.165" x2="499.165" y1="665.2383" y2="665.2383"/><line style="stroke:#181818;stroke-width:1.0;" x1="499.165" x2="499.165" y1="665.2383" y2="678.2383"/><line style="stroke:#181818;stroke-width:1.0;" x1="458.165" x2="499.165" y1="678.2383" y2="678.2383"/><polygon fill="#181818" points="468.165,674.2383,458.165,678.2383,468.165,682.2383,464.165,678.2383" style="stroke:#181818;stroke-width:1.0;"/><text fill="#000000" font-family="sans-serif" font-size="13" font-weight="bold" lengthAdjust="spacing" textLength="14.46" x="464.165" y="659.9756">14</text><text fill="#000000" font-family="sans-serif" font-size="13" lengthAdjust="spacing" textLength="145.2344" x="482.625" y="659.9756">validateMaxWindSpeed()</text><polygon fill="#181818" points="75.5723,705.5293,65.5723,709.5293,75.5723,713.5293,71.5723,709.5293" style="stroke:#181818;stroke-width:1.0;"/><line style="stroke:#181818;stroke-width:1.0;stroke-dasharray:2.0,2.0;" x1="69.5723" x2="451.165" y1="709.5293" y2="709.5293"/><text fill="#000000" font-family="sans-serif" font-size="13" font-weight="bold" lengthAdjust="spacing" textLength="14.46" x="81.5723" y="704.2666">15</text><text fill="#000000" font-family="sans-serif" font-size="13" lengthAdjust="spacing" textLength="103.3145" x="100.0322" y="704.2666">processCreation()</text><line style="stroke:#181818;stroke-width:1.0;" x1="462.165" x2="504.165" y1="740.8203" y2="740.8203"/><line style="stroke:#181818;stroke-width:1.0;" x1="504.165" x2="504.165" y1="740.8203" y2="753.8203"/><line style="stroke:#181818;stroke-width:1.0;" x1="463.165" x2="504.165" y1="753.8203" y2="753.8203"/><polygon fill="#181818" points="473.165,749.8203,463.165,753.8203,473.165,757.8203,469.165,753.8203" style="stroke:#181818;stroke-width:1.0;"/><text fill="#000000" font-family="sans-serif" font-size="13" font-weight="bold" lengthAdjust="spacing" textLength="14.46" x="469.165" y="735.5576">16</text><text fill="#000000" font-family="sans-serif" font-size="13" lengthAdjust="spacing" textLength="159.6816" x="487.625" y="735.5576">checkModelIDUniqueness()</text><path d="M10,768.8203 L70.1709,768.8203 L70.1709,778.1113 L60.1709,788.1113 L10,788.1113 L10,768.8203 " fill="#EEEEEE" style="stroke:#000000;stroke-width:1.5;"/><rect fill="none" height="266.668" style="stroke:#000000;stroke-width:1.5;" width="978.4863" x="10" y="768.8203"/><text fill="#000000" font-family="sans-serif" font-size="13" font-weight="bold" lengthAdjust="spacing" textLength="15.1709" x="25" y="783.8486">alt</text><text fill="#000000" font-family="sans-serif" font-size="11" font-weight="bold" lengthAdjust="spacing" textLength="125.9307" x="85.1709" y="782.6904">[ModelID already exists]</text><polygon fill="#181818" points="75.5723,807.4023,65.5723,811.4023,75.5723,815.4023,71.5723,811.4023" style="stroke:#181818;stroke-width:1.0;"/><line style="stroke:#181818;stroke-width:1.0;stroke-dasharray:2.0,2.0;" x1="69.5723" x2="451.165" y1="811.4023" y2="811.4023"/><text fill="#000000" font-family="sans-serif" font-size="13" font-weight="bold" lengthAdjust="spacing" textLength="14.46" x="81.5723" y="806.1396">17</text><text fill="#000000" font-family="sans-serif" font-size="13" lengthAdjust="spacing" textLength="340.1328" x="100.0322" y="806.1396">errorMessage("A Drone Model with that ID already exists!")</text><line style="stroke:#000000;stroke-width:1.0;stroke-dasharray:2.0,2.0;" x1="10" x2="988.4863" y1="820.4023" y2="820.4023"/><text fill="#000000" font-family="sans-serif" font-size="11" font-weight="bold" lengthAdjust="spacing" textLength="101.4385" x="15" y="832.2725">[ModelID is unique]</text><path d="M409.8823,843.0332 L470.0532,843.0332 L470.0532,852.3242 L460.0532,862.3242 L409.8823,862.3242 L409.8823,843.0332 " fill="#EEEEEE" style="stroke:#000000;stroke-width:1.5;"/><rect fill="none" height="109.873" style="stroke:#000000;stroke-width:1.5;" width="568.604" x="409.8823" y="843.0332"/><text fill="#000000" font-family="sans-serif" font-size="13" font-weight="bold" lengthAdjust="spacing" textLength="15.1709" x="424.8823" y="858.0615">alt</text><text fill="#000000" font-family="sans-serif" font-size="11" font-weight="bold" lengthAdjust="spacing" textLength="122.8584" x="485.0532" y="856.9033">[hasDescription is true]</text><line style="stroke:#181818;stroke-width:1.0;" x1="462.165" x2="504.165" y1="885.6152" y2="885.6152"/><line style="stroke:#181818;stroke-width:1.0;" x1="504.165" x2="504.165" y1="885.6152" y2="898.6152"/><line style="stroke:#181818;stroke-width:1.0;" x1="463.165" x2="504.165" y1="898.6152" y2="898.6152"/><polygon fill="#181818" points="473.165,894.6152,463.165,898.6152,473.165,902.6152,469.165,898.6152" style="stroke:#181818;stroke-width:1.0;"/><text fill="#000000" font-family="sans-serif" font-size="13" font-weight="bold" lengthAdjust="spacing" textLength="14.46" x="469.165" y="880.3525">18</text><text fill="#000000" font-family="sans-serif" font-size="13" lengthAdjust="spacing" textLength="463.8613" x="487.625" y="880.3525">createDroneModelWithDescription(modelID, name, description, maxWindSpeed)</text><line style="stroke:#000000;stroke-width:1.0;stroke-dasharray:2.0,2.0;" x1="409.8823" x2="978.4863" y1="907.6152" y2="907.6152"/><line style="stroke:#181818;stroke-width:1.0;" x1="462.165" x2="504.165" y1="931.9063" y2="931.9063"/><line style="stroke:#181818;stroke-width:1.0;" x1="504.165" x2="504.165" y1="931.9063" y2="944.9063"/><line style="stroke:#181818;stroke-width:1.0;" x1="463.165" x2="504.165" y1="944.9063" y2="944.9063"/><polygon fill="#181818" points="473.165,940.9063,463.165,944.9063,473.165,948.9063,469.165,944.9063" style="stroke:#181818;stroke-width:1.0;"/><text fill="#000000" font-family="sans-serif" font-size="13" font-weight="bold" lengthAdjust="spacing" textLength="14.46" x="469.165" y="926.6436">19</text><text fill="#000000" font-family="sans-serif" font-size="13" lengthAdjust="spacing" textLength="384.3887" x="487.625" y="926.6436">createDroneModelNoDescription(modelID, name, maxWindSpeed)</text><line style="stroke:#181818;stroke-width:1.0;" x1="462.165" x2="504.165" y1="983.1973" y2="983.1973"/><line style="stroke:#181818;stroke-width:1.0;" x1="504.165" x2="504.165" y1="983.1973" y2="996.1973"/><line style="stroke:#181818;stroke-width:1.0;" x1="463.165" x2="504.165" y1="996.1973" y2="996.1973"/><polygon fill="#181818" points="473.165,992.1973,463.165,996.1973,473.165,1000.1973,469.165,996.1973" style="stroke:#181818;stroke-width:1.0;"/><text fill="#000000" font-family="sans-serif" font-size="13" font-weight="bold" lengthAdjust="spacing" textLength="14.46" x="469.165" y="977.9346">20</text><text fill="#000000" font-family="sans-serif" font-size="13" lengthAdjust="spacing" textLength="106.9326" x="487.625" y="977.9346">saveDroneModel()</text><polygon fill="#181818" points="75.5723,1023.4883,65.5723,1027.4883,75.5723,1031.4883,71.5723,1027.4883" style="stroke:#181818;stroke-width:1.0;"/><line style="stroke:#181818;stroke-width:1.0;stroke-dasharray:2.0,2.0;" x1="69.5723" x2="451.165" y1="1027.4883" y2="1027.4883"/><text fill="#000000" font-family="sans-serif" font-size="13" font-weight="bold" lengthAdjust="spacing" textLength="14.46" x="81.5723" y="1022.2256">21</text><text fill="#000000" font-family="sans-serif" font-size="13" lengthAdjust="spacing" textLength="316.2974" x="100.0322" y="1022.2256">successMessage("Drone Model created successfully!")</text><!--SRC=[hLH1Rjim4Bph5LkTRC3vG0u5WWf1Sx0lKf4pIsuimXAfaYl7_drMfEp84HCeG7qITcTdriCX_K6RJZZHGckDbRMpBGAv7ZD_xNH27iGUIpet20ub2RDlfW1V2sLVjTd3YsWyPXbfOcXvzeGjbFYlHoCH2Yts0tnLbiKQxk2NGq5STjOWRAt29ij4JzRqxLzq_2t9EiXZlq9Pvo0y55N6ggIbxeGXoE-ZJEZ5pp2fZu6xohAYWhkVO-iUEcUFMc6GUofMwtViE3nkFHavYaOhHhpFN30CAgh0sNRqQDqEJ_HakfuOe_0ZStgJdMZnMskC0_zpXz_25-YbqnrfQnPjmvCIlPzFDWJrJH6qZua2_YNbRna6s4VzeVQv8_Fv9UOCkBb1o05E_84OxANKQDHYxxVYzAoDAZj4zRqutWxEznhE9zonfMSgQvI7CUL_Z1wkBLECXphMGJHCgSw09-t9fon1vwpRyYG_6glyONh1uLLJ3LGBWXdLZtmTtRyeiUrzs296ukjWfHCYmnCJ5WYipom_JKiRfJPW-59jE0xNrWRQYRynBNZ9m3AndVr2Ai7EeKaJUt6SqAOZxdivdFVLzgdfSJ5rmRpqJNCERYTZcWZkfCGlwXi0]--></g></svg>