<svg xmlns="http://www.w3.org/2000/svg" xmlns:xlink="http://www.w3.org/1999/xlink" contentStyleType="text/css" height="547px" preserveAspectRatio="none" style="width:867px;height:547px;background:#FFFFFF;" version="1.1" viewBox="0 0 867 547" width="867px" zoomAndPan="magnify"><title>System Sequence Diagram (SSD) - Drone Model Creation</title><defs/><g><text fill="#000000" font-family="sans-serif" font-size="14" font-weight="bold" lengthAdjust="spacing" textLength="379.6406" x="244.7615" y="30.1074">System Sequence Diagram (SSD) - Drone Model Creation</text><rect fill="#FFFFFF" height="320.959" style="stroke:#181818;stroke-width:1.0;" width="10" x="54.5723" y="133.2422"/><rect fill="#FFFFFF" height="297.668" style="stroke:#181818;stroke-width:1.0;" width="10" x="534.6357" y="156.5332"/><rect fill="none" height="142.7949" style="stroke:#000000;stroke-width:1.5;" width="850.1636" x="10" y="304.4063"/><line style="stroke:#181818;stroke-width:0.5;stroke-dasharray:5.0,5.0;" x1="59" x2="59" y1="123.2422" y2="464.2012"/><line style="stroke:#181818;stroke-width:0.5;stroke-dasharray:5.0,5.0;" x1="539.353" x2="539.353" y1="123.2422" y2="464.2012"/><text fill="#000000" font-family="sans-serif" font-size="14" lengthAdjust="spacing" textLength="73.1445" x="20" y="119.7285">Drone Tech</text><ellipse cx="59.5723" cy="53.1211" fill="#E3E3E3" rx="8" ry="8" style="stroke:#181818;stroke-width:0.5;"/><path d="M59.5723,61.1211 L59.5723,88.1211 M46.5723,69.1211 L72.5723,69.1211 M59.5723,88.1211 L46.5723,103.1211 M59.5723,88.1211 L72.5723,103.1211 " fill="none" style="stroke:#181818;stroke-width:0.5;"/><text fill="#000000" font-family="sans-serif" font-size="14" lengthAdjust="spacing" textLength="73.1445" x="20" y="478.3086">Drone Tech</text><ellipse cx="59.5723" cy="490.3223" fill="#E3E3E3" rx="8" ry="8" style="stroke:#181818;stroke-width:0.5;"/><path d="M59.5723,498.3223 L59.5723,525.3223 M46.5723,506.3223 L72.5723,506.3223 M59.5723,525.3223 L46.5723,540.3223 M59.5723,525.3223 L72.5723,540.3223 " fill="none" style="stroke:#181818;stroke-width:0.5;"/><rect fill="#E3E3E3" height="32.6211" rx="2.5" ry="2.5" style="stroke:#181818;stroke-width:0.5;" width="64.5654" x="507.353" y="89.6211"/><text fill="#000000" font-family="sans-serif" font-size="14" lengthAdjust="spacing" textLength="50.5654" x="514.353" y="111.7285">:System</text><rect fill="#E3E3E3" height="32.6211" rx="2.5" ry="2.5" style="stroke:#181818;stroke-width:0.5;" width="64.5654" x="507.353" y="463.2012"/><text fill="#000000" font-family="sans-serif" font-size="14" lengthAdjust="spacing" textLength="50.5654" x="514.353" y="485.3086">:System</text><rect fill="#FFFFFF" height="320.959" style="stroke:#181818;stroke-width:1.0;" width="10" x="54.5723" y="133.2422"/><rect fill="#FFFFFF" height="297.668" style="stroke:#181818;stroke-width:1.0;" width="10" x="534.6357" y="156.5332"/><polygon fill="#181818" points="522.6357,152.5332,532.6357,156.5332,522.6357,160.5332,526.6357,156.5332" style="stroke:#181818;stroke-width:1.0;"/><line style="stroke:#181818;stroke-width:1.0;" x1="64.5723" x2="528.6357" y1="156.5332" y2="156.5332"/><text fill="#000000" font-family="sans-serif" font-size="13" font-weight="bold" lengthAdjust="spacing" textLength="7.23" x="71.5723" y="151.2705">1</text><text fill="#000000" font-family="sans-serif" font-size="13" lengthAdjust="spacing" textLength="330.2178" x="82.8022" y="151.2705">requestCreateDroneModel(identifier, windToleranceData)</text><line style="stroke:#181818;stroke-width:1.0;" x1="544.6357" x2="586.6357" y1="187.8242" y2="187.8242"/><line style="stroke:#181818;stroke-width:1.0;" x1="586.6357" x2="586.6357" y1="187.8242" y2="200.8242"/><line style="stroke:#181818;stroke-width:1.0;" x1="545.6357" x2="586.6357" y1="200.8242" y2="200.8242"/><polygon fill="#181818" points="555.6357,196.8242,545.6357,200.8242,555.6357,204.8242,551.6357,200.8242" style="stroke:#181818;stroke-width:1.0;"/><text fill="#000000" font-family="sans-serif" font-size="13" font-weight="bold" lengthAdjust="spacing" textLength="7.23" x="551.6357" y="182.5615">2</text><text fill="#000000" font-family="sans-serif" font-size="13" lengthAdjust="spacing" textLength="152.4644" x="562.8657" y="182.5615">validateIdentifier(identifier)</text><line style="stroke:#181818;stroke-width:1.0;" x1="544.6357" x2="586.6357" y1="232.1152" y2="232.1152"/><line style="stroke:#181818;stroke-width:1.0;" x1="586.6357" x2="586.6357" y1="232.1152" y2="245.1152"/><line style="stroke:#181818;stroke-width:1.0;" x1="545.6357" x2="586.6357" y1="245.1152" y2="245.1152"/><polygon fill="#181818" points="555.6357,241.1152,545.6357,245.1152,555.6357,249.1152,551.6357,245.1152" style="stroke:#181818;stroke-width:1.0;"/><text fill="#000000" font-family="sans-serif" font-size="13" font-weight="bold" lengthAdjust="spacing" textLength="7.23" x="551.6357" y="226.8525">3</text><text fill="#000000" font-family="sans-serif" font-size="13" lengthAdjust="spacing" textLength="210.2725" x="562.8657" y="226.8525">checkIdentifierUniqueness(identifier)</text><line style="stroke:#181818;stroke-width:1.0;" x1="544.6357" x2="586.6357" y1="276.4063" y2="276.4063"/><line style="stroke:#181818;stroke-width:1.0;" x1="586.6357" x2="586.6357" y1="276.4063" y2="289.4063"/><line style="stroke:#181818;stroke-width:1.0;" x1="545.6357" x2="586.6357" y1="289.4063" y2="289.4063"/><polygon fill="#181818" points="555.6357,285.4063,545.6357,289.4063,555.6357,293.4063,551.6357,289.4063" style="stroke:#181818;stroke-width:1.0;"/><text fill="#000000" font-family="sans-serif" font-size="13" font-weight="bold" lengthAdjust="spacing" textLength="7.23" x="551.6357" y="271.1436">4</text><text fill="#000000" font-family="sans-serif" font-size="13" lengthAdjust="spacing" textLength="280.3569" x="562.8657" y="271.1436">validateWindToleranceData(windToleranceData)</text><path d="M10,304.4063 L70.1709,304.4063 L70.1709,313.6973 L60.1709,323.6973 L10,323.6973 L10,304.4063 " fill="#EEEEEE" style="stroke:#000000;stroke-width:1.5;"/><rect fill="none" height="142.7949" style="stroke:#000000;stroke-width:1.5;" width="850.1636" x="10" y="304.4063"/><text fill="#000000" font-family="sans-serif" font-size="13" font-weight="bold" lengthAdjust="spacing" textLength="15.1709" x="25" y="319.4346">alt</text><text fill="#000000" font-family="sans-serif" font-size="11" font-weight="bold" lengthAdjust="spacing" textLength="306.8291" x="85.1709" y="318.2764">[Identifier invalid, duplicate, or wind tolerance data invalid]</text><polygon fill="#181818" points="75.5723,342.9883,65.5723,346.9883,75.5723,350.9883,71.5723,346.9883" style="stroke:#181818;stroke-width:1.0;"/><line style="stroke:#181818;stroke-width:1.0;stroke-dasharray:2.0,2.0;" x1="69.5723" x2="533.6357" y1="346.9883" y2="346.9883"/><text fill="#000000" font-family="sans-serif" font-size="13" font-weight="bold" lengthAdjust="spacing" textLength="7.23" x="81.5723" y="341.7256">5</text><text fill="#000000" font-family="sans-serif" font-size="13" lengthAdjust="spacing" textLength="434.8335" x="92.8022" y="341.7256">errorMessage("Invalid or duplicate identifier, or invalid wind tolerance data")</text><line style="stroke:#000000;stroke-width:1.0;stroke-dasharray:2.0,2.0;" x1="10" x2="860.1636" y1="355.9883" y2="355.9883"/><text fill="#000000" font-family="sans-serif" font-size="11" font-weight="bold" lengthAdjust="spacing" textLength="210.2568" x="15" y="367.8584">[Identifier and wind tolerance data valid]</text><line style="stroke:#181818;stroke-width:1.0;" x1="544.6357" x2="586.6357" y1="394.9102" y2="394.9102"/><line style="stroke:#181818;stroke-width:1.0;" x1="586.6357" x2="586.6357" y1="394.9102" y2="407.9102"/><line style="stroke:#181818;stroke-width:1.0;" x1="545.6357" x2="586.6357" y1="407.9102" y2="407.9102"/><polygon fill="#181818" points="555.6357,403.9102,545.6357,407.9102,555.6357,411.9102,551.6357,407.9102" style="stroke:#181818;stroke-width:1.0;"/><text fill="#000000" font-family="sans-serif" font-size="13" font-weight="bold" lengthAdjust="spacing" textLength="7.23" x="551.6357" y="389.6475">6</text><text fill="#000000" font-family="sans-serif" font-size="13" lengthAdjust="spacing" textLength="275.2979" x="562.8657" y="389.6475">saveDroneModel(identifier, windToleranceData)</text><polygon fill="#181818" points="75.5723,435.2012,65.5723,439.2012,75.5723,443.2012,71.5723,439.2012" style="stroke:#181818;stroke-width:1.0;"/><line style="stroke:#181818;stroke-width:1.0;stroke-dasharray:2.0,2.0;" x1="69.5723" x2="533.6357" y1="439.2012" y2="439.2012"/><text fill="#000000" font-family="sans-serif" font-size="13" font-weight="bold" lengthAdjust="spacing" textLength="7.23" x="81.5723" y="433.9385">7</text><text fill="#000000" font-family="sans-serif" font-size="13" lengthAdjust="spacing" textLength="336.5337" x="92.8022" y="433.9385">confirmationMessage("Drone model created successfully")</text><!--SRC=[bLAzReCm4Dxz52Uc8AKlaA5BMJ9aWghprRu4AyPExIDLthw72GIbI5MP4FVztV6bi_KNZDX15tpGRGmT0SUUL9ed5zHdF57DDqSGIJFwari2KeicV5j_WYEwH4gnPO7MjyJKGKrVFNbDK5ay3V1DNLSbl40LWoSu14CEtY8Xs-2Lmfw3xxjFYlAkEKGeHc13kYq04rID4b-ssbxGCnIxqIZFnjVCj5Ta6i2gQk3bzJxQoGQI9t5sf2oT8soi8S_sQ2bkGPOnJN0KKO9No5W-52UB-teBvIiwQmIodvKMekKAGRUapm_qkxV3gIYbFtYJqSTppCrQSCVmy03hCtiBfhyugqLb2tBaWGWyCK7KSO8ga6SA8IcgPWSKOuW7IIh5s1Jx4JZepAgml6UOVTUCYbAHz6QP4lqg4du7UbmbuVKV_tDbAHtyqSOk5t7URInVbrkgSsSCf5vhcHzxvsv3U6-KClJSaCKNQU4F]--></g></svg>