<?xml version="1.0" encoding="UTF-8" standalone="no"?><svg xmlns="http://www.w3.org/2000/svg" xmlns:xlink="http://www.w3.org/1999/xlink" contentScriptType="application/ecmascript" contentStyleType="text/css" height="103px" preserveAspectRatio="none" style="width:200px;height:103px;" version="1.1" viewBox="0 0 200 103" width="200px" zoomAndPan="magnify"><defs><filter height="300%" id="fib3s8gmjuv7q" width="300%" x="-1" y="-1"><feGaussianBlur result="blurOut" stdDeviation="2.0"/><feColorMatrix in="blurOut" result="blurOut2" type="matrix" values="0 0 0 0 0 0 0 0 0 0 0 0 0 0 0 0 0 0 .4 0"/><feOffset dx="4.0" dy="4.0" in="blurOut2" result="blurOut3"/><feBlend in="SourceGraphic" in2="blurOut3" mode="normal"/></filter></defs><g><!--MD5=[a81f25aae082e1b2e456af876e80b600]
class hello2.HelloWorld--><a href="HelloWorld.html" target="_top" title="HelloWorld.html" xlink:actuate="onRequest" xlink:href="HelloWorld.html" xlink:show="new" xlink:title="HelloWorld.html" xlink:type="simple"><rect codeLine="5" fill="#FEFECE" filter="url(#fib3s8gmjuv7q)" height="65.6698" id="hello2.HelloWorld" style="stroke: #A80036; stroke-width: 1.5;" width="127" x="30.5" y="7"/><ellipse cx="54.95" cy="28.344" fill="#ADD1B2" rx="11" ry="11" style="stroke: #A80036; stroke-width: 1.0;"/><path d="M57.9188,33.9846 Q57.3406,34.2815 56.7,34.4221 Q56.0594,34.5783 55.3563,34.5783 Q52.8563,34.5783 51.5281,32.9377 Q50.2156,31.2815 50.2156,28.1565 Q50.2156,25.0315 51.5281,23.3752 Q52.8563,21.719 55.3563,21.719 Q56.0594,21.719 56.7,21.8752 Q57.3563,22.0315 57.9188,22.3283 L57.9188,25.0471 Q57.2938,24.469 56.7,24.2033 Q56.1063,23.9221 55.4813,23.9221 Q54.1375,23.9221 53.45,25.0002 Q52.7625,26.0627 52.7625,28.1565 Q52.7625,30.2502 53.45,31.3283 Q54.1375,32.3908 55.4813,32.3908 Q56.1063,32.3908 56.7,32.1252 Q57.2938,31.844 57.9188,31.2658 L57.9188,33.9846 Z "/><text fill="#000000" font-family="sans-serif" font-size="14" lengthAdjust="spacingAndGlyphs" textLength="74" x="71.05" y="26.9659">HelloWorld</text><text fill="#000000" font-family="sans-serif" font-size="10" lengthAdjust="spacingAndGlyphs" textLength="30" x="93.05" y="41.7579">hello2</text><line style="stroke: #A80036; stroke-width: 1.5;" x1="31.5" x2="156.5" y1="49.6879" y2="49.6879"/><ellipse cx="41.5" cy="60.6879" fill="#84BE84" rx="3" ry="3" style="stroke: #038048; stroke-width: 1.0;"/><text fill="#000000" font-family="sans-serif" font-size="11" lengthAdjust="spacingAndGlyphs" text-decoration="underline" textLength="101" x="50.5" y="65.4468">main(String[]): void</text></a><text fill="#888888" font-family="sans-serif" font-size="10" lengthAdjust="spacingAndGlyphs" textLength="188" x="0" y="90.3598">UMLDoclet 2.0.12, PlantUML 1.2020.16</text><!--MD5=[e01840e4bd66576e1edcdc81f52618aa]
@startuml
    set namespaceSeparator none
    hide empty fields
    hide empty methods

    class "<size:14>HelloWorld\n<size:10>hello2" as hello2.HelloWorld [[HelloWorld.html]] {
        {static} +main(String[]): void
    }

    center footer UMLDoclet 2.0.12, PlantUML 1.2020.16
@enduml

PlantUML version 1.2020.16(Sun Aug 23 21:20:43 WEST 2020)
(APACHE source distribution)
Java Runtime: Java(TM) SE Runtime Environment
JVM: Java HotSpot(TM) 64-Bit Server VM
Default Encoding: UTF-8
Language: en
Country: US
--></g></svg>