<?xml version="1.0" encoding="UTF-8" standalone="no"?><svg xmlns="http://www.w3.org/2000/svg" xmlns:xlink="http://www.w3.org/1999/xlink" contentScriptType="application/ecmascript" contentStyleType="text/css" height="153px" preserveAspectRatio="none" style="width:347px;height:153px;" version="1.1" viewBox="0 0 347 153" width="347px" zoomAndPan="magnify"><defs><filter height="300%" id="f13oodggai1urx" width="300%" x="-1" y="-1"><feGaussianBlur result="blurOut" stdDeviation="2.0"/><feColorMatrix in="blurOut" result="blurOut2" type="matrix" values="0 0 0 0 0 0 0 0 0 0 0 0 0 0 0 0 0 0 .4 0"/><feOffset dx="4.0" dy="4.0" in="blurOut2" result="blurOut3"/><feBlend in="SourceGraphic" in2="blurOut3" mode="normal"/></filter></defs><g><!--MD5=[fc645988c13fda471f34b6ed8bc6fce4]
cluster hello2--><polygon fill="#FFFFFF" filter="url(#f13oodggai1urx)" points="16,6.602,64,6.602,71,31.6699,325,31.6699,325,123.602,16,123.602,16,6.602" style="stroke: #000000; stroke-width: 1.5;"/><line style="stroke: #000000; stroke-width: 1.5;" x1="16" x2="71" y1="31.6699" y2="31.6699"/><text fill="#000000" font-family="sans-serif" font-size="14" font-weight="bold" lengthAdjust="spacingAndGlyphs" textLength="42" x="20" y="23.5679">hello2</text><!--MD5=[52baea1aba08aa699ed390a34ed9f354]
class hello2.Greeter--><a href="Greeter.html" target="_top" title="Greeter.html" xlink:actuate="onRequest" xlink:href="Greeter.html" xlink:show="new" xlink:title="Greeter.html" xlink:type="simple"><rect codeLine="3" fill="#FEFECE" filter="url(#f13oodggai1urx)" height="62.9819" id="hello2.Greeter" style="stroke: #A80036; stroke-width: 1.5;" width="114" x="195" y="44.602"/><ellipse cx="227.1" cy="60.602" fill="#ADD1B2" rx="11" ry="11" style="stroke: #A80036; stroke-width: 1.0;"/><path d="M230.0688,66.2426 Q229.4906,66.5395 228.85,66.6801 Q228.2094,66.8364 227.5063,66.8364 Q225.0063,66.8364 223.6781,65.1957 Q222.3656,63.5395 222.3656,60.4145 Q222.3656,57.2895 223.6781,55.6332 Q225.0063,53.977 227.5063,53.977 Q228.2094,53.977 228.85,54.1332 Q229.5063,54.2895 230.0688,54.5864 L230.0688,57.3051 Q229.4438,56.727 228.85,56.4614 Q228.2563,56.1801 227.6313,56.1801 Q226.2875,56.1801 225.6,57.2582 Q224.9125,58.3207 224.9125,60.4145 Q224.9125,62.5082 225.6,63.5864 Q226.2875,64.6489 227.6313,64.6489 Q228.2563,64.6489 228.85,64.3832 Q229.4438,64.102 230.0688,63.5239 L230.0688,66.2426 Z "/><text fill="#000000" font-family="sans-serif" font-size="12" lengthAdjust="spacingAndGlyphs" textLength="44" x="244.9" y="65.258">Greeter</text><line style="stroke: #A80036; stroke-width: 1.5;" x1="196" x2="308" y1="76.602" y2="76.602"/><line style="stroke: #A80036; stroke-width: 1.5;" x1="196" x2="308" y1="84.602" y2="84.602"/><ellipse cx="206" cy="95.602" fill="#84BE84" rx="3" ry="3" style="stroke: #038048; stroke-width: 1.0;"/><text fill="#000000" font-family="sans-serif" font-size="11" lengthAdjust="spacingAndGlyphs" textLength="88" x="215" y="100.3609">sayHello(): String</text></a><!--MD5=[a81f25aae082e1b2e456af876e80b600]
class hello2.HelloWorld--><a href="HelloWorld.html" target="_top" title="HelloWorld.html" xlink:actuate="onRequest" xlink:href="HelloWorld.html" xlink:show="new" xlink:title="HelloWorld.html" xlink:type="simple"><rect codeLine="7" fill="#FEFECE" filter="url(#f13oodggai1urx)" height="62.9819" id="hello2.HelloWorld" style="stroke: #A80036; stroke-width: 1.5;" width="127" x="32.5" y="44.602"/><ellipse cx="62.35" cy="60.602" fill="#ADD1B2" rx="11" ry="11" style="stroke: #A80036; stroke-width: 1.0;"/><path d="M65.3188,66.2426 Q64.7406,66.5395 64.1,66.6801 Q63.4594,66.8364 62.7563,66.8364 Q60.2563,66.8364 58.9281,65.1957 Q57.6156,63.5395 57.6156,60.4145 Q57.6156,57.2895 58.9281,55.6332 Q60.2563,53.977 62.7563,53.977 Q63.4594,53.977 64.1,54.1332 Q64.7563,54.2895 65.3188,54.5864 L65.3188,57.3051 Q64.6938,56.727 64.1,56.4614 Q63.5063,56.1801 62.8813,56.1801 Q61.5375,56.1801 60.85,57.2582 Q60.1625,58.3207 60.1625,60.4145 Q60.1625,62.5082 60.85,63.5864 Q61.5375,64.6489 62.8813,64.6489 Q63.5063,64.6489 64.1,64.3832 Q64.6938,64.102 65.3188,63.5239 L65.3188,66.2426 Z "/><text fill="#000000" font-family="sans-serif" font-size="12" lengthAdjust="spacingAndGlyphs" textLength="62" x="79.65" y="65.258">HelloWorld</text><line style="stroke: #A80036; stroke-width: 1.5;" x1="33.5" x2="158.5" y1="76.602" y2="76.602"/><line style="stroke: #A80036; stroke-width: 1.5;" x1="33.5" x2="158.5" y1="84.602" y2="84.602"/><ellipse cx="43.5" cy="95.602" fill="#84BE84" rx="3" ry="3" style="stroke: #038048; stroke-width: 1.0;"/><text fill="#000000" font-family="sans-serif" font-size="11" lengthAdjust="spacingAndGlyphs" text-decoration="underline" textLength="101" x="52.5" y="100.3609">main(String[]): void</text></a><text fill="#888888" font-family="sans-serif" font-size="10" lengthAdjust="spacingAndGlyphs" textLength="188" x="70.5" y="140.292">UMLDoclet 2.0.12, PlantUML 1.2020.16</text><!--MD5=[7878285e9ff79df65a800ddfe0e9b87f]
@startuml
    namespace hello2 {

        class Greeter [[Greeter.html]] {
            +sayHello(): String
        }

        class HelloWorld [[HelloWorld.html]] {
            {static} +main(String[]): void
        }

    }

    center footer UMLDoclet 2.0.12, PlantUML 1.2020.16
@enduml

PlantUML version 1.2020.16(Sun Aug 23 21:20:43 WEST 2020)
(APACHE source distribution)
Java Runtime: Java(TM) SE Runtime Environment
JVM: Java HotSpot(TM) 64-Bit Server VM
Default Encoding: UTF-8
Language: en
Country: US
--></g></svg>