<?xml version="1.0" encoding="UTF-8" standalone="no"?><svg xmlns="http://www.w3.org/2000/svg" xmlns:xlink="http://www.w3.org/1999/xlink" contentScriptType="application/ecmascript" contentStyleType="text/css" height="237px" preserveAspectRatio="none" style="width:290px;height:237px;" version="1.1" viewBox="0 0 290 237" width="290px" zoomAndPan="magnify"><defs><filter height="300%" id="fc424ll9w2ak3" width="300%" x="-1" y="-1"><feGaussianBlur result="blurOut" stdDeviation="2.0"/><feColorMatrix in="blurOut" result="blurOut2" type="matrix" values="0 0 0 0 0 0 0 0 0 0 0 0 0 0 0 0 0 0 .4 0"/><feOffset dx="4.0" dy="4.0" in="blurOut2" result="blurOut3"/><feBlend in="SourceGraphic" in2="blurOut3" mode="normal"/></filter></defs><g><!--MD5=[5fbb2970f8717e25d59130475c312404]
cluster session--><polygon fill="#FFFFFF" filter="url(#fc424ll9w2ak3)" points="16,6,77,6,84,28.4883,268,28.4883,268,208.64,16,208.64,16,6" style="stroke: #000000; stroke-width: 1.5;"/><line style="stroke: #000000; stroke-width: 1.5;" x1="16" x2="84" y1="28.4883" y2="28.4883"/><text fill="#000000" font-family="sans-serif" font-size="14" font-weight="bold" lengthAdjust="spacingAndGlyphs" textLength="55" x="20" y="21.5352">session</text><!--MD5=[ef7d368fda8ecab3897a9ddd892d6064]
class session.UserSession--><a href="UserSession.html" target="_top" title="UserSession.html" xlink:actuate="onRequest" xlink:href="UserSession.html" xlink:show="new" xlink:title="UserSession.html" xlink:type="simple"><rect codeLine="3" fill="#FEFECE" filter="url(#fc424ll9w2ak3)" height="151.6406" id="session.UserSession" style="stroke: #A80036; stroke-width: 1.5;" width="220" x="32" y="41"/><ellipse cx="103.75" cy="57" fill="#ADD1B2" rx="11" ry="11" style="stroke: #A80036; stroke-width: 1.0;"/><path d="M106.2231,63.1431 Q105.6421,63.4419 105.0029,63.5913 Q104.3638,63.7407 103.6582,63.7407 Q101.1514,63.7407 99.8315,62.0889 Q98.5117,60.437 98.5117,57.3159 Q98.5117,54.1865 99.8315,52.5347 Q101.1514,50.8828 103.6582,50.8828 Q104.3638,50.8828 105.0112,51.0322 Q105.6587,51.1816 106.2231,51.4805 L106.2231,54.2031 Q105.5923,53.6221 104.9988,53.3523 Q104.4053,53.0825 103.7744,53.0825 Q102.4297,53.0825 101.7449,54.1492 Q101.0601,55.2158 101.0601,57.3159 Q101.0601,59.4077 101.7449,60.4744 Q102.4297,61.541 103.7744,61.541 Q104.4053,61.541 104.9988,61.2712 Q105.5923,61.0015 106.2231,60.4204 Z "/><text fill="#000000" font-family="sans-serif" font-size="12" lengthAdjust="spacingAndGlyphs" textLength="68" x="124.25" y="61.5352">UserSession</text><line style="stroke: #A80036; stroke-width: 1.5;" x1="33" x2="251" y1="73" y2="73"/><rect fill="none" height="6" style="stroke: #C82930; stroke-width: 1.0;" width="6" x="40" y="81"/><text fill="#000000" font-family="sans-serif" font-size="11" lengthAdjust="spacingAndGlyphs" textLength="137" x="52" y="87.6348">userSession: UserSession</text><line style="stroke: #A80036; stroke-width: 1.5;" x1="33" x2="251" y1="93.9551" y2="93.9551"/><ellipse cx="43" cy="104.9551" fill="#84BE84" rx="3" ry="3" style="stroke: #038048; stroke-width: 1.0;"/><text fill="#000000" font-family="sans-serif" font-size="11" lengthAdjust="spacingAndGlyphs" textLength="140" x="52" y="108.5898">UserSession(UserSession)</text><ellipse cx="43" cy="117.9102" fill="#84BE84" rx="3" ry="3" style="stroke: #038048; stroke-width: 1.0;"/><text fill="#000000" font-family="sans-serif" font-size="11" lengthAdjust="spacingAndGlyphs" textLength="116" x="52" y="121.5449">getUserEmail(): String</text><ellipse cx="43" cy="130.8652" fill="#84BE84" rx="3" ry="3" style="stroke: #038048; stroke-width: 1.0;"/><text fill="#000000" font-family="sans-serif" font-size="11" lengthAdjust="spacingAndGlyphs" textLength="118" x="52" y="134.5">getUserName(): String</text><ellipse cx="43" cy="143.8203" fill="#84BE84" rx="3" ry="3" style="stroke: #038048; stroke-width: 1.0;"/><text fill="#000000" font-family="sans-serif" font-size="11" lengthAdjust="spacingAndGlyphs" textLength="194" x="52" y="147.4551">getUserRoles(): List&lt;UserRoleDTO&gt;</text><ellipse cx="43" cy="156.7754" fill="#84BE84" rx="3" ry="3" style="stroke: #038048; stroke-width: 1.0;"/><text fill="#000000" font-family="sans-serif" font-size="11" lengthAdjust="spacingAndGlyphs" textLength="89" x="52" y="160.4102">doLogout(): void</text><ellipse cx="43" cy="169.7305" fill="#84BE84" rx="3" ry="3" style="stroke: #038048; stroke-width: 1.0;"/><text fill="#000000" font-family="sans-serif" font-size="11" lengthAdjust="spacingAndGlyphs" textLength="116" x="52" y="173.3652">isLoggedIn(): boolean</text><ellipse cx="43" cy="182.6855" fill="#84BE84" rx="3" ry="3" style="stroke: #038048; stroke-width: 1.0;"/><text fill="#000000" font-family="sans-serif" font-size="11" lengthAdjust="spacingAndGlyphs" textLength="194" x="52" y="186.3203">isLoggedInWithRole(String): boolean</text></a><text fill="#888888" font-family="sans-serif" font-size="10" lengthAdjust="spacingAndGlyphs" textLength="188" x="42" y="224.308">UMLDoclet 2.0.12, PlantUML 1.2020.16</text><!--MD5=[8cb274d2419075307e543b3c509e607e]
@startuml
    namespace session {

        class UserSession [[UserSession.html]] {
            -userSession: UserSession
            +UserSession(UserSession)
            +getUserEmail(): String
            +getUserName(): String
            +getUserRoles(): List<UserRoleDTO>
            +doLogout(): void
            +isLoggedIn(): boolean
            +isLoggedInWithRole(String): boolean
        }

    }

    center footer UMLDoclet 2.0.12, PlantUML 1.2020.16
@enduml

PlantUML version 1.2020.16(Sun Aug 23 21:20:43 WEST 2020)
(APACHE source distribution)
Java Runtime: OpenJDK Runtime Environment
JVM: OpenJDK 64-Bit Server VM
Default Encoding: UTF-8
Language: pt
Country: PT
--></g></svg>