<?xml version="1.0" encoding="UTF-8" standalone="no"?><svg xmlns="http://www.w3.org/2000/svg" xmlns:xlink="http://www.w3.org/1999/xlink" contentScriptType="application/ecmascript" contentStyleType="text/css" height="258px" preserveAspectRatio="none" style="width:290px;height:258px;" version="1.1" viewBox="0 0 290 258" width="290px" zoomAndPan="magnify"><defs><filter height="300%" id="fc424ll9w2ak3" width="300%" x="-1" y="-1"><feGaussianBlur result="blurOut" stdDeviation="2.0"/><feColorMatrix in="blurOut" result="blurOut2" type="matrix" values="0 0 0 0 0 0 0 0 0 0 0 0 0 0 0 0 0 0 .4 0"/><feOffset dx="4.0" dy="4.0" in="blurOut2" result="blurOut3"/><feBlend in="SourceGraphic" in2="blurOut3" mode="normal"/></filter></defs><g><!--MD5=[5fbb2970f8717e25d59130475c312404]
cluster session--><polygon fill="#FFFFFF" filter="url(#fc424ll9w2ak3)" points="16,6.602,73,6.602,80,31.6699,268,31.6699,268,228.602,16,228.602,16,6.602" style="stroke: #000000; stroke-width: 1.5;"/><line style="stroke: #000000; stroke-width: 1.5;" x1="16" x2="80" y1="31.6699" y2="31.6699"/><text fill="#000000" font-family="sans-serif" font-size="14" font-weight="bold" lengthAdjust="spacingAndGlyphs" textLength="51" x="20" y="23.5679">session</text><!--MD5=[ef7d368fda8ecab3897a9ddd892d6064]
class session.UserSession--><a href="UserSession.html" target="_top" title="UserSession.html" xlink:actuate="onRequest" xlink:href="UserSession.html" xlink:show="new" xlink:title="UserSession.html" xlink:type="simple"><rect codeLine="3" fill="#FEFECE" filter="url(#fc424ll9w2ak3)" height="167.8551" id="session.UserSession" style="stroke: #A80036; stroke-width: 1.5;" width="219" x="32.5" y="44.602"/><ellipse cx="102.75" cy="60.602" fill="#ADD1B2" rx="11" ry="11" style="stroke: #A80036; stroke-width: 1.0;"/><path d="M105.7188,66.2426 Q105.1406,66.5395 104.5,66.6801 Q103.8594,66.8364 103.1563,66.8364 Q100.6563,66.8364 99.3281,65.1957 Q98.0156,63.5395 98.0156,60.4145 Q98.0156,57.2895 99.3281,55.6332 Q100.6563,53.977 103.1563,53.977 Q103.8594,53.977 104.5,54.1332 Q105.1563,54.2895 105.7188,54.5864 L105.7188,57.3051 Q105.0938,56.727 104.5,56.4614 Q103.9063,56.1801 103.2813,56.1801 Q101.9375,56.1801 101.25,57.2582 Q100.5625,58.3207 100.5625,60.4145 Q100.5625,62.5082 101.25,63.5864 Q101.9375,64.6489 103.2813,64.6489 Q103.9063,64.6489 104.5,64.3832 Q105.0938,64.102 105.7188,63.5239 L105.7188,66.2426 Z "/><text fill="#000000" font-family="sans-serif" font-size="12" lengthAdjust="spacingAndGlyphs" textLength="70" x="123.25" y="65.258">UserSession</text><line style="stroke: #A80036; stroke-width: 1.5;" x1="33.5" x2="250.5" y1="76.602" y2="76.602"/><rect fill="none" height="6" style="stroke: #C82930; stroke-width: 1.0;" width="6" x="40.5" y="84.602"/><text fill="#000000" font-family="sans-serif" font-size="11" lengthAdjust="spacingAndGlyphs" textLength="131" x="52.5" y="92.3609">userSession: UserSession</text><line style="stroke: #A80036; stroke-width: 1.5;" x1="33.5" x2="250.5" y1="99.5839" y2="99.5839"/><ellipse cx="43.5" cy="110.5839" fill="#84BE84" rx="3" ry="3" style="stroke: #038048; stroke-width: 1.0;"/><text fill="#000000" font-family="sans-serif" font-size="11" lengthAdjust="spacingAndGlyphs" textLength="132" x="52.5" y="115.3428">UserSession(UserSession)</text><ellipse cx="43.5" cy="125.5658" fill="#84BE84" rx="3" ry="3" style="stroke: #038048; stroke-width: 1.0;"/><text fill="#000000" font-family="sans-serif" font-size="11" lengthAdjust="spacingAndGlyphs" textLength="113" x="52.5" y="130.3247">getUserEmail(): String</text><ellipse cx="43.5" cy="140.5476" fill="#84BE84" rx="3" ry="3" style="stroke: #038048; stroke-width: 1.0;"/><text fill="#000000" font-family="sans-serif" font-size="11" lengthAdjust="spacingAndGlyphs" textLength="115" x="52.5" y="145.3066">getUserName(): String</text><ellipse cx="43.5" cy="155.5295" fill="#84BE84" rx="3" ry="3" style="stroke: #038048; stroke-width: 1.0;"/><text fill="#000000" font-family="sans-serif" font-size="11" lengthAdjust="spacingAndGlyphs" textLength="181" x="52.5" y="160.2884">getUserRoles(): List&lt;UserRoleDTO&gt;</text><ellipse cx="43.5" cy="170.5114" fill="#84BE84" rx="3" ry="3" style="stroke: #038048; stroke-width: 1.0;"/><text fill="#000000" font-family="sans-serif" font-size="11" lengthAdjust="spacingAndGlyphs" textLength="87" x="52.5" y="175.2703">doLogout(): void</text><ellipse cx="43.5" cy="185.4933" fill="#84BE84" rx="3" ry="3" style="stroke: #038048; stroke-width: 1.0;"/><text fill="#000000" font-family="sans-serif" font-size="11" lengthAdjust="spacingAndGlyphs" textLength="114" x="52.5" y="190.2522">isLoggedIn(): boolean</text><ellipse cx="43.5" cy="200.4752" fill="#84BE84" rx="3" ry="3" style="stroke: #038048; stroke-width: 1.0;"/><text fill="#000000" font-family="sans-serif" font-size="11" lengthAdjust="spacingAndGlyphs" textLength="193" x="52.5" y="205.2341">isLoggedInWithRole(String): boolean</text></a><text fill="#888888" font-family="sans-serif" font-size="10" lengthAdjust="spacingAndGlyphs" textLength="188" x="42" y="245.292">UMLDoclet 2.0.12, PlantUML 1.2020.16</text><!--MD5=[18a97a5c9eaea78a74d684ecac8981f7]
@startuml
    namespace session {

        class UserSession [[UserSession.html]] {
            -userSession: UserSession
            +UserSession(UserSession)
            +getUserEmail(): String
            +getUserName(): String
            +getUserRoles(): List<UserRoleDTO>
            +doLogout(): void
            +isLoggedIn(): boolean
            +isLoggedInWithRole(String): boolean
        }

    }

    center footer UMLDoclet 2.0.12, PlantUML 1.2020.16
@enduml

PlantUML version 1.2020.16(Sun Aug 23 21:20:43 WEST 2020)
(APACHE source distribution)
Java Runtime: Java(TM) SE Runtime Environment
JVM: Java HotSpot(TM) 64-Bit Server VM
Default Encoding: UTF-8
Language: en
Country: US
--></g></svg>