<?xml version="1.0" encoding="UTF-8" standalone="no"?><svg xmlns="http://www.w3.org/2000/svg" xmlns:xlink="http://www.w3.org/1999/xlink" contentScriptType="application/ecmascript" contentStyleType="text/css" height="216px" preserveAspectRatio="none" style="width:245px;height:216px;" version="1.1" viewBox="0 0 245 216" width="245px" zoomAndPan="magnify"><defs><filter height="300%" id="f4cgiz4kd3uno" width="300%" x="-1" y="-1"><feGaussianBlur result="blurOut" stdDeviation="2.0"/><feColorMatrix in="blurOut" result="blurOut2" type="matrix" values="0 0 0 0 0 0 0 0 0 0 0 0 0 0 0 0 0 0 .4 0"/><feOffset dx="4.0" dy="4.0" in="blurOut2" result="blurOut3"/><feBlend in="SourceGraphic" in2="blurOut3" mode="normal"/></filter></defs><g><!--MD5=[ef7d368fda8ecab3897a9ddd892d6064]
class session.UserSession--><a href="UserSession.html" target="_top" title="UserSession.html" xlink:actuate="onRequest" xlink:href="UserSession.html" xlink:show="new" xlink:title="UserSession.html" xlink:type="simple"><rect codeLine="5" fill="#FEFECE" filter="url(#f4cgiz4kd3uno)" height="178.543" id="session.UserSession" style="stroke: #A80036; stroke-width: 1.5;" width="219" x="7" y="7"/><ellipse cx="71.25" cy="28.344" fill="#ADD1B2" rx="11" ry="11" style="stroke: #A80036; stroke-width: 1.0;"/><path d="M74.2188,33.9846 Q73.6406,34.2815 73,34.4221 Q72.3594,34.5783 71.6563,34.5783 Q69.1563,34.5783 67.8281,32.9377 Q66.5156,31.2815 66.5156,28.1565 Q66.5156,25.0315 67.8281,23.3752 Q69.1563,21.719 71.6563,21.719 Q72.3594,21.719 73,21.8752 Q73.6563,22.0315 74.2188,22.3283 L74.2188,25.0471 Q73.5938,24.469 73,24.2033 Q72.4063,23.9221 71.7813,23.9221 Q70.4375,23.9221 69.75,25.0002 Q69.0625,26.0627 69.0625,28.1565 Q69.0625,30.2502 69.75,31.3283 Q70.4375,32.3908 71.7813,32.3908 Q72.4063,32.3908 73,32.1252 Q73.5938,31.844 74.2188,31.2658 L74.2188,33.9846 Z "/><text fill="#000000" font-family="sans-serif" font-size="14" lengthAdjust="spacingAndGlyphs" textLength="82" x="91.75" y="26.9659">UserSession</text><text fill="#000000" font-family="sans-serif" font-size="10" lengthAdjust="spacingAndGlyphs" textLength="36" x="114.75" y="41.7579">session</text><line style="stroke: #A80036; stroke-width: 1.5;" x1="8" x2="225" y1="49.6879" y2="49.6879"/><rect fill="none" height="6" style="stroke: #C82930; stroke-width: 1.0;" width="6" x="15" y="57.6879"/><text fill="#000000" font-family="sans-serif" font-size="11" lengthAdjust="spacingAndGlyphs" textLength="131" x="27" y="65.4468">userSession: UserSession</text><line style="stroke: #A80036; stroke-width: 1.5;" x1="8" x2="225" y1="72.6698" y2="72.6698"/><ellipse cx="18" cy="83.6698" fill="#84BE84" rx="3" ry="3" style="stroke: #038048; stroke-width: 1.0;"/><text fill="#000000" font-family="sans-serif" font-size="11" lengthAdjust="spacingAndGlyphs" textLength="132" x="27" y="88.4287">UserSession(UserSession)</text><ellipse cx="18" cy="98.6517" fill="#84BE84" rx="3" ry="3" style="stroke: #038048; stroke-width: 1.0;"/><text fill="#000000" font-family="sans-serif" font-size="11" lengthAdjust="spacingAndGlyphs" textLength="113" x="27" y="103.4106">getUserEmail(): String</text><ellipse cx="18" cy="113.6336" fill="#84BE84" rx="3" ry="3" style="stroke: #038048; stroke-width: 1.0;"/><text fill="#000000" font-family="sans-serif" font-size="11" lengthAdjust="spacingAndGlyphs" textLength="115" x="27" y="118.3925">getUserName(): String</text><ellipse cx="18" cy="128.6155" fill="#84BE84" rx="3" ry="3" style="stroke: #038048; stroke-width: 1.0;"/><text fill="#000000" font-family="sans-serif" font-size="11" lengthAdjust="spacingAndGlyphs" textLength="181" x="27" y="133.3744">getUserRoles(): List&lt;UserRoleDTO&gt;</text><ellipse cx="18" cy="143.5973" fill="#84BE84" rx="3" ry="3" style="stroke: #038048; stroke-width: 1.0;"/><text fill="#000000" font-family="sans-serif" font-size="11" lengthAdjust="spacingAndGlyphs" textLength="87" x="27" y="148.3563">doLogout(): void</text><ellipse cx="18" cy="158.5792" fill="#84BE84" rx="3" ry="3" style="stroke: #038048; stroke-width: 1.0;"/><text fill="#000000" font-family="sans-serif" font-size="11" lengthAdjust="spacingAndGlyphs" textLength="114" x="27" y="163.3381">isLoggedIn(): boolean</text><ellipse cx="18" cy="173.5611" fill="#84BE84" rx="3" ry="3" style="stroke: #038048; stroke-width: 1.0;"/><text fill="#000000" font-family="sans-serif" font-size="11" lengthAdjust="spacingAndGlyphs" textLength="193" x="27" y="178.32">isLoggedInWithRole(String): boolean</text></a><text fill="#888888" font-family="sans-serif" font-size="10" lengthAdjust="spacingAndGlyphs" textLength="188" x="22.5" y="203.233">UMLDoclet 2.0.12, PlantUML 1.2020.16</text><!--MD5=[7b6b89c110ecc44c5f74edc20ccba9e2]
@startuml
    set namespaceSeparator none
    hide empty fields
    hide empty methods

    class "<size:14>UserSession\n<size:10>session" as session.UserSession [[UserSession.html]] {
        -userSession: UserSession
        +UserSession(UserSession)
        +getUserEmail(): String
        +getUserName(): String
        +getUserRoles(): List<UserRoleDTO>
        +doLogout(): void
        +isLoggedIn(): boolean
        +isLoggedInWithRole(String): boolean
    }

    center footer UMLDoclet 2.0.12, PlantUML 1.2020.16
@enduml

PlantUML version 1.2020.16(Sun Aug 23 21:20:43 WEST 2020)
(APACHE source distribution)
Java Runtime: Java(TM) SE Runtime Environment
JVM: Java HotSpot(TM) 64-Bit Server VM
Default Encoding: UTF-8
Language: en
Country: US
--></g></svg>