<?xml version="1.0" encoding="UTF-8" standalone="no"?><svg xmlns="http://www.w3.org/2000/svg" xmlns:xlink="http://www.w3.org/1999/xlink" contentScriptType="application/ecmascript" contentStyleType="text/css" height="195px" preserveAspectRatio="none" style="width:246px;height:195px;" version="1.1" viewBox="0 0 246 195" width="246px" zoomAndPan="magnify"><defs><filter height="300%" id="f4cgiz4kd3uno" width="300%" x="-1" y="-1"><feGaussianBlur result="blurOut" stdDeviation="2.0"/><feColorMatrix in="blurOut" result="blurOut2" type="matrix" values="0 0 0 0 0 0 0 0 0 0 0 0 0 0 0 0 0 0 .4 0"/><feOffset dx="4.0" dy="4.0" in="blurOut2" result="blurOut3"/><feBlend in="SourceGraphic" in2="blurOut3" mode="normal"/></filter></defs><g><!--MD5=[ef7d368fda8ecab3897a9ddd892d6064]
class session.UserSession--><a href="UserSession.html" target="_top" title="UserSession.html" xlink:actuate="onRequest" xlink:href="UserSession.html" xlink:show="new" xlink:title="UserSession.html" xlink:type="simple"><rect codeLine="5" fill="#FEFECE" filter="url(#f4cgiz4kd3uno)" height="157.9063" id="session.UserSession" style="stroke: #A80036; stroke-width: 1.5;" width="220" x="7" y="7"/><ellipse cx="71.25" cy="26.1328" fill="#ADD1B2" rx="11" ry="11" style="stroke: #A80036; stroke-width: 1.0;"/><path d="M73.7231,32.2759 Q73.1421,32.5747 72.5029,32.7241 Q71.8638,32.8735 71.1582,32.8735 Q68.6514,32.8735 67.3315,31.2217 Q66.0117,29.5698 66.0117,26.4487 Q66.0117,23.3193 67.3315,21.6675 Q68.6514,20.0156 71.1582,20.0156 Q71.8638,20.0156 72.5112,20.165 Q73.1587,20.3145 73.7231,20.6133 L73.7231,23.3359 Q73.0923,22.7549 72.4988,22.4851 Q71.9053,22.2153 71.2744,22.2153 Q69.9297,22.2153 69.2449,23.282 Q68.5601,24.3486 68.5601,26.4487 Q68.5601,28.5405 69.2449,29.6072 Q69.9297,30.6738 71.2744,30.6738 Q71.9053,30.6738 72.4988,30.4041 Q73.0923,30.1343 73.7231,29.5532 Z "/><text fill="#000000" font-family="sans-serif" font-size="14" lengthAdjust="spacingAndGlyphs" textLength="83" x="91.75" y="25.5352">UserSession</text><text fill="#000000" font-family="sans-serif" font-size="10" lengthAdjust="spacingAndGlyphs" textLength="36" x="115.25" y="38.1563">session</text><line style="stroke: #A80036; stroke-width: 1.5;" x1="8" x2="226" y1="45.2656" y2="45.2656"/><rect fill="none" height="6" style="stroke: #C82930; stroke-width: 1.0;" width="6" x="15" y="53.2656"/><text fill="#000000" font-family="sans-serif" font-size="11" lengthAdjust="spacingAndGlyphs" textLength="137" x="27" y="59.9004">userSession: UserSession</text><line style="stroke: #A80036; stroke-width: 1.5;" x1="8" x2="226" y1="66.2207" y2="66.2207"/><ellipse cx="18" cy="77.2207" fill="#84BE84" rx="3" ry="3" style="stroke: #038048; stroke-width: 1.0;"/><text fill="#000000" font-family="sans-serif" font-size="11" lengthAdjust="spacingAndGlyphs" textLength="140" x="27" y="80.8555">UserSession(UserSession)</text><ellipse cx="18" cy="90.1758" fill="#84BE84" rx="3" ry="3" style="stroke: #038048; stroke-width: 1.0;"/><text fill="#000000" font-family="sans-serif" font-size="11" lengthAdjust="spacingAndGlyphs" textLength="116" x="27" y="93.8105">getUserEmail(): String</text><ellipse cx="18" cy="103.1309" fill="#84BE84" rx="3" ry="3" style="stroke: #038048; stroke-width: 1.0;"/><text fill="#000000" font-family="sans-serif" font-size="11" lengthAdjust="spacingAndGlyphs" textLength="118" x="27" y="106.7656">getUserName(): String</text><ellipse cx="18" cy="116.0859" fill="#84BE84" rx="3" ry="3" style="stroke: #038048; stroke-width: 1.0;"/><text fill="#000000" font-family="sans-serif" font-size="11" lengthAdjust="spacingAndGlyphs" textLength="194" x="27" y="119.7207">getUserRoles(): List&lt;UserRoleDTO&gt;</text><ellipse cx="18" cy="129.041" fill="#84BE84" rx="3" ry="3" style="stroke: #038048; stroke-width: 1.0;"/><text fill="#000000" font-family="sans-serif" font-size="11" lengthAdjust="spacingAndGlyphs" textLength="89" x="27" y="132.6758">doLogout(): void</text><ellipse cx="18" cy="141.9961" fill="#84BE84" rx="3" ry="3" style="stroke: #038048; stroke-width: 1.0;"/><text fill="#000000" font-family="sans-serif" font-size="11" lengthAdjust="spacingAndGlyphs" textLength="116" x="27" y="145.6309">isLoggedIn(): boolean</text><ellipse cx="18" cy="154.9512" fill="#84BE84" rx="3" ry="3" style="stroke: #038048; stroke-width: 1.0;"/><text fill="#000000" font-family="sans-serif" font-size="11" lengthAdjust="spacingAndGlyphs" textLength="194" x="27" y="158.5859">isLoggedInWithRole(String): boolean</text></a><text fill="#888888" font-family="sans-serif" font-size="10" lengthAdjust="spacingAndGlyphs" textLength="188" x="23" y="181.5742">UMLDoclet 2.0.12, PlantUML 1.2020.16</text><!--MD5=[a2282ce43e8fd4f91615c2fd04a00aed]
@startuml
    set namespaceSeparator none
    hide empty fields
    hide empty methods

    class "<size:14>UserSession\n<size:10>session" as session.UserSession [[UserSession.html]] {
        -userSession: UserSession
        +UserSession(UserSession)
        +getUserEmail(): String
        +getUserName(): String
        +getUserRoles(): List<UserRoleDTO>
        +doLogout(): void
        +isLoggedIn(): boolean
        +isLoggedInWithRole(String): boolean
    }

    center footer UMLDoclet 2.0.12, PlantUML 1.2020.16
@enduml

PlantUML version 1.2020.16(Sun Aug 23 21:20:43 WEST 2020)
(APACHE source distribution)
Java Runtime: OpenJDK Runtime Environment
JVM: OpenJDK 64-Bit Server VM
Default Encoding: UTF-8
Language: pt
Country: PT
--></g></svg>