<svg xmlns="http://www.w3.org/2000/svg" xmlns:xlink="http://www.w3.org/1999/xlink" contentStyleType="text/css" height="459px" preserveAspectRatio="none" style="width:604px;height:459px;background:#FFFFFF;" version="1.1" viewBox="0 0 604 459" width="604px" zoomAndPan="magnify"><title>System Sequence Diagram (SSD) - US213 - List Users</title><defs/><g><text fill="#000000" font-family="sans-serif" font-size="14" font-weight="bold" lengthAdjust="spacing" textLength="357.1299" x="119.6187" y="30.1074">System Sequence Diagram (SSD) - US213 - List Users</text><rect fill="#FFFFFF" height="156.4551" style="stroke:#181818;stroke-width:1.0;" width="10" x="158.4385" y="201.8242"/><rect fill="#FFFFFF" height="93.873" style="stroke:#181818;stroke-width:1.0;" width="10" x="398.04" y="233.1152"/><rect fill="#FFFFFF" height="31.291" style="stroke:#181818;stroke-width:1.0;" width="10" x="530.1846" y="264.4063"/><line style="stroke:#181818;stroke-width:0.5;stroke-dasharray:5.0,5.0;" x1="27" x2="27" y1="123.2422" y2="376.2793"/><line style="stroke:#181818;stroke-width:0.5;stroke-dasharray:5.0,5.0;" x1="162.8213" x2="162.8213" y1="123.2422" y2="376.2793"/><line style="stroke:#181818;stroke-width:0.5;stroke-dasharray:5.0,5.0;" x1="402.0781" x2="402.0781" y1="123.2422" y2="376.2793"/><line style="stroke:#181818;stroke-width:0.5;stroke-dasharray:5.0,5.0;" x1="535.002" x2="535.002" y1="123.2422" y2="376.2793"/><text fill="#000000" font-family="sans-serif" font-size="14" lengthAdjust="spacing" textLength="39.6826" x="5" y="119.7285">Admin</text><ellipse cx="27.8413" cy="53.1211" fill="#E3E3E3" rx="8" ry="8" style="stroke:#181818;stroke-width:0.5;"/><path d="M27.8413,61.1211 L27.8413,88.1211 M14.8413,69.1211 L40.8413,69.1211 M27.8413,88.1211 L14.8413,103.1211 M27.8413,88.1211 L40.8413,103.1211 " fill="none" style="stroke:#181818;stroke-width:0.5;"/><text fill="#000000" font-family="sans-serif" font-size="14" lengthAdjust="spacing" textLength="39.6826" x="5" y="390.3867">Admin</text><ellipse cx="27.8413" cy="402.4004" fill="#E3E3E3" rx="8" ry="8" style="stroke:#181818;stroke-width:0.5;"/><path d="M27.8413,410.4004 L27.8413,437.4004 M14.8413,418.4004 L40.8413,418.4004 M27.8413,437.4004 L14.8413,452.4004 M27.8413,437.4004 L40.8413,452.4004 " fill="none" style="stroke:#181818;stroke-width:0.5;"/><rect fill="#E3E3E3" height="32.6211" rx="2.5" ry="2.5" style="stroke:#181818;stroke-width:0.5;" width="83.2344" x="121.8213" y="89.6211"/><text fill="#000000" font-family="sans-serif" font-size="14" lengthAdjust="spacing" textLength="69.2344" x="128.8213" y="111.7285">:ListUserUI</text><rect fill="#E3E3E3" height="32.6211" rx="2.5" ry="2.5" style="stroke:#181818;stroke-width:0.5;" width="83.2344" x="121.8213" y="375.2793"/><text fill="#000000" font-family="sans-serif" font-size="14" lengthAdjust="spacing" textLength="69.2344" x="128.8213" y="397.3867">:ListUserUI</text><rect fill="#E3E3E3" height="32.6211" rx="2.5" ry="2.5" style="stroke:#181818;stroke-width:0.5;" width="129.9238" x="338.0781" y="89.6211"/><text fill="#000000" font-family="sans-serif" font-size="14" lengthAdjust="spacing" textLength="115.9238" x="345.0781" y="111.7285">:ListUserController</text><rect fill="#E3E3E3" height="32.6211" rx="2.5" ry="2.5" style="stroke:#181818;stroke-width:0.5;" width="129.9238" x="338.0781" y="375.2793"/><text fill="#000000" font-family="sans-serif" font-size="14" lengthAdjust="spacing" textLength="115.9238" x="345.0781" y="397.3867">:ListUserController</text><rect fill="#E3E3E3" height="32.6211" rx="2.5" ry="2.5" style="stroke:#181818;stroke-width:0.5;" width="114.3652" x="478.002" y="89.6211"/><text fill="#000000" font-family="sans-serif" font-size="14" lengthAdjust="spacing" textLength="100.3652" x="485.002" y="111.7285">:UserRepository</text><rect fill="#E3E3E3" height="32.6211" rx="2.5" ry="2.5" style="stroke:#181818;stroke-width:0.5;" width="114.3652" x="478.002" y="375.2793"/><text fill="#000000" font-family="sans-serif" font-size="14" lengthAdjust="spacing" textLength="100.3652" x="485.002" y="397.3867">:UserRepository</text><rect fill="#FFFFFF" height="156.4551" style="stroke:#181818;stroke-width:1.0;" width="10" x="158.4385" y="201.8242"/><rect fill="#FFFFFF" height="93.873" style="stroke:#181818;stroke-width:1.0;" width="10" x="398.04" y="233.1152"/><rect fill="#FFFFFF" height="31.291" style="stroke:#181818;stroke-width:1.0;" width="10" x="530.1846" y="264.4063"/><rect fill="#EEEEEE" height="3" style="stroke:#EEEEEE;stroke-width:1.0;" width="597.3672" x="0" y="154.8877"/><line style="stroke:#000000;stroke-width:1.0;" x1="0" x2="597.3672" y1="154.8877" y2="154.8877"/><line style="stroke:#000000;stroke-width:1.0;" x1="0" x2="597.3672" y1="157.8877" y2="157.8877"/><rect fill="#EEEEEE" height="25.291" style="stroke:#000000;stroke-width:2.0;" width="47.23" x="275.0686" y="143.2422"/><text fill="#000000" font-family="sans-serif" font-size="13" font-weight="bold" lengthAdjust="spacing" textLength="29.6182" x="281.0686" y="161.2705">Start</text><polygon fill="#181818" points="146.4385,197.8242,156.4385,201.8242,146.4385,205.8242,150.4385,201.8242" style="stroke:#181818;stroke-width:1.0;"/><line style="stroke:#181818;stroke-width:1.0;" x1="27.8413" x2="152.4385" y1="201.8242" y2="201.8242"/><text fill="#000000" font-family="sans-serif" font-size="13" font-weight="bold" lengthAdjust="spacing" textLength="7.23" x="34.8413" y="196.5615">1</text><text fill="#000000" font-family="sans-serif" font-size="13" lengthAdjust="spacing" textLength="27.4473" x="46.0713" y="196.5615">run()</text><polygon fill="#181818" points="386.04,229.1152,396.04,233.1152,386.04,237.1152,390.04,233.1152" style="stroke:#181818;stroke-width:1.0;"/><line style="stroke:#181818;stroke-width:1.0;" x1="168.4385" x2="392.04" y1="233.1152" y2="233.1152"/><text fill="#000000" font-family="sans-serif" font-size="13" font-weight="bold" lengthAdjust="spacing" textLength="7.23" x="175.4385" y="227.8525">2</text><text fill="#000000" font-family="sans-serif" font-size="13" lengthAdjust="spacing" textLength="137.979" x="186.6685" y="227.8525">getAllUsersWithStatus()</text><polygon fill="#181818" points="518.1846,260.4063,528.1846,264.4063,518.1846,268.4063,522.1846,264.4063" style="stroke:#181818;stroke-width:1.0;"/><line style="stroke:#181818;stroke-width:1.0;" x1="408.04" x2="524.1846" y1="264.4063" y2="264.4063"/><text fill="#000000" font-family="sans-serif" font-size="13" font-weight="bold" lengthAdjust="spacing" textLength="7.23" x="415.04" y="259.1436">3</text><text fill="#000000" font-family="sans-serif" font-size="13" lengthAdjust="spacing" textLength="44.0654" x="426.27" y="259.1436">findAll()</text><polygon fill="#181818" points="419.04,291.6973,409.04,295.6973,419.04,299.6973,415.04,295.6973" style="stroke:#181818;stroke-width:1.0;"/><line style="stroke:#181818;stroke-width:1.0;stroke-dasharray:2.0,2.0;" x1="413.04" x2="534.1846" y1="295.6973" y2="295.6973"/><text fill="#000000" font-family="sans-serif" font-size="13" font-weight="bold" lengthAdjust="spacing" textLength="7.23" x="425.04" y="290.4346">4</text><text fill="#000000" font-family="sans-serif" font-size="13" lengthAdjust="spacing" textLength="62.8608" x="436.27" y="290.4346">List&lt;User&gt;</text><polygon fill="#181818" points="179.4385,322.9883,169.4385,326.9883,179.4385,330.9883,175.4385,326.9883" style="stroke:#181818;stroke-width:1.0;"/><line style="stroke:#181818;stroke-width:1.0;stroke-dasharray:2.0,2.0;" x1="173.4385" x2="402.04" y1="326.9883" y2="326.9883"/><text fill="#000000" font-family="sans-serif" font-size="13" font-weight="bold" lengthAdjust="spacing" textLength="7.23" x="185.4385" y="321.7256">5</text><text fill="#000000" font-family="sans-serif" font-size="13" lengthAdjust="spacing" textLength="194.3716" x="196.6685" y="321.7256">List&lt;String&gt; (formatted user data)</text><polygon fill="#181818" points="38.8413,354.2793,28.8413,358.2793,38.8413,362.2793,34.8413,358.2793" style="stroke:#181818;stroke-width:1.0;"/><line style="stroke:#181818;stroke-width:1.0;stroke-dasharray:2.0,2.0;" x1="32.8413" x2="162.4385" y1="358.2793" y2="358.2793"/><text fill="#000000" font-family="sans-serif" font-size="13" font-weight="bold" lengthAdjust="spacing" textLength="7.23" x="44.8413" y="353.0166">6</text><text fill="#000000" font-family="sans-serif" font-size="13" lengthAdjust="spacing" textLength="95.3672" x="56.0713" y="353.0166">displays user list</text><!--SRC=[TP6zRiCm38HtFGMHAHaojDs2Ea3GB04wLJ0wipRZ2D6FAz4j_FQb5BHH0dIoA7vtFChfRFo84Hsuu4DtYi4HS9n8fR_EYDqP1z8yMu987QCVR0sa4_RXs_W1ZcWJASM61TLpOdAWwNCYtn7i3GuPNsgzNy4QMltuy2JVLvCOsaGnAOKJ1p-v3ufoxZX4MEnwP_m2C44vAPd9fZCZUeR59ekpjZqKf3tyqty9dcEmbcBXhkKTdzat6aCoCdmkR2wLQXhGB2WqZL8b2QotCWys42U_NEMuvWkPSWObzzAzJX5g8DvPM_PyDtmICvvIhQiogKefFZc1E1oDxyMYrfHifRs-dvStVyxZjggdMy6D_UyMXTSSvJzkONaCqI4pzJ291VJ8kAfzwh1vMN6vFCe6UfD6YtEwAAtOriByEbLPH3y0]--></g></svg>