<svg xmlns="http://www.w3.org/2000/svg" xmlns:xlink="http://www.w3.org/1999/xlink" contentStyleType="text/css" height="503px" preserveAspectRatio="none" style="width:596px;height:503px;background:#FFFFFF;" version="1.1" viewBox="0 0 596 503" width="596px" zoomAndPan="magnify"><title>System Sequence Diagram (SSD) - US370 - Analyse a Proposal</title><defs/><g><text fill="#000000" font-family="sans-serif" font-size="14" font-weight="bold" lengthAdjust="spacing" textLength="418.5986" x="95.8833" y="30.1074">System Sequence Diagram (SSD) - US370 - Analyse a Proposal</text><rect fill="#FFFFFF" height="276.668" style="stroke:#181818;stroke-width:1.0;" width="10" x="48.3413" y="133.2422"/><rect fill="#FFFFFF" height="253.377" style="stroke:#181818;stroke-width:1.0;" width="10" x="311.8438" y="156.5332"/><rect fill="none" height="187.0859" style="stroke:#000000;stroke-width:1.5;" width="550.0635" x="10" y="215.8242"/><line style="stroke:#181818;stroke-width:0.5;stroke-dasharray:5.0,5.0;" x1="53" x2="53" y1="123.2422" y2="419.9102"/><line style="stroke:#181818;stroke-width:0.5;stroke-dasharray:5.0,5.0;" x1="316.561" x2="316.561" y1="123.2422" y2="419.9102"/><text fill="#000000" font-family="sans-serif" font-size="14" lengthAdjust="spacing" textLength="60.6826" x="20" y="119.7285">Customer</text><ellipse cx="53.3413" cy="53.1211" fill="#E3E3E3" rx="8" ry="8" style="stroke:#181818;stroke-width:0.5;"/><path d="M53.3413,61.1211 L53.3413,88.1211 M40.3413,69.1211 L66.3413,69.1211 M53.3413,88.1211 L40.3413,103.1211 M53.3413,88.1211 L66.3413,103.1211 " fill="none" style="stroke:#181818;stroke-width:0.5;"/><text fill="#000000" font-family="sans-serif" font-size="14" lengthAdjust="spacing" textLength="60.6826" x="20" y="434.0176">Customer</text><ellipse cx="53.3413" cy="446.0313" fill="#E3E3E3" rx="8" ry="8" style="stroke:#181818;stroke-width:0.5;"/><path d="M53.3413,454.0313 L53.3413,481.0313 M40.3413,462.0313 L66.3413,462.0313 M53.3413,481.0313 L40.3413,496.0313 M53.3413,481.0313 L66.3413,496.0313 " fill="none" style="stroke:#181818;stroke-width:0.5;"/><rect fill="#E3E3E3" height="32.6211" rx="2.5" ry="2.5" style="stroke:#181818;stroke-width:0.5;" width="64.5654" x="284.561" y="89.6211"/><text fill="#000000" font-family="sans-serif" font-size="14" lengthAdjust="spacing" textLength="50.5654" x="291.561" y="111.7285">:System</text><rect fill="#E3E3E3" height="32.6211" rx="2.5" ry="2.5" style="stroke:#181818;stroke-width:0.5;" width="64.5654" x="284.561" y="418.9102"/><text fill="#000000" font-family="sans-serif" font-size="14" lengthAdjust="spacing" textLength="50.5654" x="291.561" y="441.0176">:System</text><rect fill="#FFFFFF" height="276.668" style="stroke:#181818;stroke-width:1.0;" width="10" x="48.3413" y="133.2422"/><rect fill="#FFFFFF" height="253.377" style="stroke:#181818;stroke-width:1.0;" width="10" x="311.8438" y="156.5332"/><polygon fill="#181818" points="299.8438,152.5332,309.8438,156.5332,299.8438,160.5332,303.8438,156.5332" style="stroke:#181818;stroke-width:1.0;"/><line style="stroke:#181818;stroke-width:1.0;" x1="58.3413" x2="305.8438" y1="156.5332" y2="156.5332"/><text fill="#000000" font-family="sans-serif" font-size="13" font-weight="bold" lengthAdjust="spacing" textLength="7.23" x="65.3413" y="151.2705">1</text><text fill="#000000" font-family="sans-serif" font-size="13" lengthAdjust="spacing" textLength="223.2725" x="76.5713" y="151.2705">accessProposal(proposalAccessCode)</text><line style="stroke:#181818;stroke-width:1.0;" x1="321.8438" x2="363.8438" y1="187.8242" y2="187.8242"/><line style="stroke:#181818;stroke-width:1.0;" x1="363.8438" x2="363.8438" y1="187.8242" y2="200.8242"/><line style="stroke:#181818;stroke-width:1.0;" x1="322.8438" x2="363.8438" y1="200.8242" y2="200.8242"/><polygon fill="#181818" points="332.8438,196.8242,322.8438,200.8242,332.8438,204.8242,328.8438,200.8242" style="stroke:#181818;stroke-width:1.0;"/><text fill="#000000" font-family="sans-serif" font-size="13" font-weight="bold" lengthAdjust="spacing" textLength="7.23" x="328.8438" y="182.5615">2</text><text fill="#000000" font-family="sans-serif" font-size="13" lengthAdjust="spacing" textLength="249.2915" x="340.0737" y="182.5615">validateAccessCode(proposalAccessCode)</text><path d="M10,215.8242 L70.1709,215.8242 L70.1709,225.1152 L60.1709,235.1152 L10,235.1152 L10,215.8242 " fill="#EEEEEE" style="stroke:#000000;stroke-width:1.5;"/><rect fill="none" height="187.0859" style="stroke:#000000;stroke-width:1.5;" width="550.0635" x="10" y="215.8242"/><text fill="#000000" font-family="sans-serif" font-size="13" font-weight="bold" lengthAdjust="spacing" textLength="15.1709" x="25" y="230.8525">alt</text><text fill="#000000" font-family="sans-serif" font-size="11" font-weight="bold" lengthAdjust="spacing" textLength="73.353" x="85.1709" y="229.6943">[code is valid]</text><line style="stroke:#181818;stroke-width:1.0;" x1="321.8438" x2="363.8438" y1="258.4063" y2="258.4063"/><line style="stroke:#181818;stroke-width:1.0;" x1="363.8438" x2="363.8438" y1="258.4063" y2="271.4063"/><line style="stroke:#181818;stroke-width:1.0;" x1="322.8438" x2="363.8438" y1="271.4063" y2="271.4063"/><polygon fill="#181818" points="332.8438,267.4063,322.8438,271.4063,332.8438,275.4063,328.8438,271.4063" style="stroke:#181818;stroke-width:1.0;"/><text fill="#000000" font-family="sans-serif" font-size="13" font-weight="bold" lengthAdjust="spacing" textLength="7.23" x="328.8438" y="253.1436">3</text><text fill="#000000" font-family="sans-serif" font-size="13" lengthAdjust="spacing" textLength="171.2407" x="340.0737" y="253.1436">retrieveProposalDetails(code)</text><line style="stroke:#181818;stroke-width:1.0;" x1="321.8438" x2="363.8438" y1="302.6973" y2="302.6973"/><line style="stroke:#181818;stroke-width:1.0;" x1="363.8438" x2="363.8438" y1="302.6973" y2="315.6973"/><line style="stroke:#181818;stroke-width:1.0;" x1="322.8438" x2="363.8438" y1="315.6973" y2="315.6973"/><polygon fill="#181818" points="332.8438,311.6973,322.8438,315.6973,332.8438,319.6973,328.8438,315.6973" style="stroke:#181818;stroke-width:1.0;"/><text fill="#000000" font-family="sans-serif" font-size="13" font-weight="bold" lengthAdjust="spacing" textLength="7.23" x="328.8438" y="297.4346">4</text><text fill="#000000" font-family="sans-serif" font-size="13" lengthAdjust="spacing" textLength="197.9897" x="340.0737" y="297.4346">retrieveSimulationVideoLink(code)</text><polygon fill="#181818" points="69.3413,342.9883,59.3413,346.9883,69.3413,350.9883,65.3413,346.9883" style="stroke:#181818;stroke-width:1.0;"/><line style="stroke:#181818;stroke-width:1.0;stroke-dasharray:2.0,2.0;" x1="63.3413" x2="310.8438" y1="346.9883" y2="346.9883"/><text fill="#000000" font-family="sans-serif" font-size="13" font-weight="bold" lengthAdjust="spacing" textLength="7.23" x="75.3413" y="341.7256">5</text><text fill="#000000" font-family="sans-serif" font-size="13" lengthAdjust="spacing" textLength="200.1606" x="86.5713" y="341.7256">displayProposal(details, videoLink)</text><line style="stroke:#000000;stroke-width:1.0;stroke-dasharray:2.0,2.0;" x1="10" x2="560.0635" y1="355.9883" y2="355.9883"/><text fill="#000000" font-family="sans-serif" font-size="11" font-weight="bold" lengthAdjust="spacing" textLength="83.1284" x="15" y="367.8584">[code is invalid]</text><polygon fill="#181818" points="69.3413,390.9102,59.3413,394.9102,69.3413,398.9102,65.3413,394.9102" style="stroke:#181818;stroke-width:1.0;"/><line style="stroke:#181818;stroke-width:1.0;stroke-dasharray:2.0,2.0;" x1="63.3413" x2="310.8438" y1="394.9102" y2="394.9102"/><text fill="#000000" font-family="sans-serif" font-size="13" font-weight="bold" lengthAdjust="spacing" textLength="7.23" x="75.3413" y="389.6475">6</text><text fill="#000000" font-family="sans-serif" font-size="13" lengthAdjust="spacing" textLength="82.9131" x="86.5713" y="389.6475">error("Invalid")</text><!--SRC=[XP51QyCm38Nl_XKYfnHM6Emmw65GsajXXq7exfgjfQAEdLbAHlxztAHforPO3ewmtlVqaEN8eSM43JGnH7j8iI7Gr96HIwT5UyIQAXqyGIAh66f_Av03klZDeOPFz4B6A6kMLeCeDL3HLqV14cmPwvEyhAhj0fQmhvwU7_D_7T0FGe3mbc8R1Rqns6aCNVD1ATTMOu9YqudcTAa05DXBxkJfofPR30h5QXetTgTo9Bb7fKbkJYSiN-PWAq1hIMIUMhRdOZrURwAZnTLYzZp3jpOzUdPPS-NkMta5cojWcH03-RlZbqWJKqzpi2qfifVIZZR_G1KtdKVb6DxPKNpbSBm3PdBSnWeSI-jnk2p1JSCUe9_nXQ7ygfVe7Fw6lzfHIZ6LnMuI5PaDpXX7l_TuStCYVm00]--></g></svg>