<svg xmlns="http://www.w3.org/2000/svg" xmlns:xlink="http://www.w3.org/1999/xlink" contentStyleType="text/css" height="905px" preserveAspectRatio="none" style="width:1638px;height:905px;background:#FFFFFF;" version="1.1" viewBox="0 0 1638 905" width="1638px" zoomAndPan="magnify"><title>UI Sequence Diagram (SSD) - List Show Request of client</title><defs/><g><text fill="#000000" font-family="sans-serif" font-size="14" font-weight="bold" lengthAdjust="spacing" textLength="389.1005" x="623.711" y="29.9659">UI Sequence Diagram (SSD) - List Show Request of client</text><rect fill="#FFFFFF" height="669.6358" style="stroke:#181818;stroke-width:1.0;" width="10" x="93.4327" y="134.1358"/><rect fill="#FFFFFF" height="645.9298" style="stroke:#181818;stroke-width:1.0;" width="10" x="444.0699" y="157.8419"/><rect fill="#FFFFFF" height="538.4499" style="stroke:#181818;stroke-width:1.0;" width="10" x="830.9902" y="233.6158"/><rect fill="#FFFFFF" height="94.8419" style="stroke:#181818;stroke-width:1.0;" width="10" x="1086.4934" y="265.3218"/><rect fill="#FFFFFF" height="94.8419" style="stroke:#181818;stroke-width:1.0;" width="10" x="1086.4934" y="582.1058"/><rect fill="#FFFFFF" height="31.706" style="stroke:#181818;stroke-width:1.0;" width="10" x="1274.5168" y="391.8697"/><rect fill="#FFFFFF" height="31.706" style="stroke:#181818;stroke-width:1.0;" width="10" x="1509.048" y="708.6536"/><line style="stroke:#181818;stroke-width:0.5;stroke-dasharray:5.0,5.0;" x1="98" x2="98" y1="124.1358" y2="821.7717"/><line style="stroke:#181818;stroke-width:0.5;stroke-dasharray:5.0,5.0;" x1="448.9713" x2="448.9713" y1="124.1358" y2="821.7717"/><line style="stroke:#181818;stroke-width:0.5;stroke-dasharray:5.0,5.0;" x1="835.2927" x2="835.2927" y1="197.8758" y2="821.7717"/><line style="stroke:#181818;stroke-width:0.5;stroke-dasharray:5.0,5.0;" x1="1090.5266" x2="1090.5266" y1="124.1358" y2="821.7717"/><line style="stroke:#181818;stroke-width:0.5;stroke-dasharray:5.0,5.0;" x1="1279.4602" x2="1279.4602" y1="314.8897" y2="821.7717"/><line style="stroke:#181818;stroke-width:0.5;stroke-dasharray:5.0,5.0;" x1="1513.5734" x2="1513.5734" y1="631.6737" y2="821.7717"/><text fill="#000000" font-family="sans-serif" font-size="14" lengthAdjust="spacing" textLength="180.8653" x="5" y="120.0339">CRM Collaborator/Manager</text><ellipse cx="98.4327" cy="53.5679" fill="#E3E3E3" rx="8" ry="8" style="stroke:#181818;stroke-width:0.5;"/><path d="M98.4327,61.5679 L98.4327,88.5679 M85.4327,69.5679 L111.4327,69.5679 M98.4327,88.5679 L85.4327,103.5679 M98.4327,88.5679 L111.4327,103.5679 " fill="none" style="stroke:#181818;stroke-width:0.5;"/><text fill="#000000" font-family="sans-serif" font-size="14" lengthAdjust="spacing" textLength="180.8653" x="5" y="835.7376">CRM Collaborator/Manager</text><ellipse cx="98.4327" cy="848.3396" fill="#E3E3E3" rx="8" ry="8" style="stroke:#181818;stroke-width:0.5;"/><path d="M98.4327,856.3396 L98.4327,883.3396 M85.4327,864.3396 L111.4327,864.3396 M98.4327,883.3396 L85.4327,898.3396 M98.4327,883.3396 L111.4327,898.3396 " fill="none" style="stroke:#181818;stroke-width:0.5;"/><rect fill="#E3E3E3" height="33.0679" rx="2.5" ry="2.5" style="stroke:#181818;stroke-width:0.5;" width="198.1973" x="349.9713" y="90.0679"/><text fill="#000000" font-family="sans-serif" font-size="14" lengthAdjust="spacing" textLength="184.1973" x="356.9713" y="112.0339">:ListShowRequestOfClientUI</text><rect fill="#E3E3E3" height="33.0679" rx="2.5" ry="2.5" style="stroke:#181818;stroke-width:0.5;" width="198.1973" x="349.9713" y="820.7717"/><text fill="#000000" font-family="sans-serif" font-size="14" lengthAdjust="spacing" textLength="184.1973" x="356.9713" y="842.7376">:ListShowRequestOfClientUI</text><rect fill="#E3E3E3" height="33.0679" rx="2.5" ry="2.5" style="stroke:#181818;stroke-width:0.5;" width="249.3951" x="711.2927" y="820.7717"/><text fill="#000000" font-family="sans-serif" font-size="14" lengthAdjust="spacing" textLength="235.3951" x="718.2927" y="842.7376">:ListShowRequestOfClientController</text><rect fill="#E3E3E3" height="52.1358" rx="2.5" ry="2.5" style="stroke:#181818;stroke-width:0.5;" width="143.9335" x="1019.5266" y="71"/><text fill="#000000" font-family="sans-serif" font-size="14" lengthAdjust="spacing" textLength="123.2556" x="1029.8656" y="92.9659">repositoryProvider</text><text fill="#000000" font-family="sans-serif" font-size="14" lengthAdjust="spacing" textLength="129.9335" x="1026.5266" y="112.0339">:RepositoryProvider</text><rect fill="#E3E3E3" height="52.1358" rx="2.5" ry="2.5" style="stroke:#181818;stroke-width:0.5;" width="143.9335" x="1019.5266" y="820.7717"/><text fill="#000000" font-family="sans-serif" font-size="14" lengthAdjust="spacing" textLength="123.2556" x="1029.8656" y="842.7376">repositoryProvider</text><text fill="#000000" font-family="sans-serif" font-size="14" lengthAdjust="spacing" textLength="129.9335" x="1026.5266" y="861.8055">:RepositoryProvider</text><rect fill="#E3E3E3" height="52.1358" rx="2.5" ry="2.5" style="stroke:#181818;stroke-width:0.5;" width="212.1133" x="1173.4602" y="820.7717"/><text fill="#000000" font-family="sans-serif" font-size="14" lengthAdjust="spacing" textLength="192.2333" x="1183.4001" y="842.7376">costumerRepositoryInterface</text><text fill="#000000" font-family="sans-serif" font-size="14" lengthAdjust="spacing" textLength="198.1133" x="1180.4602" y="861.8055">:CostumerRepositoryInterface</text><rect fill="#E3E3E3" height="52.1358" rx="2.5" ry="2.5" style="stroke:#181818;stroke-width:0.5;" width="236.9491" x="1395.5734" y="820.7717"/><text fill="#000000" font-family="sans-serif" font-size="14" lengthAdjust="spacing" textLength="218.2172" x="1404.9394" y="842.7376">showRequestRepositoryInterface</text><text fill="#000000" font-family="sans-serif" font-size="14" lengthAdjust="spacing" textLength="222.9491" x="1402.5734" y="861.8055">:ShowRequestRepositoryInterface</text><rect fill="#FFFFFF" height="669.6358" style="stroke:#181818;stroke-width:1.0;" width="10" x="93.4327" y="134.1358"/><rect fill="#FFFFFF" height="645.9298" style="stroke:#181818;stroke-width:1.0;" width="10" x="444.0699" y="157.8419"/><rect fill="#FFFFFF" height="538.4499" style="stroke:#181818;stroke-width:1.0;" width="10" x="830.9902" y="233.6158"/><rect fill="#FFFFFF" height="94.8419" style="stroke:#181818;stroke-width:1.0;" width="10" x="1086.4934" y="265.3218"/><rect fill="#FFFFFF" height="94.8419" style="stroke:#181818;stroke-width:1.0;" width="10" x="1086.4934" y="582.1058"/><rect fill="#FFFFFF" height="31.706" style="stroke:#181818;stroke-width:1.0;" width="10" x="1274.5168" y="391.8697"/><rect fill="#FFFFFF" height="31.706" style="stroke:#181818;stroke-width:1.0;" width="10" x="1509.048" y="708.6536"/><polygon fill="#181818" points="432.0699,153.8419,442.0699,157.8419,432.0699,161.8419,436.0699,157.8419" style="stroke:#181818;stroke-width:1.0;"/><line style="stroke:#181818;stroke-width:1.0;" x1="103.4327" x2="438.0699" y1="157.8419" y2="157.8419"/><text fill="#000000" font-family="sans-serif" font-size="13" font-weight="bold" lengthAdjust="spacing" textLength="7.436" x="110.4327" y="152.0328">1</text><text fill="#000000" font-family="sans-serif" font-size="13" lengthAdjust="spacing" textLength="209.8982" x="121.8687" y="152.0328">ask to list a Show Request of client</text><polygon fill="#181818" points="699.2927,185.5479,709.2927,189.5479,699.2927,193.5479,703.2927,189.5479" style="stroke:#181818;stroke-width:1.0;"/><line style="stroke:#181818;stroke-width:1.0;" x1="454.0699" x2="705.2927" y1="189.5479" y2="189.5479"/><text fill="#000000" font-family="sans-serif" font-size="13" font-weight="bold" lengthAdjust="spacing" textLength="7.436" x="461.0699" y="183.7389">2</text><text fill="#000000" font-family="sans-serif" font-size="13" lengthAdjust="spacing" textLength="38.259" x="472.5059" y="183.7389">create</text><rect fill="#E3E3E3" height="33.0679" rx="2.5" ry="2.5" style="stroke:#181818;stroke-width:0.5;" width="249.3951" x="711.2927" y="165.8419"/><text fill="#000000" font-family="sans-serif" font-size="14" lengthAdjust="spacing" textLength="235.3951" x="718.2927" y="187.8078">:ListShowRequestOfClientController</text><polygon fill="#181818" points="818.9902,229.6158,828.9902,233.6158,818.9902,237.6158,822.9902,233.6158" style="stroke:#181818;stroke-width:1.0;"/><line style="stroke:#181818;stroke-width:1.0;" x1="454.0699" x2="824.9902" y1="233.6158" y2="233.6158"/><text fill="#000000" font-family="sans-serif" font-size="13" font-weight="bold" lengthAdjust="spacing" textLength="7.436" x="461.0699" y="227.8068">3</text><text fill="#000000" font-family="sans-serif" font-size="13" lengthAdjust="spacing" textLength="141.9341" x="472.5059" y="227.8068">listCostumerInSystem()</text><polygon fill="#181818" points="1074.4934,261.3218,1084.4934,265.3218,1074.4934,269.3218,1078.4934,265.3218" style="stroke:#181818;stroke-width:1.0;"/><line style="stroke:#181818;stroke-width:1.0;" x1="840.9902" x2="1080.4934" y1="265.3218" y2="265.3218"/><text fill="#000000" font-family="sans-serif" font-size="13" font-weight="bold" lengthAdjust="spacing" textLength="7.436" x="847.9902" y="259.5128">4</text><text fill="#000000" font-family="sans-serif" font-size="13" lengthAdjust="spacing" textLength="153.1272" x="859.4262" y="259.5128">getCostumerRepository()</text><polygon fill="#181818" points="1161.4602,293.0278,1171.4602,297.0278,1161.4602,301.0278,1165.4602,297.0278" style="stroke:#181818;stroke-width:1.0;"/><line style="stroke:#181818;stroke-width:1.0;" x1="1096.4934" x2="1167.4602" y1="297.0278" y2="297.0278"/><text fill="#000000" font-family="sans-serif" font-size="13" font-weight="bold" lengthAdjust="spacing" textLength="7.436" x="1103.4934" y="291.2188">5</text><text fill="#000000" font-family="sans-serif" font-size="13" lengthAdjust="spacing" textLength="38.259" x="1114.9294" y="291.2188">create</text><rect fill="#E3E3E3" height="52.1358" rx="2.5" ry="2.5" style="stroke:#181818;stroke-width:0.5;" width="212.1133" x="1173.4602" y="273.3218"/><text fill="#000000" font-family="sans-serif" font-size="14" lengthAdjust="spacing" textLength="192.2333" x="1183.4001" y="295.2877">costumerRepositoryInterface</text><text fill="#000000" font-family="sans-serif" font-size="14" lengthAdjust="spacing" textLength="198.1133" x="1180.4602" y="314.3557">:CostumerRepositoryInterface</text><polygon fill="#181818" points="851.9902,356.1637,841.9902,360.1637,851.9902,364.1637,847.9902,360.1637" style="stroke:#181818;stroke-width:1.0;"/><line style="stroke:#181818;stroke-width:1.0;stroke-dasharray:2.0,2.0;" x1="845.9902" x2="1090.4934" y1="360.1637" y2="360.1637"/><text fill="#000000" font-family="sans-serif" font-size="13" font-weight="bold" lengthAdjust="spacing" textLength="7.436" x="857.9902" y="354.3546">6</text><text fill="#000000" font-family="sans-serif" font-size="13" lengthAdjust="spacing" textLength="178.5031" x="869.4262" y="354.3546">costumerRepositoryInterface</text><polygon fill="#181818" points="1262.5168,387.8697,1272.5168,391.8697,1262.5168,395.8697,1266.5168,391.8697" style="stroke:#181818;stroke-width:1.0;"/><line style="stroke:#181818;stroke-width:1.0;" x1="840.9902" x2="1268.5168" y1="391.8697" y2="391.8697"/><text fill="#000000" font-family="sans-serif" font-size="13" font-weight="bold" lengthAdjust="spacing" textLength="7.436" x="847.9902" y="386.0607">7</text><text fill="#000000" font-family="sans-serif" font-size="13" lengthAdjust="spacing" textLength="159.3412" x="859.4262" y="386.0607">getAllCostumerInSystem()</text><polygon fill="#181818" points="851.9902,419.5757,841.9902,423.5757,851.9902,427.5757,847.9902,423.5757" style="stroke:#181818;stroke-width:1.0;"/><line style="stroke:#181818;stroke-width:1.0;stroke-dasharray:2.0,2.0;" x1="845.9902" x2="1278.5168" y1="423.5757" y2="423.5757"/><text fill="#000000" font-family="sans-serif" font-size="13" font-weight="bold" lengthAdjust="spacing" textLength="7.436" x="857.9902" y="417.7667">8</text><text fill="#000000" font-family="sans-serif" font-size="13" lengthAdjust="spacing" textLength="134.1341" x="869.4262" y="417.7667">listCostumerInSystem</text><polygon fill="#181818" points="465.0699,451.2817,455.0699,455.2817,465.0699,459.2817,461.0699,455.2817" style="stroke:#181818;stroke-width:1.0;"/><line style="stroke:#181818;stroke-width:1.0;stroke-dasharray:2.0,2.0;" x1="459.0699" x2="829.9902" y1="455.2817" y2="455.2817"/><text fill="#000000" font-family="sans-serif" font-size="13" font-weight="bold" lengthAdjust="spacing" textLength="7.436" x="471.0699" y="449.4727">9</text><text fill="#000000" font-family="sans-serif" font-size="13" lengthAdjust="spacing" textLength="134.1341" x="482.5059" y="449.4727">listCostumerInSystem</text><polygon fill="#181818" points="114.4327,482.9877,104.4327,486.9877,114.4327,490.9877,110.4327,486.9877" style="stroke:#181818;stroke-width:1.0;"/><line style="stroke:#181818;stroke-width:1.0;stroke-dasharray:2.0,2.0;" x1="108.4327" x2="443.0699" y1="486.9877" y2="486.9877"/><text fill="#000000" font-family="sans-serif" font-size="13" font-weight="bold" lengthAdjust="spacing" textLength="14.872" x="120.4327" y="481.1787">10</text><text fill="#000000" font-family="sans-serif" font-size="13" lengthAdjust="spacing" textLength="146.9261" x="139.3047" y="481.1787">ask to select a costumer</text><polygon fill="#181818" points="432.0699,514.6937,442.0699,518.6937,432.0699,522.6937,436.0699,518.6937" style="stroke:#181818;stroke-width:1.0;"/><line style="stroke:#181818;stroke-width:1.0;" x1="103.4327" x2="438.0699" y1="518.6937" y2="518.6937"/><text fill="#000000" font-family="sans-serif" font-size="13" font-weight="bold" lengthAdjust="spacing" textLength="14.872" x="110.4327" y="512.8847">11</text><text fill="#000000" font-family="sans-serif" font-size="13" lengthAdjust="spacing" textLength="107.1461" x="129.3047" y="512.8847">select a costumer</text><polygon fill="#181818" points="818.9902,546.3997,828.9902,550.3997,818.9902,554.3997,822.9902,550.3997" style="stroke:#181818;stroke-width:1.0;"/><line style="stroke:#181818;stroke-width:1.0;" x1="454.0699" x2="824.9902" y1="550.3997" y2="550.3997"/><text fill="#000000" font-family="sans-serif" font-size="13" font-weight="bold" lengthAdjust="spacing" textLength="14.872" x="461.0699" y="544.5907">12</text><text fill="#000000" font-family="sans-serif" font-size="13" lengthAdjust="spacing" textLength="334.0483" x="479.9419" y="544.5907">getShowRequestOfClient(Costumer selectedCostumer)</text><polygon fill="#181818" points="1074.4934,578.1058,1084.4934,582.1058,1074.4934,586.1058,1078.4934,582.1058" style="stroke:#181818;stroke-width:1.0;"/><line style="stroke:#181818;stroke-width:1.0;" x1="840.9902" x2="1080.4934" y1="582.1058" y2="582.1058"/><text fill="#000000" font-family="sans-serif" font-size="13" font-weight="bold" lengthAdjust="spacing" textLength="14.872" x="847.9902" y="576.2968">13</text><text fill="#000000" font-family="sans-serif" font-size="13" lengthAdjust="spacing" textLength="176.1892" x="866.8622" y="576.2968">getShowRequestRepository()</text><polygon fill="#181818" points="1383.5734,609.8118,1393.5734,613.8118,1383.5734,617.8118,1387.5734,613.8118" style="stroke:#181818;stroke-width:1.0;"/><line style="stroke:#181818;stroke-width:1.0;" x1="1096.4934" x2="1389.5734" y1="613.8118" y2="613.8118"/><text fill="#000000" font-family="sans-serif" font-size="13" font-weight="bold" lengthAdjust="spacing" textLength="14.872" x="1103.4934" y="608.0028">14</text><text fill="#000000" font-family="sans-serif" font-size="13" lengthAdjust="spacing" textLength="38.259" x="1122.3654" y="608.0028">create</text><rect fill="#E3E3E3" height="52.1358" rx="2.5" ry="2.5" style="stroke:#181818;stroke-width:0.5;" width="236.9491" x="1395.5734" y="590.1058"/><text fill="#000000" font-family="sans-serif" font-size="14" lengthAdjust="spacing" textLength="218.2172" x="1404.9394" y="612.0717">showRequestRepositoryInterface</text><text fill="#000000" font-family="sans-serif" font-size="14" lengthAdjust="spacing" textLength="222.9491" x="1402.5734" y="631.1396">:ShowRequestRepositoryInterface</text><polygon fill="#181818" points="851.9902,672.9476,841.9902,676.9476,851.9902,680.9476,847.9902,676.9476" style="stroke:#181818;stroke-width:1.0;"/><line style="stroke:#181818;stroke-width:1.0;stroke-dasharray:2.0,2.0;" x1="845.9902" x2="1090.4934" y1="676.9476" y2="676.9476"/><text fill="#000000" font-family="sans-serif" font-size="13" font-weight="bold" lengthAdjust="spacing" textLength="14.872" x="857.9902" y="671.1386">15</text><text fill="#000000" font-family="sans-serif" font-size="13" lengthAdjust="spacing" textLength="202.6312" x="876.8622" y="671.1386">showRequestRepositoryInterface</text><polygon fill="#181818" points="1497.048,704.6536,1507.048,708.6536,1497.048,712.6536,1501.048,708.6536" style="stroke:#181818;stroke-width:1.0;"/><line style="stroke:#181818;stroke-width:1.0;" x1="840.9902" x2="1503.048" y1="708.6536" y2="708.6536"/><text fill="#000000" font-family="sans-serif" font-size="13" font-weight="bold" lengthAdjust="spacing" textLength="14.872" x="847.9902" y="702.8446">16</text><text fill="#000000" font-family="sans-serif" font-size="13" lengthAdjust="spacing" textLength="160.3812" x="866.8622" y="702.8446">getShowRequestOfClient()</text><polygon fill="#181818" points="851.9902,736.3596,841.9902,740.3596,851.9902,744.3596,847.9902,740.3596" style="stroke:#181818;stroke-width:1.0;"/><line style="stroke:#181818;stroke-width:1.0;stroke-dasharray:2.0,2.0;" x1="845.9902" x2="1513.048" y1="740.3596" y2="740.3596"/><text fill="#000000" font-family="sans-serif" font-size="13" font-weight="bold" lengthAdjust="spacing" textLength="14.872" x="857.9902" y="734.5506">17</text><text fill="#000000" font-family="sans-serif" font-size="13" lengthAdjust="spacing" textLength="103.1291" x="876.8622" y="734.5506">showRequestList</text><polygon fill="#181818" points="465.0699,768.0657,455.0699,772.0657,465.0699,776.0657,461.0699,772.0657" style="stroke:#181818;stroke-width:1.0;"/><line style="stroke:#181818;stroke-width:1.0;stroke-dasharray:2.0,2.0;" x1="459.0699" x2="834.9902" y1="772.0657" y2="772.0657"/><text fill="#000000" font-family="sans-serif" font-size="13" font-weight="bold" lengthAdjust="spacing" textLength="14.872" x="471.0699" y="766.2567">18</text><text fill="#000000" font-family="sans-serif" font-size="13" lengthAdjust="spacing" textLength="103.1291" x="489.9419" y="766.2567">showRequestList</text><polygon fill="#181818" points="109.4327,799.7717,99.4327,803.7717,109.4327,807.7717,105.4327,803.7717" style="stroke:#181818;stroke-width:1.0;"/><line style="stroke:#181818;stroke-width:1.0;stroke-dasharray:2.0,2.0;" x1="103.4327" x2="448.0699" y1="803.7717" y2="803.7717"/><text fill="#000000" font-family="sans-serif" font-size="13" font-weight="bold" lengthAdjust="spacing" textLength="14.872" x="115.4327" y="797.9627">19</text><text fill="#000000" font-family="sans-serif" font-size="13" lengthAdjust="spacing" textLength="297.7653" x="134.3047" y="797.9627">show all show request of client selected (if some)</text><!--SRC=[bLLDRwCm4BtpAqOv9PMglNDOQKKlIArs5PhRNbmo95R0JctJAlz-nyOuV1YKvH31UERDntkUw0iNLwPO0uqKiZmhsI0OrMAYmycLbHTsmiBSQWI5fM7YL0yTz9aTvJSN9wXOhJ5933VaUiYXmCyMHOdmmjd9kcwBucK7p_3AjO7YBBzXRrteGrPGrXo5IHBM6YdQvWCLlPT6AjXa-pV8P5sp3waOMNwyCK4rgGqm3QLgx5b2rHXUyYiJ1ZQfJM4p-0I_gyp17t8NSyWVSy-aC8h0VQhiVVyw3bHubPfJIRS_Idxn8wg_8jtFZ2xQ-Ze3TJO2AQKsROFg7fSBWwfY9H9QjdpQzIyr6SQ8-jvA7BHOTN2u-aoa4X-9eu5_CODXrWdGup_W-QSbEwMO2nW9jIMNBT5h0zrFm2GkWf5m2CsE6PwUKig0v34zILsAVYovA6xQOBFTHR0TOS5i7uT0I0Co2F24PZvcZpWA3yX3CcTUGt3ArJ4qxMZcUEzlHH0Xz8YFrJBhlAl6zVohhXV6EEhLAso6wFlg2u_p4Yju0jXLrije5SJAmFRWfHT4fx6crKIowqSNgNOYrmT2HgAZUKKsnBOlrUFXiJVibYcOYIzw7MDKnAWUfOZ8hxl893-OwMz5W-ihvBzbsBVkYraSPwHdluYYhNguUDrsgSSAdG2EvHUB7yI6ZH9Lemq6Hg_kHKstNz08R7a5clvjTrDylms7byNltD1_z_m3]--></g></svg>