<svg xmlns="http://www.w3.org/2000/svg" xmlns:xlink="http://www.w3.org/1999/xlink" contentStyleType="text/css" height="504px" preserveAspectRatio="none" style="width:552px;height:504px;background:#FFFFFF;" version="1.1" viewBox="0 0 552 504" width="552px" zoomAndPan="magnify"><defs/><g><rect fill="none" height="100.0999" style="stroke:#000000;stroke-width:1.5;" width="381.4249" x="10" y="304.304"/><line style="stroke:#181818;stroke-width:0.5;stroke-dasharray:5.0,5.0;" x1="81" x2="81" y1="84.0679" y2="421.404"/><line style="stroke:#181818;stroke-width:0.5;stroke-dasharray:5.0,5.0;" x1="348.1011" x2="348.1011" y1="84.0679" y2="421.404"/><text fill="#000000" font-family="sans-serif" font-size="14" lengthAdjust="spacing" textLength="116.3116" x="20" y="79.9659">CRM Collaborator</text><ellipse cx="81.1558" cy="13.5" fill="#E2E2F0" rx="8" ry="8" style="stroke:#181818;stroke-width:0.5;"/><path d="M81.1558,21.5 L81.1558,48.5 M68.1558,29.5 L94.1558,29.5 M81.1558,48.5 L68.1558,63.5 M81.1558,48.5 L94.1558,63.5 " fill="none" style="stroke:#181818;stroke-width:0.5;"/><text fill="#000000" font-family="sans-serif" font-size="14" lengthAdjust="spacing" textLength="116.3116" x="20" y="435.3699">CRM Collaborator</text><ellipse cx="81.1558" cy="447.9719" fill="#E2E2F0" rx="8" ry="8" style="stroke:#181818;stroke-width:0.5;"/><path d="M81.1558,455.9719 L81.1558,482.9719 M68.1558,463.9719 L94.1558,463.9719 M81.1558,482.9719 L68.1558,497.9719 M81.1558,482.9719 L94.1558,497.9719 " fill="none" style="stroke:#181818;stroke-width:0.5;"/><rect fill="#E2E2F0" height="33.0679" rx="2.5" ry="2.5" style="stroke:#181818;stroke-width:0.5;" width="65.3238" x="316.1011" y="50"/><text fill="#000000" font-family="sans-serif" font-size="14" lengthAdjust="spacing" textLength="51.3238" x="323.1011" y="71.9659">:System</text><rect fill="#E2E2F0" height="33.0679" rx="2.5" ry="2.5" style="stroke:#181818;stroke-width:0.5;" width="65.3238" x="316.1011" y="420.404"/><text fill="#000000" font-family="sans-serif" font-size="14" lengthAdjust="spacing" textLength="51.3238" x="323.1011" y="442.3699">:System</text><polygon fill="#181818" points="336.763,113.7739,346.763,117.7739,336.763,121.7739,340.763,117.7739" style="stroke:#181818;stroke-width:1.0;"/><line style="stroke:#181818;stroke-width:1.0;" x1="81.1558" x2="342.763" y1="117.7739" y2="117.7739"/><text fill="#000000" font-family="sans-serif" font-size="13" lengthAdjust="spacing" textLength="38.4021" x="88.1558" y="111.9649">login()</text><polygon fill="#181818" points="92.1558,145.4799,82.1558,149.4799,92.1558,153.4799,88.1558,149.4799" style="stroke:#181818;stroke-width:1.0;"/><line style="stroke:#181818;stroke-width:1.0;" x1="86.1558" x2="347.763" y1="149.4799" y2="149.4799"/><text fill="#000000" font-family="sans-serif" font-size="13" lengthAdjust="spacing" textLength="85.0201" x="98.1558" y="143.6709">authenticated</text><polygon fill="#181818" points="336.763,177.186,346.763,181.186,336.763,185.186,340.763,181.186" style="stroke:#181818;stroke-width:1.0;"/><line style="stroke:#181818;stroke-width:1.0;" x1="81.1558" x2="342.763" y1="181.186" y2="181.186"/><text fill="#000000" font-family="sans-serif" font-size="13" lengthAdjust="spacing" textLength="164.2162" x="88.1558" y="175.377">listShowRequestsOfClient()</text><polygon fill="#181818" points="92.1558,208.892,82.1558,212.892,92.1558,216.892,88.1558,212.892" style="stroke:#181818;stroke-width:1.0;"/><line style="stroke:#181818;stroke-width:1.0;" x1="86.1558" x2="347.763" y1="212.892" y2="212.892"/><text fill="#000000" font-family="sans-serif" font-size="13" lengthAdjust="spacing" textLength="96.2131" x="98.1558" y="207.083">showClientList()</text><polygon fill="#181818" points="336.763,240.598,346.763,244.598,336.763,248.598,340.763,244.598" style="stroke:#181818;stroke-width:1.0;"/><line style="stroke:#181818;stroke-width:1.0;" x1="81.1558" x2="342.763" y1="244.598" y2="244.598"/><text fill="#000000" font-family="sans-serif" font-size="13" lengthAdjust="spacing" textLength="123.3701" x="88.1558" y="238.789">selectClient(clientId)</text><line style="stroke:#181818;stroke-width:1.0;" x1="348.763" x2="390.763" y1="276.304" y2="276.304"/><line style="stroke:#181818;stroke-width:1.0;" x1="390.763" x2="390.763" y1="276.304" y2="289.304"/><line style="stroke:#181818;stroke-width:1.0;" x1="349.763" x2="390.763" y1="289.304" y2="289.304"/><polygon fill="#181818" points="359.763,285.304,349.763,289.304,359.763,293.304,355.763,289.304" style="stroke:#181818;stroke-width:1.0;"/><text fill="#000000" font-family="sans-serif" font-size="13" lengthAdjust="spacing" textLength="189.7742" x="355.763" y="270.495">retrieveShowRequests(clientId)</text><path d="M10,304.304 L72.459,304.304 L72.459,314.01 L62.459,324.01 L10,324.01 L10,304.304 " fill="#EEEEEE" style="stroke:#000000;stroke-width:1.5;"/><rect fill="none" height="100.0999" style="stroke:#000000;stroke-width:1.5;" width="381.4249" x="10" y="304.304"/><text fill="#000000" font-family="sans-serif" font-size="13" font-weight="bold" lengthAdjust="spacing" textLength="17.459" x="25" y="319.201">alt</text><text fill="#000000" font-family="sans-serif" font-size="11" font-weight="bold" lengthAdjust="spacing" textLength="116.2692" x="87.459" y="318.0629">[show requests exist]</text><polygon fill="#181818" points="92.1558,343.716,82.1558,347.716,92.1558,351.716,88.1558,347.716" style="stroke:#181818;stroke-width:1.0;"/><line style="stroke:#181818;stroke-width:1.0;" x1="86.1558" x2="347.763" y1="347.716" y2="347.716"/><text fill="#000000" font-family="sans-serif" font-size="13" lengthAdjust="spacing" textLength="193.0372" x="98.1558" y="341.907">displayShowRequests(requests)</text><line style="stroke:#000000;stroke-width:1.0;stroke-dasharray:2.0,2.0;" x1="10" x2="391.4249" y1="356.716" y2="356.716"/><text fill="#000000" font-family="sans-serif" font-size="11" font-weight="bold" lengthAdjust="spacing" textLength="103.8502" x="15" y="368.475">[no show requests]</text><polygon fill="#181818" points="92.1558,392.404,82.1558,396.404,92.1558,400.404,88.1558,396.404" style="stroke:#181818;stroke-width:1.0;"/><line style="stroke:#181818;stroke-width:1.0;" x1="86.1558" x2="347.763" y1="396.404" y2="396.404"/><text fill="#000000" font-family="sans-serif" font-size="13" lengthAdjust="spacing" textLength="243.6072" x="98.1558" y="390.595">"No show requests found for this client"</text><!--SRC=[VOvDZi8m34RtEOMLrR3W0bsmwMga0IGuWQSnqqWXAR7B3BV7D22b8vKiykEyxzdOISfWsyCMsXG2VgUCMh60F2kO0RFupWyO1MnplB7GUQBArPYQXlNcMMyWf1yVFrQcl1y_DTa0Zj9JL3SAkMMBPpdswVT0bv5OU7zgWzVO6p4hNg0l3Ikuv6OArCdJrqt7fwkzBp2JP4zNgWUf0XXaQgfS-GFwqyu6T2qDwJmF0Mypuok-CXIO8AQvzQtFxlxHS4fZTBfdaDupb76jeUZC7G00]--></g></svg>