<svg xmlns="http://www.w3.org/2000/svg" xmlns:xlink="http://www.w3.org/1999/xlink" contentStyleType="text/css" height="582px" preserveAspectRatio="none" style="width:703px;height:582px;background:#FFFFFF;" version="1.1" viewBox="0 0 703 582" width="703px" zoomAndPan="magnify"><defs/><g><!--class Customer--><g id="elem_Customer"><rect codeLine="4" fill="#F1F1F1" height="124.2717" id="Customer" rx="2.5" ry="2.5" style="stroke:#181818;stroke-width:0.5;" width="312.0749" x="149.5" y="7"/><ellipse cx="269.0386" cy="23" fill="#ADD1B2" rx="11" ry="11" style="stroke:#181818;stroke-width:1.0;"/><path d="M273.1479,29 L265.4292,29 L265.4292,16.6094 L273.1479,16.6094 L273.1479,18.7656 L267.8823,18.7656 L267.8823,21.4375 L272.6479,21.4375 L272.6479,23.5938 L267.8823,23.5938 L267.8823,26.8438 L273.1479,26.8438 L273.1479,29 Z " fill="#000000"/><text fill="#000000" font-family="sans-serif" font-size="14" lengthAdjust="spacing" textLength="64.4978" x="289.5386" y="28.432">Customer</text><line style="stroke:#181818;stroke-width:0.5;" x1="150.5" x2="460.5749" y1="39" y2="39"/><ellipse cx="160.5" cy="54.034" fill="#000000" rx="3" ry="3" style="stroke:#000000;stroke-width:1.0;"/><text fill="#000000" font-family="sans-serif" font-size="14" lengthAdjust="spacing" textLength="148.7914" x="169.5" y="57.9659">id : String &#171;generated&#187;</text><text fill="#000000" font-family="sans-serif" font-size="14" lengthAdjust="spacing" textLength="9.016" x="169.5" y="77.0339">--</text><ellipse cx="160.5" cy="92.1698" fill="#000000" rx="3" ry="3" style="stroke:#000000;stroke-width:1.0;"/><text fill="#000000" font-family="sans-serif" font-size="14" lengthAdjust="spacing" textLength="87.9197" x="169.5" y="96.1018">name : String</text><ellipse cx="160.5" cy="111.2377" fill="#000000" rx="3" ry="3" style="stroke:#000000;stroke-width:1.0;"/><text fill="#000000" font-family="sans-serif" font-size="14" lengthAdjust="spacing" textLength="286.0749" x="169.5" y="115.1697">status : String &#171;enum&#187; {active, VIP, inactive}</text><line style="stroke:#181818;stroke-width:0.5;" x1="150.5" x2="460.5749" y1="123.2717" y2="123.2717"/></g><!--class ShowRequest--><g id="elem_ShowRequest"><rect codeLine="11" fill="#F1F1F1" height="162.4075" id="ShowRequest" rx="2.5" ry="2.5" style="stroke:#181818;stroke-width:0.5;" width="201.8253" x="204.5" y="210"/><ellipse cx="256.4958" cy="226" fill="#ADD1B2" rx="11" ry="11" style="stroke:#181818;stroke-width:1.0;"/><path d="M260.6052,232 L252.8865,232 L252.8865,219.6094 L260.6052,219.6094 L260.6052,221.7656 L255.3396,221.7656 L255.3396,224.4375 L260.1052,224.4375 L260.1052,226.5938 L255.3396,226.5938 L255.3396,229.8438 L260.6052,229.8438 L260.6052,232 Z " fill="#000000"/><text fill="#000000" font-family="sans-serif" font-size="14" lengthAdjust="spacing" textLength="89.3336" x="276.9958" y="231.432">ShowRequest</text><line style="stroke:#181818;stroke-width:0.5;" x1="205.5" x2="405.3253" y1="242" y2="242"/><ellipse cx="215.5" cy="257.034" fill="#000000" rx="3" ry="3" style="stroke:#000000;stroke-width:1.0;"/><text fill="#000000" font-family="sans-serif" font-size="14" lengthAdjust="spacing" textLength="148.7914" x="224.5" y="260.9659">id : String &#171;generated&#187;</text><text fill="#000000" font-family="sans-serif" font-size="14" lengthAdjust="spacing" textLength="9.016" x="224.5" y="280.0339">--</text><ellipse cx="215.5" cy="295.1698" fill="#000000" rx="3" ry="3" style="stroke:#000000;stroke-width:1.0;"/><text fill="#000000" font-family="sans-serif" font-size="14" lengthAdjust="spacing" textLength="175.8253" x="224.5" y="299.1018">numberOfDrones : Integer</text><ellipse cx="215.5" cy="314.2377" fill="#000000" rx="3" ry="3" style="stroke:#000000;stroke-width:1.0;"/><text fill="#000000" font-family="sans-serif" font-size="14" lengthAdjust="spacing" textLength="116.3536" x="224.5" y="318.1697">duration : Integer</text><ellipse cx="215.5" cy="333.3056" fill="#000000" rx="3" ry="3" style="stroke:#000000;stroke-width:1.0;"/><text fill="#000000" font-family="sans-serif" font-size="14" lengthAdjust="spacing" textLength="159.5014" x="224.5" y="337.2376">creationDate : DateTime</text><ellipse cx="215.5" cy="352.3735" fill="#000000" rx="3" ry="3" style="stroke:#000000;stroke-width:1.0;"/><text fill="#000000" font-family="sans-serif" font-size="14" lengthAdjust="spacing" textLength="90.4537" x="224.5" y="356.3055">status : String</text><line style="stroke:#181818;stroke-width:0.5;" x1="205.5" x2="405.3253" y1="364.4075" y2="364.4075"/></g><!--class ShowDescription--><g id="elem_ShowDescription"><rect codeLine="20" fill="#F1F1F1" height="124.2717" id="ShowDescription" rx="2.5" ry="2.5" style="stroke:#181818;stroke-width:0.5;" width="147.6595" x="444.5" y="451"/><ellipse cx="461.5313" cy="467" fill="#ADD1B2" rx="11" ry="11" style="stroke:#181818;stroke-width:1.0;"/><path d="M465.6407,473 L457.9219,473 L457.9219,460.6094 L465.6407,460.6094 L465.6407,462.7656 L460.375,462.7656 L460.375,465.4375 L465.1407,465.4375 L465.1407,467.5938 L460.375,467.5938 L460.375,470.8438 L465.6407,470.8438 L465.6407,473 Z " fill="#000000"/><text fill="#000000" font-family="sans-serif" font-size="14" lengthAdjust="spacing" textLength="111.1456" x="475.9827" y="472.432">ShowDescription</text><line style="stroke:#181818;stroke-width:0.5;" x1="445.5" x2="591.1595" y1="483" y2="483"/><ellipse cx="455.5" cy="498.034" fill="#000000" rx="3" ry="3" style="stroke:#000000;stroke-width:1.0;"/><text fill="#000000" font-family="sans-serif" font-size="14" lengthAdjust="spacing" textLength="85.1197" x="464.5" y="501.9659">place : String</text><ellipse cx="455.5" cy="517.1019" fill="#000000" rx="3" ry="3" style="stroke:#000000;stroke-width:1.0;"/><text fill="#000000" font-family="sans-serif" font-size="14" lengthAdjust="spacing" textLength="108.8356" x="464.5" y="521.0339">latitude : Double</text><ellipse cx="455.5" cy="536.1698" fill="#000000" rx="3" ry="3" style="stroke:#000000;stroke-width:1.0;"/><text fill="#000000" font-family="sans-serif" font-size="14" lengthAdjust="spacing" textLength="121.6595" x="464.5" y="540.1018">longitude : Double</text><ellipse cx="455.5" cy="555.2377" fill="#000000" rx="3" ry="3" style="stroke:#000000;stroke-width:1.0;"/><text fill="#000000" font-family="sans-serif" font-size="14" lengthAdjust="spacing" textLength="104.0896" x="464.5" y="559.1697">time : DateTime</text><line style="stroke:#181818;stroke-width:0.5;" x1="445.5" x2="591.1595" y1="567.2717" y2="567.2717"/></g><!--class ShowRequestStatus--><g id="elem_ShowRequestStatus"><rect codeLine="27" fill="#F1F1F1" height="105.2038" id="ShowRequestStatus" rx="2.5" ry="2.5" style="stroke:#181818;stroke-width:0.5;" width="171.4034" x="7" y="460.5"/><ellipse cx="26.0788" cy="476.5" fill="#ADD1B2" rx="11" ry="11" style="stroke:#181818;stroke-width:1.0;"/><path d="M30.1881,482.5 L22.4694,482.5 L22.4694,470.1094 L30.1881,470.1094 L30.1881,472.2656 L24.9225,472.2656 L24.9225,474.9375 L29.6881,474.9375 L29.6881,477.0938 L24.9225,477.0938 L24.9225,480.3438 L30.1881,480.3438 L30.1881,482.5 Z " fill="#000000"/><text fill="#000000" font-family="sans-serif" font-size="14" lengthAdjust="spacing" textLength="130.3395" x="40.9852" y="481.932">ShowRequestStatus</text><line style="stroke:#181818;stroke-width:0.5;" x1="8" x2="177.4034" y1="492.5" y2="492.5"/><ellipse cx="18" cy="507.534" fill="#000000" rx="3" ry="3" style="stroke:#000000;stroke-width:1.0;"/><text fill="#000000" font-family="sans-serif" font-size="14" lengthAdjust="spacing" textLength="90.4537" x="27" y="511.4659">status : String</text><ellipse cx="18" cy="526.6019" fill="#000000" rx="3" ry="3" style="stroke:#000000;stroke-width:1.0;"/><text fill="#000000" font-family="sans-serif" font-size="14" lengthAdjust="spacing" textLength="145.4034" x="27" y="530.5339">timestamp : DateTime</text><ellipse cx="18" cy="545.6698" fill="#000000" rx="3" ry="3" style="stroke:#000000;stroke-width:1.0;"/><text fill="#000000" font-family="sans-serif" font-size="14" lengthAdjust="spacing" textLength="123.6615" x="27" y="549.6018">changedBy : String</text><line style="stroke:#181818;stroke-width:0.5;" x1="8" x2="177.4034" y1="557.7038" y2="557.7038"/></g><g id="elem_GMN9"><path d="M497,55 L497,65 L461.51,69 L497,73 L497,82.706 A0,0 0 0 0 497,82.706 L696.4641,82.706 A0,0 0 0 0 696.4641,82.706 L696.4641,65 L686.4641,55 L497,55 A0,0 0 0 0 497,55 " fill="#FEFFDD" style="stroke:#181818;stroke-width:0.5;"/><path d="M686.4641,55 L686.4641,65 L696.4641,65 L686.4641,55 " fill="#FEFFDD" style="stroke:#181818;stroke-width:0.5;"/><text fill="#000000" font-family="sans-serif" font-size="13" lengthAdjust="spacing" textLength="178.4641" x="503" y="73.897">Can be active, VIP, or inactive</text></g><g id="elem_GMN12"><path d="M213.5,499 L213.5,509 L178.05,513 L213.5,517 L213.5,526.706 A0,0 0 0 0 213.5,526.706 L409.5582,526.706 A0,0 0 0 0 409.5582,526.706 L409.5582,509 L399.5582,499 L213.5,499 A0,0 0 0 0 213.5,499 " fill="#FEFFDD" style="stroke:#181818;stroke-width:0.5;"/><path d="M399.5582,499 L399.5582,509 L409.5582,509 L399.5582,499 " fill="#FEFFDD" style="stroke:#181818;stroke-width:0.5;"/><text fill="#000000" font-family="sans-serif" font-size="13" lengthAdjust="spacing" textLength="175.0582" x="219.5" y="517.897">Most recent status displayed</text></g><g id="elem_GMN15"><path d="M442,277 L442,287 L406.53,291 L442,295 L442,304.706 A0,0 0 0 0 442,304.706 L685.4822,304.706 A0,0 0 0 0 685.4822,304.706 L685.4822,287 L675.4822,277 L442,277 A0,0 0 0 0 442,277 " fill="#FEFFDD" style="stroke:#181818;stroke-width:0.5;"/><path d="M675.4822,277 L675.4822,287 L685.4822,287 L675.4822,277 " fill="#FEFFDD" style="stroke:#181818;stroke-width:0.5;"/><text fill="#000000" font-family="sans-serif" font-size="13" lengthAdjust="spacing" textLength="222.4822" x="448" y="295.897">Sorted by creationDate (descending)</text></g><!--link Customer to ShowRequest--><g id="link_Customer_ShowRequest"><path codeLine="34" d="M305.5,139.28 C305.5,163.57 305.5,165.82 305.5,191.7 " fill="none" id="Customer-ShowRequest" style="stroke:#181818;stroke-width:1.0;"/><line style="stroke:#181818;stroke-width:1.0;" x1="301.5" x2="309.5" y1="135.28" y2="135.28"/><line style="stroke:#181818;stroke-width:1.0;" x1="301.5" x2="309.5" y1="138.28" y2="138.28"/><line style="stroke:#181818;stroke-width:1.0;" x1="305.5" x2="305.5" y1="139.28" y2="131.28"/><line style="stroke:#181818;stroke-width:1.0;" x1="305.5" x2="311.5" y1="201.7" y2="209.7"/><line style="stroke:#181818;stroke-width:1.0;" x1="305.5" x2="299.5" y1="201.7" y2="209.7"/><line style="stroke:#181818;stroke-width:1.0;" x1="305.5" x2="305.5" y1="201.7" y2="209.7"/><ellipse cx="305.5" cy="195.7" fill="none" rx="4" ry="4" style="stroke:#181818;stroke-width:1.0;"/><text fill="#000000" font-family="sans-serif" font-size="13" lengthAdjust="spacing" textLength="53.209" x="306.5" y="175.897">requests</text></g><!--link ShowRequest to ShowDescription--><g id="link_ShowRequest_ShowDescription"><path codeLine="35" d="M388.5657,377.7966 C413.7857,403.8366 425.3468,415.7827 448.9968,440.2127 " fill="none" id="ShowRequest-ShowDescription" style="stroke:#181818;stroke-width:1.0;"/><line style="stroke:#181818;stroke-width:1.0;" x1="382.9095" x2="388.6561" y1="377.7061" y2="372.1405"/><line style="stroke:#181818;stroke-width:1.0;" x1="384.9966" x2="390.7432" y1="379.8611" y2="374.2955"/><line style="stroke:#181818;stroke-width:1.0;" x1="388.5657" x2="383" y1="377.7966" y2="372.05"/><line style="stroke:#181818;stroke-width:1.0;" x1="451.779" x2="459.43" y1="443.0867" y2="450.99"/><ellipse cx="451.779" cy="443.0867" fill="none" rx="4" ry="4" style="stroke:#181818;stroke-width:1.0;"/><line style="stroke:#181818;stroke-width:1.0;" x1="459.5218" x2="453.7739" y1="445.3339" y2="450.8982"/><text fill="#000000" font-family="sans-serif" font-size="13" lengthAdjust="spacing" textLength="58.071" x="425.5" y="416.897">describes</text></g><!--link ShowRequest to ShowRequestStatus--><g id="link_ShowRequest_ShowRequestStatus"><path codeLine="36" d="M222.4345,377.7968 C193.8845,407.2768 180.4098,421.1973 154.9398,447.5073 " fill="none" id="ShowRequest-ShowRequestStatus" style="stroke:#181818;stroke-width:1.0;"/><line style="stroke:#181818;stroke-width:1.0;" x1="222.3439" x2="228.0906" y1="372.1406" y2="377.7061"/><line style="stroke:#181818;stroke-width:1.0;" x1="220.2568" x2="226.0036" y1="374.2957" y2="379.8612"/><line style="stroke:#181818;stroke-width:1.0;" x1="222.4345" x2="228" y1="377.7968" y2="372.05"/><line style="stroke:#181818;stroke-width:1.0;" x1="147.9844" x2="146.7309" y1="454.6921" y2="464.6133"/><line style="stroke:#181818;stroke-width:1.0;" x1="147.9844" x2="138.1091" y1="454.6921" y2="456.2667"/><line style="stroke:#181818;stroke-width:1.0;" x1="147.9844" x2="142.42" y1="454.6921" y2="460.44"/><ellipse cx="152.1576" cy="450.3812" fill="none" rx="4" ry="4" style="stroke:#181818;stroke-width:1.0;"/><text fill="#000000" font-family="sans-serif" font-size="13" lengthAdjust="spacing" textLength="59.6311" x="200.5" y="416.897">hasStatus</text></g><!--SRC=[ZLFBRjim4BppAmQvk2sYIufUXC27s0qGe2_KRU-Kk9O8IAHBBbiOTlwzA_e1oqg0dgGTBdTdPuSpFFewHJ9O-bvRXy_UK8Ur3_Yvkdl_0GK-sSXOjVulljFlH94Z_1gBpf9ZfMRuwDYofQXe-DdYPf4Y-vx23NJ4AS1ElOCrAB7YO5s3-_k670NDPEPp1HI593ZTqpb5uiYQKxoyH2xrypbskcRxXsxnw-dRBQmxXCzIvrcTYGoaZvmpbuluF-calgBmTRqCtj50uyanDHJao2J9jTwDm3fG1fTIHWw6pm_RqtIGASybnJhOpN3xpFK2otmtdQv7ydJIZPF9lNogkg5Jvrqp0Tds8qAloRJADA_5Eg2PmlKSXzA2zflnm7MhNKFcONiryqnSr6MHOcitKPtziTyNXT-DTbGY71sdBk6SkPyeLCBagA8NqdSlp5EYrV7mF_3wubbsB8LguSP17eFqTG8YsARbRFeZsH8BxL0HHYwKDtCoujMzIUzItfbG2rJB4awY6XjbmriohzyMBNqGYwBQZitsPfYTd16Ttwf_]--></g></svg>