<svg xmlns="http://www.w3.org/2000/svg" xmlns:xlink="http://www.w3.org/1999/xlink" contentStyleType="text/css" height="723px" preserveAspectRatio="none" style="width:1729px;height:723px;background:#FFFFFF;" version="1.1" viewBox="0 0 1729 723" width="1729px" zoomAndPan="magnify"><defs/><g><rect fill="#FFFFFF" height="541.2344" style="stroke:#181818;stroke-width:1.0;" width="10" x="51.0156" y="91.4883"/><rect fill="#FFFFFF" height="519.9238" style="stroke:#181818;stroke-width:1.0;" width="10" x="274.5659" y="112.7988"/><rect fill="#FFFFFF" height="490.6133" style="stroke:#181818;stroke-width:1.0;" width="10" x="860.7495" y="142.1094"/><rect fill="#FFFFFF" height="87.9316" style="stroke:#181818;stroke-width:1.0;" width="10" x="1152.0781" y="171.4199"/><rect fill="#FFFFFF" height="29.3105" style="stroke:#181818;stroke-width:1.0;" width="10" x="1306.272" y="200.7305"/><rect fill="none" height="237.4395" style="stroke:#000000;stroke-width:1.5;" width="1533.4189" x="188.9805" y="388.2832"/><line style="stroke:#181818;stroke-width:0.5;stroke-dasharray:5.0,5.0;" x1="56" x2="56" y1="81.4883" y2="642.7227"/><line style="stroke:#181818;stroke-width:0.5;stroke-dasharray:5.0,5.0;" x1="278.9805" x2="278.9805" y1="81.4883" y2="642.7227"/><line style="stroke:#181818;stroke-width:0.5;stroke-dasharray:5.0,5.0;" x1="864.9502" x2="864.9502" y1="81.4883" y2="642.7227"/><line style="stroke:#181818;stroke-width:0.5;stroke-dasharray:5.0,5.0;" x1="1156.8057" x2="1156.8057" y1="81.4883" y2="642.7227"/><line style="stroke:#181818;stroke-width:0.5;stroke-dasharray:5.0,5.0;" x1="1310.3506" x2="1310.3506" y1="81.4883" y2="642.7227"/><line style="stroke:#181818;stroke-width:0.5;stroke-dasharray:5.0,5.0;" x1="1487.1934" x2="1487.1934" y1="81.4883" y2="642.7227"/><line style="stroke:#181818;stroke-width:0.5;stroke-dasharray:5.0,5.0;" x1="1653.0742" x2="1653.0742" y1="81.4883" y2="642.7227"/><text fill="#000000" font-family="sans-serif" font-size="14" lengthAdjust="spacing" textLength="96.0313" x="5" y="78.5352">ShowDesigner</text><ellipse cx="56.0156" cy="13.5" fill="#E3E3E3" rx="8" ry="8" style="stroke:#181818;stroke-width:0.5;"/><path d="M56.0156,21.5 L56.0156,48.5 M43.0156,29.5 L69.0156,29.5 M56.0156,48.5 L43.0156,63.5 M56.0156,48.5 L69.0156,63.5 " fill="none" style="stroke:#181818;stroke-width:0.5;"/><text fill="#000000" font-family="sans-serif" font-size="14" lengthAdjust="spacing" textLength="96.0313" x="5" y="655.2578">ShowDesigner</text><ellipse cx="56.0156" cy="666.7109" fill="#E3E3E3" rx="8" ry="8" style="stroke:#181818;stroke-width:0.5;"/><path d="M56.0156,674.7109 L56.0156,701.7109 M43.0156,682.7109 L69.0156,682.7109 M56.0156,701.7109 L43.0156,716.7109 M56.0156,701.7109 L69.0156,716.7109 " fill="none" style="stroke:#181818;stroke-width:0.5;"/><rect fill="#E3E3E3" height="30.4883" rx="2.5" ry="2.5" style="stroke:#181818;stroke-width:0.5;" width="161.1709" x="198.9805" y="50"/><text fill="#000000" font-family="sans-serif" font-size="14" lengthAdjust="spacing" textLength="147.1709" x="205.9805" y="70.5352">:EditFigureCategoryUI</text><rect fill="#E3E3E3" height="30.4883" rx="2.5" ry="2.5" style="stroke:#181818;stroke-width:0.5;" width="161.1709" x="198.9805" y="641.7227"/><text fill="#000000" font-family="sans-serif" font-size="14" lengthAdjust="spacing" textLength="147.1709" x="205.9805" y="662.2578">:EditFigureCategoryUI</text><rect fill="#E3E3E3" height="30.4883" rx="2.5" ry="2.5" style="stroke:#181818;stroke-width:0.5;" width="215.5986" x="757.9502" y="50"/><text fill="#000000" font-family="sans-serif" font-size="14" lengthAdjust="spacing" textLength="201.5986" x="764.9502" y="70.5352">:EditFigureCategoryController</text><rect fill="#E3E3E3" height="30.4883" rx="2.5" ry="2.5" style="stroke:#181818;stroke-width:0.5;" width="215.5986" x="757.9502" y="641.7227"/><text fill="#000000" font-family="sans-serif" font-size="14" lengthAdjust="spacing" textLength="201.5986" x="764.9502" y="662.2578">:EditFigureCategoryController</text><rect fill="#E3E3E3" height="30.4883" rx="2.5" ry="2.5" style="stroke:#181818;stroke-width:0.5;" width="148.5449" x="1082.8057" y="50"/><text fill="#000000" font-family="sans-serif" font-size="14" lengthAdjust="spacing" textLength="134.5449" x="1089.8057" y="70.5352">:PersistenceContext</text><rect fill="#E3E3E3" height="30.4883" rx="2.5" ry="2.5" style="stroke:#181818;stroke-width:0.5;" width="148.5449" x="1082.8057" y="641.7227"/><text fill="#000000" font-family="sans-serif" font-size="14" lengthAdjust="spacing" textLength="134.5449" x="1089.8057" y="662.2578">:PersistenceContext</text><rect fill="#E3E3E3" height="46.9766" rx="2.5" ry="2.5" style="stroke:#181818;stroke-width:0.5;" width="139.8428" x="1241.3506" y="33.5117"/><text fill="#000000" font-family="sans-serif" font-size="14" lengthAdjust="spacing" textLength="46.9287" x="1287.8076" y="54.0469">factory</text><text fill="#000000" font-family="sans-serif" font-size="14" lengthAdjust="spacing" textLength="125.8428" x="1248.3506" y="70.5352">:RepositoryFactory</text><rect fill="#E3E3E3" height="46.9766" rx="2.5" ry="2.5" style="stroke:#181818;stroke-width:0.5;" width="139.8428" x="1241.3506" y="641.7227"/><text fill="#000000" font-family="sans-serif" font-size="14" lengthAdjust="spacing" textLength="46.9287" x="1287.8076" y="662.2578">factory</text><text fill="#000000" font-family="sans-serif" font-size="14" lengthAdjust="spacing" textLength="125.8428" x="1248.3506" y="678.7461">:RepositoryFactory</text><rect fill="#E3E3E3" height="46.9766" rx="2.5" ry="2.5" style="stroke:#181818;stroke-width:0.5;" width="193.8809" x="1391.1934" y="33.5117"/><text fill="#000000" font-family="sans-serif" font-size="14" lengthAdjust="spacing" textLength="69.002" x="1453.6328" y="54.0469">repository</text><text fill="#000000" font-family="sans-serif" font-size="14" lengthAdjust="spacing" textLength="179.8809" x="1398.1934" y="70.5352">:FigureCategoryRepository</text><rect fill="#E3E3E3" height="46.9766" rx="2.5" ry="2.5" style="stroke:#181818;stroke-width:0.5;" width="193.8809" x="1391.1934" y="641.7227"/><text fill="#000000" font-family="sans-serif" font-size="14" lengthAdjust="spacing" textLength="69.002" x="1453.6328" y="662.2578">repository</text><text fill="#000000" font-family="sans-serif" font-size="14" lengthAdjust="spacing" textLength="179.8809" x="1398.1934" y="678.7461">:FigureCategoryRepository</text><rect fill="#E3E3E3" height="30.4883" rx="2.5" ry="2.5" style="stroke:#181818;stroke-width:0.5;" width="117.3252" x="1595.0742" y="50"/><text fill="#000000" font-family="sans-serif" font-size="14" lengthAdjust="spacing" textLength="103.3252" x="1602.0742" y="70.5352">FigureCategory</text><rect fill="#E3E3E3" height="30.4883" rx="2.5" ry="2.5" style="stroke:#181818;stroke-width:0.5;" width="117.3252" x="1595.0742" y="641.7227"/><text fill="#000000" font-family="sans-serif" font-size="14" lengthAdjust="spacing" textLength="103.3252" x="1602.0742" y="662.2578">FigureCategory</text><rect fill="#FFFFFF" height="541.2344" style="stroke:#181818;stroke-width:1.0;" width="10" x="51.0156" y="91.4883"/><rect fill="#FFFFFF" height="519.9238" style="stroke:#181818;stroke-width:1.0;" width="10" x="274.5659" y="112.7988"/><rect fill="#FFFFFF" height="490.6133" style="stroke:#181818;stroke-width:1.0;" width="10" x="860.7495" y="142.1094"/><rect fill="#FFFFFF" height="87.9316" style="stroke:#181818;stroke-width:1.0;" width="10" x="1152.0781" y="171.4199"/><rect fill="#FFFFFF" height="29.3105" style="stroke:#181818;stroke-width:1.0;" width="10" x="1306.272" y="200.7305"/><polygon fill="#181818" points="262.5659,108.7988,272.5659,112.7988,262.5659,116.7988,266.5659,112.7988" style="stroke:#181818;stroke-width:1.0;"/><line style="stroke:#181818;stroke-width:1.0;" x1="61.0156" x2="268.5659" y1="112.7988" y2="112.7988"/><text fill="#000000" font-family="sans-serif" font-size="13" font-weight="bold" lengthAdjust="spacing" textLength="8.5757" x="68.0156" y="108.0566">1</text><text fill="#000000" font-family="sans-serif" font-size="13" lengthAdjust="spacing" textLength="181.9746" x="80.5913" y="108.0566">requests edit figure category</text><polygon fill="#181818" points="848.7495,138.1094,858.7495,142.1094,848.7495,146.1094,852.7495,142.1094" style="stroke:#181818;stroke-width:1.0;"/><line style="stroke:#181818;stroke-width:1.0;" x1="284.5659" x2="854.7495" y1="142.1094" y2="142.1094"/><text fill="#000000" font-family="sans-serif" font-size="13" font-weight="bold" lengthAdjust="spacing" textLength="8.5757" x="291.5659" y="137.3672">2</text><text fill="#000000" font-family="sans-serif" font-size="13" lengthAdjust="spacing" textLength="46.96" x="304.1416" y="137.3672">create()</text><polygon fill="#181818" points="1140.0781,167.4199,1150.0781,171.4199,1140.0781,175.4199,1144.0781,171.4199" style="stroke:#181818;stroke-width:1.0;"/><line style="stroke:#181818;stroke-width:1.0;" x1="870.7495" x2="1146.0781" y1="171.4199" y2="171.4199"/><text fill="#000000" font-family="sans-serif" font-size="13" font-weight="bold" lengthAdjust="spacing" textLength="8.5757" x="877.7495" y="166.6777">3</text><text fill="#000000" font-family="sans-serif" font-size="13" lengthAdjust="spacing" textLength="83.3638" x="890.3252" y="166.6777">repositories()</text><polygon fill="#181818" points="1294.272,196.7305,1304.272,200.7305,1294.272,204.7305,1298.272,200.7305" style="stroke:#181818;stroke-width:1.0;"/><line style="stroke:#181818;stroke-width:1.0;" x1="1162.0781" x2="1300.272" y1="200.7305" y2="200.7305"/><text fill="#000000" font-family="sans-serif" font-size="13" font-weight="bold" lengthAdjust="spacing" textLength="8.5757" x="1169.0781" y="195.9883">4</text><text fill="#000000" font-family="sans-serif" font-size="13" lengthAdjust="spacing" textLength="46.96" x="1181.6538" y="195.9883">create()</text><polygon fill="#181818" points="1476.1338,226.041,1486.1338,230.041,1476.1338,234.041,1480.1338,230.041" style="stroke:#181818;stroke-width:1.0;"/><line style="stroke:#181818;stroke-width:1.0;" x1="1311.272" x2="1482.1338" y1="230.041" y2="230.041"/><text fill="#000000" font-family="sans-serif" font-size="13" font-weight="bold" lengthAdjust="spacing" textLength="8.5757" x="1318.272" y="225.2988">5</text><text fill="#000000" font-family="sans-serif" font-size="13" lengthAdjust="spacing" textLength="46.96" x="1330.8477" y="225.2988">create()</text><polygon fill="#181818" points="881.7495,255.3516,871.7495,259.3516,881.7495,263.3516,877.7495,259.3516" style="stroke:#181818;stroke-width:1.0;"/><line style="stroke:#181818;stroke-width:1.0;" x1="875.7495" x2="1156.0781" y1="259.3516" y2="259.3516"/><text fill="#000000" font-family="sans-serif" font-size="13" font-weight="bold" lengthAdjust="spacing" textLength="8.5757" x="887.7495" y="254.6094">6</text><text fill="#000000" font-family="sans-serif" font-size="13" lengthAdjust="spacing" textLength="162.9189" x="900.3252" y="254.6094">FigureCategoryRepository</text><line style="stroke:#181818;stroke-width:1.0;" x1="284.5659" x2="326.5659" y1="288.6621" y2="288.6621"/><line style="stroke:#181818;stroke-width:1.0;" x1="326.5659" x2="326.5659" y1="288.6621" y2="301.6621"/><line style="stroke:#181818;stroke-width:1.0;" x1="285.5659" x2="326.5659" y1="301.6621" y2="301.6621"/><polygon fill="#181818" points="295.5659,297.6621,285.5659,301.6621,295.5659,305.6621,291.5659,301.6621" style="stroke:#181818;stroke-width:1.0;"/><text fill="#000000" font-family="sans-serif" font-size="13" font-weight="bold" lengthAdjust="spacing" textLength="8.5757" x="291.5659" y="283.9199">7</text><text fill="#000000" font-family="sans-serif" font-size="13" lengthAdjust="spacing" textLength="57.6938" x="304.1416" y="283.9199">doShow()</text><polygon fill="#181818" points="848.7495,326.9727,858.7495,330.9727,848.7495,334.9727,852.7495,330.9727" style="stroke:#181818;stroke-width:1.0;"/><line style="stroke:#181818;stroke-width:1.0;" x1="284.5659" x2="854.7495" y1="330.9727" y2="330.9727"/><text fill="#000000" font-family="sans-serif" font-size="13" font-weight="bold" lengthAdjust="spacing" textLength="8.5757" x="291.5659" y="326.2305">8</text><text fill="#000000" font-family="sans-serif" font-size="13" lengthAdjust="spacing" textLength="315.853" x="304.1416" y="326.2305">editFigureCategory(id, newName, newDescription)</text><line style="stroke:#181818;stroke-width:1.0;" x1="870.7495" x2="912.7495" y1="360.2832" y2="360.2832"/><line style="stroke:#181818;stroke-width:1.0;" x1="912.7495" x2="912.7495" y1="360.2832" y2="373.2832"/><line style="stroke:#181818;stroke-width:1.0;" x1="871.7495" x2="912.7495" y1="373.2832" y2="373.2832"/><polygon fill="#181818" points="881.7495,369.2832,871.7495,373.2832,881.7495,377.2832,877.7495,373.2832" style="stroke:#181818;stroke-width:1.0;"/><text fill="#000000" font-family="sans-serif" font-size="13" font-weight="bold" lengthAdjust="spacing" textLength="8.5757" x="877.7495" y="355.541">9</text><text fill="#000000" font-family="sans-serif" font-size="13" lengthAdjust="spacing" textLength="244.7529" x="890.3252" y="355.541">validate(id, newName, newDescription)</text><path d="M188.9805,388.2832 L251.1191,388.2832 L251.1191,395.5938 L241.1191,405.5938 L188.9805,405.5938 L188.9805,388.2832 " fill="#EEEEEE" style="stroke:#000000;stroke-width:1.5;"/><rect fill="none" height="237.4395" style="stroke:#000000;stroke-width:1.5;" width="1533.4189" x="188.9805" y="388.2832"/><text fill="#000000" font-family="sans-serif" font-size="13" font-weight="bold" lengthAdjust="spacing" textLength="17.1387" x="203.9805" y="401.8516">alt</text><text fill="#000000" font-family="sans-serif" font-size="11" font-weight="bold" lengthAdjust="spacing" textLength="291.4087" x="266.1191" y="400.918">[invalid input, duplicate name, or inactive category]</text><polygon fill="#181818" points="295.5659,422.9043,285.5659,426.9043,295.5659,430.9043,291.5659,426.9043" style="stroke:#181818;stroke-width:1.0;"/><line style="stroke:#181818;stroke-width:1.0;" x1="289.5659" x2="859.7495" y1="426.9043" y2="426.9043"/><text fill="#000000" font-family="sans-serif" font-size="13" font-weight="bold" lengthAdjust="spacing" textLength="17.1514" x="301.5659" y="422.1621">10</text><text fill="#000000" font-family="sans-serif" font-size="13" lengthAdjust="spacing" textLength="531.0322" x="322.7173" y="422.1621">errorMessage("Invalid or duplicate category name/description, or category inactive")</text><line style="stroke:#000000;stroke-width:1.0;stroke-dasharray:2.0,2.0;" x1="188.9805" x2="1722.3994" y1="435.9043" y2="435.9043"/><text fill="#000000" font-family="sans-serif" font-size="11" font-weight="bold" lengthAdjust="spacing" textLength="68.9863" x="193.9805" y="446.5391">[valid input]</text><polygon fill="#181818" points="1476.1338,467.1699,1486.1338,471.1699,1476.1338,475.1699,1480.1338,471.1699" style="stroke:#181818;stroke-width:1.0;"/><line style="stroke:#181818;stroke-width:1.0;" x1="870.7495" x2="1482.1338" y1="471.1699" y2="471.1699"/><text fill="#000000" font-family="sans-serif" font-size="13" font-weight="bold" lengthAdjust="spacing" textLength="17.1514" x="877.7495" y="466.4277">11</text><text fill="#000000" font-family="sans-serif" font-size="13" lengthAdjust="spacing" textLength="71.3794" x="898.9009" y="466.4277">findById(id)</text><polygon fill="#181818" points="881.7495,496.4805,871.7495,500.4805,881.7495,504.4805,877.7495,500.4805" style="stroke:#181818;stroke-width:1.0;"/><line style="stroke:#181818;stroke-width:1.0;" x1="875.7495" x2="1487.1338" y1="500.4805" y2="500.4805"/><text fill="#000000" font-family="sans-serif" font-size="13" font-weight="bold" lengthAdjust="spacing" textLength="17.1514" x="887.7495" y="495.7383">12</text><text fill="#000000" font-family="sans-serif" font-size="13" lengthAdjust="spacing" textLength="95.9448" x="908.9009" y="495.7383">FigureCategory</text><polygon fill="#181818" points="1641.7368,525.791,1651.7368,529.791,1641.7368,533.791,1645.7368,529.791" style="stroke:#181818;stroke-width:1.0;"/><line style="stroke:#181818;stroke-width:1.0;" x1="870.7495" x2="1647.7368" y1="529.791" y2="529.791"/><text fill="#000000" font-family="sans-serif" font-size="13" font-weight="bold" lengthAdjust="spacing" textLength="17.1514" x="877.7495" y="525.0488">13</text><text fill="#000000" font-family="sans-serif" font-size="13" lengthAdjust="spacing" textLength="219.4131" x="898.9009" y="525.0488">update(newName, newDescription)</text><polygon fill="#181818" points="1476.1338,555.1016,1486.1338,559.1016,1476.1338,563.1016,1480.1338,559.1016" style="stroke:#181818;stroke-width:1.0;"/><line style="stroke:#181818;stroke-width:1.0;" x1="870.7495" x2="1482.1338" y1="559.1016" y2="559.1016"/><text fill="#000000" font-family="sans-serif" font-size="13" font-weight="bold" lengthAdjust="spacing" textLength="17.1514" x="877.7495" y="554.3594">14</text><text fill="#000000" font-family="sans-serif" font-size="13" lengthAdjust="spacing" textLength="132.1772" x="898.9009" y="554.3594">save(FigureCategory)</text><polygon fill="#181818" points="881.7495,584.4121,871.7495,588.4121,881.7495,592.4121,877.7495,588.4121" style="stroke:#181818;stroke-width:1.0;"/><line style="stroke:#181818;stroke-width:1.0;" x1="875.7495" x2="1487.1338" y1="588.4121" y2="588.4121"/><text fill="#000000" font-family="sans-serif" font-size="13" font-weight="bold" lengthAdjust="spacing" textLength="17.1514" x="887.7495" y="583.6699">15</text><text fill="#000000" font-family="sans-serif" font-size="13" lengthAdjust="spacing" textLength="80.5581" x="908.9009" y="583.6699">confirmation</text><polygon fill="#181818" points="295.5659,613.7227,285.5659,617.7227,295.5659,621.7227,291.5659,617.7227" style="stroke:#181818;stroke-width:1.0;"/><line style="stroke:#181818;stroke-width:1.0;" x1="289.5659" x2="859.7495" y1="617.7227" y2="617.7227"/><text fill="#000000" font-family="sans-serif" font-size="13" font-weight="bold" lengthAdjust="spacing" textLength="17.1514" x="301.5659" y="612.9805">16</text><text fill="#000000" font-family="sans-serif" font-size="13" lengthAdjust="spacing" textLength="313.168" x="322.7173" y="612.9805">successMessage("Category updated successfully")</text><!--SRC=[XLDDZziW5BpxLppbb4XRzUx3IbitaInrirO-3fKgLHIU7RGsk82Jvj_tWHt799lM5mpCp1i6ddsNgcM6DT1efVd1w0R1cGuJE-wqZB-p2hVkN2COv8wfgfu2x849VPAgWfBL5fE4TKwhhlc5XlwvqmPcsuC-VKKhAuLc1ip2IxPxsoGau2INBLCEPkbIIBUILMSmOmuhRSxxF83t-N-HcLREwBeUvBFTvjiDfq1ZfNMeE7em_d41MMGnhWoEppzKki5MM-adgtuju5V1-VUV-NgxUrbdovXjHWu9n0wlSa5diopUOcuCxuj5Io5DUQJP45yI1lZqJ0b1IfVpkqFhB2350sNW0hydKvo49vPFYNZS82tF5nD8o2zi4wp8lFRWNg8bv0Ya-8hCWsvpcSYEuBliRXUya0zcGXRucDvNzZPJU1JsL83C3YVVvoa8xL-bF_OrZJHa5slDfNW2XQSrQp3yq4FcHhPEQhKOG-hPHrPBuOt_ayDg1r85B8rjvvv0T6qj_Ls12XHg6gc2ySaL0dsNUlu4Q8mshsWjzUTybW-AHBsgNRX1zhEukWWbnjrBhTaYGUfXc7YBglQNKqeblfnpGQTSX6s__EWg8dwybKBNXhGU9dLVsx8ZpcEPZpnmhKff6kPbxdAp7UUKsfZSHMYm8ow0iglhiuz4YMJwZa9tJERKK9DPtvj_0G00]--></g></svg>