<svg xmlns="http://www.w3.org/2000/svg" xmlns:xlink="http://www.w3.org/1999/xlink" contentStyleType="text/css" height="1359px" preserveAspectRatio="none" style="width:2763px;height:1359px;background:#FFFFFF;" version="1.1" viewBox="0 0 2763 1359" width="2763px" zoomAndPan="magnify"><title>UI Sequence Diagram (SSD) - Edit Figure Category</title><defs/><g><text fill="#000000" font-family="sans-serif" font-size="14" font-weight="bold" lengthAdjust="spacing" textLength="360.9648" x="1200.498" y="28.5352">UI Sequence Diagram (SSD) - Edit Figure Category</text><rect fill="#FFFFFF" height="641.5215" style="stroke:#181818;stroke-width:1.0;" width="10" x="53.2305" y="128.9766"/><rect fill="#FFFFFF" height="620.2109" style="stroke:#181818;stroke-width:1.0;" width="10" x="391.6904" y="150.2871"/><rect fill="#FFFFFF" height="356.416" style="stroke:#181818;stroke-width:1.0;" width="10" x="923.6523" y="414.082"/><rect fill="#FFFFFF" height="157.5527" style="stroke:#181818;stroke-width:1.0;" width="10" x="928.6523" y="451.3926"/><rect fill="#FFFFFF" height="431.0137" style="stroke:#181818;stroke-width:1.0;" width="10" x="923.6523" y="799.8086"/><rect fill="#FFFFFF" height="29.3105" style="stroke:#181818;stroke-width:1.0;" width="10" x="1326.459" y="485.7031"/><rect fill="#FFFFFF" height="29.3105" style="stroke:#181818;stroke-width:1.0;" width="10" x="1438.6836" y="544.3242"/><rect fill="#FFFFFF" height="29.3105" style="stroke:#181818;stroke-width:1.0;" width="10" x="1596.7363" y="179.5977"/><rect fill="#FFFFFF" height="29.3105" style="stroke:#181818;stroke-width:1.0;" width="10" x="1596.7363" y="296.8398"/><rect fill="#FFFFFF" height="29.3105" style="stroke:#181818;stroke-width:1.0;" width="10" x="1596.7363" y="880.3848"/><rect fill="#FFFFFF" height="213.8184" style="stroke:#181818;stroke-width:1.0;" width="10" x="1937.5947" y="645.2559"/><rect fill="#FFFFFF" height="47.9766" style="stroke:#181818;stroke-width:1.0;" width="10" x="2108.9741" y="949.0059"/><rect fill="#FFFFFF" height="29.3105" style="stroke:#181818;stroke-width:1.0;" width="10" x="2266.5859" y="1113.5801"/><rect fill="#FFFFFF" height="29.3105" style="stroke:#181818;stroke-width:1.0;" width="10" x="2493.9072" y="1172.2012"/><rect fill="#FFFFFF" height="47.9766" style="stroke:#181818;stroke-width:1.0;" width="10" x="2693.7275" y="1036.293"/><rect fill="none" height="149.5078" style="stroke:#000000;stroke-width:1.5;" width="1746.9917" x="306.105" y="702.5664"/><line style="stroke:#181818;stroke-width:0.5;stroke-dasharray:5.0,5.0;" x1="58" x2="58" y1="118.9766" y2="1278.1328"/><line style="stroke:#181818;stroke-width:0.5;stroke-dasharray:5.0,5.0;" x1="396.105" x2="396.105" y1="118.9766" y2="1278.1328"/><line style="stroke:#181818;stroke-width:0.5;stroke-dasharray:5.0,5.0;" x1="927.853" x2="927.853" y1="118.9766" y2="1278.1328"/><line style="stroke:#181818;stroke-width:0.5;stroke-dasharray:5.0,5.0;" x1="1174.4307" x2="1174.4307" y1="118.9766" y2="1278.1328"/><line style="stroke:#181818;stroke-width:0.5;stroke-dasharray:5.0,5.0;" x1="1331.3467" x2="1331.3467" y1="118.9766" y2="1278.1328"/><line style="stroke:#181818;stroke-width:0.5;stroke-dasharray:5.0,5.0;" x1="1443.5713" x2="1443.5713" y1="118.9766" y2="1278.1328"/><line style="stroke:#181818;stroke-width:0.5;stroke-dasharray:5.0,5.0;" x1="1600.7959" x2="1600.7959" y1="118.9766" y2="1278.1328"/><line style="stroke:#181818;stroke-width:0.5;stroke-dasharray:5.0,5.0;" x1="1769.6768" x2="1769.6768" y1="118.9766" y2="1278.1328"/><line style="stroke:#181818;stroke-width:0.5;stroke-dasharray:5.0,5.0;" x1="1942.0928" x2="1942.0928" y1="118.9766" y2="1278.1328"/><line style="stroke:#181818;stroke-width:0.5;stroke-dasharray:5.0,5.0;" x1="2113.0967" x2="2113.0967" y1="956.6836" y2="1278.1328"/><line style="stroke:#181818;stroke-width:0.5;stroke-dasharray:5.0,5.0;" x1="2270.8516" x2="2270.8516" y1="118.9766" y2="1278.1328"/><line style="stroke:#181818;stroke-width:0.5;stroke-dasharray:5.0,5.0;" x1="2498.3203" x2="2498.3203" y1="118.9766" y2="1278.1328"/><line style="stroke:#181818;stroke-width:0.5;stroke-dasharray:5.0,5.0;" x1="2698.4941" x2="2698.4941" y1="1043.9707" y2="1278.1328"/><text fill="#000000" font-family="sans-serif" font-size="14" lengthAdjust="spacing" textLength="100.4609" x="5" y="116.0234">Show Designer</text><ellipse cx="58.2305" cy="50.9883" fill="#E3E3E3" rx="8" ry="8" style="stroke:#181818;stroke-width:0.5;"/><path d="M58.2305,58.9883 L58.2305,85.9883 M45.2305,66.9883 L71.2305,66.9883 M58.2305,85.9883 L45.2305,100.9883 M58.2305,85.9883 L71.2305,100.9883 " fill="none" style="stroke:#181818;stroke-width:0.5;"/><text fill="#000000" font-family="sans-serif" font-size="14" lengthAdjust="spacing" textLength="100.4609" x="5" y="1290.668">Show Designer</text><ellipse cx="58.2305" cy="1302.1211" fill="#E3E3E3" rx="8" ry="8" style="stroke:#181818;stroke-width:0.5;"/><path d="M58.2305,1310.1211 L58.2305,1337.1211 M45.2305,1318.1211 L71.2305,1318.1211 M58.2305,1337.1211 L45.2305,1352.1211 M58.2305,1337.1211 L71.2305,1352.1211 " fill="none" style="stroke:#181818;stroke-width:0.5;"/><rect fill="#E3E3E3" height="30.4883" rx="2.5" ry="2.5" style="stroke:#181818;stroke-width:0.5;" width="161.1709" x="316.105" y="87.4883"/><text fill="#000000" font-family="sans-serif" font-size="14" lengthAdjust="spacing" textLength="147.1709" x="323.105" y="108.0234">:EditFigureCategoryUI</text><rect fill="#E3E3E3" height="30.4883" rx="2.5" ry="2.5" style="stroke:#181818;stroke-width:0.5;" width="161.1709" x="316.105" y="1277.1328"/><text fill="#000000" font-family="sans-serif" font-size="14" lengthAdjust="spacing" textLength="147.1709" x="323.105" y="1297.668">:EditFigureCategoryUI</text><rect fill="#E3E3E3" height="30.4883" rx="2.5" ry="2.5" style="stroke:#181818;stroke-width:0.5;" width="215.5986" x="820.853" y="87.4883"/><text fill="#000000" font-family="sans-serif" font-size="14" lengthAdjust="spacing" textLength="201.5986" x="827.853" y="108.0234">:EditFigureCategoryController</text><rect fill="#E3E3E3" height="30.4883" rx="2.5" ry="2.5" style="stroke:#181818;stroke-width:0.5;" width="215.5986" x="820.853" y="1277.1328"/><text fill="#000000" font-family="sans-serif" font-size="14" lengthAdjust="spacing" textLength="201.5986" x="827.853" y="1297.668">:EditFigureCategoryController</text><rect fill="#E3E3E3" height="46.9766" rx="2.5" ry="2.5" style="stroke:#181818;stroke-width:0.5;" width="189.916" x="1080.4307" y="71"/><text fill="#000000" font-family="sans-serif" font-size="14" lengthAdjust="spacing" textLength="169.1279" x="1090.8247" y="91.5352">figureCategoryController</text><text fill="#000000" font-family="sans-serif" font-size="14" lengthAdjust="spacing" textLength="175.916" x="1087.4307" y="108.0234">:FigureCategoryController</text><rect fill="#E3E3E3" height="46.9766" rx="2.5" ry="2.5" style="stroke:#181818;stroke-width:0.5;" width="189.916" x="1080.4307" y="1277.1328"/><text fill="#000000" font-family="sans-serif" font-size="14" lengthAdjust="spacing" textLength="169.1279" x="1090.8247" y="1297.668">figureCategoryController</text><text fill="#000000" font-family="sans-serif" font-size="14" lengthAdjust="spacing" textLength="175.916" x="1087.4307" y="1314.1563">:FigureCategoryController</text><rect fill="#E3E3E3" height="30.4883" rx="2.5" ry="2.5" style="stroke:#181818;stroke-width:0.5;" width="102.2246" x="1280.3467" y="87.4883"/><text fill="#000000" font-family="sans-serif" font-size="14" lengthAdjust="spacing" textLength="88.2246" x="1287.3467" y="108.0234">:Repositories</text><rect fill="#E3E3E3" height="30.4883" rx="2.5" ry="2.5" style="stroke:#181818;stroke-width:0.5;" width="102.2246" x="1280.3467" y="1277.1328"/><text fill="#000000" font-family="sans-serif" font-size="14" lengthAdjust="spacing" textLength="88.2246" x="1287.3467" y="1297.668">:Repositories</text><rect fill="#E3E3E3" height="46.9766" rx="2.5" ry="2.5" style="stroke:#181818;stroke-width:0.5;" width="102.2246" x="1392.5713" y="71"/><text fill="#000000" font-family="sans-serif" font-size="14" lengthAdjust="spacing" textLength="80.6709" x="1403.3481" y="91.5352">repositories</text><text fill="#000000" font-family="sans-serif" font-size="14" lengthAdjust="spacing" textLength="88.2246" x="1399.5713" y="108.0234">:Repositories</text><rect fill="#E3E3E3" height="46.9766" rx="2.5" ry="2.5" style="stroke:#181818;stroke-width:0.5;" width="102.2246" x="1392.5713" y="1277.1328"/><text fill="#000000" font-family="sans-serif" font-size="14" lengthAdjust="spacing" textLength="80.6709" x="1403.3481" y="1297.668">repositories</text><text fill="#000000" font-family="sans-serif" font-size="14" lengthAdjust="spacing" textLength="88.2246" x="1399.5713" y="1314.1563">:Repositories</text><rect fill="#E3E3E3" height="46.9766" rx="2.5" ry="2.5" style="stroke:#181818;stroke-width:0.5;" width="193.8809" x="1504.7959" y="71"/><text fill="#000000" font-family="sans-serif" font-size="14" lengthAdjust="spacing" textLength="173.0928" x="1515.1899" y="91.5352">figureCategoryRepository</text><text fill="#000000" font-family="sans-serif" font-size="14" lengthAdjust="spacing" textLength="179.8809" x="1511.7959" y="108.0234">:FigureCategoryRepository</text><rect fill="#E3E3E3" height="46.9766" rx="2.5" ry="2.5" style="stroke:#181818;stroke-width:0.5;" width="193.8809" x="1504.7959" y="1277.1328"/><text fill="#000000" font-family="sans-serif" font-size="14" lengthAdjust="spacing" textLength="173.0928" x="1515.1899" y="1297.668">figureCategoryRepository</text><text fill="#000000" font-family="sans-serif" font-size="14" lengthAdjust="spacing" textLength="179.8809" x="1511.7959" y="1314.1563">:FigureCategoryRepository</text><rect fill="#E3E3E3" height="46.9766" rx="2.5" ry="2.5" style="stroke:#181818;stroke-width:0.5;" width="123.416" x="1708.6768" y="71"/><text fill="#000000" font-family="sans-serif" font-size="14" lengthAdjust="spacing" textLength="102.6279" x="1719.0708" y="91.5352">factoryProvider</text><text fill="#000000" font-family="sans-serif" font-size="14" lengthAdjust="spacing" textLength="109.416" x="1715.6768" y="108.0234">:factories.impl.FactoryProvider</text><rect fill="#E3E3E3" height="46.9766" rx="2.5" ry="2.5" style="stroke:#181818;stroke-width:0.5;" width="123.416" x="1708.6768" y="1277.1328"/><text fill="#000000" font-family="sans-serif" font-size="14" lengthAdjust="spacing" textLength="102.6279" x="1719.0708" y="1297.668">factoryProvider</text><text fill="#000000" font-family="sans-serif" font-size="14" lengthAdjust="spacing" textLength="109.416" x="1715.6768" y="1314.1563">:factories.impl.FactoryProvider</text><rect fill="#E3E3E3" height="46.9766" rx="2.5" ry="2.5" style="stroke:#181818;stroke-width:0.5;" width="201.0039" x="1842.0928" y="71"/><text fill="#000000" font-family="sans-serif" font-size="14" lengthAdjust="spacing" textLength="180.2158" x="1852.4868" y="91.5352">figureCategoryFactoryImpl</text><text fill="#000000" font-family="sans-serif" font-size="14" lengthAdjust="spacing" textLength="187.0039" x="1849.0928" y="108.0234">:FigureCategoryFactoryImpl</text><rect fill="#E3E3E3" height="46.9766" rx="2.5" ry="2.5" style="stroke:#181818;stroke-width:0.5;" width="201.0039" x="1842.0928" y="1277.1328"/><text fill="#000000" font-family="sans-serif" font-size="14" lengthAdjust="spacing" textLength="180.2158" x="1852.4868" y="1297.668">figureCategoryFactoryImpl</text><text fill="#000000" font-family="sans-serif" font-size="14" lengthAdjust="spacing" textLength="187.0039" x="1849.0928" y="1314.1563">:FigureCategoryFactoryImpl</text><rect fill="#E3E3E3" height="46.9766" rx="2.5" ry="2.5" style="stroke:#181818;stroke-width:0.5;" width="121.7549" x="2053.0967" y="1277.1328"/><text fill="#000000" font-family="sans-serif" font-size="14" lengthAdjust="spacing" textLength="100.9668" x="2063.4907" y="1297.668">figureCategory</text><text fill="#000000" font-family="sans-serif" font-size="14" lengthAdjust="spacing" textLength="107.7549" x="2060.0967" y="1314.1563">:FigureCategory</text><rect fill="#E3E3E3" height="46.9766" rx="2.5" ry="2.5" style="stroke:#181818;stroke-width:0.5;" width="173.4688" x="2184.8516" y="71"/><text fill="#000000" font-family="sans-serif" font-size="14" lengthAdjust="spacing" textLength="152.6807" x="2195.2456" y="91.5352">figureCategoryJPAImpl</text><text fill="#000000" font-family="sans-serif" font-size="14" lengthAdjust="spacing" textLength="159.4688" x="2191.8516" y="108.0234">:FigureCategoryJPAImpl</text><rect fill="#E3E3E3" height="46.9766" rx="2.5" ry="2.5" style="stroke:#181818;stroke-width:0.5;" width="173.4688" x="2184.8516" y="1277.1328"/><text fill="#000000" font-family="sans-serif" font-size="14" lengthAdjust="spacing" textLength="152.6807" x="2195.2456" y="1297.668">figureCategoryJPAImpl</text><text fill="#000000" font-family="sans-serif" font-size="14" lengthAdjust="spacing" textLength="159.4688" x="2191.8516" y="1314.1563">:FigureCategoryJPAImpl</text><rect fill="#E3E3E3" height="46.9766" rx="2.5" ry="2.5" style="stroke:#181818;stroke-width:0.5;" width="261.1738" x="2368.3203" y="71"/><text fill="#000000" font-family="sans-serif" font-size="14" lengthAdjust="spacing" textLength="242.7578" x="2377.5283" y="91.5352">inMemoryFigureCategoryRepository</text><text fill="#000000" font-family="sans-serif" font-size="14" lengthAdjust="spacing" textLength="247.1738" x="2375.3203" y="108.0234">:InMemoryFigureCategoryRepository</text><rect fill="#E3E3E3" height="46.9766" rx="2.5" ry="2.5" style="stroke:#181818;stroke-width:0.5;" width="261.1738" x="2368.3203" y="1277.1328"/><text fill="#000000" font-family="sans-serif" font-size="14" lengthAdjust="spacing" textLength="242.7578" x="2377.5283" y="1297.668">inMemoryFigureCategoryRepository</text><text fill="#000000" font-family="sans-serif" font-size="14" lengthAdjust="spacing" textLength="247.1738" x="2375.3203" y="1314.1563">:InMemoryFigureCategoryRepository</text><rect fill="#E3E3E3" height="46.9766" rx="2.5" ry="2.5" style="stroke:#181818;stroke-width:0.5;" width="118.4668" x="2639.4941" y="1277.1328"/><text fill="#000000" font-family="sans-serif" font-size="14" lengthAdjust="spacing" textLength="96.6191" x="2650.418" y="1297.668">localDateTime</text><text fill="#000000" font-family="sans-serif" font-size="14" lengthAdjust="spacing" textLength="104.4668" x="2646.4941" y="1314.1563">:LocalDateTime</text><rect fill="#FFFFFF" height="641.5215" style="stroke:#181818;stroke-width:1.0;" width="10" x="53.2305" y="128.9766"/><rect fill="#FFFFFF" height="620.2109" style="stroke:#181818;stroke-width:1.0;" width="10" x="391.6904" y="150.2871"/><rect fill="#FFFFFF" height="356.416" style="stroke:#181818;stroke-width:1.0;" width="10" x="923.6523" y="414.082"/><rect fill="#FFFFFF" height="157.5527" style="stroke:#181818;stroke-width:1.0;" width="10" x="928.6523" y="451.3926"/><rect fill="#FFFFFF" height="431.0137" style="stroke:#181818;stroke-width:1.0;" width="10" x="923.6523" y="799.8086"/><rect fill="#FFFFFF" height="29.3105" style="stroke:#181818;stroke-width:1.0;" width="10" x="1326.459" y="485.7031"/><rect fill="#FFFFFF" height="29.3105" style="stroke:#181818;stroke-width:1.0;" width="10" x="1438.6836" y="544.3242"/><rect fill="#FFFFFF" height="29.3105" style="stroke:#181818;stroke-width:1.0;" width="10" x="1596.7363" y="179.5977"/><rect fill="#FFFFFF" height="29.3105" style="stroke:#181818;stroke-width:1.0;" width="10" x="1596.7363" y="296.8398"/><rect fill="#FFFFFF" height="29.3105" style="stroke:#181818;stroke-width:1.0;" width="10" x="1596.7363" y="880.3848"/><rect fill="#FFFFFF" height="213.8184" style="stroke:#181818;stroke-width:1.0;" width="10" x="1937.5947" y="645.2559"/><rect fill="#FFFFFF" height="47.9766" style="stroke:#181818;stroke-width:1.0;" width="10" x="2108.9741" y="949.0059"/><rect fill="#FFFFFF" height="29.3105" style="stroke:#181818;stroke-width:1.0;" width="10" x="2266.5859" y="1113.5801"/><rect fill="#FFFFFF" height="29.3105" style="stroke:#181818;stroke-width:1.0;" width="10" x="2493.9072" y="1172.2012"/><rect fill="#FFFFFF" height="47.9766" style="stroke:#181818;stroke-width:1.0;" width="10" x="2693.7275" y="1036.293"/><polygon fill="#181818" points="379.6904,146.2871,389.6904,150.2871,379.6904,154.2871,383.6904,150.2871" style="stroke:#181818;stroke-width:1.0;"/><line style="stroke:#181818;stroke-width:1.0;" x1="63.2305" x2="385.6904" y1="150.2871" y2="150.2871"/><text fill="#000000" font-family="sans-serif" font-size="13" font-weight="bold" lengthAdjust="spacing" textLength="8.5757" x="70.2305" y="145.5449">1</text><text fill="#000000" font-family="sans-serif" font-size="13" lengthAdjust="spacing" textLength="181.9873" x="82.8062" y="145.5449">ask to edit a Figure Category</text><polygon fill="#181818" points="1584.7363,175.5977,1594.7363,179.5977,1584.7363,183.5977,1588.7363,179.5977" style="stroke:#181818;stroke-width:1.0;"/><line style="stroke:#181818;stroke-width:1.0;" x1="401.6904" x2="1590.7363" y1="179.5977" y2="179.5977"/><text fill="#000000" font-family="sans-serif" font-size="13" font-weight="bold" lengthAdjust="spacing" textLength="8.5757" x="408.6904" y="174.8555">2</text><text fill="#000000" font-family="sans-serif" font-size="13" lengthAdjust="spacing" textLength="146.1929" x="421.2661" y="174.8555">getEditableCategories()</text><polygon fill="#181818" points="412.6904,204.9082,402.6904,208.9082,412.6904,212.9082,408.6904,208.9082" style="stroke:#181818;stroke-width:1.0;"/><line style="stroke:#181818;stroke-width:1.0;stroke-dasharray:2.0,2.0;" x1="406.6904" x2="1600.7363" y1="208.9082" y2="208.9082"/><text fill="#000000" font-family="sans-serif" font-size="13" font-weight="bold" lengthAdjust="spacing" textLength="8.5757" x="418.6904" y="204.166">3</text><text fill="#000000" font-family="sans-serif" font-size="13" lengthAdjust="spacing" textLength="101.2007" x="431.2661" y="204.166">listOfCategories</text><polygon fill="#181818" points="74.2305,234.2188,64.2305,238.2188,74.2305,242.2188,70.2305,238.2188" style="stroke:#181818;stroke-width:1.0;"/><line style="stroke:#181818;stroke-width:1.0;" x1="68.2305" x2="390.6904" y1="238.2188" y2="238.2188"/><text fill="#000000" font-family="sans-serif" font-size="13" font-weight="bold" lengthAdjust="spacing" textLength="8.5757" x="80.2305" y="233.4766">4</text><text fill="#000000" font-family="sans-serif" font-size="13" lengthAdjust="spacing" textLength="291.8843" x="92.8062" y="233.4766">show editable categories and ask for selection</text><polygon fill="#181818" points="379.6904,263.5293,389.6904,267.5293,379.6904,271.5293,383.6904,267.5293" style="stroke:#181818;stroke-width:1.0;"/><line style="stroke:#181818;stroke-width:1.0;" x1="63.2305" x2="385.6904" y1="267.5293" y2="267.5293"/><text fill="#000000" font-family="sans-serif" font-size="13" font-weight="bold" lengthAdjust="spacing" textLength="8.5757" x="70.2305" y="262.7871">5</text><text fill="#000000" font-family="sans-serif" font-size="13" lengthAdjust="spacing" textLength="179.918" x="82.8062" y="262.7871">selects category (categoryId)</text><polygon fill="#181818" points="1584.7363,292.8398,1594.7363,296.8398,1584.7363,300.8398,1588.7363,296.8398" style="stroke:#181818;stroke-width:1.0;"/><line style="stroke:#181818;stroke-width:1.0;" x1="401.6904" x2="1590.7363" y1="296.8398" y2="296.8398"/><text fill="#000000" font-family="sans-serif" font-size="13" font-weight="bold" lengthAdjust="spacing" textLength="8.5757" x="408.6904" y="292.0977">6</text><text fill="#000000" font-family="sans-serif" font-size="13" lengthAdjust="spacing" textLength="177.417" x="421.2661" y="292.0977">getCategoryById(categoryId)</text><polygon fill="#181818" points="412.6904,322.1504,402.6904,326.1504,412.6904,330.1504,408.6904,326.1504" style="stroke:#181818;stroke-width:1.0;"/><line style="stroke:#181818;stroke-width:1.0;stroke-dasharray:2.0,2.0;" x1="406.6904" x2="1600.7363" y1="326.1504" y2="326.1504"/><text fill="#000000" font-family="sans-serif" font-size="13" font-weight="bold" lengthAdjust="spacing" textLength="8.5757" x="418.6904" y="321.4082">7</text><text fill="#000000" font-family="sans-serif" font-size="13" lengthAdjust="spacing" textLength="95.145" x="431.2661" y="321.4082">categoryObject</text><polygon fill="#181818" points="74.2305,351.4609,64.2305,355.4609,74.2305,359.4609,70.2305,355.4609" style="stroke:#181818;stroke-width:1.0;"/><line style="stroke:#181818;stroke-width:1.0;" x1="68.2305" x2="390.6904" y1="355.4609" y2="355.4609"/><text fill="#000000" font-family="sans-serif" font-size="13" font-weight="bold" lengthAdjust="spacing" textLength="8.5757" x="80.2305" y="350.7188">8</text><text fill="#000000" font-family="sans-serif" font-size="13" lengthAdjust="spacing" textLength="284.3687" x="92.8062" y="350.7188">ask for new data (newName, newDescription)</text><polygon fill="#181818" points="379.6904,380.7715,389.6904,384.7715,379.6904,388.7715,383.6904,384.7715" style="stroke:#181818;stroke-width:1.0;"/><line style="stroke:#181818;stroke-width:1.0;" x1="63.2305" x2="385.6904" y1="384.7715" y2="384.7715"/><text fill="#000000" font-family="sans-serif" font-size="13" font-weight="bold" lengthAdjust="spacing" textLength="8.5757" x="70.2305" y="380.0293">9</text><text fill="#000000" font-family="sans-serif" font-size="13" lengthAdjust="spacing" textLength="114.9814" x="82.8062" y="380.0293">provides new data</text><polygon fill="#181818" points="911.6523,410.082,921.6523,414.082,911.6523,418.082,915.6523,414.082" style="stroke:#181818;stroke-width:1.0;"/><line style="stroke:#181818;stroke-width:1.0;" x1="401.6904" x2="917.6523" y1="414.082" y2="414.082"/><text fill="#000000" font-family="sans-serif" font-size="13" font-weight="bold" lengthAdjust="spacing" textLength="17.1514" x="408.6904" y="409.3398">10</text><text fill="#000000" font-family="sans-serif" font-size="13" lengthAdjust="spacing" textLength="38.5049" x="429.8418" y="409.3398">create</text><line style="stroke:#181818;stroke-width:1.0;" x1="933.6523" x2="980.6523" y1="438.3926" y2="438.3926"/><line style="stroke:#181818;stroke-width:1.0;" x1="980.6523" x2="980.6523" y1="438.3926" y2="451.3926"/><line style="stroke:#181818;stroke-width:1.0;" x1="939.6523" x2="980.6523" y1="451.3926" y2="451.3926"/><polygon fill="#181818" points="949.6523,447.3926,939.6523,451.3926,949.6523,455.3926,945.6523,451.3926" style="stroke:#181818;stroke-width:1.0;"/><text fill="#000000" font-family="sans-serif" font-size="13" font-weight="bold" lengthAdjust="spacing" textLength="17.1514" x="945.6523" y="433.6504">11</text><text fill="#000000" font-family="sans-serif" font-size="13" lengthAdjust="spacing" textLength="191.585" x="966.8037" y="433.6504">getFigureCategoryRepository()</text><polygon fill="#181818" points="1314.459,481.7031,1324.459,485.7031,1314.459,489.7031,1318.459,485.7031" style="stroke:#181818;stroke-width:1.0;"/><line style="stroke:#181818;stroke-width:1.0;" x1="938.6523" x2="1320.459" y1="485.7031" y2="485.7031"/><text fill="#000000" font-family="sans-serif" font-size="13" font-weight="bold" lengthAdjust="spacing" textLength="17.1514" x="945.6523" y="480.9609">12</text><text fill="#000000" font-family="sans-serif" font-size="13" lengthAdjust="spacing" textLength="81.1167" x="966.8037" y="480.9609">getInstance()</text><polygon fill="#181818" points="949.6523,511.0137,939.6523,515.0137,949.6523,519.0137,945.6523,515.0137" style="stroke:#181818;stroke-width:1.0;"/><line style="stroke:#181818;stroke-width:1.0;stroke-dasharray:2.0,2.0;" x1="943.6523" x2="1330.459" y1="515.0137" y2="515.0137"/><text fill="#000000" font-family="sans-serif" font-size="13" font-weight="bold" lengthAdjust="spacing" textLength="17.1514" x="955.6523" y="510.2715">13</text><text fill="#000000" font-family="sans-serif" font-size="13" lengthAdjust="spacing" textLength="74.9087" x="976.8037" y="510.2715">repositories</text><polygon fill="#181818" points="1426.6836,540.3242,1436.6836,544.3242,1426.6836,548.3242,1430.6836,544.3242" style="stroke:#181818;stroke-width:1.0;"/><line style="stroke:#181818;stroke-width:1.0;" x1="938.6523" x2="1432.6836" y1="544.3242" y2="544.3242"/><text fill="#000000" font-family="sans-serif" font-size="13" font-weight="bold" lengthAdjust="spacing" textLength="17.1514" x="945.6523" y="539.582">14</text><text fill="#000000" font-family="sans-serif" font-size="13" lengthAdjust="spacing" textLength="191.585" x="966.8037" y="539.582">getFigureCategoryRepository()</text><polygon fill="#181818" points="949.6523,569.6348,939.6523,573.6348,949.6523,577.6348,945.6523,573.6348" style="stroke:#181818;stroke-width:1.0;"/><line style="stroke:#181818;stroke-width:1.0;stroke-dasharray:2.0,2.0;" x1="943.6523" x2="1442.6836" y1="573.6348" y2="573.6348"/><text fill="#000000" font-family="sans-serif" font-size="13" font-weight="bold" lengthAdjust="spacing" textLength="17.1514" x="955.6523" y="568.8926">15</text><text fill="#000000" font-family="sans-serif" font-size="13" lengthAdjust="spacing" textLength="160.729" x="976.8037" y="568.8926">figureCategoryRepository</text><line style="stroke:#181818;stroke-width:1.0;stroke-dasharray:2.0,2.0;" x1="938.6523" x2="980.6523" y1="607.9453" y2="607.9453"/><line style="stroke:#181818;stroke-width:1.0;stroke-dasharray:2.0,2.0;" x1="980.6523" x2="980.6523" y1="607.9453" y2="620.9453"/><line style="stroke:#181818;stroke-width:1.0;stroke-dasharray:2.0,2.0;" x1="933.6523" x2="980.6523" y1="620.9453" y2="620.9453"/><polygon fill="#181818" points="943.6523,616.9453,933.6523,620.9453,943.6523,624.9453,939.6523,620.9453" style="stroke:#181818;stroke-width:1.0;"/><text fill="#000000" font-family="sans-serif" font-size="13" font-weight="bold" lengthAdjust="spacing" textLength="17.1514" x="945.6523" y="603.2031">16</text><text fill="#000000" font-family="sans-serif" font-size="13" lengthAdjust="spacing" textLength="160.729" x="966.8037" y="603.2031">figureCategoryRepository</text><polygon fill="#181818" points="1925.5947,641.2559,1935.5947,645.2559,1925.5947,649.2559,1929.5947,645.2559" style="stroke:#181818;stroke-width:1.0;"/><line style="stroke:#181818;stroke-width:1.0;" x1="933.6523" x2="1931.5947" y1="645.2559" y2="645.2559"/><text fill="#000000" font-family="sans-serif" font-size="13" font-weight="bold" lengthAdjust="spacing" textLength="17.1514" x="940.6523" y="640.5137">17</text><text fill="#000000" font-family="sans-serif" font-size="13" lengthAdjust="spacing" textLength="344.3794" x="961.8037" y="640.5137">validateEditFigureCategory(newName, newDescription)</text><line style="stroke:#181818;stroke-width:1.0;stroke-dasharray:2.0,2.0;" x1="1947.5947" x2="1989.5947" y1="674.5664" y2="674.5664"/><line style="stroke:#181818;stroke-width:1.0;stroke-dasharray:2.0,2.0;" x1="1989.5947" x2="1989.5947" y1="674.5664" y2="687.5664"/><line style="stroke:#181818;stroke-width:1.0;stroke-dasharray:2.0,2.0;" x1="1948.5947" x2="1989.5947" y1="687.5664" y2="687.5664"/><polygon fill="#181818" points="1958.5947,683.5664,1948.5947,687.5664,1958.5947,691.5664,1954.5947,687.5664" style="stroke:#181818;stroke-width:1.0;"/><text fill="#000000" font-family="sans-serif" font-size="13" font-weight="bold" lengthAdjust="spacing" textLength="17.1514" x="1954.5947" y="669.8242">18</text><text fill="#000000" font-family="sans-serif" font-size="13" lengthAdjust="spacing" textLength="76.54" x="1975.7461" y="669.8242">validations()</text><path d="M306.105,702.5664 L368.2437,702.5664 L368.2437,709.877 L358.2437,719.877 L306.105,719.877 L306.105,702.5664 " fill="#EEEEEE" style="stroke:#000000;stroke-width:1.5;"/><rect fill="none" height="149.5078" style="stroke:#000000;stroke-width:1.5;" width="1746.9917" x="306.105" y="702.5664"/><text fill="#000000" font-family="sans-serif" font-size="13" font-weight="bold" lengthAdjust="spacing" textLength="17.1387" x="321.105" y="716.1348">alt</text><text fill="#000000" font-family="sans-serif" font-size="11" font-weight="bold" lengthAdjust="spacing" textLength="301.6245" x="383.2437" y="715.2012">[invalid input or duplicate name or inactive category]</text><polygon fill="#181818" points="944.6523,737.1875,934.6523,741.1875,944.6523,745.1875,940.6523,741.1875" style="stroke:#181818;stroke-width:1.0;"/><line style="stroke:#181818;stroke-width:1.0;stroke-dasharray:2.0,2.0;" x1="938.6523" x2="1936.5947" y1="741.1875" y2="741.1875"/><text fill="#000000" font-family="sans-serif" font-size="13" font-weight="bold" lengthAdjust="spacing" textLength="17.1514" x="950.6523" y="736.4453">19</text><text fill="#000000" font-family="sans-serif" font-size="13" lengthAdjust="spacing" textLength="476.8105" x="971.8037" y="736.4453">error("Invalid or duplicate category name/description, or category inactive")</text><polygon fill="#181818" points="407.6904,766.498,397.6904,770.498,407.6904,774.498,403.6904,770.498" style="stroke:#181818;stroke-width:1.0;"/><line style="stroke:#181818;stroke-width:1.0;" x1="401.6904" x2="927.6523" y1="770.498" y2="770.498"/><text fill="#000000" font-family="sans-serif" font-size="13" font-weight="bold" lengthAdjust="spacing" textLength="17.1514" x="413.6904" y="765.7559">20</text><text fill="#000000" font-family="sans-serif" font-size="13" lengthAdjust="spacing" textLength="476.8105" x="434.8418" y="765.7559">error("Invalid or duplicate category name/description, or category inactive")</text><polygon fill="#181818" points="911.6523,795.8086,921.6523,799.8086,911.6523,803.8086,915.6523,799.8086" style="stroke:#181818;stroke-width:1.0;"/><line style="stroke:#181818;stroke-width:1.0;stroke-dasharray:2.0,2.0;" x1="396.6904" x2="917.6523" y1="799.8086" y2="799.8086"/><text fill="#000000" font-family="sans-serif" font-size="13" font-weight="bold" lengthAdjust="spacing" textLength="17.1514" x="403.6904" y="795.0664">21</text><text fill="#000000" font-family="sans-serif" font-size="13" lengthAdjust="spacing" textLength="4.1133" x="424.8418" y="795.0664">&#160;</text><line style="stroke:#000000;stroke-width:1.0;stroke-dasharray:2.0,2.0;" x1="306.105" x2="2053.0967" y1="808.8086" y2="808.8086"/><text fill="#000000" font-family="sans-serif" font-size="11" font-weight="bold" lengthAdjust="spacing" textLength="68.9863" x="311.105" y="819.4434">[valid input]</text><polygon fill="#181818" points="944.6523,840.0742,934.6523,844.0742,944.6523,848.0742,940.6523,844.0742" style="stroke:#181818;stroke-width:1.0;"/><line style="stroke:#181818;stroke-width:1.0;stroke-dasharray:2.0,2.0;" x1="938.6523" x2="1936.5947" y1="844.0742" y2="844.0742"/><text fill="#000000" font-family="sans-serif" font-size="13" font-weight="bold" lengthAdjust="spacing" textLength="17.1514" x="950.6523" y="839.332">22</text><text fill="#000000" font-family="sans-serif" font-size="13" lengthAdjust="spacing" textLength="110.3413" x="971.8037" y="839.332">validationSuccess</text><polygon fill="#181818" points="1584.7363,876.3848,1594.7363,880.3848,1584.7363,884.3848,1588.7363,880.3848" style="stroke:#181818;stroke-width:1.0;"/><line style="stroke:#181818;stroke-width:1.0;" x1="933.6523" x2="1590.7363" y1="880.3848" y2="880.3848"/><text fill="#000000" font-family="sans-serif" font-size="13" font-weight="bold" lengthAdjust="spacing" textLength="17.1514" x="940.6523" y="875.6426">23</text><text fill="#000000" font-family="sans-serif" font-size="13" lengthAdjust="spacing" textLength="125.5122" x="961.8037" y="875.6426">findById(categoryId)</text><polygon fill="#181818" points="944.6523,905.6953,934.6523,909.6953,944.6523,913.6953,940.6523,909.6953" style="stroke:#181818;stroke-width:1.0;"/><line style="stroke:#181818;stroke-width:1.0;stroke-dasharray:2.0,2.0;" x1="938.6523" x2="1600.7363" y1="909.6953" y2="909.6953"/><text fill="#000000" font-family="sans-serif" font-size="13" font-weight="bold" lengthAdjust="spacing" textLength="17.1514" x="950.6523" y="904.9531">24</text><text fill="#000000" font-family="sans-serif" font-size="13" lengthAdjust="spacing" textLength="134.7544" x="971.8037" y="904.9531">figureCategoryObject</text><polygon fill="#181818" points="2041.0967,935.0059,2051.0967,939.0059,2041.0967,943.0059,2045.0967,939.0059" style="stroke:#181818;stroke-width:1.0;"/><line style="stroke:#181818;stroke-width:1.0;" x1="933.6523" x2="2047.0967" y1="939.0059" y2="939.0059"/><text fill="#000000" font-family="sans-serif" font-size="13" font-weight="bold" lengthAdjust="spacing" textLength="17.1514" x="940.6523" y="934.2637">25</text><text fill="#000000" font-family="sans-serif" font-size="13" lengthAdjust="spacing" textLength="219.4131" x="961.8037" y="934.2637">update(newName, newDescription)</text><rect fill="#E3E3E3" height="46.9766" rx="2.5" ry="2.5" style="stroke:#181818;stroke-width:0.5;" width="121.7549" x="2053.0967" y="917.6953"/><text fill="#000000" font-family="sans-serif" font-size="14" lengthAdjust="spacing" textLength="100.9668" x="2063.4907" y="938.2305">figureCategory</text><text fill="#000000" font-family="sans-serif" font-size="14" lengthAdjust="spacing" textLength="107.7549" x="2060.0967" y="954.7188">:FigureCategory</text><polygon fill="#181818" points="944.6523,992.9824,934.6523,996.9824,944.6523,1000.9824,940.6523,996.9824" style="stroke:#181818;stroke-width:1.0;"/><line style="stroke:#181818;stroke-width:1.0;stroke-dasharray:2.0,2.0;" x1="938.6523" x2="2112.9741" y1="996.9824" y2="996.9824"/><text fill="#000000" font-family="sans-serif" font-size="13" font-weight="bold" lengthAdjust="spacing" textLength="17.1514" x="950.6523" y="992.2402">26</text><text fill="#000000" font-family="sans-serif" font-size="13" lengthAdjust="spacing" textLength="149.3794" x="971.8037" y="992.2402">updatedCategoryObject</text><polygon fill="#181818" points="2627.4941,1022.293,2637.4941,1026.293,2627.4941,1030.293,2631.4941,1026.293" style="stroke:#181818;stroke-width:1.0;"/><line style="stroke:#181818;stroke-width:1.0;" x1="933.6523" x2="2633.4941" y1="1026.293" y2="1026.293"/><text fill="#000000" font-family="sans-serif" font-size="13" font-weight="bold" lengthAdjust="spacing" textLength="17.1514" x="940.6523" y="1021.5508">27</text><text fill="#000000" font-family="sans-serif" font-size="13" lengthAdjust="spacing" textLength="128.0322" x="961.8037" y="1021.5508">getCurrentMoment()</text><rect fill="#E3E3E3" height="46.9766" rx="2.5" ry="2.5" style="stroke:#181818;stroke-width:0.5;" width="118.4668" x="2639.4941" y="1004.9824"/><text fill="#000000" font-family="sans-serif" font-size="14" lengthAdjust="spacing" textLength="96.6191" x="2650.418" y="1025.5176">localDateTime</text><text fill="#000000" font-family="sans-serif" font-size="14" lengthAdjust="spacing" textLength="104.4668" x="2646.4941" y="1042.0059">:LocalDateTime</text><polygon fill="#181818" points="944.6523,1080.2695,934.6523,1084.2695,944.6523,1088.2695,940.6523,1084.2695" style="stroke:#181818;stroke-width:1.0;"/><line style="stroke:#181818;stroke-width:1.0;stroke-dasharray:2.0,2.0;" x1="938.6523" x2="2697.7275" y1="1084.2695" y2="1084.2695"/><text fill="#000000" font-family="sans-serif" font-size="13" font-weight="bold" lengthAdjust="spacing" textLength="17.1514" x="950.6523" y="1079.5273">28</text><text fill="#000000" font-family="sans-serif" font-size="13" lengthAdjust="spacing" textLength="70.0654" x="971.8037" y="1079.5273">updatedOn</text><polygon fill="#181818" points="2254.5859,1109.5801,2264.5859,1113.5801,2254.5859,1117.5801,2258.5859,1113.5801" style="stroke:#181818;stroke-width:1.0;"/><line style="stroke:#181818;stroke-width:1.0;" x1="933.6523" x2="2260.5859" y1="1113.5801" y2="1113.5801"/><text fill="#000000" font-family="sans-serif" font-size="13" font-weight="bold" lengthAdjust="spacing" textLength="17.1514" x="940.6523" y="1108.8379">29</text><text fill="#000000" font-family="sans-serif" font-size="13" lengthAdjust="spacing" textLength="201.5508" x="961.8037" y="1108.8379">update(updatedCategoryObject)</text><polygon fill="#181818" points="944.6523,1138.8906,934.6523,1142.8906,944.6523,1146.8906,940.6523,1142.8906" style="stroke:#181818;stroke-width:1.0;"/><line style="stroke:#181818;stroke-width:1.0;stroke-dasharray:2.0,2.0;" x1="938.6523" x2="2270.5859" y1="1142.8906" y2="1142.8906"/><text fill="#000000" font-family="sans-serif" font-size="13" font-weight="bold" lengthAdjust="spacing" textLength="17.1514" x="950.6523" y="1138.1484">30</text><text fill="#000000" font-family="sans-serif" font-size="13" lengthAdjust="spacing" textLength="80.5581" x="971.8037" y="1138.1484">confirmation</text><polygon fill="#181818" points="2481.9072,1168.2012,2491.9072,1172.2012,2481.9072,1176.2012,2485.9072,1172.2012" style="stroke:#181818;stroke-width:1.0;"/><line style="stroke:#181818;stroke-width:1.0;" x1="933.6523" x2="2487.9072" y1="1172.2012" y2="1172.2012"/><text fill="#000000" font-family="sans-serif" font-size="13" font-weight="bold" lengthAdjust="spacing" textLength="17.1514" x="940.6523" y="1167.459">31</text><text fill="#000000" font-family="sans-serif" font-size="13" lengthAdjust="spacing" textLength="201.5508" x="961.8037" y="1167.459">update(updatedCategoryObject)</text><polygon fill="#181818" points="944.6523,1197.5117,934.6523,1201.5117,944.6523,1205.5117,940.6523,1201.5117" style="stroke:#181818;stroke-width:1.0;"/><line style="stroke:#181818;stroke-width:1.0;stroke-dasharray:2.0,2.0;" x1="938.6523" x2="2497.9072" y1="1201.5117" y2="1201.5117"/><text fill="#000000" font-family="sans-serif" font-size="13" font-weight="bold" lengthAdjust="spacing" textLength="17.1514" x="950.6523" y="1196.7695">32</text><text fill="#000000" font-family="sans-serif" font-size="13" lengthAdjust="spacing" textLength="80.5581" x="971.8037" y="1196.7695">confirmation</text><polygon fill="#181818" points="407.6904,1226.8223,397.6904,1230.8223,407.6904,1234.8223,403.6904,1230.8223" style="stroke:#181818;stroke-width:1.0;"/><line style="stroke:#181818;stroke-width:1.0;" x1="401.6904" x2="927.6523" y1="1230.8223" y2="1230.8223"/><text fill="#000000" font-family="sans-serif" font-size="13" font-weight="bold" lengthAdjust="spacing" textLength="17.1514" x="413.6904" y="1226.0801">33</text><text fill="#000000" font-family="sans-serif" font-size="13" lengthAdjust="spacing" textLength="149.3794" x="434.8418" y="1226.0801">updatedCategoryObject</text><polygon fill="#181818" points="69.2305,1256.1328,59.2305,1260.1328,69.2305,1264.1328,65.2305,1260.1328" style="stroke:#181818;stroke-width:1.0;"/><line style="stroke:#181818;stroke-width:1.0;" x1="63.2305" x2="395.6904" y1="1260.1328" y2="1260.1328"/><text fill="#000000" font-family="sans-serif" font-size="13" font-weight="bold" lengthAdjust="spacing" textLength="17.1514" x="75.2305" y="1255.3906">34</text><text fill="#000000" font-family="sans-serif" font-size="13" lengthAdjust="spacing" textLength="176.9219" x="96.3818" y="1255.3906">shows operation (in)success</text><!--SRC=[jLV1Rjim3BtxAuISagB1xZaCwDeDoD2kHTFUTb5j9jLgIvuajyZVZrGiMx9bTnqmNs9JvECZ9PAAUH6ovffNh59IvSzQLS2iRY0ptKhDynT-W9qzbi0qv9RBGnagc6TUg3SX3spFImDPPeL5rSSjsy7l1cGEx4hm0wakTxkh5LkphuMmx9iuD1hO9RTmKFgOPRonIZRL4sXypwtIRB5xLc_i2emuID0BnWrwKszUa241At9HSsdPOaEe9r2F-RXrDe_RTpKlbRHQbMNhvVBX_ZgssK-e_vIRMQISsqkhom61UwYL4HYY0EFKEi5n9oY_c8dOH0SMw7C4S7TzyJ37k7SmOjmlUSOaoGPeRaUETrgzYk8KTYnnjgH5WZachTssgiiHbM3DSo4HVSz1Zd1EP2BHdFttkuiadLRkgU1dZ2Ba3LH4UphLstTKF3Pg3J9UgfoNLsZm82f0fElmsvav3VfozI9USIskZupX4qhO-ZCLvWQjNvXL3AWG-QWKoQn3nEfn0hH3w_Pq8CG1BDKHVofzM7WMbwlOs1ycrZxUVEs9bCBOstqFu3GB60445AA0DkxJ1K9CIBz5ObmMBiuzTX839ROkWLKrcPAJYl48HxRqRzjYDPa2dxClg1KPV2mDtlBswHUI-7WIV9mItbZ1BMTBVFl1ApWd4IhcMjGK_sew0VMfaaq74lgZZaWyDI2XE3ZNBBlGd69lW2cQElhjMPd12l4I7V84lvK6Pr8E0Lm4cMgjaIOzAVHr6yM6XSqtCWtsw5qtFX3gr7-Tc2WIr-D7r1rUptMgxK_nTg1ZdlqEJW9c2RJqMGZQE0A-ybBWyOBn59u_jCEAwYP3o3vqjPvoZP1ccEJICY7TElxMZMLOJKLJbu9AaqbaHH8X7OEkpnn7sp4aq6OHj5PwkTYsBYBmhkEGbqz57_SvwNMhtlTYDNBg4-tg-F-w6cxsp3fEZfdLQ58DzJJOHij837YvPC46fMiaoMbYJ_hJi6lo74nSso2Br0aF3rxgeBUZOIzaaPm9itDXE1kI9HZCYBav4VAA0SxE4BEfgGO_K763wrH8ELuAcP-y5EzJ7w2F8kZkEeuy3Tv6Qv3s1l-oI9iQ9VtjAAJQIHCiRsMAMN3BIcmttWdxP2QZJMyxtIK7kqvG0QbSoRtG5UzkBUFD9f0KARnC_XCfkeGEI17KnqYvcsooCKqVXkG4cRpj6QPgq8u3MmgvCctrPd7lcUerVm00]--></g></svg>