<svg xmlns="http://www.w3.org/2000/svg" xmlns:xlink="http://www.w3.org/1999/xlink" contentStyleType="text/css" height="900px" preserveAspectRatio="none" style="width:2057px;height:900px;background:#FFFFFF;" version="1.1" viewBox="0 0 2057 900" width="2057px" zoomAndPan="magnify"><defs/><g><rect fill="#FFFFFF" height="717.7422" style="stroke:#181818;stroke-width:1.0;" width="10" x="66.0156" y="91.4883"/><rect fill="#FFFFFF" height="696.4316" style="stroke:#181818;stroke-width:1.0;" width="10" x="497.5576" y="112.7988"/><rect fill="#FFFFFF" height="490.6133" style="stroke:#181818;stroke-width:1.0;" width="10" x="1083.7412" y="267.3516"/><rect fill="#FFFFFF" height="87.9316" style="stroke:#181818;stroke-width:1.0;" width="10" x="1383.6455" y="296.6621"/><rect fill="#FFFFFF" height="29.3105" style="stroke:#181818;stroke-width:1.0;" width="10" x="1537.8394" y="325.9727"/><rect fill="none" height="573.5" style="stroke:#000000;stroke-width:1.5;" width="1953.9668" x="10" y="228.7305"/><rect fill="none" height="237.4395" style="stroke:#000000;stroke-width:1.5;" width="1541.9946" x="411.9722" y="513.5254"/><line style="stroke:#181818;stroke-width:0.5;stroke-dasharray:5.0,5.0;" x1="71" x2="71" y1="81.4883" y2="819.2305"/><line style="stroke:#181818;stroke-width:0.5;stroke-dasharray:5.0,5.0;" x1="501.9722" x2="501.9722" y1="81.4883" y2="819.2305"/><line style="stroke:#181818;stroke-width:0.5;stroke-dasharray:5.0,5.0;" x1="1087.9419" x2="1087.9419" y1="81.4883" y2="819.2305"/><line style="stroke:#181818;stroke-width:0.5;stroke-dasharray:5.0,5.0;" x1="1388.373" x2="1388.373" y1="81.4883" y2="819.2305"/><line style="stroke:#181818;stroke-width:0.5;stroke-dasharray:5.0,5.0;" x1="1541.918" x2="1541.918" y1="81.4883" y2="819.2305"/><line style="stroke:#181818;stroke-width:0.5;stroke-dasharray:5.0,5.0;" x1="1718.7607" x2="1718.7607" y1="81.4883" y2="819.2305"/><line style="stroke:#181818;stroke-width:0.5;stroke-dasharray:5.0,5.0;" x1="1884.6416" x2="1884.6416" y1="81.4883" y2="819.2305"/><line style="stroke:#181818;stroke-width:0.5;stroke-dasharray:5.0,5.0;" x1="2001.9668" x2="2001.9668" y1="81.4883" y2="819.2305"/><text fill="#000000" font-family="sans-serif" font-size="14" lengthAdjust="spacing" textLength="96.0313" x="20" y="78.5352">ShowDesigner</text><ellipse cx="71.0156" cy="13.5" fill="#E3E3E3" rx="8" ry="8" style="stroke:#181818;stroke-width:0.5;"/><path d="M71.0156,21.5 L71.0156,48.5 M58.0156,29.5 L84.0156,29.5 M71.0156,48.5 L58.0156,63.5 M71.0156,48.5 L84.0156,63.5 " fill="none" style="stroke:#181818;stroke-width:0.5;"/><text fill="#000000" font-family="sans-serif" font-size="14" lengthAdjust="spacing" textLength="96.0313" x="20" y="831.7656">ShowDesigner</text><ellipse cx="71.0156" cy="843.2188" fill="#E3E3E3" rx="8" ry="8" style="stroke:#181818;stroke-width:0.5;"/><path d="M71.0156,851.2188 L71.0156,878.2188 M58.0156,859.2188 L84.0156,859.2188 M71.0156,878.2188 L58.0156,893.2188 M71.0156,878.2188 L84.0156,893.2188 " fill="none" style="stroke:#181818;stroke-width:0.5;"/><rect fill="#E3E3E3" height="30.4883" rx="2.5" ry="2.5" style="stroke:#181818;stroke-width:0.5;" width="161.1709" x="421.9722" y="50"/><text fill="#000000" font-family="sans-serif" font-size="14" lengthAdjust="spacing" textLength="147.1709" x="428.9722" y="70.5352">:EditFigureCategoryUI</text><rect fill="#E3E3E3" height="30.4883" rx="2.5" ry="2.5" style="stroke:#181818;stroke-width:0.5;" width="161.1709" x="421.9722" y="818.2305"/><text fill="#000000" font-family="sans-serif" font-size="14" lengthAdjust="spacing" textLength="147.1709" x="428.9722" y="838.7656">:EditFigureCategoryUI</text><rect fill="#E3E3E3" height="30.4883" rx="2.5" ry="2.5" style="stroke:#181818;stroke-width:0.5;" width="215.5986" x="980.9419" y="50"/><text fill="#000000" font-family="sans-serif" font-size="14" lengthAdjust="spacing" textLength="201.5986" x="987.9419" y="70.5352">:EditFigureCategoryController</text><rect fill="#E3E3E3" height="30.4883" rx="2.5" ry="2.5" style="stroke:#181818;stroke-width:0.5;" width="215.5986" x="980.9419" y="818.2305"/><text fill="#000000" font-family="sans-serif" font-size="14" lengthAdjust="spacing" textLength="201.5986" x="987.9419" y="838.7656">:EditFigureCategoryController</text><rect fill="#E3E3E3" height="30.4883" rx="2.5" ry="2.5" style="stroke:#181818;stroke-width:0.5;" width="148.5449" x="1314.373" y="50"/><text fill="#000000" font-family="sans-serif" font-size="14" lengthAdjust="spacing" textLength="134.5449" x="1321.373" y="70.5352">:PersistenceContext</text><rect fill="#E3E3E3" height="30.4883" rx="2.5" ry="2.5" style="stroke:#181818;stroke-width:0.5;" width="148.5449" x="1314.373" y="818.2305"/><text fill="#000000" font-family="sans-serif" font-size="14" lengthAdjust="spacing" textLength="134.5449" x="1321.373" y="838.7656">:PersistenceContext</text><rect fill="#E3E3E3" height="46.9766" rx="2.5" ry="2.5" style="stroke:#181818;stroke-width:0.5;" width="139.8428" x="1472.918" y="33.5117"/><text fill="#000000" font-family="sans-serif" font-size="14" lengthAdjust="spacing" textLength="46.9287" x="1519.375" y="54.0469">factory</text><text fill="#000000" font-family="sans-serif" font-size="14" lengthAdjust="spacing" textLength="125.8428" x="1479.918" y="70.5352">:RepositoryFactory</text><rect fill="#E3E3E3" height="46.9766" rx="2.5" ry="2.5" style="stroke:#181818;stroke-width:0.5;" width="139.8428" x="1472.918" y="818.2305"/><text fill="#000000" font-family="sans-serif" font-size="14" lengthAdjust="spacing" textLength="46.9287" x="1519.375" y="838.7656">factory</text><text fill="#000000" font-family="sans-serif" font-size="14" lengthAdjust="spacing" textLength="125.8428" x="1479.918" y="855.2539">:RepositoryFactory</text><rect fill="#E3E3E3" height="46.9766" rx="2.5" ry="2.5" style="stroke:#181818;stroke-width:0.5;" width="193.8809" x="1622.7607" y="33.5117"/><text fill="#000000" font-family="sans-serif" font-size="14" lengthAdjust="spacing" textLength="69.002" x="1685.2002" y="54.0469">repository</text><text fill="#000000" font-family="sans-serif" font-size="14" lengthAdjust="spacing" textLength="179.8809" x="1629.7607" y="70.5352">:FigureCategoryRepository</text><rect fill="#E3E3E3" height="46.9766" rx="2.5" ry="2.5" style="stroke:#181818;stroke-width:0.5;" width="193.8809" x="1622.7607" y="818.2305"/><text fill="#000000" font-family="sans-serif" font-size="14" lengthAdjust="spacing" textLength="69.002" x="1685.2002" y="838.7656">repository</text><text fill="#000000" font-family="sans-serif" font-size="14" lengthAdjust="spacing" textLength="179.8809" x="1629.7607" y="855.2539">:FigureCategoryRepository</text><rect fill="#E3E3E3" height="30.4883" rx="2.5" ry="2.5" style="stroke:#181818;stroke-width:0.5;" width="117.3252" x="1826.6416" y="50"/><text fill="#000000" font-family="sans-serif" font-size="14" lengthAdjust="spacing" textLength="103.3252" x="1833.6416" y="70.5352">FigureCategory</text><rect fill="#E3E3E3" height="30.4883" rx="2.5" ry="2.5" style="stroke:#181818;stroke-width:0.5;" width="117.3252" x="1826.6416" y="818.2305"/><text fill="#000000" font-family="sans-serif" font-size="14" lengthAdjust="spacing" textLength="103.3252" x="1833.6416" y="838.7656">FigureCategory</text><rect fill="#E3E3E3" height="30.4883" rx="2.5" ry="2.5" style="stroke:#181818;stroke-width:0.5;" width="97.4531" x="1953.9668" y="50"/><text fill="#000000" font-family="sans-serif" font-size="14" lengthAdjust="spacing" textLength="83.4531" x="1960.9668" y="70.5352">:AuthFacade</text><rect fill="#E3E3E3" height="30.4883" rx="2.5" ry="2.5" style="stroke:#181818;stroke-width:0.5;" width="97.4531" x="1953.9668" y="818.2305"/><text fill="#000000" font-family="sans-serif" font-size="14" lengthAdjust="spacing" textLength="83.4531" x="1960.9668" y="838.7656">:AuthFacade</text><rect fill="#FFFFFF" height="717.7422" style="stroke:#181818;stroke-width:1.0;" width="10" x="66.0156" y="91.4883"/><rect fill="#FFFFFF" height="696.4316" style="stroke:#181818;stroke-width:1.0;" width="10" x="497.5576" y="112.7988"/><rect fill="#FFFFFF" height="490.6133" style="stroke:#181818;stroke-width:1.0;" width="10" x="1083.7412" y="267.3516"/><rect fill="#FFFFFF" height="87.9316" style="stroke:#181818;stroke-width:1.0;" width="10" x="1383.6455" y="296.6621"/><rect fill="#FFFFFF" height="29.3105" style="stroke:#181818;stroke-width:1.0;" width="10" x="1537.8394" y="325.9727"/><polygon fill="#181818" points="485.5576,108.7988,495.5576,112.7988,485.5576,116.7988,489.5576,112.7988" style="stroke:#181818;stroke-width:1.0;"/><line style="stroke:#181818;stroke-width:1.0;" x1="76.0156" x2="491.5576" y1="112.7988" y2="112.7988"/><text fill="#000000" font-family="sans-serif" font-size="13" font-weight="bold" lengthAdjust="spacing" textLength="8.5757" x="83.0156" y="108.0566">1</text><text fill="#000000" font-family="sans-serif" font-size="13" lengthAdjust="spacing" textLength="181.9746" x="95.5913" y="108.0566">requests edit figure category</text><polygon fill="#181818" points="1990.6934,138.1094,2000.6934,142.1094,1990.6934,146.1094,1994.6934,142.1094" style="stroke:#181818;stroke-width:1.0;"/><line style="stroke:#181818;stroke-width:1.0;" x1="507.5576" x2="1996.6934" y1="142.1094" y2="142.1094"/><text fill="#000000" font-family="sans-serif" font-size="13" font-weight="bold" lengthAdjust="spacing" textLength="8.5757" x="514.5576" y="137.3672">2</text><text fill="#000000" font-family="sans-serif" font-size="13" lengthAdjust="spacing" textLength="104.7363" x="527.1333" y="137.3672">getCurrentUser()</text><polygon fill="#181818" points="518.5576,167.4199,508.5576,171.4199,518.5576,175.4199,514.5576,171.4199" style="stroke:#181818;stroke-width:1.0;"/><line style="stroke:#181818;stroke-width:1.0;" x1="512.5576" x2="2001.6934" y1="171.4199" y2="171.4199"/><text fill="#000000" font-family="sans-serif" font-size="13" font-weight="bold" lengthAdjust="spacing" textLength="8.5757" x="524.5576" y="166.6777">3</text><text fill="#000000" font-family="sans-serif" font-size="13" lengthAdjust="spacing" textLength="128.9971" x="537.1333" y="166.6777">user (ShowDesigner)</text><line style="stroke:#181818;stroke-width:1.0;" x1="507.5576" x2="549.5576" y1="200.7305" y2="200.7305"/><line style="stroke:#181818;stroke-width:1.0;" x1="549.5576" x2="549.5576" y1="200.7305" y2="213.7305"/><line style="stroke:#181818;stroke-width:1.0;" x1="508.5576" x2="549.5576" y1="213.7305" y2="213.7305"/><polygon fill="#181818" points="518.5576,209.7305,508.5576,213.7305,518.5576,217.7305,514.5576,213.7305" style="stroke:#181818;stroke-width:1.0;"/><text fill="#000000" font-family="sans-serif" font-size="13" font-weight="bold" lengthAdjust="spacing" textLength="8.5757" x="514.5576" y="195.9883">4</text><text fill="#000000" font-family="sans-serif" font-size="13" lengthAdjust="spacing" textLength="170.771" x="527.1333" y="195.9883">checkRole("ShowDesigner")</text><path d="M10,228.7305 L72.1387,228.7305 L72.1387,236.041 L62.1387,246.041 L10,246.041 L10,228.7305 " fill="#EEEEEE" style="stroke:#000000;stroke-width:1.5;"/><rect fill="none" height="573.5" style="stroke:#000000;stroke-width:1.5;" width="1953.9668" x="10" y="228.7305"/><text fill="#000000" font-family="sans-serif" font-size="13" font-weight="bold" lengthAdjust="spacing" textLength="17.1387" x="25" y="242.2988">alt</text><text fill="#000000" font-family="sans-serif" font-size="11" font-weight="bold" lengthAdjust="spacing" textLength="128.165" x="87.1387" y="241.3652">[role is ShowDesigner]</text><polygon fill="#181818" points="1071.7412,263.3516,1081.7412,267.3516,1071.7412,271.3516,1075.7412,267.3516" style="stroke:#181818;stroke-width:1.0;"/><line style="stroke:#181818;stroke-width:1.0;" x1="507.5576" x2="1077.7412" y1="267.3516" y2="267.3516"/><text fill="#000000" font-family="sans-serif" font-size="13" font-weight="bold" lengthAdjust="spacing" textLength="8.5757" x="514.5576" y="262.6094">5</text><text fill="#000000" font-family="sans-serif" font-size="13" lengthAdjust="spacing" textLength="46.96" x="527.1333" y="262.6094">create()</text><polygon fill="#181818" points="1371.6455,292.6621,1381.6455,296.6621,1371.6455,300.6621,1375.6455,296.6621" style="stroke:#181818;stroke-width:1.0;"/><line style="stroke:#181818;stroke-width:1.0;" x1="1093.7412" x2="1377.6455" y1="296.6621" y2="296.6621"/><text fill="#000000" font-family="sans-serif" font-size="13" font-weight="bold" lengthAdjust="spacing" textLength="8.5757" x="1100.7412" y="291.9199">6</text><text fill="#000000" font-family="sans-serif" font-size="13" lengthAdjust="spacing" textLength="83.3638" x="1113.3169" y="291.9199">repositories()</text><polygon fill="#181818" points="1525.8394,321.9727,1535.8394,325.9727,1525.8394,329.9727,1529.8394,325.9727" style="stroke:#181818;stroke-width:1.0;"/><line style="stroke:#181818;stroke-width:1.0;" x1="1393.6455" x2="1531.8394" y1="325.9727" y2="325.9727"/><text fill="#000000" font-family="sans-serif" font-size="13" font-weight="bold" lengthAdjust="spacing" textLength="8.5757" x="1400.6455" y="321.2305">7</text><text fill="#000000" font-family="sans-serif" font-size="13" lengthAdjust="spacing" textLength="46.96" x="1413.2212" y="321.2305">create()</text><polygon fill="#181818" points="1707.7012,351.2832,1717.7012,355.2832,1707.7012,359.2832,1711.7012,355.2832" style="stroke:#181818;stroke-width:1.0;"/><line style="stroke:#181818;stroke-width:1.0;" x1="1542.8394" x2="1713.7012" y1="355.2832" y2="355.2832"/><text fill="#000000" font-family="sans-serif" font-size="13" font-weight="bold" lengthAdjust="spacing" textLength="8.5757" x="1549.8394" y="350.541">8</text><text fill="#000000" font-family="sans-serif" font-size="13" lengthAdjust="spacing" textLength="46.96" x="1562.415" y="350.541">create()</text><polygon fill="#181818" points="1104.7412,380.5938,1094.7412,384.5938,1104.7412,388.5938,1100.7412,384.5938" style="stroke:#181818;stroke-width:1.0;"/><line style="stroke:#181818;stroke-width:1.0;" x1="1098.7412" x2="1387.6455" y1="384.5938" y2="384.5938"/><text fill="#000000" font-family="sans-serif" font-size="13" font-weight="bold" lengthAdjust="spacing" textLength="8.5757" x="1110.7412" y="379.8516">9</text><text fill="#000000" font-family="sans-serif" font-size="13" lengthAdjust="spacing" textLength="162.9189" x="1123.3169" y="379.8516">FigureCategoryRepository</text><line style="stroke:#181818;stroke-width:1.0;" x1="507.5576" x2="549.5576" y1="413.9043" y2="413.9043"/><line style="stroke:#181818;stroke-width:1.0;" x1="549.5576" x2="549.5576" y1="413.9043" y2="426.9043"/><line style="stroke:#181818;stroke-width:1.0;" x1="508.5576" x2="549.5576" y1="426.9043" y2="426.9043"/><polygon fill="#181818" points="518.5576,422.9043,508.5576,426.9043,518.5576,430.9043,514.5576,426.9043" style="stroke:#181818;stroke-width:1.0;"/><text fill="#000000" font-family="sans-serif" font-size="13" font-weight="bold" lengthAdjust="spacing" textLength="17.1514" x="514.5576" y="409.1621">10</text><text fill="#000000" font-family="sans-serif" font-size="13" lengthAdjust="spacing" textLength="57.6938" x="535.709" y="409.1621">doShow()</text><polygon fill="#181818" points="1071.7412,452.2148,1081.7412,456.2148,1071.7412,460.2148,1075.7412,456.2148" style="stroke:#181818;stroke-width:1.0;"/><line style="stroke:#181818;stroke-width:1.0;" x1="507.5576" x2="1077.7412" y1="456.2148" y2="456.2148"/><text fill="#000000" font-family="sans-serif" font-size="13" font-weight="bold" lengthAdjust="spacing" textLength="17.1514" x="514.5576" y="451.4727">11</text><text fill="#000000" font-family="sans-serif" font-size="13" lengthAdjust="spacing" textLength="315.853" x="535.709" y="451.4727">editFigureCategory(id, newName, newDescription)</text><line style="stroke:#181818;stroke-width:1.0;" x1="1093.7412" x2="1135.7412" y1="485.5254" y2="485.5254"/><line style="stroke:#181818;stroke-width:1.0;" x1="1135.7412" x2="1135.7412" y1="485.5254" y2="498.5254"/><line style="stroke:#181818;stroke-width:1.0;" x1="1094.7412" x2="1135.7412" y1="498.5254" y2="498.5254"/><polygon fill="#181818" points="1104.7412,494.5254,1094.7412,498.5254,1104.7412,502.5254,1100.7412,498.5254" style="stroke:#181818;stroke-width:1.0;"/><text fill="#000000" font-family="sans-serif" font-size="13" font-weight="bold" lengthAdjust="spacing" textLength="17.1514" x="1100.7412" y="480.7832">12</text><text fill="#000000" font-family="sans-serif" font-size="13" lengthAdjust="spacing" textLength="244.7529" x="1121.8926" y="480.7832">validate(id, newName, newDescription)</text><path d="M411.9722,513.5254 L474.1108,513.5254 L474.1108,520.8359 L464.1108,530.8359 L411.9722,530.8359 L411.9722,513.5254 " fill="#EEEEEE" style="stroke:#000000;stroke-width:1.5;"/><rect fill="none" height="237.4395" style="stroke:#000000;stroke-width:1.5;" width="1541.9946" x="411.9722" y="513.5254"/><text fill="#000000" font-family="sans-serif" font-size="13" font-weight="bold" lengthAdjust="spacing" textLength="17.1387" x="426.9722" y="527.0938">alt</text><text fill="#000000" font-family="sans-serif" font-size="11" font-weight="bold" lengthAdjust="spacing" textLength="291.4087" x="489.1108" y="526.1602">[invalid input, duplicate name, or inactive category]</text><polygon fill="#181818" points="518.5576,548.1465,508.5576,552.1465,518.5576,556.1465,514.5576,552.1465" style="stroke:#181818;stroke-width:1.0;"/><line style="stroke:#181818;stroke-width:1.0;" x1="512.5576" x2="1082.7412" y1="552.1465" y2="552.1465"/><text fill="#000000" font-family="sans-serif" font-size="13" font-weight="bold" lengthAdjust="spacing" textLength="17.1514" x="524.5576" y="547.4043">13</text><text fill="#000000" font-family="sans-serif" font-size="13" lengthAdjust="spacing" textLength="531.0322" x="545.709" y="547.4043">errorMessage("Invalid or duplicate category name/description, or category inactive")</text><line style="stroke:#000000;stroke-width:1.0;stroke-dasharray:2.0,2.0;" x1="411.9722" x2="1953.9668" y1="561.1465" y2="561.1465"/><text fill="#000000" font-family="sans-serif" font-size="11" font-weight="bold" lengthAdjust="spacing" textLength="68.9863" x="416.9722" y="571.7813">[valid input]</text><polygon fill="#181818" points="1707.7012,592.4121,1717.7012,596.4121,1707.7012,600.4121,1711.7012,596.4121" style="stroke:#181818;stroke-width:1.0;"/><line style="stroke:#181818;stroke-width:1.0;" x1="1093.7412" x2="1713.7012" y1="596.4121" y2="596.4121"/><text fill="#000000" font-family="sans-serif" font-size="13" font-weight="bold" lengthAdjust="spacing" textLength="17.1514" x="1100.7412" y="591.6699">14</text><text fill="#000000" font-family="sans-serif" font-size="13" lengthAdjust="spacing" textLength="71.3794" x="1121.8926" y="591.6699">findById(id)</text><polygon fill="#181818" points="1104.7412,621.7227,1094.7412,625.7227,1104.7412,629.7227,1100.7412,625.7227" style="stroke:#181818;stroke-width:1.0;"/><line style="stroke:#181818;stroke-width:1.0;" x1="1098.7412" x2="1718.7012" y1="625.7227" y2="625.7227"/><text fill="#000000" font-family="sans-serif" font-size="13" font-weight="bold" lengthAdjust="spacing" textLength="17.1514" x="1110.7412" y="620.9805">15</text><text fill="#000000" font-family="sans-serif" font-size="13" lengthAdjust="spacing" textLength="95.9448" x="1131.8926" y="620.9805">FigureCategory</text><polygon fill="#181818" points="1873.3042,651.0332,1883.3042,655.0332,1873.3042,659.0332,1877.3042,655.0332" style="stroke:#181818;stroke-width:1.0;"/><line style="stroke:#181818;stroke-width:1.0;" x1="1093.7412" x2="1879.3042" y1="655.0332" y2="655.0332"/><text fill="#000000" font-family="sans-serif" font-size="13" font-weight="bold" lengthAdjust="spacing" textLength="17.1514" x="1100.7412" y="650.291">16</text><text fill="#000000" font-family="sans-serif" font-size="13" lengthAdjust="spacing" textLength="219.4131" x="1121.8926" y="650.291">update(newName, newDescription)</text><polygon fill="#181818" points="1707.7012,680.3438,1717.7012,684.3438,1707.7012,688.3438,1711.7012,684.3438" style="stroke:#181818;stroke-width:1.0;"/><line style="stroke:#181818;stroke-width:1.0;" x1="1093.7412" x2="1713.7012" y1="684.3438" y2="684.3438"/><text fill="#000000" font-family="sans-serif" font-size="13" font-weight="bold" lengthAdjust="spacing" textLength="17.1514" x="1100.7412" y="679.6016">17</text><text fill="#000000" font-family="sans-serif" font-size="13" lengthAdjust="spacing" textLength="132.1772" x="1121.8926" y="679.6016">save(FigureCategory)</text><polygon fill="#181818" points="1104.7412,709.6543,1094.7412,713.6543,1104.7412,717.6543,1100.7412,713.6543" style="stroke:#181818;stroke-width:1.0;"/><line style="stroke:#181818;stroke-width:1.0;" x1="1098.7412" x2="1718.7012" y1="713.6543" y2="713.6543"/><text fill="#000000" font-family="sans-serif" font-size="13" font-weight="bold" lengthAdjust="spacing" textLength="17.1514" x="1110.7412" y="708.9121">18</text><text fill="#000000" font-family="sans-serif" font-size="13" lengthAdjust="spacing" textLength="80.5581" x="1131.8926" y="708.9121">confirmation</text><polygon fill="#181818" points="518.5576,738.9648,508.5576,742.9648,518.5576,746.9648,514.5576,742.9648" style="stroke:#181818;stroke-width:1.0;"/><line style="stroke:#181818;stroke-width:1.0;" x1="512.5576" x2="1082.7412" y1="742.9648" y2="742.9648"/><text fill="#000000" font-family="sans-serif" font-size="13" font-weight="bold" lengthAdjust="spacing" textLength="17.1514" x="524.5576" y="738.2227">19</text><text fill="#000000" font-family="sans-serif" font-size="13" lengthAdjust="spacing" textLength="313.168" x="545.709" y="738.2227">successMessage("Category updated successfully")</text><line style="stroke:#000000;stroke-width:1.0;stroke-dasharray:2.0,2.0;" x1="10" x2="1963.9668" y1="758.9648" y2="758.9648"/><text fill="#000000" font-family="sans-serif" font-size="11" font-weight="bold" lengthAdjust="spacing" textLength="150.498" x="15" y="769.5996">[role is not ShowDesigner]</text><polygon fill="#181818" points="87.0156,790.2305,77.0156,794.2305,87.0156,798.2305,83.0156,794.2305" style="stroke:#181818;stroke-width:1.0;"/><line style="stroke:#181818;stroke-width:1.0;" x1="81.0156" x2="496.5576" y1="794.2305" y2="794.2305"/><text fill="#000000" font-family="sans-serif" font-size="13" font-weight="bold" lengthAdjust="spacing" textLength="17.1514" x="93.0156" y="789.4883">20</text><text fill="#000000" font-family="sans-serif" font-size="13" lengthAdjust="spacing" textLength="376.3906" x="114.167" y="789.4883">errorMessage("Access denied: ShowDesigner role required")</text><!--SRC=[XLHDRzim3BtxLn0v9K27tNqOa7aD461hWxGz31WmQ1BZ27KaJvBRvT-FeZ_bDAqljao-nyT7IVvPcreuSOAJDLOUdJqX1DTWveT8BUIpAF4Xd2i4Xp88KrRJ17yKohvgKy91L1wpJ3J1ckRq1nrzos0TB1wEzlKRUbqQT0iG7jR5u_q-8uAWfQw52R38RvKE6rqs3WiHiBJk_BJbvAVjXvc5DS7PgkheYyVzznbcXyvh7z18ZCduBt3chaZp3gpu_ClaUwojrt6nQVzn_eQL__ozlNjuNDyLjodQ3HWYI1METCoplztTfzWqlIsM_9erj6x2aPG9XQsZmv9Tro-4wcpE-0MVlf2JaDCG_pReWmSa6-70DK3sHKOmsKxvX1gfSoWn58rpQCAJHxTSPMEmBP13Gm5OJaU-weXYL1vHFkzjXSjqLwmoKGMW6I9e3zDG1lIq176kr85qI0AfE8S6mJpr-8VJA7rNn6uxtpLwGYG06dvSxugOF9_if4m2kjW1CJh_6GdZY6Sa2j-dQPL4-JbSspvp8cfYub2qMDbeNs_Fw5pE4qzvbrhTWC7NEt52_Y3NfTDrqDQi4ZDRXXTHQHKR-X0NnwaDvzExRi8DgAQkTDnfO1X6LuCstCXa0qBtz7LZH-YSTJ_GUxg9bejjnqhmaR77C_LdDQhXCaEqhxTeHIBTM33HU56z7U916_Nrl5NKzMf8YQ5huxhWISDqI6fsyLq7BtLuyOBBbEgQ7cdDGRkJY7HlUkeRASdHmTMUi9Ec-eH3KrNdtYwZild-urF7FlQ7rzXmxG3pff_FSyrrYDDeL7a2RJdZZQKTAbB12YRLwPAQhDhxxZy0]--></g></svg>