<svg xmlns="http://www.w3.org/2000/svg" xmlns:xlink="http://www.w3.org/1999/xlink" contentStyleType="text/css" height="516px" preserveAspectRatio="none" style="width:532px;height:516px;background:#FFFFFF;" version="1.1" viewBox="0 0 532 516" width="532px" zoomAndPan="magnify"><title>System Sequence Diagram (SSD) - US213 - List Users</title><defs/><g><text fill="#000000" font-family="sans-serif" font-size="14" font-weight="bold" lengthAdjust="spacing" textLength="357.1299" x="88.4392" y="30.1074">System Sequence Diagram (SSD) - US213 - List Users</text><rect fill="#FFFFFF" height="281.668" style="stroke:#181818;stroke-width:1.0;" width="10" x="22.8413" y="133.2422"/><rect fill="#FFFFFF" height="258.377" style="stroke:#181818;stroke-width:1.0;" width="10" x="258.7993" y="156.5332"/><rect fill="none" height="124.5039" style="stroke:#000000;stroke-width:1.5;" width="303.4917" x="221.5166" y="260.1152"/><line style="stroke:#181818;stroke-width:0.5;stroke-dasharray:5.0,5.0;" x1="27" x2="27" y1="123.2422" y2="432.9102"/><line style="stroke:#181818;stroke-width:0.5;stroke-dasharray:5.0,5.0;" x1="263.5166" x2="263.5166" y1="123.2422" y2="432.9102"/><text fill="#000000" font-family="sans-serif" font-size="14" lengthAdjust="spacing" textLength="39.6826" x="5" y="119.7285">Admin</text><ellipse cx="27.8413" cy="53.1211" fill="#E3E3E3" rx="8" ry="8" style="stroke:#181818;stroke-width:0.5;"/><path d="M27.8413,61.1211 L27.8413,88.1211 M14.8413,69.1211 L40.8413,69.1211 M27.8413,88.1211 L14.8413,103.1211 M27.8413,88.1211 L40.8413,103.1211 " fill="none" style="stroke:#181818;stroke-width:0.5;"/><text fill="#000000" font-family="sans-serif" font-size="14" lengthAdjust="spacing" textLength="39.6826" x="5" y="447.0176">Admin</text><ellipse cx="27.8413" cy="459.0313" fill="#E3E3E3" rx="8" ry="8" style="stroke:#181818;stroke-width:0.5;"/><path d="M27.8413,467.0313 L27.8413,494.0313 M14.8413,475.0313 L40.8413,475.0313 M27.8413,494.0313 L14.8413,509.0313 M27.8413,494.0313 L40.8413,509.0313 " fill="none" style="stroke:#181818;stroke-width:0.5;"/><rect fill="#E3E3E3" height="32.6211" rx="2.5" ry="2.5" style="stroke:#181818;stroke-width:0.5;" width="64.5654" x="231.5166" y="89.6211"/><text fill="#000000" font-family="sans-serif" font-size="14" lengthAdjust="spacing" textLength="50.5654" x="238.5166" y="111.7285">:System</text><rect fill="#E3E3E3" height="32.6211" rx="2.5" ry="2.5" style="stroke:#181818;stroke-width:0.5;" width="64.5654" x="231.5166" y="431.9102"/><text fill="#000000" font-family="sans-serif" font-size="14" lengthAdjust="spacing" textLength="50.5654" x="238.5166" y="454.0176">:System</text><rect fill="#FFFFFF" height="281.668" style="stroke:#181818;stroke-width:1.0;" width="10" x="22.8413" y="133.2422"/><rect fill="#FFFFFF" height="258.377" style="stroke:#181818;stroke-width:1.0;" width="10" x="258.7993" y="156.5332"/><polygon fill="#181818" points="246.7993,152.5332,256.7993,156.5332,246.7993,160.5332,250.7993,156.5332" style="stroke:#181818;stroke-width:1.0;"/><line style="stroke:#181818;stroke-width:1.0;" x1="32.8413" x2="252.7993" y1="156.5332" y2="156.5332"/><text fill="#000000" font-family="sans-serif" font-size="13" font-weight="bold" lengthAdjust="spacing" textLength="7.23" x="39.8413" y="151.2705">1</text><text fill="#000000" font-family="sans-serif" font-size="13" lengthAdjust="spacing" textLength="72.9409" x="51.0713" y="151.2705">listAllUsers()</text><line style="stroke:#181818;stroke-width:1.0;" x1="268.7993" x2="310.7993" y1="187.8242" y2="187.8242"/><line style="stroke:#181818;stroke-width:1.0;" x1="310.7993" x2="310.7993" y1="187.8242" y2="200.8242"/><line style="stroke:#181818;stroke-width:1.0;" x1="269.7993" x2="310.7993" y1="200.8242" y2="200.8242"/><polygon fill="#181818" points="279.7993,196.8242,269.7993,200.8242,279.7993,204.8242,275.7993,200.8242" style="stroke:#181818;stroke-width:1.0;"/><text fill="#000000" font-family="sans-serif" font-size="13" font-weight="bold" lengthAdjust="spacing" textLength="7.23" x="275.7993" y="182.5615">2</text><text fill="#000000" font-family="sans-serif" font-size="13" lengthAdjust="spacing" textLength="147.3608" x="287.0293" y="182.5615">verifyAdminPermissions()</text><line style="stroke:#181818;stroke-width:1.0;" x1="268.7993" x2="310.7993" y1="232.1152" y2="232.1152"/><line style="stroke:#181818;stroke-width:1.0;" x1="310.7993" x2="310.7993" y1="232.1152" y2="245.1152"/><line style="stroke:#181818;stroke-width:1.0;" x1="269.7993" x2="310.7993" y1="245.1152" y2="245.1152"/><polygon fill="#181818" points="279.7993,241.1152,269.7993,245.1152,279.7993,249.1152,275.7993,245.1152" style="stroke:#181818;stroke-width:1.0;"/><text fill="#000000" font-family="sans-serif" font-size="13" font-weight="bold" lengthAdjust="spacing" textLength="7.23" x="275.7993" y="226.8525">3</text><text fill="#000000" font-family="sans-serif" font-size="13" lengthAdjust="spacing" textLength="143.0571" x="287.0293" y="226.8525">checkPersistenceMode()</text><path d="M221.5166,260.1152 L281.6875,260.1152 L281.6875,269.4063 L271.6875,279.4063 L221.5166,279.4063 L221.5166,260.1152 " fill="#EEEEEE" style="stroke:#000000;stroke-width:1.5;"/><rect fill="none" height="124.5039" style="stroke:#000000;stroke-width:1.5;" width="303.4917" x="221.5166" y="260.1152"/><text fill="#000000" font-family="sans-serif" font-size="13" font-weight="bold" lengthAdjust="spacing" textLength="15.1709" x="236.5166" y="275.1436">alt</text><text fill="#000000" font-family="sans-serif" font-size="11" font-weight="bold" lengthAdjust="spacing" textLength="139.1274" x="296.6875" y="273.9854">[persistence = "database"]</text><line style="stroke:#181818;stroke-width:1.0;" x1="268.7993" x2="310.7993" y1="302.6973" y2="302.6973"/><line style="stroke:#181818;stroke-width:1.0;" x1="310.7993" x2="310.7993" y1="302.6973" y2="315.6973"/><line style="stroke:#181818;stroke-width:1.0;" x1="269.7993" x2="310.7993" y1="315.6973" y2="315.6973"/><polygon fill="#181818" points="279.7993,311.6973,269.7993,315.6973,279.7993,319.6973,275.7993,315.6973" style="stroke:#181818;stroke-width:1.0;"/><text fill="#000000" font-family="sans-serif" font-size="13" font-weight="bold" lengthAdjust="spacing" textLength="7.23" x="275.7993" y="297.4346">4</text><text fill="#000000" font-family="sans-serif" font-size="13" lengthAdjust="spacing" textLength="187.0908" x="287.0293" y="297.4346">repository.findAllUsersFromDB()</text><line style="stroke:#000000;stroke-width:1.0;stroke-dasharray:2.0,2.0;" x1="221.5166" x2="525.0083" y1="324.6973" y2="324.6973"/><text fill="#000000" font-family="sans-serif" font-size="11" font-weight="bold" lengthAdjust="spacing" textLength="147.6729" x="226.5166" y="336.5674">[persistence = "in-memory"]</text><line style="stroke:#181818;stroke-width:1.0;" x1="268.7993" x2="310.7993" y1="363.6191" y2="363.6191"/><line style="stroke:#181818;stroke-width:1.0;" x1="310.7993" x2="310.7993" y1="363.6191" y2="376.6191"/><line style="stroke:#181818;stroke-width:1.0;" x1="269.7993" x2="310.7993" y1="376.6191" y2="376.6191"/><polygon fill="#181818" points="279.7993,372.6191,269.7993,376.6191,279.7993,380.6191,275.7993,376.6191" style="stroke:#181818;stroke-width:1.0;"/><text fill="#000000" font-family="sans-serif" font-size="13" font-weight="bold" lengthAdjust="spacing" textLength="7.23" x="275.7993" y="358.3564">5</text><text fill="#000000" font-family="sans-serif" font-size="13" lengthAdjust="spacing" textLength="215.979" x="287.0293" y="358.3564">repository.findAllUsersFromMemory()</text><polygon fill="#181818" points="38.8413,410.9102,28.8413,414.9102,38.8413,418.9102,34.8413,414.9102" style="stroke:#181818;stroke-width:1.0;"/><line style="stroke:#181818;stroke-width:1.0;stroke-dasharray:2.0,2.0;" x1="32.8413" x2="262.7993" y1="414.9102" y2="414.9102"/><text fill="#000000" font-family="sans-serif" font-size="13" font-weight="bold" lengthAdjust="spacing" textLength="7.23" x="44.8413" y="409.6475">6</text><text fill="#000000" font-family="sans-serif" font-size="13" lengthAdjust="spacing" textLength="190.728" x="56.0713" y="409.6475">list of users (name, email, status)</text><!--SRC=[fL5BQyCm3BxdLuYSMcW7ssw53JhAJYiCGd-0wYYfgH-PfNJatyzr7WihFSqN2-jxoFhuh5s30IrOxxmw1My99BIKyTHfK9snfa8wGn182RhQp05ymj9_QrT3XOOfoqHBX1OT2raewAibfmXs6kihV54KkoMiuL0yFJx7-qEpm84fS9PXAzwrzaWXrafyW7nRMkroG8PKPT5JjD8DEe5yqvkaTbycdhwWq83F89vKmlfr76e39hfkZKc-YsK2JSHH2OOpaERq2mLTTKdsauBLpDgxKUWEHvr8dIEQe_Lr8tjVKcHC53G2pMyRNY0lKV28JFa4kgCTgF6iuyAwXqgxSlpPUmnqzpORYs90VqsqMrkoaVeVbtrIc3kvydQ3KQoFeWy0V0NjLG4M3YsjW2ngim8Mb9Q7rPHq4ypiASdz0000]--></g></svg>