<svg xmlns="http://www.w3.org/2000/svg" xmlns:xlink="http://www.w3.org/1999/xlink" contentStyleType="text/css" height="1221px" preserveAspectRatio="none" style="width:1160px;height:1221px;background:#FFFFFF;" version="1.1" viewBox="0 0 1160 1221" width="1160px" zoomAndPan="magnify"><defs/><g><!--cluster authz--><g id="cluster_authz"><path d="M757.5,800.5137 L795.0518,800.5137 A3.75,3.75 0 0 1 797.5518,803.0137 L804.5518,825.1348 L1147.5,825.1348 A2.5,2.5 0 0 1 1150,827.6348 L1150,1212.0137 A2.5,2.5 0 0 1 1147.5,1214.5137 L757.5,1214.5137 A2.5,2.5 0 0 1 755,1212.0137 L755,803.0137 A2.5,2.5 0 0 1 757.5,800.5137 " fill="none" style="stroke:#000000;stroke-width:1.5;"/><line style="stroke:#000000;stroke-width:1.5;" x1="755" x2="804.5518" y1="825.1348" y2="825.1348"/><text fill="#000000" font-family="sans-serif" font-size="14" font-weight="bold" lengthAdjust="spacing" textLength="36.5518" x="759" y="817.6211">authz</text></g><!--cluster persistence--><g id="cluster_persistence"><path d="M8.5,6.0137 L87.3203,6.0137 A3.75,3.75 0 0 1 89.8203,8.5137 L96.8203,30.6348 L729.5,30.6348 A2.5,2.5 0 0 1 732,33.1348 L732,556.0137 A2.5,2.5 0 0 1 729.5,558.5137 L8.5,558.5137 A2.5,2.5 0 0 1 6,556.0137 L6,8.5137 A2.5,2.5 0 0 1 8.5,6.0137 " fill="none" style="stroke:#000000;stroke-width:1.5;"/><line style="stroke:#000000;stroke-width:1.5;" x1="6" x2="96.8203" y1="30.6348" y2="30.6348"/><text fill="#000000" font-family="sans-serif" font-size="14" font-weight="bold" lengthAdjust="spacing" textLength="77.8203" x="10" y="23.1211">persistence</text></g><!--cluster interfaces--><g id="cluster_interfaces"><path d="M328.5,303.5137 L395.6445,303.5137 A3.75,3.75 0 0 1 398.1445,306.0137 L405.1445,328.1348 L705.5,328.1348 A2.5,2.5 0 0 1 708,330.6348 L708,532.0137 A2.5,2.5 0 0 1 705.5,534.5137 L328.5,534.5137 A2.5,2.5 0 0 1 326,532.0137 L326,306.0137 A2.5,2.5 0 0 1 328.5,303.5137 " fill="none" style="stroke:#000000;stroke-width:1.5;"/><line style="stroke:#000000;stroke-width:1.5;" x1="326" x2="405.1445" y1="328.1348" y2="328.1348"/><text fill="#000000" font-family="sans-serif" font-size="14" font-weight="bold" lengthAdjust="spacing" textLength="66.1445" x="330" y="320.6211">interfaces</text></g><!--cluster jpa--><g id="cluster_jpa"><path d="M32.5,51.0137 L53.7275,51.0137 A3.75,3.75 0 0 1 56.2275,53.5137 L63.2275,75.6348 L299.5,75.6348 A2.5,2.5 0 0 1 302,78.1348 L302,223.5137 A2.5,2.5 0 0 1 299.5,226.0137 L32.5,226.0137 A2.5,2.5 0 0 1 30,223.5137 L30,53.5137 A2.5,2.5 0 0 1 32.5,51.0137 " fill="none" style="stroke:#000000;stroke-width:1.5;"/><line style="stroke:#000000;stroke-width:1.5;" x1="30" x2="63.2275" y1="75.6348" y2="75.6348"/><text fill="#000000" font-family="sans-serif" font-size="14" font-weight="bold" lengthAdjust="spacing" textLength="20.2275" x="34" y="68.1211">jpa</text></g><!--cluster inmemory--><g id="cluster_inmemory"><path d="M328.5,60.0137 L396.4102,60.0137 A3.75,3.75 0 0 1 398.9102,62.5137 L405.9102,84.6348 L705.5,84.6348 A2.5,2.5 0 0 1 708,87.1348 L708,214.5137 A2.5,2.5 0 0 1 705.5,217.0137 L328.5,217.0137 A2.5,2.5 0 0 1 326,214.5137 L326,62.5137 A2.5,2.5 0 0 1 328.5,60.0137 " fill="none" style="stroke:#000000;stroke-width:1.5;"/><line style="stroke:#000000;stroke-width:1.5;" x1="326" x2="405.9102" y1="84.6348" y2="84.6348"/><text fill="#000000" font-family="sans-serif" font-size="14" font-weight="bold" lengthAdjust="spacing" textLength="66.9102" x="330" y="77.1211">inmemory</text></g><!--cluster controller--><g id="cluster_controller"><path d="M758.5,51.0137 L824.0654,51.0137 A3.75,3.75 0 0 1 826.5654,53.5137 L833.5654,75.6348 L1055.5,75.6348 A2.5,2.5 0 0 1 1058,78.1348 L1058,223.5137 A2.5,2.5 0 0 1 1055.5,226.0137 L758.5,226.0137 A2.5,2.5 0 0 1 756,223.5137 L756,53.5137 A2.5,2.5 0 0 1 758.5,51.0137 " fill="none" style="stroke:#000000;stroke-width:1.5;"/><line style="stroke:#000000;stroke-width:1.5;" x1="756" x2="833.5654" y1="75.6348" y2="75.6348"/><text fill="#000000" font-family="sans-serif" font-size="14" font-weight="bold" lengthAdjust="spacing" textLength="64.5654" x="760" y="68.1211">controller</text></g><!--cluster framework--><g id="cluster_framework"><path d="M758.5,277.0137 L830.3066,277.0137 A3.75,3.75 0 0 1 832.8066,279.5137 L839.8066,301.6348 L1081.5,301.6348 A2.5,2.5 0 0 1 1084,304.1348 L1084,765.0137 A2.5,2.5 0 0 1 1081.5,767.5137 L758.5,767.5137 A2.5,2.5 0 0 1 756,765.0137 L756,279.5137 A2.5,2.5 0 0 1 758.5,277.0137 " fill="none" style="stroke:#000000;stroke-width:1.5;"/><line style="stroke:#000000;stroke-width:1.5;" x1="756" x2="839.8066" y1="301.6348" y2="301.6348"/><text fill="#000000" font-family="sans-serif" font-size="14" font-weight="bold" lengthAdjust="spacing" textLength="70.8066" x="760" y="294.1211">framework</text></g><!--cluster auth--><g id="cluster_auth"><path d="M782.5,322.0137 L813.0518,322.0137 A3.75,3.75 0 0 1 815.5518,324.5137 L822.5518,346.6348 L1057.5,346.6348 A2.5,2.5 0 0 1 1060,349.1348 L1060,741.0137 A2.5,2.5 0 0 1 1057.5,743.5137 L782.5,743.5137 A2.5,2.5 0 0 1 780,741.0137 L780,324.5137 A2.5,2.5 0 0 1 782.5,322.0137 " fill="none" style="stroke:#000000;stroke-width:1.5;"/><line style="stroke:#000000;stroke-width:1.5;" x1="780" x2="822.5518" y1="346.6348" y2="346.6348"/><text fill="#000000" font-family="sans-serif" font-size="14" font-weight="bold" lengthAdjust="spacing" textLength="29.5518" x="784" y="339.1211">auth</text></g><!--class User--><g id="elem_User"><rect codeLine="4" fill="#F1F1F1" height="178.3477" id="User" rx="2.5" ry="2.5" style="stroke:#181818;stroke-width:0.5;" width="196.8301" x="821.5" y="837.5137"/><ellipse cx="900.8857" cy="853.5137" fill="#ADD1B2" rx="11" ry="11" style="stroke:#181818;stroke-width:1.0;"/><path d="M903.6514,849.3887 Q903.8076,849.1699 903.9951,849.0605 Q904.1826,848.9512 904.4014,848.9512 Q904.7764,848.9512 905.0107,849.2168 Q905.2451,849.4668 905.2451,850.0762 L905.2451,851.5293 Q905.2451,852.1387 905.0107,852.4043 Q904.7764,852.6699 904.4014,852.6699 Q904.0576,852.6699 903.8545,852.4668 Q903.6514,852.2793 903.542,851.7637 Q903.4951,851.4043 903.3076,851.2168 Q902.9795,850.8418 902.3701,850.623 Q901.7607,850.4043 901.1357,850.4043 Q900.3701,850.4043 899.7295,850.7324 Q899.1045,851.0605 898.6045,851.8105 Q898.1201,852.5605 898.1201,853.5918 L898.1201,854.6855 Q898.1201,855.9199 899.0107,856.748 Q899.9014,857.5605 901.4951,857.5605 Q902.4326,857.5605 903.0889,857.3105 Q903.4795,857.1543 903.9014,856.7168 Q904.167,856.4512 904.3076,856.373 Q904.4639,856.2949 904.667,856.2949 Q904.9951,856.2949 905.2451,856.5605 Q905.5107,856.8105 905.5107,857.1543 Q905.5107,857.498 905.167,857.9043 Q904.667,858.4824 903.8701,858.8105 Q902.792,859.2637 901.4951,859.2637 Q899.9795,859.2637 898.7764,858.6387 Q897.792,858.1387 897.1045,857.0762 Q896.417,855.998 896.417,854.7168 L896.417,853.5605 Q896.417,852.2324 897.0264,851.0918 Q897.6514,849.9355 898.7451,849.3262 Q899.8389,848.7012 901.0732,848.7012 Q901.8076,848.7012 902.4482,848.873 Q903.1045,849.0293 903.6514,849.3887 Z " fill="#000000"/><text fill="#000000" font-family="sans-serif" font-size="14" lengthAdjust="spacing" textLength="29.5586" x="921.3857" y="859.3105">User</text><line style="stroke:#181818;stroke-width:0.5;" x1="822.5" x2="1017.3301" y1="869.5137" y2="869.5137"/><text fill="#000000" font-family="sans-serif" font-size="14" lengthAdjust="spacing" textLength="54.4551" x="827.5" y="888.6211">-Email id</text><text fill="#000000" font-family="sans-serif" font-size="14" lengthAdjust="spacing" textLength="129.9375" x="827.5" y="907.2422">-Password password</text><text fill="#000000" font-family="sans-serif" font-size="14" lengthAdjust="spacing" textLength="80.1445" x="827.5" y="925.8633">-String name</text><text fill="#000000" font-family="sans-serif" font-size="14" lengthAdjust="spacing" textLength="134.6133" x="827.5" y="944.4844">-Set&lt;UserRole&gt; roles</text><line style="stroke:#181818;stroke-width:0.5;" x1="822.5" x2="1017.3301" y1="951.998" y2="951.998"/><text fill="#000000" font-family="sans-serif" font-size="14" lengthAdjust="spacing" textLength="184.8301" x="827.5" y="971.1055">+hasPassword(pwd): boolean</text><text fill="#000000" font-family="sans-serif" font-size="14" lengthAdjust="spacing" textLength="150.6025" x="827.5" y="989.7266">+addRole(role): boolean</text><text fill="#000000" font-family="sans-serif" font-size="14" lengthAdjust="spacing" textLength="161.4922" x="827.5" y="1008.3477">+hasRole(roleId): boolean</text></g><!--class UserRole--><g id="elem_UserRole"><rect codeLine="14" fill="#F1F1F1" height="103.8633" id="UserRole" rx="2.5" ry="2.5" style="stroke:#181818;stroke-width:0.5;" width="132.251" x="1002" y="1094.5137"/><ellipse cx="1035.8547" cy="1110.5137" fill="#ADD1B2" rx="11" ry="11" style="stroke:#181818;stroke-width:1.0;"/><path d="M1038.6204,1106.3887 Q1038.7766,1106.1699 1038.9641,1106.0605 Q1039.1516,1105.9512 1039.3704,1105.9512 Q1039.7454,1105.9512 1039.9797,1106.2168 Q1040.2141,1106.4668 1040.2141,1107.0762 L1040.2141,1108.5293 Q1040.2141,1109.1387 1039.9797,1109.4043 Q1039.7454,1109.6699 1039.3704,1109.6699 Q1039.0266,1109.6699 1038.8235,1109.4668 Q1038.6204,1109.2793 1038.511,1108.7637 Q1038.4641,1108.4043 1038.2766,1108.2168 Q1037.9485,1107.8418 1037.3391,1107.623 Q1036.7297,1107.4043 1036.1047,1107.4043 Q1035.3391,1107.4043 1034.6985,1107.7324 Q1034.0735,1108.0605 1033.5735,1108.8105 Q1033.0891,1109.5605 1033.0891,1110.5918 L1033.0891,1111.6855 Q1033.0891,1112.9199 1033.9797,1113.748 Q1034.8704,1114.5605 1036.4641,1114.5605 Q1037.4016,1114.5605 1038.0579,1114.3105 Q1038.4485,1114.1543 1038.8704,1113.7168 Q1039.136,1113.4512 1039.2766,1113.373 Q1039.4329,1113.2949 1039.636,1113.2949 Q1039.9641,1113.2949 1040.2141,1113.5605 Q1040.4797,1113.8105 1040.4797,1114.1543 Q1040.4797,1114.498 1040.136,1114.9043 Q1039.636,1115.4824 1038.8391,1115.8105 Q1037.761,1116.2637 1036.4641,1116.2637 Q1034.9485,1116.2637 1033.7454,1115.6387 Q1032.761,1115.1387 1032.0735,1114.0762 Q1031.386,1112.998 1031.386,1111.7168 L1031.386,1110.5605 Q1031.386,1109.2324 1031.9954,1108.0918 Q1032.6204,1106.9355 1033.7141,1106.3262 Q1034.8079,1105.7012 1036.0422,1105.7012 Q1036.7766,1105.7012 1037.4172,1105.873 Q1038.0735,1106.0293 1038.6204,1106.3887 Z " fill="#000000"/><text fill="#000000" font-family="sans-serif" font-size="14" lengthAdjust="spacing" textLength="58.3516" x="1054.0447" y="1116.3105">UserRole</text><line style="stroke:#181818;stroke-width:0.5;" x1="1003" x2="1133.251" y1="1126.5137" y2="1126.5137"/><text fill="#000000" font-family="sans-serif" font-size="14" lengthAdjust="spacing" textLength="56.0205" x="1008" y="1145.6211">-String id</text><text fill="#000000" font-family="sans-serif" font-size="14" lengthAdjust="spacing" textLength="112.8271" x="1008" y="1164.2422">-String description</text><line style="stroke:#181818;stroke-width:0.5;" x1="1003" x2="1133.251" y1="1171.7559" y2="1171.7559"/><text fill="#000000" font-family="sans-serif" font-size="14" lengthAdjust="spacing" textLength="120.251" x="1008" y="1190.8633">+hasId(id): boolean</text></g><!--class Email--><g id="elem_Email"><rect codeLine="20" fill="#F1F1F1" height="48" id="Email" rx="2.5" ry="2.5" style="stroke:#181818;stroke-width:0.5;" width="67.0068" x="771.5" y="1122.5137"/><ellipse cx="786.5" cy="1138.5137" fill="#ADD1B2" rx="11" ry="11" style="stroke:#181818;stroke-width:1.0;"/><path d="M789.2656,1134.3887 Q789.4219,1134.1699 789.6094,1134.0605 Q789.7969,1133.9512 790.0156,1133.9512 Q790.3906,1133.9512 790.625,1134.2168 Q790.8594,1134.4668 790.8594,1135.0762 L790.8594,1136.5293 Q790.8594,1137.1387 790.625,1137.4043 Q790.3906,1137.6699 790.0156,1137.6699 Q789.6719,1137.6699 789.4688,1137.4668 Q789.2656,1137.2793 789.1563,1136.7637 Q789.1094,1136.4043 788.9219,1136.2168 Q788.5938,1135.8418 787.9844,1135.623 Q787.375,1135.4043 786.75,1135.4043 Q785.9844,1135.4043 785.3438,1135.7324 Q784.7188,1136.0605 784.2188,1136.8105 Q783.7344,1137.5605 783.7344,1138.5918 L783.7344,1139.6855 Q783.7344,1140.9199 784.625,1141.748 Q785.5156,1142.5605 787.1094,1142.5605 Q788.0469,1142.5605 788.7031,1142.3105 Q789.0938,1142.1543 789.5156,1141.7168 Q789.7813,1141.4512 789.9219,1141.373 Q790.0781,1141.2949 790.2813,1141.2949 Q790.6094,1141.2949 790.8594,1141.5605 Q791.125,1141.8105 791.125,1142.1543 Q791.125,1142.498 790.7813,1142.9043 Q790.2813,1143.4824 789.4844,1143.8105 Q788.4063,1144.2637 787.1094,1144.2637 Q785.5938,1144.2637 784.3906,1143.6387 Q783.4063,1143.1387 782.7188,1142.0762 Q782.0313,1140.998 782.0313,1139.7168 L782.0313,1138.5605 Q782.0313,1137.2324 782.6406,1136.0918 Q783.2656,1134.9355 784.3594,1134.3262 Q785.4531,1133.7012 786.6875,1133.7012 Q787.4219,1133.7012 788.0625,1133.873 Q788.7188,1134.0293 789.2656,1134.3887 Z " fill="#000000"/><text fill="#000000" font-family="sans-serif" font-size="14" lengthAdjust="spacing" textLength="35.0068" x="800.5" y="1144.3105">Email</text><line style="stroke:#181818;stroke-width:0.5;" x1="772.5" x2="837.5068" y1="1154.5137" y2="1154.5137"/><line style="stroke:#181818;stroke-width:0.5;" x1="772.5" x2="837.5068" y1="1162.5137" y2="1162.5137"/></g><!--class Password--><g id="elem_Password"><rect codeLine="21" fill="#F1F1F1" height="48" id="Password" rx="2.5" ry="2.5" style="stroke:#181818;stroke-width:0.5;" width="93.4688" x="873.5" y="1122.5137"/><ellipse cx="888.5" cy="1138.5137" fill="#ADD1B2" rx="11" ry="11" style="stroke:#181818;stroke-width:1.0;"/><path d="M891.2656,1134.3887 Q891.4219,1134.1699 891.6094,1134.0605 Q891.7969,1133.9512 892.0156,1133.9512 Q892.3906,1133.9512 892.625,1134.2168 Q892.8594,1134.4668 892.8594,1135.0762 L892.8594,1136.5293 Q892.8594,1137.1387 892.625,1137.4043 Q892.3906,1137.6699 892.0156,1137.6699 Q891.6719,1137.6699 891.4688,1137.4668 Q891.2656,1137.2793 891.1563,1136.7637 Q891.1094,1136.4043 890.9219,1136.2168 Q890.5938,1135.8418 889.9844,1135.623 Q889.375,1135.4043 888.75,1135.4043 Q887.9844,1135.4043 887.3438,1135.7324 Q886.7188,1136.0605 886.2188,1136.8105 Q885.7344,1137.5605 885.7344,1138.5918 L885.7344,1139.6855 Q885.7344,1140.9199 886.625,1141.748 Q887.5156,1142.5605 889.1094,1142.5605 Q890.0469,1142.5605 890.7031,1142.3105 Q891.0938,1142.1543 891.5156,1141.7168 Q891.7813,1141.4512 891.9219,1141.373 Q892.0781,1141.2949 892.2813,1141.2949 Q892.6094,1141.2949 892.8594,1141.5605 Q893.125,1141.8105 893.125,1142.1543 Q893.125,1142.498 892.7813,1142.9043 Q892.2813,1143.4824 891.4844,1143.8105 Q890.4063,1144.2637 889.1094,1144.2637 Q887.5938,1144.2637 886.3906,1143.6387 Q885.4063,1143.1387 884.7188,1142.0762 Q884.0313,1140.998 884.0313,1139.7168 L884.0313,1138.5605 Q884.0313,1137.2324 884.6406,1136.0918 Q885.2656,1134.9355 886.3594,1134.3262 Q887.4531,1133.7012 888.6875,1133.7012 Q889.4219,1133.7012 890.0625,1133.873 Q890.7188,1134.0293 891.2656,1134.3887 Z " fill="#000000"/><text fill="#000000" font-family="sans-serif" font-size="14" lengthAdjust="spacing" textLength="61.4688" x="902.5" y="1144.3105">Password</text><line style="stroke:#181818;stroke-width:0.5;" x1="874.5" x2="965.9688" y1="1154.5137" y2="1154.5137"/><line style="stroke:#181818;stroke-width:0.5;" x1="874.5" x2="965.9688" y1="1162.5137" y2="1162.5137"/></g><!--class AuthenticationRepository--><g id="elem_AuthenticationRepository"><rect codeLine="29" fill="#F1F1F1" height="178.3477" id="AuthenticationRepository" rx="2.5" ry="2.5" style="stroke:#181818;stroke-width:0.5;" width="349.333" x="342.5" y="340.5137"/><ellipse cx="435.0928" cy="356.5137" fill="#B4A7E5" rx="11" ry="11" style="stroke:#181818;stroke-width:1.0;"/><path d="M436.0459,353.1543 L436.0459,359.8105 L437.7646,359.8105 Q438.374,359.8105 438.6396,360.0449 Q438.9053,360.2793 438.9053,360.6699 Q438.9053,361.0449 438.6396,361.2793 Q438.374,361.5137 437.7646,361.5137 L432.624,361.5137 Q432.0146,361.5137 431.749,361.2793 Q431.4834,361.0449 431.4834,360.6543 Q431.4834,360.2793 431.749,360.0449 Q432.0146,359.8105 432.624,359.8105 L434.3428,359.8105 L434.3428,353.1543 L432.624,353.1543 Q432.0146,353.1543 431.749,352.9199 Q431.4834,352.6855 431.4834,352.2949 Q431.4834,351.9199 431.749,351.6855 Q432.0146,351.4512 432.624,351.4512 L437.7646,351.4512 Q438.374,351.4512 438.6396,351.6855 Q438.9053,351.9199 438.9053,352.2949 Q438.9053,352.6855 438.6396,352.9199 Q438.374,353.1543 437.7646,353.1543 L436.0459,353.1543 Z " fill="#000000"/><text fill="#000000" font-family="sans-serif" font-size="14" font-style="italic" lengthAdjust="spacing" textLength="155.6475" x="455.5928" y="362.3105">AuthenticationRepository</text><line style="stroke:#181818;stroke-width:0.5;" x1="343.5" x2="690.833" y1="372.5137" y2="372.5137"/><line style="stroke:#181818;stroke-width:0.5;" x1="343.5" x2="690.833" y1="380.5137" y2="380.5137"/><text fill="#000000" font-family="sans-serif" font-size="14" lengthAdjust="spacing" textLength="191.8506" x="348.5" y="399.6211">+doLogin(email, pwd): boolean</text><text fill="#000000" font-family="sans-serif" font-size="14" lengthAdjust="spacing" textLength="75.8926" x="348.5" y="418.2422">+doLogout()</text><text fill="#000000" font-family="sans-serif" font-size="14" lengthAdjust="spacing" textLength="143.6094" x="348.5" y="436.8633">+isLoggedIn(): boolean</text><text fill="#000000" font-family="sans-serif" font-size="14" lengthAdjust="spacing" textLength="236.1338" x="348.5" y="455.4844">+getUserRoles(): List&lt;UserRoleDTO&gt;</text><text fill="#000000" font-family="sans-serif" font-size="14" lengthAdjust="spacing" textLength="250.1543" x="348.5" y="474.1055">+getCurrentUserSession(): UserSession</text><text fill="#000000" font-family="sans-serif" font-size="14" lengthAdjust="spacing" textLength="205.0645" x="348.5" y="492.7266">+addUserRole(id, desc): boolean</text><text fill="#000000" font-family="sans-serif" font-size="14" lengthAdjust="spacing" textLength="337.333" x="348.5" y="511.3477">+addUserWithRole(name, email, pwd, roleId): boolean</text></g><!--class AuthenticationRepositoryJPAImpl--><g id="elem_AuthenticationRepositoryJPAImpl"><rect codeLine="41" fill="#F1F1F1" height="122.4844" id="AuthenticationRepositoryJPAImpl" rx="2.5" ry="2.5" style="stroke:#181818;stroke-width:0.5;" width="239.7715" x="46" y="88.0137"/><ellipse cx="61" cy="104.0137" fill="#ADD1B2" rx="11" ry="11" style="stroke:#181818;stroke-width:1.0;"/><path d="M63.7656,99.8887 Q63.9219,99.6699 64.1094,99.5605 Q64.2969,99.4512 64.5156,99.4512 Q64.8906,99.4512 65.125,99.7168 Q65.3594,99.9668 65.3594,100.5762 L65.3594,102.0293 Q65.3594,102.6387 65.125,102.9043 Q64.8906,103.1699 64.5156,103.1699 Q64.1719,103.1699 63.9688,102.9668 Q63.7656,102.7793 63.6563,102.2637 Q63.6094,101.9043 63.4219,101.7168 Q63.0938,101.3418 62.4844,101.123 Q61.875,100.9043 61.25,100.9043 Q60.4844,100.9043 59.8438,101.2324 Q59.2188,101.5605 58.7188,102.3105 Q58.2344,103.0605 58.2344,104.0918 L58.2344,105.1855 Q58.2344,106.4199 59.125,107.248 Q60.0156,108.0605 61.6094,108.0605 Q62.5469,108.0605 63.2031,107.8105 Q63.5938,107.6543 64.0156,107.2168 Q64.2813,106.9512 64.4219,106.873 Q64.5781,106.7949 64.7813,106.7949 Q65.1094,106.7949 65.3594,107.0605 Q65.625,107.3105 65.625,107.6543 Q65.625,107.998 65.2813,108.4043 Q64.7813,108.9824 63.9844,109.3105 Q62.9063,109.7637 61.6094,109.7637 Q60.0938,109.7637 58.8906,109.1387 Q57.9063,108.6387 57.2188,107.5762 Q56.5313,106.498 56.5313,105.2168 L56.5313,104.0605 Q56.5313,102.7324 57.1406,101.5918 Q57.7656,100.4355 58.8594,99.8262 Q59.9531,99.2012 61.1875,99.2012 Q61.9219,99.2012 62.5625,99.373 Q63.2188,99.5293 63.7656,99.8887 Z " fill="#000000"/><text fill="#000000" font-family="sans-serif" font-size="14" lengthAdjust="spacing" textLength="207.7715" x="75" y="109.8105">AuthenticationRepositoryJPAImpl</text><line style="stroke:#181818;stroke-width:0.5;" x1="47" x2="284.7715" y1="120.0137" y2="120.0137"/><text fill="#000000" font-family="sans-serif" font-size="14" lengthAdjust="spacing" textLength="224.082" x="52" y="139.1211">-UserRoleRepository roleRepository</text><line style="stroke:#181818;stroke-width:0.5;" x1="47" x2="284.7715" y1="146.6348" y2="146.6348"/><text fill="#000000" font-family="sans-serif" font-size="14" lengthAdjust="spacing" textLength="106.1895" x="52" y="165.7422">+saveUser(User)</text><text fill="#000000" font-family="sans-serif" font-size="14" lengthAdjust="spacing" textLength="134.2168" x="52" y="184.3633">+saveRole(UserRole)</text><text fill="#000000" font-family="sans-serif" font-size="14" lengthAdjust="spacing" textLength="140.4307" x="52" y="202.9844">+findById(Email): User</text></g><!--class InMemoryAuthenticationRepository--><g id="elem_InMemoryAuthenticationRepository"><rect codeLine="51" fill="#F1F1F1" height="103.8633" id="InMemoryAuthenticationRepository" rx="2.5" ry="2.5" style="stroke:#181818;stroke-width:0.5;" width="349.333" x="342.5" y="97.0137"/><ellipse cx="403.9756" cy="113.0137" fill="#ADD1B2" rx="11" ry="11" style="stroke:#181818;stroke-width:1.0;"/><path d="M406.7412,108.8887 Q406.8975,108.6699 407.085,108.5605 Q407.2725,108.4512 407.4912,108.4512 Q407.8662,108.4512 408.1006,108.7168 Q408.335,108.9668 408.335,109.5762 L408.335,111.0293 Q408.335,111.6387 408.1006,111.9043 Q407.8662,112.1699 407.4912,112.1699 Q407.1475,112.1699 406.9443,111.9668 Q406.7412,111.7793 406.6318,111.2637 Q406.585,110.9043 406.3975,110.7168 Q406.0693,110.3418 405.46,110.123 Q404.8506,109.9043 404.2256,109.9043 Q403.46,109.9043 402.8193,110.2324 Q402.1943,110.5605 401.6943,111.3105 Q401.21,112.0605 401.21,113.0918 L401.21,114.1855 Q401.21,115.4199 402.1006,116.248 Q402.9912,117.0605 404.585,117.0605 Q405.5225,117.0605 406.1787,116.8105 Q406.5693,116.6543 406.9912,116.2168 Q407.2568,115.9512 407.3975,115.873 Q407.5537,115.7949 407.7568,115.7949 Q408.085,115.7949 408.335,116.0605 Q408.6006,116.3105 408.6006,116.6543 Q408.6006,116.998 408.2568,117.4043 Q407.7568,117.9824 406.96,118.3105 Q405.8818,118.7637 404.585,118.7637 Q403.0693,118.7637 401.8662,118.1387 Q400.8818,117.6387 400.1943,116.5762 Q399.5068,115.498 399.5068,114.2168 L399.5068,113.0605 Q399.5068,111.7324 400.1162,110.5918 Q400.7412,109.4355 401.835,108.8262 Q402.9287,108.2012 404.1631,108.2012 Q404.8975,108.2012 405.5381,108.373 Q406.1943,108.5293 406.7412,108.8887 Z " fill="#000000"/><text fill="#000000" font-family="sans-serif" font-size="14" lengthAdjust="spacing" textLength="217.8818" x="424.4756" y="118.8105">InMemoryAuthenticationRepository</text><line style="stroke:#181818;stroke-width:0.5;" x1="343.5" x2="690.833" y1="129.0137" y2="129.0137"/><text fill="#000000" font-family="sans-serif" font-size="14" lengthAdjust="spacing" textLength="217.9229" x="348.5" y="148.1211">-AuthFacade authenticationFacade</text><line style="stroke:#181818;stroke-width:0.5;" x1="343.5" x2="690.833" y1="155.6348" y2="155.6348"/><text fill="#000000" font-family="sans-serif" font-size="14" lengthAdjust="spacing" textLength="205.0645" x="348.5" y="174.7422">+addUserRole(id, desc): boolean</text><text fill="#000000" font-family="sans-serif" font-size="14" lengthAdjust="spacing" textLength="337.333" x="348.5" y="193.3633">+addUserWithRole(name, email, pwd, roleId): boolean</text></g><!--class AuthenticationController--><g id="elem_AuthenticationController"><rect codeLine="60" fill="#F1F1F1" height="122.4844" id="AuthenticationController" rx="2.5" ry="2.5" style="stroke:#181818;stroke-width:0.5;" width="270.3643" x="772" y="88.0137"/><ellipse cx="828.2222" cy="104.0137" fill="#ADD1B2" rx="11" ry="11" style="stroke:#181818;stroke-width:1.0;"/><path d="M830.9878,99.8887 Q831.144,99.6699 831.3315,99.5605 Q831.519,99.4512 831.7378,99.4512 Q832.1128,99.4512 832.3472,99.7168 Q832.5815,99.9668 832.5815,100.5762 L832.5815,102.0293 Q832.5815,102.6387 832.3472,102.9043 Q832.1128,103.1699 831.7378,103.1699 Q831.394,103.1699 831.1909,102.9668 Q830.9878,102.7793 830.8784,102.2637 Q830.8315,101.9043 830.644,101.7168 Q830.3159,101.3418 829.7065,101.123 Q829.0972,100.9043 828.4722,100.9043 Q827.7065,100.9043 827.0659,101.2324 Q826.4409,101.5605 825.9409,102.3105 Q825.4565,103.0605 825.4565,104.0918 L825.4565,105.1855 Q825.4565,106.4199 826.3472,107.248 Q827.2378,108.0605 828.8315,108.0605 Q829.769,108.0605 830.4253,107.8105 Q830.8159,107.6543 831.2378,107.2168 Q831.5034,106.9512 831.644,106.873 Q831.8003,106.7949 832.0034,106.7949 Q832.3315,106.7949 832.5815,107.0605 Q832.8472,107.3105 832.8472,107.6543 Q832.8472,107.998 832.5034,108.4043 Q832.0034,108.9824 831.2065,109.3105 Q830.1284,109.7637 828.8315,109.7637 Q827.3159,109.7637 826.1128,109.1387 Q825.1284,108.6387 824.4409,107.5762 Q823.7534,106.498 823.7534,105.2168 L823.7534,104.0605 Q823.7534,102.7324 824.3628,101.5918 Q824.9878,100.4355 826.0815,99.8262 Q827.1753,99.2012 828.4097,99.2012 Q829.144,99.2012 829.7847,99.373 Q830.4409,99.5293 830.9878,99.8887 Z " fill="#000000"/><text fill="#000000" font-family="sans-serif" font-size="14" lengthAdjust="spacing" textLength="149.4199" x="848.7222" y="109.8105">AuthenticationController</text><line style="stroke:#181818;stroke-width:0.5;" x1="773" x2="1041.3643" y1="120.0137" y2="120.0137"/><text fill="#000000" font-family="sans-serif" font-size="14" lengthAdjust="spacing" textLength="258.3643" x="778" y="139.1211">-AuthenticationRepository authRepository</text><line style="stroke:#181818;stroke-width:0.5;" x1="773" x2="1041.3643" y1="146.6348" y2="146.6348"/><text fill="#000000" font-family="sans-serif" font-size="14" lengthAdjust="spacing" textLength="191.8506" x="778" y="165.7422">+doLogin(email, pwd): boolean</text><text fill="#000000" font-family="sans-serif" font-size="14" lengthAdjust="spacing" textLength="236.1338" x="778" y="184.3633">+getUserRoles(): List&lt;UserRoleDTO&gt;</text><text fill="#000000" font-family="sans-serif" font-size="14" lengthAdjust="spacing" textLength="75.8926" x="778" y="202.9844">+doLogout()</text></g><!--class AuthFacade--><g id="elem_AuthFacade"><rect codeLine="69" fill="#F1F1F1" height="141.1055" id="AuthFacade" rx="2.5" ry="2.5" style="stroke:#181818;stroke-width:0.5;" width="233.3887" x="807.5" y="359.0137"/><ellipse cx="882.1963" cy="375.0137" fill="#ADD1B2" rx="11" ry="11" style="stroke:#181818;stroke-width:1.0;"/><path d="M884.9619,370.8887 Q885.1182,370.6699 885.3057,370.5605 Q885.4932,370.4512 885.7119,370.4512 Q886.0869,370.4512 886.3213,370.7168 Q886.5557,370.9668 886.5557,371.5762 L886.5557,373.0293 Q886.5557,373.6387 886.3213,373.9043 Q886.0869,374.1699 885.7119,374.1699 Q885.3682,374.1699 885.165,373.9668 Q884.9619,373.7793 884.8525,373.2637 Q884.8057,372.9043 884.6182,372.7168 Q884.29,372.3418 883.6807,372.123 Q883.0713,371.9043 882.4463,371.9043 Q881.6807,371.9043 881.04,372.2324 Q880.415,372.5605 879.915,373.3105 Q879.4307,374.0605 879.4307,375.0918 L879.4307,376.1855 Q879.4307,377.4199 880.3213,378.248 Q881.2119,379.0605 882.8057,379.0605 Q883.7432,379.0605 884.3994,378.8105 Q884.79,378.6543 885.2119,378.2168 Q885.4775,377.9512 885.6182,377.873 Q885.7744,377.7949 885.9775,377.7949 Q886.3057,377.7949 886.5557,378.0605 Q886.8213,378.3105 886.8213,378.6543 Q886.8213,378.998 886.4775,379.4043 Q885.9775,379.9824 885.1807,380.3105 Q884.1025,380.7637 882.8057,380.7637 Q881.29,380.7637 880.0869,380.1387 Q879.1025,379.6387 878.415,378.5762 Q877.7275,377.498 877.7275,376.2168 L877.7275,375.0605 Q877.7275,373.7324 878.3369,372.5918 Q878.9619,371.4355 880.0557,370.8262 Q881.1494,370.2012 882.3838,370.2012 Q883.1182,370.2012 883.7588,370.373 Q884.415,370.5293 884.9619,370.8887 Z " fill="#000000"/><text fill="#000000" font-family="sans-serif" font-size="14" lengthAdjust="spacing" textLength="75.4961" x="902.6963" y="380.8105">AuthFacade</text><line style="stroke:#181818;stroke-width:0.5;" x1="808.5" x2="1039.8887" y1="391.0137" y2="391.0137"/><text fill="#000000" font-family="sans-serif" font-size="14" lengthAdjust="spacing" textLength="105.8066" x="813.5" y="410.1211">-UserStore users</text><text fill="#000000" font-family="sans-serif" font-size="14" lengthAdjust="spacing" textLength="130.71" x="813.5" y="428.7422">-UserRoleStore roles</text><line style="stroke:#181818;stroke-width:0.5;" x1="808.5" x2="1039.8887" y1="436.2559" y2="436.2559"/><text fill="#000000" font-family="sans-serif" font-size="14" lengthAdjust="spacing" textLength="221.3887" x="813.5" y="455.3633">+doLogin(email, pwd): UserSession</text><text fill="#000000" font-family="sans-serif" font-size="14" lengthAdjust="spacing" textLength="75.8926" x="813.5" y="473.9844">+doLogout()</text><text fill="#000000" font-family="sans-serif" font-size="14" lengthAdjust="spacing" textLength="138.8789" x="813.5" y="492.6055">+addUserWithRole(...)</text></g><!--class UserSession--><g id="elem_UserSession"><rect codeLine="77" fill="#F1F1F1" height="122.4844" id="UserSession" rx="2.5" ry="2.5" style="stroke:#181818;stroke-width:0.5;" width="248.1338" x="796" y="605.5137"/><ellipse cx="876.1343" cy="621.5137" fill="#ADD1B2" rx="11" ry="11" style="stroke:#181818;stroke-width:1.0;"/><path d="M878.8999,617.3887 Q879.0562,617.1699 879.2437,617.0605 Q879.4312,616.9512 879.6499,616.9512 Q880.0249,616.9512 880.2593,617.2168 Q880.4937,617.4668 880.4937,618.0762 L880.4937,619.5293 Q880.4937,620.1387 880.2593,620.4043 Q880.0249,620.6699 879.6499,620.6699 Q879.3062,620.6699 879.103,620.4668 Q878.8999,620.2793 878.7905,619.7637 Q878.7437,619.4043 878.5562,619.2168 Q878.228,618.8418 877.6187,618.623 Q877.0093,618.4043 876.3843,618.4043 Q875.6187,618.4043 874.978,618.7324 Q874.353,619.0605 873.853,619.8105 Q873.3687,620.5605 873.3687,621.5918 L873.3687,622.6855 Q873.3687,623.9199 874.2593,624.748 Q875.1499,625.5605 876.7437,625.5605 Q877.6812,625.5605 878.3374,625.3105 Q878.728,625.1543 879.1499,624.7168 Q879.4155,624.4512 879.5562,624.373 Q879.7124,624.2949 879.9155,624.2949 Q880.2437,624.2949 880.4937,624.5605 Q880.7593,624.8105 880.7593,625.1543 Q880.7593,625.498 880.4155,625.9043 Q879.9155,626.4824 879.1187,626.8105 Q878.0405,627.2637 876.7437,627.2637 Q875.228,627.2637 874.0249,626.6387 Q873.0405,626.1387 872.353,625.0762 Q871.6655,623.998 871.6655,622.7168 L871.6655,621.5605 Q871.6655,620.2324 872.2749,619.0918 Q872.8999,617.9355 873.9937,617.3262 Q875.0874,616.7012 876.3218,616.7012 Q877.0562,616.7012 877.6968,616.873 Q878.353,617.0293 878.8999,617.3887 Z " fill="#000000"/><text fill="#000000" font-family="sans-serif" font-size="14" lengthAdjust="spacing" textLength="79.3652" x="896.6343" y="627.3105">UserSession</text><line style="stroke:#181818;stroke-width:0.5;" x1="797" x2="1043.1338" y1="637.5137" y2="637.5137"/><text fill="#000000" font-family="sans-serif" font-size="14" lengthAdjust="spacing" textLength="65.3447" x="802" y="656.6211">-User user</text><line style="stroke:#181818;stroke-width:0.5;" x1="797" x2="1043.1338" y1="664.1348" y2="664.1348"/><text fill="#000000" font-family="sans-serif" font-size="14" lengthAdjust="spacing" textLength="143.6094" x="802" y="683.2422">+isLoggedIn(): boolean</text><text fill="#000000" font-family="sans-serif" font-size="14" lengthAdjust="spacing" textLength="120.9824" x="802" y="701.8633">+getUserId(): Email</text><text fill="#000000" font-family="sans-serif" font-size="14" lengthAdjust="spacing" textLength="236.1338" x="802" y="720.4844">+getUserRoles(): List&lt;UserRoleDTO&gt;</text></g><!--link User to UserRole--><g id="link_User_UserRole"><path codeLine="23" d="M979.77,1015.5537 C997.98,1042.3837 1014.02,1065.9995 1029.98,1089.5095 " fill="none" id="User-to-UserRole" style="stroke:#181818;stroke-width:1.0;"/><polygon fill="#181818" points="1033.35,1094.4737,1031.6045,1084.7807,1030.5417,1090.3368,1024.9856,1089.274,1033.35,1094.4737" style="stroke:#181818;stroke-width:1.0;"/><text fill="#000000" font-family="sans-serif" font-size="13" lengthAdjust="spacing" textLength="20.96" x="1012" y="1060.542">has</text></g><!--link User to Email--><g id="link_User_Email"><path codeLine="24" d="M873.56,1015.5537 C853.11,1054.3137 833.5176,1091.4358 820.0776,1116.9358 " fill="none" id="User-to-Email" style="stroke:#181818;stroke-width:1.0;"/><polygon fill="#181818" points="817.28,1122.2437,825.0149,1116.1469,819.6113,1117.8204,817.9378,1112.4168,817.28,1122.2437" style="stroke:#181818;stroke-width:1.0;"/></g><!--link User to Password--><g id="link_User_Password"><path codeLine="25" d="M920,1015.5537 C920,1054.3137 920,1090.7437 920,1116.2437 " fill="none" id="User-to-Password" style="stroke:#181818;stroke-width:1.0;"/><polygon fill="#181818" points="920,1122.2437,924,1113.2437,920,1117.2437,916,1113.2437,920,1122.2437" style="stroke:#181818;stroke-width:1.0;"/></g><!--link AuthenticationRepositoryJPAImpl to AuthenticationRepository--><g id="link_AuthenticationRepositoryJPAImpl_AuthenticationRepository"><path codeLine="47" d="M247.43,210.1437 C261.38,220.6637 275.66,231.5837 289,242.0137 C329.38,273.6037 359.1946,297.6239 397.4446,329.0639 " fill="none" id="AuthenticationRepositoryJPAImpl-to-AuthenticationRepository" style="stroke:#181818;stroke-width:1.0;stroke-dasharray:7.0,7.0;"/><polygon fill="none" points="411.35,340.4937,401.2545,324.4288,393.6346,333.6991,411.35,340.4937" style="stroke:#181818;stroke-width:1.0;"/></g><!--link InMemoryAuthenticationRepository to AuthenticationRepository--><g id="link_InMemoryAuthenticationRepository_AuthenticationRepository"><path codeLine="56" d="M517,201.0937 C517,239.9637 517,276.3937 517,322.2637 " fill="none" id="InMemoryAuthenticationRepository-to-AuthenticationRepository" style="stroke:#181818;stroke-width:1.0;stroke-dasharray:7.0,7.0;"/><polygon fill="none" points="517,340.2637,523,322.2637,511,322.2637,517,340.2637" style="stroke:#181818;stroke-width:1.0;"/></g><!--link AuthenticationController to AuthenticationRepository--><g id="link_AuthenticationController_AuthenticationRepository"><path codeLine="85" d="M822.86,210.1037 C769.56,248.1537 704.6133,294.5475 645.1233,337.0175 " fill="none" id="AuthenticationController-to-AuthenticationRepository" style="stroke:#181818;stroke-width:1.0;"/><polygon fill="#181818" points="640.24,340.5037,649.8891,338.5299,644.3094,337.5985,645.2408,332.0189,640.24,340.5037" style="stroke:#181818;stroke-width:1.0;"/><text fill="#000000" font-family="sans-serif" font-size="13" lengthAdjust="spacing" textLength="27.46" x="770" y="257.042">uses</text></g><!--link AuthenticationRepositoryJPAImpl to User--><g id="link_AuthenticationRepositoryJPAImpl_User"><path codeLine="86" d="M191.98,210.2337 C196.4,220.7937 200.89,231.6937 205,242.0137 C261.94,385.0137 227.78,448.0037 326,566.5137 C461.13,729.5637 685.1042,835.7277 815.7442,887.6477 " fill="none" id="AuthenticationRepositoryJPAImpl-to-User" style="stroke:#181818;stroke-width:1.0;"/><polygon fill="#181818" points="821.32,889.8637,814.4336,882.8225,816.6735,888.017,811.479,890.2569,821.32,889.8637" style="stroke:#181818;stroke-width:1.0;"/></g><!--link AuthenticationRepositoryJPAImpl to UserRole--><g id="link_AuthenticationRepositoryJPAImpl_UserRole"><path codeLine="87" d="M170.44,210.2737 C174.2,266.6637 179,353.2437 179,428.5137 C179,428.5137 179,428.5137 179,927.5137 C179,1110.2137 814.01,1027.5837 984,1094.5137 C989.87,1096.8237 990.4426,1096.8321 996.2926,1099.7821 " fill="none" id="AuthenticationRepositoryJPAImpl-to-UserRole" style="stroke:#181818;stroke-width:1.0;"/><polygon fill="#181818" points="1001.65,1102.4837,995.415,1094.8597,997.1855,1100.2324,991.8129,1102.0029,1001.65,1102.4837" style="stroke:#181818;stroke-width:1.0;"/></g><!--link InMemoryAuthenticationRepository to AuthFacade--><g id="link_InMemoryAuthenticationRepository_AuthFacade"><path codeLine="89" d="M602.07,201.0337 C635.47,221.5737 673.9,245.8537 708,269.0137 C749.84,297.4337 790.2065,326.8183 828.3765,355.3883 " fill="none" id="InMemoryAuthenticationRepository-to-AuthFacade" style="stroke:#181818;stroke-width:1.0;"/><polygon fill="#181818" points="833.18,358.9837,828.3717,350.3883,829.1771,355.9875,823.5779,356.7929,833.18,358.9837" style="stroke:#181818;stroke-width:1.0;"/></g><!--link AuthFacade to UserSession--><g id="link_AuthFacade_UserSession"><path codeLine="90" d="M922.82,500.0637 C922.25,533.4937 921.6727,567.1746 921.1227,599.2946 " fill="none" id="AuthFacade-to-UserSession" style="stroke:#181818;stroke-width:1.0;"/><polygon fill="#181818" points="921.02,605.2937,925.1735,596.3635,921.1056,600.2944,917.1747,596.2265,921.02,605.2937" style="stroke:#181818;stroke-width:1.0;"/></g><!--link AuthFacade to User--><g id="link_AuthFacade_User"><path codeLine="91" d="M996.41,500.0237 C1022.34,529.7537 1048.5,566.5837 1062,605.5137 C1086.76,676.8937 1089.96,705.3237 1062,775.5137 C1052.25,800.0037 1040.3545,818.2901 1022.7045,838.3401 " fill="none" id="AuthFacade-to-User" style="stroke:#181818;stroke-width:1.0;"/><polygon fill="#181818" points="1018.74,842.8437,1027.6892,838.7313,1022.0438,839.0907,1021.6844,833.4452,1018.74,842.8437" style="stroke:#181818;stroke-width:1.0;"/></g><!--link AuthFacade to UserRole--><g id="link_AuthFacade_UserRole"><path codeLine="92" d="M1022.57,500.2337 C1053.68,528.6637 1083.46,564.5437 1097,605.5137 C1153.78,777.3337 1110.1495,990.7419 1084.3595,1088.5719 " fill="none" id="AuthFacade-to-UserRole" style="stroke:#181818;stroke-width:1.0;"/><polygon fill="#181818" points="1082.83,1094.3737,1088.9921,1086.6906,1084.1046,1089.5389,1081.2563,1084.6513,1082.83,1094.3737" style="stroke:#181818;stroke-width:1.0;"/></g><!--link UserSession to User--><g id="link_UserSession_User"><path codeLine="94" d="M920,727.6737 C920,760.2837 920,795.1937 920,831.3337 " fill="none" id="UserSession-to-User" style="stroke:#181818;stroke-width:1.0;"/><polygon fill="#181818" points="920,837.3337,924,828.3337,920,832.3337,916,828.3337,920,837.3337" style="stroke:#181818;stroke-width:1.0;"/></g><!--SRC=[lLLDRzim3BtxLmWzEMXYx1mC0R9k0pnqMD5is5crc4HBB1kIigBT-jz7AfOZEt8-BlF1iCadwf5ybCn6gffhNh9YousPMwlbqyv2NbHg8L-1lKkIcXSRlW9smtTs_Nh3_YGC7uTdFmpena3FX7qgkTmoAGBJ0mAVAorOtNm4lWNkfrPCyH92AzZt5FcnsiACQNoRrdlBrjpua6dzB4PJzbGXXAi0muMWnIcjZG8mI0l8-p7UabwA1EsasV2MaLm4c4BBsiggjrykKdbo9rUxuDzdkSUuKaycimEXAKNj-WuXMbCRvIrePGtQI6D15P19PK4lUG76zxQri3cs79IL1QTy7g6kZBILVWcASSj4TL-jf4g1DX-pePuuMBMpwIWmIeF65OXSfT55Ax0-NqE8UsJTQkFZzs-pBlPkfpNo9S02Z47Ej2ZuxMh41yB6Z5tZXiH4m9_IhXsOr3fcXsp7R415GnN_LVFk60sL-Sl3F2_hRKTwddFG3Dtv3PWR_Xi8dz9hr7EuN7oqqBcKIdnuGRawDJNrQrAYzpcsMVPtDWWw8SCIIWHqAvEhhyvwWH0dRi_FlE026E_WzyR_sdjwdoL_UQNmFBQuqnRqAUNSjQYZkaJtfof5XNFXI5ypdRtnxqx74gyWm5Dgan6bunIRhlRdO86qWUtmoqGcPE_jNn_HrE8dHFJ4wYiYox9H_DPe0XwnTeIlFmDn8D5zEE6lQO6hzg1Mw9eOrCYKw9hatD3xc-bY8F5BahCZuhar8no8mGVoVOkuOhRzlc5_lESV]--></g></svg>