<svg xmlns="http://www.w3.org/2000/svg" xmlns:xlink="http://www.w3.org/1999/xlink" contentStyleType="text/css" height="467px" preserveAspectRatio="none" style="width:360px;height:467px;background:#FFFFFF;" version="1.1" viewBox="0 0 360 467" width="360px" zoomAndPan="magnify"><title>Disable/Enable User - Domain Model (US212)</title><defs/><g><text fill="#000000" font-family="sans-serif" font-size="14" font-weight="bold" lengthAdjust="spacing" textLength="298.7441" x="23.6279" y="25.1074">Disable/Enable User - Domain Model (US212)</text><!--cluster User Management Subsystem--><g id="cluster_User Management Subsystem"><rect fill="none" height="415" rx="2.5" ry="2.5" style="stroke:#000000;stroke-width:1.5;" width="347" x="7" y="46.6211"/><text fill="#000000" font-family="sans-serif" font-size="14" font-weight="bold" lengthAdjust="spacing" textLength="199.1787" x="80.9106" y="63.7285">User Management Subsystem</text></g><!--class User--><g id="elem_User"><rect codeLine="13" fill="#F1F1F1" height="129.7266" id="User" rx="2.5" ry="2.5" style="stroke:#181818;stroke-width:0.5;" width="145.0752" x="23.5" y="199.6211"/><text fill="#000000" font-family="sans-serif" font-size="14" lengthAdjust="spacing" textLength="29.5586" x="81.2583" y="219.7285">User</text><line style="stroke:#181818;stroke-width:0.5;" x1="24.5" x2="167.5752" y1="228.2422" y2="228.2422"/><text fill="#000000" font-family="sans-serif" font-size="14" lengthAdjust="spacing" textLength="53.6826" x="29.5" y="247.3496">Email: id</text><text fill="#000000" font-family="sans-serif" font-size="14" lengthAdjust="spacing" textLength="79.3721" x="29.5" y="265.9707">String: name</text><text fill="#000000" font-family="sans-serif" font-size="14" lengthAdjust="spacing" textLength="133.0752" x="29.5" y="284.5918">String: phoneNumber</text><text fill="#000000" font-family="sans-serif" font-size="14" lengthAdjust="spacing" textLength="129.165" x="29.5" y="303.2129">Password: password</text><text fill="#000000" font-family="sans-serif" font-size="14" lengthAdjust="spacing" textLength="94.1787" x="29.5" y="321.834">boolean: active</text></g><!--class Email--><g id="elem_Email"><rect codeLine="21" fill="#F1F1F1" height="55.2422" id="Email" rx="2.5" ry="2.5" style="stroke:#181818;stroke-width:0.5;" width="89.8203" x="33" y="390.6211"/><text fill="#000000" font-family="sans-serif" font-size="14" lengthAdjust="spacing" textLength="35.0068" x="60.4067" y="410.7285">Email</text><line style="stroke:#181818;stroke-width:0.5;" x1="34" x2="121.8203" y1="419.2422" y2="419.2422"/><text fill="#000000" font-family="sans-serif" font-size="14" lengthAdjust="spacing" textLength="77.8203" x="39" y="438.3496">String: value</text></g><!--class Password--><g id="elem_Password"><rect codeLine="25" fill="#F1F1F1" height="55.2422" id="Password" rx="2.5" ry="2.5" style="stroke:#181818;stroke-width:0.5;" width="138.0889" x="158" y="390.6211"/><text fill="#000000" font-family="sans-serif" font-size="14" lengthAdjust="spacing" textLength="61.4688" x="196.3101" y="410.7285">Password</text><line style="stroke:#181818;stroke-width:0.5;" x1="159" x2="295.0889" y1="419.2422" y2="419.2422"/><text fill="#000000" font-family="sans-serif" font-size="14" lengthAdjust="spacing" textLength="126.0889" x="164" y="438.3496">String: hashedValue</text></g><!--class UserStatusService--><g id="elem_UserStatusService"><rect codeLine="29" fill="#F1F1F1" height="36.6211" id="UserStatusService" rx="2.5" ry="2.5" style="stroke:#181818;stroke-width:0.5;" width="121.9307" x="103" y="83.6211"/><text fill="#000000" font-family="sans-serif" font-size="14" lengthAdjust="spacing" textLength="115.9307" x="106" y="103.7285">UserStatusService</text><line style="stroke:#181818;stroke-width:0.5;" x1="104" x2="223.9307" y1="112.2422" y2="112.2422"/></g><!--class AuthorizationService--><g id="elem_AuthorizationService"><rect codeLine="33" fill="#F1F1F1" height="36.6211" id="AuthorizationService" rx="2.5" ry="2.5" style="stroke:#181818;stroke-width:0.5;" width="134.3994" x="204" y="246.1211"/><text fill="#000000" font-family="sans-serif" font-size="14" lengthAdjust="spacing" textLength="128.3994" x="207" y="266.2285">AuthorizationService</text><line style="stroke:#181818;stroke-width:0.5;" x1="205" x2="337.3994" y1="274.7422" y2="274.7422"/></g><!--link UserStatusService to User--><g id="link_UserStatusService_User"><path codeLine="38" d="M156.46,120.9111 C148.41,139.9311 137.4998,165.6661 125.4598,194.0961 " fill="none" id="UserStatusService-to-User" style="stroke:#181818;stroke-width:1.0;"/><polygon fill="#181818" points="123.12,199.6211,130.313,192.8935,125.0698,195.017,122.9464,189.7738,123.12,199.6211" style="stroke:#181818;stroke-width:1.0;"/><polygon fill="#000000" points="145.0498,164.8706,151.2839,157.6882,145.8716,155.3956,145.0498,164.8706" style="stroke:#000000;stroke-width:1.0;"/><text fill="#000000" font-family="sans-serif" font-size="13" lengthAdjust="spacing" textLength="46.2617" x="156" y="165.6494">updates</text></g><!--link User to Email--><g id="link_User_Email"><path codeLine="39" d="M88.37,329.8711 C85.84,351.1611 83.868,367.733 81.868,384.563 " fill="none" id="User-to-Email" style="stroke:#181818;stroke-width:1.0;"/><polygon fill="#181818" points="81.16,390.5211,86.1941,382.056,81.75,385.556,78.25,381.112,81.16,390.5211" style="stroke:#181818;stroke-width:1.0;"/><text fill="#000000" font-family="sans-serif" font-size="13" lengthAdjust="spacing" textLength="7.23" x="80.2302" y="351.534">1</text><text fill="#000000" font-family="sans-serif" font-size="13" lengthAdjust="spacing" textLength="7.23" x="74.1287" y="379.2069">1</text></g><!--link User to Password--><g id="link_User_Password"><path codeLine="40" d="M151.56,329.8711 C169.97,351.1611 185.526,369.1522 200.076,385.9822 " fill="none" id="User-to-Password" style="stroke:#181818;stroke-width:1.0;"/><polygon fill="#181818" points="204,390.5211,201.1399,381.0967,200.73,386.7386,195.088,386.3287,204,390.5211" style="stroke:#181818;stroke-width:1.0;"/><text fill="#000000" font-family="sans-serif" font-size="13" lengthAdjust="spacing" textLength="7.23" x="149.9367" y="351.534">1</text><text fill="#000000" font-family="sans-serif" font-size="13" lengthAdjust="spacing" textLength="7.23" x="190.8882" y="379.2069">1</text></g><!--link UserStatusService to AuthorizationService--><g id="link_UserStatusService_AuthorizationService"><path codeLine="41" d="M184.11,120.9211 C192.99,129.3811 203.16,139.9711 211,150.6211 C233.9,181.7611 250.9786,217.277 261.1086,240.357 " fill="none" id="UserStatusService-to-AuthorizationService" style="stroke:#181818;stroke-width:1.0;"/><polygon fill="#181818" points="263.52,245.8511,263.5656,236.0023,261.5105,241.2727,256.2402,239.2175,263.52,245.8511" style="stroke:#181818;stroke-width:1.0;"/><polygon fill="#000000" points="229.7092,164.469,227.2783,155.2744,222.3381,158.4592,229.7092,164.469" style="stroke:#000000;stroke-width:1.0;"/><text fill="#000000" font-family="sans-serif" font-size="13" lengthAdjust="spacing" textLength="27.46" x="236" y="165.6494">uses</text></g><!--SRC=[RL5DJyCm3BtdLrWxRO89ZMCFI4Zim64mgHftjp5jj7nKiRi94F-TjDrAfJMNn7xFxzan7urlCA835tmewnWSWSIM58z8W-KHAyhbon94AWLzPQS4hb67i_4LVA9bKagC9EgBOImiFMnzTy61AS8QNe93us4ND5bO7lB7pUDAgTfeWjB4qX8FWIEfWsQbBlQmw0Lsw5FWo0laRS5VBEGMyACKf5DQP1wCVlf4TxR9psPWz9Z99QPcC_3ew2RPrC7JM-iAYYEsJxBd47L2BwyHAaAmX3u3BCMS1hdVQJUz_QITgyy9RJj3lrhDLDJ8DUcF-Rfkw5nGMiufdan94u4x2LNQs3zbsQRdgxu7JMmYwI6xkbLzRjCIelb6CS7F21j-rixuYzugktx7b96J_NnlAFOQI-pudRLWh4WESuMN5cv7Mg-VXkrcq3OQXHYUHYeiDekUqTtzhyz3- -aAvprcnqwUt1l-gZy0]--></g></svg>