<svg xmlns="http://www.w3.org/2000/svg" xmlns:xlink="http://www.w3.org/1999/xlink" contentStyleType="text/css" height="492px" preserveAspectRatio="none" style="width:679px;height:492px;background:#FFFFFF;" version="1.1" viewBox="0 0 679 492" width="679px" zoomAndPan="magnify"><title>Disable/Enable User - Domain Model (US212)</title><defs/><g><text fill="#000000" font-family="sans-serif" font-size="14" font-weight="bold" lengthAdjust="spacing" textLength="298.7441" x="183.1279" y="25.1074">Disable/Enable User - Domain Model (US212)</text><!--cluster Domain Layer--><g id="cluster_Domain Layer"><rect fill="none" height="299" rx="2.5" ry="2.5" style="stroke:#000000;stroke-width:1.5;" width="295" x="378" y="187.6211"/><text fill="#000000" font-family="sans-serif" font-size="14" font-weight="bold" lengthAdjust="spacing" textLength="92.5859" x="479.207" y="204.7285">Domain Layer</text></g><!--cluster Application Layer--><g id="cluster_Application Layer"><rect fill="none" height="90" rx="2.5" ry="2.5" style="stroke:#000000;stroke-width:1.5;" width="548" x="7" y="46.6211"/><text fill="#000000" font-family="sans-serif" font-size="14" font-weight="bold" lengthAdjust="spacing" textLength="117.4688" x="222.2656" y="63.7285">Application Layer</text></g><!--cluster Persistence Layer--><g id="cluster_Persistence Layer"><rect fill="none" height="90" rx="2.5" ry="2.5" style="stroke:#000000;stroke-width:1.5;" width="331" x="23" y="234.1211"/><text fill="#000000" font-family="sans-serif" font-size="14" font-weight="bold" lengthAdjust="spacing" textLength="119.8545" x="128.5728" y="251.2285">Persistence Layer</text></g><!--class User--><g id="elem_User"><rect codeLine="12" fill="#F1F1F1" height="129.7266" id="User" rx="2.5" ry="2.5" style="stroke:#181818;stroke-width:0.5;" width="145.0752" x="394.5" y="224.6211"/><text fill="#000000" font-family="sans-serif" font-size="14" lengthAdjust="spacing" textLength="29.5586" x="452.2583" y="244.7285">User</text><line style="stroke:#181818;stroke-width:0.5;" x1="395.5" x2="538.5752" y1="253.2422" y2="253.2422"/><text fill="#000000" font-family="sans-serif" font-size="14" lengthAdjust="spacing" textLength="53.6826" x="400.5" y="272.3496">Email: id</text><text fill="#000000" font-family="sans-serif" font-size="14" lengthAdjust="spacing" textLength="79.3721" x="400.5" y="290.9707">String: name</text><text fill="#000000" font-family="sans-serif" font-size="14" lengthAdjust="spacing" textLength="133.0752" x="400.5" y="309.5918">String: phoneNumber</text><text fill="#000000" font-family="sans-serif" font-size="14" lengthAdjust="spacing" textLength="129.165" x="400.5" y="328.2129">Password: password</text><text fill="#000000" font-family="sans-serif" font-size="14" lengthAdjust="spacing" textLength="94.1787" x="400.5" y="346.834">boolean: active</text></g><!--class Email--><g id="elem_Email"><rect codeLine="24" fill="#F1F1F1" height="55.2422" id="Email" rx="2.5" ry="2.5" style="stroke:#181818;stroke-width:0.5;" width="89.8203" x="394" y="415.6211"/><text fill="#000000" font-family="sans-serif" font-size="14" lengthAdjust="spacing" textLength="35.0068" x="421.4067" y="435.7285">Email</text><line style="stroke:#181818;stroke-width:0.5;" x1="395" x2="482.8203" y1="444.2422" y2="444.2422"/><text fill="#000000" font-family="sans-serif" font-size="14" lengthAdjust="spacing" textLength="77.8203" x="400" y="463.3496">String: value</text></g><!--class Password--><g id="elem_Password"><rect codeLine="28" fill="#F1F1F1" height="55.2422" id="Password" rx="2.5" ry="2.5" style="stroke:#181818;stroke-width:0.5;" width="138.0889" x="519" y="415.6211"/><text fill="#000000" font-family="sans-serif" font-size="14" lengthAdjust="spacing" textLength="61.4688" x="557.3101" y="435.7285">Password</text><line style="stroke:#181818;stroke-width:0.5;" x1="520" x2="656.0889" y1="444.2422" y2="444.2422"/><text fill="#000000" font-family="sans-serif" font-size="14" lengthAdjust="spacing" textLength="126.0889" x="525" y="463.3496">String: hashedValue</text></g><!--class FilterUsersController--><g id="elem_FilterUsersController"><rect codeLine="37" fill="#F1F1F1" height="36.6211" id="FilterUsersController" rx="2.5" ry="2.5" style="stroke:#181818;stroke-width:0.5;" width="134.3584" x="23" y="83.6211"/><text fill="#000000" font-family="sans-serif" font-size="14" lengthAdjust="spacing" textLength="128.3584" x="26" y="103.7285">FilterUsersController</text><line style="stroke:#181818;stroke-width:0.5;" x1="24" x2="156.3584" y1="112.2422" y2="112.2422"/></g><!--class CheckUserStatusController--><g id="elem_CheckUserStatusController"><rect codeLine="41" fill="#F1F1F1" height="36.6211" id="CheckUserStatusController" rx="2.5" ry="2.5" style="stroke:#181818;stroke-width:0.5;" width="175.6201" x="363" y="83.6211"/><text fill="#000000" font-family="sans-serif" font-size="14" lengthAdjust="spacing" textLength="169.6201" x="366" y="103.7285">CheckUserStatusController</text><line style="stroke:#181818;stroke-width:0.5;" x1="364" x2="537.6201" y1="112.2422" y2="112.2422"/></g><!--class UserStatusController--><g id="elem_UserStatusController"><rect codeLine="45" fill="#F1F1F1" height="36.6211" id="UserStatusController" rx="2.5" ry="2.5" style="stroke:#181818;stroke-width:0.5;" width="135.9375" x="192" y="83.6211"/><text fill="#000000" font-family="sans-serif" font-size="14" lengthAdjust="spacing" textLength="129.9375" x="195" y="103.7285">UserStatusController</text><line style="stroke:#181818;stroke-width:0.5;" x1="193" x2="326.9375" y1="112.2422" y2="112.2422"/></g><!--class UserRepository--><g id="elem_UserRepository"><rect codeLine="53" fill="#F1F1F1" height="36.6211" id="UserRepository" rx="2.5" ry="2.5" style="stroke:#181818;stroke-width:0.5;" width="102.4756" x="39" y="271.1211"/><text fill="#000000" font-family="sans-serif" font-size="14" lengthAdjust="spacing" textLength="96.4756" x="42" y="291.2285">UserRepository</text><line style="stroke:#181818;stroke-width:0.5;" x1="40" x2="140.4756" y1="299.7422" y2="299.7422"/></g><!--class AuthenticationRepository--><g id="elem_AuthenticationRepository"><rect codeLine="54" fill="#F1F1F1" height="36.6211" id="AuthenticationRepository" rx="2.5" ry="2.5" style="stroke:#181818;stroke-width:0.5;" width="161.6475" x="176" y="271.1211"/><text fill="#000000" font-family="sans-serif" font-size="14" lengthAdjust="spacing" textLength="155.6475" x="179" y="291.2285">AuthenticationRepository</text><line style="stroke:#181818;stroke-width:0.5;" x1="177" x2="336.6475" y1="299.7422" y2="299.7422"/></g><!--link User to Email--><g id="link_User_Email"><path codeLine="32" d="M455.13,354.8711 C451.19,376.1611 448.1203,392.791 445.0103,409.621 " fill="none" id="User-to-Email" style="stroke:#181818;stroke-width:1.0;"/><polygon fill="#181818" points="443.92,415.5211,449.4888,407.3978,444.8286,410.6043,441.622,405.9441,443.92,415.5211" style="stroke:#181818;stroke-width:1.0;"/><text fill="#000000" font-family="sans-serif" font-size="13" lengthAdjust="spacing" textLength="7.23" x="446.5529" y="376.534">1</text><text fill="#000000" font-family="sans-serif" font-size="13" lengthAdjust="spacing" textLength="7.23" x="437.2957" y="404.2069">1</text></g><!--link User to Password--><g id="link_User_Password"><path codeLine="33" d="M518.31,354.8711 C535.32,376.1611 549.5759,394.0026 563.0159,410.8326 " fill="none" id="User-to-Password" style="stroke:#181818;stroke-width:1.0;"/><polygon fill="#181818" points="566.76,415.5211,564.2695,405.9923,563.6399,411.614,558.0182,410.9844,566.76,415.5211" style="stroke:#181818;stroke-width:1.0;"/><text fill="#000000" font-family="sans-serif" font-size="13" lengthAdjust="spacing" textLength="7.23" x="516.2484" y="376.534">1</text><text fill="#000000" font-family="sans-serif" font-size="13" lengthAdjust="spacing" textLength="7.23" x="554.0552" y="404.2069">1</text></g><!--link FilterUsersController to UserRepository--><g id="link_FilterUsersController_UserRepository"><path codeLine="57" d="M88.66,120.9811 C88.01,130.3911 87.32,142.1211 87,152.6211 C85.71,195.1111 87.4195,239.0986 88.7195,265.0186 " fill="none" id="FilterUsersController-to-UserRepository" style="stroke:#181818;stroke-width:1.0;"/><polygon fill="#181818" points="89.02,271.0111,92.5642,261.822,88.7695,266.0174,84.5742,262.2228,89.02,271.0111" style="stroke:#181818;stroke-width:1.0;"/><polygon fill="#000000" points="92.0021,167.2666,94.9373,158.2203,89.0594,158.2227,92.0021,167.2666" style="stroke:#000000;stroke-width:1.0;"/><text fill="#000000" font-family="sans-serif" font-size="13" lengthAdjust="spacing" textLength="27.46" x="101" y="167.6494">uses</text></g><!--link CheckUserStatusController to User--><g id="link_CheckUserStatusController_User"><path codeLine="58" d="M452.53,120.9111 C454.58,144.5711 457.7737,181.7133 460.9337,218.3033 " fill="none" id="CheckUserStatusController-to-User" style="stroke:#181818;stroke-width:1.0;"/><polygon fill="#181818" points="461.45,224.2811,464.6608,214.9703,461.0198,219.2996,456.6905,215.6586,461.45,224.2811" style="stroke:#181818;stroke-width:1.0;"/><polygon fill="#000000" points="461.4298,167.2481,463.5803,157.9838,457.7242,158.4891,461.4298,167.2481" style="stroke:#000000;stroke-width:1.0;"/><text fill="#000000" font-family="sans-serif" font-size="13" lengthAdjust="spacing" textLength="32.519" x="470" y="167.6494">reads</text></g><!--link UserStatusController to User--><g id="link_UserStatusController_User"><path codeLine="59" d="M283.74,120.8111 C295.94,130.0711 310.95,141.7311 324,152.6211 C350.83,175.0111 374.6657,196.9814 398.8257,220.3314 " fill="none" id="UserStatusController-to-User" style="stroke:#181818;stroke-width:1.0;"/><polygon fill="#181818" points="403.14,224.5011,399.4483,215.3703,399.5447,221.0263,393.8887,221.1228,403.14,224.5011" style="stroke:#181818;stroke-width:1.0;"/><polygon fill="#000000" points="353.782,165.5371,348.8626,157.3977,345.0179,161.8437,353.782,165.5371" style="stroke:#000000;stroke-width:1.0;"/><text fill="#000000" font-family="sans-serif" font-size="13" lengthAdjust="spacing" textLength="46.2617" x="359" y="167.6494">updates</text></g><!--link UserStatusController to UserRepository--><g id="link_UserStatusController_UserRepository"><path codeLine="60" d="M230.89,120.7511 C209.13,134.8711 179.55,156.1411 158,179.6211 C131.76,208.2111 112.4561,242.9259 101.0661,265.6759 " fill="none" id="UserStatusController-to-UserRepository" style="stroke:#181818;stroke-width:1.0;"/><polygon fill="#181818" points="98.38,271.0411,105.9859,264.7841,100.6184,266.5701,98.8324,261.2026,98.38,271.0411" style="stroke:#181818;stroke-width:1.0;"/><polygon fill="#000000" points="188.6638,165.9908,196.8881,161.2146,192.51,157.2927,188.6638,165.9908" style="stroke:#000000;stroke-width:1.0;"/><text fill="#000000" font-family="sans-serif" font-size="13" lengthAdjust="spacing" textLength="33.96" x="201" y="167.6494">saves</text></g><!--link UserStatusController to AuthenticationRepository--><g id="link_UserStatusController_AuthenticationRepository"><path codeLine="61" d="M259.62,120.9911 C259.42,130.4011 259.18,142.1411 259,152.6211 C258.26,195.1211 257.6487,239.0916 257.3087,265.0116 " fill="none" id="UserStatusController-to-AuthenticationRepository" style="stroke:#181818;stroke-width:1.0;"/><polygon fill="#181818" points="257.23,271.0111,261.3477,262.0643,257.2956,266.0115,253.3484,261.9594,257.23,271.0111" style="stroke:#181818;stroke-width:1.0;"/><polygon fill="#000000" points="263.9198,167.266,267.0035,158.2692,261.1264,158.1749,263.9198,167.266" style="stroke:#000000;stroke-width:1.0;"/><text fill="#000000" font-family="sans-serif" font-size="13" lengthAdjust="spacing" textLength="46.2617" x="273" y="167.6494">updates</text></g><!--SRC=[XLDDRzim3BthLn0v9UY2eJqQGu3qOy20RYWMT7T6OYCXicH8ShfWo7-VfDYfdTYDBfBv7f_8HzblbQdGOGcbDPPBPqk2u6fY_eHKoBUueLNOQm97FA3Pw2x1InJsNPaDlA7sn5XG8L8VbSUrfgzF9ctmwid171vjYSh0Joj8m_HrTNTxDsDCAa70bUEQ_F6Zf22jy8mrryEaoNp6FRa9_6CG5zVe_L7w64ZhAV9q0KgS8glWOda562pf8bX9Q-XNNQx9dR2NAFjkdOXeSpf1QsireIa0UL2xs6qBtEG01fhEFcA2XgBABtFoT5QqUXayi4vNkOrEMsszEzGrNTBRaWSo97f9uizvNhPjSZk1-NoHztpZCDIgiqDd8ikgqefZK7PmBD-L3kIIb7-m9ZYhTMzEDniA6RtV7wdJjxpzC8B-HcUUbG_V4c5nsUs39BvDs2fWg4VqbK-Cnkew7Z-p-veOb_7TqmSh2tw1Thndqhq7aPA6xZzx8MEqGy_qbsXOD8OCfx5_uJTLrgjWtRu3BEiWoOHcNXrA51-UL9fzNmuAYFLvMB1n_zkio7M48f6lyUfAnFQlCdjrUDnzdZ7MR- - -_m00]--></g></svg>