<?xml version="1.0" encoding="UTF-8" standalone="no"?><svg xmlns="http://www.w3.org/2000/svg" xmlns:xlink="http://www.w3.org/1999/xlink" contentScriptType="application/ecmascript" contentStyleType="text/css" height="235px" preserveAspectRatio="none" style="width:200px;height:235px;" version="1.1" viewBox="0 0 200 235" width="200px" zoomAndPan="magnify"><defs><filter height="300%" id="ftoyxg5b0dyrt" width="300%" x="-1" y="-1"><feGaussianBlur result="blurOut" stdDeviation="2.0"/><feColorMatrix in="blurOut" result="blurOut2" type="matrix" values="0 0 0 0 0 0 0 0 0 0 0 0 0 0 0 0 0 0 .4 0"/><feOffset dx="4.0" dy="4.0" in="blurOut2" result="blurOut3"/><feBlend in="SourceGraphic" in2="blurOut3" mode="normal"/></filter></defs><g><!--MD5=[373c6852cae888f470ab23551d10da9d]
class ui.menu.DevTeamUI--><a href="DevTeamUI.html" target="_top" title="DevTeamUI.html" xlink:actuate="onRequest" xlink:href="DevTeamUI.html" xlink:show="new" xlink:title="DevTeamUI.html" xlink:type="simple"><rect codeLine="5" fill="#FEFECE" filter="url(#ftoyxg5b0dyrt)" height="65.6698" id="ui.menu.DevTeamUI" style="stroke: #A80036; stroke-width: 1.5;" width="109" x="42.5" y="133"/><ellipse cx="57.5" cy="154.344" fill="#ADD1B2" rx="11" ry="11" style="stroke: #A80036; stroke-width: 1.0;"/><path d="M60.4688,159.9846 Q59.8906,160.2815 59.25,160.4221 Q58.6094,160.5783 57.9063,160.5783 Q55.4063,160.5783 54.0781,158.9377 Q52.7656,157.2815 52.7656,154.1565 Q52.7656,151.0315 54.0781,149.3752 Q55.4063,147.719 57.9063,147.719 Q58.6094,147.719 59.25,147.8752 Q59.9063,148.0315 60.4688,148.3283 L60.4688,151.0471 Q59.8438,150.469 59.25,150.2033 Q58.6563,149.9221 58.0313,149.9221 Q56.6875,149.9221 56,151.0002 Q55.3125,152.0627 55.3125,154.1565 Q55.3125,156.2502 56,157.3283 Q56.6875,158.3908 58.0313,158.3908 Q58.6563,158.3908 59.25,158.1252 Q59.8438,157.844 60.4688,157.2658 L60.4688,159.9846 Z "/><text fill="#000000" font-family="sans-serif" font-size="14" lengthAdjust="spacingAndGlyphs" textLength="77" x="71.5" y="152.9659">DevTeamUI</text><text fill="#000000" font-family="sans-serif" font-size="10" lengthAdjust="spacingAndGlyphs" textLength="39" x="90.5" y="167.7579">ui.menu</text><line style="stroke: #A80036; stroke-width: 1.5;" x1="43.5" x2="150.5" y1="175.6879" y2="175.6879"/><ellipse cx="53.5" cy="186.6879" fill="#84BE84" rx="3" ry="3" style="stroke: #038048; stroke-width: 1.0;"/><text fill="#000000" font-family="sans-serif" font-size="11" lengthAdjust="spacingAndGlyphs" textLength="54" x="62.5" y="191.4468">run(): void</text></a><!--MD5=[8dac795f9edbf65a524ac462449c98fb]
class java.lang.Runnable--><rect codeLine="9" fill="#FEFECE" filter="url(#ftoyxg5b0dyrt)" height="65.6698" id="java.lang.Runnable" style="stroke: #A80036; stroke-width: 1.5;" width="91" x="51.5" y="7"/><ellipse cx="66.5" cy="28.344" fill="#B4A7E5" rx="11" ry="11" style="stroke: #A80036; stroke-width: 1.0;"/><path d="M62.4219,24.1096 L62.4219,21.9533 L69.8125,21.9533 L69.8125,24.1096 L67.3438,24.1096 L67.3438,32.1877 L69.8125,32.1877 L69.8125,34.344 L62.4219,34.344 L62.4219,32.1877 L64.8906,32.1877 L64.8906,24.1096 L62.4219,24.1096 Z "/><text fill="#000000" font-family="sans-serif" font-size="14" font-style="italic" lengthAdjust="spacingAndGlyphs" textLength="59" x="80.5" y="26.9659">Runnable</text><text fill="#000000" font-family="sans-serif" font-size="10" font-style="italic" lengthAdjust="spacingAndGlyphs" textLength="44" x="88" y="41.7579">java.lang</text><line style="stroke: #A80036; stroke-width: 1.5;" x1="52.5" x2="141.5" y1="49.6879" y2="49.6879"/><ellipse cx="62.5" cy="60.6879" fill="#84BE84" rx="3" ry="3" style="stroke: #038048; stroke-width: 1.0;"/><text fill="#000000" font-family="sans-serif" font-size="11" font-style="italic" lengthAdjust="spacingAndGlyphs" textLength="48" x="71.5" y="65.4468">run(): void</text><!--MD5=[f03fb50fb9b943e605c55b2322603f3c]
reverse link java.lang.Runnable to ui.menu.DevTeamUI--><path codeLine="13" d="M97,93.45 C97,106.85 97,120.87 97,132.91 " fill="none" id="java.lang.Runnable-backto-ui.menu.DevTeamUI" style="stroke: #A80036; stroke-width: 1.0; stroke-dasharray: 7.0,7.0;"/><polygon fill="none" points="90,93.26,97,73.26,104,93.26,90,93.26" style="stroke: #A80036; stroke-width: 1.0;"/><text fill="#888888" font-family="sans-serif" font-size="10" lengthAdjust="spacingAndGlyphs" textLength="188" x="0" y="222.3598">UMLDoclet 2.0.12, PlantUML 1.2020.16</text><!--MD5=[15e75a4f9726b256aad9dc02c527b6d9]
@startuml
    set namespaceSeparator none
    hide empty fields
    hide empty methods

    class "<size:14>DevTeamUI\n<size:10>ui.menu" as ui.menu.DevTeamUI [[DevTeamUI.html]] {
        +run(): void
    }

    interface "<size:14>Runnable\n<size:10>java.lang" as java.lang.Runnable {
        {abstract} +run(): void
    }

    java.lang.Runnable <|.. ui.menu.DevTeamUI

    center footer UMLDoclet 2.0.12, PlantUML 1.2020.16
@enduml

PlantUML version 1.2020.16(Sun Aug 23 21:20:43 WEST 2020)
(APACHE source distribution)
Java Runtime: Java(TM) SE Runtime Environment
JVM: Java HotSpot(TM) 64-Bit Server VM
Default Encoding: UTF-8
Language: en
Country: US
--></g></svg>