<?xml version="1.0" encoding="UTF-8" standalone="no"?><svg xmlns="http://www.w3.org/2000/svg" xmlns:xlink="http://www.w3.org/1999/xlink" contentScriptType="application/ecmascript" contentStyleType="text/css" height="235px" preserveAspectRatio="none" style="width:200px;height:235px;" version="1.1" viewBox="0 0 200 235" width="200px" zoomAndPan="magnify"><defs><filter height="300%" id="fafjbk7unu45n" width="300%" x="-1" y="-1"><feGaussianBlur result="blurOut" stdDeviation="2.0"/><feColorMatrix in="blurOut" result="blurOut2" type="matrix" values="0 0 0 0 0 0 0 0 0 0 0 0 0 0 0 0 0 0 .4 0"/><feOffset dx="4.0" dy="4.0" in="blurOut2" result="blurOut3"/><feBlend in="SourceGraphic" in2="blurOut3" mode="normal"/></filter></defs><g><!--MD5=[ba2ba2c07e65782c60e2b59adfabeb40]
class ui.menu.MainMenuUI--><a href="MainMenuUI.html" target="_top" title="MainMenuUI.html" xlink:actuate="onRequest" xlink:href="MainMenuUI.html" xlink:show="new" xlink:title="MainMenuUI.html" xlink:type="simple"><rect codeLine="5" fill="#FEFECE" filter="url(#fafjbk7unu45n)" height="65.6698" id="ui.menu.MainMenuUI" style="stroke: #A80036; stroke-width: 1.5;" width="120" x="37" y="133"/><ellipse cx="52" cy="154.344" fill="#ADD1B2" rx="11" ry="11" style="stroke: #A80036; stroke-width: 1.0;"/><path d="M54.9688,159.9846 Q54.3906,160.2815 53.75,160.4221 Q53.1094,160.5783 52.4063,160.5783 Q49.9063,160.5783 48.5781,158.9377 Q47.2656,157.2815 47.2656,154.1565 Q47.2656,151.0315 48.5781,149.3752 Q49.9063,147.719 52.4063,147.719 Q53.1094,147.719 53.75,147.8752 Q54.4063,148.0315 54.9688,148.3283 L54.9688,151.0471 Q54.3438,150.469 53.75,150.2033 Q53.1563,149.9221 52.5313,149.9221 Q51.1875,149.9221 50.5,151.0002 Q49.8125,152.0627 49.8125,154.1565 Q49.8125,156.2502 50.5,157.3283 Q51.1875,158.3908 52.5313,158.3908 Q53.1563,158.3908 53.75,158.1252 Q54.3438,157.844 54.9688,157.2658 L54.9688,159.9846 Z "/><text fill="#000000" font-family="sans-serif" font-size="14" lengthAdjust="spacingAndGlyphs" textLength="88" x="66" y="152.9659">MainMenuUI</text><text fill="#000000" font-family="sans-serif" font-size="10" lengthAdjust="spacingAndGlyphs" textLength="39" x="90.5" y="167.7579">ui.menu</text><line style="stroke: #A80036; stroke-width: 1.5;" x1="38" x2="156" y1="175.6879" y2="175.6879"/><ellipse cx="48" cy="186.6879" fill="#84BE84" rx="3" ry="3" style="stroke: #038048; stroke-width: 1.0;"/><text fill="#000000" font-family="sans-serif" font-size="11" lengthAdjust="spacingAndGlyphs" textLength="54" x="57" y="191.4468">run(): void</text></a><!--MD5=[8dac795f9edbf65a524ac462449c98fb]
class java.lang.Runnable--><rect codeLine="9" fill="#FEFECE" filter="url(#fafjbk7unu45n)" height="65.6698" id="java.lang.Runnable" style="stroke: #A80036; stroke-width: 1.5;" width="91" x="51.5" y="7"/><ellipse cx="66.5" cy="28.344" fill="#B4A7E5" rx="11" ry="11" style="stroke: #A80036; stroke-width: 1.0;"/><path d="M62.4219,24.1096 L62.4219,21.9533 L69.8125,21.9533 L69.8125,24.1096 L67.3438,24.1096 L67.3438,32.1877 L69.8125,32.1877 L69.8125,34.344 L62.4219,34.344 L62.4219,32.1877 L64.8906,32.1877 L64.8906,24.1096 L62.4219,24.1096 Z "/><text fill="#000000" font-family="sans-serif" font-size="14" font-style="italic" lengthAdjust="spacingAndGlyphs" textLength="59" x="80.5" y="26.9659">Runnable</text><text fill="#000000" font-family="sans-serif" font-size="10" font-style="italic" lengthAdjust="spacingAndGlyphs" textLength="44" x="88" y="41.7579">java.lang</text><line style="stroke: #A80036; stroke-width: 1.5;" x1="52.5" x2="141.5" y1="49.6879" y2="49.6879"/><ellipse cx="62.5" cy="60.6879" fill="#84BE84" rx="3" ry="3" style="stroke: #038048; stroke-width: 1.0;"/><text fill="#000000" font-family="sans-serif" font-size="11" font-style="italic" lengthAdjust="spacingAndGlyphs" textLength="48" x="71.5" y="65.4468">run(): void</text><!--MD5=[048536287d0831408525335bc3692181]
reverse link java.lang.Runnable to ui.menu.MainMenuUI--><path codeLine="13" d="M97,93.45 C97,106.85 97,120.87 97,132.91 " fill="none" id="java.lang.Runnable-backto-ui.menu.MainMenuUI" style="stroke: #A80036; stroke-width: 1.0; stroke-dasharray: 7.0,7.0;"/><polygon fill="none" points="90,93.26,97,73.26,104,93.26,90,93.26" style="stroke: #A80036; stroke-width: 1.0;"/><text fill="#888888" font-family="sans-serif" font-size="10" lengthAdjust="spacingAndGlyphs" textLength="188" x="0" y="222.3598">UMLDoclet 2.0.12, PlantUML 1.2020.16</text><!--MD5=[f9687585a862c4d4ffe11358b4f14467]
@startuml
    set namespaceSeparator none
    hide empty fields
    hide empty methods

    class "<size:14>MainMenuUI\n<size:10>ui.menu" as ui.menu.MainMenuUI [[MainMenuUI.html]] {
        +run(): void
    }

    interface "<size:14>Runnable\n<size:10>java.lang" as java.lang.Runnable {
        {abstract} +run(): void
    }

    java.lang.Runnable <|.. ui.menu.MainMenuUI

    center footer UMLDoclet 2.0.12, PlantUML 1.2020.16
@enduml

PlantUML version 1.2020.16(Sun Aug 23 21:20:43 WEST 2020)
(APACHE source distribution)
Java Runtime: Java(TM) SE Runtime Environment
JVM: Java HotSpot(TM) 64-Bit Server VM
Default Encoding: UTF-8
Language: en
Country: US
--></g></svg>