<?xml version="1.0" encoding="UTF-8" standalone="no"?><svg xmlns="http://www.w3.org/2000/svg" xmlns:xlink="http://www.w3.org/1999/xlink" contentScriptType="application/ecmascript" contentStyleType="text/css" height="156px" preserveAspectRatio="none" style="width:222px;height:156px;" version="1.1" viewBox="0 0 222 156" width="222px" zoomAndPan="magnify"><defs><filter height="300%" id="fmmqxnt8uny4a" width="300%" x="-1" y="-1"><feGaussianBlur result="blurOut" stdDeviation="2.0"/><feColorMatrix in="blurOut" result="blurOut2" type="matrix" values="0 0 0 0 0 0 0 0 0 0 0 0 0 0 0 0 0 0 .4 0"/><feOffset dx="4.0" dy="4.0" in="blurOut2" result="blurOut3"/><feBlend in="SourceGraphic" in2="blurOut3" mode="normal"/></filter></defs><g><!--MD5=[3d71d15c11a15634972d9904e1295f8b]
class ui.menu.MenuItem--><a href="MenuItem.html" target="_top" title="MenuItem.html" xlink:actuate="onRequest" xlink:href="MenuItem.html" xlink:show="new" xlink:title="MenuItem.html" xlink:type="simple"><rect codeLine="5" fill="#FEFECE" filter="url(#fmmqxnt8uny4a)" height="119.041" id="ui.menu.MenuItem" style="stroke: #A80036; stroke-width: 1.5;" width="196" x="7" y="7"/><ellipse cx="66.75" cy="26.1328" fill="#ADD1B2" rx="11" ry="11" style="stroke: #A80036; stroke-width: 1.0;"/><path d="M69.2231,32.2759 Q68.6421,32.5747 68.0029,32.7241 Q67.3638,32.8735 66.6582,32.8735 Q64.1514,32.8735 62.8315,31.2217 Q61.5117,29.5698 61.5117,26.4487 Q61.5117,23.3193 62.8315,21.6675 Q64.1514,20.0156 66.6582,20.0156 Q67.3638,20.0156 68.0112,20.165 Q68.6587,20.3145 69.2231,20.6133 L69.2231,23.3359 Q68.5923,22.7549 67.9988,22.4851 Q67.4053,22.2153 66.7744,22.2153 Q65.4297,22.2153 64.7449,23.282 Q64.0601,24.3486 64.0601,26.4487 Q64.0601,28.5405 64.7449,29.6072 Q65.4297,30.6738 66.7744,30.6738 Q67.4053,30.6738 67.9988,30.4041 Q68.5923,30.1343 69.2231,29.5532 Z "/><text fill="#000000" font-family="sans-serif" font-size="14" lengthAdjust="spacingAndGlyphs" textLength="68" x="87.25" y="25.5352">MenuItem</text><text fill="#000000" font-family="sans-serif" font-size="10" lengthAdjust="spacingAndGlyphs" textLength="39" x="101.75" y="38.1563">ui.menu</text><line style="stroke: #A80036; stroke-width: 1.5;" x1="8" x2="202" y1="45.2656" y2="45.2656"/><rect fill="none" height="6" style="stroke: #C82930; stroke-width: 1.0;" width="6" x="15" y="53.2656"/><text fill="#000000" font-family="sans-serif" font-size="11" lengthAdjust="spacingAndGlyphs" textLength="99" x="27" y="59.9004">description: String</text><rect fill="none" height="6" style="stroke: #C82930; stroke-width: 1.0;" width="6" x="15" y="66.2207"/><text fill="#000000" font-family="sans-serif" font-size="11" lengthAdjust="spacingAndGlyphs" textLength="66" x="27" y="72.8555">ui: Runnable</text><line style="stroke: #A80036; stroke-width: 1.5;" x1="8" x2="202" y1="79.1758" y2="79.1758"/><ellipse cx="18" cy="90.1758" fill="#84BE84" rx="3" ry="3" style="stroke: #038048; stroke-width: 1.0;"/><text fill="#000000" font-family="sans-serif" font-size="11" lengthAdjust="spacingAndGlyphs" textLength="148" x="27" y="93.8105">MenuItem(String, Runnable)</text><ellipse cx="18" cy="103.1309" fill="#84BE84" rx="3" ry="3" style="stroke: #038048; stroke-width: 1.0;"/><text fill="#000000" font-family="sans-serif" font-size="11" lengthAdjust="spacingAndGlyphs" textLength="56" x="27" y="106.7656">run(): void</text><ellipse cx="18" cy="116.0859" fill="#84BE84" rx="3" ry="3" style="stroke: #038048; stroke-width: 1.0;"/><text fill="#000000" font-family="sans-serif" font-size="11" lengthAdjust="spacingAndGlyphs" textLength="170" x="27" y="119.7207">hasDescription(String): boolean</text></a><text fill="#888888" font-family="sans-serif" font-size="10" lengthAdjust="spacingAndGlyphs" textLength="188" x="11" y="142.709">UMLDoclet 2.0.12, PlantUML 1.2020.16</text><!--MD5=[45ea9b7548e7d7e1b73e3661ff4bbe2c]
@startuml
    set namespaceSeparator none
    hide empty fields
    hide empty methods

    class "<size:14>MenuItem\n<size:10>ui.menu" as ui.menu.MenuItem [[MenuItem.html]] {
        -description: String
        -ui: Runnable
        +MenuItem(String, Runnable)
        +run(): void
        +hasDescription(String): boolean
    }

    center footer UMLDoclet 2.0.12, PlantUML 1.2020.16
@enduml

PlantUML version 1.2020.16(Sun Aug 23 21:20:43 WEST 2020)
(APACHE source distribution)
Java Runtime: OpenJDK Runtime Environment
JVM: OpenJDK 64-Bit Server VM
Default Encoding: UTF-8
Language: pt
Country: PT
--></g></svg>