<?xml version="1.0" encoding="UTF-8" standalone="no"?><svg xmlns="http://www.w3.org/2000/svg" xmlns:xlink="http://www.w3.org/1999/xlink" contentScriptType="application/ecmascript" contentStyleType="text/css" height="171px" preserveAspectRatio="none" style="width:217px;height:171px;" version="1.1" viewBox="0 0 217 171" width="217px" zoomAndPan="magnify"><defs><filter height="300%" id="fmmqxnt8uny4a" width="300%" x="-1" y="-1"><feGaussianBlur result="blurOut" stdDeviation="2.0"/><feColorMatrix in="blurOut" result="blurOut2" type="matrix" values="0 0 0 0 0 0 0 0 0 0 0 0 0 0 0 0 0 0 .4 0"/><feOffset dx="4.0" dy="4.0" in="blurOut2" result="blurOut3"/><feBlend in="SourceGraphic" in2="blurOut3" mode="normal"/></filter></defs><g><!--MD5=[3d71d15c11a15634972d9904e1295f8b]
class ui.menu.MenuItem--><a href="MenuItem.html" target="_top" title="MenuItem.html" xlink:actuate="onRequest" xlink:href="MenuItem.html" xlink:show="new" xlink:title="MenuItem.html" xlink:type="simple"><rect codeLine="5" fill="#FEFECE" filter="url(#fmmqxnt8uny4a)" height="133.5973" id="ui.menu.MenuItem" style="stroke: #A80036; stroke-width: 1.5;" width="191" x="7" y="7"/><ellipse cx="63.25" cy="28.344" fill="#ADD1B2" rx="11" ry="11" style="stroke: #A80036; stroke-width: 1.0;"/><path d="M66.2188,33.9846 Q65.6406,34.2815 65,34.4221 Q64.3594,34.5783 63.6563,34.5783 Q61.1563,34.5783 59.8281,32.9377 Q58.5156,31.2815 58.5156,28.1565 Q58.5156,25.0315 59.8281,23.3752 Q61.1563,21.719 63.6563,21.719 Q64.3594,21.719 65,21.8752 Q65.6563,22.0315 66.2188,22.3283 L66.2188,25.0471 Q65.5938,24.469 65,24.2033 Q64.4063,23.9221 63.7813,23.9221 Q62.4375,23.9221 61.75,25.0002 Q61.0625,26.0627 61.0625,28.1565 Q61.0625,30.2502 61.75,31.3283 Q62.4375,32.3908 63.7813,32.3908 Q64.4063,32.3908 65,32.1252 Q65.5938,31.844 66.2188,31.2658 L66.2188,33.9846 Z "/><text fill="#000000" font-family="sans-serif" font-size="14" lengthAdjust="spacingAndGlyphs" textLength="70" x="83.75" y="26.9659">MenuItem</text><text fill="#000000" font-family="sans-serif" font-size="10" lengthAdjust="spacingAndGlyphs" textLength="39" x="99.25" y="41.7579">ui.menu</text><line style="stroke: #A80036; stroke-width: 1.5;" x1="8" x2="197" y1="49.6879" y2="49.6879"/><rect fill="none" height="6" style="stroke: #C82930; stroke-width: 1.0;" width="6" x="15" y="57.6879"/><text fill="#000000" font-family="sans-serif" font-size="11" lengthAdjust="spacingAndGlyphs" textLength="97" x="27" y="65.4468">description: String</text><rect fill="none" height="6" style="stroke: #C82930; stroke-width: 1.0;" width="6" x="15" y="72.6698"/><text fill="#000000" font-family="sans-serif" font-size="11" lengthAdjust="spacingAndGlyphs" textLength="66" x="27" y="80.4287">ui: Runnable</text><line style="stroke: #A80036; stroke-width: 1.5;" x1="8" x2="197" y1="87.6517" y2="87.6517"/><ellipse cx="18" cy="98.6517" fill="#84BE84" rx="3" ry="3" style="stroke: #038048; stroke-width: 1.0;"/><text fill="#000000" font-family="sans-serif" font-size="11" lengthAdjust="spacingAndGlyphs" textLength="148" x="27" y="103.4106">MenuItem(String, Runnable)</text><ellipse cx="18" cy="113.6336" fill="#84BE84" rx="3" ry="3" style="stroke: #038048; stroke-width: 1.0;"/><text fill="#000000" font-family="sans-serif" font-size="11" lengthAdjust="spacingAndGlyphs" textLength="54" x="27" y="118.3925">run(): void</text><ellipse cx="18" cy="128.6155" fill="#84BE84" rx="3" ry="3" style="stroke: #038048; stroke-width: 1.0;"/><text fill="#000000" font-family="sans-serif" font-size="11" lengthAdjust="spacingAndGlyphs" textLength="165" x="27" y="133.3744">hasDescription(String): boolean</text></a><text fill="#888888" font-family="sans-serif" font-size="10" lengthAdjust="spacingAndGlyphs" textLength="188" x="8.5" y="158.2873">UMLDoclet 2.0.12, PlantUML 1.2020.16</text><!--MD5=[6c8eb3d4b2216aa0683b4739281795e1]
@startuml
    set namespaceSeparator none
    hide empty fields
    hide empty methods

    class "<size:14>MenuItem\n<size:10>ui.menu" as ui.menu.MenuItem [[MenuItem.html]] {
        -description: String
        -ui: Runnable
        +MenuItem(String, Runnable)
        +run(): void
        +hasDescription(String): boolean
    }

    center footer UMLDoclet 2.0.12, PlantUML 1.2020.16
@enduml

PlantUML version 1.2020.16(Sun Aug 23 21:20:43 WEST 2020)
(APACHE source distribution)
Java Runtime: Java(TM) SE Runtime Environment
JVM: Java HotSpot(TM) 64-Bit Server VM
Default Encoding: UTF-8
Language: en
Country: US
--></g></svg>