<?xml version="1.0" encoding="UTF-8" standalone="no"?><svg xmlns="http://www.w3.org/2000/svg" xmlns:xlink="http://www.w3.org/1999/xlink" contentScriptType="application/ecmascript" contentStyleType="text/css" height="384px" preserveAspectRatio="none" style="width:564px;height:384px;" version="1.1" viewBox="0 0 564 384" width="564px" zoomAndPan="magnify"><defs><filter height="300%" id="f13gmlgojx0jl" width="300%" x="-1" y="-1"><feGaussianBlur result="blurOut" stdDeviation="2.0"/><feColorMatrix in="blurOut" result="blurOut2" type="matrix" values="0 0 0 0 0 0 0 0 0 0 0 0 0 0 0 0 0 0 .4 0"/><feOffset dx="4.0" dy="4.0" in="blurOut2" result="blurOut3"/><feBlend in="SourceGraphic" in2="blurOut3" mode="normal"/></filter></defs><g><!--MD5=[0b2f400a0481fccbc4c580accdd61784]
cluster ui.menu--><polygon fill="#FFFFFF" filter="url(#f13gmlgojx0jl)" points="16,6,79,6,86,28.4883,542,28.4883,542,355.51,16,355.51,16,6" style="stroke: #000000; stroke-width: 1.5;"/><line style="stroke: #000000; stroke-width: 1.5;" x1="16" x2="86" y1="28.4883" y2="28.4883"/><text fill="#000000" font-family="sans-serif" font-size="14" font-weight="bold" lengthAdjust="spacingAndGlyphs" textLength="57" x="20" y="21.5352">ui.menu</text><!--MD5=[687773706a2af73fcb32459261b93c42]
class ui.menu.ShowTextUI--><a href="ShowTextUI.html" target="_top" title="ShowTextUI.html" xlink:actuate="onRequest" xlink:href="ShowTextUI.html" xlink:show="new" xlink:title="ShowTextUI.html" xlink:type="simple"><rect codeLine="3" fill="#FEFECE" filter="url(#f13gmlgojx0jl)" height="86.8652" id="ui.menu.ShowTextUI" style="stroke: #A80036; stroke-width: 1.5;" width="129" x="32.5" y="53.96"/><ellipse cx="61.45" cy="69.96" fill="#ADD1B2" rx="11" ry="11" style="stroke: #A80036; stroke-width: 1.0;"/><path d="M63.9231,76.1031 Q63.3421,76.4019 62.7029,76.5513 Q62.0638,76.7007 61.3582,76.7007 Q58.8514,76.7007 57.5315,75.0489 Q56.2117,73.397 56.2117,70.2759 Q56.2117,67.1465 57.5315,65.4947 Q58.8514,63.8428 61.3582,63.8428 Q62.0638,63.8428 62.7112,63.9922 Q63.3587,64.1416 63.9231,64.4405 L63.9231,67.1631 Q63.2923,66.5821 62.6988,66.3123 Q62.1053,66.0425 61.4744,66.0425 Q60.1297,66.0425 59.4449,67.1092 Q58.7601,68.1758 58.7601,70.2759 Q58.7601,72.3677 59.4449,73.4344 Q60.1297,74.501 61.4744,74.501 Q62.1053,74.501 62.6988,74.2312 Q63.2923,73.9615 63.9231,73.3804 Z "/><text fill="#000000" font-family="sans-serif" font-size="12" lengthAdjust="spacingAndGlyphs" textLength="66" x="78.55" y="74.4952">ShowTextUI</text><line style="stroke: #A80036; stroke-width: 1.5;" x1="33.5" x2="160.5" y1="85.96" y2="85.96"/><rect fill="none" height="6" style="stroke: #C82930; stroke-width: 1.0;" width="6" x="40.5" y="93.96"/><text fill="#000000" font-family="sans-serif" font-size="11" lengthAdjust="spacingAndGlyphs" textLength="59" x="52.5" y="100.5948">text: String</text><line style="stroke: #A80036; stroke-width: 1.5;" x1="33.5" x2="160.5" y1="106.9151" y2="106.9151"/><ellipse cx="43.5" cy="117.9151" fill="#84BE84" rx="3" ry="3" style="stroke: #038048; stroke-width: 1.0;"/><text fill="#000000" font-family="sans-serif" font-size="11" lengthAdjust="spacingAndGlyphs" textLength="103" x="52.5" y="121.5498">ShowTextUI(String)</text><ellipse cx="43.5" cy="130.8702" fill="#84BE84" rx="3" ry="3" style="stroke: #038048; stroke-width: 1.0;"/><text fill="#000000" font-family="sans-serif" font-size="11" lengthAdjust="spacingAndGlyphs" textLength="56" x="52.5" y="134.5049">run(): void</text></a><!--MD5=[3d71d15c11a15634972d9904e1295f8b]
class ui.menu.MenuItem--><a href="MenuItem.html" target="_top" title="MenuItem.html" xlink:actuate="onRequest" xlink:href="MenuItem.html" xlink:show="new" xlink:title="MenuItem.html" xlink:type="simple"><rect codeLine="9" fill="#FEFECE" filter="url(#f13gmlgojx0jl)" height="112.7754" id="ui.menu.MenuItem" style="stroke: #A80036; stroke-width: 1.5;" width="196" x="197" y="41"/><ellipse cx="262.75" cy="57" fill="#ADD1B2" rx="11" ry="11" style="stroke: #A80036; stroke-width: 1.0;"/><path d="M265.2231,63.1431 Q264.6421,63.4419 264.0029,63.5913 Q263.3638,63.7407 262.6582,63.7407 Q260.1514,63.7407 258.8315,62.0889 Q257.5117,60.437 257.5117,57.3159 Q257.5117,54.1865 258.8315,52.5347 Q260.1514,50.8828 262.6582,50.8828 Q263.3638,50.8828 264.0112,51.0322 Q264.6587,51.1816 265.2231,51.4805 L265.2231,54.2031 Q264.5923,53.6221 263.9988,53.3523 Q263.4053,53.0825 262.7744,53.0825 Q261.4297,53.0825 260.7449,54.1492 Q260.0601,55.2158 260.0601,57.3159 Q260.0601,59.4077 260.7449,60.4744 Q261.4297,61.541 262.7744,61.541 Q263.4053,61.541 263.9988,61.2712 Q264.5923,61.0015 265.2231,60.4204 Z "/><text fill="#000000" font-family="sans-serif" font-size="12" lengthAdjust="spacingAndGlyphs" textLength="56" x="283.25" y="61.5352">MenuItem</text><line style="stroke: #A80036; stroke-width: 1.5;" x1="198" x2="392" y1="73" y2="73"/><rect fill="none" height="6" style="stroke: #C82930; stroke-width: 1.0;" width="6" x="205" y="81"/><text fill="#000000" font-family="sans-serif" font-size="11" lengthAdjust="spacingAndGlyphs" textLength="99" x="217" y="87.6348">description: String</text><rect fill="none" height="6" style="stroke: #C82930; stroke-width: 1.0;" width="6" x="205" y="93.9551"/><text fill="#000000" font-family="sans-serif" font-size="11" lengthAdjust="spacingAndGlyphs" textLength="66" x="217" y="100.5898">ui: Runnable</text><line style="stroke: #A80036; stroke-width: 1.5;" x1="198" x2="392" y1="106.9102" y2="106.9102"/><ellipse cx="208" cy="117.9102" fill="#84BE84" rx="3" ry="3" style="stroke: #038048; stroke-width: 1.0;"/><text fill="#000000" font-family="sans-serif" font-size="11" lengthAdjust="spacingAndGlyphs" textLength="148" x="217" y="121.5449">MenuItem(String, Runnable)</text><ellipse cx="208" cy="130.8652" fill="#84BE84" rx="3" ry="3" style="stroke: #038048; stroke-width: 1.0;"/><text fill="#000000" font-family="sans-serif" font-size="11" lengthAdjust="spacingAndGlyphs" textLength="56" x="217" y="134.5">run(): void</text><ellipse cx="208" cy="143.8203" fill="#84BE84" rx="3" ry="3" style="stroke: #038048; stroke-width: 1.0;"/><text fill="#000000" font-family="sans-serif" font-size="11" lengthAdjust="spacingAndGlyphs" textLength="170" x="217" y="147.4551">hasDescription(String): boolean</text></a><!--MD5=[373c6852cae888f470ab23551d10da9d]
class ui.menu.DevTeamUI--><a href="DevTeamUI.html" target="_top" title="DevTeamUI.html" xlink:actuate="onRequest" xlink:href="DevTeamUI.html" xlink:show="new" xlink:title="DevTeamUI.html" xlink:type="simple"><rect codeLine="17" fill="#FEFECE" filter="url(#f13gmlgojx0jl)" height="60.9551" id="ui.menu.DevTeamUI" style="stroke: #A80036; stroke-width: 1.5;" width="98" x="428" y="66.91"/><ellipse cx="443" cy="82.91" fill="#ADD1B2" rx="11" ry="11" style="stroke: #A80036; stroke-width: 1.0;"/><path d="M445.4731,89.0531 Q444.8921,89.3519 444.2529,89.5013 Q443.6138,89.6507 442.9082,89.6507 Q440.4014,89.6507 439.0815,87.9989 Q437.7617,86.347 437.7617,83.2259 Q437.7617,80.0965 439.0815,78.4447 Q440.4014,76.7928 442.9082,76.7928 Q443.6138,76.7928 444.2612,76.9422 Q444.9087,77.0916 445.4731,77.3905 L445.4731,80.1131 Q444.8423,79.5321 444.2488,79.2623 Q443.6553,78.9925 443.0244,78.9925 Q441.6797,78.9925 440.9949,80.0592 Q440.3101,81.1258 440.3101,83.2259 Q440.3101,85.3177 440.9949,86.3844 Q441.6797,87.451 443.0244,87.451 Q443.6553,87.451 444.2488,87.1812 Q444.8423,86.9115 445.4731,86.3304 Z "/><text fill="#000000" font-family="sans-serif" font-size="12" lengthAdjust="spacingAndGlyphs" textLength="66" x="457" y="87.4452">DevTeamUI</text><line style="stroke: #A80036; stroke-width: 1.5;" x1="429" x2="525" y1="98.91" y2="98.91"/><line style="stroke: #A80036; stroke-width: 1.5;" x1="429" x2="525" y1="106.91" y2="106.91"/><ellipse cx="439" cy="117.91" fill="#84BE84" rx="3" ry="3" style="stroke: #038048; stroke-width: 1.0;"/><text fill="#000000" font-family="sans-serif" font-size="11" lengthAdjust="spacingAndGlyphs" textLength="56" x="448" y="121.5448">run(): void</text></a><!--MD5=[88e141335e6bd02203b7005a023d221e]
class ui.menu.StartupMessageBackofficeUI--><a href="StartupMessageBackofficeUI.html" target="_top" title="StartupMessageBackofficeUI.html" xlink:actuate="onRequest" xlink:href="StartupMessageBackofficeUI.html" xlink:show="new" xlink:title="StartupMessageBackofficeUI.html" xlink:type="simple"><rect codeLine="21" fill="#FEFECE" filter="url(#f13gmlgojx0jl)" height="125.7305" id="ui.menu.StartupMessageBackofficeUI" style="stroke: #A80036; stroke-width: 1.5;" width="192" x="32" y="213.78"/><ellipse cx="47" cy="229.78" fill="#ADD1B2" rx="11" ry="11" style="stroke: #A80036; stroke-width: 1.0;"/><path d="M49.4731,235.9231 Q48.8921,236.2219 48.2529,236.3713 Q47.6138,236.5207 46.9082,236.5207 Q44.4014,236.5207 43.0815,234.8689 Q41.7617,233.217 41.7617,230.0959 Q41.7617,226.9665 43.0815,225.3147 Q44.4014,223.6628 46.9082,223.6628 Q47.6138,223.6628 48.2612,223.8122 Q48.9087,223.9616 49.4731,224.2605 L49.4731,226.9831 Q48.8423,226.4021 48.2488,226.1323 Q47.6553,225.8625 47.0244,225.8625 Q45.6797,225.8625 44.9949,226.9292 Q44.3101,227.9958 44.3101,230.0959 Q44.3101,232.1877 44.9949,233.2544 Q45.6797,234.321 47.0244,234.321 Q47.6553,234.321 48.2488,234.0512 Q48.8423,233.7815 49.4731,233.2004 Z "/><text fill="#000000" font-family="sans-serif" font-size="12" lengthAdjust="spacingAndGlyphs" textLength="160" x="61" y="234.3152">StartupMessageBackofficeUI</text><line style="stroke: #A80036; stroke-width: 1.5;" x1="33" x2="223" y1="245.78" y2="245.78"/><rect fill="none" height="6" style="stroke: #C82930; stroke-width: 1.0;" width="6" x="40" y="253.78"/><text fill="#000000" font-family="sans-serif" font-size="11" lengthAdjust="spacingAndGlyphs" text-decoration="underline" textLength="130" x="52" y="260.4148">COMPANY_NAME: String</text><rect fill="none" height="6" style="stroke: #C82930; stroke-width: 1.0;" width="6" x="40" y="266.7351"/><text fill="#000000" font-family="sans-serif" font-size="11" lengthAdjust="spacingAndGlyphs" text-decoration="underline" textLength="95" x="52" y="273.3698">APP_NAME: String</text><rect fill="none" height="6" style="stroke: #C82930; stroke-width: 1.0;" width="6" x="40" y="279.6902"/><text fill="#000000" font-family="sans-serif" font-size="11" lengthAdjust="spacingAndGlyphs" text-decoration="underline" textLength="84" x="52" y="286.3249">VERSION: String</text><rect fill="none" height="6" style="stroke: #C82930; stroke-width: 1.0;" width="6" x="40" y="292.6452"/><text fill="#000000" font-family="sans-serif" font-size="11" lengthAdjust="spacingAndGlyphs" text-decoration="underline" textLength="104" x="52" y="299.28">BORDER_WIDTH: int</text><line style="stroke: #A80036; stroke-width: 1.5;" x1="33" x2="223" y1="305.6003" y2="305.6003"/><ellipse cx="43" cy="316.6003" fill="#84BE84" rx="3" ry="3" style="stroke: #038048; stroke-width: 1.0;"/><text fill="#000000" font-family="sans-serif" font-size="11" lengthAdjust="spacingAndGlyphs" text-decoration="underline" textLength="75" x="52" y="320.2351">display(): void</text><rect fill="#F24D5C" height="6" style="stroke: #C82930; stroke-width: 1.0;" width="6" x="40" y="326.5554"/><text fill="#000000" font-family="sans-serif" font-size="11" lengthAdjust="spacingAndGlyphs" text-decoration="underline" textLength="156" x="52" y="333.1902">centerText(String, int): String</text></a><!--MD5=[ba2ba2c07e65782c60e2b59adfabeb40]
class ui.menu.MainMenuUI--><a href="MainMenuUI.html" target="_top" title="MainMenuUI.html" xlink:actuate="onRequest" xlink:href="MainMenuUI.html" xlink:show="new" xlink:title="MainMenuUI.html" xlink:type="simple"><rect codeLine="30" fill="#FEFECE" filter="url(#f13gmlgojx0jl)" height="60.9551" id="ui.menu.MainMenuUI" style="stroke: #A80036; stroke-width: 1.5;" width="101" x="259.5" y="246.17"/><ellipse cx="274.5" cy="262.17" fill="#ADD1B2" rx="11" ry="11" style="stroke: #A80036; stroke-width: 1.0;"/><path d="M276.9731,268.3131 Q276.3921,268.6119 275.7529,268.7613 Q275.1138,268.9107 274.4082,268.9107 Q271.9014,268.9107 270.5815,267.2589 Q269.2617,265.607 269.2617,262.4859 Q269.2617,259.3565 270.5815,257.7047 Q271.9014,256.0528 274.4082,256.0528 Q275.1138,256.0528 275.7612,256.2022 Q276.4087,256.3516 276.9731,256.6505 L276.9731,259.3731 Q276.3423,258.7921 275.7488,258.5223 Q275.1553,258.2525 274.5244,258.2525 Q273.1797,258.2525 272.4949,259.3192 Q271.8101,260.3858 271.8101,262.4859 Q271.8101,264.5777 272.4949,265.6444 Q273.1797,266.711 274.5244,266.711 Q275.1553,266.711 275.7488,266.4412 Q276.3423,266.1715 276.9731,265.5904 Z "/><text fill="#000000" font-family="sans-serif" font-size="12" lengthAdjust="spacingAndGlyphs" textLength="69" x="288.5" y="266.7052">MainMenuUI</text><line style="stroke: #A80036; stroke-width: 1.5;" x1="260.5" x2="359.5" y1="278.17" y2="278.17"/><line style="stroke: #A80036; stroke-width: 1.5;" x1="260.5" x2="359.5" y1="286.17" y2="286.17"/><ellipse cx="270.5" cy="297.17" fill="#84BE84" rx="3" ry="3" style="stroke: #038048; stroke-width: 1.0;"/><text fill="#000000" font-family="sans-serif" font-size="11" lengthAdjust="spacingAndGlyphs" textLength="56" x="279.5" y="300.8048">run(): void</text></a><!--MD5=[e0eebc20d7695133dffc433c03e44d80]
link ui.menu.ShowTextUI to ui.menu.MenuItem--><!--MD5=[02fcf50e4cbe04269d315491f091dbd2]
link ui.menu.MenuItem to ui.menu.DevTeamUI--><!--MD5=[bb046d92cec60c1fee409c0bdf6671ec]
link ui.menu.ShowTextUI to ui.menu.StartupMessageBackofficeUI--><!--MD5=[16104082254cc0f3b53a7253312093e9]
link ui.menu.StartupMessageBackofficeUI to ui.menu.MainMenuUI--><text fill="#888888" font-family="sans-serif" font-size="10" lengthAdjust="spacingAndGlyphs" textLength="188" x="179" y="371.178">UMLDoclet 2.0.12, PlantUML 1.2020.16</text><!--MD5=[bad9028de7a8bf9c64474fe829dca1c5]
@startuml
    namespace ui.menu {

        class ShowTextUI [[ShowTextUI.html]] {
            -text: String
            +ShowTextUI(String)
            +run(): void
        }

        class MenuItem [[MenuItem.html]] {
            -description: String
            -ui: Runnable
            +MenuItem(String, Runnable)
            +run(): void
            +hasDescription(String): boolean
        }

        class DevTeamUI [[DevTeamUI.html]] {
            +run(): void
        }

        class StartupMessageBackofficeUI [[StartupMessageBackofficeUI.html]] {
            {static} -COMPANY_NAME: String
            {static} -APP_NAME: String
            {static} -VERSION: String
            {static} -BORDER_WIDTH: int
            {static} +display(): void
            {static} -centerText(String, int): String
        }

        class MainMenuUI [[MainMenuUI.html]] {
            +run(): void
        }

    }

    center footer UMLDoclet 2.0.12, PlantUML 1.2020.16
@enduml

PlantUML version 1.2020.16(Sun Aug 23 21:20:43 WEST 2020)
(APACHE source distribution)
Java Runtime: OpenJDK Runtime Environment
JVM: OpenJDK 64-Bit Server VM
Default Encoding: UTF-8
Language: pt
Country: PT
--></g></svg>