<?xml version="1.0" encoding="UTF-8" standalone="no"?><svg xmlns="http://www.w3.org/2000/svg" xmlns:xlink="http://www.w3.org/1999/xlink" contentScriptType="application/ecmascript" contentStyleType="text/css" height="366px" preserveAspectRatio="none" style="width:402px;height:366px;" version="1.1" viewBox="0 0 402 366" width="402px" zoomAndPan="magnify"><defs><filter height="300%" id="fkh8tix6x4c8z" width="300%" x="-1" y="-1"><feGaussianBlur result="blurOut" stdDeviation="2.0"/><feColorMatrix in="blurOut" result="blurOut2" type="matrix" values="0 0 0 0 0 0 0 0 0 0 0 0 0 0 0 0 0 0 .4 0"/><feOffset dx="4.0" dy="4.0" in="blurOut2" result="blurOut3"/><feBlend in="SourceGraphic" in2="blurOut3" mode="normal"/></filter></defs><g><!--MD5=[0b2f400a0481fccbc4c580accdd61784]
cluster ui.menu--><polygon fill="#FFFFFF" filter="url(#fkh8tix6x4c8z)" points="16,6.602,79,6.602,86,31.6699,380,31.6699,380,336.602,16,336.602,16,6.602" style="stroke: #000000; stroke-width: 1.5;"/><line style="stroke: #000000; stroke-width: 1.5;" x1="16" x2="86" y1="31.6699" y2="31.6699"/><text fill="#000000" font-family="sans-serif" font-size="14" font-weight="bold" lengthAdjust="spacingAndGlyphs" textLength="57" x="20" y="23.5679">ui.menu</text><!--MD5=[3d71d15c11a15634972d9904e1295f8b]
class ui.menu.MenuItem--><a href="MenuItem.html" target="_top" title="MenuItem.html" xlink:actuate="onRequest" xlink:href="MenuItem.html" xlink:show="new" xlink:title="MenuItem.html" xlink:type="simple"><rect codeLine="3" fill="#FEFECE" filter="url(#fkh8tix6x4c8z)" height="122.9094" id="ui.menu.MenuItem" style="stroke: #A80036; stroke-width: 1.5;" width="191" x="32.5" y="44.602"/><ellipse cx="94.75" cy="60.602" fill="#ADD1B2" rx="11" ry="11" style="stroke: #A80036; stroke-width: 1.0;"/><path d="M97.7188,66.2426 Q97.1406,66.5395 96.5,66.6801 Q95.8594,66.8364 95.1563,66.8364 Q92.6563,66.8364 91.3281,65.1957 Q90.0156,63.5395 90.0156,60.4145 Q90.0156,57.2895 91.3281,55.6332 Q92.6563,53.977 95.1563,53.977 Q95.8594,53.977 96.5,54.1332 Q97.1563,54.2895 97.7188,54.5864 L97.7188,57.3051 Q97.0938,56.727 96.5,56.4614 Q95.9063,56.1801 95.2813,56.1801 Q93.9375,56.1801 93.25,57.2582 Q92.5625,58.3207 92.5625,60.4145 Q92.5625,62.5082 93.25,63.5864 Q93.9375,64.6489 95.2813,64.6489 Q95.9063,64.6489 96.5,64.3832 Q97.0938,64.102 97.7188,63.5239 L97.7188,66.2426 Z "/><text fill="#000000" font-family="sans-serif" font-size="12" lengthAdjust="spacingAndGlyphs" textLength="58" x="115.25" y="65.258">MenuItem</text><line style="stroke: #A80036; stroke-width: 1.5;" x1="33.5" x2="222.5" y1="76.602" y2="76.602"/><rect fill="none" height="6" style="stroke: #C82930; stroke-width: 1.0;" width="6" x="40.5" y="84.602"/><text fill="#000000" font-family="sans-serif" font-size="11" lengthAdjust="spacingAndGlyphs" textLength="97" x="52.5" y="92.3609">description: String</text><rect fill="none" height="6" style="stroke: #C82930; stroke-width: 1.0;" width="6" x="40.5" y="99.5839"/><text fill="#000000" font-family="sans-serif" font-size="11" lengthAdjust="spacingAndGlyphs" textLength="66" x="52.5" y="107.3428">ui: Runnable</text><line style="stroke: #A80036; stroke-width: 1.5;" x1="33.5" x2="222.5" y1="114.5658" y2="114.5658"/><ellipse cx="43.5" cy="125.5658" fill="#84BE84" rx="3" ry="3" style="stroke: #038048; stroke-width: 1.0;"/><text fill="#000000" font-family="sans-serif" font-size="11" lengthAdjust="spacingAndGlyphs" textLength="148" x="52.5" y="130.3247">MenuItem(String, Runnable)</text><ellipse cx="43.5" cy="140.5476" fill="#84BE84" rx="3" ry="3" style="stroke: #038048; stroke-width: 1.0;"/><text fill="#000000" font-family="sans-serif" font-size="11" lengthAdjust="spacingAndGlyphs" textLength="54" x="52.5" y="145.3066">run(): void</text><ellipse cx="43.5" cy="155.5295" fill="#84BE84" rx="3" ry="3" style="stroke: #038048; stroke-width: 1.0;"/><text fill="#000000" font-family="sans-serif" font-size="11" lengthAdjust="spacingAndGlyphs" textLength="165" x="52.5" y="160.2884">hasDescription(String): boolean</text></a><!--MD5=[ba2ba2c07e65782c60e2b59adfabeb40]
class ui.menu.MainMenuUI--><a href="MainMenuUI.html" target="_top" title="MainMenuUI.html" xlink:actuate="onRequest" xlink:href="MainMenuUI.html" xlink:show="new" xlink:title="MainMenuUI.html" xlink:type="simple"><rect codeLine="11" fill="#FEFECE" filter="url(#fkh8tix6x4c8z)" height="62.9819" id="ui.menu.MainMenuUI" style="stroke: #A80036; stroke-width: 1.5;" width="105" x="258.5" y="74.602"/><ellipse cx="273.5" cy="90.602" fill="#ADD1B2" rx="11" ry="11" style="stroke: #A80036; stroke-width: 1.0;"/><path d="M276.4688,96.2426 Q275.8906,96.5395 275.25,96.6801 Q274.6094,96.8364 273.9063,96.8364 Q271.4063,96.8364 270.0781,95.1957 Q268.7656,93.5395 268.7656,90.4145 Q268.7656,87.2895 270.0781,85.6332 Q271.4063,83.977 273.9063,83.977 Q274.6094,83.977 275.25,84.1332 Q275.9063,84.2895 276.4688,84.5864 L276.4688,87.3051 Q275.8438,86.727 275.25,86.4614 Q274.6563,86.1801 274.0313,86.1801 Q272.6875,86.1801 272,87.2582 Q271.3125,88.3207 271.3125,90.4145 Q271.3125,92.5082 272,93.5864 Q272.6875,94.6489 274.0313,94.6489 Q274.6563,94.6489 275.25,94.3832 Q275.8438,94.102 276.4688,93.5239 L276.4688,96.2426 Z "/><text fill="#000000" font-family="sans-serif" font-size="12" lengthAdjust="spacingAndGlyphs" textLength="73" x="287.5" y="95.258">MainMenuUI</text><line style="stroke: #A80036; stroke-width: 1.5;" x1="259.5" x2="362.5" y1="106.602" y2="106.602"/><line style="stroke: #A80036; stroke-width: 1.5;" x1="259.5" x2="362.5" y1="114.602" y2="114.602"/><ellipse cx="269.5" cy="125.602" fill="#84BE84" rx="3" ry="3" style="stroke: #038048; stroke-width: 1.0;"/><text fill="#000000" font-family="sans-serif" font-size="11" lengthAdjust="spacingAndGlyphs" textLength="54" x="278.5" y="130.3609">run(): void</text></a><!--MD5=[687773706a2af73fcb32459261b93c42]
class ui.menu.ShowTextUI--><a href="ShowTextUI.html" target="_top" title="ShowTextUI.html" xlink:actuate="onRequest" xlink:href="ShowTextUI.html" xlink:show="new" xlink:title="ShowTextUI.html" xlink:type="simple"><rect codeLine="15" fill="#FEFECE" filter="url(#fkh8tix6x4c8z)" height="92.9457" id="ui.menu.ShowTextUI" style="stroke: #A80036; stroke-width: 1.5;" width="127" x="64.5" y="227.602"/><ellipse cx="92.1" cy="243.602" fill="#ADD1B2" rx="11" ry="11" style="stroke: #A80036; stroke-width: 1.0;"/><path d="M95.0688,249.2426 Q94.4906,249.5395 93.85,249.6801 Q93.2094,249.8364 92.5063,249.8364 Q90.0063,249.8364 88.6781,248.1957 Q87.3656,246.5395 87.3656,243.4145 Q87.3656,240.2895 88.6781,238.6332 Q90.0063,236.977 92.5063,236.977 Q93.2094,236.977 93.85,237.1332 Q94.5063,237.2895 95.0688,237.5864 L95.0688,240.3051 Q94.4438,239.727 93.85,239.4614 Q93.2563,239.1801 92.6313,239.1801 Q91.2875,239.1801 90.6,240.2582 Q89.9125,241.3207 89.9125,243.4145 Q89.9125,245.5082 90.6,246.5864 Q91.2875,247.6489 92.6313,247.6489 Q93.2563,247.6489 93.85,247.3832 Q94.4438,247.102 95.0688,246.5239 L95.0688,249.2426 Z "/><text fill="#000000" font-family="sans-serif" font-size="12" lengthAdjust="spacingAndGlyphs" textLength="67" x="108.9" y="248.258">ShowTextUI</text><line style="stroke: #A80036; stroke-width: 1.5;" x1="65.5" x2="190.5" y1="259.602" y2="259.602"/><rect fill="none" height="6" style="stroke: #C82930; stroke-width: 1.0;" width="6" x="72.5" y="267.602"/><text fill="#000000" font-family="sans-serif" font-size="11" lengthAdjust="spacingAndGlyphs" textLength="58" x="84.5" y="275.3609">text: String</text><line style="stroke: #A80036; stroke-width: 1.5;" x1="65.5" x2="190.5" y1="282.5839" y2="282.5839"/><ellipse cx="75.5" cy="293.5839" fill="#84BE84" rx="3" ry="3" style="stroke: #038048; stroke-width: 1.0;"/><text fill="#000000" font-family="sans-serif" font-size="11" lengthAdjust="spacingAndGlyphs" textLength="101" x="84.5" y="298.3428">ShowTextUI(String)</text><ellipse cx="75.5" cy="308.5658" fill="#84BE84" rx="3" ry="3" style="stroke: #038048; stroke-width: 1.0;"/><text fill="#000000" font-family="sans-serif" font-size="11" lengthAdjust="spacingAndGlyphs" textLength="54" x="84.5" y="313.3247">run(): void</text></a><!--MD5=[373c6852cae888f470ab23551d10da9d]
class ui.menu.DevTeamUI--><a href="DevTeamUI.html" target="_top" title="DevTeamUI.html" xlink:actuate="onRequest" xlink:href="DevTeamUI.html" xlink:show="new" xlink:title="DevTeamUI.html" xlink:type="simple"><rect codeLine="21" fill="#FEFECE" filter="url(#fkh8tix6x4c8z)" height="62.9819" id="ui.menu.DevTeamUI" style="stroke: #A80036; stroke-width: 1.5;" width="99" x="226.5" y="242.602"/><ellipse cx="241.5" cy="258.602" fill="#ADD1B2" rx="11" ry="11" style="stroke: #A80036; stroke-width: 1.0;"/><path d="M244.4688,264.2426 Q243.8906,264.5395 243.25,264.6801 Q242.6094,264.8364 241.9063,264.8364 Q239.4063,264.8364 238.0781,263.1957 Q236.7656,261.5395 236.7656,258.4145 Q236.7656,255.2895 238.0781,253.6332 Q239.4063,251.977 241.9063,251.977 Q242.6094,251.977 243.25,252.1332 Q243.9063,252.2895 244.4688,252.5864 L244.4688,255.3051 Q243.8438,254.727 243.25,254.4614 Q242.6563,254.1801 242.0313,254.1801 Q240.6875,254.1801 240,255.2582 Q239.3125,256.3207 239.3125,258.4145 Q239.3125,260.5082 240,261.5864 Q240.6875,262.6489 242.0313,262.6489 Q242.6563,262.6489 243.25,262.3832 Q243.8438,262.102 244.4688,261.5239 L244.4688,264.2426 Z "/><text fill="#000000" font-family="sans-serif" font-size="12" lengthAdjust="spacingAndGlyphs" textLength="67" x="255.5" y="263.258">DevTeamUI</text><line style="stroke: #A80036; stroke-width: 1.5;" x1="227.5" x2="324.5" y1="274.602" y2="274.602"/><line style="stroke: #A80036; stroke-width: 1.5;" x1="227.5" x2="324.5" y1="282.602" y2="282.602"/><ellipse cx="237.5" cy="293.602" fill="#84BE84" rx="3" ry="3" style="stroke: #038048; stroke-width: 1.0;"/><text fill="#000000" font-family="sans-serif" font-size="11" lengthAdjust="spacingAndGlyphs" textLength="54" x="246.5" y="298.3609">run(): void</text></a><!--MD5=[02d323da86a5123046aece27ccf756cc]
link ui.menu.MenuItem to ui.menu.MainMenuUI--><!--MD5=[e09b60909c922b92a1d925c899e26bb8]
link ui.menu.MenuItem to ui.menu.ShowTextUI--><!--MD5=[84ae4c53ee22af5b6a6e61ff72e56b99]
link ui.menu.ShowTextUI to ui.menu.DevTeamUI--><text fill="#888888" font-family="sans-serif" font-size="10" lengthAdjust="spacingAndGlyphs" textLength="188" x="98" y="353.292">UMLDoclet 2.0.12, PlantUML 1.2020.16</text><!--MD5=[ecc80882c3aea756afa66d54cd63dddf]
@startuml
    namespace ui.menu {

        class MenuItem [[MenuItem.html]] {
            -description: String
            -ui: Runnable
            +MenuItem(String, Runnable)
            +run(): void
            +hasDescription(String): boolean
        }

        class MainMenuUI [[MainMenuUI.html]] {
            +run(): void
        }

        class ShowTextUI [[ShowTextUI.html]] {
            -text: String
            +ShowTextUI(String)
            +run(): void
        }

        class DevTeamUI [[DevTeamUI.html]] {
            +run(): void
        }

    }

    center footer UMLDoclet 2.0.12, PlantUML 1.2020.16
@enduml

PlantUML version 1.2020.16(Sun Aug 23 21:20:43 WEST 2020)
(APACHE source distribution)
Java Runtime: Java(TM) SE Runtime Environment
JVM: Java HotSpot(TM) 64-Bit Server VM
Default Encoding: UTF-8
Language: en
Country: US
--></g></svg>