<?xml version="1.0" encoding="UTF-8" standalone="no"?><svg xmlns="http://www.w3.org/2000/svg" xmlns:xlink="http://www.w3.org/1999/xlink" contentScriptType="application/ecmascript" contentStyleType="text/css" height="381px" preserveAspectRatio="none" style="width:632px;height:381px;" version="1.1" viewBox="0 0 632 381" width="632px" zoomAndPan="magnify"><defs><filter height="300%" id="fqg0xoopjwlvb" width="300%" x="-1" y="-1"><feGaussianBlur result="blurOut" stdDeviation="2.0"/><feColorMatrix in="blurOut" result="blurOut2" type="matrix" values="0 0 0 0 0 0 0 0 0 0 0 0 0 0 0 0 0 0 .4 0"/><feOffset dx="4.0" dy="4.0" in="blurOut2" result="blurOut3"/><feBlend in="SourceGraphic" in2="blurOut3" mode="normal"/></filter></defs><g><!--MD5=[0b2f400a0481fccbc4c580accdd61784]
cluster ui.menu--><polygon fill="#FFFFFF" filter="url(#fqg0xoopjwlvb)" points="16,6.602,79,6.602,86,31.6699,610,31.6699,610,351.602,16,351.602,16,6.602" style="stroke: #000000; stroke-width: 1.5;"/><line style="stroke: #000000; stroke-width: 1.5;" x1="16" x2="86" y1="31.6699" y2="31.6699"/><text fill="#000000" font-family="sans-serif" font-size="14" font-weight="bold" lengthAdjust="spacingAndGlyphs" textLength="57" x="20" y="23.5679">ui.menu</text><!--MD5=[3d71d15c11a15634972d9904e1295f8b]
class ui.menu.MenuItem--><a href="MenuItem.html" target="_top" title="MenuItem.html" xlink:actuate="onRequest" xlink:href="MenuItem.html" xlink:show="new" xlink:title="MenuItem.html" xlink:type="simple"><rect codeLine="3" fill="#FEFECE" filter="url(#fqg0xoopjwlvb)" height="122.9094" id="ui.menu.MenuItem" style="stroke: #A80036; stroke-width: 1.5;" width="191" x="32.5" y="52.102"/><ellipse cx="94.75" cy="68.102" fill="#ADD1B2" rx="11" ry="11" style="stroke: #A80036; stroke-width: 1.0;"/><path d="M97.7188,73.7426 Q97.1406,74.0395 96.5,74.1801 Q95.8594,74.3364 95.1563,74.3364 Q92.6563,74.3364 91.3281,72.6957 Q90.0156,71.0395 90.0156,67.9145 Q90.0156,64.7895 91.3281,63.1332 Q92.6563,61.477 95.1563,61.477 Q95.8594,61.477 96.5,61.6332 Q97.1563,61.7895 97.7188,62.0864 L97.7188,64.8051 Q97.0938,64.227 96.5,63.9614 Q95.9063,63.6801 95.2813,63.6801 Q93.9375,63.6801 93.25,64.7582 Q92.5625,65.8207 92.5625,67.9145 Q92.5625,70.0082 93.25,71.0864 Q93.9375,72.1489 95.2813,72.1489 Q95.9063,72.1489 96.5,71.8832 Q97.0938,71.602 97.7188,71.0239 L97.7188,73.7426 Z "/><text fill="#000000" font-family="sans-serif" font-size="12" lengthAdjust="spacingAndGlyphs" textLength="58" x="115.25" y="72.758">MenuItem</text><line style="stroke: #A80036; stroke-width: 1.5;" x1="33.5" x2="222.5" y1="84.102" y2="84.102"/><rect fill="none" height="6" style="stroke: #C82930; stroke-width: 1.0;" width="6" x="40.5" y="92.102"/><text fill="#000000" font-family="sans-serif" font-size="11" lengthAdjust="spacingAndGlyphs" textLength="97" x="52.5" y="99.8609">description: String</text><rect fill="none" height="6" style="stroke: #C82930; stroke-width: 1.0;" width="6" x="40.5" y="107.0839"/><text fill="#000000" font-family="sans-serif" font-size="11" lengthAdjust="spacingAndGlyphs" textLength="66" x="52.5" y="114.8428">ui: Runnable</text><line style="stroke: #A80036; stroke-width: 1.5;" x1="33.5" x2="222.5" y1="122.0658" y2="122.0658"/><ellipse cx="43.5" cy="133.0658" fill="#84BE84" rx="3" ry="3" style="stroke: #038048; stroke-width: 1.0;"/><text fill="#000000" font-family="sans-serif" font-size="11" lengthAdjust="spacingAndGlyphs" textLength="148" x="52.5" y="137.8247">MenuItem(String, Runnable)</text><ellipse cx="43.5" cy="148.0476" fill="#84BE84" rx="3" ry="3" style="stroke: #038048; stroke-width: 1.0;"/><text fill="#000000" font-family="sans-serif" font-size="11" lengthAdjust="spacingAndGlyphs" textLength="54" x="52.5" y="152.8066">run(): void</text><ellipse cx="43.5" cy="163.0295" fill="#84BE84" rx="3" ry="3" style="stroke: #038048; stroke-width: 1.0;"/><text fill="#000000" font-family="sans-serif" font-size="11" lengthAdjust="spacingAndGlyphs" textLength="165" x="52.5" y="167.7884">hasDescription(String): boolean</text></a><!--MD5=[88e141335e6bd02203b7005a023d221e]
class ui.menu.StartupMessageBackofficeUI--><a href="StartupMessageBackofficeUI.html" target="_top" title="StartupMessageBackofficeUI.html" xlink:actuate="onRequest" xlink:href="StartupMessageBackofficeUI.html" xlink:show="new" xlink:title="StartupMessageBackofficeUI.html" xlink:type="simple"><rect codeLine="11" fill="#FEFECE" filter="url(#fqg0xoopjwlvb)" height="137.8913" id="ui.menu.StartupMessageBackofficeUI" style="stroke: #A80036; stroke-width: 1.5;" width="195" x="258.5" y="44.602"/><ellipse cx="273.5" cy="60.602" fill="#ADD1B2" rx="11" ry="11" style="stroke: #A80036; stroke-width: 1.0;"/><path d="M276.4688,66.2426 Q275.8906,66.5395 275.25,66.6801 Q274.6094,66.8364 273.9063,66.8364 Q271.4063,66.8364 270.0781,65.1957 Q268.7656,63.5395 268.7656,60.4145 Q268.7656,57.2895 270.0781,55.6332 Q271.4063,53.977 273.9063,53.977 Q274.6094,53.977 275.25,54.1332 Q275.9063,54.2895 276.4688,54.5864 L276.4688,57.3051 Q275.8438,56.727 275.25,56.4614 Q274.6563,56.1801 274.0313,56.1801 Q272.6875,56.1801 272,57.2582 Q271.3125,58.3207 271.3125,60.4145 Q271.3125,62.5082 272,63.5864 Q272.6875,64.6489 274.0313,64.6489 Q274.6563,64.6489 275.25,64.3832 Q275.8438,64.102 276.4688,63.5239 L276.4688,66.2426 Z "/><text fill="#000000" font-family="sans-serif" font-size="12" lengthAdjust="spacingAndGlyphs" textLength="163" x="287.5" y="65.258">StartupMessageBackofficeUI</text><line style="stroke: #A80036; stroke-width: 1.5;" x1="259.5" x2="452.5" y1="76.602" y2="76.602"/><rect fill="none" height="6" style="stroke: #C82930; stroke-width: 1.0;" width="6" x="266.5" y="84.602"/><text fill="#000000" font-family="sans-serif" font-size="11" lengthAdjust="spacingAndGlyphs" text-decoration="underline" textLength="128" x="278.5" y="92.3609">COMPANY_NAME: String</text><rect fill="none" height="6" style="stroke: #C82930; stroke-width: 1.0;" width="6" x="266.5" y="99.5839"/><text fill="#000000" font-family="sans-serif" font-size="11" lengthAdjust="spacingAndGlyphs" text-decoration="underline" textLength="95" x="278.5" y="107.3428">APP_NAME: String</text><rect fill="none" height="6" style="stroke: #C82930; stroke-width: 1.0;" width="6" x="266.5" y="114.5658"/><text fill="#000000" font-family="sans-serif" font-size="11" lengthAdjust="spacingAndGlyphs" text-decoration="underline" textLength="85" x="278.5" y="122.3247">VERSION: String</text><rect fill="none" height="6" style="stroke: #C82930; stroke-width: 1.0;" width="6" x="266.5" y="129.5476"/><text fill="#000000" font-family="sans-serif" font-size="11" lengthAdjust="spacingAndGlyphs" text-decoration="underline" textLength="105" x="278.5" y="137.3066">BORDER_WIDTH: int</text><line style="stroke: #A80036; stroke-width: 1.5;" x1="259.5" x2="452.5" y1="144.5295" y2="144.5295"/><ellipse cx="269.5" cy="155.5295" fill="#84BE84" rx="3" ry="3" style="stroke: #038048; stroke-width: 1.0;"/><text fill="#000000" font-family="sans-serif" font-size="11" lengthAdjust="spacingAndGlyphs" text-decoration="underline" textLength="72" x="278.5" y="160.2884">display(): void</text><rect fill="#F24D5C" height="6" style="stroke: #C82930; stroke-width: 1.0;" width="6" x="266.5" y="167.5114"/><text fill="#000000" font-family="sans-serif" font-size="11" lengthAdjust="spacingAndGlyphs" text-decoration="underline" textLength="151" x="278.5" y="175.2703">centerText(String, int): String</text></a><!--MD5=[ba2ba2c07e65782c60e2b59adfabeb40]
class ui.menu.MainMenuUI--><a href="MainMenuUI.html" target="_top" title="MainMenuUI.html" xlink:actuate="onRequest" xlink:href="MainMenuUI.html" xlink:show="new" xlink:title="MainMenuUI.html" xlink:type="simple"><rect codeLine="20" fill="#FEFECE" filter="url(#fqg0xoopjwlvb)" height="62.9819" id="ui.menu.MainMenuUI" style="stroke: #A80036; stroke-width: 1.5;" width="105" x="488.5" y="82.102"/><ellipse cx="503.5" cy="98.102" fill="#ADD1B2" rx="11" ry="11" style="stroke: #A80036; stroke-width: 1.0;"/><path d="M506.4688,103.7426 Q505.8906,104.0395 505.25,104.1801 Q504.6094,104.3364 503.9063,104.3364 Q501.4063,104.3364 500.0781,102.6957 Q498.7656,101.0395 498.7656,97.9145 Q498.7656,94.7895 500.0781,93.1332 Q501.4063,91.477 503.9063,91.477 Q504.6094,91.477 505.25,91.6332 Q505.9063,91.7895 506.4688,92.0864 L506.4688,94.8051 Q505.8438,94.227 505.25,93.9614 Q504.6563,93.6801 504.0313,93.6801 Q502.6875,93.6801 502,94.7582 Q501.3125,95.8207 501.3125,97.9145 Q501.3125,100.0082 502,101.0864 Q502.6875,102.1489 504.0313,102.1489 Q504.6563,102.1489 505.25,101.8832 Q505.8438,101.602 506.4688,101.0239 L506.4688,103.7426 Z "/><text fill="#000000" font-family="sans-serif" font-size="12" lengthAdjust="spacingAndGlyphs" textLength="73" x="517.5" y="102.758">MainMenuUI</text><line style="stroke: #A80036; stroke-width: 1.5;" x1="489.5" x2="592.5" y1="114.102" y2="114.102"/><line style="stroke: #A80036; stroke-width: 1.5;" x1="489.5" x2="592.5" y1="122.102" y2="122.102"/><ellipse cx="499.5" cy="133.102" fill="#84BE84" rx="3" ry="3" style="stroke: #038048; stroke-width: 1.0;"/><text fill="#000000" font-family="sans-serif" font-size="11" lengthAdjust="spacingAndGlyphs" textLength="54" x="508.5" y="137.8609">run(): void</text></a><!--MD5=[687773706a2af73fcb32459261b93c42]
class ui.menu.ShowTextUI--><a href="ShowTextUI.html" target="_top" title="ShowTextUI.html" xlink:actuate="onRequest" xlink:href="ShowTextUI.html" xlink:show="new" xlink:title="ShowTextUI.html" xlink:type="simple"><rect codeLine="24" fill="#FEFECE" filter="url(#fqg0xoopjwlvb)" height="92.9457" id="ui.menu.ShowTextUI" style="stroke: #A80036; stroke-width: 1.5;" width="127" x="64.5" y="242.602"/><ellipse cx="92.1" cy="258.602" fill="#ADD1B2" rx="11" ry="11" style="stroke: #A80036; stroke-width: 1.0;"/><path d="M95.0688,264.2426 Q94.4906,264.5395 93.85,264.6801 Q93.2094,264.8364 92.5063,264.8364 Q90.0063,264.8364 88.6781,263.1957 Q87.3656,261.5395 87.3656,258.4145 Q87.3656,255.2895 88.6781,253.6332 Q90.0063,251.977 92.5063,251.977 Q93.2094,251.977 93.85,252.1332 Q94.5063,252.2895 95.0688,252.5864 L95.0688,255.3051 Q94.4438,254.727 93.85,254.4614 Q93.2563,254.1801 92.6313,254.1801 Q91.2875,254.1801 90.6,255.2582 Q89.9125,256.3207 89.9125,258.4145 Q89.9125,260.5082 90.6,261.5864 Q91.2875,262.6489 92.6313,262.6489 Q93.2563,262.6489 93.85,262.3832 Q94.4438,262.102 95.0688,261.5239 L95.0688,264.2426 Z "/><text fill="#000000" font-family="sans-serif" font-size="12" lengthAdjust="spacingAndGlyphs" textLength="67" x="108.9" y="263.258">ShowTextUI</text><line style="stroke: #A80036; stroke-width: 1.5;" x1="65.5" x2="190.5" y1="274.602" y2="274.602"/><rect fill="none" height="6" style="stroke: #C82930; stroke-width: 1.0;" width="6" x="72.5" y="282.602"/><text fill="#000000" font-family="sans-serif" font-size="11" lengthAdjust="spacingAndGlyphs" textLength="58" x="84.5" y="290.3609">text: String</text><line style="stroke: #A80036; stroke-width: 1.5;" x1="65.5" x2="190.5" y1="297.5839" y2="297.5839"/><ellipse cx="75.5" cy="308.5839" fill="#84BE84" rx="3" ry="3" style="stroke: #038048; stroke-width: 1.0;"/><text fill="#000000" font-family="sans-serif" font-size="11" lengthAdjust="spacingAndGlyphs" textLength="101" x="84.5" y="313.3428">ShowTextUI(String)</text><ellipse cx="75.5" cy="323.5658" fill="#84BE84" rx="3" ry="3" style="stroke: #038048; stroke-width: 1.0;"/><text fill="#000000" font-family="sans-serif" font-size="11" lengthAdjust="spacingAndGlyphs" textLength="54" x="84.5" y="328.3247">run(): void</text></a><!--MD5=[373c6852cae888f470ab23551d10da9d]
class ui.menu.DevTeamUI--><a href="DevTeamUI.html" target="_top" title="DevTeamUI.html" xlink:actuate="onRequest" xlink:href="DevTeamUI.html" xlink:show="new" xlink:title="DevTeamUI.html" xlink:type="simple"><rect codeLine="30" fill="#FEFECE" filter="url(#fqg0xoopjwlvb)" height="62.9819" id="ui.menu.DevTeamUI" style="stroke: #A80036; stroke-width: 1.5;" width="99" x="226.5" y="257.602"/><ellipse cx="241.5" cy="273.602" fill="#ADD1B2" rx="11" ry="11" style="stroke: #A80036; stroke-width: 1.0;"/><path d="M244.4688,279.2426 Q243.8906,279.5395 243.25,279.6801 Q242.6094,279.8364 241.9063,279.8364 Q239.4063,279.8364 238.0781,278.1957 Q236.7656,276.5395 236.7656,273.4145 Q236.7656,270.2895 238.0781,268.6332 Q239.4063,266.977 241.9063,266.977 Q242.6094,266.977 243.25,267.1332 Q243.9063,267.2895 244.4688,267.5864 L244.4688,270.3051 Q243.8438,269.727 243.25,269.4614 Q242.6563,269.1801 242.0313,269.1801 Q240.6875,269.1801 240,270.2582 Q239.3125,271.3207 239.3125,273.4145 Q239.3125,275.5082 240,276.5864 Q240.6875,277.6489 242.0313,277.6489 Q242.6563,277.6489 243.25,277.3832 Q243.8438,277.102 244.4688,276.5239 L244.4688,279.2426 Z "/><text fill="#000000" font-family="sans-serif" font-size="12" lengthAdjust="spacingAndGlyphs" textLength="67" x="255.5" y="278.258">DevTeamUI</text><line style="stroke: #A80036; stroke-width: 1.5;" x1="227.5" x2="324.5" y1="289.602" y2="289.602"/><line style="stroke: #A80036; stroke-width: 1.5;" x1="227.5" x2="324.5" y1="297.602" y2="297.602"/><ellipse cx="237.5" cy="308.602" fill="#84BE84" rx="3" ry="3" style="stroke: #038048; stroke-width: 1.0;"/><text fill="#000000" font-family="sans-serif" font-size="11" lengthAdjust="spacingAndGlyphs" textLength="54" x="246.5" y="313.3609">run(): void</text></a><!--MD5=[0c13715fe56b205a681d1cff279e9b26]
link ui.menu.MenuItem to ui.menu.StartupMessageBackofficeUI--><!--MD5=[16104082254cc0f3b53a7253312093e9]
link ui.menu.StartupMessageBackofficeUI to ui.menu.MainMenuUI--><!--MD5=[e09b60909c922b92a1d925c899e26bb8]
link ui.menu.MenuItem to ui.menu.ShowTextUI--><!--MD5=[84ae4c53ee22af5b6a6e61ff72e56b99]
link ui.menu.ShowTextUI to ui.menu.DevTeamUI--><text fill="#888888" font-family="sans-serif" font-size="10" lengthAdjust="spacingAndGlyphs" textLength="188" x="213" y="368.292">UMLDoclet 2.0.12, PlantUML 1.2020.16</text><!--MD5=[137ecc3f80e672623a5dc7d88473ae8a]
@startuml
    namespace ui.menu {

        class MenuItem [[MenuItem.html]] {
            -description: String
            -ui: Runnable
            +MenuItem(String, Runnable)
            +run(): void
            +hasDescription(String): boolean
        }

        class StartupMessageBackofficeUI [[StartupMessageBackofficeUI.html]] {
            {static} -COMPANY_NAME: String
            {static} -APP_NAME: String
            {static} -VERSION: String
            {static} -BORDER_WIDTH: int
            {static} +display(): void
            {static} -centerText(String, int): String
        }

        class MainMenuUI [[MainMenuUI.html]] {
            +run(): void
        }

        class ShowTextUI [[ShowTextUI.html]] {
            -text: String
            +ShowTextUI(String)
            +run(): void
        }

        class DevTeamUI [[DevTeamUI.html]] {
            +run(): void
        }

    }

    center footer UMLDoclet 2.0.12, PlantUML 1.2020.16
@enduml

PlantUML version 1.2020.16(Sun Aug 23 21:20:43 WEST 2020)
(APACHE source distribution)
Java Runtime: Java(TM) SE Runtime Environment
JVM: Java HotSpot(TM) 64-Bit Server VM
Default Encoding: UTF-8
Language: en
Country: US
--></g></svg>