<?xml version="1.0" encoding="UTF-8" standalone="no"?><svg xmlns="http://www.w3.org/2000/svg" xmlns:xlink="http://www.w3.org/1999/xlink" contentScriptType="application/ecmascript" contentStyleType="text/css" height="255px" preserveAspectRatio="none" style="width:200px;height:255px;" version="1.1" viewBox="0 0 200 255" width="200px" zoomAndPan="magnify"><defs><filter height="300%" id="fl5p9c8eyp9yb" width="300%" x="-1" y="-1"><feGaussianBlur result="blurOut" stdDeviation="2.0"/><feColorMatrix in="blurOut" result="blurOut2" type="matrix" values="0 0 0 0 0 0 0 0 0 0 0 0 0 0 0 0 0 0 .4 0"/><feOffset dx="4.0" dy="4.0" in="blurOut2" result="blurOut3"/><feBlend in="SourceGraphic" in2="blurOut3" mode="normal"/></filter></defs><g><!--MD5=[687773706a2af73fcb32459261b93c42]
class ui.menu.ShowTextUI--><a href="ShowTextUI.html" target="_top" title="ShowTextUI.html" xlink:actuate="onRequest" xlink:href="ShowTextUI.html" xlink:show="new" xlink:title="ShowTextUI.html" xlink:type="simple"><rect codeLine="5" fill="#FEFECE" filter="url(#fl5p9c8eyp9yb)" height="93.1309" id="ui.menu.ShowTextUI" style="stroke: #A80036; stroke-width: 1.5;" width="129" x="32.5" y="126.22"/><ellipse cx="54.25" cy="145.3528" fill="#ADD1B2" rx="11" ry="11" style="stroke: #A80036; stroke-width: 1.0;"/><path d="M56.7231,151.4959 Q56.1421,151.7947 55.5029,151.9441 Q54.8638,152.0935 54.1582,152.0935 Q51.6514,152.0935 50.3315,150.4417 Q49.0117,148.7898 49.0117,145.6687 Q49.0117,142.5393 50.3315,140.8875 Q51.6514,139.2356 54.1582,139.2356 Q54.8638,139.2356 55.5112,139.385 Q56.1587,139.5345 56.7231,139.8333 L56.7231,142.5559 Q56.0923,141.9749 55.4988,141.7051 Q54.9053,141.4353 54.2744,141.4353 Q52.9297,141.4353 52.2449,142.502 Q51.5601,143.5686 51.5601,145.6687 Q51.5601,147.7605 52.2449,148.8272 Q52.9297,149.8938 54.2744,149.8938 Q54.9053,149.8938 55.4988,149.6241 Q56.0923,149.3543 56.7231,148.7732 Z "/><text fill="#000000" font-family="sans-serif" font-size="14" lengthAdjust="spacingAndGlyphs" textLength="82" x="69.75" y="144.7552">ShowTextUI</text><text fill="#000000" font-family="sans-serif" font-size="10" lengthAdjust="spacingAndGlyphs" textLength="39" x="91.25" y="157.3763">ui.menu</text><line style="stroke: #A80036; stroke-width: 1.5;" x1="33.5" x2="160.5" y1="164.4856" y2="164.4856"/><rect fill="none" height="6" style="stroke: #C82930; stroke-width: 1.0;" width="6" x="40.5" y="172.4856"/><text fill="#000000" font-family="sans-serif" font-size="11" lengthAdjust="spacingAndGlyphs" textLength="59" x="52.5" y="179.1204">text: String</text><line style="stroke: #A80036; stroke-width: 1.5;" x1="33.5" x2="160.5" y1="185.4407" y2="185.4407"/><ellipse cx="43.5" cy="196.4407" fill="#84BE84" rx="3" ry="3" style="stroke: #038048; stroke-width: 1.0;"/><text fill="#000000" font-family="sans-serif" font-size="11" lengthAdjust="spacingAndGlyphs" textLength="103" x="52.5" y="200.0755">ShowTextUI(String)</text><ellipse cx="43.5" cy="209.3958" fill="#84BE84" rx="3" ry="3" style="stroke: #038048; stroke-width: 1.0;"/><text fill="#000000" font-family="sans-serif" font-size="11" lengthAdjust="spacingAndGlyphs" textLength="56" x="52.5" y="213.0305">run(): void</text></a><!--MD5=[8dac795f9edbf65a524ac462449c98fb]
class java.lang.Runnable--><rect codeLine="11" fill="#FEFECE" filter="url(#fl5p9c8eyp9yb)" height="59.2207" id="java.lang.Runnable" style="stroke: #A80036; stroke-width: 1.5;" width="97" x="48.5" y="7"/><ellipse cx="63.5" cy="26.1328" fill="#B4A7E5" rx="11" ry="11" style="stroke: #A80036; stroke-width: 1.0;"/><path d="M59.9277,22.3979 L59.9277,20.2397 L67.3071,20.2397 L67.3071,22.3979 L64.8418,22.3979 L64.8418,30.4746 L67.3071,30.4746 L67.3071,32.6328 L59.9277,32.6328 L59.9277,30.4746 L62.3931,30.4746 L62.3931,22.3979 Z "/><text fill="#000000" font-family="sans-serif" font-size="14" font-style="italic" lengthAdjust="spacingAndGlyphs" textLength="65" x="77.5" y="25.5352">Runnable</text><text fill="#000000" font-family="sans-serif" font-size="10" font-style="italic" lengthAdjust="spacingAndGlyphs" textLength="44" x="88" y="38.1563">java.lang</text><line style="stroke: #A80036; stroke-width: 1.5;" x1="49.5" x2="144.5" y1="45.2656" y2="45.2656"/><ellipse cx="59.5" cy="56.2656" fill="#84BE84" rx="3" ry="3" style="stroke: #038048; stroke-width: 1.0;"/><text fill="#000000" font-family="sans-serif" font-size="11" font-style="italic" lengthAdjust="spacingAndGlyphs" textLength="56" x="68.5" y="59.9004">run(): void</text><!--MD5=[fb8bf1478b8ea9c72e3b4cb7fb1495a0]
reverse link java.lang.Runnable to ui.menu.ShowTextUI--><path codeLine="15" d="M97,87.63 C97,100.17 97,113.57 97,125.9 " fill="none" id="java.lang.Runnable-backto-ui.menu.ShowTextUI" style="stroke: #A80036; stroke-width: 1.0; stroke-dasharray: 7.0,7.0;"/><polygon fill="none" points="90,87.91,97,67.91,104,87.91,90,87.91" style="stroke: #A80036; stroke-width: 1.0;"/><text fill="#888888" font-family="sans-serif" font-size="10" lengthAdjust="spacingAndGlyphs" textLength="188" x="0" y="242.0188">UMLDoclet 2.0.12, PlantUML 1.2020.16</text><!--MD5=[ebdfd50ba5fa1535f3e47280eb750873]
@startuml
    set namespaceSeparator none
    hide empty fields
    hide empty methods

    class "<size:14>ShowTextUI\n<size:10>ui.menu" as ui.menu.ShowTextUI [[ShowTextUI.html]] {
        -text: String
        +ShowTextUI(String)
        +run(): void
    }

    interface "<size:14>Runnable\n<size:10>java.lang" as java.lang.Runnable {
        {abstract} +run(): void
    }

    java.lang.Runnable <|.. ui.menu.ShowTextUI

    center footer UMLDoclet 2.0.12, PlantUML 1.2020.16
@enduml

PlantUML version 1.2020.16(Sun Aug 23 21:20:43 WEST 2020)
(APACHE source distribution)
Java Runtime: OpenJDK Runtime Environment
JVM: OpenJDK 64-Bit Server VM
Default Encoding: UTF-8
Language: pt
Country: PT
--></g></svg>