<?xml version="1.0" encoding="UTF-8" standalone="no"?><svg xmlns="http://www.w3.org/2000/svg" xmlns:xlink="http://www.w3.org/1999/xlink" contentScriptType="application/ecmascript" contentStyleType="text/css" height="273px" preserveAspectRatio="none" style="width:200px;height:273px;" version="1.1" viewBox="0 0 200 273" width="200px" zoomAndPan="magnify"><defs><filter height="300%" id="fl5p9c8eyp9yb" width="300%" x="-1" y="-1"><feGaussianBlur result="blurOut" stdDeviation="2.0"/><feColorMatrix in="blurOut" result="blurOut2" type="matrix" values="0 0 0 0 0 0 0 0 0 0 0 0 0 0 0 0 0 0 .4 0"/><feOffset dx="4.0" dy="4.0" in="blurOut2" result="blurOut3"/><feBlend in="SourceGraphic" in2="blurOut3" mode="normal"/></filter></defs><g><!--MD5=[687773706a2af73fcb32459261b93c42]
class ui.menu.ShowTextUI--><a href="ShowTextUI.html" target="_top" title="ShowTextUI.html" xlink:actuate="onRequest" xlink:href="ShowTextUI.html" xlink:show="new" xlink:title="ShowTextUI.html" xlink:type="simple"><rect codeLine="5" fill="#FEFECE" filter="url(#fl5p9c8eyp9yb)" height="103.6336" id="ui.menu.ShowTextUI" style="stroke: #A80036; stroke-width: 1.5;" width="127" x="33.5" y="133"/><ellipse cx="55.7" cy="154.344" fill="#ADD1B2" rx="11" ry="11" style="stroke: #A80036; stroke-width: 1.0;"/><path d="M58.6688,159.9846 Q58.0906,160.2815 57.45,160.4221 Q56.8094,160.5783 56.1063,160.5783 Q53.6063,160.5783 52.2781,158.9377 Q50.9656,157.2815 50.9656,154.1565 Q50.9656,151.0315 52.2781,149.3752 Q53.6063,147.719 56.1063,147.719 Q56.8094,147.719 57.45,147.8752 Q58.1063,148.0315 58.6688,148.3283 L58.6688,151.0471 Q58.0438,150.469 57.45,150.2033 Q56.8563,149.9221 56.2313,149.9221 Q54.8875,149.9221 54.2,151.0002 Q53.5125,152.0627 53.5125,154.1565 Q53.5125,156.2502 54.2,157.3283 Q54.8875,158.3908 56.2313,158.3908 Q56.8563,158.3908 57.45,158.1252 Q58.0438,157.844 58.6688,157.2658 L58.6688,159.9846 Z "/><text fill="#000000" font-family="sans-serif" font-size="14" lengthAdjust="spacingAndGlyphs" textLength="79" x="71.3" y="152.9659">ShowTextUI</text><text fill="#000000" font-family="sans-serif" font-size="10" lengthAdjust="spacingAndGlyphs" textLength="39" x="91.3" y="167.7579">ui.menu</text><line style="stroke: #A80036; stroke-width: 1.5;" x1="34.5" x2="159.5" y1="175.6879" y2="175.6879"/><rect fill="none" height="6" style="stroke: #C82930; stroke-width: 1.0;" width="6" x="41.5" y="183.6879"/><text fill="#000000" font-family="sans-serif" font-size="11" lengthAdjust="spacingAndGlyphs" textLength="58" x="53.5" y="191.4468">text: String</text><line style="stroke: #A80036; stroke-width: 1.5;" x1="34.5" x2="159.5" y1="198.6698" y2="198.6698"/><ellipse cx="44.5" cy="209.6698" fill="#84BE84" rx="3" ry="3" style="stroke: #038048; stroke-width: 1.0;"/><text fill="#000000" font-family="sans-serif" font-size="11" lengthAdjust="spacingAndGlyphs" textLength="101" x="53.5" y="214.4287">ShowTextUI(String)</text><ellipse cx="44.5" cy="224.6517" fill="#84BE84" rx="3" ry="3" style="stroke: #038048; stroke-width: 1.0;"/><text fill="#000000" font-family="sans-serif" font-size="11" lengthAdjust="spacingAndGlyphs" textLength="54" x="53.5" y="229.4106">run(): void</text></a><!--MD5=[8dac795f9edbf65a524ac462449c98fb]
class java.lang.Runnable--><rect codeLine="11" fill="#FEFECE" filter="url(#fl5p9c8eyp9yb)" height="65.6698" id="java.lang.Runnable" style="stroke: #A80036; stroke-width: 1.5;" width="91" x="51.5" y="7"/><ellipse cx="66.5" cy="28.344" fill="#B4A7E5" rx="11" ry="11" style="stroke: #A80036; stroke-width: 1.0;"/><path d="M62.4219,24.1096 L62.4219,21.9533 L69.8125,21.9533 L69.8125,24.1096 L67.3438,24.1096 L67.3438,32.1877 L69.8125,32.1877 L69.8125,34.344 L62.4219,34.344 L62.4219,32.1877 L64.8906,32.1877 L64.8906,24.1096 L62.4219,24.1096 Z "/><text fill="#000000" font-family="sans-serif" font-size="14" font-style="italic" lengthAdjust="spacingAndGlyphs" textLength="59" x="80.5" y="26.9659">Runnable</text><text fill="#000000" font-family="sans-serif" font-size="10" font-style="italic" lengthAdjust="spacingAndGlyphs" textLength="44" x="88" y="41.7579">java.lang</text><line style="stroke: #A80036; stroke-width: 1.5;" x1="52.5" x2="141.5" y1="49.6879" y2="49.6879"/><ellipse cx="62.5" cy="60.6879" fill="#84BE84" rx="3" ry="3" style="stroke: #038048; stroke-width: 1.0;"/><text fill="#000000" font-family="sans-serif" font-size="11" font-style="italic" lengthAdjust="spacingAndGlyphs" textLength="48" x="71.5" y="65.4468">run(): void</text><!--MD5=[fb8bf1478b8ea9c72e3b4cb7fb1495a0]
reverse link java.lang.Runnable to ui.menu.ShowTextUI--><path codeLine="15" d="M97,93.1 C97,106.08 97,119.99 97,132.93 " fill="none" id="java.lang.Runnable-backto-ui.menu.ShowTextUI" style="stroke: #A80036; stroke-width: 1.0; stroke-dasharray: 7.0,7.0;"/><polygon fill="none" points="90,93.09,97,73.09,104,93.09,90,93.09" style="stroke: #A80036; stroke-width: 1.0;"/><text fill="#888888" font-family="sans-serif" font-size="10" lengthAdjust="spacingAndGlyphs" textLength="188" x="0" y="260.3236">UMLDoclet 2.0.12, PlantUML 1.2020.16</text><!--MD5=[93945d3bbd27e853cedd34e8be77aa41]
@startuml
    set namespaceSeparator none
    hide empty fields
    hide empty methods

    class "<size:14>ShowTextUI\n<size:10>ui.menu" as ui.menu.ShowTextUI [[ShowTextUI.html]] {
        -text: String
        +ShowTextUI(String)
        +run(): void
    }

    interface "<size:14>Runnable\n<size:10>java.lang" as java.lang.Runnable {
        {abstract} +run(): void
    }

    java.lang.Runnable <|.. ui.menu.ShowTextUI

    center footer UMLDoclet 2.0.12, PlantUML 1.2020.16
@enduml

PlantUML version 1.2020.16(Sun Aug 23 21:20:43 WEST 2020)
(APACHE source distribution)
Java Runtime: Java(TM) SE Runtime Environment
JVM: Java HotSpot(TM) 64-Bit Server VM
Default Encoding: UTF-8
Language: en
Country: US
--></g></svg>