<svg xmlns="http://www.w3.org/2000/svg" xmlns:xlink="http://www.w3.org/1999/xlink" contentStyleType="text/css" height="1017px" preserveAspectRatio="none" style="width:724px;height:1017px;background:#FFFFFF;" version="1.1" viewBox="0 0 724 1017" width="724px" zoomAndPan="magnify"><title>System Sequence Diagram (SSD) - Get Show Info</title><defs/><g><text fill="#000000" font-family="sans-serif" font-size="14" font-weight="bold" lengthAdjust="spacing" textLength="328.2891" x="205.2354" y="30.1074">System Sequence Diagram (SSD) - Get Show Info</text><rect fill="#FFFFFF" height="783.0332" style="stroke:#181818;stroke-width:1.0;" width="10" x="58.3413" y="133.2422"/><rect fill="#FFFFFF" height="75.582" style="stroke:#181818;stroke-width:1.0;" width="10" x="411.3755" y="156.5332"/><rect fill="#FFFFFF" height="101.873" style="stroke:#181818;stroke-width:1.0;" width="10" x="411.3755" y="263.4063"/><rect fill="#FFFFFF" height="153.1641" style="stroke:#181818;stroke-width:1.0;" width="10" x="411.3755" y="396.5703"/><rect fill="#FFFFFF" height="214.377" style="stroke:#181818;stroke-width:1.0;" width="10" x="411.3755" y="581.0254"/><rect fill="#FFFFFF" height="75.582" style="stroke:#181818;stroke-width:1.0;" width="10" x="411.3755" y="840.6934"/><rect fill="none" height="81.873" style="stroke:#000000;stroke-width:1.5;" width="438.6582" x="20" y="322.6973"/><rect fill="none" height="81.873" style="stroke:#000000;stroke-width:1.5;" width="438.6582" x="20" y="507.1523"/><rect fill="none" height="163.0859" style="stroke:#000000;stroke-width:1.5;" width="458.6582" x="10" y="647.3164"/><rect fill="none" height="50.582" style="stroke:#000000;stroke-width:1.5;" width="438.6582" x="20" y="752.8203"/><line style="stroke:#181818;stroke-width:0.5;stroke-dasharray:5.0,5.0;" x1="63" x2="63" y1="123.2422" y2="934.2754"/><line style="stroke:#181818;stroke-width:0.5;stroke-dasharray:5.0,5.0;" x1="416.0928" x2="416.0928" y1="123.2422" y2="934.2754"/><text fill="#000000" font-family="sans-serif" font-size="14" lengthAdjust="spacing" textLength="60.6826" x="30" y="119.7285">Customer</text><ellipse cx="63.3413" cy="53.1211" fill="#E3E3E3" rx="8" ry="8" style="stroke:#181818;stroke-width:0.5;"/><path d="M63.3413,61.1211 L63.3413,88.1211 M50.3413,69.1211 L76.3413,69.1211 M63.3413,88.1211 L50.3413,103.1211 M63.3413,88.1211 L76.3413,103.1211 " fill="none" style="stroke:#181818;stroke-width:0.5;"/><text fill="#000000" font-family="sans-serif" font-size="14" lengthAdjust="spacing" textLength="60.6826" x="30" y="948.3828">Customer</text><ellipse cx="63.3413" cy="960.3965" fill="#E3E3E3" rx="8" ry="8" style="stroke:#181818;stroke-width:0.5;"/><path d="M63.3413,968.3965 L63.3413,995.3965 M50.3413,976.3965 L76.3413,976.3965 M63.3413,995.3965 L50.3413,1010.3965 M63.3413,995.3965 L76.3413,1010.3965 " fill="none" style="stroke:#181818;stroke-width:0.5;"/><rect fill="#E3E3E3" height="32.6211" rx="2.5" ry="2.5" style="stroke:#181818;stroke-width:0.5;" width="64.5654" x="384.0928" y="89.6211"/><text fill="#000000" font-family="sans-serif" font-size="14" lengthAdjust="spacing" textLength="50.5654" x="391.0928" y="111.7285">:System</text><rect fill="#E3E3E3" height="32.6211" rx="2.5" ry="2.5" style="stroke:#181818;stroke-width:0.5;" width="64.5654" x="384.0928" y="933.2754"/><text fill="#000000" font-family="sans-serif" font-size="14" lengthAdjust="spacing" textLength="50.5654" x="391.0928" y="955.3828">:System</text><rect fill="#FFFFFF" height="783.0332" style="stroke:#181818;stroke-width:1.0;" width="10" x="58.3413" y="133.2422"/><rect fill="#FFFFFF" height="75.582" style="stroke:#181818;stroke-width:1.0;" width="10" x="411.3755" y="156.5332"/><rect fill="#FFFFFF" height="101.873" style="stroke:#181818;stroke-width:1.0;" width="10" x="411.3755" y="263.4063"/><rect fill="#FFFFFF" height="153.1641" style="stroke:#181818;stroke-width:1.0;" width="10" x="411.3755" y="396.5703"/><rect fill="#FFFFFF" height="214.377" style="stroke:#181818;stroke-width:1.0;" width="10" x="411.3755" y="581.0254"/><rect fill="#FFFFFF" height="75.582" style="stroke:#181818;stroke-width:1.0;" width="10" x="411.3755" y="840.6934"/><polygon fill="#181818" points="399.3755,152.5332,409.3755,156.5332,399.3755,160.5332,403.3755,156.5332" style="stroke:#181818;stroke-width:1.0;"/><line style="stroke:#181818;stroke-width:1.0;" x1="68.3413" x2="405.3755" y1="156.5332" y2="156.5332"/><text fill="#000000" font-family="sans-serif" font-size="13" font-weight="bold" lengthAdjust="spacing" textLength="7.23" x="75.3413" y="151.2705">1</text><text fill="#000000" font-family="sans-serif" font-size="13" lengthAdjust="spacing" textLength="36.1245" x="86.5713" y="151.2705">login()</text><line style="stroke:#181818;stroke-width:1.0;" x1="421.3755" x2="463.3755" y1="187.8242" y2="187.8242"/><line style="stroke:#181818;stroke-width:1.0;" x1="463.3755" x2="463.3755" y1="187.8242" y2="200.8242"/><line style="stroke:#181818;stroke-width:1.0;" x1="422.3755" x2="463.3755" y1="200.8242" y2="200.8242"/><polygon fill="#181818" points="432.3755,196.8242,422.3755,200.8242,432.3755,204.8242,428.3755,200.8242" style="stroke:#181818;stroke-width:1.0;"/><text fill="#000000" font-family="sans-serif" font-size="13" font-weight="bold" lengthAdjust="spacing" textLength="7.23" x="428.3755" y="182.5615">2</text><text fill="#000000" font-family="sans-serif" font-size="13" lengthAdjust="spacing" textLength="91.0444" x="439.6055" y="182.5615">getEmailLogin()</text><polygon fill="#181818" points="79.3413,228.1152,69.3413,232.1152,79.3413,236.1152,75.3413,232.1152" style="stroke:#181818;stroke-width:1.0;"/><line style="stroke:#181818;stroke-width:1.0;stroke-dasharray:2.0,2.0;" x1="73.3413" x2="415.3755" y1="232.1152" y2="232.1152"/><text fill="#000000" font-family="sans-serif" font-size="13" font-weight="bold" lengthAdjust="spacing" textLength="7.23" x="85.3413" y="226.8525">3</text><text fill="#000000" font-family="sans-serif" font-size="13" lengthAdjust="spacing" textLength="112.7407" x="96.5713" y="226.8525">email authenticated</text><polygon fill="#181818" points="399.3755,259.4063,409.3755,263.4063,399.3755,267.4063,403.3755,263.4063" style="stroke:#181818;stroke-width:1.0;"/><line style="stroke:#181818;stroke-width:1.0;" x1="68.3413" x2="405.3755" y1="263.4063" y2="263.4063"/><text fill="#000000" font-family="sans-serif" font-size="13" font-weight="bold" lengthAdjust="spacing" textLength="7.23" x="75.3413" y="258.1436">4</text><text fill="#000000" font-family="sans-serif" font-size="13" lengthAdjust="spacing" textLength="106.2217" x="86.5713" y="258.1436">requestShowInfo()</text><line style="stroke:#181818;stroke-width:1.0;" x1="421.3755" x2="463.3755" y1="294.6973" y2="294.6973"/><line style="stroke:#181818;stroke-width:1.0;" x1="463.3755" x2="463.3755" y1="294.6973" y2="307.6973"/><line style="stroke:#181818;stroke-width:1.0;" x1="422.3755" x2="463.3755" y1="307.6973" y2="307.6973"/><polygon fill="#181818" points="432.3755,303.6973,422.3755,307.6973,432.3755,311.6973,428.3755,307.6973" style="stroke:#181818;stroke-width:1.0;"/><text fill="#000000" font-family="sans-serif" font-size="13" font-weight="bold" lengthAdjust="spacing" textLength="7.23" x="428.3755" y="289.4346">5</text><text fill="#000000" font-family="sans-serif" font-size="13" lengthAdjust="spacing" textLength="237.6943" x="439.6055" y="289.4346">getCustomerNIFByRepresentative(email)</text><path d="M20,322.6973 L80.1709,322.6973 L80.1709,331.9883 L70.1709,341.9883 L20,341.9883 L20,322.6973 " fill="#EEEEEE" style="stroke:#000000;stroke-width:1.5;"/><rect fill="none" height="81.873" style="stroke:#000000;stroke-width:1.5;" width="438.6582" x="20" y="322.6973"/><text fill="#000000" font-family="sans-serif" font-size="13" font-weight="bold" lengthAdjust="spacing" textLength="15.1709" x="35" y="337.7256">alt</text><text fill="#000000" font-family="sans-serif" font-size="11" font-weight="bold" lengthAdjust="spacing" textLength="78.7993" x="95.1709" y="336.5674">[NIF not found]</text><polygon fill="#181818" points="79.3413,361.2793,69.3413,365.2793,79.3413,369.2793,75.3413,365.2793" style="stroke:#181818;stroke-width:1.0;"/><line style="stroke:#181818;stroke-width:1.0;stroke-dasharray:2.0,2.0;" x1="73.3413" x2="415.3755" y1="365.2793" y2="365.2793"/><text fill="#000000" font-family="sans-serif" font-size="13" font-weight="bold" lengthAdjust="spacing" textLength="7.23" x="85.3413" y="360.0166">6</text><text fill="#000000" font-family="sans-serif" font-size="13" lengthAdjust="spacing" textLength="263.5547" x="96.5713" y="360.0166">error("No customer found for representative.")</text><polygon fill="#181818" points="399.3755,392.5703,409.3755,396.5703,399.3755,400.5703,403.3755,396.5703" style="stroke:#181818;stroke-width:1.0;"/><line style="stroke:#181818;stroke-width:1.0;stroke-dasharray:2.0,2.0;" x1="68.3413" x2="405.3755" y1="396.5703" y2="396.5703"/><text fill="#000000" font-family="sans-serif" font-size="13" font-weight="bold" lengthAdjust="spacing" textLength="7.23" x="75.3413" y="391.3076">7</text><text fill="#000000" font-family="sans-serif" font-size="13" lengthAdjust="spacing" textLength="3.6118" x="86.5713" y="391.3076">&#160;</text><line style="stroke:#181818;stroke-width:1.0;" x1="421.3755" x2="463.3755" y1="434.8613" y2="434.8613"/><line style="stroke:#181818;stroke-width:1.0;" x1="463.3755" x2="463.3755" y1="434.8613" y2="447.8613"/><line style="stroke:#181818;stroke-width:1.0;" x1="422.3755" x2="463.3755" y1="447.8613" y2="447.8613"/><polygon fill="#181818" points="432.3755,443.8613,422.3755,447.8613,432.3755,451.8613,428.3755,447.8613" style="stroke:#181818;stroke-width:1.0;"/><text fill="#000000" font-family="sans-serif" font-size="13" font-weight="bold" lengthAdjust="spacing" textLength="7.23" x="428.3755" y="429.5986">8</text><text fill="#000000" font-family="sans-serif" font-size="13" lengthAdjust="spacing" textLength="220.3335" x="439.6055" y="429.5986">send NIF to server (ObjectDTO&lt;NIF&gt;)</text><line style="stroke:#181818;stroke-width:1.0;" x1="421.3755" x2="463.3755" y1="479.1523" y2="479.1523"/><line style="stroke:#181818;stroke-width:1.0;" x1="463.3755" x2="463.3755" y1="479.1523" y2="492.1523"/><line style="stroke:#181818;stroke-width:1.0;" x1="422.3755" x2="463.3755" y1="492.1523" y2="492.1523"/><polygon fill="#181818" points="432.3755,488.1523,422.3755,492.1523,432.3755,496.1523,428.3755,492.1523" style="stroke:#181818;stroke-width:1.0;"/><text fill="#000000" font-family="sans-serif" font-size="13" font-weight="bold" lengthAdjust="spacing" textLength="7.23" x="428.3755" y="473.8896">9</text><text fill="#000000" font-family="sans-serif" font-size="13" lengthAdjust="spacing" textLength="218.8989" x="439.6055" y="473.8896">findByNIF(nif) via costumerRepository</text><path d="M20,507.1523 L80.1709,507.1523 L80.1709,516.4434 L70.1709,526.4434 L20,526.4434 L20,507.1523 " fill="#EEEEEE" style="stroke:#000000;stroke-width:1.5;"/><rect fill="none" height="81.873" style="stroke:#000000;stroke-width:1.5;" width="438.6582" x="20" y="507.1523"/><text fill="#000000" font-family="sans-serif" font-size="13" font-weight="bold" lengthAdjust="spacing" textLength="15.1709" x="35" y="522.1807">alt</text><text fill="#000000" font-family="sans-serif" font-size="11" font-weight="bold" lengthAdjust="spacing" textLength="131.3823" x="95.1709" y="521.0225">[NIF not found on server]</text><polygon fill="#181818" points="79.3413,545.7344,69.3413,549.7344,79.3413,553.7344,75.3413,549.7344" style="stroke:#181818;stroke-width:1.0;"/><line style="stroke:#181818;stroke-width:1.0;stroke-dasharray:2.0,2.0;" x1="73.3413" x2="415.3755" y1="549.7344" y2="549.7344"/><text fill="#000000" font-family="sans-serif" font-size="13" font-weight="bold" lengthAdjust="spacing" textLength="14.46" x="85.3413" y="544.4717">10</text><text fill="#000000" font-family="sans-serif" font-size="13" lengthAdjust="spacing" textLength="163.1221" x="103.8013" y="544.4717">error("Customer not found.")</text><polygon fill="#181818" points="399.3755,577.0254,409.3755,581.0254,399.3755,585.0254,403.3755,581.0254" style="stroke:#181818;stroke-width:1.0;"/><line style="stroke:#181818;stroke-width:1.0;stroke-dasharray:2.0,2.0;" x1="68.3413" x2="405.3755" y1="581.0254" y2="581.0254"/><text fill="#000000" font-family="sans-serif" font-size="13" font-weight="bold" lengthAdjust="spacing" textLength="14.46" x="75.3413" y="575.7627">11</text><text fill="#000000" font-family="sans-serif" font-size="13" lengthAdjust="spacing" textLength="3.6118" x="93.8013" y="575.7627">&#160;</text><line style="stroke:#181818;stroke-width:1.0;" x1="421.3755" x2="463.3755" y1="619.3164" y2="619.3164"/><line style="stroke:#181818;stroke-width:1.0;" x1="463.3755" x2="463.3755" y1="619.3164" y2="632.3164"/><line style="stroke:#181818;stroke-width:1.0;" x1="422.3755" x2="463.3755" y1="632.3164" y2="632.3164"/><polygon fill="#181818" points="432.3755,628.3164,422.3755,632.3164,432.3755,636.3164,428.3755,632.3164" style="stroke:#181818;stroke-width:1.0;"/><text fill="#000000" font-family="sans-serif" font-size="13" font-weight="bold" lengthAdjust="spacing" textLength="14.46" x="428.3755" y="614.0537">12</text><text fill="#000000" font-family="sans-serif" font-size="13" lengthAdjust="spacing" textLength="270.9243" x="446.8354" y="614.0537">findByCostumer(customer) via showRepository</text><path d="M10,647.3164 L70.1709,647.3164 L70.1709,656.6074 L60.1709,666.6074 L10,666.6074 L10,647.3164 " fill="#EEEEEE" style="stroke:#000000;stroke-width:1.5;"/><rect fill="none" height="163.0859" style="stroke:#000000;stroke-width:1.5;" width="458.6582" x="10" y="647.3164"/><text fill="#000000" font-family="sans-serif" font-size="13" font-weight="bold" lengthAdjust="spacing" textLength="15.1709" x="25" y="662.3447">alt</text><text fill="#000000" font-family="sans-serif" font-size="11" font-weight="bold" lengthAdjust="spacing" textLength="58.0508" x="85.1709" y="661.1865">[no shows]</text><polygon fill="#181818" points="79.3413,685.8984,69.3413,689.8984,79.3413,693.8984,75.3413,689.8984" style="stroke:#181818;stroke-width:1.0;"/><line style="stroke:#181818;stroke-width:1.0;stroke-dasharray:2.0,2.0;" x1="73.3413" x2="410.3755" y1="689.8984" y2="689.8984"/><text fill="#000000" font-family="sans-serif" font-size="13" font-weight="bold" lengthAdjust="spacing" textLength="14.46" x="85.3413" y="684.6357">13</text><text fill="#000000" font-family="sans-serif" font-size="13" lengthAdjust="spacing" textLength="86.3535" x="103.8013" y="684.6357">numShows = 0</text><line style="stroke:#000000;stroke-width:1.0;stroke-dasharray:2.0,2.0;" x1="10" x2="468.6582" y1="698.8984" y2="698.8984"/><text fill="#000000" font-family="sans-serif" font-size="11" font-weight="bold" lengthAdjust="spacing" textLength="75.1523" x="15" y="710.7686">[shows found]</text><polygon fill="#181818" points="79.3413,733.8203,69.3413,737.8203,79.3413,741.8203,75.3413,737.8203" style="stroke:#181818;stroke-width:1.0;"/><line style="stroke:#181818;stroke-width:1.0;stroke-dasharray:2.0,2.0;" x1="73.3413" x2="410.3755" y1="737.8203" y2="737.8203"/><text fill="#000000" font-family="sans-serif" font-size="13" font-weight="bold" lengthAdjust="spacing" textLength="14.46" x="85.3413" y="732.5576">14</text><text fill="#000000" font-family="sans-serif" font-size="13" lengthAdjust="spacing" textLength="86.3535" x="103.8013" y="732.5576">numShows &gt; 0</text><path d="M20,752.8203 L92.4346,752.8203 L92.4346,762.1113 L82.4346,772.1113 L20,772.1113 L20,752.8203 " fill="#EEEEEE" style="stroke:#000000;stroke-width:1.5;"/><rect fill="none" height="50.582" style="stroke:#000000;stroke-width:1.5;" width="438.6582" x="20" y="752.8203"/><text fill="#000000" font-family="sans-serif" font-size="13" font-weight="bold" lengthAdjust="spacing" textLength="27.4346" x="35" y="767.8486">loop</text><text fill="#000000" font-family="sans-serif" font-size="11" font-weight="bold" lengthAdjust="spacing" textLength="82.5054" x="107.4346" y="766.6904">[for each Show]</text><polygon fill="#181818" points="79.3413,791.4023,69.3413,795.4023,79.3413,799.4023,75.3413,795.4023" style="stroke:#181818;stroke-width:1.0;"/><line style="stroke:#181818;stroke-width:1.0;stroke-dasharray:2.0,2.0;" x1="73.3413" x2="415.3755" y1="795.4023" y2="795.4023"/><text fill="#000000" font-family="sans-serif" font-size="13" font-weight="bold" lengthAdjust="spacing" textLength="14.46" x="85.3413" y="790.1396">15</text><text fill="#000000" font-family="sans-serif" font-size="13" lengthAdjust="spacing" textLength="300.5742" x="103.8013" y="790.1396">ShowDTO(showID, date, drones, location, figures...)</text><polygon fill="#181818" points="399.3755,836.6934,409.3755,840.6934,399.3755,844.6934,403.3755,840.6934" style="stroke:#181818;stroke-width:1.0;"/><line style="stroke:#181818;stroke-width:1.0;" x1="68.3413" x2="405.3755" y1="840.6934" y2="840.6934"/><text fill="#000000" font-family="sans-serif" font-size="13" font-weight="bold" lengthAdjust="spacing" textLength="14.46" x="75.3413" y="835.4307">16</text><text fill="#000000" font-family="sans-serif" font-size="13" lengthAdjust="spacing" textLength="118.4854" x="93.8013" y="835.4307">selectShow(showID)</text><line style="stroke:#181818;stroke-width:1.0;" x1="421.3755" x2="463.3755" y1="871.9844" y2="871.9844"/><line style="stroke:#181818;stroke-width:1.0;" x1="463.3755" x2="463.3755" y1="871.9844" y2="884.9844"/><line style="stroke:#181818;stroke-width:1.0;" x1="422.3755" x2="463.3755" y1="884.9844" y2="884.9844"/><polygon fill="#181818" points="432.3755,880.9844,422.3755,884.9844,432.3755,888.9844,428.3755,884.9844" style="stroke:#181818;stroke-width:1.0;"/><text fill="#000000" font-family="sans-serif" font-size="13" font-weight="bold" lengthAdjust="spacing" textLength="14.46" x="428.3755" y="866.7217">17</text><text fill="#000000" font-family="sans-serif" font-size="13" lengthAdjust="spacing" textLength="142.3335" x="446.8354" y="866.7217">getShowDetails(showID)</text><polygon fill="#181818" points="74.3413,912.2754,64.3413,916.2754,74.3413,920.2754,70.3413,916.2754" style="stroke:#181818;stroke-width:1.0;"/><line style="stroke:#181818;stroke-width:1.0;stroke-dasharray:2.0,2.0;" x1="68.3413" x2="415.3755" y1="916.2754" y2="916.2754"/><text fill="#000000" font-family="sans-serif" font-size="13" font-weight="bold" lengthAdjust="spacing" textLength="14.46" x="80.3413" y="911.0127">18</text><text fill="#000000" font-family="sans-serif" font-size="13" lengthAdjust="spacing" textLength="89.5781" x="98.8013" y="911.0127">showDetails(...)</text><!--SRC=[bLF1Rjim3BthAuYSR20DTWws7DfiGu2X1URzW6epjbPRz2GwHVv-b6AxHgQWdG-2BBr7laUH_iNONZlTGKUMoiPHXy1kGENdcrwNBxh6WiyjWiEIjQtR9S0tkg9NOsiuwjQZKcnOeCNPCtPGu9y1ROcmDxeEyAmezZdSmNTaA1fwXOCzaj83answPtHAwPB9mUfXy2nwt0gqX-b7IKusfUcrPLXjBqaYuhADR7FIZ6yKDUtWRZV2jj1IRMoMly57_YXxWQoHltRQj3z6neGGo1Hu2nWG82uQjA9F0bQgmklWIIKkLCXpg4KeHKAJIgkQWZqUljsVVsBlq4joBLpCeXw9r3B8DLXYED9WAmNofHquHovRFHAKayZ8aDM9ncNqpIgFSH86mx537foDs-jx50K9CnAvYZgPPEzEaZjxUlujpRR_zVHPBdPvWdKqjhe_osrcpJ67az5GakT1f4iro1jfe_E_9G2oOv9tYp4_rqo-RNtX_7-iNqmyZBgpgVONErvwuigAfNZgRskNCGgzvE4BV58e4taXlFV-Csqdj81gYVhu-6ArYQCQZsy620XvhYnaE-pNK8bvMHrPz6k99aDXoAx5SJr8CsqsctmEc2vdB5bOFZX97bjfcQ1Z5F71yOxAaMLY_4nCMlGBODIV4BOuceX_0G00]--></g></svg>