<svg xmlns="http://www.w3.org/2000/svg" xmlns:xlink="http://www.w3.org/1999/xlink" contentStyleType="text/css" height="807px" preserveAspectRatio="none" style="width:1633px;height:807px;background:#FFFFFF;" version="1.1" viewBox="0 0 1633 807" width="1633px" zoomAndPan="magnify"><title>Sequence Diagram (SD) - List Maintenance Types</title><defs/><g><text fill="#000000" font-family="sans-serif" font-size="14" font-weight="bold" lengthAdjust="spacing" textLength="329.082" x="653.1951" y="30.1074">Sequence Diagram (SD) - List Maintenance Types</text><rect fill="#FFFFFF" height="581.1992" style="stroke:#181818;stroke-width:1.0;" width="10" x="54.5723" y="133.2422"/><rect fill="#FFFFFF" height="557.9082" style="stroke:#181818;stroke-width:1.0;" width="10" x="463.8276" y="156.5332"/><rect fill="#FFFFFF" height="362.4922" style="stroke:#181818;stroke-width:1.0;" width="10" x="669.1372" y="231.4453"/><rect fill="#FFFFFF" height="52.2422" style="stroke:#181818;stroke-width:1.0;" width="10" x="951.9712" y="272.7363"/><rect fill="#FFFFFF" height="206.377" style="stroke:#181818;stroke-width:1.0;" width="10" x="1128.4878" y="356.2695"/><rect fill="#FFFFFF" height="31.291" style="stroke:#181818;stroke-width:1.0;" width="10" x="1325.2422" y="413.8516"/><rect fill="#FFFFFF" height="31.291" style="stroke:#181818;stroke-width:1.0;" width="10" x="1517.7104" y="493.0645"/><rect fill="none" height="161.0859" style="stroke:#000000;stroke-width:1.5;" width="601.0322" x="1025.4399" y="371.2695"/><rect fill="none" height="98.5039" style="stroke:#000000;stroke-width:1.5;" width="554.8101" x="10" y="608.9375"/><line style="stroke:#181818;stroke-width:0.5;stroke-dasharray:5.0,5.0;" x1="59" x2="59" y1="123.2422" y2="724.4414"/><line style="stroke:#181818;stroke-width:0.5;stroke-dasharray:5.0,5.0;" x1="467.8452" x2="467.8452" y1="123.2422" y2="724.4414"/><line style="stroke:#181818;stroke-width:0.5;stroke-dasharray:5.0,5.0;" x1="673.8101" x2="673.8101" y1="196.3438" y2="724.4414"/><line style="stroke:#181818;stroke-width:0.5;stroke-dasharray:5.0,5.0;" x1="956.5024" x2="956.5024" y1="280.5664" y2="724.4414"/><line style="stroke:#181818;stroke-width:0.5;stroke-dasharray:5.0,5.0;" x1="1133.4399" x2="1133.4399" y1="123.2422" y2="724.4414"/><line style="stroke:#181818;stroke-width:0.5;stroke-dasharray:5.0,5.0;" x1="1329.5356" x2="1329.5356" y1="123.2422" y2="724.4414"/><line style="stroke:#181818;stroke-width:0.5;stroke-dasharray:5.0,5.0;" x1="1521.9487" x2="1521.9487" y1="123.2422" y2="724.4414"/><text fill="#000000" font-family="sans-serif" font-size="14" lengthAdjust="spacing" textLength="73.1445" x="20" y="119.7285">Drone Tech</text><ellipse cx="59.5723" cy="53.1211" fill="#E3E3E3" rx="8" ry="8" style="stroke:#181818;stroke-width:0.5;"/><path d="M59.5723,61.1211 L59.5723,88.1211 M46.5723,69.1211 L72.5723,69.1211 M59.5723,88.1211 L46.5723,103.1211 M59.5723,88.1211 L72.5723,103.1211 " fill="none" style="stroke:#181818;stroke-width:0.5;"/><text fill="#000000" font-family="sans-serif" font-size="14" lengthAdjust="spacing" textLength="73.1445" x="20" y="738.5488">Drone Tech</text><ellipse cx="59.5723" cy="750.5625" fill="#E3E3E3" rx="8" ry="8" style="stroke:#181818;stroke-width:0.5;"/><path d="M59.5723,758.5625 L59.5723,785.5625 M46.5723,766.5625 L72.5723,766.5625 M59.5723,785.5625 L46.5723,800.5625 M59.5723,785.5625 L72.5723,800.5625 " fill="none" style="stroke:#181818;stroke-width:0.5;"/><rect fill="#E3E3E3" height="32.6211" rx="2.5" ry="2.5" style="stroke:#181818;stroke-width:0.5;" width="171.9648" x="382.8452" y="89.6211"/><text fill="#000000" font-family="sans-serif" font-size="14" lengthAdjust="spacing" textLength="157.9648" x="389.8452" y="111.7285">:ListMaintenanceTypesUI</text><rect fill="#E3E3E3" height="32.6211" rx="2.5" ry="2.5" style="stroke:#181818;stroke-width:0.5;" width="171.9648" x="382.8452" y="723.4414"/><text fill="#000000" font-family="sans-serif" font-size="14" lengthAdjust="spacing" textLength="157.9648" x="389.8452" y="745.5488">:ListMaintenanceTypesUI</text><rect fill="#E3E3E3" height="32.6211" rx="2.5" ry="2.5" style="stroke:#181818;stroke-width:0.5;" width="218.6543" x="564.8101" y="723.4414"/><text fill="#000000" font-family="sans-serif" font-size="14" lengthAdjust="spacing" textLength="204.6543" x="571.8101" y="745.5488">:ListMaintenanceTypesController</text><rect fill="#E3E3E3" height="51.2422" rx="2.5" ry="2.5" style="stroke:#181818;stroke-width:0.5;" width="136.9375" x="888.5024" y="723.4414"/><text fill="#000000" font-family="sans-serif" font-size="14" lengthAdjust="spacing" textLength="113.5996" x="900.1714" y="745.5488">repositoryProvider</text><text fill="#000000" font-family="sans-serif" font-size="14" lengthAdjust="spacing" textLength="122.9375" x="895.5024" y="764.1699">:RepositoryProvider</text><rect fill="#E3E3E3" height="51.2422" rx="2.5" ry="2.5" style="stroke:#181818;stroke-width:0.5;" width="196.0957" x="1035.4399" y="71"/><text fill="#000000" font-family="sans-serif" font-size="14" lengthAdjust="spacing" textLength="178.2061" x="1044.3848" y="93.1074">MaintenanceTypeRepository</text><text fill="#000000" font-family="sans-serif" font-size="14" lengthAdjust="spacing" textLength="182.0957" x="1042.4399" y="111.7285">:MaintenanceTypeRepository</text><rect fill="#E3E3E3" height="51.2422" rx="2.5" ry="2.5" style="stroke:#181818;stroke-width:0.5;" width="196.0957" x="1035.4399" y="723.4414"/><text fill="#000000" font-family="sans-serif" font-size="14" lengthAdjust="spacing" textLength="178.2061" x="1044.3848" y="745.5488">MaintenanceTypeRepository</text><text fill="#000000" font-family="sans-serif" font-size="14" lengthAdjust="spacing" textLength="182.0957" x="1042.4399" y="764.1699">:MaintenanceTypeRepository</text><rect fill="#E3E3E3" height="32.6211" rx="2.5" ry="2.5" style="stroke:#181818;stroke-width:0.5;" width="177.4131" x="1241.5356" y="89.6211"/><text fill="#000000" font-family="sans-serif" font-size="14" lengthAdjust="spacing" textLength="163.4131" x="1248.5356" y="111.7285">MaintenanceTypeJPAImpl</text><rect fill="#E3E3E3" height="32.6211" rx="2.5" ry="2.5" style="stroke:#181818;stroke-width:0.5;" width="177.4131" x="1241.5356" y="723.4414"/><text fill="#000000" font-family="sans-serif" font-size="14" lengthAdjust="spacing" textLength="163.4131" x="1248.5356" y="745.5488">MaintenanceTypeJPAImpl</text><rect fill="#E3E3E3" height="32.6211" rx="2.5" ry="2.5" style="stroke:#181818;stroke-width:0.5;" width="187.5234" x="1428.9487" y="89.6211"/><text fill="#000000" font-family="sans-serif" font-size="14" lengthAdjust="spacing" textLength="173.5234" x="1435.9487" y="111.7285">MaintenanceTypeInMemory</text><rect fill="#E3E3E3" height="32.6211" rx="2.5" ry="2.5" style="stroke:#181818;stroke-width:0.5;" width="187.5234" x="1428.9487" y="723.4414"/><text fill="#000000" font-family="sans-serif" font-size="14" lengthAdjust="spacing" textLength="173.5234" x="1435.9487" y="745.5488">MaintenanceTypeInMemory</text><rect fill="#FFFFFF" height="581.1992" style="stroke:#181818;stroke-width:1.0;" width="10" x="54.5723" y="133.2422"/><rect fill="#FFFFFF" height="557.9082" style="stroke:#181818;stroke-width:1.0;" width="10" x="463.8276" y="156.5332"/><rect fill="#FFFFFF" height="362.4922" style="stroke:#181818;stroke-width:1.0;" width="10" x="669.1372" y="231.4453"/><rect fill="#FFFFFF" height="52.2422" style="stroke:#181818;stroke-width:1.0;" width="10" x="951.9712" y="272.7363"/><rect fill="#FFFFFF" height="206.377" style="stroke:#181818;stroke-width:1.0;" width="10" x="1128.4878" y="356.2695"/><rect fill="#FFFFFF" height="31.291" style="stroke:#181818;stroke-width:1.0;" width="10" x="1325.2422" y="413.8516"/><rect fill="#FFFFFF" height="31.291" style="stroke:#181818;stroke-width:1.0;" width="10" x="1517.7104" y="493.0645"/><polygon fill="#181818" points="451.8276,152.5332,461.8276,156.5332,451.8276,160.5332,455.8276,156.5332" style="stroke:#181818;stroke-width:1.0;"/><line style="stroke:#181818;stroke-width:1.0;" x1="64.5723" x2="457.8276" y1="156.5332" y2="156.5332"/><text fill="#000000" font-family="sans-serif" font-size="13" font-weight="bold" lengthAdjust="spacing" textLength="7.23" x="71.5723" y="151.2705">1</text><text fill="#000000" font-family="sans-serif" font-size="13" lengthAdjust="spacing" textLength="182.0889" x="82.8022" y="151.2705">requestListMaintenanceTypes()</text><polygon fill="#181818" points="552.8101,183.8242,562.8101,187.8242,552.8101,191.8242,556.8101,187.8242" style="stroke:#181818;stroke-width:1.0;"/><line style="stroke:#181818;stroke-width:1.0;" x1="473.8276" x2="558.8101" y1="187.8242" y2="187.8242"/><text fill="#000000" font-family="sans-serif" font-size="13" font-weight="bold" lengthAdjust="spacing" textLength="7.23" x="480.8276" y="182.5615">2</text><text fill="#000000" font-family="sans-serif" font-size="13" lengthAdjust="spacing" textLength="36.1309" x="492.0576" y="182.5615">create</text><rect fill="#E3E3E3" height="32.6211" rx="2.5" ry="2.5" style="stroke:#181818;stroke-width:0.5;" width="218.6543" x="564.8101" y="164.5332"/><text fill="#000000" font-family="sans-serif" font-size="14" lengthAdjust="spacing" textLength="204.6543" x="571.8101" y="186.6406">:ListMaintenanceTypesController</text><polygon fill="#181818" points="657.1372,227.4453,667.1372,231.4453,657.1372,235.4453,661.1372,231.4453" style="stroke:#181818;stroke-width:1.0;"/><line style="stroke:#181818;stroke-width:1.0;" x1="473.8276" x2="663.1372" y1="231.4453" y2="231.4453"/><text fill="#000000" font-family="sans-serif" font-size="13" font-weight="bold" lengthAdjust="spacing" textLength="7.23" x="480.8276" y="226.1826">3</text><text fill="#000000" font-family="sans-serif" font-size="13" lengthAdjust="spacing" textLength="134.3862" x="492.0576" y="226.1826">listMaintenanceTypes()</text><polygon fill="#181818" points="876.5024,258.7363,886.5024,262.7363,876.5024,266.7363,880.5024,262.7363" style="stroke:#181818;stroke-width:1.0;"/><line style="stroke:#181818;stroke-width:1.0;" x1="679.1372" x2="882.5024" y1="262.7363" y2="262.7363"/><text fill="#000000" font-family="sans-serif" font-size="13" font-weight="bold" lengthAdjust="spacing" textLength="7.23" x="686.1372" y="257.4736">4</text><text fill="#000000" font-family="sans-serif" font-size="13" lengthAdjust="spacing" textLength="174.1353" x="697.3672" y="257.4736">maintenanceTypeRepository()</text><rect fill="#E3E3E3" height="51.2422" rx="2.5" ry="2.5" style="stroke:#181818;stroke-width:0.5;" width="136.9375" x="888.5024" y="239.4453"/><text fill="#000000" font-family="sans-serif" font-size="14" lengthAdjust="spacing" textLength="113.5996" x="900.1714" y="261.5527">repositoryProvider</text><text fill="#000000" font-family="sans-serif" font-size="14" lengthAdjust="spacing" textLength="122.9375" x="895.5024" y="280.1738">:RepositoryProvider</text><polygon fill="#181818" points="690.1372,320.9785,680.1372,324.9785,690.1372,328.9785,686.1372,324.9785" style="stroke:#181818;stroke-width:1.0;"/><line style="stroke:#181818;stroke-width:1.0;stroke-dasharray:2.0,2.0;" x1="684.1372" x2="955.9712" y1="324.9785" y2="324.9785"/><text fill="#000000" font-family="sans-serif" font-size="13" font-weight="bold" lengthAdjust="spacing" textLength="7.23" x="696.1372" y="319.7158">5</text><text fill="#000000" font-family="sans-serif" font-size="13" lengthAdjust="spacing" textLength="207.3335" x="707.3672" y="319.7158">repository (dynamic: JPA or InMem)</text><polygon fill="#181818" points="1116.4878,352.2695,1126.4878,356.2695,1116.4878,360.2695,1120.4878,356.2695" style="stroke:#181818;stroke-width:1.0;"/><line style="stroke:#181818;stroke-width:1.0;" x1="679.1372" x2="1122.4878" y1="356.2695" y2="356.2695"/><text fill="#000000" font-family="sans-serif" font-size="13" font-weight="bold" lengthAdjust="spacing" textLength="7.23" x="686.1372" y="351.0068">6</text><text fill="#000000" font-family="sans-serif" font-size="13" lengthAdjust="spacing" textLength="44.0654" x="697.3672" y="351.0068">findAll()</text><path d="M1025.4399,371.2695 L1085.6108,371.2695 L1085.6108,380.5605 L1075.6108,390.5605 L1025.4399,390.5605 L1025.4399,371.2695 " fill="#EEEEEE" style="stroke:#000000;stroke-width:1.5;"/><rect fill="none" height="161.0859" style="stroke:#000000;stroke-width:1.5;" width="601.0322" x="1025.4399" y="371.2695"/><text fill="#000000" font-family="sans-serif" font-size="13" font-weight="bold" lengthAdjust="spacing" textLength="15.1709" x="1040.4399" y="386.2979">alt</text><text fill="#000000" font-family="sans-serif" font-size="11" font-weight="bold" lengthAdjust="spacing" textLength="216.3799" x="1100.6108" y="385.1396">[Repository is MaintenanceTypeJPAImpl]</text><polygon fill="#181818" points="1313.2422,409.8516,1323.2422,413.8516,1313.2422,417.8516,1317.2422,413.8516" style="stroke:#181818;stroke-width:1.0;"/><line style="stroke:#181818;stroke-width:1.0;" x1="1138.4878" x2="1319.2422" y1="413.8516" y2="413.8516"/><text fill="#000000" font-family="sans-serif" font-size="13" font-weight="bold" lengthAdjust="spacing" textLength="7.23" x="1145.4878" y="408.5889">7</text><text fill="#000000" font-family="sans-serif" font-size="13" lengthAdjust="spacing" textLength="44.0654" x="1156.7178" y="408.5889">findAll()</text><polygon fill="#181818" points="1149.4878,441.1426,1139.4878,445.1426,1149.4878,449.1426,1145.4878,445.1426" style="stroke:#181818;stroke-width:1.0;"/><line style="stroke:#181818;stroke-width:1.0;stroke-dasharray:2.0,2.0;" x1="1143.4878" x2="1329.2422" y1="445.1426" y2="445.1426"/><text fill="#000000" font-family="sans-serif" font-size="13" font-weight="bold" lengthAdjust="spacing" textLength="7.23" x="1155.4878" y="439.8799">8</text><text fill="#000000" font-family="sans-serif" font-size="13" lengthAdjust="spacing" textLength="130.0698" x="1166.7178" y="439.8799">maintenanceTypesList</text><line style="stroke:#000000;stroke-width:1.0;stroke-dasharray:2.0,2.0;" x1="1025.4399" x2="1626.4722" y1="454.1426" y2="454.1426"/><text fill="#000000" font-family="sans-serif" font-size="11" font-weight="bold" lengthAdjust="spacing" textLength="224.3237" x="1030.4399" y="466.0127">[Repository is MaintenanceTypeInMemory]</text><polygon fill="#181818" points="1505.7104,489.0645,1515.7104,493.0645,1505.7104,497.0645,1509.7104,493.0645" style="stroke:#181818;stroke-width:1.0;"/><line style="stroke:#181818;stroke-width:1.0;" x1="1138.4878" x2="1511.7104" y1="493.0645" y2="493.0645"/><text fill="#000000" font-family="sans-serif" font-size="13" font-weight="bold" lengthAdjust="spacing" textLength="7.23" x="1145.4878" y="487.8018">9</text><text fill="#000000" font-family="sans-serif" font-size="13" lengthAdjust="spacing" textLength="44.0654" x="1156.7178" y="487.8018">findAll()</text><polygon fill="#181818" points="1149.4878,520.3555,1139.4878,524.3555,1149.4878,528.3555,1145.4878,524.3555" style="stroke:#181818;stroke-width:1.0;"/><line style="stroke:#181818;stroke-width:1.0;stroke-dasharray:2.0,2.0;" x1="1143.4878" x2="1521.7104" y1="524.3555" y2="524.3555"/><text fill="#000000" font-family="sans-serif" font-size="13" font-weight="bold" lengthAdjust="spacing" textLength="14.46" x="1155.4878" y="519.0928">10</text><text fill="#000000" font-family="sans-serif" font-size="13" lengthAdjust="spacing" textLength="130.0698" x="1173.9478" y="519.0928">maintenanceTypesList</text><polygon fill="#181818" points="690.1372,558.6465,680.1372,562.6465,690.1372,566.6465,686.1372,562.6465" style="stroke:#181818;stroke-width:1.0;"/><line style="stroke:#181818;stroke-width:1.0;stroke-dasharray:2.0,2.0;" x1="684.1372" x2="1132.4878" y1="562.6465" y2="562.6465"/><text fill="#000000" font-family="sans-serif" font-size="13" font-weight="bold" lengthAdjust="spacing" textLength="14.46" x="696.1372" y="557.3838">11</text><text fill="#000000" font-family="sans-serif" font-size="13" lengthAdjust="spacing" textLength="130.0698" x="714.5972" y="557.3838">maintenanceTypesList</text><polygon fill="#181818" points="484.8276,589.9375,474.8276,593.9375,484.8276,597.9375,480.8276,593.9375" style="stroke:#181818;stroke-width:1.0;"/><line style="stroke:#181818;stroke-width:1.0;stroke-dasharray:2.0,2.0;" x1="478.8276" x2="673.1372" y1="593.9375" y2="593.9375"/><text fill="#000000" font-family="sans-serif" font-size="13" font-weight="bold" lengthAdjust="spacing" textLength="14.46" x="490.8276" y="588.6748">12</text><text fill="#000000" font-family="sans-serif" font-size="13" lengthAdjust="spacing" textLength="130.0698" x="509.2876" y="588.6748">maintenanceTypesList</text><path d="M10,608.9375 L70.1709,608.9375 L70.1709,618.2285 L60.1709,628.2285 L10,628.2285 L10,608.9375 " fill="#EEEEEE" style="stroke:#000000;stroke-width:1.5;"/><rect fill="none" height="98.5039" style="stroke:#000000;stroke-width:1.5;" width="554.8101" x="10" y="608.9375"/><text fill="#000000" font-family="sans-serif" font-size="13" font-weight="bold" lengthAdjust="spacing" textLength="15.1709" x="25" y="623.9658">alt</text><text fill="#000000" font-family="sans-serif" font-size="11" font-weight="bold" lengthAdjust="spacing" textLength="173.6045" x="85.1709" y="622.8076">[maintenanceTypesList is empty]</text><polygon fill="#181818" points="75.5723,647.5195,65.5723,651.5195,75.5723,655.5195,71.5723,651.5195" style="stroke:#181818;stroke-width:1.0;"/><line style="stroke:#181818;stroke-width:1.0;stroke-dasharray:2.0,2.0;" x1="69.5723" x2="462.8276" y1="651.5195" y2="651.5195"/><text fill="#000000" font-family="sans-serif" font-size="13" font-weight="bold" lengthAdjust="spacing" textLength="14.46" x="81.5723" y="646.2568">13</text><text fill="#000000" font-family="sans-serif" font-size="13" lengthAdjust="spacing" textLength="356.7954" x="100.0322" y="646.2568">displayMessage("No maintenance types found in the system")</text><line style="stroke:#000000;stroke-width:1.0;stroke-dasharray:2.0,2.0;" x1="10" x2="564.8101" y1="660.5195" y2="660.5195"/><text fill="#000000" font-family="sans-serif" font-size="11" font-weight="bold" lengthAdjust="spacing" textLength="193.7622" x="15" y="672.3896">[maintenanceTypesList is not empty]</text><polygon fill="#181818" points="75.5723,695.4414,65.5723,699.4414,75.5723,703.4414,71.5723,699.4414" style="stroke:#181818;stroke-width:1.0;"/><line style="stroke:#181818;stroke-width:1.0;stroke-dasharray:2.0,2.0;" x1="69.5723" x2="462.8276" y1="699.4414" y2="699.4414"/><text fill="#000000" font-family="sans-serif" font-size="13" font-weight="bold" lengthAdjust="spacing" textLength="14.46" x="81.5723" y="694.1787">14</text><text fill="#000000" font-family="sans-serif" font-size="13" lengthAdjust="spacing" textLength="289.0342" x="100.0322" y="694.1787">displayMaintenanceTypes(maintenanceTypesList)</text><!--SRC=[bLJ1Rjim3BthAmYVuWBv0Hy65FN5GpCKZNFRHREPHAWiUPBSmNy_KcuS9NNIBIU9v7katwFYtvJffPCTTDROvkXiXn3SWCBFcLusR_A0sp1g18TDaEQWqm9_bAtzeym1zb9x52AeGALR_3sWQH1A9GzSjzgMEQpXMVa06wbCG2CvNuyzUY7a4AmPkb_ewDm4wo0hdJMKn-QOWVHGre8w1jMeNfe0MS5K2LCasbMnTbVzG-sJDS5PhT55p5Fz-do9SjXRhsYMySNPTzMY-scArq_1Y3vTBXckMfwnH7Gp5_duUfVh-yjZrVKw5jFvRcrbDjYTcECbYgpUPK3MLPGrhB-HQWLPJBxviAJNAZ-3IE1TnHXM3HuU2cWSKYA95g2_88cAYyX0c9E2aQsx9KwAdpMVeUkvzzaxMBMZaPrg2jO9QBEY0hbeyJFJF0rtB62lJFkeTTeq6YDrWFDCe3mikoE0Vbp8b1HB6JarixA37E09rtFxAnKyknBBaj4PYVJmxizpse2BWMBmvaZJdd0edlvph0cDfXLJjzcOHN02ZFf-sF2narz1fZrYJvOgMGti-Z1zE-ydqPPr0QtolPRZ1hsdVxXLziEcU0XC07ixc1QKWN14yACFs6Nv9FYjPiQ6-msldyGIKHwrIx-IdbnoerVx5m00]--></g></svg>