<svg xmlns="http://www.w3.org/2000/svg" xmlns:xlink="http://www.w3.org/1999/xlink" contentStyleType="text/css" height="788px" preserveAspectRatio="none" style="width:1845px;height:788px;background:#FFFFFF;" version="1.1" viewBox="0 0 1845 788" width="1845px" zoomAndPan="magnify"><title>UI Sequence Diagram (SD) - List Maintenance Types</title><defs/><g><text fill="#000000" font-family="sans-serif" font-size="14" font-weight="bold" lengthAdjust="spacing" textLength="346.9717" x="750.1233" y="30.1074">UI Sequence Diagram (SD) - List Maintenance Types</text><rect fill="#FFFFFF" height="562.5781" style="stroke:#181818;stroke-width:1.0;" width="10" x="54.5723" y="133.2422"/><rect fill="#FFFFFF" height="539.2871" style="stroke:#181818;stroke-width:1.0;" width="10" x="446.4541" y="156.5332"/><rect fill="#FFFFFF" height="377.4922" style="stroke:#181818;stroke-width:1.0;" width="10" x="692.5874" y="197.8242"/><rect fill="#FFFFFF" height="33.6211" style="stroke:#181818;stroke-width:1.0;" width="10" x="1032.2212" y="272.7363"/><rect fill="#FFFFFF" height="206.377" style="stroke:#181818;stroke-width:1.0;" width="10" x="1265.5376" y="337.6484"/><rect fill="#FFFFFF" height="31.291" style="stroke:#181818;stroke-width:1.0;" width="10" x="1502.7505" y="395.2305"/><rect fill="#FFFFFF" height="31.291" style="stroke:#181818;stroke-width:1.0;" width="10" x="1732.5669" y="474.4434"/><rect fill="none" height="161.0859" style="stroke:#000000;stroke-width:1.5;" width="675.7285" x="1162.4897" y="352.6484"/><rect fill="none" height="98.5039" style="stroke:#000000;stroke-width:1.5;" width="533.9365" x="10" y="590.3164"/><line style="stroke:#181818;stroke-width:0.5;stroke-dasharray:5.0,5.0;" x1="59" x2="59" y1="123.2422" y2="705.8203"/><line style="stroke:#181818;stroke-width:0.5;stroke-dasharray:5.0,5.0;" x1="450.9717" x2="450.9717" y1="123.2422" y2="705.8203"/><line style="stroke:#181818;stroke-width:0.5;stroke-dasharray:5.0,5.0;" x1="697.3706" x2="697.3706" y1="196.3438" y2="705.8203"/><line style="stroke:#181818;stroke-width:0.5;stroke-dasharray:5.0,5.0;" x1="1036.9526" x2="1036.9526" y1="271.2559" y2="705.8203"/><line style="stroke:#181818;stroke-width:0.5;stroke-dasharray:5.0,5.0;" x1="1270.4897" x2="1270.4897" y1="123.2422" y2="705.8203"/><line style="stroke:#181818;stroke-width:0.5;stroke-dasharray:5.0,5.0;" x1="1507.5854" x2="1507.5854" y1="123.2422" y2="705.8203"/><line style="stroke:#181818;stroke-width:0.5;stroke-dasharray:5.0,5.0;" x1="1736.9155" x2="1736.9155" y1="123.2422" y2="705.8203"/><text fill="#000000" font-family="sans-serif" font-size="14" lengthAdjust="spacing" textLength="73.1445" x="20" y="119.7285">Drone Tech</text><ellipse cx="59.5723" cy="53.1211" fill="#E3E3E3" rx="8" ry="8" style="stroke:#181818;stroke-width:0.5;"/><path d="M59.5723,61.1211 L59.5723,88.1211 M46.5723,69.1211 L72.5723,69.1211 M59.5723,88.1211 L46.5723,103.1211 M59.5723,88.1211 L72.5723,103.1211 " fill="none" style="stroke:#181818;stroke-width:0.5;"/><text fill="#000000" font-family="sans-serif" font-size="14" lengthAdjust="spacing" textLength="73.1445" x="20" y="719.9277">Drone Tech</text><ellipse cx="59.5723" cy="731.9414" fill="#E3E3E3" rx="8" ry="8" style="stroke:#181818;stroke-width:0.5;"/><path d="M59.5723,739.9414 L59.5723,766.9414 M46.5723,747.9414 L72.5723,747.9414 M59.5723,766.9414 L46.5723,781.9414 M59.5723,766.9414 L72.5723,781.9414 " fill="none" style="stroke:#181818;stroke-width:0.5;"/><rect fill="#E3E3E3" height="32.6211" rx="2.5" ry="2.5" style="stroke:#181818;stroke-width:0.5;" width="164.9648" x="368.9717" y="89.6211"/><text fill="#000000" font-family="sans-serif" font-size="14" lengthAdjust="spacing" textLength="150.9648" x="375.9717" y="111.7285">:ListMaintenanceTypeUI</text><rect fill="#E3E3E3" height="32.6211" rx="2.5" ry="2.5" style="stroke:#181818;stroke-width:0.5;" width="164.9648" x="368.9717" y="704.8203"/><text fill="#000000" font-family="sans-serif" font-size="14" lengthAdjust="spacing" textLength="150.9648" x="375.9717" y="726.9277">:ListMaintenanceTypeUI</text><rect fill="#E3E3E3" height="32.6211" rx="2.5" ry="2.5" style="stroke:#181818;stroke-width:0.5;" width="212.4336" x="591.3706" y="704.8203"/><text fill="#000000" font-family="sans-serif" font-size="14" lengthAdjust="spacing" textLength="198.4336" x="598.3706" y="726.9277">:GetMaintenanceTypeController</text><rect fill="#E3E3E3" height="32.6211" rx="2.5" ry="2.5" style="stroke:#181818;stroke-width:0.5;" width="250.5371" x="911.9526" y="704.8203"/><text fill="#000000" font-family="sans-serif" font-size="14" lengthAdjust="spacing" textLength="236.5371" x="918.9526" y="726.9277">repositoryProvider:RepositoryProvider</text><rect fill="#E3E3E3" height="32.6211" rx="2.5" ry="2.5" style="stroke:#181818;stroke-width:0.5;" width="196.0957" x="1172.4897" y="89.6211"/><text fill="#000000" font-family="sans-serif" font-size="14" lengthAdjust="spacing" textLength="182.0957" x="1179.4897" y="111.7285">:MaintenanceTypeRepository</text><rect fill="#E3E3E3" height="32.6211" rx="2.5" ry="2.5" style="stroke:#181818;stroke-width:0.5;" width="196.0957" x="1172.4897" y="704.8203"/><text fill="#000000" font-family="sans-serif" font-size="14" lengthAdjust="spacing" textLength="182.0957" x="1179.4897" y="726.9277">:MaintenanceTypeRepository</text><rect fill="#E3E3E3" height="32.6211" rx="2.5" ry="2.5" style="stroke:#181818;stroke-width:0.5;" width="258.3301" x="1378.5854" y="89.6211"/><text fill="#000000" font-family="sans-serif" font-size="14" lengthAdjust="spacing" textLength="244.3301" x="1385.5854" y="111.7285">:InMemoryMaintenanceTypeRepository</text><rect fill="#E3E3E3" height="32.6211" rx="2.5" ry="2.5" style="stroke:#181818;stroke-width:0.5;" width="258.3301" x="1378.5854" y="704.8203"/><text fill="#000000" font-family="sans-serif" font-size="14" lengthAdjust="spacing" textLength="244.3301" x="1385.5854" y="726.9277">:InMemoryMaintenanceTypeRepository</text><rect fill="#E3E3E3" height="32.6211" rx="2.5" ry="2.5" style="stroke:#181818;stroke-width:0.5;" width="181.3027" x="1646.9155" y="89.6211"/><text fill="#000000" font-family="sans-serif" font-size="14" lengthAdjust="spacing" textLength="167.3027" x="1653.9155" y="111.7285">:MaintenanceTypeJPAImpl</text><rect fill="#E3E3E3" height="32.6211" rx="2.5" ry="2.5" style="stroke:#181818;stroke-width:0.5;" width="181.3027" x="1646.9155" y="704.8203"/><text fill="#000000" font-family="sans-serif" font-size="14" lengthAdjust="spacing" textLength="167.3027" x="1653.9155" y="726.9277">:MaintenanceTypeJPAImpl</text><rect fill="#FFFFFF" height="562.5781" style="stroke:#181818;stroke-width:1.0;" width="10" x="54.5723" y="133.2422"/><rect fill="#FFFFFF" height="539.2871" style="stroke:#181818;stroke-width:1.0;" width="10" x="446.4541" y="156.5332"/><rect fill="#FFFFFF" height="377.4922" style="stroke:#181818;stroke-width:1.0;" width="10" x="692.5874" y="197.8242"/><rect fill="#FFFFFF" height="33.6211" style="stroke:#181818;stroke-width:1.0;" width="10" x="1032.2212" y="272.7363"/><rect fill="#FFFFFF" height="206.377" style="stroke:#181818;stroke-width:1.0;" width="10" x="1265.5376" y="337.6484"/><rect fill="#FFFFFF" height="31.291" style="stroke:#181818;stroke-width:1.0;" width="10" x="1502.7505" y="395.2305"/><rect fill="#FFFFFF" height="31.291" style="stroke:#181818;stroke-width:1.0;" width="10" x="1732.5669" y="474.4434"/><polygon fill="#181818" points="434.4541,152.5332,444.4541,156.5332,434.4541,160.5332,438.4541,156.5332" style="stroke:#181818;stroke-width:1.0;"/><line style="stroke:#181818;stroke-width:1.0;" x1="64.5723" x2="440.4541" y1="156.5332" y2="156.5332"/><text fill="#000000" font-family="sans-serif" font-size="13" font-weight="bold" lengthAdjust="spacing" textLength="7.23" x="71.5723" y="151.2705">1</text><text fill="#000000" font-family="sans-serif" font-size="13" lengthAdjust="spacing" textLength="196.5488" x="82.8022" y="151.2705">requests to list maintenance types</text><polygon fill="#181818" points="579.3706,183.8242,589.3706,187.8242,579.3706,191.8242,583.3706,187.8242" style="stroke:#181818;stroke-width:1.0;"/><line style="stroke:#181818;stroke-width:1.0;" x1="456.4541" x2="585.3706" y1="187.8242" y2="187.8242"/><text fill="#000000" font-family="sans-serif" font-size="13" font-weight="bold" lengthAdjust="spacing" textLength="7.23" x="463.4541" y="182.5615">2</text><text fill="#000000" font-family="sans-serif" font-size="13" lengthAdjust="spacing" textLength="36.1309" x="474.6841" y="182.5615">create</text><rect fill="#E3E3E3" height="32.6211" rx="2.5" ry="2.5" style="stroke:#181818;stroke-width:0.5;" width="212.4336" x="591.3706" y="164.5332"/><text fill="#000000" font-family="sans-serif" font-size="14" lengthAdjust="spacing" textLength="198.4336" x="598.3706" y="186.6406">:GetMaintenanceTypeController</text><polygon fill="#181818" points="680.5874,227.4453,690.5874,231.4453,680.5874,235.4453,684.5874,231.4453" style="stroke:#181818;stroke-width:1.0;"/><line style="stroke:#181818;stroke-width:1.0;" x1="456.4541" x2="686.5874" y1="231.4453" y2="231.4453"/><text fill="#000000" font-family="sans-serif" font-size="13" font-weight="bold" lengthAdjust="spacing" textLength="7.23" x="463.4541" y="226.1826">3</text><text fill="#000000" font-family="sans-serif" font-size="13" lengthAdjust="spacing" textLength="151.0171" x="474.6841" y="226.1826">getAllMaintenanceTypes()</text><polygon fill="#181818" points="899.9526,258.7363,909.9526,262.7363,899.9526,266.7363,903.9526,262.7363" style="stroke:#181818;stroke-width:1.0;"/><line style="stroke:#181818;stroke-width:1.0;" x1="702.5874" x2="905.9526" y1="262.7363" y2="262.7363"/><text fill="#000000" font-family="sans-serif" font-size="13" font-weight="bold" lengthAdjust="spacing" textLength="7.23" x="709.5874" y="257.4736">4</text><text fill="#000000" font-family="sans-serif" font-size="13" lengthAdjust="spacing" textLength="174.1353" x="720.8174" y="257.4736">maintenanceTypeRepository()</text><rect fill="#E3E3E3" height="32.6211" rx="2.5" ry="2.5" style="stroke:#181818;stroke-width:0.5;" width="250.5371" x="911.9526" y="239.4453"/><text fill="#000000" font-family="sans-serif" font-size="14" lengthAdjust="spacing" textLength="236.5371" x="918.9526" y="261.5527">repositoryProvider:RepositoryProvider</text><polygon fill="#181818" points="713.5874,302.3574,703.5874,306.3574,713.5874,310.3574,709.5874,306.3574" style="stroke:#181818;stroke-width:1.0;"/><line style="stroke:#181818;stroke-width:1.0;stroke-dasharray:2.0,2.0;" x1="707.5874" x2="1036.2212" y1="306.3574" y2="306.3574"/><text fill="#000000" font-family="sans-serif" font-size="13" font-weight="bold" lengthAdjust="spacing" textLength="7.23" x="719.5874" y="301.0947">5</text><text fill="#000000" font-family="sans-serif" font-size="13" lengthAdjust="spacing" textLength="207.3335" x="730.8174" y="301.0947">repository (dynamic: InMem or JPA)</text><polygon fill="#181818" points="1253.5376,333.6484,1263.5376,337.6484,1253.5376,341.6484,1257.5376,337.6484" style="stroke:#181818;stroke-width:1.0;"/><line style="stroke:#181818;stroke-width:1.0;" x1="702.5874" x2="1259.5376" y1="337.6484" y2="337.6484"/><text fill="#000000" font-family="sans-serif" font-size="13" font-weight="bold" lengthAdjust="spacing" textLength="7.23" x="709.5874" y="332.3857">6</text><text fill="#000000" font-family="sans-serif" font-size="13" lengthAdjust="spacing" textLength="44.0654" x="720.8174" y="332.3857">findAll()</text><path d="M1162.4897,352.6484 L1222.6606,352.6484 L1222.6606,361.9395 L1212.6606,371.9395 L1162.4897,371.9395 L1162.4897,352.6484 " fill="#EEEEEE" style="stroke:#000000;stroke-width:1.5;"/><rect fill="none" height="161.0859" style="stroke:#000000;stroke-width:1.5;" width="675.7285" x="1162.4897" y="352.6484"/><text fill="#000000" font-family="sans-serif" font-size="13" font-weight="bold" lengthAdjust="spacing" textLength="15.1709" x="1177.4897" y="367.6768">alt</text><text fill="#000000" font-family="sans-serif" font-size="11" font-weight="bold" lengthAdjust="spacing" textLength="281.7783" x="1237.6606" y="366.5186">[Repository is InMemoryMaintenanceTypeRepository]</text><polygon fill="#181818" points="1490.7505,391.2305,1500.7505,395.2305,1490.7505,399.2305,1494.7505,395.2305" style="stroke:#181818;stroke-width:1.0;"/><line style="stroke:#181818;stroke-width:1.0;" x1="1275.5376" x2="1496.7505" y1="395.2305" y2="395.2305"/><text fill="#000000" font-family="sans-serif" font-size="13" font-weight="bold" lengthAdjust="spacing" textLength="7.23" x="1282.5376" y="389.9678">7</text><text fill="#000000" font-family="sans-serif" font-size="13" lengthAdjust="spacing" textLength="44.0654" x="1293.7676" y="389.9678">findAll()</text><polygon fill="#181818" points="1286.5376,422.5215,1276.5376,426.5215,1286.5376,430.5215,1282.5376,426.5215" style="stroke:#181818;stroke-width:1.0;"/><line style="stroke:#181818;stroke-width:1.0;stroke-dasharray:2.0,2.0;" x1="1280.5376" x2="1506.7505" y1="426.5215" y2="426.5215"/><text fill="#000000" font-family="sans-serif" font-size="13" font-weight="bold" lengthAdjust="spacing" textLength="7.23" x="1292.5376" y="421.2588">8</text><text fill="#000000" font-family="sans-serif" font-size="13" lengthAdjust="spacing" textLength="130.0698" x="1303.7676" y="421.2588">maintenanceTypesList</text><line style="stroke:#000000;stroke-width:1.0;stroke-dasharray:2.0,2.0;" x1="1162.4897" x2="1838.2183" y1="435.5215" y2="435.5215"/><text fill="#000000" font-family="sans-serif" font-size="11" font-weight="bold" lengthAdjust="spacing" textLength="216.3799" x="1167.4897" y="447.3916">[Repository is MaintenanceTypeJPAImpl]</text><polygon fill="#181818" points="1720.5669,470.4434,1730.5669,474.4434,1720.5669,478.4434,1724.5669,474.4434" style="stroke:#181818;stroke-width:1.0;"/><line style="stroke:#181818;stroke-width:1.0;" x1="1275.5376" x2="1726.5669" y1="474.4434" y2="474.4434"/><text fill="#000000" font-family="sans-serif" font-size="13" font-weight="bold" lengthAdjust="spacing" textLength="7.23" x="1282.5376" y="469.1807">9</text><text fill="#000000" font-family="sans-serif" font-size="13" lengthAdjust="spacing" textLength="44.0654" x="1293.7676" y="469.1807">findAll()</text><polygon fill="#181818" points="1286.5376,501.7344,1276.5376,505.7344,1286.5376,509.7344,1282.5376,505.7344" style="stroke:#181818;stroke-width:1.0;"/><line style="stroke:#181818;stroke-width:1.0;stroke-dasharray:2.0,2.0;" x1="1280.5376" x2="1736.5669" y1="505.7344" y2="505.7344"/><text fill="#000000" font-family="sans-serif" font-size="13" font-weight="bold" lengthAdjust="spacing" textLength="14.46" x="1292.5376" y="500.4717">10</text><text fill="#000000" font-family="sans-serif" font-size="13" lengthAdjust="spacing" textLength="130.0698" x="1310.9976" y="500.4717">maintenanceTypesList</text><polygon fill="#181818" points="713.5874,540.0254,703.5874,544.0254,713.5874,548.0254,709.5874,544.0254" style="stroke:#181818;stroke-width:1.0;"/><line style="stroke:#181818;stroke-width:1.0;stroke-dasharray:2.0,2.0;" x1="707.5874" x2="1269.5376" y1="544.0254" y2="544.0254"/><text fill="#000000" font-family="sans-serif" font-size="13" font-weight="bold" lengthAdjust="spacing" textLength="14.46" x="719.5874" y="538.7627">11</text><text fill="#000000" font-family="sans-serif" font-size="13" lengthAdjust="spacing" textLength="130.0698" x="738.0474" y="538.7627">maintenanceTypesList</text><polygon fill="#181818" points="467.4541,571.3164,457.4541,575.3164,467.4541,579.3164,463.4541,575.3164" style="stroke:#181818;stroke-width:1.0;"/><line style="stroke:#181818;stroke-width:1.0;stroke-dasharray:2.0,2.0;" x1="461.4541" x2="696.5874" y1="575.3164" y2="575.3164"/><text fill="#000000" font-family="sans-serif" font-size="13" font-weight="bold" lengthAdjust="spacing" textLength="14.46" x="473.4541" y="570.0537">12</text><text fill="#000000" font-family="sans-serif" font-size="13" lengthAdjust="spacing" textLength="193.6733" x="491.9141" y="570.0537">Optional&lt;maintenanceTypesList&gt;</text><path d="M10,590.3164 L70.1709,590.3164 L70.1709,599.6074 L60.1709,609.6074 L10,609.6074 L10,590.3164 " fill="#EEEEEE" style="stroke:#000000;stroke-width:1.5;"/><rect fill="none" height="98.5039" style="stroke:#000000;stroke-width:1.5;" width="533.9365" x="10" y="590.3164"/><text fill="#000000" font-family="sans-serif" font-size="13" font-weight="bold" lengthAdjust="spacing" textLength="15.1709" x="25" y="605.3447">alt</text><text fill="#000000" font-family="sans-serif" font-size="11" font-weight="bold" lengthAdjust="spacing" textLength="173.6045" x="85.1709" y="604.1865">[maintenanceTypesList is empty]</text><polygon fill="#181818" points="75.5723,628.8984,65.5723,632.8984,75.5723,636.8984,71.5723,632.8984" style="stroke:#181818;stroke-width:1.0;"/><line style="stroke:#181818;stroke-width:1.0;stroke-dasharray:2.0,2.0;" x1="69.5723" x2="445.4541" y1="632.8984" y2="632.8984"/><text fill="#000000" font-family="sans-serif" font-size="13" font-weight="bold" lengthAdjust="spacing" textLength="14.46" x="81.5723" y="627.6357">13</text><text fill="#000000" font-family="sans-serif" font-size="13" lengthAdjust="spacing" textLength="339.4219" x="100.0322" y="627.6357">errorMessage("No maintenance types in the system yet...")</text><line style="stroke:#000000;stroke-width:1.0;stroke-dasharray:2.0,2.0;" x1="10" x2="543.9365" y1="641.8984" y2="641.8984"/><text fill="#000000" font-family="sans-serif" font-size="11" font-weight="bold" lengthAdjust="spacing" textLength="193.7622" x="15" y="653.7686">[maintenanceTypesList is not empty]</text><polygon fill="#181818" points="75.5723,676.8203,65.5723,680.8203,75.5723,684.8203,71.5723,680.8203" style="stroke:#181818;stroke-width:1.0;"/><line style="stroke:#181818;stroke-width:1.0;stroke-dasharray:2.0,2.0;" x1="69.5723" x2="445.4541" y1="680.8203" y2="680.8203"/><text fill="#000000" font-family="sans-serif" font-size="13" font-weight="bold" lengthAdjust="spacing" textLength="14.46" x="81.5723" y="675.5576">14</text><text fill="#000000" font-family="sans-serif" font-size="13" lengthAdjust="spacing" textLength="235.5425" x="100.0322" y="675.5576">showListPartially(maintenanceTypesList)</text><!--SRC=[bLJHRk8m47ptLwnuWahm0T6fKjL89qxbYWfyW2_PWbN7JksbLVx-TXqQqX2GoWknFREpcLadlXbNww0hgBppnI7u2e724LNiJcfTlEazRgYn204Bqcvl-u1uqAN_D6uFhzf6L8eCCNItX0s-7z4L2BdHUu5ED_aCvl1a8i5A6qVej9nlcngZKlf8tXshVnZukI0VO987x_WSYyC4T8HygrYKJ65gxGWccPJgLP92ksM2xfO3w6yS8X-ze-2jnP0OZzkNf- -SWBMFXXjfri5_c193zdAnbRXVYu7cGF1CJYHP3WXBjyAApsyJ4-gsr9_rmxAgROBpSpBKV6X2yL3bMvZViqKP9yePHOf07gpaKlLoePHBnsHB5SVAJB4AxkuoA0BooHcIF3nZCjWZFLWxQ2vEPogLODYNSwbSTUsrcT1fT5vtr7adTquCfcNZT6MAhBKBU9pOY9agyR9IruqePl1gNCbTzqLJLjeId7i2SqhYLbuA-2TBgPxG_V9os4cqgSfMs_2ywsTWIvIfJy3UkxHiv1iuQ75yCBxrnNjNkvBXaGt-_s57maHNgbQbYsYKsgCbfq-1d8RqkIRZdRQ_nhZtVNAQlvJJ65JimAgcDXKPKnR8jnbW23wiC4R-qaqdV_tbBG3ZW0u8iOd4sJH8YyLYCciDlwRbF8thnOF_5D1Qhh2sjfcEbPWb-_glnpUmj-AR_1y0]--></g></svg>