<?xml version="1.0" encoding="UTF-8" standalone="no"?><svg xmlns="http://www.w3.org/2000/svg" xmlns:xlink="http://www.w3.org/1999/xlink" contentScriptType="application/ecmascript" contentStyleType="text/css" height="75px" preserveAspectRatio="none" style="width:200px;height:75px;" version="1.1" viewBox="0 0 200 75" width="200px" zoomAndPan="magnify"><defs><filter height="300%" id="f1px0zew148i71" width="300%" x="-1" y="-1"><feGaussianBlur result="blurOut" stdDeviation="2.0"/><feColorMatrix in="blurOut" result="blurOut2" type="matrix" values="0 0 0 0 0 0 0 0 0 0 0 0 0 0 0 0 0 0 .4 0"/><feOffset dx="4.0" dy="4.0" in="blurOut2" result="blurOut3"/><feBlend in="SourceGraphic" in2="blurOut3" mode="normal"/></filter></defs><g><!--MD5=[e3e9484bf37107db6e162705278616c0]
class utils.Immutable--><a href="Immutable.html" target="_top" title="Immutable.html" xlink:actuate="onRequest" xlink:href="Immutable.html" xlink:show="new" xlink:title="Immutable.html" xlink:type="simple"><rect codeLine="5" fill="#FEFECE" filter="url(#f1px0zew148i71)" height="38.2656" id="utils.Immutable" style="stroke: #A80036; stroke-width: 1.5;" width="105" x="41.5" y="7"/><ellipse cx="56.5" cy="26.1328" fill="#E3664A" rx="11" ry="11" style="stroke: #A80036; stroke-width: 1.0;"/><path d="M59.0767,26.3589 Q59.0767,25.4209 58.6533,24.8896 Q58.23,24.3584 57.4912,24.3584 Q56.7524,24.3584 56.3333,24.8896 Q55.9141,25.4209 55.9141,26.3589 Q55.9141,27.3052 56.3333,27.8364 Q56.7524,28.3677 57.4912,28.3677 Q58.23,28.3677 58.6533,27.8364 Q59.0767,27.3052 59.0767,26.3589 Z M60.6206,29.7622 L58.9937,29.7622 L58.9937,29.0815 Q58.6782,29.5215 58.2507,29.7249 Q57.8232,29.9282 57.2256,29.9282 Q55.8643,29.9282 55.03,28.9487 Q54.1958,27.9692 54.1958,26.3589 Q54.1958,24.7568 55.0259,23.7815 Q55.856,22.8062 57.2256,22.8062 Q57.8149,22.8062 58.2632,23.0095 Q58.7114,23.2129 58.9937,23.603 L58.9937,23.2627 Q58.9937,22.1338 58.3752,21.5195 Q57.7568,20.9053 56.6113,20.9053 Q54.8848,20.9053 53.7932,22.4243 Q52.7017,23.9434 52.7017,26.3755 Q52.7017,28.9238 53.9634,30.4304 Q55.2251,31.937 57.3252,31.937 Q57.9893,31.937 58.6118,31.7419 Q59.2344,31.5469 59.8071,31.1567 L60.5708,32.6177 Q59.8984,33.0742 59.1057,33.3025 Q58.313,33.5308 57.4082,33.5308 Q54.5029,33.5308 52.7764,31.5967 Q51.0498,29.6626 51.0498,26.3755 Q51.0498,23.1631 52.6021,21.2332 Q54.1543,19.3032 56.7109,19.3032 Q58.5205,19.3032 59.5706,20.3948 Q60.6206,21.4863 60.6206,23.3706 Z "/><text fill="#000000" font-family="sans-serif" font-size="14" lengthAdjust="spacingAndGlyphs" textLength="73" x="70.5" y="25.5352">Immutable</text><text fill="#000000" font-family="sans-serif" font-size="10" lengthAdjust="spacingAndGlyphs" textLength="21" x="96.5" y="38.1563">utils</text></a><text fill="#888888" font-family="sans-serif" font-size="10" lengthAdjust="spacingAndGlyphs" textLength="188" x="0" y="61.9336">UMLDoclet 2.0.12, PlantUML 1.2020.16</text><!--MD5=[e5922a1460c19fa349c030bc96c0717b]
@startuml
    set namespaceSeparator none
    hide empty fields
    hide empty methods

    annotation "<size:14>Immutable\n<size:10>utils" as utils.Immutable [[Immutable.html]]

    center footer UMLDoclet 2.0.12, PlantUML 1.2020.16
@enduml

PlantUML version 1.2020.16(Sun Aug 23 21:20:43 WEST 2020)
(APACHE source distribution)
Java Runtime: OpenJDK Runtime Environment
JVM: OpenJDK 64-Bit Server VM
Default Encoding: UTF-8
Language: pt
Country: PT
--></g></svg>