<?xml version="1.0" encoding="UTF-8" standalone="no"?><svg xmlns="http://www.w3.org/2000/svg" xmlns:xlink="http://www.w3.org/1999/xlink" contentScriptType="application/ecmascript" contentStyleType="text/css" height="80px" preserveAspectRatio="none" style="width:200px;height:80px;" version="1.1" viewBox="0 0 200 80" width="200px" zoomAndPan="magnify"><defs><filter height="300%" id="f1px0zew148i71" width="300%" x="-1" y="-1"><feGaussianBlur result="blurOut" stdDeviation="2.0"/><feColorMatrix in="blurOut" result="blurOut2" type="matrix" values="0 0 0 0 0 0 0 0 0 0 0 0 0 0 0 0 0 0 .4 0"/><feOffset dx="4.0" dy="4.0" in="blurOut2" result="blurOut3"/><feBlend in="SourceGraphic" in2="blurOut3" mode="normal"/></filter></defs><g><!--MD5=[e3e9484bf37107db6e162705278616c0]
class utils.Immutable--><a href="Immutable.html" target="_top" title="Immutable.html" xlink:actuate="onRequest" xlink:href="Immutable.html" xlink:show="new" xlink:title="Immutable.html" xlink:type="simple"><rect codeLine="5" fill="#FEFECE" filter="url(#f1px0zew148i71)" height="42.6879" id="utils.Immutable" style="stroke: #A80036; stroke-width: 1.5;" width="106" x="41" y="7"/><ellipse cx="56" cy="28.344" fill="#E3664A" rx="11" ry="11" style="stroke: #A80036; stroke-width: 1.0;"/><path d="M58.0781,28.8127 Q58.0781,27.8752 57.6563,27.344 Q57.2344,26.8127 56.4844,26.8127 Q55.75,26.8127 55.3281,27.344 Q54.9219,27.8752 54.9219,28.8127 Q54.9219,29.7658 55.3281,30.2971 Q55.75,30.8283 56.4844,30.8283 Q57.2344,30.8283 57.6563,30.2971 Q58.0781,29.7658 58.0781,28.8127 Z M59.625,32.219 L58,32.219 L58,31.5471 Q57.6719,31.9846 57.25,32.1877 Q56.8281,32.3908 56.2188,32.3908 Q54.8594,32.3908 54.0313,31.4221 Q53.2031,30.4377 53.2031,28.8127 Q53.2031,27.219 54.0313,26.2502 Q54.8594,25.2658 56.2188,25.2658 Q56.8125,25.2658 57.2656,25.469 Q57.7188,25.6721 58,26.0627 L58,25.719 Q58,24.594 57.375,23.9846 Q56.75,23.3596 55.6094,23.3596 Q53.8906,23.3596 52.7969,24.8908 Q51.7031,26.4065 51.7031,28.844 Q51.7031,31.3908 52.9531,32.8908 Q54.2188,34.3908 56.3281,34.3908 Q56.9844,34.3908 57.6094,34.2033 Q58.2344,34.0158 58.8125,33.6252 L59.5781,35.0783 Q58.9063,35.5315 58.1094,35.7502 Q57.3125,35.9846 56.4063,35.9846 Q53.5,35.9846 51.7656,34.0471 Q50.0469,32.1252 50.0469,28.844 Q50.0469,25.6252 51.5938,23.7033 Q53.1563,21.7658 55.7188,21.7658 Q57.5156,21.7658 58.5625,22.8596 Q59.625,23.9533 59.625,25.8283 L59.625,32.219 Z "/><text fill="#000000" font-family="sans-serif" font-size="14" lengthAdjust="spacingAndGlyphs" textLength="74" x="70" y="26.9659">Immutable</text><text fill="#000000" font-family="sans-serif" font-size="10" lengthAdjust="spacingAndGlyphs" textLength="21" x="96.5" y="41.7579">utils</text></a><text fill="#888888" font-family="sans-serif" font-size="10" lengthAdjust="spacingAndGlyphs" textLength="188" x="0" y="67.3779">UMLDoclet 2.0.12, PlantUML 1.2020.16</text><!--MD5=[473f0f23127df0aefc43ca941d40ff45]
@startuml
    set namespaceSeparator none
    hide empty fields
    hide empty methods

    annotation "<size:14>Immutable\n<size:10>utils" as utils.Immutable [[Immutable.html]]

    center footer UMLDoclet 2.0.12, PlantUML 1.2020.16
@enduml

PlantUML version 1.2020.16(Sun Aug 23 21:20:43 WEST 2020)
(APACHE source distribution)
Java Runtime: Java(TM) SE Runtime Environment
JVM: Java HotSpot(TM) 64-Bit Server VM
Default Encoding: UTF-8
Language: en
Country: US
--></g></svg>