<?xml version="1.0" encoding="UTF-8" standalone="no"?><svg xmlns="http://www.w3.org/2000/svg" xmlns:xlink="http://www.w3.org/1999/xlink" contentScriptType="application/ecmascript" contentStyleType="text/css" height="902px" preserveAspectRatio="none" style="width:528px;height:902px;" version="1.1" viewBox="0 0 528 902" width="528px" zoomAndPan="magnify"><defs><filter height="300%" id="f1710ghnodc1a6" width="300%" x="-1" y="-1"><feGaussianBlur result="blurOut" stdDeviation="2.0"/><feColorMatrix in="blurOut" result="blurOut2" type="matrix" values="0 0 0 0 0 0 0 0 0 0 0 0 0 0 0 0 0 0 .4 0"/><feOffset dx="4.0" dy="4.0" in="blurOut2" result="blurOut3"/><feBlend in="SourceGraphic" in2="blurOut3" mode="normal"/></filter></defs><g><!--MD5=[c52f45833d539af9e29a9d34b8b7302b]
cluster utils--><polygon fill="#FFFFFF" filter="url(#f1710ghnodc1a6)" points="16,6,55,6,62,28.4883,506,28.4883,506,873.71,16,873.71,16,6" style="stroke: #000000; stroke-width: 1.5;"/><line style="stroke: #000000; stroke-width: 1.5;" x1="16" x2="62" y1="28.4883" y2="28.4883"/><text fill="#000000" font-family="sans-serif" font-size="14" font-weight="bold" lengthAdjust="spacingAndGlyphs" textLength="33" x="20" y="21.5352">utils</text><!--MD5=[e3e9484bf37107db6e162705278616c0]
class utils.Immutable--><a href="Immutable.html" target="_top" title="Immutable.html" xlink:actuate="onRequest" xlink:href="Immutable.html" xlink:show="new" xlink:title="Immutable.html" xlink:type="simple"><rect codeLine="3" fill="#FEFECE" filter="url(#f1710ghnodc1a6)" height="48" id="utils.Immutable" style="stroke: #A80036; stroke-width: 1.5;" width="93" x="32.5" y="157.6"/><ellipse cx="47.5" cy="173.6" fill="#E3664A" rx="11" ry="11" style="stroke: #A80036; stroke-width: 1.0;"/><path d="M50.0767,173.8261 Q50.0767,172.8881 49.6533,172.3568 Q49.23,171.8256 48.4912,171.8256 Q47.7524,171.8256 47.3333,172.3568 Q46.9141,172.8881 46.9141,173.8261 Q46.9141,174.7724 47.3333,175.3036 Q47.7524,175.8349 48.4912,175.8349 Q49.23,175.8349 49.6533,175.3036 Q50.0767,174.7724 50.0767,173.8261 Z M51.6206,177.2294 L49.9937,177.2294 L49.9937,176.5487 Q49.6782,176.9887 49.2507,177.192 Q48.8232,177.3954 48.2256,177.3954 Q46.8643,177.3954 46.03,176.4159 Q45.1958,175.4364 45.1958,173.8261 Q45.1958,172.224 46.0259,171.2487 Q46.856,170.2733 48.2256,170.2733 Q48.8149,170.2733 49.2632,170.4767 Q49.7114,170.6801 49.9937,171.0702 L49.9937,170.7299 Q49.9937,169.601 49.3752,168.9867 Q48.7568,168.3725 47.6113,168.3725 Q45.8848,168.3725 44.7932,169.8915 Q43.7017,171.4105 43.7017,173.8427 Q43.7017,176.391 44.9634,177.8976 Q46.2251,179.4042 48.3252,179.4042 Q48.9893,179.4042 49.6118,179.2091 Q50.2344,179.0141 50.8071,178.6239 L51.5708,180.0849 Q50.8984,180.5414 50.1057,180.7697 Q49.313,180.9979 48.4082,180.9979 Q45.5029,180.9979 43.7764,179.0639 Q42.0498,177.1298 42.0498,173.8427 Q42.0498,170.6303 43.6021,168.7003 Q45.1543,166.7704 47.7109,166.7704 Q49.5205,166.7704 50.5706,167.862 Q51.6206,168.9535 51.6206,170.8378 Z "/><text fill="#000000" font-family="sans-serif" font-size="12" lengthAdjust="spacingAndGlyphs" textLength="61" x="61.5" y="178.1352">Immutable</text><line style="stroke: #A80036; stroke-width: 1.5;" x1="33.5" x2="124.5" y1="189.6" y2="189.6"/><line style="stroke: #A80036; stroke-width: 1.5;" x1="33.5" x2="124.5" y1="197.6" y2="197.6"/></a><!--MD5=[1c189d635258c0facc511bbd75d01c3f]
class utils.Utils--><a href="Utils.html" target="_top" title="Utils.html" xlink:actuate="onRequest" xlink:href="Utils.html" xlink:show="new" xlink:title="Utils.html" xlink:type="simple"><rect codeLine="5" fill="#FEFECE" filter="url(#f1710ghnodc1a6)" height="281.1914" id="utils.Utils" style="stroke: #A80036; stroke-width: 1.5;" width="330" x="160" y="41"/><ellipse cx="308.75" cy="57" fill="#ADD1B2" rx="11" ry="11" style="stroke: #A80036; stroke-width: 1.0;"/><path d="M311.2231,63.1431 Q310.6421,63.4419 310.0029,63.5913 Q309.3638,63.7407 308.6582,63.7407 Q306.1514,63.7407 304.8315,62.0889 Q303.5117,60.437 303.5117,57.3159 Q303.5117,54.1865 304.8315,52.5347 Q306.1514,50.8828 308.6582,50.8828 Q309.3638,50.8828 310.0112,51.0322 Q310.6587,51.1816 311.2231,51.4805 L311.2231,54.2031 Q310.5923,53.6221 309.9988,53.3523 Q309.4053,53.0825 308.7744,53.0825 Q307.4297,53.0825 306.7449,54.1492 Q306.0601,55.2158 306.0601,57.3159 Q306.0601,59.4077 306.7449,60.4744 Q307.4297,61.541 308.7744,61.541 Q309.4053,61.541 309.9988,61.2712 Q310.5923,61.0015 311.2231,60.4204 Z "/><text fill="#000000" font-family="sans-serif" font-size="12" lengthAdjust="spacingAndGlyphs" textLength="24" x="329.25" y="61.5352">Utils</text><line style="stroke: #A80036; stroke-width: 1.5;" x1="161" x2="489" y1="73" y2="73"/><polygon fill="none" points="171,80,167,86,175,86" style="stroke: #1963A0; stroke-width: 1.0;"/><text fill="#000000" font-family="sans-serif" font-size="11" lengthAdjust="spacingAndGlyphs" text-decoration="underline" textLength="131" x="180" y="87.6348">COLOR_OPTIONS: String</text><line style="stroke: #A80036; stroke-width: 1.5;" x1="161" x2="489" y1="93.9551" y2="93.9551"/><ellipse cx="171" cy="104.9551" fill="#84BE84" rx="3" ry="3" style="stroke: #038048; stroke-width: 1.0;"/><text fill="#000000" font-family="sans-serif" font-size="11" lengthAdjust="spacingAndGlyphs" text-decoration="underline" textLength="143" x="180" y="108.5898">exitImediately(String): void</text><ellipse cx="171" cy="117.9102" fill="#84BE84" rx="3" ry="3" style="stroke: #038048; stroke-width: 1.0;"/><text fill="#000000" font-family="sans-serif" font-size="11" lengthAdjust="spacingAndGlyphs" text-decoration="underline" textLength="105" x="180" y="121.5449">dropLines(int): void</text><ellipse cx="171" cy="130.8652" fill="#84BE84" rx="3" ry="3" style="stroke: #038048; stroke-width: 1.0;"/><text fill="#000000" font-family="sans-serif" font-size="11" lengthAdjust="spacingAndGlyphs" text-decoration="underline" textLength="167" x="180" y="134.5">printCenteredTitle(String): void</text><ellipse cx="171" cy="143.8203" fill="#84BE84" rx="3" ry="3" style="stroke: #038048; stroke-width: 1.0;"/><text fill="#000000" font-family="sans-serif" font-size="11" lengthAdjust="spacingAndGlyphs" text-decoration="underline" textLength="196" x="180" y="147.4551">readLineFromConsole(String): String</text><ellipse cx="171" cy="156.7754" fill="#84BE84" rx="3" ry="3" style="stroke: #038048; stroke-width: 1.0;"/><text fill="#000000" font-family="sans-serif" font-size="11" lengthAdjust="spacingAndGlyphs" text-decoration="underline" textLength="194" x="180" y="160.4102">readIntegerFromConsole(String): int</text><ellipse cx="171" cy="169.7305" fill="#84BE84" rx="3" ry="3" style="stroke: #038048; stroke-width: 1.0;"/><text fill="#000000" font-family="sans-serif" font-size="11" lengthAdjust="spacingAndGlyphs" text-decoration="underline" textLength="217" x="180" y="173.3652">readDoubleFromConsole(String): double</text><ellipse cx="171" cy="182.6855" fill="#84BE84" rx="3" ry="3" style="stroke: #038048; stroke-width: 1.0;"/><text fill="#000000" font-family="sans-serif" font-size="11" lengthAdjust="spacingAndGlyphs" text-decoration="underline" textLength="190" x="180" y="186.3203">readDateFromConsole(String): Date</text><ellipse cx="171" cy="195.6406" fill="#84BE84" rx="3" ry="3" style="stroke: #038048; stroke-width: 1.0;"/><text fill="#000000" font-family="sans-serif" font-size="11" lengthAdjust="spacingAndGlyphs" text-decoration="underline" textLength="131" x="180" y="199.2754">confirm(String): boolean</text><ellipse cx="171" cy="208.5957" fill="#84BE84" rx="3" ry="3" style="stroke: #038048; stroke-width: 1.0;"/><text fill="#000000" font-family="sans-serif" font-size="11" lengthAdjust="spacingAndGlyphs" text-decoration="underline" textLength="232" x="180" y="212.2305">showAndSelectOne(List&lt;?&gt;, String): Object</text><ellipse cx="171" cy="221.5508" fill="#84BE84" rx="3" ry="3" style="stroke: #038048; stroke-width: 1.0;"/><text fill="#000000" font-family="sans-serif" font-size="11" lengthAdjust="spacingAndGlyphs" text-decoration="underline" textLength="219" x="180" y="225.1855">showAndSelectIndex(List&lt;?&gt;, String): int</text><ellipse cx="171" cy="234.5059" fill="#84BE84" rx="3" ry="3" style="stroke: #038048; stroke-width: 1.0;"/><text fill="#000000" font-family="sans-serif" font-size="11" lengthAdjust="spacingAndGlyphs" text-decoration="underline" textLength="304" x="180" y="238.1406">showAndSelectIndexCustomOptions(List&lt;?&gt;, String): int</text><ellipse cx="171" cy="247.4609" fill="#84BE84" rx="3" ry="3" style="stroke: #038048; stroke-width: 1.0;"/><text fill="#000000" font-family="sans-serif" font-size="11" lengthAdjust="spacingAndGlyphs" text-decoration="underline" textLength="267" x="180" y="251.0957">showAndSelectIndexDataBase(List&lt;?&gt;, String): int</text><ellipse cx="171" cy="260.416" fill="#84BE84" rx="3" ry="3" style="stroke: #038048; stroke-width: 1.0;"/><text fill="#000000" font-family="sans-serif" font-size="11" lengthAdjust="spacingAndGlyphs" text-decoration="underline" textLength="212" x="180" y="264.0508">showListDataBase(List&lt;?&gt;, String): void</text><ellipse cx="171" cy="273.3711" fill="#84BE84" rx="3" ry="3" style="stroke: #038048; stroke-width: 1.0;"/><text fill="#000000" font-family="sans-serif" font-size="11" lengthAdjust="spacingAndGlyphs" text-decoration="underline" textLength="164" x="180" y="277.0059">showList(List&lt;?&gt;, String): void</text><ellipse cx="171" cy="286.3262" fill="#84BE84" rx="3" ry="3" style="stroke: #038048; stroke-width: 1.0;"/><text fill="#000000" font-family="sans-serif" font-size="11" lengthAdjust="spacingAndGlyphs" text-decoration="underline" textLength="206" x="180" y="289.9609">showListCustom(List&lt;?&gt;, String): void</text><ellipse cx="171" cy="299.2813" fill="#84BE84" rx="3" ry="3" style="stroke: #038048; stroke-width: 1.0;"/><text fill="#000000" font-family="sans-serif" font-size="11" lengthAdjust="spacingAndGlyphs" text-decoration="underline" textLength="163" x="180" y="302.916">selectsObject(List&lt;?&gt;): Object</text><ellipse cx="171" cy="312.2363" fill="#84BE84" rx="3" ry="3" style="stroke: #038048; stroke-width: 1.0;"/><text fill="#000000" font-family="sans-serif" font-size="11" lengthAdjust="spacingAndGlyphs" text-decoration="underline" textLength="114" x="180" y="315.8711">selectsIndex(List): int</text></a><!--MD5=[78e24096b874188719ab828ce513e266]
class utils.Utility--><a href="Utility.html" target="_top" title="Utility.html" xlink:actuate="onRequest" xlink:href="Utility.html" xlink:show="new" xlink:title="Utility.html" xlink:type="simple"><rect codeLine="26" fill="#FEFECE" filter="url(#f1710ghnodc1a6)" height="48" id="utils.Utility" style="stroke: #A80036; stroke-width: 1.5;" width="63" x="47.5" y="595.95"/><ellipse cx="62.5" cy="611.95" fill="#E3664A" rx="11" ry="11" style="stroke: #A80036; stroke-width: 1.0;"/><path d="M65.0767,612.1761 Q65.0767,611.2381 64.6533,610.7068 Q64.23,610.1756 63.4912,610.1756 Q62.7524,610.1756 62.3333,610.7068 Q61.9141,611.2381 61.9141,612.1761 Q61.9141,613.1224 62.3333,613.6536 Q62.7524,614.1849 63.4912,614.1849 Q64.23,614.1849 64.6533,613.6536 Q65.0767,613.1224 65.0767,612.1761 Z M66.6206,615.5794 L64.9937,615.5794 L64.9937,614.8987 Q64.6782,615.3387 64.2507,615.542 Q63.8232,615.7454 63.2256,615.7454 Q61.8643,615.7454 61.03,614.7659 Q60.1958,613.7864 60.1958,612.1761 Q60.1958,610.574 61.0259,609.5987 Q61.856,608.6233 63.2256,608.6233 Q63.8149,608.6233 64.2632,608.8267 Q64.7114,609.0301 64.9937,609.4202 L64.9937,609.0799 Q64.9937,607.951 64.3752,607.3367 Q63.7568,606.7225 62.6113,606.7225 Q60.8848,606.7225 59.7932,608.2415 Q58.7017,609.7605 58.7017,612.1927 Q58.7017,614.741 59.9634,616.2476 Q61.2251,617.7542 63.3252,617.7542 Q63.9893,617.7542 64.6118,617.5591 Q65.2344,617.3641 65.8071,616.9739 L66.5708,618.4349 Q65.8984,618.8914 65.1057,619.1197 Q64.313,619.3479 63.4082,619.3479 Q60.5029,619.3479 58.7764,617.4139 Q57.0498,615.4798 57.0498,612.1927 Q57.0498,608.9803 58.6021,607.0503 Q60.1543,605.1204 62.7109,605.1204 Q64.5205,605.1204 65.5706,606.212 Q66.6206,607.3035 66.6206,609.1878 Z "/><text fill="#000000" font-family="sans-serif" font-size="12" lengthAdjust="spacingAndGlyphs" textLength="31" x="76.5" y="616.4852">Utility</text><line style="stroke: #A80036; stroke-width: 1.5;" x1="48.5" x2="109.5" y1="627.95" y2="627.95"/><line style="stroke: #A80036; stroke-width: 1.5;" x1="48.5" x2="109.5" y1="635.95" y2="635.95"/></a><!--MD5=[6df8a92c45edc361c08d538894ada3d7]
class utils.HashCoder--><a href="HashCoder.html" target="_top" title="HashCoder.html" xlink:actuate="onRequest" xlink:href="HashCoder.html" xlink:show="new" xlink:title="HashCoder.html" xlink:type="simple"><rect codeLine="28" fill="#FEFECE" filter="url(#f1710ghnodc1a6)" height="475.5176" id="utils.HashCoder" style="stroke: #A80036; stroke-width: 1.5;" width="173" x="145.5" y="382.19"/><ellipse cx="195.75" cy="398.19" fill="#ADD1B2" rx="11" ry="11" style="stroke: #A80036; stroke-width: 1.0;"/><path d="M198.2231,404.3331 Q197.6421,404.6319 197.0029,404.7813 Q196.3638,404.9307 195.6582,404.9307 Q193.1514,404.9307 191.8315,403.2789 Q190.5117,401.627 190.5117,398.5059 Q190.5117,395.3765 191.8315,393.7247 Q193.1514,392.0728 195.6582,392.0728 Q196.3638,392.0728 197.0112,392.2222 Q197.6587,392.3716 198.2231,392.6705 L198.2231,395.3931 Q197.5923,394.8121 196.9988,394.5423 Q196.4053,394.2725 195.7744,394.2725 Q194.4297,394.2725 193.7449,395.3392 Q193.0601,396.4058 193.0601,398.5059 Q193.0601,400.5977 193.7449,401.6644 Q194.4297,402.731 195.7744,402.731 Q196.4053,402.731 196.9988,402.4612 Q197.5923,402.1915 198.2231,401.6104 Z "/><text fill="#000000" font-family="sans-serif" font-size="12" lengthAdjust="spacingAndGlyphs" textLength="64" x="216.25" y="402.7252">HashCoder</text><line style="stroke: #A80036; stroke-width: 1.5;" x1="146.5" x2="317.5" y1="414.19" y2="414.19"/><rect fill="none" height="6" style="stroke: #C82930; stroke-width: 1.0;" width="6" x="153.5" y="422.19"/><text fill="#000000" font-family="sans-serif" font-size="11" lengthAdjust="spacingAndGlyphs" textLength="51" x="165.5" y="428.8248">result: int</text><line style="stroke: #A80036; stroke-width: 1.5;" x1="146.5" x2="317.5" y1="435.1451" y2="435.1451"/><ellipse cx="156.5" cy="446.1451" fill="#84BE84" rx="3" ry="3" style="stroke: #038048; stroke-width: 1.0;"/><text fill="#000000" font-family="sans-serif" font-size="11" lengthAdjust="spacingAndGlyphs" textLength="68" x="165.5" y="449.7798">HashCoder()</text><ellipse cx="156.5" cy="459.1002" fill="#84BE84" rx="3" ry="3" style="stroke: #038048; stroke-width: 1.0;"/><text fill="#000000" font-family="sans-serif" font-size="11" lengthAdjust="spacingAndGlyphs" textLength="82" x="165.5" y="462.7349">HashCoder(int)</text><ellipse cx="156.5" cy="472.0552" fill="#84BE84" rx="3" ry="3" style="stroke: #038048; stroke-width: 1.0;"/><text fill="#000000" font-family="sans-serif" font-size="11" lengthAdjust="spacingAndGlyphs" text-decoration="underline" textLength="93" x="165.5" y="475.69">part(boolean): int</text><ellipse cx="156.5" cy="485.0103" fill="#84BE84" rx="3" ry="3" style="stroke: #038048; stroke-width: 1.0;"/><text fill="#000000" font-family="sans-serif" font-size="11" lengthAdjust="spacingAndGlyphs" text-decoration="underline" textLength="73" x="165.5" y="488.6451">part(byte): int</text><ellipse cx="156.5" cy="497.9654" fill="#84BE84" rx="3" ry="3" style="stroke: #038048; stroke-width: 1.0;"/><text fill="#000000" font-family="sans-serif" font-size="11" lengthAdjust="spacingAndGlyphs" text-decoration="underline" textLength="74" x="165.5" y="501.6002">part(char): int</text><ellipse cx="156.5" cy="510.9205" fill="#84BE84" rx="3" ry="3" style="stroke: #038048; stroke-width: 1.0;"/><text fill="#000000" font-family="sans-serif" font-size="11" lengthAdjust="spacingAndGlyphs" text-decoration="underline" textLength="79" x="165.5" y="514.5552">part(short): int</text><ellipse cx="156.5" cy="523.8755" fill="#84BE84" rx="3" ry="3" style="stroke: #038048; stroke-width: 1.0;"/><text fill="#000000" font-family="sans-serif" font-size="11" lengthAdjust="spacingAndGlyphs" text-decoration="underline" textLength="64" x="165.5" y="527.5103">part(int): int</text><ellipse cx="156.5" cy="536.8306" fill="#84BE84" rx="3" ry="3" style="stroke: #038048; stroke-width: 1.0;"/><text fill="#000000" font-family="sans-serif" font-size="11" lengthAdjust="spacingAndGlyphs" text-decoration="underline" textLength="74" x="165.5" y="540.4654">part(long): int</text><ellipse cx="156.5" cy="549.7857" fill="#84BE84" rx="3" ry="3" style="stroke: #038048; stroke-width: 1.0;"/><text fill="#000000" font-family="sans-serif" font-size="11" lengthAdjust="spacingAndGlyphs" text-decoration="underline" textLength="74" x="165.5" y="553.4205">part(float): int</text><ellipse cx="156.5" cy="562.7408" fill="#84BE84" rx="3" ry="3" style="stroke: #038048; stroke-width: 1.0;"/><text fill="#000000" font-family="sans-serif" font-size="11" lengthAdjust="spacingAndGlyphs" text-decoration="underline" textLength="87" x="165.5" y="566.3755">part(double): int</text><ellipse cx="156.5" cy="575.6959" fill="#84BE84" rx="3" ry="3" style="stroke: #038048; stroke-width: 1.0;"/><text fill="#000000" font-family="sans-serif" font-size="11" lengthAdjust="spacingAndGlyphs" text-decoration="underline" textLength="85" x="165.5" y="579.3306">part(Object): int</text><ellipse cx="156.5" cy="588.6509" fill="#84BE84" rx="3" ry="3" style="stroke: #038048; stroke-width: 1.0;"/><text fill="#000000" font-family="sans-serif" font-size="11" lengthAdjust="spacingAndGlyphs" text-decoration="underline" textLength="109" x="165.5" y="592.2857">compute(int, int): int</text><ellipse cx="156.5" cy="601.606" fill="#84BE84" rx="3" ry="3" style="stroke: #038048; stroke-width: 1.0;"/><text fill="#000000" font-family="sans-serif" font-size="11" lengthAdjust="spacingAndGlyphs" text-decoration="underline" textLength="89" x="165.5" y="605.2408">hash(Object): int</text><ellipse cx="156.5" cy="614.5611" fill="#84BE84" rx="3" ry="3" style="stroke: #038048; stroke-width: 1.0;"/><text fill="#000000" font-family="sans-serif" font-size="11" lengthAdjust="spacingAndGlyphs" textLength="139" x="165.5" y="618.1959">with(boolean): HashCoder</text><ellipse cx="156.5" cy="627.5162" fill="#84BE84" rx="3" ry="3" style="stroke: #038048; stroke-width: 1.0;"/><text fill="#000000" font-family="sans-serif" font-size="11" lengthAdjust="spacingAndGlyphs" textLength="147" x="165.5" y="631.1509">with(boolean[]): HashCoder</text><ellipse cx="156.5" cy="640.4713" fill="#84BE84" rx="3" ry="3" style="stroke: #038048; stroke-width: 1.0;"/><text fill="#000000" font-family="sans-serif" font-size="11" lengthAdjust="spacingAndGlyphs" textLength="119" x="165.5" y="644.106">with(byte): HashCoder</text><ellipse cx="156.5" cy="653.4263" fill="#84BE84" rx="3" ry="3" style="stroke: #038048; stroke-width: 1.0;"/><text fill="#000000" font-family="sans-serif" font-size="11" lengthAdjust="spacingAndGlyphs" textLength="127" x="165.5" y="657.0611">with(byte[]): HashCoder</text><ellipse cx="156.5" cy="666.3814" fill="#84BE84" rx="3" ry="3" style="stroke: #038048; stroke-width: 1.0;"/><text fill="#000000" font-family="sans-serif" font-size="11" lengthAdjust="spacingAndGlyphs" textLength="120" x="165.5" y="670.0162">with(char): HashCoder</text><ellipse cx="156.5" cy="679.3365" fill="#84BE84" rx="3" ry="3" style="stroke: #038048; stroke-width: 1.0;"/><text fill="#000000" font-family="sans-serif" font-size="11" lengthAdjust="spacingAndGlyphs" textLength="128" x="165.5" y="682.9713">with(char[]): HashCoder</text><ellipse cx="156.5" cy="692.2916" fill="#84BE84" rx="3" ry="3" style="stroke: #038048; stroke-width: 1.0;"/><text fill="#000000" font-family="sans-serif" font-size="11" lengthAdjust="spacingAndGlyphs" textLength="125" x="165.5" y="695.9263">with(short): HashCoder</text><ellipse cx="156.5" cy="705.2466" fill="#84BE84" rx="3" ry="3" style="stroke: #038048; stroke-width: 1.0;"/><text fill="#000000" font-family="sans-serif" font-size="11" lengthAdjust="spacingAndGlyphs" textLength="133" x="165.5" y="708.8814">with(short[]): HashCoder</text><ellipse cx="156.5" cy="718.2017" fill="#84BE84" rx="3" ry="3" style="stroke: #038048; stroke-width: 1.0;"/><text fill="#000000" font-family="sans-serif" font-size="11" lengthAdjust="spacingAndGlyphs" textLength="110" x="165.5" y="721.8365">with(int): HashCoder</text><ellipse cx="156.5" cy="731.1568" fill="#84BE84" rx="3" ry="3" style="stroke: #038048; stroke-width: 1.0;"/><text fill="#000000" font-family="sans-serif" font-size="11" lengthAdjust="spacingAndGlyphs" textLength="118" x="165.5" y="734.7916">with(int[]): HashCoder</text><ellipse cx="156.5" cy="744.1119" fill="#84BE84" rx="3" ry="3" style="stroke: #038048; stroke-width: 1.0;"/><text fill="#000000" font-family="sans-serif" font-size="11" lengthAdjust="spacingAndGlyphs" textLength="120" x="165.5" y="747.7466">with(long): HashCoder</text><ellipse cx="156.5" cy="757.067" fill="#84BE84" rx="3" ry="3" style="stroke: #038048; stroke-width: 1.0;"/><text fill="#000000" font-family="sans-serif" font-size="11" lengthAdjust="spacingAndGlyphs" textLength="128" x="165.5" y="760.7017">with(long[]): HashCoder</text><ellipse cx="156.5" cy="770.022" fill="#84BE84" rx="3" ry="3" style="stroke: #038048; stroke-width: 1.0;"/><text fill="#000000" font-family="sans-serif" font-size="11" lengthAdjust="spacingAndGlyphs" textLength="120" x="165.5" y="773.6568">with(float): HashCoder</text><ellipse cx="156.5" cy="782.9771" fill="#84BE84" rx="3" ry="3" style="stroke: #038048; stroke-width: 1.0;"/><text fill="#000000" font-family="sans-serif" font-size="11" lengthAdjust="spacingAndGlyphs" textLength="128" x="165.5" y="786.6119">with(float[]): HashCoder</text><ellipse cx="156.5" cy="795.9322" fill="#84BE84" rx="3" ry="3" style="stroke: #038048; stroke-width: 1.0;"/><text fill="#000000" font-family="sans-serif" font-size="11" lengthAdjust="spacingAndGlyphs" textLength="133" x="165.5" y="799.567">with(double): HashCoder</text><ellipse cx="156.5" cy="808.8873" fill="#84BE84" rx="3" ry="3" style="stroke: #038048; stroke-width: 1.0;"/><text fill="#000000" font-family="sans-serif" font-size="11" lengthAdjust="spacingAndGlyphs" textLength="141" x="165.5" y="812.522">with(double[]): HashCoder</text><ellipse cx="156.5" cy="821.8423" fill="#84BE84" rx="3" ry="3" style="stroke: #038048; stroke-width: 1.0;"/><text fill="#000000" font-family="sans-serif" font-size="11" lengthAdjust="spacingAndGlyphs" textLength="131" x="165.5" y="825.4771">with(Object): HashCoder</text><ellipse cx="156.5" cy="834.7974" fill="#84BE84" rx="3" ry="3" style="stroke: #038048; stroke-width: 1.0;"/><text fill="#000000" font-family="sans-serif" font-size="11" lengthAdjust="spacingAndGlyphs" textLength="139" x="165.5" y="838.4322">with(Object[]): HashCoder</text><ellipse cx="156.5" cy="847.7525" fill="#84BE84" rx="3" ry="3" style="stroke: #038048; stroke-width: 1.0;"/><text fill="#000000" font-family="sans-serif" font-size="11" lengthAdjust="spacingAndGlyphs" textLength="54" x="165.5" y="851.3873">code(): int</text></a><!--MD5=[8915d6fb3405f55dbf7bfe6e6d6ea2bc]
link utils.Immutable to utils.Utils--><!--MD5=[34818fa127ad4ddb3dd1e8f4c92698f7]
link utils.Immutable to utils.Utility--><!--MD5=[25797e8a3616687399856dcddab01016]
link utils.Utility to utils.HashCoder--><text fill="#888888" font-family="sans-serif" font-size="10" lengthAdjust="spacingAndGlyphs" textLength="188" x="161" y="889.378">UMLDoclet 2.0.12, PlantUML 1.2020.16</text><!--MD5=[4e7ea455d5e9b70c638021d9688373a6]
@startuml
    namespace utils {

        annotation Immutable [[Immutable.html]]

        class Utils [[Utils.html]] {
            {static} ~COLOR_OPTIONS: String
            {static} +exitImediately(String): void
            {static} +dropLines(int): void
            {static} +printCenteredTitle(String): void
            {static} +readLineFromConsole(String): String
            {static} +readIntegerFromConsole(String): int
            {static} +readDoubleFromConsole(String): double
            {static} +readDateFromConsole(String): Date
            {static} +confirm(String): boolean
            {static} +showAndSelectOne(List<?>, String): Object
            {static} +showAndSelectIndex(List<?>, String): int
            {static} +showAndSelectIndexCustomOptions(List<?>, String): int
            {static} +showAndSelectIndexDataBase(List<?>, String): int
            {static} +showListDataBase(List<?>, String): void
            {static} +showList(List<?>, String): void
            {static} +showListCustom(List<?>, String): void
            {static} +selectsObject(List<?>): Object
            {static} +selectsIndex(List): int
        }

        annotation Utility [[Utility.html]]

        class HashCoder [[HashCoder.html]] {
            -result: int
            +HashCoder()
            +HashCoder(int)
            {static} +part(boolean): int
            {static} +part(byte): int
            {static} +part(char): int
            {static} +part(short): int
            {static} +part(int): int
            {static} +part(long): int
            {static} +part(float): int
            {static} +part(double): int
            {static} +part(Object): int
            {static} +compute(int, int): int
            {static} +hash(Object): int
            +with(boolean): HashCoder
            +with(boolean[]): HashCoder
            +with(byte): HashCoder
            +with(byte[]): HashCoder
            +with(char): HashCoder
            +with(char[]): HashCoder
            +with(short): HashCoder
            +with(short[]): HashCoder
            +with(int): HashCoder
            +with(int[]): HashCoder
            +with(long): HashCoder
            +with(long[]): HashCoder
            +with(float): HashCoder
            +with(float[]): HashCoder
            +with(double): HashCoder
            +with(double[]): HashCoder
            +with(Object): HashCoder
            +with(Object[]): HashCoder
            +code(): int
        }

    }

    center footer UMLDoclet 2.0.12, PlantUML 1.2020.16
@enduml

PlantUML version 1.2020.16(Sun Aug 23 21:20:43 WEST 2020)
(APACHE source distribution)
Java Runtime: OpenJDK Runtime Environment
JVM: OpenJDK 64-Bit Server VM
Default Encoding: UTF-8
Language: pt
Country: PT
--></g></svg>