<?xml version="1.0" encoding="UTF-8" standalone="no"?><svg xmlns="http://www.w3.org/2000/svg" xmlns:xlink="http://www.w3.org/1999/xlink" contentScriptType="application/ecmascript" contentStyleType="text/css" height="935px" preserveAspectRatio="none" style="width:480px;height:935px;" version="1.1" viewBox="0 0 480 935" width="480px" zoomAndPan="magnify"><defs><filter height="300%" id="fr75s8az92wfq" width="300%" x="-1" y="-1"><feGaussianBlur result="blurOut" stdDeviation="2.0"/><feColorMatrix in="blurOut" result="blurOut2" type="matrix" values="0 0 0 0 0 0 0 0 0 0 0 0 0 0 0 0 0 0 .4 0"/><feOffset dx="4.0" dy="4.0" in="blurOut2" result="blurOut3"/><feBlend in="SourceGraphic" in2="blurOut3" mode="normal"/></filter></defs><g><!--MD5=[c52f45833d539af9e29a9d34b8b7302b]
cluster utils--><polygon fill="#FFFFFF" filter="url(#fr75s8az92wfq)" points="16,6.602,52,6.602,59,31.6699,458,31.6699,458,905.602,16,905.602,16,6.602" style="stroke: #000000; stroke-width: 1.5;"/><line style="stroke: #000000; stroke-width: 1.5;" x1="16" x2="59" y1="31.6699" y2="31.6699"/><text fill="#000000" font-family="sans-serif" font-size="14" font-weight="bold" lengthAdjust="spacingAndGlyphs" textLength="30" x="20" y="23.5679">utils</text><!--MD5=[e3e9484bf37107db6e162705278616c0]
class utils.Immutable--><a href="Immutable.html" target="_top" title="Immutable.html" xlink:actuate="onRequest" xlink:href="Immutable.html" xlink:show="new" xlink:title="Immutable.html" xlink:type="simple"><rect codeLine="3" fill="#FEFECE" filter="url(#fr75s8az92wfq)" height="48" id="utils.Immutable" style="stroke: #A80036; stroke-width: 1.5;" width="93" x="31.5" y="142.102"/><ellipse cx="46.5" cy="158.102" fill="#E3664A" rx="11" ry="11" style="stroke: #A80036; stroke-width: 1.0;"/><path d="M48.5781,158.5707 Q48.5781,157.6332 48.1563,157.102 Q47.7344,156.5707 46.9844,156.5707 Q46.25,156.5707 45.8281,157.102 Q45.4219,157.6332 45.4219,158.5707 Q45.4219,159.5239 45.8281,160.0551 Q46.25,160.5864 46.9844,160.5864 Q47.7344,160.5864 48.1563,160.0551 Q48.5781,159.5239 48.5781,158.5707 Z M50.125,161.977 L48.5,161.977 L48.5,161.3051 Q48.1719,161.7426 47.75,161.9457 Q47.3281,162.1489 46.7188,162.1489 Q45.3594,162.1489 44.5313,161.1801 Q43.7031,160.1957 43.7031,158.5707 Q43.7031,156.977 44.5313,156.0082 Q45.3594,155.0239 46.7188,155.0239 Q47.3125,155.0239 47.7656,155.227 Q48.2188,155.4301 48.5,155.8207 L48.5,155.477 Q48.5,154.352 47.875,153.7426 Q47.25,153.1176 46.1094,153.1176 Q44.3906,153.1176 43.2969,154.6489 Q42.2031,156.1645 42.2031,158.602 Q42.2031,161.1489 43.4531,162.6489 Q44.7188,164.1489 46.8281,164.1489 Q47.4844,164.1489 48.1094,163.9614 Q48.7344,163.7739 49.3125,163.3832 L50.0781,164.8364 Q49.4063,165.2895 48.6094,165.5082 Q47.8125,165.7426 46.9063,165.7426 Q44,165.7426 42.2656,163.8051 Q40.5469,161.8832 40.5469,158.602 Q40.5469,155.3832 42.0938,153.4614 Q43.6563,151.5239 46.2188,151.5239 Q48.0156,151.5239 49.0625,152.6176 Q50.125,153.7114 50.125,155.5864 L50.125,161.977 Z "/><text fill="#000000" font-family="sans-serif" font-size="12" lengthAdjust="spacingAndGlyphs" textLength="61" x="60.5" y="162.758">Immutable</text><line style="stroke: #A80036; stroke-width: 1.5;" x1="32.5" x2="123.5" y1="174.102" y2="174.102"/><line style="stroke: #A80036; stroke-width: 1.5;" x1="32.5" x2="123.5" y1="182.102" y2="182.102"/></a><!--MD5=[1c189d635258c0facc511bbd75d01c3f]
class utils.Utils--><a href="Utils.html" target="_top" title="Utils.html" xlink:actuate="onRequest" xlink:href="Utils.html" xlink:show="new" xlink:title="Utils.html" xlink:type="simple"><rect codeLine="5" fill="#FEFECE" filter="url(#fr75s8az92wfq)" height="242.7645" id="utils.Utils" style="stroke: #A80036; stroke-width: 1.5;" width="282" x="160" y="44.602"/><ellipse cx="284.25" cy="60.602" fill="#ADD1B2" rx="11" ry="11" style="stroke: #A80036; stroke-width: 1.0;"/><path d="M287.2188,66.2426 Q286.6406,66.5395 286,66.6801 Q285.3594,66.8364 284.6563,66.8364 Q282.1563,66.8364 280.8281,65.1957 Q279.5156,63.5395 279.5156,60.4145 Q279.5156,57.2895 280.8281,55.6332 Q282.1563,53.977 284.6563,53.977 Q285.3594,53.977 286,54.1332 Q286.6563,54.2895 287.2188,54.5864 L287.2188,57.3051 Q286.5938,56.727 286,56.4614 Q285.4063,56.1801 284.7813,56.1801 Q283.4375,56.1801 282.75,57.2582 Q282.0625,58.3207 282.0625,60.4145 Q282.0625,62.5082 282.75,63.5864 Q283.4375,64.6489 284.7813,64.6489 Q285.4063,64.6489 286,64.3832 Q286.5938,64.102 287.2188,63.5239 L287.2188,66.2426 Z "/><text fill="#000000" font-family="sans-serif" font-size="12" lengthAdjust="spacingAndGlyphs" textLength="25" x="304.75" y="65.258">Utils</text><line style="stroke: #A80036; stroke-width: 1.5;" x1="161" x2="441" y1="76.602" y2="76.602"/><polygon fill="none" points="171,83.602,167,89.602,175,89.602" style="stroke: #1963A0; stroke-width: 1.0;"/><text fill="#000000" font-family="sans-serif" font-size="11" lengthAdjust="spacingAndGlyphs" text-decoration="underline" textLength="130" x="180" y="92.3609">COLOR_OPTIONS: String</text><line style="stroke: #A80036; stroke-width: 1.5;" x1="161" x2="441" y1="99.5839" y2="99.5839"/><ellipse cx="171" cy="110.5839" fill="#84BE84" rx="3" ry="3" style="stroke: #038048; stroke-width: 1.0;"/><text fill="#000000" font-family="sans-serif" font-size="11" lengthAdjust="spacingAndGlyphs" text-decoration="underline" textLength="192" x="180" y="115.3428">readLineFromConsole(String): String</text><ellipse cx="171" cy="125.5658" fill="#84BE84" rx="3" ry="3" style="stroke: #038048; stroke-width: 1.0;"/><text fill="#000000" font-family="sans-serif" font-size="11" lengthAdjust="spacingAndGlyphs" text-decoration="underline" textLength="191" x="180" y="130.3247">readIntegerFromConsole(String): int</text><ellipse cx="171" cy="140.5476" fill="#84BE84" rx="3" ry="3" style="stroke: #038048; stroke-width: 1.0;"/><text fill="#000000" font-family="sans-serif" font-size="11" lengthAdjust="spacingAndGlyphs" text-decoration="underline" textLength="213" x="180" y="145.3066">readDoubleFromConsole(String): double</text><ellipse cx="171" cy="155.5295" fill="#84BE84" rx="3" ry="3" style="stroke: #038048; stroke-width: 1.0;"/><text fill="#000000" font-family="sans-serif" font-size="11" lengthAdjust="spacingAndGlyphs" text-decoration="underline" textLength="186" x="180" y="160.2884">readDateFromConsole(String): Date</text><ellipse cx="171" cy="170.5114" fill="#84BE84" rx="3" ry="3" style="stroke: #038048; stroke-width: 1.0;"/><text fill="#000000" font-family="sans-serif" font-size="11" lengthAdjust="spacingAndGlyphs" text-decoration="underline" textLength="128" x="180" y="175.2703">confirm(String): boolean</text><ellipse cx="171" cy="185.4933" fill="#84BE84" rx="3" ry="3" style="stroke: #038048; stroke-width: 1.0;"/><text fill="#000000" font-family="sans-serif" font-size="11" lengthAdjust="spacingAndGlyphs" text-decoration="underline" textLength="220" x="180" y="190.2522">showAndSelectOne(List&lt;?&gt;, String): Object</text><ellipse cx="171" cy="200.4752" fill="#84BE84" rx="3" ry="3" style="stroke: #038048; stroke-width: 1.0;"/><text fill="#000000" font-family="sans-serif" font-size="11" lengthAdjust="spacingAndGlyphs" text-decoration="underline" textLength="208" x="180" y="205.2341">showAndSelectIndex(List&lt;?&gt;, String): int</text><ellipse cx="171" cy="215.4571" fill="#84BE84" rx="3" ry="3" style="stroke: #038048; stroke-width: 1.0;"/><text fill="#000000" font-family="sans-serif" font-size="11" lengthAdjust="spacingAndGlyphs" text-decoration="underline" textLength="256" x="180" y="220.216">showAndSelectIndexDataBase(List&lt;?&gt;, String): int</text><ellipse cx="171" cy="230.439" fill="#84BE84" rx="3" ry="3" style="stroke: #038048; stroke-width: 1.0;"/><text fill="#000000" font-family="sans-serif" font-size="11" lengthAdjust="spacingAndGlyphs" text-decoration="underline" textLength="202" x="180" y="235.1979">showListDataBase(List&lt;?&gt;, String): void</text><ellipse cx="171" cy="245.4209" fill="#84BE84" rx="3" ry="3" style="stroke: #038048; stroke-width: 1.0;"/><text fill="#000000" font-family="sans-serif" font-size="11" lengthAdjust="spacingAndGlyphs" text-decoration="underline" textLength="154" x="180" y="250.1798">showList(List&lt;?&gt;, String): void</text><ellipse cx="171" cy="260.4027" fill="#84BE84" rx="3" ry="3" style="stroke: #038048; stroke-width: 1.0;"/><text fill="#000000" font-family="sans-serif" font-size="11" lengthAdjust="spacingAndGlyphs" text-decoration="underline" textLength="149" x="180" y="265.1617">selectsObject(List&lt;?&gt;): Object</text><ellipse cx="171" cy="275.3846" fill="#84BE84" rx="3" ry="3" style="stroke: #038048; stroke-width: 1.0;"/><text fill="#000000" font-family="sans-serif" font-size="11" lengthAdjust="spacingAndGlyphs" text-decoration="underline" textLength="108" x="180" y="280.1435">selectsIndex(List): int</text></a><!--MD5=[6df8a92c45edc361c08d538894ada3d7]
class utils.HashCoder--><a href="HashCoder.html" target="_top" title="HashCoder.html" xlink:actuate="onRequest" xlink:href="HashCoder.html" xlink:show="new" xlink:title="HashCoder.html" xlink:type="simple"><rect codeLine="21" fill="#FEFECE" filter="url(#fr75s8az92wfq)" height="542.4023" id="utils.HashCoder" style="stroke: #A80036; stroke-width: 1.5;" width="170" x="32" y="347.602"/><ellipse cx="81.25" cy="363.602" fill="#ADD1B2" rx="11" ry="11" style="stroke: #A80036; stroke-width: 1.0;"/><path d="M84.2188,369.2426 Q83.6406,369.5395 83,369.6801 Q82.3594,369.8364 81.6563,369.8364 Q79.1563,369.8364 77.8281,368.1957 Q76.5156,366.5395 76.5156,363.4145 Q76.5156,360.2895 77.8281,358.6332 Q79.1563,356.977 81.6563,356.977 Q82.3594,356.977 83,357.1332 Q83.6563,357.2895 84.2188,357.5864 L84.2188,360.3051 Q83.5938,359.727 83,359.4614 Q82.4063,359.1801 81.7813,359.1801 Q80.4375,359.1801 79.75,360.2582 Q79.0625,361.3207 79.0625,363.4145 Q79.0625,365.5082 79.75,366.5864 Q80.4375,367.6489 81.7813,367.6489 Q82.4063,367.6489 83,367.3832 Q83.5938,367.102 84.2188,366.5239 L84.2188,369.2426 Z "/><text fill="#000000" font-family="sans-serif" font-size="12" lengthAdjust="spacingAndGlyphs" textLength="63" x="101.75" y="368.258">HashCoder</text><line style="stroke: #A80036; stroke-width: 1.5;" x1="33" x2="201" y1="379.602" y2="379.602"/><rect fill="none" height="6" style="stroke: #C82930; stroke-width: 1.0;" width="6" x="40" y="387.602"/><text fill="#000000" font-family="sans-serif" font-size="11" lengthAdjust="spacingAndGlyphs" textLength="50" x="52" y="395.3609">result: int</text><line style="stroke: #A80036; stroke-width: 1.5;" x1="33" x2="201" y1="402.5839" y2="402.5839"/><ellipse cx="43" cy="413.5839" fill="#84BE84" rx="3" ry="3" style="stroke: #038048; stroke-width: 1.0;"/><text fill="#000000" font-family="sans-serif" font-size="11" lengthAdjust="spacingAndGlyphs" textLength="64" x="52" y="418.3428">HashCoder()</text><ellipse cx="43" cy="428.5658" fill="#84BE84" rx="3" ry="3" style="stroke: #038048; stroke-width: 1.0;"/><text fill="#000000" font-family="sans-serif" font-size="11" lengthAdjust="spacingAndGlyphs" textLength="78" x="52" y="433.3247">HashCoder(int)</text><ellipse cx="43" cy="443.5476" fill="#84BE84" rx="3" ry="3" style="stroke: #038048; stroke-width: 1.0;"/><text fill="#000000" font-family="sans-serif" font-size="11" lengthAdjust="spacingAndGlyphs" text-decoration="underline" textLength="91" x="52" y="448.3066">part(boolean): int</text><ellipse cx="43" cy="458.5295" fill="#84BE84" rx="3" ry="3" style="stroke: #038048; stroke-width: 1.0;"/><text fill="#000000" font-family="sans-serif" font-size="11" lengthAdjust="spacingAndGlyphs" text-decoration="underline" textLength="71" x="52" y="463.2884">part(byte): int</text><ellipse cx="43" cy="473.5114" fill="#84BE84" rx="3" ry="3" style="stroke: #038048; stroke-width: 1.0;"/><text fill="#000000" font-family="sans-serif" font-size="11" lengthAdjust="spacingAndGlyphs" text-decoration="underline" textLength="71" x="52" y="478.2703">part(char): int</text><ellipse cx="43" cy="488.4933" fill="#84BE84" rx="3" ry="3" style="stroke: #038048; stroke-width: 1.0;"/><text fill="#000000" font-family="sans-serif" font-size="11" lengthAdjust="spacingAndGlyphs" text-decoration="underline" textLength="76" x="52" y="493.2522">part(short): int</text><ellipse cx="43" cy="503.4752" fill="#84BE84" rx="3" ry="3" style="stroke: #038048; stroke-width: 1.0;"/><text fill="#000000" font-family="sans-serif" font-size="11" lengthAdjust="spacingAndGlyphs" text-decoration="underline" textLength="62" x="52" y="508.2341">part(int): int</text><ellipse cx="43" cy="518.4571" fill="#84BE84" rx="3" ry="3" style="stroke: #038048; stroke-width: 1.0;"/><text fill="#000000" font-family="sans-serif" font-size="11" lengthAdjust="spacingAndGlyphs" text-decoration="underline" textLength="72" x="52" y="523.216">part(long): int</text><ellipse cx="43" cy="533.439" fill="#84BE84" rx="3" ry="3" style="stroke: #038048; stroke-width: 1.0;"/><text fill="#000000" font-family="sans-serif" font-size="11" lengthAdjust="spacingAndGlyphs" text-decoration="underline" textLength="72" x="52" y="538.1979">part(float): int</text><ellipse cx="43" cy="548.4209" fill="#84BE84" rx="3" ry="3" style="stroke: #038048; stroke-width: 1.0;"/><text fill="#000000" font-family="sans-serif" font-size="11" lengthAdjust="spacingAndGlyphs" text-decoration="underline" textLength="85" x="52" y="553.1798">part(double): int</text><ellipse cx="43" cy="563.4027" fill="#84BE84" rx="3" ry="3" style="stroke: #038048; stroke-width: 1.0;"/><text fill="#000000" font-family="sans-serif" font-size="11" lengthAdjust="spacingAndGlyphs" text-decoration="underline" textLength="82" x="52" y="568.1617">part(Object): int</text><ellipse cx="43" cy="578.3846" fill="#84BE84" rx="3" ry="3" style="stroke: #038048; stroke-width: 1.0;"/><text fill="#000000" font-family="sans-serif" font-size="11" lengthAdjust="spacingAndGlyphs" text-decoration="underline" textLength="106" x="52" y="583.1435">compute(int, int): int</text><ellipse cx="43" cy="593.3665" fill="#84BE84" rx="3" ry="3" style="stroke: #038048; stroke-width: 1.0;"/><text fill="#000000" font-family="sans-serif" font-size="11" lengthAdjust="spacingAndGlyphs" text-decoration="underline" textLength="85" x="52" y="598.1254">hash(Object): int</text><ellipse cx="43" cy="608.3484" fill="#84BE84" rx="3" ry="3" style="stroke: #038048; stroke-width: 1.0;"/><text fill="#000000" font-family="sans-serif" font-size="11" lengthAdjust="spacingAndGlyphs" textLength="136" x="52" y="613.1073">with(boolean): HashCoder</text><ellipse cx="43" cy="623.3303" fill="#84BE84" rx="3" ry="3" style="stroke: #038048; stroke-width: 1.0;"/><text fill="#000000" font-family="sans-serif" font-size="11" lengthAdjust="spacingAndGlyphs" textLength="144" x="52" y="628.0892">with(boolean[]): HashCoder</text><ellipse cx="43" cy="638.3122" fill="#84BE84" rx="3" ry="3" style="stroke: #038048; stroke-width: 1.0;"/><text fill="#000000" font-family="sans-serif" font-size="11" lengthAdjust="spacingAndGlyphs" textLength="116" x="52" y="643.0711">with(byte): HashCoder</text><ellipse cx="43" cy="653.2941" fill="#84BE84" rx="3" ry="3" style="stroke: #038048; stroke-width: 1.0;"/><text fill="#000000" font-family="sans-serif" font-size="11" lengthAdjust="spacingAndGlyphs" textLength="124" x="52" y="658.053">with(byte[]): HashCoder</text><ellipse cx="43" cy="668.276" fill="#84BE84" rx="3" ry="3" style="stroke: #038048; stroke-width: 1.0;"/><text fill="#000000" font-family="sans-serif" font-size="11" lengthAdjust="spacingAndGlyphs" textLength="116" x="52" y="673.0349">with(char): HashCoder</text><ellipse cx="43" cy="683.2579" fill="#84BE84" rx="3" ry="3" style="stroke: #038048; stroke-width: 1.0;"/><text fill="#000000" font-family="sans-serif" font-size="11" lengthAdjust="spacingAndGlyphs" textLength="124" x="52" y="688.0168">with(char[]): HashCoder</text><ellipse cx="43" cy="698.2397" fill="#84BE84" rx="3" ry="3" style="stroke: #038048; stroke-width: 1.0;"/><text fill="#000000" font-family="sans-serif" font-size="11" lengthAdjust="spacingAndGlyphs" textLength="121" x="52" y="702.9987">with(short): HashCoder</text><ellipse cx="43" cy="713.2216" fill="#84BE84" rx="3" ry="3" style="stroke: #038048; stroke-width: 1.0;"/><text fill="#000000" font-family="sans-serif" font-size="11" lengthAdjust="spacingAndGlyphs" textLength="129" x="52" y="717.9805">with(short[]): HashCoder</text><ellipse cx="43" cy="728.2035" fill="#84BE84" rx="3" ry="3" style="stroke: #038048; stroke-width: 1.0;"/><text fill="#000000" font-family="sans-serif" font-size="11" lengthAdjust="spacingAndGlyphs" textLength="107" x="52" y="732.9624">with(int): HashCoder</text><ellipse cx="43" cy="743.1854" fill="#84BE84" rx="3" ry="3" style="stroke: #038048; stroke-width: 1.0;"/><text fill="#000000" font-family="sans-serif" font-size="11" lengthAdjust="spacingAndGlyphs" textLength="115" x="52" y="747.9443">with(int[]): HashCoder</text><ellipse cx="43" cy="758.1673" fill="#84BE84" rx="3" ry="3" style="stroke: #038048; stroke-width: 1.0;"/><text fill="#000000" font-family="sans-serif" font-size="11" lengthAdjust="spacingAndGlyphs" textLength="117" x="52" y="762.9262">with(long): HashCoder</text><ellipse cx="43" cy="773.1492" fill="#84BE84" rx="3" ry="3" style="stroke: #038048; stroke-width: 1.0;"/><text fill="#000000" font-family="sans-serif" font-size="11" lengthAdjust="spacingAndGlyphs" textLength="125" x="52" y="777.9081">with(long[]): HashCoder</text><ellipse cx="43" cy="788.1311" fill="#84BE84" rx="3" ry="3" style="stroke: #038048; stroke-width: 1.0;"/><text fill="#000000" font-family="sans-serif" font-size="11" lengthAdjust="spacingAndGlyphs" textLength="117" x="52" y="792.89">with(float): HashCoder</text><ellipse cx="43" cy="803.113" fill="#84BE84" rx="3" ry="3" style="stroke: #038048; stroke-width: 1.0;"/><text fill="#000000" font-family="sans-serif" font-size="11" lengthAdjust="spacingAndGlyphs" textLength="125" x="52" y="807.8719">with(float[]): HashCoder</text><ellipse cx="43" cy="818.0948" fill="#84BE84" rx="3" ry="3" style="stroke: #038048; stroke-width: 1.0;"/><text fill="#000000" font-family="sans-serif" font-size="11" lengthAdjust="spacingAndGlyphs" textLength="130" x="52" y="822.8538">with(double): HashCoder</text><ellipse cx="43" cy="833.0767" fill="#84BE84" rx="3" ry="3" style="stroke: #038048; stroke-width: 1.0;"/><text fill="#000000" font-family="sans-serif" font-size="11" lengthAdjust="spacingAndGlyphs" textLength="138" x="52" y="837.8356">with(double[]): HashCoder</text><ellipse cx="43" cy="848.0586" fill="#84BE84" rx="3" ry="3" style="stroke: #038048; stroke-width: 1.0;"/><text fill="#000000" font-family="sans-serif" font-size="11" lengthAdjust="spacingAndGlyphs" textLength="127" x="52" y="852.8175">with(Object): HashCoder</text><ellipse cx="43" cy="863.0405" fill="#84BE84" rx="3" ry="3" style="stroke: #038048; stroke-width: 1.0;"/><text fill="#000000" font-family="sans-serif" font-size="11" lengthAdjust="spacingAndGlyphs" textLength="135" x="52" y="867.7994">with(Object[]): HashCoder</text><ellipse cx="43" cy="878.0224" fill="#84BE84" rx="3" ry="3" style="stroke: #038048; stroke-width: 1.0;"/><text fill="#000000" font-family="sans-serif" font-size="11" lengthAdjust="spacingAndGlyphs" textLength="51" x="52" y="882.7813">code(): int</text></a><!--MD5=[78e24096b874188719ab828ce513e266]
class utils.Utility--><a href="Utility.html" target="_top" title="Utility.html" xlink:actuate="onRequest" xlink:href="Utility.html" xlink:show="new" xlink:title="Utility.html" xlink:type="simple"><rect codeLine="57" fill="#FEFECE" filter="url(#fr75s8az92wfq)" height="48" id="utils.Utility" style="stroke: #A80036; stroke-width: 1.5;" width="64" x="237" y="594.602"/><ellipse cx="252" cy="610.602" fill="#E3664A" rx="11" ry="11" style="stroke: #A80036; stroke-width: 1.0;"/><path d="M254.0781,611.0707 Q254.0781,610.1332 253.6563,609.602 Q253.2344,609.0707 252.4844,609.0707 Q251.75,609.0707 251.3281,609.602 Q250.9219,610.1332 250.9219,611.0707 Q250.9219,612.0239 251.3281,612.5551 Q251.75,613.0864 252.4844,613.0864 Q253.2344,613.0864 253.6563,612.5551 Q254.0781,612.0239 254.0781,611.0707 Z M255.625,614.477 L254,614.477 L254,613.8051 Q253.6719,614.2426 253.25,614.4457 Q252.8281,614.6489 252.2188,614.6489 Q250.8594,614.6489 250.0313,613.6801 Q249.2031,612.6957 249.2031,611.0707 Q249.2031,609.477 250.0313,608.5082 Q250.8594,607.5239 252.2188,607.5239 Q252.8125,607.5239 253.2656,607.727 Q253.7188,607.9301 254,608.3207 L254,607.977 Q254,606.852 253.375,606.2426 Q252.75,605.6176 251.6094,605.6176 Q249.8906,605.6176 248.7969,607.1489 Q247.7031,608.6645 247.7031,611.102 Q247.7031,613.6489 248.9531,615.1489 Q250.2188,616.6489 252.3281,616.6489 Q252.9844,616.6489 253.6094,616.4614 Q254.2344,616.2739 254.8125,615.8832 L255.5781,617.3364 Q254.9063,617.7895 254.1094,618.0082 Q253.3125,618.2426 252.4063,618.2426 Q249.5,618.2426 247.7656,616.3051 Q246.0469,614.3832 246.0469,611.102 Q246.0469,607.8832 247.5938,605.9614 Q249.1563,604.0239 251.7188,604.0239 Q253.5156,604.0239 254.5625,605.1176 Q255.625,606.2114 255.625,608.0864 L255.625,614.477 Z "/><text fill="#000000" font-family="sans-serif" font-size="12" lengthAdjust="spacingAndGlyphs" textLength="32" x="266" y="615.258">Utility</text><line style="stroke: #A80036; stroke-width: 1.5;" x1="238" x2="300" y1="626.602" y2="626.602"/><line style="stroke: #A80036; stroke-width: 1.5;" x1="238" x2="300" y1="634.602" y2="634.602"/></a><!--MD5=[8915d6fb3405f55dbf7bfe6e6d6ea2bc]
link utils.Immutable to utils.Utils--><!--MD5=[381e9fd30c24bfe7a0f8070a25cb043d]
link utils.Immutable to utils.HashCoder--><!--MD5=[7c95f38dc90b3152722ec91db21d8037]
link utils.HashCoder to utils.Utility--><text fill="#888888" font-family="sans-serif" font-size="10" lengthAdjust="spacingAndGlyphs" textLength="188" x="137" y="922.292">UMLDoclet 2.0.12, PlantUML 1.2020.16</text><!--MD5=[6c507d63985118c5a55742b4d263d79f]
@startuml
    namespace utils {

        annotation Immutable [[Immutable.html]]

        class Utils [[Utils.html]] {
            {static} ~COLOR_OPTIONS: String
            {static} +readLineFromConsole(String): String
            {static} +readIntegerFromConsole(String): int
            {static} +readDoubleFromConsole(String): double
            {static} +readDateFromConsole(String): Date
            {static} +confirm(String): boolean
            {static} +showAndSelectOne(List<?>, String): Object
            {static} +showAndSelectIndex(List<?>, String): int
            {static} +showAndSelectIndexDataBase(List<?>, String): int
            {static} +showListDataBase(List<?>, String): void
            {static} +showList(List<?>, String): void
            {static} +selectsObject(List<?>): Object
            {static} +selectsIndex(List): int
        }

        class HashCoder [[HashCoder.html]] {
            -result: int
            +HashCoder()
            +HashCoder(int)
            {static} +part(boolean): int
            {static} +part(byte): int
            {static} +part(char): int
            {static} +part(short): int
            {static} +part(int): int
            {static} +part(long): int
            {static} +part(float): int
            {static} +part(double): int
            {static} +part(Object): int
            {static} +compute(int, int): int
            {static} +hash(Object): int
            +with(boolean): HashCoder
            +with(boolean[]): HashCoder
            +with(byte): HashCoder
            +with(byte[]): HashCoder
            +with(char): HashCoder
            +with(char[]): HashCoder
            +with(short): HashCoder
            +with(short[]): HashCoder
            +with(int): HashCoder
            +with(int[]): HashCoder
            +with(long): HashCoder
            +with(long[]): HashCoder
            +with(float): HashCoder
            +with(float[]): HashCoder
            +with(double): HashCoder
            +with(double[]): HashCoder
            +with(Object): HashCoder
            +with(Object[]): HashCoder
            +code(): int
        }

        annotation Utility [[Utility.html]]

    }

    center footer UMLDoclet 2.0.12, PlantUML 1.2020.16
@enduml

PlantUML version 1.2020.16(Sun Aug 23 21:20:43 WEST 2020)
(APACHE source distribution)
Java Runtime: Java(TM) SE Runtime Environment
JVM: Java HotSpot(TM) 64-Bit Server VM
Default Encoding: UTF-8
Language: en
Country: US
--></g></svg>