<?xml version="1.0" encoding="UTF-8" standalone="no"?><svg xmlns="http://www.w3.org/2000/svg" xmlns:xlink="http://www.w3.org/1999/xlink" contentScriptType="application/ecmascript" contentStyleType="text/css" height="80px" preserveAspectRatio="none" style="width:200px;height:80px;" version="1.1" viewBox="0 0 200 80" width="200px" zoomAndPan="magnify"><defs><filter height="300%" id="fl2y2ryz8z8h1" width="300%" x="-1" y="-1"><feGaussianBlur result="blurOut" stdDeviation="2.0"/><feColorMatrix in="blurOut" result="blurOut2" type="matrix" values="0 0 0 0 0 0 0 0 0 0 0 0 0 0 0 0 0 0 .4 0"/><feOffset dx="4.0" dy="4.0" in="blurOut2" result="blurOut3"/><feBlend in="SourceGraphic" in2="blurOut3" mode="normal"/></filter></defs><g><!--MD5=[78e24096b874188719ab828ce513e266]
class utils.Utility--><a href="Utility.html" target="_top" title="Utility.html" xlink:actuate="onRequest" xlink:href="Utility.html" xlink:show="new" xlink:title="Utility.html" xlink:type="simple"><rect codeLine="5" fill="#FEFECE" filter="url(#fl2y2ryz8z8h1)" height="42.6879" id="utils.Utility" style="stroke: #A80036; stroke-width: 1.5;" width="71" x="58.5" y="7"/><ellipse cx="73.5" cy="28.344" fill="#E3664A" rx="11" ry="11" style="stroke: #A80036; stroke-width: 1.0;"/><path d="M75.5781,28.8127 Q75.5781,27.8752 75.1563,27.344 Q74.7344,26.8127 73.9844,26.8127 Q73.25,26.8127 72.8281,27.344 Q72.4219,27.8752 72.4219,28.8127 Q72.4219,29.7658 72.8281,30.2971 Q73.25,30.8283 73.9844,30.8283 Q74.7344,30.8283 75.1563,30.2971 Q75.5781,29.7658 75.5781,28.8127 Z M77.125,32.219 L75.5,32.219 L75.5,31.5471 Q75.1719,31.9846 74.75,32.1877 Q74.3281,32.3908 73.7188,32.3908 Q72.3594,32.3908 71.5313,31.4221 Q70.7031,30.4377 70.7031,28.8127 Q70.7031,27.219 71.5313,26.2502 Q72.3594,25.2658 73.7188,25.2658 Q74.3125,25.2658 74.7656,25.469 Q75.2188,25.6721 75.5,26.0627 L75.5,25.719 Q75.5,24.594 74.875,23.9846 Q74.25,23.3596 73.1094,23.3596 Q71.3906,23.3596 70.2969,24.8908 Q69.2031,26.4065 69.2031,28.844 Q69.2031,31.3908 70.4531,32.8908 Q71.7188,34.3908 73.8281,34.3908 Q74.4844,34.3908 75.1094,34.2033 Q75.7344,34.0158 76.3125,33.6252 L77.0781,35.0783 Q76.4063,35.5315 75.6094,35.7502 Q74.8125,35.9846 73.9063,35.9846 Q71,35.9846 69.2656,34.0471 Q67.5469,32.1252 67.5469,28.844 Q67.5469,25.6252 69.0938,23.7033 Q70.6563,21.7658 73.2188,21.7658 Q75.0156,21.7658 76.0625,22.8596 Q77.125,23.9533 77.125,25.8283 L77.125,32.219 Z "/><text fill="#000000" font-family="sans-serif" font-size="14" lengthAdjust="spacingAndGlyphs" textLength="39" x="87.5" y="26.9659">Utility</text><text fill="#000000" font-family="sans-serif" font-size="10" lengthAdjust="spacingAndGlyphs" textLength="21" x="96.5" y="41.7579">utils</text></a><text fill="#888888" font-family="sans-serif" font-size="10" lengthAdjust="spacingAndGlyphs" textLength="188" x="0" y="67.3779">UMLDoclet 2.0.12, PlantUML 1.2020.16</text><!--MD5=[c1f3757e3450f972de677537f7ec4613]
@startuml
    set namespaceSeparator none
    hide empty fields
    hide empty methods

    annotation "<size:14>Utility\n<size:10>utils" as utils.Utility [[Utility.html]]

    center footer UMLDoclet 2.0.12, PlantUML 1.2020.16
@enduml

PlantUML version 1.2020.16(Sun Aug 23 21:20:43 WEST 2020)
(APACHE source distribution)
Java Runtime: Java(TM) SE Runtime Environment
JVM: Java HotSpot(TM) 64-Bit Server VM
Default Encoding: UTF-8
Language: en
Country: US
--></g></svg>