<?xml version="1.0" encoding="UTF-8" standalone="no"?><svg xmlns="http://www.w3.org/2000/svg" xmlns:xlink="http://www.w3.org/1999/xlink" contentScriptType="application/ecmascript" contentStyleType="text/css" height="75px" preserveAspectRatio="none" style="width:200px;height:75px;" version="1.1" viewBox="0 0 200 75" width="200px" zoomAndPan="magnify"><defs><filter height="300%" id="fl2y2ryz8z8h1" width="300%" x="-1" y="-1"><feGaussianBlur result="blurOut" stdDeviation="2.0"/><feColorMatrix in="blurOut" result="blurOut2" type="matrix" values="0 0 0 0 0 0 0 0 0 0 0 0 0 0 0 0 0 0 .4 0"/><feOffset dx="4.0" dy="4.0" in="blurOut2" result="blurOut3"/><feBlend in="SourceGraphic" in2="blurOut3" mode="normal"/></filter></defs><g><!--MD5=[78e24096b874188719ab828ce513e266]
class utils.Utility--><a href="Utility.html" target="_top" title="Utility.html" xlink:actuate="onRequest" xlink:href="Utility.html" xlink:show="new" xlink:title="Utility.html" xlink:type="simple"><rect codeLine="5" fill="#FEFECE" filter="url(#fl2y2ryz8z8h1)" height="38.2656" id="utils.Utility" style="stroke: #A80036; stroke-width: 1.5;" width="71" x="58.5" y="7"/><ellipse cx="73.5" cy="26.1328" fill="#E3664A" rx="11" ry="11" style="stroke: #A80036; stroke-width: 1.0;"/><path d="M76.0767,26.3589 Q76.0767,25.4209 75.6533,24.8896 Q75.23,24.3584 74.4912,24.3584 Q73.7524,24.3584 73.3333,24.8896 Q72.9141,25.4209 72.9141,26.3589 Q72.9141,27.3052 73.3333,27.8364 Q73.7524,28.3677 74.4912,28.3677 Q75.23,28.3677 75.6533,27.8364 Q76.0767,27.3052 76.0767,26.3589 Z M77.6206,29.7622 L75.9937,29.7622 L75.9937,29.0815 Q75.6782,29.5215 75.2507,29.7249 Q74.8232,29.9282 74.2256,29.9282 Q72.8643,29.9282 72.03,28.9487 Q71.1958,27.9692 71.1958,26.3589 Q71.1958,24.7568 72.0259,23.7815 Q72.856,22.8062 74.2256,22.8062 Q74.8149,22.8062 75.2632,23.0095 Q75.7114,23.2129 75.9937,23.603 L75.9937,23.2627 Q75.9937,22.1338 75.3752,21.5195 Q74.7568,20.9053 73.6113,20.9053 Q71.8848,20.9053 70.7932,22.4243 Q69.7017,23.9434 69.7017,26.3755 Q69.7017,28.9238 70.9634,30.4304 Q72.2251,31.937 74.3252,31.937 Q74.9893,31.937 75.6118,31.7419 Q76.2344,31.5469 76.8071,31.1567 L77.5708,32.6177 Q76.8984,33.0742 76.1057,33.3025 Q75.313,33.5308 74.4082,33.5308 Q71.5029,33.5308 69.7764,31.5967 Q68.0498,29.6626 68.0498,26.3755 Q68.0498,23.1631 69.6021,21.2332 Q71.1543,19.3032 73.7109,19.3032 Q75.5205,19.3032 76.5706,20.3948 Q77.6206,21.4863 77.6206,23.3706 Z "/><text fill="#000000" font-family="sans-serif" font-size="14" lengthAdjust="spacingAndGlyphs" textLength="39" x="87.5" y="25.5352">Utility</text><text fill="#000000" font-family="sans-serif" font-size="10" lengthAdjust="spacingAndGlyphs" textLength="21" x="96.5" y="38.1563">utils</text></a><text fill="#888888" font-family="sans-serif" font-size="10" lengthAdjust="spacingAndGlyphs" textLength="188" x="0" y="61.9336">UMLDoclet 2.0.12, PlantUML 1.2020.16</text><!--MD5=[15ec60dc814ec90ee25a92f557ed759d]
@startuml
    set namespaceSeparator none
    hide empty fields
    hide empty methods

    annotation "<size:14>Utility\n<size:10>utils" as utils.Utility [[Utility.html]]

    center footer UMLDoclet 2.0.12, PlantUML 1.2020.16
@enduml

PlantUML version 1.2020.16(Sun Aug 23 21:20:43 WEST 2020)
(APACHE source distribution)
Java Runtime: OpenJDK Runtime Environment
JVM: OpenJDK 64-Bit Server VM
Default Encoding: UTF-8
Language: pt
Country: PT
--></g></svg>