<svg xmlns="http://www.w3.org/2000/svg" xmlns:xlink="http://www.w3.org/1999/xlink" contentStyleType="text/css" height="1263px" preserveAspectRatio="none" style="width:2365px;height:1263px;background:#FFFFFF;" version="1.1" viewBox="0 0 2365 1263" width="2365px" zoomAndPan="magnify"><title>UI Sequence Diagram (SSD) - Edit Figure Category</title><defs/><g><text fill="#000000" font-family="sans-serif" font-size="14" font-weight="bold" lengthAdjust="spacing" textLength="360.9648" x="1003.2637" y="28.5352">UI Sequence Diagram (SSD) - Edit Figure Category</text><rect fill="#FFFFFF" height="1043.291" style="stroke:#181818;stroke-width:1.0;" width="10" x="68.2305" y="128.9766"/><rect fill="#FFFFFF" height="1021.9805" style="stroke:#181818;stroke-width:1.0;" width="10" x="335.7808" y="150.2871"/><rect fill="#FFFFFF" height="469.6133" style="stroke:#181818;stroke-width:1.0;" width="10" x="762.4814" y="589.7676"/><rect fill="#FFFFFF" height="322.2383" style="stroke:#181818;stroke-width:1.0;" width="10" x="1001.5264" y="179.5977"/><rect fill="#FFFFFF" height="31.4883" style="stroke:#181818;stroke-width:1.0;" width="10" x="1283.1987" y="218.9082"/><rect fill="#FFFFFF" height="29.3105" style="stroke:#181818;stroke-width:1.0;" width="10" x="1283.1987" y="619.0781"/><rect fill="#FFFFFF" height="222.1289" style="stroke:#181818;stroke-width:1.0;" width="10" x="1458.8369" y="250.3965"/><rect fill="#FFFFFF" height="352.3711" style="stroke:#181818;stroke-width:1.0;" width="10" x="1458.8369" y="677.6992"/><rect fill="#FFFFFF" height="29.3105" style="stroke:#181818;stroke-width:1.0;" width="10" x="1691.9346" y="333.3281"/><rect fill="#FFFFFF" height="87.9316" style="stroke:#181818;stroke-width:1.0;" width="10" x="1691.9346" y="731.3203"/><rect fill="#FFFFFF" height="29.3105" style="stroke:#181818;stroke-width:1.0;" width="10" x="1914.8262" y="406.9043"/><rect fill="#FFFFFF" height="130.2422" style="stroke:#181818;stroke-width:1.0;" width="10" x="1914.8262" y="863.5176"/><rect fill="#FFFFFF" height="29.3105" style="stroke:#181818;stroke-width:1.0;" width="10" x="2284.8296" y="760.6309"/><rect fill="#FFFFFF" height="29.3105" style="stroke:#181818;stroke-width:1.0;" width="10" x="2284.8296" y="935.1387"/><rect fill="none" height="149.5078" style="stroke:#000000;stroke-width:1.5;" width="655.2344" x="1359.1113" y="294.707"/><rect fill="none" height="309.0605" style="stroke:#000000;stroke-width:1.5;" width="999.3809" x="1359.1113" y="692.6992"/><rect fill="none" height="90.8867" style="stroke:#000000;stroke-width:1.5;" width="421.3662" x="10" y="1074.3809"/><line style="stroke:#181818;stroke-width:0.5;stroke-dasharray:5.0,5.0;" x1="73" x2="73" y1="118.9766" y2="1182.2676"/><line style="stroke:#181818;stroke-width:0.5;stroke-dasharray:5.0,5.0;" x1="340.1953" x2="340.1953" y1="118.9766" y2="1182.2676"/><line style="stroke:#181818;stroke-width:0.5;stroke-dasharray:5.0,5.0;" x1="766.6821" x2="766.6821" y1="118.9766" y2="1182.2676"/><line style="stroke:#181818;stroke-width:0.5;stroke-dasharray:5.0,5.0;" x1="1006.2808" x2="1006.2808" y1="118.9766" y2="1182.2676"/><line style="stroke:#181818;stroke-width:0.5;stroke-dasharray:5.0,5.0;" x1="1287.2861" x2="1287.2861" y1="218.3418" y2="1182.2676"/><line style="stroke:#181818;stroke-width:0.5;stroke-dasharray:5.0,5.0;" x1="1463.1113" x2="1463.1113" y1="118.9766" y2="1182.2676"/><line style="stroke:#181818;stroke-width:0.5;stroke-dasharray:5.0,5.0;" x1="1696.5625" x2="1696.5625" y1="118.9766" y2="1182.2676"/><line style="stroke:#181818;stroke-width:0.5;stroke-dasharray:5.0,5.0;" x1="1919.3066" x2="1919.3066" y1="118.9766" y2="1182.2676"/><line style="stroke:#181818;stroke-width:0.5;stroke-dasharray:5.0,5.0;" x1="2289.167" x2="2289.167" y1="118.9766" y2="1182.2676"/><text fill="#000000" font-family="sans-serif" font-size="14" lengthAdjust="spacing" textLength="100.4609" x="20" y="116.0234">Show Designer</text><ellipse cx="73.2305" cy="50.9883" fill="#E3E3E3" rx="8" ry="8" style="stroke:#181818;stroke-width:0.5;"/><path d="M73.2305,58.9883 L73.2305,85.9883 M60.2305,66.9883 L86.2305,66.9883 M73.2305,85.9883 L60.2305,100.9883 M73.2305,85.9883 L86.2305,100.9883 " fill="none" style="stroke:#181818;stroke-width:0.5;"/><text fill="#000000" font-family="sans-serif" font-size="14" lengthAdjust="spacing" textLength="100.4609" x="20" y="1194.8027">Show Designer</text><ellipse cx="73.2305" cy="1206.2559" fill="#E3E3E3" rx="8" ry="8" style="stroke:#181818;stroke-width:0.5;"/><path d="M73.2305,1214.2559 L73.2305,1241.2559 M60.2305,1222.2559 L86.2305,1222.2559 M73.2305,1241.2559 L60.2305,1256.2559 M73.2305,1241.2559 L86.2305,1256.2559 " fill="none" style="stroke:#181818;stroke-width:0.5;"/><rect fill="#E3E3E3" height="30.4883" rx="2.5" ry="2.5" style="stroke:#181818;stroke-width:0.5;" width="161.1709" x="260.1953" y="87.4883"/><text fill="#000000" font-family="sans-serif" font-size="14" lengthAdjust="spacing" textLength="147.1709" x="267.1953" y="108.0234">:EditFigureCategoryUI</text><rect fill="#E3E3E3" height="30.4883" rx="2.5" ry="2.5" style="stroke:#181818;stroke-width:0.5;" width="161.1709" x="260.1953" y="1181.2676"/><text fill="#000000" font-family="sans-serif" font-size="14" lengthAdjust="spacing" textLength="147.1709" x="267.1953" y="1201.8027">:EditFigureCategoryUI</text><rect fill="#E3E3E3" height="30.4883" rx="2.5" ry="2.5" style="stroke:#181818;stroke-width:0.5;" width="215.5986" x="659.6821" y="87.4883"/><text fill="#000000" font-family="sans-serif" font-size="14" lengthAdjust="spacing" textLength="201.5986" x="666.6821" y="108.0234">:EditFigureCategoryController</text><rect fill="#E3E3E3" height="30.4883" rx="2.5" ry="2.5" style="stroke:#181818;stroke-width:0.5;" width="215.5986" x="659.6821" y="1181.2676"/><text fill="#000000" font-family="sans-serif" font-size="14" lengthAdjust="spacing" textLength="201.5986" x="666.6821" y="1201.8027">:EditFigureCategoryController</text><rect fill="#E3E3E3" height="30.4883" rx="2.5" ry="2.5" style="stroke:#181818;stroke-width:0.5;" width="242.4912" x="885.2808" y="87.4883"/><text fill="#000000" font-family="sans-serif" font-size="14" lengthAdjust="spacing" textLength="228.4912" x="892.2808" y="108.0234">:GetAllFigureCategoriesController</text><rect fill="#E3E3E3" height="30.4883" rx="2.5" ry="2.5" style="stroke:#181818;stroke-width:0.5;" width="242.4912" x="885.2808" y="1181.2676"/><text fill="#000000" font-family="sans-serif" font-size="14" lengthAdjust="spacing" textLength="228.4912" x="892.2808" y="1201.8027">:GetAllFigureCategoriesController</text><rect fill="#E3E3E3" height="30.4883" rx="2.5" ry="2.5" style="stroke:#181818;stroke-width:0.5;" width="141.8252" x="1217.2861" y="1181.2676"/><text fill="#000000" font-family="sans-serif" font-size="14" lengthAdjust="spacing" textLength="127.8252" x="1224.2861" y="1201.8027">RepositoryProvider</text><rect fill="#E3E3E3" height="30.4883" rx="2.5" ry="2.5" style="stroke:#181818;stroke-width:0.5;" width="189.4512" x="1369.1113" y="87.4883"/><text fill="#000000" font-family="sans-serif" font-size="14" lengthAdjust="spacing" textLength="175.4512" x="1376.1113" y="108.0234">FigureCategoryRepository</text><rect fill="#E3E3E3" height="30.4883" rx="2.5" ry="2.5" style="stroke:#181818;stroke-width:0.5;" width="189.4512" x="1369.1113" y="1181.2676"/><text fill="#000000" font-family="sans-serif" font-size="14" lengthAdjust="spacing" textLength="175.4512" x="1376.1113" y="1201.8027">FigureCategoryRepository</text><rect fill="#E3E3E3" height="30.4883" rx="2.5" ry="2.5" style="stroke:#181818;stroke-width:0.5;" width="256.7441" x="1568.5625" y="87.4883"/><text fill="#000000" font-family="sans-serif" font-size="14" lengthAdjust="spacing" textLength="242.7441" x="1575.5625" y="108.0234">InMemoryFigureCategoryRepository</text><rect fill="#E3E3E3" height="30.4883" rx="2.5" ry="2.5" style="stroke:#181818;stroke-width:0.5;" width="256.7441" x="1568.5625" y="1181.2676"/><text fill="#000000" font-family="sans-serif" font-size="14" lengthAdjust="spacing" textLength="242.7441" x="1575.5625" y="1201.8027">InMemoryFigureCategoryRepository</text><rect fill="#E3E3E3" height="30.4883" rx="2.5" ry="2.5" style="stroke:#181818;stroke-width:0.5;" width="169.0391" x="1835.3066" y="87.4883"/><text fill="#000000" font-family="sans-serif" font-size="14" lengthAdjust="spacing" textLength="155.0391" x="1842.3066" y="108.0234">FigureCategoryJPAImpl</text><rect fill="#E3E3E3" height="30.4883" rx="2.5" ry="2.5" style="stroke:#181818;stroke-width:0.5;" width="169.0391" x="1835.3066" y="1181.2676"/><text fill="#000000" font-family="sans-serif" font-size="14" lengthAdjust="spacing" textLength="155.0391" x="1842.3066" y="1201.8027">FigureCategoryJPAImpl</text><rect fill="#E3E3E3" height="30.4883" rx="2.5" ry="2.5" style="stroke:#181818;stroke-width:0.5;" width="117.3252" x="2231.167" y="87.4883"/><text fill="#000000" font-family="sans-serif" font-size="14" lengthAdjust="spacing" textLength="103.3252" x="2238.167" y="108.0234">FigureCategory</text><rect fill="#E3E3E3" height="30.4883" rx="2.5" ry="2.5" style="stroke:#181818;stroke-width:0.5;" width="117.3252" x="2231.167" y="1181.2676"/><text fill="#000000" font-family="sans-serif" font-size="14" lengthAdjust="spacing" textLength="103.3252" x="2238.167" y="1201.8027">FigureCategory</text><rect fill="#FFFFFF" height="1043.291" style="stroke:#181818;stroke-width:1.0;" width="10" x="68.2305" y="128.9766"/><rect fill="#FFFFFF" height="1021.9805" style="stroke:#181818;stroke-width:1.0;" width="10" x="335.7808" y="150.2871"/><rect fill="#FFFFFF" height="469.6133" style="stroke:#181818;stroke-width:1.0;" width="10" x="762.4814" y="589.7676"/><rect fill="#FFFFFF" height="322.2383" style="stroke:#181818;stroke-width:1.0;" width="10" x="1001.5264" y="179.5977"/><rect fill="#FFFFFF" height="31.4883" style="stroke:#181818;stroke-width:1.0;" width="10" x="1283.1987" y="218.9082"/><rect fill="#FFFFFF" height="29.3105" style="stroke:#181818;stroke-width:1.0;" width="10" x="1283.1987" y="619.0781"/><rect fill="#FFFFFF" height="222.1289" style="stroke:#181818;stroke-width:1.0;" width="10" x="1458.8369" y="250.3965"/><rect fill="#FFFFFF" height="352.3711" style="stroke:#181818;stroke-width:1.0;" width="10" x="1458.8369" y="677.6992"/><rect fill="#FFFFFF" height="29.3105" style="stroke:#181818;stroke-width:1.0;" width="10" x="1691.9346" y="333.3281"/><rect fill="#FFFFFF" height="87.9316" style="stroke:#181818;stroke-width:1.0;" width="10" x="1691.9346" y="731.3203"/><rect fill="#FFFFFF" height="29.3105" style="stroke:#181818;stroke-width:1.0;" width="10" x="1914.8262" y="406.9043"/><rect fill="#FFFFFF" height="130.2422" style="stroke:#181818;stroke-width:1.0;" width="10" x="1914.8262" y="863.5176"/><rect fill="#FFFFFF" height="29.3105" style="stroke:#181818;stroke-width:1.0;" width="10" x="2284.8296" y="760.6309"/><rect fill="#FFFFFF" height="29.3105" style="stroke:#181818;stroke-width:1.0;" width="10" x="2284.8296" y="935.1387"/><polygon fill="#181818" points="323.7808,146.2871,333.7808,150.2871,323.7808,154.2871,327.7808,150.2871" style="stroke:#181818;stroke-width:1.0;"/><line style="stroke:#181818;stroke-width:1.0;" x1="78.2305" x2="329.7808" y1="150.2871" y2="150.2871"/><text fill="#000000" font-family="sans-serif" font-size="13" font-weight="bold" lengthAdjust="spacing" textLength="8.5757" x="85.2305" y="145.5449">1</text><text fill="#000000" font-family="sans-serif" font-size="13" lengthAdjust="spacing" textLength="208.127" x="97.8062" y="145.5449">request to edit a Figure Category</text><polygon fill="#181818" points="989.5264,175.5977,999.5264,179.5977,989.5264,183.5977,993.5264,179.5977" style="stroke:#181818;stroke-width:1.0;"/><line style="stroke:#181818;stroke-width:1.0;" x1="345.7808" x2="995.5264" y1="179.5977" y2="179.5977"/><text fill="#000000" font-family="sans-serif" font-size="13" font-weight="bold" lengthAdjust="spacing" textLength="8.5757" x="352.7808" y="174.8555">2</text><text fill="#000000" font-family="sans-serif" font-size="13" lengthAdjust="spacing" textLength="151.9312" x="365.3564" y="174.8555">getAllFigureCategories()</text><polygon fill="#181818" points="1205.2861,204.9082,1215.2861,208.9082,1205.2861,212.9082,1209.2861,208.9082" style="stroke:#181818;stroke-width:1.0;"/><line style="stroke:#181818;stroke-width:1.0;" x1="1011.5264" x2="1211.2861" y1="208.9082" y2="208.9082"/><text fill="#000000" font-family="sans-serif" font-size="13" font-weight="bold" lengthAdjust="spacing" textLength="8.5757" x="1018.5264" y="204.166">3</text><text fill="#000000" font-family="sans-serif" font-size="13" lengthAdjust="spacing" textLength="169.1841" x="1031.1021" y="204.166">figureCategoryRepository()</text><rect fill="#E3E3E3" height="30.4883" rx="2.5" ry="2.5" style="stroke:#181818;stroke-width:0.5;" width="141.8252" x="1217.2861" y="187.5977"/><text fill="#000000" font-family="sans-serif" font-size="14" lengthAdjust="spacing" textLength="127.8252" x="1224.2861" y="208.1328">RepositoryProvider</text><polygon fill="#181818" points="1022.5264,246.3965,1012.5264,250.3965,1022.5264,254.3965,1018.5264,250.3965" style="stroke:#181818;stroke-width:1.0;"/><line style="stroke:#181818;stroke-width:1.0;stroke-dasharray:2.0,2.0;" x1="1016.5264" x2="1287.1987" y1="250.3965" y2="250.3965"/><text fill="#000000" font-family="sans-serif" font-size="13" font-weight="bold" lengthAdjust="spacing" textLength="8.5757" x="1028.5264" y="245.6543">4</text><text fill="#000000" font-family="sans-serif" font-size="13" lengthAdjust="spacing" textLength="162.9189" x="1041.1021" y="245.6543">FigureCategoryRepository</text><polygon fill="#181818" points="1446.8369,275.707,1456.8369,279.707,1446.8369,283.707,1450.8369,279.707" style="stroke:#181818;stroke-width:1.0;"/><line style="stroke:#181818;stroke-width:1.0;" x1="1011.5264" x2="1452.8369" y1="279.707" y2="279.707"/><text fill="#000000" font-family="sans-serif" font-size="13" font-weight="bold" lengthAdjust="spacing" textLength="8.5757" x="1018.5264" y="274.9648">5</text><text fill="#000000" font-family="sans-serif" font-size="13" lengthAdjust="spacing" textLength="49.7275" x="1031.1021" y="274.9648">findAll()</text><path d="M1359.1113,294.707 L1421.25,294.707 L1421.25,302.0176 L1411.25,312.0176 L1359.1113,312.0176 L1359.1113,294.707 " fill="#EEEEEE" style="stroke:#000000;stroke-width:1.5;"/><rect fill="none" height="149.5078" style="stroke:#000000;stroke-width:1.5;" width="655.2344" x="1359.1113" y="294.707"/><text fill="#000000" font-family="sans-serif" font-size="13" font-weight="bold" lengthAdjust="spacing" textLength="17.1387" x="1374.1113" y="308.2754">alt</text><text fill="#000000" font-family="sans-serif" font-size="11" font-weight="bold" lengthAdjust="spacing" textLength="247.4517" x="1436.25" y="307.3418">[using InMemoryFigureCategoryRepository]</text><polygon fill="#181818" points="1679.9346,329.3281,1689.9346,333.3281,1679.9346,337.3281,1683.9346,333.3281" style="stroke:#181818;stroke-width:1.0;"/><line style="stroke:#181818;stroke-width:1.0;" x1="1468.8369" x2="1685.9346" y1="333.3281" y2="333.3281"/><text fill="#000000" font-family="sans-serif" font-size="13" font-weight="bold" lengthAdjust="spacing" textLength="8.5757" x="1475.8369" y="328.5859">6</text><text fill="#000000" font-family="sans-serif" font-size="13" lengthAdjust="spacing" textLength="49.7275" x="1488.4126" y="328.5859">findAll()</text><polygon fill="#181818" points="1479.8369,358.6387,1469.8369,362.6387,1479.8369,366.6387,1475.8369,362.6387" style="stroke:#181818;stroke-width:1.0;"/><line style="stroke:#181818;stroke-width:1.0;stroke-dasharray:2.0,2.0;" x1="1473.8369" x2="1695.9346" y1="362.6387" y2="362.6387"/><text fill="#000000" font-family="sans-serif" font-size="13" font-weight="bold" lengthAdjust="spacing" textLength="8.5757" x="1485.8369" y="357.8965">7</text><text fill="#000000" font-family="sans-serif" font-size="13" lengthAdjust="spacing" textLength="138.7915" x="1498.4126" y="357.8965">List&lt;FigureCategory&gt;</text><line style="stroke:#000000;stroke-width:1.0;stroke-dasharray:2.0,2.0;" x1="1359.1113" x2="2014.3457" y1="371.6387" y2="371.6387"/><text fill="#000000" font-family="sans-serif" font-size="11" font-weight="bold" lengthAdjust="spacing" textLength="174.6304" x="1364.1113" y="382.2734">[using FigureCategoryJPAImpl]</text><polygon fill="#181818" points="1902.8262,402.9043,1912.8262,406.9043,1902.8262,410.9043,1906.8262,406.9043" style="stroke:#181818;stroke-width:1.0;"/><line style="stroke:#181818;stroke-width:1.0;" x1="1468.8369" x2="1908.8262" y1="406.9043" y2="406.9043"/><text fill="#000000" font-family="sans-serif" font-size="13" font-weight="bold" lengthAdjust="spacing" textLength="8.5757" x="1475.8369" y="402.1621">8</text><text fill="#000000" font-family="sans-serif" font-size="13" lengthAdjust="spacing" textLength="49.7275" x="1488.4126" y="402.1621">findAll()</text><polygon fill="#181818" points="1479.8369,432.2148,1469.8369,436.2148,1479.8369,440.2148,1475.8369,436.2148" style="stroke:#181818;stroke-width:1.0;"/><line style="stroke:#181818;stroke-width:1.0;stroke-dasharray:2.0,2.0;" x1="1473.8369" x2="1918.8262" y1="436.2148" y2="436.2148"/><text fill="#000000" font-family="sans-serif" font-size="13" font-weight="bold" lengthAdjust="spacing" textLength="8.5757" x="1485.8369" y="431.4727">9</text><text fill="#000000" font-family="sans-serif" font-size="13" lengthAdjust="spacing" textLength="138.7915" x="1498.4126" y="431.4727">List&lt;FigureCategory&gt;</text><polygon fill="#181818" points="1022.5264,468.5254,1012.5264,472.5254,1022.5264,476.5254,1018.5264,472.5254" style="stroke:#181818;stroke-width:1.0;"/><line style="stroke:#181818;stroke-width:1.0;" x1="1016.5264" x2="1462.8369" y1="472.5254" y2="472.5254"/><text fill="#000000" font-family="sans-serif" font-size="13" font-weight="bold" lengthAdjust="spacing" textLength="17.1514" x="1028.5264" y="467.7832">10</text><text fill="#000000" font-family="sans-serif" font-size="13" lengthAdjust="spacing" textLength="213.3511" x="1049.6777" y="467.7832">Optional&lt;List&lt;FigureCategory&gt;&gt;</text><polygon fill="#181818" points="356.7808,497.8359,346.7808,501.8359,356.7808,505.8359,352.7808,501.8359" style="stroke:#181818;stroke-width:1.0;"/><line style="stroke:#181818;stroke-width:1.0;stroke-dasharray:2.0,2.0;" x1="350.7808" x2="1005.5264" y1="501.8359" y2="501.8359"/><text fill="#000000" font-family="sans-serif" font-size="13" font-weight="bold" lengthAdjust="spacing" textLength="17.1514" x="362.7808" y="497.0938">11</text><text fill="#000000" font-family="sans-serif" font-size="13" lengthAdjust="spacing" textLength="213.3511" x="383.9321" y="497.0938">Optional&lt;List&lt;FigureCategory&gt;&gt;</text><polygon fill="#181818" points="89.2305,527.1465,79.2305,531.1465,89.2305,535.1465,85.2305,531.1465" style="stroke:#181818;stroke-width:1.0;"/><line style="stroke:#181818;stroke-width:1.0;" x1="83.2305" x2="334.7808" y1="531.1465" y2="531.1465"/><text fill="#000000" font-family="sans-serif" font-size="13" font-weight="bold" lengthAdjust="spacing" textLength="17.1514" x="95.2305" y="526.4043">12</text><text fill="#000000" font-family="sans-serif" font-size="13" lengthAdjust="spacing" textLength="201.7666" x="116.3818" y="526.4043">show categories to choose from</text><polygon fill="#181818" points="323.7808,556.457,333.7808,560.457,323.7808,564.457,327.7808,560.457" style="stroke:#181818;stroke-width:1.0;"/><line style="stroke:#181818;stroke-width:1.0;" x1="78.2305" x2="329.7808" y1="560.457" y2="560.457"/><text fill="#000000" font-family="sans-serif" font-size="13" font-weight="bold" lengthAdjust="spacing" textLength="17.1514" x="85.2305" y="555.7148">13</text><text fill="#000000" font-family="sans-serif" font-size="13" lengthAdjust="spacing" textLength="212.3989" x="106.3818" y="555.7148">selects category and fields to edit</text><polygon fill="#181818" points="750.4814,585.7676,760.4814,589.7676,750.4814,593.7676,754.4814,589.7676" style="stroke:#181818;stroke-width:1.0;"/><line style="stroke:#181818;stroke-width:1.0;" x1="345.7808" x2="756.4814" y1="589.7676" y2="589.7676"/><text fill="#000000" font-family="sans-serif" font-size="13" font-weight="bold" lengthAdjust="spacing" textLength="17.1514" x="352.7808" y="585.0254">14</text><text fill="#000000" font-family="sans-serif" font-size="13" lengthAdjust="spacing" textLength="376.5493" x="373.9321" y="585.0254">editChosenCategory(category, newName?, newDescription?)</text><polygon fill="#181818" points="1271.1987,615.0781,1281.1987,619.0781,1271.1987,623.0781,1275.1987,619.0781" style="stroke:#181818;stroke-width:1.0;"/><line style="stroke:#181818;stroke-width:1.0;" x1="772.4814" x2="1277.1987" y1="619.0781" y2="619.0781"/><text fill="#000000" font-family="sans-serif" font-size="13" font-weight="bold" lengthAdjust="spacing" textLength="17.1514" x="779.4814" y="614.3359">15</text><text fill="#000000" font-family="sans-serif" font-size="13" lengthAdjust="spacing" textLength="169.1841" x="800.6328" y="614.3359">figureCategoryRepository()</text><polygon fill="#181818" points="783.4814,644.3887,773.4814,648.3887,783.4814,652.3887,779.4814,648.3887" style="stroke:#181818;stroke-width:1.0;"/><line style="stroke:#181818;stroke-width:1.0;stroke-dasharray:2.0,2.0;" x1="777.4814" x2="1287.1987" y1="648.3887" y2="648.3887"/><text fill="#000000" font-family="sans-serif" font-size="13" font-weight="bold" lengthAdjust="spacing" textLength="17.1514" x="789.4814" y="643.6465">16</text><text fill="#000000" font-family="sans-serif" font-size="13" lengthAdjust="spacing" textLength="162.9189" x="810.6328" y="643.6465">FigureCategoryRepository</text><polygon fill="#181818" points="1446.8369,673.6992,1456.8369,677.6992,1446.8369,681.6992,1450.8369,677.6992" style="stroke:#181818;stroke-width:1.0;"/><line style="stroke:#181818;stroke-width:1.0;" x1="772.4814" x2="1452.8369" y1="677.6992" y2="677.6992"/><text fill="#000000" font-family="sans-serif" font-size="13" font-weight="bold" lengthAdjust="spacing" textLength="17.1514" x="779.4814" y="672.957">17</text><text fill="#000000" font-family="sans-serif" font-size="13" lengthAdjust="spacing" textLength="376.5493" x="800.6328" y="672.957">editChosenCategory(category, newName?, newDescription?)</text><path d="M1359.1113,692.6992 L1421.25,692.6992 L1421.25,700.0098 L1411.25,710.0098 L1359.1113,710.0098 L1359.1113,692.6992 " fill="#EEEEEE" style="stroke:#000000;stroke-width:1.5;"/><rect fill="none" height="309.0605" style="stroke:#000000;stroke-width:1.5;" width="999.3809" x="1359.1113" y="692.6992"/><text fill="#000000" font-family="sans-serif" font-size="13" font-weight="bold" lengthAdjust="spacing" textLength="17.1387" x="1374.1113" y="706.2676">alt</text><text fill="#000000" font-family="sans-serif" font-size="11" font-weight="bold" lengthAdjust="spacing" textLength="212.3247" x="1436.25" y="705.334">[InMemoryFigureCategoryRepository]</text><polygon fill="#181818" points="1679.9346,727.3203,1689.9346,731.3203,1679.9346,735.3203,1683.9346,731.3203" style="stroke:#181818;stroke-width:1.0;"/><line style="stroke:#181818;stroke-width:1.0;" x1="1468.8369" x2="1685.9346" y1="731.3203" y2="731.3203"/><text fill="#000000" font-family="sans-serif" font-size="13" font-weight="bold" lengthAdjust="spacing" textLength="17.1514" x="1475.8369" y="726.5781">18</text><text fill="#000000" font-family="sans-serif" font-size="13" lengthAdjust="spacing" textLength="135.9668" x="1496.9883" y="726.5781">editChosenCategory()</text><polygon fill="#181818" points="2272.8296,756.6309,2282.8296,760.6309,2272.8296,764.6309,2276.8296,760.6309" style="stroke:#181818;stroke-width:1.0;"/><line style="stroke:#181818;stroke-width:1.0;" x1="1701.9346" x2="2278.8296" y1="760.6309" y2="760.6309"/><text fill="#000000" font-family="sans-serif" font-size="13" font-weight="bold" lengthAdjust="spacing" textLength="17.1514" x="1708.9346" y="755.8887">19</text><text fill="#000000" font-family="sans-serif" font-size="13" lengthAdjust="spacing" textLength="319.8521" x="1730.0859" y="755.8887">changeCategoryNameTo() / changeDescriptionTo()</text><polygon fill="#181818" points="1712.9346,785.9414,1702.9346,789.9414,1712.9346,793.9414,1708.9346,789.9414" style="stroke:#181818;stroke-width:1.0;"/><line style="stroke:#181818;stroke-width:1.0;" x1="1706.9346" x2="2288.8296" y1="789.9414" y2="789.9414"/><text fill="#000000" font-family="sans-serif" font-size="13" font-weight="bold" lengthAdjust="spacing" textLength="17.1514" x="1718.9346" y="785.1992">20</text><text fill="#000000" font-family="sans-serif" font-size="13" lengthAdjust="spacing" textLength="95.9448" x="1740.0859" y="785.1992">FigureCategory</text><polygon fill="#181818" points="1479.8369,815.252,1469.8369,819.252,1479.8369,823.252,1475.8369,819.252" style="stroke:#181818;stroke-width:1.0;"/><line style="stroke:#181818;stroke-width:1.0;stroke-dasharray:2.0,2.0;" x1="1473.8369" x2="1695.9346" y1="819.252" y2="819.252"/><text fill="#000000" font-family="sans-serif" font-size="13" font-weight="bold" lengthAdjust="spacing" textLength="17.1514" x="1485.8369" y="814.5098">21</text><text fill="#000000" font-family="sans-serif" font-size="13" lengthAdjust="spacing" textLength="170.5044" x="1506.9883" y="814.5098">Optional&lt;FigureCategory&gt;</text><line style="stroke:#000000;stroke-width:1.0;stroke-dasharray:2.0,2.0;" x1="1359.1113" x2="2358.4922" y1="828.252" y2="828.252"/><text fill="#000000" font-family="sans-serif" font-size="11" font-weight="bold" lengthAdjust="spacing" textLength="139.5034" x="1364.1113" y="838.8867">[FigureCategoryJPAImpl]</text><polygon fill="#181818" points="1902.8262,859.5176,1912.8262,863.5176,1902.8262,867.5176,1906.8262,863.5176" style="stroke:#181818;stroke-width:1.0;"/><line style="stroke:#181818;stroke-width:1.0;" x1="1468.8369" x2="1908.8262" y1="863.5176" y2="863.5176"/><text fill="#000000" font-family="sans-serif" font-size="13" font-weight="bold" lengthAdjust="spacing" textLength="17.1514" x="1475.8369" y="858.7754">22</text><text fill="#000000" font-family="sans-serif" font-size="13" lengthAdjust="spacing" textLength="135.9668" x="1496.9883" y="858.7754">editChosenCategory()</text><line style="stroke:#181818;stroke-width:1.0;" x1="1924.8262" x2="1966.8262" y1="892.8281" y2="892.8281"/><line style="stroke:#181818;stroke-width:1.0;" x1="1966.8262" x2="1966.8262" y1="892.8281" y2="905.8281"/><line style="stroke:#181818;stroke-width:1.0;" x1="1925.8262" x2="1966.8262" y1="905.8281" y2="905.8281"/><polygon fill="#181818" points="1935.8262,901.8281,1925.8262,905.8281,1935.8262,909.8281,1931.8262,905.8281" style="stroke:#181818;stroke-width:1.0;"/><text fill="#000000" font-family="sans-serif" font-size="13" font-weight="bold" lengthAdjust="spacing" textLength="17.1514" x="1931.8262" y="888.0859">23</text><text fill="#000000" font-family="sans-serif" font-size="13" lengthAdjust="spacing" textLength="135.6875" x="1952.9775" y="888.0859">entityManager().find()</text><polygon fill="#181818" points="2272.8296,931.1387,2282.8296,935.1387,2272.8296,939.1387,2276.8296,935.1387" style="stroke:#181818;stroke-width:1.0;"/><line style="stroke:#181818;stroke-width:1.0;" x1="1924.8262" x2="2278.8296" y1="935.1387" y2="935.1387"/><text fill="#000000" font-family="sans-serif" font-size="13" font-weight="bold" lengthAdjust="spacing" textLength="17.1514" x="1931.8262" y="930.3965">24</text><text fill="#000000" font-family="sans-serif" font-size="13" lengthAdjust="spacing" textLength="319.8521" x="1952.9775" y="930.3965">changeCategoryNameTo() / changeDescriptionTo()</text><polygon fill="#181818" points="1935.8262,960.4492,1925.8262,964.4492,1935.8262,968.4492,1931.8262,964.4492" style="stroke:#181818;stroke-width:1.0;"/><line style="stroke:#181818;stroke-width:1.0;" x1="1929.8262" x2="2288.8296" y1="964.4492" y2="964.4492"/><text fill="#000000" font-family="sans-serif" font-size="13" font-weight="bold" lengthAdjust="spacing" textLength="17.1514" x="1941.8262" y="959.707">25</text><text fill="#000000" font-family="sans-serif" font-size="13" lengthAdjust="spacing" textLength="95.9448" x="1962.9775" y="959.707">FigureCategory</text><polygon fill="#181818" points="1479.8369,989.7598,1469.8369,993.7598,1479.8369,997.7598,1475.8369,993.7598" style="stroke:#181818;stroke-width:1.0;"/><line style="stroke:#181818;stroke-width:1.0;stroke-dasharray:2.0,2.0;" x1="1473.8369" x2="1918.8262" y1="993.7598" y2="993.7598"/><text fill="#000000" font-family="sans-serif" font-size="13" font-weight="bold" lengthAdjust="spacing" textLength="17.1514" x="1485.8369" y="989.0176">26</text><text fill="#000000" font-family="sans-serif" font-size="13" lengthAdjust="spacing" textLength="170.5044" x="1506.9883" y="989.0176">Optional&lt;FigureCategory&gt;</text><polygon fill="#181818" points="783.4814,1026.0703,773.4814,1030.0703,783.4814,1034.0703,779.4814,1030.0703" style="stroke:#181818;stroke-width:1.0;"/><line style="stroke:#181818;stroke-width:1.0;" x1="777.4814" x2="1462.8369" y1="1030.0703" y2="1030.0703"/><text fill="#000000" font-family="sans-serif" font-size="13" font-weight="bold" lengthAdjust="spacing" textLength="17.1514" x="789.4814" y="1025.3281">27</text><text fill="#000000" font-family="sans-serif" font-size="13" lengthAdjust="spacing" textLength="170.5044" x="810.6328" y="1025.3281">Optional&lt;FigureCategory&gt;</text><polygon fill="#181818" points="356.7808,1055.3809,346.7808,1059.3809,356.7808,1063.3809,352.7808,1059.3809" style="stroke:#181818;stroke-width:1.0;"/><line style="stroke:#181818;stroke-width:1.0;stroke-dasharray:2.0,2.0;" x1="350.7808" x2="766.4814" y1="1059.3809" y2="1059.3809"/><text fill="#000000" font-family="sans-serif" font-size="13" font-weight="bold" lengthAdjust="spacing" textLength="17.1514" x="362.7808" y="1054.6387">28</text><text fill="#000000" font-family="sans-serif" font-size="13" lengthAdjust="spacing" textLength="170.5044" x="383.9321" y="1054.6387">Optional&lt;FigureCategory&gt;</text><path d="M10,1074.3809 L72.1387,1074.3809 L72.1387,1081.6914 L62.1387,1091.6914 L10,1091.6914 L10,1074.3809 " fill="#EEEEEE" style="stroke:#000000;stroke-width:1.5;"/><rect fill="none" height="90.8867" style="stroke:#000000;stroke-width:1.5;" width="421.3662" x="10" y="1074.3809"/><text fill="#000000" font-family="sans-serif" font-size="13" font-weight="bold" lengthAdjust="spacing" textLength="17.1387" x="25" y="1087.9492">alt</text><text fill="#000000" font-family="sans-serif" font-size="11" font-weight="bold" lengthAdjust="spacing" textLength="52.1909" x="87.1387" y="1087.0156">[success]</text><polygon fill="#181818" points="89.2305,1109.002,79.2305,1113.002,89.2305,1117.002,85.2305,1113.002" style="stroke:#181818;stroke-width:1.0;"/><line style="stroke:#181818;stroke-width:1.0;" x1="83.2305" x2="334.7808" y1="1113.002" y2="1113.002"/><text fill="#000000" font-family="sans-serif" font-size="13" font-weight="bold" lengthAdjust="spacing" textLength="17.1514" x="95.2305" y="1108.2598">29</text><text fill="#000000" font-family="sans-serif" font-size="13" lengthAdjust="spacing" textLength="107.7832" x="116.3818" y="1108.2598">success message</text><line style="stroke:#000000;stroke-width:1.0;stroke-dasharray:2.0,2.0;" x1="10" x2="431.3662" y1="1122.002" y2="1122.002"/><text fill="#000000" font-family="sans-serif" font-size="11" font-weight="bold" lengthAdjust="spacing" textLength="45.0044" x="15" y="1132.6367">[failure]</text><polygon fill="#181818" points="89.2305,1153.2676,79.2305,1157.2676,89.2305,1161.2676,85.2305,1157.2676" style="stroke:#181818;stroke-width:1.0;"/><line style="stroke:#181818;stroke-width:1.0;" x1="83.2305" x2="334.7808" y1="1157.2676" y2="1157.2676"/><text fill="#000000" font-family="sans-serif" font-size="13" font-weight="bold" lengthAdjust="spacing" textLength="17.1514" x="95.2305" y="1152.5254">30</text><text fill="#000000" font-family="sans-serif" font-size="13" lengthAdjust="spacing" textLength="90.4604" x="116.3818" y="1152.5254">error message</text><!--SRC=[fLR1JkCm4BtdAonEBThktYjKX5fO5S4k8l019fac5ewTjLrG_tx7JfpOQKeBz50bphpdySoyb-XN9cggQ4KgAMHMAba1CMeBYUwUr3HxfGMaPiU1ACWC5GKF0tH9S_dEH44sb6j84iCCXZwlIGh_jY0o82j62niwITFLbCp8TSuCkM75LW5PKWE5LBiaeLiZnRPw0ONNcP6AdAMbV2ShqAmGeCu8rIHT9RYjOHchgJ3aR6wv6YhFzBnsaS_hev5BAOoIdBVSowV7km7cDvWhpYCK0pt0tO39ogLHF0O_GYqrmtFi7fHyOtaRxM_Yu3Yn7keWzZOENujxgF3nXp0Nj8-DCRSFL-kgvWvmMzDZuIxkMc2FiMEkJ-mD7zc-f2ioMzY-pt5EiFFQ42C9s5xJlMvtG6nJWXX4TcL4WcAqxfDfZ-kBdlH0PF7bFJz7cis1yeH4NJ_y1PaDaZbKv2I7VPQW9gwMKN9snQKbSZmUPf5GRiXMM_KSQsb2yES8aAXhRSHc8xhT- -wxzHunwnEvOzfSn1ikN7Hmifu7KDvjigCp56NOpjBX_FomkLKV_SdSF0U870llj-vAFYT_QyEaeFnYZ6qHDh399MoN7-RJEOAPR4OQ9J57WqGJoxeXjgB8IYcnbXiqt2JKZGQE3gjzz8vGaMFzWEVQQwbbjbw50BkoB95B-8mc7lk327Z_GokuT5VeefbYxYYNmVGxpqiSMo2URqcdJUrpgl4PjCt_zhcQTbfrVLbN8pcSBB55wv58avNunkpsjOa_oScK_6eV1FdRzNW3RxHsiIKS91cVQgYF43zg0Dri3uNcj7vOvQF-C2x_usNqAewC8A9mnxYd0Zz4r6JwqpfAInB4VxNYfvIyp-MaWX-mj8FL_i3MmgAsoZgLffdCHbbxPZR41hZ64wnsz3RBG6j773fQiqmg_CEMDCEoeOmZup0MbC8lkIxI6dMm5RxzWxjqzHy0]--></g></svg>