<svg xmlns="http://www.w3.org/2000/svg" xmlns:xlink="http://www.w3.org/1999/xlink" contentStyleType="text/css" height="1086px" preserveAspectRatio="none" style="width:2534px;height:1086px;background:#FFFFFF;" version="1.1" viewBox="0 0 2534 1086" width="2534px" zoomAndPan="magnify"><title>UI Sequence Diagram (SSD) - Register Proposal Template</title><defs/><g><text fill="#000000" font-family="sans-serif" font-size="14" font-weight="bold" lengthAdjust="spacing" textLength="412.6719" x="1067.9885" y="28.5352">UI Sequence Diagram (SSD) - Register Proposal Template</text><rect fill="#FFFFFF" height="351.7266" style="stroke:#181818;stroke-width:1.0;" width="10" x="64.7476" y="128.9766"/><rect fill="#FFFFFF" height="330.416" style="stroke:#181818;stroke-width:1.0;" width="10" x="385.4233" y="150.2871"/><rect fill="#FFFFFF" height="112.8867" style="stroke:#181818;stroke-width:1.0;" width="10" x="385.4233" y="882.3848"/><rect fill="#FFFFFF" height="585.5449" style="stroke:#181818;stroke-width:1.0;" width="10" x="860.29" y="296.8398"/><rect fill="#FFFFFF" height="29.3105" style="stroke:#181818;stroke-width:1.0;" width="10" x="1099.9126" y="517.0137"/><rect fill="#FFFFFF" height="277.4395" style="stroke:#181818;stroke-width:1.0;" width="10" x="1284.7588" y="575.6348"/><rect fill="#FFFFFF" height="71.6211" style="stroke:#181818;stroke-width:1.0;" width="10" x="1536.2725" y="629.2559"/><rect fill="#FFFFFF" height="71.6211" style="stroke:#181818;stroke-width:1.0;" width="10" x="1806.2793" y="745.1426"/><rect fill="#FFFFFF" height="71.6211" style="stroke:#181818;stroke-width:1.0;" width="10" x="2226.5967" y="326.1504"/><rect fill="none" height="75.9316" style="stroke:#000000;stroke-width:1.5;" width="997.1211" x="10" y="412.7715"/><rect fill="none" height="234.1289" style="stroke:#000000;stroke-width:1.5;" width="916.0425" x="1175.8252" y="590.6348"/><rect fill="none" height="90.8867" style="stroke:#000000;stroke-width:1.5;" width="495.0405" x="10" y="897.3848"/><line style="stroke:#181818;stroke-width:0.5;stroke-dasharray:5.0,5.0;" x1="69" x2="69" y1="118.9766" y2="1005.2715"/><line style="stroke:#181818;stroke-width:0.5;stroke-dasharray:5.0,5.0;" x1="389.8062" x2="389.8062" y1="118.9766" y2="1005.2715"/><line style="stroke:#181818;stroke-width:0.5;stroke-dasharray:5.0,5.0;" x1="864.459" x2="864.459" y1="118.9766" y2="1005.2715"/><line style="stroke:#181818;stroke-width:0.5;stroke-dasharray:5.0,5.0;" x1="1104" x2="1104" y1="118.9766" y2="1005.2715"/><line style="stroke:#181818;stroke-width:0.5;stroke-dasharray:5.0,5.0;" x1="1288.8252" x2="1288.8252" y1="118.9766" y2="1005.2715"/><line style="stroke:#181818;stroke-width:0.5;stroke-dasharray:5.0,5.0;" x1="1540.6924" x2="1540.6924" y1="118.9766" y2="1005.2715"/><line style="stroke:#181818;stroke-width:0.5;stroke-dasharray:5.0,5.0;" x1="1810.5518" x2="1810.5518" y1="118.9766" y2="1005.2715"/><line style="stroke:#181818;stroke-width:0.5;stroke-dasharray:5.0,5.0;" x1="2090.9971" x2="2090.9971" y1="118.9766" y2="1005.2715"/><line style="stroke:#181818;stroke-width:0.5;stroke-dasharray:5.0,5.0;" x1="2230.7383" x2="2230.7383" y1="118.9766" y2="1005.2715"/><text fill="#000000" font-family="sans-serif" font-size="14" lengthAdjust="spacing" textLength="93.4951" x="20" y="116.0234">CRM Manager</text><ellipse cx="69.7476" cy="50.9883" fill="#E3E3E3" rx="8" ry="8" style="stroke:#181818;stroke-width:0.5;"/><path d="M69.7476,58.9883 L69.7476,85.9883 M56.7476,66.9883 L82.7476,66.9883 M69.7476,85.9883 L56.7476,100.9883 M69.7476,85.9883 L82.7476,100.9883 " fill="none" style="stroke:#181818;stroke-width:0.5;"/><text fill="#000000" font-family="sans-serif" font-size="14" lengthAdjust="spacing" textLength="93.4951" x="20" y="1017.8066">CRM Manager</text><ellipse cx="69.7476" cy="1029.2598" fill="#E3E3E3" rx="8" ry="8" style="stroke:#181818;stroke-width:0.5;"/><path d="M69.7476,1037.2598 L69.7476,1064.2598 M56.7476,1045.2598 L82.7476,1045.2598 M69.7476,1064.2598 L56.7476,1079.2598 M69.7476,1064.2598 L82.7476,1079.2598 " fill="none" style="stroke:#181818;stroke-width:0.5;"/><rect fill="#E3E3E3" height="30.4883" rx="2.5" ry="2.5" style="stroke:#181818;stroke-width:0.5;" width="209.2344" x="285.8062" y="87.4883"/><text fill="#000000" font-family="sans-serif" font-size="14" lengthAdjust="spacing" textLength="195.2344" x="292.8062" y="108.0234">:RegisterProposalTemplateUI</text><rect fill="#E3E3E3" height="30.4883" rx="2.5" ry="2.5" style="stroke:#181818;stroke-width:0.5;" width="209.2344" x="285.8062" y="1004.2715"/><text fill="#000000" font-family="sans-serif" font-size="14" lengthAdjust="spacing" textLength="195.2344" x="292.8062" y="1024.8066">:RegisterProposalTemplateUI</text><rect fill="#E3E3E3" height="30.4883" rx="2.5" ry="2.5" style="stroke:#181818;stroke-width:0.5;" width="263.6621" x="733.459" y="87.4883"/><text fill="#000000" font-family="sans-serif" font-size="14" lengthAdjust="spacing" textLength="249.6621" x="740.459" y="108.0234">:RegisterProposalTemplateController</text><rect fill="#E3E3E3" height="30.4883" rx="2.5" ry="2.5" style="stroke:#181818;stroke-width:0.5;" width="263.6621" x="733.459" y="1004.2715"/><text fill="#000000" font-family="sans-serif" font-size="14" lengthAdjust="spacing" textLength="249.6621" x="740.459" y="1024.8066">:RegisterProposalTemplateController</text><rect fill="#E3E3E3" height="30.4883" rx="2.5" ry="2.5" style="stroke:#181818;stroke-width:0.5;" width="141.8252" x="1034" y="87.4883"/><text fill="#000000" font-family="sans-serif" font-size="14" lengthAdjust="spacing" textLength="127.8252" x="1041" y="108.0234">RepositoryProvider</text><rect fill="#E3E3E3" height="30.4883" rx="2.5" ry="2.5" style="stroke:#181818;stroke-width:0.5;" width="141.8252" x="1034" y="1004.2715"/><text fill="#000000" font-family="sans-serif" font-size="14" lengthAdjust="spacing" textLength="127.8252" x="1041" y="1024.8066">RepositoryProvider</text><rect fill="#E3E3E3" height="30.4883" rx="2.5" ry="2.5" style="stroke:#181818;stroke-width:0.5;" width="207.8672" x="1185.8252" y="87.4883"/><text fill="#000000" font-family="sans-serif" font-size="14" lengthAdjust="spacing" textLength="193.8672" x="1192.8252" y="108.0234">ProposalTemplateRepository</text><rect fill="#E3E3E3" height="30.4883" rx="2.5" ry="2.5" style="stroke:#181818;stroke-width:0.5;" width="207.8672" x="1185.8252" y="1004.2715"/><text fill="#000000" font-family="sans-serif" font-size="14" lengthAdjust="spacing" textLength="193.8672" x="1192.8252" y="1024.8066">ProposalTemplateRepository</text><rect fill="#E3E3E3" height="30.4883" rx="2.5" ry="2.5" style="stroke:#181818;stroke-width:0.5;" width="275.1602" x="1403.6924" y="87.4883"/><text fill="#000000" font-family="sans-serif" font-size="14" lengthAdjust="spacing" textLength="261.1602" x="1410.6924" y="108.0234">InMemoryProposalTemplateRepository</text><rect fill="#E3E3E3" height="30.4883" rx="2.5" ry="2.5" style="stroke:#181818;stroke-width:0.5;" width="275.1602" x="1403.6924" y="1004.2715"/><text fill="#000000" font-family="sans-serif" font-size="14" lengthAdjust="spacing" textLength="261.1602" x="1410.6924" y="1024.8066">InMemoryProposalTemplateRepository</text><rect fill="#E3E3E3" height="30.4883" rx="2.5" ry="2.5" style="stroke:#181818;stroke-width:0.5;" width="187.4551" x="1717.5518" y="87.4883"/><text fill="#000000" font-family="sans-serif" font-size="14" lengthAdjust="spacing" textLength="173.4551" x="1724.5518" y="108.0234">ProposalTemplateJPAImpl</text><rect fill="#E3E3E3" height="30.4883" rx="2.5" ry="2.5" style="stroke:#181818;stroke-width:0.5;" width="187.4551" x="1717.5518" y="1004.2715"/><text fill="#000000" font-family="sans-serif" font-size="14" lengthAdjust="spacing" textLength="173.4551" x="1724.5518" y="1024.8066">ProposalTemplateJPAImpl</text><rect fill="#E3E3E3" height="30.4883" rx="2.5" ry="2.5" style="stroke:#181818;stroke-width:0.5;" width="135.7412" x="2023.9971" y="87.4883"/><text fill="#000000" font-family="sans-serif" font-size="14" lengthAdjust="spacing" textLength="121.7412" x="2030.9971" y="108.0234">ProposalTemplate</text><rect fill="#E3E3E3" height="30.4883" rx="2.5" ry="2.5" style="stroke:#181818;stroke-width:0.5;" width="135.7412" x="2023.9971" y="1004.2715"/><text fill="#000000" font-family="sans-serif" font-size="14" lengthAdjust="spacing" textLength="121.7412" x="2030.9971" y="1024.8066">ProposalTemplate</text><rect fill="#E3E3E3" height="30.4883" rx="2.5" ry="2.5" style="stroke:#181818;stroke-width:0.5;" width="123.7168" x="2169.7383" y="87.4883"/><text fill="#000000" font-family="sans-serif" font-size="14" lengthAdjust="spacing" textLength="109.7168" x="2176.7383" y="108.0234">:TemplatePlugin</text><rect fill="#E3E3E3" height="30.4883" rx="2.5" ry="2.5" style="stroke:#181818;stroke-width:0.5;" width="123.7168" x="2169.7383" y="1004.2715"/><text fill="#000000" font-family="sans-serif" font-size="14" lengthAdjust="spacing" textLength="109.7168" x="2176.7383" y="1024.8066">:TemplatePlugin</text><rect fill="#FFFFFF" height="351.7266" style="stroke:#181818;stroke-width:1.0;" width="10" x="64.7476" y="128.9766"/><rect fill="#FFFFFF" height="330.416" style="stroke:#181818;stroke-width:1.0;" width="10" x="385.4233" y="150.2871"/><rect fill="#FFFFFF" height="112.8867" style="stroke:#181818;stroke-width:1.0;" width="10" x="385.4233" y="882.3848"/><rect fill="#FFFFFF" height="585.5449" style="stroke:#181818;stroke-width:1.0;" width="10" x="860.29" y="296.8398"/><rect fill="#FFFFFF" height="29.3105" style="stroke:#181818;stroke-width:1.0;" width="10" x="1099.9126" y="517.0137"/><rect fill="#FFFFFF" height="277.4395" style="stroke:#181818;stroke-width:1.0;" width="10" x="1284.7588" y="575.6348"/><rect fill="#FFFFFF" height="71.6211" style="stroke:#181818;stroke-width:1.0;" width="10" x="1536.2725" y="629.2559"/><rect fill="#FFFFFF" height="71.6211" style="stroke:#181818;stroke-width:1.0;" width="10" x="1806.2793" y="745.1426"/><rect fill="#FFFFFF" height="71.6211" style="stroke:#181818;stroke-width:1.0;" width="10" x="2226.5967" y="326.1504"/><polygon fill="#181818" points="373.4233,146.2871,383.4233,150.2871,373.4233,154.2871,377.4233,150.2871" style="stroke:#181818;stroke-width:1.0;"/><line style="stroke:#181818;stroke-width:1.0;" x1="74.7476" x2="379.4233" y1="150.2871" y2="150.2871"/><text fill="#000000" font-family="sans-serif" font-size="13" font-weight="bold" lengthAdjust="spacing" textLength="8.5757" x="81.7476" y="145.5449">1</text><text fill="#000000" font-family="sans-serif" font-size="13" lengthAdjust="spacing" textLength="279.1001" x="94.3232" y="145.5449">request to register a new Proposal Template</text><polygon fill="#181818" points="85.7476,175.5977,75.7476,179.5977,85.7476,183.5977,81.7476,179.5977" style="stroke:#181818;stroke-width:1.0;"/><line style="stroke:#181818;stroke-width:1.0;" x1="79.7476" x2="384.4233" y1="179.5977" y2="179.5977"/><text fill="#000000" font-family="sans-serif" font-size="13" font-weight="bold" lengthAdjust="spacing" textLength="8.5757" x="91.7476" y="174.8555">2</text><text fill="#000000" font-family="sans-serif" font-size="13" lengthAdjust="spacing" textLength="216.5313" x="104.3232" y="174.8555">prompts for name and description</text><polygon fill="#181818" points="373.4233,204.9082,383.4233,208.9082,373.4233,212.9082,377.4233,208.9082" style="stroke:#181818;stroke-width:1.0;"/><line style="stroke:#181818;stroke-width:1.0;" x1="74.7476" x2="379.4233" y1="208.9082" y2="208.9082"/><text fill="#000000" font-family="sans-serif" font-size="13" font-weight="bold" lengthAdjust="spacing" textLength="8.5757" x="81.7476" y="204.166">3</text><text fill="#000000" font-family="sans-serif" font-size="13" lengthAdjust="spacing" textLength="244.7466" x="94.3232" y="204.166">enters name and description (optional)</text><polygon fill="#181818" points="85.7476,234.2188,75.7476,238.2188,85.7476,242.2188,81.7476,238.2188" style="stroke:#181818;stroke-width:1.0;"/><line style="stroke:#181818;stroke-width:1.0;" x1="79.7476" x2="384.4233" y1="238.2188" y2="238.2188"/><text fill="#000000" font-family="sans-serif" font-size="13" font-weight="bold" lengthAdjust="spacing" textLength="8.5757" x="91.7476" y="233.4766">4</text><text fill="#000000" font-family="sans-serif" font-size="13" lengthAdjust="spacing" textLength="186.9321" x="104.3232" y="233.4766">prompts for template content</text><polygon fill="#181818" points="373.4233,263.5293,383.4233,267.5293,373.4233,271.5293,377.4233,267.5293" style="stroke:#181818;stroke-width:1.0;"/><line style="stroke:#181818;stroke-width:1.0;" x1="74.7476" x2="379.4233" y1="267.5293" y2="267.5293"/><text fill="#000000" font-family="sans-serif" font-size="13" font-weight="bold" lengthAdjust="spacing" textLength="8.5757" x="81.7476" y="262.7871">5</text><text fill="#000000" font-family="sans-serif" font-size="13" lengthAdjust="spacing" textLength="161.7002" x="94.3232" y="262.7871">submits template content</text><polygon fill="#181818" points="848.29,292.8398,858.29,296.8398,848.29,300.8398,852.29,296.8398" style="stroke:#181818;stroke-width:1.0;"/><line style="stroke:#181818;stroke-width:1.0;" x1="395.4233" x2="854.29" y1="296.8398" y2="296.8398"/><text fill="#000000" font-family="sans-serif" font-size="13" font-weight="bold" lengthAdjust="spacing" textLength="8.5757" x="402.4233" y="292.0977">6</text><text fill="#000000" font-family="sans-serif" font-size="13" lengthAdjust="spacing" textLength="433.291" x="414.999" y="292.0977">registerProposalTemplate(name, description, content, missingFields)</text><polygon fill="#181818" points="2214.5967,322.1504,2224.5967,326.1504,2214.5967,330.1504,2218.5967,326.1504" style="stroke:#181818;stroke-width:1.0;"/><line style="stroke:#181818;stroke-width:1.0;" x1="870.29" x2="2220.5967" y1="326.1504" y2="326.1504"/><text fill="#000000" font-family="sans-serif" font-size="13" font-weight="bold" lengthAdjust="spacing" textLength="8.5757" x="877.29" y="321.4082">7</text><text fill="#000000" font-family="sans-serif" font-size="13" lengthAdjust="spacing" textLength="105.0918" x="889.8657" y="321.4082">validate(content)</text><line style="stroke:#181818;stroke-width:1.0;" x1="2236.5967" x2="2278.5967" y1="355.4609" y2="355.4609"/><line style="stroke:#181818;stroke-width:1.0;" x1="2278.5967" x2="2278.5967" y1="355.4609" y2="368.4609"/><line style="stroke:#181818;stroke-width:1.0;" x1="2237.5967" x2="2278.5967" y1="368.4609" y2="368.4609"/><polygon fill="#181818" points="2247.5967,364.4609,2237.5967,368.4609,2247.5967,372.4609,2243.5967,368.4609" style="stroke:#181818;stroke-width:1.0;"/><text fill="#000000" font-family="sans-serif" font-size="13" font-weight="bold" lengthAdjust="spacing" textLength="8.5757" x="2243.5967" y="350.7188">8</text><text fill="#000000" font-family="sans-serif" font-size="13" lengthAdjust="spacing" textLength="271.4766" x="2256.1724" y="350.7188">checks template syntax and required fields</text><polygon fill="#181818" points="881.29,393.7715,871.29,397.7715,881.29,401.7715,877.29,397.7715" style="stroke:#181818;stroke-width:1.0;"/><line style="stroke:#181818;stroke-width:1.0;stroke-dasharray:2.0,2.0;" x1="875.29" x2="2230.5967" y1="397.7715" y2="397.7715"/><text fill="#000000" font-family="sans-serif" font-size="13" font-weight="bold" lengthAdjust="spacing" textLength="8.5757" x="887.29" y="393.0293">9</text><text fill="#000000" font-family="sans-serif" font-size="13" lengthAdjust="spacing" textLength="169.6919" x="899.8657" y="393.0293">List&lt;String&gt; missingFields</text><path d="M10,412.7715 L72.1387,412.7715 L72.1387,420.082 L62.1387,430.082 L10,430.082 L10,412.7715 " fill="#EEEEEE" style="stroke:#000000;stroke-width:1.5;"/><rect fill="none" height="75.9316" style="stroke:#000000;stroke-width:1.5;" width="997.1211" x="10" y="412.7715"/><text fill="#000000" font-family="sans-serif" font-size="13" font-weight="bold" lengthAdjust="spacing" textLength="17.1387" x="25" y="426.3398">alt</text><text fill="#000000" font-family="sans-serif" font-size="11" font-weight="bold" lengthAdjust="spacing" textLength="88.188" x="87.1387" y="425.4063">[missing fields]</text><polygon fill="#181818" points="406.4233,447.3926,396.4233,451.3926,406.4233,455.3926,402.4233,451.3926" style="stroke:#181818;stroke-width:1.0;"/><line style="stroke:#181818;stroke-width:1.0;stroke-dasharray:2.0,2.0;" x1="400.4233" x2="859.29" y1="451.3926" y2="451.3926"/><text fill="#000000" font-family="sans-serif" font-size="13" font-weight="bold" lengthAdjust="spacing" textLength="17.1514" x="412.4233" y="446.6504">10</text><text fill="#000000" font-family="sans-serif" font-size="13" lengthAdjust="spacing" textLength="201.354" x="433.5747" y="446.6504">returns error with missingFields</text><polygon fill="#181818" points="80.7476,476.7031,70.7476,480.7031,80.7476,484.7031,76.7476,480.7031" style="stroke:#181818;stroke-width:1.0;"/><line style="stroke:#181818;stroke-width:1.0;" x1="74.7476" x2="389.4233" y1="480.7031" y2="480.7031"/><text fill="#000000" font-family="sans-serif" font-size="13" font-weight="bold" lengthAdjust="spacing" textLength="17.1514" x="86.7476" y="475.9609">11</text><text fill="#000000" font-family="sans-serif" font-size="13" lengthAdjust="spacing" textLength="145.6787" x="107.8989" y="475.9609">displays error message</text><polygon fill="#181818" points="1087.9126,513.0137,1097.9126,517.0137,1087.9126,521.0137,1091.9126,517.0137" style="stroke:#181818;stroke-width:1.0;"/><line style="stroke:#181818;stroke-width:1.0;" x1="870.29" x2="1093.9126" y1="517.0137" y2="517.0137"/><text fill="#000000" font-family="sans-serif" font-size="13" font-weight="bold" lengthAdjust="spacing" textLength="17.1514" x="877.29" y="512.2715">12</text><text fill="#000000" font-family="sans-serif" font-size="13" lengthAdjust="spacing" textLength="189.4712" x="898.4414" y="512.2715">proposalTemplateRepository()</text><polygon fill="#181818" points="881.29,542.3242,871.29,546.3242,881.29,550.3242,877.29,546.3242" style="stroke:#181818;stroke-width:1.0;"/><line style="stroke:#181818;stroke-width:1.0;stroke-dasharray:2.0,2.0;" x1="875.29" x2="1103.9126" y1="546.3242" y2="546.3242"/><text fill="#000000" font-family="sans-serif" font-size="13" font-weight="bold" lengthAdjust="spacing" textLength="17.1514" x="887.29" y="541.582">13</text><text fill="#000000" font-family="sans-serif" font-size="13" lengthAdjust="spacing" textLength="180.0195" x="908.4414" y="541.582">ProposalTemplateRepository</text><polygon fill="#181818" points="1272.7588,571.6348,1282.7588,575.6348,1272.7588,579.6348,1276.7588,575.6348" style="stroke:#181818;stroke-width:1.0;"/><line style="stroke:#181818;stroke-width:1.0;" x1="870.29" x2="1278.7588" y1="575.6348" y2="575.6348"/><text fill="#000000" font-family="sans-serif" font-size="13" font-weight="bold" lengthAdjust="spacing" textLength="17.1514" x="877.29" y="570.8926">14</text><text fill="#000000" font-family="sans-serif" font-size="13" lengthAdjust="spacing" textLength="356.6431" x="898.4414" y="570.8926">save(new ProposalTemplate(name, description, content))</text><path d="M1175.8252,590.6348 L1237.9639,590.6348 L1237.9639,597.9453 L1227.9639,607.9453 L1175.8252,607.9453 L1175.8252,590.6348 " fill="#EEEEEE" style="stroke:#000000;stroke-width:1.5;"/><rect fill="none" height="234.1289" style="stroke:#000000;stroke-width:1.5;" width="916.0425" x="1175.8252" y="590.6348"/><text fill="#000000" font-family="sans-serif" font-size="13" font-weight="bold" lengthAdjust="spacing" textLength="17.1387" x="1190.8252" y="604.2031">alt</text><text fill="#000000" font-family="sans-serif" font-size="11" font-weight="bold" lengthAdjust="spacing" textLength="263.0171" x="1252.9639" y="603.2695">[using InMemoryProposalTemplateRepository]</text><polygon fill="#181818" points="1524.2725,625.2559,1534.2725,629.2559,1524.2725,633.2559,1528.2725,629.2559" style="stroke:#181818;stroke-width:1.0;"/><line style="stroke:#181818;stroke-width:1.0;" x1="1294.7588" x2="1530.2725" y1="629.2559" y2="629.2559"/><text fill="#000000" font-family="sans-serif" font-size="13" font-weight="bold" lengthAdjust="spacing" textLength="17.1514" x="1301.7588" y="624.5137">15</text><text fill="#000000" font-family="sans-serif" font-size="13" lengthAdjust="spacing" textLength="36.2324" x="1322.9102" y="624.5137">save()</text><line style="stroke:#181818;stroke-width:1.0;" x1="1546.2725" x2="1588.2725" y1="658.5664" y2="658.5664"/><line style="stroke:#181818;stroke-width:1.0;" x1="1588.2725" x2="1588.2725" y1="658.5664" y2="671.5664"/><line style="stroke:#181818;stroke-width:1.0;" x1="1547.2725" x2="1588.2725" y1="671.5664" y2="671.5664"/><polygon fill="#181818" points="1557.2725,667.5664,1547.2725,671.5664,1557.2725,675.5664,1553.2725,671.5664" style="stroke:#181818;stroke-width:1.0;"/><text fill="#000000" font-family="sans-serif" font-size="13" font-weight="bold" lengthAdjust="spacing" textLength="17.1514" x="1553.2725" y="653.8242">16</text><text fill="#000000" font-family="sans-serif" font-size="13" lengthAdjust="spacing" textLength="214.8555" x="1574.4238" y="653.8242">validates and stores new template</text><polygon fill="#181818" points="1305.7588,696.877,1295.7588,700.877,1305.7588,704.877,1301.7588,700.877" style="stroke:#181818;stroke-width:1.0;"/><line style="stroke:#181818;stroke-width:1.0;stroke-dasharray:2.0,2.0;" x1="1299.7588" x2="1540.2725" y1="700.877" y2="700.877"/><text fill="#000000" font-family="sans-serif" font-size="13" font-weight="bold" lengthAdjust="spacing" textLength="17.1514" x="1311.7588" y="696.1348">17</text><text fill="#000000" font-family="sans-serif" font-size="13" lengthAdjust="spacing" textLength="187.605" x="1332.9102" y="696.1348">Optional&lt;ProposalTemplate&gt;</text><line style="stroke:#000000;stroke-width:1.0;stroke-dasharray:2.0,2.0;" x1="1175.8252" x2="2091.8677" y1="709.877" y2="709.877"/><text fill="#000000" font-family="sans-serif" font-size="11" font-weight="bold" lengthAdjust="spacing" textLength="190.1958" x="1180.8252" y="720.5117">[using ProposalTemplateJPAImpl]</text><polygon fill="#181818" points="1794.2793,741.1426,1804.2793,745.1426,1794.2793,749.1426,1798.2793,745.1426" style="stroke:#181818;stroke-width:1.0;"/><line style="stroke:#181818;stroke-width:1.0;" x1="1294.7588" x2="1800.2793" y1="745.1426" y2="745.1426"/><text fill="#000000" font-family="sans-serif" font-size="13" font-weight="bold" lengthAdjust="spacing" textLength="17.1514" x="1301.7588" y="740.4004">18</text><text fill="#000000" font-family="sans-serif" font-size="13" lengthAdjust="spacing" textLength="36.2324" x="1322.9102" y="740.4004">save()</text><line style="stroke:#181818;stroke-width:1.0;" x1="1816.2793" x2="1858.2793" y1="774.4531" y2="774.4531"/><line style="stroke:#181818;stroke-width:1.0;" x1="1858.2793" x2="1858.2793" y1="774.4531" y2="787.4531"/><line style="stroke:#181818;stroke-width:1.0;" x1="1817.2793" x2="1858.2793" y1="787.4531" y2="787.4531"/><polygon fill="#181818" points="1827.2793,783.4531,1817.2793,787.4531,1827.2793,791.4531,1823.2793,787.4531" style="stroke:#181818;stroke-width:1.0;"/><text fill="#000000" font-family="sans-serif" font-size="13" font-weight="bold" lengthAdjust="spacing" textLength="17.1514" x="1823.2793" y="769.7109">19</text><text fill="#000000" font-family="sans-serif" font-size="13" lengthAdjust="spacing" textLength="225.437" x="1844.4307" y="769.7109">validates and persists new template</text><polygon fill="#181818" points="1305.7588,812.7637,1295.7588,816.7637,1305.7588,820.7637,1301.7588,816.7637" style="stroke:#181818;stroke-width:1.0;"/><line style="stroke:#181818;stroke-width:1.0;stroke-dasharray:2.0,2.0;" x1="1299.7588" x2="1810.2793" y1="816.7637" y2="816.7637"/><text fill="#000000" font-family="sans-serif" font-size="13" font-weight="bold" lengthAdjust="spacing" textLength="17.1514" x="1311.7588" y="812.0215">20</text><text fill="#000000" font-family="sans-serif" font-size="13" lengthAdjust="spacing" textLength="187.605" x="1332.9102" y="812.0215">Optional&lt;ProposalTemplate&gt;</text><polygon fill="#181818" points="881.29,849.0742,871.29,853.0742,881.29,857.0742,877.29,853.0742" style="stroke:#181818;stroke-width:1.0;"/><line style="stroke:#181818;stroke-width:1.0;" x1="875.29" x2="1288.7588" y1="853.0742" y2="853.0742"/><text fill="#000000" font-family="sans-serif" font-size="13" font-weight="bold" lengthAdjust="spacing" textLength="17.1514" x="887.29" y="848.332">21</text><text fill="#000000" font-family="sans-serif" font-size="13" lengthAdjust="spacing" textLength="187.605" x="908.4414" y="848.332">Optional&lt;ProposalTemplate&gt;</text><polygon fill="#181818" points="406.4233,878.3848,396.4233,882.3848,406.4233,886.3848,402.4233,882.3848" style="stroke:#181818;stroke-width:1.0;"/><line style="stroke:#181818;stroke-width:1.0;stroke-dasharray:2.0,2.0;" x1="400.4233" x2="864.29" y1="882.3848" y2="882.3848"/><text fill="#000000" font-family="sans-serif" font-size="13" font-weight="bold" lengthAdjust="spacing" textLength="17.1514" x="412.4233" y="877.6426">22</text><text fill="#000000" font-family="sans-serif" font-size="13" lengthAdjust="spacing" textLength="187.605" x="433.5747" y="877.6426">Optional&lt;ProposalTemplate&gt;</text><path d="M10,897.3848 L72.1387,897.3848 L72.1387,904.6953 L62.1387,914.6953 L10,914.6953 L10,897.3848 " fill="#EEEEEE" style="stroke:#000000;stroke-width:1.5;"/><rect fill="none" height="90.8867" style="stroke:#000000;stroke-width:1.5;" width="495.0405" x="10" y="897.3848"/><text fill="#000000" font-family="sans-serif" font-size="13" font-weight="bold" lengthAdjust="spacing" textLength="17.1387" x="25" y="910.9531">alt</text><text fill="#000000" font-family="sans-serif" font-size="11" font-weight="bold" lengthAdjust="spacing" textLength="52.1909" x="87.1387" y="910.0195">[success]</text><polygon fill="#181818" points="80.7476,932.0059,70.7476,936.0059,80.7476,940.0059,76.7476,936.0059" style="stroke:#181818;stroke-width:1.0;"/><line style="stroke:#181818;stroke-width:1.0;" x1="74.7476" x2="384.4233" y1="936.0059" y2="936.0059"/><text fill="#000000" font-family="sans-serif" font-size="13" font-weight="bold" lengthAdjust="spacing" textLength="17.1514" x="86.7476" y="931.2637">23</text><text fill="#000000" font-family="sans-serif" font-size="13" lengthAdjust="spacing" textLength="163.0015" x="107.8989" y="931.2637">displays success message</text><line style="stroke:#000000;stroke-width:1.0;stroke-dasharray:2.0,2.0;" x1="10" x2="505.0405" y1="945.0059" y2="945.0059"/><text fill="#000000" font-family="sans-serif" font-size="11" font-weight="bold" lengthAdjust="spacing" textLength="45.0044" x="15" y="955.6406">[failure]</text><polygon fill="#181818" points="80.7476,976.2715,70.7476,980.2715,80.7476,984.2715,76.7476,980.2715" style="stroke:#181818;stroke-width:1.0;"/><line style="stroke:#181818;stroke-width:1.0;" x1="74.7476" x2="384.4233" y1="980.2715" y2="980.2715"/><text fill="#000000" font-family="sans-serif" font-size="13" font-weight="bold" lengthAdjust="spacing" textLength="17.1514" x="86.7476" y="975.5293">24</text><text fill="#000000" font-family="sans-serif" font-size="13" lengthAdjust="spacing" textLength="145.6787" x="107.8989" y="975.5293">displays error message</text><!--SRC=[dLNRRk8m47tFLupw11Bz0LHLMj5TYQfeAoZxFas6ODMnixP3bx_ViOaJ9uKMjIzradEEvt9ci6z2rMYmWaehdU-DhWYSQIYptPSQypSiQUEEai1Gxb2LCWNOFHRwNQWITYWjPPaJZg7R9MpeRqCg9tWGM7hePBDvcC8jhAaKrf61PwDhRL722rMrHCTiR9nMJVLAXi-vqmPk5kiLh51n5EO6qC9YbV7LJkIYHkNWPXxrebnKsou3Vhky4h_GoXajPRpdPVqqPAw9yOA3EZBr88eM61-6uB5wJmua_pWaBDMAgfFsPyG0-yWUinwVVopv52YFDNvD2CYVYjjt7DKh8fvbKmeLS7zGYW8vfj0bSU2llY-B5TpU-zxFsIlSVUl0QJws_KPGz7wcwvq4jofZDckmqXngTcJjBEpO1WhPdAWAACZcHjHEQ9NUHufli6TXCD7XFyhf9NNNXW8vUu2bKcNRl5Q2SHymKOnz4X8-xwg93scMnZEB2ZEeXBKyExy4oS9EarfwxsL1cM_egitN74vdchGQ2QblIayOiVCzvMz9AlQe7FuB1VCD4uOAs8LWKeq-oITEyMxZ3CTyFmm-A-XC81bA5t5H6FZlb5dl5TSOPO6CuUlUXTkFj3qbwLmXB8T_Z8IAhENj451956ocqHjsQ4Qgw0iR9_VaXWjJDqbAt8rwnqoAStbmq-9q4bqK7kTzXWSsIp8WLpXeciGMHZmKl0db_dgVXFg4spcARg_4KARXSoVVxnt_kaUFgD6VDfZAyZLyz5b5putfVG5-jrDwDuxuVjp8FXRYtvmstmiRS91akmalf1Ztf7yPaGFICBcQ5mxFmvdqEl9taejH1AV665gBVQAIA9oSC9onw-yFksVyFDZHtcEsoNEUkukZsNxlXZCqQeT2DeQkdETGWE503uRvFm00]--></g></svg>