<svg xmlns="http://www.w3.org/2000/svg" xmlns:xlink="http://www.w3.org/1999/xlink" contentStyleType="text/css" height="646px" preserveAspectRatio="none" style="width:1338px;height:646px;background:#FFFFFF;" version="1.1" viewBox="0 0 1338 646" width="1338px" zoomAndPan="magnify"><title>Generate Drone Program - Domain Model (US344)</title><defs/><g><text fill="#000000" font-family="sans-serif" font-size="14" font-weight="bold" lengthAdjust="spacing" textLength="330.627" x="496.6865" y="25.1074">Generate Drone Program - Domain Model (US344)</text><!--cluster Domain Layer--><g id="cluster_Domain Layer"><rect fill="none" height="453" rx="2.5" ry="2.5" style="stroke:#000000;stroke-width:1.5;" width="533" x="7" y="187.6211"/><text fill="#000000" font-family="sans-serif" font-size="14" font-weight="bold" lengthAdjust="spacing" textLength="92.5859" x="227.207" y="204.7285">Domain Layer</text></g><!--cluster Application Layer--><g id="cluster_Application Layer"><rect fill="none" height="90" rx="2.5" ry="2.5" style="stroke:#000000;stroke-width:1.5;" width="246" x="722" y="46.6211"/><text fill="#000000" font-family="sans-serif" font-size="14" font-weight="bold" lengthAdjust="spacing" textLength="117.4688" x="786.2656" y="63.7285">Application Layer</text></g><!--cluster Plugin System--><g id="cluster_Plugin System"><rect fill="none" height="90" rx="2.5" ry="2.5" style="stroke:#000000;stroke-width:1.5;" width="548" x="564" y="234.1211"/><text fill="#000000" font-family="sans-serif" font-size="14" font-weight="bold" lengthAdjust="spacing" textLength="96.4688" x="789.7656" y="251.2285">Plugin System</text></g><!--cluster Persistence Layer--><g id="cluster_Persistence Layer"><rect fill="none" height="90" rx="2.5" ry="2.5" style="stroke:#000000;stroke-width:1.5;" width="196" x="1136" y="234.1211"/><text fill="#000000" font-family="sans-serif" font-size="14" font-weight="bold" lengthAdjust="spacing" textLength="119.8545" x="1174.0728" y="251.2285">Persistence Layer</text></g><!--class ShowProposal--><g id="elem_ShowProposal"><rect codeLine="12" fill="#F1F1F1" height="129.7266" id="ShowProposal" rx="2.5" ry="2.5" style="stroke:#181818;stroke-width:0.5;" width="328.7637" x="194.5" y="224.6211"/><text fill="#000000" font-family="sans-serif" font-size="14" lengthAdjust="spacing" textLength="90.2754" x="313.7441" y="244.7285">ShowProposal</text><line style="stroke:#181818;stroke-width:0.5;" x1="195.5" x2="522.2637" y1="253.2422" y2="253.2422"/><text fill="#000000" font-family="sans-serif" font-size="14" lengthAdjust="spacing" textLength="192.999" x="200.5" y="272.3496">List&lt;Figure&gt;: sequenceFigures</text><text fill="#000000" font-family="sans-serif" font-size="14" lengthAdjust="spacing" textLength="256.8057" x="200.5" y="290.9707">Map&lt;DroneModel, Integer&gt;: modelsUsed</text><text fill="#000000" font-family="sans-serif" font-size="14" lengthAdjust="spacing" textLength="316.7637" x="200.5" y="309.5918">Map&lt;String, String&gt;: droneLanguageSpecifications</text><text fill="#000000" font-family="sans-serif" font-size="14" lengthAdjust="spacing" textLength="115.9375" x="200.5" y="328.2129">List&lt;String&gt;: script</text><text fill="#000000" font-family="sans-serif" font-size="14" lengthAdjust="spacing" textLength="175.0957" x="200.5" y="346.834">ShowProposalStatus: status</text></g><!--class Figure--><g id="elem_Figure"><rect codeLine="23" fill="#F1F1F1" height="73.8633" id="Figure" rx="2.5" ry="2.5" style="stroke:#181818;stroke-width:0.5;" width="258.6748" x="45.5" y="415.6211"/><text fill="#000000" font-family="sans-serif" font-size="14" lengthAdjust="spacing" textLength="39.6826" x="154.9961" y="435.7285">Figure</text><line style="stroke:#181818;stroke-width:0.5;" x1="46.5" x2="303.1748" y1="444.2422" y2="444.2422"/><text fill="#000000" font-family="sans-serif" font-size="14" lengthAdjust="spacing" textLength="79.3721" x="51.5" y="463.3496">String: name</text><text fill="#000000" font-family="sans-serif" font-size="14" lengthAdjust="spacing" textLength="246.6748" x="51.5" y="481.9707">Map&lt;String, DslMetadata&gt;: dslVersions</text></g><!--class DslMetadata--><g id="elem_DslMetadata"><rect codeLine="28" fill="#F1F1F1" height="73.8633" id="DslMetadata" rx="2.5" ry="2.5" style="stroke:#181818;stroke-width:0.5;" width="145.8545" x="102" y="550.6211"/><text fill="#000000" font-family="sans-serif" font-size="14" lengthAdjust="spacing" textLength="78.5928" x="135.6309" y="570.7285">DslMetadata</text><line style="stroke:#181818;stroke-width:0.5;" x1="103" x2="246.8545" y1="579.2422" y2="579.2422"/><text fill="#000000" font-family="sans-serif" font-size="14" lengthAdjust="spacing" textLength="118.2891" x="108" y="598.3496">String: droneModel</text><text fill="#000000" font-family="sans-serif" font-size="14" lengthAdjust="spacing" textLength="133.8545" x="108" y="616.9707">List&lt;String&gt;: dslLines</text></g><!--class DroneModel--><g id="elem_DroneModel"><rect codeLine="33" fill="#F1F1F1" height="73.8633" id="DroneModel" rx="2.5" ry="2.5" style="stroke:#181818;stroke-width:0.5;" width="161.4336" x="339.5" y="415.6211"/><text fill="#000000" font-family="sans-serif" font-size="14" lengthAdjust="spacing" textLength="76.2617" x="382.0859" y="435.7285">DroneModel</text><line style="stroke:#181818;stroke-width:0.5;" x1="340.5" x2="499.9336" y1="444.2422" y2="444.2422"/><text fill="#000000" font-family="sans-serif" font-size="14" lengthAdjust="spacing" textLength="88.71" x="345.5" y="463.3496">String: identity</text><text fill="#000000" font-family="sans-serif" font-size="14" lengthAdjust="spacing" textLength="149.4336" x="345.5" y="481.9707">String: languageVersion</text></g><!--class ShowProposalStatus--><g id="elem_ShowProposalStatus"><rect codeLine="38" fill="#F1F1F1" height="111.1055" id="ShowProposalStatus" rx="2.5" ry="2.5" style="stroke:#181818;stroke-width:0.5;" width="135.9648" x="23" y="234.1211"/><text fill="#000000" font-family="sans-serif" font-size="14" lengthAdjust="spacing" textLength="129.9648" x="26" y="254.2285">ShowProposalStatus</text><line style="stroke:#181818;stroke-width:0.5;" x1="24" x2="157.9648" y1="262.7422" y2="262.7422"/><text fill="#000000" font-family="sans-serif" font-size="14" lengthAdjust="spacing" textLength="66.8965" x="29" y="281.8496">CREATED</text><text fill="#000000" font-family="sans-serif" font-size="14" lengthAdjust="spacing" textLength="73.9102" x="29" y="300.4707">STAND_BY</text><text fill="#000000" font-family="sans-serif" font-size="14" lengthAdjust="spacing" textLength="77.7998" x="29" y="319.0918">APPROVED</text><text fill="#000000" font-family="sans-serif" font-size="14" lengthAdjust="spacing" textLength="11.6689" x="29" y="337.7129">...</text></g><!--class GenerateShowProgramController--><g id="elem_GenerateShowProgramController"><rect codeLine="51" fill="#F1F1F1" height="36.6211" id="GenerateShowProgramController" rx="2.5" ry="2.5" style="stroke:#181818;stroke-width:0.5;" width="213.7646" x="738" y="83.6211"/><text fill="#000000" font-family="sans-serif" font-size="14" lengthAdjust="spacing" textLength="207.7646" x="741" y="103.7285">GenerateShowProgramController</text><line style="stroke:#181818;stroke-width:0.5;" x1="739" x2="950.7646" y1="112.2422" y2="112.2422"/></g><!--class FigureValidationPlugin--><g id="elem_FigureValidationPlugin"><rect codeLine="57" fill="#F1F1F1" height="36.6211" id="FigureValidationPlugin" rx="2.5" ry="2.5" style="stroke:#181818;stroke-width:0.5;" width="146.0889" x="580" y="271.1211"/><text fill="#000000" font-family="sans-serif" font-size="14" lengthAdjust="spacing" textLength="140.0889" x="583" y="291.2285">FigureValidationPlugin</text><line style="stroke:#181818;stroke-width:0.5;" x1="581" x2="725.0889" y1="299.7422" y2="299.7422"/></g><!--class DroneProgramsGenerator--><g id="elem_DroneProgramsGenerator"><rect codeLine="61" fill="#F1F1F1" height="36.6211" id="DroneProgramsGenerator" rx="2.5" ry="2.5" style="stroke:#181818;stroke-width:0.5;" width="167.8477" x="761" y="271.1211"/><text fill="#000000" font-family="sans-serif" font-size="14" lengthAdjust="spacing" textLength="161.8477" x="764" y="291.2285">DroneProgramsGenerator</text><line style="stroke:#181818;stroke-width:0.5;" x1="762" x2="927.8477" y1="299.7422" y2="299.7422"/></g><!--class DroneGenericPlugin--><g id="elem_DroneGenericPlugin"><rect codeLine="65" fill="#F1F1F1" height="36.6211" id="DroneGenericPlugin" rx="2.5" ry="2.5" style="stroke:#181818;stroke-width:0.5;" width="132.0684" x="964" y="271.1211"/><text fill="#000000" font-family="sans-serif" font-size="14" lengthAdjust="spacing" textLength="126.0684" x="967" y="291.2285">DroneGenericPlugin</text><line style="stroke:#181818;stroke-width:0.5;" x1="965" x2="1095.0684" y1="299.7422" y2="299.7422"/></g><!--class ShowProposalRepository--><g id="elem_ShowProposalRepository"><rect codeLine="71" fill="#F1F1F1" height="36.6211" id="ShowProposalRepository" rx="2.5" ry="2.5" style="stroke:#181818;stroke-width:0.5;" width="163.1924" x="1152.5" y="271.1211"/><text fill="#000000" font-family="sans-serif" font-size="14" lengthAdjust="spacing" textLength="157.1924" x="1155.5" y="291.2285">ShowProposalRepository</text><line style="stroke:#181818;stroke-width:0.5;" x1="1153.5" x2="1314.6924" y1="299.7422" y2="299.7422"/></g><!--reverse link ShowProposal to Figure--><g id="link_ShowProposal_Figure"><path codeLine="45" d="M276.7203,362.6145 C253.0703,383.3145 236.72,397.6111 216.23,415.5411 " fill="none" id="ShowProposal-backto-Figure" style="stroke:#181818;stroke-width:1.0;"/><polygon fill="none" points="285.75,354.7111,278.6007,355.6529,276.7203,362.6145,283.8696,361.6727,285.75,354.7111" style="stroke:#181818;stroke-width:1.0;"/><text fill="#000000" font-family="sans-serif" font-size="13" lengthAdjust="spacing" textLength="7.23" x="270.8592" y="376.3575">1</text><text fill="#000000" font-family="sans-serif" font-size="13" lengthAdjust="spacing" textLength="5.0591" x="218.163" y="404.4886">*</text></g><!--reverse link ShowProposal to DroneModel--><g id="link_ShowProposal_DroneModel"><path codeLine="46" d="M387.535,365.9314 C395.385,386.6314 399.54,397.6111 406.33,415.5411 " fill="none" id="ShowProposal-backto-DroneModel" style="stroke:#181818;stroke-width:1.0;"/><polygon fill="none" points="383.28,354.7111,381.6674,361.7396,387.535,365.9314,389.1476,358.9029,383.28,354.7111" style="stroke:#181818;stroke-width:1.0;"/><text fill="#000000" font-family="sans-serif" font-size="13" lengthAdjust="spacing" textLength="7.23" x="378.447" y="376.3575">1</text><text fill="#000000" font-family="sans-serif" font-size="13" lengthAdjust="spacing" textLength="5.0591" x="398.4164" y="404.4886">*</text></g><!--reverse link Figure to DslMetadata--><g id="link_Figure_DslMetadata"><path codeLine="47" d="M175,501.9611 C175,520.7311 175,531.5611 175,550.3211 " fill="none" id="Figure-backto-DslMetadata" style="stroke:#181818;stroke-width:1.0;"/><polygon fill="none" points="175,489.9611,171,495.9611,175,501.9611,179,495.9611,175,489.9611" style="stroke:#181818;stroke-width:1.0;"/><text fill="#000000" font-family="sans-serif" font-size="13" lengthAdjust="spacing" textLength="7.23" x="167.4663" y="511.6171">1</text><text fill="#000000" font-family="sans-serif" font-size="13" lengthAdjust="spacing" textLength="5.0591" x="169.5729" y="539.2294">*</text></g><!--link GenerateShowProgramController to ShowProposal--><g id="link_GenerateShowProgramController_ShowProposal"><path codeLine="76" d="M761.66,120.6611 C704.9,133.8411 628.63,154.0111 564,179.6211 C532.15,192.2411 504.1491,205.687 473.8691,221.767 " fill="none" id="GenerateShowProgramController-to-ShowProposal" style="stroke:#181818;stroke-width:1.0;"/><polygon fill="#181818" points="468.57,224.5811,478.3948,223.8927,472.986,222.236,474.6427,216.8272,468.57,224.5811" style="stroke:#181818;stroke-width:1.0;"/><polygon fill="#000000" points="639.2826,163.9239,648.7905,163.6986,646.8423,158.153,639.2826,163.9239" style="stroke:#000000;stroke-width:1.0;"/><text fill="#000000" font-family="sans-serif" font-size="13" lengthAdjust="spacing" textLength="27.46" x="653" y="167.6494">uses</text></g><!--link GenerateShowProgramController to FigureValidationPlugin--><g id="link_GenerateShowProgramController_FigureValidationPlugin"><path codeLine="77" d="M818.39,120.7811 C797.23,135.3911 767.4,157.3011 744,179.6211 C713.14,209.0511 686.0039,243.6616 669.3339,266.1416 " fill="none" id="GenerateShowProgramController-to-FigureValidationPlugin" style="stroke:#181818;stroke-width:1.0;"/><polygon fill="#181818" points="665.76,270.9611,674.3338,266.1145,668.7382,266.9449,667.9078,261.3493,665.76,270.9611" style="stroke:#181818;stroke-width:1.0;"/><polygon fill="#000000" points="773.4204,165.7575,781.9479,161.5465,777.8441,157.3384,773.4204,165.7575" style="stroke:#000000;stroke-width:1.0;"/><text fill="#000000" font-family="sans-serif" font-size="13" lengthAdjust="spacing" textLength="27.46" x="786" y="167.6494">uses</text></g><!--link GenerateShowProgramController to DroneProgramsGenerator--><g id="link_GenerateShowProgramController_DroneProgramsGenerator"><path codeLine="78" d="M845,120.9111 C845,156.3611 845,229.4711 845,264.8911 " fill="none" id="GenerateShowProgramController-to-DroneProgramsGenerator" style="stroke:#181818;stroke-width:1.0;"/><polygon fill="#181818" points="845,270.8911,849,261.8911,845,265.8911,841,261.8911,845,270.8911" style="stroke:#181818;stroke-width:1.0;"/><polygon fill="#000000" points="850,167.2666,852.9389,158.2215,847.0611,158.2215,850,167.2666" style="stroke:#000000;stroke-width:1.0;"/><text fill="#000000" font-family="sans-serif" font-size="13" lengthAdjust="spacing" textLength="27.46" x="859" y="167.6494">uses</text></g><!--link GenerateShowProgramController to DroneGenericPlugin--><g id="link_GenerateShowProgramController_DroneGenericPlugin"><path codeLine="79" d="M872.61,120.7411 C894.11,135.1711 924.06,156.8511 947,179.6211 C976.2,208.6111 1000.5472,243.1854 1015.3972,265.8054 " fill="none" id="GenerateShowProgramController-to-DroneGenericPlugin" style="stroke:#181818;stroke-width:1.0;"/><polygon fill="#181818" points="1018.69,270.8211,1017.0946,261.1023,1015.946,266.6413,1010.407,265.4927,1018.69,270.8211" style="stroke:#181818;stroke-width:1.0;"/><polygon fill="#000000" points="944.5075,165.83,940.2569,157.3221,936.0679,161.4454,944.5075,165.83" style="stroke:#000000;stroke-width:1.0;"/><text fill="#000000" font-family="sans-serif" font-size="13" lengthAdjust="spacing" textLength="27.46" x="950" y="167.6494">uses</text></g><!--link GenerateShowProgramController to ShowProposalRepository--><g id="link_GenerateShowProgramController_ShowProposalRepository"><path codeLine="80" d="M945.22,120.6311 C997.18,132.4211 1060.38,151.1511 1112,179.6211 C1156.02,203.9011 1193.5071,242.2238 1214.9071,266.3338 " fill="none" id="GenerateShowProgramController-to-ShowProposalRepository" style="stroke:#181818;stroke-width:1.0;"/><polygon fill="#181818" points="1218.89,270.8211,1215.9071,261.4348,1215.5709,267.0817,1209.924,266.7454,1218.89,270.8211" style="stroke:#181818;stroke-width:1.0;"/><polygon fill="#000000" points="1101.399,164.6433,1094.8381,157.7582,1092.0441,162.9295,1101.399,164.6433" style="stroke:#000000;stroke-width:1.0;"/><text fill="#000000" font-family="sans-serif" font-size="13" lengthAdjust="spacing" textLength="33.96" x="1106" y="167.6494">saves</text></g><!--SRC=[bLHHQzim47xthn1-IjOcCDQd409PtOv2ieQu3Unf2FdgYCgIfvDRmkX_dsmhZiJiRF6BiUxxxhxxxcHyvRAacXQaK5AnlLO54AChYB2Bb9IzqXnISn10D313PIvy0EvffjwvpCaB5GXHPBYnq6yWGLC39D5A0jbebTVe2KbKGRaaQvM18AFdzClDpJYAzZm3mhXc0h3zAC3iLOPHv1IGs35Nz00w9hyZOXycA299z-hTLYWLKk42zRFYQERtFAyqB6O4uLS5aa5xW1rgJSjv8xAHT4qUf84Sj6KKzG4-8sG1E3NQjdjDshV5PJLxPOsfQgTAOFo5CsguaXXgwHZ8D2zD5_JrfuQQ2YsaUKSTvWh1f0rjrBB7OQY1ZrfM6_g8F8lQhZrpMYqp8ca1lUqbADPWQ4ODhNj4iGEDNKz1SW_QKo7hp1rmm-PUSGbzYJjgJrwx9T8ks-6lW72ZS8Bzj22heiTkB_ljzcxvT9USaZujloS_l_xe3fQRpVPnvo6cqwbV8bZ6-7DCr6H2ua-n6y5vJ19wvQOM84vUHn_UxLYMfN1RrtT5ZlVHLQuluwsIHYiXG7ljN-KEw41uhtJD6VcInpFoMDQLg9ZxvmldWwzh8whStjhqW0QAK5FRtOuAdZMw7TGJyzR6O7HS4LlPtvs1ZJbgTqshSmsExFZ60taQFcTdT34xgZF20YFgRRGcs5_Gl_vXMx0lRdKV_A98t-11flOOmccSYfsVycIo23TlHYe498l_u0tCwe8C0vEvD4CuamlO0mRRFwtrjKxn1m00]--></g></svg>