<svg xmlns="http://www.w3.org/2000/svg" xmlns:xlink="http://www.w3.org/1999/xlink" contentStyleType="text/css" height="1345px" preserveAspectRatio="none" style="width:2034px;height:1345px;background:#FFFFFF;" version="1.1" viewBox="0 0 2034 1345" width="2034px" zoomAndPan="magnify"><title>Sequence Diagram (SD) - Add Maintenance Type</title><defs/><g><text fill="#000000" font-family="sans-serif" font-size="14" font-weight="bold" lengthAdjust="spacing" textLength="323.6201" x="856.3765" y="30.1074">Sequence Diagram (SD) - Add Maintenance Type</text><rect fill="#FFFFFF" height="1119.1855" style="stroke:#181818;stroke-width:1.0;" width="10" x="64.5723" y="133.2422"/><rect fill="#FFFFFF" height="31.291" style="stroke:#181818;stroke-width:1.0;" width="10" x="449.3149" y="156.5332"/><rect fill="#FFFFFF" height="588.9277" style="stroke:#181818;stroke-width:1.0;" width="10" x="449.3149" y="219.1152"/><rect fill="#FFFFFF" height="514.0156" style="stroke:#181818;stroke-width:1.0;" width="10" x="829.0576" y="294.0273"/><rect fill="#FFFFFF" height="77.9121" style="stroke:#181818;stroke-width:1.0;" width="10" x="972.2681" y="335.3184"/><rect fill="#FFFFFF" height="33.6211" style="stroke:#181818;stroke-width:1.0;" width="10" x="1064.4517" y="454.5215"/><rect fill="#FFFFFF" height="33.6211" style="stroke:#181818;stroke-width:1.0;" width="10" x="1179.1099" y="529.4336"/><rect fill="#FFFFFF" height="52.2422" style="stroke:#181818;stroke-width:1.0;" width="10" x="1320.2231" y="604.3457"/><rect fill="#FFFFFF" height="31.291" style="stroke:#181818;stroke-width:1.0;" width="10" x="1496.7397" y="687.8789"/><rect fill="#FFFFFF" height="206.377" style="stroke:#181818;stroke-width:1.0;" width="10" x="1496.7397" y="855.9648"/><rect fill="#FFFFFF" height="31.291" style="stroke:#181818;stroke-width:1.0;" width="10" x="1716.1431" y="913.5469"/><rect fill="#FFFFFF" height="31.291" style="stroke:#181818;stroke-width:1.0;" width="10" x="1908.6113" y="992.7598"/><rect fill="none" height="511.2578" style="stroke:#000000;stroke-width:1.5;" width="2017.373" x="10" y="734.1699"/><rect fill="none" height="161.0859" style="stroke:#000000;stroke-width:1.5;" width="623.6812" x="1393.6919" y="870.9648"/><rect fill="none" height="161.0859" style="stroke:#000000;stroke-width:1.5;" width="931.4468" x="20" y="1077.3418"/><line style="stroke:#181818;stroke-width:0.5;stroke-dasharray:5.0,5.0;" x1="69" x2="69" y1="123.2422" y2="1262.4277"/><line style="stroke:#181818;stroke-width:0.5;stroke-dasharray:5.0,5.0;" x1="454.2705" x2="454.2705" y1="123.2422" y2="1262.4277"/><line style="stroke:#181818;stroke-width:0.5;stroke-dasharray:5.0,5.0;" x1="833.6685" x2="833.6685" y1="258.9258" y2="1262.4277"/><line style="stroke:#181818;stroke-width:0.5;stroke-dasharray:5.0,5.0;" x1="976.5957" x2="976.5957" y1="333.8379" y2="1262.4277"/><line style="stroke:#181818;stroke-width:0.5;stroke-dasharray:5.0,5.0;" x1="1069.438" x2="1069.438" y1="453.041" y2="1262.4277"/><line style="stroke:#181818;stroke-width:0.5;stroke-dasharray:5.0,5.0;" x1="1183.4653" x2="1183.4653" y1="527.9531" y2="1262.4277"/><line style="stroke:#181818;stroke-width:0.5;stroke-dasharray:5.0,5.0;" x1="1324.7544" x2="1324.7544" y1="612.1758" y2="1262.4277"/><line style="stroke:#181818;stroke-width:0.5;stroke-dasharray:5.0,5.0;" x1="1501.6919" x2="1501.6919" y1="123.2422" y2="1262.4277"/><line style="stroke:#181818;stroke-width:0.5;stroke-dasharray:5.0,5.0;" x1="1720.4365" x2="1720.4365" y1="123.2422" y2="1262.4277"/><line style="stroke:#181818;stroke-width:0.5;stroke-dasharray:5.0,5.0;" x1="1912.8496" x2="1912.8496" y1="123.2422" y2="1262.4277"/><text fill="#000000" font-family="sans-serif" font-size="14" lengthAdjust="spacing" textLength="73.1445" x="30" y="119.7285">Drone Tech</text><ellipse cx="69.5723" cy="53.1211" fill="#E3E3E3" rx="8" ry="8" style="stroke:#181818;stroke-width:0.5;"/><path d="M69.5723,61.1211 L69.5723,88.1211 M56.5723,69.1211 L82.5723,69.1211 M69.5723,88.1211 L56.5723,103.1211 M69.5723,88.1211 L82.5723,103.1211 " fill="none" style="stroke:#181818;stroke-width:0.5;"/><text fill="#000000" font-family="sans-serif" font-size="14" lengthAdjust="spacing" textLength="73.1445" x="30" y="1276.5352">Drone Tech</text><ellipse cx="69.5723" cy="1288.5488" fill="#E3E3E3" rx="8" ry="8" style="stroke:#181818;stroke-width:0.5;"/><path d="M69.5723,1296.5488 L69.5723,1323.5488 M56.5723,1304.5488 L82.5723,1304.5488 M69.5723,1323.5488 L56.5723,1338.5488 M69.5723,1323.5488 L82.5723,1338.5488 " fill="none" style="stroke:#181818;stroke-width:0.5;"/><rect fill="#E3E3E3" height="32.6211" rx="2.5" ry="2.5" style="stroke:#181818;stroke-width:0.5;" width="168.0889" x="370.2705" y="89.6211"/><text fill="#000000" font-family="sans-serif" font-size="14" lengthAdjust="spacing" textLength="154.0889" x="377.2705" y="111.7285">:AddMaintenanceTypeUI</text><rect fill="#E3E3E3" height="32.6211" rx="2.5" ry="2.5" style="stroke:#181818;stroke-width:0.5;" width="168.0889" x="370.2705" y="1261.4277"/><text fill="#000000" font-family="sans-serif" font-size="14" lengthAdjust="spacing" textLength="154.0889" x="377.2705" y="1283.5352">:AddMaintenanceTypeUI</text><rect fill="#E3E3E3" height="32.6211" rx="2.5" ry="2.5" style="stroke:#181818;stroke-width:0.5;" width="214.7783" x="726.6685" y="1261.4277"/><text fill="#000000" font-family="sans-serif" font-size="14" lengthAdjust="spacing" textLength="200.7783" x="733.6685" y="1283.5352">:AddMaintenanceTypeController</text><rect fill="#E3E3E3" height="32.6211" rx="2.5" ry="2.5" style="stroke:#181818;stroke-width:0.5;" width="51.3447" x="951.5957" y="1261.4277"/><text fill="#000000" font-family="sans-serif" font-size="14" lengthAdjust="spacing" textLength="37.3447" x="958.5957" y="1283.5352">Name</text><rect fill="#E3E3E3" height="32.6211" rx="2.5" ry="2.5" style="stroke:#181818;stroke-width:0.5;" width="84.0273" x="1027.438" y="1261.4277"/><text fill="#000000" font-family="sans-serif" font-size="14" lengthAdjust="spacing" textLength="70.0273" x="1034.438" y="1283.5352">Description</text><rect fill="#E3E3E3" height="32.6211" rx="2.5" ry="2.5" style="stroke:#181818;stroke-width:0.5;" width="125.2891" x="1121.4653" y="1261.4277"/><text fill="#000000" font-family="sans-serif" font-size="14" lengthAdjust="spacing" textLength="111.2891" x="1128.4653" y="1283.5352">MaintenanceType</text><rect fill="#E3E3E3" height="51.2422" rx="2.5" ry="2.5" style="stroke:#181818;stroke-width:0.5;" width="136.9375" x="1256.7544" y="1261.4277"/><text fill="#000000" font-family="sans-serif" font-size="14" lengthAdjust="spacing" textLength="113.5996" x="1268.4233" y="1283.5352">repositoryProvider</text><text fill="#000000" font-family="sans-serif" font-size="14" lengthAdjust="spacing" textLength="122.9375" x="1263.7544" y="1302.1563">:RepositoryProvider</text><rect fill="#E3E3E3" height="51.2422" rx="2.5" ry="2.5" style="stroke:#181818;stroke-width:0.5;" width="196.0957" x="1403.6919" y="71"/><text fill="#000000" font-family="sans-serif" font-size="14" lengthAdjust="spacing" textLength="178.2061" x="1412.6367" y="93.1074">MaintenanceTypeRepository</text><text fill="#000000" font-family="sans-serif" font-size="14" lengthAdjust="spacing" textLength="182.0957" x="1410.6919" y="111.7285">:MaintenanceTypeRepository</text><rect fill="#E3E3E3" height="51.2422" rx="2.5" ry="2.5" style="stroke:#181818;stroke-width:0.5;" width="196.0957" x="1403.6919" y="1261.4277"/><text fill="#000000" font-family="sans-serif" font-size="14" lengthAdjust="spacing" textLength="178.2061" x="1412.6367" y="1283.5352">MaintenanceTypeRepository</text><text fill="#000000" font-family="sans-serif" font-size="14" lengthAdjust="spacing" textLength="182.0957" x="1410.6919" y="1302.1563">:MaintenanceTypeRepository</text><rect fill="#E3E3E3" height="32.6211" rx="2.5" ry="2.5" style="stroke:#181818;stroke-width:0.5;" width="177.4131" x="1632.4365" y="89.6211"/><text fill="#000000" font-family="sans-serif" font-size="14" lengthAdjust="spacing" textLength="163.4131" x="1639.4365" y="111.7285">MaintenanceTypeJPAImpl</text><rect fill="#E3E3E3" height="32.6211" rx="2.5" ry="2.5" style="stroke:#181818;stroke-width:0.5;" width="177.4131" x="1632.4365" y="1261.4277"/><text fill="#000000" font-family="sans-serif" font-size="14" lengthAdjust="spacing" textLength="163.4131" x="1639.4365" y="1283.5352">MaintenanceTypeJPAImpl</text><rect fill="#E3E3E3" height="32.6211" rx="2.5" ry="2.5" style="stroke:#181818;stroke-width:0.5;" width="187.5234" x="1819.8496" y="89.6211"/><text fill="#000000" font-family="sans-serif" font-size="14" lengthAdjust="spacing" textLength="173.5234" x="1826.8496" y="111.7285">MaintenanceTypeInMemory</text><rect fill="#E3E3E3" height="32.6211" rx="2.5" ry="2.5" style="stroke:#181818;stroke-width:0.5;" width="187.5234" x="1819.8496" y="1261.4277"/><text fill="#000000" font-family="sans-serif" font-size="14" lengthAdjust="spacing" textLength="173.5234" x="1826.8496" y="1283.5352">MaintenanceTypeInMemory</text><rect fill="#FFFFFF" height="1119.1855" style="stroke:#181818;stroke-width:1.0;" width="10" x="64.5723" y="133.2422"/><rect fill="#FFFFFF" height="31.291" style="stroke:#181818;stroke-width:1.0;" width="10" x="449.3149" y="156.5332"/><rect fill="#FFFFFF" height="588.9277" style="stroke:#181818;stroke-width:1.0;" width="10" x="449.3149" y="219.1152"/><rect fill="#FFFFFF" height="514.0156" style="stroke:#181818;stroke-width:1.0;" width="10" x="829.0576" y="294.0273"/><rect fill="#FFFFFF" height="77.9121" style="stroke:#181818;stroke-width:1.0;" width="10" x="972.2681" y="335.3184"/><rect fill="#FFFFFF" height="33.6211" style="stroke:#181818;stroke-width:1.0;" width="10" x="1064.4517" y="454.5215"/><rect fill="#FFFFFF" height="33.6211" style="stroke:#181818;stroke-width:1.0;" width="10" x="1179.1099" y="529.4336"/><rect fill="#FFFFFF" height="52.2422" style="stroke:#181818;stroke-width:1.0;" width="10" x="1320.2231" y="604.3457"/><rect fill="#FFFFFF" height="31.291" style="stroke:#181818;stroke-width:1.0;" width="10" x="1496.7397" y="687.8789"/><rect fill="#FFFFFF" height="206.377" style="stroke:#181818;stroke-width:1.0;" width="10" x="1496.7397" y="855.9648"/><rect fill="#FFFFFF" height="31.291" style="stroke:#181818;stroke-width:1.0;" width="10" x="1716.1431" y="913.5469"/><rect fill="#FFFFFF" height="31.291" style="stroke:#181818;stroke-width:1.0;" width="10" x="1908.6113" y="992.7598"/><polygon fill="#181818" points="437.3149,152.5332,447.3149,156.5332,437.3149,160.5332,441.3149,156.5332" style="stroke:#181818;stroke-width:1.0;"/><line style="stroke:#181818;stroke-width:1.0;" x1="74.5723" x2="443.3149" y1="156.5332" y2="156.5332"/><text fill="#000000" font-family="sans-serif" font-size="13" font-weight="bold" lengthAdjust="spacing" textLength="7.23" x="81.5723" y="151.2705">1</text><text fill="#000000" font-family="sans-serif" font-size="13" lengthAdjust="spacing" textLength="178.4897" x="92.8022" y="151.2705">requestAddMaintenanceType()</text><polygon fill="#181818" points="85.5723,183.8242,75.5723,187.8242,85.5723,191.8242,81.5723,187.8242" style="stroke:#181818;stroke-width:1.0;"/><line style="stroke:#181818;stroke-width:1.0;stroke-dasharray:2.0,2.0;" x1="79.5723" x2="453.3149" y1="187.8242" y2="187.8242"/><text fill="#000000" font-family="sans-serif" font-size="13" font-weight="bold" lengthAdjust="spacing" textLength="7.23" x="91.5723" y="182.5615">2</text><text fill="#000000" font-family="sans-serif" font-size="13" lengthAdjust="spacing" textLength="195.0952" x="102.8022" y="182.5615">requestMaintenanceTypeDetails()</text><polygon fill="#181818" points="437.3149,215.1152,447.3149,219.1152,437.3149,223.1152,441.3149,219.1152" style="stroke:#181818;stroke-width:1.0;"/><line style="stroke:#181818;stroke-width:1.0;" x1="74.5723" x2="443.3149" y1="219.1152" y2="219.1152"/><text fill="#000000" font-family="sans-serif" font-size="13" font-weight="bold" lengthAdjust="spacing" textLength="7.23" x="81.5723" y="213.8525">3</text><text fill="#000000" font-family="sans-serif" font-size="13" lengthAdjust="spacing" textLength="296.9814" x="92.8022" y="213.8525">provideMaintenanceTypeDetails(name, description)</text><polygon fill="#181818" points="714.6685,246.4063,724.6685,250.4063,714.6685,254.4063,718.6685,250.4063" style="stroke:#181818;stroke-width:1.0;"/><line style="stroke:#181818;stroke-width:1.0;" x1="459.3149" x2="720.6685" y1="250.4063" y2="250.4063"/><text fill="#000000" font-family="sans-serif" font-size="13" font-weight="bold" lengthAdjust="spacing" textLength="7.23" x="466.3149" y="245.1436">4</text><text fill="#000000" font-family="sans-serif" font-size="13" lengthAdjust="spacing" textLength="36.1309" x="477.5449" y="245.1436">create</text><rect fill="#E3E3E3" height="32.6211" rx="2.5" ry="2.5" style="stroke:#181818;stroke-width:0.5;" width="214.7783" x="726.6685" y="227.1152"/><text fill="#000000" font-family="sans-serif" font-size="14" lengthAdjust="spacing" textLength="200.7783" x="733.6685" y="249.2227">:AddMaintenanceTypeController</text><polygon fill="#181818" points="817.0576,290.0273,827.0576,294.0273,817.0576,298.0273,821.0576,294.0273" style="stroke:#181818;stroke-width:1.0;"/><line style="stroke:#181818;stroke-width:1.0;" x1="459.3149" x2="823.0576" y1="294.0273" y2="294.0273"/><text fill="#000000" font-family="sans-serif" font-size="13" font-weight="bold" lengthAdjust="spacing" textLength="7.23" x="466.3149" y="288.7646">5</text><text fill="#000000" font-family="sans-serif" font-size="13" lengthAdjust="spacing" textLength="236.2979" x="477.5449" y="288.7646">addMaintenanceType(name, description)</text><polygon fill="#181818" points="939.5957,321.3184,949.5957,325.3184,939.5957,329.3184,943.5957,325.3184" style="stroke:#181818;stroke-width:1.0;"/><line style="stroke:#181818;stroke-width:1.0;" x1="839.0576" x2="945.5957" y1="325.3184" y2="325.3184"/><text fill="#000000" font-family="sans-serif" font-size="13" font-weight="bold" lengthAdjust="spacing" textLength="7.23" x="846.0576" y="320.0557">6</text><text fill="#000000" font-family="sans-serif" font-size="13" lengthAdjust="spacing" textLength="77.3081" x="857.2876" y="320.0557">create(name)</text><rect fill="#E3E3E3" height="32.6211" rx="2.5" ry="2.5" style="stroke:#181818;stroke-width:0.5;" width="51.3447" x="951.5957" y="302.0273"/><text fill="#000000" font-family="sans-serif" font-size="14" lengthAdjust="spacing" textLength="37.3447" x="958.5957" y="324.1348">Name</text><line style="stroke:#181818;stroke-width:1.0;" x1="982.2681" x2="1024.2681" y1="368.9395" y2="368.9395"/><line style="stroke:#181818;stroke-width:1.0;" x1="1024.2681" x2="1024.2681" y1="368.9395" y2="381.9395"/><line style="stroke:#181818;stroke-width:1.0;" x1="983.2681" x2="1024.2681" y1="381.9395" y2="381.9395"/><polygon fill="#181818" points="993.2681,377.9395,983.2681,381.9395,993.2681,385.9395,989.2681,381.9395" style="stroke:#181818;stroke-width:1.0;"/><text fill="#000000" font-family="sans-serif" font-size="13" font-weight="bold" lengthAdjust="spacing" textLength="7.23" x="989.2681" y="363.6768">7</text><text fill="#000000" font-family="sans-serif" font-size="13" lengthAdjust="spacing" textLength="46.9536" x="1000.498" y="363.6768">isValid()</text><polygon fill="#181818" points="850.0576,409.2305,840.0576,413.2305,850.0576,417.2305,846.0576,413.2305" style="stroke:#181818;stroke-width:1.0;"/><line style="stroke:#181818;stroke-width:1.0;stroke-dasharray:2.0,2.0;" x1="844.0576" x2="976.2681" y1="413.2305" y2="413.2305"/><text fill="#000000" font-family="sans-serif" font-size="13" font-weight="bold" lengthAdjust="spacing" textLength="7.23" x="856.0576" y="407.9678">8</text><text fill="#000000" font-family="sans-serif" font-size="13" lengthAdjust="spacing" textLength="86.709" x="867.2876" y="407.9678">Name instance</text><polygon fill="#181818" points="1015.438,440.5215,1025.438,444.5215,1015.438,448.5215,1019.438,444.5215" style="stroke:#181818;stroke-width:1.0;"/><line style="stroke:#181818;stroke-width:1.0;" x1="839.0576" x2="1021.438" y1="444.5215" y2="444.5215"/><text fill="#000000" font-family="sans-serif" font-size="13" font-weight="bold" lengthAdjust="spacing" textLength="7.23" x="846.0576" y="439.2588">9</text><text fill="#000000" font-family="sans-serif" font-size="13" lengthAdjust="spacing" textLength="107.6563" x="857.2876" y="439.2588">create(description)</text><rect fill="#E3E3E3" height="32.6211" rx="2.5" ry="2.5" style="stroke:#181818;stroke-width:0.5;" width="84.0273" x="1027.438" y="421.2305"/><text fill="#000000" font-family="sans-serif" font-size="14" lengthAdjust="spacing" textLength="70.0273" x="1034.438" y="443.3379">Description</text><polygon fill="#181818" points="850.0576,484.1426,840.0576,488.1426,850.0576,492.1426,846.0576,488.1426" style="stroke:#181818;stroke-width:1.0;"/><line style="stroke:#181818;stroke-width:1.0;stroke-dasharray:2.0,2.0;" x1="844.0576" x2="1068.4517" y1="488.1426" y2="488.1426"/><text fill="#000000" font-family="sans-serif" font-size="13" font-weight="bold" lengthAdjust="spacing" textLength="14.46" x="856.0576" y="482.8799">10</text><text fill="#000000" font-family="sans-serif" font-size="13" lengthAdjust="spacing" textLength="117.0571" x="874.5176" y="482.8799">Description instance</text><polygon fill="#181818" points="1109.4653,515.4336,1119.4653,519.4336,1109.4653,523.4336,1113.4653,519.4336" style="stroke:#181818;stroke-width:1.0;"/><line style="stroke:#181818;stroke-width:1.0;" x1="839.0576" x2="1115.4653" y1="519.4336" y2="519.4336"/><text fill="#000000" font-family="sans-serif" font-size="13" font-weight="bold" lengthAdjust="spacing" textLength="14.46" x="846.0576" y="514.1709">11</text><text fill="#000000" font-family="sans-serif" font-size="13" lengthAdjust="spacing" textLength="147.3989" x="864.5176" y="514.1709">create(name, description)</text><rect fill="#E3E3E3" height="32.6211" rx="2.5" ry="2.5" style="stroke:#181818;stroke-width:0.5;" width="125.2891" x="1121.4653" y="496.1426"/><text fill="#000000" font-family="sans-serif" font-size="14" lengthAdjust="spacing" textLength="111.2891" x="1128.4653" y="518.25">MaintenanceType</text><polygon fill="#181818" points="850.0576,559.0547,840.0576,563.0547,850.0576,567.0547,846.0576,563.0547" style="stroke:#181818;stroke-width:1.0;"/><line style="stroke:#181818;stroke-width:1.0;stroke-dasharray:2.0,2.0;" x1="844.0576" x2="1183.1099" y1="563.0547" y2="563.0547"/><text fill="#000000" font-family="sans-serif" font-size="13" font-weight="bold" lengthAdjust="spacing" textLength="14.46" x="856.0576" y="557.792">12</text><text fill="#000000" font-family="sans-serif" font-size="13" lengthAdjust="spacing" textLength="155.3716" x="874.5176" y="557.792">MaintenanceType instance</text><polygon fill="#181818" points="1244.7544,590.3457,1254.7544,594.3457,1244.7544,598.3457,1248.7544,594.3457" style="stroke:#181818;stroke-width:1.0;"/><line style="stroke:#181818;stroke-width:1.0;" x1="839.0576" x2="1250.7544" y1="594.3457" y2="594.3457"/><text fill="#000000" font-family="sans-serif" font-size="13" font-weight="bold" lengthAdjust="spacing" textLength="14.46" x="846.0576" y="589.083">13</text><text fill="#000000" font-family="sans-serif" font-size="13" lengthAdjust="spacing" textLength="174.1353" x="864.5176" y="589.083">maintenanceTypeRepository()</text><rect fill="#E3E3E3" height="51.2422" rx="2.5" ry="2.5" style="stroke:#181818;stroke-width:0.5;" width="136.9375" x="1256.7544" y="571.0547"/><text fill="#000000" font-family="sans-serif" font-size="14" lengthAdjust="spacing" textLength="113.5996" x="1268.4233" y="593.1621">repositoryProvider</text><text fill="#000000" font-family="sans-serif" font-size="14" lengthAdjust="spacing" textLength="122.9375" x="1263.7544" y="611.7832">:RepositoryProvider</text><polygon fill="#181818" points="850.0576,652.5879,840.0576,656.5879,850.0576,660.5879,846.0576,656.5879" style="stroke:#181818;stroke-width:1.0;"/><line style="stroke:#181818;stroke-width:1.0;stroke-dasharray:2.0,2.0;" x1="844.0576" x2="1324.2231" y1="656.5879" y2="656.5879"/><text fill="#000000" font-family="sans-serif" font-size="13" font-weight="bold" lengthAdjust="spacing" textLength="14.46" x="856.0576" y="651.3252">14</text><text fill="#000000" font-family="sans-serif" font-size="13" lengthAdjust="spacing" textLength="207.3335" x="874.5176" y="651.3252">repository (dynamic: JPA or InMem)</text><polygon fill="#181818" points="1484.7397,683.8789,1494.7397,687.8789,1484.7397,691.8789,1488.7397,687.8789" style="stroke:#181818;stroke-width:1.0;"/><line style="stroke:#181818;stroke-width:1.0;" x1="839.0576" x2="1490.7397" y1="687.8789" y2="687.8789"/><text fill="#000000" font-family="sans-serif" font-size="13" font-weight="bold" lengthAdjust="spacing" textLength="14.46" x="846.0576" y="682.6162">15</text><text fill="#000000" font-family="sans-serif" font-size="13" lengthAdjust="spacing" textLength="111.9854" x="864.5176" y="682.6162">findByName(name)</text><polygon fill="#181818" points="850.0576,715.1699,840.0576,719.1699,850.0576,723.1699,846.0576,719.1699" style="stroke:#181818;stroke-width:1.0;"/><line style="stroke:#181818;stroke-width:1.0;stroke-dasharray:2.0,2.0;" x1="844.0576" x2="1500.7397" y1="719.1699" y2="719.1699"/><text fill="#000000" font-family="sans-serif" font-size="13" font-weight="bold" lengthAdjust="spacing" textLength="14.46" x="856.0576" y="713.9072">16</text><text fill="#000000" font-family="sans-serif" font-size="13" lengthAdjust="spacing" textLength="166.9434" x="874.5176" y="713.9072">Optional&lt;MaintenanceType&gt;</text><path d="M10,734.1699 L70.1709,734.1699 L70.1709,743.4609 L60.1709,753.4609 L10,753.4609 L10,734.1699 " fill="#EEEEEE" style="stroke:#000000;stroke-width:1.5;"/><rect fill="none" height="511.2578" style="stroke:#000000;stroke-width:1.5;" width="2017.373" x="10" y="734.1699"/><text fill="#000000" font-family="sans-serif" font-size="13" font-weight="bold" lengthAdjust="spacing" textLength="15.1709" x="25" y="749.1982">alt</text><text fill="#000000" font-family="sans-serif" font-size="11" font-weight="bold" lengthAdjust="spacing" textLength="107.5562" x="85.1709" y="748.04">[name is not unique]</text><polygon fill="#181818" points="470.3149,772.752,460.3149,776.752,470.3149,780.752,466.3149,776.752" style="stroke:#181818;stroke-width:1.0;"/><line style="stroke:#181818;stroke-width:1.0;stroke-dasharray:2.0,2.0;" x1="464.3149" x2="828.0576" y1="776.752" y2="776.752"/><text fill="#000000" font-family="sans-serif" font-size="13" font-weight="bold" lengthAdjust="spacing" textLength="14.46" x="476.3149" y="771.4893">17</text><text fill="#000000" font-family="sans-serif" font-size="13" lengthAdjust="spacing" textLength="298.2573" x="494.7749" y="771.4893">errorMessage("Duplicate maintenance type name!")</text><polygon fill="#181818" points="85.5723,804.043,75.5723,808.043,85.5723,812.043,81.5723,808.043" style="stroke:#181818;stroke-width:1.0;"/><line style="stroke:#181818;stroke-width:1.0;stroke-dasharray:2.0,2.0;" x1="79.5723" x2="453.3149" y1="808.043" y2="808.043"/><text fill="#000000" font-family="sans-serif" font-size="13" font-weight="bold" lengthAdjust="spacing" textLength="14.46" x="91.5723" y="802.7803">18</text><text fill="#000000" font-family="sans-serif" font-size="13" lengthAdjust="spacing" textLength="298.2573" x="110.0322" y="802.7803">errorMessage("Duplicate maintenance type name!")</text><line style="stroke:#000000;stroke-width:1.0;stroke-dasharray:2.0,2.0;" x1="10" x2="2027.373" y1="817.043" y2="817.043"/><text fill="#000000" font-family="sans-serif" font-size="11" font-weight="bold" lengthAdjust="spacing" textLength="87.3984" x="15" y="828.9131">[name is unique]</text><polygon fill="#181818" points="1484.7397,851.9648,1494.7397,855.9648,1484.7397,859.9648,1488.7397,855.9648" style="stroke:#181818;stroke-width:1.0;"/><line style="stroke:#181818;stroke-width:1.0;" x1="834.0576" x2="1490.7397" y1="855.9648" y2="855.9648"/><text fill="#000000" font-family="sans-serif" font-size="13" font-weight="bold" lengthAdjust="spacing" textLength="14.46" x="841.0576" y="850.7021">19</text><text fill="#000000" font-family="sans-serif" font-size="13" lengthAdjust="spacing" textLength="139.458" x="859.5176" y="850.7021">save(maintenanceType)</text><path d="M1393.6919,870.9648 L1453.8628,870.9648 L1453.8628,880.2559 L1443.8628,890.2559 L1393.6919,890.2559 L1393.6919,870.9648 " fill="#EEEEEE" style="stroke:#000000;stroke-width:1.5;"/><rect fill="none" height="161.0859" style="stroke:#000000;stroke-width:1.5;" width="623.6812" x="1393.6919" y="870.9648"/><text fill="#000000" font-family="sans-serif" font-size="13" font-weight="bold" lengthAdjust="spacing" textLength="15.1709" x="1408.6919" y="885.9932">alt</text><text fill="#000000" font-family="sans-serif" font-size="11" font-weight="bold" lengthAdjust="spacing" textLength="216.3799" x="1468.8628" y="884.835">[Repository is MaintenanceTypeJPAImpl]</text><polygon fill="#181818" points="1704.1431,909.5469,1714.1431,913.5469,1704.1431,917.5469,1708.1431,913.5469" style="stroke:#181818;stroke-width:1.0;"/><line style="stroke:#181818;stroke-width:1.0;" x1="1506.7397" x2="1710.1431" y1="913.5469" y2="913.5469"/><text fill="#000000" font-family="sans-serif" font-size="13" font-weight="bold" lengthAdjust="spacing" textLength="14.46" x="1513.7397" y="908.2842">20</text><text fill="#000000" font-family="sans-serif" font-size="13" lengthAdjust="spacing" textLength="139.458" x="1532.1997" y="908.2842">save(maintenanceType)</text><polygon fill="#181818" points="1517.7397,940.8379,1507.7397,944.8379,1517.7397,948.8379,1513.7397,944.8379" style="stroke:#181818;stroke-width:1.0;"/><line style="stroke:#181818;stroke-width:1.0;stroke-dasharray:2.0,2.0;" x1="1511.7397" x2="1720.1431" y1="944.8379" y2="944.8379"/><text fill="#000000" font-family="sans-serif" font-size="13" font-weight="bold" lengthAdjust="spacing" textLength="14.46" x="1523.7397" y="939.5752">21</text><text fill="#000000" font-family="sans-serif" font-size="13" lengthAdjust="spacing" textLength="166.9434" x="1542.1997" y="939.5752">Optional&lt;MaintenanceType&gt;</text><line style="stroke:#000000;stroke-width:1.0;stroke-dasharray:2.0,2.0;" x1="1393.6919" x2="2017.373" y1="953.8379" y2="953.8379"/><text fill="#000000" font-family="sans-serif" font-size="11" font-weight="bold" lengthAdjust="spacing" textLength="224.3237" x="1398.6919" y="965.708">[Repository is MaintenanceTypeInMemory]</text><polygon fill="#181818" points="1896.6113,988.7598,1906.6113,992.7598,1896.6113,996.7598,1900.6113,992.7598" style="stroke:#181818;stroke-width:1.0;"/><line style="stroke:#181818;stroke-width:1.0;" x1="1506.7397" x2="1902.6113" y1="992.7598" y2="992.7598"/><text fill="#000000" font-family="sans-serif" font-size="13" font-weight="bold" lengthAdjust="spacing" textLength="14.46" x="1513.7397" y="987.4971">22</text><text fill="#000000" font-family="sans-serif" font-size="13" lengthAdjust="spacing" textLength="139.458" x="1532.1997" y="987.4971">save(maintenanceType)</text><polygon fill="#181818" points="1517.7397,1020.0508,1507.7397,1024.0508,1517.7397,1028.0508,1513.7397,1024.0508" style="stroke:#181818;stroke-width:1.0;"/><line style="stroke:#181818;stroke-width:1.0;stroke-dasharray:2.0,2.0;" x1="1511.7397" x2="1912.6113" y1="1024.0508" y2="1024.0508"/><text fill="#000000" font-family="sans-serif" font-size="13" font-weight="bold" lengthAdjust="spacing" textLength="14.46" x="1523.7397" y="1018.7881">23</text><text fill="#000000" font-family="sans-serif" font-size="13" lengthAdjust="spacing" textLength="166.9434" x="1542.1997" y="1018.7881">Optional&lt;MaintenanceType&gt;</text><polygon fill="#181818" points="845.0576,1058.3418,835.0576,1062.3418,845.0576,1066.3418,841.0576,1062.3418" style="stroke:#181818;stroke-width:1.0;"/><line style="stroke:#181818;stroke-width:1.0;stroke-dasharray:2.0,2.0;" x1="839.0576" x2="1500.7397" y1="1062.3418" y2="1062.3418"/><text fill="#000000" font-family="sans-serif" font-size="13" font-weight="bold" lengthAdjust="spacing" textLength="14.46" x="851.0576" y="1057.0791">24</text><text fill="#000000" font-family="sans-serif" font-size="13" lengthAdjust="spacing" textLength="166.9434" x="869.5176" y="1057.0791">Optional&lt;MaintenanceType&gt;</text><path d="M20,1077.3418 L80.1709,1077.3418 L80.1709,1086.6328 L70.1709,1096.6328 L20,1096.6328 L20,1077.3418 " fill="#EEEEEE" style="stroke:#000000;stroke-width:1.5;"/><rect fill="none" height="161.0859" style="stroke:#000000;stroke-width:1.5;" width="931.4468" x="20" y="1077.3418"/><text fill="#000000" font-family="sans-serif" font-size="13" font-weight="bold" lengthAdjust="spacing" textLength="15.1709" x="35" y="1092.3701">alt</text><text fill="#000000" font-family="sans-serif" font-size="11" font-weight="bold" lengthAdjust="spacing" textLength="63.583" x="95.1709" y="1091.2119">[save failed]</text><polygon fill="#181818" points="465.3149,1115.9238,455.3149,1119.9238,465.3149,1123.9238,461.3149,1119.9238" style="stroke:#181818;stroke-width:1.0;"/><line style="stroke:#181818;stroke-width:1.0;stroke-dasharray:2.0,2.0;" x1="459.3149" x2="833.0576" y1="1119.9238" y2="1119.9238"/><text fill="#000000" font-family="sans-serif" font-size="13" font-weight="bold" lengthAdjust="spacing" textLength="14.46" x="471.3149" y="1114.6611">25</text><text fill="#000000" font-family="sans-serif" font-size="13" lengthAdjust="spacing" textLength="288.8628" x="489.7749" y="1114.6611">errorMessage("Failed to save maintenance type!")</text><polygon fill="#181818" points="85.5723,1147.2148,75.5723,1151.2148,85.5723,1155.2148,81.5723,1151.2148" style="stroke:#181818;stroke-width:1.0;"/><line style="stroke:#181818;stroke-width:1.0;stroke-dasharray:2.0,2.0;" x1="79.5723" x2="453.3149" y1="1151.2148" y2="1151.2148"/><text fill="#000000" font-family="sans-serif" font-size="13" font-weight="bold" lengthAdjust="spacing" textLength="14.46" x="91.5723" y="1145.9521">26</text><text fill="#000000" font-family="sans-serif" font-size="13" lengthAdjust="spacing" textLength="288.8628" x="110.0322" y="1145.9521">errorMessage("Failed to save maintenance type!")</text><line style="stroke:#000000;stroke-width:1.0;stroke-dasharray:2.0,2.0;" x1="20" x2="951.4468" y1="1160.2148" y2="1160.2148"/><text fill="#000000" font-family="sans-serif" font-size="11" font-weight="bold" lengthAdjust="spacing" textLength="91.7168" x="25" y="1172.085">[save succeeded]</text><polygon fill="#181818" points="465.3149,1195.1367,455.3149,1199.1367,465.3149,1203.1367,461.3149,1199.1367" style="stroke:#181818;stroke-width:1.0;"/><line style="stroke:#181818;stroke-width:1.0;stroke-dasharray:2.0,2.0;" x1="459.3149" x2="833.0576" y1="1199.1367" y2="1199.1367"/><text fill="#000000" font-family="sans-serif" font-size="13" font-weight="bold" lengthAdjust="spacing" textLength="14.46" x="471.3149" y="1193.874">27</text><text fill="#000000" font-family="sans-serif" font-size="13" lengthAdjust="spacing" textLength="337.2827" x="489.7749" y="1193.874">successMessage("Maintenance type added successfully!")</text><polygon fill="#181818" points="85.5723,1226.4277,75.5723,1230.4277,85.5723,1234.4277,81.5723,1230.4277" style="stroke:#181818;stroke-width:1.0;"/><line style="stroke:#181818;stroke-width:1.0;stroke-dasharray:2.0,2.0;" x1="79.5723" x2="453.3149" y1="1230.4277" y2="1230.4277"/><text fill="#000000" font-family="sans-serif" font-size="13" font-weight="bold" lengthAdjust="spacing" textLength="14.46" x="91.5723" y="1225.165">28</text><text fill="#000000" font-family="sans-serif" font-size="13" lengthAdjust="spacing" textLength="337.2827" x="110.0322" y="1225.165">successMessage("Maintenance type added successfully!")</text><!--SRC=[fLRRRjim37ttLt1vIelb1umXG5TZG8PbBTgqJtjHRJOLQakU97V8tu-YRLbnOg_e0YImnCDpA5xas5UfQc541PLMEdynka9mfi741aijybUnntjtA14CvaweVHa3x8iez1-fzl0iIej9ugGZw3t-Rb3b29aKUuzRtcSNi8Ahee2jaCgX4jwyEzJa8ngdLLCzeQ7dt6a3YyneHMRCNnOWB6IxXFISp6Kjb8D5IaGHZwTvs33oOVDFvBLMpkYoHCCUrxkx7yS-FqM5RF8FZpV7nWnjRcJjf5PjQBGUOqQ2ZDkEZc2mrbRIOG-tHh_90iqlbTwTRB9llvXL6No9QDB6V7uvo_NzzcfJrIM3wNaMkr5Rh7fcNd0LvPjmw0kNP3jOhQamANKGjOLrfoLPNWmkLC673Qp89Ti5bn4-GoTaQScjmDWnqghRd4quAghiPoY6Mfu6iEREWClB57A3P8XsKn2dPvZZv2PBc90eshwAgDatWdUDr-62HmhIFefI5dJmtXOYyXiWbNK-e3Wl7LbGRpisLZyVSzVP7NmGYYRWh5xd5_Isk_59fx94CqBWGMcKuRDgv1EK-ZbXlMfg1E9c2vCLN0VrOK9XMHmeRfcdVXg0BYZkywFk2qmX6g-OmhDKnTU3hy6uo3o5_YVIlE6KYFBBwEZhM8eT4r4wK5np2qexQ9IaKKc0Fcq4tI2WCTfiqLgwo9UBhAbBcNkMA3_WV7OzsQV51JD44_WX_oXQRltH7eqOqkiYn7yIUvyzAzvmEQfagt2S3TwXX0nLzhJdRpK6-q-R-xMlwPpIaPg_3VjDtmkh4EfqwNfyb82UXhCm6tH_lPv4pOPtnzrUpFqshpuQ-q25gaY6aDxHn2Ecjf7xslcJqDy8MM8HP6Sw-HiZmUdMSToEVIVETlCxERXAZB1DdYCMKn6osTh0lntF2BqsIA-3FJTbUPY8yp-OV5NyDnaFuV40nZVsBlaB]--></g></svg>