<svg xmlns="http://www.w3.org/2000/svg" xmlns:xlink="http://www.w3.org/1999/xlink" contentStyleType="text/css" height="1111px" preserveAspectRatio="none" style="width:2203px;height:1111px;background:#FFFFFF;" version="1.1" viewBox="0 0 2203 1111" width="2203px" zoomAndPan="magnify"><title>UI Sequence Diagram (SD) - Add Maintenance Type</title><defs/><g><text fill="#000000" font-family="sans-serif" font-size="14" font-weight="bold" lengthAdjust="spacing" textLength="341.5098" x="931.978" y="30.1074">UI Sequence Diagram (SD) - Add Maintenance Type</text><rect fill="#FFFFFF" height="884.8281" style="stroke:#181818;stroke-width:1.0;" width="10" x="54.5723" y="133.2422"/><rect fill="#FFFFFF" height="861.5371" style="stroke:#181818;stroke-width:1.0;" width="10" x="499.2095" y="156.5332"/><rect fill="#FFFFFF" height="31.291" style="stroke:#181818;stroke-width:1.0;" width="10" x="700.5303" y="187.8242"/><rect fill="#FFFFFF" height="31.291" style="stroke:#181818;stroke-width:1.0;" width="10" x="833.8608" y="320.9883"/><rect fill="#FFFFFF" height="504.9961" style="stroke:#181818;stroke-width:1.0;" width="10" x="993.2637" y="392.5703"/><rect fill="#FFFFFF" height="31.291" style="stroke:#181818;stroke-width:1.0;" width="10" x="1253.0571" y="615.6074"/><rect fill="#FFFFFF" height="75.582" style="stroke:#181818;stroke-width:1.0;" width="10" x="1666.7866" y="704.4805"/><rect fill="#FFFFFF" height="31.291" style="stroke:#181818;stroke-width:1.0;" width="10" x="1955.5254" y="827.9844"/><rect fill="#FFFFFF" height="451.0742" style="stroke:#181818;stroke-width:1.0;" width="10" x="2118.8213" y="133.2422"/><rect fill="none" height="83.873" style="stroke:#000000;stroke-width:1.5;" width="480.7095" x="410.165" y="278.4063"/><rect fill="none" height="146.4551" style="stroke:#000000;stroke-width:1.5;" width="1786.3008" x="410.165" y="407.5703"/><rect fill="none" height="205.377" style="stroke:#000000;stroke-width:1.5;" width="1180.3022" x="880.8745" y="661.8984"/><rect fill="none" height="98.5039" style="stroke:#000000;stroke-width:1.5;" width="588.2539" x="10" y="912.5664"/><line style="stroke:#181818;stroke-width:0.5;stroke-dasharray:5.0,5.0;" x1="59" x2="59" y1="123.2422" y2="1028.0703"/><line style="stroke:#181818;stroke-width:0.5;stroke-dasharray:5.0,5.0;" x1="504.165" x2="504.165" y1="123.2422" y2="1028.0703"/><line style="stroke:#181818;stroke-width:0.5;stroke-dasharray:5.0,5.0;" x1="705.2134" x2="705.2134" y1="123.2422" y2="1028.0703"/><line style="stroke:#181818;stroke-width:0.5;stroke-dasharray:5.0,5.0;" x1="838.8472" x2="838.8472" y1="123.2422" y2="1028.0703"/><line style="stroke:#181818;stroke-width:0.5;stroke-dasharray:5.0,5.0;" x1="997.8745" x2="997.8745" y1="123.2422" y2="1028.0703"/><line style="stroke:#181818;stroke-width:0.5;stroke-dasharray:5.0,5.0;" x1="1257.5884" x2="1257.5884" y1="123.2422" y2="1028.0703"/><line style="stroke:#181818;stroke-width:0.5;stroke-dasharray:5.0,5.0;" x1="1434.5259" x2="1434.5259" y1="123.2422" y2="1028.0703"/><line style="stroke:#181818;stroke-width:0.5;stroke-dasharray:5.0,5.0;" x1="1671.6216" x2="1671.6216" y1="123.2422" y2="1028.0703"/><line style="stroke:#181818;stroke-width:0.5;stroke-dasharray:5.0,5.0;" x1="1959.874" x2="1959.874" y1="123.2422" y2="1028.0703"/><line style="stroke:#181818;stroke-width:0.5;stroke-dasharray:5.0,5.0;" x1="2123.1768" x2="2123.1768" y1="123.2422" y2="1028.0703"/><text fill="#000000" font-family="sans-serif" font-size="14" lengthAdjust="spacing" textLength="73.1445" x="20" y="119.7285">Drone Tech</text><ellipse cx="59.5723" cy="53.1211" fill="#E3E3E3" rx="8" ry="8" style="stroke:#181818;stroke-width:0.5;"/><path d="M59.5723,61.1211 L59.5723,88.1211 M46.5723,69.1211 L72.5723,69.1211 M59.5723,88.1211 L46.5723,103.1211 M59.5723,88.1211 L72.5723,103.1211 " fill="none" style="stroke:#181818;stroke-width:0.5;"/><text fill="#000000" font-family="sans-serif" font-size="14" lengthAdjust="spacing" textLength="73.1445" x="20" y="1042.1777">Drone Tech</text><ellipse cx="59.5723" cy="1054.1914" fill="#E3E3E3" rx="8" ry="8" style="stroke:#181818;stroke-width:0.5;"/><path d="M59.5723,1062.1914 L59.5723,1089.1914 M46.5723,1070.1914 L72.5723,1070.1914 M59.5723,1089.1914 L46.5723,1104.1914 M59.5723,1089.1914 L72.5723,1104.1914 " fill="none" style="stroke:#181818;stroke-width:0.5;"/><rect fill="#E3E3E3" height="32.6211" rx="2.5" ry="2.5" style="stroke:#181818;stroke-width:0.5;" width="168.0889" x="420.165" y="89.6211"/><text fill="#000000" font-family="sans-serif" font-size="14" lengthAdjust="spacing" textLength="154.0889" x="427.165" y="111.7285">:AddMaintenanceTypeUI</text><rect fill="#E3E3E3" height="32.6211" rx="2.5" ry="2.5" style="stroke:#181818;stroke-width:0.5;" width="168.0889" x="420.165" y="1027.0703"/><text fill="#000000" font-family="sans-serif" font-size="14" lengthAdjust="spacing" textLength="154.0889" x="427.165" y="1049.1777">:AddMaintenanceTypeUI</text><rect fill="#E3E3E3" height="32.6211" rx="2.5" ry="2.5" style="stroke:#181818;stroke-width:0.5;" width="162.6338" x="624.2134" y="89.6211"/><text fill="#000000" font-family="sans-serif" font-size="14" lengthAdjust="spacing" textLength="148.6338" x="631.2134" y="111.7285">MaintenanceTypeName</text><rect fill="#E3E3E3" height="32.6211" rx="2.5" ry="2.5" style="stroke:#181818;stroke-width:0.5;" width="162.6338" x="624.2134" y="1027.0703"/><text fill="#000000" font-family="sans-serif" font-size="14" lengthAdjust="spacing" textLength="148.6338" x="631.2134" y="1049.1777">MaintenanceTypeName</text><rect fill="#E3E3E3" height="32.6211" rx="2.5" ry="2.5" style="stroke:#181818;stroke-width:0.5;" width="84.0273" x="796.8472" y="89.6211"/><text fill="#000000" font-family="sans-serif" font-size="14" lengthAdjust="spacing" textLength="70.0273" x="803.8472" y="111.7285">Description</text><rect fill="#E3E3E3" height="32.6211" rx="2.5" ry="2.5" style="stroke:#181818;stroke-width:0.5;" width="84.0273" x="796.8472" y="1027.0703"/><text fill="#000000" font-family="sans-serif" font-size="14" lengthAdjust="spacing" textLength="70.0273" x="803.8472" y="1049.1777">Description</text><rect fill="#E3E3E3" height="32.6211" rx="2.5" ry="2.5" style="stroke:#181818;stroke-width:0.5;" width="214.7783" x="890.8745" y="89.6211"/><text fill="#000000" font-family="sans-serif" font-size="14" lengthAdjust="spacing" textLength="200.7783" x="897.8745" y="111.7285">:AddMaintenanceTypeController</text><rect fill="#E3E3E3" height="32.6211" rx="2.5" ry="2.5" style="stroke:#181818;stroke-width:0.5;" width="214.7783" x="890.8745" y="1027.0703"/><text fill="#000000" font-family="sans-serif" font-size="14" lengthAdjust="spacing" textLength="200.7783" x="897.8745" y="1049.1777">:AddMaintenanceTypeController</text><rect fill="#E3E3E3" height="32.6211" rx="2.5" ry="2.5" style="stroke:#181818;stroke-width:0.5;" width="136.9375" x="1189.5884" y="89.6211"/><text fill="#000000" font-family="sans-serif" font-size="14" lengthAdjust="spacing" textLength="122.9375" x="1196.5884" y="111.7285">:RepositoryProvider</text><rect fill="#E3E3E3" height="32.6211" rx="2.5" ry="2.5" style="stroke:#181818;stroke-width:0.5;" width="136.9375" x="1189.5884" y="1027.0703"/><text fill="#000000" font-family="sans-serif" font-size="14" lengthAdjust="spacing" textLength="122.9375" x="1196.5884" y="1049.1777">:RepositoryProvider</text><rect fill="#E3E3E3" height="32.6211" rx="2.5" ry="2.5" style="stroke:#181818;stroke-width:0.5;" width="196.0957" x="1336.5259" y="89.6211"/><text fill="#000000" font-family="sans-serif" font-size="14" lengthAdjust="spacing" textLength="182.0957" x="1343.5259" y="111.7285">:MaintenanceTypeRepository</text><rect fill="#E3E3E3" height="32.6211" rx="2.5" ry="2.5" style="stroke:#181818;stroke-width:0.5;" width="196.0957" x="1336.5259" y="1027.0703"/><text fill="#000000" font-family="sans-serif" font-size="14" lengthAdjust="spacing" textLength="182.0957" x="1343.5259" y="1049.1777">:MaintenanceTypeRepository</text><rect fill="#E3E3E3" height="32.6211" rx="2.5" ry="2.5" style="stroke:#181818;stroke-width:0.5;" width="258.3301" x="1542.6216" y="89.6211"/><text fill="#000000" font-family="sans-serif" font-size="14" lengthAdjust="spacing" textLength="244.3301" x="1549.6216" y="111.7285">:InMemoryMaintenanceTypeRepository</text><rect fill="#E3E3E3" height="32.6211" rx="2.5" ry="2.5" style="stroke:#181818;stroke-width:0.5;" width="258.3301" x="1542.6216" y="1027.0703"/><text fill="#000000" font-family="sans-serif" font-size="14" lengthAdjust="spacing" textLength="244.3301" x="1549.6216" y="1049.1777">:InMemoryMaintenanceTypeRepository</text><rect fill="#E3E3E3" height="32.6211" rx="2.5" ry="2.5" style="stroke:#181818;stroke-width:0.5;" width="181.3027" x="1869.874" y="89.6211"/><text fill="#000000" font-family="sans-serif" font-size="14" lengthAdjust="spacing" textLength="167.3027" x="1876.874" y="111.7285">:MaintenanceTypeJPAImpl</text><rect fill="#E3E3E3" height="32.6211" rx="2.5" ry="2.5" style="stroke:#181818;stroke-width:0.5;" width="181.3027" x="1869.874" y="1027.0703"/><text fill="#000000" font-family="sans-serif" font-size="14" lengthAdjust="spacing" textLength="167.3027" x="1876.874" y="1049.1777">:MaintenanceTypeJPAImpl</text><rect fill="#E3E3E3" height="32.6211" rx="2.5" ry="2.5" style="stroke:#181818;stroke-width:0.5;" width="125.2891" x="2061.1768" y="89.6211"/><text fill="#000000" font-family="sans-serif" font-size="14" lengthAdjust="spacing" textLength="111.2891" x="2068.1768" y="111.7285">MaintenanceType</text><rect fill="#E3E3E3" height="32.6211" rx="2.5" ry="2.5" style="stroke:#181818;stroke-width:0.5;" width="125.2891" x="2061.1768" y="1027.0703"/><text fill="#000000" font-family="sans-serif" font-size="14" lengthAdjust="spacing" textLength="111.2891" x="2068.1768" y="1049.1777">MaintenanceType</text><rect fill="#FFFFFF" height="884.8281" style="stroke:#181818;stroke-width:1.0;" width="10" x="54.5723" y="133.2422"/><rect fill="#FFFFFF" height="861.5371" style="stroke:#181818;stroke-width:1.0;" width="10" x="499.2095" y="156.5332"/><rect fill="#FFFFFF" height="31.291" style="stroke:#181818;stroke-width:1.0;" width="10" x="700.5303" y="187.8242"/><rect fill="#FFFFFF" height="31.291" style="stroke:#181818;stroke-width:1.0;" width="10" x="833.8608" y="320.9883"/><rect fill="#FFFFFF" height="504.9961" style="stroke:#181818;stroke-width:1.0;" width="10" x="993.2637" y="392.5703"/><rect fill="#FFFFFF" height="31.291" style="stroke:#181818;stroke-width:1.0;" width="10" x="1253.0571" y="615.6074"/><rect fill="#FFFFFF" height="75.582" style="stroke:#181818;stroke-width:1.0;" width="10" x="1666.7866" y="704.4805"/><rect fill="#FFFFFF" height="31.291" style="stroke:#181818;stroke-width:1.0;" width="10" x="1955.5254" y="827.9844"/><rect fill="#FFFFFF" height="451.0742" style="stroke:#181818;stroke-width:1.0;" width="10" x="2118.8213" y="133.2422"/><polygon fill="#181818" points="487.2095,152.5332,497.2095,156.5332,487.2095,160.5332,491.2095,156.5332" style="stroke:#181818;stroke-width:1.0;"/><line style="stroke:#181818;stroke-width:1.0;" x1="64.5723" x2="493.2095" y1="156.5332" y2="156.5332"/><text fill="#000000" font-family="sans-serif" font-size="13" font-weight="bold" lengthAdjust="spacing" textLength="7.23" x="71.5723" y="151.2705">1</text><text fill="#000000" font-family="sans-serif" font-size="13" lengthAdjust="spacing" textLength="206.6924" x="82.8022" y="151.2705">requests to add a maintenance type</text><polygon fill="#181818" points="688.5303,183.8242,698.5303,187.8242,688.5303,191.8242,692.5303,187.8242" style="stroke:#181818;stroke-width:1.0;"/><line style="stroke:#181818;stroke-width:1.0;" x1="509.2095" x2="694.5303" y1="187.8242" y2="187.8242"/><text fill="#000000" font-family="sans-serif" font-size="13" font-weight="bold" lengthAdjust="spacing" textLength="7.23" x="516.2095" y="182.5615">2</text><text fill="#000000" font-family="sans-serif" font-size="13" lengthAdjust="spacing" textLength="161.0908" x="527.4395" y="182.5615">Utils.rePromptWhileInvalid()</text><polygon fill="#181818" points="520.2095,215.1152,510.2095,219.1152,520.2095,223.1152,516.2095,219.1152" style="stroke:#181818;stroke-width:1.0;"/><line style="stroke:#181818;stroke-width:1.0;" x1="514.2095" x2="704.5303" y1="219.1152" y2="219.1152"/><text fill="#000000" font-family="sans-serif" font-size="13" font-weight="bold" lengthAdjust="spacing" textLength="7.23" x="526.2095" y="213.8525">3</text><text fill="#000000" font-family="sans-serif" font-size="13" lengthAdjust="spacing" textLength="138.0171" x="537.4395" y="213.8525">maintenanceTypeName</text><line style="stroke:#181818;stroke-width:1.0;" x1="509.2095" x2="551.2095" y1="250.4063" y2="250.4063"/><line style="stroke:#181818;stroke-width:1.0;" x1="551.2095" x2="551.2095" y1="250.4063" y2="263.4063"/><line style="stroke:#181818;stroke-width:1.0;" x1="510.2095" x2="551.2095" y1="263.4063" y2="263.4063"/><polygon fill="#181818" points="520.2095,259.4063,510.2095,263.4063,520.2095,267.4063,516.2095,263.4063" style="stroke:#181818;stroke-width:1.0;"/><text fill="#000000" font-family="sans-serif" font-size="13" font-weight="bold" lengthAdjust="spacing" textLength="7.23" x="516.2095" y="245.1436">4</text><text fill="#000000" font-family="sans-serif" font-size="13" lengthAdjust="spacing" textLength="133.6436" x="527.4395" y="245.1436">promptForDescription()</text><path d="M410.165,278.4063 L470.3359,278.4063 L470.3359,287.6973 L460.3359,297.6973 L410.165,297.6973 L410.165,278.4063 " fill="#EEEEEE" style="stroke:#000000;stroke-width:1.5;"/><rect fill="none" height="83.873" style="stroke:#000000;stroke-width:1.5;" width="480.7095" x="410.165" y="278.4063"/><text fill="#000000" font-family="sans-serif" font-size="13" font-weight="bold" lengthAdjust="spacing" textLength="15.1709" x="425.165" y="293.4346">alt</text><text fill="#000000" font-family="sans-serif" font-size="11" font-weight="bold" lengthAdjust="spacing" textLength="122.8584" x="485.3359" y="292.2764">[hasDescription is true]</text><polygon fill="#181818" points="821.8608,316.9883,831.8608,320.9883,821.8608,324.9883,825.8608,320.9883" style="stroke:#181818;stroke-width:1.0;"/><line style="stroke:#181818;stroke-width:1.0;" x1="509.2095" x2="827.8608" y1="320.9883" y2="320.9883"/><text fill="#000000" font-family="sans-serif" font-size="13" font-weight="bold" lengthAdjust="spacing" textLength="7.23" x="516.2095" y="315.7256">5</text><text fill="#000000" font-family="sans-serif" font-size="13" lengthAdjust="spacing" textLength="161.0908" x="527.4395" y="315.7256">Utils.rePromptWhileInvalid()</text><polygon fill="#181818" points="520.2095,348.2793,510.2095,352.2793,520.2095,356.2793,516.2095,352.2793" style="stroke:#181818;stroke-width:1.0;"/><line style="stroke:#181818;stroke-width:1.0;" x1="514.2095" x2="837.8608" y1="352.2793" y2="352.2793"/><text fill="#000000" font-family="sans-serif" font-size="13" font-weight="bold" lengthAdjust="spacing" textLength="7.23" x="526.2095" y="347.0166">6</text><text fill="#000000" font-family="sans-serif" font-size="13" lengthAdjust="spacing" textLength="62.8672" x="537.4395" y="347.0166">description</text><line style="stroke:#000000;stroke-width:1.0;stroke-dasharray:2.0,2.0;" x1="410.165" x2="890.8745" y1="361.2793" y2="361.2793"/><polygon fill="#181818" points="981.2637,388.5703,991.2637,392.5703,981.2637,396.5703,985.2637,392.5703" style="stroke:#181818;stroke-width:1.0;"/><line style="stroke:#181818;stroke-width:1.0;" x1="509.2095" x2="987.2637" y1="392.5703" y2="392.5703"/><text fill="#000000" font-family="sans-serif" font-size="13" font-weight="bold" lengthAdjust="spacing" textLength="7.23" x="516.2095" y="387.3076">7</text><text fill="#000000" font-family="sans-serif" font-size="13" lengthAdjust="spacing" textLength="36.1309" x="527.4395" y="387.3076">create</text><path d="M410.165,407.5703 L470.3359,407.5703 L470.3359,416.8613 L460.3359,426.8613 L410.165,426.8613 L410.165,407.5703 " fill="#EEEEEE" style="stroke:#000000;stroke-width:1.5;"/><rect fill="none" height="146.4551" style="stroke:#000000;stroke-width:1.5;" width="1786.3008" x="410.165" y="407.5703"/><text fill="#000000" font-family="sans-serif" font-size="13" font-weight="bold" lengthAdjust="spacing" textLength="15.1709" x="425.165" y="422.5986">alt</text><text fill="#000000" font-family="sans-serif" font-size="11" font-weight="bold" lengthAdjust="spacing" textLength="122.8584" x="485.3359" y="421.4404">[hasDescription is true]</text><polygon fill="#181818" points="981.2637,446.1523,991.2637,450.1523,981.2637,454.1523,985.2637,450.1523" style="stroke:#181818;stroke-width:1.0;"/><line style="stroke:#181818;stroke-width:1.0;" x1="509.2095" x2="987.2637" y1="450.1523" y2="450.1523"/><text fill="#000000" font-family="sans-serif" font-size="13" font-weight="bold" lengthAdjust="spacing" textLength="7.23" x="516.2095" y="444.8896">8</text><text fill="#000000" font-family="sans-serif" font-size="13" lengthAdjust="spacing" textLength="356.2368" x="527.4395" y="444.8896">createMaintenanceType(maintenanceTypeName, description)</text><polygon fill="#181818" points="2106.8213,477.4434,2116.8213,481.4434,2106.8213,485.4434,2110.8213,481.4434" style="stroke:#181818;stroke-width:1.0;"/><line style="stroke:#181818;stroke-width:1.0;" x1="1003.2637" x2="2112.8213" y1="481.4434" y2="481.4434"/><text fill="#000000" font-family="sans-serif" font-size="13" font-weight="bold" lengthAdjust="spacing" textLength="7.23" x="1010.2637" y="476.1807">9</text><text fill="#000000" font-family="sans-serif" font-size="13" lengthAdjust="spacing" textLength="240.6143" x="1021.4937" y="476.1807">new(maintenanceTypeName, description)</text><line style="stroke:#000000;stroke-width:1.0;stroke-dasharray:2.0,2.0;" x1="410.165" x2="2196.4658" y1="490.4434" y2="490.4434"/><polygon fill="#181818" points="981.2637,510.7344,991.2637,514.7344,981.2637,518.7344,985.2637,514.7344" style="stroke:#181818;stroke-width:1.0;"/><line style="stroke:#181818;stroke-width:1.0;" x1="509.2095" x2="987.2637" y1="514.7344" y2="514.7344"/><text fill="#000000" font-family="sans-serif" font-size="13" font-weight="bold" lengthAdjust="spacing" textLength="14.46" x="516.2095" y="509.4717">10</text><text fill="#000000" font-family="sans-serif" font-size="13" lengthAdjust="spacing" textLength="395.2432" x="534.6694" y="509.4717">createMaintenanceTypeWithoutDescription(maintenanceTypeName)</text><polygon fill="#181818" points="2106.8213,542.0254,2116.8213,546.0254,2106.8213,550.0254,2110.8213,546.0254" style="stroke:#181818;stroke-width:1.0;"/><line style="stroke:#181818;stroke-width:1.0;" x1="1003.2637" x2="2112.8213" y1="546.0254" y2="546.0254"/><text fill="#000000" font-family="sans-serif" font-size="13" font-weight="bold" lengthAdjust="spacing" textLength="14.46" x="1010.2637" y="540.7627">11</text><text fill="#000000" font-family="sans-serif" font-size="13" lengthAdjust="spacing" textLength="170.5234" x="1028.7236" y="540.7627">new(maintenanceTypeName)</text><polygon fill="#181818" points="1014.2637,580.3164,1004.2637,584.3164,1014.2637,588.3164,1010.2637,584.3164" style="stroke:#181818;stroke-width:1.0;"/><line style="stroke:#181818;stroke-width:1.0;stroke-dasharray:2.0,2.0;" x1="1008.2637" x2="2122.8213" y1="584.3164" y2="584.3164"/><text fill="#000000" font-family="sans-serif" font-size="13" font-weight="bold" lengthAdjust="spacing" textLength="14.46" x="1020.2637" y="579.0537">12</text><text fill="#000000" font-family="sans-serif" font-size="13" lengthAdjust="spacing" textLength="155.3716" x="1038.7236" y="579.0537">MaintenanceType instance</text><polygon fill="#181818" points="1241.0571,611.6074,1251.0571,615.6074,1241.0571,619.6074,1245.0571,615.6074" style="stroke:#181818;stroke-width:1.0;"/><line style="stroke:#181818;stroke-width:1.0;" x1="1003.2637" x2="1247.0571" y1="615.6074" y2="615.6074"/><text fill="#000000" font-family="sans-serif" font-size="13" font-weight="bold" lengthAdjust="spacing" textLength="14.46" x="1010.2637" y="610.3447">13</text><text fill="#000000" font-family="sans-serif" font-size="13" lengthAdjust="spacing" textLength="174.1353" x="1028.7236" y="610.3447">maintenanceTypeRepository()</text><polygon fill="#181818" points="1014.2637,642.8984,1004.2637,646.8984,1014.2637,650.8984,1010.2637,646.8984" style="stroke:#181818;stroke-width:1.0;"/><line style="stroke:#181818;stroke-width:1.0;stroke-dasharray:2.0,2.0;" x1="1008.2637" x2="1257.0571" y1="646.8984" y2="646.8984"/><text fill="#000000" font-family="sans-serif" font-size="13" font-weight="bold" lengthAdjust="spacing" textLength="14.46" x="1020.2637" y="641.6357">14</text><text fill="#000000" font-family="sans-serif" font-size="13" lengthAdjust="spacing" textLength="207.3335" x="1038.7236" y="641.6357">repository (dynamic: InMem or JPA)</text><path d="M880.8745,661.8984 L941.0454,661.8984 L941.0454,671.1895 L931.0454,681.1895 L880.8745,681.1895 L880.8745,661.8984 " fill="#EEEEEE" style="stroke:#000000;stroke-width:1.5;"/><rect fill="none" height="205.377" style="stroke:#000000;stroke-width:1.5;" width="1180.3022" x="880.8745" y="661.8984"/><text fill="#000000" font-family="sans-serif" font-size="13" font-weight="bold" lengthAdjust="spacing" textLength="15.1709" x="895.8745" y="676.9268">alt</text><text fill="#000000" font-family="sans-serif" font-size="11" font-weight="bold" lengthAdjust="spacing" textLength="281.7783" x="956.0454" y="675.7686">[Repository is InMemoryMaintenanceTypeRepository]</text><polygon fill="#181818" points="1654.7866,700.4805,1664.7866,704.4805,1654.7866,708.4805,1658.7866,704.4805" style="stroke:#181818;stroke-width:1.0;"/><line style="stroke:#181818;stroke-width:1.0;" x1="1003.2637" x2="1660.7866" y1="704.4805" y2="704.4805"/><text fill="#000000" font-family="sans-serif" font-size="13" font-weight="bold" lengthAdjust="spacing" textLength="14.46" x="1010.2637" y="699.2178">15</text><text fill="#000000" font-family="sans-serif" font-size="13" lengthAdjust="spacing" textLength="139.458" x="1028.7236" y="699.2178">save(maintenanceType)</text><line style="stroke:#181818;stroke-width:1.0;" x1="1676.7866" x2="1718.7866" y1="735.7715" y2="735.7715"/><line style="stroke:#181818;stroke-width:1.0;" x1="1718.7866" x2="1718.7866" y1="735.7715" y2="748.7715"/><line style="stroke:#181818;stroke-width:1.0;" x1="1677.7866" x2="1718.7866" y1="748.7715" y2="748.7715"/><polygon fill="#181818" points="1687.7866,744.7715,1677.7866,748.7715,1687.7866,752.7715,1683.7866,748.7715" style="stroke:#181818;stroke-width:1.0;"/><text fill="#000000" font-family="sans-serif" font-size="13" font-weight="bold" lengthAdjust="spacing" textLength="14.46" x="1683.7866" y="730.5088">16</text><text fill="#000000" font-family="sans-serif" font-size="13" lengthAdjust="spacing" textLength="236.2788" x="1702.2466" y="730.5088">containsKey(maintenanceType.identity())</text><polygon fill="#181818" points="1014.2637,776.0625,1004.2637,780.0625,1014.2637,784.0625,1010.2637,780.0625" style="stroke:#181818;stroke-width:1.0;"/><line style="stroke:#181818;stroke-width:1.0;stroke-dasharray:2.0,2.0;" x1="1008.2637" x2="1670.7866" y1="780.0625" y2="780.0625"/><text fill="#000000" font-family="sans-serif" font-size="13" font-weight="bold" lengthAdjust="spacing" textLength="14.46" x="1020.2637" y="774.7998">17</text><text fill="#000000" font-family="sans-serif" font-size="13" lengthAdjust="spacing" textLength="166.9434" x="1038.7236" y="774.7998">Optional&lt;MaintenanceType&gt;</text><line style="stroke:#000000;stroke-width:1.0;stroke-dasharray:2.0,2.0;" x1="880.8745" x2="2061.1768" y1="789.0625" y2="789.0625"/><text fill="#000000" font-family="sans-serif" font-size="11" font-weight="bold" lengthAdjust="spacing" textLength="216.3799" x="885.8745" y="800.9326">[Repository is MaintenanceTypeJPAImpl]</text><polygon fill="#181818" points="1943.5254,823.9844,1953.5254,827.9844,1943.5254,831.9844,1947.5254,827.9844" style="stroke:#181818;stroke-width:1.0;"/><line style="stroke:#181818;stroke-width:1.0;" x1="1003.2637" x2="1949.5254" y1="827.9844" y2="827.9844"/><text fill="#000000" font-family="sans-serif" font-size="13" font-weight="bold" lengthAdjust="spacing" textLength="14.46" x="1010.2637" y="822.7217">18</text><text fill="#000000" font-family="sans-serif" font-size="13" lengthAdjust="spacing" textLength="139.458" x="1028.7236" y="822.7217">save(maintenanceType)</text><polygon fill="#181818" points="1014.2637,855.2754,1004.2637,859.2754,1014.2637,863.2754,1010.2637,859.2754" style="stroke:#181818;stroke-width:1.0;"/><line style="stroke:#181818;stroke-width:1.0;stroke-dasharray:2.0,2.0;" x1="1008.2637" x2="1959.5254" y1="859.2754" y2="859.2754"/><text fill="#000000" font-family="sans-serif" font-size="13" font-weight="bold" lengthAdjust="spacing" textLength="14.46" x="1020.2637" y="854.0127">19</text><text fill="#000000" font-family="sans-serif" font-size="13" lengthAdjust="spacing" textLength="166.9434" x="1038.7236" y="854.0127">Optional&lt;MaintenanceType&gt;</text><polygon fill="#181818" points="520.2095,893.5664,510.2095,897.5664,520.2095,901.5664,516.2095,897.5664" style="stroke:#181818;stroke-width:1.0;"/><line style="stroke:#181818;stroke-width:1.0;stroke-dasharray:2.0,2.0;" x1="514.2095" x2="997.2637" y1="897.5664" y2="897.5664"/><text fill="#000000" font-family="sans-serif" font-size="13" font-weight="bold" lengthAdjust="spacing" textLength="14.46" x="526.2095" y="892.3037">20</text><text fill="#000000" font-family="sans-serif" font-size="13" lengthAdjust="spacing" textLength="166.9434" x="544.6694" y="892.3037">Optional&lt;MaintenanceType&gt;</text><path d="M10,912.5664 L70.1709,912.5664 L70.1709,921.8574 L60.1709,931.8574 L10,931.8574 L10,912.5664 " fill="#EEEEEE" style="stroke:#000000;stroke-width:1.5;"/><rect fill="none" height="98.5039" style="stroke:#000000;stroke-width:1.5;" width="588.2539" x="10" y="912.5664"/><text fill="#000000" font-family="sans-serif" font-size="13" font-weight="bold" lengthAdjust="spacing" textLength="15.1709" x="25" y="927.5947">alt</text><text fill="#000000" font-family="sans-serif" font-size="11" font-weight="bold" lengthAdjust="spacing" textLength="202.9683" x="85.1709" y="926.4365">[MaintenanceType saved successfully]</text><polygon fill="#181818" points="75.5723,951.1484,65.5723,955.1484,75.5723,959.1484,71.5723,955.1484" style="stroke:#181818;stroke-width:1.0;"/><line style="stroke:#181818;stroke-width:1.0;stroke-dasharray:2.0,2.0;" x1="69.5723" x2="498.2095" y1="955.1484" y2="955.1484"/><text fill="#000000" font-family="sans-serif" font-size="13" font-weight="bold" lengthAdjust="spacing" textLength="14.46" x="81.5723" y="949.8857">21</text><text fill="#000000" font-family="sans-serif" font-size="13" lengthAdjust="spacing" textLength="344.4937" x="100.0322" y="949.8857">successMessage("Maintenance type created successfully!")</text><line style="stroke:#000000;stroke-width:1.0;stroke-dasharray:2.0,2.0;" x1="10" x2="598.2539" y1="964.1484" y2="964.1484"/><text fill="#000000" font-family="sans-serif" font-size="11" font-weight="bold" lengthAdjust="spacing" textLength="155.2622" x="15" y="976.0186">[Save failed (duplicate name)]</text><polygon fill="#181818" points="75.5723,999.0703,65.5723,1003.0703,75.5723,1007.0703,71.5723,1003.0703" style="stroke:#181818;stroke-width:1.0;"/><line style="stroke:#181818;stroke-width:1.0;stroke-dasharray:2.0,2.0;" x1="69.5723" x2="498.2095" y1="1003.0703" y2="1003.0703"/><text fill="#000000" font-family="sans-serif" font-size="13" font-weight="bold" lengthAdjust="spacing" textLength="14.46" x="81.5723" y="997.8076">22</text><text fill="#000000" font-family="sans-serif" font-size="13" lengthAdjust="spacing" textLength="392.1772" x="100.0322" y="997.8076">errorMessage("A Maintenance Type with that name already exists!")</text><!--SRC=[dLN1Rjim3BtxAxYS4c3j1mH3WQB1W6pBMZJEUbPbDXOgIvua9_FVZv8TMr6oD5Y1e9R4nqUAZvHz5wfcXbLGQQLvQNI5u4o3cHrEQiRVsHRNhfK81hbZQYjZ0rkoGk-5si8RanQpp0b7ffibhF5tWueZB0JRUjFfUZ636xWl2bWneHmgve_pjYOOQvnMJVMAXhwvqmOc2wCL7ICl9y0iBFACA9tWecRAmMHEZY8_tirc6ImtosFBnEedgp3O-OzVZyUs2xJSYDe9hJfMMgSsPvWVj796Iuace1xovny9vXbhRGKbrZuPlHD5RtbO9DQ9-n4SG7wP09PgXHMTNmO6gyjKtvxkbrKjWpbzNxp9OBJAGyN4ZZdqHSeMETpSKH7c91YIW7KMd0P6PMTGHOLtll03aegMaMe8sPK5vh1nGjfRWtH7LUrUIY5ngNPCYc8w6u5z5NjKproTbZmhCCNqX1vG1uwlsaG2y2pIGSbij0d2Taq2zDVXEury5B2t7- -favNVwz5z7CN854wZe7iC-ZRpHqhJfX7Rqis16hAsHs1KnI4_hqQAZXiaD-F51P5UbQ2tFE0J2KpFtFJdE90kyH02ULhb58Z2_HMm8SyFOtWHhjIDYojtnltrWSp2vGttH08dwviXXeGTXBBEBsA1-QOuK1rQ74vaENPdBEXX90p0aTiC29WMhMALuFEkgu569lNhB8vYy1JAFBBv4dyuC8wkArYJpDZkfEA9ihiHuxUwi4Omfnb9KFiTszJ7BKMfwEMWUvZ5s27lnr1M9hyauTwbJTBHU-qa-PuVSqT9qjvLAVgnw3Ve__-4wE6XEplUll7_3O-WeML3CLCH-h0Bi0tdQErR8sKxz8wVKFdySBQY7xteqtYMXr7SzzQnaq-JhX5XJVxfYQU9Lf3ocbeAxWDIGsD5J6YCDWFF_Sbh3tjgM70bSm4FJ19pqGB-4VHO14f_FL7Uz3Z4Wp3F_W80]--></g></svg>