<?xml version="1.0" encoding="UTF-8" standalone="no"?><svg xmlns="http://www.w3.org/2000/svg" xmlns:xlink="http://www.w3.org/1999/xlink" contentScriptType="application/ecmascript" contentStyleType="text/css" height="338px" preserveAspectRatio="none" style="width:253px;height:338px;" version="1.1" viewBox="0 0 253 338" width="253px" zoomAndPan="magnify"><defs><filter height="300%" id="f1wk891rsvpf7g" width="300%" x="-1" y="-1"><feGaussianBlur result="blurOut" stdDeviation="2.0"/><feColorMatrix in="blurOut" result="blurOut2" type="matrix" values="0 0 0 0 0 0 0 0 0 0 0 0 0 0 0 0 0 0 .4 0"/><feOffset dx="4.0" dy="4.0" in="blurOut2" result="blurOut3"/><feBlend in="SourceGraphic" in2="blurOut3" mode="normal"/></filter></defs><g><!--MD5=[236c1f2d659259c0942bd824881b08fd]
class domain.valueObjects.Address--><a href="Address.html" target="_top" title="Address.html" xlink:actuate="onRequest" xlink:href="Address.html" xlink:show="new" xlink:title="Address.html" xlink:type="simple"><rect codeLine="5" fill="#FEFECE" filter="url(#f1wk891rsvpf7g)" height="196.7715" id="domain.valueObjects.Address" style="stroke: #A80036; stroke-width: 1.5;" width="225" x="9" y="105.27"/><ellipse cx="66.25" cy="124.4028" fill="#ADD1B2" rx="11" ry="11" style="stroke: #A80036; stroke-width: 1.0;"/><path d="M68.7231,130.5459 Q68.1421,130.8447 67.5029,130.9941 Q66.8638,131.1435 66.1582,131.1435 Q63.6514,131.1435 62.3315,129.4917 Q61.0117,127.8398 61.0117,124.7187 Q61.0117,121.5893 62.3315,119.9375 Q63.6514,118.2856 66.1582,118.2856 Q66.8638,118.2856 67.5112,118.435 Q68.1587,118.5845 68.7231,118.8833 L68.7231,121.6059 Q68.0923,121.0249 67.4988,120.7551 Q66.9053,120.4853 66.2744,120.4853 Q64.9297,120.4853 64.2449,121.552 Q63.5601,122.6186 63.5601,124.7187 Q63.5601,126.8105 64.2449,127.8772 Q64.9297,128.9438 66.2744,128.9438 Q66.9053,128.9438 67.4988,128.6741 Q68.0923,128.4043 68.7231,127.8232 Z "/><text fill="#000000" font-family="sans-serif" font-size="14" lengthAdjust="spacingAndGlyphs" textLength="56" x="109.75" y="123.8052">Address</text><text fill="#000000" font-family="sans-serif" font-size="10" lengthAdjust="spacingAndGlyphs" textLength="102" x="86.75" y="136.4263">domain.valueObjects</text><line style="stroke: #A80036; stroke-width: 1.5;" x1="10" x2="233" y1="143.5356" y2="143.5356"/><rect fill="none" height="6" style="stroke: #C82930; stroke-width: 1.0;" width="6" x="17" y="151.5356"/><text fill="#000000" font-family="sans-serif" font-size="11" lengthAdjust="spacingAndGlyphs" textLength="69" x="29" y="158.1704">street: String</text><rect fill="none" height="6" style="stroke: #C82930; stroke-width: 1.0;" width="6" x="17" y="164.4907"/><text fill="#000000" font-family="sans-serif" font-size="11" lengthAdjust="spacingAndGlyphs" textLength="57" x="29" y="171.1255">city: String</text><rect fill="none" height="6" style="stroke: #C82930; stroke-width: 1.0;" width="6" x="17" y="177.4458"/><text fill="#000000" font-family="sans-serif" font-size="11" lengthAdjust="spacingAndGlyphs" textLength="99" x="29" y="184.0805">postalCode: String</text><rect fill="none" height="6" style="stroke: #C82930; stroke-width: 1.0;" width="6" x="17" y="190.4009"/><text fill="#000000" font-family="sans-serif" font-size="11" lengthAdjust="spacingAndGlyphs" textLength="80" x="29" y="197.0356">country: String</text><line style="stroke: #A80036; stroke-width: 1.5;" x1="10" x2="233" y1="203.3559" y2="203.3559"/><polygon fill="#FFFF44" points="20,209.3559,24,213.3559,20,217.3559,16,213.3559" style="stroke: #B38D22; stroke-width: 1.0;"/><text fill="#000000" font-family="sans-serif" font-size="11" lengthAdjust="spacingAndGlyphs" textLength="53" x="29" y="217.9907">Address()</text><ellipse cx="20" cy="227.311" fill="#84BE84" rx="3" ry="3" style="stroke: #038048; stroke-width: 1.0;"/><text fill="#000000" font-family="sans-serif" font-size="11" lengthAdjust="spacingAndGlyphs" textLength="199" x="29" y="230.9458">Address(String, String, String, String)</text><rect fill="#F24D5C" height="6" style="stroke: #C82930; stroke-width: 1.0;" width="6" x="17" y="237.2661"/><text fill="#000000" font-family="sans-serif" font-size="11" lengthAdjust="spacingAndGlyphs" textLength="166" x="29" y="243.9009">isNullOrEmpty(String): boolean</text><ellipse cx="20" cy="253.2212" fill="#84BE84" rx="3" ry="3" style="stroke: #038048; stroke-width: 1.0;"/><text fill="#000000" font-family="sans-serif" font-size="11" lengthAdjust="spacingAndGlyphs" textLength="77" x="29" y="256.8559">street(): String</text><ellipse cx="20" cy="266.1763" fill="#84BE84" rx="3" ry="3" style="stroke: #038048; stroke-width: 1.0;"/><text fill="#000000" font-family="sans-serif" font-size="11" lengthAdjust="spacingAndGlyphs" textLength="65" x="29" y="269.811">city(): String</text><ellipse cx="20" cy="279.1313" fill="#84BE84" rx="3" ry="3" style="stroke: #038048; stroke-width: 1.0;"/><text fill="#000000" font-family="sans-serif" font-size="11" lengthAdjust="spacingAndGlyphs" textLength="107" x="29" y="282.7661">postalCode(): String</text><ellipse cx="20" cy="292.0864" fill="#84BE84" rx="3" ry="3" style="stroke: #038048; stroke-width: 1.0;"/><text fill="#000000" font-family="sans-serif" font-size="11" lengthAdjust="spacingAndGlyphs" textLength="88" x="29" y="295.7212">country(): String</text></a><!--MD5=[ce0423b4918b6b29de95b9c9580cdd71]
class eapli.framework.domain.model.ValueObject--><rect codeLine="19" fill="#FEFECE" filter="url(#f1wk891rsvpf7g)" height="38.2656" id="eapli.framework.domain.model.ValueObject" style="stroke: #A80036; stroke-width: 1.5;" width="184" x="29.5" y="7"/><ellipse cx="44.5" cy="26.1328" fill="#B4A7E5" rx="11" ry="11" style="stroke: #A80036; stroke-width: 1.0;"/><path d="M40.9277,22.3979 L40.9277,20.2397 L48.3071,20.2397 L48.3071,22.3979 L45.8418,22.3979 L45.8418,30.4746 L48.3071,30.4746 L48.3071,32.6328 L40.9277,32.6328 L40.9277,30.4746 L43.3931,30.4746 L43.3931,22.3979 Z "/><text fill="#000000" font-family="sans-serif" font-size="14" font-style="italic" lengthAdjust="spacingAndGlyphs" textLength="82" x="93.5" y="25.5352">ValueObject</text><text fill="#000000" font-family="sans-serif" font-size="10" font-style="italic" lengthAdjust="spacingAndGlyphs" textLength="152" x="58.5" y="38.1563">eapli.framework.domain.model</text><!--MD5=[0dd93682d784557c6cf122a6cd6ac783]
reverse link eapli.framework.domain.model.ValueObject to domain.valueObjects.Address--><path codeLine="21" d="M121.5,67.07 C121.5,78.51 121.5,91.52 121.5,104.84 " fill="none" id="eapli.framework.domain.model.ValueObject-backto-domain.valueObjects.Address" style="stroke: #A80036; stroke-width: 1.0; stroke-dasharray: 7.0,7.0;"/><polygon fill="none" points="114.5,67.1,121.5,47.1,128.5,67.1,114.5,67.1" style="stroke: #A80036; stroke-width: 1.0;"/><text fill="#888888" font-family="sans-serif" font-size="10" lengthAdjust="spacingAndGlyphs" textLength="188" x="23.5" y="324.7095">UMLDoclet 2.0.12, PlantUML 1.2020.16</text><!--MD5=[d24971165c3086f3b85664de202f0e26]
@startuml
    set namespaceSeparator none
    hide empty fields
    hide empty methods

    class "<size:14>Address\n<size:10>domain.valueObjects" as domain.valueObjects.Address [[Address.html]] {
        -street: String
        -city: String
        -postalCode: String
        -country: String
        #Address()
        +Address(String, String, String, String)
        -isNullOrEmpty(String): boolean
        +street(): String
        +city(): String
        +postalCode(): String
        +country(): String
    }

    interface "<size:14>ValueObject\n<size:10>eapli.framework.domain.model" as eapli.framework.domain.model.ValueObject

    eapli.framework.domain.model.ValueObject <|.. domain.valueObjects.Address

    center footer UMLDoclet 2.0.12, PlantUML 1.2020.16
@enduml

PlantUML version 1.2020.16(Sun Aug 23 21:20:43 WEST 2020)
(APACHE source distribution)
Java Runtime: OpenJDK Runtime Environment
JVM: OpenJDK 64-Bit Server VM
Default Encoding: UTF-8
Language: pt
Country: PT
--></g></svg>