<?xml version="1.0" encoding="UTF-8" standalone="no"?><svg xmlns="http://www.w3.org/2000/svg" xmlns:xlink="http://www.w3.org/1999/xlink" contentScriptType="application/ecmascript" contentStyleType="text/css" height="189px" preserveAspectRatio="none" style="width:205px;height:189px;" version="1.1" viewBox="0 0 205 189" width="205px" zoomAndPan="magnify"><defs><filter height="300%" id="fpu4n814kip4c" width="300%" x="-1" y="-1"><feGaussianBlur result="blurOut" stdDeviation="2.0"/><feColorMatrix in="blurOut" result="blurOut2" type="matrix" values="0 0 0 0 0 0 0 0 0 0 0 0 0 0 0 0 0 0 .4 0"/><feOffset dx="4.0" dy="4.0" in="blurOut2" result="blurOut3"/><feBlend in="SourceGraphic" in2="blurOut3" mode="normal"/></filter></defs><g><!--MD5=[c2c9044734848cd4e0e91535a3bae38a]
class domain.valueObjects.Location--><a href="Location.html" target="_top" title="Location.html" xlink:actuate="onRequest" xlink:href="Location.html" xlink:show="new" xlink:title="Location.html" xlink:type="simple"><rect codeLine="5" fill="#FEFECE" filter="url(#fpu4n814kip4c)" height="42.6879" id="domain.valueObjects.Location" style="stroke: #A80036; stroke-width: 1.5;" width="134" x="30" y="110"/><ellipse cx="45" cy="131.344" fill="#ADD1B2" rx="11" ry="11" style="stroke: #A80036; stroke-width: 1.0;"/><path d="M47.9688,136.9846 Q47.3906,137.2815 46.75,137.4221 Q46.1094,137.5783 45.4063,137.5783 Q42.9063,137.5783 41.5781,135.9377 Q40.2656,134.2815 40.2656,131.1565 Q40.2656,128.0315 41.5781,126.3752 Q42.9063,124.719 45.4063,124.719 Q46.1094,124.719 46.75,124.8752 Q47.4063,125.0315 47.9688,125.3283 L47.9688,128.0471 Q47.3438,127.469 46.75,127.2033 Q46.1563,126.9221 45.5313,126.9221 Q44.1875,126.9221 43.5,128.0002 Q42.8125,129.0627 42.8125,131.1565 Q42.8125,133.2502 43.5,134.3283 Q44.1875,135.3908 45.5313,135.3908 Q46.1563,135.3908 46.75,135.1252 Q47.3438,134.844 47.9688,134.2658 L47.9688,136.9846 Z "/><text fill="#000000" font-family="sans-serif" font-size="14" lengthAdjust="spacingAndGlyphs" textLength="56" x="82" y="129.9659">Location</text><text fill="#000000" font-family="sans-serif" font-size="10" lengthAdjust="spacingAndGlyphs" textLength="102" x="59" y="144.7579">domain.valueObjects</text></a><!--MD5=[ce0423b4918b6b29de95b9c9580cdd71]
class eapli.framework.domain.model.ValueObject--><rect codeLine="7" fill="#FEFECE" filter="url(#fpu4n814kip4c)" height="42.6879" id="eapli.framework.domain.model.ValueObject" style="stroke: #A80036; stroke-width: 1.5;" width="178" x="8" y="7"/><ellipse cx="23" cy="28.344" fill="#B4A7E5" rx="11" ry="11" style="stroke: #A80036; stroke-width: 1.0;"/><path d="M18.9219,24.1096 L18.9219,21.9533 L26.3125,21.9533 L26.3125,24.1096 L23.8438,24.1096 L23.8438,32.1877 L26.3125,32.1877 L26.3125,34.344 L18.9219,34.344 L18.9219,32.1877 L21.3906,32.1877 L21.3906,24.1096 L18.9219,24.1096 Z "/><text fill="#000000" font-family="sans-serif" font-size="14" font-style="italic" lengthAdjust="spacingAndGlyphs" textLength="75" x="72.5" y="26.9659">ValueObject</text><text fill="#000000" font-family="sans-serif" font-size="10" font-style="italic" lengthAdjust="spacingAndGlyphs" textLength="146" x="37" y="41.7579">eapli.framework.domain.model</text><!--MD5=[ad81cd086ae71144533a54469bc21356]
reverse link eapli.framework.domain.model.ValueObject to domain.valueObjects.Location--><path codeLine="9" d="M97,70.89 C97,84.35 97,98.7 97,109.95 " fill="none" id="eapli.framework.domain.model.ValueObject-backto-domain.valueObjects.Location" style="stroke: #A80036; stroke-width: 1.0; stroke-dasharray: 7.0,7.0;"/><polygon fill="none" points="90,70.43,97,50.43,104,70.43,90,70.43" style="stroke: #A80036; stroke-width: 1.0;"/><text fill="#888888" font-family="sans-serif" font-size="10" lengthAdjust="spacingAndGlyphs" textLength="188" x="0" y="176.3779">UMLDoclet 2.0.12, PlantUML 1.2020.16</text><!--MD5=[403e057c8f00f34437d215b8c90a9f13]
@startuml
    set namespaceSeparator none
    hide empty fields
    hide empty methods

    class "<size:14>Location\n<size:10>domain.valueObjects" as domain.valueObjects.Location [[Location.html]]

    interface "<size:14>ValueObject\n<size:10>eapli.framework.domain.model" as eapli.framework.domain.model.ValueObject

    eapli.framework.domain.model.ValueObject <|.. domain.valueObjects.Location

    center footer UMLDoclet 2.0.12, PlantUML 1.2020.16
@enduml

PlantUML version 1.2020.16(Sun Aug 23 21:20:43 WEST 2020)
(APACHE source distribution)
Java Runtime: Java(TM) SE Runtime Environment
JVM: Java HotSpot(TM) 64-Bit Server VM
Default Encoding: UTF-8
Language: en
Country: US
--></g></svg>