<?xml version="1.0" encoding="UTF-8" standalone="no"?><svg xmlns="http://www.w3.org/2000/svg" xmlns:xlink="http://www.w3.org/1999/xlink" contentScriptType="application/ecmascript" contentStyleType="text/css" height="179px" preserveAspectRatio="none" style="width:210px;height:179px;" version="1.1" viewBox="0 0 210 179" width="210px" zoomAndPan="magnify"><defs><filter height="300%" id="fpu4n814kip4c" width="300%" x="-1" y="-1"><feGaussianBlur result="blurOut" stdDeviation="2.0"/><feColorMatrix in="blurOut" result="blurOut2" type="matrix" values="0 0 0 0 0 0 0 0 0 0 0 0 0 0 0 0 0 0 .4 0"/><feOffset dx="4.0" dy="4.0" in="blurOut2" result="blurOut3"/><feBlend in="SourceGraphic" in2="blurOut3" mode="normal"/></filter></defs><g><!--MD5=[c2c9044734848cd4e0e91535a3bae38a]
class domain.valueObjects.Location--><a href="Location.html" target="_top" title="Location.html" xlink:actuate="onRequest" xlink:href="Location.html" xlink:show="new" xlink:title="Location.html" xlink:type="simple"><rect codeLine="5" fill="#FEFECE" filter="url(#fpu4n814kip4c)" height="38.2656" id="domain.valueObjects.Location" style="stroke: #A80036; stroke-width: 1.5;" width="134" x="32" y="105.26"/><ellipse cx="47" cy="124.3928" fill="#ADD1B2" rx="11" ry="11" style="stroke: #A80036; stroke-width: 1.0;"/><path d="M49.4731,130.5359 Q48.8921,130.8347 48.2529,130.9841 Q47.6138,131.1335 46.9082,131.1335 Q44.4014,131.1335 43.0815,129.4817 Q41.7617,127.8298 41.7617,124.7087 Q41.7617,121.5793 43.0815,119.9275 Q44.4014,118.2756 46.9082,118.2756 Q47.6138,118.2756 48.2612,118.425 Q48.9087,118.5745 49.4731,118.8733 L49.4731,121.5959 Q48.8423,121.0149 48.2488,120.7451 Q47.6553,120.4753 47.0244,120.4753 Q45.6797,120.4753 44.9949,121.542 Q44.3101,122.6086 44.3101,124.7087 Q44.3101,126.8005 44.9949,127.8672 Q45.6797,128.9338 47.0244,128.9338 Q47.6553,128.9338 48.2488,128.6641 Q48.8423,128.3943 49.4731,127.8132 Z "/><text fill="#000000" font-family="sans-serif" font-size="14" lengthAdjust="spacingAndGlyphs" textLength="58" x="83" y="123.7952">Location</text><text fill="#000000" font-family="sans-serif" font-size="10" lengthAdjust="spacingAndGlyphs" textLength="102" x="61" y="136.4163">domain.valueObjects</text></a><!--MD5=[ce0423b4918b6b29de95b9c9580cdd71]
class eapli.framework.domain.model.ValueObject--><rect codeLine="7" fill="#FEFECE" filter="url(#fpu4n814kip4c)" height="38.2656" id="eapli.framework.domain.model.ValueObject" style="stroke: #A80036; stroke-width: 1.5;" width="184" x="7" y="7"/><ellipse cx="22" cy="26.1328" fill="#B4A7E5" rx="11" ry="11" style="stroke: #A80036; stroke-width: 1.0;"/><path d="M18.4277,22.3979 L18.4277,20.2397 L25.8071,20.2397 L25.8071,22.3979 L23.3418,22.3979 L23.3418,30.4746 L25.8071,30.4746 L25.8071,32.6328 L18.4277,32.6328 L18.4277,30.4746 L20.8931,30.4746 L20.8931,22.3979 Z "/><text fill="#000000" font-family="sans-serif" font-size="14" font-style="italic" lengthAdjust="spacingAndGlyphs" textLength="82" x="71" y="25.5352">ValueObject</text><text fill="#000000" font-family="sans-serif" font-size="10" font-style="italic" lengthAdjust="spacingAndGlyphs" textLength="152" x="36" y="38.1563">eapli.framework.domain.model</text><!--MD5=[ad81cd086ae71144533a54469bc21356]
reverse link eapli.framework.domain.model.ValueObject to domain.valueObjects.Location--><path codeLine="9" d="M99,66.94 C99,80.1 99,94.12 99,104.89 " fill="none" id="eapli.framework.domain.model.ValueObject-backto-domain.valueObjects.Location" style="stroke: #A80036; stroke-width: 1.0; stroke-dasharray: 7.0,7.0;"/><polygon fill="none" points="92,67.21,99,47.21,106,67.21,92,67.21" style="stroke: #A80036; stroke-width: 1.0;"/><text fill="#888888" font-family="sans-serif" font-size="10" lengthAdjust="spacingAndGlyphs" textLength="188" x="2" y="166.1936">UMLDoclet 2.0.12, PlantUML 1.2020.16</text><!--MD5=[da3d460c2be818b284a73bf88318182f]
@startuml
    set namespaceSeparator none
    hide empty fields
    hide empty methods

    class "<size:14>Location\n<size:10>domain.valueObjects" as domain.valueObjects.Location [[Location.html]]

    interface "<size:14>ValueObject\n<size:10>eapli.framework.domain.model" as eapli.framework.domain.model.ValueObject

    eapli.framework.domain.model.ValueObject <|.. domain.valueObjects.Location

    center footer UMLDoclet 2.0.12, PlantUML 1.2020.16
@enduml

PlantUML version 1.2020.16(Sun Aug 23 21:20:43 WEST 2020)
(APACHE source distribution)
Java Runtime: OpenJDK Runtime Environment
JVM: OpenJDK 64-Bit Server VM
Default Encoding: UTF-8
Language: pt
Country: PT
--></g></svg>