<?xml version="1.0" encoding="UTF-8" standalone="no"?><svg xmlns="http://www.w3.org/2000/svg" xmlns:xlink="http://www.w3.org/1999/xlink" contentScriptType="application/ecmascript" contentStyleType="text/css" height="399px" preserveAspectRatio="none" style="width:1170px;height:399px;" version="1.1" viewBox="0 0 1170 399" width="1170px" zoomAndPan="magnify"><defs><filter height="300%" id="f10dm6nes31qfu" width="300%" x="-1" y="-1"><feGaussianBlur result="blurOut" stdDeviation="2.0"/><feColorMatrix in="blurOut" result="blurOut2" type="matrix" values="0 0 0 0 0 0 0 0 0 0 0 0 0 0 0 0 0 0 .4 0"/><feOffset dx="4.0" dy="4.0" in="blurOut2" result="blurOut3"/><feBlend in="SourceGraphic" in2="blurOut3" mode="normal"/></filter></defs><g><!--MD5=[50e904397d5d362042a8cdd9a16fb9f0]
cluster domain.valueObjects--><polygon fill="#FFFFFF" filter="url(#f10dm6nes31qfu)" points="16,129,172,129,179,151.4883,1148,151.4883,1148,370.51,16,370.51,16,129" style="stroke: #000000; stroke-width: 1.5;"/><line style="stroke: #000000; stroke-width: 1.5;" x1="16" x2="179" y1="151.4883" y2="151.4883"/><text fill="#000000" font-family="sans-serif" font-size="14" font-weight="bold" lengthAdjust="spacingAndGlyphs" textLength="150" x="20" y="144.5352">domain.valueObjects</text><!--MD5=[9924618b55dd3727aa6057b8427147b7]
cluster eapli.framework.domain.model--><polygon fill="#FFFFFF" filter="url(#f10dm6nes31qfu)" points="337,6,564,6,571,28.4883,574,28.4883,574,105,337,105,337,6" style="stroke: #000000; stroke-width: 1.5;"/><line style="stroke: #000000; stroke-width: 1.5;" x1="337" x2="571" y1="28.4883" y2="28.4883"/><text fill="#000000" font-family="sans-serif" font-size="14" font-weight="bold" lengthAdjust="spacingAndGlyphs" textLength="221" x="341" y="21.5352">eapli.framework.domain.model</text><!--MD5=[236c1f2d659259c0942bd824881b08fd]
class domain.valueObjects.Address--><a href="Address.html" target="_top" title="Address.html" xlink:actuate="onRequest" xlink:href="Address.html" xlink:show="new" xlink:title="Address.html" xlink:type="simple"><rect codeLine="3" fill="#FEFECE" filter="url(#f10dm6nes31qfu)" height="190.5059" id="domain.valueObjects.Address" style="stroke: #A80036; stroke-width: 1.5;" width="225" x="32.5" y="164"/><ellipse cx="116.75" cy="180" fill="#ADD1B2" rx="11" ry="11" style="stroke: #A80036; stroke-width: 1.0;"/><path d="M119.2231,186.1431 Q118.6421,186.4419 118.0029,186.5913 Q117.3638,186.7407 116.6582,186.7407 Q114.1514,186.7407 112.8315,185.0889 Q111.5117,183.437 111.5117,180.3159 Q111.5117,177.1865 112.8315,175.5347 Q114.1514,173.8828 116.6582,173.8828 Q117.3638,173.8828 118.0112,174.0322 Q118.6587,174.1816 119.2231,174.4805 L119.2231,177.2031 Q118.5923,176.6221 117.9988,176.3523 Q117.4053,176.0825 116.7744,176.0825 Q115.4297,176.0825 114.7449,177.1492 Q114.0601,178.2158 114.0601,180.3159 Q114.0601,182.4077 114.7449,183.4744 Q115.4297,184.541 116.7744,184.541 Q117.4053,184.541 117.9988,184.2712 Q118.5923,184.0015 119.2231,183.4204 Z "/><text fill="#000000" font-family="sans-serif" font-size="12" lengthAdjust="spacingAndGlyphs" textLength="48" x="137.25" y="184.5352">Address</text><line style="stroke: #A80036; stroke-width: 1.5;" x1="33.5" x2="256.5" y1="196" y2="196"/><rect fill="none" height="6" style="stroke: #C82930; stroke-width: 1.0;" width="6" x="40.5" y="204"/><text fill="#000000" font-family="sans-serif" font-size="11" lengthAdjust="spacingAndGlyphs" textLength="69" x="52.5" y="210.6348">street: String</text><rect fill="none" height="6" style="stroke: #C82930; stroke-width: 1.0;" width="6" x="40.5" y="216.9551"/><text fill="#000000" font-family="sans-serif" font-size="11" lengthAdjust="spacingAndGlyphs" textLength="57" x="52.5" y="223.5898">city: String</text><rect fill="none" height="6" style="stroke: #C82930; stroke-width: 1.0;" width="6" x="40.5" y="229.9102"/><text fill="#000000" font-family="sans-serif" font-size="11" lengthAdjust="spacingAndGlyphs" textLength="99" x="52.5" y="236.5449">postalCode: String</text><rect fill="none" height="6" style="stroke: #C82930; stroke-width: 1.0;" width="6" x="40.5" y="242.8652"/><text fill="#000000" font-family="sans-serif" font-size="11" lengthAdjust="spacingAndGlyphs" textLength="80" x="52.5" y="249.5">country: String</text><line style="stroke: #A80036; stroke-width: 1.5;" x1="33.5" x2="256.5" y1="255.8203" y2="255.8203"/><polygon fill="#FFFF44" points="43.5,261.8203,47.5,265.8203,43.5,269.8203,39.5,265.8203" style="stroke: #B38D22; stroke-width: 1.0;"/><text fill="#000000" font-family="sans-serif" font-size="11" lengthAdjust="spacingAndGlyphs" textLength="53" x="52.5" y="270.4551">Address()</text><ellipse cx="43.5" cy="279.7754" fill="#84BE84" rx="3" ry="3" style="stroke: #038048; stroke-width: 1.0;"/><text fill="#000000" font-family="sans-serif" font-size="11" lengthAdjust="spacingAndGlyphs" textLength="199" x="52.5" y="283.4102">Address(String, String, String, String)</text><rect fill="#F24D5C" height="6" style="stroke: #C82930; stroke-width: 1.0;" width="6" x="40.5" y="289.7305"/><text fill="#000000" font-family="sans-serif" font-size="11" lengthAdjust="spacingAndGlyphs" textLength="166" x="52.5" y="296.3652">isNullOrEmpty(String): boolean</text><ellipse cx="43.5" cy="305.6855" fill="#84BE84" rx="3" ry="3" style="stroke: #038048; stroke-width: 1.0;"/><text fill="#000000" font-family="sans-serif" font-size="11" lengthAdjust="spacingAndGlyphs" textLength="77" x="52.5" y="309.3203">street(): String</text><ellipse cx="43.5" cy="318.6406" fill="#84BE84" rx="3" ry="3" style="stroke: #038048; stroke-width: 1.0;"/><text fill="#000000" font-family="sans-serif" font-size="11" lengthAdjust="spacingAndGlyphs" textLength="65" x="52.5" y="322.2754">city(): String</text><ellipse cx="43.5" cy="331.5957" fill="#84BE84" rx="3" ry="3" style="stroke: #038048; stroke-width: 1.0;"/><text fill="#000000" font-family="sans-serif" font-size="11" lengthAdjust="spacingAndGlyphs" textLength="107" x="52.5" y="335.2305">postalCode(): String</text><ellipse cx="43.5" cy="344.5508" fill="#84BE84" rx="3" ry="3" style="stroke: #038048; stroke-width: 1.0;"/><text fill="#000000" font-family="sans-serif" font-size="11" lengthAdjust="spacingAndGlyphs" textLength="88" x="52.5" y="348.1855">country(): String</text></a><!--MD5=[d9922b44eb143e6e352a00bfbd3c6a8a]
class domain.valueObjects.NIF--><a href="NIF.html" target="_top" title="NIF.html" xlink:actuate="onRequest" xlink:href="NIF.html" xlink:show="new" xlink:title="NIF.html" xlink:type="simple"><rect codeLine="17" fill="#FEFECE" filter="url(#f10dm6nes31qfu)" height="112.7754" id="domain.valueObjects.NIF" style="stroke: #A80036; stroke-width: 1.5;" width="167" x="292.5" y="202.87"/><ellipse cx="362.75" cy="218.87" fill="#ADD1B2" rx="11" ry="11" style="stroke: #A80036; stroke-width: 1.0;"/><path d="M365.2231,225.0131 Q364.6421,225.3119 364.0029,225.4613 Q363.3638,225.6107 362.6582,225.6107 Q360.1514,225.6107 358.8315,223.9589 Q357.5117,222.307 357.5117,219.1859 Q357.5117,216.0565 358.8315,214.4047 Q360.1514,212.7528 362.6582,212.7528 Q363.3638,212.7528 364.0112,212.9022 Q364.6587,213.0516 365.2231,213.3505 L365.2231,216.0731 Q364.5923,215.4921 363.9988,215.2223 Q363.4053,214.9525 362.7744,214.9525 Q361.4297,214.9525 360.7449,216.0192 Q360.0601,217.0858 360.0601,219.1859 Q360.0601,221.2777 360.7449,222.3444 Q361.4297,223.411 362.7744,223.411 Q363.4053,223.411 363.9988,223.1412 Q364.5923,222.8715 365.2231,222.2904 Z "/><text fill="#000000" font-family="sans-serif" font-size="12" lengthAdjust="spacingAndGlyphs" textLength="18" x="383.25" y="223.4052">NIF</text><line style="stroke: #A80036; stroke-width: 1.5;" x1="293.5" x2="458.5" y1="234.87" y2="234.87"/><rect fill="none" height="6" style="stroke: #C82930; stroke-width: 1.0;" width="6" x="300.5" y="242.87"/><text fill="#000000" font-family="sans-serif" font-size="11" lengthAdjust="spacingAndGlyphs" textLength="52" x="312.5" y="249.5048">nif: String</text><line style="stroke: #A80036; stroke-width: 1.5;" x1="293.5" x2="458.5" y1="255.8251" y2="255.8251"/><polygon fill="#FFFF44" points="303.5,261.8251,307.5,265.8251,303.5,269.8251,299.5,265.8251" style="stroke: #B38D22; stroke-width: 1.0;"/><text fill="#000000" font-family="sans-serif" font-size="11" lengthAdjust="spacingAndGlyphs" textLength="25" x="312.5" y="270.4598">NIF()</text><ellipse cx="303.5" cy="279.7802" fill="#84BE84" rx="3" ry="3" style="stroke: #038048; stroke-width: 1.0;"/><text fill="#000000" font-family="sans-serif" font-size="11" lengthAdjust="spacingAndGlyphs" textLength="57" x="312.5" y="283.4149">NIF(String)</text><rect fill="#F24D5C" height="6" style="stroke: #C82930; stroke-width: 1.0;" width="6" x="300.5" y="289.7352"/><text fill="#000000" font-family="sans-serif" font-size="11" lengthAdjust="spacingAndGlyphs" textLength="141" x="312.5" y="296.37">isValidNIF(String): boolean</text><ellipse cx="303.5" cy="305.6903" fill="#84BE84" rx="3" ry="3" style="stroke: #038048; stroke-width: 1.0;"/><text fill="#000000" font-family="sans-serif" font-size="11" lengthAdjust="spacingAndGlyphs" textLength="78" x="312.5" y="309.3251">getNif(): String</text></a><!--MD5=[c2c9044734848cd4e0e91535a3bae38a]
class domain.valueObjects.Location--><a href="Location.html" target="_top" title="Location.html" xlink:actuate="onRequest" xlink:href="Location.html" xlink:show="new" xlink:title="Location.html" xlink:type="simple"><rect codeLine="25" fill="#FEFECE" filter="url(#f10dm6nes31qfu)" height="48" id="domain.valueObjects.Location" style="stroke: #A80036; stroke-width: 1.5;" width="79" x="494.5" y="235.26"/><ellipse cx="509.5" cy="251.26" fill="#ADD1B2" rx="11" ry="11" style="stroke: #A80036; stroke-width: 1.0;"/><path d="M511.9731,257.4031 Q511.3921,257.7019 510.7529,257.8513 Q510.1138,258.0007 509.4082,258.0007 Q506.9014,258.0007 505.5815,256.3489 Q504.2617,254.697 504.2617,251.5759 Q504.2617,248.4465 505.5815,246.7947 Q506.9014,245.1428 509.4082,245.1428 Q510.1138,245.1428 510.7612,245.2922 Q511.4087,245.4416 511.9731,245.7405 L511.9731,248.4631 Q511.3423,247.8821 510.7488,247.6123 Q510.1553,247.3425 509.5244,247.3425 Q508.1797,247.3425 507.4949,248.4092 Q506.8101,249.4758 506.8101,251.5759 Q506.8101,253.6677 507.4949,254.7344 Q508.1797,255.801 509.5244,255.801 Q510.1553,255.801 510.7488,255.5312 Q511.3423,255.2615 511.9731,254.6804 Z "/><text fill="#000000" font-family="sans-serif" font-size="12" lengthAdjust="spacingAndGlyphs" textLength="47" x="523.5" y="255.7952">Location</text><line style="stroke: #A80036; stroke-width: 1.5;" x1="495.5" x2="572.5" y1="267.26" y2="267.26"/><line style="stroke: #A80036; stroke-width: 1.5;" x1="495.5" x2="572.5" y1="275.26" y2="275.26"/></a><!--MD5=[45453aa320bbd30f02514387edff17dc]
class domain.valueObjects.PhoneNumber--><a href="PhoneNumber.html" target="_top" title="PhoneNumber.html" xlink:actuate="onRequest" xlink:href="PhoneNumber.html" xlink:show="new" xlink:title="PhoneNumber.html" xlink:type="simple"><rect codeLine="27" fill="#FEFECE" filter="url(#f10dm6nes31qfu)" height="138.6855" id="domain.valueObjects.PhoneNumber" style="stroke: #A80036; stroke-width: 1.5;" width="254" x="609" y="189.91"/><ellipse cx="690.75" cy="205.91" fill="#ADD1B2" rx="11" ry="11" style="stroke: #A80036; stroke-width: 1.0;"/><path d="M693.2231,212.0531 Q692.6421,212.3519 692.0029,212.5013 Q691.3638,212.6507 690.6582,212.6507 Q688.1514,212.6507 686.8315,210.9989 Q685.5117,209.347 685.5117,206.2259 Q685.5117,203.0965 686.8315,201.4447 Q688.1514,199.7928 690.6582,199.7928 Q691.3638,199.7928 692.0112,199.9422 Q692.6587,200.0916 693.2231,200.3905 L693.2231,203.1131 Q692.5923,202.5321 691.9988,202.2623 Q691.4053,201.9925 690.7744,201.9925 Q689.4297,201.9925 688.7449,203.0592 Q688.0601,204.1258 688.0601,206.2259 Q688.0601,208.3177 688.7449,209.3844 Q689.4297,210.451 690.7744,210.451 Q691.4053,210.451 691.9988,210.1812 Q692.5923,209.9115 693.2231,209.3304 Z "/><text fill="#000000" font-family="sans-serif" font-size="12" lengthAdjust="spacingAndGlyphs" textLength="82" x="711.25" y="210.4452">PhoneNumber</text><line style="stroke: #A80036; stroke-width: 1.5;" x1="610" x2="862" y1="221.91" y2="221.91"/><rect fill="none" height="6" style="stroke: #C82930; stroke-width: 1.0;" width="6" x="617" y="229.91"/><text fill="#000000" font-family="sans-serif" font-size="11" lengthAdjust="spacingAndGlyphs" text-decoration="underline" textLength="213" x="629" y="236.5448">PORTUGUESE_PHONE_PATTERN: Pattern</text><rect fill="none" height="6" style="stroke: #C82930; stroke-width: 1.0;" width="6" x="617" y="242.8651"/><text fill="#000000" font-family="sans-serif" font-size="11" lengthAdjust="spacingAndGlyphs" textLength="80" x="629" y="249.4998">number: String</text><line style="stroke: #A80036; stroke-width: 1.5;" x1="610" x2="862" y1="255.8202" y2="255.8202"/><polygon fill="#FFFF44" points="620,261.8202,624,265.8202,620,269.8202,616,265.8202" style="stroke: #B38D22; stroke-width: 1.0;"/><text fill="#000000" font-family="sans-serif" font-size="11" lengthAdjust="spacingAndGlyphs" textLength="84" x="629" y="270.4549">PhoneNumber()</text><ellipse cx="620" cy="279.7752" fill="#84BE84" rx="3" ry="3" style="stroke: #038048; stroke-width: 1.0;"/><text fill="#000000" font-family="sans-serif" font-size="11" lengthAdjust="spacingAndGlyphs" textLength="116" x="629" y="283.41">PhoneNumber(String)</text><rect fill="#F24D5C" height="6" style="stroke: #C82930; stroke-width: 1.0;" width="6" x="617" y="289.7303"/><text fill="#000000" font-family="sans-serif" font-size="11" lengthAdjust="spacingAndGlyphs" textLength="228" x="629" y="296.3651">isValidPortugueseNumber(String): boolean</text><ellipse cx="620" cy="305.6854" fill="#84BE84" rx="3" ry="3" style="stroke: #038048; stroke-width: 1.0;"/><text fill="#000000" font-family="sans-serif" font-size="11" lengthAdjust="spacingAndGlyphs" textLength="106" x="629" y="309.3202">getNumber(): String</text><ellipse cx="620" cy="318.6405" fill="#84BE84" rx="3" ry="3" style="stroke: #038048; stroke-width: 1.0;"/><text fill="#000000" font-family="sans-serif" font-size="11" lengthAdjust="spacingAndGlyphs" textLength="150" x="629" y="322.2752">formatInternational(): String</text></a><!--MD5=[0d49892c0742412e24cf62c9131e9633]
class domain.valueObjects.ShowRequestStatus--><a href="ShowRequestStatus.html" target="_top" title="ShowRequestStatus.html" xlink:actuate="onRequest" xlink:href="ShowRequestStatus.html" xlink:show="new" xlink:title="ShowRequestStatus.html" xlink:type="simple"><rect codeLine="37" fill="#FEFECE" filter="url(#f10dm6nes31qfu)" height="99.8203" id="domain.valueObjects.ShowRequestStatus" style="stroke: #A80036; stroke-width: 1.5;" width="234" x="898" y="209.35"/><ellipse cx="955.75" cy="225.35" fill="#EB937F" rx="11" ry="11" style="stroke: #A80036; stroke-width: 1.0;"/><path d="M959.3643,231.85 L951.6445,231.85 L951.6445,219.4569 L959.3643,219.4569 L959.3643,221.6151 L954.0933,221.6151 L954.0933,224.288 L958.8662,224.288 L958.8662,226.4462 L954.0933,226.4462 L954.0933,229.6918 L959.3643,229.6918 Z "/><text fill="#000000" font-family="sans-serif" font-size="12" lengthAdjust="spacingAndGlyphs" textLength="110" x="976.25" y="229.8852">ShowRequestStatus</text><line style="stroke: #A80036; stroke-width: 1.5;" x1="899" x2="1131" y1="241.35" y2="241.35"/><ellipse cx="909" cy="252.35" fill="none" rx="3" ry="3" style="stroke: #038048; stroke-width: 1.0;"/><text fill="#000000" font-family="sans-serif" font-size="11" lengthAdjust="spacingAndGlyphs" text-decoration="underline" textLength="47" x="918" y="255.9848">PENDING</text><ellipse cx="909" cy="265.3051" fill="none" rx="3" ry="3" style="stroke: #038048; stroke-width: 1.0;"/><text fill="#000000" font-family="sans-serif" font-size="11" lengthAdjust="spacingAndGlyphs" text-decoration="underline" textLength="57" x="918" y="268.9398">APPROVED</text><ellipse cx="909" cy="278.2602" fill="none" rx="3" ry="3" style="stroke: #038048; stroke-width: 1.0;"/><text fill="#000000" font-family="sans-serif" font-size="11" lengthAdjust="spacingAndGlyphs" text-decoration="underline" textLength="51" x="918" y="281.8949">REJECTED</text><line style="stroke: #A80036; stroke-width: 1.5;" x1="899" x2="1131" y1="288.2152" y2="288.2152"/><ellipse cx="909" cy="299.2152" fill="#84BE84" rx="3" ry="3" style="stroke: #038048; stroke-width: 1.0;"/><text fill="#000000" font-family="sans-serif" font-size="11" lengthAdjust="spacingAndGlyphs" text-decoration="underline" textLength="208" x="918" y="302.85">fromString(String): ShowRequestStatus</text></a><!--MD5=[ce0423b4918b6b29de95b9c9580cdd71]
class eapli.framework.domain.model.ValueObject--><rect codeLine="51" fill="#FEFECE" filter="url(#f10dm6nes31qfu)" height="48" id="eapli.framework.domain.model.ValueObject" style="stroke: #A80036; stroke-width: 1.5;" width="102" x="404" y="41"/><ellipse cx="419" cy="57" fill="#B4A7E5" rx="11" ry="11" style="stroke: #A80036; stroke-width: 1.0;"/><path d="M415.4277,53.2651 L415.4277,51.1069 L422.8071,51.1069 L422.8071,53.2651 L420.3418,53.2651 L420.3418,61.3418 L422.8071,61.3418 L422.8071,63.5 L415.4277,63.5 L415.4277,61.3418 L417.8931,61.3418 L417.8931,53.2651 Z "/><text fill="#000000" font-family="sans-serif" font-size="12" font-style="italic" lengthAdjust="spacingAndGlyphs" textLength="70" x="433" y="61.5352">ValueObject</text><line style="stroke: #A80036; stroke-width: 1.5;" x1="405" x2="505" y1="73" y2="73"/><line style="stroke: #A80036; stroke-width: 1.5;" x1="405" x2="505" y1="81" y2="81"/><!--MD5=[0dd93682d784557c6cf122a6cd6ac783]
reverse link eapli.framework.domain.model.ValueObject to domain.valueObjects.Address--><path codeLine="44" d="M383.06,79.02 C348.59,87.43 307.78,100.7 275,121 C256.17,132.67 238.23,147.73 222.02,163.57 " fill="none" id="eapli.framework.domain.model.ValueObject-backto-domain.valueObjects.Address" style="stroke: #A80036; stroke-width: 1.0; stroke-dasharray: 7.0,7.0;"/><polygon fill="none" points="381.04,72.3,402.09,74.73,384.13,85.95,381.04,72.3" style="stroke: #A80036; stroke-width: 1.0;"/><!--MD5=[321691b014b5bdb644b3d6e653dbae32]
reverse link eapli.framework.domain.model.ValueObject to domain.valueObjects.NIF--><path codeLine="45" d="M437.42,108.79 C426.08,136.38 411.22,172.55 398.95,202.4 " fill="none" id="eapli.framework.domain.model.ValueObject-backto-domain.valueObjects.NIF" style="stroke: #A80036; stroke-width: 1.0; stroke-dasharray: 7.0,7.0;"/><polygon fill="none" points="430.82,106.43,444.9,90.59,443.77,111.75,430.82,106.43" style="stroke: #A80036; stroke-width: 1.0;"/><!--MD5=[ad81cd086ae71144533a54469bc21356]
reverse link eapli.framework.domain.model.ValueObject to domain.valueObjects.Location--><path codeLine="46" d="M472.7,109.08 C488.69,148 511.64,203.84 524.44,234.98 " fill="none" id="eapli.framework.domain.model.ValueObject-backto-domain.valueObjects.Location" style="stroke: #A80036; stroke-width: 1.0; stroke-dasharray: 7.0,7.0;"/><polygon fill="none" points="466.23,111.75,465.1,90.59,479.18,106.43,466.23,111.75" style="stroke: #A80036; stroke-width: 1.0;"/><!--MD5=[3da2bd2529ccbc7e90a26e5c8fb6674a]
reverse link eapli.framework.domain.model.ValueObject to domain.valueObjects.PhoneNumber--><path codeLine="47" d="M526.34,89.08 C547.95,97.57 571.19,108.28 591,121 C620.74,140.12 649.81,165.79 674.01,189.76 " fill="none" id="eapli.framework.domain.model.ValueObject-backto-domain.valueObjects.PhoneNumber" style="stroke: #A80036; stroke-width: 1.0; stroke-dasharray: 7.0,7.0;"/><polygon fill="none" points="524.02,95.68,507.71,82.16,528.9,82.56,524.02,95.68" style="stroke: #A80036; stroke-width: 1.0;"/><text fill="#888888" font-family="sans-serif" font-size="10" lengthAdjust="spacingAndGlyphs" textLength="188" x="482" y="386.178">UMLDoclet 2.0.12, PlantUML 1.2020.16</text><!--MD5=[3676874cdbc3fd64c22eb661c060c093]
@startuml
    namespace domain.valueObjects {

        class Address [[Address.html]] {
            -street: String
            -city: String
            -postalCode: String
            -country: String
            #Address()
            +Address(String, String, String, String)
            -isNullOrEmpty(String): boolean
            +street(): String
            +city(): String
            +postalCode(): String
            +country(): String
        }

        class NIF [[NIF.html]] {
            -nif: String
            #NIF()
            +NIF(String)
            -isValidNIF(String): boolean
            +getNif(): String
        }

        class Location [[Location.html]]

        class PhoneNumber [[PhoneNumber.html]] {
            {static} -PORTUGUESE_PHONE_PATTERN: Pattern
            -number: String
            #PhoneNumber()
            +PhoneNumber(String)
            -isValidPortugueseNumber(String): boolean
            +getNumber(): String
            +formatInternational(): String
        }

        enum ShowRequestStatus [[ShowRequestStatus.html]] {
            {static} +PENDING
            {static} +APPROVED
            {static} +REJECTED
            {static} +fromString(String): ShowRequestStatus
        }

        eapli.framework.domain.model.ValueObject <|.. Address
        eapli.framework.domain.model.ValueObject <|.. NIF
        eapli.framework.domain.model.ValueObject <|.. Location
        eapli.framework.domain.model.ValueObject <|.. PhoneNumber
    }

    namespace eapli.framework.domain.model {
        interface ValueObject
    }

    center footer UMLDoclet 2.0.12, PlantUML 1.2020.16
@enduml

PlantUML version 1.2020.16(Sun Aug 23 21:20:43 WEST 2020)
(APACHE source distribution)
Java Runtime: OpenJDK Runtime Environment
JVM: OpenJDK 64-Bit Server VM
Default Encoding: UTF-8
Language: pt
Country: PT
--></g></svg>