<?xml version="1.0" encoding="UTF-8" standalone="no"?><svg xmlns="http://www.w3.org/2000/svg" xmlns:xlink="http://www.w3.org/1999/xlink" contentScriptType="application/ecmascript" contentStyleType="text/css" height="324px" preserveAspectRatio="none" style="width:476px;height:324px;" version="1.1" viewBox="0 0 476 324" width="476px" zoomAndPan="magnify"><defs><filter height="300%" id="famzycvpc8s3l" width="300%" x="-1" y="-1"><feGaussianBlur result="blurOut" stdDeviation="2.0"/><feColorMatrix in="blurOut" result="blurOut2" type="matrix" values="0 0 0 0 0 0 0 0 0 0 0 0 0 0 0 0 0 0 .4 0"/><feOffset dx="4.0" dy="4.0" in="blurOut2" result="blurOut3"/><feBlend in="SourceGraphic" in2="blurOut3" mode="normal"/></filter></defs><g><!--MD5=[50e904397d5d362042a8cdd9a16fb9f0]
cluster domain.valueObjects--><polygon fill="#FFFFFF" filter="url(#famzycvpc8s3l)" points="78,132.602,230,132.602,237,157.6699,454,157.6699,454,294.602,78,294.602,78,132.602" style="stroke: #000000; stroke-width: 1.5;"/><line style="stroke: #000000; stroke-width: 1.5;" x1="78" x2="237" y1="157.6699" y2="157.6699"/><text fill="#000000" font-family="sans-serif" font-size="14" font-weight="bold" lengthAdjust="spacingAndGlyphs" textLength="146" x="82" y="149.5679">domain.valueObjects</text><!--MD5=[9924618b55dd3727aa6057b8427147b7]
cluster eapli.framework.domain.model--><polygon fill="#FFFFFF" filter="url(#famzycvpc8s3l)" points="16,6.602,241,6.602,248,31.6699,251,31.6699,251,108.602,16,108.602,16,6.602" style="stroke: #000000; stroke-width: 1.5;"/><line style="stroke: #000000; stroke-width: 1.5;" x1="16" x2="248" y1="31.6699" y2="31.6699"/><text fill="#000000" font-family="sans-serif" font-size="14" font-weight="bold" lengthAdjust="spacingAndGlyphs" textLength="219" x="20" y="23.5679">eapli.framework.domain.model</text><!--MD5=[0d49892c0742412e24cf62c9131e9633]
class domain.valueObjects.ShowRequestStatus--><a href="ShowRequestStatus.html" target="_top" title="ShowRequestStatus.html" xlink:actuate="onRequest" xlink:href="ShowRequestStatus.html" xlink:show="new" xlink:title="ShowRequestStatus.html" xlink:type="simple"><rect codeLine="3" fill="#FEFECE" filter="url(#famzycvpc8s3l)" height="107.9276" id="domain.valueObjects.ShowRequestStatus" style="stroke: #A80036; stroke-width: 1.5;" width="231" x="207.5" y="170.602"/><ellipse cx="263.75" cy="186.602" fill="#EB937F" rx="11" ry="11" style="stroke: #A80036; stroke-width: 1.0;"/><path d="M267.8594,192.602 L260.1406,192.602 L260.1406,180.2114 L267.8594,180.2114 L267.8594,182.3676 L262.5938,182.3676 L262.5938,185.0395 L267.3594,185.0395 L267.3594,187.1957 L262.5938,187.1957 L262.5938,190.4457 L267.8594,190.4457 L267.8594,192.602 Z "/><text fill="#000000" font-family="sans-serif" font-size="12" lengthAdjust="spacingAndGlyphs" textLength="110" x="284.25" y="191.258">ShowRequestStatus</text><line style="stroke: #A80036; stroke-width: 1.5;" x1="208.5" x2="437.5" y1="202.602" y2="202.602"/><ellipse cx="218.5" cy="213.602" fill="none" rx="3" ry="3" style="stroke: #038048; stroke-width: 1.0;"/><text fill="#000000" font-family="sans-serif" font-size="11" lengthAdjust="spacingAndGlyphs" text-decoration="underline" textLength="49" x="227.5" y="218.3609">PENDING</text><ellipse cx="218.5" cy="228.5839" fill="none" rx="3" ry="3" style="stroke: #038048; stroke-width: 1.0;"/><text fill="#000000" font-family="sans-serif" font-size="11" lengthAdjust="spacingAndGlyphs" text-decoration="underline" textLength="58" x="227.5" y="233.3428">APPROVED</text><ellipse cx="218.5" cy="243.5658" fill="none" rx="3" ry="3" style="stroke: #038048; stroke-width: 1.0;"/><text fill="#000000" font-family="sans-serif" font-size="11" lengthAdjust="spacingAndGlyphs" text-decoration="underline" textLength="49" x="227.5" y="248.3247">REJECTED</text><line style="stroke: #A80036; stroke-width: 1.5;" x1="208.5" x2="437.5" y1="255.5476" y2="255.5476"/><ellipse cx="218.5" cy="266.5476" fill="#84BE84" rx="3" ry="3" style="stroke: #038048; stroke-width: 1.0;"/><text fill="#000000" font-family="sans-serif" font-size="11" lengthAdjust="spacingAndGlyphs" text-decoration="underline" textLength="205" x="227.5" y="271.3066">fromString(String): ShowRequestStatus</text></a><!--MD5=[c2c9044734848cd4e0e91535a3bae38a]
class domain.valueObjects.Location--><a href="Location.html" target="_top" title="Location.html" xlink:actuate="onRequest" xlink:href="Location.html" xlink:show="new" xlink:title="Location.html" xlink:type="simple"><rect codeLine="10" fill="#FEFECE" filter="url(#famzycvpc8s3l)" height="48" id="domain.valueObjects.Location" style="stroke: #A80036; stroke-width: 1.5;" width="79" x="93.5" y="200.602"/><ellipse cx="108.5" cy="216.602" fill="#ADD1B2" rx="11" ry="11" style="stroke: #A80036; stroke-width: 1.0;"/><path d="M111.4688,222.2426 Q110.8906,222.5395 110.25,222.6801 Q109.6094,222.8364 108.9063,222.8364 Q106.4063,222.8364 105.0781,221.1957 Q103.7656,219.5395 103.7656,216.4145 Q103.7656,213.2895 105.0781,211.6332 Q106.4063,209.977 108.9063,209.977 Q109.6094,209.977 110.25,210.1332 Q110.9063,210.2895 111.4688,210.5864 L111.4688,213.3051 Q110.8438,212.727 110.25,212.4614 Q109.6563,212.1801 109.0313,212.1801 Q107.6875,212.1801 107,213.2582 Q106.3125,214.3207 106.3125,216.4145 Q106.3125,218.5082 107,219.5864 Q107.6875,220.6489 109.0313,220.6489 Q109.6563,220.6489 110.25,220.3832 Q110.8438,220.102 111.4688,219.5239 L111.4688,222.2426 Z "/><text fill="#000000" font-family="sans-serif" font-size="12" lengthAdjust="spacingAndGlyphs" textLength="47" x="122.5" y="221.258">Location</text><line style="stroke: #A80036; stroke-width: 1.5;" x1="94.5" x2="171.5" y1="232.602" y2="232.602"/><line style="stroke: #A80036; stroke-width: 1.5;" x1="94.5" x2="171.5" y1="240.602" y2="240.602"/></a><!--MD5=[ce0423b4918b6b29de95b9c9580cdd71]
class eapli.framework.domain.model.ValueObject--><rect codeLine="16" fill="#FEFECE" filter="url(#famzycvpc8s3l)" height="48" id="eapli.framework.domain.model.ValueObject" style="stroke: #A80036; stroke-width: 1.5;" width="96" x="85" y="44.602"/><ellipse cx="100" cy="60.602" fill="#B4A7E5" rx="11" ry="11" style="stroke: #A80036; stroke-width: 1.0;"/><path d="M95.9219,56.3676 L95.9219,54.2114 L103.3125,54.2114 L103.3125,56.3676 L100.8438,56.3676 L100.8438,64.4457 L103.3125,64.4457 L103.3125,66.602 L95.9219,66.602 L95.9219,64.4457 L98.3906,64.4457 L98.3906,56.3676 L95.9219,56.3676 Z "/><text fill="#000000" font-family="sans-serif" font-size="12" font-style="italic" lengthAdjust="spacingAndGlyphs" textLength="64" x="114" y="65.258">ValueObject</text><line style="stroke: #A80036; stroke-width: 1.5;" x1="86" x2="180" y1="76.602" y2="76.602"/><line style="stroke: #A80036; stroke-width: 1.5;" x1="86" x2="180" y1="84.602" y2="84.602"/><!--MD5=[ad81cd086ae71144533a54469bc21356]
reverse link eapli.framework.domain.model.ValueObject to domain.valueObjects.Location--><path codeLine="12" d="M133,112.972 C133,141.342 133,177.312 133,200.392 " fill="none" id="eapli.framework.domain.model.ValueObject-backto-domain.valueObjects.Location" style="stroke: #A80036; stroke-width: 1.0; stroke-dasharray: 7.0,7.0;"/><polygon fill="none" points="126,112.662,133,92.662,140,112.662,126,112.662" style="stroke: #A80036; stroke-width: 1.0;"/><text fill="#888888" font-family="sans-serif" font-size="10" lengthAdjust="spacingAndGlyphs" textLength="188" x="135" y="311.292">UMLDoclet 2.0.12, PlantUML 1.2020.16</text><!--MD5=[e7bc44b8af14c5b3749e176e348423ae]
@startuml
    namespace domain.valueObjects {

        enum ShowRequestStatus [[ShowRequestStatus.html]] {
            {static} +PENDING
            {static} +APPROVED
            {static} +REJECTED
            {static} +fromString(String): ShowRequestStatus
        }

        class Location [[Location.html]]

        eapli.framework.domain.model.ValueObject <|.. Location
    }

    namespace eapli.framework.domain.model {
        interface ValueObject
    }

    center footer UMLDoclet 2.0.12, PlantUML 1.2020.16
@enduml

PlantUML version 1.2020.16(Sun Aug 23 21:20:43 WEST 2020)
(APACHE source distribution)
Java Runtime: Java(TM) SE Runtime Environment
JVM: Java HotSpot(TM) 64-Bit Server VM
Default Encoding: UTF-8
Language: en
Country: US
--></g></svg>