<?xml version="1.0" encoding="UTF-8" standalone="no"?><svg xmlns="http://www.w3.org/2000/svg" xmlns:xlink="http://www.w3.org/1999/xlink" contentScriptType="application/ecmascript" contentStyleType="text/css" height="286px" preserveAspectRatio="none" style="width:282px;height:286px;" version="1.1" viewBox="0 0 282 286" width="282px" zoomAndPan="magnify"><defs><filter height="300%" id="f101gaob2ea331" width="300%" x="-1" y="-1"><feGaussianBlur result="blurOut" stdDeviation="2.0"/><feColorMatrix in="blurOut" result="blurOut2" type="matrix" values="0 0 0 0 0 0 0 0 0 0 0 0 0 0 0 0 0 0 .4 0"/><feOffset dx="4.0" dy="4.0" in="blurOut2" result="blurOut3"/><feBlend in="SourceGraphic" in2="blurOut3" mode="normal"/></filter></defs><g><!--MD5=[45453aa320bbd30f02514387edff17dc]
class domain.valueObjects.PhoneNumber--><a href="PhoneNumber.html" target="_top" title="PhoneNumber.html" xlink:actuate="onRequest" xlink:href="PhoneNumber.html" xlink:show="new" xlink:title="PhoneNumber.html" xlink:type="simple"><rect codeLine="5" fill="#FEFECE" filter="url(#f101gaob2ea331)" height="144.9512" id="domain.valueObjects.PhoneNumber" style="stroke: #A80036; stroke-width: 1.5;" width="254" x="9" y="105.27"/><ellipse cx="80.75" cy="124.4028" fill="#ADD1B2" rx="11" ry="11" style="stroke: #A80036; stroke-width: 1.0;"/><path d="M83.2231,130.5459 Q82.6421,130.8447 82.0029,130.9941 Q81.3638,131.1435 80.6582,131.1435 Q78.1514,131.1435 76.8315,129.4917 Q75.5117,127.8398 75.5117,124.7187 Q75.5117,121.5893 76.8315,119.9375 Q78.1514,118.2856 80.6582,118.2856 Q81.3638,118.2856 82.0112,118.435 Q82.6587,118.5845 83.2231,118.8833 L83.2231,121.6059 Q82.5923,121.0249 81.9988,120.7551 Q81.4053,120.4853 80.7744,120.4853 Q79.4297,120.4853 78.7449,121.552 Q78.0601,122.6186 78.0601,124.7187 Q78.0601,126.8105 78.7449,127.8772 Q79.4297,128.9438 80.7744,128.9438 Q81.4053,128.9438 81.9988,128.6741 Q82.5923,128.4043 83.2231,127.8232 Z "/><text fill="#000000" font-family="sans-serif" font-size="14" lengthAdjust="spacingAndGlyphs" textLength="98" x="103.25" y="123.8052">PhoneNumber</text><text fill="#000000" font-family="sans-serif" font-size="10" lengthAdjust="spacingAndGlyphs" textLength="102" x="101.25" y="136.4263">domain.valueObjects</text><line style="stroke: #A80036; stroke-width: 1.5;" x1="10" x2="262" y1="143.5356" y2="143.5356"/><rect fill="none" height="6" style="stroke: #C82930; stroke-width: 1.0;" width="6" x="17" y="151.5356"/><text fill="#000000" font-family="sans-serif" font-size="11" lengthAdjust="spacingAndGlyphs" text-decoration="underline" textLength="213" x="29" y="158.1704">PORTUGUESE_PHONE_PATTERN: Pattern</text><rect fill="none" height="6" style="stroke: #C82930; stroke-width: 1.0;" width="6" x="17" y="164.4907"/><text fill="#000000" font-family="sans-serif" font-size="11" lengthAdjust="spacingAndGlyphs" textLength="80" x="29" y="171.1255">number: String</text><line style="stroke: #A80036; stroke-width: 1.5;" x1="10" x2="262" y1="177.4458" y2="177.4458"/><polygon fill="#FFFF44" points="20,183.4458,24,187.4458,20,191.4458,16,187.4458" style="stroke: #B38D22; stroke-width: 1.0;"/><text fill="#000000" font-family="sans-serif" font-size="11" lengthAdjust="spacingAndGlyphs" textLength="84" x="29" y="192.0805">PhoneNumber()</text><ellipse cx="20" cy="201.4009" fill="#84BE84" rx="3" ry="3" style="stroke: #038048; stroke-width: 1.0;"/><text fill="#000000" font-family="sans-serif" font-size="11" lengthAdjust="spacingAndGlyphs" textLength="116" x="29" y="205.0356">PhoneNumber(String)</text><rect fill="#F24D5C" height="6" style="stroke: #C82930; stroke-width: 1.0;" width="6" x="17" y="211.3559"/><text fill="#000000" font-family="sans-serif" font-size="11" lengthAdjust="spacingAndGlyphs" textLength="228" x="29" y="217.9907">isValidPortugueseNumber(String): boolean</text><ellipse cx="20" cy="227.311" fill="#84BE84" rx="3" ry="3" style="stroke: #038048; stroke-width: 1.0;"/><text fill="#000000" font-family="sans-serif" font-size="11" lengthAdjust="spacingAndGlyphs" textLength="106" x="29" y="230.9458">getNumber(): String</text><ellipse cx="20" cy="240.2661" fill="#84BE84" rx="3" ry="3" style="stroke: #038048; stroke-width: 1.0;"/><text fill="#000000" font-family="sans-serif" font-size="11" lengthAdjust="spacingAndGlyphs" textLength="150" x="29" y="243.9009">formatInternational(): String</text></a><!--MD5=[ce0423b4918b6b29de95b9c9580cdd71]
class eapli.framework.domain.model.ValueObject--><rect codeLine="15" fill="#FEFECE" filter="url(#f101gaob2ea331)" height="38.2656" id="eapli.framework.domain.model.ValueObject" style="stroke: #A80036; stroke-width: 1.5;" width="184" x="44" y="7"/><ellipse cx="59" cy="26.1328" fill="#B4A7E5" rx="11" ry="11" style="stroke: #A80036; stroke-width: 1.0;"/><path d="M55.4277,22.3979 L55.4277,20.2397 L62.8071,20.2397 L62.8071,22.3979 L60.3418,22.3979 L60.3418,30.4746 L62.8071,30.4746 L62.8071,32.6328 L55.4277,32.6328 L55.4277,30.4746 L57.8931,30.4746 L57.8931,22.3979 Z "/><text fill="#000000" font-family="sans-serif" font-size="14" font-style="italic" lengthAdjust="spacingAndGlyphs" textLength="82" x="108" y="25.5352">ValueObject</text><text fill="#000000" font-family="sans-serif" font-size="10" font-style="italic" lengthAdjust="spacingAndGlyphs" textLength="152" x="73" y="38.1563">eapli.framework.domain.model</text><!--MD5=[3da2bd2529ccbc7e90a26e5c8fb6674a]
reverse link eapli.framework.domain.model.ValueObject to domain.valueObjects.PhoneNumber--><path codeLine="17" d="M136,66.94 C136,78.65 136,91.84 136,104.91 " fill="none" id="eapli.framework.domain.model.ValueObject-backto-domain.valueObjects.PhoneNumber" style="stroke: #A80036; stroke-width: 1.0; stroke-dasharray: 7.0,7.0;"/><polygon fill="none" points="129,66.99,136,46.99,143,66.99,129,66.99" style="stroke: #A80036; stroke-width: 1.0;"/><text fill="#888888" font-family="sans-serif" font-size="10" lengthAdjust="spacingAndGlyphs" textLength="188" x="38" y="272.8891">UMLDoclet 2.0.12, PlantUML 1.2020.16</text><!--MD5=[00cf6ab917d7b227049a9e922a261445]
@startuml
    set namespaceSeparator none
    hide empty fields
    hide empty methods

    class "<size:14>PhoneNumber\n<size:10>domain.valueObjects" as domain.valueObjects.PhoneNumber [[PhoneNumber.html]] {
        {static} -PORTUGUESE_PHONE_PATTERN: Pattern
        -number: String
        #PhoneNumber()
        +PhoneNumber(String)
        -isValidPortugueseNumber(String): boolean
        +getNumber(): String
        +formatInternational(): String
    }

    interface "<size:14>ValueObject\n<size:10>eapli.framework.domain.model" as eapli.framework.domain.model.ValueObject

    eapli.framework.domain.model.ValueObject <|.. domain.valueObjects.PhoneNumber

    center footer UMLDoclet 2.0.12, PlantUML 1.2020.16
@enduml

PlantUML version 1.2020.16(Sun Aug 23 21:20:43 WEST 2020)
(APACHE source distribution)
Java Runtime: OpenJDK Runtime Environment
JVM: OpenJDK 64-Bit Server VM
Default Encoding: UTF-8
Language: pt
Country: PT
--></g></svg>