<svg xmlns="http://www.w3.org/2000/svg" xmlns:xlink="http://www.w3.org/1999/xlink" contentStyleType="text/css" height="706px" preserveAspectRatio="none" style="width:716px;height:706px;background:#FFFFFF;" version="1.1" viewBox="0 0 716 706" width="716px" zoomAndPan="magnify"><title>System Sequence Diagram (SSD) - List public figures in Figure catalogue</title><defs/><g><text fill="#000000" font-family="sans-serif" font-size="14" font-weight="bold" lengthAdjust="spacing" textLength="486.9922" x="115.9241" y="30.1074">System Sequence Diagram (SSD) - List public figures in Figure catalogue</text><rect fill="#FFFFFF" height="480.123" style="stroke:#181818;stroke-width:1.0;" width="10" x="65.4688" y="133.2422"/><rect fill="#FFFFFF" height="31.291" style="stroke:#181818;stroke-width:1.0;" width="10" x="481.9414" y="156.5332"/><rect fill="#FFFFFF" height="31.291" style="stroke:#181818;stroke-width:1.0;" width="10" x="481.9414" y="219.1152"/><rect fill="#FFFFFF" height="31.291" style="stroke:#181818;stroke-width:1.0;" width="10" x="481.9414" y="281.6973"/><rect fill="#FFFFFF" height="254.0859" style="stroke:#181818;stroke-width:1.0;" width="10" x="481.9414" y="344.2793"/><rect fill="#FFFFFF" height="28" style="stroke:#181818;stroke-width:1.0;" width="10" x="486.9414" y="383.5703"/><rect fill="#FFFFFF" height="28" style="stroke:#181818;stroke-width:1.0;" width="10" x="486.9414" y="532.0742"/><rect fill="none" height="172.7949" style="stroke:#000000;stroke-width:1.5;" width="699.8403" x="10" y="433.5703"/><line style="stroke:#181818;stroke-width:0.5;stroke-dasharray:5.0,5.0;" x1="70" x2="70" y1="123.2422" y2="623.3652"/><line style="stroke:#181818;stroke-width:0.5;stroke-dasharray:5.0,5.0;" x1="486.6587" x2="486.6587" y1="123.2422" y2="623.3652"/><text fill="#000000" font-family="sans-serif" font-size="14" lengthAdjust="spacing" textLength="94.9375" x="20" y="119.7285">Show Designer</text><ellipse cx="70.4688" cy="53.1211" fill="#E3E3E3" rx="8" ry="8" style="stroke:#181818;stroke-width:0.5;"/><path d="M70.4688,61.1211 L70.4688,88.1211 M57.4688,69.1211 L83.4688,69.1211 M70.4688,88.1211 L57.4688,103.1211 M70.4688,88.1211 L83.4688,103.1211 " fill="none" style="stroke:#181818;stroke-width:0.5;"/><text fill="#000000" font-family="sans-serif" font-size="14" lengthAdjust="spacing" textLength="94.9375" x="20" y="637.4727">Show Designer</text><ellipse cx="70.4688" cy="649.4863" fill="#E3E3E3" rx="8" ry="8" style="stroke:#181818;stroke-width:0.5;"/><path d="M70.4688,657.4863 L70.4688,684.4863 M57.4688,665.4863 L83.4688,665.4863 M70.4688,684.4863 L57.4688,699.4863 M70.4688,684.4863 L83.4688,699.4863 " fill="none" style="stroke:#181818;stroke-width:0.5;"/><rect fill="#E3E3E3" height="32.6211" rx="2.5" ry="2.5" style="stroke:#181818;stroke-width:0.5;" width="64.5654" x="454.6587" y="89.6211"/><text fill="#000000" font-family="sans-serif" font-size="14" lengthAdjust="spacing" textLength="50.5654" x="461.6587" y="111.7285">:System</text><rect fill="#E3E3E3" height="32.6211" rx="2.5" ry="2.5" style="stroke:#181818;stroke-width:0.5;" width="64.5654" x="454.6587" y="622.3652"/><text fill="#000000" font-family="sans-serif" font-size="14" lengthAdjust="spacing" textLength="50.5654" x="461.6587" y="644.4727">:System</text><rect fill="#FFFFFF" height="480.123" style="stroke:#181818;stroke-width:1.0;" width="10" x="65.4688" y="133.2422"/><rect fill="#FFFFFF" height="31.291" style="stroke:#181818;stroke-width:1.0;" width="10" x="481.9414" y="156.5332"/><rect fill="#FFFFFF" height="31.291" style="stroke:#181818;stroke-width:1.0;" width="10" x="481.9414" y="219.1152"/><rect fill="#FFFFFF" height="31.291" style="stroke:#181818;stroke-width:1.0;" width="10" x="481.9414" y="281.6973"/><rect fill="#FFFFFF" height="254.0859" style="stroke:#181818;stroke-width:1.0;" width="10" x="481.9414" y="344.2793"/><rect fill="#FFFFFF" height="28" style="stroke:#181818;stroke-width:1.0;" width="10" x="486.9414" y="383.5703"/><rect fill="#FFFFFF" height="28" style="stroke:#181818;stroke-width:1.0;" width="10" x="486.9414" y="532.0742"/><polygon fill="#181818" points="469.9414,152.5332,479.9414,156.5332,469.9414,160.5332,473.9414,156.5332" style="stroke:#181818;stroke-width:1.0;"/><line style="stroke:#181818;stroke-width:1.0;" x1="75.4688" x2="475.9414" y1="156.5332" y2="156.5332"/><text fill="#000000" font-family="sans-serif" font-size="13" font-weight="bold" lengthAdjust="spacing" textLength="7.23" x="82.4688" y="151.2705">1</text><text fill="#000000" font-family="sans-serif" font-size="13" lengthAdjust="spacing" textLength="36.1245" x="93.6987" y="151.2705">login()</text><polygon fill="#181818" points="86.4688,183.8242,76.4688,187.8242,86.4688,191.8242,82.4688,187.8242" style="stroke:#181818;stroke-width:1.0;"/><line style="stroke:#181818;stroke-width:1.0;stroke-dasharray:2.0,2.0;" x1="80.4688" x2="485.9414" y1="187.8242" y2="187.8242"/><text fill="#000000" font-family="sans-serif" font-size="13" font-weight="bold" lengthAdjust="spacing" textLength="7.23" x="92.4688" y="182.5615">2</text><text fill="#000000" font-family="sans-serif" font-size="13" lengthAdjust="spacing" textLength="78.0635" x="103.6987" y="182.5615">authenticated</text><polygon fill="#181818" points="469.9414,215.1152,479.9414,219.1152,469.9414,223.1152,473.9414,219.1152" style="stroke:#181818;stroke-width:1.0;"/><line style="stroke:#181818;stroke-width:1.0;" x1="75.4688" x2="475.9414" y1="219.1152" y2="219.1152"/><text fill="#000000" font-family="sans-serif" font-size="13" font-weight="bold" lengthAdjust="spacing" textLength="7.23" x="82.4688" y="213.8525">3</text><text fill="#000000" font-family="sans-serif" font-size="13" lengthAdjust="spacing" textLength="165.4707" x="93.6987" y="213.8525">ask to show all public figures</text><polygon fill="#181818" points="86.4688,246.4063,76.4688,250.4063,86.4688,254.4063,82.4688,250.4063" style="stroke:#181818;stroke-width:1.0;"/><line style="stroke:#181818;stroke-width:1.0;stroke-dasharray:2.0,2.0;" x1="80.4688" x2="485.9414" y1="250.4063" y2="250.4063"/><text fill="#000000" font-family="sans-serif" font-size="13" font-weight="bold" lengthAdjust="spacing" textLength="7.23" x="92.4688" y="245.1436">4</text><text fill="#000000" font-family="sans-serif" font-size="13" lengthAdjust="spacing" textLength="154.6353" x="103.6987" y="245.1436">request data (id, keyname)</text><polygon fill="#181818" points="469.9414,277.6973,479.9414,281.6973,469.9414,285.6973,473.9414,281.6973" style="stroke:#181818;stroke-width:1.0;"/><line style="stroke:#181818;stroke-width:1.0;" x1="75.4688" x2="475.9414" y1="281.6973" y2="281.6973"/><text fill="#000000" font-family="sans-serif" font-size="13" font-weight="bold" lengthAdjust="spacing" textLength="7.23" x="82.4688" y="276.4346">5</text><text fill="#000000" font-family="sans-serif" font-size="13" lengthAdjust="spacing" textLength="203.7788" x="93.6987" y="276.4346">types requested data (id, keyname)</text><polygon fill="#181818" points="86.4688,308.9883,76.4688,312.9883,86.4688,316.9883,82.4688,312.9883" style="stroke:#181818;stroke-width:1.0;"/><line style="stroke:#181818;stroke-width:1.0;stroke-dasharray:2.0,2.0;" x1="80.4688" x2="485.9414" y1="312.9883" y2="312.9883"/><text fill="#000000" font-family="sans-serif" font-size="13" font-weight="bold" lengthAdjust="spacing" textLength="7.23" x="92.4688" y="307.7256">6</text><text fill="#000000" font-family="sans-serif" font-size="13" lengthAdjust="spacing" textLength="230.5024" x="103.6987" y="307.7256">show all data registered for confirmation</text><polygon fill="#181818" points="469.9414,340.2793,479.9414,344.2793,469.9414,348.2793,473.9414,344.2793" style="stroke:#181818;stroke-width:1.0;"/><line style="stroke:#181818;stroke-width:1.0;" x1="75.4688" x2="475.9414" y1="344.2793" y2="344.2793"/><text fill="#000000" font-family="sans-serif" font-size="13" font-weight="bold" lengthAdjust="spacing" textLength="7.23" x="82.4688" y="339.0166">7</text><text fill="#000000" font-family="sans-serif" font-size="13" lengthAdjust="spacing" textLength="210.958" x="93.6987" y="339.0166">requestDecommissionFigure(Figure)</text><line style="stroke:#181818;stroke-width:1.0;" x1="496.9414" x2="538.9414" y1="375.5703" y2="375.5703"/><line style="stroke:#181818;stroke-width:1.0;" x1="538.9414" x2="538.9414" y1="375.5703" y2="388.5703"/><line style="stroke:#181818;stroke-width:1.0;" x1="497.9414" x2="538.9414" y1="388.5703" y2="388.5703"/><polygon fill="#181818" points="507.9414,384.5703,497.9414,388.5703,507.9414,392.5703,503.9414,388.5703" style="stroke:#181818;stroke-width:1.0;"/><text fill="#000000" font-family="sans-serif" font-size="13" font-weight="bold" lengthAdjust="spacing" textLength="7.23" x="503.9414" y="370.3076">8</text><text fill="#000000" font-family="sans-serif" font-size="13" lengthAdjust="spacing" textLength="80.9199" x="515.1714" y="370.3076">validations(...)</text><path d="M10,433.5703 L70.1709,433.5703 L70.1709,442.8613 L60.1709,452.8613 L10,452.8613 L10,433.5703 " fill="#EEEEEE" style="stroke:#000000;stroke-width:1.5;"/><rect fill="none" height="172.7949" style="stroke:#000000;stroke-width:1.5;" width="699.8403" x="10" y="433.5703"/><text fill="#000000" font-family="sans-serif" font-size="13" font-weight="bold" lengthAdjust="spacing" textLength="15.1709" x="25" y="448.5986">alt</text><text fill="#000000" font-family="sans-serif" font-size="11" font-weight="bold" lengthAdjust="spacing" textLength="81.9038" x="85.1709" y="447.4404">[figure inactive]</text><polygon fill="#181818" points="86.4688,472.1523,76.4688,476.1523,86.4688,480.1523,82.4688,476.1523" style="stroke:#181818;stroke-width:1.0;"/><line style="stroke:#181818;stroke-width:1.0;stroke-dasharray:2.0,2.0;" x1="80.4688" x2="480.9414" y1="476.1523" y2="476.1523"/><text fill="#000000" font-family="sans-serif" font-size="13" font-weight="bold" lengthAdjust="spacing" textLength="7.23" x="92.4688" y="470.8896">9</text><text fill="#000000" font-family="sans-serif" font-size="13" lengthAdjust="spacing" textLength="245.4829" x="103.6987" y="470.8896">errorMessage("Figure is already inactive.")</text><line style="stroke:#000000;stroke-width:1.0;stroke-dasharray:2.0,2.0;" x1="10" x2="709.8403" y1="485.1523" y2="485.1523"/><text fill="#000000" font-family="sans-serif" font-size="11" font-weight="bold" lengthAdjust="spacing" textLength="72.1284" x="15" y="497.0225">[figure active]</text><line style="stroke:#181818;stroke-width:1.0;" x1="496.9414" x2="538.9414" y1="524.0742" y2="524.0742"/><line style="stroke:#181818;stroke-width:1.0;" x1="538.9414" x2="538.9414" y1="524.0742" y2="537.0742"/><line style="stroke:#181818;stroke-width:1.0;" x1="497.9414" x2="538.9414" y1="537.0742" y2="537.0742"/><polygon fill="#181818" points="507.9414,533.0742,497.9414,537.0742,507.9414,541.0742,503.9414,537.0742" style="stroke:#181818;stroke-width:1.0;"/><text fill="#000000" font-family="sans-serif" font-size="13" font-weight="bold" lengthAdjust="spacing" textLength="14.46" x="503.9414" y="518.8115">10</text><text fill="#000000" font-family="sans-serif" font-size="13" lengthAdjust="spacing" textLength="165.439" x="522.4014" y="518.8115">decommissionFigure(Figure)</text><polygon fill="#181818" points="86.4688,594.3652,76.4688,598.3652,86.4688,602.3652,82.4688,598.3652" style="stroke:#181818;stroke-width:1.0;"/><line style="stroke:#181818;stroke-width:1.0;stroke-dasharray:2.0,2.0;" x1="80.4688" x2="485.9414" y1="598.3652" y2="598.3652"/><text fill="#000000" font-family="sans-serif" font-size="13" font-weight="bold" lengthAdjust="spacing" textLength="14.46" x="92.4688" y="593.1025">11</text><text fill="#000000" font-family="sans-serif" font-size="13" lengthAdjust="spacing" textLength="364.0127" x="110.9287" y="593.1025">confirmationMessage("Figure *id* has been decommissioned.")</text><!--SRC=[ZLD1agCm3Bpx5IfEP6gJ1-Im9sfFkoTUeDWAg69irZOpnUzNCKn24bABBxXGgzLgI_72hiU07NJUUTq6tn6aC92AjqYF-e8DrMcq185qGjVO9I2sQFmNkmREQ2CfbJW9j1vZeWvg-ZkGqmGLOtE5btLTxM0Flpacw8UJPGrdReP04TZ1htm5ZGcjRqG93icxeJjHK0fryW6AklLVK57anb4e02FKbH8nYJNtw18Knwdw5ClNdCoVcEWALY2dhc3_SmuVGQgnAtSvSeVEkHa-DRI_vbH745qjEIafE3CX33qdlfR1U87anJHf0QrzSa1jBX-kleg3Heo2aiqFkD3eiAFTPYbfxCNpcOZC6jLcERT-CacWHbwNWf2UvS6qTsSE7IRsxesw5Ncpi8gqxpgEKPAduIYdppjr-UzIufto4osRB2EMXyDXTuD-drLPo_D6-GE7JVDpoZndDBrWLXoa47puGp7AifN5l0OSXIuGcl76TIXUPPFitNVD3HNlXfZtvguH_BVtZHQjjB-SaMSNFjXyG2khV29o3vh9FDknFlWFPZcZbgXA_GC0]--></g></svg>