<svg xmlns="http://www.w3.org/2000/svg" xmlns:xlink="http://www.w3.org/1999/xlink" contentStyleType="text/css" height="1188px" preserveAspectRatio="none" style="width:600px;height:1188px;background:#FFFFFF;" version="1.1" viewBox="0 0 600 1188" width="600px" zoomAndPan="magnify"><title>Class Diagram - Add Figure To Proposal</title><defs/><g><text fill="#000000" font-family="sans-serif" font-size="14" font-weight="bold" lengthAdjust="spacing" textLength="272.243" x="156.974" y="24.9659">Class Diagram - Add Figure To Proposal</text><!--class Repositories--><g id="elem_Repositories"><rect codeLine="8" fill="#F1F1F1" height="124.2717" id="Repositories" rx="2.5" ry="2.5" style="stroke:#181818;stroke-width:0.5;" width="317.8429" x="179.5" y="434.0679"/><ellipse cx="293.4106" cy="450.0679" fill="#ADD1B2" rx="11" ry="11" style="stroke:#181818;stroke-width:1.0;"/><path d="M296.3793,455.7085 Q295.8012,456.0054 295.1606,456.146 Q294.52,456.3023 293.8168,456.3023 Q291.3168,456.3023 289.9887,454.6617 Q288.6762,453.0054 288.6762,449.8804 Q288.6762,446.7554 289.9887,445.0992 Q291.3168,443.4429 293.8168,443.4429 Q294.52,443.4429 295.1606,443.5992 Q295.8168,443.7554 296.3793,444.0523 L296.3793,446.771 Q295.7543,446.1929 295.1606,445.9273 Q294.5668,445.646 293.9418,445.646 Q292.5981,445.646 291.9106,446.7242 Q291.2231,447.7867 291.2231,449.8804 Q291.2231,451.9742 291.9106,453.0523 Q292.5981,454.1148 293.9418,454.1148 Q294.5668,454.1148 295.1606,453.8492 Q295.7543,453.5679 296.3793,452.9898 L296.3793,455.7085 Z " fill="#000000"/><text fill="#000000" font-family="sans-serif" font-size="14" lengthAdjust="spacing" textLength="81.5217" x="313.9106" y="455.4999">Repositories</text><line style="stroke:#181818;stroke-width:0.5;" x1="180.5" x2="496.3429" y1="466.0679" y2="466.0679"/><line style="stroke:#181818;stroke-width:0.5;" x1="180.5" x2="496.3429" y1="474.0679" y2="474.0679"/><text fill="#000000" font-family="sans-serif" font-size="14" lengthAdjust="spacing" textLength="94.4296" x="185.5" y="493.0339">-Repositories()</text><text fill="#000000" font-family="sans-serif" font-size="14" lengthAdjust="spacing" textLength="186.8013" x="185.5" y="512.1018">+getInstance() : Repositories</text><text fill="#000000" font-family="sans-serif" font-size="14" lengthAdjust="spacing" textLength="273.5309" x="185.5" y="531.1697">+getFigureRepository() : FigureRepository</text><text fill="#000000" font-family="sans-serif" font-size="14" lengthAdjust="spacing" textLength="305.8429" x="185.5" y="550.2376">+getProposalRepository() : ProposalRepository</text></g><!--class AddFigureToProposalUI--><g id="elem_AddFigureToProposalUI"><rect codeLine="15" fill="#F1F1F1" height="124.2717" id="AddFigureToProposalUI" rx="2.5" ry="2.5" style="stroke:#181818;stroke-width:0.5;" width="305.1729" x="186" y="47.0679"/><ellipse cx="255.7407" cy="63.0679" fill="#ADD1B2" rx="11" ry="11" style="stroke:#181818;stroke-width:1.0;"/><path d="M258.7095,68.7085 Q258.1313,69.0054 257.4907,69.146 Q256.8501,69.3023 256.147,69.3023 Q253.647,69.3023 252.3188,67.6617 Q251.0063,66.0054 251.0063,62.8804 Q251.0063,59.7554 252.3188,58.0992 Q253.647,56.4429 256.147,56.4429 Q256.8501,56.4429 257.4907,56.5992 Q258.147,56.7554 258.7095,57.0523 L258.7095,59.771 Q258.0845,59.1929 257.4907,58.9273 Q256.897,58.646 256.272,58.646 Q254.9282,58.646 254.2407,59.7242 Q253.5532,60.7867 253.5532,62.8804 Q253.5532,64.9742 254.2407,66.0523 Q254.9282,67.1148 256.272,67.1148 Q256.897,67.1148 257.4907,66.8492 Q258.0845,66.5679 258.7095,65.9898 L258.7095,68.7085 Z " fill="#000000"/><text fill="#000000" font-family="sans-serif" font-size="14" lengthAdjust="spacing" textLength="157.1914" x="276.2407" y="68.4999">AddFigureToProposalUI</text><line style="stroke:#181818;stroke-width:0.5;" x1="187" x2="490.1729" y1="79.0679" y2="79.0679"/><line style="stroke:#181818;stroke-width:0.5;" x1="187" x2="490.1729" y1="87.0679" y2="87.0679"/><text fill="#000000" font-family="sans-serif" font-size="14" lengthAdjust="spacing" textLength="196.9093" x="192" y="106.0339">+askToAddFigureToProposal()</text><text fill="#000000" font-family="sans-serif" font-size="14" lengthAdjust="spacing" textLength="293.1729" x="192" y="125.1018">+optionsToSelectFigure(List&lt;Figure&gt; figures)</text><text fill="#000000" font-family="sans-serif" font-size="14" lengthAdjust="spacing" textLength="222.3052" x="192" y="144.1697">+requestProposalId() : ProposalID</text><text fill="#000000" font-family="sans-serif" font-size="14" lengthAdjust="spacing" textLength="138.1515" x="192" y="163.2376">+showConfirmation()</text></g><!--class AddFigureToProposalController--><g id="elem_AddFigureToProposalController"><rect codeLine="22" fill="#F1F1F1" height="105.2038" id="AddFigureToProposalController" rx="2.5" ry="2.5" style="stroke:#181818;stroke-width:0.5;" width="438.1165" x="119.5" y="250.0679"/><ellipse cx="230.1137" cy="266.0679" fill="#ADD1B2" rx="11" ry="11" style="stroke:#181818;stroke-width:1.0;"/><path d="M233.0824,271.7085 Q232.5043,272.0054 231.8637,272.146 Q231.223,272.3023 230.5199,272.3023 Q228.0199,272.3023 226.6918,270.6617 Q225.3793,269.0054 225.3793,265.8804 Q225.3793,262.7554 226.6918,261.0992 Q228.0199,259.4429 230.5199,259.4429 Q231.223,259.4429 231.8637,259.5992 Q232.5199,259.7554 233.0824,260.0523 L233.0824,262.771 Q232.4574,262.1929 231.8637,261.9273 Q231.2699,261.646 230.6449,261.646 Q229.3012,261.646 228.6137,262.7242 Q227.9262,263.7867 227.9262,265.8804 Q227.9262,267.9742 228.6137,269.0523 Q229.3012,270.1148 230.6449,270.1148 Q231.2699,270.1148 231.8637,269.8492 Q232.4574,269.5679 233.0824,268.9898 L233.0824,271.7085 Z " fill="#000000"/><text fill="#000000" font-family="sans-serif" font-size="14" lengthAdjust="spacing" textLength="208.3892" x="250.6137" y="271.4999">AddFigureToProposalController</text><line style="stroke:#181818;stroke-width:0.5;" x1="120.5" x2="556.6165" y1="282.0679" y2="282.0679"/><line style="stroke:#181818;stroke-width:0.5;" x1="120.5" x2="556.6165" y1="290.0679" y2="290.0679"/><text fill="#000000" font-family="sans-serif" font-size="14" lengthAdjust="spacing" textLength="224.7972" x="125.5" y="309.0339">+AddFigureToProposalController()</text><text fill="#000000" font-family="sans-serif" font-size="14" lengthAdjust="spacing" textLength="237.1731" x="125.5" y="328.1018">+getAvailableFigures() : List&lt;Figure&gt;</text><text fill="#000000" font-family="sans-serif" font-size="14" lengthAdjust="spacing" textLength="426.1165" x="125.5" y="347.1697">+addFigureToProposal(ProposalID proposalId, FigureID figureId)</text></g><!--class ProposalRepository--><g id="elem_ProposalRepository"><rect codeLine="28" fill="#F1F1F1" height="86.1358" id="ProposalRepository" rx="2.5" ry="2.5" style="stroke:#181818;stroke-width:0.5;" width="300.749" x="7" y="619.0679"/><ellipse cx="88.9137" cy="635.0679" fill="#ADD1B2" rx="11" ry="11" style="stroke:#181818;stroke-width:1.0;"/><path d="M91.8825,640.7085 Q91.3043,641.0054 90.6637,641.146 Q90.0231,641.3023 89.32,641.3023 Q86.82,641.3023 85.4918,639.6617 Q84.1793,638.0054 84.1793,634.8804 Q84.1793,631.7554 85.4918,630.0992 Q86.82,628.4429 89.32,628.4429 Q90.0231,628.4429 90.6637,628.5992 Q91.32,628.7554 91.8825,629.0523 L91.8825,631.771 Q91.2575,631.1929 90.6637,630.9273 Q90.07,630.646 89.445,630.646 Q88.1012,630.646 87.4137,631.7242 Q86.7262,632.7867 86.7262,634.8804 Q86.7262,636.9742 87.4137,638.0523 Q88.1012,639.1148 89.445,639.1148 Q90.07,639.1148 90.6637,638.8492 Q91.2575,638.5679 91.8825,637.9898 L91.8825,640.7085 Z " fill="#000000"/><text fill="#000000" font-family="sans-serif" font-size="14" lengthAdjust="spacing" textLength="128.4215" x="109.4137" y="640.4999">ProposalRepository</text><line style="stroke:#181818;stroke-width:0.5;" x1="8" x2="306.749" y1="651.0679" y2="651.0679"/><line style="stroke:#181818;stroke-width:0.5;" x1="8" x2="306.749" y1="659.0679" y2="659.0679"/><text fill="#000000" font-family="sans-serif" font-size="14" lengthAdjust="spacing" textLength="288.749" x="13" y="678.0339">+findById(ProposalID proposalId) : Proposal</text><text fill="#000000" font-family="sans-serif" font-size="14" lengthAdjust="spacing" textLength="165.7034" x="13" y="697.1018">+save(Proposal proposal)</text></g><!--class FigureRepository--><g id="elem_FigureRepository"><rect codeLine="33" fill="#F1F1F1" height="86.1358" id="FigureRepository" rx="2.5" ry="2.5" style="stroke:#181818;stroke-width:0.5;" width="249.6911" x="343.5" y="619.0679"/><ellipse cx="407.9627" cy="635.0679" fill="#ADD1B2" rx="11" ry="11" style="stroke:#181818;stroke-width:1.0;"/><path d="M410.9315,640.7085 Q410.3534,641.0054 409.7127,641.146 Q409.0721,641.3023 408.369,641.3023 Q405.869,641.3023 404.5409,639.6617 Q403.2284,638.0054 403.2284,634.8804 Q403.2284,631.7554 404.5409,630.0992 Q405.869,628.4429 408.369,628.4429 Q409.0721,628.4429 409.7127,628.5992 Q410.369,628.7554 410.9315,629.0523 L410.9315,631.771 Q410.3065,631.1929 409.7127,630.9273 Q409.119,630.646 408.494,630.646 Q407.1502,630.646 406.4627,631.7242 Q405.7752,632.7867 405.7752,634.8804 Q405.7752,636.9742 406.4627,638.0523 Q407.1502,639.1148 408.494,639.1148 Q409.119,639.1148 409.7127,638.8492 Q410.3065,638.5679 410.9315,637.9898 L410.9315,640.7085 Z " fill="#000000"/><text fill="#000000" font-family="sans-serif" font-size="14" lengthAdjust="spacing" textLength="112.2656" x="428.4627" y="640.4999">FigureRepository</text><line style="stroke:#181818;stroke-width:0.5;" x1="344.5" x2="592.1911" y1="651.0679" y2="651.0679"/><line style="stroke:#181818;stroke-width:0.5;" x1="344.5" x2="592.1911" y1="659.0679" y2="659.0679"/><text fill="#000000" font-family="sans-serif" font-size="14" lengthAdjust="spacing" textLength="237.1731" x="349.5" y="678.0339">+getAvailableFigures() : List&lt;Figure&gt;</text><text fill="#000000" font-family="sans-serif" font-size="14" lengthAdjust="spacing" textLength="237.6911" x="349.5" y="697.1018">+findById(FigureID figureId) : Figure</text></g><!--class Proposal--><g id="elem_Proposal"><rect codeLine="38" fill="#F1F1F1" height="86.1358" id="Proposal" rx="2.5" ry="2.5" style="stroke:#181818;stroke-width:0.5;" width="190.0653" x="152.5" y="784.0679"/><ellipse cx="214.2958" cy="800.0679" fill="#ADD1B2" rx="11" ry="11" style="stroke:#181818;stroke-width:1.0;"/><path d="M217.2645,805.7085 Q216.6864,806.0054 216.0458,806.146 Q215.4051,806.3023 214.702,806.3023 Q212.202,806.3023 210.8739,804.6617 Q209.5614,803.0054 209.5614,799.8804 Q209.5614,796.7554 210.8739,795.0992 Q212.202,793.4429 214.702,793.4429 Q215.4051,793.4429 216.0458,793.5992 Q216.702,793.7554 217.2645,794.0523 L217.2645,796.771 Q216.6395,796.1929 216.0458,795.9273 Q215.452,795.646 214.827,795.646 Q213.4833,795.646 212.7958,796.7242 Q212.1083,797.7867 212.1083,799.8804 Q212.1083,801.9742 212.7958,803.0523 Q213.4833,804.1148 214.827,804.1148 Q215.452,804.1148 216.0458,803.8492 Q216.6395,803.5679 217.2645,802.9898 L217.2645,805.7085 Z " fill="#000000"/><text fill="#000000" font-family="sans-serif" font-size="14" lengthAdjust="spacing" textLength="57.9738" x="234.7958" y="805.4999">Proposal</text><line style="stroke:#181818;stroke-width:0.5;" x1="153.5" x2="341.5653" y1="816.0679" y2="816.0679"/><line style="stroke:#181818;stroke-width:0.5;" x1="153.5" x2="341.5653" y1="824.0679" y2="824.0679"/><text fill="#000000" font-family="sans-serif" font-size="14" lengthAdjust="spacing" textLength="168.1254" x="158.5" y="843.0339">+addFigure(Figure figure)</text><text fill="#000000" font-family="sans-serif" font-size="14" lengthAdjust="spacing" textLength="178.0653" x="158.5" y="862.1018">+getFigures() : List&lt;Figure&gt;</text></g><!--class Figure--><g id="elem_Figure"><rect codeLine="43" fill="#F1F1F1" height="86.1358" id="Figure" rx="2.5" ry="2.5" style="stroke:#181818;stroke-width:0.5;" width="139.8755" x="370.5" y="949.0679"/><ellipse cx="415.2788" cy="965.0679" fill="#ADD1B2" rx="11" ry="11" style="stroke:#181818;stroke-width:1.0;"/><path d="M418.2476,970.7085 Q417.6695,971.0054 417.0288,971.146 Q416.3882,971.3023 415.6851,971.3023 Q413.1851,971.3023 411.857,969.6617 Q410.5445,968.0054 410.5445,964.8804 Q410.5445,961.7554 411.857,960.0992 Q413.1851,958.4429 415.6851,958.4429 Q416.3882,958.4429 417.0288,958.5992 Q417.6851,958.7554 418.2476,959.0523 L418.2476,961.771 Q417.6226,961.1929 417.0288,960.9273 Q416.4351,960.646 415.8101,960.646 Q414.4663,960.646 413.7788,961.7242 Q413.0913,962.7867 413.0913,964.8804 Q413.0913,966.9742 413.7788,968.0523 Q414.4663,969.1148 415.8101,969.1148 Q416.4351,969.1148 417.0288,968.8492 Q417.6226,968.5679 418.2476,967.9898 L418.2476,970.7085 Z " fill="#000000"/><text fill="#000000" font-family="sans-serif" font-size="14" lengthAdjust="spacing" textLength="41.8178" x="435.7788" y="970.4999">Figure</text><line style="stroke:#181818;stroke-width:0.5;" x1="371.5" x2="509.3755" y1="981.0679" y2="981.0679"/><line style="stroke:#181818;stroke-width:0.5;" x1="371.5" x2="509.3755" y1="989.0679" y2="989.0679"/><text fill="#000000" font-family="sans-serif" font-size="14" lengthAdjust="spacing" textLength="119.1395" x="376.5" y="1008.0339">+getId() : FigureID</text><text fill="#000000" font-family="sans-serif" font-size="14" lengthAdjust="spacing" textLength="127.8755" x="376.5" y="1027.1018">+getName() : String</text></g><!--class ProposalID--><g id="elem_ProposalID"><rect codeLine="48" fill="#F1F1F1" height="67.0679" id="ProposalID" rx="2.5" ry="2.5" style="stroke:#181818;stroke-width:0.5;" width="136.8095" x="179" y="958.5679"/><ellipse cx="208.3414" cy="974.5679" fill="#ADD1B2" rx="11" ry="11" style="stroke:#181818;stroke-width:1.0;"/><path d="M211.3101,980.2085 Q210.732,980.5054 210.0914,980.646 Q209.4508,980.8023 208.7476,980.8023 Q206.2476,980.8023 204.9195,979.1617 Q203.607,977.5054 203.607,974.3804 Q203.607,971.2554 204.9195,969.5992 Q206.2476,967.9429 208.7476,967.9429 Q209.4508,967.9429 210.0914,968.0992 Q210.7476,968.2554 211.3101,968.5523 L211.3101,971.271 Q210.6851,970.6929 210.0914,970.4273 Q209.4976,970.146 208.8726,970.146 Q207.5289,970.146 206.8414,971.2242 Q206.1539,972.2867 206.1539,974.3804 Q206.1539,976.4742 206.8414,977.5523 Q207.5289,978.6148 208.8726,978.6148 Q209.4976,978.6148 210.0914,978.3492 Q210.6851,978.0679 211.3101,977.4898 L211.3101,980.2085 Z " fill="#000000"/><text fill="#000000" font-family="sans-serif" font-size="14" lengthAdjust="spacing" textLength="72.9397" x="225.5284" y="979.9999">ProposalID</text><line style="stroke:#181818;stroke-width:0.5;" x1="180" x2="314.8095" y1="990.5679" y2="990.5679"/><line style="stroke:#181818;stroke-width:0.5;" x1="180" x2="314.8095" y1="998.5679" y2="998.5679"/><text fill="#000000" font-family="sans-serif" font-size="14" lengthAdjust="spacing" textLength="124.8095" x="185" y="1017.5339">+getValue() : String</text></g><!--class FigureID--><g id="elem_FigureID"><rect codeLine="52" fill="#F1F1F1" height="67.0679" id="FigureID" rx="2.5" ry="2.5" style="stroke:#181818;stroke-width:0.5;" width="136.8095" x="372" y="1114.0679"/><ellipse cx="408.6116" cy="1130.0679" fill="#ADD1B2" rx="11" ry="11" style="stroke:#181818;stroke-width:1.0;"/><path d="M411.5803,1135.7085 Q411.0022,1136.0054 410.3616,1136.146 Q409.721,1136.3023 409.0178,1136.3023 Q406.5178,1136.3023 405.1897,1134.6617 Q403.8772,1133.0054 403.8772,1129.8804 Q403.8772,1126.7554 405.1897,1125.0992 Q406.5178,1123.4429 409.0178,1123.4429 Q409.721,1123.4429 410.3616,1123.5992 Q411.0178,1123.7554 411.5803,1124.0523 L411.5803,1126.771 Q410.9553,1126.1929 410.3616,1125.9273 Q409.7678,1125.646 409.1428,1125.646 Q407.7991,1125.646 407.1116,1126.7242 Q406.4241,1127.7867 406.4241,1129.8804 Q406.4241,1131.9742 407.1116,1133.0523 Q407.7991,1134.1148 409.1428,1134.1148 Q409.7678,1134.1148 410.3616,1133.8492 Q410.9553,1133.5679 411.5803,1132.9898 L411.5803,1135.7085 Z " fill="#000000"/><text fill="#000000" font-family="sans-serif" font-size="14" lengthAdjust="spacing" textLength="56.7838" x="427.4141" y="1135.4999">FigureID</text><line style="stroke:#181818;stroke-width:0.5;" x1="373" x2="507.8095" y1="1146.0679" y2="1146.0679"/><line style="stroke:#181818;stroke-width:0.5;" x1="373" x2="507.8095" y1="1154.0679" y2="1154.0679"/><text fill="#000000" font-family="sans-serif" font-size="14" lengthAdjust="spacing" textLength="124.8095" x="378" y="1173.0339">+getValue() : String</text></g><!--link AddFigureToProposalUI to AddFigureToProposalController--><g id="link_AddFigureToProposalUI_AddFigureToProposalController"><path codeLine="56" d="M338.5,171.1879 C338.5,196.5779 338.5,219.7279 338.5,244.0179 " fill="none" id="AddFigureToProposalUI-to-AddFigureToProposalController" style="stroke:#181818;stroke-width:1.0;stroke-dasharray:7.0,7.0;"/><polygon fill="#181818" points="338.5,250.0179,342.5,241.0179,338.5,245.0179,334.5,241.0179,338.5,250.0179" style="stroke:#181818;stroke-width:1.0;"/><text fill="#000000" font-family="sans-serif" font-size="13" lengthAdjust="spacing" textLength="59.4751" x="339.5" y="215.9649">controller</text></g><!--link AddFigureToProposalController to Repositories--><g id="link_AddFigureToProposalController_Repositories"><path codeLine="57" d="M338.5,355.1379 C338.5,379.3979 338.5,402.5079 338.5,427.8779 " fill="none" id="AddFigureToProposalController-to-Repositories" style="stroke:#181818;stroke-width:1.0;stroke-dasharray:7.0,7.0;"/><polygon fill="#181818" points="338.5,433.8779,342.5,424.8779,338.5,428.8779,334.5,424.8779,338.5,433.8779" style="stroke:#181818;stroke-width:1.0;"/><text fill="#000000" font-family="sans-serif" font-size="13" lengthAdjust="spacing" textLength="72.9821" x="339.5" y="399.9649">repositories</text></g><!--link Repositories to ProposalRepository--><g id="link_Repositories_ProposalRepository"><path codeLine="58" d="M271.1,558.1379 C248.79,578.3479 228.9158,596.3586 208.5258,614.8386 " fill="none" id="Repositories-to-ProposalRepository" style="stroke:#181818;stroke-width:1.0;"/><polygon fill="#181818" points="204.08,618.8679,213.4348,615.7878,207.7848,615.5102,208.0624,609.8601,204.08,618.8679" style="stroke:#181818;stroke-width:1.0;"/></g><!--link Repositories to FigureRepository--><g id="link_Repositories_FigureRepository"><path codeLine="59" d="M386.91,558.1379 C402.93,578.3479 416.6727,595.6861 431.3227,614.1661 " fill="none" id="Repositories-to-FigureRepository" style="stroke:#181818;stroke-width:1.0;"/><polygon fill="#181818" points="435.05,618.8679,432.5935,609.3303,431.9439,614.9498,426.3245,614.3001,435.05,618.8679" style="stroke:#181818;stroke-width:1.0;"/></g><!--link AddFigureToProposalController to ProposalRepository--><g id="link_AddFigureToProposalController_ProposalRepository"><path codeLine="61" d="M234.56,355.1479 C161.04,391.6179 75.5,434.0679 75.5,434.0679 C75.5,434.0679 75.5,558.0679 75.5,558.0679 C75.5,558.0679 97.5339,585.7331 120.1739,614.1831 " fill="none" id="AddFigureToProposalController-to-ProposalRepository" style="stroke:#181818;stroke-width:1.0;stroke-dasharray:7.0,7.0;"/><polygon fill="#181818" points="123.91,618.8779,121.4358,609.3449,120.7966,614.9655,115.176,614.3264,123.91,618.8779" style="stroke:#181818;stroke-width:1.0;"/><text fill="#000000" font-family="sans-serif" font-size="13" lengthAdjust="spacing" textLength="85.2411" x="76.5" y="501.4649">proposalRepo</text></g><!--link AddFigureToProposalController to FigureRepository--><g id="link_AddFigureToProposalController_FigureRepository"><path codeLine="62" d="M408.06,355.1479 C457.25,391.6179 514.5,434.0679 514.5,434.0679 C514.5,434.0679 514.5,558.0679 514.5,558.0679 C514.5,558.0679 502.4974,584.9497 489.7874,613.3997 " fill="none" id="AddFigureToProposalController-to-FigureRepository" style="stroke:#181818;stroke-width:1.0;stroke-dasharray:7.0,7.0;"/><polygon fill="#181818" points="487.34,618.8779,494.6632,612.2922,489.3795,614.3128,487.3589,609.0291,487.34,618.8779" style="stroke:#181818;stroke-width:1.0;"/><text fill="#000000" font-family="sans-serif" font-size="13" lengthAdjust="spacing" textLength="67.8341" x="515.5" y="501.4649">figureRepo</text></g><!--link ProposalRepository to Proposal--><g id="link_ProposalRepository_Proposal"><path codeLine="64" d="M180.91,705.4679 C194.24,729.6179 207.9885,754.5161 221.3085,778.6261 " fill="none" id="ProposalRepository-to-Proposal" style="stroke:#181818;stroke-width:1.0;stroke-dasharray:7.0,7.0;"/><polygon fill="#181818" points="224.21,783.8779,223.359,774.0659,221.7921,779.5014,216.3566,777.9345,224.21,783.8779" style="stroke:#181818;stroke-width:1.0;"/><text fill="#000000" font-family="sans-serif" font-size="13" lengthAdjust="spacing" textLength="56.329" x="206.5" y="749.9649">manages</text></g><!--link FigureRepository to Figure--><g id="link_FigureRepository_Figure"><path codeLine="65" d="M464.9,705.2779 C459.52,768.2579 449.9705,880.1597 444.6005,943.0397 " fill="none" id="FigureRepository-to-Figure" style="stroke:#181818;stroke-width:1.0;stroke-dasharray:7.0,7.0;"/><polygon fill="#181818" points="444.09,949.0179,448.8413,940.3909,444.5155,944.0361,440.8703,939.7102,444.09,949.0179" style="stroke:#181818;stroke-width:1.0;"/><text fill="#000000" font-family="sans-serif" font-size="13" lengthAdjust="spacing" textLength="56.329" x="458.5" y="832.4649">manages</text></g><!--link Proposal to Figure--><g id="link_Proposal_Figure"><path codeLine="67" d="M297.45,870.2579 C326.16,894.4979 357.5058,920.9769 386.1758,945.1869 " fill="none" id="Proposal-to-Figure" style="stroke:#181818;stroke-width:1.0;"/><polygon fill="#181818" points="390.76,949.0579,386.4644,940.1952,386.9398,945.832,381.303,946.3075,390.76,949.0579" style="stroke:#181818;stroke-width:1.0;"/><text fill="#000000" font-family="sans-serif" font-size="13" lengthAdjust="spacing" textLength="51.7401" x="350.5" y="914.9649">contains</text><text fill="#000000" font-family="sans-serif" font-size="13" lengthAdjust="spacing" textLength="21.567" x="359.4657" y="937.1506">0..*</text></g><!--link Proposal to ProposalID--><g id="link_Proposal_ProposalID"><path codeLine="68" d="M247.5,870.4679 C247.5,897.9179 247.5,927.1179 247.5,952.3979 " fill="none" id="Proposal-to-ProposalID" style="stroke:#181818;stroke-width:1.0;stroke-dasharray:7.0,7.0;"/><polygon fill="#181818" points="247.5,958.3979,251.5,949.3979,247.5,953.3979,243.5,949.3979,247.5,958.3979" style="stroke:#181818;stroke-width:1.0;"/><text fill="#000000" font-family="sans-serif" font-size="13" lengthAdjust="spacing" textLength="72.9951" x="248.5" y="914.9649">identifiedBy</text></g><!--link Figure to FigureID--><g id="link_Figure_FigureID"><path codeLine="69" d="M440.5,1035.4179 C440.5,1060.0879 440.5,1084.7379 440.5,1107.5979 " fill="none" id="Figure-to-FigureID" style="stroke:#181818;stroke-width:1.0;stroke-dasharray:7.0,7.0;"/><polygon fill="#181818" points="440.5,1113.5979,444.5,1104.5979,440.5,1108.5979,436.5,1104.5979,440.5,1113.5979" style="stroke:#181818;stroke-width:1.0;"/><text fill="#000000" font-family="sans-serif" font-size="13" lengthAdjust="spacing" textLength="72.9951" x="441.5" y="1079.9649">identifiedBy</text></g><!--SRC=[bLLDRzim3BthLn0z9UiIz6mC0T8M0mmCmx1akxCsxGfH94zIMdZ3_llaBrcsZBJB9H7vHBx73yMSkAnGunagp4vOqi7MWa1JPb6MWfZn0FECkNhbieG2XGazWakoTKLGAL4tXy2N2JHcRwtcJnTBQQRaWVyck6FCSkioFJH-UEHODkWDxFCSFlFoeWcE2hvfLIc3Wh4s3dmdT-HMQKu6_Z1mdyt4k5gtnbieoQRIE14PhTQGJ40ZfClaVNKBdHj7-41dTY4sixy3OwUdYtTK0-n7sbE_1JIderg0U1cgibn9SrG74gud7MxrXHlxgVkzWwBzDiCDJRykP3pLD9zGJ1zxc7bMhmzA5boViKdXCbxZxA1MAo58U-vNKM4VzY_81Ju9wk2c9HHA68gnK8UHDrHUqSU-HSxOYK_pW7tS3K-vu3A_hrr95iE6THggX2_amHuQ99lFYa_r7xezgrYLdyPOtZX3Gzdw-_tjzNpA5_BFP8Ja-xaPA8sEhtZkDkhWTbgMCJ77FuZp4yLb6U_Lle5Utg3jTlV6d2QG-GEx3cs2JPwMnArHy5vCV9lDRcdZ8qpqZBo3nCBi9dxi6kCxOaGZcVGJqTvd2od2p0vzHkd-20oB0etH0vGFs8g-kTjkFzoCgAO5oAKPKM4or_m4U4xIyeAJMu8-Pv0fXlm3]--></g></svg>