<svg xmlns="http://www.w3.org/2000/svg" xmlns:xlink="http://www.w3.org/1999/xlink" contentStyleType="text/css" height="315px" preserveAspectRatio="none" style="width:273px;height:315px;background:#FFFFFF;" version="1.1" viewBox="0 0 273 315" width="273px" zoomAndPan="magnify"><title>Proposal Template Domain Model</title><defs/><g><text fill="#000000" font-family="sans-serif" font-size="14" font-weight="bold" lengthAdjust="spacing" textLength="243.3047" x="10" y="23.5352">Proposal Template Domain Model</text><!--class ProposalTemplate--><g id="elem_ProposalTemplate"><rect codeLine="4" fill="#F1F1F1" height="130.4414" id="ProposalTemplate" rx="2.5" ry="2.5" style="stroke:#181818;stroke-width:0.5;" width="200.0703" x="38.1153" y="44.4883"/><ellipse cx="73.9634" cy="60.4883" fill="#C2C2C2" rx="11" ry="11" style="stroke:#181818;stroke-width:1.0;"/><path d="M76.9365,66.1313 Q76.3555,66.4302 75.7163,66.5796 Q75.0771,66.729 74.3716,66.729 Q71.8647,66.729 70.5449,65.0771 Q69.2251,63.4253 69.2251,60.3042 Q69.2251,57.1748 70.5449,55.5229 Q71.8647,53.8711 74.3716,53.8711 Q75.0771,53.8711 75.7246,54.0205 Q76.3721,54.1699 76.9365,54.4688 L76.9365,57.1914 Q76.3057,56.6104 75.7121,56.3406 Q75.1186,56.0708 74.4878,56.0708 Q73.1431,56.0708 72.4582,57.1375 Q71.7734,58.2041 71.7734,60.3042 Q71.7734,62.396 72.4582,63.4626 Q73.1431,64.5293 74.4878,64.5293 Q75.1186,64.5293 75.7121,64.2595 Q76.3057,63.9897 76.9365,63.4087 Z " fill="#000000"/><text fill="#000000" font-family="sans-serif" font-size="14" lengthAdjust="spacing" textLength="121.7412" x="92.5963" y="65.7793">ProposalTemplate</text><line style="stroke:#181818;stroke-width:0.5;" x1="39.1153" x2="237.1856" y1="76.4883" y2="76.4883"/><rect fill="none" height="6" style="stroke:#595959;stroke-width:1.0;" width="6" x="46.1153" y="87.2324"/><text fill="#000000" font-family="sans-serif" font-size="14" lengthAdjust="spacing" textLength="55.2002" x="58.1153" y="94.0234">id: Long</text><rect fill="none" height="6" style="stroke:#595959;stroke-width:1.0;" width="6" x="46.1153" y="103.7207"/><text fill="#000000" font-family="sans-serif" font-size="14" lengthAdjust="spacing" textLength="85.0938" x="58.1153" y="110.5117">name: Name</text><rect fill="none" height="6" style="stroke:#595959;stroke-width:1.0;" width="6" x="46.1153" y="120.209"/><text fill="#000000" font-family="sans-serif" font-size="14" lengthAdjust="spacing" textLength="121.8301" x="58.1153" y="127">text: List&lt;String&gt;</text><rect fill="none" height="6" style="stroke:#595959;stroke-width:1.0;" width="6" x="46.1153" y="136.6973"/><text fill="#000000" font-family="sans-serif" font-size="14" lengthAdjust="spacing" textLength="162.6885" x="58.1153" y="143.4883">description: Description</text><rect fill="none" height="6" style="stroke:#595959;stroke-width:1.0;" width="6" x="46.1153" y="153.1855"/><text fill="#000000" font-family="sans-serif" font-size="14" lengthAdjust="spacing" textLength="174.0703" x="58.1153" y="159.9766">createdAt: LocalDateTime</text><line style="stroke:#181818;stroke-width:0.5;" x1="39.1153" x2="237.1856" y1="166.9297" y2="166.9297"/></g><!--class Name--><g id="elem_Name"><rect codeLine="12" fill="#F1F1F1" height="73.1094" id="Name" rx="2.5" ry="2.5" style="stroke:#181818;stroke-width:0.5;" width="110.4941" x="10.9053" y="234.9283"/><ellipse cx="25.9053" cy="255.2388" fill="#C2C2C2" rx="11" ry="11" style="stroke:#181818;stroke-width:1.0;"/><path d="M28.8784,260.8819 Q28.2974,261.1807 27.6582,261.3301 Q27.019,261.4796 26.3135,261.4796 Q23.8066,261.4796 22.4868,259.8277 Q21.167,258.1758 21.167,255.0547 Q21.167,251.9254 22.4868,250.2735 Q23.8066,248.6216 26.3135,248.6216 Q27.019,248.6216 27.6665,248.7711 Q28.314,248.9205 28.8784,249.2193 L28.8784,251.942 Q28.2476,251.3609 27.6541,251.0911 Q27.0605,250.8213 26.4297,250.8213 Q25.085,250.8213 24.4001,251.888 Q23.7153,252.9546 23.7153,255.0547 Q23.7153,257.1465 24.4001,258.2132 Q25.085,259.2798 26.4297,259.2798 Q27.0605,259.2798 27.6541,259.0101 Q28.2476,258.7403 28.8784,258.1592 Z " fill="#000000"/><text fill="#000000" font-family="sans-serif" font-size="12" font-style="italic" lengthAdjust="spacing" textLength="82.4941" x="37.9053" y="251.5298">&#171;ValueObject&#187;</text><text fill="#000000" font-family="sans-serif" font-size="14" lengthAdjust="spacing" textLength="38.9443" x="59.6802" y="267.5963">Name</text><line style="stroke:#181818;stroke-width:0.5;" x1="11.9053" x2="120.3994" y1="275.5494" y2="275.5494"/><rect fill="none" height="6" style="stroke:#595959;stroke-width:1.0;" width="6" x="18.9053" y="286.2935"/><text fill="#000000" font-family="sans-serif" font-size="14" lengthAdjust="spacing" textLength="84.3418" x="30.9053" y="293.0845">value: String</text><line style="stroke:#181818;stroke-width:0.5;" x1="11.9053" x2="120.3994" y1="300.0377" y2="300.0377"/></g><!--class Description--><g id="elem_Description"><rect codeLine="16" fill="#F1F1F1" height="73.1094" id="Description" rx="2.5" ry="2.5" style="stroke:#181818;stroke-width:0.5;" width="110.4941" x="155.9053" y="234.9283"/><ellipse cx="170.9053" cy="255.2388" fill="#C2C2C2" rx="11" ry="11" style="stroke:#181818;stroke-width:1.0;"/><path d="M173.8784,260.8819 Q173.2974,261.1807 172.6582,261.3301 Q172.019,261.4796 171.3135,261.4796 Q168.8066,261.4796 167.4868,259.8277 Q166.167,258.1758 166.167,255.0547 Q166.167,251.9254 167.4868,250.2735 Q168.8066,248.6216 171.3135,248.6216 Q172.019,248.6216 172.6665,248.7711 Q173.314,248.9205 173.8784,249.2193 L173.8784,251.942 Q173.2476,251.3609 172.6541,251.0911 Q172.0605,250.8213 171.4297,250.8213 Q170.085,250.8213 169.4001,251.888 Q168.7153,252.9546 168.7153,255.0547 Q168.7153,257.1465 169.4001,258.2132 Q170.085,259.2798 171.4297,259.2798 Q172.0605,259.2798 172.6541,259.0101 Q173.2476,258.7403 173.8784,258.1592 Z " fill="#000000"/><text fill="#000000" font-family="sans-serif" font-size="12" font-style="italic" lengthAdjust="spacing" textLength="82.4941" x="182.9053" y="251.5298">&#171;ValueObject&#187;</text><text fill="#000000" font-family="sans-serif" font-size="14" lengthAdjust="spacing" textLength="77.752" x="185.2764" y="267.5963">Description</text><line style="stroke:#181818;stroke-width:0.5;" x1="156.9053" x2="265.3994" y1="275.5494" y2="275.5494"/><rect fill="none" height="6" style="stroke:#595959;stroke-width:1.0;" width="6" x="163.9053" y="286.2935"/><text fill="#000000" font-family="sans-serif" font-size="14" lengthAdjust="spacing" textLength="84.3418" x="175.9053" y="293.0845">value: String</text><line style="stroke:#181818;stroke-width:0.5;" x1="156.9053" x2="265.3994" y1="300.0377" y2="300.0377"/></g><!--link ProposalTemplate to Name--><g id="link_ProposalTemplate_Name"><path codeLine="20" d="M109.0753,175.2383 C99.9453,195.4983 92.6616,211.6686 84.7616,229.1886 " fill="none" id="ProposalTemplate-to-Name" style="stroke:#181818;stroke-width:1.0;stroke-dasharray:7.0,7.0;"/><polygon fill="#181818" points="82.2953,234.6583,89.6412,228.098,84.3506,230.1002,82.3483,224.8096,82.2953,234.6583" style="stroke:#181818;stroke-width:1.0;"/></g><!--link ProposalTemplate to Description--><g id="link_ProposalTemplate_Description"><path codeLine="21" d="M167.6353,175.2383 C176.8953,195.4983 184.2805,211.6815 192.2905,229.2015 " fill="none" id="ProposalTemplate-to-Description" style="stroke:#181818;stroke-width:1.0;stroke-dasharray:7.0,7.0;"/><polygon fill="#181818" points="194.7853,234.6583,194.6809,224.81,192.7063,230.111,187.4053,228.1363,194.7853,234.6583" style="stroke:#181818;stroke-width:1.0;"/></g><!--SRC=[ZK_B2i903BptA_83-W6b58GUVO75Uzo66jtTbDqeWlZlRccjWXxC8J2PcKmIp-mx3EZ0YHTp3E88D5meKrPBi0tIIKGBDRdEeX9Kuf0zhAGXcsN6OeoJQXBTCqWr0svoM8flH-ZHKGxhrCU1qasJWgCMEmtist8a6eecSASiFeVg3KRQ14enpQ8tYq5R9LHpMljudTI7G57iqLveSpYHqRASphhsqno6oBVd8-T_wzVlytavlFYJ-SXu0W00]--></g></svg>