<?xml version="1.0" encoding="UTF-8" standalone="no"?><svg xmlns="http://www.w3.org/2000/svg" xmlns:xlink="http://www.w3.org/1999/xlink" contentScriptType="application/ecmascript" contentStyleType="text/css" height="203px" preserveAspectRatio="none" style="width:484px;height:203px;" version="1.1" viewBox="0 0 484 203" width="484px" zoomAndPan="magnify"><defs><filter height="300%" id="f16x0wxgrba07z" width="300%" x="-1" y="-1"><feGaussianBlur result="blurOut" stdDeviation="2.0"/><feColorMatrix in="blurOut" result="blurOut2" type="matrix" values="0 0 0 0 0 0 0 0 0 0 0 0 0 0 0 0 0 0 .4 0"/><feOffset dx="4.0" dy="4.0" in="blurOut2" result="blurOut3"/><feBlend in="SourceGraphic" in2="blurOut3" mode="normal"/></filter></defs><g><!--MD5=[15c4d1c552856491070f614f1b3f6856]
class persistence.jpa.JPAImpl.exampleJPAImpl--><a href="exampleJPAImpl.html" target="_top" title="exampleJPAImpl.html" xlink:actuate="onRequest" xlink:href="exampleJPAImpl.html" xlink:show="new" xlink:title="exampleJPAImpl.html" xlink:type="simple"><rect codeLine="5" fill="#FEFECE" filter="url(#f16x0wxgrba07z)" height="38.2656" id="persistence.jpa.JPAImpl.exampleJPAImpl" style="stroke: #A80036; stroke-width: 1.5;" width="146" x="180.5" y="129.22"/><ellipse cx="195.5" cy="148.3528" fill="#ADD1B2" rx="11" ry="11" style="stroke: #A80036; stroke-width: 1.0;"/><path d="M197.9731,154.4959 Q197.3921,154.7947 196.7529,154.9441 Q196.1138,155.0935 195.4082,155.0935 Q192.9014,155.0935 191.5815,153.4417 Q190.2617,151.7898 190.2617,148.6687 Q190.2617,145.5393 191.5815,143.8875 Q192.9014,142.2356 195.4082,142.2356 Q196.1138,142.2356 196.7612,142.385 Q197.4087,142.5345 197.9731,142.8333 L197.9731,145.5559 Q197.3423,144.9749 196.7488,144.7051 Q196.1553,144.4353 195.5244,144.4353 Q194.1797,144.4353 193.4949,145.502 Q192.8101,146.5686 192.8101,148.6687 Q192.8101,150.7605 193.4949,151.8272 Q194.1797,152.8938 195.5244,152.8938 Q196.1553,152.8938 196.7488,152.6241 Q197.3423,152.3543 197.9731,151.7732 Z "/><text fill="#000000" font-family="sans-serif" font-size="14" lengthAdjust="spacingAndGlyphs" textLength="111" x="211" y="147.7552">exampleJPAImpl</text><text fill="#000000" font-family="sans-serif" font-size="10" lengthAdjust="spacingAndGlyphs" textLength="114" x="209.5" y="160.3763">persistence.jpa.JPAImpl</text></a><!--MD5=[0464228a65d6670e76009427e3c646e5]
class persistence.jpa.JpaBaseRepository--><a href="../JpaBaseRepository.html" target="_top" title="../JpaBaseRepository.html" xlink:actuate="onRequest" xlink:href="../JpaBaseRepository.html" xlink:show="new" xlink:title="../JpaBaseRepository.html" xlink:type="simple"><rect codeLine="7" fill="#FEFECE" filter="url(#f16x0wxgrba07z)" height="38.2656" id="persistence.jpa.JpaBaseRepository" style="stroke: #A80036; stroke-width: 1.5;" width="247" x="7" y="20.48"/><ellipse cx="22" cy="39.6128" fill="#A9DCDF" rx="11" ry="11" style="stroke: #A80036; stroke-width: 1.0;"/><path d="M21.8633,34.961 L20.7095,40.0327 L23.0254,40.0327 Z M20.3691,32.7197 L23.3657,32.7197 L26.7109,45.1128 L24.2622,45.1128 L23.4985,42.0498 L20.2197,42.0498 L19.4727,45.1128 L17.0239,45.1128 Z "/><text fill="#000000" font-family="sans-serif" font-size="14" font-style="italic" lengthAdjust="spacingAndGlyphs" textLength="125" x="36" y="39.0152">JpaBaseRepository</text><text fill="#000000" font-family="sans-serif" font-size="10" font-style="italic" lengthAdjust="spacingAndGlyphs" textLength="74" x="61.5" y="51.6363">persistence.jpa</text><rect fill="#FFFFFF" height="16.1328" style="stroke: #000000; stroke-width: 1.0; stroke-dasharray: 2.0,2.0;" width="88" x="169" y="17.48"/><text fill="#000000" font-family="sans-serif" font-size="12" font-style="italic" lengthAdjust="spacingAndGlyphs" textLength="86" x="170" y="30.0816">Object, Integer</text></a><!--MD5=[24670e5a69043045d276c3a5d51cf1ed]
class persistence.interfaces.exampleRepository--><a href="../../interfaces/exampleRepository.html" target="_top" title="../../interfaces/exampleRepository.html" xlink:actuate="onRequest" xlink:href="../../interfaces/exampleRepository.html" xlink:show="new" xlink:title="../../interfaces/exampleRepository.html" xlink:type="simple"><rect codeLine="8" fill="#FEFECE" filter="url(#f16x0wxgrba07z)" height="59.2207" id="persistence.interfaces.exampleRepository" style="stroke: #A80036; stroke-width: 1.5;" width="176" x="289.5" y="10"/><ellipse cx="304.5" cy="29.1328" fill="#B4A7E5" rx="11" ry="11" style="stroke: #A80036; stroke-width: 1.0;"/><path d="M300.9277,25.3979 L300.9277,23.2397 L308.3071,23.2397 L308.3071,25.3979 L305.8418,25.3979 L305.8418,33.4746 L308.3071,33.4746 L308.3071,35.6328 L300.9277,35.6328 L300.9277,33.4746 L303.3931,33.4746 L303.3931,25.3979 Z "/><text fill="#000000" font-family="sans-serif" font-size="14" font-style="italic" lengthAdjust="spacingAndGlyphs" textLength="132" x="318.5" y="28.5352">exampleRepository</text><text fill="#000000" font-family="sans-serif" font-size="10" font-style="italic" lengthAdjust="spacingAndGlyphs" textLength="108" x="330.5" y="41.1563">persistence.interfaces</text><rect fill="#FFFFFF" height="16.1328" style="stroke: #000000; stroke-width: 1.0; stroke-dasharray: 2.0,2.0;" width="10" x="458.5" y="7"/><text fill="#000000" font-family="sans-serif" font-size="12" font-style="italic" lengthAdjust="spacingAndGlyphs" textLength="8" x="459.5" y="19.6016">T</text><line style="stroke: #A80036; stroke-width: 1.5;" x1="290.5" x2="464.5" y1="48.2656" y2="48.2656"/><ellipse cx="300.5" cy="59.2656" fill="#84BE84" rx="3" ry="3" style="stroke: #038048; stroke-width: 1.0;"/><text fill="#000000" font-family="sans-serif" font-size="11" font-style="italic" lengthAdjust="spacingAndGlyphs" textLength="48" x="309.5" y="62.9004">add(T): T</text></a><!--MD5=[bfdefd2752fecc827df420c82a61db0d]
reverse link persistence.jpa.JpaBaseRepository to persistence.jpa.JPAImpl.exampleJPAImpl--><path codeLine="12" d="M167.99,73.15 C189.09,91.46 214.67,113.66 232.32,128.98 " fill="none" id="persistence.jpa.JpaBaseRepository-backto-persistence.jpa.JPAImpl.exampleJPAImpl" style="stroke: #A80036; stroke-width: 1.0;"/><polygon fill="none" points="163.59,78.59,153.07,60.2,172.76,68.02,163.59,78.59" style="stroke: #A80036; stroke-width: 1.0;"/><!--MD5=[66f10993f8fc78dd84652c788f7725c8]
reverse link persistence.interfaces.exampleRepository to persistence.jpa.JPAImpl.exampleJPAImpl--><path codeLine="13" d="M327.71,83.48 C309.36,99.27 289.53,116.35 274.98,128.86 " fill="none" id="persistence.interfaces.exampleRepository-backto-persistence.jpa.JPAImpl.exampleJPAImpl" style="stroke: #A80036; stroke-width: 1.0; stroke-dasharray: 7.0,7.0;"/><polygon fill="none" points="323.07,78.23,342.8,70.49,332.21,88.84,323.07,78.23" style="stroke: #A80036; stroke-width: 1.0;"/><text fill="#888888" font-family="sans-serif" font-size="10" lengthAdjust="spacingAndGlyphs" textLength="188" x="139.25" y="190.1536">UMLDoclet 2.0.12, PlantUML 1.2020.16</text><!--MD5=[474bedeadacd6df37c58ee009705a1be]
@startuml
    set namespaceSeparator none
    hide empty fields
    hide empty methods

    class "<size:14>exampleJPAImpl\n<size:10>persistence.jpa.JPAImpl" as persistence.jpa.JPAImpl.exampleJPAImpl [[exampleJPAImpl.html]]

    abstract class "<size:14>JpaBaseRepository\n<size:10>persistence.jpa" as persistence.jpa.JpaBaseRepository<Object, Integer> [[../JpaBaseRepository.html]]
    interface "<size:14>exampleRepository\n<size:10>persistence.interfaces" as persistence.interfaces.exampleRepository<T> [[../../interfaces/exampleRepository.html]] {
        {abstract} +add(T): T
    }

    persistence.jpa.JpaBaseRepository <|- - persistence.jpa.JPAImpl.exampleJPAImpl
    persistence.interfaces.exampleRepository <|.. persistence.jpa.JPAImpl.exampleJPAImpl

    center footer UMLDoclet 2.0.12, PlantUML 1.2020.16
@enduml

PlantUML version 1.2020.16(Sun Aug 23 21:20:43 WEST 2020)
(APACHE source distribution)
Java Runtime: OpenJDK Runtime Environment
JVM: OpenJDK 64-Bit Server VM
Default Encoding: UTF-8
Language: pt
Country: PT
--></g></svg>