<?xml version="1.0" encoding="UTF-8" standalone="no"?><svg xmlns="http://www.w3.org/2000/svg" xmlns:xlink="http://www.w3.org/1999/xlink" contentScriptType="application/ecmascript" contentStyleType="text/css" height="215px" preserveAspectRatio="none" style="width:454px;height:215px;" version="1.1" viewBox="0 0 454 215" width="454px" zoomAndPan="magnify"><defs><filter height="300%" id="f16x0wxgrba07z" width="300%" x="-1" y="-1"><feGaussianBlur result="blurOut" stdDeviation="2.0"/><feColorMatrix in="blurOut" result="blurOut2" type="matrix" values="0 0 0 0 0 0 0 0 0 0 0 0 0 0 0 0 0 0 .4 0"/><feOffset dx="4.0" dy="4.0" in="blurOut2" result="blurOut3"/><feBlend in="SourceGraphic" in2="blurOut3" mode="normal"/></filter></defs><g><!--MD5=[15c4d1c552856491070f614f1b3f6856]
class persistence.jpa.JPAImpl.exampleJPAImpl--><a href="exampleJPAImpl.html" target="_top" title="exampleJPAImpl.html" xlink:actuate="onRequest" xlink:href="exampleJPAImpl.html" xlink:show="new" xlink:title="exampleJPAImpl.html" xlink:type="simple"><rect codeLine="5" fill="#FEFECE" filter="url(#f16x0wxgrba07z)" height="42.6879" id="persistence.jpa.JPAImpl.exampleJPAImpl" style="stroke: #A80036; stroke-width: 1.5;" width="145" x="166" y="136.016"/><ellipse cx="181" cy="157.36" fill="#ADD1B2" rx="11" ry="11" style="stroke: #A80036; stroke-width: 1.0;"/><path d="M183.9688,163.0006 Q183.3906,163.2975 182.75,163.4381 Q182.1094,163.5944 181.4063,163.5944 Q178.9063,163.5944 177.5781,161.9537 Q176.2656,160.2975 176.2656,157.1725 Q176.2656,154.0475 177.5781,152.3912 Q178.9063,150.735 181.4063,150.735 Q182.1094,150.735 182.75,150.8912 Q183.4063,151.0475 183.9688,151.3444 L183.9688,154.0631 Q183.3438,153.485 182.75,153.2194 Q182.1563,152.9381 181.5313,152.9381 Q180.1875,152.9381 179.5,154.0162 Q178.8125,155.0787 178.8125,157.1725 Q178.8125,159.2662 179.5,160.3444 Q180.1875,161.4069 181.5313,161.4069 Q182.1563,161.4069 182.75,161.1412 Q183.3438,160.86 183.9688,160.2819 L183.9688,163.0006 Z "/><text fill="#000000" font-family="sans-serif" font-size="14" lengthAdjust="spacingAndGlyphs" textLength="109" x="197" y="155.982">exampleJPAImpl</text><text fill="#000000" font-family="sans-serif" font-size="10" lengthAdjust="spacingAndGlyphs" textLength="113" x="195" y="170.7739">persistence.jpa.JPAImpl</text></a><!--MD5=[0464228a65d6670e76009427e3c646e5]
class persistence.jpa.JpaBaseRepository--><a href="../JpaBaseRepository.html" target="_top" title="../JpaBaseRepository.html" xlink:actuate="onRequest" xlink:href="../JpaBaseRepository.html" xlink:show="new" xlink:title="../JpaBaseRepository.html" xlink:type="simple"><rect codeLine="7" fill="#FEFECE" filter="url(#f16x0wxgrba07z)" height="42.6879" id="persistence.jpa.JpaBaseRepository" style="stroke: #A80036; stroke-width: 1.5;" width="231" x="7" y="21.516"/><ellipse cx="22" cy="42.86" fill="#A9DCDF" rx="11" ry="11" style="stroke: #A80036; stroke-width: 1.0;"/><path d="M22.1094,38.2037 L20.9531,43.2819 L23.2813,43.2819 L22.1094,38.2037 Z M20.625,35.9694 L23.6094,35.9694 L26.9688,48.36 L24.5156,48.36 L23.75,45.2975 L20.4688,45.2975 L19.7188,48.36 L17.2813,48.36 L20.625,35.9694 Z "/><text fill="#000000" font-family="sans-serif" font-size="14" font-style="italic" lengthAdjust="spacingAndGlyphs" textLength="116" x="36" y="41.482">JpaBaseRepository</text><text fill="#000000" font-family="sans-serif" font-size="10" font-style="italic" lengthAdjust="spacingAndGlyphs" textLength="68" x="60" y="56.2739">persistence.jpa</text><rect fill="#FFFFFF" height="18.3441" style="stroke: #000000; stroke-width: 1.0; stroke-dasharray: 2.0,2.0;" width="81" x="160" y="18.516"/><text fill="#000000" font-family="sans-serif" font-size="12" font-style="italic" lengthAdjust="spacingAndGlyphs" textLength="79" x="161" y="32.3441">Object, Integer</text></a><!--MD5=[24670e5a69043045d276c3a5d51cf1ed]
class persistence.interfaces.exampleRepository--><a href="../../interfaces/exampleRepository.html" target="_top" title="../../interfaces/exampleRepository.html" xlink:actuate="onRequest" xlink:href="../../interfaces/exampleRepository.html" xlink:show="new" xlink:title="../../interfaces/exampleRepository.html" xlink:type="simple"><rect codeLine="8" fill="#FEFECE" filter="url(#f16x0wxgrba07z)" height="65.6698" id="persistence.interfaces.exampleRepository" style="stroke: #A80036; stroke-width: 1.5;" width="162" x="273.5" y="10.016"/><ellipse cx="288.5" cy="31.36" fill="#B4A7E5" rx="11" ry="11" style="stroke: #A80036; stroke-width: 1.0;"/><path d="M284.4219,27.1256 L284.4219,24.9694 L291.8125,24.9694 L291.8125,27.1256 L289.3438,27.1256 L289.3438,35.2037 L291.8125,35.2037 L291.8125,37.36 L284.4219,37.36 L284.4219,35.2037 L286.8906,35.2037 L286.8906,27.1256 L284.4219,27.1256 Z "/><text fill="#000000" font-family="sans-serif" font-size="14" font-style="italic" lengthAdjust="spacingAndGlyphs" textLength="120" x="302.5" y="29.982">exampleRepository</text><text fill="#000000" font-family="sans-serif" font-size="10" font-style="italic" lengthAdjust="spacingAndGlyphs" textLength="97" x="314" y="44.7739">persistence.interfaces</text><rect fill="#FFFFFF" height="18.3441" style="stroke: #000000; stroke-width: 1.0; stroke-dasharray: 2.0,2.0;" width="8" x="430.5" y="7.016"/><text fill="#000000" font-family="sans-serif" font-size="12" font-style="italic" lengthAdjust="spacingAndGlyphs" textLength="6" x="431.5" y="20.8441">T</text><line style="stroke: #A80036; stroke-width: 1.5;" x1="274.5" x2="434.5" y1="52.7039" y2="52.7039"/><ellipse cx="284.5" cy="63.7039" fill="#84BE84" rx="3" ry="3" style="stroke: #038048; stroke-width: 1.0;"/><text fill="#000000" font-family="sans-serif" font-size="11" font-style="italic" lengthAdjust="spacingAndGlyphs" textLength="42" x="293.5" y="68.4628">add(T): T</text></a><!--MD5=[bfdefd2752fecc827df420c82a61db0d]
reverse link persistence.jpa.JpaBaseRepository to persistence.jpa.JPAImpl.exampleJPAImpl--><path codeLine="12" d="M158.26,78.696 C177.62,97.476 200.88,120.036 217.36,136.016 " fill="none" id="persistence.jpa.JpaBaseRepository-backto-persistence.jpa.JPAImpl.exampleJPAImpl" style="stroke: #A80036; stroke-width: 1.0;"/><polygon fill="none" points="153.26,83.596,143.78,64.646,163.01,73.546,153.26,83.596" style="stroke: #A80036; stroke-width: 1.0;"/><!--MD5=[66f10993f8fc78dd84652c788f7725c8]
reverse link persistence.interfaces.exampleRepository to persistence.jpa.JPAImpl.exampleJPAImpl--><path codeLine="13" d="M306.7,90.376 C290.33,106.246 272.85,123.206 259.68,135.976 " fill="none" id="persistence.interfaces.exampleRepository-backto-persistence.jpa.JPAImpl.exampleJPAImpl" style="stroke: #A80036; stroke-width: 1.0; stroke-dasharray: 7.0,7.0;"/><polygon fill="none" points="302.03,85.156,321.26,76.256,311.78,95.206,302.03,85.156" style="stroke: #A80036; stroke-width: 1.0;"/><text fill="#888888" font-family="sans-serif" font-size="10" lengthAdjust="spacingAndGlyphs" textLength="188" x="124.25" y="202.3939">UMLDoclet 2.0.12, PlantUML 1.2020.16</text><!--MD5=[65dea065d88b24bbea584e4f67fb862d]
@startuml
    set namespaceSeparator none
    hide empty fields
    hide empty methods

    class "<size:14>exampleJPAImpl\n<size:10>persistence.jpa.JPAImpl" as persistence.jpa.JPAImpl.exampleJPAImpl [[exampleJPAImpl.html]]

    abstract class "<size:14>JpaBaseRepository\n<size:10>persistence.jpa" as persistence.jpa.JpaBaseRepository<Object, Integer> [[../JpaBaseRepository.html]]
    interface "<size:14>exampleRepository\n<size:10>persistence.interfaces" as persistence.interfaces.exampleRepository<T> [[../../interfaces/exampleRepository.html]] {
        {abstract} +add(T): T
    }

    persistence.jpa.JpaBaseRepository <|- - persistence.jpa.JPAImpl.exampleJPAImpl
    persistence.interfaces.exampleRepository <|.. persistence.jpa.JPAImpl.exampleJPAImpl

    center footer UMLDoclet 2.0.12, PlantUML 1.2020.16
@enduml

PlantUML version 1.2020.16(Sun Aug 23 21:20:43 WEST 2020)
(APACHE source distribution)
Java Runtime: Java(TM) SE Runtime Environment
JVM: Java HotSpot(TM) 64-Bit Server VM
Default Encoding: UTF-8
Language: en
Country: US
--></g></svg>