<?xml version="1.0" encoding="UTF-8" standalone="no"?><svg xmlns="http://www.w3.org/2000/svg" xmlns:xlink="http://www.w3.org/1999/xlink" contentScriptType="application/ecmascript" contentStyleType="text/css" height="80px" preserveAspectRatio="none" style="width:224px;height:80px;" version="1.1" viewBox="0 0 224 80" width="224px" zoomAndPan="magnify"><defs><filter height="300%" id="f1w2v0o5wr2ba1" width="300%" x="-1" y="-1"><feGaussianBlur result="blurOut" stdDeviation="2.0"/><feColorMatrix in="blurOut" result="blurOut2" type="matrix" values="0 0 0 0 0 0 0 0 0 0 0 0 0 0 0 0 0 0 .4 0"/><feOffset dx="4.0" dy="4.0" in="blurOut2" result="blurOut3"/><feBlend in="SourceGraphic" in2="blurOut3" mode="normal"/></filter></defs><g><!--MD5=[9c4f431e030afd39305b49d69c83c708]
class persistence.jpa.JPAImpl.FigureRepositoryJPAImpl--><a href="FigureRepositoryJPAImpl.html" target="_top" title="FigureRepositoryJPAImpl.html" xlink:actuate="onRequest" xlink:href="FigureRepositoryJPAImpl.html" xlink:show="new" xlink:title="FigureRepositoryJPAImpl.html" xlink:type="simple"><rect codeLine="5" fill="#FEFECE" filter="url(#f1w2v0o5wr2ba1)" height="42.6879" id="persistence.jpa.JPAImpl.FigureRepositoryJPAImpl" style="stroke: #A80036; stroke-width: 1.5;" width="198" x="7" y="7"/><ellipse cx="22" cy="28.344" fill="#ADD1B2" rx="11" ry="11" style="stroke: #A80036; stroke-width: 1.0;"/><path d="M24.9688,33.9846 Q24.3906,34.2815 23.75,34.4221 Q23.1094,34.5783 22.4063,34.5783 Q19.9063,34.5783 18.5781,32.9377 Q17.2656,31.2815 17.2656,28.1565 Q17.2656,25.0315 18.5781,23.3752 Q19.9063,21.719 22.4063,21.719 Q23.1094,21.719 23.75,21.8752 Q24.4063,22.0315 24.9688,22.3283 L24.9688,25.0471 Q24.3438,24.469 23.75,24.2033 Q23.1563,23.9221 22.5313,23.9221 Q21.1875,23.9221 20.5,25.0002 Q19.8125,26.0627 19.8125,28.1565 Q19.8125,30.2502 20.5,31.3283 Q21.1875,32.3908 22.5313,32.3908 Q23.1563,32.3908 23.75,32.1252 Q24.3438,31.844 24.9688,31.2658 L24.9688,33.9846 Z "/><text fill="#000000" font-family="sans-serif" font-size="14" lengthAdjust="spacingAndGlyphs" textLength="166" x="36" y="26.9659">FigureRepositoryJPAImpl</text><text fill="#000000" font-family="sans-serif" font-size="10" lengthAdjust="spacingAndGlyphs" textLength="113" x="62.5" y="41.7579">persistence.jpa.JPAImpl</text></a><text fill="#888888" font-family="sans-serif" font-size="10" lengthAdjust="spacingAndGlyphs" textLength="188" x="12" y="67.3779">UMLDoclet 2.0.12, PlantUML 1.2020.16</text><!--MD5=[152e97e15c45043039d6d01a88030615]
@startuml
    set namespaceSeparator none
    hide empty fields
    hide empty methods

    class "<size:14>FigureRepositoryJPAImpl\n<size:10>persistence.jpa.JPAImpl" as persistence.jpa.JPAImpl.FigureRepositoryJPAImpl [[FigureRepositoryJPAImpl.html]]

    center footer UMLDoclet 2.0.12, PlantUML 1.2020.16
@enduml

PlantUML version 1.2020.16(Sun Aug 23 21:20:43 WEST 2020)
(APACHE source distribution)
Java Runtime: Java(TM) SE Runtime Environment
JVM: Java HotSpot(TM) 64-Bit Server VM
Default Encoding: UTF-8
Language: en
Country: US
--></g></svg>