<?xml version="1.0" encoding="UTF-8" standalone="no"?><svg xmlns="http://www.w3.org/2000/svg" xmlns:xlink="http://www.w3.org/1999/xlink" contentScriptType="application/ecmascript" contentStyleType="text/css" height="474px" preserveAspectRatio="none" style="width:970px;height:474px;" version="1.1" viewBox="0 0 970 474" width="970px" zoomAndPan="magnify"><defs><filter height="300%" id="f1r7mi6amtvdbe" width="300%" x="-1" y="-1"><feGaussianBlur result="blurOut" stdDeviation="2.0"/><feColorMatrix in="blurOut" result="blurOut2" type="matrix" values="0 0 0 0 0 0 0 0 0 0 0 0 0 0 0 0 0 0 .4 0"/><feOffset dx="4.0" dy="4.0" in="blurOut2" result="blurOut3"/><feBlend in="SourceGraphic" in2="blurOut3" mode="normal"/></filter></defs><g><!--MD5=[2f7b34593d5a6290b20af5f45b84275f]
cluster persistence.jpa.JPAImpl--><polygon fill="#FFFFFF" filter="url(#f1r7mi6amtvdbe)" points="108,192.602,278,192.602,285,217.6699,902,217.6699,902,444.602,108,444.602,108,192.602" style="stroke: #000000; stroke-width: 1.5;"/><line style="stroke: #000000; stroke-width: 1.5;" x1="108" x2="285" y1="217.6699" y2="217.6699"/><text fill="#000000" font-family="sans-serif" font-size="14" font-weight="bold" lengthAdjust="spacingAndGlyphs" textLength="164" x="112" y="209.5679">persistence.jpa.JPAImpl</text><!--MD5=[384ab4695d5a81d5c76411c35f99ff61]
cluster persistence.jpa--><polygon fill="#FFFFFF" filter="url(#f1r7mi6amtvdbe)" points="16,6.602,126,6.602,133,31.6699,541,31.6699,541,168.602,16,168.602,16,6.602" style="stroke: #000000; stroke-width: 1.5;"/><line style="stroke: #000000; stroke-width: 1.5;" x1="16" x2="133" y1="31.6699" y2="31.6699"/><text fill="#000000" font-family="sans-serif" font-size="14" font-weight="bold" lengthAdjust="spacingAndGlyphs" textLength="104" x="20" y="23.5679">persistence.jpa</text><!--MD5=[2080742880720af87d67468ca1701f80]
cluster persistence.interfaces--><polygon fill="#FFFFFF" filter="url(#f1r7mi6amtvdbe)" points="565,29.102,722,29.102,729,54.1699,948,54.1699,948,146.102,565,146.102,565,29.102" style="stroke: #000000; stroke-width: 1.5;"/><line style="stroke: #000000; stroke-width: 1.5;" x1="565" x2="729" y1="54.1699" y2="54.1699"/><text fill="#000000" font-family="sans-serif" font-size="14" font-weight="bold" lengthAdjust="spacingAndGlyphs" textLength="151" x="569" y="46.0679">persistence.interfaces</text><!--MD5=[9c4f431e030afd39305b49d69c83c708]
class persistence.jpa.JPAImpl.FigureRepositoryJPAImpl--><a href="FigureRepositoryJPAImpl.html" target="_top" title="FigureRepositoryJPAImpl.html" xlink:actuate="onRequest" xlink:href="FigureRepositoryJPAImpl.html" xlink:show="new" xlink:title="FigureRepositoryJPAImpl.html" xlink:type="simple"><rect codeLine="3" fill="#FEFECE" filter="url(#f1r7mi6amtvdbe)" height="48" id="persistence.jpa.JPAImpl.FigureRepositoryJPAImpl" style="stroke: #A80036; stroke-width: 1.5;" width="169" x="717.5" y="305.602"/><ellipse cx="732.5" cy="321.602" fill="#ADD1B2" rx="11" ry="11" style="stroke: #A80036; stroke-width: 1.0;"/><path d="M735.4688,327.2426 Q734.8906,327.5395 734.25,327.6801 Q733.6094,327.8364 732.9063,327.8364 Q730.4063,327.8364 729.0781,326.1957 Q727.7656,324.5395 727.7656,321.4145 Q727.7656,318.2895 729.0781,316.6332 Q730.4063,314.977 732.9063,314.977 Q733.6094,314.977 734.25,315.1332 Q734.9063,315.2895 735.4688,315.5864 L735.4688,318.3051 Q734.8438,317.727 734.25,317.4614 Q733.6563,317.1801 733.0313,317.1801 Q731.6875,317.1801 731,318.2582 Q730.3125,319.3207 730.3125,321.4145 Q730.3125,323.5082 731,324.5864 Q731.6875,325.6489 733.0313,325.6489 Q733.6563,325.6489 734.25,325.3832 Q734.8438,325.102 735.4688,324.5239 L735.4688,327.2426 Z "/><text fill="#000000" font-family="sans-serif" font-size="12" lengthAdjust="spacingAndGlyphs" textLength="137" x="746.5" y="326.258">FigureRepositoryJPAImpl</text><line style="stroke: #A80036; stroke-width: 1.5;" x1="718.5" x2="885.5" y1="337.602" y2="337.602"/><line style="stroke: #A80036; stroke-width: 1.5;" x1="718.5" x2="885.5" y1="345.602" y2="345.602"/></a><!--MD5=[7a9d2e4465df70da02f23bd770ccc6ee]
class persistence.jpa.JPAImpl.AuthenticationRepositoryJPAImpl--><a href="AuthenticationRepositoryJPAImpl.html" target="_top" title="AuthenticationRepositoryJPAImpl.html" xlink:actuate="onRequest" xlink:href="AuthenticationRepositoryJPAImpl.html" xlink:show="new" xlink:title="AuthenticationRepositoryJPAImpl.html" xlink:type="simple"><rect codeLine="5" fill="#FEFECE" filter="url(#f1r7mi6amtvdbe)" height="197.8189" id="persistence.jpa.JPAImpl.AuthenticationRepositoryJPAImpl" style="stroke: #A80036; stroke-width: 1.5;" width="215" x="124.5" y="230.602"/><ellipse cx="139.5" cy="246.602" fill="#ADD1B2" rx="11" ry="11" style="stroke: #A80036; stroke-width: 1.0;"/><path d="M142.4688,252.2426 Q141.8906,252.5395 141.25,252.6801 Q140.6094,252.8364 139.9063,252.8364 Q137.4063,252.8364 136.0781,251.1957 Q134.7656,249.5395 134.7656,246.4145 Q134.7656,243.2895 136.0781,241.6332 Q137.4063,239.977 139.9063,239.977 Q140.6094,239.977 141.25,240.1332 Q141.9063,240.2895 142.4688,240.5864 L142.4688,243.3051 Q141.8438,242.727 141.25,242.4614 Q140.6563,242.1801 140.0313,242.1801 Q138.6875,242.1801 138,243.2582 Q137.3125,244.3207 137.3125,246.4145 Q137.3125,248.5082 138,249.5864 Q138.6875,250.6489 140.0313,250.6489 Q140.6563,250.6489 141.25,250.3832 Q141.8438,250.102 142.4688,249.5239 L142.4688,252.2426 Z "/><text fill="#000000" font-family="sans-serif" font-size="12" lengthAdjust="spacingAndGlyphs" textLength="183" x="153.5" y="251.258">AuthenticationRepositoryJPAImpl</text><line style="stroke: #A80036; stroke-width: 1.5;" x1="125.5" x2="338.5" y1="262.602" y2="262.602"/><rect fill="none" height="6" style="stroke: #C82930; stroke-width: 1.0;" width="6" x="132.5" y="270.602"/><text fill="#000000" font-family="sans-serif" font-size="11" lengthAdjust="spacingAndGlyphs" textLength="91" x="144.5" y="278.3609">loggedUser: User</text><rect fill="none" height="6" style="stroke: #C82930; stroke-width: 1.0;" width="6" x="132.5" y="285.5839"/><text fill="#000000" font-family="sans-serif" font-size="11" lengthAdjust="spacingAndGlyphs" textLength="188" x="144.5" y="293.3428">roleRepository: UserRoleRepository</text><line style="stroke: #A80036; stroke-width: 1.5;" x1="125.5" x2="338.5" y1="300.5658" y2="300.5658"/><ellipse cx="135.5" cy="311.5658" fill="#84BE84" rx="3" ry="3" style="stroke: #038048; stroke-width: 1.0;"/><text fill="#000000" font-family="sans-serif" font-size="11" lengthAdjust="spacingAndGlyphs" textLength="169" x="144.5" y="316.3247">doLogin(String, String): boolean</text><ellipse cx="135.5" cy="326.5476" fill="#84BE84" rx="3" ry="3" style="stroke: #038048; stroke-width: 1.0;"/><text fill="#000000" font-family="sans-serif" font-size="11" lengthAdjust="spacingAndGlyphs" textLength="87" x="144.5" y="331.3066">doLogout(): void</text><ellipse cx="135.5" cy="341.5295" fill="#84BE84" rx="3" ry="3" style="stroke: #038048; stroke-width: 1.0;"/><text fill="#000000" font-family="sans-serif" font-size="11" lengthAdjust="spacingAndGlyphs" textLength="114" x="144.5" y="346.2884">isLoggedIn(): boolean</text><ellipse cx="135.5" cy="356.5114" fill="#84BE84" rx="3" ry="3" style="stroke: #038048; stroke-width: 1.0;"/><text fill="#000000" font-family="sans-serif" font-size="11" lengthAdjust="spacingAndGlyphs" textLength="181" x="144.5" y="361.2703">getUserRoles(): List&lt;UserRoleDTO&gt;</text><ellipse cx="135.5" cy="371.4933" fill="#84BE84" rx="3" ry="3" style="stroke: #038048; stroke-width: 1.0;"/><text fill="#000000" font-family="sans-serif" font-size="11" lengthAdjust="spacingAndGlyphs" textLength="118" x="144.5" y="376.2522">getCurrentUser(): User</text><ellipse cx="135.5" cy="386.4752" fill="#84BE84" rx="3" ry="3" style="stroke: #038048; stroke-width: 1.0;"/><text fill="#000000" font-family="sans-serif" font-size="11" lengthAdjust="spacingAndGlyphs" textLength="106" x="144.5" y="391.2341">saveUser(User): void</text><ellipse cx="135.5" cy="401.4571" fill="#84BE84" rx="3" ry="3" style="stroke: #038048; stroke-width: 1.0;"/><text fill="#000000" font-family="sans-serif" font-size="11" lengthAdjust="spacingAndGlyphs" textLength="128" x="144.5" y="406.216">saveRole(UserRole): void</text><ellipse cx="135.5" cy="416.439" fill="#84BE84" rx="3" ry="3" style="stroke: #038048; stroke-width: 1.0;"/><text fill="#000000" font-family="sans-serif" font-size="11" lengthAdjust="spacingAndGlyphs" textLength="147" x="144.5" y="421.1979">getAllRoles(): List&lt;UserRole&gt;</text></a><!--MD5=[0967c7d1a322dddab9675eac1bd644db]
class persistence.jpa.JPAImpl.ShowRequestJPAImpl--><a href="ShowRequestJPAImpl.html" target="_top" title="ShowRequestJPAImpl.html" xlink:actuate="onRequest" xlink:href="ShowRequestJPAImpl.html" xlink:show="new" xlink:title="ShowRequestJPAImpl.html" xlink:type="simple"><rect codeLine="18" fill="#FEFECE" filter="url(#f1r7mi6amtvdbe)" height="48" id="persistence.jpa.JPAImpl.ShowRequestJPAImpl" style="stroke: #A80036; stroke-width: 1.5;" width="150" x="533" y="305.602"/><ellipse cx="548" cy="321.602" fill="#ADD1B2" rx="11" ry="11" style="stroke: #A80036; stroke-width: 1.0;"/><path d="M550.9688,327.2426 Q550.3906,327.5395 549.75,327.6801 Q549.1094,327.8364 548.4063,327.8364 Q545.9063,327.8364 544.5781,326.1957 Q543.2656,324.5395 543.2656,321.4145 Q543.2656,318.2895 544.5781,316.6332 Q545.9063,314.977 548.4063,314.977 Q549.1094,314.977 549.75,315.1332 Q550.4063,315.2895 550.9688,315.5864 L550.9688,318.3051 Q550.3438,317.727 549.75,317.4614 Q549.1563,317.1801 548.5313,317.1801 Q547.1875,317.1801 546.5,318.2582 Q545.8125,319.3207 545.8125,321.4145 Q545.8125,323.5082 546.5,324.5864 Q547.1875,325.6489 548.5313,325.6489 Q549.1563,325.6489 549.75,325.3832 Q550.3438,325.102 550.9688,324.5239 L550.9688,327.2426 Z "/><text fill="#000000" font-family="sans-serif" font-size="12" lengthAdjust="spacingAndGlyphs" textLength="118" x="562" y="326.258">ShowRequestJPAImpl</text><line style="stroke: #A80036; stroke-width: 1.5;" x1="534" x2="682" y1="337.602" y2="337.602"/><line style="stroke: #A80036; stroke-width: 1.5;" x1="534" x2="682" y1="345.602" y2="345.602"/></a><!--MD5=[15c4d1c552856491070f614f1b3f6856]
class persistence.jpa.JPAImpl.exampleJPAImpl--><a href="exampleJPAImpl.html" target="_top" title="exampleJPAImpl.html" xlink:actuate="onRequest" xlink:href="exampleJPAImpl.html" xlink:show="new" xlink:title="exampleJPAImpl.html" xlink:type="simple"><rect codeLine="20" fill="#FEFECE" filter="url(#f1r7mi6amtvdbe)" height="48" id="persistence.jpa.JPAImpl.exampleJPAImpl" style="stroke: #A80036; stroke-width: 1.5;" width="123" x="374.5" y="305.602"/><ellipse cx="389.5" cy="321.602" fill="#ADD1B2" rx="11" ry="11" style="stroke: #A80036; stroke-width: 1.0;"/><path d="M392.4688,327.2426 Q391.8906,327.5395 391.25,327.6801 Q390.6094,327.8364 389.9063,327.8364 Q387.4063,327.8364 386.0781,326.1957 Q384.7656,324.5395 384.7656,321.4145 Q384.7656,318.2895 386.0781,316.6332 Q387.4063,314.977 389.9063,314.977 Q390.6094,314.977 391.25,315.1332 Q391.9063,315.2895 392.4688,315.5864 L392.4688,318.3051 Q391.8438,317.727 391.25,317.4614 Q390.6563,317.1801 390.0313,317.1801 Q388.6875,317.1801 388,318.2582 Q387.3125,319.3207 387.3125,321.4145 Q387.3125,323.5082 388,324.5864 Q388.6875,325.6489 390.0313,325.6489 Q390.6563,325.6489 391.25,325.3832 Q391.8438,325.102 392.4688,324.5239 L392.4688,327.2426 Z "/><text fill="#000000" font-family="sans-serif" font-size="12" lengthAdjust="spacingAndGlyphs" textLength="91" x="403.5" y="326.258">exampleJPAImpl</text><line style="stroke: #A80036; stroke-width: 1.5;" x1="375.5" x2="496.5" y1="337.602" y2="337.602"/><line style="stroke: #A80036; stroke-width: 1.5;" x1="375.5" x2="496.5" y1="345.602" y2="345.602"/></a><!--MD5=[0464228a65d6670e76009427e3c646e5]
class persistence.jpa.JpaBaseRepository--><a href="../JpaBaseRepository.html" target="_top" title="../JpaBaseRepository.html" xlink:actuate="onRequest" xlink:href="../JpaBaseRepository.html" xlink:show="new" xlink:title="../JpaBaseRepository.html" xlink:type="simple"><rect codeLine="31" fill="#FEFECE" filter="url(#f1r7mi6amtvdbe)" height="92.9457" id="persistence.jpa.JpaBaseRepository" style="stroke: #A80036; stroke-width: 1.5;" width="267" x="257.5" y="52.102"/><ellipse cx="272.5" cy="68.102" fill="#A9DCDF" rx="11" ry="11" style="stroke: #A80036; stroke-width: 1.0;"/><path d="M272.6094,63.4457 L271.4531,68.5239 L273.7813,68.5239 L272.6094,63.4457 Z M271.125,61.2114 L274.1094,61.2114 L277.4688,73.602 L275.0156,73.602 L274.25,70.5395 L270.9688,70.5395 L270.2188,73.602 L267.7813,73.602 L271.125,61.2114 Z "/><text fill="#000000" font-family="sans-serif" font-size="12" font-style="italic" lengthAdjust="spacingAndGlyphs" textLength="99" x="286.5" y="72.758">JpaBaseRepository</text><rect fill="#FFFFFF" height="18.3441" style="stroke: #000000; stroke-width: 1.0; stroke-dasharray: 2.0,2.0;" width="134" x="393.5" y="49.102"/><text fill="#000000" font-family="sans-serif" font-size="12" font-style="italic" lengthAdjust="spacingAndGlyphs" textLength="132" x="394.5" y="62.9301">T, ID extends Serializable</text><line style="stroke: #A80036; stroke-width: 1.5;" x1="258.5" x2="523.5" y1="84.102" y2="84.102"/><rect fill="none" height="6" style="stroke: #C82930; stroke-width: 1.0;" width="6" x="265.5" y="92.102"/><text fill="#000000" font-family="sans-serif" font-size="11" lengthAdjust="spacingAndGlyphs" text-decoration="underline" textLength="177" x="277.5" y="99.8609">emFactory: EntityManagerFactory</text><rect fill="none" height="6" style="stroke: #C82930; stroke-width: 1.0;" width="6" x="265.5" y="107.0839"/><text fill="#000000" font-family="sans-serif" font-size="11" lengthAdjust="spacingAndGlyphs" textLength="106" x="277.5" y="114.8428">entityClass: Class&lt;T&gt;</text><rect fill="none" height="6" style="stroke: #C82930; stroke-width: 1.0;" width="6" x="265.5" y="122.0658"/><text fill="#000000" font-family="sans-serif" font-size="11" lengthAdjust="spacingAndGlyphs" textLength="165" x="277.5" y="129.8247">_entityManager: EntityManager</text><line style="stroke: #A80036; stroke-width: 1.5;" x1="258.5" x2="523.5" y1="137.0476" y2="137.0476"/></a><!--MD5=[3587d074d053e9a6442b88bf356f2ae1]
class persistence.jpa.AuthenticationRepository--><a href="../AuthenticationRepository.html" target="_top" title="../AuthenticationRepository.html" xlink:actuate="onRequest" xlink:href="../AuthenticationRepository.html" xlink:show="new" xlink:title="../AuthenticationRepository.html" xlink:type="simple"><rect codeLine="36" fill="#FEFECE" filter="url(#f1r7mi6amtvdbe)" height="107.9276" id="persistence.jpa.AuthenticationRepository" style="stroke: #A80036; stroke-width: 1.5;" width="190" x="32" y="44.602"/><ellipse cx="57.35" cy="60.602" fill="#B4A7E5" rx="11" ry="11" style="stroke: #A80036; stroke-width: 1.0;"/><path d="M53.2719,56.3676 L53.2719,54.2114 L60.6625,54.2114 L60.6625,56.3676 L58.1938,56.3676 L58.1938,64.4457 L60.6625,64.4457 L60.6625,66.602 L53.2719,66.602 L53.2719,64.4457 L55.7406,64.4457 L55.7406,56.3676 L53.2719,56.3676 Z "/><text fill="#000000" font-family="sans-serif" font-size="12" font-style="italic" lengthAdjust="spacingAndGlyphs" textLength="135" x="73.65" y="65.258">AuthenticationRepository</text><line style="stroke: #A80036; stroke-width: 1.5;" x1="33" x2="221" y1="76.602" y2="76.602"/><line style="stroke: #A80036; stroke-width: 1.5;" x1="33" x2="221" y1="84.602" y2="84.602"/><ellipse cx="43" cy="95.602" fill="#84BE84" rx="3" ry="3" style="stroke: #038048; stroke-width: 1.0;"/><text fill="#000000" font-family="sans-serif" font-size="11" font-style="italic" lengthAdjust="spacingAndGlyphs" textLength="152" x="52" y="100.3609">doLogin(String, String): boolean</text><ellipse cx="43" cy="110.5839" fill="#84BE84" rx="3" ry="3" style="stroke: #038048; stroke-width: 1.0;"/><text fill="#000000" font-family="sans-serif" font-size="11" font-style="italic" lengthAdjust="spacingAndGlyphs" textLength="77" x="52" y="115.3428">doLogout(): void</text><ellipse cx="43" cy="125.5658" fill="#84BE84" rx="3" ry="3" style="stroke: #038048; stroke-width: 1.0;"/><text fill="#000000" font-family="sans-serif" font-size="11" font-style="italic" lengthAdjust="spacingAndGlyphs" textLength="102" x="52" y="130.3247">isLoggedIn(): boolean</text><ellipse cx="43" cy="140.5476" fill="#84BE84" rx="3" ry="3" style="stroke: #038048; stroke-width: 1.0;"/><text fill="#000000" font-family="sans-serif" font-size="11" font-style="italic" lengthAdjust="spacingAndGlyphs" textLength="164" x="52" y="145.3066">getUserRoles(): List&lt;UserRoleDTO&gt;</text></a><!--MD5=[abdfb4f157874ee149227debb82cee43]
class persistence.interfaces.ShowRequestRepository--><a href="../../interfaces/ShowRequestRepository.html" target="_top" title="../../interfaces/ShowRequestRepository.html" xlink:actuate="onRequest" xlink:href="../../interfaces/ShowRequestRepository.html" xlink:show="new" xlink:title="../../interfaces/ShowRequestRepository.html" xlink:type="simple"><rect codeLine="45" fill="#FEFECE" filter="url(#f1r7mi6amtvdbe)" height="62.9819" id="persistence.interfaces.ShowRequestRepository" style="stroke: #A80036; stroke-width: 1.5;" width="170" x="762" y="67.102"/><ellipse cx="777" cy="83.102" fill="#B4A7E5" rx="11" ry="11" style="stroke: #A80036; stroke-width: 1.0;"/><path d="M772.9219,78.8676 L772.9219,76.7114 L780.3125,76.7114 L780.3125,78.8676 L777.8438,78.8676 L777.8438,86.9457 L780.3125,86.9457 L780.3125,89.102 L772.9219,89.102 L772.9219,86.9457 L775.3906,86.9457 L775.3906,78.8676 L772.9219,78.8676 Z "/><text fill="#000000" font-family="sans-serif" font-size="12" font-style="italic" lengthAdjust="spacingAndGlyphs" textLength="128" x="791" y="87.758">ShowRequestRepository</text><rect fill="#FFFFFF" height="18.3441" style="stroke: #000000; stroke-width: 1.0; stroke-dasharray: 2.0,2.0;" width="8" x="927" y="64.102"/><text fill="#000000" font-family="sans-serif" font-size="12" font-style="italic" lengthAdjust="spacingAndGlyphs" textLength="6" x="928" y="77.9301">T</text><line style="stroke: #A80036; stroke-width: 1.5;" x1="763" x2="931" y1="99.102" y2="99.102"/><line style="stroke: #A80036; stroke-width: 1.5;" x1="763" x2="931" y1="107.102" y2="107.102"/><ellipse cx="773" cy="118.102" fill="#84BE84" rx="3" ry="3" style="stroke: #038048; stroke-width: 1.0;"/><text fill="#000000" font-family="sans-serif" font-size="11" font-style="italic" lengthAdjust="spacingAndGlyphs" textLength="42" x="782" y="122.8609">add(T): T</text></a><!--MD5=[24670e5a69043045d276c3a5d51cf1ed]
class persistence.interfaces.exampleRepository--><a href="../../interfaces/exampleRepository.html" target="_top" title="../../interfaces/exampleRepository.html" xlink:actuate="onRequest" xlink:href="../../interfaces/exampleRepository.html" xlink:show="new" xlink:title="../../interfaces/exampleRepository.html" xlink:type="simple"><rect codeLine="48" fill="#FEFECE" filter="url(#f1r7mi6amtvdbe)" height="62.9819" id="persistence.interfaces.exampleRepository" style="stroke: #A80036; stroke-width: 1.5;" width="145" x="581.5" y="67.102"/><ellipse cx="596.5" cy="83.102" fill="#B4A7E5" rx="11" ry="11" style="stroke: #A80036; stroke-width: 1.0;"/><path d="M592.4219,78.8676 L592.4219,76.7114 L599.8125,76.7114 L599.8125,78.8676 L597.3438,78.8676 L597.3438,86.9457 L599.8125,86.9457 L599.8125,89.102 L592.4219,89.102 L592.4219,86.9457 L594.8906,86.9457 L594.8906,78.8676 L592.4219,78.8676 Z "/><text fill="#000000" font-family="sans-serif" font-size="12" font-style="italic" lengthAdjust="spacingAndGlyphs" textLength="103" x="610.5" y="87.758">exampleRepository</text><rect fill="#FFFFFF" height="18.3441" style="stroke: #000000; stroke-width: 1.0; stroke-dasharray: 2.0,2.0;" width="8" x="721.5" y="64.102"/><text fill="#000000" font-family="sans-serif" font-size="12" font-style="italic" lengthAdjust="spacingAndGlyphs" textLength="6" x="722.5" y="77.9301">T</text><line style="stroke: #A80036; stroke-width: 1.5;" x1="582.5" x2="725.5" y1="99.102" y2="99.102"/><line style="stroke: #A80036; stroke-width: 1.5;" x1="582.5" x2="725.5" y1="107.102" y2="107.102"/><ellipse cx="592.5" cy="118.102" fill="#84BE84" rx="3" ry="3" style="stroke: #038048; stroke-width: 1.0;"/><text fill="#000000" font-family="sans-serif" font-size="11" font-style="italic" lengthAdjust="spacingAndGlyphs" textLength="42" x="601.5" y="122.8609">add(T): T</text></a><!--MD5=[2777d182ebfec54da267c8c2c9b610cd]
reverse link persistence.jpa.JpaBaseRepository to persistence.jpa.JPAImpl.AuthenticationRepositoryJPAImpl--><path codeLine="22" d="M347.9,161.682 C333.24,182.782 316.49,206.922 300.36,230.152 " fill="none" id="persistence.jpa.JpaBaseRepository-backto-persistence.jpa.JPAImpl.AuthenticationRepositoryJPAImpl" style="stroke: #A80036; stroke-width: 1.0;"/><polygon fill="none" points="342.24,157.552,359.4,145.122,353.74,165.542,342.24,157.552" style="stroke: #A80036; stroke-width: 1.0;"/><!--MD5=[df5b31443715def8aaea9399e7a9d549]
reverse link persistence.jpa.AuthenticationRepository to persistence.jpa.JPAImpl.AuthenticationRepositoryJPAImpl--><path codeLine="23" d="M159.8,171.152 C168.41,189.912 177.84,210.472 186.96,230.362 " fill="none" id="persistence.jpa.AuthenticationRepository-backto-persistence.jpa.JPAImpl.AuthenticationRepositoryJPAImpl" style="stroke: #A80036; stroke-width: 1.0; stroke-dasharray: 7.0,7.0;"/><polygon fill="none" points="153.33,173.812,151.35,152.712,166.05,167.982,153.33,173.812" style="stroke: #A80036; stroke-width: 1.0;"/><!--MD5=[81b65f948ee14a1bb9f6fd569d1a7176]
reverse link persistence.jpa.JpaBaseRepository to persistence.jpa.JPAImpl.ShowRequestJPAImpl--><path codeLine="24" d="M484.09,157.272 C495.05,165.802 505.65,174.982 515,184.602 C551.21,221.822 581.27,275.212 596.74,305.432 " fill="none" id="persistence.jpa.JpaBaseRepository-backto-persistence.jpa.JPAImpl.ShowRequestJPAImpl" style="stroke: #A80036; stroke-width: 1.0;"/><polygon fill="none" points="479.77,162.792,467.86,145.262,488.1,151.532,479.77,162.792" style="stroke: #A80036; stroke-width: 1.0;"/><!--MD5=[904ee4b8ccddf56701a8748f300b3479]
reverse link persistence.interfaces.ShowRequestRepository to persistence.jpa.JPAImpl.ShowRequestJPAImpl--><path codeLine="25" d="M798.58,143.012 C782.24,155.612 763.24,168.222 744,176.602 C725.78,184.542 716.5,173.522 700,184.602 C655.91,214.192 628.5,272.802 616,305.392 " fill="none" id="persistence.interfaces.ShowRequestRepository-backto-persistence.jpa.JPAImpl.ShowRequestJPAImpl" style="stroke: #A80036; stroke-width: 1.0; stroke-dasharray: 7.0,7.0;"/><polygon fill="none" points="794.3,137.462,814.24,130.312,803.11,148.342,794.3,137.462" style="stroke: #A80036; stroke-width: 1.0;"/><!--MD5=[bfdefd2752fecc827df420c82a61db0d]
reverse link persistence.jpa.JpaBaseRepository to persistence.jpa.JPAImpl.exampleJPAImpl--><path codeLine="26" d="M403.85,165.002 C413.11,212.122 425.06,272.932 431.47,305.532 " fill="none" id="persistence.jpa.JpaBaseRepository-backto-persistence.jpa.JPAImpl.exampleJPAImpl" style="stroke: #A80036; stroke-width: 1.0;"/><polygon fill="none" points="396.93,166.092,399.94,145.122,410.67,163.392,396.93,166.092" style="stroke: #A80036; stroke-width: 1.0;"/><!--MD5=[66f10993f8fc78dd84652c788f7725c8]
reverse link persistence.interfaces.exampleRepository to persistence.jpa.JPAImpl.exampleJPAImpl--><path codeLine="27" d="M598.66,141.982 C580.9,154.292 560.7,166.992 541,176.602 C530.52,181.722 525.02,177.202 516,184.602 C476.74,216.782 453.46,273.572 442.88,305.362 " fill="none" id="persistence.interfaces.exampleRepository-backto-persistence.jpa.JPAImpl.exampleJPAImpl" style="stroke: #A80036; stroke-width: 1.0; stroke-dasharray: 7.0,7.0;"/><polygon fill="none" points="594.84,136.112,615.18,130.182,602.98,147.502,594.84,136.112" style="stroke: #A80036; stroke-width: 1.0;"/><text fill="#888888" font-family="sans-serif" font-size="10" lengthAdjust="spacingAndGlyphs" textLength="188" x="382" y="461.292">UMLDoclet 2.0.12, PlantUML 1.2020.16</text><!--MD5=[a2505f02b24571094c892f4d776945aa]
@startuml
    namespace persistence.jpa.JPAImpl {

        class FigureRepositoryJPAImpl [[FigureRepositoryJPAImpl.html]]

        class AuthenticationRepositoryJPAImpl [[AuthenticationRepositoryJPAImpl.html]] {
            -loggedUser: User
            -roleRepository: UserRoleRepository
            +doLogin(String, String): boolean
            +doLogout(): void
            +isLoggedIn(): boolean
            +getUserRoles(): List<UserRoleDTO>
            +getCurrentUser(): User
            +saveUser(User): void
            +saveRole(UserRole): void
            +getAllRoles(): List<UserRole>
        }

        class ShowRequestJPAImpl [[ShowRequestJPAImpl.html]]

        class exampleJPAImpl [[exampleJPAImpl.html]]

        persistence.jpa.JpaBaseRepository <|- - AuthenticationRepositoryJPAImpl
        persistence.jpa.AuthenticationRepository <|.. AuthenticationRepositoryJPAImpl
        persistence.jpa.JpaBaseRepository <|- - ShowRequestJPAImpl
        persistence.interfaces.ShowRequestRepository <|.. ShowRequestJPAImpl
        persistence.jpa.JpaBaseRepository <|- - exampleJPAImpl
        persistence.interfaces.exampleRepository <|.. exampleJPAImpl
    }

    namespace persistence.jpa {
        abstract class JpaBaseRepository<T, ID extends Serializable> [[../JpaBaseRepository.html]] {
            {static} -emFactory: EntityManagerFactory
            -entityClass: Class<T>
            -_entityManager: EntityManager
        }
        interface AuthenticationRepository [[../AuthenticationRepository.html]] {
            {abstract} +doLogin(String, String): boolean
            {abstract} +doLogout(): void
            {abstract} +isLoggedIn(): boolean
            {abstract} +getUserRoles(): List<UserRoleDTO>
        }
    }

    namespace persistence.interfaces {
        interface ShowRequestRepository<T> [[../../interfaces/ShowRequestRepository.html]] {
            {abstract} +add(T): T
        }
        interface exampleRepository<T> [[../../interfaces/exampleRepository.html]] {
            {abstract} +add(T): T
        }
    }

    center footer UMLDoclet 2.0.12, PlantUML 1.2020.16
@enduml

PlantUML version 1.2020.16(Sun Aug 23 21:20:43 WEST 2020)
(APACHE source distribution)
Java Runtime: Java(TM) SE Runtime Environment
JVM: Java HotSpot(TM) 64-Bit Server VM
Default Encoding: UTF-8
Language: en
Country: US
--></g></svg>