<?xml version="1.0" encoding="UTF-8" standalone="no"?><svg xmlns="http://www.w3.org/2000/svg" xmlns:xlink="http://www.w3.org/1999/xlink" contentScriptType="application/ecmascript" contentStyleType="text/css" height="438px" preserveAspectRatio="none" style="width:1045px;height:438px;" version="1.1" viewBox="0 0 1045 438" width="1045px" zoomAndPan="magnify"><defs><filter height="300%" id="fq22nrsa3vr12" width="300%" x="-1" y="-1"><feGaussianBlur result="blurOut" stdDeviation="2.0"/><feColorMatrix in="blurOut" result="blurOut2" type="matrix" values="0 0 0 0 0 0 0 0 0 0 0 0 0 0 0 0 0 0 .4 0"/><feOffset dx="4.0" dy="4.0" in="blurOut2" result="blurOut3"/><feBlend in="SourceGraphic" in2="blurOut3" mode="normal"/></filter></defs><g><!--MD5=[2f7b34593d5a6290b20af5f45b84275f]
cluster persistence.jpa.JPAImpl--><polygon fill="#FFFFFF" filter="url(#fq22nrsa3vr12)" points="150,180.82,324,180.82,331,203.3083,957,203.3083,957,409.37,150,409.37,150,180.82" style="stroke: #000000; stroke-width: 1.5;"/><line style="stroke: #000000; stroke-width: 1.5;" x1="150" x2="331" y1="203.3083" y2="203.3083"/><text fill="#000000" font-family="sans-serif" font-size="14" font-weight="bold" lengthAdjust="spacingAndGlyphs" textLength="168" x="154" y="196.3552">persistence.jpa.JPAImpl</text><!--MD5=[384ab4695d5a81d5c76411c35f99ff61]
cluster persistence.jpa--><polygon fill="#FFFFFF" filter="url(#fq22nrsa3vr12)" points="16,6,129,6,136,28.4883,595,28.4883,595,156.82,16,156.82,16,6" style="stroke: #000000; stroke-width: 1.5;"/><line style="stroke: #000000; stroke-width: 1.5;" x1="16" x2="136" y1="28.4883" y2="28.4883"/><text fill="#000000" font-family="sans-serif" font-size="14" font-weight="bold" lengthAdjust="spacingAndGlyphs" textLength="107" x="20" y="21.5352">persistence.jpa</text><!--MD5=[2080742880720af87d67468ca1701f80]
cluster persistence.interfaces--><polygon fill="#FFFFFF" filter="url(#fq22nrsa3vr12)" points="619,25.43,781,25.43,788,47.9183,1023,47.9183,1023,137.39,619,137.39,619,25.43" style="stroke: #000000; stroke-width: 1.5;"/><line style="stroke: #000000; stroke-width: 1.5;" x1="619" x2="788" y1="47.9183" y2="47.9183"/><text fill="#000000" font-family="sans-serif" font-size="14" font-weight="bold" lengthAdjust="spacingAndGlyphs" textLength="156" x="623" y="40.9652">persistence.interfaces</text><!--MD5=[15c4d1c552856491070f614f1b3f6856]
class persistence.jpa.JPAImpl.exampleJPAImpl--><a href="exampleJPAImpl.html" target="_top" title="exampleJPAImpl.html" xlink:actuate="onRequest" xlink:href="exampleJPAImpl.html" xlink:show="new" xlink:title="exampleJPAImpl.html" xlink:type="simple"><rect codeLine="3" fill="#FEFECE" filter="url(#fq22nrsa3vr12)" height="48" id="persistence.jpa.JPAImpl.exampleJPAImpl" style="stroke: #A80036; stroke-width: 1.5;" width="126" x="421" y="280.59"/><ellipse cx="436" cy="296.59" fill="#ADD1B2" rx="11" ry="11" style="stroke: #A80036; stroke-width: 1.0;"/><path d="M438.4731,302.7331 Q437.8921,303.0319 437.2529,303.1813 Q436.6138,303.3307 435.9082,303.3307 Q433.4014,303.3307 432.0815,301.6789 Q430.7617,300.027 430.7617,296.9059 Q430.7617,293.7765 432.0815,292.1247 Q433.4014,290.4728 435.9082,290.4728 Q436.6138,290.4728 437.2612,290.6222 Q437.9087,290.7716 438.4731,291.0705 L438.4731,293.7931 Q437.8423,293.2121 437.2488,292.9423 Q436.6553,292.6725 436.0244,292.6725 Q434.6797,292.6725 433.9949,293.7392 Q433.3101,294.8058 433.3101,296.9059 Q433.3101,298.9977 433.9949,300.0644 Q434.6797,301.131 436.0244,301.131 Q436.6553,301.131 437.2488,300.8612 Q437.8423,300.5915 438.4731,300.0104 Z "/><text fill="#000000" font-family="sans-serif" font-size="12" lengthAdjust="spacingAndGlyphs" textLength="94" x="450" y="301.1252">exampleJPAImpl</text><line style="stroke: #A80036; stroke-width: 1.5;" x1="422" x2="546" y1="312.59" y2="312.59"/><line style="stroke: #A80036; stroke-width: 1.5;" x1="422" x2="546" y1="320.59" y2="320.59"/></a><!--MD5=[0967c7d1a322dddab9675eac1bd644db]
class persistence.jpa.JPAImpl.ShowRequestJPAImpl--><a href="ShowRequestJPAImpl.html" target="_top" title="ShowRequestJPAImpl.html" xlink:actuate="onRequest" xlink:href="ShowRequestJPAImpl.html" xlink:show="new" xlink:title="ShowRequestJPAImpl.html" xlink:type="simple"><rect codeLine="5" fill="#FEFECE" filter="url(#fq22nrsa3vr12)" height="48" id="persistence.jpa.JPAImpl.ShowRequestJPAImpl" style="stroke: #A80036; stroke-width: 1.5;" width="152" x="789" y="280.59"/><ellipse cx="804" cy="296.59" fill="#ADD1B2" rx="11" ry="11" style="stroke: #A80036; stroke-width: 1.0;"/><path d="M806.4731,302.7331 Q805.8921,303.0319 805.2529,303.1813 Q804.6138,303.3307 803.9082,303.3307 Q801.4014,303.3307 800.0815,301.6789 Q798.7617,300.027 798.7617,296.9059 Q798.7617,293.7765 800.0815,292.1247 Q801.4014,290.4728 803.9082,290.4728 Q804.6138,290.4728 805.2612,290.6222 Q805.9087,290.7716 806.4731,291.0705 L806.4731,293.7931 Q805.8423,293.2121 805.2488,292.9423 Q804.6553,292.6725 804.0244,292.6725 Q802.6797,292.6725 801.9949,293.7392 Q801.3101,294.8058 801.3101,296.9059 Q801.3101,298.9977 801.9949,300.0644 Q802.6797,301.131 804.0244,301.131 Q804.6553,301.131 805.2488,300.8612 Q805.8423,300.5915 806.4731,300.0104 Z "/><text fill="#000000" font-family="sans-serif" font-size="12" lengthAdjust="spacingAndGlyphs" textLength="120" x="818" y="301.1252">ShowRequestJPAImpl</text><line style="stroke: #A80036; stroke-width: 1.5;" x1="790" x2="940" y1="312.59" y2="312.59"/><line style="stroke: #A80036; stroke-width: 1.5;" x1="790" x2="940" y1="320.59" y2="320.59"/></a><!--MD5=[9c4f431e030afd39305b49d69c83c708]
class persistence.jpa.JPAImpl.FigureRepositoryJPAImpl--><a href="FigureRepositoryJPAImpl.html" target="_top" title="FigureRepositoryJPAImpl.html" xlink:actuate="onRequest" xlink:href="FigureRepositoryJPAImpl.html" xlink:show="new" xlink:title="FigureRepositoryJPAImpl.html" xlink:type="simple"><rect codeLine="7" fill="#FEFECE" filter="url(#fq22nrsa3vr12)" height="48" id="persistence.jpa.JPAImpl.FigureRepositoryJPAImpl" style="stroke: #A80036; stroke-width: 1.5;" width="172" x="582" y="280.59"/><ellipse cx="597" cy="296.59" fill="#ADD1B2" rx="11" ry="11" style="stroke: #A80036; stroke-width: 1.0;"/><path d="M599.4731,302.7331 Q598.8921,303.0319 598.2529,303.1813 Q597.6138,303.3307 596.9082,303.3307 Q594.4014,303.3307 593.0815,301.6789 Q591.7617,300.027 591.7617,296.9059 Q591.7617,293.7765 593.0815,292.1247 Q594.4014,290.4728 596.9082,290.4728 Q597.6138,290.4728 598.2612,290.6222 Q598.9087,290.7716 599.4731,291.0705 L599.4731,293.7931 Q598.8423,293.2121 598.2488,292.9423 Q597.6553,292.6725 597.0244,292.6725 Q595.6797,292.6725 594.9949,293.7392 Q594.3101,294.8058 594.3101,296.9059 Q594.3101,298.9977 594.9949,300.0644 Q595.6797,301.131 597.0244,301.131 Q597.6553,301.131 598.2488,300.8612 Q598.8423,300.5915 599.4731,300.0104 Z "/><text fill="#000000" font-family="sans-serif" font-size="12" lengthAdjust="spacingAndGlyphs" textLength="140" x="611" y="301.1252">FigureRepositoryJPAImpl</text><line style="stroke: #A80036; stroke-width: 1.5;" x1="583" x2="753" y1="312.59" y2="312.59"/><line style="stroke: #A80036; stroke-width: 1.5;" x1="583" x2="753" y1="320.59" y2="320.59"/></a><!--MD5=[7a9d2e4465df70da02f23bd770ccc6ee]
class persistence.jpa.JPAImpl.AuthenticationRepositoryJPAImpl--><a href="AuthenticationRepositoryJPAImpl.html" target="_top" title="AuthenticationRepositoryJPAImpl.html" xlink:actuate="onRequest" xlink:href="AuthenticationRepositoryJPAImpl.html" xlink:show="new" xlink:title="AuthenticationRepositoryJPAImpl.html" xlink:type="simple"><rect codeLine="9" fill="#FEFECE" filter="url(#fq22nrsa3vr12)" height="177.5508" id="persistence.jpa.JPAImpl.AuthenticationRepositoryJPAImpl" style="stroke: #A80036; stroke-width: 1.5;" width="220" x="166" y="215.82"/><ellipse cx="181.9" cy="231.82" fill="#ADD1B2" rx="11" ry="11" style="stroke: #A80036; stroke-width: 1.0;"/><path d="M184.3731,237.9631 Q183.7921,238.2619 183.1529,238.4113 Q182.5138,238.5607 181.8082,238.5607 Q179.3014,238.5607 177.9815,236.9089 Q176.6617,235.257 176.6617,232.1359 Q176.6617,229.0065 177.9815,227.3547 Q179.3014,225.7028 181.8082,225.7028 Q182.5138,225.7028 183.1612,225.8522 Q183.8087,226.0016 184.3731,226.3005 L184.3731,229.0231 Q183.7423,228.4421 183.1488,228.1723 Q182.5553,227.9025 181.9244,227.9025 Q180.5797,227.9025 179.8949,228.9692 Q179.2101,230.0358 179.2101,232.1359 Q179.2101,234.2277 179.8949,235.2944 Q180.5797,236.361 181.9244,236.361 Q182.5553,236.361 183.1488,236.0912 Q183.7423,235.8215 184.3731,235.2404 Z "/><text fill="#000000" font-family="sans-serif" font-size="12" lengthAdjust="spacingAndGlyphs" textLength="186" x="196.1" y="236.3552">AuthenticationRepositoryJPAImpl</text><line style="stroke: #A80036; stroke-width: 1.5;" x1="167" x2="385" y1="247.82" y2="247.82"/><rect fill="none" height="6" style="stroke: #C82930; stroke-width: 1.0;" width="6" x="174" y="255.82"/><text fill="#000000" font-family="sans-serif" font-size="11" lengthAdjust="spacingAndGlyphs" textLength="93" x="186" y="262.4548">loggedUser: User</text><rect fill="none" height="6" style="stroke: #C82930; stroke-width: 1.0;" width="6" x="174" y="268.7751"/><text fill="#000000" font-family="sans-serif" font-size="11" lengthAdjust="spacingAndGlyphs" textLength="191" x="186" y="275.4098">roleRepository: UserRoleRepository</text><line style="stroke: #A80036; stroke-width: 1.5;" x1="167" x2="385" y1="281.7302" y2="281.7302"/><ellipse cx="177" cy="292.7302" fill="#84BE84" rx="3" ry="3" style="stroke: #038048; stroke-width: 1.0;"/><text fill="#000000" font-family="sans-serif" font-size="11" lengthAdjust="spacingAndGlyphs" textLength="171" x="186" y="296.3649">doLogin(String, String): boolean</text><ellipse cx="177" cy="305.6852" fill="#84BE84" rx="3" ry="3" style="stroke: #038048; stroke-width: 1.0;"/><text fill="#000000" font-family="sans-serif" font-size="11" lengthAdjust="spacingAndGlyphs" textLength="89" x="186" y="309.32">doLogout(): void</text><ellipse cx="177" cy="318.6403" fill="#84BE84" rx="3" ry="3" style="stroke: #038048; stroke-width: 1.0;"/><text fill="#000000" font-family="sans-serif" font-size="11" lengthAdjust="spacingAndGlyphs" textLength="116" x="186" y="322.2751">isLoggedIn(): boolean</text><ellipse cx="177" cy="331.5954" fill="#84BE84" rx="3" ry="3" style="stroke: #038048; stroke-width: 1.0;"/><text fill="#000000" font-family="sans-serif" font-size="11" lengthAdjust="spacingAndGlyphs" textLength="194" x="186" y="335.2302">getUserRoles(): List&lt;UserRoleDTO&gt;</text><ellipse cx="177" cy="344.5505" fill="#84BE84" rx="3" ry="3" style="stroke: #038048; stroke-width: 1.0;"/><text fill="#000000" font-family="sans-serif" font-size="11" lengthAdjust="spacingAndGlyphs" textLength="123" x="186" y="348.1852">getCurrentUser(): User</text><ellipse cx="177" cy="357.5055" fill="#84BE84" rx="3" ry="3" style="stroke: #038048; stroke-width: 1.0;"/><text fill="#000000" font-family="sans-serif" font-size="11" lengthAdjust="spacingAndGlyphs" textLength="111" x="186" y="361.1403">saveUser(User): void</text><ellipse cx="177" cy="370.4606" fill="#84BE84" rx="3" ry="3" style="stroke: #038048; stroke-width: 1.0;"/><text fill="#000000" font-family="sans-serif" font-size="11" lengthAdjust="spacingAndGlyphs" textLength="132" x="186" y="374.0954">saveRole(UserRole): void</text><ellipse cx="177" cy="383.4157" fill="#84BE84" rx="3" ry="3" style="stroke: #038048; stroke-width: 1.0;"/><text fill="#000000" font-family="sans-serif" font-size="11" lengthAdjust="spacingAndGlyphs" textLength="159" x="186" y="387.0505">getAllRoles(): List&lt;UserRole&gt;</text></a><!--MD5=[0464228a65d6670e76009427e3c646e5]
class persistence.jpa.JpaBaseRepository--><a href="../JpaBaseRepository.html" target="_top" title="../JpaBaseRepository.html" xlink:actuate="onRequest" xlink:href="../JpaBaseRepository.html" xlink:show="new" xlink:title="../JpaBaseRepository.html" xlink:type="simple"><rect codeLine="31" fill="#FEFECE" filter="url(#fq22nrsa3vr12)" height="86.8652" id="persistence.jpa.JpaBaseRepository" style="stroke: #A80036; stroke-width: 1.5;" width="291" x="287.5" y="47.48"/><ellipse cx="302.5" cy="63.48" fill="#A9DCDF" rx="11" ry="11" style="stroke: #A80036; stroke-width: 1.0;"/><path d="M302.3633,58.8281 L301.2095,63.8999 L303.5254,63.8999 Z M300.8691,56.5869 L303.8657,56.5869 L307.2109,68.98 L304.7622,68.98 L303.9985,65.917 L300.7197,65.917 L299.9727,68.98 L297.5239,68.98 Z "/><text fill="#000000" font-family="sans-serif" font-size="12" font-style="italic" lengthAdjust="spacingAndGlyphs" textLength="107" x="316.5" y="68.0152">JpaBaseRepository</text><rect fill="#FFFFFF" height="16.1328" style="stroke: #000000; stroke-width: 1.0; stroke-dasharray: 2.0,2.0;" width="150" x="431.5" y="44.48"/><text fill="#000000" font-family="sans-serif" font-size="12" font-style="italic" lengthAdjust="spacingAndGlyphs" textLength="148" x="432.5" y="57.0816">T, ID extends Serializable</text><line style="stroke: #A80036; stroke-width: 1.5;" x1="288.5" x2="577.5" y1="79.48" y2="79.48"/><rect fill="none" height="6" style="stroke: #C82930; stroke-width: 1.0;" width="6" x="295.5" y="87.48"/><text fill="#000000" font-family="sans-serif" font-size="11" lengthAdjust="spacingAndGlyphs" text-decoration="underline" textLength="178" x="307.5" y="94.1148">emFactory: EntityManagerFactory</text><rect fill="none" height="6" style="stroke: #C82930; stroke-width: 1.0;" width="6" x="295.5" y="100.4351"/><text fill="#000000" font-family="sans-serif" font-size="11" lengthAdjust="spacingAndGlyphs" textLength="119" x="307.5" y="107.0698">entityClass: Class&lt;T&gt;</text><rect fill="none" height="6" style="stroke: #C82930; stroke-width: 1.0;" width="6" x="295.5" y="113.3902"/><text fill="#000000" font-family="sans-serif" font-size="11" lengthAdjust="spacingAndGlyphs" textLength="164" x="307.5" y="120.0249">_entityManager: EntityManager</text><line style="stroke: #A80036; stroke-width: 1.5;" x1="288.5" x2="577.5" y1="126.3452" y2="126.3452"/></a><!--MD5=[3587d074d053e9a6442b88bf356f2ae1]
class persistence.jpa.AuthenticationRepository--><a href="../AuthenticationRepository.html" target="_top" title="../AuthenticationRepository.html" xlink:actuate="onRequest" xlink:href="../AuthenticationRepository.html" xlink:show="new" xlink:title="../AuthenticationRepository.html" xlink:type="simple"><rect codeLine="36" fill="#FEFECE" filter="url(#fq22nrsa3vr12)" height="99.8203" id="persistence.jpa.AuthenticationRepository" style="stroke: #A80036; stroke-width: 1.5;" width="220" x="32" y="41"/><ellipse cx="67.7" cy="57" fill="#B4A7E5" rx="11" ry="11" style="stroke: #A80036; stroke-width: 1.0;"/><path d="M64.1277,53.2651 L64.1277,51.1069 L71.5071,51.1069 L71.5071,53.2651 L69.0418,53.2651 L69.0418,61.3418 L71.5071,61.3418 L71.5071,63.5 L64.1277,63.5 L64.1277,61.3418 L66.5931,61.3418 L66.5931,53.2651 Z "/><text fill="#000000" font-family="sans-serif" font-size="12" font-style="italic" lengthAdjust="spacingAndGlyphs" textLength="142" x="86.3" y="61.5352">AuthenticationRepository</text><line style="stroke: #A80036; stroke-width: 1.5;" x1="33" x2="251" y1="73" y2="73"/><line style="stroke: #A80036; stroke-width: 1.5;" x1="33" x2="251" y1="81" y2="81"/><ellipse cx="43" cy="92" fill="#84BE84" rx="3" ry="3" style="stroke: #038048; stroke-width: 1.0;"/><text fill="#000000" font-family="sans-serif" font-size="11" font-style="italic" lengthAdjust="spacingAndGlyphs" textLength="171" x="52" y="95.6348">doLogin(String, String): boolean</text><ellipse cx="43" cy="104.9551" fill="#84BE84" rx="3" ry="3" style="stroke: #038048; stroke-width: 1.0;"/><text fill="#000000" font-family="sans-serif" font-size="11" font-style="italic" lengthAdjust="spacingAndGlyphs" textLength="89" x="52" y="108.5898">doLogout(): void</text><ellipse cx="43" cy="117.9102" fill="#84BE84" rx="3" ry="3" style="stroke: #038048; stroke-width: 1.0;"/><text fill="#000000" font-family="sans-serif" font-size="11" font-style="italic" lengthAdjust="spacingAndGlyphs" textLength="116" x="52" y="121.5449">isLoggedIn(): boolean</text><ellipse cx="43" cy="130.8652" fill="#84BE84" rx="3" ry="3" style="stroke: #038048; stroke-width: 1.0;"/><text fill="#000000" font-family="sans-serif" font-size="11" font-style="italic" lengthAdjust="spacingAndGlyphs" textLength="194" x="52" y="134.5">getUserRoles(): List&lt;UserRoleDTO&gt;</text></a><!--MD5=[24670e5a69043045d276c3a5d51cf1ed]
class persistence.interfaces.exampleRepository--><a href="../../interfaces/exampleRepository.html" target="_top" title="../../interfaces/exampleRepository.html" xlink:actuate="onRequest" xlink:href="../../interfaces/exampleRepository.html" xlink:show="new" xlink:title="../../interfaces/exampleRepository.html" xlink:type="simple"><rect codeLine="45" fill="#FEFECE" filter="url(#fq22nrsa3vr12)" height="60.9551" id="persistence.interfaces.exampleRepository" style="stroke: #A80036; stroke-width: 1.5;" width="155" x="635.5" y="60.43"/><ellipse cx="650.5" cy="76.43" fill="#B4A7E5" rx="11" ry="11" style="stroke: #A80036; stroke-width: 1.0;"/><path d="M646.9277,72.6951 L646.9277,70.5369 L654.3071,70.5369 L654.3071,72.6951 L651.8418,72.6951 L651.8418,80.7718 L654.3071,80.7718 L654.3071,82.93 L646.9277,82.93 L646.9277,80.7718 L649.3931,80.7718 L649.3931,72.6951 Z "/><text fill="#000000" font-family="sans-serif" font-size="12" font-style="italic" lengthAdjust="spacingAndGlyphs" textLength="111" x="664.5" y="80.9652">exampleRepository</text><rect fill="#FFFFFF" height="16.1328" style="stroke: #000000; stroke-width: 1.0; stroke-dasharray: 2.0,2.0;" width="10" x="783.5" y="57.43"/><text fill="#000000" font-family="sans-serif" font-size="12" font-style="italic" lengthAdjust="spacingAndGlyphs" textLength="8" x="784.5" y="70.0316">T</text><line style="stroke: #A80036; stroke-width: 1.5;" x1="636.5" x2="789.5" y1="92.43" y2="92.43"/><line style="stroke: #A80036; stroke-width: 1.5;" x1="636.5" x2="789.5" y1="100.43" y2="100.43"/><ellipse cx="646.5" cy="111.43" fill="#84BE84" rx="3" ry="3" style="stroke: #038048; stroke-width: 1.0;"/><text fill="#000000" font-family="sans-serif" font-size="11" font-style="italic" lengthAdjust="spacingAndGlyphs" textLength="48" x="655.5" y="115.0648">add(T): T</text></a><!--MD5=[abdfb4f157874ee149227debb82cee43]
class persistence.interfaces.ShowRequestRepository--><a href="../../interfaces/ShowRequestRepository.html" target="_top" title="../../interfaces/ShowRequestRepository.html" xlink:actuate="onRequest" xlink:href="../../interfaces/ShowRequestRepository.html" xlink:show="new" xlink:title="../../interfaces/ShowRequestRepository.html" xlink:type="simple"><rect codeLine="48" fill="#FEFECE" filter="url(#fq22nrsa3vr12)" height="60.9551" id="persistence.interfaces.ShowRequestRepository" style="stroke: #A80036; stroke-width: 1.5;" width="181" x="825.5" y="60.43"/><ellipse cx="840.5" cy="76.43" fill="#B4A7E5" rx="11" ry="11" style="stroke: #A80036; stroke-width: 1.0;"/><path d="M836.9277,72.6951 L836.9277,70.5369 L844.3071,70.5369 L844.3071,72.6951 L841.8418,72.6951 L841.8418,80.7718 L844.3071,80.7718 L844.3071,82.93 L836.9277,82.93 L836.9277,80.7718 L839.3931,80.7718 L839.3931,72.6951 Z "/><text fill="#000000" font-family="sans-serif" font-size="12" font-style="italic" lengthAdjust="spacingAndGlyphs" textLength="137" x="854.5" y="80.9652">ShowRequestRepository</text><rect fill="#FFFFFF" height="16.1328" style="stroke: #000000; stroke-width: 1.0; stroke-dasharray: 2.0,2.0;" width="10" x="999.5" y="57.43"/><text fill="#000000" font-family="sans-serif" font-size="12" font-style="italic" lengthAdjust="spacingAndGlyphs" textLength="8" x="1000.5" y="70.0316">T</text><line style="stroke: #A80036; stroke-width: 1.5;" x1="826.5" x2="1005.5" y1="92.43" y2="92.43"/><line style="stroke: #A80036; stroke-width: 1.5;" x1="826.5" x2="1005.5" y1="100.43" y2="100.43"/><ellipse cx="836.5" cy="111.43" fill="#84BE84" rx="3" ry="3" style="stroke: #038048; stroke-width: 1.0;"/><text fill="#000000" font-family="sans-serif" font-size="11" font-style="italic" lengthAdjust="spacingAndGlyphs" textLength="48" x="845.5" y="115.0648">add(T): T</text></a><!--MD5=[bfdefd2752fecc827df420c82a61db0d]
reverse link persistence.jpa.JpaBaseRepository to persistence.jpa.JPAImpl.exampleJPAImpl--><path codeLine="22" d="M448.34,155.6 C458.48,197.66 471.17,250.34 478.35,280.16 " fill="none" id="persistence.jpa.JpaBaseRepository-backto-persistence.jpa.JPAImpl.exampleJPAImpl" style="stroke: #A80036; stroke-width: 1.0;"/><polygon fill="none" points="441.55,157.3,443.68,136.22,455.16,154.02,441.55,157.3" style="stroke: #A80036; stroke-width: 1.0;"/><!--MD5=[66f10993f8fc78dd84652c788f7725c8]
reverse link persistence.interfaces.exampleRepository to persistence.jpa.JPAImpl.exampleJPAImpl--><path codeLine="23" d="M653.53,133.47 C635.35,144.83 614.89,156.34 595,164.82 C581.91,170.4 575.44,164.35 564,172.82 C526.88,200.29 503.33,250.59 492.01,280.16 " fill="none" id="persistence.interfaces.exampleRepository-backto-persistence.jpa.JPAImpl.exampleJPAImpl" style="stroke: #A80036; stroke-width: 1.0; stroke-dasharray: 7.0,7.0;"/><polygon fill="none" points="649.66,127.64,670.26,122.64,657.27,139.39,649.66,127.64" style="stroke: #A80036; stroke-width: 1.0;"/><!--MD5=[81b65f948ee14a1bb9f6fd569d1a7176]
reverse link persistence.jpa.JpaBaseRepository to persistence.jpa.JPAImpl.ShowRequestJPAImpl--><path codeLine="24" d="M544.66,142.34 C568.74,151.32 594.37,159.49 619,164.82 C652.28,172.01 742.16,156.42 772,172.82 C814.97,196.43 842.82,249.39 856.02,280.18 " fill="none" id="persistence.jpa.JpaBaseRepository-backto-persistence.jpa.JPAImpl.ShowRequestJPAImpl" style="stroke: #A80036; stroke-width: 1.0;"/><polygon fill="none" points="542.37,148.96,526.26,135.2,547.44,135.91,542.37,148.96" style="stroke: #A80036; stroke-width: 1.0;"/><!--MD5=[904ee4b8ccddf56701a8748f300b3479]
reverse link persistence.interfaces.ShowRequestRepository to persistence.jpa.JPAImpl.ShowRequestJPAImpl--><path codeLine="25" d="M903.81,142.53 C893.27,186.25 878.53,247.43 870.59,280.38 " fill="none" id="persistence.interfaces.ShowRequestRepository-backto-persistence.jpa.JPAImpl.ShowRequestJPAImpl" style="stroke: #A80036; stroke-width: 1.0; stroke-dasharray: 7.0,7.0;"/><polygon fill="none" points="896.96,141.07,908.45,123.26,910.57,144.34,896.96,141.07" style="stroke: #A80036; stroke-width: 1.0;"/><!--MD5=[2777d182ebfec54da267c8c2c9b610cd]
reverse link persistence.jpa.JpaBaseRepository to persistence.jpa.JPAImpl.AuthenticationRepositoryJPAImpl--><path codeLine="26" d="M388.43,152 C373.82,171.7 357.27,194.02 341.45,215.35 " fill="none" id="persistence.jpa.JpaBaseRepository-backto-persistence.jpa.JPAImpl.AuthenticationRepositoryJPAImpl" style="stroke: #A80036; stroke-width: 1.0;"/><polygon fill="none" points="382.79,147.86,400.33,135.96,394.04,156.2,382.79,147.86" style="stroke: #A80036; stroke-width: 1.0;"/><!--MD5=[df5b31443715def8aaea9399e7a9d549]
reverse link persistence.jpa.AuthenticationRepository to persistence.jpa.JPAImpl.AuthenticationRepositoryJPAImpl--><path codeLine="27" d="M184.6,159.2 C195.92,177.09 208.33,196.69 220.24,215.51 " fill="none" id="persistence.jpa.AuthenticationRepository-backto-persistence.jpa.JPAImpl.AuthenticationRepositoryJPAImpl" style="stroke: #A80036; stroke-width: 1.0; stroke-dasharray: 7.0,7.0;"/><polygon fill="none" points="178.84,163.19,174.06,142.55,190.67,155.71,178.84,163.19" style="stroke: #A80036; stroke-width: 1.0;"/><text fill="#888888" font-family="sans-serif" font-size="10" lengthAdjust="spacingAndGlyphs" textLength="188" x="419.5" y="425.038">UMLDoclet 2.0.12, PlantUML 1.2020.16</text><!--MD5=[adc30a8791d53ab9546e9672f699a295]
@startuml
    namespace persistence.jpa.JPAImpl {

        class exampleJPAImpl [[exampleJPAImpl.html]]

        class ShowRequestJPAImpl [[ShowRequestJPAImpl.html]]

        class FigureRepositoryJPAImpl [[FigureRepositoryJPAImpl.html]]

        class AuthenticationRepositoryJPAImpl [[AuthenticationRepositoryJPAImpl.html]] {
            -loggedUser: User
            -roleRepository: UserRoleRepository
            +doLogin(String, String): boolean
            +doLogout(): void
            +isLoggedIn(): boolean
            +getUserRoles(): List<UserRoleDTO>
            +getCurrentUser(): User
            +saveUser(User): void
            +saveRole(UserRole): void
            +getAllRoles(): List<UserRole>
        }

        persistence.jpa.JpaBaseRepository <|- - exampleJPAImpl
        persistence.interfaces.exampleRepository <|.. exampleJPAImpl
        persistence.jpa.JpaBaseRepository <|- - ShowRequestJPAImpl
        persistence.interfaces.ShowRequestRepository <|.. ShowRequestJPAImpl
        persistence.jpa.JpaBaseRepository <|- - AuthenticationRepositoryJPAImpl
        persistence.jpa.AuthenticationRepository <|.. AuthenticationRepositoryJPAImpl
    }

    namespace persistence.jpa {
        abstract class JpaBaseRepository<T, ID extends Serializable> [[../JpaBaseRepository.html]] {
            {static} -emFactory: EntityManagerFactory
            -entityClass: Class<T>
            -_entityManager: EntityManager
        }
        interface AuthenticationRepository [[../AuthenticationRepository.html]] {
            {abstract} +doLogin(String, String): boolean
            {abstract} +doLogout(): void
            {abstract} +isLoggedIn(): boolean
            {abstract} +getUserRoles(): List<UserRoleDTO>
        }
    }

    namespace persistence.interfaces {
        interface exampleRepository<T> [[../../interfaces/exampleRepository.html]] {
            {abstract} +add(T): T
        }
        interface ShowRequestRepository<T> [[../../interfaces/ShowRequestRepository.html]] {
            {abstract} +add(T): T
        }
    }

    center footer UMLDoclet 2.0.12, PlantUML 1.2020.16
@enduml

PlantUML version 1.2020.16(Sun Aug 23 21:20:43 WEST 2020)
(APACHE source distribution)
Java Runtime: OpenJDK Runtime Environment
JVM: OpenJDK 64-Bit Server VM
Default Encoding: UTF-8
Language: pt
Country: PT
--></g></svg>