<?xml version="1.0" encoding="UTF-8" standalone="no"?><svg xmlns="http://www.w3.org/2000/svg" xmlns:xlink="http://www.w3.org/1999/xlink" contentScriptType="application/ecmascript" contentStyleType="text/css" height="215px" preserveAspectRatio="none" style="width:483px;height:215px;" version="1.1" viewBox="0 0 483 215" width="483px" zoomAndPan="magnify"><defs><filter height="300%" id="fdaey3owa7xc9" width="300%" x="-1" y="-1"><feGaussianBlur result="blurOut" stdDeviation="2.0"/><feColorMatrix in="blurOut" result="blurOut2" type="matrix" values="0 0 0 0 0 0 0 0 0 0 0 0 0 0 0 0 0 0 .4 0"/><feOffset dx="4.0" dy="4.0" in="blurOut2" result="blurOut3"/><feBlend in="SourceGraphic" in2="blurOut3" mode="normal"/></filter></defs><g><!--MD5=[0967c7d1a322dddab9675eac1bd644db]
class persistence.jpa.JPAImpl.ShowRequestJPAImpl--><a href="ShowRequestJPAImpl.html" target="_top" title="ShowRequestJPAImpl.html" xlink:actuate="onRequest" xlink:href="ShowRequestJPAImpl.html" xlink:show="new" xlink:title="ShowRequestJPAImpl.html" xlink:type="simple"><rect codeLine="5" fill="#FEFECE" filter="url(#fdaey3owa7xc9)" height="42.6879" id="persistence.jpa.JPAImpl.ShowRequestJPAImpl" style="stroke: #A80036; stroke-width: 1.5;" width="175" x="158" y="136.016"/><ellipse cx="173" cy="157.36" fill="#ADD1B2" rx="11" ry="11" style="stroke: #A80036; stroke-width: 1.0;"/><path d="M175.9688,163.0006 Q175.3906,163.2975 174.75,163.4381 Q174.1094,163.5944 173.4063,163.5944 Q170.9063,163.5944 169.5781,161.9537 Q168.2656,160.2975 168.2656,157.1725 Q168.2656,154.0475 169.5781,152.3912 Q170.9063,150.735 173.4063,150.735 Q174.1094,150.735 174.75,150.8912 Q175.4063,151.0475 175.9688,151.3444 L175.9688,154.0631 Q175.3438,153.485 174.75,153.2194 Q174.1563,152.9381 173.5313,152.9381 Q172.1875,152.9381 171.5,154.0162 Q170.8125,155.0787 170.8125,157.1725 Q170.8125,159.2662 171.5,160.3444 Q172.1875,161.4069 173.5313,161.4069 Q174.1563,161.4069 174.75,161.1412 Q175.3438,160.86 175.9688,160.2819 L175.9688,163.0006 Z "/><text fill="#000000" font-family="sans-serif" font-size="14" lengthAdjust="spacingAndGlyphs" textLength="143" x="187" y="155.982">ShowRequestJPAImpl</text><text fill="#000000" font-family="sans-serif" font-size="10" lengthAdjust="spacingAndGlyphs" textLength="113" x="202" y="170.7739">persistence.jpa.JPAImpl</text></a><!--MD5=[0464228a65d6670e76009427e3c646e5]
class persistence.jpa.JpaBaseRepository--><a href="../JpaBaseRepository.html" target="_top" title="../JpaBaseRepository.html" xlink:actuate="onRequest" xlink:href="../JpaBaseRepository.html" xlink:show="new" xlink:title="../JpaBaseRepository.html" xlink:type="simple"><rect codeLine="7" fill="#FEFECE" filter="url(#fdaey3owa7xc9)" height="42.6879" id="persistence.jpa.JpaBaseRepository" style="stroke: #A80036; stroke-width: 1.5;" width="231" x="7" y="21.516"/><ellipse cx="22" cy="42.86" fill="#A9DCDF" rx="11" ry="11" style="stroke: #A80036; stroke-width: 1.0;"/><path d="M22.1094,38.2037 L20.9531,43.2819 L23.2813,43.2819 L22.1094,38.2037 Z M20.625,35.9694 L23.6094,35.9694 L26.9688,48.36 L24.5156,48.36 L23.75,45.2975 L20.4688,45.2975 L19.7188,48.36 L17.2813,48.36 L20.625,35.9694 Z "/><text fill="#000000" font-family="sans-serif" font-size="14" font-style="italic" lengthAdjust="spacingAndGlyphs" textLength="116" x="36" y="41.482">JpaBaseRepository</text><text fill="#000000" font-family="sans-serif" font-size="10" font-style="italic" lengthAdjust="spacingAndGlyphs" textLength="68" x="60" y="56.2739">persistence.jpa</text><rect fill="#FFFFFF" height="18.3441" style="stroke: #000000; stroke-width: 1.0; stroke-dasharray: 2.0,2.0;" width="81" x="160" y="18.516"/><text fill="#000000" font-family="sans-serif" font-size="12" font-style="italic" lengthAdjust="spacingAndGlyphs" textLength="79" x="161" y="32.3441">Object, Integer</text></a><!--MD5=[abdfb4f157874ee149227debb82cee43]
class persistence.interfaces.ShowRequestRepository--><a href="../../interfaces/ShowRequestRepository.html" target="_top" title="../../interfaces/ShowRequestRepository.html" xlink:actuate="onRequest" xlink:href="../../interfaces/ShowRequestRepository.html" xlink:show="new" xlink:title="../../interfaces/ShowRequestRepository.html" xlink:type="simple"><rect codeLine="8" fill="#FEFECE" filter="url(#fdaey3owa7xc9)" height="65.6698" id="persistence.interfaces.ShowRequestRepository" style="stroke: #A80036; stroke-width: 1.5;" width="191" x="273" y="10.016"/><ellipse cx="288" cy="31.36" fill="#B4A7E5" rx="11" ry="11" style="stroke: #A80036; stroke-width: 1.0;"/><path d="M283.9219,27.1256 L283.9219,24.9694 L291.3125,24.9694 L291.3125,27.1256 L288.8438,27.1256 L288.8438,35.2037 L291.3125,35.2037 L291.3125,37.36 L283.9219,37.36 L283.9219,35.2037 L286.3906,35.2037 L286.3906,27.1256 L283.9219,27.1256 Z "/><text fill="#000000" font-family="sans-serif" font-size="14" font-style="italic" lengthAdjust="spacingAndGlyphs" textLength="149" x="302" y="29.982">ShowRequestRepository</text><text fill="#000000" font-family="sans-serif" font-size="10" font-style="italic" lengthAdjust="spacingAndGlyphs" textLength="97" x="328" y="44.7739">persistence.interfaces</text><rect fill="#FFFFFF" height="18.3441" style="stroke: #000000; stroke-width: 1.0; stroke-dasharray: 2.0,2.0;" width="8" x="459" y="7.016"/><text fill="#000000" font-family="sans-serif" font-size="12" font-style="italic" lengthAdjust="spacingAndGlyphs" textLength="6" x="460" y="20.8441">T</text><line style="stroke: #A80036; stroke-width: 1.5;" x1="274" x2="463" y1="52.7039" y2="52.7039"/><ellipse cx="284" cy="63.7039" fill="#84BE84" rx="3" ry="3" style="stroke: #038048; stroke-width: 1.0;"/><text fill="#000000" font-family="sans-serif" font-size="11" font-style="italic" lengthAdjust="spacingAndGlyphs" textLength="42" x="293" y="68.4628">add(T): T</text></a><!--MD5=[81b65f948ee14a1bb9f6fd569d1a7176]
reverse link persistence.jpa.JpaBaseRepository to persistence.jpa.JPAImpl.ShowRequestJPAImpl--><path codeLine="12" d="M160.12,78.426 C180.71,97.256 205.52,119.956 223.08,136.016 " fill="none" id="persistence.jpa.JpaBaseRepository-backto-persistence.jpa.JPAImpl.ShowRequestJPAImpl" style="stroke: #A80036; stroke-width: 1.0;"/><polygon fill="none" points="155.09,83.316,145.06,64.646,164.54,72.986,155.09,83.316" style="stroke: #A80036; stroke-width: 1.0;"/><!--MD5=[904ee4b8ccddf56701a8748f300b3479]
reverse link persistence.interfaces.ShowRequestRepository to persistence.jpa.JPAImpl.ShowRequestJPAImpl--><path codeLine="13" d="M318.35,89.886 C300.84,105.906 282.06,123.076 267.96,135.976 " fill="none" id="persistence.interfaces.ShowRequestRepository-backto-persistence.jpa.JPAImpl.ShowRequestJPAImpl" style="stroke: #A80036; stroke-width: 1.0; stroke-dasharray: 7.0,7.0;"/><polygon fill="none" points="313.77,84.586,333.25,76.256,323.22,94.916,313.77,84.586" style="stroke: #A80036; stroke-width: 1.0;"/><text fill="#888888" font-family="sans-serif" font-size="10" lengthAdjust="spacingAndGlyphs" textLength="188" x="138.5" y="202.3939">UMLDoclet 2.0.12, PlantUML 1.2020.16</text><!--MD5=[2796430a2981f3f34513429bfb63082e]
@startuml
    set namespaceSeparator none
    hide empty fields
    hide empty methods

    class "<size:14>ShowRequestJPAImpl\n<size:10>persistence.jpa.JPAImpl" as persistence.jpa.JPAImpl.ShowRequestJPAImpl [[ShowRequestJPAImpl.html]]

    abstract class "<size:14>JpaBaseRepository\n<size:10>persistence.jpa" as persistence.jpa.JpaBaseRepository<Object, Integer> [[../JpaBaseRepository.html]]
    interface "<size:14>ShowRequestRepository\n<size:10>persistence.interfaces" as persistence.interfaces.ShowRequestRepository<T> [[../../interfaces/ShowRequestRepository.html]] {
        {abstract} +add(T): T
    }

    persistence.jpa.JpaBaseRepository <|- - persistence.jpa.JPAImpl.ShowRequestJPAImpl
    persistence.interfaces.ShowRequestRepository <|.. persistence.jpa.JPAImpl.ShowRequestJPAImpl

    center footer UMLDoclet 2.0.12, PlantUML 1.2020.16
@enduml

PlantUML version 1.2020.16(Sun Aug 23 21:20:43 WEST 2020)
(APACHE source distribution)
Java Runtime: Java(TM) SE Runtime Environment
JVM: Java HotSpot(TM) 64-Bit Server VM
Default Encoding: UTF-8
Language: en
Country: US
--></g></svg>