<?xml version="1.0" encoding="UTF-8" standalone="no"?><svg xmlns="http://www.w3.org/2000/svg" xmlns:xlink="http://www.w3.org/1999/xlink" contentScriptType="application/ecmascript" contentStyleType="text/css" height="203px" preserveAspectRatio="none" style="width:517px;height:203px;" version="1.1" viewBox="0 0 517 203" width="517px" zoomAndPan="magnify"><defs><filter height="300%" id="fdaey3owa7xc9" width="300%" x="-1" y="-1"><feGaussianBlur result="blurOut" stdDeviation="2.0"/><feColorMatrix in="blurOut" result="blurOut2" type="matrix" values="0 0 0 0 0 0 0 0 0 0 0 0 0 0 0 0 0 0 .4 0"/><feOffset dx="4.0" dy="4.0" in="blurOut2" result="blurOut3"/><feBlend in="SourceGraphic" in2="blurOut3" mode="normal"/></filter></defs><g><!--MD5=[0967c7d1a322dddab9675eac1bd644db]
class persistence.jpa.JPAImpl.ShowRequestJPAImpl--><a href="ShowRequestJPAImpl.html" target="_top" title="ShowRequestJPAImpl.html" xlink:actuate="onRequest" xlink:href="ShowRequestJPAImpl.html" xlink:show="new" xlink:title="ShowRequestJPAImpl.html" xlink:type="simple"><rect codeLine="5" fill="#FEFECE" filter="url(#fdaey3owa7xc9)" height="38.2656" id="persistence.jpa.JPAImpl.ShowRequestJPAImpl" style="stroke: #A80036; stroke-width: 1.5;" width="176" x="173.5" y="129.22"/><ellipse cx="188.5" cy="148.3528" fill="#ADD1B2" rx="11" ry="11" style="stroke: #A80036; stroke-width: 1.0;"/><path d="M190.9731,154.4959 Q190.3921,154.7947 189.7529,154.9441 Q189.1138,155.0935 188.4082,155.0935 Q185.9014,155.0935 184.5815,153.4417 Q183.2617,151.7898 183.2617,148.6687 Q183.2617,145.5393 184.5815,143.8875 Q185.9014,142.2356 188.4082,142.2356 Q189.1138,142.2356 189.7612,142.385 Q190.4087,142.5345 190.9731,142.8333 L190.9731,145.5559 Q190.3423,144.9749 189.7488,144.7051 Q189.1553,144.4353 188.5244,144.4353 Q187.1797,144.4353 186.4949,145.502 Q185.8101,146.5686 185.8101,148.6687 Q185.8101,150.7605 186.4949,151.8272 Q187.1797,152.8938 188.5244,152.8938 Q189.1553,152.8938 189.7488,152.6241 Q190.3423,152.3543 190.9731,151.7732 Z "/><text fill="#000000" font-family="sans-serif" font-size="14" lengthAdjust="spacingAndGlyphs" textLength="144" x="202.5" y="147.7552">ShowRequestJPAImpl</text><text fill="#000000" font-family="sans-serif" font-size="10" lengthAdjust="spacingAndGlyphs" textLength="114" x="217.5" y="160.3763">persistence.jpa.JPAImpl</text></a><!--MD5=[0464228a65d6670e76009427e3c646e5]
class persistence.jpa.JpaBaseRepository--><a href="../JpaBaseRepository.html" target="_top" title="../JpaBaseRepository.html" xlink:actuate="onRequest" xlink:href="../JpaBaseRepository.html" xlink:show="new" xlink:title="../JpaBaseRepository.html" xlink:type="simple"><rect codeLine="7" fill="#FEFECE" filter="url(#fdaey3owa7xc9)" height="38.2656" id="persistence.jpa.JpaBaseRepository" style="stroke: #A80036; stroke-width: 1.5;" width="247" x="7" y="20.48"/><ellipse cx="22" cy="39.6128" fill="#A9DCDF" rx="11" ry="11" style="stroke: #A80036; stroke-width: 1.0;"/><path d="M21.8633,34.961 L20.7095,40.0327 L23.0254,40.0327 Z M20.3691,32.7197 L23.3657,32.7197 L26.7109,45.1128 L24.2622,45.1128 L23.4985,42.0498 L20.2197,42.0498 L19.4727,45.1128 L17.0239,45.1128 Z "/><text fill="#000000" font-family="sans-serif" font-size="14" font-style="italic" lengthAdjust="spacingAndGlyphs" textLength="125" x="36" y="39.0152">JpaBaseRepository</text><text fill="#000000" font-family="sans-serif" font-size="10" font-style="italic" lengthAdjust="spacingAndGlyphs" textLength="74" x="61.5" y="51.6363">persistence.jpa</text><rect fill="#FFFFFF" height="16.1328" style="stroke: #000000; stroke-width: 1.0; stroke-dasharray: 2.0,2.0;" width="88" x="169" y="17.48"/><text fill="#000000" font-family="sans-serif" font-size="12" font-style="italic" lengthAdjust="spacingAndGlyphs" textLength="86" x="170" y="30.0816">Object, Integer</text></a><!--MD5=[abdfb4f157874ee149227debb82cee43]
class persistence.interfaces.ShowRequestRepository--><a href="../../interfaces/ShowRequestRepository.html" target="_top" title="../../interfaces/ShowRequestRepository.html" xlink:actuate="onRequest" xlink:href="../../interfaces/ShowRequestRepository.html" xlink:show="new" xlink:title="../../interfaces/ShowRequestRepository.html" xlink:type="simple"><rect codeLine="8" fill="#FEFECE" filter="url(#fdaey3owa7xc9)" height="59.2207" id="persistence.interfaces.ShowRequestRepository" style="stroke: #A80036; stroke-width: 1.5;" width="209" x="289" y="10"/><ellipse cx="304" cy="29.1328" fill="#B4A7E5" rx="11" ry="11" style="stroke: #A80036; stroke-width: 1.0;"/><path d="M300.4277,25.3979 L300.4277,23.2397 L307.8071,23.2397 L307.8071,25.3979 L305.3418,25.3979 L305.3418,33.4746 L307.8071,33.4746 L307.8071,35.6328 L300.4277,35.6328 L300.4277,33.4746 L302.8931,33.4746 L302.8931,25.3979 Z "/><text fill="#000000" font-family="sans-serif" font-size="14" font-style="italic" lengthAdjust="spacingAndGlyphs" textLength="165" x="318" y="28.5352">ShowRequestRepository</text><text fill="#000000" font-family="sans-serif" font-size="10" font-style="italic" lengthAdjust="spacingAndGlyphs" textLength="108" x="346.5" y="41.1563">persistence.interfaces</text><rect fill="#FFFFFF" height="16.1328" style="stroke: #000000; stroke-width: 1.0; stroke-dasharray: 2.0,2.0;" width="10" x="491" y="7"/><text fill="#000000" font-family="sans-serif" font-size="12" font-style="italic" lengthAdjust="spacingAndGlyphs" textLength="8" x="492" y="19.6016">T</text><line style="stroke: #A80036; stroke-width: 1.5;" x1="290" x2="497" y1="48.2656" y2="48.2656"/><ellipse cx="300" cy="59.2656" fill="#84BE84" rx="3" ry="3" style="stroke: #038048; stroke-width: 1.0;"/><text fill="#000000" font-family="sans-serif" font-size="11" font-style="italic" lengthAdjust="spacingAndGlyphs" textLength="48" x="309" y="62.9004">add(T): T</text></a><!--MD5=[81b65f948ee14a1bb9f6fd569d1a7176]
reverse link persistence.jpa.JpaBaseRepository to persistence.jpa.JPAImpl.ShowRequestJPAImpl--><path codeLine="12" d="M169.76,72.6 C192.36,91.02 219.96,113.51 238.94,128.98 " fill="none" id="persistence.jpa.JpaBaseRepository-backto-persistence.jpa.JPAImpl.ShowRequestJPAImpl" style="stroke: #A80036; stroke-width: 1.0;"/><polygon fill="none" points="165.57,78.22,154.49,60.16,174.42,67.37,165.57,78.22" style="stroke: #A80036; stroke-width: 1.0;"/><!--MD5=[904ee4b8ccddf56701a8748f300b3479]
reverse link persistence.interfaces.ShowRequestRepository to persistence.jpa.JPAImpl.ShowRequestJPAImpl--><path codeLine="13" d="M341.09,83 C321.39,98.92 300.01,116.22 284.37,128.86 " fill="none" id="persistence.interfaces.ShowRequestRepository-backto-persistence.jpa.JPAImpl.ShowRequestJPAImpl" style="stroke: #A80036; stroke-width: 1.0; stroke-dasharray: 7.0,7.0;"/><polygon fill="none" points="336.65,77.58,356.6,70.45,345.45,88.47,336.65,77.58" style="stroke: #A80036; stroke-width: 1.0;"/><text fill="#888888" font-family="sans-serif" font-size="10" lengthAdjust="spacingAndGlyphs" textLength="188" x="155.5" y="190.1536">UMLDoclet 2.0.12, PlantUML 1.2020.16</text><!--MD5=[72bc5d3a10ef7a14527603918f5dfe57]
@startuml
    set namespaceSeparator none
    hide empty fields
    hide empty methods

    class "<size:14>ShowRequestJPAImpl\n<size:10>persistence.jpa.JPAImpl" as persistence.jpa.JPAImpl.ShowRequestJPAImpl [[ShowRequestJPAImpl.html]]

    abstract class "<size:14>JpaBaseRepository\n<size:10>persistence.jpa" as persistence.jpa.JpaBaseRepository<Object, Integer> [[../JpaBaseRepository.html]]
    interface "<size:14>ShowRequestRepository\n<size:10>persistence.interfaces" as persistence.interfaces.ShowRequestRepository<T> [[../../interfaces/ShowRequestRepository.html]] {
        {abstract} +add(T): T
    }

    persistence.jpa.JpaBaseRepository <|- - persistence.jpa.JPAImpl.ShowRequestJPAImpl
    persistence.interfaces.ShowRequestRepository <|.. persistence.jpa.JPAImpl.ShowRequestJPAImpl

    center footer UMLDoclet 2.0.12, PlantUML 1.2020.16
@enduml

PlantUML version 1.2020.16(Sun Aug 23 21:20:43 WEST 2020)
(APACHE source distribution)
Java Runtime: OpenJDK Runtime Environment
JVM: OpenJDK 64-Bit Server VM
Default Encoding: UTF-8
Language: pt
Country: PT
--></g></svg>