<svg xmlns="http://www.w3.org/2000/svg" xmlns:xlink="http://www.w3.org/1999/xlink" contentStyleType="text/css" height="486px" preserveAspectRatio="none" style="width:467px;height:486px;background:#FFFFFF;" version="1.1" viewBox="0 0 467 486" width="467px" zoomAndPan="magnify"><title>Register User - Domain Model (US211)</title><defs/><g><text fill="#000000" font-family="sans-serif" font-size="14" font-weight="bold" lengthAdjust="spacing" textLength="255.1719" x="98.9141" y="25.1074">Register User - Domain Model (US211)</text><!--cluster User Management Subsystem--><g id="cluster_User Management Subsystem"><rect fill="none" height="434" rx="2.5" ry="2.5" style="stroke:#000000;stroke-width:1.5;" width="454" x="7" y="46.6211"/><text fill="#000000" font-family="sans-serif" font-size="14" font-weight="bold" lengthAdjust="spacing" textLength="199.1787" x="134.4106" y="63.7285">User Management Subsystem</text></g><!--class User--><g id="elem_User"><rect codeLine="13" fill="#F1F1F1" height="129.7266" id="User" rx="2.5" ry="2.5" style="stroke:#181818;stroke-width:0.5;" width="145.0752" x="151.5" y="199.6211"/><text fill="#000000" font-family="sans-serif" font-size="14" lengthAdjust="spacing" textLength="29.5586" x="209.2583" y="219.7285">User</text><line style="stroke:#181818;stroke-width:0.5;" x1="152.5" x2="295.5752" y1="228.2422" y2="228.2422"/><text fill="#000000" font-family="sans-serif" font-size="14" lengthAdjust="spacing" textLength="53.6826" x="157.5" y="247.3496">Email: id</text><text fill="#000000" font-family="sans-serif" font-size="14" lengthAdjust="spacing" textLength="79.3721" x="157.5" y="265.9707">String: name</text><text fill="#000000" font-family="sans-serif" font-size="14" lengthAdjust="spacing" textLength="133.0752" x="157.5" y="284.5918">String: phoneNumber</text><text fill="#000000" font-family="sans-serif" font-size="14" lengthAdjust="spacing" textLength="129.165" x="157.5" y="303.2129">Password: password</text><text fill="#000000" font-family="sans-serif" font-size="14" lengthAdjust="spacing" textLength="94.1787" x="157.5" y="321.834">boolean: active</text></g><!--class UserRole--><g id="elem_UserRole"><rect codeLine="21" fill="#F1F1F1" height="73.8633" id="UserRole" rx="2.5" ry="2.5" style="stroke:#181818;stroke-width:0.5;" width="124.0547" x="321" y="390.6211"/><text fill="#000000" font-family="sans-serif" font-size="14" lengthAdjust="spacing" textLength="58.3516" x="353.8516" y="410.7285">UserRole</text><line style="stroke:#181818;stroke-width:0.5;" x1="322" x2="444.0547" y1="419.2422" y2="419.2422"/><text fill="#000000" font-family="sans-serif" font-size="14" lengthAdjust="spacing" textLength="55.248" x="327" y="438.3496">String: id</text><text fill="#000000" font-family="sans-serif" font-size="14" lengthAdjust="spacing" textLength="112.0547" x="327" y="456.9707">String: description</text></g><!--class Email--><g id="elem_Email"><rect codeLine="26" fill="#F1F1F1" height="55.2422" id="Email" rx="2.5" ry="2.5" style="stroke:#181818;stroke-width:0.5;" width="89.8203" x="23" y="400.1211"/><text fill="#000000" font-family="sans-serif" font-size="14" lengthAdjust="spacing" textLength="35.0068" x="50.4067" y="420.2285">Email</text><line style="stroke:#181818;stroke-width:0.5;" x1="24" x2="111.8203" y1="428.7422" y2="428.7422"/><text fill="#000000" font-family="sans-serif" font-size="14" lengthAdjust="spacing" textLength="77.8203" x="29" y="447.8496">String: value</text></g><!--class Password--><g id="elem_Password"><rect codeLine="30" fill="#F1F1F1" height="55.2422" id="Password" rx="2.5" ry="2.5" style="stroke:#181818;stroke-width:0.5;" width="138.0889" x="148" y="400.1211"/><text fill="#000000" font-family="sans-serif" font-size="14" lengthAdjust="spacing" textLength="61.4688" x="186.3101" y="420.2285">Password</text><line style="stroke:#181818;stroke-width:0.5;" x1="149" x2="285.0889" y1="428.7422" y2="428.7422"/><text fill="#000000" font-family="sans-serif" font-size="14" lengthAdjust="spacing" textLength="126.0889" x="154" y="447.8496">String: hashedValue</text></g><!--class UserRegistrationService--><g id="elem_UserRegistrationService"><rect codeLine="34" fill="#F1F1F1" height="36.6211" id="UserRegistrationService" rx="2.5" ry="2.5" style="stroke:#181818;stroke-width:0.5;" width="156.9443" x="251.5" y="83.6211"/><text fill="#000000" font-family="sans-serif" font-size="14" lengthAdjust="spacing" textLength="150.9443" x="254.5" y="103.7285">UserRegistrationService</text><line style="stroke:#181818;stroke-width:0.5;" x1="252.5" x2="407.4443" y1="112.2422" y2="112.2422"/></g><!--link User to Email--><g id="link_User_Email"><path codeLine="38" d="M161.9,329.7111 C138.11,354.2711 116.4257,376.6425 97.8857,395.7725 " fill="none" id="User-to-Email" style="stroke:#181818;stroke-width:1.0;"/><polygon fill="#181818" points="93.71,400.0811,102.8459,396.402,97.1897,396.4906,97.1011,390.8345,93.71,400.0811" style="stroke:#181818;stroke-width:1.0;"/><text fill="#000000" font-family="sans-serif" font-size="13" lengthAdjust="spacing" textLength="7.23" x="148.143" y="351.3575">1</text><text fill="#000000" font-family="sans-serif" font-size="13" lengthAdjust="spacing" textLength="7.23" x="91.8934" y="388.7808">1</text></g><!--link User to Password--><g id="link_User_Password"><path codeLine="39" d="M221.21,329.7111 C220.15,354.2711 219.2532,374.9569 218.4132,394.0869 " fill="none" id="User-to-Password" style="stroke:#181818;stroke-width:1.0;"/><polygon fill="#181818" points="218.15,400.0811,222.541,391.2652,218.3693,395.0859,214.5487,390.9143,218.15,400.0811" style="stroke:#181818;stroke-width:1.0;"/><text fill="#000000" font-family="sans-serif" font-size="13" lengthAdjust="spacing" textLength="7.23" x="213.5693" y="351.3575">1</text><text fill="#000000" font-family="sans-serif" font-size="13" lengthAdjust="spacing" textLength="7.23" x="210.6229" y="388.7808">1</text></g><!--link User to UserRole--><g id="link_User_UserRole"><path codeLine="40" d="M287.3,329.7111 C307.74,350.4111 325.4548,368.3412 343.1548,386.2712 " fill="none" id="User-to-UserRole" style="stroke:#181818;stroke-width:1.0;"/><polygon fill="#181818" points="347.37,390.5411,343.8939,381.3261,343.8574,386.9828,338.2006,386.9463,347.37,390.5411" style="stroke:#181818;stroke-width:1.0;"/><text fill="#000000" font-family="sans-serif" font-size="13" lengthAdjust="spacing" textLength="7.23" x="286.4749" y="351.3575">1</text><text fill="#000000" font-family="sans-serif" font-size="13" lengthAdjust="spacing" textLength="7.23" x="333.4156" y="379.4886">1</text></g><!--link UserRegistrationService to User--><g id="link_UserRegistrationService_User"><path codeLine="41" d="M318.25,120.9111 C305.69,139.9311 288.3458,166.1839 269.5758,194.6139 " fill="none" id="UserRegistrationService-to-User" style="stroke:#181818;stroke-width:1.0;"/><polygon fill="#181818" points="266.27,199.6211,274.5668,194.3142,269.0248,195.4485,267.8906,189.9065,266.27,199.6211" style="stroke:#181818;stroke-width:1.0;"/><polygon fill="#000000" points="297.2446,164.4389,304.6816,158.5108,299.7768,155.2716,297.2446,164.4389" style="stroke:#000000;stroke-width:1.0;"/><text fill="#000000" font-family="sans-serif" font-size="13" lengthAdjust="spacing" textLength="42.6309" x="309" y="165.6494">creates</text></g><!--link UserRegistrationService to UserRole--><g id="link_UserRegistrationService_UserRole"><path codeLine="42" d="M344.19,121.0211 C350.13,129.5011 356.47,140.0811 360,150.6211 C387.57,232.9111 387.9482,330.3767 385.6282,384.2467 " fill="none" id="UserRegistrationService-to-UserRole" style="stroke:#181818;stroke-width:1.0;"/><polygon fill="#181818" points="385.37,390.2411,389.7535,381.4215,385.5851,385.2457,381.7609,381.0773,385.37,390.2411" style="stroke:#181818;stroke-width:1.0;"/><polygon fill="#000000" points="391.7775,269.7058,393.2741,260.3137,387.4678,261.2278,391.7775,269.7058" style="stroke:#000000;stroke-width:1.0;"/><text fill="#000000" font-family="sans-serif" font-size="13" lengthAdjust="spacing" textLength="51.3081" x="400" y="270.1494">validates</text></g><!--SRC=[ZL4zRy8m4DtzAqwPG8M1ZXcOsf4A4T7ziA-9XJyYsm4Xn7-luuGeAXxg8R7llNltxiwVfMdHeGPjZUMDiveWk8wOdv0M-Hbhgi9D4JZY0KsjvWJVeB1NQMhuGUM9iI13f1webZwGWwEFdpLyM8tImCuAKh0uLk-RpPAnHWe2BXrNv8U7fj1OuHaR2qEH17PeuaEJ2L1r9t-Bqhg0EsCG3rVe_L3edWBz-OprL0bIJ94gk6Yp18EQNe9jOmrzTVf4RiBsKVPgdOZeU9kWaxMAq9I0FCZB8FVuw-OGEJD7pr8PIu8yTx8DqffNgTH9HkU2gijKVhhEP3Je6nBV-RpaE6tDOM-a8dUHVDx0cnkNsbCN_HXNGBsvrJ2-5RZOyN8kdPPIR0fOhxVfdvh9G_lva5_Gvq0dDEUr9wVC4hWZ3EHX-w-4jAeqKYd6j0Vx1G00]--></g></svg>