<?xml version="1.0" encoding="UTF-8" standalone="no"?><svg xmlns="http://www.w3.org/2000/svg" xmlns:xlink="http://www.w3.org/1999/xlink" contentScriptType="application/ecmascript" contentStyleType="text/css" height="288px" preserveAspectRatio="none" style="width:370px;height:288px;" version="1.1" viewBox="0 0 370 288" width="370px" zoomAndPan="magnify"><defs><filter height="300%" id="ft9a9wli232md" width="300%" x="-1" y="-1"><feGaussianBlur result="blurOut" stdDeviation="2.0"/><feColorMatrix in="blurOut" result="blurOut2" type="matrix" values="0 0 0 0 0 0 0 0 0 0 0 0 0 0 0 0 0 0 .4 0"/><feOffset dx="4.0" dy="4.0" in="blurOut2" result="blurOut3"/><feBlend in="SourceGraphic" in2="blurOut3" mode="normal"/></filter></defs><g><!--MD5=[10ea673caf457862023e152271927b45]
cluster controller--><polygon fill="#FFFFFF" filter="url(#ft9a9wli232md)" points="16,6.602,90,6.602,97,31.6699,348,31.6699,348,258.602,16,258.602,16,6.602" style="stroke: #000000; stroke-width: 1.5;"/><line style="stroke: #000000; stroke-width: 1.5;" x1="16" x2="97" y1="31.6699" y2="31.6699"/><text fill="#000000" font-family="sans-serif" font-size="14" font-weight="bold" lengthAdjust="spacingAndGlyphs" textLength="68" x="20" y="23.5679">controller</text><!--MD5=[511702613d002c24c502e5b5d5f3ae28]
class controller.AuthenticationController--><a href="AuthenticationController.html" target="_top" title="AuthenticationController.html" xlink:actuate="onRequest" xlink:href="AuthenticationController.html" xlink:show="new" xlink:title="AuthenticationController.html" xlink:type="simple"><rect codeLine="3" fill="#FEFECE" filter="url(#ft9a9wli232md)" height="197.8189" id="controller.AuthenticationController" style="stroke: #A80036; stroke-width: 1.5;" width="299" x="32.5" y="44.602"/><ellipse cx="109.25" cy="60.602" fill="#ADD1B2" rx="11" ry="11" style="stroke: #A80036; stroke-width: 1.0;"/><path d="M112.2188,66.2426 Q111.6406,66.5395 111,66.6801 Q110.3594,66.8364 109.6563,66.8364 Q107.1563,66.8364 105.8281,65.1957 Q104.5156,63.5395 104.5156,60.4145 Q104.5156,57.2895 105.8281,55.6332 Q107.1563,53.977 109.6563,53.977 Q110.3594,53.977 111,54.1332 Q111.6563,54.2895 112.2188,54.5864 L112.2188,57.3051 Q111.5938,56.727 111,56.4614 Q110.4063,56.1801 109.7813,56.1801 Q108.4375,56.1801 107.75,57.2582 Q107.0625,58.3207 107.0625,60.4145 Q107.0625,62.5082 107.75,63.5864 Q108.4375,64.6489 109.7813,64.6489 Q110.4063,64.6489 111,64.3832 Q111.5938,64.102 112.2188,63.5239 L112.2188,66.2426 Z "/><text fill="#000000" font-family="sans-serif" font-size="12" lengthAdjust="spacingAndGlyphs" textLength="137" x="129.75" y="65.258">AuthenticationController</text><line style="stroke: #A80036; stroke-width: 1.5;" x1="33.5" x2="330.5" y1="76.602" y2="76.602"/><ellipse cx="43.5" cy="87.602" fill="none" rx="3" ry="3" style="stroke: #038048; stroke-width: 1.0;"/><text fill="#000000" font-family="sans-serif" font-size="11" lengthAdjust="spacingAndGlyphs" text-decoration="underline" textLength="108" x="52.5" y="92.3609">ROLE_ADMIN: String</text><ellipse cx="43.5" cy="102.5839" fill="none" rx="3" ry="3" style="stroke: #038048; stroke-width: 1.0;"/><text fill="#000000" font-family="sans-serif" font-size="11" lengthAdjust="spacingAndGlyphs" text-decoration="underline" textLength="153" x="52.5" y="107.3428">ROLE_CRM_MANAGER: String</text><ellipse cx="43.5" cy="117.5658" fill="none" rx="3" ry="3" style="stroke: #038048; stroke-width: 1.0;"/><text fill="#000000" font-family="sans-serif" font-size="11" lengthAdjust="spacingAndGlyphs" text-decoration="underline" textLength="187" x="52.5" y="122.3247">ROLE_CRM_COLLABORATOR: String</text><ellipse cx="43.5" cy="132.5476" fill="none" rx="3" ry="3" style="stroke: #038048; stroke-width: 1.0;"/><text fill="#000000" font-family="sans-serif" font-size="11" lengthAdjust="spacingAndGlyphs" text-decoration="underline" textLength="162" x="52.5" y="137.3066">ROLE_SHOW_DESIGNER: String</text><ellipse cx="43.5" cy="147.5295" fill="none" rx="3" ry="3" style="stroke: #038048; stroke-width: 1.0;"/><text fill="#000000" font-family="sans-serif" font-size="11" lengthAdjust="spacingAndGlyphs" text-decoration="underline" textLength="224" x="52.5" y="152.2884">ROLE_CUSTOMER_REPRESENTATIVE: String</text><ellipse cx="43.5" cy="162.5114" fill="none" rx="3" ry="3" style="stroke: #038048; stroke-width: 1.0;"/><text fill="#000000" font-family="sans-serif" font-size="11" lengthAdjust="spacingAndGlyphs" text-decoration="underline" textLength="141" x="52.5" y="167.2703">ROLE_DRONE_TECH: String</text><rect fill="none" height="6" style="stroke: #C82930; stroke-width: 1.0;" width="6" x="40.5" y="174.4933"/><text fill="#000000" font-family="sans-serif" font-size="11" lengthAdjust="spacingAndGlyphs" textLength="273" x="52.5" y="182.2522">authenticationRepository: AuthenticationRepository</text><line style="stroke: #A80036; stroke-width: 1.5;" x1="33.5" x2="330.5" y1="189.4752" y2="189.4752"/><ellipse cx="43.5" cy="200.4752" fill="#84BE84" rx="3" ry="3" style="stroke: #038048; stroke-width: 1.0;"/><text fill="#000000" font-family="sans-serif" font-size="11" lengthAdjust="spacingAndGlyphs" textLength="169" x="52.5" y="205.2341">doLogin(String, String): boolean</text><ellipse cx="43.5" cy="215.4571" fill="#84BE84" rx="3" ry="3" style="stroke: #038048; stroke-width: 1.0;"/><text fill="#000000" font-family="sans-serif" font-size="11" lengthAdjust="spacingAndGlyphs" textLength="181" x="52.5" y="220.216">getUserRoles(): List&lt;UserRoleDTO&gt;</text><ellipse cx="43.5" cy="230.439" fill="#84BE84" rx="3" ry="3" style="stroke: #038048; stroke-width: 1.0;"/><text fill="#000000" font-family="sans-serif" font-size="11" lengthAdjust="spacingAndGlyphs" textLength="87" x="52.5" y="235.1979">doLogout(): void</text></a><text fill="#888888" font-family="sans-serif" font-size="10" lengthAdjust="spacingAndGlyphs" textLength="188" x="82" y="275.292">UMLDoclet 2.0.12, PlantUML 1.2020.16</text><!--MD5=[5b3f1380252799bec162dbb8781e903a]
@startuml
    namespace controller {

        class AuthenticationController [[AuthenticationController.html]] {
            {static} +ROLE_ADMIN: String
            {static} +ROLE_CRM_MANAGER: String
            {static} +ROLE_CRM_COLLABORATOR: String
            {static} +ROLE_SHOW_DESIGNER: String
            {static} +ROLE_CUSTOMER_REPRESENTATIVE: String
            {static} +ROLE_DRONE_TECH: String
            -authenticationRepository: AuthenticationRepository
            +doLogin(String, String): boolean
            +getUserRoles(): List<UserRoleDTO>
            +doLogout(): void
        }

    }

    center footer UMLDoclet 2.0.12, PlantUML 1.2020.16
@enduml

PlantUML version 1.2020.16(Sun Aug 23 21:20:43 WEST 2020)
(APACHE source distribution)
Java Runtime: Java(TM) SE Runtime Environment
JVM: Java HotSpot(TM) 64-Bit Server VM
Default Encoding: UTF-8
Language: en
Country: US
--></g></svg>