<?xml version="1.0" encoding="UTF-8" standalone="no"?><svg xmlns="http://www.w3.org/2000/svg" xmlns:xlink="http://www.w3.org/1999/xlink" contentScriptType="application/ecmascript" contentStyleType="text/css" height="449px" preserveAspectRatio="none" style="width:885px;height:449px;" version="1.1" viewBox="0 0 885 449" width="885px" zoomAndPan="magnify"><defs><filter height="300%" id="f1ec2ras6cirn3" width="300%" x="-1" y="-1"><feGaussianBlur result="blurOut" stdDeviation="2.0"/><feColorMatrix in="blurOut" result="blurOut2" type="matrix" values="0 0 0 0 0 0 0 0 0 0 0 0 0 0 0 0 0 0 .4 0"/><feOffset dx="4.0" dy="4.0" in="blurOut2" result="blurOut3"/><feBlend in="SourceGraphic" in2="blurOut3" mode="normal"/></filter></defs><g><!--MD5=[10ea673caf457862023e152271927b45]
cluster controller--><polygon fill="#FFFFFF" filter="url(#f1ec2ras6cirn3)" points="16,6,92,6,99,28.4883,863,28.4883,863,420.28,16,420.28,16,6" style="stroke: #000000; stroke-width: 1.5;"/><line style="stroke: #000000; stroke-width: 1.5;" x1="16" x2="99" y1="28.4883" y2="28.4883"/><text fill="#000000" font-family="sans-serif" font-size="14" font-weight="bold" lengthAdjust="spacingAndGlyphs" textLength="70" x="20" y="21.5352">controller</text><!--MD5=[0ec45c611c2fe89594ca56ab527fdce0]
class controller.RegisterShowRequestController--><a href="RegisterShowRequestController.html" target="_top" title="RegisterShowRequestController.html" xlink:actuate="onRequest" xlink:href="RegisterShowRequestController.html" xlink:show="new" xlink:title="RegisterShowRequestController.html" xlink:type="simple"><rect codeLine="3" fill="#FEFECE" filter="url(#f1ec2ras6cirn3)" height="112.7754" id="controller.RegisterShowRequestController" style="stroke: #A80036; stroke-width: 1.5;" width="368" x="32" y="73.39"/><ellipse cx="122.25" cy="89.39" fill="#ADD1B2" rx="11" ry="11" style="stroke: #A80036; stroke-width: 1.0;"/><path d="M124.7231,95.5331 Q124.1421,95.8319 123.5029,95.9813 Q122.8638,96.1307 122.1582,96.1307 Q119.6514,96.1307 118.3315,94.4789 Q117.0117,92.827 117.0117,89.7059 Q117.0117,86.5765 118.3315,84.9247 Q119.6514,83.2728 122.1582,83.2728 Q122.8638,83.2728 123.5112,83.4222 Q124.1587,83.5716 124.7231,83.8705 L124.7231,86.5931 Q124.0923,86.0121 123.4988,85.7423 Q122.9053,85.4725 122.2744,85.4725 Q120.9297,85.4725 120.2449,86.5392 Q119.5601,87.6058 119.5601,89.7059 Q119.5601,91.7977 120.2449,92.8644 Q120.9297,93.931 122.2744,93.931 Q122.9053,93.931 123.4988,93.6612 Q124.0923,93.3915 124.7231,92.8104 Z "/><text fill="#000000" font-family="sans-serif" font-size="12" lengthAdjust="spacingAndGlyphs" textLength="179" x="142.75" y="93.9252">RegisterShowRequestController</text><line style="stroke: #A80036; stroke-width: 1.5;" x1="33" x2="399" y1="105.39" y2="105.39"/><rect fill="none" height="6" style="stroke: #C82930; stroke-width: 1.0;" width="6" x="40" y="113.39"/><text fill="#000000" font-family="sans-serif" font-size="11" lengthAdjust="spacingAndGlyphs" textLength="317" x="52" y="120.0248">inMemoryShowRequestRepository: ShowRequestRepository</text><rect fill="none" height="6" style="stroke: #C82930; stroke-width: 1.0;" width="6" x="40" y="126.3451"/><text fill="#000000" font-family="sans-serif" font-size="11" lengthAdjust="spacingAndGlyphs" textLength="262" x="52" y="132.9798">jpaShowRequestRepository: ShowRequestJPAImpl</text><line style="stroke: #A80036; stroke-width: 1.5;" x1="33" x2="399" y1="139.3002" y2="139.3002"/><rect fill="#F24D5C" height="6" style="stroke: #C82930; stroke-width: 1.0;" width="6" x="40" y="147.3002"/><text fill="#000000" font-family="sans-serif" font-size="11" lengthAdjust="spacingAndGlyphs" textLength="342" x="52" y="153.9349">getInMemoryShowRequestRepository(): ShowRequestRepository</text><rect fill="#F24D5C" height="6" style="stroke: #C82930; stroke-width: 1.0;" width="6" x="40" y="160.2552"/><text fill="#000000" font-family="sans-serif" font-size="11" lengthAdjust="spacingAndGlyphs" textLength="287" x="52" y="166.89">getJpaShowRequestRepository(): ShowRequestJPAImpl</text><ellipse cx="43" cy="176.2103" fill="#84BE84" rx="3" ry="3" style="stroke: #038048; stroke-width: 1.0;"/><text fill="#000000" font-family="sans-serif" font-size="11" lengthAdjust="spacingAndGlyphs" textLength="150" x="52" y="179.8451">registerShowRequest(): void</text></a><!--MD5=[511702613d002c24c502e5b5d5f3ae28]
class controller.AuthenticationController--><a href="AuthenticationController.html" target="_top" title="AuthenticationController.html" xlink:actuate="onRequest" xlink:href="AuthenticationController.html" xlink:show="new" xlink:title="AuthenticationController.html" xlink:type="simple"><rect codeLine="11" fill="#FEFECE" filter="url(#f1ec2ras6cirn3)" height="177.5508" id="controller.AuthenticationController" style="stroke: #A80036; stroke-width: 1.5;" width="412" x="435" y="41"/><ellipse cx="568.25" cy="57" fill="#ADD1B2" rx="11" ry="11" style="stroke: #A80036; stroke-width: 1.0;"/><path d="M570.7231,63.1431 Q570.1421,63.4419 569.5029,63.5913 Q568.8638,63.7407 568.1582,63.7407 Q565.6514,63.7407 564.3315,62.0889 Q563.0117,60.437 563.0117,57.3159 Q563.0117,54.1865 564.3315,52.5347 Q565.6514,50.8828 568.1582,50.8828 Q568.8638,50.8828 569.5112,51.0322 Q570.1587,51.1816 570.7231,51.4805 L570.7231,54.2031 Q570.0923,53.6221 569.4988,53.3523 Q568.9053,53.0825 568.2744,53.0825 Q566.9297,53.0825 566.2449,54.1492 Q565.5601,55.2158 565.5601,57.3159 Q565.5601,59.4077 566.2449,60.4744 Q566.9297,61.541 568.2744,61.541 Q568.9053,61.541 569.4988,61.2712 Q570.0923,61.0015 570.7231,60.4204 Z "/><text fill="#000000" font-family="sans-serif" font-size="12" lengthAdjust="spacingAndGlyphs" textLength="137" x="588.75" y="61.5352">AuthenticationController</text><line style="stroke: #A80036; stroke-width: 1.5;" x1="436" x2="846" y1="73" y2="73"/><ellipse cx="446" cy="84" fill="none" rx="3" ry="3" style="stroke: #038048; stroke-width: 1.0;"/><text fill="#000000" font-family="sans-serif" font-size="11" lengthAdjust="spacingAndGlyphs" text-decoration="underline" textLength="108" x="455" y="87.6348">ROLE_ADMIN: String</text><ellipse cx="446" cy="96.9551" fill="none" rx="3" ry="3" style="stroke: #038048; stroke-width: 1.0;"/><text fill="#000000" font-family="sans-serif" font-size="11" lengthAdjust="spacingAndGlyphs" text-decoration="underline" textLength="156" x="455" y="100.5898">ROLE_CRM_MANAGER: String</text><ellipse cx="446" cy="109.9102" fill="none" rx="3" ry="3" style="stroke: #038048; stroke-width: 1.0;"/><text fill="#000000" font-family="sans-serif" font-size="11" lengthAdjust="spacingAndGlyphs" text-decoration="underline" textLength="192" x="455" y="113.5449">ROLE_CRM_COLLABORATOR: String</text><ellipse cx="446" cy="122.8652" fill="none" rx="3" ry="3" style="stroke: #038048; stroke-width: 1.0;"/><text fill="#000000" font-family="sans-serif" font-size="11" lengthAdjust="spacingAndGlyphs" text-decoration="underline" textLength="162" x="455" y="126.5">ROLE_SHOW_DESIGNER: String</text><ellipse cx="446" cy="135.8203" fill="none" rx="3" ry="3" style="stroke: #038048; stroke-width: 1.0;"/><text fill="#000000" font-family="sans-serif" font-size="11" lengthAdjust="spacingAndGlyphs" text-decoration="underline" textLength="228" x="455" y="139.4551">ROLE_CUSTOMER_REPRESENTATIVE: String</text><ellipse cx="446" cy="148.7754" fill="none" rx="3" ry="3" style="stroke: #038048; stroke-width: 1.0;"/><text fill="#000000" font-family="sans-serif" font-size="11" lengthAdjust="spacingAndGlyphs" text-decoration="underline" textLength="145" x="455" y="152.4102">ROLE_DRONE_TECH: String</text><rect fill="none" height="6" style="stroke: #C82930; stroke-width: 1.0;" width="6" x="443" y="158.7305"/><text fill="#000000" font-family="sans-serif" font-size="11" lengthAdjust="spacingAndGlyphs" textLength="386" x="455" y="165.3652">inMemoryAuthenticationRepository: InMemoryAuthenticationRepository</text><line style="stroke: #A80036; stroke-width: 1.5;" x1="436" x2="846" y1="171.6855" y2="171.6855"/><ellipse cx="446" cy="182.6855" fill="#84BE84" rx="3" ry="3" style="stroke: #038048; stroke-width: 1.0;"/><text fill="#000000" font-family="sans-serif" font-size="11" lengthAdjust="spacingAndGlyphs" textLength="171" x="455" y="186.3203">doLogin(String, String): boolean</text><ellipse cx="446" cy="195.6406" fill="#84BE84" rx="3" ry="3" style="stroke: #038048; stroke-width: 1.0;"/><text fill="#000000" font-family="sans-serif" font-size="11" lengthAdjust="spacingAndGlyphs" textLength="194" x="455" y="199.2754">getUserRoles(): List&lt;UserRoleDTO&gt;</text><ellipse cx="446" cy="208.5957" fill="#84BE84" rx="3" ry="3" style="stroke: #038048; stroke-width: 1.0;"/><text fill="#000000" font-family="sans-serif" font-size="11" lengthAdjust="spacingAndGlyphs" textLength="89" x="455" y="212.2305">doLogout(): void</text></a><!--MD5=[6c46ee21cca65b193a3f359c1ea380e4]
class controller.GetListFiguresByCostumerController--><a href="GetListFiguresByCostumerController.html" target="_top" title="GetListFiguresByCostumerController.html" xlink:actuate="onRequest" xlink:href="GetListFiguresByCostumerController.html" xlink:show="new" xlink:title="GetListFiguresByCostumerController.html" xlink:type="simple"><rect codeLine="24" fill="#FEFECE" filter="url(#f1ec2ras6cirn3)" height="48" id="controller.GetListFiguresByCostumerController" style="stroke: #A80036; stroke-width: 1.5;" width="236" x="98" y="317.41"/><ellipse cx="113" cy="333.41" fill="#ADD1B2" rx="11" ry="11" style="stroke: #A80036; stroke-width: 1.0;"/><path d="M115.4731,339.5531 Q114.8921,339.8519 114.2529,340.0013 Q113.6138,340.1507 112.9082,340.1507 Q110.4014,340.1507 109.0815,338.4989 Q107.7617,336.847 107.7617,333.7259 Q107.7617,330.5965 109.0815,328.9447 Q110.4014,327.2928 112.9082,327.2928 Q113.6138,327.2928 114.2612,327.4422 Q114.9087,327.5916 115.4731,327.8905 L115.4731,330.6131 Q114.8423,330.0321 114.2488,329.7623 Q113.6553,329.4925 113.0244,329.4925 Q111.6797,329.4925 110.9949,330.5592 Q110.3101,331.6258 110.3101,333.7259 Q110.3101,335.8177 110.9949,336.8844 Q111.6797,337.951 113.0244,337.951 Q113.6553,337.951 114.2488,337.6812 Q114.8423,337.4115 115.4731,336.8304 Z "/><text fill="#000000" font-family="sans-serif" font-size="12" lengthAdjust="spacingAndGlyphs" textLength="204" x="127" y="337.9452">GetListFiguresByCostumerController</text><line style="stroke: #A80036; stroke-width: 1.5;" x1="99" x2="333" y1="349.41" y2="349.41"/><line style="stroke: #A80036; stroke-width: 1.5;" x1="99" x2="333" y1="357.41" y2="357.41"/></a><!--MD5=[9a405ed61e859808c4d32e0394f45b60]
class controller.ListCostumersController--><a href="ListCostumersController.html" target="_top" title="ListCostumersController.html" xlink:actuate="onRequest" xlink:href="ListCostumersController.html" xlink:show="new" xlink:title="ListCostumersController.html" xlink:type="simple"><rect codeLine="26" fill="#FEFECE" filter="url(#f1ec2ras6cirn3)" height="125.7305" id="controller.ListCostumersController" style="stroke: #A80036; stroke-width: 1.5;" width="321" x="368.5" y="278.55"/><ellipse cx="456.75" cy="294.55" fill="#ADD1B2" rx="11" ry="11" style="stroke: #A80036; stroke-width: 1.0;"/><path d="M459.2231,300.6931 Q458.6421,300.9919 458.0029,301.1413 Q457.3638,301.2907 456.6582,301.2907 Q454.1514,301.2907 452.8315,299.6389 Q451.5117,297.987 451.5117,294.8659 Q451.5117,291.7365 452.8315,290.0847 Q454.1514,288.4328 456.6582,288.4328 Q457.3638,288.4328 458.0112,288.5822 Q458.6587,288.7316 459.2231,289.0305 L459.2231,291.7531 Q458.5923,291.1721 457.9988,290.9023 Q457.4053,290.6325 456.7744,290.6325 Q455.4297,290.6325 454.7449,291.6992 Q454.0601,292.7658 454.0601,294.8659 Q454.0601,296.9577 454.7449,298.0244 Q455.4297,299.091 456.7744,299.091 Q457.4053,299.091 457.9988,298.8212 Q458.5923,298.5515 459.2231,297.9704 Z "/><text fill="#000000" font-family="sans-serif" font-size="12" lengthAdjust="spacingAndGlyphs" textLength="136" x="477.25" y="299.0852">ListCostumersController</text><line style="stroke: #A80036; stroke-width: 1.5;" x1="369.5" x2="688.5" y1="310.55" y2="310.55"/><rect fill="none" height="6" style="stroke: #C82930; stroke-width: 1.0;" width="6" x="376.5" y="318.55"/><text fill="#000000" font-family="sans-serif" font-size="11" lengthAdjust="spacingAndGlyphs" textLength="281" x="388.5" y="325.1848">inMemoryCostumerRepository: CostumerRepository</text><line style="stroke: #A80036; stroke-width: 1.5;" x1="369.5" x2="688.5" y1="331.5051" y2="331.5051"/><rect fill="#F24D5C" height="6" style="stroke: #C82930; stroke-width: 1.0;" width="6" x="376.5" y="339.5051"/><text fill="#000000" font-family="sans-serif" font-size="11" lengthAdjust="spacingAndGlyphs" textLength="269" x="388.5" y="346.1398">getJpaCustomerRepository(): CostumerRepository</text><ellipse cx="379.5" cy="355.4602" fill="#84BE84" rx="3" ry="3" style="stroke: #038048; stroke-width: 1.0;"/><text fill="#000000" font-family="sans-serif" font-size="11" lengthAdjust="spacingAndGlyphs" textLength="239" x="388.5" y="359.0949">foundCustomerByID(): Optional&lt;Customer&gt;</text><ellipse cx="379.5" cy="368.4152" fill="#84BE84" rx="3" ry="3" style="stroke: #038048; stroke-width: 1.0;"/><text fill="#000000" font-family="sans-serif" font-size="11" lengthAdjust="spacingAndGlyphs" textLength="295" x="388.5" y="372.05">foundCustomerByName(): Optional&lt;List&lt;Customer&gt;&gt;</text><ellipse cx="379.5" cy="381.3703" fill="#84BE84" rx="3" ry="3" style="stroke: #038048; stroke-width: 1.0;"/><text fill="#000000" font-family="sans-serif" font-size="11" lengthAdjust="spacingAndGlyphs" textLength="245" x="388.5" y="385.0051">foundCustomerByNIF(): Optional&lt;Customer&gt;</text><ellipse cx="379.5" cy="394.3254" fill="#84BE84" rx="3" ry="3" style="stroke: #038048; stroke-width: 1.0;"/><text fill="#000000" font-family="sans-serif" font-size="11" lengthAdjust="spacingAndGlyphs" textLength="252" x="388.5" y="397.9602">getAllCustomer(): Optional&lt;List&lt;Customer&gt;&gt;</text></a><!--MD5=[5b6de4a34b5f8c3051decaada8b708ab]
link controller.RegisterShowRequestController to controller.AuthenticationController--><!--MD5=[345f82b9cadec998d93e2d7641a8da87]
link controller.RegisterShowRequestController to controller.GetListFiguresByCostumerController--><!--MD5=[edb3962f5294770ab2e9f4aac3e0fb9c]
link controller.GetListFiguresByCostumerController to controller.ListCostumersController--><text fill="#888888" font-family="sans-serif" font-size="10" lengthAdjust="spacingAndGlyphs" textLength="188" x="339.5" y="435.948">UMLDoclet 2.0.12, PlantUML 1.2020.16</text><!--MD5=[a9572b5e7af64bae8775dcd2d426e923]
@startuml
    namespace controller {

        class RegisterShowRequestController [[RegisterShowRequestController.html]] {
            -inMemoryShowRequestRepository: ShowRequestRepository
            -jpaShowRequestRepository: ShowRequestJPAImpl
            -getInMemoryShowRequestRepository(): ShowRequestRepository
            -getJpaShowRequestRepository(): ShowRequestJPAImpl
            +registerShowRequest(): void
        }

        class AuthenticationController [[AuthenticationController.html]] {
            {static} +ROLE_ADMIN: String
            {static} +ROLE_CRM_MANAGER: String
            {static} +ROLE_CRM_COLLABORATOR: String
            {static} +ROLE_SHOW_DESIGNER: String
            {static} +ROLE_CUSTOMER_REPRESENTATIVE: String
            {static} +ROLE_DRONE_TECH: String
            -inMemoryAuthenticationRepository: InMemoryAuthenticationRepository
            +doLogin(String, String): boolean
            +getUserRoles(): List<UserRoleDTO>
            +doLogout(): void
        }

        class GetListFiguresByCostumerController [[GetListFiguresByCostumerController.html]]

        class ListCostumersController [[ListCostumersController.html]] {
            -inMemoryCostumerRepository: CostumerRepository
            -getJpaCustomerRepository(): CostumerRepository
            +foundCustomerByID(): Optional<Customer>
            +foundCustomerByName(): Optional<List<Customer>>
            +foundCustomerByNIF(): Optional<Customer>
            +getAllCustomer(): Optional<List<Customer>>
        }

    }

    center footer UMLDoclet 2.0.12, PlantUML 1.2020.16
@enduml

PlantUML version 1.2020.16(Sun Aug 23 21:20:43 WEST 2020)
(APACHE source distribution)
Java Runtime: OpenJDK Runtime Environment
JVM: OpenJDK 64-Bit Server VM
Default Encoding: UTF-8
Language: pt
Country: PT
--></g></svg>