<?xml version="1.0" encoding="UTF-8" standalone="no"?><svg xmlns="http://www.w3.org/2000/svg" xmlns:xlink="http://www.w3.org/1999/xlink" contentScriptType="application/ecmascript" contentStyleType="text/css" height="156px" preserveAspectRatio="none" style="width:394px;height:156px;" version="1.1" viewBox="0 0 394 156" width="394px" zoomAndPan="magnify"><defs><filter height="300%" id="f1o1d4geeyvotm" width="300%" x="-1" y="-1"><feGaussianBlur result="blurOut" stdDeviation="2.0"/><feColorMatrix in="blurOut" result="blurOut2" type="matrix" values="0 0 0 0 0 0 0 0 0 0 0 0 0 0 0 0 0 0 .4 0"/><feOffset dx="4.0" dy="4.0" in="blurOut2" result="blurOut3"/><feBlend in="SourceGraphic" in2="blurOut3" mode="normal"/></filter></defs><g><!--MD5=[0ec45c611c2fe89594ca56ab527fdce0]
class controller.RegisterShowRequestController--><a href="RegisterShowRequestController.html" target="_top" title="RegisterShowRequestController.html" xlink:actuate="onRequest" xlink:href="RegisterShowRequestController.html" xlink:show="new" xlink:title="RegisterShowRequestController.html" xlink:type="simple"><rect codeLine="5" fill="#FEFECE" filter="url(#f1o1d4geeyvotm)" height="119.041" id="controller.RegisterShowRequestController" style="stroke: #A80036; stroke-width: 1.5;" width="368" x="7" y="7"/><ellipse cx="77.75" cy="26.1328" fill="#ADD1B2" rx="11" ry="11" style="stroke: #A80036; stroke-width: 1.0;"/><path d="M80.2231,32.2759 Q79.6421,32.5747 79.0029,32.7241 Q78.3638,32.8735 77.6582,32.8735 Q75.1514,32.8735 73.8315,31.2217 Q72.5117,29.5698 72.5117,26.4487 Q72.5117,23.3193 73.8315,21.6675 Q75.1514,20.0156 77.6582,20.0156 Q78.3638,20.0156 79.0112,20.165 Q79.6587,20.3145 80.2231,20.6133 L80.2231,23.3359 Q79.5923,22.7549 78.9988,22.4851 Q78.4053,22.2153 77.7744,22.2153 Q76.4297,22.2153 75.7449,23.282 Q75.0601,24.3486 75.0601,26.4487 Q75.0601,28.5405 75.7449,29.6072 Q76.4297,30.6738 77.7744,30.6738 Q78.4053,30.6738 78.9988,30.4041 Q79.5923,30.1343 80.2231,29.5532 Z "/><text fill="#000000" font-family="sans-serif" font-size="14" lengthAdjust="spacingAndGlyphs" textLength="218" x="98.25" y="25.5352">RegisterShowRequestController</text><text fill="#000000" font-family="sans-serif" font-size="10" lengthAdjust="spacingAndGlyphs" textLength="47" x="183.75" y="38.1563">controller</text><line style="stroke: #A80036; stroke-width: 1.5;" x1="8" x2="374" y1="45.2656" y2="45.2656"/><rect fill="none" height="6" style="stroke: #C82930; stroke-width: 1.0;" width="6" x="15" y="53.2656"/><text fill="#000000" font-family="sans-serif" font-size="11" lengthAdjust="spacingAndGlyphs" textLength="317" x="27" y="59.9004">inMemoryShowRequestRepository: ShowRequestRepository</text><rect fill="none" height="6" style="stroke: #C82930; stroke-width: 1.0;" width="6" x="15" y="66.2207"/><text fill="#000000" font-family="sans-serif" font-size="11" lengthAdjust="spacingAndGlyphs" textLength="262" x="27" y="72.8555">jpaShowRequestRepository: ShowRequestJPAImpl</text><line style="stroke: #A80036; stroke-width: 1.5;" x1="8" x2="374" y1="79.1758" y2="79.1758"/><rect fill="#F24D5C" height="6" style="stroke: #C82930; stroke-width: 1.0;" width="6" x="15" y="87.1758"/><text fill="#000000" font-family="sans-serif" font-size="11" lengthAdjust="spacingAndGlyphs" textLength="342" x="27" y="93.8105">getInMemoryShowRequestRepository(): ShowRequestRepository</text><rect fill="#F24D5C" height="6" style="stroke: #C82930; stroke-width: 1.0;" width="6" x="15" y="100.1309"/><text fill="#000000" font-family="sans-serif" font-size="11" lengthAdjust="spacingAndGlyphs" textLength="287" x="27" y="106.7656">getJpaShowRequestRepository(): ShowRequestJPAImpl</text><ellipse cx="18" cy="116.0859" fill="#84BE84" rx="3" ry="3" style="stroke: #038048; stroke-width: 1.0;"/><text fill="#000000" font-family="sans-serif" font-size="11" lengthAdjust="spacingAndGlyphs" textLength="150" x="27" y="119.7207">registerShowRequest(): void</text></a><text fill="#888888" font-family="sans-serif" font-size="10" lengthAdjust="spacingAndGlyphs" textLength="188" x="97" y="142.709">UMLDoclet 2.0.12, PlantUML 1.2020.16</text><!--MD5=[92d73e239d783ac022ed96d7cba338bf]
@startuml
    set namespaceSeparator none
    hide empty fields
    hide empty methods

    class "<size:14>RegisterShowRequestController\n<size:10>controller" as controller.RegisterShowRequestController [[RegisterShowRequestController.html]] {
        -inMemoryShowRequestRepository: ShowRequestRepository
        -jpaShowRequestRepository: ShowRequestJPAImpl
        -getInMemoryShowRequestRepository(): ShowRequestRepository
        -getJpaShowRequestRepository(): ShowRequestJPAImpl
        +registerShowRequest(): void
    }

    center footer UMLDoclet 2.0.12, PlantUML 1.2020.16
@enduml

PlantUML version 1.2020.16(Sun Aug 23 21:20:43 WEST 2020)
(APACHE source distribution)
Java Runtime: OpenJDK Runtime Environment
JVM: OpenJDK 64-Bit Server VM
Default Encoding: UTF-8
Language: pt
Country: PT
--></g></svg>