<svg xmlns="http://www.w3.org/2000/svg" xmlns:xlink="http://www.w3.org/1999/xlink" contentStyleType="text/css" height="681px" preserveAspectRatio="none" style="width:1004px;height:681px;background:#FFFFFF;" version="1.1" viewBox="0 0 1004 681" width="1004px" zoomAndPan="magnify"><title>System Sequence Diagram (SSD) - Alternative One</title><defs/><g><text fill="#000000" font-family="sans-serif" font-size="14" font-weight="bold" lengthAdjust="spacing" textLength="347.3527" x="329.7244" y="29.9659">System Sequence Diagram (SSD) - Alternative One</text><rect fill="#FFFFFF" height="453.7118" style="stroke:#181818;stroke-width:1.0;" width="10" x="76.1558" y="134.1358"/><rect fill="#FFFFFF" height="31.706" style="stroke:#181818;stroke-width:1.0;" width="10" x="507.3151" y="157.8419"/><rect fill="#FFFFFF" height="351.5938" style="stroke:#181818;stroke-width:1.0;" width="10" x="507.3151" y="221.2539"/><rect fill="none" height="255.1818" style="stroke:#000000;stroke-width:1.5;" width="987.8015" x="10" y="325.6659"/><line style="stroke:#181818;stroke-width:0.5;stroke-dasharray:5.0,5.0;" x1="81" x2="81" y1="124.1358" y2="597.8477"/><line style="stroke:#181818;stroke-width:0.5;stroke-dasharray:5.0,5.0;" x1="511.5292" x2="511.5292" y1="124.1358" y2="597.8477"/><text fill="#000000" font-family="sans-serif" font-size="14" lengthAdjust="spacing" textLength="116.3116" x="20" y="120.0339">CRM Collaborator</text><ellipse cx="81.1558" cy="53.5679" fill="#E3E3E3" rx="8" ry="8" style="stroke:#181818;stroke-width:0.5;"/><path d="M81.1558,61.5679 L81.1558,88.5679 M68.1558,69.5679 L94.1558,69.5679 M81.1558,88.5679 L68.1558,103.5679 M81.1558,88.5679 L94.1558,103.5679 " fill="none" style="stroke:#181818;stroke-width:0.5;"/><text fill="#000000" font-family="sans-serif" font-size="14" lengthAdjust="spacing" textLength="116.3116" x="20" y="611.8136">CRM Collaborator</text><ellipse cx="81.1558" cy="624.4156" fill="#E3E3E3" rx="8" ry="8" style="stroke:#181818;stroke-width:0.5;"/><path d="M81.1558,632.4156 L81.1558,659.4156 M68.1558,640.4156 L94.1558,640.4156 M81.1558,659.4156 L68.1558,674.4156 M81.1558,659.4156 L94.1558,674.4156 " fill="none" style="stroke:#181818;stroke-width:0.5;"/><rect fill="#E3E3E3" height="33.0679" rx="2.5" ry="2.5" style="stroke:#181818;stroke-width:0.5;" width="61.5718" x="481.5292" y="90.0679"/><text fill="#000000" font-family="sans-serif" font-size="14" lengthAdjust="spacing" textLength="47.5718" x="488.5292" y="112.0339">System</text><rect fill="#E3E3E3" height="33.0679" rx="2.5" ry="2.5" style="stroke:#181818;stroke-width:0.5;" width="61.5718" x="481.5292" y="596.8477"/><text fill="#000000" font-family="sans-serif" font-size="14" lengthAdjust="spacing" textLength="47.5718" x="488.5292" y="618.8136">System</text><rect fill="#FFFFFF" height="453.7118" style="stroke:#181818;stroke-width:1.0;" width="10" x="76.1558" y="134.1358"/><rect fill="#FFFFFF" height="31.706" style="stroke:#181818;stroke-width:1.0;" width="10" x="507.3151" y="157.8419"/><rect fill="#FFFFFF" height="351.5938" style="stroke:#181818;stroke-width:1.0;" width="10" x="507.3151" y="221.2539"/><polygon fill="#181818" points="495.3151,153.8419,505.3151,157.8419,495.3151,161.8419,499.3151,157.8419" style="stroke:#181818;stroke-width:1.0;"/><line style="stroke:#181818;stroke-width:1.0;" x1="86.1558" x2="501.3151" y1="157.8419" y2="157.8419"/><text fill="#000000" font-family="sans-serif" font-size="13" font-weight="bold" lengthAdjust="spacing" textLength="7.436" x="93.1558" y="152.0328">1</text><text fill="#000000" font-family="sans-serif" font-size="13" lengthAdjust="spacing" textLength="198.6402" x="104.5918" y="152.0328">Ask to add a figure to a proposal</text><polygon fill="#181818" points="97.1558,185.5479,87.1558,189.5479,97.1558,193.5479,93.1558,189.5479" style="stroke:#181818;stroke-width:1.0;"/><line style="stroke:#181818;stroke-width:1.0;stroke-dasharray:2.0,2.0;" x1="91.1558" x2="511.3151" y1="189.5479" y2="189.5479"/><text fill="#000000" font-family="sans-serif" font-size="13" font-weight="bold" lengthAdjust="spacing" textLength="7.436" x="103.1558" y="183.7389">2</text><text fill="#000000" font-family="sans-serif" font-size="13" lengthAdjust="spacing" textLength="246.0122" x="114.5918" y="183.7389">list all figures for selection (valid figures)</text><polygon fill="#181818" points="495.3151,217.2539,505.3151,221.2539,495.3151,225.2539,499.3151,221.2539" style="stroke:#181818;stroke-width:1.0;"/><line style="stroke:#181818;stroke-width:1.0;" x1="86.1558" x2="501.3151" y1="221.2539" y2="221.2539"/><text fill="#000000" font-family="sans-serif" font-size="13" font-weight="bold" lengthAdjust="spacing" textLength="7.436" x="93.1558" y="215.4449">3</text><text fill="#000000" font-family="sans-serif" font-size="13" lengthAdjust="spacing" textLength="259.8572" x="104.5918" y="215.4449">select figures in the sequence to be shown</text><line style="stroke:#181818;stroke-width:1.0;" x1="517.3151" x2="559.3151" y1="252.9599" y2="252.9599"/><line style="stroke:#181818;stroke-width:1.0;" x1="559.3151" x2="559.3151" y1="252.9599" y2="265.9599"/><line style="stroke:#181818;stroke-width:1.0;" x1="518.3151" x2="559.3151" y1="265.9599" y2="265.9599"/><polygon fill="#181818" points="528.3151,261.9599,518.3151,265.9599,528.3151,269.9599,524.3151,265.9599" style="stroke:#181818;stroke-width:1.0;"/><text fill="#000000" font-family="sans-serif" font-size="13" font-weight="bold" lengthAdjust="spacing" textLength="7.436" x="524.3151" y="247.1509">4</text><text fill="#000000" font-family="sans-serif" font-size="13" lengthAdjust="spacing" textLength="157.9112" x="535.7511" y="247.1509">Add Figure to Proposal(...)</text><line style="stroke:#181818;stroke-width:1.0;" x1="517.3151" x2="559.3151" y1="297.6659" y2="297.6659"/><line style="stroke:#181818;stroke-width:1.0;" x1="559.3151" x2="559.3151" y1="297.6659" y2="310.6659"/><line style="stroke:#181818;stroke-width:1.0;" x1="518.3151" x2="559.3151" y1="310.6659" y2="310.6659"/><polygon fill="#181818" points="528.3151,306.6659,518.3151,310.6659,528.3151,314.6659,524.3151,310.6659" style="stroke:#181818;stroke-width:1.0;"/><text fill="#000000" font-family="sans-serif" font-size="13" font-weight="bold" lengthAdjust="spacing" textLength="7.436" x="524.3151" y="291.8569">5</text><text fill="#000000" font-family="sans-serif" font-size="13" lengthAdjust="spacing" textLength="117.5201" x="535.7511" y="291.8569">Validations Result's</text><path d="M10,325.6659 L72.459,325.6659 L72.459,335.3719 L62.459,345.3719 L10,345.3719 L10,325.6659 " fill="#EEEEEE" style="stroke:#000000;stroke-width:1.5;"/><rect fill="none" height="255.1818" style="stroke:#000000;stroke-width:1.5;" width="987.8015" x="10" y="325.6659"/><text fill="#000000" font-family="sans-serif" font-size="13" font-weight="bold" lengthAdjust="spacing" textLength="17.459" x="25" y="340.5629">alt</text><text fill="#000000" font-family="sans-serif" font-size="11" font-weight="bold" lengthAdjust="spacing" textLength="180.7617" x="87.459" y="339.4248">[Figure Inactive or Incompatible]</text><line style="stroke:#000000;stroke-width:1.0;stroke-dasharray:2.0,2.0;" x1="10" x2="997.8015" y1="346.3719" y2="346.3719"/><text fill="#000000" font-family="sans-serif" font-size="11" font-weight="bold" lengthAdjust="spacing" textLength="134.441" x="15" y="358.1308">[Consecutive Repetition]</text><polygon fill="#181818" points="97.1558,382.0598,87.1558,386.0598,97.1558,390.0598,93.1558,386.0598" style="stroke:#181818;stroke-width:1.0;"/><line style="stroke:#181818;stroke-width:1.0;stroke-dasharray:2.0,2.0;" x1="91.1558" x2="506.3151" y1="386.0598" y2="386.0598"/><text fill="#000000" font-family="sans-serif" font-size="13" font-weight="bold" lengthAdjust="spacing" textLength="7.436" x="103.1558" y="380.2508">6</text><text fill="#000000" font-family="sans-serif" font-size="13" lengthAdjust="spacing" textLength="385.7233" x="114.5918" y="380.2508">Error "Consecutive repetition of the same figure is not allowed"</text><line style="stroke:#000000;stroke-width:1.0;stroke-dasharray:2.0,2.0;" x1="10" x2="997.8015" y1="395.0598" y2="395.0598"/><text fill="#000000" font-family="sans-serif" font-size="11" font-weight="bold" lengthAdjust="spacing" textLength="116.0711" x="15" y="406.8187">[Inventory Exceeded]</text><polygon fill="#181818" points="97.1558,430.7477,87.1558,434.7477,97.1558,438.7477,93.1558,434.7477" style="stroke:#181818;stroke-width:1.0;"/><line style="stroke:#181818;stroke-width:1.0;stroke-dasharray:2.0,2.0;" x1="91.1558" x2="506.3151" y1="434.7477" y2="434.7477"/><text fill="#000000" font-family="sans-serif" font-size="13" font-weight="bold" lengthAdjust="spacing" textLength="7.436" x="103.1558" y="428.9387">7</text><text fill="#000000" font-family="sans-serif" font-size="13" lengthAdjust="spacing" textLength="277.6152" x="114.5918" y="428.9387">Error "Drone model count exceeds inventory"</text><line style="stroke:#000000;stroke-width:1.0;stroke-dasharray:2.0,2.0;" x1="10" x2="997.8015" y1="443.7477" y2="443.7477"/><text fill="#000000" font-family="sans-serif" font-size="11" font-weight="bold" lengthAdjust="spacing" textLength="49.3127" x="15" y="455.5067">[Success]</text><line style="stroke:#181818;stroke-width:1.0;" x1="517.3151" x2="559.3151" y1="483.4356" y2="483.4356"/><line style="stroke:#181818;stroke-width:1.0;" x1="559.3151" x2="559.3151" y1="483.4356" y2="496.4356"/><line style="stroke:#181818;stroke-width:1.0;" x1="518.3151" x2="559.3151" y1="496.4356" y2="496.4356"/><polygon fill="#181818" points="528.3151,492.4356,518.3151,496.4356,528.3151,500.4356,524.3151,496.4356" style="stroke:#181818;stroke-width:1.0;"/><text fill="#000000" font-family="sans-serif" font-size="13" font-weight="bold" lengthAdjust="spacing" textLength="7.436" x="524.3151" y="477.6266">8</text><text fill="#000000" font-family="sans-serif" font-size="13" lengthAdjust="spacing" textLength="440.0504" x="535.7511" y="477.6266">Update ShowProposal(figureId, droneTypeMapping, author, timestamp)</text><line style="stroke:#181818;stroke-width:1.0;" x1="517.3151" x2="559.3151" y1="528.1417" y2="528.1417"/><line style="stroke:#181818;stroke-width:1.0;" x1="559.3151" x2="559.3151" y1="528.1417" y2="541.1417"/><line style="stroke:#181818;stroke-width:1.0;" x1="518.3151" x2="559.3151" y1="541.1417" y2="541.1417"/><polygon fill="#181818" points="528.3151,537.1417,518.3151,541.1417,528.3151,545.1417,524.3151,541.1417" style="stroke:#181818;stroke-width:1.0;"/><text fill="#000000" font-family="sans-serif" font-size="13" font-weight="bold" lengthAdjust="spacing" textLength="7.436" x="524.3151" y="522.3327">9</text><text fill="#000000" font-family="sans-serif" font-size="13" lengthAdjust="spacing" textLength="131.5341" x="535.7511" y="522.3327">Persist ShowProposal</text><polygon fill="#181818" points="97.1558,568.8477,87.1558,572.8477,97.1558,576.8477,93.1558,572.8477" style="stroke:#181818;stroke-width:1.0;"/><line style="stroke:#181818;stroke-width:1.0;stroke-dasharray:2.0,2.0;" x1="91.1558" x2="511.3151" y1="572.8477" y2="572.8477"/><text fill="#000000" font-family="sans-serif" font-size="13" font-weight="bold" lengthAdjust="spacing" textLength="14.872" x="103.1558" y="567.0387">10</text><text fill="#000000" font-family="sans-serif" font-size="13" lengthAdjust="spacing" textLength="354.7183" x="122.0278" y="567.0387">Success "Figure [figureId] added to proposal [proposalId]"</text><!--SRC=[VLF1Zjem4BtdAqQv52JW0pXKGijMuh3gYhIzh7eOx04i7Dkr7IX_tx7ZfAbsQGw9CpD-R_pcELoKSUYnXTOQAyxUjWJHTrI5CUDGNF14JRnh0ayYeZdfQK4uexGtPKvmH1seggAANDhSGwGM6lhLaH44MuMdL3vhckqSbh3HaRp1gAu4NmrlmovQqxK7yhmMqNged_Oly6IrneFro94QCC0cvIhcZaeeXoP2tNFbRB-iCeIwOgHIN-KFB3yFZQrX4ouGBQ2KW71KfyvJ_WVdhRC1TGNyZ3W5ESNoApq5QycmFVuQj0eHKEk26E38uK2QbLFMmEoAMiaXEH_H93qaUjzv3pSoA0FnJ1mjKlCX3lnxjZSpQNSYIM4OkX-GMHBMuiken6lHORPQhUOVLFz8Hy5qh01x2fsEdqA5EWuGEvCP2RZzdH6sTLnyOFCG-uG7QmA9BXVioH7RXf6gZsHTmxFtsH2JFNxS0_RO2u1itp985S3OF0Xx8rdtb3jp9SDuTtZ-BOWaoV_JRRqrn7T3aWPXExOQvNr9ye9Ka9jE20hX7xY_GdrtCilE4narxVlSoGN8nFBjxkW5dUDxj02-2cVh5n1LIo5Yw-OFW5_9X-ItAVA38vKEeIx3UHiQ-9bk0CaqyC7uy3QiE5rNxxr9HbRJSERu0m00]--></g></svg>