<svg xmlns="http://www.w3.org/2000/svg" xmlns:xlink="http://www.w3.org/1999/xlink" contentStyleType="text/css" height="659px" preserveAspectRatio="none" style="width:1065px;height:659px;background:#FFFFFF;" version="1.1" viewBox="0 0 1065 659" width="1065px" zoomAndPan="magnify"><defs/><g><!--cluster usermanagement--><g id="cluster_usermanagement"><path d="M8.5,6.0137 L125.4307,6.0137 A3.75,3.75 0 0 1 127.9307,8.5137 L134.9307,30.6348 L1055.5,30.6348 A2.5,2.5 0 0 1 1058,33.1348 L1058,649.5137 A2.5,2.5 0 0 1 1055.5,652.0137 L8.5,652.0137 A2.5,2.5 0 0 1 6,649.5137 L6,8.5137 A2.5,2.5 0 0 1 8.5,6.0137 " fill="none" style="stroke:#000000;stroke-width:1.5;"/><line style="stroke:#000000;stroke-width:1.5;" x1="6" x2="134.9307" y1="30.6348" y2="30.6348"/><text fill="#000000" font-family="sans-serif" font-size="14" font-weight="bold" lengthAdjust="spacing" textLength="115.9307" x="10" y="23.1211">usermanagement</text></g><!--cluster domain--><g id="cluster_domain"><path d="M738.5,232.0137 L789.2793,232.0137 A3.75,3.75 0 0 1 791.7793,234.5137 L798.7793,256.6348 L1031.5,256.6348 A2.5,2.5 0 0 1 1034,259.1348 L1034,625.5137 A2.5,2.5 0 0 1 1031.5,628.0137 L738.5,628.0137 A2.5,2.5 0 0 1 736,625.5137 L736,234.5137 A2.5,2.5 0 0 1 738.5,232.0137 " fill="none" style="stroke:#000000;stroke-width:1.5;"/><line style="stroke:#000000;stroke-width:1.5;" x1="736" x2="798.7793" y1="256.6348" y2="256.6348"/><text fill="#000000" font-family="sans-serif" font-size="14" font-weight="bold" lengthAdjust="spacing" textLength="49.7793" x="740" y="249.1211">domain</text></g><!--cluster application--><g id="cluster_application"><path d="M32.5,51.0137 L107.3965,51.0137 A3.75,3.75 0 0 1 109.8965,53.5137 L116.8965,75.6348 L1031.5,75.6348 A2.5,2.5 0 0 1 1034,78.1348 L1034,205.5137 A2.5,2.5 0 0 1 1031.5,208.0137 L32.5,208.0137 A2.5,2.5 0 0 1 30,205.5137 L30,53.5137 A2.5,2.5 0 0 1 32.5,51.0137 " fill="none" style="stroke:#000000;stroke-width:1.5;"/><line style="stroke:#000000;stroke-width:1.5;" x1="30" x2="116.8965" y1="75.6348" y2="75.6348"/><text fill="#000000" font-family="sans-serif" font-size="14" font-weight="bold" lengthAdjust="spacing" textLength="73.8965" x="34" y="68.1211">application</text></g><!--cluster persistence--><g id="cluster_persistence"><path d="M154.5,297.5137 L233.3203,297.5137 A3.75,3.75 0 0 1 235.8203,300.0137 L242.8203,322.1348 L709.5,322.1348 A2.5,2.5 0 0 1 712,324.6348 L712,433.0137 A2.5,2.5 0 0 1 709.5,435.5137 L154.5,435.5137 A2.5,2.5 0 0 1 152,433.0137 L152,300.0137 A2.5,2.5 0 0 1 154.5,297.5137 " fill="none" style="stroke:#000000;stroke-width:1.5;"/><line style="stroke:#000000;stroke-width:1.5;" x1="152" x2="242.8203" y1="322.1348" y2="322.1348"/><text fill="#000000" font-family="sans-serif" font-size="14" font-weight="bold" lengthAdjust="spacing" textLength="77.8203" x="156" y="314.6211">persistence</text></g><!--class User--><g id="elem_User"><rect codeLine="4" fill="#F1F1F1" height="215.5898" id="User" rx="2.5" ry="2.5" style="stroke:#181818;stroke-width:0.5;" width="145.8477" x="791" y="269.0137"/><ellipse cx="844.8945" cy="285.0137" fill="#ADD1B2" rx="11" ry="11" style="stroke:#181818;stroke-width:1.0;"/><path d="M847.6602,280.8887 Q847.8164,280.6699 848.0039,280.5605 Q848.1914,280.4512 848.4102,280.4512 Q848.7852,280.4512 849.0195,280.7168 Q849.2539,280.9668 849.2539,281.5762 L849.2539,283.0293 Q849.2539,283.6387 849.0195,283.9043 Q848.7852,284.1699 848.4102,284.1699 Q848.0664,284.1699 847.8633,283.9668 Q847.6602,283.7793 847.5508,283.2637 Q847.5039,282.9043 847.3164,282.7168 Q846.9883,282.3418 846.3789,282.123 Q845.7695,281.9043 845.1445,281.9043 Q844.3789,281.9043 843.7383,282.2324 Q843.1133,282.5605 842.6133,283.3105 Q842.1289,284.0605 842.1289,285.0918 L842.1289,286.1855 Q842.1289,287.4199 843.0195,288.248 Q843.9102,289.0605 845.5039,289.0605 Q846.4414,289.0605 847.0977,288.8105 Q847.4883,288.6543 847.9102,288.2168 Q848.1758,287.9512 848.3164,287.873 Q848.4727,287.7949 848.6758,287.7949 Q849.0039,287.7949 849.2539,288.0605 Q849.5195,288.3105 849.5195,288.6543 Q849.5195,288.998 849.1758,289.4043 Q848.6758,289.9824 847.8789,290.3105 Q846.8008,290.7637 845.5039,290.7637 Q843.9883,290.7637 842.7852,290.1387 Q841.8008,289.6387 841.1133,288.5762 Q840.4258,287.498 840.4258,286.2168 L840.4258,285.0605 Q840.4258,283.7324 841.0352,282.5918 Q841.6602,281.4355 842.7539,280.8262 Q843.8477,280.2012 845.082,280.2012 Q845.8164,280.2012 846.457,280.373 Q847.1133,280.5293 847.6602,280.8887 Z " fill="#000000"/><text fill="#000000" font-family="sans-serif" font-size="14" lengthAdjust="spacing" textLength="29.5586" x="865.3945" y="290.8105">User</text><line style="stroke:#181818;stroke-width:0.5;" x1="792" x2="935.8477" y1="301.0137" y2="301.0137"/><text fill="#000000" font-family="sans-serif" font-size="14" lengthAdjust="spacing" textLength="54.4551" x="797" y="320.1211">-Email id</text><text fill="#000000" font-family="sans-serif" font-size="14" lengthAdjust="spacing" textLength="129.9375" x="797" y="338.7422">-Password password</text><text fill="#000000" font-family="sans-serif" font-size="14" lengthAdjust="spacing" textLength="80.1445" x="797" y="357.3633">-String name</text><text fill="#000000" font-family="sans-serif" font-size="14" lengthAdjust="spacing" textLength="133.8477" x="797" y="375.9844">-String phoneNumber</text><text fill="#000000" font-family="sans-serif" font-size="14" lengthAdjust="spacing" textLength="94.9512" x="797" y="394.6055">-boolean active</text><line style="stroke:#181818;stroke-width:0.5;" x1="792" x2="935.8477" y1="402.1191" y2="402.1191"/><text fill="#000000" font-family="sans-serif" font-size="14" lengthAdjust="spacing" textLength="99.21" x="797" y="421.2266">+activate(): void</text><text fill="#000000" font-family="sans-serif" font-size="14" lengthAdjust="spacing" textLength="114.7822" x="797" y="439.8477">+deactivate(): void</text><text fill="#000000" font-family="sans-serif" font-size="14" lengthAdjust="spacing" textLength="123.3408" x="797" y="458.4688">+isActive(): boolean</text><text fill="#000000" font-family="sans-serif" font-size="14" lengthAdjust="spacing" textLength="91.4238" x="797" y="477.0898">+getId(): Email</text></g><!--class Email--><g id="elem_Email"><rect codeLine="16" fill="#F1F1F1" height="66.6211" id="Email" rx="2.5" ry="2.5" style="stroke:#181818;stroke-width:0.5;" width="90.5928" x="752.5" y="545.0137"/><ellipse cx="778.1137" cy="561.0137" fill="#ADD1B2" rx="11" ry="11" style="stroke:#181818;stroke-width:1.0;"/><path d="M780.8793,556.8887 Q781.0355,556.6699 781.223,556.5605 Q781.4105,556.4512 781.6293,556.4512 Q782.0043,556.4512 782.2387,556.7168 Q782.473,556.9668 782.473,557.5762 L782.473,559.0293 Q782.473,559.6387 782.2387,559.9043 Q782.0043,560.1699 781.6293,560.1699 Q781.2855,560.1699 781.0824,559.9668 Q780.8793,559.7793 780.7699,559.2637 Q780.723,558.9043 780.5355,558.7168 Q780.2074,558.3418 779.598,558.123 Q778.9887,557.9043 778.3637,557.9043 Q777.598,557.9043 776.9574,558.2324 Q776.3324,558.5605 775.8324,559.3105 Q775.348,560.0605 775.348,561.0918 L775.348,562.1855 Q775.348,563.4199 776.2387,564.248 Q777.1293,565.0605 778.723,565.0605 Q779.6605,565.0605 780.3168,564.8105 Q780.7074,564.6543 781.1293,564.2168 Q781.3949,563.9512 781.5355,563.873 Q781.6918,563.7949 781.8949,563.7949 Q782.223,563.7949 782.473,564.0605 Q782.7387,564.3105 782.7387,564.6543 Q782.7387,564.998 782.3949,565.4043 Q781.8949,565.9824 781.098,566.3105 Q780.0199,566.7637 778.723,566.7637 Q777.2074,566.7637 776.0043,566.1387 Q775.0199,565.6387 774.3324,564.5762 Q773.6449,563.498 773.6449,562.2168 L773.6449,561.0605 Q773.6449,559.7324 774.2543,558.5918 Q774.8793,557.4355 775.973,556.8262 Q777.0668,556.2012 778.3012,556.2012 Q779.0355,556.2012 779.6762,556.373 Q780.3324,556.5293 780.8793,556.8887 Z " fill="#000000"/><text fill="#000000" font-family="sans-serif" font-size="14" lengthAdjust="spacing" textLength="35.0068" x="794.4723" y="566.8105">Email</text><line style="stroke:#181818;stroke-width:0.5;" x1="753.5" x2="842.0928" y1="577.0137" y2="577.0137"/><text fill="#000000" font-family="sans-serif" font-size="14" lengthAdjust="spacing" textLength="78.5928" x="758.5" y="596.1211">-String value</text><line style="stroke:#181818;stroke-width:0.5;" x1="753.5" x2="842.0928" y1="603.6348" y2="603.6348"/></g><!--class Password--><g id="elem_Password"><rect codeLine="20" fill="#F1F1F1" height="66.6211" id="Password" rx="2.5" ry="2.5" style="stroke:#181818;stroke-width:0.5;" width="138.8613" x="878.5" y="545.0137"/><ellipse cx="913.9267" cy="561.0137" fill="#ADD1B2" rx="11" ry="11" style="stroke:#181818;stroke-width:1.0;"/><path d="M916.6923,556.8887 Q916.8485,556.6699 917.036,556.5605 Q917.2235,556.4512 917.4423,556.4512 Q917.8173,556.4512 918.0517,556.7168 Q918.286,556.9668 918.286,557.5762 L918.286,559.0293 Q918.286,559.6387 918.0517,559.9043 Q917.8173,560.1699 917.4423,560.1699 Q917.0985,560.1699 916.8954,559.9668 Q916.6923,559.7793 916.5829,559.2637 Q916.536,558.9043 916.3485,558.7168 Q916.0204,558.3418 915.411,558.123 Q914.8017,557.9043 914.1767,557.9043 Q913.411,557.9043 912.7704,558.2324 Q912.1454,558.5605 911.6454,559.3105 Q911.161,560.0605 911.161,561.0918 L911.161,562.1855 Q911.161,563.4199 912.0517,564.248 Q912.9423,565.0605 914.536,565.0605 Q915.4735,565.0605 916.1298,564.8105 Q916.5204,564.6543 916.9423,564.2168 Q917.2079,563.9512 917.3485,563.873 Q917.5048,563.7949 917.7079,563.7949 Q918.036,563.7949 918.286,564.0605 Q918.5517,564.3105 918.5517,564.6543 Q918.5517,564.998 918.2079,565.4043 Q917.7079,565.9824 916.911,566.3105 Q915.8329,566.7637 914.536,566.7637 Q913.0204,566.7637 911.8173,566.1387 Q910.8329,565.6387 910.1454,564.5762 Q909.4579,563.498 909.4579,562.2168 L909.4579,561.0605 Q909.4579,559.7324 910.0673,558.5918 Q910.6923,557.4355 911.786,556.8262 Q912.8798,556.2012 914.1142,556.2012 Q914.8485,556.2012 915.4892,556.373 Q916.1454,556.5293 916.6923,556.8887 Z " fill="#000000"/><text fill="#000000" font-family="sans-serif" font-size="14" lengthAdjust="spacing" textLength="61.4688" x="932.4659" y="566.8105">Password</text><line style="stroke:#181818;stroke-width:0.5;" x1="879.5" x2="1016.3613" y1="577.0137" y2="577.0137"/><text fill="#000000" font-family="sans-serif" font-size="14" lengthAdjust="spacing" textLength="126.8613" x="884.5" y="596.1211">-String hashedValue</text><line style="stroke:#181818;stroke-width:0.5;" x1="879.5" x2="1016.3613" y1="603.6348" y2="603.6348"/></g><!--class FilterUsersController--><g id="elem_FilterUsersController"><rect codeLine="29" fill="#F1F1F1" height="66.6211" id="FilterUsersController" rx="2.5" ry="2.5" style="stroke:#181818;stroke-width:0.5;" width="291.7061" x="46" y="106.5137"/><ellipse cx="123.4238" cy="122.5137" fill="#ADD1B2" rx="11" ry="11" style="stroke:#181818;stroke-width:1.0;"/><path d="M126.1895,118.3887 Q126.3457,118.1699 126.5332,118.0605 Q126.7207,117.9512 126.9395,117.9512 Q127.3145,117.9512 127.5488,118.2168 Q127.7832,118.4668 127.7832,119.0762 L127.7832,120.5293 Q127.7832,121.1387 127.5488,121.4043 Q127.3145,121.6699 126.9395,121.6699 Q126.5957,121.6699 126.3926,121.4668 Q126.1895,121.2793 126.0801,120.7637 Q126.0332,120.4043 125.8457,120.2168 Q125.5176,119.8418 124.9082,119.623 Q124.2988,119.4043 123.6738,119.4043 Q122.9082,119.4043 122.2676,119.7324 Q121.6426,120.0605 121.1426,120.8105 Q120.6582,121.5605 120.6582,122.5918 L120.6582,123.6855 Q120.6582,124.9199 121.5488,125.748 Q122.4395,126.5605 124.0332,126.5605 Q124.9707,126.5605 125.627,126.3105 Q126.0176,126.1543 126.4395,125.7168 Q126.7051,125.4512 126.8457,125.373 Q127.002,125.2949 127.2051,125.2949 Q127.5332,125.2949 127.7832,125.5605 Q128.0488,125.8105 128.0488,126.1543 Q128.0488,126.498 127.7051,126.9043 Q127.2051,127.4824 126.4082,127.8105 Q125.3301,128.2637 124.0332,128.2637 Q122.5176,128.2637 121.3145,127.6387 Q120.3301,127.1387 119.6426,126.0762 Q118.9551,124.998 118.9551,123.7168 L118.9551,122.5605 Q118.9551,121.2324 119.5645,120.0918 Q120.1895,118.9355 121.2832,118.3262 Q122.377,117.7012 123.6113,117.7012 Q124.3457,117.7012 124.9863,117.873 Q125.6426,118.0293 126.1895,118.3887 Z " fill="#000000"/><text fill="#000000" font-family="sans-serif" font-size="14" lengthAdjust="spacing" textLength="128.3584" x="143.9238" y="128.3105">FilterUsersController</text><line style="stroke:#181818;stroke-width:0.5;" x1="47" x2="336.7061" y1="138.5137" y2="138.5137"/><line style="stroke:#181818;stroke-width:0.5;" x1="47" x2="336.7061" y1="146.5137" y2="146.5137"/><text fill="#000000" font-family="sans-serif" font-size="14" lengthAdjust="spacing" textLength="279.7061" x="52" y="165.6211">+getUsersByFilter(filterIndex: int): List&lt;User&gt;</text></g><!--class CheckUserStatusController--><g id="elem_CheckUserStatusController"><rect codeLine="33" fill="#F1F1F1" height="66.6211" id="CheckUserStatusController" rx="2.5" ry="2.5" style="stroke:#181818;stroke-width:0.5;" width="229.4717" x="788.5" y="106.5137"/><ellipse cx="816.0332" cy="122.5137" fill="#ADD1B2" rx="11" ry="11" style="stroke:#181818;stroke-width:1.0;"/><path d="M818.7988,118.3887 Q818.9551,118.1699 819.1426,118.0605 Q819.3301,117.9512 819.5488,117.9512 Q819.9238,117.9512 820.1582,118.2168 Q820.3926,118.4668 820.3926,119.0762 L820.3926,120.5293 Q820.3926,121.1387 820.1582,121.4043 Q819.9238,121.6699 819.5488,121.6699 Q819.2051,121.6699 819.002,121.4668 Q818.7988,121.2793 818.6895,120.7637 Q818.6426,120.4043 818.4551,120.2168 Q818.127,119.8418 817.5176,119.623 Q816.9082,119.4043 816.2832,119.4043 Q815.5176,119.4043 814.877,119.7324 Q814.252,120.0605 813.752,120.8105 Q813.2676,121.5605 813.2676,122.5918 L813.2676,123.6855 Q813.2676,124.9199 814.1582,125.748 Q815.0488,126.5605 816.6426,126.5605 Q817.5801,126.5605 818.2363,126.3105 Q818.627,126.1543 819.0488,125.7168 Q819.3145,125.4512 819.4551,125.373 Q819.6113,125.2949 819.8145,125.2949 Q820.1426,125.2949 820.3926,125.5605 Q820.6582,125.8105 820.6582,126.1543 Q820.6582,126.498 820.3145,126.9043 Q819.8145,127.4824 819.0176,127.8105 Q817.9395,128.2637 816.6426,128.2637 Q815.127,128.2637 813.9238,127.6387 Q812.9395,127.1387 812.252,126.0762 Q811.5645,124.998 811.5645,123.7168 L811.5645,122.5605 Q811.5645,121.2324 812.1738,120.0918 Q812.7988,118.9355 813.8926,118.3262 Q814.9863,117.7012 816.2207,117.7012 Q816.9551,117.7012 817.5957,117.873 Q818.252,118.0293 818.7988,118.3887 Z " fill="#000000"/><text fill="#000000" font-family="sans-serif" font-size="14" lengthAdjust="spacing" textLength="169.6201" x="832.8184" y="128.3105">CheckUserStatusController</text><line style="stroke:#181818;stroke-width:0.5;" x1="789.5" x2="1016.9717" y1="138.5137" y2="138.5137"/><line style="stroke:#181818;stroke-width:0.5;" x1="789.5" x2="1016.9717" y1="146.5137" y2="146.5137"/><text fill="#000000" font-family="sans-serif" font-size="14" lengthAdjust="spacing" textLength="217.4717" x="794.5" y="165.6211">+isUserActive(user: User): boolean</text></g><!--class UserStatusController--><g id="elem_UserStatusController"><rect codeLine="37" fill="#F1F1F1" height="103.8633" id="UserStatusController" rx="2.5" ry="2.5" style="stroke:#181818;stroke-width:0.5;" width="380.4912" x="373" y="88.0137"/><ellipse cx="494.0269" cy="104.0137" fill="#ADD1B2" rx="11" ry="11" style="stroke:#181818;stroke-width:1.0;"/><path d="M496.7925,99.8887 Q496.9487,99.6699 497.1362,99.5605 Q497.3237,99.4512 497.5425,99.4512 Q497.9175,99.4512 498.1519,99.7168 Q498.3862,99.9668 498.3862,100.5762 L498.3862,102.0293 Q498.3862,102.6387 498.1519,102.9043 Q497.9175,103.1699 497.5425,103.1699 Q497.1987,103.1699 496.9956,102.9668 Q496.7925,102.7793 496.6831,102.2637 Q496.6362,101.9043 496.4487,101.7168 Q496.1206,101.3418 495.5112,101.123 Q494.9019,100.9043 494.2769,100.9043 Q493.5112,100.9043 492.8706,101.2324 Q492.2456,101.5605 491.7456,102.3105 Q491.2612,103.0605 491.2612,104.0918 L491.2612,105.1855 Q491.2612,106.4199 492.1519,107.248 Q493.0425,108.0605 494.6362,108.0605 Q495.5737,108.0605 496.23,107.8105 Q496.6206,107.6543 497.0425,107.2168 Q497.3081,106.9512 497.4487,106.873 Q497.605,106.7949 497.8081,106.7949 Q498.1362,106.7949 498.3862,107.0605 Q498.6519,107.3105 498.6519,107.6543 Q498.6519,107.998 498.3081,108.4043 Q497.8081,108.9824 497.0112,109.3105 Q495.9331,109.7637 494.6362,109.7637 Q493.1206,109.7637 491.9175,109.1387 Q490.9331,108.6387 490.2456,107.5762 Q489.5581,106.498 489.5581,105.2168 L489.5581,104.0605 Q489.5581,102.7324 490.1675,101.5918 Q490.7925,100.4355 491.8862,99.8262 Q492.98,99.2012 494.2144,99.2012 Q494.9487,99.2012 495.5894,99.373 Q496.2456,99.5293 496.7925,99.8887 Z " fill="#000000"/><text fill="#000000" font-family="sans-serif" font-size="14" lengthAdjust="spacing" textLength="129.9375" x="514.5269" y="109.8105">UserStatusController</text><line style="stroke:#181818;stroke-width:0.5;" x1="374" x2="752.4912" y1="120.0137" y2="120.0137"/><line style="stroke:#181818;stroke-width:0.5;" x1="374" x2="752.4912" y1="128.0137" y2="128.0137"/><text fill="#000000" font-family="sans-serif" font-size="14" lengthAdjust="spacing" textLength="368.4912" x="379" y="147.1211">+changeUserStatus(user: User, activate: boolean): boolean</text><text fill="#000000" font-family="sans-serif" font-size="14" lengthAdjust="spacing" textLength="217.4854" x="379" y="165.7422">+activateUser(user: User): boolean</text><text fill="#000000" font-family="sans-serif" font-size="14" lengthAdjust="spacing" textLength="233.0576" x="379" y="184.3633">+deactivateUser(user: User): boolean</text></g><!--class UserRepository--><g id="elem_UserRepository"><rect codeLine="45" fill="#F1F1F1" height="85.2422" id="UserRepository" rx="2.5" ry="2.5" style="stroke:#181818;stroke-width:0.5;" width="157.1064" x="168.5" y="334.5137"/><ellipse cx="196.3839" cy="350.5137" fill="#B4A7E5" rx="11" ry="11" style="stroke:#181818;stroke-width:1.0;"/><path d="M197.337,347.1543 L197.337,353.8105 L199.0558,353.8105 Q199.6651,353.8105 199.9308,354.0449 Q200.1964,354.2793 200.1964,354.6699 Q200.1964,355.0449 199.9308,355.2793 Q199.6651,355.5137 199.0558,355.5137 L193.9151,355.5137 Q193.3058,355.5137 193.0401,355.2793 Q192.7745,355.0449 192.7745,354.6543 Q192.7745,354.2793 193.0401,354.0449 Q193.3058,353.8105 193.9151,353.8105 L195.6339,353.8105 L195.6339,347.1543 L193.9151,347.1543 Q193.3058,347.1543 193.0401,346.9199 Q192.7745,346.6855 192.7745,346.2949 Q192.7745,345.9199 193.0401,345.6855 Q193.3058,345.4512 193.9151,345.4512 L199.0558,345.4512 Q199.6651,345.4512 199.9308,345.6855 Q200.1964,345.9199 200.1964,346.2949 Q200.1964,346.6855 199.9308,346.9199 Q199.6651,347.1543 199.0558,347.1543 L197.337,347.1543 Z " fill="#000000"/><text fill="#000000" font-family="sans-serif" font-size="14" font-style="italic" lengthAdjust="spacing" textLength="96.4756" x="213.247" y="356.3105">UserRepository</text><line style="stroke:#181818;stroke-width:0.5;" x1="169.5" x2="324.6064" y1="366.5137" y2="366.5137"/><line style="stroke:#181818;stroke-width:0.5;" x1="169.5" x2="324.6064" y1="374.5137" y2="374.5137"/><text fill="#000000" font-family="sans-serif" font-size="14" lengthAdjust="spacing" textLength="145.1064" x="174.5" y="393.6211">+save(user: User): void</text><text fill="#000000" font-family="sans-serif" font-size="14" lengthAdjust="spacing" textLength="131.1064" x="174.5" y="412.2422">+findAll(): List&lt;User&gt;</text></g><!--class AuthenticationRepository--><g id="elem_AuthenticationRepository"><rect codeLine="50" fill="#F1F1F1" height="66.6211" id="AuthenticationRepository" rx="2.5" ry="2.5" style="stroke:#181818;stroke-width:0.5;" width="334.54" x="360.5" y="343.5137"/><ellipse cx="445.6963" cy="359.5137" fill="#B4A7E5" rx="11" ry="11" style="stroke:#181818;stroke-width:1.0;"/><path d="M446.6494,356.1543 L446.6494,362.8105 L448.3682,362.8105 Q448.9775,362.8105 449.2432,363.0449 Q449.5088,363.2793 449.5088,363.6699 Q449.5088,364.0449 449.2432,364.2793 Q448.9775,364.5137 448.3682,364.5137 L443.2275,364.5137 Q442.6182,364.5137 442.3525,364.2793 Q442.0869,364.0449 442.0869,363.6543 Q442.0869,363.2793 442.3525,363.0449 Q442.6182,362.8105 443.2275,362.8105 L444.9463,362.8105 L444.9463,356.1543 L443.2275,356.1543 Q442.6182,356.1543 442.3525,355.9199 Q442.0869,355.6855 442.0869,355.2949 Q442.0869,354.9199 442.3525,354.6855 Q442.6182,354.4512 443.2275,354.4512 L448.3682,354.4512 Q448.9775,354.4512 449.2432,354.6855 Q449.5088,354.9199 449.5088,355.2949 Q449.5088,355.6855 449.2432,355.9199 Q448.9775,356.1543 448.3682,356.1543 L446.6494,356.1543 Z " fill="#000000"/><text fill="#000000" font-family="sans-serif" font-size="14" font-style="italic" lengthAdjust="spacing" textLength="155.6475" x="466.1963" y="365.3105">AuthenticationRepository</text><line style="stroke:#181818;stroke-width:0.5;" x1="361.5" x2="694.04" y1="375.5137" y2="375.5137"/><line style="stroke:#181818;stroke-width:0.5;" x1="361.5" x2="694.04" y1="383.5137" y2="383.5137"/><text fill="#000000" font-family="sans-serif" font-size="14" lengthAdjust="spacing" textLength="322.54" x="366.5" y="402.6211">+setUserActive(userId: String, active: boolean): void</text></g><!--link User to Email--><g id="link_User_Email"><path codeLine="24" d="M828.58,485.0637 C821.37,506.8737 816.1951,522.5275 810.6751,539.2075 " fill="none" id="User-to-Email" style="stroke:#181818;stroke-width:1.0;"/><polygon fill="#181818" points="808.79,544.9037,815.4151,537.6161,810.3609,540.1569,807.8201,535.1027,808.79,544.9037" style="stroke:#181818;stroke-width:1.0;"/></g><!--link User to Password--><g id="link_User_Password"><path codeLine="25" d="M909.07,485.0637 C918.26,506.8737 924.9225,522.6935 931.9425,539.3735 " fill="none" id="User-to-Password" style="stroke:#181818;stroke-width:1.0;"/><polygon fill="#181818" points="934.27,544.9037,934.4656,535.0568,932.3305,540.2952,927.092,538.16,934.27,544.9037" style="stroke:#181818;stroke-width:1.0;"/></g><!--link FilterUsersController to UserRepository--><g id="link_FilterUsersController_UserRepository"><path codeLine="55" d="M199.65,173.6937 C209.45,215.5637 225.083,282.3615 235.823,328.2615 " fill="none" id="FilterUsersController-to-UserRepository" style="stroke:#181818;stroke-width:1.0;"/><polygon fill="#181818" points="237.19,334.1037,239.0343,324.429,236.0508,329.2352,231.2447,326.2517,237.19,334.1037" style="stroke:#181818;stroke-width:1.0;"/></g><!--link CheckUserStatusController to User--><g id="link_CheckUserStatusController_User"><path codeLine="56" d="M897.58,173.6937 C893.44,198.5937 888.4825,228.4747 882.7425,263.0547 " fill="none" id="CheckUserStatusController-to-User" style="stroke:#181818;stroke-width:1.0;"/><polygon fill="#181818" points="881.76,268.9737,887.1798,260.7502,882.5788,264.0412,879.2878,259.4402,881.76,268.9737" style="stroke:#181818;stroke-width:1.0;"/></g><!--link UserStatusController to User--><g id="link_UserStatusController_User"><path codeLine="57" d="M663.99,192.2337 C680.53,202.0337 697.11,212.7737 712,224.0137 C739.55,244.8137 762.8192,266.1594 786.6892,290.3894 " fill="none" id="UserStatusController-to-User" style="stroke:#181818;stroke-width:1.0;"/><polygon fill="#181818" points="790.9,294.6637,787.4334,285.4451,787.391,291.1018,781.7343,291.0594,790.9,294.6637" style="stroke:#181818;stroke-width:1.0;"/></g><!--link UserStatusController to UserRepository--><g id="link_UserStatusController_UserRepository"><path codeLine="58" d="M417.36,192.0337 C381.07,205.5537 350.32,218.0437 343,224.0137 C306.84,253.5037 282.7212,294.9531 266.7912,328.8631 " fill="none" id="UserStatusController-to-UserRepository" style="stroke:#181818;stroke-width:1.0;"/><polygon fill="#181818" points="264.24,334.2937,271.6871,327.8485,266.366,329.7682,264.4463,324.447,264.24,334.2937" style="stroke:#181818;stroke-width:1.0;"/></g><!--link UserStatusController to AuthenticationRepository--><g id="link_UserStatusController_AuthenticationRepository"><path codeLine="59" d="M555.36,192.2937 C548.52,238.2137 539.5842,298.2292 533.7542,337.3592 " fill="none" id="UserStatusController-to-AuthenticationRepository" style="stroke:#181818;stroke-width:1.0;"/><polygon fill="#181818" points="532.87,343.2937,538.1526,334.9814,533.6068,338.3483,530.2399,333.8025,532.87,343.2937" style="stroke:#181818;stroke-width:1.0;"/></g><!--SRC=[fL9TQy8m57tlhmW-EPnZppA4JZOGnXYJxVsQN6qmJKgIkZdnloz9QqshTG_BIyizvtwTSys6om8qv8GAC2QrLlDbQN5EbLpm7oJtIL80tS0QoQ0qg7EGxZz7QU-Ooe7B0TadnBsGJpuSfGxuDoPFZYC8Pr7epH6_b6Qag7yYRE7wopMHaEDvjCYKnDSoNwAEmALI0a4Ie9PlJrcZAW0MXpSJibNH22F2y0h8JHfAUQWk7g5hj7FceR1P00v9f42ryFvy-Ys84i_vZHeNKZ8m6RBFRc8GUJoUHYCqeMEvvD1l71I5u1GiLnttdhcmg7qjCrFIQYL4oywmVO0VTnLtk0gVkMJuFI5SMYVC2pVsmREcvzlECgGRZoqisBAl2pUUKhlWXv-41Jj-j0h_MPDc8DTueaLrRvjJQHfSjFx8yZdzOtKlx3hxSCsemYdjn4H9yMYKanZr2YY6OkzOACEjqhlMhWQwkdLEVCKbIuKOzhfrQfEMDdEprFVIrx0wYyYnEPlKLrohszAs6IUiV_di_3MtTqpwh-T8Jlw1HerwUNrg9By0]--></g></svg>