<svg xmlns="http://www.w3.org/2000/svg" xmlns:xlink="http://www.w3.org/1999/xlink" contentStyleType="text/css" height="703px" preserveAspectRatio="none" style="width:1034px;height:703px;background:#FFFFFF;" version="1.1" viewBox="0 0 1034 703" width="1034px" zoomAndPan="magnify"><defs/><g><!--cluster usermanagement--><g id="cluster_usermanagement"><path d="M8.5,6.0137 L125.4307,6.0137 A3.75,3.75 0 0 1 127.9307,8.5137 L134.9307,30.6348 L1024.5,30.6348 A2.5,2.5 0 0 1 1027,33.1348 L1027,693.5137 A2.5,2.5 0 0 1 1024.5,696.0137 L8.5,696.0137 A2.5,2.5 0 0 1 6,693.5137 L6,8.5137 A2.5,2.5 0 0 1 8.5,6.0137 " fill="none" style="stroke:#000000;stroke-width:1.5;"/><line style="stroke:#000000;stroke-width:1.5;" x1="6" x2="134.9307" y1="30.6348" y2="30.6348"/><text fill="#000000" font-family="sans-serif" font-size="14" font-weight="bold" lengthAdjust="spacing" textLength="115.9307" x="10" y="23.1211">usermanagement</text></g><!--cluster domain--><g id="cluster_domain"><path d="M737.5,257.0137 L788.2793,257.0137 A3.75,3.75 0 0 1 790.7793,259.5137 L797.7793,281.6348 L1000.5,281.6348 A2.5,2.5 0 0 1 1003,284.1348 L1003,669.5137 A2.5,2.5 0 0 1 1000.5,672.0137 L737.5,672.0137 A2.5,2.5 0 0 1 735,669.5137 L735,259.5137 A2.5,2.5 0 0 1 737.5,257.0137 " fill="none" style="stroke:#000000;stroke-width:1.5;"/><line style="stroke:#000000;stroke-width:1.5;" x1="735" x2="797.7793" y1="281.6348" y2="281.6348"/><text fill="#000000" font-family="sans-serif" font-size="14" font-weight="bold" lengthAdjust="spacing" textLength="49.7793" x="739" y="274.1211">domain</text></g><!--cluster application--><g id="cluster_application"><path d="M32.5,51.0137 L107.3965,51.0137 A3.75,3.75 0 0 1 109.8965,53.5137 L116.8965,75.6348 L708.5,75.6348 A2.5,2.5 0 0 1 711,78.1348 L711,467.0137 A2.5,2.5 0 0 1 708.5,469.5137 L32.5,469.5137 A2.5,2.5 0 0 1 30,467.0137 L30,53.5137 A2.5,2.5 0 0 1 32.5,51.0137 " fill="none" style="stroke:#000000;stroke-width:1.5;"/><line style="stroke:#000000;stroke-width:1.5;" x1="30" x2="116.8965" y1="75.6348" y2="75.6348"/><text fill="#000000" font-family="sans-serif" font-size="14" font-weight="bold" lengthAdjust="spacing" textLength="73.8965" x="34" y="68.1211">application</text></g><!--class User--><g id="elem_User"><rect codeLine="4" fill="#F1F1F1" height="234.2109" id="User" rx="2.5" ry="2.5" style="stroke:#181818;stroke-width:0.5;" width="236.499" x="751" y="294.0137"/><ellipse cx="850.2202" cy="310.0137" fill="#ADD1B2" rx="11" ry="11" style="stroke:#181818;stroke-width:1.0;"/><path d="M852.9858,305.8887 Q853.1421,305.6699 853.3296,305.5605 Q853.5171,305.4512 853.7358,305.4512 Q854.1108,305.4512 854.3452,305.7168 Q854.5796,305.9668 854.5796,306.5762 L854.5796,308.0293 Q854.5796,308.6387 854.3452,308.9043 Q854.1108,309.1699 853.7358,309.1699 Q853.3921,309.1699 853.189,308.9668 Q852.9858,308.7793 852.8765,308.2637 Q852.8296,307.9043 852.6421,307.7168 Q852.314,307.3418 851.7046,307.123 Q851.0952,306.9043 850.4702,306.9043 Q849.7046,306.9043 849.064,307.2324 Q848.439,307.5605 847.939,308.3105 Q847.4546,309.0605 847.4546,310.0918 L847.4546,311.1855 Q847.4546,312.4199 848.3452,313.248 Q849.2358,314.0605 850.8296,314.0605 Q851.7671,314.0605 852.4233,313.8105 Q852.814,313.6543 853.2358,313.2168 Q853.5015,312.9512 853.6421,312.873 Q853.7983,312.7949 854.0015,312.7949 Q854.3296,312.7949 854.5796,313.0605 Q854.8452,313.3105 854.8452,313.6543 Q854.8452,313.998 854.5015,314.4043 Q854.0015,314.9824 853.2046,315.3105 Q852.1265,315.7637 850.8296,315.7637 Q849.314,315.7637 848.1108,315.1387 Q847.1265,314.6387 846.439,313.5762 Q845.7515,312.498 845.7515,311.2168 L845.7515,310.0605 Q845.7515,308.7324 846.3608,307.5918 Q846.9858,306.4355 848.0796,305.8262 Q849.1733,305.2012 850.4077,305.2012 Q851.1421,305.2012 851.7827,305.373 Q852.439,305.5293 852.9858,305.8887 Z " fill="#000000"/><text fill="#000000" font-family="sans-serif" font-size="14" lengthAdjust="spacing" textLength="29.5586" x="870.7202" y="315.8105">User</text><line style="stroke:#181818;stroke-width:0.5;" x1="752" x2="986.499" y1="326.0137" y2="326.0137"/><text fill="#000000" font-family="sans-serif" font-size="14" lengthAdjust="spacing" textLength="54.4551" x="757" y="345.1211">-Email id</text><text fill="#000000" font-family="sans-serif" font-size="14" lengthAdjust="spacing" textLength="129.9375" x="757" y="363.7422">-Password password</text><text fill="#000000" font-family="sans-serif" font-size="14" lengthAdjust="spacing" textLength="80.1445" x="757" y="382.3633">-String name</text><text fill="#000000" font-family="sans-serif" font-size="14" lengthAdjust="spacing" textLength="133.8477" x="757" y="400.9844">-String phoneNumber</text><text fill="#000000" font-family="sans-serif" font-size="14" lengthAdjust="spacing" textLength="94.9512" x="757" y="419.6055">-boolean active</text><text fill="#000000" font-family="sans-serif" font-size="14" lengthAdjust="spacing" textLength="90.248" x="757" y="438.2266">-UserRole role</text><line style="stroke:#181818;stroke-width:0.5;" x1="752" x2="986.499" y1="445.7402" y2="445.7402"/><text fill="#000000" font-family="sans-serif" font-size="14" lengthAdjust="spacing" textLength="99.21" x="757" y="464.8477">+activate(): void</text><text fill="#000000" font-family="sans-serif" font-size="14" lengthAdjust="spacing" textLength="114.7822" x="757" y="483.4688">+deactivate(): void</text><text fill="#000000" font-family="sans-serif" font-size="14" lengthAdjust="spacing" textLength="123.3408" x="757" y="502.0898">+isActive(): boolean</text><text fill="#000000" font-family="sans-serif" font-size="14" lengthAdjust="spacing" textLength="224.499" x="757" y="520.7109">+isSameAs(otherId: Email): boolean</text></g><!--class Email--><g id="elem_Email"><rect codeLine="17" fill="#F1F1F1" height="66.6211" id="Email" rx="2.5" ry="2.5" style="stroke:#181818;stroke-width:0.5;" width="90.5928" x="823.5" y="589.0137"/><ellipse cx="849.1137" cy="605.0137" fill="#ADD1B2" rx="11" ry="11" style="stroke:#181818;stroke-width:1.0;"/><path d="M851.8793,600.8887 Q852.0355,600.6699 852.223,600.5605 Q852.4105,600.4512 852.6293,600.4512 Q853.0043,600.4512 853.2387,600.7168 Q853.473,600.9668 853.473,601.5762 L853.473,603.0293 Q853.473,603.6387 853.2387,603.9043 Q853.0043,604.1699 852.6293,604.1699 Q852.2855,604.1699 852.0824,603.9668 Q851.8793,603.7793 851.7699,603.2637 Q851.723,602.9043 851.5355,602.7168 Q851.2074,602.3418 850.598,602.123 Q849.9887,601.9043 849.3637,601.9043 Q848.598,601.9043 847.9574,602.2324 Q847.3324,602.5605 846.8324,603.3105 Q846.348,604.0605 846.348,605.0918 L846.348,606.1855 Q846.348,607.4199 847.2387,608.248 Q848.1293,609.0605 849.723,609.0605 Q850.6605,609.0605 851.3168,608.8105 Q851.7074,608.6543 852.1293,608.2168 Q852.3949,607.9512 852.5355,607.873 Q852.6918,607.7949 852.8949,607.7949 Q853.223,607.7949 853.473,608.0605 Q853.7387,608.3105 853.7387,608.6543 Q853.7387,608.998 853.3949,609.4043 Q852.8949,609.9824 852.098,610.3105 Q851.0199,610.7637 849.723,610.7637 Q848.2074,610.7637 847.0043,610.1387 Q846.0199,609.6387 845.3324,608.5762 Q844.6449,607.498 844.6449,606.2168 L844.6449,605.0605 Q844.6449,603.7324 845.2543,602.5918 Q845.8793,601.4355 846.973,600.8262 Q848.0668,600.2012 849.3012,600.2012 Q850.0355,600.2012 850.6762,600.373 Q851.3324,600.5293 851.8793,600.8887 Z " fill="#000000"/><text fill="#000000" font-family="sans-serif" font-size="14" lengthAdjust="spacing" textLength="35.0068" x="865.4723" y="610.8105">Email</text><line style="stroke:#181818;stroke-width:0.5;" x1="824.5" x2="913.0928" y1="621.0137" y2="621.0137"/><text fill="#000000" font-family="sans-serif" font-size="14" lengthAdjust="spacing" textLength="78.5928" x="829.5" y="640.1211">-String value</text><line style="stroke:#181818;stroke-width:0.5;" x1="824.5" x2="913.0928" y1="647.6348" y2="647.6348"/></g><!--class ToggleUserStatusController--><g id="elem_ToggleUserStatusController"><rect codeLine="25" fill="#F1F1F1" height="103.8633" id="ToggleUserStatusController" rx="2.5" ry="2.5" style="stroke:#181818;stroke-width:0.5;" width="417.084" x="277.5" y="88.0137"/><ellipse cx="395.4199" cy="104.0137" fill="#ADD1B2" rx="11" ry="11" style="stroke:#181818;stroke-width:1.0;"/><path d="M398.1855,99.8887 Q398.3418,99.6699 398.5293,99.5605 Q398.7168,99.4512 398.9355,99.4512 Q399.3105,99.4512 399.5449,99.7168 Q399.7793,99.9668 399.7793,100.5762 L399.7793,102.0293 Q399.7793,102.6387 399.5449,102.9043 Q399.3105,103.1699 398.9355,103.1699 Q398.5918,103.1699 398.3887,102.9668 Q398.1855,102.7793 398.0762,102.2637 Q398.0293,101.9043 397.8418,101.7168 Q397.5137,101.3418 396.9043,101.123 Q396.2949,100.9043 395.6699,100.9043 Q394.9043,100.9043 394.2637,101.2324 Q393.6387,101.5605 393.1387,102.3105 Q392.6543,103.0605 392.6543,104.0918 L392.6543,105.1855 Q392.6543,106.4199 393.5449,107.248 Q394.4355,108.0605 396.0293,108.0605 Q396.9668,108.0605 397.623,107.8105 Q398.0137,107.6543 398.4355,107.2168 Q398.7012,106.9512 398.8418,106.873 Q398.998,106.7949 399.2012,106.7949 Q399.5293,106.7949 399.7793,107.0605 Q400.0449,107.3105 400.0449,107.6543 Q400.0449,107.998 399.7012,108.4043 Q399.2012,108.9824 398.4043,109.3105 Q397.3262,109.7637 396.0293,109.7637 Q394.5137,109.7637 393.3105,109.1387 Q392.3262,108.6387 391.6387,107.5762 Q390.9512,106.498 390.9512,105.2168 L390.9512,104.0605 Q390.9512,102.7324 391.5605,101.5918 Q392.1855,100.4355 393.2793,99.8262 Q394.373,99.2012 395.6074,99.2012 Q396.3418,99.2012 396.9824,99.373 Q397.6387,99.5293 398.1855,99.8887 Z " fill="#000000"/><text fill="#000000" font-family="sans-serif" font-size="14" lengthAdjust="spacing" textLength="172.7441" x="415.9199" y="109.8105">ToggleUserStatusController</text><line style="stroke:#181818;stroke-width:0.5;" x1="278.5" x2="693.584" y1="120.0137" y2="120.0137"/><text fill="#000000" font-family="sans-serif" font-size="14" lengthAdjust="spacing" textLength="165.7305" x="283.5" y="139.1211">-UserRepository userRepo</text><text fill="#000000" font-family="sans-serif" font-size="14" lengthAdjust="spacing" textLength="210.8818" x="283.5" y="157.7422">-AuthorizationService authService</text><line style="stroke:#181818;stroke-width:0.5;" x1="278.5" x2="693.584" y1="165.2559" y2="165.2559"/><text fill="#000000" font-family="sans-serif" font-size="14" lengthAdjust="spacing" textLength="405.084" x="283.5" y="184.3633">+toggleUserStatus(targetEmail: String, enable: boolean): boolean</text></g><!--class UserRepository--><g id="elem_UserRepository"><rect codeLine="31" fill="#F1F1F1" height="85.2422" id="UserRepository" rx="2.5" ry="2.5" style="stroke:#181818;stroke-width:0.5;" width="218.5615" x="46.5" y="368.5137"/><ellipse cx="103.293" cy="384.5137" fill="#B4A7E5" rx="11" ry="11" style="stroke:#181818;stroke-width:1.0;"/><path d="M104.2461,381.1543 L104.2461,387.8105 L105.9648,387.8105 Q106.5742,387.8105 106.8398,388.0449 Q107.1055,388.2793 107.1055,388.6699 Q107.1055,389.0449 106.8398,389.2793 Q106.5742,389.5137 105.9648,389.5137 L100.8242,389.5137 Q100.2148,389.5137 99.9492,389.2793 Q99.6836,389.0449 99.6836,388.6543 Q99.6836,388.2793 99.9492,388.0449 Q100.2148,387.8105 100.8242,387.8105 L102.543,387.8105 L102.543,381.1543 L100.8242,381.1543 Q100.2148,381.1543 99.9492,380.9199 Q99.6836,380.6855 99.6836,380.2949 Q99.6836,379.9199 99.9492,379.6855 Q100.2148,379.4512 100.8242,379.4512 L105.9648,379.4512 Q106.5742,379.4512 106.8398,379.6855 Q107.1055,379.9199 107.1055,380.2949 Q107.1055,380.6855 106.8398,380.9199 Q106.5742,381.1543 105.9648,381.1543 L104.2461,381.1543 Z " fill="#000000"/><text fill="#000000" font-family="sans-serif" font-size="14" font-style="italic" lengthAdjust="spacing" textLength="96.4756" x="123.793" y="390.3105">UserRepository</text><line style="stroke:#181818;stroke-width:0.5;" x1="47.5" x2="264.0615" y1="400.5137" y2="400.5137"/><line style="stroke:#181818;stroke-width:0.5;" x1="47.5" x2="264.0615" y1="408.5137" y2="408.5137"/><text fill="#000000" font-family="sans-serif" font-size="14" lengthAdjust="spacing" textLength="206.5615" x="52.5" y="427.6211">+findByEmail(email: String): User</text><text fill="#000000" font-family="sans-serif" font-size="14" lengthAdjust="spacing" textLength="145.1064" x="52.5" y="446.2422">+save(user: User): void</text></g><!--class AuthorizationService--><g id="elem_AuthorizationService"><rect codeLine="36" fill="#F1F1F1" height="85.2422" id="AuthorizationService" rx="2.5" ry="2.5" style="stroke:#181818;stroke-width:0.5;" width="393.6367" x="301" y="368.5137"/><ellipse cx="429.3687" cy="384.5137" fill="#ADD1B2" rx="11" ry="11" style="stroke:#181818;stroke-width:1.0;"/><path d="M432.1343,380.3887 Q432.2905,380.1699 432.478,380.0605 Q432.6655,379.9512 432.8843,379.9512 Q433.2593,379.9512 433.4937,380.2168 Q433.728,380.4668 433.728,381.0762 L433.728,382.5293 Q433.728,383.1387 433.4937,383.4043 Q433.2593,383.6699 432.8843,383.6699 Q432.5405,383.6699 432.3374,383.4668 Q432.1343,383.2793 432.0249,382.7637 Q431.978,382.4043 431.7905,382.2168 Q431.4624,381.8418 430.853,381.623 Q430.2437,381.4043 429.6187,381.4043 Q428.853,381.4043 428.2124,381.7324 Q427.5874,382.0605 427.0874,382.8105 Q426.603,383.5605 426.603,384.5918 L426.603,385.6855 Q426.603,386.9199 427.4937,387.748 Q428.3843,388.5605 429.978,388.5605 Q430.9155,388.5605 431.5718,388.3105 Q431.9624,388.1543 432.3843,387.7168 Q432.6499,387.4512 432.7905,387.373 Q432.9468,387.2949 433.1499,387.2949 Q433.478,387.2949 433.728,387.5605 Q433.9937,387.8105 433.9937,388.1543 Q433.9937,388.498 433.6499,388.9043 Q433.1499,389.4824 432.353,389.8105 Q431.2749,390.2637 429.978,390.2637 Q428.4624,390.2637 427.2593,389.6387 Q426.2749,389.1387 425.5874,388.0762 Q424.8999,386.998 424.8999,385.7168 L424.8999,384.5605 Q424.8999,383.2324 425.5093,382.0918 Q426.1343,380.9355 427.228,380.3262 Q428.3218,379.7012 429.5562,379.7012 Q430.2905,379.7012 430.9312,379.873 Q431.5874,380.0293 432.1343,380.3887 Z " fill="#000000"/><text fill="#000000" font-family="sans-serif" font-size="14" lengthAdjust="spacing" textLength="128.3994" x="449.8687" y="390.3105">AuthorizationService</text><line style="stroke:#181818;stroke-width:0.5;" x1="302" x2="693.6367" y1="400.5137" y2="400.5137"/><line style="stroke:#181818;stroke-width:0.5;" x1="302" x2="693.6367" y1="408.5137" y2="408.5137"/><text fill="#000000" font-family="sans-serif" font-size="14" lengthAdjust="spacing" textLength="275.8232" x="307" y="427.6211">+isAdmin(currentUserEmail: Email): boolean</text><text fill="#000000" font-family="sans-serif" font-size="14" lengthAdjust="spacing" textLength="381.6367" x="307" y="446.2422">+isSelf(currentUserEmail: Email, targetEmail: Email): boolean</text></g><!--link User to Email--><g id="link_User_Email"><path codeLine="21" d="M869,528.0937 C869,550.3737 869,565.9637 869,582.7637 " fill="none" id="User-to-Email" style="stroke:#181818;stroke-width:1.0;"/><polygon fill="#181818" points="869,588.7637,873,579.7637,869,583.7637,865,579.7637,869,588.7637" style="stroke:#181818;stroke-width:1.0;"/></g><!--link ToggleUserStatusController to UserRepository--><g id="link_ToggleUserStatusController_UserRepository"><path codeLine="42" d="M371.03,192.0837 C341.13,208.0737 310.04,227.3037 284,249.0137 C242.59,283.5437 208.8374,328.3675 185.3774,363.4175 " fill="none" id="ToggleUserStatusController-to-UserRepository" style="stroke:#181818;stroke-width:1.0;"/><polygon fill="#181818" points="182.04,368.4037,190.3702,363.1493,184.8212,364.2485,183.722,358.6995,182.04,368.4037" style="stroke:#181818;stroke-width:1.0;"/></g><!--link ToggleUserStatusController to AuthorizationService--><g id="link_ToggleUserStatusController_AuthorizationService"><path codeLine="43" d="M488.29,192.2437 C490.56,243.3137 493.7523,314.7896 495.8723,362.2496 " fill="none" id="ToggleUserStatusController-to-AuthorizationService" style="stroke:#181818;stroke-width:1.0;"/><polygon fill="#181818" points="496.14,368.2437,499.7344,359.0741,495.9169,363.2487,491.7424,359.4311,496.14,368.2437" style="stroke:#181818;stroke-width:1.0;"/></g><!--link ToggleUserStatusController to User--><g id="link_ToggleUserStatusController_User"><path codeLine="44" d="M612.09,192.0837 C645.57,208.1337 680.79,227.3937 711,249.0137 C729.47,262.2337 743.3041,273.6187 760.4241,289.6787 " fill="none" id="ToggleUserStatusController-to-User" style="stroke:#181818;stroke-width:1.0;"/><polygon fill="#181818" points="764.8,293.7837,760.9727,284.7089,761.1534,290.3628,755.4994,290.5435,764.8,293.7837" style="stroke:#181818;stroke-width:1.0;"/><polygon fill="#000000" points="703.177,234.4074,697.2361,226.9806,694.0054,231.891,703.177,234.4074" style="stroke:#000000;stroke-width:1.0;"/><text fill="#000000" font-family="sans-serif" font-size="13" lengthAdjust="spacing" textLength="48.4072" x="708" y="237.042">modifies</text></g><!--SRC=[ZL9DRy8m3BttLrWxTGAcdJaWiMa7BjEqRZ_0jAPOf4cLk4o0-EzBFuJIKjXog5BxsSz-Bsx7kaIB1QGAdLkAM5vNGglKw8IF1CzHL6AwmvpWeN9a2zJ-Nf2MfymKoFe1JX7uqzJ3juTqWVhCuCrZ570MX3uyyCVO3Chk4kGIpwzpq5ZGTRJS6atlLR4c6oJNnYX23PWAxyEgUfPFdmFhFvVuf0MYKFmuXxq9Hfj0HdUIx9ODHPtgI7lPn0-zTB6HBTbLDczN7s3FKI1MgytfUj4zgef2V2FhRBPeIwBpRLEmB1MdA6m6pdoPF5TKDqe4fNAlHeiNHWtyQaIZqZWMOmzGTRy1Obd9rbW-DXm9sJsd1EY3tJtGH0QSiQ3DIPebvjsoKo2DQqKNdSOLOoraD-Yf1XEU0huDw-pbqBIFAIJnFUko0EhG6rblrsP2jtiUZMvxwh-Ah60TfvMrte2wMRVVcF-Njq9gSwja2ZsPnf-H7_AEe_LJwUlq5tfip_ymm1mAa_66oS4Y-WK0]--></g></svg>