<svg xmlns="http://www.w3.org/2000/svg" xmlns:xlink="http://www.w3.org/1999/xlink" contentStyleType="text/css" height="465.6px" preserveAspectRatio="none" style="width:946px;height:465px;background:#FFFFFF;" version="1.1" viewBox="0 0 946 465" width="946.8px" zoomAndPan="magnify"><title>UI Sequence Diagram (SSD) - Disable/Enable User Flow (US212)</title><defs/><g><text fill="#000000" font-family="sans-serif" font-size="8.4" font-weight="bold" lengthAdjust="spacing" textLength="254.8711" x="343.8394" y="18.0645">UI Sequence Diagram (SSD) - Disable/Enable User Flow (US212)</text><rect fill="#FFFFFF" height="289.4191" style="stroke:#181818;stroke-width:0.6;" width="6" x="213.9788" y="121.0945"/><rect fill="#FFFFFF" height="265.2445" style="stroke:#181818;stroke-width:0.6;" width="6" x="454.8753" y="139.8691"/><rect fill="#FFFFFF" height="18.7746" style="stroke:#181818;stroke-width:0.6;" width="6" x="549.5757" y="158.6437"/><rect fill="#FFFFFF" height="56.3238" style="stroke:#181818;stroke-width:0.6;" width="6" x="630.9665" y="233.7422"/><rect fill="#FFFFFF" height="18.7746" style="stroke:#181818;stroke-width:0.6;" width="6" x="630.9665" y="367.5645"/><rect fill="#FFFFFF" height="18.7746" style="stroke:#181818;stroke-width:0.6;" width="6" x="821.0563" y="196.193"/><rect fill="#FFFFFF" height="63.5238" style="stroke:#181818;stroke-width:0.6;" width="6" x="885.1775" y="290.066"/><rect fill="none" height="50.3238" style="stroke:#000000;stroke-width:0.8999999999999999;" width="504.1559" x="404.2562" y="299.066"/><line style="stroke:#181818;stroke-width:0.3;stroke-dasharray:5.0,5.0;" x1="26.4" x2="26.4" y1="73.9453" y2="415.9137"/><line style="stroke:#181818;stroke-width:0.3;stroke-dasharray:5.0,5.0;" x1="216.9665" x2="216.9665" y1="73.9453" y2="415.9137"/><line style="stroke:#181818;stroke-width:0.3;stroke-dasharray:5.0,5.0;" x1="457.6562" x2="457.6562" y1="73.9453" y2="415.9137"/><line style="stroke:#181818;stroke-width:0.3;stroke-dasharray:5.0,5.0;" x1="552.2944" x2="552.2944" y1="73.9453" y2="415.9137"/><line style="stroke:#181818;stroke-width:0.3;stroke-dasharray:5.0,5.0;" x1="633.8569" x2="633.8569" y1="73.9453" y2="415.9137"/><line style="stroke:#181818;stroke-width:0.3;stroke-dasharray:5.0,5.0;" x1="724.0761" x2="724.0761" y1="73.9453" y2="415.9137"/><line style="stroke:#181818;stroke-width:0.3;stroke-dasharray:5.0,5.0;" x1="823.9696" x2="823.9696" y1="73.9453" y2="415.9137"/><line style="stroke:#181818;stroke-width:0.3;stroke-dasharray:5.0,5.0;" x1="887.7431" x2="887.7431" y1="73.9453" y2="415.9137"/><line style="stroke:#181818;stroke-width:0.3;stroke-dasharray:5.0,5.0;" x1="924.012" x2="924.012" y1="73.9453" y2="415.9137"/><text fill="#000000" font-family="sans-serif" font-size="8.4" lengthAdjust="spacing" textLength="43.8785" x="3" y="71.8371">Admin User</text><ellipse cx="26.7393" cy="31.8727" fill="#E3E3E3" rx="4.8" ry="4.8" style="stroke:#181818;stroke-width:0.3;"/><path d="M26.7393,36.6727 L26.7393,52.8727 M18.9393,41.4727 L34.5393,41.4727 M26.7393,52.8727 L18.9393,61.8727 M26.7393,52.8727 L34.5393,61.8727 " fill="none" style="stroke:#181818;stroke-width:0.3;"/><text fill="#000000" font-family="sans-serif" font-size="8.4" lengthAdjust="spacing" textLength="43.8785" x="3" y="424.3781">Admin User</text><ellipse cx="26.7393" cy="431.5863" fill="#E3E3E3" rx="4.8" ry="4.8" style="stroke:#181818;stroke-width:0.3;"/><path d="M26.7393,436.3863 L26.7393,452.5863 M18.9393,441.1863 L34.5393,441.1863 M26.7393,452.5863 L18.9393,461.5863 M26.7393,452.5863 L34.5393,461.5863 " fill="none" style="stroke:#181818;stroke-width:0.3;"/><rect fill="#E3E3E3" height="19.5727" rx="1.5" ry="1.5" style="stroke:#181818;stroke-width:0.3;" width="67.2246" x="183.3665" y="53.7727"/><text fill="#000000" font-family="sans-serif" font-size="8.4" lengthAdjust="spacing" textLength="58.8246" x="187.5665" y="67.0371">:ManageUserUI</text><rect fill="#E3E3E3" height="19.5727" rx="1.5" ry="1.5" style="stroke:#181818;stroke-width:0.3;" width="67.2246" x="183.3665" y="415.3137"/><text fill="#000000" font-family="sans-serif" font-size="8.4" lengthAdjust="spacing" textLength="58.8246" x="187.5665" y="428.5781">:ManageUserUI</text><rect fill="#E3E3E3" height="19.5727" rx="1.5" ry="1.5" style="stroke:#181818;stroke-width:0.3;" width="95.2383" x="410.2562" y="53.7727"/><text fill="#000000" font-family="sans-serif" font-size="8.4" lengthAdjust="spacing" textLength="86.8383" x="414.4562" y="67.0371">:ManageUserController</text><rect fill="#E3E3E3" height="19.5727" rx="1.5" ry="1.5" style="stroke:#181818;stroke-width:0.3;" width="95.2383" x="410.2562" y="415.3137"/><text fill="#000000" font-family="sans-serif" font-size="8.4" lengthAdjust="spacing" textLength="86.8383" x="414.4562" y="428.5781">:ManageUserController</text><rect fill="#E3E3E3" height="19.5727" rx="1.5" ry="1.5" style="stroke:#181818;stroke-width:0.3;" width="82.1625" x="511.4944" y="53.7727"/><text fill="#000000" font-family="sans-serif" font-size="8.4" lengthAdjust="spacing" textLength="73.7625" x="515.6944" y="67.0371">:RepositoryProvider</text><rect fill="#E3E3E3" height="19.5727" rx="1.5" ry="1.5" style="stroke:#181818;stroke-width:0.3;" width="82.1625" x="511.4944" y="415.3137"/><text fill="#000000" font-family="sans-serif" font-size="8.4" lengthAdjust="spacing" textLength="73.7625" x="515.6944" y="428.5781">:RepositoryProvider</text><rect fill="#E3E3E3" height="19.5727" rx="1.5" ry="1.5" style="stroke:#181818;stroke-width:0.3;" width="68.6191" x="599.6569" y="53.7727"/><text fill="#000000" font-family="sans-serif" font-size="8.4" lengthAdjust="spacing" textLength="60.2191" x="603.8569" y="67.0371">:UserRepository</text><rect fill="#E3E3E3" height="19.5727" rx="1.5" ry="1.5" style="stroke:#181818;stroke-width:0.3;" width="68.6191" x="599.6569" y="415.3137"/><text fill="#000000" font-family="sans-serif" font-size="8.4" lengthAdjust="spacing" textLength="60.2191" x="603.8569" y="428.5781">:UserRepository</text><rect fill="#E3E3E3" height="19.5727" rx="1.5" ry="1.5" style="stroke:#181818;stroke-width:0.3;" width="99.8936" x="674.2761" y="53.7727"/><text fill="#000000" font-family="sans-serif" font-size="8.4" lengthAdjust="spacing" textLength="91.4936" x="678.4761" y="67.0371">:UserRepositoryJPAImpl</text><rect fill="#E3E3E3" height="19.5727" rx="1.5" ry="1.5" style="stroke:#181818;stroke-width:0.3;" width="99.8936" x="674.2761" y="415.3137"/><text fill="#000000" font-family="sans-serif" font-size="8.4" lengthAdjust="spacing" textLength="91.4936" x="678.4761" y="428.5781">:UserRepositoryJPAImpl</text><rect fill="#E3E3E3" height="19.5727" rx="1.5" ry="1.5" style="stroke:#181818;stroke-width:0.3;" width="87.7734" x="780.1696" y="53.7727"/><text fill="#000000" font-family="sans-serif" font-size="8.4" lengthAdjust="spacing" textLength="79.3734" x="784.3696" y="67.0371">:AuthorizationService</text><rect fill="#E3E3E3" height="19.5727" rx="1.5" ry="1.5" style="stroke:#181818;stroke-width:0.3;" width="87.7734" x="780.1696" y="415.3137"/><text fill="#000000" font-family="sans-serif" font-size="8.4" lengthAdjust="spacing" textLength="79.3734" x="784.3696" y="428.5781">:AuthorizationService</text><rect fill="#E3E3E3" height="19.5727" rx="1.5" ry="1.5" style="stroke:#181818;stroke-width:0.3;" width="28.4689" x="873.9431" y="53.7727"/><text fill="#000000" font-family="sans-serif" font-size="8.4" lengthAdjust="spacing" textLength="20.0689" x="878.1431" y="67.0371">:User</text><rect fill="#E3E3E3" height="19.5727" rx="1.5" ry="1.5" style="stroke:#181818;stroke-width:0.3;" width="28.4689" x="873.9431" y="415.3137"/><text fill="#000000" font-family="sans-serif" font-size="8.4" lengthAdjust="spacing" textLength="20.0689" x="878.1431" y="428.5781">:User</text><rect fill="#E3E3E3" height="19.5727" rx="1.5" ry="1.5" style="stroke:#181818;stroke-width:0.3;" width="31.7379" x="908.412" y="53.7727"/><text fill="#000000" font-family="sans-serif" font-size="8.4" lengthAdjust="spacing" textLength="23.3379" x="912.612" y="67.0371">:Email</text><rect fill="#E3E3E3" height="19.5727" rx="1.5" ry="1.5" style="stroke:#181818;stroke-width:0.3;" width="31.7379" x="908.412" y="415.3137"/><text fill="#000000" font-family="sans-serif" font-size="8.4" lengthAdjust="spacing" textLength="23.3379" x="912.612" y="428.5781">:Email</text><rect fill="#FFFFFF" height="289.4191" style="stroke:#181818;stroke-width:0.6;" width="6" x="213.9788" y="121.0945"/><rect fill="#FFFFFF" height="265.2445" style="stroke:#181818;stroke-width:0.6;" width="6" x="454.8753" y="139.8691"/><rect fill="#FFFFFF" height="18.7746" style="stroke:#181818;stroke-width:0.6;" width="6" x="549.5757" y="158.6437"/><rect fill="#FFFFFF" height="56.3238" style="stroke:#181818;stroke-width:0.6;" width="6" x="630.9665" y="233.7422"/><rect fill="#FFFFFF" height="18.7746" style="stroke:#181818;stroke-width:0.6;" width="6" x="630.9665" y="367.5645"/><rect fill="#FFFFFF" height="18.7746" style="stroke:#181818;stroke-width:0.6;" width="6" x="821.0563" y="196.193"/><rect fill="#FFFFFF" height="63.5238" style="stroke:#181818;stroke-width:0.6;" width="6" x="885.1775" y="290.066"/><rect fill="#EEEEEE" height="1.8" style="stroke:#EEEEEE;stroke-width:0.6;" width="943.1499" x="0" y="92.9326"/><line style="stroke:#000000;stroke-width:0.6;" x1="0" x2="943.1499" y1="92.9326" y2="92.9326"/><line style="stroke:#000000;stroke-width:0.6;" x1="0" x2="943.1499" y1="94.7326" y2="94.7326"/><rect fill="#EEEEEE" height="15.1746" style="stroke:#000000;stroke-width:1.2;" width="36.5646" x="453.2927" y="85.9453"/><text fill="#000000" font-family="sans-serif" font-size="7.8" font-weight="bold" lengthAdjust="spacing" textLength="25.9975" x="456.8927" y="96.7623">START</text><polygon fill="#181818" points="206.7788,118.6945,212.7788,121.0945,206.7788,123.4945,209.1788,121.0945" style="stroke:#181818;stroke-width:0.6;"/><line style="stroke:#181818;stroke-width:0.6;" x1="26.7393" x2="210.3788" y1="121.0945" y2="121.0945"/><text fill="#000000" font-family="sans-serif" font-size="7.8" font-weight="bold" lengthAdjust="spacing" textLength="4.338" x="30.9393" y="117.9369">1</text><text fill="#000000" font-family="sans-serif" font-size="7.8" lengthAdjust="spacing" textLength="169.1016" x="37.6772" y="117.9369">selects user and changes status (enable/disable)</text><polygon fill="#181818" points="447.6753,137.4691,453.6753,139.8691,447.6753,142.2691,450.0753,139.8691" style="stroke:#181818;stroke-width:0.6;"/><line style="stroke:#181818;stroke-width:0.6;" x1="219.9788" x2="451.2753" y1="139.8691" y2="139.8691"/><text fill="#000000" font-family="sans-serif" font-size="7.8" font-weight="bold" lengthAdjust="spacing" textLength="4.338" x="224.1788" y="136.7115">2</text><text fill="#000000" font-family="sans-serif" font-size="7.8" lengthAdjust="spacing" textLength="216.7585" x="230.9168" y="136.7115">(enable/disable)(targetEmail, desiredStatus, currentUserEmail)</text><polygon fill="#181818" points="542.3757,156.2438,548.3757,158.6437,542.3757,161.0438,544.7757,158.6437" style="stroke:#181818;stroke-width:0.6;"/><line style="stroke:#181818;stroke-width:0.6;" x1="460.8753" x2="545.9757" y1="158.6437" y2="158.6437"/><text fill="#000000" font-family="sans-serif" font-size="7.8" font-weight="bold" lengthAdjust="spacing" textLength="4.338" x="465.0753" y="155.4861">3</text><text fill="#000000" font-family="sans-serif" font-size="7.8" lengthAdjust="spacing" textLength="57.6507" x="471.8133" y="155.4861">userRepository()</text><polygon fill="#181818" points="467.4753,175.0184,461.4753,177.4184,467.4753,179.8184,465.0753,177.4184" style="stroke:#181818;stroke-width:0.6;"/><line style="stroke:#181818;stroke-width:0.6;stroke-dasharray:2.0,2.0;" x1="463.8753" x2="551.9757" y1="177.4184" y2="177.4184"/><text fill="#000000" font-family="sans-serif" font-size="7.8" font-weight="bold" lengthAdjust="spacing" textLength="4.338" x="471.0753" y="174.2607">4</text><text fill="#000000" font-family="sans-serif" font-size="7.8" lengthAdjust="spacing" textLength="64.171" x="477.8133" y="174.2607">userRepoInterface</text><polygon fill="#181818" points="813.8563,193.793,819.8563,196.193,813.8563,198.593,816.2563,196.193" style="stroke:#181818;stroke-width:0.6;"/><line style="stroke:#181818;stroke-width:0.6;" x1="460.8753" x2="817.4563" y1="196.193" y2="196.193"/><text fill="#000000" font-family="sans-serif" font-size="7.8" font-weight="bold" lengthAdjust="spacing" textLength="4.338" x="465.0753" y="193.0354">5</text><text fill="#000000" font-family="sans-serif" font-size="7.8" lengthAdjust="spacing" textLength="93.1849" x="471.8133" y="193.0354">isAdmin(currentUserEmail)</text><polygon fill="#181818" points="467.4753,212.5676,461.4753,214.9676,467.4753,217.3676,465.0753,214.9676" style="stroke:#181818;stroke-width:0.6;"/><line style="stroke:#181818;stroke-width:0.6;stroke-dasharray:2.0,2.0;" x1="463.8753" x2="823.4563" y1="214.9676" y2="214.9676"/><text fill="#000000" font-family="sans-serif" font-size="7.8" font-weight="bold" lengthAdjust="spacing" textLength="4.338" x="471.0753" y="211.81">6</text><text fill="#000000" font-family="sans-serif" font-size="7.8" lengthAdjust="spacing" textLength="13.4405" x="477.8133" y="211.81">true</text><polygon fill="#181818" points="623.7665,231.3422,629.7665,233.7422,623.7665,236.1422,626.1665,233.7422" style="stroke:#181818;stroke-width:0.6;"/><line style="stroke:#181818;stroke-width:0.6;" x1="460.8753" x2="627.3665" y1="233.7422" y2="233.7422"/><text fill="#000000" font-family="sans-serif" font-size="7.8" font-weight="bold" lengthAdjust="spacing" textLength="4.338" x="465.0753" y="230.5846">7</text><text fill="#000000" font-family="sans-serif" font-size="7.8" lengthAdjust="spacing" textLength="37.7013" x="471.8133" y="230.5846">ListUsers()</text><polygon fill="#181818" points="467.4753,250.1168,461.4753,252.5168,467.4753,254.9168,465.0753,252.5168" style="stroke:#181818;stroke-width:0.6;"/><line style="stroke:#181818;stroke-width:0.6;stroke-dasharray:2.0,2.0;" x1="463.8753" x2="630.3665" y1="252.5168" y2="252.5168"/><text fill="#000000" font-family="sans-serif" font-size="7.8" font-weight="bold" lengthAdjust="spacing" textLength="4.338" x="471.0753" y="249.3592">8</text><text fill="#000000" font-family="sans-serif" font-size="7.8" lengthAdjust="spacing" textLength="27.3114" x="477.8133" y="249.3592">userList</text><polygon fill="#181818" points="623.7665,268.8914,629.7665,271.2914,623.7665,273.6914,626.1665,271.2914" style="stroke:#181818;stroke-width:0.6;"/><line style="stroke:#181818;stroke-width:0.6;" x1="460.8753" x2="627.3665" y1="271.2914" y2="271.2914"/><text fill="#000000" font-family="sans-serif" font-size="7.8" font-weight="bold" lengthAdjust="spacing" textLength="4.338" x="465.0753" y="268.1338">9</text><text fill="#000000" font-family="sans-serif" font-size="7.8" lengthAdjust="spacing" textLength="43.3418" x="471.8133" y="268.1338">SelectUser()</text><polygon fill="#181818" points="467.4753,287.666,461.4753,290.066,467.4753,292.466,465.0753,290.066" style="stroke:#181818;stroke-width:0.6;"/><line style="stroke:#181818;stroke-width:0.6;stroke-dasharray:2.0,2.0;" x1="463.8753" x2="633.3665" y1="290.066" y2="290.066"/><text fill="#000000" font-family="sans-serif" font-size="7.8" font-weight="bold" lengthAdjust="spacing" textLength="8.676" x="471.0753" y="286.9084">10</text><text fill="#000000" font-family="sans-serif" font-size="7.8" lengthAdjust="spacing" textLength="15.1734" x="482.1513" y="286.9084">user</text><path d="M404.2562,299.066 L440.3587,299.066 L440.3587,304.6406 L434.3587,310.6406 L404.2562,310.6406 L404.2562,299.066 " fill="#EEEEEE" style="stroke:#000000;stroke-width:0.8999999999999999;"/><rect fill="none" height="50.3238" style="stroke:#000000;stroke-width:0.8999999999999999;" width="504.1559" x="404.2562" y="299.066"/><text fill="#000000" font-family="sans-serif" font-size="7.8" font-weight="bold" lengthAdjust="spacing" textLength="9.1025" x="413.2562" y="308.083">alt</text><text fill="#000000" font-family="sans-serif" font-size="6.6" font-weight="bold" lengthAdjust="spacing" textLength="76.4736" x="449.3587" y="307.3881">[desiredStatus = enable]</text><polygon fill="#181818" points="877.9775,322.2152,883.9775,324.6152,877.9775,327.0152,880.3775,324.6152" style="stroke:#181818;stroke-width:0.6;"/><line style="stroke:#181818;stroke-width:0.6;" x1="460.8753" x2="881.5775" y1="324.6152" y2="324.6152"/><text fill="#000000" font-family="sans-serif" font-size="7.8" font-weight="bold" lengthAdjust="spacing" textLength="8.676" x="465.0753" y="321.4576">11</text><text fill="#000000" font-family="sans-serif" font-size="7.8" lengthAdjust="spacing" textLength="32.076" x="476.1513" y="321.4576">activate()</text><line style="stroke:#000000;stroke-width:0.6;stroke-dasharray:2.0,2.0;" x1="404.2562" x2="908.412" y1="330.0152" y2="330.0152"/><polygon fill="#181818" points="877.9775,342.1898,883.9775,344.5898,877.9775,346.9898,880.3775,344.5898" style="stroke:#181818;stroke-width:0.6;"/><line style="stroke:#181818;stroke-width:0.6;" x1="460.8753" x2="881.5775" y1="344.5898" y2="344.5898"/><text fill="#000000" font-family="sans-serif" font-size="7.8" font-weight="bold" lengthAdjust="spacing" textLength="8.676" x="465.0753" y="341.4322">12</text><text fill="#000000" font-family="sans-serif" font-size="7.8" lengthAdjust="spacing" textLength="40.752" x="476.1513" y="341.4322">deactivate()</text><polygon fill="#181818" points="623.7665,365.1645,629.7665,367.5645,623.7665,369.9645,626.1665,367.5645" style="stroke:#181818;stroke-width:0.6;"/><line style="stroke:#181818;stroke-width:0.6;" x1="460.8753" x2="627.3665" y1="367.5645" y2="367.5645"/><text fill="#000000" font-family="sans-serif" font-size="7.8" font-weight="bold" lengthAdjust="spacing" textLength="8.676" x="465.0753" y="364.4068">13</text><text fill="#000000" font-family="sans-serif" font-size="7.8" lengthAdjust="spacing" textLength="36.8443" x="476.1513" y="364.4068">save(user)</text><polygon fill="#181818" points="467.4753,383.9391,461.4753,386.3391,467.4753,388.7391,465.0753,386.3391" style="stroke:#181818;stroke-width:0.6;"/><line style="stroke:#181818;stroke-width:0.6;stroke-dasharray:2.0,2.0;" x1="463.8753" x2="633.3665" y1="386.3391" y2="386.3391"/><text fill="#000000" font-family="sans-serif" font-size="7.8" font-weight="bold" lengthAdjust="spacing" textLength="8.676" x="471.0753" y="383.1814">14</text><text fill="#000000" font-family="sans-serif" font-size="7.8" lengthAdjust="spacing" textLength="14.3089" x="482.1513" y="383.1814">void</text><polygon fill="#181818" points="226.5788,402.7137,220.5788,405.1137,226.5788,407.5137,224.1788,405.1137" style="stroke:#181818;stroke-width:0.6;"/><line style="stroke:#181818;stroke-width:0.6;stroke-dasharray:2.0,2.0;" x1="222.9788" x2="457.2753" y1="405.1137" y2="405.1137"/><text fill="#000000" font-family="sans-serif" font-size="7.8" font-weight="bold" lengthAdjust="spacing" textLength="8.676" x="230.1788" y="401.9561">15</text><text fill="#000000" font-family="sans-serif" font-size="7.8" lengthAdjust="spacing" textLength="48.552" x="241.2548" y="401.9561">show success</text><!--SRC=[fLJ1Rjim3BthAuYS7A11iHuBP43GPa263YlYP7TMPcEXjfH9SehiwqV9ZgCuMNAOBxQanyT7FihkG-ajMgoXDjh8qfgQmDk6XEjFjYW_S4EvtrS4bgH7lQbIW2knC9zAR-0TAqT2UEKPkbv0JhyRqfBWMU4cGBCyVnx3XDSEtogwd-lmWhKZ2zygymdPEd_uyZ0M0XjlT5E_aULlwOs5qQoebOxO4Q23XZy4A_1AgYrg3wF77wXPQK2i5n6pNlmJyMIqjwQgEhQdrV9bW5tIrZZ5gVUlrknKqI4jRnys1X61znZLgmnR2-t9lgEago7VNsUBUblraRmUu6UDBurLVz0hetEoEoKfmhbXPRU-aA9dd6jsPpz0p6jKRL8ANxz-2Z6TGhwQBLSmdGeH0c7oDLZw28ug7eAM3L0N84kU27BWFFh6GKRHrFkYzNWSx5Cxz64Y13CmJsWsCmsHcKUx8H_Lt451JbagyiXw1xAnbhGFnKH0mXkz4v6KoLD_E4bpqk0i2JinyYHgSjHuxbz1bnbw0OaJJA1SdDliYlxKkZGuaH7lP98v3H70pxMpWx2pMfZuHRceoN5d0hPdEIyy79zJ37eL-6ucpUC8XRHTrfkqmnelgsihgFpfxC0Ksa4xBx2x3T0zgURsYDCV0Zgf57vnLmEECWyXkhYaFqb-isCETvI5W_ztQMTKSRkTYQB-ufVyWtQDbEISI8SnmFu2]--></g></svg>