<svg xmlns="http://www.w3.org/2000/svg" xmlns:xlink="http://www.w3.org/1999/xlink" contentStyleType="text/css" height="1257px" preserveAspectRatio="none" style="width:2401px;height:1257px;background:#FFFFFF;" version="1.1" viewBox="0 0 2401 1257" width="2401px" zoomAndPan="magnify"><title>UI Sequence Diagram (SD) - Create Drone Model</title><defs/><g><text fill="#000000" font-family="sans-serif" font-size="14" font-weight="bold" lengthAdjust="spacing" textLength="321.2891" x="1038.9209" y="30.1074">UI Sequence Diagram (SD) - Create Drone Model</text><rect fill="#FFFFFF" height="1030.7207" style="stroke:#181818;stroke-width:1.0;" width="10" x="54.5723" y="133.2422"/><rect fill="#FFFFFF" height="1007.4297" style="stroke:#181818;stroke-width:1.0;" width="10" x="454.3887" y="156.5332"/><rect fill="#FFFFFF" height="33.6211" style="stroke:#181818;stroke-width:1.0;" width="10" x="707.8403" y="197.8242"/><rect fill="#FFFFFF" height="33.6211" style="stroke:#181818;stroke-width:1.0;" width="10" x="814.709" y="272.7363"/><rect fill="#FFFFFF" height="33.6211" style="stroke:#181818;stroke-width:1.0;" width="10" x="911.4604" y="418.2305"/><rect fill="#FFFFFF" height="463.4043" style="stroke:#181818;stroke-width:1.0;" width="10" x="1061.9048" y="580.0547"/><rect fill="#FFFFFF" height="52.2422" style="stroke:#181818;stroke-width:1.0;" width="10" x="1317.2852" y="696.2578"/><rect fill="#FFFFFF" height="75.582" style="stroke:#181818;stroke-width:1.0;" width="10" x="1676.5288" y="806.082"/><rect fill="#FFFFFF" height="75.582" style="stroke:#181818;stroke-width:1.0;" width="10" x="1986.2021" y="929.5859"/><rect fill="#FFFFFF" height="33.6211" style="stroke:#181818;stroke-width:1.0;" width="10" x="2345" y="621.3457"/><rect fill="none" height="96.2031" style="stroke:#000000;stroke-width:1.5;" width="594.1714" x="374.3027" y="365.6484"/><rect fill="none" height="249.668" style="stroke:#000000;stroke-width:1.5;" width="1391.5259" x="958.4741" y="763.5"/><rect fill="none" height="98.5039" style="stroke:#000000;stroke-width:1.5;" width="534.4746" x="10" y="1058.459"/><line style="stroke:#181818;stroke-width:0.5;stroke-dasharray:5.0,5.0;" x1="59" x2="59" y1="123.2422" y2="1173.9629"/><line style="stroke:#181818;stroke-width:0.5;stroke-dasharray:5.0,5.0;" x1="459.3027" x2="459.3027" y1="123.2422" y2="1173.9629"/><line style="stroke:#181818;stroke-width:0.5;stroke-dasharray:5.0,5.0;" x1="712.7095" x2="712.7095" y1="196.3438" y2="1173.9629"/><line style="stroke:#181818;stroke-width:0.5;stroke-dasharray:5.0,5.0;" x1="818.9712" x2="818.9712" y1="271.2559" y2="1173.9629"/><line style="stroke:#181818;stroke-width:0.5;stroke-dasharray:5.0,5.0;" x1="916.4468" x2="916.4468" y1="416.75" y2="1173.9629"/><line style="stroke:#181818;stroke-width:0.5;stroke-dasharray:5.0,5.0;" x1="1066.4741" x2="1066.4741" y1="544.9531" y2="1173.9629"/><line style="stroke:#181818;stroke-width:0.5;stroke-dasharray:5.0,5.0;" x1="1321.8164" x2="1321.8164" y1="704.0879" y2="1173.9629"/><line style="stroke:#181818;stroke-width:0.5;stroke-dasharray:5.0,5.0;" x1="1480.7539" x2="1480.7539" y1="123.2422" y2="1173.9629"/><line style="stroke:#181818;stroke-width:0.5;stroke-dasharray:5.0,5.0;" x1="1680.8223" x2="1680.8223" y1="123.2422" y2="1173.9629"/><line style="stroke:#181818;stroke-width:0.5;stroke-dasharray:5.0,5.0;" x1="1990.999" x2="1990.999" y1="123.2422" y2="1173.9629"/><line style="stroke:#181818;stroke-width:0.5;stroke-dasharray:5.0,5.0;" x1="2349.8691" x2="2349.8691" y1="619.8652" y2="1173.9629"/><text fill="#000000" font-family="sans-serif" font-size="14" lengthAdjust="spacing" textLength="73.1445" x="20" y="119.7285">Drone Tech</text><ellipse cx="59.5723" cy="53.1211" fill="#E3E3E3" rx="8" ry="8" style="stroke:#181818;stroke-width:0.5;"/><path d="M59.5723,61.1211 L59.5723,88.1211 M46.5723,69.1211 L72.5723,69.1211 M59.5723,88.1211 L46.5723,103.1211 M59.5723,88.1211 L72.5723,103.1211 " fill="none" style="stroke:#181818;stroke-width:0.5;"/><text fill="#000000" font-family="sans-serif" font-size="14" lengthAdjust="spacing" textLength="73.1445" x="20" y="1188.0703">Drone Tech</text><ellipse cx="59.5723" cy="1200.084" fill="#E3E3E3" rx="8" ry="8" style="stroke:#181818;stroke-width:0.5;"/><path d="M59.5723,1208.084 L59.5723,1235.084 M46.5723,1216.084 L72.5723,1216.084 M59.5723,1235.084 L46.5723,1250.084 M59.5723,1235.084 L72.5723,1250.084 " fill="none" style="stroke:#181818;stroke-width:0.5;"/><rect fill="#E3E3E3" height="32.6211" rx="2.5" ry="2.5" style="stroke:#181818;stroke-width:0.5;" width="150.1719" x="384.3027" y="89.6211"/><text fill="#000000" font-family="sans-serif" font-size="14" lengthAdjust="spacing" textLength="136.1719" x="391.3027" y="111.7285">:CreateDroneModelUI</text><rect fill="#E3E3E3" height="32.6211" rx="2.5" ry="2.5" style="stroke:#181818;stroke-width:0.5;" width="150.1719" x="384.3027" y="1172.9629"/><text fill="#000000" font-family="sans-serif" font-size="14" lengthAdjust="spacing" textLength="136.1719" x="391.3027" y="1195.0703">:CreateDroneModelUI</text><rect fill="#E3E3E3" height="32.6211" rx="2.5" ry="2.5" style="stroke:#181818;stroke-width:0.5;" width="104.2617" x="660.7095" y="1172.9629"/><text fill="#000000" font-family="sans-serif" font-size="14" lengthAdjust="spacing" textLength="90.2617" x="667.7095" y="1195.0703">DroneModelID</text><rect fill="#E3E3E3" height="32.6211" rx="2.5" ry="2.5" style="stroke:#181818;stroke-width:0.5;" width="89.4756" x="774.9712" y="1172.9629"/><text fill="#000000" font-family="sans-serif" font-size="14" lengthAdjust="spacing" textLength="75.4756" x="781.9712" y="1195.0703">DroneName</text><rect fill="#E3E3E3" height="32.6211" rx="2.5" ry="2.5" style="stroke:#181818;stroke-width:0.5;" width="84.0273" x="874.4468" y="1172.9629"/><text fill="#000000" font-family="sans-serif" font-size="14" lengthAdjust="spacing" textLength="70.0273" x="881.4468" y="1195.0703">Description</text><rect fill="#E3E3E3" height="32.6211" rx="2.5" ry="2.5" style="stroke:#181818;stroke-width:0.5;" width="196.8613" x="968.4741" y="1172.9629"/><text fill="#000000" font-family="sans-serif" font-size="14" lengthAdjust="spacing" textLength="182.8613" x="975.4741" y="1195.0703">:CreateDroneModelController</text><rect fill="#E3E3E3" height="51.2422" rx="2.5" ry="2.5" style="stroke:#181818;stroke-width:0.5;" width="136.9375" x="1253.8164" y="1172.9629"/><text fill="#000000" font-family="sans-serif" font-size="14" lengthAdjust="spacing" textLength="113.5996" x="1265.4854" y="1195.0703">repositoryProvider</text><text fill="#000000" font-family="sans-serif" font-size="14" lengthAdjust="spacing" textLength="122.9375" x="1260.8164" y="1213.6914">:RepositoryProvider</text><rect fill="#E3E3E3" height="51.2422" rx="2.5" ry="2.5" style="stroke:#181818;stroke-width:0.5;" width="161.0684" x="1400.7539" y="71"/><text fill="#000000" font-family="sans-serif" font-size="14" lengthAdjust="spacing" textLength="143.1787" x="1409.6987" y="93.1074">DroneModelRepository</text><text fill="#000000" font-family="sans-serif" font-size="14" lengthAdjust="spacing" textLength="147.0684" x="1407.7539" y="111.7285">:DroneModelRepository</text><rect fill="#E3E3E3" height="51.2422" rx="2.5" ry="2.5" style="stroke:#181818;stroke-width:0.5;" width="161.0684" x="1400.7539" y="1172.9629"/><text fill="#000000" font-family="sans-serif" font-size="14" lengthAdjust="spacing" textLength="143.1787" x="1409.6987" y="1195.0703">DroneModelRepository</text><text fill="#000000" font-family="sans-serif" font-size="14" lengthAdjust="spacing" textLength="147.0684" x="1407.7539" y="1213.6914">:DroneModelRepository</text><rect fill="#E3E3E3" height="32.6211" rx="2.5" ry="2.5" style="stroke:#181818;stroke-width:0.5;" width="219.4131" x="1571.8223" y="89.6211"/><text fill="#000000" font-family="sans-serif" font-size="14" lengthAdjust="spacing" textLength="205.4131" x="1578.8223" y="111.7285">InMemoryDroneModelRepository</text><rect fill="#E3E3E3" height="32.6211" rx="2.5" ry="2.5" style="stroke:#181818;stroke-width:0.5;" width="219.4131" x="1571.8223" y="1172.9629"/><text fill="#000000" font-family="sans-serif" font-size="14" lengthAdjust="spacing" textLength="205.4131" x="1578.8223" y="1195.0703">InMemoryDroneModelRepository</text><rect fill="#E3E3E3" height="32.6211" rx="2.5" ry="2.5" style="stroke:#181818;stroke-width:0.5;" width="184.4063" x="1898.999" y="89.6211"/><text fill="#000000" font-family="sans-serif" font-size="14" lengthAdjust="spacing" textLength="170.4063" x="1905.999" y="111.7285">CreateDroneModelJPAImpl</text><rect fill="#E3E3E3" height="32.6211" rx="2.5" ry="2.5" style="stroke:#181818;stroke-width:0.5;" width="184.4063" x="1898.999" y="1172.9629"/><text fill="#000000" font-family="sans-serif" font-size="14" lengthAdjust="spacing" textLength="170.4063" x="1905.999" y="1195.0703">CreateDroneModelJPAImpl</text><rect fill="#E3E3E3" height="32.6211" rx="2.5" ry="2.5" style="stroke:#181818;stroke-width:0.5;" width="90.2617" x="2304.8691" y="1172.9629"/><text fill="#000000" font-family="sans-serif" font-size="14" lengthAdjust="spacing" textLength="76.2617" x="2311.8691" y="1195.0703">DroneModel</text><rect fill="#FFFFFF" height="1030.7207" style="stroke:#181818;stroke-width:1.0;" width="10" x="54.5723" y="133.2422"/><rect fill="#FFFFFF" height="1007.4297" style="stroke:#181818;stroke-width:1.0;" width="10" x="454.3887" y="156.5332"/><rect fill="#FFFFFF" height="33.6211" style="stroke:#181818;stroke-width:1.0;" width="10" x="707.8403" y="197.8242"/><rect fill="#FFFFFF" height="33.6211" style="stroke:#181818;stroke-width:1.0;" width="10" x="814.709" y="272.7363"/><rect fill="#FFFFFF" height="33.6211" style="stroke:#181818;stroke-width:1.0;" width="10" x="911.4604" y="418.2305"/><rect fill="#FFFFFF" height="463.4043" style="stroke:#181818;stroke-width:1.0;" width="10" x="1061.9048" y="580.0547"/><rect fill="#FFFFFF" height="52.2422" style="stroke:#181818;stroke-width:1.0;" width="10" x="1317.2852" y="696.2578"/><rect fill="#FFFFFF" height="75.582" style="stroke:#181818;stroke-width:1.0;" width="10" x="1676.5288" y="806.082"/><rect fill="#FFFFFF" height="75.582" style="stroke:#181818;stroke-width:1.0;" width="10" x="1986.2021" y="929.5859"/><rect fill="#FFFFFF" height="33.6211" style="stroke:#181818;stroke-width:1.0;" width="10" x="2345" y="621.3457"/><polygon fill="#181818" points="442.3887,152.5332,452.3887,156.5332,442.3887,160.5332,446.3887,156.5332" style="stroke:#181818;stroke-width:1.0;"/><line style="stroke:#181818;stroke-width:1.0;" x1="64.5723" x2="448.3887" y1="156.5332" y2="156.5332"/><text fill="#000000" font-family="sans-serif" font-size="13" font-weight="bold" lengthAdjust="spacing" textLength="7.23" x="71.5723" y="151.2705">1</text><text fill="#000000" font-family="sans-serif" font-size="13" lengthAdjust="spacing" textLength="315.7769" x="82.8022" y="151.2705">requests to create a new Drone Model with valid inputs</text><polygon fill="#181818" points="648.7095,183.8242,658.7095,187.8242,648.7095,191.8242,652.7095,187.8242" style="stroke:#181818;stroke-width:1.0;"/><line style="stroke:#181818;stroke-width:1.0;" x1="464.3887" x2="654.7095" y1="187.8242" y2="187.8242"/><text fill="#000000" font-family="sans-serif" font-size="13" font-weight="bold" lengthAdjust="spacing" textLength="7.23" x="471.3887" y="182.5615">2</text><text fill="#000000" font-family="sans-serif" font-size="13" lengthAdjust="spacing" textLength="161.0908" x="482.6187" y="182.5615">Utils.rePromptWhileInvalid()</text><rect fill="#E3E3E3" height="32.6211" rx="2.5" ry="2.5" style="stroke:#181818;stroke-width:0.5;" width="104.2617" x="660.7095" y="164.5332"/><text fill="#000000" font-family="sans-serif" font-size="14" lengthAdjust="spacing" textLength="90.2617" x="667.7095" y="186.6406">DroneModelID</text><polygon fill="#181818" points="475.3887,227.4453,465.3887,231.4453,475.3887,235.4453,471.3887,231.4453" style="stroke:#181818;stroke-width:1.0;"/><line style="stroke:#181818;stroke-width:1.0;" x1="469.3887" x2="711.8403" y1="231.4453" y2="231.4453"/><text fill="#000000" font-family="sans-serif" font-size="13" font-weight="bold" lengthAdjust="spacing" textLength="7.23" x="481.3887" y="226.1826">3</text><text fill="#000000" font-family="sans-serif" font-size="13" lengthAdjust="spacing" textLength="48.4072" x="492.6187" y="226.1826">modelID</text><polygon fill="#181818" points="762.9712,258.7363,772.9712,262.7363,762.9712,266.7363,766.9712,262.7363" style="stroke:#181818;stroke-width:1.0;"/><line style="stroke:#181818;stroke-width:1.0;" x1="464.3887" x2="768.9712" y1="262.7363" y2="262.7363"/><text fill="#000000" font-family="sans-serif" font-size="13" font-weight="bold" lengthAdjust="spacing" textLength="7.23" x="471.3887" y="257.4736">4</text><text fill="#000000" font-family="sans-serif" font-size="13" lengthAdjust="spacing" textLength="161.0908" x="482.6187" y="257.4736">Utils.rePromptWhileInvalid()</text><rect fill="#E3E3E3" height="32.6211" rx="2.5" ry="2.5" style="stroke:#181818;stroke-width:0.5;" width="89.4756" x="774.9712" y="239.4453"/><text fill="#000000" font-family="sans-serif" font-size="14" lengthAdjust="spacing" textLength="75.4756" x="781.9712" y="261.5527">DroneName</text><polygon fill="#181818" points="475.3887,302.3574,465.3887,306.3574,475.3887,310.3574,471.3887,306.3574" style="stroke:#181818;stroke-width:1.0;"/><line style="stroke:#181818;stroke-width:1.0;" x1="469.3887" x2="818.709" y1="306.3574" y2="306.3574"/><text fill="#000000" font-family="sans-serif" font-size="13" font-weight="bold" lengthAdjust="spacing" textLength="7.23" x="481.3887" y="301.0947">5</text><text fill="#000000" font-family="sans-serif" font-size="13" lengthAdjust="spacing" textLength="32.519" x="492.6187" y="301.0947">name</text><line style="stroke:#181818;stroke-width:1.0;" x1="464.3887" x2="506.3887" y1="337.6484" y2="337.6484"/><line style="stroke:#181818;stroke-width:1.0;" x1="506.3887" x2="506.3887" y1="337.6484" y2="350.6484"/><line style="stroke:#181818;stroke-width:1.0;" x1="465.3887" x2="506.3887" y1="350.6484" y2="350.6484"/><polygon fill="#181818" points="475.3887,346.6484,465.3887,350.6484,475.3887,354.6484,471.3887,350.6484" style="stroke:#181818;stroke-width:1.0;"/><text fill="#000000" font-family="sans-serif" font-size="13" font-weight="bold" lengthAdjust="spacing" textLength="7.23" x="471.3887" y="332.3857">6</text><text fill="#000000" font-family="sans-serif" font-size="13" lengthAdjust="spacing" textLength="133.6436" x="482.6187" y="332.3857">promptForDescription()</text><path d="M374.3027,365.6484 L434.4736,365.6484 L434.4736,374.9395 L424.4736,384.9395 L374.3027,384.9395 L374.3027,365.6484 " fill="#EEEEEE" style="stroke:#000000;stroke-width:1.5;"/><rect fill="none" height="96.2031" style="stroke:#000000;stroke-width:1.5;" width="594.1714" x="374.3027" y="365.6484"/><text fill="#000000" font-family="sans-serif" font-size="13" font-weight="bold" lengthAdjust="spacing" textLength="15.1709" x="389.3027" y="380.6768">alt</text><text fill="#000000" font-family="sans-serif" font-size="11" font-weight="bold" lengthAdjust="spacing" textLength="122.8584" x="449.4736" y="379.5186">[hasDescription is true]</text><polygon fill="#181818" points="862.4468,404.2305,872.4468,408.2305,862.4468,412.2305,866.4468,408.2305" style="stroke:#181818;stroke-width:1.0;"/><line style="stroke:#181818;stroke-width:1.0;" x1="464.3887" x2="868.4468" y1="408.2305" y2="408.2305"/><text fill="#000000" font-family="sans-serif" font-size="13" font-weight="bold" lengthAdjust="spacing" textLength="7.23" x="471.3887" y="402.9678">7</text><text fill="#000000" font-family="sans-serif" font-size="13" lengthAdjust="spacing" textLength="161.0908" x="482.6187" y="402.9678">Utils.rePromptWhileInvalid()</text><rect fill="#E3E3E3" height="32.6211" rx="2.5" ry="2.5" style="stroke:#181818;stroke-width:0.5;" width="84.0273" x="874.4468" y="384.9395"/><text fill="#000000" font-family="sans-serif" font-size="14" lengthAdjust="spacing" textLength="70.0273" x="881.4468" y="407.0469">Description</text><polygon fill="#181818" points="475.3887,447.8516,465.3887,451.8516,475.3887,455.8516,471.3887,451.8516" style="stroke:#181818;stroke-width:1.0;"/><line style="stroke:#181818;stroke-width:1.0;" x1="469.3887" x2="915.4604" y1="451.8516" y2="451.8516"/><text fill="#000000" font-family="sans-serif" font-size="13" font-weight="bold" lengthAdjust="spacing" textLength="7.23" x="481.3887" y="446.5889">8</text><text fill="#000000" font-family="sans-serif" font-size="13" lengthAdjust="spacing" textLength="62.8672" x="492.6187" y="446.5889">description</text><line style="stroke:#000000;stroke-width:1.0;stroke-dasharray:2.0,2.0;" x1="374.3027" x2="968.4741" y1="460.8516" y2="460.8516"/><line style="stroke:#181818;stroke-width:1.0;" x1="464.3887" x2="506.3887" y1="492.1426" y2="492.1426"/><line style="stroke:#181818;stroke-width:1.0;" x1="506.3887" x2="506.3887" y1="492.1426" y2="505.1426"/><line style="stroke:#181818;stroke-width:1.0;" x1="465.3887" x2="506.3887" y1="505.1426" y2="505.1426"/><polygon fill="#181818" points="475.3887,501.1426,465.3887,505.1426,475.3887,509.1426,471.3887,505.1426" style="stroke:#181818;stroke-width:1.0;"/><text fill="#000000" font-family="sans-serif" font-size="13" font-weight="bold" lengthAdjust="spacing" textLength="7.23" x="471.3887" y="486.8799">9</text><text fill="#000000" font-family="sans-serif" font-size="13" lengthAdjust="spacing" textLength="160.3862" x="482.6187" y="486.8799">promptForMaxWindSpeed()</text><polygon fill="#181818" points="956.4741,532.4336,966.4741,536.4336,956.4741,540.4336,960.4741,536.4336" style="stroke:#181818;stroke-width:1.0;"/><line style="stroke:#181818;stroke-width:1.0;" x1="464.3887" x2="962.4741" y1="536.4336" y2="536.4336"/><text fill="#000000" font-family="sans-serif" font-size="13" font-weight="bold" lengthAdjust="spacing" textLength="14.46" x="471.3887" y="531.1709">10</text><text fill="#000000" font-family="sans-serif" font-size="13" lengthAdjust="spacing" textLength="36.1309" x="489.8486" y="531.1709">create</text><rect fill="#E3E3E3" height="32.6211" rx="2.5" ry="2.5" style="stroke:#181818;stroke-width:0.5;" width="196.8613" x="968.4741" y="513.1426"/><text fill="#000000" font-family="sans-serif" font-size="14" lengthAdjust="spacing" textLength="182.8613" x="975.4741" y="535.25">:CreateDroneModelController</text><polygon fill="#181818" points="1049.9048,576.0547,1059.9048,580.0547,1049.9048,584.0547,1053.9048,580.0547" style="stroke:#181818;stroke-width:1.0;"/><line style="stroke:#181818;stroke-width:1.0;" x1="464.3887" x2="1055.9048" y1="580.0547" y2="580.0547"/><text fill="#000000" font-family="sans-serif" font-size="13" font-weight="bold" lengthAdjust="spacing" textLength="14.46" x="471.3887" y="574.792">11</text><text fill="#000000" font-family="sans-serif" font-size="13" lengthAdjust="spacing" textLength="466.0449" x="489.8486" y="574.792">createDroneModel(modelID, name, hasDescription, description, maxWindSpeed)</text><polygon fill="#181818" points="2292.8691,607.3457,2302.8691,611.3457,2292.8691,615.3457,2296.8691,611.3457" style="stroke:#181818;stroke-width:1.0;"/><line style="stroke:#181818;stroke-width:1.0;" x1="1071.9048" x2="2298.8691" y1="611.3457" y2="611.3457"/><text fill="#000000" font-family="sans-serif" font-size="13" font-weight="bold" lengthAdjust="spacing" textLength="14.46" x="1078.9048" y="606.083">12</text><text fill="#000000" font-family="sans-serif" font-size="13" lengthAdjust="spacing" textLength="364.165" x="1097.3647" y="606.083">new DroneModel(modelID, name, description, maxWindSpeed)</text><rect fill="#E3E3E3" height="32.6211" rx="2.5" ry="2.5" style="stroke:#181818;stroke-width:0.5;" width="90.2617" x="2304.8691" y="588.0547"/><text fill="#000000" font-family="sans-serif" font-size="14" lengthAdjust="spacing" textLength="76.2617" x="2311.8691" y="610.1621">DroneModel</text><polygon fill="#181818" points="1082.9048,650.9668,1072.9048,654.9668,1082.9048,658.9668,1078.9048,654.9668" style="stroke:#181818;stroke-width:1.0;"/><line style="stroke:#181818;stroke-width:1.0;stroke-dasharray:2.0,2.0;" x1="1076.9048" x2="2349" y1="654.9668" y2="654.9668"/><text fill="#000000" font-family="sans-serif" font-size="13" font-weight="bold" lengthAdjust="spacing" textLength="14.46" x="1088.9048" y="649.7041">13</text><text fill="#000000" font-family="sans-serif" font-size="13" lengthAdjust="spacing" textLength="122.8462" x="1107.3647" y="649.7041">DroneModel instance</text><polygon fill="#181818" points="1241.8164,682.2578,1251.8164,686.2578,1241.8164,690.2578,1245.8164,686.2578" style="stroke:#181818;stroke-width:1.0;"/><line style="stroke:#181818;stroke-width:1.0;" x1="1071.9048" x2="1247.8164" y1="686.2578" y2="686.2578"/><text fill="#000000" font-family="sans-serif" font-size="13" font-weight="bold" lengthAdjust="spacing" textLength="14.46" x="1078.9048" y="680.9951">14</text><text fill="#000000" font-family="sans-serif" font-size="13" lengthAdjust="spacing" textLength="139.4517" x="1097.3647" y="680.9951">droneModelRepository()</text><rect fill="#E3E3E3" height="51.2422" rx="2.5" ry="2.5" style="stroke:#181818;stroke-width:0.5;" width="136.9375" x="1253.8164" y="662.9668"/><text fill="#000000" font-family="sans-serif" font-size="14" lengthAdjust="spacing" textLength="113.5996" x="1265.4854" y="685.0742">repositoryProvider</text><text fill="#000000" font-family="sans-serif" font-size="14" lengthAdjust="spacing" textLength="122.9375" x="1260.8164" y="703.6953">:RepositoryProvider</text><polygon fill="#181818" points="1082.9048,744.5,1072.9048,748.5,1082.9048,752.5,1078.9048,748.5" style="stroke:#181818;stroke-width:1.0;"/><line style="stroke:#181818;stroke-width:1.0;stroke-dasharray:2.0,2.0;" x1="1076.9048" x2="1321.2852" y1="748.5" y2="748.5"/><text fill="#000000" font-family="sans-serif" font-size="13" font-weight="bold" lengthAdjust="spacing" textLength="14.46" x="1088.9048" y="743.2373">15</text><text fill="#000000" font-family="sans-serif" font-size="13" lengthAdjust="spacing" textLength="200.1162" x="1107.3647" y="743.2373">repository (dynamic: inMem or jpa)</text><path d="M958.4741,763.5 L1018.645,763.5 L1018.645,772.791 L1008.645,782.791 L958.4741,782.791 L958.4741,763.5 " fill="#EEEEEE" style="stroke:#000000;stroke-width:1.5;"/><rect fill="none" height="249.668" style="stroke:#000000;stroke-width:1.5;" width="1391.5259" x="958.4741" y="763.5"/><text fill="#000000" font-family="sans-serif" font-size="13" font-weight="bold" lengthAdjust="spacing" textLength="15.1709" x="973.4741" y="778.5283">alt</text><text fill="#000000" font-family="sans-serif" font-size="11" font-weight="bold" lengthAdjust="spacing" textLength="253.0322" x="1033.645" y="777.3701">[Repository is InMemoryDroneModelRepository]</text><polygon fill="#181818" points="1664.5288,802.082,1674.5288,806.082,1664.5288,810.082,1668.5288,806.082" style="stroke:#181818;stroke-width:1.0;"/><line style="stroke:#181818;stroke-width:1.0;" x1="1071.9048" x2="1670.5288" y1="806.082" y2="806.082"/><text fill="#000000" font-family="sans-serif" font-size="13" font-weight="bold" lengthAdjust="spacing" textLength="14.46" x="1078.9048" y="800.8193">16</text><text fill="#000000" font-family="sans-serif" font-size="13" lengthAdjust="spacing" textLength="71.5254" x="1097.3647" y="800.8193">save(model)</text><line style="stroke:#181818;stroke-width:1.0;" x1="1686.5288" x2="1728.5288" y1="837.373" y2="837.373"/><line style="stroke:#181818;stroke-width:1.0;" x1="1728.5288" x2="1728.5288" y1="837.373" y2="850.373"/><line style="stroke:#181818;stroke-width:1.0;" x1="1687.5288" x2="1728.5288" y1="850.373" y2="850.373"/><polygon fill="#181818" points="1697.5288,846.373,1687.5288,850.373,1697.5288,854.373,1693.5288,850.373" style="stroke:#181818;stroke-width:1.0;"/><text fill="#000000" font-family="sans-serif" font-size="13" font-weight="bold" lengthAdjust="spacing" textLength="14.46" x="1693.5288" y="832.1104">17</text><text fill="#000000" font-family="sans-serif" font-size="13" lengthAdjust="spacing" textLength="257.2134" x="1711.9888" y="832.1104">containsKey(model.identity().toLowerCase())</text><polygon fill="#181818" points="1082.9048,877.6641,1072.9048,881.6641,1082.9048,885.6641,1078.9048,881.6641" style="stroke:#181818;stroke-width:1.0;"/><line style="stroke:#181818;stroke-width:1.0;stroke-dasharray:2.0,2.0;" x1="1076.9048" x2="1680.5288" y1="881.6641" y2="881.6641"/><text fill="#000000" font-family="sans-serif" font-size="13" font-weight="bold" lengthAdjust="spacing" textLength="14.46" x="1088.9048" y="876.4014">18</text><text fill="#000000" font-family="sans-serif" font-size="13" lengthAdjust="spacing" textLength="134.418" x="1107.3647" y="876.4014">Optional&lt;DroneModel&gt;</text><line style="stroke:#000000;stroke-width:1.0;stroke-dasharray:2.0,2.0;" x1="958.4741" x2="2350" y1="890.6641" y2="890.6641"/><text fill="#000000" font-family="sans-serif" font-size="11" font-weight="bold" lengthAdjust="spacing" textLength="221.8745" x="963.4741" y="902.5342">[Repository is CreateDroneModelJPAImpl]</text><polygon fill="#181818" points="1974.2021,925.5859,1984.2021,929.5859,1974.2021,933.5859,1978.2021,929.5859" style="stroke:#181818;stroke-width:1.0;"/><line style="stroke:#181818;stroke-width:1.0;" x1="1071.9048" x2="1980.2021" y1="929.5859" y2="929.5859"/><text fill="#000000" font-family="sans-serif" font-size="13" font-weight="bold" lengthAdjust="spacing" textLength="14.46" x="1078.9048" y="924.3232">19</text><text fill="#000000" font-family="sans-serif" font-size="13" lengthAdjust="spacing" textLength="71.5254" x="1097.3647" y="924.3232">save(model)</text><line style="stroke:#181818;stroke-width:1.0;" x1="1996.2021" x2="2038.2021" y1="960.877" y2="960.877"/><line style="stroke:#181818;stroke-width:1.0;" x1="2038.2021" x2="2038.2021" y1="960.877" y2="973.877"/><line style="stroke:#181818;stroke-width:1.0;" x1="1997.2021" x2="2038.2021" y1="973.877" y2="973.877"/><polygon fill="#181818" points="2007.2021,969.877,1997.2021,973.877,2007.2021,977.877,2003.2021,973.877" style="stroke:#181818;stroke-width:1.0;"/><text fill="#000000" font-family="sans-serif" font-size="13" font-weight="bold" lengthAdjust="spacing" textLength="14.46" x="2003.2021" y="955.6143">20</text><text fill="#000000" font-family="sans-serif" font-size="13" lengthAdjust="spacing" textLength="306.3379" x="2021.6621" y="955.6143">findByDroneModelID(model.identity().toLowerCase())</text><polygon fill="#181818" points="1082.9048,1001.168,1072.9048,1005.168,1082.9048,1009.168,1078.9048,1005.168" style="stroke:#181818;stroke-width:1.0;"/><line style="stroke:#181818;stroke-width:1.0;stroke-dasharray:2.0,2.0;" x1="1076.9048" x2="1990.2021" y1="1005.168" y2="1005.168"/><text fill="#000000" font-family="sans-serif" font-size="13" font-weight="bold" lengthAdjust="spacing" textLength="14.46" x="1088.9048" y="999.9053">21</text><text fill="#000000" font-family="sans-serif" font-size="13" lengthAdjust="spacing" textLength="134.418" x="1107.3647" y="999.9053">Optional&lt;DroneModel&gt;</text><polygon fill="#181818" points="475.3887,1039.459,465.3887,1043.459,475.3887,1047.459,471.3887,1043.459" style="stroke:#181818;stroke-width:1.0;"/><line style="stroke:#181818;stroke-width:1.0;stroke-dasharray:2.0,2.0;" x1="469.3887" x2="1065.9048" y1="1043.459" y2="1043.459"/><text fill="#000000" font-family="sans-serif" font-size="13" font-weight="bold" lengthAdjust="spacing" textLength="14.46" x="481.3887" y="1038.1963">22</text><text fill="#000000" font-family="sans-serif" font-size="13" lengthAdjust="spacing" textLength="134.418" x="499.8486" y="1038.1963">Optional&lt;DroneModel&gt;</text><path d="M10,1058.459 L70.1709,1058.459 L70.1709,1067.75 L60.1709,1077.75 L10,1077.75 L10,1058.459 " fill="#EEEEEE" style="stroke:#000000;stroke-width:1.5;"/><rect fill="none" height="98.5039" style="stroke:#000000;stroke-width:1.5;" width="534.4746" x="10" y="1058.459"/><text fill="#000000" font-family="sans-serif" font-size="13" font-weight="bold" lengthAdjust="spacing" textLength="15.1709" x="25" y="1073.4873">alt</text><text fill="#000000" font-family="sans-serif" font-size="11" font-weight="bold" lengthAdjust="spacing" textLength="142.4414" x="85.1709" y="1072.3291">[Model saved successfully]</text><polygon fill="#181818" points="75.5723,1097.041,65.5723,1101.041,75.5723,1105.041,71.5723,1101.041" style="stroke:#181818;stroke-width:1.0;"/><line style="stroke:#181818;stroke-width:1.0;stroke-dasharray:2.0,2.0;" x1="69.5723" x2="453.3887" y1="1101.041" y2="1101.041"/><text fill="#000000" font-family="sans-serif" font-size="13" font-weight="bold" lengthAdjust="spacing" textLength="14.46" x="81.5723" y="1095.7783">23</text><text fill="#000000" font-family="sans-serif" font-size="13" lengthAdjust="spacing" textLength="323.521" x="100.0322" y="1095.7783">success message ("Drone Model created successfully!")</text><line style="stroke:#000000;stroke-width:1.0;stroke-dasharray:2.0,2.0;" x1="10" x2="544.4746" y1="1110.041" y2="1110.041"/><text fill="#000000" font-family="sans-serif" font-size="11" font-weight="bold" lengthAdjust="spacing" textLength="169.9199" x="15" y="1121.9111">[Save failed (duplicate modelID)]</text><polygon fill="#181818" points="75.5723,1144.9629,65.5723,1148.9629,75.5723,1152.9629,71.5723,1148.9629" style="stroke:#181818;stroke-width:1.0;"/><line style="stroke:#181818;stroke-width:1.0;stroke-dasharray:2.0,2.0;" x1="69.5723" x2="453.3887" y1="1148.9629" y2="1148.9629"/><text fill="#000000" font-family="sans-serif" font-size="13" font-weight="bold" lengthAdjust="spacing" textLength="14.46" x="81.5723" y="1143.7002">24</text><text fill="#000000" font-family="sans-serif" font-size="13" lengthAdjust="spacing" textLength="347.3564" x="100.0322" y="1143.7002">error message ("A Drone Model with that ID already exists!")</text><!--SRC=[bLRRRjim37ttLt1vIeQq7n0C1Re40xArMz6awCjUD9c9jTgI9ob9y_UZg3XIBhtb8R2fmqDIEgJidfHkXHKDD4ORMLdJ87YxmiBjLreXdyGIPtvR8rYKNkXbdGDS9KgpKNe92r4xB0glF44VfZ33VolK4c6Yn390-xF902vWR55uibgZ4MvDYNLHY9KtUjNyGKlFqXiBlRW-HrdrG3YOp0iAw9LKhT0UUgD8moWcUPWoxc5wY4k0wOG1JNm-W_ef6cI8feUZTNJIgjOhenbHqliR-OoDzjRKDLhs6C_lRmuzBBR6AQfrUsVDMfLeV-lH_OcHlTlToqkr9JVYE6Tc5gKzseMGHyLDzIqsX7d5Zm27FiVLVh-xdZPjpV2_hNWfptG2VCvgpKgO5yLa3XTNGJKZKXdfnda7te2CMX6WSPCh1ZRALx0MjIefktRbNQ8Z1HH4H7IxeuRFdqVmu5NjBYtIjZQjVwnKZLFD1Fr1ykt4qNbsENNs4a-WkrX1Cny8n19Zdou4Mp9-Vj-HCw1bmc_6Pc8CbBM7IhZC2Ch5DWRwHOAWrxUp2_XzV9PuiB1lbqIPmkmM3nqmp82me0sPh5fMdhneNBJkm1TrURwuM_7yg7GvQn53IX4IceVJZth8hPqjQQo_EvaXR-7mQ7E6UHf3QB9msV5mjnOSeDCHnz_By6oazp17yKV6YrH48YKzEvgo4a_4bXBgnW7b5CxaJD_cMal3etFB0gSf1FroItKeEOeD3pI5gPK7UHvxAfPT2XSazzeOOKbqsKTsKeLOOzp28-d5UHDC4PhvI9ggWdRe1swZwoMbe-dEeOellRan6xHZuR0_6EG4gTvVV3oY_fBIl3fMSemVf7nKuWjJxw0wshBNQWl3CHW2R8zUa52-RlEhwbt5CSV7IWlXkVTYkbtxdNNDt68_X3EF6WtbbU1MKg9pYrLTR_V3XYXfc8-wHMZeZxuWeD_BvtTisaEAJxr1tFGPiTFd1CscaaIvQcibiuaxE0c5rf9MKw3hqwl2Ly833NHHK-1o2_Yiw8hXY64tibBf-iZUw6xw3m00]--></g></svg>