<svg xmlns="http://www.w3.org/2000/svg" xmlns:xlink="http://www.w3.org/1999/xlink" contentStyleType="text/css" height="1009px" preserveAspectRatio="none" style="width:2241px;height:1009px;background:#FFFFFF;" version="1.1" viewBox="0 0 2241 1009" width="2241px" zoomAndPan="magnify"><title>UI Sequence Diagram (SD) - Drone Model Creation</title><defs/><g><text fill="#000000" font-family="sans-serif" font-size="14" font-weight="bold" lengthAdjust="spacing" textLength="334.4961" x="952.3826" y="30.1074">UI Sequence Diagram (SD) - Drone Model Creation</text><rect fill="#FFFFFF" height="774.7324" style="stroke:#181818;stroke-width:1.0;" width="10" x="39.5723" y="133.2422"/><rect fill="#FFFFFF" height="751.4414" style="stroke:#181818;stroke-width:1.0;" width="10" x="409.2437" y="156.5332"/><rect fill="#FFFFFF" height="656.5684" style="stroke:#181818;stroke-width:1.0;" width="10" x="575.6499" y="260.4063"/><rect fill="#FFFFFF" height="167.4551" style="stroke:#181818;stroke-width:1.0;" width="10" x="580.6499" y="302.0273"/><rect fill="#FFFFFF" height="186.4551" style="stroke:#181818;stroke-width:1.0;" width="10" x="580.6499" y="690.2285"/><rect fill="#FFFFFF" height="31.291" style="stroke:#181818;stroke-width:1.0;" width="10" x="915.8335" y="338.3184"/><rect fill="#FFFFFF" height="31.291" style="stroke:#181818;stroke-width:1.0;" width="10" x="1021.5366" y="400.9004"/><rect fill="#FFFFFF" height="31.291" style="stroke:#181818;stroke-width:1.0;" width="10" x="1308.8047" y="507.7734"/><rect fill="#FFFFFF" height="149.873" style="stroke:#181818;stroke-width:1.0;" width="10" x="1460.7905" y="570.3555"/><rect fill="#FFFFFF" height="31.291" style="stroke:#181818;stroke-width:1.0;" width="10" x="1923.8208" y="751.5195"/><rect fill="#FFFFFF" height="31.291" style="stroke:#181818;stroke-width:1.0;" width="10" x="2118.6099" y="814.1016"/><line style="stroke:#181818;stroke-width:0.5;stroke-dasharray:5.0,5.0;" x1="44" x2="44" y1="123.2422" y2="925.9746"/><line style="stroke:#181818;stroke-width:0.5;stroke-dasharray:5.0,5.0;" x1="413.7129" x2="413.7129" y1="123.2422" y2="925.9746"/><line style="stroke:#181818;stroke-width:0.5;stroke-dasharray:5.0,5.0;" x1="579.7744" x2="579.7744" y1="258.9258" y2="925.9746"/><line style="stroke:#181818;stroke-width:0.5;stroke-dasharray:5.0,5.0;" x1="785.1411" x2="785.1411" y1="123.2422" y2="925.9746"/><line style="stroke:#181818;stroke-width:0.5;stroke-dasharray:5.0,5.0;" x1="919.9819" x2="919.9819" y1="123.2422" y2="925.9746"/><line style="stroke:#181818;stroke-width:0.5;stroke-dasharray:5.0,5.0;" x1="1025.6851" x2="1025.6851" y1="123.2422" y2="925.9746"/><line style="stroke:#181818;stroke-width:0.5;stroke-dasharray:5.0,5.0;" x1="1164.3882" x2="1164.3882" y1="123.2422" y2="925.9746"/><line style="stroke:#181818;stroke-width:0.5;stroke-dasharray:5.0,5.0;" x1="1313.4565" x2="1313.4565" y1="123.2422" y2="925.9746"/><line style="stroke:#181818;stroke-width:0.5;stroke-dasharray:5.0,5.0;" x1="1465.1528" x2="1465.1528" y1="123.2422" y2="925.9746"/><line style="stroke:#181818;stroke-width:0.5;stroke-dasharray:5.0,5.0;" x1="1798.5317" x2="1798.5317" y1="123.2422" y2="925.9746"/><line style="stroke:#181818;stroke-width:0.5;stroke-dasharray:5.0,5.0;" x1="1928.6831" x2="1928.6831" y1="123.2422" y2="925.9746"/><line style="stroke:#181818;stroke-width:0.5;stroke-dasharray:5.0,5.0;" x1="2122.9585" x2="2122.9585" y1="123.2422" y2="925.9746"/><text fill="#000000" font-family="sans-serif" font-size="14" lengthAdjust="spacing" textLength="73.1445" x="5" y="119.7285">Drone Tech</text><ellipse cx="44.5723" cy="53.1211" fill="#E3E3E3" rx="8" ry="8" style="stroke:#181818;stroke-width:0.5;"/><path d="M44.5723,61.1211 L44.5723,88.1211 M31.5723,69.1211 L57.5723,69.1211 M44.5723,88.1211 L31.5723,103.1211 M44.5723,88.1211 L57.5723,103.1211 " fill="none" style="stroke:#181818;stroke-width:0.5;"/><text fill="#000000" font-family="sans-serif" font-size="14" lengthAdjust="spacing" textLength="73.1445" x="5" y="940.082">Drone Tech</text><ellipse cx="44.5723" cy="952.0957" fill="#E3E3E3" rx="8" ry="8" style="stroke:#181818;stroke-width:0.5;"/><path d="M44.5723,960.0957 L44.5723,987.0957 M31.5723,968.0957 L57.5723,968.0957 M44.5723,987.0957 L31.5723,1002.0957 M44.5723,987.0957 L57.5723,1002.0957 " fill="none" style="stroke:#181818;stroke-width:0.5;"/><rect fill="#E3E3E3" height="32.6211" rx="2.5" ry="2.5" style="stroke:#181818;stroke-width:0.5;" width="133.0615" x="347.7129" y="89.6211"/><text fill="#000000" font-family="sans-serif" font-size="14" lengthAdjust="spacing" textLength="119.0615" x="354.7129" y="111.7285">:AddDroneModelUI</text><rect fill="#E3E3E3" height="32.6211" rx="2.5" ry="2.5" style="stroke:#181818;stroke-width:0.5;" width="133.0615" x="347.7129" y="924.9746"/><text fill="#000000" font-family="sans-serif" font-size="14" lengthAdjust="spacing" textLength="119.0615" x="354.7129" y="947.082">:AddDroneModelUI</text><rect fill="#E3E3E3" height="32.6211" rx="2.5" ry="2.5" style="stroke:#181818;stroke-width:0.5;" width="179.751" x="490.7744" y="924.9746"/><text fill="#000000" font-family="sans-serif" font-size="14" lengthAdjust="spacing" textLength="165.751" x="497.7744" y="947.082">:AddDroneModelController</text><rect fill="#E3E3E3" height="51.2422" rx="2.5" ry="2.5" style="stroke:#181818;stroke-width:0.5;" width="154.8408" x="708.1411" y="71"/><text fill="#000000" font-family="sans-serif" font-size="14" lengthAdjust="spacing" textLength="134.627" x="718.248" y="93.1074">droneModelController</text><text fill="#000000" font-family="sans-serif" font-size="14" lengthAdjust="spacing" textLength="140.8408" x="715.1411" y="111.7285">:DroneModelController</text><rect fill="#E3E3E3" height="51.2422" rx="2.5" ry="2.5" style="stroke:#181818;stroke-width:0.5;" width="154.8408" x="708.1411" y="924.9746"/><text fill="#000000" font-family="sans-serif" font-size="14" lengthAdjust="spacing" textLength="134.627" x="718.248" y="947.082">droneModelController</text><text fill="#000000" font-family="sans-serif" font-size="14" lengthAdjust="spacing" textLength="140.8408" x="715.1411" y="965.7031">:DroneModelController</text><rect fill="#E3E3E3" height="32.6211" rx="2.5" ry="2.5" style="stroke:#181818;stroke-width:0.5;" width="95.7031" x="872.9819" y="89.6211"/><text fill="#000000" font-family="sans-serif" font-size="14" lengthAdjust="spacing" textLength="81.7031" x="879.9819" y="111.7285">:Repositories</text><rect fill="#E3E3E3" height="32.6211" rx="2.5" ry="2.5" style="stroke:#181818;stroke-width:0.5;" width="95.7031" x="872.9819" y="924.9746"/><text fill="#000000" font-family="sans-serif" font-size="14" lengthAdjust="spacing" textLength="81.7031" x="879.9819" y="947.082">:Repositories</text><rect fill="#E3E3E3" height="51.2422" rx="2.5" ry="2.5" style="stroke:#181818;stroke-width:0.5;" width="95.7031" x="978.6851" y="71"/><text fill="#000000" font-family="sans-serif" font-size="14" lengthAdjust="spacing" textLength="72.3652" x="990.354" y="93.1074">repositories</text><text fill="#000000" font-family="sans-serif" font-size="14" lengthAdjust="spacing" textLength="81.7031" x="985.6851" y="111.7285">:Repositories</text><rect fill="#E3E3E3" height="51.2422" rx="2.5" ry="2.5" style="stroke:#181818;stroke-width:0.5;" width="95.7031" x="978.6851" y="924.9746"/><text fill="#000000" font-family="sans-serif" font-size="14" lengthAdjust="spacing" textLength="72.3652" x="990.354" y="947.082">repositories</text><text fill="#000000" font-family="sans-serif" font-size="14" lengthAdjust="spacing" textLength="81.7031" x="985.6851" y="965.7031">:Repositories</text><rect fill="#E3E3E3" height="51.2422" rx="2.5" ry="2.5" style="stroke:#181818;stroke-width:0.5;" width="161.0684" x="1084.3882" y="71"/><text fill="#000000" font-family="sans-serif" font-size="14" lengthAdjust="spacing" textLength="140.8545" x="1094.4951" y="93.1074">droneModelRepository</text><text fill="#000000" font-family="sans-serif" font-size="14" lengthAdjust="spacing" textLength="147.0684" x="1091.3882" y="111.7285">:DroneModelRepository</text><rect fill="#E3E3E3" height="51.2422" rx="2.5" ry="2.5" style="stroke:#181818;stroke-width:0.5;" width="161.0684" x="1084.3882" y="924.9746"/><text fill="#000000" font-family="sans-serif" font-size="14" lengthAdjust="spacing" textLength="140.8545" x="1094.4951" y="947.082">droneModelRepository</text><text fill="#000000" font-family="sans-serif" font-size="14" lengthAdjust="spacing" textLength="147.0684" x="1091.3882" y="965.7031">:DroneModelRepository</text><rect fill="#E3E3E3" height="51.2422" rx="2.5" ry="2.5" style="stroke:#181818;stroke-width:0.5;" width="116.6963" x="1255.4565" y="71"/><text fill="#000000" font-family="sans-serif" font-size="14" lengthAdjust="spacing" textLength="94.1445" x="1266.7324" y="93.1074">factoryProvider</text><text fill="#000000" font-family="sans-serif" font-size="14" lengthAdjust="spacing" textLength="102.6963" x="1262.4565" y="111.7285">:FactoryProvider</text><rect fill="#E3E3E3" height="51.2422" rx="2.5" ry="2.5" style="stroke:#181818;stroke-width:0.5;" width="116.6963" x="1255.4565" y="924.9746"/><text fill="#000000" font-family="sans-serif" font-size="14" lengthAdjust="spacing" textLength="94.1445" x="1266.7324" y="947.082">factoryProvider</text><text fill="#000000" font-family="sans-serif" font-size="14" lengthAdjust="spacing" textLength="102.6963" x="1262.4565" y="965.7031">:FactoryProvider</text><rect fill="#E3E3E3" height="51.2422" rx="2.5" ry="2.5" style="stroke:#181818;stroke-width:0.5;" width="167.2754" x="1382.1528" y="71"/><text fill="#000000" font-family="sans-serif" font-size="14" lengthAdjust="spacing" textLength="147.0615" x="1392.2598" y="93.1074">droneModelFactoryImpl</text><text fill="#000000" font-family="sans-serif" font-size="14" lengthAdjust="spacing" textLength="153.2754" x="1389.1528" y="111.7285">:DroneModelFactoryImpl</text><rect fill="#E3E3E3" height="51.2422" rx="2.5" ry="2.5" style="stroke:#181818;stroke-width:0.5;" width="167.2754" x="1382.1528" y="924.9746"/><text fill="#000000" font-family="sans-serif" font-size="14" lengthAdjust="spacing" textLength="147.0615" x="1392.2598" y="947.082">droneModelFactoryImpl</text><text fill="#000000" font-family="sans-serif" font-size="14" lengthAdjust="spacing" textLength="153.2754" x="1389.1528" y="965.7031">:DroneModelFactoryImpl</text><rect fill="#E3E3E3" height="51.2422" rx="2.5" ry="2.5" style="stroke:#181818;stroke-width:0.5;" width="94.1514" x="1751.5317" y="71"/><text fill="#000000" font-family="sans-serif" font-size="14" lengthAdjust="spacing" textLength="73.9375" x="1761.6387" y="93.1074">droneModel</text><text fill="#000000" font-family="sans-serif" font-size="14" lengthAdjust="spacing" textLength="80.1514" x="1758.5317" y="111.7285">:DroneModel</text><rect fill="#E3E3E3" height="51.2422" rx="2.5" ry="2.5" style="stroke:#181818;stroke-width:0.5;" width="94.1514" x="1751.5317" y="924.9746"/><text fill="#000000" font-family="sans-serif" font-size="14" lengthAdjust="spacing" textLength="73.9375" x="1761.6387" y="947.082">droneModel</text><text fill="#000000" font-family="sans-serif" font-size="14" lengthAdjust="spacing" textLength="80.1514" x="1758.5317" y="965.7031">:DroneModel</text><rect fill="#E3E3E3" height="51.2422" rx="2.5" ry="2.5" style="stroke:#181818;stroke-width:0.5;" width="146.2754" x="1855.6831" y="71"/><text fill="#000000" font-family="sans-serif" font-size="14" lengthAdjust="spacing" textLength="126.0615" x="1865.79" y="93.1074">droneModelJPAImpl</text><text fill="#000000" font-family="sans-serif" font-size="14" lengthAdjust="spacing" textLength="132.2754" x="1862.6831" y="111.7285">:DroneModelJPAImpl</text><rect fill="#E3E3E3" height="51.2422" rx="2.5" ry="2.5" style="stroke:#181818;stroke-width:0.5;" width="146.2754" x="1855.6831" y="924.9746"/><text fill="#000000" font-family="sans-serif" font-size="14" lengthAdjust="spacing" textLength="126.0615" x="1865.79" y="947.082">droneModelJPAImpl</text><text fill="#000000" font-family="sans-serif" font-size="14" lengthAdjust="spacing" textLength="132.2754" x="1862.6831" y="965.7031">:DroneModelJPAImpl</text><rect fill="#E3E3E3" height="51.2422" rx="2.5" ry="2.5" style="stroke:#181818;stroke-width:0.5;" width="223.3027" x="2011.9585" y="71"/><text fill="#000000" font-family="sans-serif" font-size="14" lengthAdjust="spacing" textLength="204.6338" x="2021.293" y="93.1074">inMemoryDroneModelRepository</text><text fill="#000000" font-family="sans-serif" font-size="14" lengthAdjust="spacing" textLength="209.3027" x="2018.9585" y="111.7285">:InMemoryDroneModelRepository</text><rect fill="#E3E3E3" height="51.2422" rx="2.5" ry="2.5" style="stroke:#181818;stroke-width:0.5;" width="223.3027" x="2011.9585" y="924.9746"/><text fill="#000000" font-family="sans-serif" font-size="14" lengthAdjust="spacing" textLength="204.6338" x="2021.293" y="947.082">inMemoryDroneModelRepository</text><text fill="#000000" font-family="sans-serif" font-size="14" lengthAdjust="spacing" textLength="209.3027" x="2018.9585" y="965.7031">:InMemoryDroneModelRepository</text><rect fill="#FFFFFF" height="774.7324" style="stroke:#181818;stroke-width:1.0;" width="10" x="39.5723" y="133.2422"/><rect fill="#FFFFFF" height="751.4414" style="stroke:#181818;stroke-width:1.0;" width="10" x="409.2437" y="156.5332"/><rect fill="#FFFFFF" height="656.5684" style="stroke:#181818;stroke-width:1.0;" width="10" x="575.6499" y="260.4063"/><rect fill="#FFFFFF" height="167.4551" style="stroke:#181818;stroke-width:1.0;" width="10" x="580.6499" y="302.0273"/><rect fill="#FFFFFF" height="186.4551" style="stroke:#181818;stroke-width:1.0;" width="10" x="580.6499" y="690.2285"/><rect fill="#FFFFFF" height="31.291" style="stroke:#181818;stroke-width:1.0;" width="10" x="915.8335" y="338.3184"/><rect fill="#FFFFFF" height="31.291" style="stroke:#181818;stroke-width:1.0;" width="10" x="1021.5366" y="400.9004"/><rect fill="#FFFFFF" height="31.291" style="stroke:#181818;stroke-width:1.0;" width="10" x="1308.8047" y="507.7734"/><rect fill="#FFFFFF" height="149.873" style="stroke:#181818;stroke-width:1.0;" width="10" x="1460.7905" y="570.3555"/><rect fill="#FFFFFF" height="31.291" style="stroke:#181818;stroke-width:1.0;" width="10" x="1923.8208" y="751.5195"/><rect fill="#FFFFFF" height="31.291" style="stroke:#181818;stroke-width:1.0;" width="10" x="2118.6099" y="814.1016"/><polygon fill="#181818" points="397.2437,152.5332,407.2437,156.5332,397.2437,160.5332,401.2437,156.5332" style="stroke:#181818;stroke-width:1.0;"/><line style="stroke:#181818;stroke-width:1.0;" x1="49.5723" x2="403.2437" y1="156.5332" y2="156.5332"/><text fill="#000000" font-family="sans-serif" font-size="13" font-weight="bold" lengthAdjust="spacing" textLength="7.23" x="56.5723" y="151.2705">1</text><text fill="#000000" font-family="sans-serif" font-size="13" lengthAdjust="spacing" textLength="163.3062" x="67.8022" y="151.2705">ask to create a Drone Model</text><polygon fill="#181818" points="60.5723,183.8242,50.5723,187.8242,60.5723,191.8242,56.5723,187.8242" style="stroke:#181818;stroke-width:1.0;"/><line style="stroke:#181818;stroke-width:1.0;" x1="54.5723" x2="408.2437" y1="187.8242" y2="187.8242"/><text fill="#000000" font-family="sans-serif" font-size="13" font-weight="bold" lengthAdjust="spacing" textLength="7.23" x="66.5723" y="182.5615">2</text><text fill="#000000" font-family="sans-serif" font-size="13" lengthAdjust="spacing" textLength="324.4414" x="77.8022" y="182.5615">ask for drone model data (identifier, windToleranceData)</text><polygon fill="#181818" points="397.2437,215.1152,407.2437,219.1152,397.2437,223.1152,401.2437,219.1152" style="stroke:#181818;stroke-width:1.0;"/><line style="stroke:#181818;stroke-width:1.0;" x1="49.5723" x2="403.2437" y1="219.1152" y2="219.1152"/><text fill="#000000" font-family="sans-serif" font-size="13" font-weight="bold" lengthAdjust="spacing" textLength="7.23" x="56.5723" y="213.8525">3</text><text fill="#000000" font-family="sans-serif" font-size="13" lengthAdjust="spacing" textLength="153.9307" x="67.8022" y="213.8525">provides drone model data</text><polygon fill="#181818" points="478.7744,246.4063,488.7744,250.4063,478.7744,254.4063,482.7744,250.4063" style="stroke:#181818;stroke-width:1.0;"/><line style="stroke:#181818;stroke-width:1.0;" x1="419.2437" x2="484.7744" y1="250.4063" y2="250.4063"/><text fill="#000000" font-family="sans-serif" font-size="13" font-weight="bold" lengthAdjust="spacing" textLength="7.23" x="426.2437" y="245.1436">4</text><text fill="#000000" font-family="sans-serif" font-size="13" lengthAdjust="spacing" textLength="36.1309" x="437.4736" y="245.1436">create</text><rect fill="#E3E3E3" height="32.6211" rx="2.5" ry="2.5" style="stroke:#181818;stroke-width:0.5;" width="179.751" x="490.7744" y="227.1152"/><text fill="#000000" font-family="sans-serif" font-size="14" lengthAdjust="spacing" textLength="165.751" x="497.7744" y="249.2227">:AddDroneModelController</text><line style="stroke:#181818;stroke-width:1.0;" x1="585.6499" x2="632.6499" y1="289.0273" y2="289.0273"/><line style="stroke:#181818;stroke-width:1.0;" x1="632.6499" x2="632.6499" y1="289.0273" y2="302.0273"/><line style="stroke:#181818;stroke-width:1.0;" x1="591.6499" x2="632.6499" y1="302.0273" y2="302.0273"/><polygon fill="#181818" points="601.6499,298.0273,591.6499,302.0273,601.6499,306.0273,597.6499,302.0273" style="stroke:#181818;stroke-width:1.0;"/><text fill="#000000" font-family="sans-serif" font-size="13" font-weight="bold" lengthAdjust="spacing" textLength="7.23" x="597.6499" y="283.7646">5</text><text fill="#000000" font-family="sans-serif" font-size="13" lengthAdjust="spacing" textLength="159.6816" x="608.8799" y="283.7646">getDroneModelRepository()</text><polygon fill="#181818" points="903.8335,334.3184,913.8335,338.3184,903.8335,342.3184,907.8335,338.3184" style="stroke:#181818;stroke-width:1.0;"/><line style="stroke:#181818;stroke-width:1.0;" x1="590.6499" x2="909.8335" y1="338.3184" y2="338.3184"/><text fill="#000000" font-family="sans-serif" font-size="13" font-weight="bold" lengthAdjust="spacing" textLength="7.23" x="597.6499" y="333.0557">6</text><text fill="#000000" font-family="sans-serif" font-size="13" lengthAdjust="spacing" textLength="75.8735" x="608.8799" y="333.0557">getInstance()</text><polygon fill="#181818" points="601.6499,365.6094,591.6499,369.6094,601.6499,373.6094,597.6499,369.6094" style="stroke:#181818;stroke-width:1.0;"/><line style="stroke:#181818;stroke-width:1.0;stroke-dasharray:2.0,2.0;" x1="595.6499" x2="919.8335" y1="369.6094" y2="369.6094"/><text fill="#000000" font-family="sans-serif" font-size="13" font-weight="bold" lengthAdjust="spacing" textLength="7.23" x="607.6499" y="364.3467">7</text><text fill="#000000" font-family="sans-serif" font-size="13" lengthAdjust="spacing" textLength="67.1963" x="618.8799" y="364.3467">repositories</text><polygon fill="#181818" points="1009.5366,396.9004,1019.5366,400.9004,1009.5366,404.9004,1013.5366,400.9004" style="stroke:#181818;stroke-width:1.0;"/><line style="stroke:#181818;stroke-width:1.0;" x1="590.6499" x2="1015.5366" y1="400.9004" y2="400.9004"/><text fill="#000000" font-family="sans-serif" font-size="13" font-weight="bold" lengthAdjust="spacing" textLength="7.23" x="597.6499" y="395.6377">8</text><text fill="#000000" font-family="sans-serif" font-size="13" lengthAdjust="spacing" textLength="159.6816" x="608.8799" y="395.6377">getDroneModelRepository()</text><polygon fill="#181818" points="601.6499,428.1914,591.6499,432.1914,601.6499,436.1914,597.6499,432.1914" style="stroke:#181818;stroke-width:1.0;"/><line style="stroke:#181818;stroke-width:1.0;stroke-dasharray:2.0,2.0;" x1="595.6499" x2="1025.5366" y1="432.1914" y2="432.1914"/><text fill="#000000" font-family="sans-serif" font-size="13" font-weight="bold" lengthAdjust="spacing" textLength="7.23" x="607.6499" y="426.9287">9</text><text fill="#000000" font-family="sans-serif" font-size="13" lengthAdjust="spacing" textLength="130.7935" x="618.8799" y="426.9287">droneModelRepository</text><line style="stroke:#181818;stroke-width:1.0;stroke-dasharray:2.0,2.0;" x1="590.6499" x2="632.6499" y1="468.4824" y2="468.4824"/><line style="stroke:#181818;stroke-width:1.0;stroke-dasharray:2.0,2.0;" x1="632.6499" x2="632.6499" y1="468.4824" y2="481.4824"/><line style="stroke:#181818;stroke-width:1.0;stroke-dasharray:2.0,2.0;" x1="585.6499" x2="632.6499" y1="481.4824" y2="481.4824"/><polygon fill="#181818" points="595.6499,477.4824,585.6499,481.4824,595.6499,485.4824,591.6499,481.4824" style="stroke:#181818;stroke-width:1.0;"/><text fill="#000000" font-family="sans-serif" font-size="13" font-weight="bold" lengthAdjust="spacing" textLength="14.46" x="597.6499" y="463.2197">10</text><text fill="#000000" font-family="sans-serif" font-size="13" lengthAdjust="spacing" textLength="130.7935" x="616.1099" y="463.2197">droneModelRepository</text><polygon fill="#181818" points="1296.8047,503.7734,1306.8047,507.7734,1296.8047,511.7734,1300.8047,507.7734" style="stroke:#181818;stroke-width:1.0;"/><line style="stroke:#181818;stroke-width:1.0;" x1="585.6499" x2="1302.8047" y1="507.7734" y2="507.7734"/><text fill="#000000" font-family="sans-serif" font-size="13" font-weight="bold" lengthAdjust="spacing" textLength="14.46" x="592.6499" y="502.5107">11</text><text fill="#000000" font-family="sans-serif" font-size="13" lengthAdjust="spacing" textLength="140.8862" x="611.1099" y="502.5107">getDroneModelFactory()</text><polygon fill="#181818" points="596.6499,535.0645,586.6499,539.0645,596.6499,543.0645,592.6499,539.0645" style="stroke:#181818;stroke-width:1.0;"/><line style="stroke:#181818;stroke-width:1.0;stroke-dasharray:2.0,2.0;" x1="590.6499" x2="1312.8047" y1="539.0645" y2="539.0645"/><text fill="#000000" font-family="sans-serif" font-size="13" font-weight="bold" lengthAdjust="spacing" textLength="14.46" x="602.6499" y="533.8018">12</text><text fill="#000000" font-family="sans-serif" font-size="13" lengthAdjust="spacing" textLength="111.998" x="621.1099" y="533.8018">droneModelFactory</text><polygon fill="#181818" points="1448.7905,566.3555,1458.7905,570.3555,1448.7905,574.3555,1452.7905,570.3555" style="stroke:#181818;stroke-width:1.0;"/><line style="stroke:#181818;stroke-width:1.0;" x1="585.6499" x2="1454.7905" y1="570.3555" y2="570.3555"/><text fill="#000000" font-family="sans-serif" font-size="13" font-weight="bold" lengthAdjust="spacing" textLength="14.46" x="592.6499" y="565.0928">13</text><text fill="#000000" font-family="sans-serif" font-size="13" lengthAdjust="spacing" textLength="283.9688" x="611.1099" y="565.0928">createDroneModel(identifier, windToleranceData)</text><line style="stroke:#181818;stroke-width:1.0;stroke-dasharray:2.0,2.0;" x1="1470.7905" x2="1512.7905" y1="601.6465" y2="601.6465"/><line style="stroke:#181818;stroke-width:1.0;stroke-dasharray:2.0,2.0;" x1="1512.7905" x2="1512.7905" y1="601.6465" y2="614.6465"/><line style="stroke:#181818;stroke-width:1.0;stroke-dasharray:2.0,2.0;" x1="1471.7905" x2="1512.7905" y1="614.6465" y2="614.6465"/><polygon fill="#181818" points="1481.7905,610.6465,1471.7905,614.6465,1481.7905,618.6465,1477.7905,614.6465" style="stroke:#181818;stroke-width:1.0;"/><text fill="#000000" font-family="sans-serif" font-size="13" font-weight="bold" lengthAdjust="spacing" textLength="14.46" x="1477.7905" y="596.3838">14</text><text fill="#000000" font-family="sans-serif" font-size="13" lengthAdjust="spacing" textLength="152.4644" x="1496.2505" y="596.3838">validateIdentifier(identifier)</text><line style="stroke:#181818;stroke-width:1.0;stroke-dasharray:2.0,2.0;" x1="1470.7905" x2="1512.7905" y1="645.9375" y2="645.9375"/><line style="stroke:#181818;stroke-width:1.0;stroke-dasharray:2.0,2.0;" x1="1512.7905" x2="1512.7905" y1="645.9375" y2="658.9375"/><line style="stroke:#181818;stroke-width:1.0;stroke-dasharray:2.0,2.0;" x1="1471.7905" x2="1512.7905" y1="658.9375" y2="658.9375"/><polygon fill="#181818" points="1481.7905,654.9375,1471.7905,658.9375,1481.7905,662.9375,1477.7905,658.9375" style="stroke:#181818;stroke-width:1.0;"/><text fill="#000000" font-family="sans-serif" font-size="13" font-weight="bold" lengthAdjust="spacing" textLength="14.46" x="1477.7905" y="640.6748">15</text><text fill="#000000" font-family="sans-serif" font-size="13" lengthAdjust="spacing" textLength="280.3569" x="1496.2505" y="640.6748">validateWindToleranceData(windToleranceData)</text><polygon fill="#181818" points="601.6499,686.2285,591.6499,690.2285,601.6499,694.2285,597.6499,690.2285" style="stroke:#181818;stroke-width:1.0;"/><line style="stroke:#181818;stroke-width:1.0;stroke-dasharray:2.0,2.0;" x1="595.6499" x2="1459.7905" y1="690.2285" y2="690.2285"/><text fill="#000000" font-family="sans-serif" font-size="13" font-weight="bold" lengthAdjust="spacing" textLength="14.46" x="607.6499" y="684.9658">16</text><text fill="#000000" font-family="sans-serif" font-size="13" lengthAdjust="spacing" textLength="106.228" x="626.1099" y="684.9658">droneModelObject</text><polygon fill="#181818" points="1911.8208,747.5195,1921.8208,751.5195,1911.8208,755.5195,1915.8208,751.5195" style="stroke:#181818;stroke-width:1.0;"/><line style="stroke:#181818;stroke-width:1.0;" x1="590.6499" x2="1917.8208" y1="751.5195" y2="751.5195"/><text fill="#000000" font-family="sans-serif" font-size="13" font-weight="bold" lengthAdjust="spacing" textLength="14.46" x="597.6499" y="746.2568">17</text><text fill="#000000" font-family="sans-serif" font-size="13" lengthAdjust="spacing" textLength="136.5762" x="616.1099" y="746.2568">add(droneModelObject)</text><polygon fill="#181818" points="601.6499,778.8105,591.6499,782.8105,601.6499,786.8105,597.6499,782.8105" style="stroke:#181818;stroke-width:1.0;"/><line style="stroke:#181818;stroke-width:1.0;stroke-dasharray:2.0,2.0;" x1="595.6499" x2="1927.8208" y1="782.8105" y2="782.8105"/><text fill="#000000" font-family="sans-serif" font-size="13" font-weight="bold" lengthAdjust="spacing" textLength="14.46" x="607.6499" y="777.5479">18</text><text fill="#000000" font-family="sans-serif" font-size="13" lengthAdjust="spacing" textLength="70.8081" x="626.1099" y="777.5479">confirmation</text><polygon fill="#181818" points="2106.6099,810.1016,2116.6099,814.1016,2106.6099,818.1016,2110.6099,814.1016" style="stroke:#181818;stroke-width:1.0;"/><line style="stroke:#181818;stroke-width:1.0;" x1="590.6499" x2="2112.6099" y1="814.1016" y2="814.1016"/><text fill="#000000" font-family="sans-serif" font-size="13" font-weight="bold" lengthAdjust="spacing" textLength="14.46" x="597.6499" y="808.8389">19</text><text fill="#000000" font-family="sans-serif" font-size="13" lengthAdjust="spacing" textLength="136.5762" x="616.1099" y="808.8389">add(droneModelObject)</text><polygon fill="#181818" points="601.6499,841.3926,591.6499,845.3926,601.6499,849.3926,597.6499,845.3926" style="stroke:#181818;stroke-width:1.0;"/><line style="stroke:#181818;stroke-width:1.0;stroke-dasharray:2.0,2.0;" x1="595.6499" x2="2122.6099" y1="845.3926" y2="845.3926"/><text fill="#000000" font-family="sans-serif" font-size="13" font-weight="bold" lengthAdjust="spacing" textLength="14.46" x="607.6499" y="840.1299">20</text><text fill="#000000" font-family="sans-serif" font-size="13" lengthAdjust="spacing" textLength="70.8081" x="626.1099" y="840.1299">confirmation</text><polygon fill="#181818" points="430.2437,872.6836,420.2437,876.6836,430.2437,880.6836,426.2437,876.6836" style="stroke:#181818;stroke-width:1.0;"/><line style="stroke:#181818;stroke-width:1.0;" x1="424.2437" x2="574.6499" y1="876.6836" y2="876.6836"/><text fill="#000000" font-family="sans-serif" font-size="13" font-weight="bold" lengthAdjust="spacing" textLength="14.46" x="436.2437" y="871.4209">21</text><text fill="#000000" font-family="sans-serif" font-size="13" lengthAdjust="spacing" textLength="106.228" x="454.7036" y="871.4209">droneModelObject</text><polygon fill="#181818" points="55.5723,903.9746,45.5723,907.9746,55.5723,911.9746,51.5723,907.9746" style="stroke:#181818;stroke-width:1.0;"/><line style="stroke:#181818;stroke-width:1.0;" x1="49.5723" x2="413.2437" y1="907.9746" y2="907.9746"/><text fill="#000000" font-family="sans-serif" font-size="13" font-weight="bold" lengthAdjust="spacing" textLength="14.46" x="61.5723" y="902.7119">22</text><text fill="#000000" font-family="sans-serif" font-size="13" lengthAdjust="spacing" textLength="164.0171" x="80.0322" y="902.7119">shows operation (in)success</text><!--SRC=[bLR1Zjem4BtxAonEi2e_mA4I0bLAjQkY1THBBzvu09V4Jct3Yh_ls0c9dJWhy0bFPjwy6VkDCMSXAwPPIKibLNxIgWHgzGM8QRzKB3-p8spjhG2g8RTC7elGmPmOLvz27kc15GO8iSAYwpwZM_Xt0Pa3NGjsTAxJxNf6vtIjbGJwfZWKTAM1MQ4a8UnYbRoK7w3nTswLffFQSGVvQKAPeTnjtOvWPYjoKJ5fwMInvDnxUiHzvdttsLTEAoMjLaK1sZklTk-liJjFkFwHYr44NgwiBdeftw5IHc0b0eptQWsthN1Tn8BZ41r4OBe1mEPrkHiZse57H3jpGzGPI0noyFs-RRIw2kuB_H5RVAZpSeOn0arCLbP5n22mDnISnMt7aABmxkZzbem5_Tmi1waRMvCMTt6ma6zG8hLrkedP5vyRI7GW_hgAAxCGt512SRLREl_k1B70e3ErYkRkrWDbeHHyH8k4zzSRC0fZEw0Que3gy3OKhbCHPvRHAPwKjE8WG7-ZA4Y-KtWz6GfmZPzd8uog-eZD02_CxmJoyeBUDN4IS_NoyIQttEuUWn57iAd-JMTjm0XEY9KGJWsTIMDTXG5S19bINEJfLWfztbImeA4cer0EZwUv5-84_51JeYgyx0UqFLR7CpK9nlXwm26_xjIIO2I1b3xx-wZebzgCWjJXjzCbujK29RarS2bUGxWxjsxyjFUv8_Y8XYBQmJ2BUjqbcVTpNbaXK62GjQc2hBEdONxtMKuJl0UNfuSyQEslZx_urW_2HiuzQ7pGa4JhSGIx4SRvj9ygsLitiNiDSGW1urp9Wz1b_HyYIIV2w9ZWv7w6YH_qCHE7y1IJ2EFEn0_XPD-JAXk-1-QaFWrL5HwtIutFW9oPIvw3COG46FYYX6pQb-e_]--></g></svg>