<svg xmlns="http://www.w3.org/2000/svg" xmlns:xlink="http://www.w3.org/1999/xlink" contentStyleType="text/css" height="1099px" preserveAspectRatio="none" style="width:1944px;height:1099px;background:#FFFFFF;" version="1.1" viewBox="0 0 1944 1099" width="1944px" zoomAndPan="magnify"><title>UI Sequence Diagram (SSD) - Inactivate/Activate Figure Category</title><defs/><g><text fill="#000000" font-family="sans-serif" font-size="14" font-weight="bold" lengthAdjust="spacing" textLength="469.5264" x="738.334" y="28.5352">UI Sequence Diagram (SSD) - Inactivate/Activate Figure Category</text><rect fill="#FFFFFF" height="879.6055" style="stroke:#181818;stroke-width:1.0;" width="10" x="68.2305" y="128.9766"/><rect fill="#FFFFFF" height="858.2949" style="stroke:#181818;stroke-width:1.0;" width="10" x="369.8887" y="150.2871"/><rect fill="#FFFFFF" height="251.4395" style="stroke:#181818;stroke-width:1.0;" width="10" x="629.8154" y="179.5977"/><rect fill="#FFFFFF" height="376.7266" style="stroke:#181818;stroke-width:1.0;" width="10" x="629.8154" y="518.9688"/><rect fill="#FFFFFF" height="29.3105" style="stroke:#181818;stroke-width:1.0;" width="10" x="849.1509" y="208.9082"/><rect fill="#FFFFFF" height="29.3105" style="stroke:#181818;stroke-width:1.0;" width="10" x="849.1509" y="548.2793"/><rect fill="#FFFFFF" height="29.3105" style="stroke:#181818;stroke-width:1.0;" width="10" x="1257.8867" y="291.8398"/><rect fill="#FFFFFF" height="70.7988" style="stroke:#181818;stroke-width:1.0;" width="10" x="1257.8867" y="631.2109"/><rect fill="#FFFFFF" height="29.3105" style="stroke:#181818;stroke-width:1.0;" width="10" x="1480.7783" y="365.416"/><rect fill="#FFFFFF" height="113.1094" style="stroke:#181818;stroke-width:1.0;" width="10" x="1480.7783" y="746.2754"/><rect fill="none" height="149.5078" style="stroke:#000000;stroke-width:1.5;" width="1063.2817" x="517.0161" y="253.2188"/><rect fill="none" height="274.7949" style="stroke:#000000;stroke-width:1.5;" width="1420.1782" x="517.0161" y="592.5898"/><rect fill="none" height="90.8867" style="stroke:#000000;stroke-width:1.5;" width="479.6152" x="10" y="910.6953"/><line style="stroke:#181818;stroke-width:0.5;stroke-dasharray:5.0,5.0;" x1="73" x2="73" y1="118.9766" y2="1018.582"/><line style="stroke:#181818;stroke-width:0.5;stroke-dasharray:5.0,5.0;" x1="374.1621" x2="374.1621" y1="118.9766" y2="1018.582"/><line style="stroke:#181818;stroke-width:0.5;stroke-dasharray:5.0,5.0;" x1="634.0161" x2="634.0161" y1="118.9766" y2="1018.582"/><line style="stroke:#181818;stroke-width:0.5;stroke-dasharray:5.0,5.0;" x1="853.2383" x2="853.2383" y1="118.9766" y2="1018.582"/><line style="stroke:#181818;stroke-width:0.5;stroke-dasharray:5.0,5.0;" x1="1029.0635" x2="1029.0635" y1="118.9766" y2="1018.582"/><line style="stroke:#181818;stroke-width:0.5;stroke-dasharray:5.0,5.0;" x1="1262.5146" x2="1262.5146" y1="118.9766" y2="1018.582"/><line style="stroke:#181818;stroke-width:0.5;stroke-dasharray:5.0,5.0;" x1="1485.2588" x2="1485.2588" y1="118.9766" y2="1018.582"/><line style="stroke:#181818;stroke-width:0.5;stroke-dasharray:5.0,5.0;" x1="1867.8691" x2="1867.8691" y1="827.3301" y2="1018.582"/><text fill="#000000" font-family="sans-serif" font-size="14" lengthAdjust="spacing" textLength="100.4609" x="20" y="116.0234">Show Designer</text><ellipse cx="73.2305" cy="50.9883" fill="#E3E3E3" rx="8" ry="8" style="stroke:#181818;stroke-width:0.5;"/><path d="M73.2305,58.9883 L73.2305,85.9883 M60.2305,66.9883 L86.2305,66.9883 M73.2305,85.9883 L60.2305,100.9883 M73.2305,85.9883 L86.2305,100.9883 " fill="none" style="stroke:#181818;stroke-width:0.5;"/><text fill="#000000" font-family="sans-serif" font-size="14" lengthAdjust="spacing" textLength="100.4609" x="20" y="1031.1172">Show Designer</text><ellipse cx="73.2305" cy="1042.5703" fill="#E3E3E3" rx="8" ry="8" style="stroke:#181818;stroke-width:0.5;"/><path d="M73.2305,1050.5703 L73.2305,1077.5703 M60.2305,1058.5703 L86.2305,1058.5703 M73.2305,1077.5703 L60.2305,1092.5703 M73.2305,1077.5703 L86.2305,1092.5703 " fill="none" style="stroke:#181818;stroke-width:0.5;"/><rect fill="#E3E3E3" height="30.4883" rx="2.5" ry="2.5" style="stroke:#181818;stroke-width:0.5;" width="209.4531" x="270.1621" y="87.4883"/><text fill="#000000" font-family="sans-serif" font-size="14" lengthAdjust="spacing" textLength="195.4531" x="277.1621" y="108.0234">:FigureCategoryAvailabilityUI</text><rect fill="#E3E3E3" height="30.4883" rx="2.5" ry="2.5" style="stroke:#181818;stroke-width:0.5;" width="209.4531" x="270.1621" y="1017.582"/><text fill="#000000" font-family="sans-serif" font-size="14" lengthAdjust="spacing" textLength="195.4531" x="277.1621" y="1038.1172">:FigureCategoryAvailabilityUI</text><rect fill="#E3E3E3" height="30.4883" rx="2.5" ry="2.5" style="stroke:#181818;stroke-width:0.5;" width="215.5986" x="527.0161" y="87.4883"/><text fill="#000000" font-family="sans-serif" font-size="14" lengthAdjust="spacing" textLength="201.5986" x="534.0161" y="108.0234">:EditFigureCategoryController</text><rect fill="#E3E3E3" height="30.4883" rx="2.5" ry="2.5" style="stroke:#181818;stroke-width:0.5;" width="215.5986" x="527.0161" y="1017.582"/><text fill="#000000" font-family="sans-serif" font-size="14" lengthAdjust="spacing" textLength="201.5986" x="534.0161" y="1038.1172">:EditFigureCategoryController</text><rect fill="#E3E3E3" height="30.4883" rx="2.5" ry="2.5" style="stroke:#181818;stroke-width:0.5;" width="141.8252" x="783.2383" y="87.4883"/><text fill="#000000" font-family="sans-serif" font-size="14" lengthAdjust="spacing" textLength="127.8252" x="790.2383" y="108.0234">RepositoryProvider</text><rect fill="#E3E3E3" height="30.4883" rx="2.5" ry="2.5" style="stroke:#181818;stroke-width:0.5;" width="141.8252" x="783.2383" y="1017.582"/><text fill="#000000" font-family="sans-serif" font-size="14" lengthAdjust="spacing" textLength="127.8252" x="790.2383" y="1038.1172">RepositoryProvider</text><rect fill="#E3E3E3" height="30.4883" rx="2.5" ry="2.5" style="stroke:#181818;stroke-width:0.5;" width="189.4512" x="935.0635" y="87.4883"/><text fill="#000000" font-family="sans-serif" font-size="14" lengthAdjust="spacing" textLength="175.4512" x="942.0635" y="108.0234">FigureCategoryRepository</text><rect fill="#E3E3E3" height="30.4883" rx="2.5" ry="2.5" style="stroke:#181818;stroke-width:0.5;" width="189.4512" x="935.0635" y="1017.582"/><text fill="#000000" font-family="sans-serif" font-size="14" lengthAdjust="spacing" textLength="175.4512" x="942.0635" y="1038.1172">FigureCategoryRepository</text><rect fill="#E3E3E3" height="30.4883" rx="2.5" ry="2.5" style="stroke:#181818;stroke-width:0.5;" width="256.7441" x="1134.5146" y="87.4883"/><text fill="#000000" font-family="sans-serif" font-size="14" lengthAdjust="spacing" textLength="242.7441" x="1141.5146" y="108.0234">InMemoryFigureCategoryRepository</text><rect fill="#E3E3E3" height="30.4883" rx="2.5" ry="2.5" style="stroke:#181818;stroke-width:0.5;" width="256.7441" x="1134.5146" y="1017.582"/><text fill="#000000" font-family="sans-serif" font-size="14" lengthAdjust="spacing" textLength="242.7441" x="1141.5146" y="1038.1172">InMemoryFigureCategoryRepository</text><rect fill="#E3E3E3" height="30.4883" rx="2.5" ry="2.5" style="stroke:#181818;stroke-width:0.5;" width="169.0391" x="1401.2588" y="87.4883"/><text fill="#000000" font-family="sans-serif" font-size="14" lengthAdjust="spacing" textLength="155.0391" x="1408.2588" y="108.0234">FigureCategoryJPAImpl</text><rect fill="#E3E3E3" height="30.4883" rx="2.5" ry="2.5" style="stroke:#181818;stroke-width:0.5;" width="169.0391" x="1401.2588" y="1017.582"/><text fill="#000000" font-family="sans-serif" font-size="14" lengthAdjust="spacing" textLength="155.0391" x="1408.2588" y="1038.1172">FigureCategoryJPAImpl</text><rect fill="#E3E3E3" height="30.4883" rx="2.5" ry="2.5" style="stroke:#181818;stroke-width:0.5;" width="117.3252" x="1809.8691" y="1017.582"/><text fill="#000000" font-family="sans-serif" font-size="14" lengthAdjust="spacing" textLength="103.3252" x="1816.8691" y="1038.1172">FigureCategory</text><rect fill="#FFFFFF" height="879.6055" style="stroke:#181818;stroke-width:1.0;" width="10" x="68.2305" y="128.9766"/><rect fill="#FFFFFF" height="858.2949" style="stroke:#181818;stroke-width:1.0;" width="10" x="369.8887" y="150.2871"/><rect fill="#FFFFFF" height="251.4395" style="stroke:#181818;stroke-width:1.0;" width="10" x="629.8154" y="179.5977"/><rect fill="#FFFFFF" height="376.7266" style="stroke:#181818;stroke-width:1.0;" width="10" x="629.8154" y="518.9688"/><rect fill="#FFFFFF" height="29.3105" style="stroke:#181818;stroke-width:1.0;" width="10" x="849.1509" y="208.9082"/><rect fill="#FFFFFF" height="29.3105" style="stroke:#181818;stroke-width:1.0;" width="10" x="849.1509" y="548.2793"/><rect fill="#FFFFFF" height="29.3105" style="stroke:#181818;stroke-width:1.0;" width="10" x="1257.8867" y="291.8398"/><rect fill="#FFFFFF" height="70.7988" style="stroke:#181818;stroke-width:1.0;" width="10" x="1257.8867" y="631.2109"/><rect fill="#FFFFFF" height="29.3105" style="stroke:#181818;stroke-width:1.0;" width="10" x="1480.7783" y="365.416"/><rect fill="#FFFFFF" height="113.1094" style="stroke:#181818;stroke-width:1.0;" width="10" x="1480.7783" y="746.2754"/><polygon fill="#181818" points="357.8887,146.2871,367.8887,150.2871,357.8887,154.2871,361.8887,150.2871" style="stroke:#181818;stroke-width:1.0;"/><line style="stroke:#181818;stroke-width:1.0;" x1="78.2305" x2="363.8887" y1="150.2871" y2="150.2871"/><text fill="#000000" font-family="sans-serif" font-size="13" font-weight="bold" lengthAdjust="spacing" textLength="8.5757" x="85.2305" y="145.5449">1</text><text fill="#000000" font-family="sans-serif" font-size="13" lengthAdjust="spacing" textLength="260.0825" x="97.8062" y="145.5449">request to change availability of category</text><polygon fill="#181818" points="617.8154,175.5977,627.8154,179.5977,617.8154,183.5977,621.8154,179.5977" style="stroke:#181818;stroke-width:1.0;"/><line style="stroke:#181818;stroke-width:1.0;" x1="379.8887" x2="623.8154" y1="179.5977" y2="179.5977"/><text fill="#000000" font-family="sans-serif" font-size="13" font-weight="bold" lengthAdjust="spacing" textLength="8.5757" x="386.8887" y="174.8555">2</text><text fill="#000000" font-family="sans-serif" font-size="13" lengthAdjust="spacing" textLength="151.9312" x="399.4644" y="174.8555">getAllFigureCategories()</text><polygon fill="#181818" points="837.1509,204.9082,847.1509,208.9082,837.1509,212.9082,841.1509,208.9082" style="stroke:#181818;stroke-width:1.0;"/><line style="stroke:#181818;stroke-width:1.0;" x1="639.8154" x2="843.1509" y1="208.9082" y2="208.9082"/><text fill="#000000" font-family="sans-serif" font-size="13" font-weight="bold" lengthAdjust="spacing" textLength="8.5757" x="646.8154" y="204.166">3</text><text fill="#000000" font-family="sans-serif" font-size="13" lengthAdjust="spacing" textLength="169.1841" x="659.3911" y="204.166">figureCategoryRepository()</text><polygon fill="#181818" points="650.8154,234.2188,640.8154,238.2188,650.8154,242.2188,646.8154,238.2188" style="stroke:#181818;stroke-width:1.0;"/><line style="stroke:#181818;stroke-width:1.0;stroke-dasharray:2.0,2.0;" x1="644.8154" x2="853.1509" y1="238.2188" y2="238.2188"/><text fill="#000000" font-family="sans-serif" font-size="13" font-weight="bold" lengthAdjust="spacing" textLength="8.5757" x="656.8154" y="233.4766">4</text><text fill="#000000" font-family="sans-serif" font-size="13" lengthAdjust="spacing" textLength="120.6499" x="669.3911" y="233.4766">repository instance</text><path d="M517.0161,253.2188 L579.1548,253.2188 L579.1548,260.5293 L569.1548,270.5293 L517.0161,270.5293 L517.0161,253.2188 " fill="#EEEEEE" style="stroke:#000000;stroke-width:1.5;"/><rect fill="none" height="149.5078" style="stroke:#000000;stroke-width:1.5;" width="1063.2817" x="517.0161" y="253.2188"/><text fill="#000000" font-family="sans-serif" font-size="13" font-weight="bold" lengthAdjust="spacing" textLength="17.1387" x="532.0161" y="266.7871">alt</text><text fill="#000000" font-family="sans-serif" font-size="11" font-weight="bold" lengthAdjust="spacing" textLength="290.415" x="594.1548" y="265.8535">[Repository is InMemoryFigureCategoryRepository]</text><polygon fill="#181818" points="1245.8867,287.8398,1255.8867,291.8398,1245.8867,295.8398,1249.8867,291.8398" style="stroke:#181818;stroke-width:1.0;"/><line style="stroke:#181818;stroke-width:1.0;" x1="639.8154" x2="1251.8867" y1="291.8398" y2="291.8398"/><text fill="#000000" font-family="sans-serif" font-size="13" font-weight="bold" lengthAdjust="spacing" textLength="8.5757" x="646.8154" y="287.0977">5</text><text fill="#000000" font-family="sans-serif" font-size="13" lengthAdjust="spacing" textLength="49.7275" x="659.3911" y="287.0977">findAll()</text><polygon fill="#181818" points="650.8154,317.1504,640.8154,321.1504,650.8154,325.1504,646.8154,321.1504" style="stroke:#181818;stroke-width:1.0;"/><line style="stroke:#181818;stroke-width:1.0;stroke-dasharray:2.0,2.0;" x1="644.8154" x2="1261.8867" y1="321.1504" y2="321.1504"/><text fill="#000000" font-family="sans-serif" font-size="13" font-weight="bold" lengthAdjust="spacing" textLength="8.5757" x="656.8154" y="316.4082">6</text><text fill="#000000" font-family="sans-serif" font-size="13" lengthAdjust="spacing" textLength="138.7915" x="669.3911" y="316.4082">List&lt;FigureCategory&gt;</text><line style="stroke:#000000;stroke-width:1.0;stroke-dasharray:2.0,2.0;" x1="517.0161" x2="1580.2979" y1="330.1504" y2="330.1504"/><text fill="#000000" font-family="sans-serif" font-size="11" font-weight="bold" lengthAdjust="spacing" textLength="217.5938" x="522.0161" y="340.7852">[Repository is FigureCategoryJPAImpl]</text><polygon fill="#181818" points="1468.7783,361.416,1478.7783,365.416,1468.7783,369.416,1472.7783,365.416" style="stroke:#181818;stroke-width:1.0;"/><line style="stroke:#181818;stroke-width:1.0;" x1="639.8154" x2="1474.7783" y1="365.416" y2="365.416"/><text fill="#000000" font-family="sans-serif" font-size="13" font-weight="bold" lengthAdjust="spacing" textLength="8.5757" x="646.8154" y="360.6738">7</text><text fill="#000000" font-family="sans-serif" font-size="13" lengthAdjust="spacing" textLength="49.7275" x="659.3911" y="360.6738">findAll()</text><polygon fill="#181818" points="650.8154,390.7266,640.8154,394.7266,650.8154,398.7266,646.8154,394.7266" style="stroke:#181818;stroke-width:1.0;"/><line style="stroke:#181818;stroke-width:1.0;stroke-dasharray:2.0,2.0;" x1="644.8154" x2="1484.7783" y1="394.7266" y2="394.7266"/><text fill="#000000" font-family="sans-serif" font-size="13" font-weight="bold" lengthAdjust="spacing" textLength="8.5757" x="656.8154" y="389.9844">8</text><text fill="#000000" font-family="sans-serif" font-size="13" lengthAdjust="spacing" textLength="138.7915" x="669.3911" y="389.9844">List&lt;FigureCategory&gt;</text><polygon fill="#181818" points="390.8887,427.0371,380.8887,431.0371,390.8887,435.0371,386.8887,431.0371" style="stroke:#181818;stroke-width:1.0;"/><line style="stroke:#181818;stroke-width:1.0;stroke-dasharray:2.0,2.0;" x1="384.8887" x2="633.8154" y1="431.0371" y2="431.0371"/><text fill="#000000" font-family="sans-serif" font-size="13" font-weight="bold" lengthAdjust="spacing" textLength="8.5757" x="396.8887" y="426.2949">9</text><text fill="#000000" font-family="sans-serif" font-size="13" lengthAdjust="spacing" textLength="213.3511" x="409.4644" y="426.2949">Optional&lt;List&lt;FigureCategory&gt;&gt;</text><polygon fill="#181818" points="89.2305,456.3477,79.2305,460.3477,89.2305,464.3477,85.2305,460.3477" style="stroke:#181818;stroke-width:1.0;"/><line style="stroke:#181818;stroke-width:1.0;" x1="83.2305" x2="368.8887" y1="460.3477" y2="460.3477"/><text fill="#000000" font-family="sans-serif" font-size="13" font-weight="bold" lengthAdjust="spacing" textLength="17.1514" x="95.2305" y="455.6055">10</text><text fill="#000000" font-family="sans-serif" font-size="13" lengthAdjust="spacing" textLength="201.7666" x="116.3818" y="455.6055">show categories to choose from</text><polygon fill="#181818" points="357.8887,485.6582,367.8887,489.6582,357.8887,493.6582,361.8887,489.6582" style="stroke:#181818;stroke-width:1.0;"/><line style="stroke:#181818;stroke-width:1.0;" x1="78.2305" x2="363.8887" y1="489.6582" y2="489.6582"/><text fill="#000000" font-family="sans-serif" font-size="13" font-weight="bold" lengthAdjust="spacing" textLength="17.1514" x="85.2305" y="484.916">11</text><text fill="#000000" font-family="sans-serif" font-size="13" lengthAdjust="spacing" textLength="101.2769" x="106.3818" y="484.916">selects category</text><polygon fill="#181818" points="617.8154,514.9688,627.8154,518.9688,617.8154,522.9688,621.8154,518.9688" style="stroke:#181818;stroke-width:1.0;"/><line style="stroke:#181818;stroke-width:1.0;" x1="379.8887" x2="623.8154" y1="518.9688" y2="518.9688"/><text fill="#000000" font-family="sans-serif" font-size="13" font-weight="bold" lengthAdjust="spacing" textLength="17.1514" x="386.8887" y="514.2266">12</text><text fill="#000000" font-family="sans-serif" font-size="13" lengthAdjust="spacing" textLength="200.6748" x="408.04" y="514.2266">changeStatus(selectedCategory)</text><polygon fill="#181818" points="837.1509,544.2793,847.1509,548.2793,837.1509,552.2793,841.1509,548.2793" style="stroke:#181818;stroke-width:1.0;"/><line style="stroke:#181818;stroke-width:1.0;" x1="639.8154" x2="843.1509" y1="548.2793" y2="548.2793"/><text fill="#000000" font-family="sans-serif" font-size="13" font-weight="bold" lengthAdjust="spacing" textLength="17.1514" x="646.8154" y="543.5371">13</text><text fill="#000000" font-family="sans-serif" font-size="13" lengthAdjust="spacing" textLength="169.1841" x="667.9668" y="543.5371">figureCategoryRepository()</text><polygon fill="#181818" points="650.8154,573.5898,640.8154,577.5898,650.8154,581.5898,646.8154,577.5898" style="stroke:#181818;stroke-width:1.0;"/><line style="stroke:#181818;stroke-width:1.0;stroke-dasharray:2.0,2.0;" x1="644.8154" x2="853.1509" y1="577.5898" y2="577.5898"/><text fill="#000000" font-family="sans-serif" font-size="13" font-weight="bold" lengthAdjust="spacing" textLength="17.1514" x="656.8154" y="572.8477">14</text><text fill="#000000" font-family="sans-serif" font-size="13" lengthAdjust="spacing" textLength="120.6499" x="677.9668" y="572.8477">repository instance</text><path d="M517.0161,592.5898 L579.1548,592.5898 L579.1548,599.9004 L569.1548,609.9004 L517.0161,609.9004 L517.0161,592.5898 " fill="#EEEEEE" style="stroke:#000000;stroke-width:1.5;"/><rect fill="none" height="274.7949" style="stroke:#000000;stroke-width:1.5;" width="1420.1782" x="517.0161" y="592.5898"/><text fill="#000000" font-family="sans-serif" font-size="13" font-weight="bold" lengthAdjust="spacing" textLength="17.1387" x="532.0161" y="606.1582">alt</text><text fill="#000000" font-family="sans-serif" font-size="11" font-weight="bold" lengthAdjust="spacing" textLength="290.415" x="594.1548" y="605.2246">[Repository is InMemoryFigureCategoryRepository]</text><polygon fill="#181818" points="1245.8867,627.2109,1255.8867,631.2109,1245.8867,635.2109,1249.8867,631.2109" style="stroke:#181818;stroke-width:1.0;"/><line style="stroke:#181818;stroke-width:1.0;" x1="639.8154" x2="1251.8867" y1="631.2109" y2="631.2109"/><text fill="#000000" font-family="sans-serif" font-size="13" font-weight="bold" lengthAdjust="spacing" textLength="17.1514" x="646.8154" y="626.4688">15</text><text fill="#000000" font-family="sans-serif" font-size="13" lengthAdjust="spacing" textLength="146.5229" x="667.9668" y="626.4688">changeStatus(category)</text><polygon fill="#181818" points="1797.8691,656.5215,1807.8691,660.5215,1797.8691,664.5215,1801.8691,660.5215" style="stroke:#181818;stroke-width:1.0;"/><line style="stroke:#181818;stroke-width:1.0;" x1="1267.8867" x2="1803.8691" y1="660.5215" y2="660.5215"/><text fill="#000000" font-family="sans-serif" font-size="13" font-weight="bold" lengthAdjust="spacing" textLength="17.1514" x="1274.8867" y="655.7793">16</text><text fill="#000000" font-family="sans-serif" font-size="13" lengthAdjust="spacing" textLength="273.9395" x="1296.0381" y="655.7793">toggleState(), updateTime(), setUpdatedBy()</text><rect fill="#E3E3E3" height="30.4883" rx="2.5" ry="2.5" style="stroke:#181818;stroke-width:0.5;" width="117.3252" x="1809.8691" y="639.2109"/><text fill="#000000" font-family="sans-serif" font-size="14" lengthAdjust="spacing" textLength="103.3252" x="1816.8691" y="659.7461">FigureCategory</text><polygon fill="#181818" points="650.8154,698.0098,640.8154,702.0098,650.8154,706.0098,646.8154,702.0098" style="stroke:#181818;stroke-width:1.0;"/><line style="stroke:#181818;stroke-width:1.0;stroke-dasharray:2.0,2.0;" x1="644.8154" x2="1261.8867" y1="702.0098" y2="702.0098"/><text fill="#000000" font-family="sans-serif" font-size="13" font-weight="bold" lengthAdjust="spacing" textLength="17.1514" x="656.8154" y="697.2676">17</text><text fill="#000000" font-family="sans-serif" font-size="13" lengthAdjust="spacing" textLength="170.5044" x="677.9668" y="697.2676">Optional&lt;FigureCategory&gt;</text><line style="stroke:#000000;stroke-width:1.0;stroke-dasharray:2.0,2.0;" x1="517.0161" x2="1937.1943" y1="711.0098" y2="711.0098"/><text fill="#000000" font-family="sans-serif" font-size="11" font-weight="bold" lengthAdjust="spacing" textLength="217.5938" x="522.0161" y="721.6445">[Repository is FigureCategoryJPAImpl]</text><polygon fill="#181818" points="1468.7783,742.2754,1478.7783,746.2754,1468.7783,750.2754,1472.7783,746.2754" style="stroke:#181818;stroke-width:1.0;"/><line style="stroke:#181818;stroke-width:1.0;" x1="639.8154" x2="1474.7783" y1="746.2754" y2="746.2754"/><text fill="#000000" font-family="sans-serif" font-size="13" font-weight="bold" lengthAdjust="spacing" textLength="17.1514" x="646.8154" y="741.5332">18</text><text fill="#000000" font-family="sans-serif" font-size="13" lengthAdjust="spacing" textLength="146.5229" x="667.9668" y="741.5332">changeStatus(category)</text><line style="stroke:#181818;stroke-width:1.0;" x1="1490.7783" x2="1532.7783" y1="775.5859" y2="775.5859"/><line style="stroke:#181818;stroke-width:1.0;" x1="1532.7783" x2="1532.7783" y1="775.5859" y2="788.5859"/><line style="stroke:#181818;stroke-width:1.0;" x1="1491.7783" x2="1532.7783" y1="788.5859" y2="788.5859"/><polygon fill="#181818" points="1501.7783,784.5859,1491.7783,788.5859,1501.7783,792.5859,1497.7783,788.5859" style="stroke:#181818;stroke-width:1.0;"/><text fill="#000000" font-family="sans-serif" font-size="13" font-weight="bold" lengthAdjust="spacing" textLength="17.1514" x="1497.7783" y="770.8438">19</text><text fill="#000000" font-family="sans-serif" font-size="13" lengthAdjust="spacing" textLength="205.8862" x="1518.9297" y="770.8438">entityManager().find(category.id)</text><polygon fill="#181818" points="1797.8691,813.8965,1807.8691,817.8965,1797.8691,821.8965,1801.8691,817.8965" style="stroke:#181818;stroke-width:1.0;"/><line style="stroke:#181818;stroke-width:1.0;" x1="1490.7783" x2="1803.8691" y1="817.8965" y2="817.8965"/><text fill="#000000" font-family="sans-serif" font-size="13" font-weight="bold" lengthAdjust="spacing" textLength="17.1514" x="1497.7783" y="813.1543">20</text><text fill="#000000" font-family="sans-serif" font-size="13" lengthAdjust="spacing" textLength="273.9395" x="1518.9297" y="813.1543">toggleState(), updateTime(), setUpdatedBy()</text><rect fill="#E3E3E3" height="30.4883" rx="2.5" ry="2.5" style="stroke:#181818;stroke-width:0.5;" width="117.3252" x="1809.8691" y="796.5859"/><text fill="#000000" font-family="sans-serif" font-size="14" lengthAdjust="spacing" textLength="103.3252" x="1816.8691" y="817.1211">FigureCategory</text><polygon fill="#181818" points="650.8154,855.3848,640.8154,859.3848,650.8154,863.3848,646.8154,859.3848" style="stroke:#181818;stroke-width:1.0;"/><line style="stroke:#181818;stroke-width:1.0;stroke-dasharray:2.0,2.0;" x1="644.8154" x2="1484.7783" y1="859.3848" y2="859.3848"/><text fill="#000000" font-family="sans-serif" font-size="13" font-weight="bold" lengthAdjust="spacing" textLength="17.1514" x="656.8154" y="854.6426">21</text><text fill="#000000" font-family="sans-serif" font-size="13" lengthAdjust="spacing" textLength="170.5044" x="677.9668" y="854.6426">Optional&lt;FigureCategory&gt;</text><polygon fill="#181818" points="390.8887,891.6953,380.8887,895.6953,390.8887,899.6953,386.8887,895.6953" style="stroke:#181818;stroke-width:1.0;"/><line style="stroke:#181818;stroke-width:1.0;stroke-dasharray:2.0,2.0;" x1="384.8887" x2="633.8154" y1="895.6953" y2="895.6953"/><text fill="#000000" font-family="sans-serif" font-size="13" font-weight="bold" lengthAdjust="spacing" textLength="17.1514" x="396.8887" y="890.9531">22</text><text fill="#000000" font-family="sans-serif" font-size="13" lengthAdjust="spacing" textLength="170.5044" x="418.04" y="890.9531">Optional&lt;FigureCategory&gt;</text><path d="M10,910.6953 L72.1387,910.6953 L72.1387,918.0059 L62.1387,928.0059 L10,928.0059 L10,910.6953 " fill="#EEEEEE" style="stroke:#000000;stroke-width:1.5;"/><rect fill="none" height="90.8867" style="stroke:#000000;stroke-width:1.5;" width="479.6152" x="10" y="910.6953"/><text fill="#000000" font-family="sans-serif" font-size="13" font-weight="bold" lengthAdjust="spacing" textLength="17.1387" x="25" y="924.2637">alt</text><text fill="#000000" font-family="sans-serif" font-size="11" font-weight="bold" lengthAdjust="spacing" textLength="52.2554" x="87.1387" y="923.3301">[Success]</text><polygon fill="#181818" points="89.2305,945.3164,79.2305,949.3164,89.2305,953.3164,85.2305,949.3164" style="stroke:#181818;stroke-width:1.0;"/><line style="stroke:#181818;stroke-width:1.0;" x1="83.2305" x2="368.8887" y1="949.3164" y2="949.3164"/><text fill="#000000" font-family="sans-serif" font-size="13" font-weight="bold" lengthAdjust="spacing" textLength="17.1514" x="95.2305" y="944.5742">23</text><text fill="#000000" font-family="sans-serif" font-size="13" lengthAdjust="spacing" textLength="108.1577" x="116.3818" y="944.5742">Success message</text><line style="stroke:#000000;stroke-width:1.0;stroke-dasharray:2.0,2.0;" x1="10" x2="489.6152" y1="958.3164" y2="958.3164"/><text fill="#000000" font-family="sans-serif" font-size="11" font-weight="bold" lengthAdjust="spacing" textLength="46.7607" x="15" y="968.9512">[Failure]</text><polygon fill="#181818" points="89.2305,989.582,79.2305,993.582,89.2305,997.582,85.2305,993.582" style="stroke:#181818;stroke-width:1.0;"/><line style="stroke:#181818;stroke-width:1.0;" x1="83.2305" x2="368.8887" y1="993.582" y2="993.582"/><text fill="#000000" font-family="sans-serif" font-size="13" font-weight="bold" lengthAdjust="spacing" textLength="17.1514" x="95.2305" y="988.8398">24</text><text fill="#000000" font-family="sans-serif" font-size="13" lengthAdjust="spacing" textLength="90.2637" x="116.3818" y="988.8398">Error message</text><!--SRC=[tLRRRk8m47tFLunuWchflgCAYIMjbAhLLgHyWEiCmQfZPss7Yh_VoSsv02shlcqVAjivvtWySyR6lWkLCyCooBJIV6zqXk1CWO7rNtB6trcAiJjA18FSCPNAFi3kMQ8_X4fXnwJ587324NGRGOn_2bGS8HGiBQ7JE0vdC8T8CUx4WJdykMe6y23ImY2iQPngSmm2LZYjYkmD3OsvqmOcyLv_G8XMf0hD19Y5E0me2YUuo9boC5dKCgtAwi24P6z22dVSHXLZ6uqOzubmGzPQAsUqbCqUwzVDqv2pmLnRGI4TNum-YAG1jfCXUAZTKIjAEHt28_MC6Nt-b5Q1Jhb3pkFBAifoMH4US_OLl3vhb_wsC9JYE8JvigpeWXn0DRKEd0Q-9oiWi5wEGU-0jn9UWL8U49aaobIII8fk9ULWUu5sEkieLSw32awqDh54tLr8Iv_iw-1vysvluoaWb2KtSmmIFEK6J3hOzC1DrZyfJG3qryRiIrG5hH8wCCLO8lnUNHNBvOxGY_P9M7Stt6zPeNiXTp98_JUA-Qmb1e4srhWSPkkTSh45_sE8hGIgfArgQwZVkHDQCNbtJcVPBqtjYTf8vCW5tJnq7N3ldzgJMbCETdIJ1NtRMfHqTTdEd0C_rawE7NE5dTPGJDeW_bjN3axD_Mcli-ZINnKtDwJbT4glGgc5qzaFAFA4HgyYgsOMtRPQI7uT6tETDRktmjM67ttmjzSt6-6Qp9pjYhu8Ade8ZyzCqUjffhFRihkysAr8PcFgjn9wBWiN6lRQD5_Jj6E9atOj_HeNdAErbNwlVPjboEWVvQWksWCz9gGunjuRGpy0FBACgBSLFJ2zMHp-1G00]--></g></svg>