<svg xmlns="http://www.w3.org/2000/svg" xmlns:xlink="http://www.w3.org/1999/xlink" contentStyleType="text/css" height="1125px" preserveAspectRatio="none" style="width:2034px;height:1125px;background:#FFFFFF;" version="1.1" viewBox="0 0 2034 1125" width="2034px" zoomAndPan="magnify"><title>UI Sequence Diagram (SSD) - Inactivate/Activate Figure Category</title><defs/><g><text fill="#000000" font-family="sans-serif" font-size="14" font-weight="bold" lengthAdjust="spacing" textLength="469.5264" x="781.2686" y="28.5352">UI Sequence Diagram (SSD) - Inactivate/Activate Figure Category</text><rect fill="#FFFFFF" height="641.5215" style="stroke:#181818;stroke-width:1.0;" width="10" x="53.2305" y="128.9766"/><rect fill="#FFFFFF" height="620.2109" style="stroke:#181818;stroke-width:1.0;" width="10" x="478.0439" y="150.2871"/><rect fill="#FFFFFF" height="415.0371" style="stroke:#181818;stroke-width:1.0;" width="10" x="926.4263" y="355.4609"/><rect fill="#FFFFFF" height="157.5527" style="stroke:#181818;stroke-width:1.0;" width="10" x="931.4263" y="392.7715"/><rect fill="#FFFFFF" height="213.8184" style="stroke:#181818;stroke-width:1.0;" width="10" x="1374.8086" y="645.2559"/><rect fill="#FFFFFF" height="29.3105" style="stroke:#181818;stroke-width:1.0;" width="10" x="1530.8789" y="427.082"/><rect fill="#FFFFFF" height="29.3105" style="stroke:#181818;stroke-width:1.0;" width="10" x="1643.1035" y="485.7031"/><rect fill="#FFFFFF" height="29.3105" style="stroke:#181818;stroke-width:1.0;" width="10" x="1801.1563" y="179.5977"/><rect fill="#FFFFFF" height="29.3105" style="stroke:#181818;stroke-width:1.0;" width="10" x="1801.1563" y="296.8398"/><rect fill="#FFFFFF" height="29.3105" style="stroke:#181818;stroke-width:1.0;" width="10" x="1801.1563" y="586.6348"/><rect fill="#FFFFFF" height="29.3105" style="stroke:#181818;stroke-width:1.0;" width="10" x="1801.1563" y="939.0059"/><rect fill="#FFFFFF" height="29.3105" style="stroke:#181818;stroke-width:1.0;" width="10" x="1965.5801" y="880.3848"/><rect fill="none" height="149.5078" style="stroke:#000000;stroke-width:1.5;" width="1104.6641" x="380.1025" y="702.5664"/><line style="stroke:#181818;stroke-width:0.5;stroke-dasharray:5.0,5.0;" x1="58" x2="58" y1="118.9766" y2="1044.9375"/><line style="stroke:#181818;stroke-width:0.5;stroke-dasharray:5.0,5.0;" x1="482.1025" x2="482.1025" y1="118.9766" y2="1044.9375"/><line style="stroke:#181818;stroke-width:0.5;stroke-dasharray:5.0,5.0;" x1="931.271" x2="931.271" y1="118.9766" y2="1044.9375"/><line style="stroke:#181818;stroke-width:0.5;stroke-dasharray:5.0,5.0;" x1="1378.8506" x2="1378.8506" y1="118.9766" y2="1044.9375"/><line style="stroke:#181818;stroke-width:0.5;stroke-dasharray:5.0,5.0;" x1="1535.7666" x2="1535.7666" y1="118.9766" y2="1044.9375"/><line style="stroke:#181818;stroke-width:0.5;stroke-dasharray:5.0,5.0;" x1="1647.9912" x2="1647.9912" y1="118.9766" y2="1044.9375"/><line style="stroke:#181818;stroke-width:0.5;stroke-dasharray:5.0,5.0;" x1="1805.2158" x2="1805.2158" y1="118.9766" y2="1044.9375"/><line style="stroke:#181818;stroke-width:0.5;stroke-dasharray:5.0,5.0;" x1="1970.0967" x2="1970.0967" y1="118.9766" y2="1044.9375"/><text fill="#000000" font-family="sans-serif" font-size="14" lengthAdjust="spacing" textLength="100.4609" x="5" y="116.0234">Show Designer</text><ellipse cx="58.2305" cy="50.9883" fill="#E3E3E3" rx="8" ry="8" style="stroke:#181818;stroke-width:0.5;"/><path d="M58.2305,58.9883 L58.2305,85.9883 M45.2305,66.9883 L71.2305,66.9883 M58.2305,85.9883 L45.2305,100.9883 M58.2305,85.9883 L71.2305,100.9883 " fill="none" style="stroke:#181818;stroke-width:0.5;"/><text fill="#000000" font-family="sans-serif" font-size="14" lengthAdjust="spacing" textLength="100.4609" x="5" y="1057.4727">Show Designer</text><ellipse cx="58.2305" cy="1068.9258" fill="#E3E3E3" rx="8" ry="8" style="stroke:#181818;stroke-width:0.5;"/><path d="M58.2305,1076.9258 L58.2305,1103.9258 M45.2305,1084.9258 L71.2305,1084.9258 M58.2305,1103.9258 L45.2305,1118.9258 M58.2305,1103.9258 L71.2305,1118.9258 " fill="none" style="stroke:#181818;stroke-width:0.5;"/><rect fill="#E3E3E3" height="30.4883" rx="2.5" ry="2.5" style="stroke:#181818;stroke-width:0.5;" width="185.8828" x="390.1025" y="87.4883"/><text fill="#000000" font-family="sans-serif" font-size="14" lengthAdjust="spacing" textLength="171.8828" x="397.1025" y="108.0234">:ChangeCategoryStatusUI</text><rect fill="#E3E3E3" height="30.4883" rx="2.5" ry="2.5" style="stroke:#181818;stroke-width:0.5;" width="185.8828" x="390.1025" y="1043.9375"/><text fill="#000000" font-family="sans-serif" font-size="14" lengthAdjust="spacing" textLength="171.8828" x="397.1025" y="1064.4727">:ChangeCategoryStatusUI</text><rect fill="#E3E3E3" height="30.4883" rx="2.5" ry="2.5" style="stroke:#181818;stroke-width:0.5;" width="240.3105" x="811.271" y="87.4883"/><text fill="#000000" font-family="sans-serif" font-size="14" lengthAdjust="spacing" textLength="226.3105" x="818.271" y="108.0234">:ChangeCategoryStatusController</text><rect fill="#E3E3E3" height="30.4883" rx="2.5" ry="2.5" style="stroke:#181818;stroke-width:0.5;" width="240.3105" x="811.271" y="1043.9375"/><text fill="#000000" font-family="sans-serif" font-size="14" lengthAdjust="spacing" textLength="226.3105" x="818.271" y="1064.4727">:ChangeCategoryStatusController</text><rect fill="#E3E3E3" height="46.9766" rx="2.5" ry="2.5" style="stroke:#181818;stroke-width:0.5;" width="189.916" x="1284.8506" y="71"/><text fill="#000000" font-family="sans-serif" font-size="14" lengthAdjust="spacing" textLength="169.1279" x="1295.2446" y="91.5352">figureCategoryController</text><text fill="#000000" font-family="sans-serif" font-size="14" lengthAdjust="spacing" textLength="175.916" x="1291.8506" y="108.0234">:FigureCategoryController</text><rect fill="#E3E3E3" height="46.9766" rx="2.5" ry="2.5" style="stroke:#181818;stroke-width:0.5;" width="189.916" x="1284.8506" y="1043.9375"/><text fill="#000000" font-family="sans-serif" font-size="14" lengthAdjust="spacing" textLength="169.1279" x="1295.2446" y="1064.4727">figureCategoryController</text><text fill="#000000" font-family="sans-serif" font-size="14" lengthAdjust="spacing" textLength="175.916" x="1291.8506" y="1080.9609">:FigureCategoryController</text><rect fill="#E3E3E3" height="30.4883" rx="2.5" ry="2.5" style="stroke:#181818;stroke-width:0.5;" width="102.2246" x="1484.7666" y="87.4883"/><text fill="#000000" font-family="sans-serif" font-size="14" lengthAdjust="spacing" textLength="88.2246" x="1491.7666" y="108.0234">:Repositories</text><rect fill="#E3E3E3" height="30.4883" rx="2.5" ry="2.5" style="stroke:#181818;stroke-width:0.5;" width="102.2246" x="1484.7666" y="1043.9375"/><text fill="#000000" font-family="sans-serif" font-size="14" lengthAdjust="spacing" textLength="88.2246" x="1491.7666" y="1064.4727">:Repositories</text><rect fill="#E3E3E3" height="46.9766" rx="2.5" ry="2.5" style="stroke:#181818;stroke-width:0.5;" width="102.2246" x="1596.9912" y="71"/><text fill="#000000" font-family="sans-serif" font-size="14" lengthAdjust="spacing" textLength="80.6709" x="1607.7681" y="91.5352">repositories</text><text fill="#000000" font-family="sans-serif" font-size="14" lengthAdjust="spacing" textLength="88.2246" x="1603.9912" y="108.0234">:Repositories</text><rect fill="#E3E3E3" height="46.9766" rx="2.5" ry="2.5" style="stroke:#181818;stroke-width:0.5;" width="102.2246" x="1596.9912" y="1043.9375"/><text fill="#000000" font-family="sans-serif" font-size="14" lengthAdjust="spacing" textLength="80.6709" x="1607.7681" y="1064.4727">repositories</text><text fill="#000000" font-family="sans-serif" font-size="14" lengthAdjust="spacing" textLength="88.2246" x="1603.9912" y="1080.9609">:Repositories</text><rect fill="#E3E3E3" height="46.9766" rx="2.5" ry="2.5" style="stroke:#181818;stroke-width:0.5;" width="193.8809" x="1709.2158" y="71"/><text fill="#000000" font-family="sans-serif" font-size="14" lengthAdjust="spacing" textLength="173.0928" x="1719.6099" y="91.5352">figureCategoryRepository</text><text fill="#000000" font-family="sans-serif" font-size="14" lengthAdjust="spacing" textLength="179.8809" x="1716.2158" y="108.0234">:FigureCategoryRepository</text><rect fill="#E3E3E3" height="46.9766" rx="2.5" ry="2.5" style="stroke:#181818;stroke-width:0.5;" width="193.8809" x="1709.2158" y="1043.9375"/><text fill="#000000" font-family="sans-serif" font-size="14" lengthAdjust="spacing" textLength="173.0928" x="1719.6099" y="1064.4727">figureCategoryRepository</text><text fill="#000000" font-family="sans-serif" font-size="14" lengthAdjust="spacing" textLength="179.8809" x="1716.2158" y="1080.9609">:FigureCategoryRepository</text><rect fill="#E3E3E3" height="30.4883" rx="2.5" ry="2.5" style="stroke:#181818;stroke-width:0.5;" width="114.9668" x="1913.0967" y="87.4883"/><text fill="#000000" font-family="sans-serif" font-size="14" lengthAdjust="spacing" textLength="100.9668" x="1920.0967" y="108.0234">figureCategory</text><rect fill="#E3E3E3" height="30.4883" rx="2.5" ry="2.5" style="stroke:#181818;stroke-width:0.5;" width="114.9668" x="1913.0967" y="1043.9375"/><text fill="#000000" font-family="sans-serif" font-size="14" lengthAdjust="spacing" textLength="100.9668" x="1920.0967" y="1064.4727">figureCategory</text><rect fill="#FFFFFF" height="641.5215" style="stroke:#181818;stroke-width:1.0;" width="10" x="53.2305" y="128.9766"/><rect fill="#FFFFFF" height="620.2109" style="stroke:#181818;stroke-width:1.0;" width="10" x="478.0439" y="150.2871"/><rect fill="#FFFFFF" height="415.0371" style="stroke:#181818;stroke-width:1.0;" width="10" x="926.4263" y="355.4609"/><rect fill="#FFFFFF" height="157.5527" style="stroke:#181818;stroke-width:1.0;" width="10" x="931.4263" y="392.7715"/><rect fill="#FFFFFF" height="213.8184" style="stroke:#181818;stroke-width:1.0;" width="10" x="1374.8086" y="645.2559"/><rect fill="#FFFFFF" height="29.3105" style="stroke:#181818;stroke-width:1.0;" width="10" x="1530.8789" y="427.082"/><rect fill="#FFFFFF" height="29.3105" style="stroke:#181818;stroke-width:1.0;" width="10" x="1643.1035" y="485.7031"/><rect fill="#FFFFFF" height="29.3105" style="stroke:#181818;stroke-width:1.0;" width="10" x="1801.1563" y="179.5977"/><rect fill="#FFFFFF" height="29.3105" style="stroke:#181818;stroke-width:1.0;" width="10" x="1801.1563" y="296.8398"/><rect fill="#FFFFFF" height="29.3105" style="stroke:#181818;stroke-width:1.0;" width="10" x="1801.1563" y="586.6348"/><rect fill="#FFFFFF" height="29.3105" style="stroke:#181818;stroke-width:1.0;" width="10" x="1801.1563" y="939.0059"/><rect fill="#FFFFFF" height="29.3105" style="stroke:#181818;stroke-width:1.0;" width="10" x="1965.5801" y="880.3848"/><polygon fill="#181818" points="466.0439,146.2871,476.0439,150.2871,466.0439,154.2871,470.0439,150.2871" style="stroke:#181818;stroke-width:1.0;"/><line style="stroke:#181818;stroke-width:1.0;" x1="63.2305" x2="472.0439" y1="150.2871" y2="150.2871"/><text fill="#000000" font-family="sans-serif" font-size="13" font-weight="bold" lengthAdjust="spacing" textLength="8.5757" x="70.2305" y="145.5449">1</text><text fill="#000000" font-family="sans-serif" font-size="13" lengthAdjust="spacing" textLength="188.3984" x="82.8062" y="145.5449">ask to change category status</text><polygon fill="#181818" points="1789.1563,175.5977,1799.1563,179.5977,1789.1563,183.5977,1793.1563,179.5977" style="stroke:#181818;stroke-width:1.0;"/><line style="stroke:#181818;stroke-width:1.0;" x1="488.0439" x2="1795.1563" y1="179.5977" y2="179.5977"/><text fill="#000000" font-family="sans-serif" font-size="13" font-weight="bold" lengthAdjust="spacing" textLength="8.5757" x="495.0439" y="174.8555">2</text><text fill="#000000" font-family="sans-serif" font-size="13" lengthAdjust="spacing" textLength="170.0029" x="507.6196" y="174.8555">getChangeableCategories()</text><polygon fill="#181818" points="499.0439,204.9082,489.0439,208.9082,499.0439,212.9082,495.0439,208.9082" style="stroke:#181818;stroke-width:1.0;"/><line style="stroke:#181818;stroke-width:1.0;stroke-dasharray:2.0,2.0;" x1="493.0439" x2="1805.1563" y1="208.9082" y2="208.9082"/><text fill="#000000" font-family="sans-serif" font-size="13" font-weight="bold" lengthAdjust="spacing" textLength="8.5757" x="505.0439" y="204.166">3</text><text fill="#000000" font-family="sans-serif" font-size="13" lengthAdjust="spacing" textLength="101.2007" x="517.6196" y="204.166">listOfCategories</text><polygon fill="#181818" points="74.2305,234.2188,64.2305,238.2188,74.2305,242.2188,70.2305,238.2188" style="stroke:#181818;stroke-width:1.0;"/><line style="stroke:#181818;stroke-width:1.0;" x1="68.2305" x2="477.0439" y1="238.2188" y2="238.2188"/><text fill="#000000" font-family="sans-serif" font-size="13" font-weight="bold" lengthAdjust="spacing" textLength="8.5757" x="80.2305" y="233.4766">4</text><text fill="#000000" font-family="sans-serif" font-size="13" lengthAdjust="spacing" textLength="237.3643" x="92.8062" y="233.4766">show categories and ask for selection</text><polygon fill="#181818" points="466.0439,263.5293,476.0439,267.5293,466.0439,271.5293,470.0439,267.5293" style="stroke:#181818;stroke-width:1.0;"/><line style="stroke:#181818;stroke-width:1.0;" x1="63.2305" x2="472.0439" y1="267.5293" y2="267.5293"/><text fill="#000000" font-family="sans-serif" font-size="13" font-weight="bold" lengthAdjust="spacing" textLength="8.5757" x="70.2305" y="262.7871">5</text><text fill="#000000" font-family="sans-serif" font-size="13" lengthAdjust="spacing" textLength="378.2378" x="82.8062" y="262.7871">selects category (categoryId) and action (activate/inactivate)</text><polygon fill="#181818" points="1789.1563,292.8398,1799.1563,296.8398,1789.1563,300.8398,1793.1563,296.8398" style="stroke:#181818;stroke-width:1.0;"/><line style="stroke:#181818;stroke-width:1.0;" x1="488.0439" x2="1795.1563" y1="296.8398" y2="296.8398"/><text fill="#000000" font-family="sans-serif" font-size="13" font-weight="bold" lengthAdjust="spacing" textLength="8.5757" x="495.0439" y="292.0977">6</text><text fill="#000000" font-family="sans-serif" font-size="13" lengthAdjust="spacing" textLength="177.417" x="507.6196" y="292.0977">getCategoryById(categoryId)</text><polygon fill="#181818" points="499.0439,322.1504,489.0439,326.1504,499.0439,330.1504,495.0439,326.1504" style="stroke:#181818;stroke-width:1.0;"/><line style="stroke:#181818;stroke-width:1.0;stroke-dasharray:2.0,2.0;" x1="493.0439" x2="1805.1563" y1="326.1504" y2="326.1504"/><text fill="#000000" font-family="sans-serif" font-size="13" font-weight="bold" lengthAdjust="spacing" textLength="8.5757" x="505.0439" y="321.4082">7</text><text fill="#000000" font-family="sans-serif" font-size="13" lengthAdjust="spacing" textLength="95.145" x="517.6196" y="321.4082">categoryObject</text><polygon fill="#181818" points="914.4263,351.4609,924.4263,355.4609,914.4263,359.4609,918.4263,355.4609" style="stroke:#181818;stroke-width:1.0;"/><line style="stroke:#181818;stroke-width:1.0;" x1="488.0439" x2="920.4263" y1="355.4609" y2="355.4609"/><text fill="#000000" font-family="sans-serif" font-size="13" font-weight="bold" lengthAdjust="spacing" textLength="8.5757" x="495.0439" y="350.7188">8</text><text fill="#000000" font-family="sans-serif" font-size="13" lengthAdjust="spacing" textLength="38.5049" x="507.6196" y="350.7188">create</text><line style="stroke:#181818;stroke-width:1.0;" x1="936.4263" x2="983.4263" y1="379.7715" y2="379.7715"/><line style="stroke:#181818;stroke-width:1.0;" x1="983.4263" x2="983.4263" y1="379.7715" y2="392.7715"/><line style="stroke:#181818;stroke-width:1.0;" x1="942.4263" x2="983.4263" y1="392.7715" y2="392.7715"/><polygon fill="#181818" points="952.4263,388.7715,942.4263,392.7715,952.4263,396.7715,948.4263,392.7715" style="stroke:#181818;stroke-width:1.0;"/><text fill="#000000" font-family="sans-serif" font-size="13" font-weight="bold" lengthAdjust="spacing" textLength="8.5757" x="948.4263" y="375.0293">9</text><text fill="#000000" font-family="sans-serif" font-size="13" lengthAdjust="spacing" textLength="191.585" x="961.002" y="375.0293">getFigureCategoryRepository()</text><polygon fill="#181818" points="1518.8789,423.082,1528.8789,427.082,1518.8789,431.082,1522.8789,427.082" style="stroke:#181818;stroke-width:1.0;"/><line style="stroke:#181818;stroke-width:1.0;" x1="941.4263" x2="1524.8789" y1="427.082" y2="427.082"/><text fill="#000000" font-family="sans-serif" font-size="13" font-weight="bold" lengthAdjust="spacing" textLength="17.1514" x="948.4263" y="422.3398">10</text><text fill="#000000" font-family="sans-serif" font-size="13" lengthAdjust="spacing" textLength="81.1167" x="969.5776" y="422.3398">getInstance()</text><polygon fill="#181818" points="952.4263,452.3926,942.4263,456.3926,952.4263,460.3926,948.4263,456.3926" style="stroke:#181818;stroke-width:1.0;"/><line style="stroke:#181818;stroke-width:1.0;stroke-dasharray:2.0,2.0;" x1="946.4263" x2="1534.8789" y1="456.3926" y2="456.3926"/><text fill="#000000" font-family="sans-serif" font-size="13" font-weight="bold" lengthAdjust="spacing" textLength="17.1514" x="958.4263" y="451.6504">11</text><text fill="#000000" font-family="sans-serif" font-size="13" lengthAdjust="spacing" textLength="74.9087" x="979.5776" y="451.6504">repositories</text><polygon fill="#181818" points="1631.1035,481.7031,1641.1035,485.7031,1631.1035,489.7031,1635.1035,485.7031" style="stroke:#181818;stroke-width:1.0;"/><line style="stroke:#181818;stroke-width:1.0;" x1="941.4263" x2="1637.1035" y1="485.7031" y2="485.7031"/><text fill="#000000" font-family="sans-serif" font-size="13" font-weight="bold" lengthAdjust="spacing" textLength="17.1514" x="948.4263" y="480.9609">12</text><text fill="#000000" font-family="sans-serif" font-size="13" lengthAdjust="spacing" textLength="191.585" x="969.5776" y="480.9609">getFigureCategoryRepository()</text><polygon fill="#181818" points="952.4263,511.0137,942.4263,515.0137,952.4263,519.0137,948.4263,515.0137" style="stroke:#181818;stroke-width:1.0;"/><line style="stroke:#181818;stroke-width:1.0;stroke-dasharray:2.0,2.0;" x1="946.4263" x2="1647.1035" y1="515.0137" y2="515.0137"/><text fill="#000000" font-family="sans-serif" font-size="13" font-weight="bold" lengthAdjust="spacing" textLength="17.1514" x="958.4263" y="510.2715">13</text><text fill="#000000" font-family="sans-serif" font-size="13" lengthAdjust="spacing" textLength="160.729" x="979.5776" y="510.2715">figureCategoryRepository</text><line style="stroke:#181818;stroke-width:1.0;stroke-dasharray:2.0,2.0;" x1="941.4263" x2="983.4263" y1="549.3242" y2="549.3242"/><line style="stroke:#181818;stroke-width:1.0;stroke-dasharray:2.0,2.0;" x1="983.4263" x2="983.4263" y1="549.3242" y2="562.3242"/><line style="stroke:#181818;stroke-width:1.0;stroke-dasharray:2.0,2.0;" x1="936.4263" x2="983.4263" y1="562.3242" y2="562.3242"/><polygon fill="#181818" points="946.4263,558.3242,936.4263,562.3242,946.4263,566.3242,942.4263,562.3242" style="stroke:#181818;stroke-width:1.0;"/><text fill="#000000" font-family="sans-serif" font-size="13" font-weight="bold" lengthAdjust="spacing" textLength="17.1514" x="948.4263" y="544.582">14</text><text fill="#000000" font-family="sans-serif" font-size="13" lengthAdjust="spacing" textLength="160.729" x="969.5776" y="544.582">figureCategoryRepository</text><polygon fill="#181818" points="1789.1563,582.6348,1799.1563,586.6348,1789.1563,590.6348,1793.1563,586.6348" style="stroke:#181818;stroke-width:1.0;"/><line style="stroke:#181818;stroke-width:1.0;" x1="936.4263" x2="1795.1563" y1="586.6348" y2="586.6348"/><text fill="#000000" font-family="sans-serif" font-size="13" font-weight="bold" lengthAdjust="spacing" textLength="17.1514" x="943.4263" y="581.8926">15</text><text fill="#000000" font-family="sans-serif" font-size="13" lengthAdjust="spacing" textLength="125.5122" x="964.5776" y="581.8926">findById(categoryId)</text><polygon fill="#181818" points="947.4263,611.9453,937.4263,615.9453,947.4263,619.9453,943.4263,615.9453" style="stroke:#181818;stroke-width:1.0;"/><line style="stroke:#181818;stroke-width:1.0;stroke-dasharray:2.0,2.0;" x1="941.4263" x2="1805.1563" y1="615.9453" y2="615.9453"/><text fill="#000000" font-family="sans-serif" font-size="13" font-weight="bold" lengthAdjust="spacing" textLength="17.1514" x="953.4263" y="611.2031">16</text><text fill="#000000" font-family="sans-serif" font-size="13" lengthAdjust="spacing" textLength="134.7544" x="974.5776" y="611.2031">figureCategoryObject</text><polygon fill="#181818" points="1362.8086,641.2559,1372.8086,645.2559,1362.8086,649.2559,1366.8086,645.2559" style="stroke:#181818;stroke-width:1.0;"/><line style="stroke:#181818;stroke-width:1.0;" x1="936.4263" x2="1368.8086" y1="645.2559" y2="645.2559"/><text fill="#000000" font-family="sans-serif" font-size="13" font-weight="bold" lengthAdjust="spacing" textLength="17.1514" x="943.4263" y="640.5137">17</text><text fill="#000000" font-family="sans-serif" font-size="13" lengthAdjust="spacing" textLength="381.5767" x="964.5776" y="640.5137">validateChangeCategoryStatus(figureCategoryObject, action)</text><line style="stroke:#181818;stroke-width:1.0;stroke-dasharray:2.0,2.0;" x1="1384.8086" x2="1426.8086" y1="674.5664" y2="674.5664"/><line style="stroke:#181818;stroke-width:1.0;stroke-dasharray:2.0,2.0;" x1="1426.8086" x2="1426.8086" y1="674.5664" y2="687.5664"/><line style="stroke:#181818;stroke-width:1.0;stroke-dasharray:2.0,2.0;" x1="1385.8086" x2="1426.8086" y1="687.5664" y2="687.5664"/><polygon fill="#181818" points="1395.8086,683.5664,1385.8086,687.5664,1395.8086,691.5664,1391.8086,687.5664" style="stroke:#181818;stroke-width:1.0;"/><text fill="#000000" font-family="sans-serif" font-size="13" font-weight="bold" lengthAdjust="spacing" textLength="17.1514" x="1391.8086" y="669.8242">18</text><text fill="#000000" font-family="sans-serif" font-size="13" lengthAdjust="spacing" textLength="76.54" x="1412.96" y="669.8242">validations()</text><path d="M380.1025,702.5664 L442.2412,702.5664 L442.2412,709.877 L432.2412,719.877 L380.1025,719.877 L380.1025,702.5664 " fill="#EEEEEE" style="stroke:#000000;stroke-width:1.5;"/><rect fill="none" height="149.5078" style="stroke:#000000;stroke-width:1.5;" width="1104.6641" x="380.1025" y="702.5664"/><text fill="#000000" font-family="sans-serif" font-size="13" font-weight="bold" lengthAdjust="spacing" textLength="17.1387" x="395.1025" y="716.1348">alt</text><text fill="#000000" font-family="sans-serif" font-size="11" font-weight="bold" lengthAdjust="spacing" textLength="254.2622" x="457.2412" y="715.2012">[invalid input or already in requested status]</text><polygon fill="#181818" points="947.4263,737.1875,937.4263,741.1875,947.4263,745.1875,943.4263,741.1875" style="stroke:#181818;stroke-width:1.0;"/><line style="stroke:#181818;stroke-width:1.0;stroke-dasharray:2.0,2.0;" x1="941.4263" x2="1373.8086" y1="741.1875" y2="741.1875"/><text fill="#000000" font-family="sans-serif" font-size="13" font-weight="bold" lengthAdjust="spacing" textLength="17.1514" x="953.4263" y="736.4453">19</text><text fill="#000000" font-family="sans-serif" font-size="13" lengthAdjust="spacing" textLength="393.231" x="974.5776" y="736.4453">error("Invalid request or category already in requested status")</text><polygon fill="#181818" points="494.0439,766.498,484.0439,770.498,494.0439,774.498,490.0439,770.498" style="stroke:#181818;stroke-width:1.0;"/><line style="stroke:#181818;stroke-width:1.0;" x1="488.0439" x2="930.4263" y1="770.498" y2="770.498"/><text fill="#000000" font-family="sans-serif" font-size="13" font-weight="bold" lengthAdjust="spacing" textLength="17.1514" x="500.0439" y="765.7559">20</text><text fill="#000000" font-family="sans-serif" font-size="13" lengthAdjust="spacing" textLength="393.231" x="521.1953" y="765.7559">error("Invalid request or category already in requested status")</text><polygon fill="#181818" points="919.4263,795.8086,929.4263,799.8086,919.4263,803.8086,923.4263,799.8086" style="stroke:#181818;stroke-width:1.0;"/><line style="stroke:#181818;stroke-width:1.0;stroke-dasharray:2.0,2.0;" x1="483.0439" x2="925.4263" y1="799.8086" y2="799.8086"/><text fill="#000000" font-family="sans-serif" font-size="13" font-weight="bold" lengthAdjust="spacing" textLength="17.1514" x="490.0439" y="795.0664">21</text><text fill="#000000" font-family="sans-serif" font-size="13" lengthAdjust="spacing" textLength="4.1133" x="511.1953" y="795.0664">&#160;</text><line style="stroke:#000000;stroke-width:1.0;stroke-dasharray:2.0,2.0;" x1="380.1025" x2="1484.7666" y1="808.8086" y2="808.8086"/><text fill="#000000" font-family="sans-serif" font-size="11" font-weight="bold" lengthAdjust="spacing" textLength="68.9863" x="385.1025" y="819.4434">[valid input]</text><polygon fill="#181818" points="942.4263,840.0742,932.4263,844.0742,942.4263,848.0742,938.4263,844.0742" style="stroke:#181818;stroke-width:1.0;"/><line style="stroke:#181818;stroke-width:1.0;stroke-dasharray:2.0,2.0;" x1="936.4263" x2="1373.8086" y1="844.0742" y2="844.0742"/><text fill="#000000" font-family="sans-serif" font-size="13" font-weight="bold" lengthAdjust="spacing" textLength="17.1514" x="948.4263" y="839.332">22</text><text fill="#000000" font-family="sans-serif" font-size="13" lengthAdjust="spacing" textLength="110.3413" x="969.5776" y="839.332">validationSuccess</text><polygon fill="#181818" points="1953.5801,876.3848,1963.5801,880.3848,1953.5801,884.3848,1957.5801,880.3848" style="stroke:#181818;stroke-width:1.0;"/><line style="stroke:#181818;stroke-width:1.0;" x1="931.4263" x2="1959.5801" y1="880.3848" y2="880.3848"/><text fill="#000000" font-family="sans-serif" font-size="13" font-weight="bold" lengthAdjust="spacing" textLength="17.1514" x="938.4263" y="875.6426">23</text><text fill="#000000" font-family="sans-serif" font-size="13" lengthAdjust="spacing" textLength="129.2827" x="959.5776" y="875.6426">updateStatus(action)</text><polygon fill="#181818" points="942.4263,905.6953,932.4263,909.6953,942.4263,913.6953,938.4263,909.6953" style="stroke:#181818;stroke-width:1.0;"/><line style="stroke:#181818;stroke-width:1.0;stroke-dasharray:2.0,2.0;" x1="936.4263" x2="1969.5801" y1="909.6953" y2="909.6953"/><text fill="#000000" font-family="sans-serif" font-size="13" font-weight="bold" lengthAdjust="spacing" textLength="17.1514" x="948.4263" y="904.9531">24</text><text fill="#000000" font-family="sans-serif" font-size="13" lengthAdjust="spacing" textLength="149.3794" x="969.5776" y="904.9531">updatedCategoryObject</text><polygon fill="#181818" points="1789.1563,935.0059,1799.1563,939.0059,1789.1563,943.0059,1793.1563,939.0059" style="stroke:#181818;stroke-width:1.0;"/><line style="stroke:#181818;stroke-width:1.0;" x1="931.4263" x2="1795.1563" y1="939.0059" y2="939.0059"/><text fill="#000000" font-family="sans-serif" font-size="13" font-weight="bold" lengthAdjust="spacing" textLength="17.1514" x="938.4263" y="934.2637">25</text><text fill="#000000" font-family="sans-serif" font-size="13" lengthAdjust="spacing" textLength="185.6118" x="959.5776" y="934.2637">save(updatedCategoryObject)</text><polygon fill="#181818" points="942.4263,964.3164,932.4263,968.3164,942.4263,972.3164,938.4263,968.3164" style="stroke:#181818;stroke-width:1.0;"/><line style="stroke:#181818;stroke-width:1.0;stroke-dasharray:2.0,2.0;" x1="936.4263" x2="1805.1563" y1="968.3164" y2="968.3164"/><text fill="#000000" font-family="sans-serif" font-size="13" font-weight="bold" lengthAdjust="spacing" textLength="17.1514" x="948.4263" y="963.5742">26</text><text fill="#000000" font-family="sans-serif" font-size="13" lengthAdjust="spacing" textLength="80.5581" x="969.5776" y="963.5742">confirmation</text><polygon fill="#181818" points="494.0439,993.627,484.0439,997.627,494.0439,1001.627,490.0439,997.627" style="stroke:#181818;stroke-width:1.0;"/><line style="stroke:#181818;stroke-width:1.0;" x1="488.0439" x2="930.4263" y1="997.627" y2="997.627"/><text fill="#000000" font-family="sans-serif" font-size="13" font-weight="bold" lengthAdjust="spacing" textLength="17.1514" x="500.0439" y="992.8848">27</text><text fill="#000000" font-family="sans-serif" font-size="13" lengthAdjust="spacing" textLength="149.3794" x="521.1953" y="992.8848">updatedCategoryObject</text><polygon fill="#181818" points="69.2305,1022.9375,59.2305,1026.9375,69.2305,1030.9375,65.2305,1026.9375" style="stroke:#181818;stroke-width:1.0;"/><line style="stroke:#181818;stroke-width:1.0;" x1="63.2305" x2="482.0439" y1="1026.9375" y2="1026.9375"/><text fill="#000000" font-family="sans-serif" font-size="13" font-weight="bold" lengthAdjust="spacing" textLength="17.1514" x="75.2305" y="1022.1953">28</text><text fill="#000000" font-family="sans-serif" font-size="13" lengthAdjust="spacing" textLength="176.9219" x="96.3818" y="1022.1953">shows operation (in)success</text><!--SRC=[hLPDRzim3BtxLn0vES22tNCOqAKeOA10XxgzxQBQZAF5aJn9Rf5_Frh-b2svsJ1VuaZauoFvA5cVkQYOOXUuI26pav8N1ADgZFImKx7ip0fCpRL4K9WP9efoQg1FB9SVN1HmPAN6A3BSaEbh0Yd-hb5a2FUS5OrfdARtMzX18bXc-3ip-FMkUu47NjGAuK3lXLJNA6AraQA-lA6Yzyn81Plq93_W7ZKl1AeDC4t1vKU_414VmpDUCM5Wip-SY2dsUAbXfjQlYVLwJMwmFKXXb2pBBjBXvVdHzJfQnhtJQFvJx1y2MnOfO-PWL3cZy8oLr9pIvAYjsR1mJNbJSgg6ww8c7XHp0V3ZyUvbZV4OOC5utEePDoks3sstdBf7GCzq1NRVclxloVSCHa9cozl0M7JGji3MRK2adjW5yYFlBY9156ZQxh2tikT76SPRrxsd2DtJ0-nwAYNNvkau0bZB71S04n9EIdlxjy-10829t2Pu96bgB6aqEBKeM8lMH8zLYFkt9D-sO1O1uc4u-30dst1nEf3l13D5_Cloz9vFRx-8vGt5QUQXyLD81cumEof3A6iuEX3baDQwdgvWJV4yyz729uBqHSVE1Cw1z0sMOzayFlHTbyKUfgFdk4vgzccOFf5cJcykZ9E9dV05TOitSWqDVOYt1Lto73iO18myQ7ujZ0e-Sf5xfRigtxc4lSmcKbwJyunNSpGJr3ihUKwslfiXziNvqesldxqzy6ViRQITBoh1w7dFImDSs7twhMe3TEgmagOllz82APBkMcqmdnwkeO1TkL0fgU9Dqi5s40tmS4QjHDXi5p7wCjeJvR-ZprMria-NoSgkStdDxHIQMWbd6Ucp1YQblwMsOoVJEijGkmr1aGTqQOMoqAKhE8AlgqQSdHo3mdFT70Opn0dp5Zh_V8fcw2j3hjaxnbxSVv_rJ8eZLnSsNBgtphWLPpX9xzaL_1xG82jKhBstkTZghjcHAyQG-Fu0]--></g></svg>