<svg xmlns="http://www.w3.org/2000/svg" xmlns:xlink="http://www.w3.org/1999/xlink" contentStyleType="text/css" height="1356px" preserveAspectRatio="none" style="width:1719px;height:1356px;background:#FFFFFF;" version="1.1" viewBox="0 0 1719 1356" width="1719px" zoomAndPan="magnify"><title>UI Sequence Diagram (SSD) - Edit Figure Status</title><defs/><g><text fill="#000000" font-family="sans-serif" font-size="14" font-weight="bold" lengthAdjust="spacing" textLength="324.9667" x="698.2797" y="29.9659">UI Sequence Diagram (SSD) - Edit Figure Status</text><rect fill="#FFFFFF" height="1128.6061" style="stroke:#181818;stroke-width:1.0;" width="10" x="67.4128" y="134.1358"/><rect fill="#FFFFFF" height="1104.9001" style="stroke:#181818;stroke-width:1.0;" width="10" x="327.505" y="157.8419"/><rect fill="#FFFFFF" height="507.5721" style="stroke:#181818;stroke-width:1.0;" width="10" x="598.1712" y="633.0699"/><rect fill="#FFFFFF" height="348.404" style="stroke:#181818;stroke-width:1.0;" width="10" x="789.9606" y="189.5479"/><rect fill="#FFFFFF" height="34.0679" style="stroke:#181818;stroke-width:1.0;" width="10" x="1010.2595" y="231.2539"/><rect fill="#FFFFFF" height="31.706" style="stroke:#181818;stroke-width:1.0;" width="10" x="1010.2595" y="664.7759"/><rect fill="#FFFFFF" height="209.218" style="stroke:#181818;stroke-width:1.0;" width="10" x="1153.483" y="297.0278"/><rect fill="#FFFFFF" height="380.7481" style="stroke:#181818;stroke-width:1.0;" width="10" x="1153.483" y="728.1879"/><rect fill="#FFFFFF" height="31.706" style="stroke:#181818;stroke-width:1.0;" width="10" x="1320.0375" y="355.4398"/><rect fill="#FFFFFF" height="95.118" style="stroke:#181818;stroke-width:1.0;" width="10" x="1320.0375" y="786.6"/><rect fill="#FFFFFF" height="31.706" style="stroke:#181818;stroke-width:1.0;" width="10" x="1477.016" y="435.8338"/><rect fill="#FFFFFF" height="139.8241" style="stroke:#181818;stroke-width:1.0;" width="10" x="1477.016" y="930.4059"/><rect fill="#FFFFFF" height="31.706" style="stroke:#181818;stroke-width:1.0;" width="10" x="1669.6172" y="818.306"/><rect fill="#FFFFFF" height="31.706" style="stroke:#181818;stroke-width:1.0;" width="10" x="1669.6172" y="1006.8179"/><rect fill="none" height="163.512" style="stroke:#000000;stroke-width:1.5;" width="460.2226" x="1085.3502" y="312.0278"/><rect fill="none" height="335.0421" style="stroke:#000000;stroke-width:1.5;" width="627.1758" x="1085.3502" y="743.1879"/><rect fill="none" height="100.0999" style="stroke:#000000;stroke-width:1.5;" width="402.8128" x="10" y="1155.642"/><line style="stroke:#181818;stroke-width:0.5;stroke-dasharray:5.0,5.0;" x1="72" x2="72" y1="124.1358" y2="1272.7419"/><line style="stroke:#181818;stroke-width:0.5;stroke-dasharray:5.0,5.0;" x1="332.1972" x2="332.1972" y1="124.1358" y2="1272.7419"/><line style="stroke:#181818;stroke-width:0.5;stroke-dasharray:5.0,5.0;" x1="602.2646" x2="602.2646" y1="124.1358" y2="1272.7419"/><line style="stroke:#181818;stroke-width:0.5;stroke-dasharray:5.0,5.0;" x1="794.0779" x2="794.0779" y1="124.1358" y2="1272.7419"/><line style="stroke:#181818;stroke-width:0.5;stroke-dasharray:5.0,5.0;" x1="1015.1687" x2="1015.1687" y1="229.5818" y2="1272.7419"/><line style="stroke:#181818;stroke-width:0.5;stroke-dasharray:5.0,5.0;" x1="1158.3502" x2="1158.3502" y1="124.1358" y2="1272.7419"/><line style="stroke:#181818;stroke-width:0.5;stroke-dasharray:5.0,5.0;" x1="1324.6158" x2="1324.6158" y1="124.1358" y2="1272.7419"/><line style="stroke:#181818;stroke-width:0.5;stroke-dasharray:5.0,5.0;" x1="1481.4592" x2="1481.4592" y1="124.1358" y2="1272.7419"/><line style="stroke:#181818;stroke-width:0.5;stroke-dasharray:5.0,5.0;" x1="1673.7083" x2="1673.7083" y1="124.1358" y2="1272.7419"/><text fill="#000000" font-family="sans-serif" font-size="14" lengthAdjust="spacing" textLength="98.8256" x="20" y="120.0339">Show Designer</text><ellipse cx="72.4128" cy="53.5679" fill="#E3E3E3" rx="8" ry="8" style="stroke:#181818;stroke-width:0.5;"/><path d="M72.4128,61.5679 L72.4128,88.5679 M59.4128,69.5679 L85.4128,69.5679 M72.4128,88.5679 L59.4128,103.5679 M72.4128,88.5679 L85.4128,103.5679 " fill="none" style="stroke:#181818;stroke-width:0.5;"/><text fill="#000000" font-family="sans-serif" font-size="14" lengthAdjust="spacing" textLength="98.8256" x="20" y="1286.7079">Show Designer</text><ellipse cx="72.4128" cy="1299.3099" fill="#E3E3E3" rx="8" ry="8" style="stroke:#181818;stroke-width:0.5;"/><path d="M72.4128,1307.3099 L72.4128,1334.3099 M59.4128,1315.3099 L85.4128,1315.3099 M72.4128,1334.3099 L59.4128,1349.3099 M72.4128,1334.3099 L85.4128,1349.3099 " fill="none" style="stroke:#181818;stroke-width:0.5;"/><rect fill="#E3E3E3" height="33.0679" rx="2.5" ry="2.5" style="stroke:#181818;stroke-width:0.5;" width="140.6155" x="262.1972" y="90.0679"/><text fill="#000000" font-family="sans-serif" font-size="14" lengthAdjust="spacing" textLength="126.6155" x="269.1972" y="112.0339">:EditFigureStatusUI</text><rect fill="#E3E3E3" height="33.0679" rx="2.5" ry="2.5" style="stroke:#181818;stroke-width:0.5;" width="140.6155" x="262.1972" y="1271.7419"/><text fill="#000000" font-family="sans-serif" font-size="14" lengthAdjust="spacing" textLength="126.6155" x="269.1972" y="1293.7079">:EditFigureStatusUI</text><rect fill="#E3E3E3" height="33.0679" rx="2.5" ry="2.5" style="stroke:#181818;stroke-width:0.5;" width="191.8133" x="507.2646" y="90.0679"/><text fill="#000000" font-family="sans-serif" font-size="14" lengthAdjust="spacing" textLength="177.8133" x="514.2646" y="112.0339">:EditFigureStatusController</text><rect fill="#E3E3E3" height="33.0679" rx="2.5" ry="2.5" style="stroke:#181818;stroke-width:0.5;" width="191.8133" x="507.2646" y="1271.7419"/><text fill="#000000" font-family="sans-serif" font-size="14" lengthAdjust="spacing" textLength="177.8133" x="514.2646" y="1293.7079">:EditFigureStatusController</text><rect fill="#E3E3E3" height="33.0679" rx="2.5" ry="2.5" style="stroke:#181818;stroke-width:0.5;" width="171.7654" x="709.0779" y="90.0679"/><text fill="#000000" font-family="sans-serif" font-size="14" lengthAdjust="spacing" textLength="157.7654" x="716.0779" y="112.0339">:GetAllFiguresController</text><rect fill="#E3E3E3" height="33.0679" rx="2.5" ry="2.5" style="stroke:#181818;stroke-width:0.5;" width="171.7654" x="709.0779" y="1271.7419"/><text fill="#000000" font-family="sans-serif" font-size="14" lengthAdjust="spacing" textLength="157.7654" x="716.0779" y="1293.7079">:GetAllFiguresController</text><rect fill="#E3E3E3" height="33.0679" rx="2.5" ry="2.5" style="stroke:#181818;stroke-width:0.5;" width="140.1815" x="945.1687" y="1271.7419"/><text fill="#000000" font-family="sans-serif" font-size="14" lengthAdjust="spacing" textLength="126.1815" x="952.1687" y="1293.7079">RepositoryProvider</text><rect fill="#E3E3E3" height="33.0679" rx="2.5" ry="2.5" style="stroke:#181818;stroke-width:0.5;" width="126.2656" x="1095.3502" y="90.0679"/><text fill="#000000" font-family="sans-serif" font-size="14" lengthAdjust="spacing" textLength="112.2656" x="1102.3502" y="112.0339">FigureRepository</text><rect fill="#E3E3E3" height="33.0679" rx="2.5" ry="2.5" style="stroke:#181818;stroke-width:0.5;" width="126.2656" x="1095.3502" y="1271.7419"/><text fill="#000000" font-family="sans-serif" font-size="14" lengthAdjust="spacing" textLength="112.2656" x="1102.3502" y="1293.7079">FigureRepository</text><rect fill="#E3E3E3" height="33.0679" rx="2.5" ry="2.5" style="stroke:#181818;stroke-width:0.5;" width="186.8434" x="1231.6158" y="90.0679"/><text fill="#000000" font-family="sans-serif" font-size="14" lengthAdjust="spacing" textLength="172.8434" x="1238.6158" y="112.0339">InMemoryFigurRepository</text><rect fill="#E3E3E3" height="33.0679" rx="2.5" ry="2.5" style="stroke:#181818;stroke-width:0.5;" width="186.8434" x="1231.6158" y="1271.7419"/><text fill="#000000" font-family="sans-serif" font-size="14" lengthAdjust="spacing" textLength="172.8434" x="1238.6158" y="1293.7079">InMemoryFigurRepository</text><rect fill="#E3E3E3" height="33.0679" rx="2.5" ry="2.5" style="stroke:#181818;stroke-width:0.5;" width="107.1137" x="1428.4592" y="90.0679"/><text fill="#000000" font-family="sans-serif" font-size="14" lengthAdjust="spacing" textLength="93.1137" x="1435.4592" y="112.0339">FigureJPAImpl</text><rect fill="#E3E3E3" height="33.0679" rx="2.5" ry="2.5" style="stroke:#181818;stroke-width:0.5;" width="107.1137" x="1428.4592" y="1271.7419"/><text fill="#000000" font-family="sans-serif" font-size="14" lengthAdjust="spacing" textLength="93.1137" x="1435.4592" y="1293.7079">FigureJPAImpl</text><rect fill="#E3E3E3" height="33.0679" rx="2.5" ry="2.5" style="stroke:#181818;stroke-width:0.5;" width="55.8178" x="1646.7083" y="90.0679"/><text fill="#000000" font-family="sans-serif" font-size="14" lengthAdjust="spacing" textLength="41.8178" x="1653.7083" y="112.0339">Figure</text><rect fill="#E3E3E3" height="33.0679" rx="2.5" ry="2.5" style="stroke:#181818;stroke-width:0.5;" width="55.8178" x="1646.7083" y="1271.7419"/><text fill="#000000" font-family="sans-serif" font-size="14" lengthAdjust="spacing" textLength="41.8178" x="1653.7083" y="1293.7079">Figure</text><rect fill="#FFFFFF" height="1128.6061" style="stroke:#181818;stroke-width:1.0;" width="10" x="67.4128" y="134.1358"/><rect fill="#FFFFFF" height="1104.9001" style="stroke:#181818;stroke-width:1.0;" width="10" x="327.505" y="157.8419"/><rect fill="#FFFFFF" height="507.5721" style="stroke:#181818;stroke-width:1.0;" width="10" x="598.1712" y="633.0699"/><rect fill="#FFFFFF" height="348.404" style="stroke:#181818;stroke-width:1.0;" width="10" x="789.9606" y="189.5479"/><rect fill="#FFFFFF" height="34.0679" style="stroke:#181818;stroke-width:1.0;" width="10" x="1010.2595" y="231.2539"/><rect fill="#FFFFFF" height="31.706" style="stroke:#181818;stroke-width:1.0;" width="10" x="1010.2595" y="664.7759"/><rect fill="#FFFFFF" height="209.218" style="stroke:#181818;stroke-width:1.0;" width="10" x="1153.483" y="297.0278"/><rect fill="#FFFFFF" height="380.7481" style="stroke:#181818;stroke-width:1.0;" width="10" x="1153.483" y="728.1879"/><rect fill="#FFFFFF" height="31.706" style="stroke:#181818;stroke-width:1.0;" width="10" x="1320.0375" y="355.4398"/><rect fill="#FFFFFF" height="95.118" style="stroke:#181818;stroke-width:1.0;" width="10" x="1320.0375" y="786.6"/><rect fill="#FFFFFF" height="31.706" style="stroke:#181818;stroke-width:1.0;" width="10" x="1477.016" y="435.8338"/><rect fill="#FFFFFF" height="139.8241" style="stroke:#181818;stroke-width:1.0;" width="10" x="1477.016" y="930.4059"/><rect fill="#FFFFFF" height="31.706" style="stroke:#181818;stroke-width:1.0;" width="10" x="1669.6172" y="818.306"/><rect fill="#FFFFFF" height="31.706" style="stroke:#181818;stroke-width:1.0;" width="10" x="1669.6172" y="1006.8179"/><polygon fill="#181818" points="315.505,153.8419,325.505,157.8419,315.505,161.8419,319.505,157.8419" style="stroke:#181818;stroke-width:1.0;"/><line style="stroke:#181818;stroke-width:1.0;" x1="77.4128" x2="321.505" y1="157.8419" y2="157.8419"/><text fill="#000000" font-family="sans-serif" font-size="13" font-weight="bold" lengthAdjust="spacing" textLength="7.436" x="84.4128" y="152.0328">1</text><text fill="#000000" font-family="sans-serif" font-size="13" lengthAdjust="spacing" textLength="184.0152" x="95.8488" y="152.0328">request to edit a Figure Status</text><polygon fill="#181818" points="777.9606,185.5479,787.9606,189.5479,777.9606,193.5479,781.9606,189.5479" style="stroke:#181818;stroke-width:1.0;"/><line style="stroke:#181818;stroke-width:1.0;" x1="337.505" x2="783.9606" y1="189.5479" y2="189.5479"/><text fill="#000000" font-family="sans-serif" font-size="13" font-weight="bold" lengthAdjust="spacing" textLength="7.436" x="344.505" y="183.7389">2</text><text fill="#000000" font-family="sans-serif" font-size="13" lengthAdjust="spacing" textLength="87.8931" x="355.941" y="183.7389">getAllFigures()</text><polygon fill="#181818" points="933.1687,217.2539,943.1687,221.2539,933.1687,225.2539,937.1687,221.2539" style="stroke:#181818;stroke-width:1.0;"/><line style="stroke:#181818;stroke-width:1.0;" x1="799.9606" x2="939.1687" y1="221.2539" y2="221.2539"/><text fill="#000000" font-family="sans-serif" font-size="13" font-weight="bold" lengthAdjust="spacing" textLength="7.436" x="806.9606" y="215.4449">3</text><text fill="#000000" font-family="sans-serif" font-size="13" lengthAdjust="spacing" textLength="109.7721" x="818.3966" y="215.4449">figureRepository()</text><rect fill="#E3E3E3" height="33.0679" rx="2.5" ry="2.5" style="stroke:#181818;stroke-width:0.5;" width="140.1815" x="945.1687" y="197.5479"/><text fill="#000000" font-family="sans-serif" font-size="14" lengthAdjust="spacing" textLength="126.1815" x="952.1687" y="219.5138">RepositoryProvider</text><polygon fill="#181818" points="810.9606,261.3218,800.9606,265.3218,810.9606,269.3218,806.9606,265.3218" style="stroke:#181818;stroke-width:1.0;"/><line style="stroke:#181818;stroke-width:1.0;stroke-dasharray:2.0,2.0;" x1="804.9606" x2="1014.2595" y1="265.3218" y2="265.3218"/><text fill="#000000" font-family="sans-serif" font-size="13" font-weight="bold" lengthAdjust="spacing" textLength="7.436" x="816.9606" y="259.5128">4</text><text fill="#000000" font-family="sans-serif" font-size="13" lengthAdjust="spacing" textLength="159.6401" x="828.3966" y="259.5128">FigureCategoryRepository</text><polygon fill="#181818" points="1141.483,293.0278,1151.483,297.0278,1141.483,301.0278,1145.483,297.0278" style="stroke:#181818;stroke-width:1.0;"/><line style="stroke:#181818;stroke-width:1.0;" x1="799.9606" x2="1147.483" y1="297.0278" y2="297.0278"/><text fill="#000000" font-family="sans-serif" font-size="13" font-weight="bold" lengthAdjust="spacing" textLength="7.436" x="806.9606" y="291.2188">5</text><text fill="#000000" font-family="sans-serif" font-size="13" lengthAdjust="spacing" textLength="46.6701" x="818.3966" y="291.2188">findAll()</text><path d="M1085.3502,312.0278 L1147.8092,312.0278 L1147.8092,321.7338 L1137.8092,331.7338 L1085.3502,331.7338 L1085.3502,312.0278 " fill="#EEEEEE" style="stroke:#000000;stroke-width:1.5;"/><rect fill="none" height="163.512" style="stroke:#000000;stroke-width:1.5;" width="460.2226" x="1085.3502" y="312.0278"/><text fill="#000000" font-family="sans-serif" font-size="13" font-weight="bold" lengthAdjust="spacing" textLength="17.459" x="1100.3502" y="326.9248">alt</text><text fill="#000000" font-family="sans-serif" font-size="11" font-weight="bold" lengthAdjust="spacing" textLength="191.8936" x="1162.8092" y="325.7867">[using InMemoryFigureRepository]</text><polygon fill="#181818" points="1308.0375,351.4398,1318.0375,355.4398,1308.0375,359.4398,1312.0375,355.4398" style="stroke:#181818;stroke-width:1.0;"/><line style="stroke:#181818;stroke-width:1.0;" x1="1163.483" x2="1314.0375" y1="355.4398" y2="355.4398"/><text fill="#000000" font-family="sans-serif" font-size="13" font-weight="bold" lengthAdjust="spacing" textLength="7.436" x="1170.483" y="349.6308">6</text><text fill="#000000" font-family="sans-serif" font-size="13" lengthAdjust="spacing" textLength="46.6701" x="1181.919" y="349.6308">findAll()</text><polygon fill="#181818" points="1174.483,383.1459,1164.483,387.1459,1174.483,391.1459,1170.483,387.1459" style="stroke:#181818;stroke-width:1.0;"/><line style="stroke:#181818;stroke-width:1.0;stroke-dasharray:2.0,2.0;" x1="1168.483" x2="1324.0375" y1="387.1459" y2="387.1459"/><text fill="#000000" font-family="sans-serif" font-size="13" font-weight="bold" lengthAdjust="spacing" textLength="7.436" x="1180.483" y="381.3369">7</text><text fill="#000000" font-family="sans-serif" font-size="13" lengthAdjust="spacing" textLength="74.7891" x="1191.919" y="381.3369">List&lt;Figure&gt;</text><line style="stroke:#000000;stroke-width:1.0;stroke-dasharray:2.0,2.0;" x1="1085.3502" x2="1545.5728" y1="396.1459" y2="396.1459"/><text fill="#000000" font-family="sans-serif" font-size="11" font-weight="bold" lengthAdjust="spacing" textLength="118.9971" x="1090.3502" y="407.9048">[using FigureJPAImpl]</text><polygon fill="#181818" points="1465.016,431.8338,1475.016,435.8338,1465.016,439.8338,1469.016,435.8338" style="stroke:#181818;stroke-width:1.0;"/><line style="stroke:#181818;stroke-width:1.0;" x1="1163.483" x2="1471.016" y1="435.8338" y2="435.8338"/><text fill="#000000" font-family="sans-serif" font-size="13" font-weight="bold" lengthAdjust="spacing" textLength="7.436" x="1170.483" y="430.0248">8</text><text fill="#000000" font-family="sans-serif" font-size="13" lengthAdjust="spacing" textLength="46.6701" x="1181.919" y="430.0248">findAll()</text><polygon fill="#181818" points="1174.483,463.5398,1164.483,467.5398,1174.483,471.5398,1170.483,467.5398" style="stroke:#181818;stroke-width:1.0;"/><line style="stroke:#181818;stroke-width:1.0;stroke-dasharray:2.0,2.0;" x1="1168.483" x2="1481.016" y1="467.5398" y2="467.5398"/><text fill="#000000" font-family="sans-serif" font-size="13" font-weight="bold" lengthAdjust="spacing" textLength="7.436" x="1180.483" y="461.7308">9</text><text fill="#000000" font-family="sans-serif" font-size="13" lengthAdjust="spacing" textLength="74.7891" x="1191.919" y="461.7308">List&lt;Figure&gt;</text><polygon fill="#181818" points="810.9606,502.2458,800.9606,506.2458,810.9606,510.2458,806.9606,506.2458" style="stroke:#181818;stroke-width:1.0;"/><line style="stroke:#181818;stroke-width:1.0;" x1="804.9606" x2="1157.483" y1="506.2458" y2="506.2458"/><text fill="#000000" font-family="sans-serif" font-size="13" font-weight="bold" lengthAdjust="spacing" textLength="14.872" x="816.9606" y="500.4368">10</text><text fill="#000000" font-family="sans-serif" font-size="13" lengthAdjust="spacing" textLength="142.4021" x="835.8326" y="500.4368">Optional&lt;List&lt;Figure&gt;&gt;</text><polygon fill="#181818" points="348.505,533.9518,338.505,537.9518,348.505,541.9518,344.505,537.9518" style="stroke:#181818;stroke-width:1.0;"/><line style="stroke:#181818;stroke-width:1.0;stroke-dasharray:2.0,2.0;" x1="342.505" x2="793.9606" y1="537.9518" y2="537.9518"/><text fill="#000000" font-family="sans-serif" font-size="13" font-weight="bold" lengthAdjust="spacing" textLength="14.872" x="354.505" y="532.1428">11</text><text fill="#000000" font-family="sans-serif" font-size="13" lengthAdjust="spacing" textLength="142.4021" x="373.377" y="532.1428">Optional&lt;List&lt;Figure&gt;&gt;</text><polygon fill="#181818" points="88.4128,565.6578,78.4128,569.6578,88.4128,573.6578,84.4128,569.6578" style="stroke:#181818;stroke-width:1.0;"/><line style="stroke:#181818;stroke-width:1.0;" x1="82.4128" x2="326.505" y1="569.6578" y2="569.6578"/><text fill="#000000" font-family="sans-serif" font-size="13" font-weight="bold" lengthAdjust="spacing" textLength="14.872" x="94.4128" y="563.8488">12</text><text fill="#000000" font-family="sans-serif" font-size="13" lengthAdjust="spacing" textLength="174.6292" x="113.2848" y="563.8488">show figures to choose from</text><polygon fill="#181818" points="315.505,597.3639,325.505,601.3639,315.505,605.3639,319.505,601.3639" style="stroke:#181818;stroke-width:1.0;"/><line style="stroke:#181818;stroke-width:1.0;" x1="77.4128" x2="321.505" y1="601.3639" y2="601.3639"/><text fill="#000000" font-family="sans-serif" font-size="13" font-weight="bold" lengthAdjust="spacing" textLength="14.872" x="84.4128" y="595.5549">13</text><text fill="#000000" font-family="sans-serif" font-size="13" lengthAdjust="spacing" textLength="207.2202" x="103.2848" y="595.5549">selects figures and the new status</text><polygon fill="#181818" points="586.1712,629.0699,596.1712,633.0699,586.1712,637.0699,590.1712,633.0699" style="stroke:#181818;stroke-width:1.0;"/><line style="stroke:#181818;stroke-width:1.0;" x1="337.505" x2="592.1712" y1="633.0699" y2="633.0699"/><text fill="#000000" font-family="sans-serif" font-size="13" font-weight="bold" lengthAdjust="spacing" textLength="14.872" x="344.505" y="627.2609">14</text><text fill="#000000" font-family="sans-serif" font-size="13" lengthAdjust="spacing" textLength="222.7942" x="363.377" y="627.2609">editChosenFigure(figure, newStatus)</text><polygon fill="#181818" points="998.2595,660.7759,1008.2595,664.7759,998.2595,668.7759,1002.2595,664.7759" style="stroke:#181818;stroke-width:1.0;"/><line style="stroke:#181818;stroke-width:1.0;" x1="608.1712" x2="1004.2595" y1="664.7759" y2="664.7759"/><text fill="#000000" font-family="sans-serif" font-size="13" font-weight="bold" lengthAdjust="spacing" textLength="14.872" x="615.1712" y="658.9669">15</text><text fill="#000000" font-family="sans-serif" font-size="13" lengthAdjust="spacing" textLength="109.7721" x="634.0432" y="658.9669">figureRepository()</text><polygon fill="#181818" points="619.1712,692.4819,609.1712,696.4819,619.1712,700.4819,615.1712,696.4819" style="stroke:#181818;stroke-width:1.0;"/><line style="stroke:#181818;stroke-width:1.0;stroke-dasharray:2.0,2.0;" x1="613.1712" x2="1014.2595" y1="696.4819" y2="696.4819"/><text fill="#000000" font-family="sans-serif" font-size="13" font-weight="bold" lengthAdjust="spacing" textLength="14.872" x="625.1712" y="690.6729">16</text><text fill="#000000" font-family="sans-serif" font-size="13" lengthAdjust="spacing" textLength="104.2471" x="644.0432" y="690.6729">FigureRepository</text><polygon fill="#181818" points="1141.483,724.1879,1151.483,728.1879,1141.483,732.1879,1145.483,728.1879" style="stroke:#181818;stroke-width:1.0;"/><line style="stroke:#181818;stroke-width:1.0;" x1="608.1712" x2="1147.483" y1="728.1879" y2="728.1879"/><text fill="#000000" font-family="sans-serif" font-size="13" font-weight="bold" lengthAdjust="spacing" textLength="14.872" x="615.1712" y="722.3789">17</text><text fill="#000000" font-family="sans-serif" font-size="13" lengthAdjust="spacing" textLength="222.7942" x="634.0432" y="722.3789">editChosenFigure(figure, newStatus)</text><path d="M1085.3502,743.1879 L1147.8092,743.1879 L1147.8092,752.8939 L1137.8092,762.8939 L1085.3502,762.8939 L1085.3502,743.1879 " fill="#EEEEEE" style="stroke:#000000;stroke-width:1.5;"/><rect fill="none" height="335.0421" style="stroke:#000000;stroke-width:1.5;" width="627.1758" x="1085.3502" y="743.1879"/><text fill="#000000" font-family="sans-serif" font-size="13" font-weight="bold" lengthAdjust="spacing" textLength="17.459" x="1100.3502" y="758.0849">alt</text><text fill="#000000" font-family="sans-serif" font-size="11" font-weight="bold" lengthAdjust="spacing" textLength="158.7948" x="1162.8092" y="756.9468">[InMemoryFigureRepository]</text><polygon fill="#181818" points="1308.0375,782.6,1318.0375,786.6,1308.0375,790.6,1312.0375,786.6" style="stroke:#181818;stroke-width:1.0;"/><line style="stroke:#181818;stroke-width:1.0;" x1="1163.483" x2="1314.0375" y1="786.6" y2="786.6"/><text fill="#000000" font-family="sans-serif" font-size="13" font-weight="bold" lengthAdjust="spacing" textLength="14.872" x="1170.483" y="780.7909">18</text><text fill="#000000" font-family="sans-serif" font-size="13" lengthAdjust="spacing" textLength="115.7131" x="1189.355" y="780.7909">editChosenFigure()</text><polygon fill="#181818" points="1657.6172,814.306,1667.6172,818.306,1657.6172,822.306,1661.6172,818.306" style="stroke:#181818;stroke-width:1.0;"/><line style="stroke:#181818;stroke-width:1.0;" x1="1330.0375" x2="1663.6172" y1="818.306" y2="818.306"/><text fill="#000000" font-family="sans-serif" font-size="13" font-weight="bold" lengthAdjust="spacing" textLength="14.872" x="1337.0375" y="812.497">19</text><text fill="#000000" font-family="sans-serif" font-size="13" lengthAdjust="spacing" textLength="144.7292" x="1355.9095" y="812.497">changeFigureStatusTo()</text><polygon fill="#181818" points="1341.0375,846.012,1331.0375,850.012,1341.0375,854.012,1337.0375,850.012" style="stroke:#181818;stroke-width:1.0;"/><line style="stroke:#181818;stroke-width:1.0;" x1="1335.0375" x2="1673.6172" y1="850.012" y2="850.012"/><text fill="#000000" font-family="sans-serif" font-size="13" font-weight="bold" lengthAdjust="spacing" textLength="14.872" x="1347.0375" y="844.203">20</text><text fill="#000000" font-family="sans-serif" font-size="13" lengthAdjust="spacing" textLength="38.831" x="1365.9095" y="844.203">Figure</text><polygon fill="#181818" points="1174.483,877.718,1164.483,881.718,1174.483,885.718,1170.483,881.718" style="stroke:#181818;stroke-width:1.0;"/><line style="stroke:#181818;stroke-width:1.0;stroke-dasharray:2.0,2.0;" x1="1168.483" x2="1324.0375" y1="881.718" y2="881.718"/><text fill="#000000" font-family="sans-serif" font-size="13" font-weight="bold" lengthAdjust="spacing" textLength="14.872" x="1180.483" y="875.909">21</text><text fill="#000000" font-family="sans-serif" font-size="13" lengthAdjust="spacing" textLength="106.4441" x="1199.355" y="875.909">Optional&lt;Figure&gt;</text><line style="stroke:#000000;stroke-width:1.0;stroke-dasharray:2.0,2.0;" x1="1085.3502" x2="1712.5261" y1="890.718" y2="890.718"/><text fill="#000000" font-family="sans-serif" font-size="11" font-weight="bold" lengthAdjust="spacing" textLength="85.8984" x="1090.3502" y="902.4769">[FigureJPAImpl]</text><polygon fill="#181818" points="1465.016,926.4059,1475.016,930.4059,1465.016,934.4059,1469.016,930.4059" style="stroke:#181818;stroke-width:1.0;"/><line style="stroke:#181818;stroke-width:1.0;" x1="1163.483" x2="1471.016" y1="930.4059" y2="930.4059"/><text fill="#000000" font-family="sans-serif" font-size="13" font-weight="bold" lengthAdjust="spacing" textLength="14.872" x="1170.483" y="924.5969">22</text><text fill="#000000" font-family="sans-serif" font-size="13" lengthAdjust="spacing" textLength="115.7131" x="1189.355" y="924.5969">editChosenFigure()</text><line style="stroke:#181818;stroke-width:1.0;" x1="1487.016" x2="1529.016" y1="962.1119" y2="962.1119"/><line style="stroke:#181818;stroke-width:1.0;" x1="1529.016" x2="1529.016" y1="962.1119" y2="975.1119"/><line style="stroke:#181818;stroke-width:1.0;" x1="1488.016" x2="1529.016" y1="975.1119" y2="975.1119"/><polygon fill="#181818" points="1498.016,971.1119,1488.016,975.1119,1498.016,979.1119,1494.016,975.1119" style="stroke:#181818;stroke-width:1.0;"/><text fill="#000000" font-family="sans-serif" font-size="13" font-weight="bold" lengthAdjust="spacing" textLength="14.872" x="1494.016" y="956.3029">23</text><text fill="#000000" font-family="sans-serif" font-size="13" lengthAdjust="spacing" textLength="132.7822" x="1512.888" y="956.3029">entityManager().find()</text><polygon fill="#181818" points="1657.6172,1002.8179,1667.6172,1006.8179,1657.6172,1010.8179,1661.6172,1006.8179" style="stroke:#181818;stroke-width:1.0;"/><line style="stroke:#181818;stroke-width:1.0;" x1="1487.016" x2="1663.6172" y1="1006.8179" y2="1006.8179"/><text fill="#000000" font-family="sans-serif" font-size="13" font-weight="bold" lengthAdjust="spacing" textLength="14.872" x="1494.016" y="1001.0089">24</text><text fill="#000000" font-family="sans-serif" font-size="13" lengthAdjust="spacing" textLength="144.7292" x="1512.888" y="1001.0089">changeFigureStatusTo()</text><polygon fill="#181818" points="1498.016,1034.524,1488.016,1038.524,1498.016,1042.524,1494.016,1038.524" style="stroke:#181818;stroke-width:1.0;"/><line style="stroke:#181818;stroke-width:1.0;" x1="1492.016" x2="1673.6172" y1="1038.524" y2="1038.524"/><text fill="#000000" font-family="sans-serif" font-size="13" font-weight="bold" lengthAdjust="spacing" textLength="14.872" x="1504.016" y="1032.715">25</text><text fill="#000000" font-family="sans-serif" font-size="13" lengthAdjust="spacing" textLength="38.831" x="1522.888" y="1032.715">Figure</text><polygon fill="#181818" points="1174.483,1066.23,1164.483,1070.23,1174.483,1074.23,1170.483,1070.23" style="stroke:#181818;stroke-width:1.0;"/><line style="stroke:#181818;stroke-width:1.0;stroke-dasharray:2.0,2.0;" x1="1168.483" x2="1481.016" y1="1070.23" y2="1070.23"/><text fill="#000000" font-family="sans-serif" font-size="13" font-weight="bold" lengthAdjust="spacing" textLength="14.872" x="1180.483" y="1064.421">26</text><text fill="#000000" font-family="sans-serif" font-size="13" lengthAdjust="spacing" textLength="106.4441" x="1199.355" y="1064.421">Optional&lt;Figure&gt;</text><polygon fill="#181818" points="619.1712,1104.936,609.1712,1108.936,619.1712,1112.936,615.1712,1108.936" style="stroke:#181818;stroke-width:1.0;"/><line style="stroke:#181818;stroke-width:1.0;" x1="613.1712" x2="1157.483" y1="1108.936" y2="1108.936"/><text fill="#000000" font-family="sans-serif" font-size="13" font-weight="bold" lengthAdjust="spacing" textLength="14.872" x="625.1712" y="1103.127">27</text><text fill="#000000" font-family="sans-serif" font-size="13" lengthAdjust="spacing" textLength="106.4441" x="644.0432" y="1103.127">Optional&lt;Figure&gt;</text><polygon fill="#181818" points="348.505,1136.642,338.505,1140.642,348.505,1144.642,344.505,1140.642" style="stroke:#181818;stroke-width:1.0;"/><line style="stroke:#181818;stroke-width:1.0;stroke-dasharray:2.0,2.0;" x1="342.505" x2="602.1712" y1="1140.642" y2="1140.642"/><text fill="#000000" font-family="sans-serif" font-size="13" font-weight="bold" lengthAdjust="spacing" textLength="14.872" x="354.505" y="1134.833">28</text><text fill="#000000" font-family="sans-serif" font-size="13" lengthAdjust="spacing" textLength="106.4441" x="373.377" y="1134.833">Optional&lt;Figure&gt;</text><path d="M10,1155.642 L72.459,1155.642 L72.459,1165.348 L62.459,1175.348 L10,1175.348 L10,1155.642 " fill="#EEEEEE" style="stroke:#000000;stroke-width:1.5;"/><rect fill="none" height="100.0999" style="stroke:#000000;stroke-width:1.5;" width="402.8128" x="10" y="1155.642"/><text fill="#000000" font-family="sans-serif" font-size="13" font-weight="bold" lengthAdjust="spacing" textLength="17.459" x="25" y="1170.539">alt</text><text fill="#000000" font-family="sans-serif" font-size="11" font-weight="bold" lengthAdjust="spacing" textLength="48.7187" x="87.459" y="1169.4009">[success]</text><polygon fill="#181818" points="88.4128,1195.054,78.4128,1199.054,88.4128,1203.054,84.4128,1199.054" style="stroke:#181818;stroke-width:1.0;"/><line style="stroke:#181818;stroke-width:1.0;" x1="82.4128" x2="326.505" y1="1199.054" y2="1199.054"/><text fill="#000000" font-family="sans-serif" font-size="13" font-weight="bold" lengthAdjust="spacing" textLength="14.872" x="94.4128" y="1193.245">29</text><text fill="#000000" font-family="sans-serif" font-size="13" lengthAdjust="spacing" textLength="104.4681" x="113.2848" y="1193.245">success message</text><line style="stroke:#000000;stroke-width:1.0;stroke-dasharray:2.0,2.0;" x1="10" x2="412.8128" y1="1208.054" y2="1208.054"/><text fill="#000000" font-family="sans-serif" font-size="11" font-weight="bold" lengthAdjust="spacing" textLength="43.6147" x="15" y="1219.813">[failure]</text><polygon fill="#181818" points="88.4128,1243.7419,78.4128,1247.7419,88.4128,1251.7419,84.4128,1247.7419" style="stroke:#181818;stroke-width:1.0;"/><line style="stroke:#181818;stroke-width:1.0;" x1="82.4128" x2="326.505" y1="1247.7419" y2="1247.7419"/><text fill="#000000" font-family="sans-serif" font-size="13" font-weight="bold" lengthAdjust="spacing" textLength="14.872" x="94.4128" y="1241.9329">30</text><text fill="#000000" font-family="sans-serif" font-size="13" lengthAdjust="spacing" textLength="89.2451" x="113.2848" y="1241.9329">error message</text><!--SRC=[dLRHJkCm47ptLwnuAkXw7r2XIgY5Kn7e484Fy2NRn2AnSxO3ukzlRSU9anOAruUgSMPcDxkpcveN8LkkUGEDaYglj6eGhEwGcU5Eo_CNNc9ctsi4ZRdbignJWAbueTw4B67FQuECMM49-ho33FzsA7E4hU2bWowoR7iEIxWkX8KRKNOQ8RFSTeOntbabk-OFQlgTMwNXBAlK6spHY5AYFWDk8Dio2cf5BbekBPojd58G2ZhFEuzxtft0RPIqMjLrhxjvUhoRCNwXlQhhm9d3Rz3crSRgUifvn5OPGQc_FsZrAeeU7I-cuA0yKZpKNKvXEtcF3Ttsy1dQtpka1ENRXwjTqzOUUDloZs3-_hMadhqpvYilNhb5LscMRM6vTerSKUEfbSQ2LO2kUNpMle57bMV48DvG9AANQJ4NvoDyh2GRyKIEDRku8FP-LgfKO2WkYxzWEGiUmcu8NH9vb6457f6Pvk7GFWDPq0EaWNr16QyjTCQPVzAe95a6zF4o93TqRABf48Fks5H_FZAMOpftmjZB46ZjKScJZ7oaQUoJcrXYab5lZO_pYTxnfn7znLmY5sL1XOqXXmAlu7ThXPAylanLrcbZGkoqAT6Ifxc9kO8boT0hsbUqLOAbZFDpNYb5XThJyfjOtc1DsyuCK2uBi1M2n3SmmVL1rIqFmhkvs5Ga9KCkYq3yuGXXIXBt-8N3F3Dn-_zvlOz_OBoZzeuX- -vzA-dHyjys-q6SBxj-tMyd4iahUlTWkiQVr5mehZ9ts1DdgGJ-tAefx-ZC3NQBNlVZTJXOHqVn-CITAaeSdydaJGHyqlTSqWjQByv_kX7kHHBygVfzfO1Zp4_Bzy6EEAZT9tiYBLNlx5Fqu9lWx8Fj43a9FWoVyx7fyXoDyOBfYWZ7qD0NbJQqUiz57PyymQBMz5zbGBfDbuIYrs5obMt_0G00]--></g></svg>