<svg xmlns="http://www.w3.org/2000/svg" xmlns:xlink="http://www.w3.org/1999/xlink" contentStyleType="text/css" height="467px" preserveAspectRatio="none" style="width:328px;height:467px;background:#FFFFFF;" version="1.1" viewBox="0 0 328 467" width="328px" zoomAndPan="magnify"><title>List Users - Domain Model (US213)</title><defs/><g><text fill="#000000" font-family="sans-serif" font-size="14" font-weight="bold" lengthAdjust="spacing" textLength="231.8271" x="41.0864" y="25.1074">List Users - Domain Model (US213)</text><!--cluster User Management Subsystem--><g id="cluster_User Management Subsystem"><rect fill="none" height="415" rx="2.5" ry="2.5" style="stroke:#000000;stroke-width:1.5;" width="315" x="7" y="46.6211"/><text fill="#000000" font-family="sans-serif" font-size="14" font-weight="bold" lengthAdjust="spacing" textLength="199.1787" x="64.9106" y="63.7285">User Management Subsystem</text></g><!--class User--><g id="elem_User"><rect codeLine="13" fill="#F1F1F1" height="129.7266" id="User" rx="2.5" ry="2.5" style="stroke:#181818;stroke-width:0.5;" width="145.0752" x="23.5" y="199.6211"/><text fill="#000000" font-family="sans-serif" font-size="14" lengthAdjust="spacing" textLength="29.5586" x="81.2583" y="219.7285">User</text><line style="stroke:#181818;stroke-width:0.5;" x1="24.5" x2="167.5752" y1="228.2422" y2="228.2422"/><text fill="#000000" font-family="sans-serif" font-size="14" lengthAdjust="spacing" textLength="53.6826" x="29.5" y="247.3496">Email: id</text><text fill="#000000" font-family="sans-serif" font-size="14" lengthAdjust="spacing" textLength="79.3721" x="29.5" y="265.9707">String: name</text><text fill="#000000" font-family="sans-serif" font-size="14" lengthAdjust="spacing" textLength="133.0752" x="29.5" y="284.5918">String: phoneNumber</text><text fill="#000000" font-family="sans-serif" font-size="14" lengthAdjust="spacing" textLength="129.165" x="29.5" y="303.2129">Password: password</text><text fill="#000000" font-family="sans-serif" font-size="14" lengthAdjust="spacing" textLength="94.1787" x="29.5" y="321.834">boolean: active</text></g><!--class Email--><g id="elem_Email"><rect codeLine="21" fill="#F1F1F1" height="55.2422" id="Email" rx="2.5" ry="2.5" style="stroke:#181818;stroke-width:0.5;" width="89.8203" x="33" y="390.6211"/><text fill="#000000" font-family="sans-serif" font-size="14" lengthAdjust="spacing" textLength="35.0068" x="60.4067" y="410.7285">Email</text><line style="stroke:#181818;stroke-width:0.5;" x1="34" x2="121.8203" y1="419.2422" y2="419.2422"/><text fill="#000000" font-family="sans-serif" font-size="14" lengthAdjust="spacing" textLength="77.8203" x="39" y="438.3496">String: value</text></g><!--class Password--><g id="elem_Password"><rect codeLine="25" fill="#F1F1F1" height="55.2422" id="Password" rx="2.5" ry="2.5" style="stroke:#181818;stroke-width:0.5;" width="138.0889" x="158" y="390.6211"/><text fill="#000000" font-family="sans-serif" font-size="14" lengthAdjust="spacing" textLength="61.4688" x="196.3101" y="410.7285">Password</text><line style="stroke:#181818;stroke-width:0.5;" x1="159" x2="295.0889" y1="419.2422" y2="419.2422"/><text fill="#000000" font-family="sans-serif" font-size="14" lengthAdjust="spacing" textLength="126.0889" x="164" y="438.3496">String: hashedValue</text></g><!--class UserRepository--><g id="elem_UserRepository"><rect codeLine="29" fill="#F1F1F1" height="36.6211" id="UserRepository" rx="2.5" ry="2.5" style="stroke:#181818;stroke-width:0.5;" width="102.4756" x="204" y="246.1211"/><text fill="#000000" font-family="sans-serif" font-size="14" font-style="italic" lengthAdjust="spacing" textLength="96.4756" x="207" y="266.2285">UserRepository</text><line style="stroke:#181818;stroke-width:0.5;" x1="205" x2="305.4756" y1="274.7422" y2="274.7422"/></g><!--class ListUserController--><g id="elem_ListUserController"><rect codeLine="33" fill="#F1F1F1" height="36.6211" id="ListUserController" rx="2.5" ry="2.5" style="stroke:#181818;stroke-width:0.5;" width="118.0342" x="101" y="83.6211"/><text fill="#000000" font-family="sans-serif" font-size="14" lengthAdjust="spacing" textLength="112.0342" x="104" y="103.7285">ListUserController</text><line style="stroke:#181818;stroke-width:0.5;" x1="102" x2="218.0342" y1="112.2422" y2="112.2422"/></g><!--link ListUserController to UserRepository--><g id="link_ListUserController_UserRepository"><path codeLine="38" d="M176.69,120.7911 C184.33,129.4011 193.18,140.1311 200,150.6211 C220.69,182.4511 236.3794,217.6614 245.7694,240.5114 " fill="none" id="ListUserController-to-UserRepository" style="stroke:#181818;stroke-width:1.0;"/><polygon fill="#181818" points="248.05,246.0611,248.3289,236.2162,246.1495,241.4364,240.9293,239.257,248.05,246.0611" style="stroke:#181818;stroke-width:1.0;"/><polygon fill="#000000" points="217.4989,164.5974,215.5239,155.2941,210.4328,158.2317,217.4989,164.5974" style="stroke:#000000;stroke-width:1.0;"/><text fill="#000000" font-family="sans-serif" font-size="13" lengthAdjust="spacing" textLength="27.46" x="224" y="165.6494">uses</text></g><!--link ListUserController to User--><g id="link_ListUserController_User"><path codeLine="39" d="M151.31,121.0211 C147.12,129.8611 142.12,140.7211 138,150.6211 C131.48,166.2711 126.9763,177.7092 121.0063,193.7192 " fill="none" id="ListUserController-to-User" style="stroke:#181818;stroke-width:1.0;"/><polygon fill="#181818" points="118.91,199.3411,125.8024,192.3059,120.657,194.6562,118.3066,189.5107,118.91,199.3411" style="stroke:#181818;stroke-width:1.0;"/><polygon fill="#000000" points="141.0762,164.8817,147.269,157.6637,141.8437,155.4021,141.0762,164.8817" style="stroke:#000000;stroke-width:1.0;"/><text fill="#000000" font-family="sans-serif" font-size="13" lengthAdjust="spacing" textLength="43.3418" x="152" y="165.6494">formats</text></g><!--link User to Email--><g id="link_User_Email"><path codeLine="41" d="M88.37,329.8711 C85.84,351.1611 83.868,367.733 81.868,384.563 " fill="none" id="User-to-Email" style="stroke:#181818;stroke-width:1.0;"/><polygon fill="#181818" points="81.16,390.5211,86.1941,382.056,81.75,385.556,78.25,381.112,81.16,390.5211" style="stroke:#181818;stroke-width:1.0;"/><text fill="#000000" font-family="sans-serif" font-size="13" lengthAdjust="spacing" textLength="7.23" x="80.2302" y="351.534">1</text><text fill="#000000" font-family="sans-serif" font-size="13" lengthAdjust="spacing" textLength="7.23" x="74.1287" y="379.2069">1</text></g><!--link User to Password--><g id="link_User_Password"><path codeLine="42" d="M151.56,329.8711 C169.97,351.1611 185.526,369.1522 200.076,385.9822 " fill="none" id="User-to-Password" style="stroke:#181818;stroke-width:1.0;"/><polygon fill="#181818" points="204,390.5211,201.1399,381.0967,200.73,386.7386,195.088,386.3287,204,390.5211" style="stroke:#181818;stroke-width:1.0;"/><text fill="#000000" font-family="sans-serif" font-size="13" lengthAdjust="spacing" textLength="7.23" x="149.9367" y="351.534">1</text><text fill="#000000" font-family="sans-serif" font-size="13" lengthAdjust="spacing" textLength="7.23" x="190.8882" y="379.2069">1</text></g><!--SRC=[XL5DRy8m3BtdLrYSG8W3swsQaAPjjp5DgzZEfZLjH3vGx8BGn7zV6g1Yq6c-9F5xVi-nUQtT1WDQiDxveWxU4aXeI767RB1OOqMvx0r1e4BGLUQIm3MMVgTT1IiqJ4g9baXzrIomO0eC4tZs5hM3kI_9m72HtqtlHqhLkYGeT2WCyV5XIMfVib8dLnYq2Z175n-Md43UB7dFGdO0tqf1ZC8WStAA6JZ5I_Gp6UYoo-GIOeyPEBHqazpKtj5ROvSKEkmzokvyA2DwkdNGqdj3w3B0GlJsA7Uux2RPNxHpzjcYQNhePwkUYXgvflBpkauxeR32WjB7FsZZMOiF-mk5yKgxyj6OuIXBotXecRDRynPheIVl97XZVirnN954ZRJ7BorrBYWDTvB7BcUzzBzzUnmdazdrJp9ec1Xc_vL4uie7Yz9o4pbb1zD1ehHdMaS_T1wzEgWV]--></g></svg>