<svg xmlns="http://www.w3.org/2000/svg" xmlns:xlink="http://www.w3.org/1999/xlink" contentStyleType="text/css" height="1253px" preserveAspectRatio="none" style="width:3554px;height:1253px;background:#FFFFFF;" version="1.1" viewBox="0 0 3554 1253" width="3554px" zoomAndPan="magnify"><title>UI Sequence Diagram (SSD) - Create Show Proposal (US310)</title><defs/><g><text fill="#000000" font-family="sans-serif" font-size="14" font-weight="bold" lengthAdjust="spacing" textLength="409.1904" x="1579.06" y="29.9659">UI Sequence Diagram (SSD) - Create Show Proposal (US310)</text><rect fill="#FFFFFF" height="1025.6782" style="stroke:#181818;stroke-width:1.0;" width="10" x="86.1558" y="134.1358"/><rect fill="#FFFFFF" height="392.5579" style="stroke:#181818;stroke-width:1.0;" width="10" x="903.4982" y="157.8419"/><rect fill="#FFFFFF" height="562.7083" style="stroke:#181818;stroke-width:1.0;" width="10" x="903.4982" y="582.1058"/><rect fill="#FFFFFF" height="285.0779" style="stroke:#181818;stroke-width:1.0;" width="10" x="1675.8476" y="233.6158"/><rect fill="#FFFFFF" height="499.2963" style="stroke:#181818;stroke-width:1.0;" width="10" x="1675.8476" y="613.8118"/><rect fill="#FFFFFF" height="158.5301" style="stroke:#181818;stroke-width:1.0;" width="10" x="1869.2329" y="328.4576"/><rect fill="#FFFFFF" height="31.706" style="stroke:#181818;stroke-width:1.0;" width="10" x="2090.1041" y="360.1637"/><rect fill="#FFFFFF" height="31.706" style="stroke:#181818;stroke-width:1.0;" width="10" x="2090.1041" y="1017.99"/><rect fill="#FFFFFF" height="31.706" style="stroke:#181818;stroke-width:1.0;" width="10" x="2276.7764" y="423.5757"/><rect fill="#FFFFFF" height="31.706" style="stroke:#181818;stroke-width:1.0;" width="10" x="2703.769" y="827.7539"/><rect fill="#FFFFFF" height="31.706" style="stroke:#181818;stroke-width:1.0;" width="10" x="2884.2745" y="891.1659"/><rect fill="#FFFFFF" height="31.706" style="stroke:#181818;stroke-width:1.0;" width="10" x="3154.8106" y="954.578"/><rect fill="#FFFFFF" height="31.706" style="stroke:#181818;stroke-width:1.0;" width="10" x="3431.3248" y="672.2238"/><rect fill="none" height="433.8842" style="stroke:#000000;stroke-width:1.5;" width="3179.1896" x="20" y="718.9298"/><line style="stroke:#181818;stroke-width:0.5;stroke-dasharray:5.0,5.0;" x1="91" x2="91" y1="124.1358" y2="1169.8141"/><line style="stroke:#181818;stroke-width:0.5;stroke-dasharray:5.0,5.0;" x1="907.5745" x2="907.5745" y1="124.1358" y2="1169.8141"/><line style="stroke:#181818;stroke-width:0.5;stroke-dasharray:5.0,5.0;" x1="1680.3249" x2="1680.3249" y1="197.8758" y2="1169.8141"/><line style="stroke:#181818;stroke-width:0.5;stroke-dasharray:5.0,5.0;" x1="1873.3702" x2="1873.3702" y1="283.1837" y2="1169.8141"/><line style="stroke:#181818;stroke-width:0.5;stroke-dasharray:5.0,5.0;" x1="2094.1373" x2="2094.1373" y1="124.1358" y2="1169.8141"/><line style="stroke:#181818;stroke-width:0.5;stroke-dasharray:5.0,5.0;" x1="2281.0708" x2="2281.0708" y1="124.1358" y2="1169.8141"/><line style="stroke:#181818;stroke-width:0.5;stroke-dasharray:5.0,5.0;" x1="2516.4821" x2="2516.4821" y1="124.1358" y2="1169.8141"/><line style="stroke:#181818;stroke-width:0.5;stroke-dasharray:5.0,5.0;" x1="2707.8832" x2="2707.8832" y1="124.1358" y2="1169.8141"/><line style="stroke:#181818;stroke-width:0.5;stroke-dasharray:5.0,5.0;" x1="2888.6548" x2="2888.6548" y1="124.1358" y2="1169.8141"/><line style="stroke:#181818;stroke-width:0.5;stroke-dasharray:5.0,5.0;" x1="3063.8941" x2="3063.8941" y1="124.1358" y2="1169.8141"/><line style="stroke:#181818;stroke-width:0.5;stroke-dasharray:5.0,5.0;" x1="3159.4317" x2="3159.4317" y1="124.1358" y2="1169.8141"/><line style="stroke:#181818;stroke-width:0.5;stroke-dasharray:5.0,5.0;" x1="3256.1896" x2="3256.1896" y1="124.1358" y2="1169.8141"/><line style="stroke:#181818;stroke-width:0.5;stroke-dasharray:5.0,5.0;" x1="3435.3392" x2="3435.3392" y1="124.1358" y2="1169.8141"/><text fill="#000000" font-family="sans-serif" font-size="14" lengthAdjust="spacing" textLength="116.3116" x="30" y="120.0339">CRM Collaborator</text><ellipse cx="91.1558" cy="53.5679" fill="#E3E3E3" rx="8" ry="8" style="stroke:#181818;stroke-width:0.5;"/><path d="M91.1558,61.5679 L91.1558,88.5679 M78.1558,69.5679 L104.1558,69.5679 M91.1558,88.5679 L78.1558,103.5679 M91.1558,88.5679 L104.1558,103.5679 " fill="none" style="stroke:#181818;stroke-width:0.5;"/><text fill="#000000" font-family="sans-serif" font-size="14" lengthAdjust="spacing" textLength="116.3116" x="30" y="1183.78">CRM Collaborator</text><ellipse cx="91.1558" cy="1196.382" fill="#E3E3E3" rx="8" ry="8" style="stroke:#181818;stroke-width:0.5;"/><path d="M91.1558,1204.382 L91.1558,1231.382 M78.1558,1212.382 L104.1558,1212.382 M91.1558,1231.382 L78.1558,1246.382 M91.1558,1231.382 L104.1558,1246.382 " fill="none" style="stroke:#181818;stroke-width:0.5;"/><rect fill="#E3E3E3" height="33.0679" rx="2.5" ry="2.5" style="stroke:#181818;stroke-width:0.5;" width="169.8474" x="823.5745" y="90.0679"/><text fill="#000000" font-family="sans-serif" font-size="14" lengthAdjust="spacing" textLength="155.8474" x="830.5745" y="112.0339">:CreateShowProposalUI</text><rect fill="#E3E3E3" height="33.0679" rx="2.5" ry="2.5" style="stroke:#181818;stroke-width:0.5;" width="169.8474" x="823.5745" y="1168.8141"/><text fill="#000000" font-family="sans-serif" font-size="14" lengthAdjust="spacing" textLength="155.8474" x="830.5745" y="1190.78">:CreateShowProposalUI</text><rect fill="#E3E3E3" height="33.0679" rx="2.5" ry="2.5" style="stroke:#181818;stroke-width:0.5;" width="221.0452" x="1570.3249" y="1168.8141"/><text fill="#000000" font-family="sans-serif" font-size="14" lengthAdjust="spacing" textLength="207.0452" x="1577.3249" y="1190.78">:CreateShowProposalController</text><rect fill="#E3E3E3" height="52.1358" rx="2.5" ry="2.5" style="stroke:#181818;stroke-width:0.5;" width="145.7255" x="1801.3702" y="1168.8141"/><text fill="#000000" font-family="sans-serif" font-size="14" lengthAdjust="spacing" textLength="125.2435" x="1811.6112" y="1190.78">templateController</text><text fill="#000000" font-family="sans-serif" font-size="14" lengthAdjust="spacing" textLength="131.7255" x="1808.3702" y="1209.8479">:TemplateController</text><rect fill="#E3E3E3" height="52.1358" rx="2.5" ry="2.5" style="stroke:#181818;stroke-width:0.5;" width="143.9335" x="2023.1373" y="71"/><text fill="#000000" font-family="sans-serif" font-size="14" lengthAdjust="spacing" textLength="123.2556" x="2033.4763" y="92.9659">repositoryProvider</text><text fill="#000000" font-family="sans-serif" font-size="14" lengthAdjust="spacing" textLength="129.9335" x="2030.1373" y="112.0339">:RepositoryProvider</text><rect fill="#E3E3E3" height="52.1358" rx="2.5" ry="2.5" style="stroke:#181818;stroke-width:0.5;" width="143.9335" x="2023.1373" y="1168.8141"/><text fill="#000000" font-family="sans-serif" font-size="14" lengthAdjust="spacing" textLength="123.2556" x="2033.4763" y="1190.78">repositoryProvider</text><text fill="#000000" font-family="sans-serif" font-size="14" lengthAdjust="spacing" textLength="129.9335" x="2030.1373" y="1209.8479">:RepositoryProvider</text><rect fill="#E3E3E3" height="52.1358" rx="2.5" ry="2.5" style="stroke:#181818;stroke-width:0.5;" width="209.4113" x="2177.0708" y="71"/><text fill="#000000" font-family="sans-serif" font-size="14" lengthAdjust="spacing" textLength="188.9293" x="2187.3118" y="92.9659">templateRepositoryInterface</text><text fill="#000000" font-family="sans-serif" font-size="14" lengthAdjust="spacing" textLength="195.4113" x="2184.0708" y="112.0339">:TemplateRepositoryInterface</text><rect fill="#E3E3E3" height="52.1358" rx="2.5" ry="2.5" style="stroke:#181818;stroke-width:0.5;" width="209.4113" x="2177.0708" y="1168.8141"/><text fill="#000000" font-family="sans-serif" font-size="14" lengthAdjust="spacing" textLength="188.9293" x="2187.3118" y="1190.78">templateRepositoryInterface</text><text fill="#000000" font-family="sans-serif" font-size="14" lengthAdjust="spacing" textLength="195.4113" x="2184.0708" y="1209.8479">:TemplateRepositoryInterface</text><rect fill="#E3E3E3" height="52.1358" rx="2.5" ry="2.5" style="stroke:#181818;stroke-width:0.5;" width="241.4012" x="2396.4821" y="71"/><text fill="#000000" font-family="sans-serif" font-size="14" lengthAdjust="spacing" textLength="222.6692" x="2405.8481" y="92.9659">showProposalRepositoryInterface</text><text fill="#000000" font-family="sans-serif" font-size="14" lengthAdjust="spacing" textLength="227.4012" x="2403.4821" y="112.0339">:ShowProposalRepositoryInterface</text><rect fill="#E3E3E3" height="52.1358" rx="2.5" ry="2.5" style="stroke:#181818;stroke-width:0.5;" width="241.4012" x="2396.4821" y="1168.8141"/><text fill="#000000" font-family="sans-serif" font-size="14" lengthAdjust="spacing" textLength="222.6692" x="2405.8481" y="1190.78">showProposalRepositoryInterface</text><text fill="#000000" font-family="sans-serif" font-size="14" lengthAdjust="spacing" textLength="227.4012" x="2403.4821" y="1209.8479">:ShowProposalRepositoryInterface</text><rect fill="#E3E3E3" height="52.1358" rx="2.5" ry="2.5" style="stroke:#181818;stroke-width:0.5;" width="121.7716" x="2647.8832" y="71"/><text fill="#000000" font-family="sans-serif" font-size="14" lengthAdjust="spacing" textLength="101.5696" x="2657.9842" y="92.9659">factoryProvider</text><text fill="#000000" font-family="sans-serif" font-size="14" lengthAdjust="spacing" textLength="107.7716" x="2654.8832" y="112.0339">:FactoryProvider</text><rect fill="#E3E3E3" height="52.1358" rx="2.5" ry="2.5" style="stroke:#181818;stroke-width:0.5;" width="121.7716" x="2647.8832" y="1168.8141"/><text fill="#000000" font-family="sans-serif" font-size="14" lengthAdjust="spacing" textLength="101.5696" x="2657.9842" y="1190.78">factoryProvider</text><text fill="#000000" font-family="sans-serif" font-size="14" lengthAdjust="spacing" textLength="107.7716" x="2654.8832" y="1209.8479">:FactoryProvider</text><rect fill="#E3E3E3" height="52.1358" rx="2.5" ry="2.5" style="stroke:#181818;stroke-width:0.5;" width="219.2392" x="2779.6548" y="71"/><text fill="#000000" font-family="sans-serif" font-size="14" lengthAdjust="spacing" textLength="200.5073" x="2789.0208" y="92.9659">showProposalFactoryInterface</text><text fill="#000000" font-family="sans-serif" font-size="14" lengthAdjust="spacing" textLength="205.2392" x="2786.6548" y="112.0339">:ShowProposalFactoryInterface</text><rect fill="#E3E3E3" height="52.1358" rx="2.5" ry="2.5" style="stroke:#181818;stroke-width:0.5;" width="219.2392" x="2779.6548" y="1168.8141"/><text fill="#000000" font-family="sans-serif" font-size="14" lengthAdjust="spacing" textLength="200.5073" x="2789.0208" y="1190.78">showProposalFactoryInterface</text><text fill="#000000" font-family="sans-serif" font-size="14" lengthAdjust="spacing" textLength="205.2392" x="2786.6548" y="1209.8479">:ShowProposalFactoryInterface</text><rect fill="#E3E3E3" height="52.1358" rx="2.5" ry="2.5" style="stroke:#181818;stroke-width:0.5;" width="111.5376" x="3008.8941" y="71"/><text fill="#000000" font-family="sans-serif" font-size="14" lengthAdjust="spacing" textLength="92.8057" x="3018.2601" y="92.9659">showProposal</text><text fill="#000000" font-family="sans-serif" font-size="14" lengthAdjust="spacing" textLength="97.5376" x="3015.8941" y="112.0339">:ShowProposal</text><rect fill="#E3E3E3" height="52.1358" rx="2.5" ry="2.5" style="stroke:#181818;stroke-width:0.5;" width="111.5376" x="3008.8941" y="1168.8141"/><text fill="#000000" font-family="sans-serif" font-size="14" lengthAdjust="spacing" textLength="92.8057" x="3018.2601" y="1190.78">showProposal</text><text fill="#000000" font-family="sans-serif" font-size="14" lengthAdjust="spacing" textLength="97.5376" x="3015.8941" y="1209.8479">:ShowProposal</text><rect fill="#E3E3E3" height="52.1358" rx="2.5" ry="2.5" style="stroke:#181818;stroke-width:0.5;" width="58.7578" x="3130.4317" y="71"/><text fill="#000000" font-family="sans-serif" font-size="14" lengthAdjust="spacing" textLength="40.0259" x="3139.7977" y="92.9659">status</text><text fill="#000000" font-family="sans-serif" font-size="14" lengthAdjust="spacing" textLength="44.7578" x="3137.4317" y="112.0339">:Status</text><rect fill="#E3E3E3" height="52.1358" rx="2.5" ry="2.5" style="stroke:#181818;stroke-width:0.5;" width="58.7578" x="3130.4317" y="1168.8141"/><text fill="#000000" font-family="sans-serif" font-size="14" lengthAdjust="spacing" textLength="40.0259" x="3139.7977" y="1190.78">status</text><text fill="#000000" font-family="sans-serif" font-size="14" lengthAdjust="spacing" textLength="44.7578" x="3137.4317" y="1209.8479">:Status</text><rect fill="#E3E3E3" height="52.1358" rx="2.5" ry="2.5" style="stroke:#181818;stroke-width:0.5;" width="115.1496" x="3199.1896" y="71"/><text fill="#000000" font-family="sans-serif" font-size="14" lengthAdjust="spacing" textLength="93.6736" x="3209.9275" y="92.9659">localDateTime</text><text fill="#000000" font-family="sans-serif" font-size="14" lengthAdjust="spacing" textLength="101.1496" x="3206.1896" y="112.0339">:LocalDateTime</text><rect fill="#E3E3E3" height="52.1358" rx="2.5" ry="2.5" style="stroke:#181818;stroke-width:0.5;" width="115.1496" x="3199.1896" y="1168.8141"/><text fill="#000000" font-family="sans-serif" font-size="14" lengthAdjust="spacing" textLength="93.6736" x="3209.9275" y="1190.78">localDateTime</text><text fill="#000000" font-family="sans-serif" font-size="14" lengthAdjust="spacing" textLength="101.1496" x="3206.1896" y="1209.8479">:LocalDateTime</text><rect fill="#E3E3E3" height="52.1358" rx="2.5" ry="2.5" style="stroke:#181818;stroke-width:0.5;" width="223.9712" x="3324.3392" y="71"/><text fill="#000000" font-family="sans-serif" font-size="14" lengthAdjust="spacing" textLength="205.2392" x="3333.7051" y="92.9659">showProposalValidationService</text><text fill="#000000" font-family="sans-serif" font-size="14" lengthAdjust="spacing" textLength="209.9712" x="3331.3392" y="112.0339">:ShowProposalValidationService</text><rect fill="#E3E3E3" height="52.1358" rx="2.5" ry="2.5" style="stroke:#181818;stroke-width:0.5;" width="223.9712" x="3324.3392" y="1168.8141"/><text fill="#000000" font-family="sans-serif" font-size="14" lengthAdjust="spacing" textLength="205.2392" x="3333.7051" y="1190.78">showProposalValidationService</text><text fill="#000000" font-family="sans-serif" font-size="14" lengthAdjust="spacing" textLength="209.9712" x="3331.3392" y="1209.8479">:ShowProposalValidationService</text><rect fill="#FFFFFF" height="1025.6782" style="stroke:#181818;stroke-width:1.0;" width="10" x="86.1558" y="134.1358"/><rect fill="#FFFFFF" height="392.5579" style="stroke:#181818;stroke-width:1.0;" width="10" x="903.4982" y="157.8419"/><rect fill="#FFFFFF" height="562.7083" style="stroke:#181818;stroke-width:1.0;" width="10" x="903.4982" y="582.1058"/><rect fill="#FFFFFF" height="285.0779" style="stroke:#181818;stroke-width:1.0;" width="10" x="1675.8476" y="233.6158"/><rect fill="#FFFFFF" height="499.2963" style="stroke:#181818;stroke-width:1.0;" width="10" x="1675.8476" y="613.8118"/><rect fill="#FFFFFF" height="158.5301" style="stroke:#181818;stroke-width:1.0;" width="10" x="1869.2329" y="328.4576"/><rect fill="#FFFFFF" height="31.706" style="stroke:#181818;stroke-width:1.0;" width="10" x="2090.1041" y="360.1637"/><rect fill="#FFFFFF" height="31.706" style="stroke:#181818;stroke-width:1.0;" width="10" x="2090.1041" y="1017.99"/><rect fill="#FFFFFF" height="31.706" style="stroke:#181818;stroke-width:1.0;" width="10" x="2276.7764" y="423.5757"/><rect fill="#FFFFFF" height="31.706" style="stroke:#181818;stroke-width:1.0;" width="10" x="2703.769" y="827.7539"/><rect fill="#FFFFFF" height="31.706" style="stroke:#181818;stroke-width:1.0;" width="10" x="2884.2745" y="891.1659"/><rect fill="#FFFFFF" height="31.706" style="stroke:#181818;stroke-width:1.0;" width="10" x="3154.8106" y="954.578"/><rect fill="#FFFFFF" height="31.706" style="stroke:#181818;stroke-width:1.0;" width="10" x="3431.3248" y="672.2238"/><polygon fill="#181818" points="891.4982,153.8419,901.4982,157.8419,891.4982,161.8419,895.4982,157.8419" style="stroke:#181818;stroke-width:1.0;"/><line style="stroke:#181818;stroke-width:1.0;" x1="96.1558" x2="897.4982" y1="157.8419" y2="157.8419"/><text fill="#000000" font-family="sans-serif" font-size="13" font-weight="bold" lengthAdjust="spacing" textLength="7.436" x="103.1558" y="152.0328">1</text><text fill="#000000" font-family="sans-serif" font-size="13" lengthAdjust="spacing" textLength="200.8501" x="114.5918" y="152.0328">ask to create new Show Proposal</text><polygon fill="#181818" points="1558.3249,185.5479,1568.3249,189.5479,1558.3249,193.5479,1562.3249,189.5479" style="stroke:#181818;stroke-width:1.0;"/><line style="stroke:#181818;stroke-width:1.0;" x1="913.4982" x2="1564.3249" y1="189.5479" y2="189.5479"/><text fill="#000000" font-family="sans-serif" font-size="13" font-weight="bold" lengthAdjust="spacing" textLength="7.436" x="920.4982" y="183.7389">2</text><text fill="#000000" font-family="sans-serif" font-size="13" lengthAdjust="spacing" textLength="38.259" x="931.9342" y="183.7389">create</text><rect fill="#E3E3E3" height="33.0679" rx="2.5" ry="2.5" style="stroke:#181818;stroke-width:0.5;" width="221.0452" x="1570.3249" y="165.8419"/><text fill="#000000" font-family="sans-serif" font-size="14" lengthAdjust="spacing" textLength="207.0452" x="1577.3249" y="187.8078">:CreateShowProposalController</text><polygon fill="#181818" points="1663.8476,229.6158,1673.8476,233.6158,1663.8476,237.6158,1667.8476,233.6158" style="stroke:#181818;stroke-width:1.0;"/><line style="stroke:#181818;stroke-width:1.0;" x1="913.4982" x2="1669.8476" y1="233.6158" y2="233.6158"/><text fill="#000000" font-family="sans-serif" font-size="13" font-weight="bold" lengthAdjust="spacing" textLength="7.436" x="920.4982" y="227.8068">3</text><text fill="#000000" font-family="sans-serif" font-size="13" lengthAdjust="spacing" textLength="106.2881" x="931.9342" y="227.8068">getTemplateList()</text><polygon fill="#181818" points="1789.3702,261.3218,1799.3702,265.3218,1789.3702,269.3218,1793.3702,265.3218" style="stroke:#181818;stroke-width:1.0;"/><line style="stroke:#181818;stroke-width:1.0;" x1="1685.8476" x2="1795.3702" y1="265.3218" y2="265.3218"/><text fill="#000000" font-family="sans-serif" font-size="13" font-weight="bold" lengthAdjust="spacing" textLength="7.436" x="1692.8476" y="259.5128">4</text><text fill="#000000" font-family="sans-serif" font-size="13" lengthAdjust="spacing" textLength="38.259" x="1704.2836" y="259.5128">create</text><rect fill="#E3E3E3" height="52.1358" rx="2.5" ry="2.5" style="stroke:#181818;stroke-width:0.5;" width="145.7255" x="1801.3702" y="241.6158"/><text fill="#000000" font-family="sans-serif" font-size="14" lengthAdjust="spacing" textLength="125.2435" x="1811.6112" y="263.5817">templateController</text><text fill="#000000" font-family="sans-serif" font-size="14" lengthAdjust="spacing" textLength="131.7255" x="1808.3702" y="282.6496">:TemplateController</text><polygon fill="#181818" points="1857.2329,324.4576,1867.2329,328.4576,1857.2329,332.4576,1861.2329,328.4576" style="stroke:#181818;stroke-width:1.0;"/><line style="stroke:#181818;stroke-width:1.0;" x1="1685.8476" x2="1863.2329" y1="328.4576" y2="328.4576"/><text fill="#000000" font-family="sans-serif" font-size="13" font-weight="bold" lengthAdjust="spacing" textLength="7.436" x="1692.8476" y="322.6486">5</text><text fill="#000000" font-family="sans-serif" font-size="13" lengthAdjust="spacing" textLength="91.4291" x="1704.2836" y="322.6486">getTemplates()</text><polygon fill="#181818" points="2078.1041,356.1637,2088.1041,360.1637,2078.1041,364.1637,2082.1041,360.1637" style="stroke:#181818;stroke-width:1.0;"/><line style="stroke:#181818;stroke-width:1.0;" x1="1879.2329" x2="2084.1041" y1="360.1637" y2="360.1637"/><text fill="#000000" font-family="sans-serif" font-size="13" font-weight="bold" lengthAdjust="spacing" textLength="7.436" x="1886.2329" y="354.3546">6</text><text fill="#000000" font-family="sans-serif" font-size="13" lengthAdjust="spacing" textLength="150.6181" x="1897.6689" y="354.3546">getTemplateRepository()</text><polygon fill="#181818" points="1890.2329,387.8697,1880.2329,391.8697,1890.2329,395.8697,1886.2329,391.8697" style="stroke:#181818;stroke-width:1.0;"/><line style="stroke:#181818;stroke-width:1.0;stroke-dasharray:2.0,2.0;" x1="1884.2329" x2="2094.1041" y1="391.8697" y2="391.8697"/><text fill="#000000" font-family="sans-serif" font-size="13" font-weight="bold" lengthAdjust="spacing" textLength="7.436" x="1896.2329" y="386.0607">7</text><text fill="#000000" font-family="sans-serif" font-size="13" lengthAdjust="spacing" textLength="175.4351" x="1907.6689" y="386.0607">templateRepositoryInterface</text><polygon fill="#181818" points="2264.7764,419.5757,2274.7764,423.5757,2264.7764,427.5757,2268.7764,423.5757" style="stroke:#181818;stroke-width:1.0;"/><line style="stroke:#181818;stroke-width:1.0;" x1="1879.2329" x2="2270.7764" y1="423.5757" y2="423.5757"/><text fill="#000000" font-family="sans-serif" font-size="13" font-weight="bold" lengthAdjust="spacing" textLength="7.436" x="1886.2329" y="417.7667">8</text><text fill="#000000" font-family="sans-serif" font-size="13" lengthAdjust="spacing" textLength="89.0371" x="1897.6689" y="417.7667">listTemplates()</text><polygon fill="#181818" points="1890.2329,451.2817,1880.2329,455.2817,1890.2329,459.2817,1886.2329,455.2817" style="stroke:#181818;stroke-width:1.0;"/><line style="stroke:#181818;stroke-width:1.0;stroke-dasharray:2.0,2.0;" x1="1884.2329" x2="2280.7764" y1="455.2817" y2="455.2817"/><text fill="#000000" font-family="sans-serif" font-size="13" font-weight="bold" lengthAdjust="spacing" textLength="7.436" x="1896.2329" y="449.4727">9</text><text fill="#000000" font-family="sans-serif" font-size="13" lengthAdjust="spacing" textLength="95.8621" x="1907.6689" y="449.4727">listOfTemplates</text><polygon fill="#181818" points="1696.8476,482.9877,1686.8476,486.9877,1696.8476,490.9877,1692.8476,486.9877" style="stroke:#181818;stroke-width:1.0;"/><line style="stroke:#181818;stroke-width:1.0;stroke-dasharray:2.0,2.0;" x1="1690.8476" x2="1873.2329" y1="486.9877" y2="486.9877"/><text fill="#000000" font-family="sans-serif" font-size="13" font-weight="bold" lengthAdjust="spacing" textLength="14.872" x="1702.8476" y="481.1787">10</text><text fill="#000000" font-family="sans-serif" font-size="13" lengthAdjust="spacing" textLength="95.8621" x="1721.7196" y="481.1787">listOfTemplates</text><polygon fill="#181818" points="924.4982,514.6937,914.4982,518.6937,924.4982,522.6937,920.4982,518.6937" style="stroke:#181818;stroke-width:1.0;"/><line style="stroke:#181818;stroke-width:1.0;stroke-dasharray:2.0,2.0;" x1="918.4982" x2="1679.8476" y1="518.6937" y2="518.6937"/><text fill="#000000" font-family="sans-serif" font-size="13" font-weight="bold" lengthAdjust="spacing" textLength="14.872" x="930.4982" y="512.8847">11</text><text fill="#000000" font-family="sans-serif" font-size="13" lengthAdjust="spacing" textLength="95.8621" x="949.3702" y="512.8847">listOfTemplates</text><polygon fill="#181818" points="107.1558,546.3997,97.1558,550.3997,107.1558,554.3997,103.1558,550.3997" style="stroke:#181818;stroke-width:1.0;"/><line style="stroke:#181818;stroke-width:1.0;stroke-dasharray:2.0,2.0;" x1="101.1558" x2="907.4982" y1="550.3997" y2="550.3997"/><text fill="#000000" font-family="sans-serif" font-size="13" font-weight="bold" lengthAdjust="spacing" textLength="14.872" x="113.1558" y="544.5907">12</text><text fill="#000000" font-family="sans-serif" font-size="13" lengthAdjust="spacing" textLength="154.0501" x="132.0278" y="544.5907">show available templates</text><polygon fill="#181818" points="891.4982,578.1058,901.4982,582.1058,891.4982,586.1058,895.4982,582.1058" style="stroke:#181818;stroke-width:1.0;"/><line style="stroke:#181818;stroke-width:1.0;" x1="96.1558" x2="897.4982" y1="582.1058" y2="582.1058"/><text fill="#000000" font-family="sans-serif" font-size="13" font-weight="bold" lengthAdjust="spacing" textLength="14.872" x="103.1558" y="576.2968">13</text><text fill="#000000" font-family="sans-serif" font-size="13" lengthAdjust="spacing" textLength="769.4704" x="122.0278" y="576.2968">submit Show Proposal data (showRequestId, templateId, numberOfDrones, showDate, duration, location, description, figures)</text><polygon fill="#181818" points="1663.8476,609.8118,1673.8476,613.8118,1663.8476,617.8118,1667.8476,613.8118" style="stroke:#181818;stroke-width:1.0;"/><line style="stroke:#181818;stroke-width:1.0;" x1="913.4982" x2="1669.8476" y1="613.8118" y2="613.8118"/><text fill="#000000" font-family="sans-serif" font-size="13" font-weight="bold" lengthAdjust="spacing" textLength="14.872" x="920.4982" y="608.0028">14</text><text fill="#000000" font-family="sans-serif" font-size="13" lengthAdjust="spacing" textLength="724.4774" x="939.3702" y="608.0028">createShowProposal(showRequestId, templateId, numberOfDrones, showDate, duration, location, description, figures)</text><polygon fill="#181818" points="3419.3248,668.2238,3429.3248,672.2238,3419.3248,676.2238,3423.3248,672.2238" style="stroke:#181818;stroke-width:1.0;"/><line style="stroke:#181818;stroke-width:1.0;" x1="1685.8476" x2="3425.3248" y1="672.2238" y2="672.2238"/><text fill="#000000" font-family="sans-serif" font-size="13" font-weight="bold" lengthAdjust="spacing" textLength="14.872" x="1692.8476" y="666.4148">15</text><text fill="#000000" font-family="sans-serif" font-size="13" lengthAdjust="spacing" textLength="433.0303" x="1711.7196" y="666.4148">validateInput(showRequestId, numberOfDrones, figures, showDate, ...)</text><polygon fill="#181818" points="1696.8476,699.9298,1686.8476,703.9298,1696.8476,707.9298,1692.8476,703.9298" style="stroke:#181818;stroke-width:1.0;"/><line style="stroke:#181818;stroke-width:1.0;stroke-dasharray:2.0,2.0;" x1="1690.8476" x2="3435.3248" y1="703.9298" y2="703.9298"/><text fill="#000000" font-family="sans-serif" font-size="13" font-weight="bold" lengthAdjust="spacing" textLength="14.872" x="1702.8476" y="698.1208">16</text><text fill="#000000" font-family="sans-serif" font-size="13" lengthAdjust="spacing" textLength="97.5651" x="1721.7196" y="698.1208">validationResult</text><path d="M20,718.9298 L82.459,718.9298 L82.459,728.6358 L72.459,738.6358 L20,738.6358 L20,718.9298 " fill="#EEEEEE" style="stroke:#000000;stroke-width:1.5;"/><rect fill="none" height="433.8842" style="stroke:#000000;stroke-width:1.5;" width="3179.1896" x="20" y="718.9298"/><text fill="#000000" font-family="sans-serif" font-size="13" font-weight="bold" lengthAdjust="spacing" textLength="17.459" x="35" y="733.8268">alt</text><text fill="#000000" font-family="sans-serif" font-size="11" font-weight="bold" lengthAdjust="spacing" textLength="143.021" x="97.459" y="732.6887">[validationResult = errors]</text><polygon fill="#181818" points="924.4982,758.3419,914.4982,762.3419,924.4982,766.3419,920.4982,762.3419" style="stroke:#181818;stroke-width:1.0;"/><line style="stroke:#181818;stroke-width:1.0;stroke-dasharray:2.0,2.0;" x1="918.4982" x2="1674.8476" y1="762.3419" y2="762.3419"/><text fill="#000000" font-family="sans-serif" font-size="13" font-weight="bold" lengthAdjust="spacing" textLength="14.872" x="930.4982" y="756.5329">17</text><text fill="#000000" font-family="sans-serif" font-size="13" lengthAdjust="spacing" textLength="238.7192" x="949.3702" y="756.5329">Error: Invalid or missing required fields</text><polygon fill="#181818" points="107.1558,790.0479,97.1558,794.0479,107.1558,798.0479,103.1558,794.0479" style="stroke:#181818;stroke-width:1.0;"/><line style="stroke:#181818;stroke-width:1.0;stroke-dasharray:2.0,2.0;" x1="101.1558" x2="902.4982" y1="794.0479" y2="794.0479"/><text fill="#000000" font-family="sans-serif" font-size="13" font-weight="bold" lengthAdjust="spacing" textLength="14.872" x="113.1558" y="788.2389">18</text><text fill="#000000" font-family="sans-serif" font-size="13" lengthAdjust="spacing" textLength="124.9691" x="132.0278" y="788.2389">show error message</text><line style="stroke:#000000;stroke-width:1.0;stroke-dasharray:2.0,2.0;" x1="20" x2="3199.1896" y1="803.0479" y2="803.0479"/><polygon fill="#181818" points="2691.769,823.7539,2701.769,827.7539,2691.769,831.7539,2695.769,827.7539" style="stroke:#181818;stroke-width:1.0;"/><line style="stroke:#181818;stroke-width:1.0;" x1="1685.8476" x2="2697.769" y1="827.7539" y2="827.7539"/><text fill="#000000" font-family="sans-serif" font-size="13" font-weight="bold" lengthAdjust="spacing" textLength="14.872" x="1692.8476" y="821.9449">19</text><text fill="#000000" font-family="sans-serif" font-size="13" lengthAdjust="spacing" textLength="159.7441" x="1711.7196" y="821.9449">getShowProposalFactory()</text><polygon fill="#181818" points="1696.8476,855.4599,1686.8476,859.4599,1696.8476,863.4599,1692.8476,859.4599" style="stroke:#181818;stroke-width:1.0;"/><line style="stroke:#181818;stroke-width:1.0;stroke-dasharray:2.0,2.0;" x1="1690.8476" x2="2707.769" y1="859.4599" y2="859.4599"/><text fill="#000000" font-family="sans-serif" font-size="13" font-weight="bold" lengthAdjust="spacing" textLength="14.872" x="1702.8476" y="853.6509">20</text><text fill="#000000" font-family="sans-serif" font-size="13" lengthAdjust="spacing" textLength="186.1861" x="1721.7196" y="853.6509">showProposalFactoryInterface</text><polygon fill="#181818" points="2872.2745,887.1659,2882.2745,891.1659,2872.2745,895.1659,2876.2745,891.1659" style="stroke:#181818;stroke-width:1.0;"/><line style="stroke:#181818;stroke-width:1.0;" x1="1685.8476" x2="2878.2745" y1="891.1659" y2="891.1659"/><text fill="#000000" font-family="sans-serif" font-size="13" font-weight="bold" lengthAdjust="spacing" textLength="14.872" x="1692.8476" y="885.3569">21</text><text fill="#000000" font-family="sans-serif" font-size="13" lengthAdjust="spacing" textLength="220.2332" x="1711.7196" y="885.3569">createShowProposal(ShowProposal)</text><polygon fill="#181818" points="1696.8476,918.8719,1686.8476,922.8719,1696.8476,926.8719,1692.8476,922.8719" style="stroke:#181818;stroke-width:1.0;"/><line style="stroke:#181818;stroke-width:1.0;stroke-dasharray:2.0,2.0;" x1="1690.8476" x2="2888.2745" y1="922.8719" y2="922.8719"/><text fill="#000000" font-family="sans-serif" font-size="13" font-weight="bold" lengthAdjust="spacing" textLength="14.872" x="1702.8476" y="917.0629">22</text><text fill="#000000" font-family="sans-serif" font-size="13" lengthAdjust="spacing" textLength="125.9441" x="1721.7196" y="917.0629">showProposalObject</text><polygon fill="#181818" points="3142.8106,950.578,3152.8106,954.578,3142.8106,958.578,3146.8106,954.578" style="stroke:#181818;stroke-width:1.0;"/><line style="stroke:#181818;stroke-width:1.0;" x1="1685.8476" x2="3148.8106" y1="954.578" y2="954.578"/><text fill="#000000" font-family="sans-serif" font-size="13" font-weight="bold" lengthAdjust="spacing" textLength="14.872" x="1692.8476" y="948.769">23</text><text fill="#000000" font-family="sans-serif" font-size="13" lengthAdjust="spacing" textLength="200.7592" x="1711.7196" y="948.769">addStatus("Created", timestamp)</text><polygon fill="#181818" points="1696.8476,982.284,1686.8476,986.284,1696.8476,990.284,1692.8476,986.284" style="stroke:#181818;stroke-width:1.0;"/><line style="stroke:#181818;stroke-width:1.0;stroke-dasharray:2.0,2.0;" x1="1690.8476" x2="3158.8106" y1="986.284" y2="986.284"/><text fill="#000000" font-family="sans-serif" font-size="13" font-weight="bold" lengthAdjust="spacing" textLength="14.872" x="1702.8476" y="980.475">24</text><text fill="#000000" font-family="sans-serif" font-size="13" lengthAdjust="spacing" textLength="76.7911" x="1721.7196" y="980.475">statusAdded</text><polygon fill="#181818" points="2078.1041,1013.99,2088.1041,1017.99,2078.1041,1021.99,2082.1041,1017.99" style="stroke:#181818;stroke-width:1.0;"/><line style="stroke:#181818;stroke-width:1.0;" x1="1685.8476" x2="2084.1041" y1="1017.99" y2="1017.99"/><text fill="#000000" font-family="sans-serif" font-size="13" font-weight="bold" lengthAdjust="spacing" textLength="14.872" x="1692.8476" y="1012.181">25</text><text fill="#000000" font-family="sans-serif" font-size="13" lengthAdjust="spacing" textLength="180.3232" x="1711.7196" y="1012.181">getShowProposalRepository()</text><polygon fill="#181818" points="1696.8476,1045.696,1686.8476,1049.696,1696.8476,1053.696,1692.8476,1049.696" style="stroke:#181818;stroke-width:1.0;"/><line style="stroke:#181818;stroke-width:1.0;stroke-dasharray:2.0,2.0;" x1="1690.8476" x2="2094.1041" y1="1049.696" y2="1049.696"/><text fill="#000000" font-family="sans-serif" font-size="13" font-weight="bold" lengthAdjust="spacing" textLength="14.872" x="1702.8476" y="1043.887">26</text><text fill="#000000" font-family="sans-serif" font-size="13" lengthAdjust="spacing" textLength="206.7652" x="1721.7196" y="1043.887">showProposalRepositoryInterface</text><polygon fill="#181818" points="2505.1826,1077.402,2515.1826,1081.402,2505.1826,1085.402,2509.1826,1081.402" style="stroke:#181818;stroke-width:1.0;"/><line style="stroke:#181818;stroke-width:1.0;" x1="1685.8476" x2="2511.1826" y1="1081.402" y2="1081.402"/><text fill="#000000" font-family="sans-serif" font-size="13" font-weight="bold" lengthAdjust="spacing" textLength="14.872" x="1692.8476" y="1075.593">27</text><text fill="#000000" font-family="sans-serif" font-size="13" lengthAdjust="spacing" textLength="157.0271" x="1711.7196" y="1075.593">add(showProposalObject)</text><polygon fill="#181818" points="924.4982,1109.108,914.4982,1113.108,924.4982,1117.108,920.4982,1113.108" style="stroke:#181818;stroke-width:1.0;"/><line style="stroke:#181818;stroke-width:1.0;stroke-dasharray:2.0,2.0;" x1="918.4982" x2="1679.8476" y1="1113.108" y2="1113.108"/><text fill="#000000" font-family="sans-serif" font-size="13" font-weight="bold" lengthAdjust="spacing" textLength="14.872" x="930.4982" y="1107.299">28</text><text fill="#000000" font-family="sans-serif" font-size="13" lengthAdjust="spacing" textLength="125.9441" x="949.3702" y="1107.299">showProposalObject</text><polygon fill="#181818" points="107.1558,1140.8141,97.1558,1144.8141,107.1558,1148.8141,103.1558,1144.8141" style="stroke:#181818;stroke-width:1.0;"/><line style="stroke:#181818;stroke-width:1.0;stroke-dasharray:2.0,2.0;" x1="101.1558" x2="907.4982" y1="1144.8141" y2="1144.8141"/><text fill="#000000" font-family="sans-serif" font-size="13" font-weight="bold" lengthAdjust="spacing" textLength="14.872" x="113.1558" y="1139.0051">29</text><text fill="#000000" font-family="sans-serif" font-size="13" lengthAdjust="spacing" textLength="215.8522" x="132.0278" y="1139.0051">Show Proposal created successfully</text><!--SRC=[lLR1RXiX4Btp5SWdEtAYLhrPQgNARYLBgLBPSK-zu6NiqB3B5bX7-ViEuFK2k-laL9_MCE_n6EOnc6THrKopafQgKiMJLYLGgniWvZ9Ji-AP7M5hNoLG3OLbrL760UQ9SVKYgYCzC6c042iiXkxMT0j_6wWAe2l1ZYvqkjskPlIMBZKm2tJxf5xeJwrgPPYaqztsqySFCq9OOrNLb7lG-5rOfUbakVb1bqfAjbUQuSY4CaCBNRenWZAiA4JDAaidYy3jg5lctTg7xzPlHYvLPJLIGbXW-RYvJp4MobeYg0lyNIqUUuCUVOcrEjEe0LSJk8rNNFWak6VPz0OzYujj1uQrTC1rPK4VM06Hg87PH9sRnvcKsaGv6QRVNe_mI-GilMKE_dJZ97nFHpnD5ZMkz0mUavbFn-JZf1b9RsCPqZBR68Vn7o7QVwPnKXLChZ3zZw9qEk_Z_nxb8zo_SMc_c1ISMQ6gBUYJw6suD- -9J_ceyvWuEJ-sXYBd3thxnTbuWR1dQXNEUzjMy99QjsD0Zn548CvvXzxS83YWuk45FO9j2_HU63kTTHJUTCJ7ONnieeHkC20XDZ5hOaQIW90aDbbAqjLsp9QOaYJesxwcAqOb74P8SucPNv5MOkAkxhNr7Ccn0neTsSFXGXVh6gKBqhf3VGU7JtyukhQshg12ARZ2mU2s9XVUVfITcC1s83lk1EeACQzYq-nBOREkWrPWTEeeDwvR6Rlcymkb-mwTwE6mqge2C_UhEwVEAM-qzz7ScpLySJ255dNuSn37HeEPZVgZhUROjVzDIyWkavPs5mNUXq82x_pNkorGytaCrbNTs5nkBl6yRgprxkukaj6_ZqX_qQZAkiaDc4RQ-DG7kDp-SWZzJ45hfGsX-4lByPkRMD1rvK4K7n-bCCQzRZHkKcZWk2MGF627QzEJqnACmOSJ0VyewbRwadUqSECCj2eqjODTjfTtGZ-RaqMfkjOSFJPAtI1t9dYuNkC_mu8JeMC27_P_y74v8YkL4pggwqkSXqOxdOJ779-WOR1fOaHPPsBEVTWFdXbYANxaA-TO_Pc66DXAw7UCuHTHVeJf9U-cUjrZ83T3dICJsIU-PAl_30kfc_RJFoFlE83BVVhcwOKhPj0ewIqSoehZ5LqKQ9j38-LhJePt9rGyjdlxNla7]--></g></svg>