<svg xmlns="http://www.w3.org/2000/svg" xmlns:xlink="http://www.w3.org/1999/xlink" contentStyleType="text/css" height="503px" preserveAspectRatio="none" style="width:692px;height:503px;background:#FFFFFF;" version="1.1" viewBox="0 0 692 503" width="692px" zoomAndPan="magnify"><title>System Sequence Diagram (SSD) - US317 - Mark Show Proposal as Accepted</title><defs/><g><text fill="#000000" font-family="sans-serif" font-size="14" font-weight="bold" lengthAdjust="spacing" textLength="513.502" x="90.7134" y="30.1074">System Sequence Diagram (SSD) - US317 - Mark Show Proposal as Accepted</text><rect fill="#FFFFFF" height="276.668" style="stroke:#181818;stroke-width:1.0;" width="10" x="74.0171" y="133.2422"/><rect fill="#FFFFFF" height="253.377" style="stroke:#181818;stroke-width:1.0;" width="10" x="332.979" y="156.5332"/><rect fill="none" height="187.0859" style="stroke:#000000;stroke-width:1.5;" width="675.9287" x="10" y="215.8242"/><line style="stroke:#181818;stroke-width:0.5;stroke-dasharray:5.0,5.0;" x1="79" x2="79" y1="123.2422" y2="419.9102"/><line style="stroke:#181818;stroke-width:0.5;stroke-dasharray:5.0,5.0;" x1="337.6963" x2="337.6963" y1="123.2422" y2="419.9102"/><text fill="#000000" font-family="sans-serif" font-size="14" lengthAdjust="spacing" textLength="112.0342" x="20" y="119.7285">CRM Collaborator</text><ellipse cx="79.0171" cy="53.1211" fill="#E3E3E3" rx="8" ry="8" style="stroke:#181818;stroke-width:0.5;"/><path d="M79.0171,61.1211 L79.0171,88.1211 M66.0171,69.1211 L92.0171,69.1211 M79.0171,88.1211 L66.0171,103.1211 M79.0171,88.1211 L92.0171,103.1211 " fill="none" style="stroke:#181818;stroke-width:0.5;"/><text fill="#000000" font-family="sans-serif" font-size="14" lengthAdjust="spacing" textLength="112.0342" x="20" y="434.0176">CRM Collaborator</text><ellipse cx="79.0171" cy="446.0313" fill="#E3E3E3" rx="8" ry="8" style="stroke:#181818;stroke-width:0.5;"/><path d="M79.0171,454.0313 L79.0171,481.0313 M66.0171,462.0313 L92.0171,462.0313 M79.0171,481.0313 L66.0171,496.0313 M79.0171,481.0313 L92.0171,496.0313 " fill="none" style="stroke:#181818;stroke-width:0.5;"/><rect fill="#E3E3E3" height="32.6211" rx="2.5" ry="2.5" style="stroke:#181818;stroke-width:0.5;" width="64.5654" x="305.6963" y="89.6211"/><text fill="#000000" font-family="sans-serif" font-size="14" lengthAdjust="spacing" textLength="50.5654" x="312.6963" y="111.7285">:System</text><rect fill="#E3E3E3" height="32.6211" rx="2.5" ry="2.5" style="stroke:#181818;stroke-width:0.5;" width="64.5654" x="305.6963" y="418.9102"/><text fill="#000000" font-family="sans-serif" font-size="14" lengthAdjust="spacing" textLength="50.5654" x="312.6963" y="441.0176">:System</text><rect fill="#FFFFFF" height="276.668" style="stroke:#181818;stroke-width:1.0;" width="10" x="74.0171" y="133.2422"/><rect fill="#FFFFFF" height="253.377" style="stroke:#181818;stroke-width:1.0;" width="10" x="332.979" y="156.5332"/><polygon fill="#181818" points="320.979,152.5332,330.979,156.5332,320.979,160.5332,324.979,156.5332" style="stroke:#181818;stroke-width:1.0;"/><line style="stroke:#181818;stroke-width:1.0;" x1="84.0171" x2="326.979" y1="156.5332" y2="156.5332"/><text fill="#000000" font-family="sans-serif" font-size="13" font-weight="bold" lengthAdjust="spacing" textLength="7.23" x="91.0171" y="151.2705">1</text><text fill="#000000" font-family="sans-serif" font-size="13" lengthAdjust="spacing" textLength="208.0952" x="102.2471" y="151.2705">markProposalAsAccepted(proposal)</text><line style="stroke:#181818;stroke-width:1.0;" x1="342.979" x2="384.979" y1="187.8242" y2="187.8242"/><line style="stroke:#181818;stroke-width:1.0;" x1="384.979" x2="384.979" y1="187.8242" y2="200.8242"/><line style="stroke:#181818;stroke-width:1.0;" x1="343.979" x2="384.979" y1="200.8242" y2="200.8242"/><polygon fill="#181818" points="353.979,196.8242,343.979,200.8242,353.979,204.8242,349.979,200.8242" style="stroke:#181818;stroke-width:1.0;"/><text fill="#000000" font-family="sans-serif" font-size="13" font-weight="bold" lengthAdjust="spacing" textLength="7.23" x="349.979" y="182.5615">2</text><text fill="#000000" font-family="sans-serif" font-size="13" lengthAdjust="spacing" textLength="192.2134" x="361.209" y="182.5615">wasShowProposalSent(proposal)</text><path d="M10,215.8242 L70.1709,215.8242 L70.1709,225.1152 L60.1709,235.1152 L10,235.1152 L10,215.8242 " fill="#EEEEEE" style="stroke:#000000;stroke-width:1.5;"/><rect fill="none" height="187.0859" style="stroke:#000000;stroke-width:1.5;" width="675.9287" x="10" y="215.8242"/><text fill="#000000" font-family="sans-serif" font-size="13" font-weight="bold" lengthAdjust="spacing" textLength="15.1709" x="25" y="230.8525">alt</text><text fill="#000000" font-family="sans-serif" font-size="11" font-weight="bold" lengthAdjust="spacing" textLength="57.4546" x="85.1709" y="229.6943">[is eligible]</text><line style="stroke:#181818;stroke-width:1.0;" x1="342.979" x2="384.979" y1="258.4063" y2="258.4063"/><line style="stroke:#181818;stroke-width:1.0;" x1="384.979" x2="384.979" y1="258.4063" y2="271.4063"/><line style="stroke:#181818;stroke-width:1.0;" x1="343.979" x2="384.979" y1="271.4063" y2="271.4063"/><polygon fill="#181818" points="353.979,267.4063,343.979,271.4063,353.979,275.4063,349.979,271.4063" style="stroke:#181818;stroke-width:1.0;"/><text fill="#000000" font-family="sans-serif" font-size="13" font-weight="bold" lengthAdjust="spacing" textLength="7.23" x="349.979" y="253.1436">3</text><text fill="#000000" font-family="sans-serif" font-size="13" lengthAdjust="spacing" textLength="302.7197" x="361.209" y="253.1436">proposal.setStatus(COLLABORATOR_APPROVED)</text><line style="stroke:#181818;stroke-width:1.0;" x1="342.979" x2="384.979" y1="302.6973" y2="302.6973"/><line style="stroke:#181818;stroke-width:1.0;" x1="384.979" x2="384.979" y1="302.6973" y2="315.6973"/><line style="stroke:#181818;stroke-width:1.0;" x1="343.979" x2="384.979" y1="315.6973" y2="315.6973"/><polygon fill="#181818" points="353.979,311.6973,343.979,315.6973,353.979,319.6973,349.979,315.6973" style="stroke:#181818;stroke-width:1.0;"/><text fill="#000000" font-family="sans-serif" font-size="13" font-weight="bold" lengthAdjust="spacing" textLength="7.23" x="349.979" y="297.4346">4</text><text fill="#000000" font-family="sans-serif" font-size="13" lengthAdjust="spacing" textLength="191.5088" x="361.209" y="297.4346">updateInStoreProposal(proposal)</text><polygon fill="#181818" points="95.0171,342.9883,85.0171,346.9883,95.0171,350.9883,91.0171,346.9883" style="stroke:#181818;stroke-width:1.0;"/><line style="stroke:#181818;stroke-width:1.0;stroke-dasharray:2.0,2.0;" x1="89.0171" x2="331.979" y1="346.9883" y2="346.9883"/><text fill="#000000" font-family="sans-serif" font-size="13" font-weight="bold" lengthAdjust="spacing" textLength="7.23" x="101.0171" y="341.7256">5</text><text fill="#000000" font-family="sans-serif" font-size="13" lengthAdjust="spacing" textLength="126.4263" x="112.2471" y="341.7256">confirmation(success)</text><line style="stroke:#000000;stroke-width:1.0;stroke-dasharray:2.0,2.0;" x1="10" x2="685.9287" y1="355.9883" y2="355.9883"/><text fill="#000000" font-family="sans-serif" font-size="11" font-weight="bold" lengthAdjust="spacing" textLength="65.3823" x="15" y="367.8584">[not eligible]</text><polygon fill="#181818" points="95.0171,390.9102,85.0171,394.9102,95.0171,398.9102,91.0171,394.9102" style="stroke:#181818;stroke-width:1.0;"/><line style="stroke:#181818;stroke-width:1.0;stroke-dasharray:2.0,2.0;" x1="89.0171" x2="331.979" y1="394.9102" y2="394.9102"/><text fill="#000000" font-family="sans-serif" font-size="13" font-weight="bold" lengthAdjust="spacing" textLength="7.23" x="101.0171" y="389.6475">6</text><text fill="#000000" font-family="sans-serif" font-size="13" lengthAdjust="spacing" textLength="213.7319" x="112.2471" y="389.6475">error("Proposal cannot be accepted")</text><!--SRC=[TP51Ru9048Nl-oicdE1WawQ79XwQKEsXYGR3rbwROHrnux9BTuSQ_tqN5IMDvG1azhsFnvkmrxP5ZmqqpZgrywuXOD-H2DUJ5jKUQv9yD0IU5AEjpLWGThXn1srhsA8990HhZb9v34mDIFhko2g2kSQwbwTIpZEOm5e-FJx7vnBz7kJE7M3bNUi26i00kLBKCcs4GCNEGp8hbp1pnc3bFCP9qglMWRo8ALWhtQ9bIARdpvvEpw-HqB6pNLD5RK_JFyXqjlOtcBmCMQVGn313Z3mC8TBsCifk_W5-iOuX1mpz_mmSIPP71866GGSWesjTnIOXNdSeW-CX44j6xa8wAnQB_BKeyu-Y_CfNgxBuV9jd_m6wTXE3lbiPsw8Xp2Z8s1Pzfowce9pTQjyWQsVJqCK6GiW4nSM2TNm_zSrDtZkV9jTDAhIzgoB0IvT9XDcurWtzhN8qwMc_]--></g></svg>