<svg xmlns="http://www.w3.org/2000/svg" xmlns:xlink="http://www.w3.org/1999/xlink" contentStyleType="text/css" height="918px" preserveAspectRatio="none" style="width:773px;height:918px;background:#FFFFFF;" version="1.1" viewBox="0 0 773 918" width="773px" zoomAndPan="magnify"><title>System Sequence Diagram (SSD) - US236 Edit a Show Request</title><defs/><g><text fill="#000000" font-family="sans-serif" font-size="14" font-weight="bold" lengthAdjust="spacing" textLength="423.0504" x="179.8176" y="29.9659">System Sequence Diagram (SSD) - US236 Edit a Show Request</text><rect fill="#FFFFFF" height="682.5902" style="stroke:#181818;stroke-width:1.0;" width="10" x="61.1558" y="134.1358"/><rect fill="#FFFFFF" height="55.412" style="stroke:#181818;stroke-width:1.0;" width="10" x="389.2431" y="134.1358"/><rect fill="#FFFFFF" height="31.706" style="stroke:#181818;stroke-width:1.0;" width="10" x="389.2431" y="221.2539"/><rect fill="#FFFFFF" height="31.706" style="stroke:#181818;stroke-width:1.0;" width="10" x="389.2431" y="284.6659"/><rect fill="#FFFFFF" height="31.706" style="stroke:#181818;stroke-width:1.0;" width="10" x="389.2431" y="348.0779"/><rect fill="#FFFFFF" height="405.2361" style="stroke:#181818;stroke-width:1.0;" width="10" x="389.2431" y="411.49"/><rect fill="#FFFFFF" height="28" style="stroke:#181818;stroke-width:1.0;" width="10" x="394.2431" y="451.196"/><rect fill="#FFFFFF" height="28" style="stroke:#181818;stroke-width:1.0;" width="10" x="394.2431" y="525.902"/><rect fill="#FFFFFF" height="28" style="stroke:#181818;stroke-width:1.0;" width="10" x="394.2431" y="600.608"/><rect fill="#FFFFFF" height="28" style="stroke:#181818;stroke-width:1.0;" width="10" x="394.2431" y="675.314"/><rect fill="#FFFFFF" height="28" style="stroke:#181818;stroke-width:1.0;" width="10" x="394.2431" y="750.0201"/><line style="stroke:#181818;stroke-width:0.5;stroke-dasharray:5.0,5.0;" x1="66" x2="66" y1="124.1358" y2="834.7261"/><line style="stroke:#181818;stroke-width:0.5;stroke-dasharray:5.0,5.0;" x1="393.5812" x2="393.5812" y1="124.1358" y2="834.7261"/><text fill="#000000" font-family="sans-serif" font-size="14" lengthAdjust="spacing" textLength="116.3116" x="5" y="120.0339">CRM Collaborator</text><ellipse cx="66.1558" cy="53.5679" fill="#E3E3E3" rx="8" ry="8" style="stroke:#181818;stroke-width:0.5;"/><path d="M66.1558,61.5679 L66.1558,88.5679 M53.1558,69.5679 L79.1558,69.5679 M66.1558,88.5679 L53.1558,103.5679 M66.1558,88.5679 L79.1558,103.5679 " fill="none" style="stroke:#181818;stroke-width:0.5;"/><text fill="#000000" font-family="sans-serif" font-size="14" lengthAdjust="spacing" textLength="116.3116" x="5" y="848.692">CRM Collaborator</text><ellipse cx="66.1558" cy="861.294" fill="#E3E3E3" rx="8" ry="8" style="stroke:#181818;stroke-width:0.5;"/><path d="M66.1558,869.294 L66.1558,896.294 M53.1558,877.294 L79.1558,877.294 M66.1558,896.294 L53.1558,911.294 M66.1558,896.294 L79.1558,911.294 " fill="none" style="stroke:#181818;stroke-width:0.5;"/><rect fill="#E3E3E3" height="33.0679" rx="2.5" ry="2.5" style="stroke:#181818;stroke-width:0.5;" width="65.3238" x="361.5812" y="90.0679"/><text fill="#000000" font-family="sans-serif" font-size="14" lengthAdjust="spacing" textLength="51.3238" x="368.5812" y="112.0339">:System</text><rect fill="#E3E3E3" height="33.0679" rx="2.5" ry="2.5" style="stroke:#181818;stroke-width:0.5;" width="65.3238" x="361.5812" y="833.7261"/><text fill="#000000" font-family="sans-serif" font-size="14" lengthAdjust="spacing" textLength="51.3238" x="368.5812" y="855.692">:System</text><rect fill="#FFFFFF" height="682.5902" style="stroke:#181818;stroke-width:1.0;" width="10" x="61.1558" y="134.1358"/><rect fill="#FFFFFF" height="55.412" style="stroke:#181818;stroke-width:1.0;" width="10" x="389.2431" y="134.1358"/><rect fill="#FFFFFF" height="31.706" style="stroke:#181818;stroke-width:1.0;" width="10" x="389.2431" y="221.2539"/><rect fill="#FFFFFF" height="31.706" style="stroke:#181818;stroke-width:1.0;" width="10" x="389.2431" y="284.6659"/><rect fill="#FFFFFF" height="31.706" style="stroke:#181818;stroke-width:1.0;" width="10" x="389.2431" y="348.0779"/><rect fill="#FFFFFF" height="405.2361" style="stroke:#181818;stroke-width:1.0;" width="10" x="389.2431" y="411.49"/><rect fill="#FFFFFF" height="28" style="stroke:#181818;stroke-width:1.0;" width="10" x="394.2431" y="451.196"/><rect fill="#FFFFFF" height="28" style="stroke:#181818;stroke-width:1.0;" width="10" x="394.2431" y="525.902"/><rect fill="#FFFFFF" height="28" style="stroke:#181818;stroke-width:1.0;" width="10" x="394.2431" y="600.608"/><rect fill="#FFFFFF" height="28" style="stroke:#181818;stroke-width:1.0;" width="10" x="394.2431" y="675.314"/><rect fill="#FFFFFF" height="28" style="stroke:#181818;stroke-width:1.0;" width="10" x="394.2431" y="750.0201"/><polygon fill="#181818" points="377.2431,153.8419,387.2431,157.8419,377.2431,161.8419,381.2431,157.8419" style="stroke:#181818;stroke-width:1.0;"/><line style="stroke:#181818;stroke-width:1.0;" x1="71.1558" x2="383.2431" y1="157.8419" y2="157.8419"/><text fill="#000000" font-family="sans-serif" font-size="13" font-weight="bold" lengthAdjust="spacing" textLength="7.436" x="78.1558" y="152.0328">1</text><text fill="#000000" font-family="sans-serif" font-size="13" lengthAdjust="spacing" textLength="38.4021" x="89.5918" y="152.0328">login()</text><polygon fill="#181818" points="82.1558,185.5479,72.1558,189.5479,82.1558,193.5479,78.1558,189.5479" style="stroke:#181818;stroke-width:1.0;"/><line style="stroke:#181818;stroke-width:1.0;stroke-dasharray:2.0,2.0;" x1="76.1558" x2="393.2431" y1="189.5479" y2="189.5479"/><text fill="#000000" font-family="sans-serif" font-size="13" font-weight="bold" lengthAdjust="spacing" textLength="7.436" x="88.1558" y="183.7389">2</text><text fill="#000000" font-family="sans-serif" font-size="13" lengthAdjust="spacing" textLength="85.0201" x="99.5918" y="183.7389">authenticated</text><polygon fill="#181818" points="377.2431,217.2539,387.2431,221.2539,377.2431,225.2539,381.2431,221.2539" style="stroke:#181818;stroke-width:1.0;"/><line style="stroke:#181818;stroke-width:1.0;" x1="71.1558" x2="383.2431" y1="221.2539" y2="221.2539"/><text fill="#000000" font-family="sans-serif" font-size="13" font-weight="bold" lengthAdjust="spacing" textLength="7.436" x="78.1558" y="215.4449">3</text><text fill="#000000" font-family="sans-serif" font-size="13" lengthAdjust="spacing" textLength="159.9131" x="89.5918" y="215.4449">ask to edit a show request</text><polygon fill="#181818" points="82.1558,248.9599,72.1558,252.9599,82.1558,256.9599,78.1558,252.9599" style="stroke:#181818;stroke-width:1.0;"/><line style="stroke:#181818;stroke-width:1.0;stroke-dasharray:2.0,2.0;" x1="76.1558" x2="393.2431" y1="252.9599" y2="252.9599"/><text fill="#000000" font-family="sans-serif" font-size="13" font-weight="bold" lengthAdjust="spacing" textLength="7.436" x="88.1558" y="247.1509">4</text><text fill="#000000" font-family="sans-serif" font-size="13" lengthAdjust="spacing" textLength="166.0882" x="99.5918" y="247.1509">request costumer selection</text><polygon fill="#181818" points="377.2431,280.6659,387.2431,284.6659,377.2431,288.6659,381.2431,284.6659" style="stroke:#181818;stroke-width:1.0;"/><line style="stroke:#181818;stroke-width:1.0;" x1="71.1558" x2="383.2431" y1="284.6659" y2="284.6659"/><text fill="#000000" font-family="sans-serif" font-size="13" font-weight="bold" lengthAdjust="spacing" textLength="7.436" x="78.1558" y="278.8569">5</text><text fill="#000000" font-family="sans-serif" font-size="13" lengthAdjust="spacing" textLength="96.4731" x="89.5918" y="278.8569">select costumer</text><polygon fill="#181818" points="82.1558,312.3719,72.1558,316.3719,82.1558,320.3719,78.1558,316.3719" style="stroke:#181818;stroke-width:1.0;"/><line style="stroke:#181818;stroke-width:1.0;stroke-dasharray:2.0,2.0;" x1="76.1558" x2="393.2431" y1="316.3719" y2="316.3719"/><text fill="#000000" font-family="sans-serif" font-size="13" font-weight="bold" lengthAdjust="spacing" textLength="7.436" x="88.1558" y="310.5629">6</text><text fill="#000000" font-family="sans-serif" font-size="13" lengthAdjust="spacing" textLength="214.1102" x="99.5918" y="310.5629">show list of editable show requests</text><polygon fill="#181818" points="377.2431,344.0779,387.2431,348.0779,377.2431,352.0779,381.2431,348.0779" style="stroke:#181818;stroke-width:1.0;"/><line style="stroke:#181818;stroke-width:1.0;" x1="71.1558" x2="383.2431" y1="348.0779" y2="348.0779"/><text fill="#000000" font-family="sans-serif" font-size="13" font-weight="bold" lengthAdjust="spacing" textLength="7.436" x="78.1558" y="342.2689">7</text><text fill="#000000" font-family="sans-serif" font-size="13" lengthAdjust="spacing" textLength="163.9561" x="89.5918" y="342.2689">select show request to edit</text><polygon fill="#181818" points="82.1558,375.784,72.1558,379.784,82.1558,383.784,78.1558,379.784" style="stroke:#181818;stroke-width:1.0;"/><line style="stroke:#181818;stroke-width:1.0;stroke-dasharray:2.0,2.0;" x1="76.1558" x2="393.2431" y1="379.784" y2="379.784"/><text fill="#000000" font-family="sans-serif" font-size="13" font-weight="bold" lengthAdjust="spacing" textLength="7.436" x="88.1558" y="373.975">8</text><text fill="#000000" font-family="sans-serif" font-size="13" lengthAdjust="spacing" textLength="197.5352" x="99.5918" y="373.975">show current show request data</text><polygon fill="#181818" points="377.2431,407.49,387.2431,411.49,377.2431,415.49,381.2431,411.49" style="stroke:#181818;stroke-width:1.0;"/><line style="stroke:#181818;stroke-width:1.0;" x1="71.1558" x2="383.2431" y1="411.49" y2="411.49"/><text fill="#000000" font-family="sans-serif" font-size="13" font-weight="bold" lengthAdjust="spacing" textLength="7.436" x="78.1558" y="405.681">9</text><text fill="#000000" font-family="sans-serif" font-size="13" lengthAdjust="spacing" textLength="287.6513" x="89.5918" y="405.681">update data (duration, figures, date, location...)</text><line style="stroke:#181818;stroke-width:1.0;" x1="404.2431" x2="446.2431" y1="443.196" y2="443.196"/><line style="stroke:#181818;stroke-width:1.0;" x1="446.2431" x2="446.2431" y1="443.196" y2="456.196"/><line style="stroke:#181818;stroke-width:1.0;" x1="405.2431" x2="446.2431" y1="456.196" y2="456.196"/><polygon fill="#181818" points="415.2431,452.196,405.2431,456.196,415.2431,460.196,411.2431,456.196" style="stroke:#181818;stroke-width:1.0;"/><text fill="#000000" font-family="sans-serif" font-size="13" font-weight="bold" lengthAdjust="spacing" textLength="14.872" x="411.2431" y="437.387">10</text><text fill="#000000" font-family="sans-serif" font-size="13" lengthAdjust="spacing" textLength="200.2392" x="430.1151" y="437.387">validate no associated proposal()</text><line style="stroke:#181818;stroke-width:1.0;" x1="404.2431" x2="446.2431" y1="517.902" y2="517.902"/><line style="stroke:#181818;stroke-width:1.0;" x1="446.2431" x2="446.2431" y1="517.902" y2="530.902"/><line style="stroke:#181818;stroke-width:1.0;" x1="405.2431" x2="446.2431" y1="530.902" y2="530.902"/><polygon fill="#181818" points="415.2431,526.902,405.2431,530.902,415.2431,534.902,411.2431,530.902" style="stroke:#181818;stroke-width:1.0;"/><text fill="#000000" font-family="sans-serif" font-size="13" font-weight="bold" lengthAdjust="spacing" textLength="14.872" x="411.2431" y="512.093">11</text><text fill="#000000" font-family="sans-serif" font-size="13" lengthAdjust="spacing" textLength="151.5412" x="430.1151" y="512.093">validate updated data(...)</text><line style="stroke:#181818;stroke-width:1.0;" x1="404.2431" x2="446.2431" y1="592.608" y2="592.608"/><line style="stroke:#181818;stroke-width:1.0;" x1="446.2431" x2="446.2431" y1="592.608" y2="605.608"/><line style="stroke:#181818;stroke-width:1.0;" x1="405.2431" x2="446.2431" y1="605.608" y2="605.608"/><polygon fill="#181818" points="415.2431,601.608,405.2431,605.608,415.2431,609.608,411.2431,605.608" style="stroke:#181818;stroke-width:1.0;"/><text fill="#000000" font-family="sans-serif" font-size="13" font-weight="bold" lengthAdjust="spacing" textLength="14.872" x="411.2431" y="586.799">12</text><text fill="#000000" font-family="sans-serif" font-size="13" lengthAdjust="spacing" textLength="336.5704" x="430.1151" y="586.799">updateShowRequest(duration, figures, date, location...)</text><line style="stroke:#181818;stroke-width:1.0;" x1="404.2431" x2="446.2431" y1="667.314" y2="667.314"/><line style="stroke:#181818;stroke-width:1.0;" x1="446.2431" x2="446.2431" y1="667.314" y2="680.314"/><line style="stroke:#181818;stroke-width:1.0;" x1="405.2431" x2="446.2431" y1="680.314" y2="680.314"/><polygon fill="#181818" points="415.2431,676.314,405.2431,680.314,415.2431,684.314,411.2431,680.314" style="stroke:#181818;stroke-width:1.0;"/><text fill="#000000" font-family="sans-serif" font-size="13" font-weight="bold" lengthAdjust="spacing" textLength="14.872" x="411.2431" y="661.505">13</text><text fill="#000000" font-family="sans-serif" font-size="13" lengthAdjust="spacing" textLength="274.0793" x="430.1151" y="661.505">addShowRequestStatus("Edited", timestamp)</text><line style="stroke:#181818;stroke-width:1.0;" x1="404.2431" x2="446.2431" y1="742.0201" y2="742.0201"/><line style="stroke:#181818;stroke-width:1.0;" x1="446.2431" x2="446.2431" y1="742.0201" y2="755.0201"/><line style="stroke:#181818;stroke-width:1.0;" x1="405.2431" x2="446.2431" y1="755.0201" y2="755.0201"/><polygon fill="#181818" points="415.2431,751.0201,405.2431,755.0201,415.2431,759.0201,411.2431,755.0201" style="stroke:#181818;stroke-width:1.0;"/><text fill="#000000" font-family="sans-serif" font-size="13" font-weight="bold" lengthAdjust="spacing" textLength="14.872" x="411.2431" y="736.2111">14</text><text fill="#000000" font-family="sans-serif" font-size="13" lengthAdjust="spacing" textLength="184.7562" x="430.1151" y="736.2111">persistUpdatedShowRequest()</text><polygon fill="#181818" points="77.1558,812.7261,67.1558,816.7261,77.1558,820.7261,73.1558,816.7261" style="stroke:#181818;stroke-width:1.0;"/><line style="stroke:#181818;stroke-width:1.0;stroke-dasharray:2.0,2.0;" x1="71.1558" x2="393.2431" y1="816.7261" y2="816.7261"/><text fill="#000000" font-family="sans-serif" font-size="13" font-weight="bold" lengthAdjust="spacing" textLength="14.872" x="83.1558" y="810.9171">15</text><text fill="#000000" font-family="sans-serif" font-size="13" lengthAdjust="spacing" textLength="226.5252" x="102.0278" y="810.9171">show updated data and confirmation</text><!--SRC=[dLInRkCm3Dtz5OGd1qWot04tPEZITknIen_0I8mZH9PSYMhHlp_AJbCblHJdR0Bv-FZuH2aUZ1imO0-zTrxjW-y9E2IguYape3fWHor_M890Yj5rjWJ4FMh_Rbm7ExIHgeeD2xJzY4mzjFIQo2c21uDTXZTj-x205Roqltx_WKTj613QlN-7vmoDN5MOsBlKRod8MR4FKDy_Fy6zjnQtFg14Qi1u5gX431jb1dGCzMRgFgAcuyXatf3flEmh_8ahqx2wEyOtO7rdNBEeZeEj95L2Do2oz-H4XB3fgj9qINsD6UC1s0DDNiJiHJXvSIdlQljZ2IWVEVKK89ALwpBUpP0orPmuvlGVTLiZ2lnkd0MtiWRbD76-aBByqwFPebGAGIxcd4mZummzQT0PbQkWqKdoOkmITgPBWU8o9sWfEwB6n7gzNlmWyuls3QqPYPsNDOXUcRmyC0G_-8XMrksIvBladsWdsNhKtOogRkARQF8hFJxI_xJWfcQeTT6fPUGKcph_5AJh9R3f9OpzS2FzG27AbhvCpfGppIByzwgLVWCwBI_9xKpeySexB4Dd_z9V]--></g></svg>