<svg xmlns="http://www.w3.org/2000/svg" xmlns:xlink="http://www.w3.org/1999/xlink" contentStyleType="text/css" height="430px" preserveAspectRatio="none" style="width:815px;height:430px;background:#FFFFFF;" version="1.1" viewBox="0 0 815 430" width="815px" zoomAndPan="magnify"><defs/><g><rect fill="#FFFFFF" height="243.9421" style="stroke:#181818;stroke-width:1.0;" width="10" x="60.2489" y="94.0679"/><rect fill="#FFFFFF" height="243.9421" style="stroke:#181818;stroke-width:1.0;" width="10" x="553.9292" y="94.0679"/><rect fill="none" height="197.2361" style="stroke:#000000;stroke-width:1.5;" width="798.8594" x="10" y="132.7739"/><rect fill="none" height="85.118" style="stroke:#000000;stroke-width:1.5;" width="579.7151" x="20" y="237.892"/><line style="stroke:#181818;stroke-width:0.5;stroke-dasharray:5.0,5.0;" x1="65" x2="65" y1="84.0679" y2="347.01"/><line style="stroke:#181818;stroke-width:0.5;stroke-dasharray:5.0,5.0;" x1="558.1433" x2="558.1433" y1="84.0679" y2="347.01"/><text fill="#000000" font-family="sans-serif" font-size="14" lengthAdjust="spacing" textLength="64.4978" x="30" y="79.9659">Customer</text><ellipse cx="65.2489" cy="13.5" fill="#E2E2F0" rx="8" ry="8" style="stroke:#181818;stroke-width:0.5;"/><path d="M65.2489,21.5 L65.2489,48.5 M52.2489,29.5 L78.2489,29.5 M65.2489,48.5 L52.2489,63.5 M65.2489,48.5 L78.2489,63.5 " fill="none" style="stroke:#181818;stroke-width:0.5;"/><text fill="#000000" font-family="sans-serif" font-size="14" lengthAdjust="spacing" textLength="64.4978" x="30" y="360.976">Customer</text><ellipse cx="65.2489" cy="373.5779" fill="#E2E2F0" rx="8" ry="8" style="stroke:#181818;stroke-width:0.5;"/><path d="M65.2489,381.5779 L65.2489,408.5779 M52.2489,389.5779 L78.2489,389.5779 M65.2489,408.5779 L52.2489,423.5779 M65.2489,408.5779 L78.2489,423.5779 " fill="none" style="stroke:#181818;stroke-width:0.5;"/><rect fill="#E2E2F0" height="33.0679" rx="2.5" ry="2.5" style="stroke:#181818;stroke-width:0.5;" width="61.5718" x="528.1433" y="50"/><text fill="#000000" font-family="sans-serif" font-size="14" lengthAdjust="spacing" textLength="47.5718" x="535.1433" y="71.9659">System</text><rect fill="#E2E2F0" height="33.0679" rx="2.5" ry="2.5" style="stroke:#181818;stroke-width:0.5;" width="61.5718" x="528.1433" y="346.01"/><text fill="#000000" font-family="sans-serif" font-size="14" lengthAdjust="spacing" textLength="47.5718" x="535.1433" y="367.976">System</text><rect fill="#FFFFFF" height="243.9421" style="stroke:#181818;stroke-width:1.0;" width="10" x="60.2489" y="94.0679"/><rect fill="#FFFFFF" height="243.9421" style="stroke:#181818;stroke-width:1.0;" width="10" x="553.9292" y="94.0679"/><polygon fill="#181818" points="541.9292,113.7739,551.9292,117.7739,541.9292,121.7739,545.9292,117.7739" style="stroke:#181818;stroke-width:1.0;"/><line style="stroke:#181818;stroke-width:1.0;" x1="70.2489" x2="547.9292" y1="117.7739" y2="117.7739"/><text fill="#000000" font-family="sans-serif" font-size="13" lengthAdjust="spacing" textLength="141.4141" x="77.2489" y="111.9649">Check My Show Dates()</text><path d="M10,132.7739 L72.459,132.7739 L72.459,142.4799 L62.459,152.4799 L10,152.4799 L10,132.7739 " fill="#EEEEEE" style="stroke:#000000;stroke-width:1.5;"/><rect fill="none" height="197.2361" style="stroke:#000000;stroke-width:1.5;" width="798.8594" x="10" y="132.7739"/><text fill="#000000" font-family="sans-serif" font-size="13" font-weight="bold" lengthAdjust="spacing" textLength="17.459" x="25" y="147.6709">alt</text><text fill="#000000" font-family="sans-serif" font-size="11" font-weight="bold" lengthAdjust="spacing" textLength="144.8579" x="87.459" y="146.5328">[Show Request Not Found]</text><polygon fill="#181818" points="81.2489,172.186,71.2489,176.186,81.2489,180.186,77.2489,176.186" style="stroke:#181818;stroke-width:1.0;"/><line style="stroke:#181818;stroke-width:1.0;stroke-dasharray:2.0,2.0;" x1="75.2489" x2="552.9292" y1="176.186" y2="176.186"/><text fill="#000000" font-family="sans-serif" font-size="13" lengthAdjust="spacing" textLength="192.5562" x="87.2489" y="170.377">Error "Show request not found"</text><line style="stroke:#000000;stroke-width:1.0;stroke-dasharray:2.0,2.0;" x1="10" x2="808.8594" y1="185.186" y2="185.186"/><line style="stroke:#181818;stroke-width:1.0;" x1="563.9292" x2="605.9292" y1="209.892" y2="209.892"/><line style="stroke:#181818;stroke-width:1.0;" x1="605.9292" x2="605.9292" y1="209.892" y2="222.892"/><line style="stroke:#181818;stroke-width:1.0;" x1="564.9292" x2="605.9292" y1="222.892" y2="222.892"/><polygon fill="#181818" points="574.9292,218.892,564.9292,222.892,574.9292,226.892,570.9292,222.892" style="stroke:#181818;stroke-width:1.0;"/><text fill="#000000" font-family="sans-serif" font-size="13" lengthAdjust="spacing" textLength="215.9302" x="570.9292" y="204.083">Check for Conflicts(showRequestId)</text><path d="M20,237.892 L82.459,237.892 L82.459,247.598 L72.459,257.598 L20,257.598 L20,237.892 " fill="#EEEEEE" style="stroke:#000000;stroke-width:1.5;"/><rect fill="none" height="85.118" style="stroke:#000000;stroke-width:1.5;" width="579.7151" x="20" y="237.892"/><text fill="#000000" font-family="sans-serif" font-size="13" font-weight="bold" lengthAdjust="spacing" textLength="17.459" x="35" y="252.789">alt</text><text fill="#000000" font-family="sans-serif" font-size="11" font-weight="bold" lengthAdjust="spacing" textLength="92.3113" x="97.459" y="251.6509">[Conflicts Found]</text><polygon fill="#181818" points="81.2489,277.304,71.2489,281.304,81.2489,285.304,77.2489,281.304" style="stroke:#181818;stroke-width:1.0;"/><line style="stroke:#181818;stroke-width:1.0;stroke-dasharray:2.0,2.0;" x1="75.2489" x2="552.9292" y1="281.304" y2="281.304"/><text fill="#000000" font-family="sans-serif" font-size="13" lengthAdjust="spacing" textLength="458.7574" x="87.2489" y="275.495">Warning "Scheduling conflict detected! Conflicting show requests: [details]"</text><line style="stroke:#000000;stroke-width:1.0;stroke-dasharray:2.0,2.0;" x1="20" x2="599.7151" y1="290.304" y2="290.304"/><polygon fill="#181818" points="81.2489,311.01,71.2489,315.01,81.2489,319.01,77.2489,315.01" style="stroke:#181818;stroke-width:1.0;"/><line style="stroke:#181818;stroke-width:1.0;stroke-dasharray:2.0,2.0;" x1="75.2489" x2="552.9292" y1="315.01" y2="315.01"/><text fill="#000000" font-family="sans-serif" font-size="13" lengthAdjust="spacing" textLength="459.6804" x="87.2489" y="309.201">Success "No scheduling conflicts found for show request [ShowRequest.id]"</text><!--SRC=[RP2_JiCm4CPtFyNXgHtA0sH0GW4a1Zeq0qF5ODaNOjMrY-zIrBV7Tam8K4kMV7z-ztrdfJb4aEr878uO9IY2-vmJ9nNPQdjIda5s5s8ybkhq549fjcV5MDldiDPB5ZPtDMwW7L0VuEK2tH0-uI6rqcejbECfiSEF4ObX6nYUmkYDW7Gc63PfJXdOm6ECsN1XOcLyOlhCI86Ey1Vvrq2Vw3RutbdDjA8qfYe_ctK1iwEvOM7bkfrN5RtrxycG7j2CBhzrfS4WesOqD_F0NAQ5TMfWdxgKTVGcYyoym7MzRjGQYK1k0z1_IPh-eMovr85zzxFfhJNVOcctTBy0]--></g></svg>