<svg xmlns="http://www.w3.org/2000/svg" xmlns:xlink="http://www.w3.org/1999/xlink" contentStyleType="text/css" height="414px" preserveAspectRatio="none" style="width:625px;height:414px;background:#FFFFFF;" version="1.1" viewBox="0 0 625 414" width="625px" zoomAndPan="magnify"><title>System Sequence Diagram (SSD) - List Maintenance Types</title><defs/><g><text fill="#000000" font-family="sans-serif" font-size="14" font-weight="bold" lengthAdjust="spacing" textLength="392.1162" x="123.6743" y="30.1074">System Sequence Diagram (SSD) - List Maintenance Types</text><rect fill="#FFFFFF" height="188.0859" style="stroke:#181818;stroke-width:1.0;" width="10" x="54.5723" y="133.2422"/><rect fill="#FFFFFF" height="164.7949" style="stroke:#181818;stroke-width:1.0;" width="10" x="428.3887" y="156.5332"/><rect fill="none" height="98.5039" style="stroke:#000000;stroke-width:1.5;" width="465.6714" x="10" y="215.8242"/><line style="stroke:#181818;stroke-width:0.5;stroke-dasharray:5.0,5.0;" x1="59" x2="59" y1="123.2422" y2="331.3281"/><line style="stroke:#181818;stroke-width:0.5;stroke-dasharray:5.0,5.0;" x1="433.106" x2="433.106" y1="123.2422" y2="331.3281"/><text fill="#000000" font-family="sans-serif" font-size="14" lengthAdjust="spacing" textLength="73.1445" x="20" y="119.7285">Drone Tech</text><ellipse cx="59.5723" cy="53.1211" fill="#E3E3E3" rx="8" ry="8" style="stroke:#181818;stroke-width:0.5;"/><path d="M59.5723,61.1211 L59.5723,88.1211 M46.5723,69.1211 L72.5723,69.1211 M59.5723,88.1211 L46.5723,103.1211 M59.5723,88.1211 L72.5723,103.1211 " fill="none" style="stroke:#181818;stroke-width:0.5;"/><text fill="#000000" font-family="sans-serif" font-size="14" lengthAdjust="spacing" textLength="73.1445" x="20" y="345.4355">Drone Tech</text><ellipse cx="59.5723" cy="357.4492" fill="#E3E3E3" rx="8" ry="8" style="stroke:#181818;stroke-width:0.5;"/><path d="M59.5723,365.4492 L59.5723,392.4492 M46.5723,373.4492 L72.5723,373.4492 M59.5723,392.4492 L46.5723,407.4492 M59.5723,392.4492 L72.5723,407.4492 " fill="none" style="stroke:#181818;stroke-width:0.5;"/><rect fill="#E3E3E3" height="32.6211" rx="2.5" ry="2.5" style="stroke:#181818;stroke-width:0.5;" width="64.5654" x="401.106" y="89.6211"/><text fill="#000000" font-family="sans-serif" font-size="14" lengthAdjust="spacing" textLength="50.5654" x="408.106" y="111.7285">:System</text><rect fill="#E3E3E3" height="32.6211" rx="2.5" ry="2.5" style="stroke:#181818;stroke-width:0.5;" width="64.5654" x="401.106" y="330.3281"/><text fill="#000000" font-family="sans-serif" font-size="14" lengthAdjust="spacing" textLength="50.5654" x="408.106" y="352.4355">:System</text><rect fill="#FFFFFF" height="188.0859" style="stroke:#181818;stroke-width:1.0;" width="10" x="54.5723" y="133.2422"/><rect fill="#FFFFFF" height="164.7949" style="stroke:#181818;stroke-width:1.0;" width="10" x="428.3887" y="156.5332"/><polygon fill="#181818" points="416.3887,152.5332,426.3887,156.5332,416.3887,160.5332,420.3887,156.5332" style="stroke:#181818;stroke-width:1.0;"/><line style="stroke:#181818;stroke-width:1.0;" x1="64.5723" x2="422.3887" y1="156.5332" y2="156.5332"/><text fill="#000000" font-family="sans-serif" font-size="13" font-weight="bold" lengthAdjust="spacing" textLength="7.23" x="71.5723" y="151.2705">1</text><text fill="#000000" font-family="sans-serif" font-size="13" lengthAdjust="spacing" textLength="182.0889" x="82.8022" y="151.2705">requestListMaintenanceTypes()</text><line style="stroke:#181818;stroke-width:1.0;" x1="438.3887" x2="480.3887" y1="187.8242" y2="187.8242"/><line style="stroke:#181818;stroke-width:1.0;" x1="480.3887" x2="480.3887" y1="187.8242" y2="200.8242"/><line style="stroke:#181818;stroke-width:1.0;" x1="439.3887" x2="480.3887" y1="200.8242" y2="200.8242"/><polygon fill="#181818" points="449.3887,196.8242,439.3887,200.8242,449.3887,204.8242,445.3887,200.8242" style="stroke:#181818;stroke-width:1.0;"/><text fill="#000000" font-family="sans-serif" font-size="13" font-weight="bold" lengthAdjust="spacing" textLength="7.23" x="445.3887" y="182.5615">2</text><text fill="#000000" font-family="sans-serif" font-size="13" lengthAdjust="spacing" textLength="161.8462" x="456.6187" y="182.5615">retrieveMaintenanceTypes()</text><path d="M10,215.8242 L70.1709,215.8242 L70.1709,225.1152 L60.1709,235.1152 L10,235.1152 L10,215.8242 " fill="#EEEEEE" style="stroke:#000000;stroke-width:1.5;"/><rect fill="none" height="98.5039" style="stroke:#000000;stroke-width:1.5;" width="465.6714" x="10" y="215.8242"/><text fill="#000000" font-family="sans-serif" font-size="13" font-weight="bold" lengthAdjust="spacing" textLength="15.1709" x="25" y="230.8525">alt</text><text fill="#000000" font-family="sans-serif" font-size="11" font-weight="bold" lengthAdjust="spacing" textLength="134.4922" x="85.1709" y="229.6943">[maintenance types exist]</text><polygon fill="#181818" points="75.5723,254.4063,65.5723,258.4063,75.5723,262.4063,71.5723,258.4063" style="stroke:#181818;stroke-width:1.0;"/><line style="stroke:#181818;stroke-width:1.0;stroke-dasharray:2.0,2.0;" x1="69.5723" x2="427.3887" y1="258.4063" y2="258.4063"/><text fill="#000000" font-family="sans-serif" font-size="13" font-weight="bold" lengthAdjust="spacing" textLength="7.23" x="81.5723" y="253.1436">3</text><text fill="#000000" font-family="sans-serif" font-size="13" lengthAdjust="spacing" textLength="289.0342" x="92.8022" y="253.1436">displayMaintenanceTypes(maintenanceTypesList)</text><line style="stroke:#000000;stroke-width:1.0;stroke-dasharray:2.0,2.0;" x1="10" x2="475.6714" y1="267.4063" y2="267.4063"/><text fill="#000000" font-family="sans-serif" font-size="11" font-weight="bold" lengthAdjust="spacing" textLength="122.8584" x="15" y="279.2764">[no maintenance types]</text><polygon fill="#181818" points="75.5723,302.3281,65.5723,306.3281,75.5723,310.3281,71.5723,306.3281" style="stroke:#181818;stroke-width:1.0;"/><line style="stroke:#181818;stroke-width:1.0;stroke-dasharray:2.0,2.0;" x1="69.5723" x2="427.3887" y1="306.3281" y2="306.3281"/><text fill="#000000" font-family="sans-serif" font-size="13" font-weight="bold" lengthAdjust="spacing" textLength="7.23" x="81.5723" y="301.0654">4</text><text fill="#000000" font-family="sans-serif" font-size="13" lengthAdjust="spacing" textLength="328.5864" x="92.8022" y="301.0654">errorMessage("No maintenance types in the system yet")</text><!--SRC=[RL4zTeCm3Dvz2ZscPCW5CdHYRBh01HIZWb-mJ2sHbjjN1DhI99xqzFr9ibm23vWnGaoSV9TJ9D0yafDVP41_mPOgdNg2J5wHstvBa0wRz1cuXNViXPpJe4Qj9b6AKD77IEm9oe3jJDzLLRc70xm6KJXXO2N6cL1F0ubpE6hYCPufM-qrPIZAdDXmybq1A53Mpf8r-30WAnJ79Ug6BULD6QweD9DTMSFXPOMEjeDD93hdR-9lwRlzdt1rMjVufzSSw4hFnBr2tAoaSn_eow8SsFinCxUoFa8JPEXnUZ2ATurvrBqZEovmUWnuPaqvftmY4VkwNV7sH0M1GJi2MOGJQM4PtBY6xc-mRTazlm40]--></g></svg>