<svg xmlns="http://www.w3.org/2000/svg" xmlns:xlink="http://www.w3.org/1999/xlink" contentStyleType="text/css" height="414px" preserveAspectRatio="none" style="width:653px;height:414px;background:#FFFFFF;" version="1.1" viewBox="0 0 653 414" width="653px" zoomAndPan="magnify"><title>System Sequence Diagram (SSD) - List Maintenance Types</title><defs/><g><text fill="#000000" font-family="sans-serif" font-size="14" font-weight="bold" lengthAdjust="spacing" textLength="392.1162" x="137.7788" y="30.1074">System Sequence Diagram (SSD) - List Maintenance Types</text><rect fill="#FFFFFF" height="188.0859" style="stroke:#181818;stroke-width:1.0;" width="10" x="54.5723" y="133.2422"/><rect fill="#FFFFFF" height="164.7949" style="stroke:#181818;stroke-width:1.0;" width="10" x="456.5977" y="156.5332"/><rect fill="none" height="98.5039" style="stroke:#000000;stroke-width:1.5;" width="493.8804" x="10" y="215.8242"/><line style="stroke:#181818;stroke-width:0.5;stroke-dasharray:5.0,5.0;" x1="59" x2="59" y1="123.2422" y2="331.3281"/><line style="stroke:#181818;stroke-width:0.5;stroke-dasharray:5.0,5.0;" x1="461.3149" x2="461.3149" y1="123.2422" y2="331.3281"/><text fill="#000000" font-family="sans-serif" font-size="14" lengthAdjust="spacing" textLength="73.1445" x="20" y="119.7285">Drone Tech</text><ellipse cx="59.5723" cy="53.1211" fill="#E3E3E3" rx="8" ry="8" style="stroke:#181818;stroke-width:0.5;"/><path d="M59.5723,61.1211 L59.5723,88.1211 M46.5723,69.1211 L72.5723,69.1211 M59.5723,88.1211 L46.5723,103.1211 M59.5723,88.1211 L72.5723,103.1211 " fill="none" style="stroke:#181818;stroke-width:0.5;"/><text fill="#000000" font-family="sans-serif" font-size="14" lengthAdjust="spacing" textLength="73.1445" x="20" y="345.4355">Drone Tech</text><ellipse cx="59.5723" cy="357.4492" fill="#E3E3E3" rx="8" ry="8" style="stroke:#181818;stroke-width:0.5;"/><path d="M59.5723,365.4492 L59.5723,392.4492 M46.5723,373.4492 L72.5723,373.4492 M59.5723,392.4492 L46.5723,407.4492 M59.5723,392.4492 L72.5723,407.4492 " fill="none" style="stroke:#181818;stroke-width:0.5;"/><rect fill="#E3E3E3" height="32.6211" rx="2.5" ry="2.5" style="stroke:#181818;stroke-width:0.5;" width="64.5654" x="429.3149" y="89.6211"/><text fill="#000000" font-family="sans-serif" font-size="14" lengthAdjust="spacing" textLength="50.5654" x="436.3149" y="111.7285">:System</text><rect fill="#E3E3E3" height="32.6211" rx="2.5" ry="2.5" style="stroke:#181818;stroke-width:0.5;" width="64.5654" x="429.3149" y="330.3281"/><text fill="#000000" font-family="sans-serif" font-size="14" lengthAdjust="spacing" textLength="50.5654" x="436.3149" y="352.4355">:System</text><rect fill="#FFFFFF" height="188.0859" style="stroke:#181818;stroke-width:1.0;" width="10" x="54.5723" y="133.2422"/><rect fill="#FFFFFF" height="164.7949" style="stroke:#181818;stroke-width:1.0;" width="10" x="456.5977" y="156.5332"/><polygon fill="#181818" points="444.5977,152.5332,454.5977,156.5332,444.5977,160.5332,448.5977,156.5332" style="stroke:#181818;stroke-width:1.0;"/><line style="stroke:#181818;stroke-width:1.0;" x1="64.5723" x2="450.5977" y1="156.5332" y2="156.5332"/><text fill="#000000" font-family="sans-serif" font-size="13" font-weight="bold" lengthAdjust="spacing" textLength="7.23" x="71.5723" y="151.2705">1</text><text fill="#000000" font-family="sans-serif" font-size="13" lengthAdjust="spacing" textLength="182.0889" x="82.8022" y="151.2705">requestListMaintenanceTypes()</text><line style="stroke:#181818;stroke-width:1.0;" x1="466.5977" x2="508.5977" y1="187.8242" y2="187.8242"/><line style="stroke:#181818;stroke-width:1.0;" x1="508.5977" x2="508.5977" y1="187.8242" y2="200.8242"/><line style="stroke:#181818;stroke-width:1.0;" x1="467.5977" x2="508.5977" y1="200.8242" y2="200.8242"/><polygon fill="#181818" points="477.5977,196.8242,467.5977,200.8242,477.5977,204.8242,473.5977,200.8242" style="stroke:#181818;stroke-width:1.0;"/><text fill="#000000" font-family="sans-serif" font-size="13" font-weight="bold" lengthAdjust="spacing" textLength="7.23" x="473.5977" y="182.5615">2</text><text fill="#000000" font-family="sans-serif" font-size="13" lengthAdjust="spacing" textLength="161.8462" x="484.8276" y="182.5615">retrieveMaintenanceTypes()</text><path d="M10,215.8242 L70.1709,215.8242 L70.1709,225.1152 L60.1709,235.1152 L10,235.1152 L10,215.8242 " fill="#EEEEEE" style="stroke:#000000;stroke-width:1.5;"/><rect fill="none" height="98.5039" style="stroke:#000000;stroke-width:1.5;" width="493.8804" x="10" y="215.8242"/><text fill="#000000" font-family="sans-serif" font-size="13" font-weight="bold" lengthAdjust="spacing" textLength="15.1709" x="25" y="230.8525">alt</text><text fill="#000000" font-family="sans-serif" font-size="11" font-weight="bold" lengthAdjust="spacing" textLength="134.4922" x="85.1709" y="229.6943">[maintenance types exist]</text><polygon fill="#181818" points="75.5723,254.4063,65.5723,258.4063,75.5723,262.4063,71.5723,258.4063" style="stroke:#181818;stroke-width:1.0;"/><line style="stroke:#181818;stroke-width:1.0;stroke-dasharray:2.0,2.0;" x1="69.5723" x2="455.5977" y1="258.4063" y2="258.4063"/><text fill="#000000" font-family="sans-serif" font-size="13" font-weight="bold" lengthAdjust="spacing" textLength="7.23" x="81.5723" y="253.1436">3</text><text fill="#000000" font-family="sans-serif" font-size="13" lengthAdjust="spacing" textLength="289.0342" x="92.8022" y="253.1436">displayMaintenanceTypes(maintenanceTypesList)</text><line style="stroke:#000000;stroke-width:1.0;stroke-dasharray:2.0,2.0;" x1="10" x2="503.8804" y1="267.4063" y2="267.4063"/><text fill="#000000" font-family="sans-serif" font-size="11" font-weight="bold" lengthAdjust="spacing" textLength="122.8584" x="15" y="279.2764">[no maintenance types]</text><polygon fill="#181818" points="75.5723,302.3281,65.5723,306.3281,75.5723,310.3281,71.5723,306.3281" style="stroke:#181818;stroke-width:1.0;"/><line style="stroke:#181818;stroke-width:1.0;stroke-dasharray:2.0,2.0;" x1="69.5723" x2="455.5977" y1="306.3281" y2="306.3281"/><text fill="#000000" font-family="sans-serif" font-size="13" font-weight="bold" lengthAdjust="spacing" textLength="7.23" x="81.5723" y="301.0654">4</text><text fill="#000000" font-family="sans-serif" font-size="13" lengthAdjust="spacing" textLength="356.7954" x="92.8022" y="301.0654">displayMessage("No maintenance types found in the system")</text><!--SRC=[VL6zSeCm3Dxz53gcPCWBPEZ4s7Q15r2D0hvWcLeYBMzV4MXBarmzwVJzIRAS0m-OCK9Cd7oNKoJGF9AJ7sH0VyQMAfrwWanUaTj-Iv0Ec_GHk8KJzaBEQL2ZLfCeHQZeVIJs16N0TgRlgghSmm6UWoYyO60bnfbGJmE9SpXguZ6-KRRQQyfGb3cnuUIx0b2Wh9qbQ_1XG5OeZalK5LlAgp9SK6ackxA6mzCA7Mq7cqXqpj_4NzDt-r_XwhIkyKUlET257ebxXRXPIUS-qAT5ER3tRMPkPNs49iZGutHd56yQywXxHtPSu7GVy9yrYTZdxOhN1peufP4R20pQ4SXoHClXnZLqUuTjosxw1G00]--></g></svg>