<svg xmlns="http://www.w3.org/2000/svg" xmlns:xlink="http://www.w3.org/1999/xlink" contentStyleType="text/css" height="821.8px" preserveAspectRatio="none" style="width:2168px;height:821px;background:#FFFFFF;" version="1.1" viewBox="0 0 2168 821" width="2168.6px" zoomAndPan="magnify"><defs/><g><!--class RegisterShowRequestController--><g id="elem_RegisterShowRequestController"><rect codeLine="7" fill="#F1F1F1" height="140.3803" id="RegisterShowRequestController" rx="1.75" ry="1.75" style="stroke:#181818;stroke-width:0.3499999999999999;" width="736.8414" x="267.05" y="160.3"/><ellipse cx="559.0744" cy="171.5" fill="#ADD1B2" rx="7.7" ry="7.7" style="stroke:#181818;stroke-width:0.6999999999999998;"/><path d="M561.1525,175.4484 Q560.7478,175.6562 560.2994,175.7547 Q559.851,175.8641 559.3588,175.8641 Q557.6088,175.8641 556.6791,174.7156 Q555.7603,173.5562 555.7603,171.3687 Q555.7603,169.1812 556.6791,168.0219 Q557.6088,166.8625 559.3588,166.8625 Q559.851,166.8625 560.2994,166.9719 Q560.7588,167.0812 561.1525,167.2891 L561.1525,169.1922 Q560.715,168.7875 560.2994,168.6016 Q559.8838,168.4047 559.4463,168.4047 Q558.5056,168.4047 558.0244,169.1594 Q557.5431,169.9031 557.5431,171.3687 Q557.5431,172.8344 558.0244,173.5891 Q558.5056,174.3328 559.4463,174.3328 Q559.8838,174.3328 560.2994,174.1469 Q560.715,173.95 561.1525,173.5453 L561.1525,175.4484 Z " fill="#000000"/><text fill="#000000" font-family="sans-serif" font-size="9.8" lengthAdjust="spacing" textLength="146.8426" x="573.4244" y="175.3024">RegisterShowRequestController</text><line style="stroke:#181818;stroke-width:0.3499999999999999;" x1="267.75" x2="1003.1914" y1="182.7" y2="182.7"/><text fill="#000000" font-family="sans-serif" font-size="9.8" lengthAdjust="spacing" textLength="128.4873" x="271.25" y="195.9762">-repoProvider : Repositories</text><text fill="#000000" font-family="sans-serif" font-size="9.8" lengthAdjust="spacing" textLength="172.7341" x="271.25" y="209.3237">-authRepo : AuthenticationRepository</text><text fill="#000000" font-family="sans-serif" font-size="9.8" lengthAdjust="spacing" textLength="140.6001" x="271.25" y="222.6712">-figureRepo : FigureRepository</text><text fill="#000000" font-family="sans-serif" font-size="9.8" lengthAdjust="spacing" textLength="170.6859" x="271.25" y="236.0188">-showRepo : ShowRequestRepository</text><line style="stroke:#181818;stroke-width:0.3499999999999999;" x1="267.75" x2="1003.1914" y1="241.6902" y2="241.6902"/><text fill="#000000" font-family="sans-serif" font-size="9.8" lengthAdjust="spacing" textLength="158.3282" x="271.25" y="254.9663">+RegisterShowRequestController()</text><text fill="#000000" font-family="sans-serif" font-size="9.8" lengthAdjust="spacing" textLength="115.1005" x="271.25" y="268.3139">+getResponsible() : Email</text><text fill="#000000" font-family="sans-serif" font-size="9.8" lengthAdjust="spacing" textLength="143.8732" x="271.25" y="281.6614">+getThisTime() : LocalDateTime</text><text fill="#000000" font-family="sans-serif" font-size="9.8" lengthAdjust="spacing" textLength="728.4414" x="271.25" y="295.0089">+registerShowRequest(loc: Location, date: LocalDateTime, numDrones: int, duration: Duration, desc: Description, figs: List&lt;Figure&gt;, costumer: Costumer) : void</text></g><!--class FigureController--><g id="elem_FigureController"><rect codeLine="18" fill="#F1F1F1" height="60.2951" id="FigureController" rx="1.75" ry="1.75" style="stroke:#181818;stroke-width:0.3499999999999999;" width="303.9865" x="16.8" y="362.95"/><ellipse cx="128.0198" cy="374.15" fill="#ADD1B2" rx="7.7" ry="7.7" style="stroke:#181818;stroke-width:0.6999999999999998;"/><path d="M130.0979,378.0984 Q129.6932,378.3062 129.2448,378.4047 Q128.7964,378.5141 128.3042,378.5141 Q126.5542,378.5141 125.6245,377.3656 Q124.7057,376.2062 124.7057,374.0187 Q124.7057,371.8312 125.6245,370.6719 Q126.5542,369.5125 128.3042,369.5125 Q128.7964,369.5125 129.2448,369.6219 Q129.7042,369.7312 130.0979,369.9391 L130.0979,371.8422 Q129.6604,371.4375 129.2448,371.2516 Q128.8292,371.0547 128.3917,371.0547 Q127.4511,371.0547 126.9698,371.8094 Q126.4886,372.5531 126.4886,374.0187 Q126.4886,375.4844 126.9698,376.2391 Q127.4511,376.9828 128.3917,376.9828 Q128.8292,376.9828 129.2448,376.7969 Q129.6604,376.6 130.0979,376.1953 L130.0979,378.0984 Z " fill="#000000"/><text fill="#000000" font-family="sans-serif" font-size="9.8" lengthAdjust="spacing" textLength="75.5969" x="142.3698" y="377.9524">FigureController</text><line style="stroke:#181818;stroke-width:0.3499999999999999;" x1="17.5" x2="320.0865" y1="385.35" y2="385.35"/><text fill="#000000" font-family="sans-serif" font-size="9.8" lengthAdjust="spacing" textLength="140.6001" x="21" y="398.6262">-figureRepo : FigureRepository</text><line style="stroke:#181818;stroke-width:0.3499999999999999;" x1="17.5" x2="320.0865" y1="404.2975" y2="404.2975"/><text fill="#000000" font-family="sans-serif" font-size="9.8" lengthAdjust="spacing" textLength="295.5865" x="21" y="417.5737">+getAvailableFiguresForCustomer(id: CostumerID) : List&lt;Figure&gt;</text></g><!--class AuthenticationController--><g id="elem_AuthenticationController"><rect codeLine="23" fill="#F1F1F1" height="60.2951" id="AuthenticationController" rx="1.75" ry="1.75" style="stroke:#181818;stroke-width:0.3499999999999999;" width="206.222" x="887.25" y="362.95"/><ellipse cx="930.3159" cy="374.15" fill="#ADD1B2" rx="7.7" ry="7.7" style="stroke:#181818;stroke-width:0.6999999999999998;"/><path d="M932.3941,378.0984 Q931.9894,378.3062 931.5409,378.4047 Q931.0925,378.5141 930.6003,378.5141 Q928.8503,378.5141 927.9206,377.3656 Q927.0019,376.2062 927.0019,374.0187 Q927.0019,371.8312 927.9206,370.6719 Q928.8503,369.5125 930.6003,369.5125 Q931.0925,369.5125 931.5409,369.6219 Q932.0003,369.7312 932.3941,369.9391 L932.3941,371.8422 Q931.9566,371.4375 931.5409,371.2516 Q931.1253,371.0547 930.6878,371.0547 Q929.7472,371.0547 929.2659,371.8094 Q928.7847,372.5531 928.7847,374.0187 Q928.7847,375.4844 929.2659,376.2391 Q929.7472,376.9828 930.6878,376.9828 Q931.1253,376.9828 931.5409,376.7969 Q931.9566,376.6 932.3941,376.1953 L932.3941,378.0984 Z " fill="#000000"/><text fill="#000000" font-family="sans-serif" font-size="9.8" lengthAdjust="spacing" textLength="114.1402" x="944.6659" y="377.9524">AuthenticationController</text><line style="stroke:#181818;stroke-width:0.3499999999999999;" x1="887.95" x2="1092.772" y1="385.35" y2="385.35"/><text fill="#000000" font-family="sans-serif" font-size="9.8" lengthAdjust="spacing" textLength="172.7341" x="891.45" y="398.6262">-authRepo : AuthenticationRepository</text><line style="stroke:#181818;stroke-width:0.3499999999999999;" x1="887.95" x2="1092.772" y1="404.2975" y2="404.2975"/><text fill="#000000" font-family="sans-serif" font-size="9.8" lengthAdjust="spacing" textLength="197.822" x="891.45" y="417.5737">+getMyActiveCustomers() : List&lt;Costumer&gt;</text></g><!--class RegisterShowRequestUI--><g id="elem_RegisterShowRequestUI"><rect codeLine="29" fill="#F1F1F1" height="113.6853" id="RegisterShowRequestUI" rx="1.75" ry="1.75" style="stroke:#181818;stroke-width:0.3499999999999999;" width="291.2857" x="490" y="4.9"/><ellipse cx="577.1658" cy="16.1" fill="#ADD1B2" rx="7.7" ry="7.7" style="stroke:#181818;stroke-width:0.6999999999999998;"/><path d="M579.2439,20.0484 Q578.8392,20.2562 578.3908,20.3547 Q577.9423,20.4641 577.4502,20.4641 Q575.7002,20.4641 574.7705,19.3156 Q573.8517,18.1562 573.8517,15.9687 Q573.8517,13.7812 574.7705,12.6219 Q575.7002,11.4625 577.4502,11.4625 Q577.9423,11.4625 578.3908,11.5719 Q578.8502,11.6812 579.2439,11.8891 L579.2439,13.7922 Q578.8064,13.3875 578.3908,13.2016 Q577.9752,13.0047 577.5377,13.0047 Q576.597,13.0047 576.1158,13.7594 Q575.6345,14.5031 575.6345,15.9687 Q575.6345,17.4344 576.1158,18.1891 Q576.597,18.9328 577.5377,18.9328 Q577.9752,18.9328 578.3908,18.7469 Q578.8064,18.55 579.2439,18.1453 L579.2439,20.0484 Z " fill="#000000"/><text fill="#000000" font-family="sans-serif" font-size="9.8" lengthAdjust="spacing" textLength="111.0042" x="591.5158" y="19.9024">RegisterShowRequestUI</text><line style="stroke:#181818;stroke-width:0.3499999999999999;" x1="490.7" x2="780.5857" y1="27.3" y2="27.3"/><line style="stroke:#181818;stroke-width:0.3499999999999999;" x1="490.7" x2="780.5857" y1="32.9" y2="32.9"/><text fill="#000000" font-family="sans-serif" font-size="9.8" lengthAdjust="spacing" textLength="165.9918" x="494.2" y="46.1762">+askToRegisterShowRequest() : void</text><text fill="#000000" font-family="sans-serif" font-size="9.8" lengthAdjust="spacing" textLength="282.8857" x="494.2" y="59.5237">+optionsToSelectCustomer(customers: List&lt;Costumer&gt;) : void</text><text fill="#000000" font-family="sans-serif" font-size="9.8" lengthAdjust="spacing" textLength="239.7267" x="494.2" y="72.8712">+optionsToSelectFigures(figures: List&lt;Figure&gt;) : void</text><text fill="#000000" font-family="sans-serif" font-size="9.8" lengthAdjust="spacing" textLength="185.5329" x="494.2" y="86.2188">+requestData() : ShowRequestInputData</text><text fill="#000000" font-family="sans-serif" font-size="9.8" lengthAdjust="spacing" textLength="123.8911" x="494.2" y="99.5663">+showConfirmation() : void</text><text fill="#000000" font-family="sans-serif" font-size="9.8" lengthAdjust="spacing" textLength="150.3118" x="494.2" y="112.9139">+showsOperationSuccess() : void</text></g><!--class ShowRequestFactory--><g id="elem_ShowRequestFactory"><rect codeLine="39" fill="#F1F1F1" height="46.9475" id="ShowRequestFactory" rx="1.75" ry="1.75" style="stroke:#181818;stroke-width:0.3499999999999999;" width="945.8354" x="1218.35" y="369.6"/><ellipse cx="1640.1259" cy="380.8" fill="#ADD1B2" rx="7.7" ry="7.7" style="stroke:#181818;stroke-width:0.6999999999999998;"/><path d="M1642.204,384.7484 Q1641.7993,384.9562 1641.3509,385.0547 Q1640.9024,385.1641 1640.4102,385.1641 Q1638.6602,385.1641 1637.7305,384.0156 Q1636.8118,382.8562 1636.8118,380.6687 Q1636.8118,378.4812 1637.7305,377.3219 Q1638.6602,376.1625 1640.4102,376.1625 Q1640.9024,376.1625 1641.3509,376.2719 Q1641.8102,376.3812 1642.204,376.5891 L1642.204,378.4922 Q1641.7665,378.0875 1641.3509,377.9016 Q1640.9352,377.7047 1640.4977,377.7047 Q1639.5571,377.7047 1639.0759,378.4594 Q1638.5946,379.2031 1638.5946,380.6687 Q1638.5946,382.1344 1639.0759,382.8891 Q1639.5571,383.6328 1640.4977,383.6328 Q1640.9352,383.6328 1641.3509,383.4469 Q1641.7665,383.25 1642.204,382.8453 L1642.204,384.7484 Z " fill="#000000"/><text fill="#000000" font-family="sans-serif" font-size="9.8" lengthAdjust="spacing" textLength="96.3336" x="1654.4759" y="384.6024">ShowRequestFactory</text><line style="stroke:#181818;stroke-width:0.3499999999999999;" x1="1219.05" x2="2163.4854" y1="392" y2="392"/><line style="stroke:#181818;stroke-width:0.3499999999999999;" x1="1219.05" x2="2163.4854" y1="397.6" y2="397.6"/><text fill="#000000" font-family="sans-serif" font-size="9.8" lengthAdjust="spacing" textLength="937.4354" x="1222.55" y="410.8762">+registerShowRequest(loc: Location, date: LocalDateTime, numDrones: int, duration: Duration, desc: Description, figs: List&lt;Figure&gt;, costumer: Costumer, time: LocalDateTime, author: Email) : ShowRequest</text></g><!--class Repositories--><g id="elem_Repositories"><rect codeLine="44" fill="#F1F1F1" height="100.3377" id="Repositories" rx="1.75" ry="1.75" style="stroke:#181818;stroke-width:0.3499999999999999;" width="276.9582" x="585.2" y="343"/><ellipse cx="692.1715" cy="354.2" fill="#ADD1B2" rx="7.7" ry="7.7" style="stroke:#181818;stroke-width:0.6999999999999998;"/><path d="M694.2496,358.1484 Q693.8449,358.3562 693.3965,358.4547 Q692.9481,358.5641 692.4559,358.5641 Q690.7059,358.5641 689.7762,357.4156 Q688.8574,356.2562 688.8574,354.0687 Q688.8574,351.8812 689.7762,350.7219 Q690.7059,349.5625 692.4559,349.5625 Q692.9481,349.5625 693.3965,349.6719 Q693.8559,349.7812 694.2496,349.9891 L694.2496,351.8922 Q693.8121,351.4875 693.3965,351.3016 Q692.9809,351.1047 692.5434,351.1047 Q691.6027,351.1047 691.1215,351.8594 Q690.6402,352.6031 690.6402,354.0687 Q690.6402,355.5344 691.1215,356.2891 Q691.6027,357.0328 692.5434,357.0328 Q692.9809,357.0328 693.3965,356.8469 Q693.8121,356.65 694.2496,356.2453 L694.2496,358.1484 Z " fill="#000000"/><text fill="#000000" font-family="sans-serif" font-size="9.8" lengthAdjust="spacing" textLength="57.0652" x="706.5215" y="358.0024">Repositories</text><line style="stroke:#181818;stroke-width:0.3499999999999999;" x1="585.9" x2="861.4582" y1="365.4" y2="365.4"/><line style="stroke:#181818;stroke-width:0.3499999999999999;" x1="585.9" x2="861.4582" y1="371" y2="371"/><text fill="#000000" font-family="sans-serif" font-size="9.8" lengthAdjust="spacing" textLength="66.1007" x="589.4" y="384.2762">-Repositories()</text><text fill="#000000" font-family="sans-serif" font-size="9.8" lengthAdjust="spacing" textLength="130.7609" x="589.4" y="397.6237">+getInstance() : Repositories</text><text fill="#000000" font-family="sans-serif" font-size="9.8" lengthAdjust="spacing" textLength="268.5582" x="589.4" y="410.9712">+getAuthenticationRepository() : AuthenticationRepository</text><text fill="#000000" font-family="sans-serif" font-size="9.8" lengthAdjust="spacing" textLength="191.4717" x="589.4" y="424.3188">+getFigureRepository() : FigureRepository</text><text fill="#000000" font-family="sans-serif" font-size="9.8" lengthAdjust="spacing" textLength="257.9938" x="589.4" y="437.6663">+getShowRequestRepository() : ShowRequestRepository</text></g><!--class AuthenticationRepository--><g id="elem_AuthenticationRepository"><rect codeLine="52" fill="#F1F1F1" height="60.2951" id="AuthenticationRepository" rx="1.75" ry="1.75" style="stroke:#181818;stroke-width:0.3499999999999999;" width="206.222" x="620.55" y="485.1"/><ellipse cx="662.1214" cy="496.3" fill="#ADD1B2" rx="7.7" ry="7.7" style="stroke:#181818;stroke-width:0.6999999999999998;"/><path d="M664.1996,500.2484 Q663.7949,500.4562 663.3464,500.5547 Q662.898,500.6641 662.4058,500.6641 Q660.6558,500.6641 659.7261,499.5156 Q658.8074,498.3562 658.8074,496.1687 Q658.8074,493.9812 659.7261,492.8219 Q660.6558,491.6625 662.4058,491.6625 Q662.898,491.6625 663.3464,491.7719 Q663.8058,491.8812 664.1996,492.0891 L664.1996,493.9922 Q663.7621,493.5875 663.3464,493.4016 Q662.9308,493.2047 662.4933,493.2047 Q661.5527,493.2047 661.0714,493.9594 Q660.5902,494.7031 660.5902,496.1687 Q660.5902,497.6344 661.0714,498.3891 Q661.5527,499.1328 662.4933,499.1328 Q662.9308,499.1328 663.3464,498.9469 Q663.7621,498.75 664.1996,498.3453 L664.1996,500.2484 Z " fill="#000000"/><text fill="#000000" font-family="sans-serif" font-size="9.8" lengthAdjust="spacing" textLength="117.1292" x="676.4714" y="500.1024">AuthenticationRepository</text><line style="stroke:#181818;stroke-width:0.3499999999999999;" x1="621.25" x2="826.072" y1="507.5" y2="507.5"/><line style="stroke:#181818;stroke-width:0.3499999999999999;" x1="621.25" x2="826.072" y1="513.1" y2="513.1"/><text fill="#000000" font-family="sans-serif" font-size="9.8" lengthAdjust="spacing" textLength="197.822" x="624.75" y="526.3762">+getMyActiveCustomers() : List&lt;Costumer&gt;</text><text fill="#000000" font-family="sans-serif" font-size="9.8" lengthAdjust="spacing" textLength="182.2499" x="624.75" y="539.7237">+getCurrentUserSession() : UserSession</text></g><!--class FigureRepository--><g id="elem_FigureRepository"><rect codeLine="57" fill="#F1F1F1" height="46.9475" id="FigureRepository" rx="1.75" ry="1.75" style="stroke:#181818;stroke-width:0.3499999999999999;" width="303.9865" x="291.9" y="491.75"/><ellipse cx="401.6253" cy="502.95" fill="#ADD1B2" rx="7.7" ry="7.7" style="stroke:#181818;stroke-width:0.6999999999999998;"/><path d="M403.7034,506.8984 Q403.2988,507.1062 402.8503,507.2047 Q402.4019,507.3141 401.9097,507.3141 Q400.1597,507.3141 399.23,506.1656 Q398.3113,505.0062 398.3113,502.8187 Q398.3113,500.6312 399.23,499.4719 Q400.1597,498.3125 401.9097,498.3125 Q402.4019,498.3125 402.8503,498.4219 Q403.3097,498.5312 403.7034,498.7391 L403.7034,500.6422 Q403.2659,500.2375 402.8503,500.0516 Q402.4347,499.8547 401.9972,499.8547 Q401.0566,499.8547 400.5753,500.6094 Q400.0941,501.3531 400.0941,502.8187 Q400.0941,504.2844 400.5753,505.0391 Q401.0566,505.7828 401.9972,505.7828 Q402.4347,505.7828 402.8503,505.5969 Q403.2659,505.4 403.7034,504.9953 L403.7034,506.8984 Z " fill="#000000"/><text fill="#000000" font-family="sans-serif" font-size="9.8" lengthAdjust="spacing" textLength="78.5859" x="415.9753" y="506.7524">FigureRepository</text><line style="stroke:#181818;stroke-width:0.3499999999999999;" x1="292.6" x2="595.1865" y1="514.15" y2="514.15"/><line style="stroke:#181818;stroke-width:0.3499999999999999;" x1="292.6" x2="595.1865" y1="519.75" y2="519.75"/><text fill="#000000" font-family="sans-serif" font-size="9.8" lengthAdjust="spacing" textLength="295.5865" x="296.1" y="533.0262">+getAvailableFiguresForCustomer(id: CostumerID) : List&lt;Figure&gt;</text></g><!--class ShowRequestRepository--><g id="elem_ShowRequestRepository"><rect codeLine="61" fill="#F1F1F1" height="46.9475" id="ShowRequestRepository" rx="1.75" ry="1.75" style="stroke:#181818;stroke-width:0.3499999999999999;" width="194.1779" x="954.45" y="491.75"/><ellipse cx="992.6405" cy="502.95" fill="#ADD1B2" rx="7.7" ry="7.7" style="stroke:#181818;stroke-width:0.6999999999999998;"/><path d="M994.7186,506.8984 Q994.3139,507.1062 993.8655,507.2047 Q993.417,507.3141 992.9248,507.3141 Q991.1748,507.3141 990.2451,506.1656 Q989.3264,505.0062 989.3264,502.8187 Q989.3264,500.6312 990.2451,499.4719 Q991.1748,498.3125 992.9248,498.3125 Q993.417,498.3125 993.8655,498.4219 Q994.3248,498.5312 994.7186,498.7391 L994.7186,500.6422 Q994.2811,500.2375 993.8655,500.0516 Q993.4498,499.8547 993.0123,499.8547 Q992.0717,499.8547 991.5905,500.6094 Q991.1092,501.3531 991.1092,502.8187 Q991.1092,504.2844 991.5905,505.0391 Q992.0717,505.7828 993.0123,505.7828 Q993.4498,505.7828 993.8655,505.5969 Q994.2811,505.4 994.7186,504.9953 L994.7186,506.8984 Z " fill="#000000"/><text fill="#000000" font-family="sans-serif" font-size="9.8" lengthAdjust="spacing" textLength="111.847" x="1006.9905" y="506.7524">ShowRequestRepository</text><line style="stroke:#181818;stroke-width:0.3499999999999999;" x1="955.15" x2="1147.9279" y1="514.15" y2="514.15"/><line style="stroke:#181818;stroke-width:0.3499999999999999;" x1="955.15" x2="1147.9279" y1="519.75" y2="519.75"/><text fill="#000000" font-family="sans-serif" font-size="9.8" lengthAdjust="spacing" textLength="185.7779" x="958.65" y="533.0262">+add(showRequest: ShowRequest) : void</text></g><!--class ShowRequest--><g id="elem_ShowRequest"><rect codeLine="66" fill="#F1F1F1" height="46.9475" id="ShowRequest" rx="1.75" ry="1.75" style="stroke:#181818;stroke-width:0.3499999999999999;" width="126.8619" x="1196.65" y="491.75"/><ellipse cx="1226.0178" cy="502.95" fill="#ADD1B2" rx="7.7" ry="7.7" style="stroke:#181818;stroke-width:0.6999999999999998;"/><path d="M1228.0959,506.8984 Q1227.6912,507.1062 1227.2428,507.2047 Q1226.7943,507.3141 1226.3021,507.3141 Q1224.5521,507.3141 1223.6225,506.1656 Q1222.7037,505.0062 1222.7037,502.8187 Q1222.7037,500.6312 1223.6225,499.4719 Q1224.5521,498.3125 1226.3021,498.3125 Q1226.7943,498.3125 1227.2428,498.4219 Q1227.7021,498.5312 1228.0959,498.7391 L1228.0959,500.6422 Q1227.6584,500.2375 1227.2428,500.0516 Q1226.8271,499.8547 1226.3896,499.8547 Q1225.449,499.8547 1224.9678,500.6094 Q1224.4865,501.3531 1224.4865,502.8187 Q1224.4865,504.2844 1224.9678,505.0391 Q1225.449,505.7828 1226.3896,505.7828 Q1226.8271,505.7828 1227.2428,505.5969 Q1227.6584,505.4 1228.0959,504.9953 L1228.0959,506.8984 Z " fill="#000000"/><text fill="#000000" font-family="sans-serif" font-size="9.8" lengthAdjust="spacing" textLength="62.5336" x="1240.0106" y="506.7524">ShowRequest</text><line style="stroke:#181818;stroke-width:0.3499999999999999;" x1="1197.35" x2="1322.8119" y1="514.15" y2="514.15"/><line style="stroke:#181818;stroke-width:0.3499999999999999;" x1="1197.35" x2="1322.8119" y1="519.75" y2="519.75"/><text fill="#000000" font-family="sans-serif" font-size="9.8" lengthAdjust="spacing" textLength="118.4619" x="1200.85" y="533.0262">+create(...) : ShowRequest</text></g><!--class Costumer--><g id="elem_Costumer"><rect codeLine="70" fill="#F1F1F1" height="33.6" id="Costumer" rx="1.75" ry="1.75" style="stroke:#181818;stroke-width:0.3499999999999999;" width="67.5484" x="833.7" y="776.65"/><ellipse cx="844.2" cy="787.85" fill="#ADD1B2" rx="7.7" ry="7.7" style="stroke:#181818;stroke-width:0.6999999999999998;"/><path d="M846.2781,791.7984 Q845.8734,792.0062 845.425,792.1047 Q844.9766,792.2141 844.4844,792.2141 Q842.7344,792.2141 841.8047,791.0656 Q840.8859,789.9062 840.8859,787.7187 Q840.8859,785.5312 841.8047,784.3719 Q842.7344,783.2125 844.4844,783.2125 Q844.9766,783.2125 845.425,783.3219 Q845.8844,783.4312 846.2781,783.6391 L846.2781,785.5422 Q845.8406,785.1375 845.425,784.9516 Q845.0094,784.7547 844.5719,784.7547 Q843.6312,784.7547 843.15,785.5094 Q842.6687,786.2531 842.6687,787.7187 Q842.6687,789.1844 843.15,789.9391 Q843.6312,790.6828 844.5719,790.6828 Q845.0094,790.6828 845.425,790.4969 Q845.8406,790.3 846.2781,789.8953 L846.2781,791.7984 Z " fill="#000000"/><text fill="#000000" font-family="sans-serif" font-size="9.8" lengthAdjust="spacing" textLength="45.1484" x="854" y="791.6524">Costumer</text><line style="stroke:#181818;stroke-width:0.3499999999999999;" x1="834.4" x2="900.5484" y1="799.05" y2="799.05"/><line style="stroke:#181818;stroke-width:0.3499999999999999;" x1="834.4" x2="900.5484" y1="804.65" y2="804.65"/></g><!--class Figure--><g id="elem_Figure"><rect codeLine="71" fill="#F1F1F1" height="140.3803" id="Figure" rx="1.75" ry="1.75" style="stroke:#181818;stroke-width:0.3499999999999999;" width="144.1197" x="1069.6" y="587.3"/><ellipse cx="1124.0486" cy="598.5" fill="#ADD1B2" rx="7.7" ry="7.7" style="stroke:#181818;stroke-width:0.6999999999999998;"/><path d="M1126.1267,602.4484 Q1125.722,602.6562 1125.2736,602.7547 Q1124.8252,602.8641 1124.333,602.8641 Q1122.583,602.8641 1121.6533,601.7156 Q1120.7345,600.5562 1120.7345,598.3687 Q1120.7345,596.1812 1121.6533,595.0219 Q1122.583,593.8625 1124.333,593.8625 Q1124.8252,593.8625 1125.2736,593.9719 Q1125.733,594.0812 1126.1267,594.2891 L1126.1267,596.1922 Q1125.6892,595.7875 1125.2736,595.6016 Q1124.858,595.4047 1124.4205,595.4047 Q1123.4798,595.4047 1122.9986,596.1594 Q1122.5173,596.9031 1122.5173,598.3687 Q1122.5173,599.8344 1122.9986,600.5891 Q1123.4798,601.3328 1124.4205,601.3328 Q1124.858,601.3328 1125.2736,601.1469 Q1125.6892,600.95 1126.1267,600.5453 L1126.1267,602.4484 Z " fill="#000000"/><text fill="#000000" font-family="sans-serif" font-size="9.8" lengthAdjust="spacing" textLength="29.2725" x="1138.3986" y="602.3024">Figure</text><line style="stroke:#181818;stroke-width:0.3499999999999999;" x1="1070.3" x2="1213.0197" y1="609.7" y2="609.7"/><text fill="#000000" font-family="sans-serif" font-size="9.8" lengthAdjust="spacing" textLength="68.3841" x="1073.8" y="622.9762">-figureId: Long</text><text fill="#000000" font-family="sans-serif" font-size="9.8" lengthAdjust="spacing" textLength="62.1514" x="1073.8" y="636.3237">-name: String</text><text fill="#000000" font-family="sans-serif" font-size="9.8" lengthAdjust="spacing" textLength="112.6702" x="1073.8" y="649.6712">-description: Description</text><text fill="#000000" font-family="sans-serif" font-size="9.8" lengthAdjust="spacing" textLength="65.2383" x="1073.8" y="663.0188">-version: Long</text><text fill="#000000" font-family="sans-serif" font-size="9.8" lengthAdjust="spacing" textLength="119.6281" x="1073.8" y="676.3663">-category: FigureCategory</text><text fill="#000000" font-family="sans-serif" font-size="9.8" lengthAdjust="spacing" textLength="135.7197" x="1073.8" y="689.7139">-availability: FigureAvailability</text><text fill="#000000" font-family="sans-serif" font-size="9.8" lengthAdjust="spacing" textLength="94.3247" x="1073.8" y="703.0614">-status: FigureStatus</text><text fill="#000000" font-family="sans-serif" font-size="9.8" lengthAdjust="spacing" textLength="97.1372" x="1073.8" y="716.4089">-costumer: Costumer</text><line style="stroke:#181818;stroke-width:0.3499999999999999;" x1="1070.3" x2="1213.0197" y1="722.0803" y2="722.0803"/></g><!--class FigureCategory--><g id="elem_FigureCategory"><rect codeLine="82" fill="#F1F1F1" height="33.6" id="FigureCategory" rx="1.75" ry="1.75" style="stroke:#181818;stroke-width:0.3499999999999999;" width="93.4301" x="1156.05" y="776.65"/><ellipse cx="1166.55" cy="787.85" fill="#ADD1B2" rx="7.7" ry="7.7" style="stroke:#181818;stroke-width:0.6999999999999998;"/><path d="M1168.6281,791.7984 Q1168.2234,792.0062 1167.775,792.1047 Q1167.3266,792.2141 1166.8344,792.2141 Q1165.0844,792.2141 1164.1547,791.0656 Q1163.2359,789.9062 1163.2359,787.7187 Q1163.2359,785.5312 1164.1547,784.3719 Q1165.0844,783.2125 1166.8344,783.2125 Q1167.3266,783.2125 1167.775,783.3219 Q1168.2344,783.4312 1168.6281,783.6391 L1168.6281,785.5422 Q1168.1906,785.1375 1167.775,784.9516 Q1167.3594,784.7547 1166.9219,784.7547 Q1165.9812,784.7547 1165.5,785.5094 Q1165.0187,786.2531 1165.0187,787.7187 Q1165.0187,789.1844 1165.5,789.9391 Q1165.9812,790.6828 1166.9219,790.6828 Q1167.3594,790.6828 1167.775,790.4969 Q1168.1906,790.3 1168.6281,789.8953 L1168.6281,791.7984 Z " fill="#000000"/><text fill="#000000" font-family="sans-serif" font-size="9.8" lengthAdjust="spacing" textLength="71.0301" x="1176.35" y="791.6524">FigureCategory</text><line style="stroke:#181818;stroke-width:0.3499999999999999;" x1="1156.75" x2="1248.7801" y1="799.05" y2="799.05"/><line style="stroke:#181818;stroke-width:0.3499999999999999;" x1="1156.75" x2="1248.7801" y1="804.65" y2="804.65"/></g><!--class FigureAvailability--><g id="elem_FigureAvailability"><rect codeLine="83" fill="#F1F1F1" height="33.6" id="FigureAvailability" rx="1.75" ry="1.75" style="stroke:#181818;stroke-width:0.3499999999999999;" width="101.1133" x="925.4" y="776.65"/><ellipse cx="935.9" cy="787.85" fill="#ADD1B2" rx="7.7" ry="7.7" style="stroke:#181818;stroke-width:0.6999999999999998;"/><path d="M937.9781,791.7984 Q937.5734,792.0062 937.125,792.1047 Q936.6766,792.2141 936.1844,792.2141 Q934.4344,792.2141 933.5047,791.0656 Q932.5859,789.9062 932.5859,787.7187 Q932.5859,785.5312 933.5047,784.3719 Q934.4344,783.2125 936.1844,783.2125 Q936.6766,783.2125 937.125,783.3219 Q937.5844,783.4312 937.9781,783.6391 L937.9781,785.5422 Q937.5406,785.1375 937.125,784.9516 Q936.7094,784.7547 936.2719,784.7547 Q935.3312,784.7547 934.85,785.5094 Q934.3687,786.2531 934.3687,787.7187 Q934.3687,789.1844 934.85,789.9391 Q935.3312,790.6828 936.2719,790.6828 Q936.7094,790.6828 937.125,790.4969 Q937.5406,790.3 937.9781,789.8953 L937.9781,791.7984 Z " fill="#000000"/><text fill="#000000" font-family="sans-serif" font-size="9.8" lengthAdjust="spacing" textLength="78.7133" x="945.7" y="791.6524">FigureAvailability</text><line style="stroke:#181818;stroke-width:0.3499999999999999;" x1="926.1" x2="1025.8133" y1="799.05" y2="799.05"/><line style="stroke:#181818;stroke-width:0.3499999999999999;" x1="926.1" x2="1025.8133" y1="804.65" y2="804.65"/></g><!--class FigureStatus--><g id="elem_FigureStatus"><rect codeLine="84" fill="#F1F1F1" height="33.6" id="FigureStatus" rx="1.75" ry="1.75" style="stroke:#181818;stroke-width:0.3499999999999999;" width="80.3766" x="1051.05" y="776.65"/><ellipse cx="1061.55" cy="787.85" fill="#ADD1B2" rx="7.7" ry="7.7" style="stroke:#181818;stroke-width:0.6999999999999998;"/><path d="M1063.6281,791.7984 Q1063.2234,792.0062 1062.775,792.1047 Q1062.3266,792.2141 1061.8344,792.2141 Q1060.0844,792.2141 1059.1547,791.0656 Q1058.2359,789.9062 1058.2359,787.7187 Q1058.2359,785.5312 1059.1547,784.3719 Q1060.0844,783.2125 1061.8344,783.2125 Q1062.3266,783.2125 1062.775,783.3219 Q1063.2344,783.4312 1063.6281,783.6391 L1063.6281,785.5422 Q1063.1906,785.1375 1062.775,784.9516 Q1062.3594,784.7547 1061.9219,784.7547 Q1060.9812,784.7547 1060.5,785.5094 Q1060.0187,786.2531 1060.0187,787.7187 Q1060.0187,789.1844 1060.5,789.9391 Q1060.9812,790.6828 1061.9219,790.6828 Q1062.3594,790.6828 1062.775,790.4969 Q1063.1906,790.3 1063.6281,789.8953 L1063.6281,791.7984 Z " fill="#000000"/><text fill="#000000" font-family="sans-serif" font-size="9.8" lengthAdjust="spacing" textLength="57.9766" x="1071.35" y="791.6524">FigureStatus</text><line style="stroke:#181818;stroke-width:0.3499999999999999;" x1="1051.75" x2="1130.7266" y1="799.05" y2="799.05"/><line style="stroke:#181818;stroke-width:0.3499999999999999;" x1="1051.75" x2="1130.7266" y1="804.65" y2="804.65"/></g><!--class Location--><g id="elem_Location"><rect codeLine="86" fill="#F1F1F1" height="86.9902" id="Location" rx="1.75" ry="1.75" style="stroke:#181818;stroke-width:0.3499999999999999;" width="95.9137" x="1297.45" y="614.25"/><ellipse cx="1323.3383" cy="625.45" fill="#ADD1B2" rx="7.7" ry="7.7" style="stroke:#181818;stroke-width:0.6999999999999998;"/><path d="M1325.4164,629.3984 Q1325.0117,629.6062 1324.5633,629.7047 Q1324.1149,629.8141 1323.6227,629.8141 Q1321.8727,629.8141 1320.943,628.6656 Q1320.0242,627.5062 1320.0242,625.3187 Q1320.0242,623.1312 1320.943,621.9719 Q1321.8727,620.8125 1323.6227,620.8125 Q1324.1149,620.8125 1324.5633,620.9219 Q1325.0227,621.0312 1325.4164,621.2391 L1325.4164,623.1422 Q1324.9789,622.7375 1324.5633,622.5516 Q1324.1477,622.3547 1323.7102,622.3547 Q1322.7695,622.3547 1322.2883,623.1094 Q1321.807,623.8531 1321.807,625.3187 Q1321.807,626.7844 1322.2883,627.5391 Q1322.7695,628.2828 1323.7102,628.2828 Q1324.1477,628.2828 1324.5633,628.0969 Q1324.9789,627.9 1325.4164,627.4953 L1325.4164,629.3984 Z " fill="#000000"/><text fill="#000000" font-family="sans-serif" font-size="9.8" lengthAdjust="spacing" textLength="39.3174" x="1336.5579" y="629.2524">Location</text><line style="stroke:#181818;stroke-width:0.3499999999999999;" x1="1298.15" x2="1392.6637" y1="636.65" y2="636.65"/><text fill="#000000" font-family="sans-serif" font-size="9.8" lengthAdjust="spacing" textLength="82.1237" x="1301.65" y="649.9262">-address: Address</text><text fill="#000000" font-family="sans-serif" font-size="9.8" lengthAdjust="spacing" textLength="75.6655" x="1301.65" y="663.2737">-latitude: double</text><text fill="#000000" font-family="sans-serif" font-size="9.8" lengthAdjust="spacing" textLength="84.6423" x="1301.65" y="676.6212">-longitude: double</text><text fill="#000000" font-family="sans-serif" font-size="9.8" lengthAdjust="spacing" textLength="87.5137" x="1301.65" y="689.9688">-description: String</text><line style="stroke:#181818;stroke-width:0.3499999999999999;" x1="1298.15" x2="1392.6637" y1="695.6402" y2="695.6402"/></g><!--class Address--><g id="elem_Address"><rect codeLine="93" fill="#F1F1F1" height="33.6" id="Address" rx="1.75" ry="1.75" style="stroke:#181818;stroke-width:0.3499999999999999;" width="59.6791" x="1373.05" y="776.65"/><ellipse cx="1383.55" cy="787.85" fill="#ADD1B2" rx="7.7" ry="7.7" style="stroke:#181818;stroke-width:0.6999999999999998;"/><path d="M1385.6281,791.7984 Q1385.2234,792.0062 1384.775,792.1047 Q1384.3266,792.2141 1383.8344,792.2141 Q1382.0844,792.2141 1381.1547,791.0656 Q1380.2359,789.9062 1380.2359,787.7187 Q1380.2359,785.5312 1381.1547,784.3719 Q1382.0844,783.2125 1383.8344,783.2125 Q1384.3266,783.2125 1384.775,783.3219 Q1385.2344,783.4312 1385.6281,783.6391 L1385.6281,785.5422 Q1385.1906,785.1375 1384.775,784.9516 Q1384.3594,784.7547 1383.9219,784.7547 Q1382.9812,784.7547 1382.5,785.5094 Q1382.0187,786.2531 1382.0187,787.7187 Q1382.0187,789.1844 1382.5,789.9391 Q1382.9812,790.6828 1383.9219,790.6828 Q1384.3594,790.6828 1384.775,790.4969 Q1385.1906,790.3 1385.6281,789.8953 L1385.6281,791.7984 Z " fill="#000000"/><text fill="#000000" font-family="sans-serif" font-size="9.8" lengthAdjust="spacing" textLength="37.2791" x="1393.35" y="791.6524">Address</text><line style="stroke:#181818;stroke-width:0.3499999999999999;" x1="1373.75" x2="1432.0291" y1="799.05" y2="799.05"/><line style="stroke:#181818;stroke-width:0.3499999999999999;" x1="1373.75" x2="1432.0291" y1="804.65" y2="804.65"/></g><!--class Description--><g id="elem_Description"><rect codeLine="94" fill="#F1F1F1" height="33.6" id="Description" rx="1.75" ry="1.75" style="stroke:#181818;stroke-width:0.3499999999999999;" width="75.1336" x="1273.65" y="776.65"/><ellipse cx="1284.15" cy="787.85" fill="#ADD1B2" rx="7.7" ry="7.7" style="stroke:#181818;stroke-width:0.6999999999999998;"/><path d="M1286.2281,791.7984 Q1285.8234,792.0062 1285.375,792.1047 Q1284.9266,792.2141 1284.4344,792.2141 Q1282.6844,792.2141 1281.7547,791.0656 Q1280.8359,789.9062 1280.8359,787.7187 Q1280.8359,785.5312 1281.7547,784.3719 Q1282.6844,783.2125 1284.4344,783.2125 Q1284.9266,783.2125 1285.375,783.3219 Q1285.8344,783.4312 1286.2281,783.6391 L1286.2281,785.5422 Q1285.7906,785.1375 1285.375,784.9516 Q1284.9594,784.7547 1284.5219,784.7547 Q1283.5812,784.7547 1283.1,785.5094 Q1282.6187,786.2531 1282.6187,787.7187 Q1282.6187,789.1844 1283.1,789.9391 Q1283.5812,790.6828 1284.5219,790.6828 Q1284.9594,790.6828 1285.375,790.4969 Q1285.7906,790.3 1286.2281,789.8953 L1286.2281,791.7984 Z " fill="#000000"/><text fill="#000000" font-family="sans-serif" font-size="9.8" lengthAdjust="spacing" textLength="52.7336" x="1293.95" y="791.6524">Description</text><line style="stroke:#181818;stroke-width:0.3499999999999999;" x1="1274.35" x2="1348.0836" y1="799.05" y2="799.05"/><line style="stroke:#181818;stroke-width:0.3499999999999999;" x1="1274.35" x2="1348.0836" y1="804.65" y2="804.65"/></g><!--class Duration--><g id="elem_Duration"><rect codeLine="95" fill="#F1F1F1" height="33.6" id="Duration" rx="1.75" ry="1.75" style="stroke:#181818;stroke-width:0.3499999999999999;" width="63.207" x="1418.2" y="640.85"/><ellipse cx="1428.7" cy="652.05" fill="#ADD1B2" rx="7.7" ry="7.7" style="stroke:#181818;stroke-width:0.6999999999999998;"/><path d="M1430.7781,655.9984 Q1430.3734,656.2062 1429.925,656.3047 Q1429.4766,656.4141 1428.9844,656.4141 Q1427.2344,656.4141 1426.3047,655.2656 Q1425.3859,654.1062 1425.3859,651.9187 Q1425.3859,649.7312 1426.3047,648.5719 Q1427.2344,647.4125 1428.9844,647.4125 Q1429.4766,647.4125 1429.925,647.5219 Q1430.3844,647.6312 1430.7781,647.8391 L1430.7781,649.7422 Q1430.3406,649.3375 1429.925,649.1516 Q1429.5094,648.9547 1429.0719,648.9547 Q1428.1312,648.9547 1427.65,649.7094 Q1427.1687,650.4531 1427.1687,651.9187 Q1427.1687,653.3844 1427.65,654.1391 Q1428.1312,654.8828 1429.0719,654.8828 Q1429.5094,654.8828 1429.925,654.6969 Q1430.3406,654.5 1430.7781,654.0953 L1430.7781,655.9984 Z " fill="#000000"/><text fill="#000000" font-family="sans-serif" font-size="9.8" lengthAdjust="spacing" textLength="40.807" x="1438.5" y="655.8524">Duration</text><line style="stroke:#181818;stroke-width:0.3499999999999999;" x1="1418.9" x2="1480.707" y1="663.25" y2="663.25"/><line style="stroke:#181818;stroke-width:0.3499999999999999;" x1="1418.9" x2="1480.707" y1="668.85" y2="668.85"/></g><!--class UserSession--><g id="elem_UserSession"><rect codeLine="97" fill="#F1F1F1" height="46.9475" id="UserSession" rx="1.75" ry="1.75" style="stroke:#181818;stroke-width:0.3499999999999999;" width="98.6479" x="488.25" y="634.2"/><ellipse cx="507.7526" cy="645.4" fill="#ADD1B2" rx="7.7" ry="7.7" style="stroke:#181818;stroke-width:0.6999999999999998;"/><path d="M509.8308,649.3484 Q509.4261,649.5562 508.9776,649.6547 Q508.5292,649.7641 508.037,649.7641 Q506.287,649.7641 505.3573,648.6156 Q504.4386,647.4562 504.4386,645.2687 Q504.4386,643.0812 505.3573,641.9219 Q506.287,640.7625 508.037,640.7625 Q508.5292,640.7625 508.9776,640.8719 Q509.437,640.9812 509.8308,641.1891 L509.8308,643.0922 Q509.3933,642.6875 508.9776,642.5016 Q508.562,642.3047 508.1245,642.3047 Q507.1839,642.3047 506.7026,643.0594 Q506.2214,643.8031 506.2214,645.2687 Q506.2214,646.7344 506.7026,647.4891 Q507.1839,648.2328 508.1245,648.2328 Q508.562,648.2328 508.9776,648.0469 Q509.3933,647.85 509.8308,647.4453 L509.8308,649.3484 Z " fill="#000000"/><text fill="#000000" font-family="sans-serif" font-size="9.8" lengthAdjust="spacing" textLength="56.242" x="519.5532" y="649.2024">UserSession</text><line style="stroke:#181818;stroke-width:0.3499999999999999;" x1="488.95" x2="586.1979" y1="656.6" y2="656.6"/><line style="stroke:#181818;stroke-width:0.3499999999999999;" x1="488.95" x2="586.1979" y1="662.2" y2="662.2"/><text fill="#000000" font-family="sans-serif" font-size="9.8" lengthAdjust="spacing" textLength="90.2479" x="492.45" y="675.4762">+getUserId() : Email</text></g><!--class Email--><g id="elem_Email"><rect codeLine="101" fill="#F1F1F1" height="46.9475" id="Email" rx="1.75" ry="1.75" style="stroke:#181818;stroke-width:0.3499999999999999;" width="95.4433" x="118.3" y="770"/><ellipse cx="150.4635" cy="781.2" fill="#ADD1B2" rx="7.7" ry="7.7" style="stroke:#181818;stroke-width:0.6999999999999998;"/><path d="M152.5416,785.1484 Q152.1369,785.3562 151.6885,785.4547 Q151.24,785.5641 150.7479,785.5641 Q148.9979,785.5641 148.0682,784.4156 Q147.1494,783.2562 147.1494,781.0687 Q147.1494,778.8812 148.0682,777.7219 Q148.9979,776.5625 150.7479,776.5625 Q151.24,776.5625 151.6885,776.6719 Q152.1479,776.7812 152.5416,776.9891 L152.5416,778.8922 Q152.1041,778.4875 151.6885,778.3016 Q151.2729,778.1047 150.8354,778.1047 Q149.8947,778.1047 149.4135,778.8594 Q148.9322,779.6031 148.9322,781.0687 Q148.9322,782.5344 149.4135,783.2891 Q149.8947,784.0328 150.8354,784.0328 Q151.2729,784.0328 151.6885,783.8469 Q152.1041,783.65 152.5416,783.2453 L152.5416,785.1484 Z " fill="#000000"/><text fill="#000000" font-family="sans-serif" font-size="9.8" lengthAdjust="spacing" textLength="25.1663" x="164.8135" y="785.0024">Email</text><line style="stroke:#181818;stroke-width:0.3499999999999999;" x1="119" x2="213.0433" y1="792.4" y2="792.4"/><line style="stroke:#181818;stroke-width:0.3499999999999999;" x1="119" x2="213.0433" y1="798" y2="798"/><text fill="#000000" font-family="sans-serif" font-size="9.8" lengthAdjust="spacing" textLength="87.0433" x="122.5" y="811.2762">+getEmail() : String</text></g><!--class LocalDateTime--><g id="elem_LocalDateTime"><rect codeLine="105" fill="#F1F1F1" height="46.9475" id="LocalDateTime" rx="1.75" ry="1.75" style="stroke:#181818;stroke-width:0.3499999999999999;" width="115.4744" x="345.45" y="369.6"/><ellipse cx="367.1532" cy="380.8" fill="#ADD1B2" rx="7.7" ry="7.7" style="stroke:#181818;stroke-width:0.6999999999999998;"/><path d="M369.2313,384.7484 Q368.8267,384.9562 368.3782,385.0547 Q367.9298,385.1641 367.4376,385.1641 Q365.6876,385.1641 364.7579,384.0156 Q363.8392,382.8562 363.8392,380.6687 Q363.8392,378.4812 364.7579,377.3219 Q365.6876,376.1625 367.4376,376.1625 Q367.9298,376.1625 368.3782,376.2719 Q368.8376,376.3812 369.2313,376.5891 L369.2313,378.4922 Q368.7938,378.0875 368.3782,377.9016 Q367.9626,377.7047 367.5251,377.7047 Q366.5845,377.7047 366.1032,378.4594 Q365.622,379.2031 365.622,380.6687 Q365.622,382.1344 366.1032,382.8891 Q366.5845,383.6328 367.5251,383.6328 Q367.9626,383.6328 368.3782,383.4469 Q368.7938,383.25 369.2313,382.8453 L369.2313,384.7484 Z " fill="#000000"/><text fill="#000000" font-family="sans-serif" font-size="9.8" lengthAdjust="spacing" textLength="68.1783" x="379.4428" y="384.6024">LocalDateTime</text><line style="stroke:#181818;stroke-width:0.3499999999999999;" x1="346.15" x2="460.2244" y1="392" y2="392"/><line style="stroke:#181818;stroke-width:0.3499999999999999;" x1="346.15" x2="460.2244" y1="397.6" y2="397.6"/><text fill="#000000" font-family="sans-serif" font-size="9.8" lengthAdjust="spacing" textLength="107.0744" x="349.65" y="410.8762">+now() : LocalDateTime</text></g><!--link RegisterShowRequestUI to RegisterShowRequestController--><g id="link_RegisterShowRequestUI_RegisterShowRequestController"><path codeLine="110" d="M635.6,118.356 C635.6,131.782 635.6,142.072 635.6,156.03 " fill="none" id="RegisterShowRequestUI-to-RegisterShowRequestController" style="stroke:#181818;stroke-width:0.6999999999999998;"/><polygon fill="#181818" points="635.6,160.23,638.4,153.93,635.6,156.73,632.8,153.93,635.6,160.23" style="stroke:#181818;stroke-width:0.6999999999999998;"/></g><!--link RegisterShowRequestController to Repositories--><g id="link_RegisterShowRequestController_Repositories"><path codeLine="111" d="M673.771,301.028 C681.499,315.14 687.4617,326.0162 694.7067,339.2462 " fill="none" id="RegisterShowRequestController-to-Repositories" style="stroke:#181818;stroke-width:0.6999999999999998;"/><polygon fill="#181818" points="696.724,342.93,696.1539,336.0594,695.0429,339.8602,691.2421,338.7492,696.724,342.93" style="stroke:#181818;stroke-width:0.6999999999999998;"/></g><!--link RegisterShowRequestController to AuthenticationRepository--><g id="link_RegisterShowRequestController_AuthenticationRepository"><path codeLine="112" d="M596.239,301.105 C583.506,323.68 572.6,343 572.6,343 C572.6,343 572.6,443.1 572.6,443.1 C572.6,443.1 615.982,463.588 657.632,483.251 " fill="none" id="RegisterShowRequestController-to-AuthenticationRepository" style="stroke:#181818;stroke-width:0.6999999999999998;"/><polygon fill="#181818" points="661.43,485.044,656.9283,479.8224,658.265,483.5498,654.5376,484.8864,661.43,485.044" style="stroke:#181818;stroke-width:0.6999999999999998;"/></g><!--link RegisterShowRequestController to FigureRepository--><g id="link_RegisterShowRequestController_FigureRepository"><path codeLine="113" d="M588.315,301.161 C546.161,363.391 489.3318,447.2879 461.6118,488.2029 " fill="none" id="RegisterShowRequestController-to-FigureRepository" style="stroke:#181818;stroke-width:0.6999999999999998;"/><polygon fill="#181818" points="459.256,491.68,465.1077,488.0348,461.2191,488.7824,460.4716,484.8938,459.256,491.68" style="stroke:#181818;stroke-width:0.6999999999999998;"/></g><!--link RegisterShowRequestController to ShowRequestRepository--><g id="link_RegisterShowRequestController_ShowRequestRepository"><path codeLine="114" d="M929.166,301.028 C1024.394,323.631 1106,343 1106,343 C1106,343 1106,443.1 1106,443.1 C1106,443.1 1087.3555,467.4839 1071.3745,488.3789 " fill="none" id="RegisterShowRequestController-to-ShowRequestRepository" style="stroke:#181818;stroke-width:0.6999999999999998;"/><polygon fill="#181818" points="1068.823,491.715,1074.8744,488.4119,1070.9493,488.9349,1070.4262,485.0098,1068.823,491.715" style="stroke:#181818;stroke-width:0.6999999999999998;"/></g><!--link RegisterShowRequestController to ShowRequestFactory--><g id="link_RegisterShowRequestController_ShowRequestFactory"><path codeLine="115" d="M1004.241,287.574 C1189.048,315.763 1398.424,347.6936 1537.738,368.9456 " fill="none" id="RegisterShowRequestController-to-ShowRequestFactory" style="stroke:#181818;stroke-width:0.6999999999999998;"/><polygon fill="#181818" points="1541.89,369.579,1536.0843,365.861,1538.43,369.0512,1535.2398,371.3969,1541.89,369.579" style="stroke:#181818;stroke-width:0.6999999999999998;"/></g><!--link RegisterShowRequestController to LocalDateTime--><g id="link_RegisterShowRequestController_LocalDateTime"><path codeLine="116" d="M535.017,301.028 C499.562,325.591 465.5925,349.1273 439.7135,367.0543 " fill="none" id="RegisterShowRequestController-to-LocalDateTime" style="stroke:#181818;stroke-width:0.6999999999999998;"/><polygon fill="#181818" points="436.261,369.446,443.0342,368.1602,439.1381,367.453,439.8454,363.5568,436.261,369.446" style="stroke:#181818;stroke-width:0.6999999999999998;"/></g><!--link RegisterShowRequestController to Email--><g id="link_RegisterShowRequestController_Email"><path codeLine="117" d="M266.945,296.541 C128.583,321.006 4.2,343 4.2,343 C4.2,343 4.2,443.1 4.2,443.1 C4.2,443.1 117.5521,688.2079 153.5251,765.9989 " fill="none" id="RegisterShowRequestController-to-Email" style="stroke:#181818;stroke-width:0.6999999999999998;"/><polygon fill="#181818" points="155.288,769.811,155.1851,762.9176,153.819,766.6342,150.1023,765.268,155.288,769.811" style="stroke:#181818;stroke-width:0.6999999999999998;"/></g><!--link RegisterShowRequestController to ShowRequest--><g id="link_RegisterShowRequestController_ShowRequest"><path codeLine="118" d="M940.527,301.028 C1039.437,323.631 1124.2,343 1124.2,343 C1124.2,343 1202.4219,441.7811 1239.3609,488.4361 " fill="none" id="RegisterShowRequestController-to-ShowRequest" style="stroke:#181818;stroke-width:0.6999999999999998;"/><polygon fill="#181818" points="1241.968,491.729,1240.2526,485.0516,1239.7954,488.9849,1235.8621,488.5278,1241.968,491.729" style="stroke:#181818;stroke-width:0.6999999999999998;"/></g><!--link AuthenticationController to AuthenticationRepository--><g id="link_AuthenticationController_AuthenticationRepository"><path codeLine="120" d="M925.26,423.29 C883.778,442.071 834.0959,464.5583 792.6559,483.3253 " fill="none" id="AuthenticationController-to-AuthenticationRepository" style="stroke:#181818;stroke-width:0.6999999999999998;"/><polygon fill="#181818" points="788.83,485.058,795.724,485.0096,792.0183,483.6141,793.4138,479.9084,788.83,485.058" style="stroke:#181818;stroke-width:0.6999999999999998;"/></g><!--link FigureController to FigureRepository--><g id="link_FigureController_FigureRepository"><path codeLine="121" d="M235.823,423.213 C283.857,444.297 343.7391,470.5812 387.9371,489.9782 " fill="none" id="FigureController-to-FigureRepository" style="stroke:#181818;stroke-width:0.6999999999999998;"/><polygon fill="#181818" points="391.783,491.666,387.1393,486.5703,388.5781,490.2595,384.8889,491.6982,391.783,491.666" style="stroke:#181818;stroke-width:0.6999999999999998;"/></g><!--link AuthenticationRepository to UserSession--><g id="link_AuthenticationRepository_UserSession"><path codeLine="123" d="M684.768,545.468 C649.894,571.886 602.8836,607.4925 571.0476,631.6145 " fill="none" id="AuthenticationRepository-to-UserSession" style="stroke:#181818;stroke-width:0.6999999999999998;"/><polygon fill="#181818" points="567.7,634.151,574.4124,632.578,570.4897,632.0373,571.0304,628.1146,567.7,634.151" style="stroke:#181818;stroke-width:0.6999999999999998;"/></g><!--link UserSession to Email--><g id="link_UserSession_Email"><path codeLine="124" d="M488.243,676.2 C416.556,702.114 288.4367,748.4397 217.6457,774.0387 " fill="none" id="UserSession-to-Email" style="stroke:#181818;stroke-width:0.6999999999999998;"/><polygon fill="#181818" points="213.696,775.467,220.5727,775.9577,216.9874,774.2768,218.6684,770.6915,213.696,775.467" style="stroke:#181818;stroke-width:0.6999999999999998;"/></g><!--link Repositories to ShowRequestRepository--><g id="link_Repositories_ShowRequestRepository"><path codeLine="126" d="M857.759,443.128 C903.462,459.97 948.437,476.5498 985.67,490.2698 " fill="none" id="Repositories-to-ShowRequestRepository" style="stroke:#181818;stroke-width:0.6999999999999998;"/><polygon fill="#181818" points="989.611,491.722,984.6677,486.9164,986.3269,490.5118,982.7314,492.171,989.611,491.722" style="stroke:#181818;stroke-width:0.6999999999999998;"/></g><!--link Repositories to AuthenticationRepository--><g id="link_Repositories_AuthenticationRepository"><path codeLine="127" d="M723.8,443.212 C723.8,457.408 723.8,468.244 723.8,480.823 " fill="none" id="Repositories-to-AuthenticationRepository" style="stroke:#181818;stroke-width:0.6999999999999998;"/><polygon fill="#181818" points="723.8,485.023,726.6,478.723,723.8,481.523,721,478.723,723.8,485.023" style="stroke:#181818;stroke-width:0.6999999999999998;"/></g><!--link Repositories to FigureRepository--><g id="link_Repositories_FigureRepository"><path codeLine="128" d="M609.308,443.128 C570.241,459.97 532.2938,476.3391 500.4718,490.0591 " fill="none" id="Repositories-to-FigureRepository" style="stroke:#181818;stroke-width:0.6999999999999998;"/><polygon fill="#181818" points="496.615,491.722,503.5088,491.7989,499.829,490.3363,501.2916,486.6565,496.615,491.722" style="stroke:#181818;stroke-width:0.6999999999999998;"/></g><!--link ShowRequestFactory to ShowRequest--><g id="link_ShowRequestFactory_ShowRequest"><path codeLine="130" d="M1609.839,416.535 C1526.742,439.803 1403.4844,474.3216 1327.5344,495.5876 " fill="none" id="ShowRequestFactory-to-ShowRequest" style="stroke:#181818;stroke-width:0.6999999999999998;"/><polygon fill="#181818" points="1323.49,496.72,1330.3116,497.7176,1326.8604,495.7763,1328.8017,492.325,1323.49,496.72" style="stroke:#181818;stroke-width:0.6999999999999998;"/></g><!--link Figure to FigureCategory--><g id="link_Figure_FigureCategory"><path codeLine="132" d="M1173.312,728.112 C1181.537,746.263 1187.9171,760.3362 1193.5101,772.6842 " fill="none" id="Figure-to-FigureCategory" style="stroke:#181818;stroke-width:0.6999999999999998;"/><polygon fill="#181818" points="1195.243,776.51,1195.1942,769.616,1193.7989,773.3218,1190.0931,771.9265,1195.243,776.51" style="stroke:#181818;stroke-width:0.6999999999999998;"/></g><!--link Figure to FigureAvailability--><g id="link_Figure_FigureAvailability"><path codeLine="133" d="M1069.418,716.912 C1042.524,738.696 1017.3748,759.0756 998.9998,773.9576 " fill="none" id="Figure-to-FigureAvailability" style="stroke:#181818;stroke-width:0.6999999999999998;"/><polygon fill="#181818" points="995.736,776.601,1002.394,774.8118,998.4559,774.3982,998.8695,770.46,995.736,776.601" style="stroke:#181818;stroke-width:0.6999999999999998;"/></g><!--link Figure to FigureStatus--><g id="link_Figure_FigureStatus"><path codeLine="134" d="M1115.541,728.112 C1108.73,746.263 1103.4907,760.2291 1098.8637,772.5771 " fill="none" id="Figure-to-FigureStatus" style="stroke:#181818;stroke-width:0.6999999999999998;"/><polygon fill="#181818" points="1097.39,776.51,1102.2226,771.5931,1098.6181,773.2325,1096.9786,769.6281,1097.39,776.51" style="stroke:#181818;stroke-width:0.6999999999999998;"/></g><!--link Figure to Description--><g id="link_Figure_Description"><path codeLine="135" d="M1214.031,715.736 C1241.912,737.856 1268.3226,758.8148 1287.4186,773.9628 " fill="none" id="Figure-to-Description" style="stroke:#181818;stroke-width:0.6999999999999998;"/><polygon fill="#181818" points="1290.709,776.573,1287.5134,770.4641,1287.967,774.3979,1284.0332,774.8514,1290.709,776.573" style="stroke:#181818;stroke-width:0.6999999999999998;"/></g><!--link Figure to Costumer--><g id="link_Figure_Costumer"><path codeLine="136" d="M1069.586,693.525 C1002.491,726.25 912.8,770 912.8,770 C912.8,770 910.8103,771.0001 903.3973,774.7031 " fill="none" id="Figure-to-Costumer" style="stroke:#181818;stroke-width:0.6999999999999998;"/><polygon fill="#181818" points="899.64,776.58,906.5272,776.2696,902.7711,775.0159,904.0247,771.2598,899.64,776.58" style="stroke:#181818;stroke-width:0.6999999999999998;"/></g><!--link Location to Address--><g id="link_Location_Address"><path codeLine="138" d="M1363.642,701.057 C1374.604,726.733 1386.2823,754.0696 1394.2203,772.6546 " fill="none" id="Location-to-Address" style="stroke:#181818;stroke-width:0.6999999999999998;"/><polygon fill="#181818" points="1395.87,776.517,1395.9704,769.6235,1394.4952,773.2983,1390.8205,771.8232,1395.87,776.517" style="stroke:#181818;stroke-width:0.6999999999999998;"/></g><!--link ShowRequest to Location--><g id="link_ShowRequest_Location"><path codeLine="139" d="M1273.909,538.874 C1286.201,559.174 1302.2679,585.7091 1317.2479,610.4541 " fill="none" id="ShowRequest-to-Location" style="stroke:#181818;stroke-width:0.6999999999999998;"/><polygon fill="#181818" points="1319.423,614.047,1318.5557,607.2076,1317.6104,611.0529,1313.7651,610.1077,1319.423,614.047" style="stroke:#181818;stroke-width:0.6999999999999998;"/></g><!--link ShowRequest to Costumer--><g id="link_ShowRequest_Costumer"><path codeLine="140" d="M1196.608,538.195 C1137.045,559.146 1057,587.3 1057,587.3 C1057,587.3 929.7543,725.1103 885.0313,773.5433 " fill="none" id="ShowRequest-to-Costumer" style="stroke:#181818;stroke-width:0.6999999999999998;"/><polygon fill="#181818" points="882.182,776.629,888.5131,773.9,884.5564,774.0576,884.3989,770.1009,882.182,776.629" style="stroke:#181818;stroke-width:0.6999999999999998;"/></g><!--link ShowRequest to Description--><g id="link_ShowRequest_Description"><path codeLine="141" d="M1262.723,538.797 C1269.24,593.642 1285.2,728 1285.2,728 C1285.2,728 1295.3302,753.3324 1303.0022,772.5124 " fill="none" id="ShowRequest-to-Description" style="stroke:#181818;stroke-width:0.6999999999999998;"/><polygon fill="#181818" points="1304.562,776.412,1304.822,769.5227,1303.2621,773.1623,1299.6225,771.6025,1304.562,776.412" style="stroke:#181818;stroke-width:0.6999999999999998;"/></g><!--link ShowRequest to Duration--><g id="link_ShowRequest_Duration"><path codeLine="142" d="M1306.466,538.685 C1349.082,559.58 1405.6,587.3 1405.6,587.3 C1405.6,587.3 1424.1991,616.6726 1437.2261,637.2456 " fill="none" id="ShowRequest-to-Duration" style="stroke:#181818;stroke-width:0.6999999999999998;"/><polygon fill="#181818" points="1439.473,640.794,1438.4683,633.9734,1437.6006,637.837,1433.737,636.9693,1439.473,640.794" style="stroke:#181818;stroke-width:0.6999999999999998;"/></g><!--link ShowRequest to Figure--><g id="link_ShowRequest_Figure"><path codeLine="143" d="M1240.729,538.874 C1229.599,552.146 1217.6396,566.4066 1203.0306,583.8296 " fill="none" id="ShowRequest-to-Figure" style="stroke:#181818;stroke-width:0.6999999999999998;"/><polygon fill="#181818" points="1200.332,587.048,1206.5254,584.0195,1202.5808,584.366,1202.2343,580.4214,1200.332,587.048" style="stroke:#181818;stroke-width:0.6999999999999998;"/></g><!--SRC=[pLPDRzim3BtxL_Ws5skBdOErG92iG80E6vhq1wYscWXL94-IKsJ5_ljeVPcM7QS5TbWFHKG-YZJr-2JzmaHD5DddDIbVo9QkpP7JND7I4B7bDDCHe7UaagzCRFDdmZNsS2QeETOqhoK_jWlaApdHUcwCOa-DeQjIYZNxJVClMVOflxcvoHTI62KvfqgtwypYymUwPTfGjTx9rmVwgw7QTC3yBSlXxmgghELF9G-i0kCCWcgfcP6AKUqHf36xrWpUEVoamh2I62P5n1uzyfbj6qKzzYukUXXjgx48L5W2-pnTV77XKLiAaRgMGhCdJeiBsFJRdZ3UkJSxfZTixtptiYHyIGnjBHwZXeaABai7Rh_oCgyW8Wc-p4MpNoefg9xbJ1W0DSh2P_dI_m8RrR3H4luhLZiJj0WYxY7bLzUWsykybDeqUwfcS93kLrliGR8g-vFvmtJWaVCxttFRX_a1saAWIGwYxwHQDDf8I5QmgikyMjf6eVgw6lgdFrBBUvbYA_f-d9U67MWeGnSnSoZ6vdOKVrnDCnlyRtvlebysSWHInAuwdBH7eZToJJcCQcn76GfAgvcEzuqjt84aXvo4AbSHi8dOgb2LAr4trk6XxRn0gv-PsjjMfb_H-lMFcZhEhPkof5eNc42kWNUaRFkFkeYI1kVR_pmKbxc198ESBUcayeEVDBFxVAnhFIOXSw0nDcAfMGaDWbuwBHa8fHkp4xIt8UTd8frV6tPwg4S5D2KK2ZmnoHqY4k2zyndHYqOfsF5H0sc0W86eQ9rgsNZMVw5Jen_VoKDL5Rf3z7er79kb15g9yQc9MvQA0XsBw-lh4Vwvi51thmM9YA-gbjnYwus2j6nVmwqVJLKtDRqHyku3d99reLtWYEaMlZ_mQE7NGR9Tlnbd9aBco1PkRKDCemDWRLSXmM1G1xTMI8cDlIJOuJVtjY0utHrJLK0BA6NkVdWp1vHfAcXO9HkWJp138yRilKRw5dVJuNTsAzncR_5Q5l28v9ZAhNbLeKT9J62N66eDRd2JMdfY5qE4V1rvq22nuxP0lMErKxln6_FgwdRwePLDlo5TFDB1y_2J6dW-TA23vqF6PV13SVvgV4TG_p3EunqfFbHCbfryWqqsT_1w7ErdTl9QQE5OoZ7Zkq_9UhVfLFyJs0Gf4kImvf5NpA1fNcsx3Q8Y3JmzMHfulJOXErO7P8vIc4K1in_gbGLV8e4wTelK4VT97JZlm1VqANMu0hE_]--></g></svg>