<svg xmlns="http://www.w3.org/2000/svg" xmlns:xlink="http://www.w3.org/1999/xlink" contentStyleType="text/css" height="928px" preserveAspectRatio="none" style="width:2299px;height:928px;background:#FFFFFF;" version="1.1" viewBox="0 0 2299 928" width="2299.2px" zoomAndPan="magnify"><defs/><g><!--class RegisterShowRequestController--><g id="elem_RegisterShowRequestController"><rect codeLine="7" fill="#F1F1F1" height="157.575" id="RegisterShowRequestController" rx="2" ry="2" style="stroke:#181818;stroke-width:0.4000000000000001;" width="801.743" x="303.2" y="181.6"/><ellipse cx="620.6773" cy="194.4" fill="#ADD1B2" rx="8.8" ry="8.8" style="stroke:#181818;stroke-width:0.8000000000000002;"/><path d="M622.8898,191.1 Q623.0148,190.925 623.1648,190.8375 Q623.3148,190.75 623.4898,190.75 Q623.7898,190.75 623.9773,190.9625 Q624.1648,191.1625 624.1648,191.65 L624.1648,192.8125 Q624.1648,193.3 623.9773,193.5125 Q623.7898,193.725 623.4898,193.725 Q623.2148,193.725 623.0523,193.5625 Q622.8898,193.4125 622.8023,193 Q622.7648,192.7125 622.6148,192.5625 Q622.3523,192.2625 621.8648,192.0875 Q621.3773,191.9125 620.8773,191.9125 Q620.2648,191.9125 619.7523,192.175 Q619.2523,192.4375 618.8523,193.0375 Q618.4648,193.6375 618.4648,194.4625 L618.4648,195.3375 Q618.4648,196.325 619.1773,196.9875 Q619.8898,197.6375 621.1648,197.6375 Q621.9148,197.6375 622.4398,197.4375 Q622.7523,197.3125 623.0898,196.9625 Q623.3023,196.75 623.4148,196.6875 Q623.5398,196.625 623.7023,196.625 Q623.9648,196.625 624.1648,196.8375 Q624.3773,197.0375 624.3773,197.3125 Q624.3773,197.5875 624.1023,197.9125 Q623.7023,198.375 623.0648,198.6375 Q622.2023,199 621.1648,199 Q619.9523,199 618.9898,198.5 Q618.2023,198.1 617.6523,197.25 Q617.1023,196.3875 617.1023,195.3625 L617.1023,194.4375 Q617.1023,193.375 617.5898,192.4625 Q618.0898,191.5375 618.9648,191.05 Q619.8398,190.55 620.8273,190.55 Q621.4148,190.55 621.9273,190.6875 Q622.4523,190.8125 622.8898,191.1 Z " fill="#000000"/><text fill="#000000" font-family="sans-serif" font-size="11.2" lengthAdjust="spacing" textLength="159.9883" x="637.0773" y="199.0375">RegisterShowRequestController</text><line style="stroke:#181818;stroke-width:0.4000000000000001;" x1="304" x2="1104.143" y1="207.2" y2="207.2"/><text fill="#000000" font-family="sans-serif" font-size="11.2" lengthAdjust="spacing" textLength="139.4367" x="308" y="222.4859">-repoProvider : Repositories</text><text fill="#000000" font-family="sans-serif" font-size="11.2" lengthAdjust="spacing" textLength="186.1563" x="308" y="237.3828">-authRepo : AuthenticationRepository</text><text fill="#000000" font-family="sans-serif" font-size="11.2" lengthAdjust="spacing" textLength="153.1359" x="308" y="252.2797">-figureRepo : FigureRepository</text><text fill="#000000" font-family="sans-serif" font-size="11.2" lengthAdjust="spacing" textLength="147.5359" x="308" y="267.1766">-showRepo : ShowRepository</text><line style="stroke:#181818;stroke-width:0.4000000000000001;" x1="304" x2="1104.143" y1="273.1875" y2="273.1875"/><text fill="#000000" font-family="sans-serif" font-size="11.2" lengthAdjust="spacing" textLength="173.9883" x="308" y="288.4734">+RegisterShowRequestController()</text><text fill="#000000" font-family="sans-serif" font-size="11.2" lengthAdjust="spacing" textLength="128.5484" x="308" y="303.3703">+getResponsible() : Email</text><text fill="#000000" font-family="sans-serif" font-size="11.2" lengthAdjust="spacing" textLength="160.2727" x="308" y="318.2672">+getThisTime() : LocalDateTime</text><text fill="#000000" font-family="sans-serif" font-size="11.2" lengthAdjust="spacing" textLength="792.143" x="308" y="333.1641">+registerShowRequest(loc: Location, date: LocalDateTime, numDrones: int, duration: Duration, desc: Description, figs: List&lt;Figure&gt;, costumer: Costumer) : void</text></g><!--class FigureController--><g id="elem_FigureController"><rect codeLine="18" fill="#F1F1F1" height="68.1938" id="FigureController" rx="2" ry="2" style="stroke:#181818;stroke-width:0.4000000000000001;" width="333.5906" x="18.8" y="409.6"/><ellipse cx="142.0465" cy="422.4" fill="#ADD1B2" rx="8.8" ry="8.8" style="stroke:#181818;stroke-width:0.8000000000000002;"/><path d="M144.259,419.1 Q144.384,418.925 144.534,418.8375 Q144.684,418.75 144.859,418.75 Q145.159,418.75 145.3465,418.9625 Q145.534,419.1625 145.534,419.65 L145.534,420.8125 Q145.534,421.3 145.3465,421.5125 Q145.159,421.725 144.859,421.725 Q144.584,421.725 144.4215,421.5625 Q144.259,421.4125 144.1715,421 Q144.134,420.7125 143.984,420.5625 Q143.7215,420.2625 143.234,420.0875 Q142.7465,419.9125 142.2465,419.9125 Q141.634,419.9125 141.1215,420.175 Q140.6215,420.4375 140.2215,421.0375 Q139.834,421.6375 139.834,422.4625 L139.834,423.3375 Q139.834,424.325 140.5465,424.9875 Q141.259,425.6375 142.534,425.6375 Q143.284,425.6375 143.809,425.4375 Q144.1215,425.3125 144.459,424.9625 Q144.6715,424.75 144.784,424.6875 Q144.909,424.625 145.0715,424.625 Q145.334,424.625 145.534,424.8375 Q145.7465,425.0375 145.7465,425.3125 Q145.7465,425.5875 145.4715,425.9125 Q145.0715,426.375 144.434,426.6375 Q143.5715,427 142.534,427 Q141.3215,427 140.359,426.5 Q139.5715,426.1 139.0215,425.25 Q138.4715,424.3875 138.4715,423.3625 L138.4715,422.4375 Q138.4715,421.375 138.959,420.4625 Q139.459,419.5375 140.334,419.05 Q141.209,418.55 142.1965,418.55 Q142.784,418.55 143.2965,418.6875 Q143.8215,418.8125 144.259,419.1 Z " fill="#000000"/><text fill="#000000" font-family="sans-serif" font-size="11.2" lengthAdjust="spacing" textLength="80.2977" x="158.4465" y="427.0375">FigureController</text><line style="stroke:#181818;stroke-width:0.4000000000000001;" x1="19.6" x2="351.5906" y1="435.2" y2="435.2"/><text fill="#000000" font-family="sans-serif" font-size="11.2" lengthAdjust="spacing" textLength="153.1359" x="23.6" y="450.4859">-figureRepo : FigureRepository</text><line style="stroke:#181818;stroke-width:0.4000000000000001;" x1="19.6" x2="351.5906" y1="456.4969" y2="456.4969"/><text fill="#000000" font-family="sans-serif" font-size="11.2" lengthAdjust="spacing" textLength="323.9906" x="23.6" y="471.7828">+getAvailableFiguresForCustomer(id: CostumerID) : List&lt;Figure&gt;</text></g><!--class AuthenticationController--><g id="elem_AuthenticationController"><rect codeLine="23" fill="#F1F1F1" height="68.1938" id="AuthenticationController" rx="2" ry="2" style="stroke:#181818;stroke-width:0.4000000000000001;" width="227.1359" x="976.8" y="409.6"/><ellipse cx="1027.2" cy="422.4" fill="#ADD1B2" rx="8.8" ry="8.8" style="stroke:#181818;stroke-width:0.8000000000000002;"/><path d="M1029.4125,419.1 Q1029.5375,418.925 1029.6875,418.8375 Q1029.8375,418.75 1030.0125,418.75 Q1030.3125,418.75 1030.5,418.9625 Q1030.6875,419.1625 1030.6875,419.65 L1030.6875,420.8125 Q1030.6875,421.3 1030.5,421.5125 Q1030.3125,421.725 1030.0125,421.725 Q1029.7375,421.725 1029.575,421.5625 Q1029.4125,421.4125 1029.325,421 Q1029.2875,420.7125 1029.1375,420.5625 Q1028.875,420.2625 1028.3875,420.0875 Q1027.9,419.9125 1027.4,419.9125 Q1026.7875,419.9125 1026.275,420.175 Q1025.775,420.4375 1025.375,421.0375 Q1024.9875,421.6375 1024.9875,422.4625 L1024.9875,423.3375 Q1024.9875,424.325 1025.7,424.9875 Q1026.4125,425.6375 1027.6875,425.6375 Q1028.4375,425.6375 1028.9625,425.4375 Q1029.275,425.3125 1029.6125,424.9625 Q1029.825,424.75 1029.9375,424.6875 Q1030.0625,424.625 1030.225,424.625 Q1030.4875,424.625 1030.6875,424.8375 Q1030.9,425.0375 1030.9,425.3125 Q1030.9,425.5875 1030.625,425.9125 Q1030.225,426.375 1029.5875,426.6375 Q1028.725,427 1027.6875,427 Q1026.475,427 1025.5125,426.5 Q1024.725,426.1 1024.175,425.25 Q1023.625,424.3875 1023.625,423.3625 L1023.625,422.4375 Q1023.625,421.375 1024.1125,420.4625 Q1024.6125,419.5375 1025.4875,419.05 Q1026.3625,418.55 1027.35,418.55 Q1027.9375,418.55 1028.45,418.6875 Q1028.975,418.8125 1029.4125,419.1 Z " fill="#000000"/><text fill="#000000" font-family="sans-serif" font-size="11.2" lengthAdjust="spacing" textLength="119.5359" x="1043.6" y="427.0375">AuthenticationController</text><line style="stroke:#181818;stroke-width:0.4000000000000001;" x1="977.6" x2="1203.1359" y1="435.2" y2="435.2"/><text fill="#000000" font-family="sans-serif" font-size="11.2" lengthAdjust="spacing" textLength="186.1563" x="981.6" y="450.4859">-authRepo : AuthenticationRepository</text><line style="stroke:#181818;stroke-width:0.4000000000000001;" x1="977.6" x2="1203.1359" y1="456.4969" y2="456.4969"/><text fill="#000000" font-family="sans-serif" font-size="11.2" lengthAdjust="spacing" textLength="217.5359" x="981.6" y="471.7828">+getMyActiveCustomers() : List&lt;Costumer&gt;</text></g><!--class RegisterShowRequestUI--><g id="elem_RegisterShowRequestUI"><rect codeLine="29" fill="#F1F1F1" height="127.7813" id="RegisterShowRequestUI" rx="2" ry="2" style="stroke:#181818;stroke-width:0.4000000000000001;" width="319.2789" x="544.4" y="5.6"/><ellipse cx="639.3211" cy="18.4" fill="#ADD1B2" rx="8.8" ry="8.8" style="stroke:#181818;stroke-width:0.8000000000000002;"/><path d="M641.5336,15.1 Q641.6586,14.925 641.8086,14.8375 Q641.9586,14.75 642.1336,14.75 Q642.4336,14.75 642.6211,14.9625 Q642.8086,15.1625 642.8086,15.65 L642.8086,16.8125 Q642.8086,17.3 642.6211,17.5125 Q642.4336,17.725 642.1336,17.725 Q641.8586,17.725 641.6961,17.5625 Q641.5336,17.4125 641.4461,17 Q641.4086,16.7125 641.2586,16.5625 Q640.9961,16.2625 640.5086,16.0875 Q640.0211,15.9125 639.5211,15.9125 Q638.9086,15.9125 638.3961,16.175 Q637.8961,16.4375 637.4961,17.0375 Q637.1086,17.6375 637.1086,18.4625 L637.1086,19.3375 Q637.1086,20.325 637.8211,20.9875 Q638.5336,21.6375 639.8086,21.6375 Q640.5586,21.6375 641.0836,21.4375 Q641.3961,21.3125 641.7336,20.9625 Q641.9461,20.75 642.0586,20.6875 Q642.1836,20.625 642.3461,20.625 Q642.6086,20.625 642.8086,20.8375 Q643.0211,21.0375 643.0211,21.3125 Q643.0211,21.5875 642.7461,21.9125 Q642.3461,22.375 641.7086,22.6375 Q640.8461,23 639.8086,23 Q638.5961,23 637.6336,22.5 Q636.8461,22.1 636.2961,21.25 Q635.7461,20.3875 635.7461,19.3625 L635.7461,18.4375 Q635.7461,17.375 636.2336,16.4625 Q636.7336,15.5375 637.6086,15.05 Q638.4836,14.55 639.4711,14.55 Q640.0586,14.55 640.5711,14.6875 Q641.0961,14.8125 641.5336,15.1 Z " fill="#000000"/><text fill="#000000" font-family="sans-serif" font-size="11.2" lengthAdjust="spacing" textLength="122.6367" x="655.7211" y="23.0375">RegisterShowRequestUI</text><line style="stroke:#181818;stroke-width:0.4000000000000001;" x1="545.2" x2="862.8789" y1="31.2" y2="31.2"/><line style="stroke:#181818;stroke-width:0.4000000000000001;" x1="545.2" x2="862.8789" y1="37.6" y2="37.6"/><text fill="#000000" font-family="sans-serif" font-size="11.2" lengthAdjust="spacing" textLength="185.8172" x="549.2" y="52.8859">+askToRegisterShowRequest() : void</text><text fill="#000000" font-family="sans-serif" font-size="11.2" lengthAdjust="spacing" textLength="309.6789" x="549.2" y="67.7828">+optionsToSelectCustomer(customers: List&lt;Costumer&gt;) : void</text><text fill="#000000" font-family="sans-serif" font-size="11.2" lengthAdjust="spacing" textLength="263.6375" x="549.2" y="82.6797">+optionsToSelectFigures(figures: List&lt;Figure&gt;) : void</text><text fill="#000000" font-family="sans-serif" font-size="11.2" lengthAdjust="spacing" textLength="202.65" x="549.2" y="97.5766">+requestData() : ShowRequestInputData</text><text fill="#000000" font-family="sans-serif" font-size="11.2" lengthAdjust="spacing" textLength="133.5195" x="549.2" y="112.4734">+showConfirmation() : void</text><text fill="#000000" font-family="sans-serif" font-size="11.2" lengthAdjust="spacing" textLength="167.1414" x="549.2" y="127.3703">+showsOperationSuccess() : void</text></g><!--class ShowFactory--><g id="elem_ShowFactory"><rect codeLine="39" fill="#F1F1F1" height="53.2969" id="ShowFactory" rx="2" ry="2" style="stroke:#181818;stroke-width:0.4000000000000001;" width="948.6336" x="1345.6" y="416.8"/><ellipse cx="1783.8383" cy="429.6" fill="#ADD1B2" rx="8.8" ry="8.8" style="stroke:#181818;stroke-width:0.8000000000000002;"/><path d="M1786.0508,426.3 Q1786.1758,426.125 1786.3258,426.0375 Q1786.4758,425.95 1786.6508,425.95 Q1786.9508,425.95 1787.1383,426.1625 Q1787.3258,426.3625 1787.3258,426.85 L1787.3258,428.0125 Q1787.3258,428.5 1787.1383,428.7125 Q1786.9508,428.925 1786.6508,428.925 Q1786.3758,428.925 1786.2133,428.7625 Q1786.0508,428.6125 1785.9633,428.2 Q1785.9258,427.9125 1785.7758,427.7625 Q1785.5133,427.4625 1785.0258,427.2875 Q1784.5383,427.1125 1784.0383,427.1125 Q1783.4258,427.1125 1782.9133,427.375 Q1782.4133,427.6375 1782.0133,428.2375 Q1781.6258,428.8375 1781.6258,429.6625 L1781.6258,430.5375 Q1781.6258,431.525 1782.3383,432.1875 Q1783.0508,432.8375 1784.3258,432.8375 Q1785.0758,432.8375 1785.6008,432.6375 Q1785.9133,432.5125 1786.2508,432.1625 Q1786.4633,431.95 1786.5758,431.8875 Q1786.7008,431.825 1786.8633,431.825 Q1787.1258,431.825 1787.3258,432.0375 Q1787.5383,432.2375 1787.5383,432.5125 Q1787.5383,432.7875 1787.2633,433.1125 Q1786.8633,433.575 1786.2258,433.8375 Q1785.3633,434.2 1784.3258,434.2 Q1783.1133,434.2 1782.1508,433.7 Q1781.3633,433.3 1780.8133,432.45 Q1780.2633,431.5875 1780.2633,430.5625 L1780.2633,429.6375 Q1780.2633,428.575 1780.7508,427.6625 Q1781.2508,426.7375 1782.1258,426.25 Q1783.0008,425.75 1783.9883,425.75 Q1784.5758,425.75 1785.0883,425.8875 Q1785.6133,426.0125 1786.0508,426.3 Z " fill="#000000"/><text fill="#000000" font-family="sans-serif" font-size="11.2" lengthAdjust="spacing" textLength="65.357" x="1800.2383" y="434.2375">ShowFactory</text><line style="stroke:#181818;stroke-width:0.4000000000000001;" x1="1346.4" x2="2293.4336" y1="442.4" y2="442.4"/><line style="stroke:#181818;stroke-width:0.4000000000000001;" x1="1346.4" x2="2293.4336" y1="448.8" y2="448.8"/><text fill="#000000" font-family="sans-serif" font-size="11.2" lengthAdjust="spacing" textLength="939.0336" x="1350.4" y="464.0859">+registerShow(loc: Location, date: LocalDateTime, numDrones: int, duration: Duration, desc: Description, figs: List&lt;Figure&gt;, costumer: Costumer, time: LocalDateTime, author: Email) : Show</text></g><!--class Repositories--><g id="elem_Repositories"><rect codeLine="44" fill="#F1F1F1" height="112.8844" id="Repositories" rx="2" ry="2" style="stroke:#181818;stroke-width:0.4000000000000001;" width="297.5406" x="651.2" y="387.2"/><ellipse cx="765.4449" cy="400" fill="#ADD1B2" rx="8.8" ry="8.8" style="stroke:#181818;stroke-width:0.8000000000000002;"/><path d="M767.6574,396.7 Q767.7824,396.525 767.9324,396.4375 Q768.0824,396.35 768.2574,396.35 Q768.5574,396.35 768.7449,396.5625 Q768.9324,396.7625 768.9324,397.25 L768.9324,398.4125 Q768.9324,398.9 768.7449,399.1125 Q768.5574,399.325 768.2574,399.325 Q767.9824,399.325 767.8199,399.1625 Q767.6574,399.0125 767.5699,398.6 Q767.5324,398.3125 767.3824,398.1625 Q767.1199,397.8625 766.6324,397.6875 Q766.1449,397.5125 765.6449,397.5125 Q765.0324,397.5125 764.5199,397.775 Q764.0199,398.0375 763.6199,398.6375 Q763.2324,399.2375 763.2324,400.0625 L763.2324,400.9375 Q763.2324,401.925 763.9449,402.5875 Q764.6574,403.2375 765.9324,403.2375 Q766.6824,403.2375 767.2074,403.0375 Q767.5199,402.9125 767.8574,402.5625 Q768.0699,402.35 768.1824,402.2875 Q768.3074,402.225 768.4699,402.225 Q768.7324,402.225 768.9324,402.4375 Q769.1449,402.6375 769.1449,402.9125 Q769.1449,403.1875 768.8699,403.5125 Q768.4699,403.975 767.8324,404.2375 Q766.9699,404.6 765.9324,404.6 Q764.7199,404.6 763.7574,404.1 Q762.9699,403.7 762.4199,402.85 Q761.8699,401.9875 761.8699,400.9625 L761.8699,400.0375 Q761.8699,398.975 762.3574,398.0625 Q762.8574,397.1375 763.7324,396.65 Q764.6074,396.15 765.5949,396.15 Q766.1824,396.15 766.6949,396.2875 Q767.2199,396.4125 767.6574,396.7 Z " fill="#000000"/><text fill="#000000" font-family="sans-serif" font-size="11.2" lengthAdjust="spacing" textLength="62.2508" x="781.8449" y="404.6375">Repositories</text><line style="stroke:#181818;stroke-width:0.4000000000000001;" x1="652" x2="947.9406" y1="412.8" y2="412.8"/><line style="stroke:#181818;stroke-width:0.4000000000000001;" x1="652" x2="947.9406" y1="419.2" y2="419.2"/><text fill="#000000" font-family="sans-serif" font-size="11.2" lengthAdjust="spacing" textLength="73.4398" x="656" y="434.4859">-Repositories()</text><text fill="#000000" font-family="sans-serif" font-size="11.2" lengthAdjust="spacing" textLength="143.4945" x="656" y="449.3828">+getInstance() : Repositories</text><text fill="#000000" font-family="sans-serif" font-size="11.2" lengthAdjust="spacing" textLength="287.9406" x="656" y="464.2797">+getAuthenticationRepository() : AuthenticationRepository</text><text fill="#000000" font-family="sans-serif" font-size="11.2" lengthAdjust="spacing" textLength="209.4641" x="656" y="479.1766">+getFigureRepository() : FigureRepository</text><text fill="#000000" font-family="sans-serif" font-size="11.2" lengthAdjust="spacing" textLength="202.0047" x="656" y="494.0734">+getShowRepository() : ShowRepository</text></g><!--class AuthenticationRepository--><g id="elem_AuthenticationRepository"><rect codeLine="52" fill="#F1F1F1" height="68.1938" id="AuthenticationRepository" rx="2" ry="2" style="stroke:#181818;stroke-width:0.4000000000000001;" width="227.1359" x="686.4" y="548"/><ellipse cx="734.309" cy="560.8" fill="#ADD1B2" rx="8.8" ry="8.8" style="stroke:#181818;stroke-width:0.8000000000000002;"/><path d="M736.5215,557.5 Q736.6465,557.325 736.7965,557.2375 Q736.9465,557.15 737.1215,557.15 Q737.4215,557.15 737.609,557.3625 Q737.7965,557.5625 737.7965,558.05 L737.7965,559.2125 Q737.7965,559.7 737.609,559.9125 Q737.4215,560.125 737.1215,560.125 Q736.8465,560.125 736.684,559.9625 Q736.5215,559.8125 736.434,559.4 Q736.3965,559.1125 736.2465,558.9625 Q735.984,558.6625 735.4965,558.4875 Q735.009,558.3125 734.509,558.3125 Q733.8965,558.3125 733.384,558.575 Q732.884,558.8375 732.484,559.4375 Q732.0965,560.0375 732.0965,560.8625 L732.0965,561.7375 Q732.0965,562.725 732.809,563.3875 Q733.5215,564.0375 734.7965,564.0375 Q735.5465,564.0375 736.0715,563.8375 Q736.384,563.7125 736.7215,563.3625 Q736.934,563.15 737.0465,563.0875 Q737.1715,563.025 737.334,563.025 Q737.5965,563.025 737.7965,563.2375 Q738.009,563.4375 738.009,563.7125 Q738.009,563.9875 737.734,564.3125 Q737.334,564.775 736.6965,565.0375 Q735.834,565.4 734.7965,565.4 Q733.584,565.4 732.6215,564.9 Q731.834,564.5 731.284,563.65 Q730.734,562.7875 730.734,561.7625 L730.734,560.8375 Q730.734,559.775 731.2215,558.8625 Q731.7215,557.9375 732.5965,557.45 Q733.4715,556.95 734.459,556.95 Q735.0465,556.95 735.559,557.0875 Q736.084,557.2125 736.5215,557.5 Z " fill="#000000"/><text fill="#000000" font-family="sans-serif" font-size="11.2" lengthAdjust="spacing" textLength="124.518" x="750.709" y="565.4375">AuthenticationRepository</text><line style="stroke:#181818;stroke-width:0.4000000000000001;" x1="687.2" x2="912.7359" y1="573.6" y2="573.6"/><line style="stroke:#181818;stroke-width:0.4000000000000001;" x1="687.2" x2="912.7359" y1="580" y2="580"/><text fill="#000000" font-family="sans-serif" font-size="11.2" lengthAdjust="spacing" textLength="217.5359" x="691.2" y="595.2859">+getMyActiveCustomers() : List&lt;Costumer&gt;</text><text fill="#000000" font-family="sans-serif" font-size="11.2" lengthAdjust="spacing" textLength="203.2352" x="691.2" y="610.1828">+getCurrentUserSession() : UserSession</text></g><!--class FigureRepository--><g id="elem_FigureRepository"><rect codeLine="57" fill="#F1F1F1" height="53.2969" id="FigureRepository" rx="2" ry="2" style="stroke:#181818;stroke-width:0.4000000000000001;" width="333.5906" x="324.4" y="555.2"/><ellipse cx="445.1555" cy="568" fill="#ADD1B2" rx="8.8" ry="8.8" style="stroke:#181818;stroke-width:0.8000000000000002;"/><path d="M447.368,564.7 Q447.493,564.525 447.643,564.4375 Q447.793,564.35 447.968,564.35 Q448.268,564.35 448.4555,564.5625 Q448.643,564.7625 448.643,565.25 L448.643,566.4125 Q448.643,566.9 448.4555,567.1125 Q448.268,567.325 447.968,567.325 Q447.693,567.325 447.5305,567.1625 Q447.368,567.0125 447.2805,566.6 Q447.243,566.3125 447.093,566.1625 Q446.8305,565.8625 446.343,565.6875 Q445.8555,565.5125 445.3555,565.5125 Q444.743,565.5125 444.2305,565.775 Q443.7305,566.0375 443.3305,566.6375 Q442.943,567.2375 442.943,568.0625 L442.943,568.9375 Q442.943,569.925 443.6555,570.5875 Q444.368,571.2375 445.643,571.2375 Q446.393,571.2375 446.918,571.0375 Q447.2305,570.9125 447.568,570.5625 Q447.7805,570.35 447.893,570.2875 Q448.018,570.225 448.1805,570.225 Q448.443,570.225 448.643,570.4375 Q448.8555,570.6375 448.8555,570.9125 Q448.8555,571.1875 448.5805,571.5125 Q448.1805,571.975 447.543,572.2375 Q446.6805,572.6 445.643,572.6 Q444.4305,572.6 443.468,572.1 Q442.6805,571.7 442.1305,570.85 Q441.5805,569.9875 441.5805,568.9625 L441.5805,568.0375 Q441.5805,566.975 442.068,566.0625 Q442.568,565.1375 443.443,564.65 Q444.318,564.15 445.3055,564.15 Q445.893,564.15 446.4055,564.2875 Q446.9305,564.4125 447.368,564.7 Z " fill="#000000"/><text fill="#000000" font-family="sans-serif" font-size="11.2" lengthAdjust="spacing" textLength="85.2797" x="461.5555" y="572.6375">FigureRepository</text><line style="stroke:#181818;stroke-width:0.4000000000000001;" x1="325.2" x2="657.1906" y1="580.8" y2="580.8"/><line style="stroke:#181818;stroke-width:0.4000000000000001;" x1="325.2" x2="657.1906" y1="587.2" y2="587.2"/><text fill="#000000" font-family="sans-serif" font-size="11.2" lengthAdjust="spacing" textLength="323.9906" x="329.2" y="602.4859">+getAvailableFiguresForCustomer(id: CostumerID) : List&lt;Figure&gt;</text></g><!--class ShowRepository--><g id="elem_ShowRepository"><rect codeLine="61" fill="#F1F1F1" height="53.2969" id="ShowRepository" rx="2" ry="2" style="stroke:#181818;stroke-width:0.4000000000000001;" width="132.5539" x="1098.4" y="555.2"/><ellipse cx="1121.8318" cy="568" fill="#ADD1B2" rx="8.8" ry="8.8" style="stroke:#181818;stroke-width:0.8000000000000002;"/><path d="M1124.0443,564.7 Q1124.1693,564.525 1124.3193,564.4375 Q1124.4693,564.35 1124.6443,564.35 Q1124.9443,564.35 1125.1318,564.5625 Q1125.3193,564.7625 1125.3193,565.25 L1125.3193,566.4125 Q1125.3193,566.9 1125.1318,567.1125 Q1124.9443,567.325 1124.6443,567.325 Q1124.3693,567.325 1124.2068,567.1625 Q1124.0443,567.0125 1123.9568,566.6 Q1123.9193,566.3125 1123.7693,566.1625 Q1123.5068,565.8625 1123.0193,565.6875 Q1122.5318,565.5125 1122.0318,565.5125 Q1121.4193,565.5125 1120.9068,565.775 Q1120.4068,566.0375 1120.0068,566.6375 Q1119.6193,567.2375 1119.6193,568.0625 L1119.6193,568.9375 Q1119.6193,569.925 1120.3318,570.5875 Q1121.0443,571.2375 1122.3193,571.2375 Q1123.0693,571.2375 1123.5943,571.0375 Q1123.9068,570.9125 1124.2443,570.5625 Q1124.4568,570.35 1124.5693,570.2875 Q1124.6943,570.225 1124.8568,570.225 Q1125.1193,570.225 1125.3193,570.4375 Q1125.5318,570.6375 1125.5318,570.9125 Q1125.5318,571.1875 1125.2568,571.5125 Q1124.8568,571.975 1124.2193,572.2375 Q1123.3568,572.6 1122.3193,572.6 Q1121.1068,572.6 1120.1443,572.1 Q1119.3568,571.7 1118.8068,570.85 Q1118.2568,569.9875 1118.2568,568.9625 L1118.2568,568.0375 Q1118.2568,566.975 1118.7443,566.0625 Q1119.2443,565.1375 1120.1193,564.65 Q1120.9943,564.15 1121.9818,564.15 Q1122.5693,564.15 1123.0818,564.2875 Q1123.6068,564.4125 1124.0443,564.7 Z " fill="#000000"/><text fill="#000000" font-family="sans-serif" font-size="11.2" lengthAdjust="spacing" textLength="81.55" x="1135.5721" y="572.6375">ShowRepository</text><line style="stroke:#181818;stroke-width:0.4000000000000001;" x1="1099.2" x2="1230.1539" y1="580.8" y2="580.8"/><line style="stroke:#181818;stroke-width:0.4000000000000001;" x1="1099.2" x2="1230.1539" y1="587.2" y2="587.2"/><text fill="#000000" font-family="sans-serif" font-size="11.2" lengthAdjust="spacing" textLength="122.9539" x="1103.2" y="602.4859">+add(show: Show) : void</text></g><!--class Show--><g id="elem_Show"><rect codeLine="66" fill="#F1F1F1" height="53.2969" id="Show" rx="2" ry="2" style="stroke:#181818;stroke-width:0.4000000000000001;" width="101.4148" x="1334" y="555.2"/><ellipse cx="1367.5093" cy="568" fill="#ADD1B2" rx="8.8" ry="8.8" style="stroke:#181818;stroke-width:0.8000000000000002;"/><path d="M1369.7218,564.7 Q1369.8468,564.525 1369.9968,564.4375 Q1370.1468,564.35 1370.3218,564.35 Q1370.6218,564.35 1370.8093,564.5625 Q1370.9968,564.7625 1370.9968,565.25 L1370.9968,566.4125 Q1370.9968,566.9 1370.8093,567.1125 Q1370.6218,567.325 1370.3218,567.325 Q1370.0468,567.325 1369.8843,567.1625 Q1369.7218,567.0125 1369.6343,566.6 Q1369.5968,566.3125 1369.4468,566.1625 Q1369.1843,565.8625 1368.6968,565.6875 Q1368.2093,565.5125 1367.7093,565.5125 Q1367.0968,565.5125 1366.5843,565.775 Q1366.0843,566.0375 1365.6843,566.6375 Q1365.2968,567.2375 1365.2968,568.0625 L1365.2968,568.9375 Q1365.2968,569.925 1366.0093,570.5875 Q1366.7218,571.2375 1367.9968,571.2375 Q1368.7468,571.2375 1369.2718,571.0375 Q1369.5843,570.9125 1369.9218,570.5625 Q1370.1343,570.35 1370.2468,570.2875 Q1370.3718,570.225 1370.5343,570.225 Q1370.7968,570.225 1370.9968,570.4375 Q1371.2093,570.6375 1371.2093,570.9125 Q1371.2093,571.1875 1370.9343,571.5125 Q1370.5343,571.975 1369.8968,572.2375 Q1369.0343,572.6 1367.9968,572.6 Q1366.7843,572.6 1365.8218,572.1 Q1365.0343,571.7 1364.4843,570.85 Q1363.9343,569.9875 1363.9343,568.9625 L1363.9343,568.0375 Q1363.9343,566.975 1364.4218,566.0625 Q1364.9218,565.1375 1365.7968,564.65 Q1366.6718,564.15 1367.6593,564.15 Q1368.2468,564.15 1368.7593,564.2875 Q1369.2843,564.4125 1369.7218,564.7 Z " fill="#000000"/><text fill="#000000" font-family="sans-serif" font-size="11.2" lengthAdjust="spacing" textLength="28.0164" x="1383.4891" y="572.6375">Show</text><line style="stroke:#181818;stroke-width:0.4000000000000001;" x1="1334.8" x2="1434.6148" y1="580.8" y2="580.8"/><line style="stroke:#181818;stroke-width:0.4000000000000001;" x1="1334.8" x2="1434.6148" y1="587.2" y2="587.2"/><text fill="#000000" font-family="sans-serif" font-size="11.2" lengthAdjust="spacing" textLength="91.8148" x="1338.8" y="602.4859">+create(...) : Show</text></g><!--class Costumer--><g id="elem_Costumer"><rect codeLine="70" fill="#F1F1F1" height="38.4" id="Costumer" rx="2" ry="2" style="stroke:#181818;stroke-width:0.4000000000000001;" width="74.1461" x="913.2" y="877.2"/><ellipse cx="925.2" cy="890" fill="#ADD1B2" rx="8.8" ry="8.8" style="stroke:#181818;stroke-width:0.8000000000000002;"/><path d="M927.4125,886.7 Q927.5375,886.525 927.6875,886.4375 Q927.8375,886.35 928.0125,886.35 Q928.3125,886.35 928.5,886.5625 Q928.6875,886.7625 928.6875,887.25 L928.6875,888.4125 Q928.6875,888.9 928.5,889.1125 Q928.3125,889.325 928.0125,889.325 Q927.7375,889.325 927.575,889.1625 Q927.4125,889.0125 927.325,888.6 Q927.2875,888.3125 927.1375,888.1625 Q926.875,887.8625 926.3875,887.6875 Q925.9,887.5125 925.4,887.5125 Q924.7875,887.5125 924.275,887.775 Q923.775,888.0375 923.375,888.6375 Q922.9875,889.2375 922.9875,890.0625 L922.9875,890.9375 Q922.9875,891.925 923.7,892.5875 Q924.4125,893.2375 925.6875,893.2375 Q926.4375,893.2375 926.9625,893.0375 Q927.275,892.9125 927.6125,892.5625 Q927.825,892.35 927.9375,892.2875 Q928.0625,892.225 928.225,892.225 Q928.4875,892.225 928.6875,892.4375 Q928.9,892.6375 928.9,892.9125 Q928.9,893.1875 928.625,893.5125 Q928.225,893.975 927.5875,894.2375 Q926.725,894.6 925.6875,894.6 Q924.475,894.6 923.5125,894.1 Q922.725,893.7 922.175,892.85 Q921.625,891.9875 921.625,890.9625 L921.625,890.0375 Q921.625,888.975 922.1125,888.0625 Q922.6125,887.1375 923.4875,886.65 Q924.3625,886.15 925.35,886.15 Q925.9375,886.15 926.45,886.2875 Q926.975,886.4125 927.4125,886.7 Z " fill="#000000"/><text fill="#000000" font-family="sans-serif" font-size="11.2" lengthAdjust="spacing" textLength="48.5461" x="936.4" y="894.6375">Costumer</text><line style="stroke:#181818;stroke-width:0.4000000000000001;" x1="914" x2="986.5461" y1="902.8" y2="902.8"/><line style="stroke:#181818;stroke-width:0.4000000000000001;" x1="914" x2="986.5461" y1="909.2" y2="909.2"/></g><!--class Figure--><g id="elem_Figure"><rect codeLine="71" fill="#F1F1F1" height="157.575" id="Figure" rx="2" ry="2" style="stroke:#181818;stroke-width:0.4000000000000001;" width="155.8781" x="1178.8" y="664"/><ellipse cx="1237.466" cy="676.8" fill="#ADD1B2" rx="8.8" ry="8.8" style="stroke:#181818;stroke-width:0.8000000000000002;"/><path d="M1239.6785,673.5 Q1239.8035,673.325 1239.9535,673.2375 Q1240.1035,673.15 1240.2785,673.15 Q1240.5785,673.15 1240.766,673.3625 Q1240.9535,673.5625 1240.9535,674.05 L1240.9535,675.2125 Q1240.9535,675.7 1240.766,675.9125 Q1240.5785,676.125 1240.2785,676.125 Q1240.0035,676.125 1239.841,675.9625 Q1239.6785,675.8125 1239.591,675.4 Q1239.5535,675.1125 1239.4035,674.9625 Q1239.141,674.6625 1238.6535,674.4875 Q1238.166,674.3125 1237.666,674.3125 Q1237.0535,674.3125 1236.541,674.575 Q1236.041,674.8375 1235.641,675.4375 Q1235.2535,676.0375 1235.2535,676.8625 L1235.2535,677.7375 Q1235.2535,678.725 1235.966,679.3875 Q1236.6785,680.0375 1237.9535,680.0375 Q1238.7035,680.0375 1239.2285,679.8375 Q1239.541,679.7125 1239.8785,679.3625 Q1240.091,679.15 1240.2035,679.0875 Q1240.3285,679.025 1240.491,679.025 Q1240.7535,679.025 1240.9535,679.2375 Q1241.166,679.4375 1241.166,679.7125 Q1241.166,679.9875 1240.891,680.3125 Q1240.491,680.775 1239.8535,681.0375 Q1238.991,681.4 1237.9535,681.4 Q1236.741,681.4 1235.7785,680.9 Q1234.991,680.5 1234.441,679.65 Q1233.891,678.7875 1233.891,677.7625 L1233.891,676.8375 Q1233.891,675.775 1234.3785,674.8625 Q1234.8785,673.9375 1235.7535,673.45 Q1236.6285,672.95 1237.616,672.95 Q1238.2035,672.95 1238.716,673.0875 Q1239.241,673.2125 1239.6785,673.5 Z " fill="#000000"/><text fill="#000000" font-family="sans-serif" font-size="11.2" lengthAdjust="spacing" textLength="31.7461" x="1253.866" y="681.4375">Figure</text><line style="stroke:#181818;stroke-width:0.4000000000000001;" x1="1179.6" x2="1333.8781" y1="689.6" y2="689.6"/><text fill="#000000" font-family="sans-serif" font-size="11.2" lengthAdjust="spacing" textLength="72.2258" x="1183.6" y="704.8859">-figureId: Long</text><text fill="#000000" font-family="sans-serif" font-size="11.2" lengthAdjust="spacing" textLength="67.2273" x="1183.6" y="719.7828">-name: String</text><text fill="#000000" font-family="sans-serif" font-size="11.2" lengthAdjust="spacing" textLength="120.1375" x="1183.6" y="734.6797">-description: Description</text><text fill="#000000" font-family="sans-serif" font-size="11.2" lengthAdjust="spacing" textLength="70.9734" x="1183.6" y="749.5766">-version: Long</text><text fill="#000000" font-family="sans-serif" font-size="11.2" lengthAdjust="spacing" textLength="130.1016" x="1183.6" y="764.4734">-category: FigureCategory</text><text fill="#000000" font-family="sans-serif" font-size="11.2" lengthAdjust="spacing" textLength="146.2781" x="1183.6" y="779.3703">-availability: FigureAvailability</text><text fill="#000000" font-family="sans-serif" font-size="11.2" lengthAdjust="spacing" textLength="103.332" x="1183.6" y="794.2672">-status: FigureStatus</text><text fill="#000000" font-family="sans-serif" font-size="11.2" lengthAdjust="spacing" textLength="104.557" x="1183.6" y="809.1641">-costumer: Costumer</text><line style="stroke:#181818;stroke-width:0.4000000000000001;" x1="1179.6" x2="1333.8781" y1="815.175" y2="815.175"/></g><!--class FigureCategory--><g id="elem_FigureCategory"><rect codeLine="82" fill="#F1F1F1" height="38.4" id="FigureCategory" rx="2" ry="2" style="stroke:#181818;stroke-width:0.4000000000000001;" width="102.7914" x="1272" y="877.2"/><ellipse cx="1284" cy="890" fill="#ADD1B2" rx="8.8" ry="8.8" style="stroke:#181818;stroke-width:0.8000000000000002;"/><path d="M1286.2125,886.7 Q1286.3375,886.525 1286.4875,886.4375 Q1286.6375,886.35 1286.8125,886.35 Q1287.1125,886.35 1287.3,886.5625 Q1287.4875,886.7625 1287.4875,887.25 L1287.4875,888.4125 Q1287.4875,888.9 1287.3,889.1125 Q1287.1125,889.325 1286.8125,889.325 Q1286.5375,889.325 1286.375,889.1625 Q1286.2125,889.0125 1286.125,888.6 Q1286.0875,888.3125 1285.9375,888.1625 Q1285.675,887.8625 1285.1875,887.6875 Q1284.7,887.5125 1284.2,887.5125 Q1283.5875,887.5125 1283.075,887.775 Q1282.575,888.0375 1282.175,888.6375 Q1281.7875,889.2375 1281.7875,890.0625 L1281.7875,890.9375 Q1281.7875,891.925 1282.5,892.5875 Q1283.2125,893.2375 1284.4875,893.2375 Q1285.2375,893.2375 1285.7625,893.0375 Q1286.075,892.9125 1286.4125,892.5625 Q1286.625,892.35 1286.7375,892.2875 Q1286.8625,892.225 1287.025,892.225 Q1287.2875,892.225 1287.4875,892.4375 Q1287.7,892.6375 1287.7,892.9125 Q1287.7,893.1875 1287.425,893.5125 Q1287.025,893.975 1286.3875,894.2375 Q1285.525,894.6 1284.4875,894.6 Q1283.275,894.6 1282.3125,894.1 Q1281.525,893.7 1280.975,892.85 Q1280.425,891.9875 1280.425,890.9625 L1280.425,890.0375 Q1280.425,888.975 1280.9125,888.0625 Q1281.4125,887.1375 1282.2875,886.65 Q1283.1625,886.15 1284.15,886.15 Q1284.7375,886.15 1285.25,886.2875 Q1285.775,886.4125 1286.2125,886.7 Z " fill="#000000"/><text fill="#000000" font-family="sans-serif" font-size="11.2" lengthAdjust="spacing" textLength="77.1914" x="1295.2" y="894.6375">FigureCategory</text><line style="stroke:#181818;stroke-width:0.4000000000000001;" x1="1272.8" x2="1373.9914" y1="902.8" y2="902.8"/><line style="stroke:#181818;stroke-width:0.4000000000000001;" x1="1272.8" x2="1373.9914" y1="909.2" y2="909.2"/></g><!--class FigureAvailability--><g id="elem_FigureAvailability"><rect codeLine="83" fill="#F1F1F1" height="38.4" id="FigureAvailability" rx="2" ry="2" style="stroke:#181818;stroke-width:0.4000000000000001;" width="110.2563" x="1016" y="877.2"/><ellipse cx="1028" cy="890" fill="#ADD1B2" rx="8.8" ry="8.8" style="stroke:#181818;stroke-width:0.8000000000000002;"/><path d="M1030.2125,886.7 Q1030.3375,886.525 1030.4875,886.4375 Q1030.6375,886.35 1030.8125,886.35 Q1031.1125,886.35 1031.3,886.5625 Q1031.4875,886.7625 1031.4875,887.25 L1031.4875,888.4125 Q1031.4875,888.9 1031.3,889.1125 Q1031.1125,889.325 1030.8125,889.325 Q1030.5375,889.325 1030.375,889.1625 Q1030.2125,889.0125 1030.125,888.6 Q1030.0875,888.3125 1029.9375,888.1625 Q1029.675,887.8625 1029.1875,887.6875 Q1028.7,887.5125 1028.2,887.5125 Q1027.5875,887.5125 1027.075,887.775 Q1026.575,888.0375 1026.175,888.6375 Q1025.7875,889.2375 1025.7875,890.0625 L1025.7875,890.9375 Q1025.7875,891.925 1026.5,892.5875 Q1027.2125,893.2375 1028.4875,893.2375 Q1029.2375,893.2375 1029.7625,893.0375 Q1030.075,892.9125 1030.4125,892.5625 Q1030.625,892.35 1030.7375,892.2875 Q1030.8625,892.225 1031.025,892.225 Q1031.2875,892.225 1031.4875,892.4375 Q1031.7,892.6375 1031.7,892.9125 Q1031.7,893.1875 1031.425,893.5125 Q1031.025,893.975 1030.3875,894.2375 Q1029.525,894.6 1028.4875,894.6 Q1027.275,894.6 1026.3125,894.1 Q1025.525,893.7 1024.975,892.85 Q1024.425,891.9875 1024.425,890.9625 L1024.425,890.0375 Q1024.425,888.975 1024.9125,888.0625 Q1025.4125,887.1375 1026.2875,886.65 Q1027.1625,886.15 1028.15,886.15 Q1028.7375,886.15 1029.25,886.2875 Q1029.775,886.4125 1030.2125,886.7 Z " fill="#000000"/><text fill="#000000" font-family="sans-serif" font-size="11.2" lengthAdjust="spacing" textLength="84.6563" x="1039.2" y="894.6375">FigureAvailability</text><line style="stroke:#181818;stroke-width:0.4000000000000001;" x1="1016.8" x2="1125.4563" y1="902.8" y2="902.8"/><line style="stroke:#181818;stroke-width:0.4000000000000001;" x1="1016.8" x2="1125.4563" y1="909.2" y2="909.2"/></g><!--class FigureStatus--><g id="elem_FigureStatus"><rect codeLine="84" fill="#F1F1F1" height="38.4" id="FigureStatus" rx="2" ry="2" style="stroke:#181818;stroke-width:0.4000000000000001;" width="89.0977" x="1154.8" y="877.2"/><ellipse cx="1166.8" cy="890" fill="#ADD1B2" rx="8.8" ry="8.8" style="stroke:#181818;stroke-width:0.8000000000000002;"/><path d="M1169.0125,886.7 Q1169.1375,886.525 1169.2875,886.4375 Q1169.4375,886.35 1169.6125,886.35 Q1169.9125,886.35 1170.1,886.5625 Q1170.2875,886.7625 1170.2875,887.25 L1170.2875,888.4125 Q1170.2875,888.9 1170.1,889.1125 Q1169.9125,889.325 1169.6125,889.325 Q1169.3375,889.325 1169.175,889.1625 Q1169.0125,889.0125 1168.925,888.6 Q1168.8875,888.3125 1168.7375,888.1625 Q1168.475,887.8625 1167.9875,887.6875 Q1167.5,887.5125 1167,887.5125 Q1166.3875,887.5125 1165.875,887.775 Q1165.375,888.0375 1164.975,888.6375 Q1164.5875,889.2375 1164.5875,890.0625 L1164.5875,890.9375 Q1164.5875,891.925 1165.3,892.5875 Q1166.0125,893.2375 1167.2875,893.2375 Q1168.0375,893.2375 1168.5625,893.0375 Q1168.875,892.9125 1169.2125,892.5625 Q1169.425,892.35 1169.5375,892.2875 Q1169.6625,892.225 1169.825,892.225 Q1170.0875,892.225 1170.2875,892.4375 Q1170.5,892.6375 1170.5,892.9125 Q1170.5,893.1875 1170.225,893.5125 Q1169.825,893.975 1169.1875,894.2375 Q1168.325,894.6 1167.2875,894.6 Q1166.075,894.6 1165.1125,894.1 Q1164.325,893.7 1163.775,892.85 Q1163.225,891.9875 1163.225,890.9625 L1163.225,890.0375 Q1163.225,888.975 1163.7125,888.0625 Q1164.2125,887.1375 1165.0875,886.65 Q1165.9625,886.15 1166.95,886.15 Q1167.5375,886.15 1168.05,886.2875 Q1168.575,886.4125 1169.0125,886.7 Z " fill="#000000"/><text fill="#000000" font-family="sans-serif" font-size="11.2" lengthAdjust="spacing" textLength="63.4977" x="1178" y="894.6375">FigureStatus</text><line style="stroke:#181818;stroke-width:0.4000000000000001;" x1="1155.6" x2="1243.0977" y1="902.8" y2="902.8"/><line style="stroke:#181818;stroke-width:0.4000000000000001;" x1="1155.6" x2="1243.0977" y1="909.2" y2="909.2"/></g><!--class Location--><g id="elem_Location"><rect codeLine="86" fill="#F1F1F1" height="97.9875" id="Location" rx="2" ry="2" style="stroke:#181818;stroke-width:0.4000000000000001;" width="102.9734" x="1427.6" y="694"/><ellipse cx="1455.363" cy="706.8" fill="#ADD1B2" rx="8.8" ry="8.8" style="stroke:#181818;stroke-width:0.8000000000000002;"/><path d="M1457.5755,703.5 Q1457.7005,703.325 1457.8505,703.2375 Q1458.0005,703.15 1458.1755,703.15 Q1458.4755,703.15 1458.663,703.3625 Q1458.8505,703.5625 1458.8505,704.05 L1458.8505,705.2125 Q1458.8505,705.7 1458.663,705.9125 Q1458.4755,706.125 1458.1755,706.125 Q1457.9005,706.125 1457.738,705.9625 Q1457.5755,705.8125 1457.488,705.4 Q1457.4505,705.1125 1457.3005,704.9625 Q1457.038,704.6625 1456.5505,704.4875 Q1456.063,704.3125 1455.563,704.3125 Q1454.9505,704.3125 1454.438,704.575 Q1453.938,704.8375 1453.538,705.4375 Q1453.1505,706.0375 1453.1505,706.8625 L1453.1505,707.7375 Q1453.1505,708.725 1453.863,709.3875 Q1454.5755,710.0375 1455.8505,710.0375 Q1456.6005,710.0375 1457.1255,709.8375 Q1457.438,709.7125 1457.7755,709.3625 Q1457.988,709.15 1458.1005,709.0875 Q1458.2255,709.025 1458.388,709.025 Q1458.6505,709.025 1458.8505,709.2375 Q1459.063,709.4375 1459.063,709.7125 Q1459.063,709.9875 1458.788,710.3125 Q1458.388,710.775 1457.7505,711.0375 Q1456.888,711.4 1455.8505,711.4 Q1454.638,711.4 1453.6755,710.9 Q1452.888,710.5 1452.338,709.65 Q1451.788,708.7875 1451.788,707.7625 L1451.788,706.8375 Q1451.788,705.775 1452.2755,704.8625 Q1452.7755,703.9375 1453.6505,703.45 Q1454.5255,702.95 1455.513,702.95 Q1456.1005,702.95 1456.613,703.0875 Q1457.138,703.2125 1457.5755,703.5 Z " fill="#000000"/><text fill="#000000" font-family="sans-serif" font-size="11.2" lengthAdjust="spacing" textLength="42.3445" x="1470.0659" y="711.4375">Location</text><line style="stroke:#181818;stroke-width:0.4000000000000001;" x1="1428.4" x2="1529.7734" y1="719.6" y2="719.6"/><text fill="#000000" font-family="sans-serif" font-size="11.2" lengthAdjust="spacing" textLength="90.8852" x="1432.4" y="734.8859">-address: Address</text><text fill="#000000" font-family="sans-serif" font-size="11.2" lengthAdjust="spacing" textLength="79.7016" x="1432.4" y="749.7828">-latitude: double</text><text fill="#000000" font-family="sans-serif" font-size="11.2" lengthAdjust="spacing" textLength="89.0477" x="1432.4" y="764.6797">-longitude: double</text><text fill="#000000" font-family="sans-serif" font-size="11.2" lengthAdjust="spacing" textLength="93.3734" x="1432.4" y="779.5766">-description: String</text><line style="stroke:#181818;stroke-width:0.4000000000000001;" x1="1428.4" x2="1529.7734" y1="785.5875" y2="785.5875"/></g><!--class Address--><g id="elem_Address"><rect codeLine="93" fill="#F1F1F1" height="38.4" id="Address" rx="2" ry="2" style="stroke:#181818;stroke-width:0.4000000000000001;" width="66.6867" x="1512.4" y="877.2"/><ellipse cx="1524.4" cy="890" fill="#ADD1B2" rx="8.8" ry="8.8" style="stroke:#181818;stroke-width:0.8000000000000002;"/><path d="M1526.6125,886.7 Q1526.7375,886.525 1526.8875,886.4375 Q1527.0375,886.35 1527.2125,886.35 Q1527.5125,886.35 1527.7,886.5625 Q1527.8875,886.7625 1527.8875,887.25 L1527.8875,888.4125 Q1527.8875,888.9 1527.7,889.1125 Q1527.5125,889.325 1527.2125,889.325 Q1526.9375,889.325 1526.775,889.1625 Q1526.6125,889.0125 1526.525,888.6 Q1526.4875,888.3125 1526.3375,888.1625 Q1526.075,887.8625 1525.5875,887.6875 Q1525.1,887.5125 1524.6,887.5125 Q1523.9875,887.5125 1523.475,887.775 Q1522.975,888.0375 1522.575,888.6375 Q1522.1875,889.2375 1522.1875,890.0625 L1522.1875,890.9375 Q1522.1875,891.925 1522.9,892.5875 Q1523.6125,893.2375 1524.8875,893.2375 Q1525.6375,893.2375 1526.1625,893.0375 Q1526.475,892.9125 1526.8125,892.5625 Q1527.025,892.35 1527.1375,892.2875 Q1527.2625,892.225 1527.425,892.225 Q1527.6875,892.225 1527.8875,892.4375 Q1528.1,892.6375 1528.1,892.9125 Q1528.1,893.1875 1527.825,893.5125 Q1527.425,893.975 1526.7875,894.2375 Q1525.925,894.6 1524.8875,894.6 Q1523.675,894.6 1522.7125,894.1 Q1521.925,893.7 1521.375,892.85 Q1520.825,891.9875 1520.825,890.9625 L1520.825,890.0375 Q1520.825,888.975 1521.3125,888.0625 Q1521.8125,887.1375 1522.6875,886.65 Q1523.5625,886.15 1524.55,886.15 Q1525.1375,886.15 1525.65,886.2875 Q1526.175,886.4125 1526.6125,886.7 Z " fill="#000000"/><text fill="#000000" font-family="sans-serif" font-size="11.2" lengthAdjust="spacing" textLength="41.0867" x="1535.6" y="894.6375">Address</text><line style="stroke:#181818;stroke-width:0.4000000000000001;" x1="1513.2" x2="1578.2867" y1="902.8" y2="902.8"/><line style="stroke:#181818;stroke-width:0.4000000000000001;" x1="1513.2" x2="1578.2867" y1="909.2" y2="909.2"/></g><!--class Description--><g id="elem_Description"><rect codeLine="94" fill="#F1F1F1" height="38.4" id="Description" rx="2" ry="2" style="stroke:#181818;stroke-width:0.4000000000000001;" width="81.6219" x="1402.4" y="877.2"/><ellipse cx="1414.4" cy="890" fill="#ADD1B2" rx="8.8" ry="8.8" style="stroke:#181818;stroke-width:0.8000000000000002;"/><path d="M1416.6125,886.7 Q1416.7375,886.525 1416.8875,886.4375 Q1417.0375,886.35 1417.2125,886.35 Q1417.5125,886.35 1417.7,886.5625 Q1417.8875,886.7625 1417.8875,887.25 L1417.8875,888.4125 Q1417.8875,888.9 1417.7,889.1125 Q1417.5125,889.325 1417.2125,889.325 Q1416.9375,889.325 1416.775,889.1625 Q1416.6125,889.0125 1416.525,888.6 Q1416.4875,888.3125 1416.3375,888.1625 Q1416.075,887.8625 1415.5875,887.6875 Q1415.1,887.5125 1414.6,887.5125 Q1413.9875,887.5125 1413.475,887.775 Q1412.975,888.0375 1412.575,888.6375 Q1412.1875,889.2375 1412.1875,890.0625 L1412.1875,890.9375 Q1412.1875,891.925 1412.9,892.5875 Q1413.6125,893.2375 1414.8875,893.2375 Q1415.6375,893.2375 1416.1625,893.0375 Q1416.475,892.9125 1416.8125,892.5625 Q1417.025,892.35 1417.1375,892.2875 Q1417.2625,892.225 1417.425,892.225 Q1417.6875,892.225 1417.8875,892.4375 Q1418.1,892.6375 1418.1,892.9125 Q1418.1,893.1875 1417.825,893.5125 Q1417.425,893.975 1416.7875,894.2375 Q1415.925,894.6 1414.8875,894.6 Q1413.675,894.6 1412.7125,894.1 Q1411.925,893.7 1411.375,892.85 Q1410.825,891.9875 1410.825,890.9625 L1410.825,890.0375 Q1410.825,888.975 1411.3125,888.0625 Q1411.8125,887.1375 1412.6875,886.65 Q1413.5625,886.15 1414.55,886.15 Q1415.1375,886.15 1415.65,886.2875 Q1416.175,886.4125 1416.6125,886.7 Z " fill="#000000"/><text fill="#000000" font-family="sans-serif" font-size="11.2" lengthAdjust="spacing" textLength="56.0219" x="1425.6" y="894.6375">Description</text><line style="stroke:#181818;stroke-width:0.4000000000000001;" x1="1403.2" x2="1483.2219" y1="902.8" y2="902.8"/><line style="stroke:#181818;stroke-width:0.4000000000000001;" x1="1403.2" x2="1483.2219" y1="909.2" y2="909.2"/></g><!--class Duration--><g id="elem_Duration"><rect codeLine="95" fill="#F1F1F1" height="38.4" id="Duration" rx="2" ry="2" style="stroke:#181818;stroke-width:0.4000000000000001;" width="67.9336" x="1558.8" y="723.6"/><ellipse cx="1570.8" cy="736.4" fill="#ADD1B2" rx="8.8" ry="8.8" style="stroke:#181818;stroke-width:0.8000000000000002;"/><path d="M1573.0125,733.1 Q1573.1375,732.925 1573.2875,732.8375 Q1573.4375,732.75 1573.6125,732.75 Q1573.9125,732.75 1574.1,732.9625 Q1574.2875,733.1625 1574.2875,733.65 L1574.2875,734.8125 Q1574.2875,735.3 1574.1,735.5125 Q1573.9125,735.725 1573.6125,735.725 Q1573.3375,735.725 1573.175,735.5625 Q1573.0125,735.4125 1572.925,735 Q1572.8875,734.7125 1572.7375,734.5625 Q1572.475,734.2625 1571.9875,734.0875 Q1571.5,733.9125 1571,733.9125 Q1570.3875,733.9125 1569.875,734.175 Q1569.375,734.4375 1568.975,735.0375 Q1568.5875,735.6375 1568.5875,736.4625 L1568.5875,737.3375 Q1568.5875,738.325 1569.3,738.9875 Q1570.0125,739.6375 1571.2875,739.6375 Q1572.0375,739.6375 1572.5625,739.4375 Q1572.875,739.3125 1573.2125,738.9625 Q1573.425,738.75 1573.5375,738.6875 Q1573.6625,738.625 1573.825,738.625 Q1574.0875,738.625 1574.2875,738.8375 Q1574.5,739.0375 1574.5,739.3125 Q1574.5,739.5875 1574.225,739.9125 Q1573.825,740.375 1573.1875,740.6375 Q1572.325,741 1571.2875,741 Q1570.075,741 1569.1125,740.5 Q1568.325,740.1 1567.775,739.25 Q1567.225,738.3875 1567.225,737.3625 L1567.225,736.4375 Q1567.225,735.375 1567.7125,734.4625 Q1568.2125,733.5375 1569.0875,733.05 Q1569.9625,732.55 1570.95,732.55 Q1571.5375,732.55 1572.05,732.6875 Q1572.575,732.8125 1573.0125,733.1 Z " fill="#000000"/><text fill="#000000" font-family="sans-serif" font-size="11.2" lengthAdjust="spacing" textLength="42.3336" x="1582" y="741.0375">Duration</text><line style="stroke:#181818;stroke-width:0.4000000000000001;" x1="1559.6" x2="1625.9336" y1="749.2" y2="749.2"/><line style="stroke:#181818;stroke-width:0.4000000000000001;" x1="1559.6" x2="1625.9336" y1="755.6" y2="755.6"/></g><!--class UserSession--><g id="elem_UserSession"><rect codeLine="97" fill="#F1F1F1" height="53.2969" id="UserSession" rx="2" ry="2" style="stroke:#181818;stroke-width:0.4000000000000001;" width="109.4977" x="382" y="716"/><ellipse cx="403.1825" cy="728.8" fill="#ADD1B2" rx="8.8" ry="8.8" style="stroke:#181818;stroke-width:0.8000000000000002;"/><path d="M405.395,725.5 Q405.52,725.325 405.67,725.2375 Q405.82,725.15 405.995,725.15 Q406.295,725.15 406.4825,725.3625 Q406.67,725.5625 406.67,726.05 L406.67,727.2125 Q406.67,727.7 406.4825,727.9125 Q406.295,728.125 405.995,728.125 Q405.72,728.125 405.5575,727.9625 Q405.395,727.8125 405.3075,727.4 Q405.27,727.1125 405.12,726.9625 Q404.8575,726.6625 404.37,726.4875 Q403.8825,726.3125 403.3825,726.3125 Q402.77,726.3125 402.2575,726.575 Q401.7575,726.8375 401.3575,727.4375 Q400.97,728.0375 400.97,728.8625 L400.97,729.7375 Q400.97,730.725 401.6825,731.3875 Q402.395,732.0375 403.67,732.0375 Q404.42,732.0375 404.945,731.8375 Q405.2575,731.7125 405.595,731.3625 Q405.8075,731.15 405.92,731.0875 Q406.045,731.025 406.2075,731.025 Q406.47,731.025 406.67,731.2375 Q406.8825,731.4375 406.8825,731.7125 Q406.8825,731.9875 406.6075,732.3125 Q406.2075,732.775 405.57,733.0375 Q404.7075,733.4 403.67,733.4 Q402.4575,733.4 401.495,732.9 Q400.7075,732.5 400.1575,731.65 Q399.6075,730.7875 399.6075,729.7625 L399.6075,728.8375 Q399.6075,727.775 400.095,726.8625 Q400.595,725.9375 401.47,725.45 Q402.345,724.95 403.3325,724.95 Q403.92,724.95 404.4325,725.0875 Q404.9575,725.2125 405.395,725.5 Z " fill="#000000"/><text fill="#000000" font-family="sans-serif" font-size="11.2" lengthAdjust="spacing" textLength="63.4922" x="416.423" y="733.4375">UserSession</text><line style="stroke:#181818;stroke-width:0.4000000000000001;" x1="382.8" x2="490.6977" y1="741.6" y2="741.6"/><line style="stroke:#181818;stroke-width:0.4000000000000001;" x1="382.8" x2="490.6977" y1="748" y2="748"/><text fill="#000000" font-family="sans-serif" font-size="11.2" lengthAdjust="spacing" textLength="99.8977" x="386.8" y="763.2859">+getUserId() : Email</text></g><!--class Email--><g id="elem_Email"><rect codeLine="101" fill="#F1F1F1" height="53.2969" id="Email" rx="2" ry="2" style="stroke:#181818;stroke-width:0.4000000000000001;" width="105.768" x="153.6" y="869.6"/><ellipse cx="189.0813" cy="882.4" fill="#ADD1B2" rx="8.8" ry="8.8" style="stroke:#181818;stroke-width:0.8000000000000002;"/><path d="M191.2938,879.1 Q191.4188,878.925 191.5688,878.8375 Q191.7188,878.75 191.8938,878.75 Q192.1938,878.75 192.3813,878.9625 Q192.5688,879.1625 192.5688,879.65 L192.5688,880.8125 Q192.5688,881.3 192.3813,881.5125 Q192.1938,881.725 191.8938,881.725 Q191.6188,881.725 191.4563,881.5625 Q191.2938,881.4125 191.2063,881 Q191.1688,880.7125 191.0188,880.5625 Q190.7563,880.2625 190.2688,880.0875 Q189.7813,879.9125 189.2813,879.9125 Q188.6688,879.9125 188.1563,880.175 Q187.6563,880.4375 187.2563,881.0375 Q186.8688,881.6375 186.8688,882.4625 L186.8688,883.3375 Q186.8688,884.325 187.5813,884.9875 Q188.2938,885.6375 189.5688,885.6375 Q190.3188,885.6375 190.8438,885.4375 Q191.1563,885.3125 191.4938,884.9625 Q191.7063,884.75 191.8188,884.6875 Q191.9438,884.625 192.1063,884.625 Q192.3688,884.625 192.5688,884.8375 Q192.7813,885.0375 192.7813,885.3125 Q192.7813,885.5875 192.5063,885.9125 Q192.1063,886.375 191.4688,886.6375 Q190.6063,887 189.5688,887 Q188.3563,887 187.3938,886.5 Q186.6063,886.1 186.0563,885.25 Q185.5063,884.3875 185.5063,883.3625 L185.5063,882.4375 Q185.5063,881.375 185.9938,880.4625 Q186.4938,879.5375 187.3688,879.05 Q188.2438,878.55 189.2313,878.55 Q189.8188,878.55 190.3313,878.6875 Q190.8563,878.8125 191.2938,879.1 Z " fill="#000000"/><text fill="#000000" font-family="sans-serif" font-size="11.2" lengthAdjust="spacing" textLength="28.0055" x="205.4813" y="887.0375">Email</text><line style="stroke:#181818;stroke-width:0.4000000000000001;" x1="154.4" x2="258.568" y1="895.2" y2="895.2"/><line style="stroke:#181818;stroke-width:0.4000000000000001;" x1="154.4" x2="258.568" y1="901.6" y2="901.6"/><text fill="#000000" font-family="sans-serif" font-size="11.2" lengthAdjust="spacing" textLength="96.168" x="158.4" y="916.8859">+getEmail() : String</text></g><!--class LocalDateTime--><g id="elem_LocalDateTime"><rect codeLine="105" fill="#F1F1F1" height="53.2969" id="LocalDateTime" rx="2" ry="2" style="stroke:#181818;stroke-width:0.4000000000000001;" width="128.8023" x="380.4" y="416.8"/><ellipse cx="404.9466" cy="429.6" fill="#ADD1B2" rx="8.8" ry="8.8" style="stroke:#181818;stroke-width:0.8000000000000002;"/><path d="M407.1591,426.3 Q407.2841,426.125 407.4341,426.0375 Q407.5841,425.95 407.7591,425.95 Q408.0591,425.95 408.2466,426.1625 Q408.4341,426.3625 408.4341,426.85 L408.4341,428.0125 Q408.4341,428.5 408.2466,428.7125 Q408.0591,428.925 407.7591,428.925 Q407.4841,428.925 407.3216,428.7625 Q407.1591,428.6125 407.0716,428.2 Q407.0341,427.9125 406.8841,427.7625 Q406.6216,427.4625 406.1341,427.2875 Q405.6466,427.1125 405.1466,427.1125 Q404.5341,427.1125 404.0216,427.375 Q403.5216,427.6375 403.1216,428.2375 Q402.7341,428.8375 402.7341,429.6625 L402.7341,430.5375 Q402.7341,431.525 403.4466,432.1875 Q404.1591,432.8375 405.4341,432.8375 Q406.1841,432.8375 406.7091,432.6375 Q407.0216,432.5125 407.3591,432.1625 Q407.5716,431.95 407.6841,431.8875 Q407.8091,431.825 407.9716,431.825 Q408.2341,431.825 408.4341,432.0375 Q408.6466,432.2375 408.6466,432.5125 Q408.6466,432.7875 408.3716,433.1125 Q407.9716,433.575 407.3341,433.8375 Q406.4716,434.2 405.4341,434.2 Q404.2216,434.2 403.2591,433.7 Q402.4716,433.3 401.9216,432.45 Q401.3716,431.5875 401.3716,430.5625 L401.3716,429.6375 Q401.3716,428.575 401.8591,427.6625 Q402.3591,426.7375 403.2341,426.25 Q404.1091,425.75 405.0966,425.75 Q405.6841,425.75 406.1966,425.8875 Q406.7216,426.0125 407.1591,426.3 Z " fill="#000000"/><text fill="#000000" font-family="sans-serif" font-size="11.2" lengthAdjust="spacing" textLength="75.3211" x="418.9347" y="434.2375">LocalDateTime</text><line style="stroke:#181818;stroke-width:0.4000000000000001;" x1="381.2" x2="508.4023" y1="442.4" y2="442.4"/><line style="stroke:#181818;stroke-width:0.4000000000000001;" x1="381.2" x2="508.4023" y1="448.8" y2="448.8"/><text fill="#000000" font-family="sans-serif" font-size="11.2" lengthAdjust="spacing" textLength="119.2023" x="385.2" y="464.0859">+now() : LocalDateTime</text></g><!--link RegisterShowRequestUI to RegisterShowRequestController--><g id="link_RegisterShowRequestUI_RegisterShowRequestController"><path codeLine="110" d="M704,133.664 C704,149.024 704,160.832 704,176.784 " fill="none" id="RegisterShowRequestUI-to-RegisterShowRequestController" style="stroke:#181818;stroke-width:0.8000000000000002;"/><polygon fill="#181818" points="704,181.584,707.2,174.384,704,177.584,700.8,174.384,704,181.584" style="stroke:#181818;stroke-width:0.8000000000000002;"/></g><!--link RegisterShowRequestController to Repositories--><g id="link_RegisterShowRequestController_Repositories"><path codeLine="111" d="M745.272,339.272 C753.76,355.32 760.2846,367.6765 768.2526,382.7485 " fill="none" id="RegisterShowRequestController-to-Repositories" style="stroke:#181818;stroke-width:0.8000000000000002;"/><polygon fill="#181818" points="770.496,386.992,769.9599,379.1312,768.6265,383.4558,764.3019,382.1223,770.496,386.992" style="stroke:#181818;stroke-width:0.8000000000000002;"/></g><!--link RegisterShowRequestController to AuthenticationRepository--><g id="link_RegisterShowRequestController_AuthenticationRepository"><path codeLine="112" d="M662.4,339.208 C648.648,364.984 636.8,387.2 636.8,387.2 C636.8,387.2 636.8,500 636.8,500 C636.8,500 683.7825,523.3739 728.8545,545.7979 " fill="none" id="RegisterShowRequestController-to-AuthenticationRepository" style="stroke:#181818;stroke-width:0.8000000000000002;"/><polygon fill="#181818" points="733.152,547.936,728.1311,541.8639,729.5707,546.1543,725.2803,547.5939,733.152,547.936" style="stroke:#181818;stroke-width:0.8000000000000002;"/></g><!--link RegisterShowRequestController to FigureRepository--><g id="link_RegisterShowRequestController_FigureRepository"><path codeLine="113" d="M652.08,339.28 C605.448,409.4 542.3535,504.2668 511.3455,550.9068 " fill="none" id="RegisterShowRequestController-to-FigureRepository" style="stroke:#181818;stroke-width:0.8000000000000002;"/><polygon fill="#181818" points="508.688,554.904,515.3391,550.6798,510.9026,551.573,510.0094,547.1365,508.688,554.904" style="stroke:#181818;stroke-width:0.8000000000000002;"/></g><!--link RegisterShowRequestController to ShowRepository--><g id="link_RegisterShowRequestController_ShowRepository"><path codeLine="114" d="M1021.968,339.208 C1127.032,364.984 1217.6,387.2 1217.6,387.2 C1217.6,387.2 1217.6,500 1217.6,500 C1217.6,500 1199.8478,527.2953 1184.4158,551.0393 " fill="none" id="RegisterShowRequestController-to-ShowRepository" style="stroke:#181818;stroke-width:0.8000000000000002;"/><polygon fill="#181818" points="1181.8,555.064,1188.4067,550.7709,1183.9798,551.7101,1183.0405,547.2832,1181.8,555.064" style="stroke:#181818;stroke-width:0.8000000000000002;"/></g><!--link RegisterShowRequestController to ShowFactory--><g id="link_RegisterShowRequestController_ShowFactory"><path codeLine="115" d="M1104.928,326.44 C1296.816,357.664 1510.9423,392.5091 1655.4383,416.0211 " fill="none" id="RegisterShowRequestController-to-ShowFactory" style="stroke:#181818;stroke-width:0.8000000000000002;"/><polygon fill="#181818" points="1660.176,416.792,1653.5834,412.4772,1656.2279,416.1496,1652.5555,418.7941,1660.176,416.792" style="stroke:#181818;stroke-width:0.8000000000000002;"/></g><!--link RegisterShowRequestController to LocalDateTime--><g id="link_RegisterShowRequestController_LocalDateTime"><path codeLine="116" d="M592.568,339.272 C552.92,367.048 514.8833,393.7019 485.8433,414.0459 " fill="none" id="RegisterShowRequestController-to-LocalDateTime" style="stroke:#181818;stroke-width:0.8000000000000002;"/><polygon fill="#181818" points="481.912,416.8,489.645,415.2898,485.1881,414.5049,485.9729,410.048,481.912,416.8" style="stroke:#181818;stroke-width:0.8000000000000002;"/></g><!--link RegisterShowRequestController to Email--><g id="link_RegisterShowRequestController_Email"><path codeLine="117" d="M303.096,333.448 C146.976,361.576 4.8,387.2 4.8,387.2 C4.8,387.2 4.8,500 4.8,500 C4.8,500 145.8126,776.7073 190.8366,865.0593 " fill="none" id="RegisterShowRequestController-to-Email" style="stroke:#181818;stroke-width:0.8000000000000002;"/><polygon fill="#181818" points="193.016,869.336,192.598,861.468,191.1998,865.7721,186.8958,864.3739,193.016,869.336" style="stroke:#181818;stroke-width:0.8000000000000002;"/></g><!--link RegisterShowRequestController to Show--><g id="link_RegisterShowRequestController_Show"><path codeLine="118" d="M1034.84,339.208 C1144.168,364.984 1238.4,387.2 1238.4,387.2 C1238.4,387.2 1322.2049,498.2484 1362.1649,551.2084 " fill="none" id="RegisterShowRequestController-to-Show" style="stroke:#181818;stroke-width:0.8000000000000002;"/><polygon fill="#181818" points="1365.056,555.04,1363.2738,547.3651,1362.6467,551.847,1358.1649,551.2199,1365.056,555.04" style="stroke:#181818;stroke-width:0.8000000000000002;"/></g><!--link AuthenticationController to AuthenticationRepository--><g id="link_AuthenticationController_AuthenticationRepository"><path codeLine="120" d="M1019.728,477.688 C974.4,499.04 920.1184,524.6186 874.8224,545.9546 " fill="none" id="AuthenticationController-to-AuthenticationRepository" style="stroke:#181818;stroke-width:0.8000000000000002;"/><polygon fill="#181818" points="870.48,548,878.3572,547.8268,874.0987,546.2955,875.63,542.037,870.48,548" style="stroke:#181818;stroke-width:0.8000000000000002;"/></g><!--link FigureController to FigureRepository--><g id="link_FigureController_FigureRepository"><path codeLine="121" d="M259.968,477.688 C313.232,501.536 379.571,531.2308 428.715,553.2308 " fill="none" id="FigureController-to-FigureRepository" style="stroke:#181818;stroke-width:0.8000000000000002;"/><polygon fill="#181818" points="433.096,555.192,427.8319,549.3294,429.4451,553.5576,425.2169,555.1708,433.096,555.192" style="stroke:#181818;stroke-width:0.8000000000000002;"/></g><!--link AuthenticationRepository to UserSession--><g id="link_AuthenticationRepository_UserSession"><path codeLine="123" d="M724.08,616.08 C654.624,646.52 557.9323,688.9052 496.0363,716.0332 " fill="none" id="AuthenticationRepository-to-UserSession" style="stroke:#181818;stroke-width:0.8000000000000002;"/><polygon fill="#181818" points="491.64,717.96,499.519,718.0006,495.3036,716.3543,496.9499,712.1389,491.64,717.96" style="stroke:#181818;stroke-width:0.8000000000000002;"/></g><!--link UserSession to Email--><g id="link_UserSession_Email"><path codeLine="124" d="M397.192,769.728 C354.864,797.656 292.1585,839.0205 249.8785,866.9165 " fill="none" id="UserSession-to-Email" style="stroke:#181818;stroke-width:0.8000000000000002;"/><polygon fill="#181818" points="245.872,869.56,253.6441,868.2658,249.2108,867.3571,250.1195,862.9238,245.872,869.56" style="stroke:#181818;stroke-width:0.8000000000000002;"/></g><!--link Repositories to ShowRepository--><g id="link_Repositories_ShowRepository"><path codeLine="126" d="M948.376,500.04 C1000.456,519.568 1051.8736,538.8507 1093.8176,554.5787 " fill="none" id="Repositories-to-ShowRepository" style="stroke:#181818;stroke-width:0.8000000000000002;"/><polygon fill="#181818" points="1098.312,556.264,1092.6939,550.7398,1094.5667,554.8596,1090.4468,556.7323,1098.312,556.264" style="stroke:#181818;stroke-width:0.8000000000000002;"/></g><!--link Repositories to AuthenticationRepository--><g id="link_Repositories_AuthenticationRepository"><path codeLine="127" d="M800,500.04 C800,516.312 800,528.792 800,543.2 " fill="none" id="Repositories-to-AuthenticationRepository" style="stroke:#181818;stroke-width:0.8000000000000002;"/><polygon fill="#181818" points="800,548,803.2,540.8,800,544,796.8,540.8,800,548" style="stroke:#181818;stroke-width:0.8000000000000002;"/></g><!--link Repositories to FigureRepository--><g id="link_Repositories_FigureRepository"><path codeLine="128" d="M674.4,500.04 C631.32,519.128 589.5247,537.6399 554.3087,553.2399 " fill="none" id="Repositories-to-FigureRepository" style="stroke:#181818;stroke-width:0.8000000000000002;"/><polygon fill="#181818" points="549.92,555.184,557.7991,555.1936,553.5772,553.5639,555.2069,549.3421,549.92,555.184" style="stroke:#181818;stroke-width:0.8000000000000002;"/></g><!--link ShowFactory to Show--><g id="link_ShowFactory_Show"><path codeLine="130" d="M1737.12,470.456 C1648.208,498.4 1514.4191,540.4565 1440.3151,563.7525 " fill="none" id="ShowFactory-to-Show" style="stroke:#181818;stroke-width:0.8000000000000002;"/><polygon fill="#181818" points="1435.736,565.192,1443.5643,566.0854,1439.5519,563.9924,1441.6449,559.98,1435.736,565.192" style="stroke:#181818;stroke-width:0.8000000000000002;"/></g><!--link Figure to FigureCategory--><g id="link_Figure_FigureCategory"><path codeLine="132" d="M1290.872,821.6 C1299.92,842.304 1306.95,858.4096 1313.134,872.5616 " fill="none" id="Figure-to-FigureCategory" style="stroke:#181818;stroke-width:0.8000000000000002;"/><polygon fill="#181818" points="1315.056,876.96,1315.1053,869.0811,1313.4544,873.2947,1309.2408,871.6437,1315.056,876.96" style="stroke:#181818;stroke-width:0.8000000000000002;"/></g><!--link Figure to FigureAvailability--><g id="link_Figure_FigureAvailability"><path codeLine="133" d="M1178.624,807.624 C1147.912,832.776 1118.7214,856.6785 1097.5454,874.0225 " fill="none" id="Figure-to-FigureAvailability" style="stroke:#181818;stroke-width:0.8000000000000002;"/><polygon fill="#181818" points="1093.832,877.064,1101.4298,874.9774,1096.9265,874.5295,1097.3745,870.0262,1093.832,877.064" style="stroke:#181818;stroke-width:0.8000000000000002;"/></g><!--link Figure to FigureStatus--><g id="link_Figure_FigureStatus"><path codeLine="134" d="M1227.24,821.6 C1219.4,842.304 1213.3241,858.3192 1207.9641,872.4712 " fill="none" id="Figure-to-FigureStatus" style="stroke:#181818;stroke-width:0.8000000000000002;"/><polygon fill="#181818" points="1206.264,876.96,1211.8067,871.3602,1207.6808,873.2193,1205.8216,869.0933,1206.264,876.96" style="stroke:#181818;stroke-width:0.8000000000000002;"/></g><!--link Figure to Description--><g id="link_Figure_Description"><path codeLine="135" d="M1335.04,807.4 C1366.024,832.664 1395.5515,856.7512 1416.8875,874.1432 " fill="none" id="Figure-to-Description" style="stroke:#181818;stroke-width:0.8000000000000002;"/><polygon fill="#181818" points="1420.608,877.176,1417.0491,870.1465,1417.5076,874.6487,1413.0054,875.1072,1420.608,877.176" style="stroke:#181818;stroke-width:0.8000000000000002;"/></g><!--link Figure to Costumer--><g id="link_Figure_Costumer"><path codeLine="136" d="M1178.496,782.264 C1103.48,819.296 1001.6,869.6 1001.6,869.6 C1001.6,869.6 999.408,870.7151 991.072,874.9471 " fill="none" id="Figure-to-Costumer" style="stroke:#181818;stroke-width:0.8000000000000002;"/><polygon fill="#181818" points="986.792,877.12,994.6606,876.714,990.3587,875.3093,991.7635,871.0073,986.792,877.12" style="stroke:#181818;stroke-width:0.8000000000000002;"/></g><!--link Location to Address--><g id="link_Location_Address"><path codeLine="138" d="M1500.208,791.696 C1512.896,820.744 1526.4306,851.7133 1535.6386,872.7933 " fill="none" id="Location-to-Address" style="stroke:#181818;stroke-width:0.8000000000000002;"/><polygon fill="#181818" points="1537.56,877.192,1537.6104,869.3131,1535.9588,873.5264,1531.7455,871.8749,1537.56,877.192" style="stroke:#181818;stroke-width:0.8000000000000002;"/></g><!--link Show to Location--><g id="link_Show_Location"><path codeLine="139" d="M1400.392,609.088 C1414,632.048 1431.6632,661.8396 1448.1672,689.6636 " fill="none" id="Show-to-Location" style="stroke:#181818;stroke-width:0.8000000000000002;"/><polygon fill="#181818" points="1450.616,693.792,1449.6951,685.9669,1448.5754,690.3517,1444.1906,689.232,1450.616,693.792" style="stroke:#181818;stroke-width:0.8000000000000002;"/></g><!--link Show to Costumer--><g id="link_Show_Costumer"><path codeLine="140" d="M1333.776,601.632 C1268.784,625.624 1164.8,664 1164.8,664 C1164.8,664 1021.7166,818.5574 970.8446,873.5174 " fill="none" id="Show-to-Costumer" style="stroke:#181818;stroke-width:0.8000000000000002;"/><polygon fill="#181818" points="967.584,877.04,974.8233,873.9298,970.3011,874.1045,970.1265,869.5824,967.584,877.04" style="stroke:#181818;stroke-width:0.8000000000000002;"/></g><!--link Show to Description--><g id="link_Show_Description"><path codeLine="141" d="M1387.936,608.808 C1395.4,670.704 1413.6,821.6 1413.6,821.6 C1413.6,821.6 1425.1773,850.5513 1433.9453,872.4713 " fill="none" id="Show-to-Description" style="stroke:#181818;stroke-width:0.8000000000000002;"/><polygon fill="#181818" points="1435.728,876.928,1436.0251,869.0545,1434.2424,873.2141,1430.0829,871.4314,1435.728,876.928" style="stroke:#181818;stroke-width:0.8000000000000002;"/></g><!--link Show to Duration--><g id="link_Show_Duration"><path codeLine="142" d="M1435.648,608.6 C1482.496,632.384 1544.8,664 1544.8,664 C1544.8,664 1564.7165,696.3599 1578.9085,719.4239 " fill="none" id="Show-to-Duration" style="stroke:#181818;stroke-width:0.8000000000000002;"/><polygon fill="#181818" points="1581.424,723.512,1580.3761,715.7029,1579.3277,720.1053,1574.9254,719.0569,1581.424,723.512" style="stroke:#181818;stroke-width:0.8000000000000002;"/></g><!--link Show to Figure--><g id="link_Show_Figure"><path codeLine="143" d="M1363.664,609.088 C1351.52,624.192 1338.576,640.2914 1322.712,660.0194 " fill="none" id="Show-to-Figure" style="stroke:#181818;stroke-width:0.8000000000000002;"/><polygon fill="#181818" points="1319.704,663.76,1326.7097,660.1544,1322.2106,660.6428,1321.7222,656.1438,1319.704,663.76" style="stroke:#181818;stroke-width:0.8000000000000002;"/></g><!--SRC=[nLRRRjim37ttL-XjBjOMUmxM0a6o0W4wR6ZI3r1jrH7gI9uafyYA_Vkeg-bBBWy3beV08WzDYZeyidxZeg6AxaX3YpTQiRKvr8meLXWggffbEW7qbfRodOkAlD9QOq_D1JE7Xf56rWUxGBwYfbhFZL7yfJLiLKYnvhyP-P9bdyZTtHrPI66Kh6kcj5rd3a-UMCMrOMgzbUzFx5VBjEc0v2CZyBk1AXlvKyazBy4uWw16Qcwauam716tDrfh1EuT79WmlgE5I9EmX85zvrIeMi0zfqSDeLur3hCCZydy-NNL-5L0LCqzCDr9e_bAp_0hUzcr7UTsvDrkkDtpdVO-oeFMI6cOj0QF6YV9Q5XvijtTDIeWO15yJqUwMIWgcPuGB0w1MEVYCBCCJs9Y65otXN_76cw0t4F48AR_wpjnVaq9gq-wOci49-YTRx5xoClkJXLFqu8c3EzziruVv7jf2eKaUeX-aMhJQI4YMyxBBl5gwHg7wkXhwnpvHowKKSHLzFymBm_Sibg7pb3aMut9xRZ-lJbCQ_1_XtLI_RUG494zTzJZfZaHlv9hLCAEf7KKiQ5ZDwVZGsDmVoE2G1w7ALmHiegugLELADArp1AWT56ZrArSxryhXBgnV_sYOvzowBGgcTOu9v1luG0lRVzH5cpHQFoQcuV-FmJKna6IKqz9CgZ3giNtTJh5szKY3p96ns8XLPIKqY7RXPMCaXdwYZZ3SXPod_t1KNTZn-UsB929DWXuPqmwH3ldIuKleHQiKlF5P0p60NP65Q3qKgkci_qA4-hlkXhuiSpiAlYrZ-Yyba4KCs9-Y2yM0NVdjxIscamV6edhx6yZlghGa5LKm2cfPkuQBEfdAZlszKGZkFHo1Sw6tmFcn2lOOQR48woYslfcyvYP1viWMBrf3JQiZOErMCS5eu4RtJKo9ZRqas15U7cnHEBhReIpXpA6KkNy8vXfGfYsXOQLiWHlH38sOilSQ6LhSKJ-ysQzmcuCbQ5B48mPZdbhpgaIV4oc1MsAeC_Xn7DJI4wqK8a1NnvyYIBjgLw3UyiQBr_HTTtDpV_eJAJlzsUVZaQoTXn-LjFEX8rax7p8Gjyi2mcrs0RhV_lDuJuFBgiYoenzA9_iu-iIRR5rsLDuj74io9dUtXwnt3qwsUk0_SV03vBXO_8tHzITeQ1UIT6RawOdDo1iK1zdnp2Dp4hWioPBRMj0BTnb4NhZOP4cHoO9JTCQeBCdYisT_0G00]--></g></svg>