<svg xmlns="http://www.w3.org/2000/svg" xmlns:xlink="http://www.w3.org/1999/xlink" contentStyleType="text/css" height="1403px" preserveAspectRatio="none" style="width:2649px;height:1403px;background:#FFFFFF;" version="1.1" viewBox="0 0 2649 1403" width="2649px" zoomAndPan="magnify"><defs/><g><rect fill="#FFFFFF" height="615.8691" style="stroke:#181818;stroke-width:1.0;" width="10" x="82.3687" y="162.2031"/><rect fill="#FFFFFF" height="615.8691" style="stroke:#181818;stroke-width:1.0;" width="10" x="286.8325" y="162.2031"/><rect fill="#FFFFFF" height="31.291" style="stroke:#181818;stroke-width:1.0;" width="10" x="515.7754" y="193.4941"/><rect fill="#FFFFFF" height="375.4922" style="stroke:#181818;stroke-width:1.0;" width="10" x="700.4678" y="256.0762"/><rect fill="#FFFFFF" height="156.4551" style="stroke:#181818;stroke-width:1.0;" width="10" x="909.6567" y="443.8223"/><rect fill="#FFFFFF" height="125.1641" style="stroke:#181818;stroke-width:1.0;" width="10" x="1161.6387" y="287.3672"/><rect fill="#FFFFFF" height="61.291" style="stroke:#181818;stroke-width:1.0;" width="10" x="1346.3105" y="846.6543"/><rect fill="#FFFFFF" height="31.291" style="stroke:#181818;stroke-width:1.0;" width="10" x="1346.3105" y="1270.7773"/><rect fill="#FFFFFF" height="424.123" style="stroke:#181818;stroke-width:1.0;" width="10" x="1805.8975" y="877.9453"/><rect fill="#FFFFFF" height="308.25" style="stroke:#181818;stroke-width:1.0;" width="10" x="2235.9106" y="939.2363"/><rect fill="none" height="124.5039" style="stroke:#000000;stroke-width:1.5;" width="304.291" x="216.4844" y="646.5684"/><rect fill="none" height="286.25" style="stroke:#000000;stroke-width:1.5;" width="872.7959" x="1759.2803" y="954.2363"/><line style="stroke:#181818;stroke-width:0.5;stroke-dasharray:5.0,5.0;" x1="87" x2="87" y1="83.6211" y2="1320.0684"/><line style="stroke:#181818;stroke-width:0.5;stroke-dasharray:5.0,5.0;" x1="291.4844" x2="291.4844" y1="83.6211" y2="1320.0684"/><line style="stroke:#181818;stroke-width:0.5;stroke-dasharray:5.0,5.0;" x1="520.0654" x2="520.0654" y1="83.6211" y2="1320.0684"/><line style="stroke:#181818;stroke-width:0.5;stroke-dasharray:5.0,5.0;" x1="704.4854" x2="704.4854" y1="83.6211" y2="1320.0684"/><line style="stroke:#181818;stroke-width:0.5;stroke-dasharray:5.0,5.0;" x1="914.4502" x2="914.4502" y1="83.6211" y2="1320.0684"/><line style="stroke:#181818;stroke-width:0.5;stroke-dasharray:5.0,5.0;" x1="1165.8633" x2="1165.8633" y1="83.6211" y2="1320.0684"/><line style="stroke:#181818;stroke-width:0.5;stroke-dasharray:5.0,5.0;" x1="1350.4141" x2="1350.4141" y1="83.6211" y2="1320.0684"/><line style="stroke:#181818;stroke-width:0.5;stroke-dasharray:5.0,5.0;" x1="1810.2803" x2="1810.2803" y1="83.6211" y2="1320.0684"/><line style="stroke:#181818;stroke-width:0.5;stroke-dasharray:5.0,5.0;" x1="2240.2041" x2="2240.2041" y1="83.6211" y2="1320.0684"/><line style="stroke:#181818;stroke-width:0.5;stroke-dasharray:5.0,5.0;" x1="2423.5391" x2="2423.5391" y1="83.6211" y2="1320.0684"/><line style="stroke:#181818;stroke-width:0.5;stroke-dasharray:5.0,5.0;" x1="2554.4766" x2="2554.4766" y1="83.6211" y2="1320.0684"/><text fill="#000000" font-family="sans-serif" font-size="14" lengthAdjust="spacing" textLength="158.7373" x="5" y="80.1074">Customer Representative</text><ellipse cx="87.3687" cy="13.5" fill="#E2E2F0" rx="8" ry="8" style="stroke:#181818;stroke-width:0.5;"/><path d="M87.3687,21.5 L87.3687,48.5 M74.3687,29.5 L100.3687,29.5 M87.3687,48.5 L74.3687,63.5 M87.3687,48.5 L100.3687,63.5 " fill="none" style="stroke:#181818;stroke-width:0.5;"/><text fill="#000000" font-family="sans-serif" font-size="14" lengthAdjust="spacing" textLength="158.7373" x="5" y="1334.1758">Customer Representative</text><ellipse cx="87.3687" cy="1346.1895" fill="#E2E2F0" rx="8" ry="8" style="stroke:#181818;stroke-width:0.5;"/><path d="M87.3687,1354.1895 L87.3687,1381.1895 M74.3687,1362.1895 L100.3687,1362.1895 M87.3687,1381.1895 L74.3687,1396.1895 M87.3687,1381.1895 L100.3687,1396.1895 " fill="none" style="stroke:#181818;stroke-width:0.5;"/><rect fill="#E2E2F0" height="32.6211" rx="2.5" ry="2.5" style="stroke:#181818;stroke-width:0.5;" width="130.6963" x="226.4844" y="50"/><text fill="#000000" font-family="sans-serif" font-size="14" lengthAdjust="spacing" textLength="116.6963" x="233.4844" y="72.1074">Customer App (UI)</text><rect fill="#E2E2F0" height="32.6211" rx="2.5" ry="2.5" style="stroke:#181818;stroke-width:0.5;" width="130.6963" x="226.4844" y="1319.0684"/><text fill="#000000" font-family="sans-serif" font-size="14" lengthAdjust="spacing" textLength="116.6963" x="233.4844" y="1341.1758">Customer App (UI)</text><rect fill="#E2E2F0" height="32.6211" rx="2.5" ry="2.5" style="stroke:#181818;stroke-width:0.5;" width="163.4199" x="439.0654" y="50"/><text fill="#000000" font-family="sans-serif" font-size="14" lengthAdjust="spacing" textLength="149.4199" x="446.0654" y="72.1074">AuthenticationController</text><rect fill="#E2E2F0" height="32.6211" rx="2.5" ry="2.5" style="stroke:#181818;stroke-width:0.5;" width="163.4199" x="439.0654" y="1319.0684"/><text fill="#000000" font-family="sans-serif" font-size="14" lengthAdjust="spacing" textLength="149.4199" x="446.0654" y="1341.1758">AuthenticationController</text><rect fill="#E2E2F0" height="32.6211" rx="2.5" ry="2.5" style="stroke:#181818;stroke-width:0.5;" width="185.9648" x="612.4854" y="50"/><text fill="#000000" font-family="sans-serif" font-size="14" lengthAdjust="spacing" textLength="171.9648" x="619.4854" y="72.1074">CheckShowDatesController</text><rect fill="#E2E2F0" height="32.6211" rx="2.5" ry="2.5" style="stroke:#181818;stroke-width:0.5;" width="185.9648" x="612.4854" y="1319.0684"/><text fill="#000000" font-family="sans-serif" font-size="14" lengthAdjust="spacing" textLength="171.9648" x="619.4854" y="1341.1758">CheckShowDatesController</text><rect fill="#E2E2F0" height="32.6211" rx="2.5" ry="2.5" style="stroke:#181818;stroke-width:0.5;" width="212.4131" x="808.4502" y="50"/><text fill="#000000" font-family="sans-serif" font-size="14" lengthAdjust="spacing" textLength="198.4131" x="815.4502" y="72.1074">FindShows4CustomerController</text><rect fill="#E2E2F0" height="32.6211" rx="2.5" ry="2.5" style="stroke:#181818;stroke-width:0.5;" width="212.4131" x="808.4502" y="1319.0684"/><text fill="#000000" font-family="sans-serif" font-size="14" lengthAdjust="spacing" textLength="198.4131" x="815.4502" y="1341.1758">FindShows4CustomerController</text><rect fill="#E2E2F0" height="32.6211" rx="2.5" ry="2.5" style="stroke:#181818;stroke-width:0.5;" width="271.5508" x="1030.8633" y="50"/><text fill="#000000" font-family="sans-serif" font-size="14" lengthAdjust="spacing" textLength="257.5508" x="1037.8633" y="72.1074">FindCustomerOfRepresentativeController</text><rect fill="#E2E2F0" height="32.6211" rx="2.5" ry="2.5" style="stroke:#181818;stroke-width:0.5;" width="271.5508" x="1030.8633" y="1319.0684"/><text fill="#000000" font-family="sans-serif" font-size="14" lengthAdjust="spacing" textLength="257.5508" x="1037.8633" y="1341.1758">FindCustomerOfRepresentativeController</text><rect fill="#E2E2F0" height="32.6211" rx="2.5" ry="2.5" style="stroke:#181818;stroke-width:0.5;" width="77.793" x="1312.4141" y="50"/><text fill="#000000" font-family="sans-serif" font-size="14" lengthAdjust="spacing" textLength="63.793" x="1319.4141" y="72.1074">TCPClient</text><rect fill="#E2E2F0" height="32.6211" rx="2.5" ry="2.5" style="stroke:#181818;stroke-width:0.5;" width="77.793" x="1312.4141" y="1319.0684"/><text fill="#000000" font-family="sans-serif" font-size="14" lengthAdjust="spacing" textLength="63.793" x="1319.4141" y="1341.1758">TCPClient</text><rect fill="#E2E2F0" height="32.6211" rx="2.5" ry="2.5" style="stroke:#181818;stroke-width:0.5;" width="83.2344" x="1769.2803" y="50"/><text fill="#000000" font-family="sans-serif" font-size="14" lengthAdjust="spacing" textLength="69.2344" x="1776.2803" y="72.1074">TCPServer</text><rect fill="#E2E2F0" height="32.6211" rx="2.5" ry="2.5" style="stroke:#181818;stroke-width:0.5;" width="83.2344" x="1769.2803" y="1319.0684"/><text fill="#000000" font-family="sans-serif" font-size="14" lengthAdjust="spacing" textLength="69.2344" x="1776.2803" y="1341.1758">TCPServer</text><rect fill="#E2E2F0" height="32.6211" rx="2.5" ry="2.5" style="stroke:#181818;stroke-width:0.5;" width="205.4131" x="2138.2041" y="50"/><text fill="#000000" font-family="sans-serif" font-size="14" lengthAdjust="spacing" textLength="191.4131" x="2145.2041" y="72.1074">FindShow4CustomerController</text><rect fill="#E2E2F0" height="32.6211" rx="2.5" ry="2.5" style="stroke:#181818;stroke-width:0.5;" width="205.4131" x="2138.2041" y="1319.0684"/><text fill="#000000" font-family="sans-serif" font-size="14" lengthAdjust="spacing" textLength="191.4131" x="2145.2041" y="1341.1758">FindShow4CustomerController</text><text fill="#000000" font-family="sans-serif" font-size="14" lengthAdjust="spacing" textLength="101.9375" x="2370.5391" y="80.1074">ShowRepository</text><path d="M2406.5078,29 C2406.5078,19 2424.5078,19 2424.5078,19 C2424.5078,19 2442.5078,19 2442.5078,29 L2442.5078,55 C2442.5078,65 2424.5078,65 2424.5078,65 C2424.5078,65 2406.5078,65 2406.5078,55 L2406.5078,29 " fill="#E2E2F0" style="stroke:#181818;stroke-width:1.5;"/><path d="M2406.5078,29 C2406.5078,39 2424.5078,39 2424.5078,39 C2424.5078,39 2442.5078,39 2442.5078,29 " fill="none" style="stroke:#181818;stroke-width:1.5;"/><text fill="#000000" font-family="sans-serif" font-size="14" lengthAdjust="spacing" textLength="101.9375" x="2370.5391" y="1334.1758">ShowRepository</text><path d="M2406.5078,1347.6895 C2406.5078,1337.6895 2424.5078,1337.6895 2424.5078,1337.6895 C2424.5078,1337.6895 2442.5078,1337.6895 2442.5078,1347.6895 L2442.5078,1373.6895 C2442.5078,1383.6895 2424.5078,1383.6895 2424.5078,1383.6895 C2424.5078,1383.6895 2406.5078,1383.6895 2406.5078,1373.6895 L2406.5078,1347.6895 " fill="#E2E2F0" style="stroke:#181818;stroke-width:1.5;"/><path d="M2406.5078,1347.6895 C2406.5078,1357.6895 2424.5078,1357.6895 2424.5078,1357.6895 C2424.5078,1357.6895 2442.5078,1357.6895 2442.5078,1347.6895 " fill="none" style="stroke:#181818;stroke-width:1.5;"/><text fill="#000000" font-family="sans-serif" font-size="14" lengthAdjust="spacing" textLength="127.5996" x="2488.4766" y="80.1074">CustomerRepository</text><path d="M2537.2764,29 C2537.2764,19 2555.2764,19 2555.2764,19 C2555.2764,19 2573.2764,19 2573.2764,29 L2573.2764,55 C2573.2764,65 2555.2764,65 2555.2764,65 C2555.2764,65 2537.2764,65 2537.2764,55 L2537.2764,29 " fill="#E2E2F0" style="stroke:#181818;stroke-width:1.5;"/><path d="M2537.2764,29 C2537.2764,39 2555.2764,39 2555.2764,39 C2555.2764,39 2573.2764,39 2573.2764,29 " fill="none" style="stroke:#181818;stroke-width:1.5;"/><text fill="#000000" font-family="sans-serif" font-size="14" lengthAdjust="spacing" textLength="127.5996" x="2488.4766" y="1334.1758">CustomerRepository</text><path d="M2537.2764,1347.6895 C2537.2764,1337.6895 2555.2764,1337.6895 2555.2764,1337.6895 C2555.2764,1337.6895 2573.2764,1337.6895 2573.2764,1347.6895 L2573.2764,1373.6895 C2573.2764,1383.6895 2555.2764,1383.6895 2555.2764,1383.6895 C2555.2764,1383.6895 2537.2764,1383.6895 2537.2764,1373.6895 L2537.2764,1347.6895 " fill="#E2E2F0" style="stroke:#181818;stroke-width:1.5;"/><path d="M2537.2764,1347.6895 C2537.2764,1357.6895 2555.2764,1357.6895 2555.2764,1357.6895 C2555.2764,1357.6895 2573.2764,1357.6895 2573.2764,1347.6895 " fill="none" style="stroke:#181818;stroke-width:1.5;"/><rect fill="#FFFFFF" height="615.8691" style="stroke:#181818;stroke-width:1.0;" width="10" x="82.3687" y="162.2031"/><rect fill="#FFFFFF" height="615.8691" style="stroke:#181818;stroke-width:1.0;" width="10" x="286.8325" y="162.2031"/><rect fill="#FFFFFF" height="31.291" style="stroke:#181818;stroke-width:1.0;" width="10" x="515.7754" y="193.4941"/><rect fill="#FFFFFF" height="375.4922" style="stroke:#181818;stroke-width:1.0;" width="10" x="700.4678" y="256.0762"/><rect fill="#FFFFFF" height="156.4551" style="stroke:#181818;stroke-width:1.0;" width="10" x="909.6567" y="443.8223"/><rect fill="#FFFFFF" height="125.1641" style="stroke:#181818;stroke-width:1.0;" width="10" x="1161.6387" y="287.3672"/><rect fill="#FFFFFF" height="61.291" style="stroke:#181818;stroke-width:1.0;" width="10" x="1346.3105" y="846.6543"/><rect fill="#FFFFFF" height="31.291" style="stroke:#181818;stroke-width:1.0;" width="10" x="1346.3105" y="1270.7773"/><rect fill="#FFFFFF" height="424.123" style="stroke:#181818;stroke-width:1.0;" width="10" x="1805.8975" y="877.9453"/><rect fill="#FFFFFF" height="308.25" style="stroke:#181818;stroke-width:1.0;" width="10" x="2235.9106" y="939.2363"/><rect fill="#EEEEEE" height="3" style="stroke:#EEEEEE;stroke-width:1.0;" width="2642.0762" x="0" y="115.2666"/><line style="stroke:#000000;stroke-width:1.0;" x1="0" x2="2642.0762" y1="115.2666" y2="115.2666"/><line style="stroke:#000000;stroke-width:1.0;" x1="0" x2="2642.0762" y1="118.2666" y2="118.2666"/><rect fill="#EEEEEE" height="25.291" style="stroke:#000000;stroke-width:2.0;" width="153.4263" x="1244.325" y="103.6211"/><text fill="#000000" font-family="sans-serif" font-size="13" font-weight="bold" lengthAdjust="spacing" textLength="135.8145" x="1250.325" y="121.6494">Cliente solicita shows</text><polygon fill="#181818" points="274.8325,158.2031,284.8325,162.2031,274.8325,166.2031,278.8325,162.2031" style="stroke:#181818;stroke-width:1.0;"/><line style="stroke:#181818;stroke-width:1.0;" x1="92.3687" x2="280.8325" y1="162.2031" y2="162.2031"/><text fill="#000000" font-family="sans-serif" font-size="13" lengthAdjust="spacing" textLength="180.4639" x="99.3687" y="156.9404">Select "Check My Show Dates"</text><polygon fill="#181818" points="503.7754,189.4941,513.7754,193.4941,503.7754,197.4941,507.7754,193.4941" style="stroke:#181818;stroke-width:1.0;"/><line style="stroke:#181818;stroke-width:1.0;" x1="296.8325" x2="509.7754" y1="193.4941" y2="193.4941"/><text fill="#000000" font-family="sans-serif" font-size="13" lengthAdjust="spacing" textLength="91.0444" x="303.8325" y="188.2314">getEmailLogin()</text><polygon fill="#181818" points="307.8325,220.7852,297.8325,224.7852,307.8325,228.7852,303.8325,224.7852" style="stroke:#181818;stroke-width:1.0;"/><line style="stroke:#181818;stroke-width:1.0;stroke-dasharray:2.0,2.0;" x1="301.8325" x2="519.7754" y1="224.7852" y2="224.7852"/><text fill="#000000" font-family="sans-serif" font-size="13" lengthAdjust="spacing" textLength="31.0654" x="313.8325" y="219.5225">email</text><polygon fill="#181818" points="688.4678,252.0762,698.4678,256.0762,688.4678,260.0762,692.4678,256.0762" style="stroke:#181818;stroke-width:1.0;"/><line style="stroke:#181818;stroke-width:1.0;" x1="296.8325" x2="694.4678" y1="256.0762" y2="256.0762"/><text fill="#000000" font-family="sans-serif" font-size="13" lengthAdjust="spacing" textLength="322.2388" x="303.8325" y="250.8135">getCustomerNIFOfTheRepresentativeAssociated(email)</text><polygon fill="#181818" points="1149.6387,283.3672,1159.6387,287.3672,1149.6387,291.3672,1153.6387,287.3672" style="stroke:#181818;stroke-width:1.0;"/><line style="stroke:#181818;stroke-width:1.0;" x1="710.4678" x2="1155.6387" y1="287.3672" y2="287.3672"/><text fill="#000000" font-family="sans-serif" font-size="13" lengthAdjust="spacing" textLength="192.1563" x="717.4678" y="282.1045">getCustomerIDbyHisEmail(email)</text><polygon fill="#181818" points="531.7754,314.6582,521.7754,318.6582,531.7754,322.6582,527.7754,318.6582" style="stroke:#181818;stroke-width:1.0;"/><line style="stroke:#181818;stroke-width:1.0;" x1="525.7754" x2="1160.6387" y1="318.6582" y2="318.6582"/><text fill="#000000" font-family="sans-serif" font-size="13" lengthAdjust="spacing" textLength="281.6265" x="537.7754" y="313.3955">sendMessage("FindCustomerOfRepresentative")</text><polygon fill="#181818" points="531.7754,345.9492,521.7754,349.9492,531.7754,353.9492,527.7754,349.9492" style="stroke:#181818;stroke-width:1.0;"/><line style="stroke:#181818;stroke-width:1.0;" x1="525.7754" x2="1160.6387" y1="349.9492" y2="349.9492"/><text fill="#000000" font-family="sans-serif" font-size="13" lengthAdjust="spacing" textLength="200.8589" x="537.7754" y="344.6865">sendMessage(ObjectDTO&lt;email&gt;)</text><polygon fill="#181818" points="531.7754,377.2402,521.7754,381.2402,531.7754,385.2402,527.7754,381.2402" style="stroke:#181818;stroke-width:1.0;"/><line style="stroke:#181818;stroke-width:1.0;" x1="525.7754" x2="1160.6387" y1="381.2402" y2="381.2402"/><text fill="#000000" font-family="sans-serif" font-size="13" lengthAdjust="spacing" textLength="103.3145" x="537.7754" y="375.9775">receiveMessage()</text><polygon fill="#181818" points="721.4678,408.5313,711.4678,412.5313,721.4678,416.5313,717.4678,412.5313" style="stroke:#181818;stroke-width:1.0;"/><line style="stroke:#181818;stroke-width:1.0;stroke-dasharray:2.0,2.0;" x1="715.4678" x2="1165.6387" y1="412.5313" y2="412.5313"/><text fill="#000000" font-family="sans-serif" font-size="13" lengthAdjust="spacing" textLength="84.5444" x="727.4678" y="407.2686">Optional&lt;NIF&gt;</text><polygon fill="#181818" points="897.6567,439.8223,907.6567,443.8223,897.6567,447.8223,901.6567,443.8223" style="stroke:#181818;stroke-width:1.0;"/><line style="stroke:#181818;stroke-width:1.0;" x1="710.4678" x2="903.6567" y1="443.8223" y2="443.8223"/><text fill="#000000" font-family="sans-serif" font-size="13" lengthAdjust="spacing" textLength="150.2681" x="717.4678" y="438.5596">getShows4Customer(NIF)</text><polygon fill="#181818" points="531.7754,471.1133,521.7754,475.1133,531.7754,479.1133,527.7754,475.1133" style="stroke:#181818;stroke-width:1.0;"/><line style="stroke:#181818;stroke-width:1.0;" x1="525.7754" x2="908.6567" y1="475.1133" y2="475.1133"/><text fill="#000000" font-family="sans-serif" font-size="13" lengthAdjust="spacing" textLength="220.2129" x="537.7754" y="469.8506">sendMessage("FindShow4Customer")</text><polygon fill="#181818" points="531.7754,502.4043,521.7754,506.4043,531.7754,510.4043,527.7754,506.4043" style="stroke:#181818;stroke-width:1.0;"/><line style="stroke:#181818;stroke-width:1.0;" x1="525.7754" x2="908.6567" y1="506.4043" y2="506.4043"/><text fill="#000000" font-family="sans-serif" font-size="13" lengthAdjust="spacing" textLength="190.7344" x="537.7754" y="501.1416">sendMessage(ObjectDTO&lt;NIF&gt;)</text><polygon fill="#181818" points="531.7754,533.6953,521.7754,537.6953,531.7754,541.6953,527.7754,537.6953" style="stroke:#181818;stroke-width:1.0;"/><line style="stroke:#181818;stroke-width:1.0;" x1="525.7754" x2="908.6567" y1="537.6953" y2="537.6953"/><text fill="#000000" font-family="sans-serif" font-size="13" lengthAdjust="spacing" textLength="188.2715" x="537.7754" y="532.4326">receiveMessage() // n&#186; de shows</text><polygon fill="#181818" points="531.7754,564.9863,521.7754,568.9863,531.7754,572.9863,527.7754,568.9863" style="stroke:#181818;stroke-width:1.0;"/><line style="stroke:#181818;stroke-width:1.0;" x1="525.7754" x2="908.6567" y1="568.9863" y2="568.9863"/><text fill="#000000" font-family="sans-serif" font-size="13" lengthAdjust="spacing" textLength="169.4761" x="537.7754" y="563.7236">receiveMessage() x n&#186; shows</text><polygon fill="#181818" points="721.4678,596.2773,711.4678,600.2773,721.4678,604.2773,717.4678,600.2773" style="stroke:#181818;stroke-width:1.0;"/><line style="stroke:#181818;stroke-width:1.0;stroke-dasharray:2.0,2.0;" x1="715.4678" x2="913.6567" y1="600.2773" y2="600.2773"/><text fill="#000000" font-family="sans-serif" font-size="13" lengthAdjust="spacing" textLength="158.9771" x="727.4678" y="595.0146">Optional&lt;List&lt;ShowDTO&gt;&gt;</text><polygon fill="#181818" points="307.8325,627.5684,297.8325,631.5684,307.8325,635.5684,303.8325,631.5684" style="stroke:#181818;stroke-width:1.0;"/><line style="stroke:#181818;stroke-width:1.0;stroke-dasharray:2.0,2.0;" x1="301.8325" x2="704.4678" y1="631.5684" y2="631.5684"/><text fill="#000000" font-family="sans-serif" font-size="13" lengthAdjust="spacing" textLength="158.9771" x="313.8325" y="626.3057">Optional&lt;List&lt;ShowDTO&gt;&gt;</text><path d="M216.4844,646.5684 L276.6553,646.5684 L276.6553,655.8594 L266.6553,665.8594 L216.4844,665.8594 L216.4844,646.5684 " fill="#EEEEEE" style="stroke:#000000;stroke-width:1.5;"/><rect fill="none" height="124.5039" style="stroke:#000000;stroke-width:1.5;" width="304.291" x="216.4844" y="646.5684"/><text fill="#000000" font-family="sans-serif" font-size="13" font-weight="bold" lengthAdjust="spacing" textLength="15.1709" x="231.4844" y="661.5967">alt</text><text fill="#000000" font-family="sans-serif" font-size="11" font-weight="bold" lengthAdjust="spacing" textLength="97.147" x="291.6553" y="660.4385">[No Shows Found]</text><line style="stroke:#181818;stroke-width:1.0;" x1="296.8325" x2="338.8325" y1="689.1504" y2="689.1504"/><line style="stroke:#181818;stroke-width:1.0;" x1="338.8325" x2="338.8325" y1="689.1504" y2="702.1504"/><line style="stroke:#181818;stroke-width:1.0;" x1="297.8325" x2="338.8325" y1="702.1504" y2="702.1504"/><polygon fill="#181818" points="307.8325,698.1504,297.8325,702.1504,307.8325,706.1504,303.8325,702.1504" style="stroke:#181818;stroke-width:1.0;"/><text fill="#000000" font-family="sans-serif" font-size="13" lengthAdjust="spacing" textLength="194.9429" x="303.8325" y="683.8877">Show "No shows found" message</text><line style="stroke:#000000;stroke-width:1.0;stroke-dasharray:2.0,2.0;" x1="216.4844" x2="520.7754" y1="711.1504" y2="711.1504"/><text fill="#000000" font-family="sans-serif" font-size="11" font-weight="bold" lengthAdjust="spacing" textLength="79.4277" x="221.4844" y="723.0205">[Shows Found]</text><line style="stroke:#181818;stroke-width:1.0;" x1="296.8325" x2="338.8325" y1="750.0723" y2="750.0723"/><line style="stroke:#181818;stroke-width:1.0;" x1="338.8325" x2="338.8325" y1="750.0723" y2="763.0723"/><line style="stroke:#181818;stroke-width:1.0;" x1="297.8325" x2="338.8325" y1="763.0723" y2="763.0723"/><polygon fill="#181818" points="307.8325,759.0723,297.8325,763.0723,307.8325,767.0723,303.8325,763.0723" style="stroke:#181818;stroke-width:1.0;"/><text fill="#000000" font-family="sans-serif" font-size="13" lengthAdjust="spacing" textLength="117.0381" x="303.8325" y="744.8096">Display list of shows</text><rect fill="#EEEEEE" height="3" style="stroke:#EEEEEE;stroke-width:1.0;" width="2642.0762" x="0" y="799.7178"/><line style="stroke:#000000;stroke-width:1.0;" x1="0" x2="2642.0762" y1="799.7178" y2="799.7178"/><line style="stroke:#000000;stroke-width:1.0;" x1="0" x2="2642.0762" y1="802.7178" y2="802.7178"/><rect fill="#EEEEEE" height="25.291" style="stroke:#000000;stroke-width:2.0;" width="216.998" x="1212.5391" y="788.0723"/><text fill="#000000" font-family="sans-serif" font-size="13" font-weight="bold" lengthAdjust="spacing" textLength="199.3862" x="1218.5391" y="806.1006">Comunica&#231;&#227;o TCP Client-Server</text><polygon fill="#181818" points="1334.3105,842.6543,1344.3105,846.6543,1334.3105,850.6543,1338.3105,846.6543" style="stroke:#181818;stroke-width:1.0;"/><line style="stroke:#181818;stroke-width:1.0;" x1="291.8325" x2="1340.3105" y1="846.6543" y2="846.6543"/><text fill="#000000" font-family="sans-serif" font-size="13" lengthAdjust="spacing" textLength="156.7935" x="298.8325" y="841.3916">Send request (via AuthCtrl)</text><polygon fill="#181818" points="1793.8975,873.9453,1803.8975,877.9453,1793.8975,881.9453,1797.8975,877.9453" style="stroke:#181818;stroke-width:1.0;"/><line style="stroke:#181818;stroke-width:1.0;" x1="1356.3105" x2="1799.8975" y1="877.9453" y2="877.9453"/><text fill="#000000" font-family="sans-serif" font-size="13" lengthAdjust="spacing" textLength="430.5869" x="1363.3105" y="872.6826">JSON ObjectDTO (FindCustomerOfRepresentative / FindShow4Customer)</text><polygon fill="#181818" points="2223.9106,935.2363,2233.9106,939.2363,2223.9106,943.2363,2227.9106,939.2363" style="stroke:#181818;stroke-width:1.0;"/><line style="stroke:#181818;stroke-width:1.0;" x1="1815.8975" x2="2229.9106" y1="939.2363" y2="939.2363"/><text fill="#000000" font-family="sans-serif" font-size="13" lengthAdjust="spacing" textLength="401.0132" x="1822.8975" y="933.9736">getCustomerOfRepresentativeAction() ou getShow4CustomerAction()</text><path d="M1759.2803,954.2363 L1819.4512,954.2363 L1819.4512,963.5273 L1809.4512,973.5273 L1759.2803,973.5273 L1759.2803,954.2363 " fill="#EEEEEE" style="stroke:#000000;stroke-width:1.5;"/><rect fill="none" height="286.25" style="stroke:#000000;stroke-width:1.5;" width="872.7959" x="1759.2803" y="954.2363"/><text fill="#000000" font-family="sans-serif" font-size="13" font-weight="bold" lengthAdjust="spacing" textLength="15.1709" x="1774.2803" y="969.2646">alt</text><text fill="#000000" font-family="sans-serif" font-size="11" font-weight="bold" lengthAdjust="spacing" textLength="172.9707" x="1834.4512" y="968.1064">[FindCustomerOfRepresentative]</text><polygon fill="#181818" points="2543.2764,992.8184,2553.2764,996.8184,2543.2764,1000.8184,2547.2764,996.8184" style="stroke:#181818;stroke-width:1.0;"/><line style="stroke:#181818;stroke-width:1.0;" x1="2245.9106" x2="2549.2764" y1="996.8184" y2="996.8184"/><text fill="#000000" font-family="sans-serif" font-size="13" lengthAdjust="spacing" textLength="177.7344" x="2252.9106" y="991.5557">getAssociatedCustomer(email)</text><polygon fill="#181818" points="2256.9106,1024.1094,2246.9106,1028.1094,2256.9106,1032.1094,2252.9106,1028.1094" style="stroke:#181818;stroke-width:1.0;"/><line style="stroke:#181818;stroke-width:1.0;stroke-dasharray:2.0,2.0;" x1="2250.9106" x2="2554.2764" y1="1028.1094" y2="1028.1094"/><text fill="#000000" font-family="sans-serif" font-size="13" lengthAdjust="spacing" textLength="119.9517" x="2262.9106" y="1022.8467">Optional&lt;Costumer&gt;</text><polygon fill="#181818" points="1826.8975,1055.4004,1816.8975,1059.4004,1826.8975,1063.4004,1822.8975,1059.4004" style="stroke:#181818;stroke-width:1.0;"/><line style="stroke:#181818;stroke-width:1.0;stroke-dasharray:2.0,2.0;" x1="1820.8975" x2="2234.9106" y1="1059.4004" y2="1059.4004"/><text fill="#000000" font-family="sans-serif" font-size="13" lengthAdjust="spacing" textLength="101.1372" x="1832.8975" y="1054.1377">ObjectDTO&lt;NIF&gt;</text><line style="stroke:#000000;stroke-width:1.0;stroke-dasharray:2.0,2.0;" x1="1759.2803" x2="2632.0762" y1="1068.4004" y2="1068.4004"/><text fill="#000000" font-family="sans-serif" font-size="11" font-weight="bold" lengthAdjust="spacing" textLength="117.3315" x="1764.2803" y="1080.2705">[FindShow4Customer]</text><polygon fill="#181818" points="2543.2764,1103.3223,2553.2764,1107.3223,2543.2764,1111.3223,2547.2764,1107.3223" style="stroke:#181818;stroke-width:1.0;"/><line style="stroke:#181818;stroke-width:1.0;" x1="2245.9106" x2="2549.2764" y1="1107.3223" y2="1107.3223"/><text fill="#000000" font-family="sans-serif" font-size="13" lengthAdjust="spacing" textLength="86.6709" x="2252.9106" y="1102.0596">findByNIF(NIF)</text><polygon fill="#181818" points="2256.9106,1134.6133,2246.9106,1138.6133,2256.9106,1142.6133,2252.9106,1138.6133" style="stroke:#181818;stroke-width:1.0;"/><line style="stroke:#181818;stroke-width:1.0;stroke-dasharray:2.0,2.0;" x1="2250.9106" x2="2554.2764" y1="1138.6133" y2="1138.6133"/><text fill="#000000" font-family="sans-serif" font-size="13" lengthAdjust="spacing" textLength="119.9517" x="2262.9106" y="1133.3506">Optional&lt;Costumer&gt;</text><polygon fill="#181818" points="2412.5078,1165.9043,2422.5078,1169.9043,2412.5078,1173.9043,2416.5078,1169.9043" style="stroke:#181818;stroke-width:1.0;"/><line style="stroke:#181818;stroke-width:1.0;" x1="2245.9106" x2="2418.5078" y1="1169.9043" y2="1169.9043"/><text fill="#000000" font-family="sans-serif" font-size="13" lengthAdjust="spacing" textLength="154.5972" x="2252.9106" y="1164.6416">findByCostumer(costumer)</text><polygon fill="#181818" points="2256.9106,1197.1953,2246.9106,1201.1953,2256.9106,1205.1953,2252.9106,1201.1953" style="stroke:#181818;stroke-width:1.0;"/><line style="stroke:#181818;stroke-width:1.0;stroke-dasharray:2.0,2.0;" x1="2250.9106" x2="2423.5078" y1="1201.1953" y2="1201.1953"/><text fill="#000000" font-family="sans-serif" font-size="13" lengthAdjust="spacing" textLength="131.5361" x="2262.9106" y="1195.9326">Optional&lt;List&lt;Show&gt;&gt;</text><polygon fill="#181818" points="1826.8975,1228.4863,1816.8975,1232.4863,1826.8975,1236.4863,1822.8975,1232.4863" style="stroke:#181818;stroke-width:1.0;"/><line style="stroke:#181818;stroke-width:1.0;stroke-dasharray:2.0,2.0;" x1="1820.8975" x2="2234.9106" y1="1232.4863" y2="1232.4863"/><text fill="#000000" font-family="sans-serif" font-size="13" lengthAdjust="spacing" textLength="305.335" x="1832.8975" y="1227.2236">ObjectDTO&lt;List&lt;ShowDTO&gt;&gt; ou n&#186; de shows e lista</text><polygon fill="#181818" points="1367.3105,1266.7773,1357.3105,1270.7773,1367.3105,1274.7773,1363.3105,1270.7773" style="stroke:#181818;stroke-width:1.0;"/><line style="stroke:#181818;stroke-width:1.0;stroke-dasharray:2.0,2.0;" x1="1361.3105" x2="1804.8975" y1="1270.7773" y2="1270.7773"/><text fill="#000000" font-family="sans-serif" font-size="13" lengthAdjust="spacing" textLength="91.7617" x="1373.3105" y="1265.5146">JSON response</text><polygon fill="#181818" points="302.8325,1298.0684,292.8325,1302.0684,302.8325,1306.0684,298.8325,1302.0684" style="stroke:#181818;stroke-width:1.0;"/><line style="stroke:#181818;stroke-width:1.0;stroke-dasharray:2.0,2.0;" x1="296.8325" x2="1350.3105" y1="1302.0684" y2="1302.0684"/><text fill="#000000" font-family="sans-serif" font-size="13" lengthAdjust="spacing" textLength="155.3525" x="308.8325" y="1296.8057">JSON response processed</text><!--SRC=[fLNDSjCm4BxhANPySW-PNZXr6i-4X0vbsfgXuG5KMsa4ZcKikP3duS0xS8GNO_LZHR8J4uQS7FlxTbVVxdwYXH8j9CjEAh5ZBNnWJSiagnLL_8KbG2KiD8Gqj5Myu0sjLG1VD0sa7sylBB1fOjYYKriCnGiC9kgbg5Khgegr5eqVbwgj1f6thFZyk1LVLrGnEQ2OZ_R3Y7Z3wrBpvAk-k07P0uvpUrQ-YIKu4aL3nq7Mo_VBYYFDbceUHuX7rhwuIFRn-25EdS5oJEwIAlf49OD44x1c8JdsQMznxbM0wYCEaFgrGPBvt1NDG8eAIr8KfDOBvdD2p130B3CTly92AbRqxOBxlSa8fZK9eGKAXuzkSWv_SJw8vkimhliOwvcfDplAgplnpElq8i3t4-B1Cry0qmnIiZ6upn0FYytJY_1mUvDlrbiMjteXfIWuCihKX0zA6KmU6GJ7TE5WnCbkLq_xjroQCuu2H_CKnOX5mYBBUoObVMRfvBmc5-U6oPy-OGzNw_pQ59LD4bjMC8pUSuVOOthdZTvwMbsZsbdOgkZC9wJqcsgrZ3SxnOW33G-R7RF_ecAqR4wwSyW7xVJXfdb3wU3o4kfVFw5aTh_-ZVpDS8yI9vjmnwMwDiQwphDHEmxoZVhXL-wCKCCrePM21s7C0QrJT7L907-z1rWhqSwH8CgQpKQZ4jZP0nDMeNbDybTSDXNTGuLLWTWuQR1N9B87OqNX2sr6slF4hglnXlhzu_Tt0MZHpWLdrckj-Jb7CH-C-zKbTkPBnp1b-iAfxrXe6VO6S2Iaku1NyEunVm0_GP1EhJDSmcXEWoJk4WbRODCIbytd7VlIC1LAXFt54HDTlt8-PVzjcFdGvgb3cAO5PMWjtRrZIpeuhrznPvIQwR6puMdyI2w5L1tIib6gKFXuQ-riZTITBdQ3yDTxf5iF-k_oCdzN- -0zE2tSWqtZSQVJ-CNCpjKXNcNT-T2PW9cjecQRWXaBUz_FMRWVPi2n_use9Jkv4Nw38pWqhIXm-LbvPAf7DP0_]--></g></svg>