<?xml version="1.0" encoding="UTF-8" standalone="no"?><svg xmlns="http://www.w3.org/2000/svg" xmlns:xlink="http://www.w3.org/1999/xlink" contentScriptType="application/ecmascript" contentStyleType="text/css" height="103px" preserveAspectRatio="none" style="width:325px;height:103px;" version="1.1" viewBox="0 0 325 103" width="325px" zoomAndPan="magnify"><defs><filter height="300%" id="fumxkpdllgrtj" width="300%" x="-1" y="-1"><feGaussianBlur result="blurOut" stdDeviation="2.0"/><feColorMatrix in="blurOut" result="blurOut2" type="matrix" values="0 0 0 0 0 0 0 0 0 0 0 0 0 0 0 0 0 0 .4 0"/><feOffset dx="4.0" dy="4.0" in="blurOut2" result="blurOut3"/><feBlend in="SourceGraphic" in2="blurOut3" mode="normal"/></filter></defs><g><!--MD5=[c1d04cf78ad9597834963eabdff2fce4]
class factories.FactoryProvider--><a href="FactoryProvider.html" target="_top" title="FactoryProvider.html" xlink:actuate="onRequest" xlink:href="FactoryProvider.html" xlink:show="new" xlink:title="FactoryProvider.html" xlink:type="simple"><rect codeLine="5" fill="#FEFECE" filter="url(#fumxkpdllgrtj)" height="65.6698" id="factories.FactoryProvider" style="stroke: #A80036; stroke-width: 1.5;" width="299" x="7" y="7"/><ellipse cx="100.25" cy="28.344" fill="#ADD1B2" rx="11" ry="11" style="stroke: #A80036; stroke-width: 1.0;"/><path d="M103.2188,33.9846 Q102.6406,34.2815 102,34.4221 Q101.3594,34.5783 100.6563,34.5783 Q98.1563,34.5783 96.8281,32.9377 Q95.5156,31.2815 95.5156,28.1565 Q95.5156,25.0315 96.8281,23.3752 Q98.1563,21.719 100.6563,21.719 Q101.3594,21.719 102,21.8752 Q102.6563,22.0315 103.2188,22.3283 L103.2188,25.0471 Q102.5938,24.469 102,24.2033 Q101.4063,23.9221 100.7813,23.9221 Q99.4375,23.9221 98.75,25.0002 Q98.0625,26.0627 98.0625,28.1565 Q98.0625,30.2502 98.75,31.3283 Q99.4375,32.3908 100.7813,32.3908 Q101.4063,32.3908 102,32.1252 Q102.5938,31.844 103.2188,31.2658 L103.2188,33.9846 Z "/><text fill="#000000" font-family="sans-serif" font-size="14" lengthAdjust="spacingAndGlyphs" textLength="104" x="120.75" y="26.9659">FactoryProvider</text><text fill="#000000" font-family="sans-serif" font-size="10" lengthAdjust="spacingAndGlyphs" textLength="42" x="151.75" y="41.7579">factories</text><line style="stroke: #A80036; stroke-width: 1.5;" x1="8" x2="305" y1="49.6879" y2="49.6879"/><ellipse cx="18" cy="60.6879" fill="#84BE84" rx="3" ry="3" style="stroke: #038048; stroke-width: 1.0;"/><text fill="#000000" font-family="sans-serif" font-size="11" lengthAdjust="spacingAndGlyphs" text-decoration="underline" textLength="273" x="27" y="65.4468">getShowRequestFactory(): ShowRequestFactoryImpl</text></a><text fill="#888888" font-family="sans-serif" font-size="10" lengthAdjust="spacingAndGlyphs" textLength="188" x="62.5" y="90.3598">UMLDoclet 2.0.12, PlantUML 1.2020.16</text><!--MD5=[babd3e81c344fd1ac543b8ce1bde681f]
@startuml
    set namespaceSeparator none
    hide empty fields
    hide empty methods

    class "<size:14>FactoryProvider\n<size:10>factories" as factories.FactoryProvider [[FactoryProvider.html]] {
        {static} +getShowRequestFactory(): ShowRequestFactoryImpl
    }

    center footer UMLDoclet 2.0.12, PlantUML 1.2020.16
@enduml

PlantUML version 1.2020.16(Sun Aug 23 21:20:43 WEST 2020)
(APACHE source distribution)
Java Runtime: Java(TM) SE Runtime Environment
JVM: Java HotSpot(TM) 64-Bit Server VM
Default Encoding: UTF-8
Language: en
Country: US
--></g></svg>