<?xml version="1.0" encoding="UTF-8" standalone="no"?><svg xmlns="http://www.w3.org/2000/svg" xmlns:xlink="http://www.w3.org/1999/xlink" contentScriptType="application/ecmascript" contentStyleType="text/css" height="96px" preserveAspectRatio="none" style="width:328px;height:96px;" version="1.1" viewBox="0 0 328 96" width="328px" zoomAndPan="magnify"><defs><filter height="300%" id="fumxkpdllgrtj" width="300%" x="-1" y="-1"><feGaussianBlur result="blurOut" stdDeviation="2.0"/><feColorMatrix in="blurOut" result="blurOut2" type="matrix" values="0 0 0 0 0 0 0 0 0 0 0 0 0 0 0 0 0 0 .4 0"/><feOffset dx="4.0" dy="4.0" in="blurOut2" result="blurOut3"/><feBlend in="SourceGraphic" in2="blurOut3" mode="normal"/></filter></defs><g><!--MD5=[c1d04cf78ad9597834963eabdff2fce4]
class factories.FactoryProvider--><a href="FactoryProvider.html" target="_top" title="FactoryProvider.html" xlink:actuate="onRequest" xlink:href="FactoryProvider.html" xlink:show="new" xlink:title="FactoryProvider.html" xlink:type="simple"><rect codeLine="5" fill="#FEFECE" filter="url(#fumxkpdllgrtj)" height="59.2207" id="factories.FactoryProvider" style="stroke: #A80036; stroke-width: 1.5;" width="302" x="7" y="7"/><ellipse cx="100.25" cy="26.1328" fill="#ADD1B2" rx="11" ry="11" style="stroke: #A80036; stroke-width: 1.0;"/><path d="M102.7231,32.2759 Q102.1421,32.5747 101.5029,32.7241 Q100.8638,32.8735 100.1582,32.8735 Q97.6514,32.8735 96.3315,31.2217 Q95.0117,29.5698 95.0117,26.4487 Q95.0117,23.3193 96.3315,21.6675 Q97.6514,20.0156 100.1582,20.0156 Q100.8638,20.0156 101.5112,20.165 Q102.1587,20.3145 102.7231,20.6133 L102.7231,23.3359 Q102.0923,22.7549 101.4988,22.4851 Q100.9053,22.2153 100.2744,22.2153 Q98.9297,22.2153 98.2449,23.282 Q97.5601,24.3486 97.5601,26.4487 Q97.5601,28.5405 98.2449,29.6072 Q98.9297,30.6738 100.2744,30.6738 Q100.9053,30.6738 101.4988,30.4041 Q102.0923,30.1343 102.7231,29.5532 Z "/><text fill="#000000" font-family="sans-serif" font-size="14" lengthAdjust="spacingAndGlyphs" textLength="107" x="120.75" y="25.5352">FactoryProvider</text><text fill="#000000" font-family="sans-serif" font-size="10" lengthAdjust="spacingAndGlyphs" textLength="43" x="152.75" y="38.1563">factories</text><line style="stroke: #A80036; stroke-width: 1.5;" x1="8" x2="308" y1="45.2656" y2="45.2656"/><ellipse cx="18" cy="56.2656" fill="#84BE84" rx="3" ry="3" style="stroke: #038048; stroke-width: 1.0;"/><text fill="#000000" font-family="sans-serif" font-size="11" lengthAdjust="spacingAndGlyphs" text-decoration="underline" textLength="276" x="27" y="59.9004">getShowRequestFactory(): ShowRequestFactoryImpl</text></a><text fill="#888888" font-family="sans-serif" font-size="10" lengthAdjust="spacingAndGlyphs" textLength="188" x="64" y="82.8887">UMLDoclet 2.0.12, PlantUML 1.2020.16</text><!--MD5=[bb08ab6a3037e88db4959902abad42f8]
@startuml
    set namespaceSeparator none
    hide empty fields
    hide empty methods

    class "<size:14>FactoryProvider\n<size:10>factories" as factories.FactoryProvider [[FactoryProvider.html]] {
        {static} +getShowRequestFactory(): ShowRequestFactoryImpl
    }

    center footer UMLDoclet 2.0.12, PlantUML 1.2020.16
@enduml

PlantUML version 1.2020.16(Sun Aug 23 21:20:43 WEST 2020)
(APACHE source distribution)
Java Runtime: OpenJDK Runtime Environment
JVM: OpenJDK 64-Bit Server VM
Default Encoding: UTF-8
Language: pt
Country: PT
--></g></svg>