<?xml version="1.0" encoding="UTF-8" standalone="no"?><svg xmlns="http://www.w3.org/2000/svg" xmlns:xlink="http://www.w3.org/1999/xlink" contentScriptType="application/ecmascript" contentStyleType="text/css" height="153px" preserveAspectRatio="none" style="width:370px;height:153px;" version="1.1" viewBox="0 0 370 153" width="370px" zoomAndPan="magnify"><defs><filter height="300%" id="f1r5qwrqe404ju" width="300%" x="-1" y="-1"><feGaussianBlur result="blurOut" stdDeviation="2.0"/><feColorMatrix in="blurOut" result="blurOut2" type="matrix" values="0 0 0 0 0 0 0 0 0 0 0 0 0 0 0 0 0 0 .4 0"/><feOffset dx="4.0" dy="4.0" in="blurOut2" result="blurOut3"/><feBlend in="SourceGraphic" in2="blurOut3" mode="normal"/></filter></defs><g><!--MD5=[3cfe61ee0fba69ce889c8aba187779dc]
cluster factories--><polygon fill="#FFFFFF" filter="url(#f1r5qwrqe404ju)" points="16,6.602,82,6.602,89,31.6699,348,31.6699,348,123.602,16,123.602,16,6.602" style="stroke: #000000; stroke-width: 1.5;"/><line style="stroke: #000000; stroke-width: 1.5;" x1="16" x2="89" y1="31.6699" y2="31.6699"/><text fill="#000000" font-family="sans-serif" font-size="14" font-weight="bold" lengthAdjust="spacingAndGlyphs" textLength="60" x="20" y="23.5679">factories</text><!--MD5=[c1d04cf78ad9597834963eabdff2fce4]
class factories.FactoryProvider--><a href="FactoryProvider.html" target="_top" title="FactoryProvider.html" xlink:actuate="onRequest" xlink:href="FactoryProvider.html" xlink:show="new" xlink:title="FactoryProvider.html" xlink:type="simple"><rect codeLine="3" fill="#FEFECE" filter="url(#f1r5qwrqe404ju)" height="62.9819" id="factories.FactoryProvider" style="stroke: #A80036; stroke-width: 1.5;" width="299" x="32.5" y="44.602"/><ellipse cx="133.75" cy="60.602" fill="#ADD1B2" rx="11" ry="11" style="stroke: #A80036; stroke-width: 1.0;"/><path d="M136.7188,66.2426 Q136.1406,66.5395 135.5,66.6801 Q134.8594,66.8364 134.1563,66.8364 Q131.6563,66.8364 130.3281,65.1957 Q129.0156,63.5395 129.0156,60.4145 Q129.0156,57.2895 130.3281,55.6332 Q131.6563,53.977 134.1563,53.977 Q134.8594,53.977 135.5,54.1332 Q136.1563,54.2895 136.7188,54.5864 L136.7188,57.3051 Q136.0938,56.727 135.5,56.4614 Q134.9063,56.1801 134.2813,56.1801 Q132.9375,56.1801 132.25,57.2582 Q131.5625,58.3207 131.5625,60.4145 Q131.5625,62.5082 132.25,63.5864 Q132.9375,64.6489 134.2813,64.6489 Q134.9063,64.6489 135.5,64.3832 Q136.0938,64.102 136.7188,63.5239 L136.7188,66.2426 Z "/><text fill="#000000" font-family="sans-serif" font-size="12" lengthAdjust="spacingAndGlyphs" textLength="88" x="154.25" y="65.258">FactoryProvider</text><line style="stroke: #A80036; stroke-width: 1.5;" x1="33.5" x2="330.5" y1="76.602" y2="76.602"/><line style="stroke: #A80036; stroke-width: 1.5;" x1="33.5" x2="330.5" y1="84.602" y2="84.602"/><ellipse cx="43.5" cy="95.602" fill="#84BE84" rx="3" ry="3" style="stroke: #038048; stroke-width: 1.0;"/><text fill="#000000" font-family="sans-serif" font-size="11" lengthAdjust="spacingAndGlyphs" text-decoration="underline" textLength="273" x="52.5" y="100.3609">getShowRequestFactory(): ShowRequestFactoryImpl</text></a><text fill="#888888" font-family="sans-serif" font-size="10" lengthAdjust="spacingAndGlyphs" textLength="188" x="82" y="140.292">UMLDoclet 2.0.12, PlantUML 1.2020.16</text><!--MD5=[1f1b473c4d83b01f20e8d4503281b38a]
@startuml
    namespace factories {

        class FactoryProvider [[FactoryProvider.html]] {
            {static} +getShowRequestFactory(): ShowRequestFactoryImpl
        }

    }

    center footer UMLDoclet 2.0.12, PlantUML 1.2020.16
@enduml

PlantUML version 1.2020.16(Sun Aug 23 21:20:43 WEST 2020)
(APACHE source distribution)
Java Runtime: Java(TM) SE Runtime Environment
JVM: Java HotSpot(TM) 64-Bit Server VM
Default Encoding: UTF-8
Language: en
Country: US
--></g></svg>