<?xml version="1.0" encoding="UTF-8" standalone="no"?><svg xmlns="http://www.w3.org/2000/svg" xmlns:xlink="http://www.w3.org/1999/xlink" contentScriptType="application/ecmascript" contentStyleType="text/css" height="147px" preserveAspectRatio="none" style="width:372px;height:147px;" version="1.1" viewBox="0 0 372 147" width="372px" zoomAndPan="magnify"><defs><filter height="300%" id="f1r5qwrqe404ju" width="300%" x="-1" y="-1"><feGaussianBlur result="blurOut" stdDeviation="2.0"/><feColorMatrix in="blurOut" result="blurOut2" type="matrix" values="0 0 0 0 0 0 0 0 0 0 0 0 0 0 0 0 0 0 .4 0"/><feOffset dx="4.0" dy="4.0" in="blurOut2" result="blurOut3"/><feBlend in="SourceGraphic" in2="blurOut3" mode="normal"/></filter></defs><g><!--MD5=[3cfe61ee0fba69ce889c8aba187779dc]
cluster factories--><polygon fill="#FFFFFF" filter="url(#f1r5qwrqe404ju)" points="16,6,85,6,92,28.4883,350,28.4883,350,117.96,16,117.96,16,6" style="stroke: #000000; stroke-width: 1.5;"/><line style="stroke: #000000; stroke-width: 1.5;" x1="16" x2="92" y1="28.4883" y2="28.4883"/><text fill="#000000" font-family="sans-serif" font-size="14" font-weight="bold" lengthAdjust="spacingAndGlyphs" textLength="63" x="20" y="21.5352">factories</text><!--MD5=[c1d04cf78ad9597834963eabdff2fce4]
class factories.FactoryProvider--><a href="FactoryProvider.html" target="_top" title="FactoryProvider.html" xlink:actuate="onRequest" xlink:href="FactoryProvider.html" xlink:show="new" xlink:title="FactoryProvider.html" xlink:type="simple"><rect codeLine="3" fill="#FEFECE" filter="url(#f1r5qwrqe404ju)" height="60.9551" id="factories.FactoryProvider" style="stroke: #A80036; stroke-width: 1.5;" width="302" x="32" y="41"/><ellipse cx="134.25" cy="57" fill="#ADD1B2" rx="11" ry="11" style="stroke: #A80036; stroke-width: 1.0;"/><path d="M136.7231,63.1431 Q136.1421,63.4419 135.5029,63.5913 Q134.8638,63.7407 134.1582,63.7407 Q131.6514,63.7407 130.3315,62.0889 Q129.0117,60.437 129.0117,57.3159 Q129.0117,54.1865 130.3315,52.5347 Q131.6514,50.8828 134.1582,50.8828 Q134.8638,50.8828 135.5112,51.0322 Q136.1587,51.1816 136.7231,51.4805 L136.7231,54.2031 Q136.0923,53.6221 135.4988,53.3523 Q134.9053,53.0825 134.2744,53.0825 Q132.9297,53.0825 132.2449,54.1492 Q131.5601,55.2158 131.5601,57.3159 Q131.5601,59.4077 132.2449,60.4744 Q132.9297,61.541 134.2744,61.541 Q134.9053,61.541 135.4988,61.2712 Q136.0923,61.0015 136.7231,60.4204 Z "/><text fill="#000000" font-family="sans-serif" font-size="12" lengthAdjust="spacingAndGlyphs" textLength="89" x="154.75" y="61.5352">FactoryProvider</text><line style="stroke: #A80036; stroke-width: 1.5;" x1="33" x2="333" y1="73" y2="73"/><line style="stroke: #A80036; stroke-width: 1.5;" x1="33" x2="333" y1="81" y2="81"/><ellipse cx="43" cy="92" fill="#84BE84" rx="3" ry="3" style="stroke: #038048; stroke-width: 1.0;"/><text fill="#000000" font-family="sans-serif" font-size="11" lengthAdjust="spacingAndGlyphs" text-decoration="underline" textLength="276" x="52" y="95.6348">getShowRequestFactory(): ShowRequestFactoryImpl</text></a><text fill="#888888" font-family="sans-serif" font-size="10" lengthAdjust="spacingAndGlyphs" textLength="188" x="83" y="133.628">UMLDoclet 2.0.12, PlantUML 1.2020.16</text><!--MD5=[49f870a23f24ea9d81e50db6cce4c296]
@startuml
    namespace factories {

        class FactoryProvider [[FactoryProvider.html]] {
            {static} +getShowRequestFactory(): ShowRequestFactoryImpl
        }

    }

    center footer UMLDoclet 2.0.12, PlantUML 1.2020.16
@enduml

PlantUML version 1.2020.16(Sun Aug 23 21:20:43 WEST 2020)
(APACHE source distribution)
Java Runtime: OpenJDK Runtime Environment
JVM: OpenJDK 64-Bit Server VM
Default Encoding: UTF-8
Language: pt
Country: PT
--></g></svg>