<?xml version="1.0" encoding="UTF-8" standalone="no"?><svg xmlns="http://www.w3.org/2000/svg" xmlns:xlink="http://www.w3.org/1999/xlink" contentScriptType="application/ecmascript" contentStyleType="text/css" height="169px" preserveAspectRatio="none" style="width:346px;height:169px;" version="1.1" viewBox="0 0 346 169" width="346px" zoomAndPan="magnify"><defs><filter height="300%" id="ffis1ujb4e8z6" width="300%" x="-1" y="-1"><feGaussianBlur result="blurOut" stdDeviation="2.0"/><feColorMatrix in="blurOut" result="blurOut2" type="matrix" values="0 0 0 0 0 0 0 0 0 0 0 0 0 0 0 0 0 0 .4 0"/><feOffset dx="4.0" dy="4.0" in="blurOut2" result="blurOut3"/><feBlend in="SourceGraphic" in2="blurOut3" mode="normal"/></filter></defs><g><!--MD5=[25a83bc52577e5a32264369cb4772e04]
class persistence.inmemory.InMemoryAuthenticationRepository--><a href="InMemoryAuthenticationRepository.html" target="_top" title="InMemoryAuthenticationRepository.html" xlink:actuate="onRequest" xlink:href="InMemoryAuthenticationRepository.html" xlink:show="new" xlink:title="InMemoryAuthenticationRepository.html" xlink:type="simple"><rect codeLine="5" fill="#FEFECE" filter="url(#ffis1ujb4e8z6)" height="131.9961" id="persistence.inmemory.InMemoryAuthenticationRepository" style="stroke: #A80036; stroke-width: 1.5;" width="320" x="7" y="7"/><ellipse cx="42.7" cy="26.1328" fill="#ADD1B2" rx="11" ry="11" style="stroke: #A80036; stroke-width: 1.0;"/><path d="M45.1731,32.2759 Q44.5921,32.5747 43.9529,32.7241 Q43.3138,32.8735 42.6082,32.8735 Q40.1014,32.8735 38.7815,31.2217 Q37.4617,29.5698 37.4617,26.4487 Q37.4617,23.3193 38.7815,21.6675 Q40.1014,20.0156 42.6082,20.0156 Q43.3138,20.0156 43.9612,20.165 Q44.6087,20.3145 45.1731,20.6133 L45.1731,23.3359 Q44.5423,22.7549 43.9488,22.4851 Q43.3553,22.2153 42.7244,22.2153 Q41.3797,22.2153 40.6949,23.282 Q40.0101,24.3486 40.0101,26.4487 Q40.0101,28.5405 40.6949,29.6072 Q41.3797,30.6738 42.7244,30.6738 Q43.3553,30.6738 43.9488,30.4041 Q44.5423,30.1343 45.1731,29.5532 Z "/><text fill="#000000" font-family="sans-serif" font-size="14" lengthAdjust="spacingAndGlyphs" textLength="242" x="61.3" y="25.5352">InMemoryAuthenticationRepository</text><text fill="#000000" font-family="sans-serif" font-size="10" lengthAdjust="spacingAndGlyphs" textLength="107" x="128.8" y="38.1563">persistence.inmemory</text><line style="stroke: #A80036; stroke-width: 1.5;" x1="8" x2="326" y1="45.2656" y2="45.2656"/><rect fill="none" height="6" style="stroke: #C82930; stroke-width: 1.0;" width="6" x="15" y="53.2656"/><text fill="#000000" font-family="sans-serif" font-size="11" lengthAdjust="spacingAndGlyphs" textLength="183" x="27" y="59.9004">authenticationFacade: AuthFacade</text><line style="stroke: #A80036; stroke-width: 1.5;" x1="8" x2="326" y1="66.2207" y2="66.2207"/><ellipse cx="18" cy="77.2207" fill="#84BE84" rx="3" ry="3" style="stroke: #038048; stroke-width: 1.0;"/><text fill="#000000" font-family="sans-serif" font-size="11" lengthAdjust="spacingAndGlyphs" textLength="171" x="27" y="80.8555">doLogin(String, String): boolean</text><ellipse cx="18" cy="90.1758" fill="#84BE84" rx="3" ry="3" style="stroke: #038048; stroke-width: 1.0;"/><text fill="#000000" font-family="sans-serif" font-size="11" lengthAdjust="spacingAndGlyphs" textLength="89" x="27" y="93.8105">doLogout(): void</text><ellipse cx="18" cy="103.1309" fill="#84BE84" rx="3" ry="3" style="stroke: #038048; stroke-width: 1.0;"/><text fill="#000000" font-family="sans-serif" font-size="11" lengthAdjust="spacingAndGlyphs" textLength="205" x="27" y="106.7656">getCurrentUserSession(): UserSession</text><ellipse cx="18" cy="116.0859" fill="#84BE84" rx="3" ry="3" style="stroke: #038048; stroke-width: 1.0;"/><text fill="#000000" font-family="sans-serif" font-size="11" lengthAdjust="spacingAndGlyphs" textLength="195" x="27" y="119.7207">addUserRole(String, String): boolean</text><ellipse cx="18" cy="129.041" fill="#84BE84" rx="3" ry="3" style="stroke: #038048; stroke-width: 1.0;"/><text fill="#000000" font-family="sans-serif" font-size="11" lengthAdjust="spacingAndGlyphs" textLength="294" x="27" y="132.6758">addUserWithRole(String, String, String, String): boolean</text></a><text fill="#888888" font-family="sans-serif" font-size="10" lengthAdjust="spacingAndGlyphs" textLength="188" x="73" y="155.6641">UMLDoclet 2.0.12, PlantUML 1.2020.16</text><!--MD5=[9c19f1ebff64eb0e09983711a2486d43]
@startuml
    set namespaceSeparator none
    hide empty fields
    hide empty methods

    class "<size:14>InMemoryAuthenticationRepository\n<size:10>persistence.inmemory" as persistence.inmemory.InMemoryAuthenticationRepository [[InMemoryAuthenticationRepository.html]] {
        -authenticationFacade: AuthFacade
        +doLogin(String, String): boolean
        +doLogout(): void
        +getCurrentUserSession(): UserSession
        +addUserRole(String, String): boolean
        +addUserWithRole(String, String, String, String): boolean
    }

    center footer UMLDoclet 2.0.12, PlantUML 1.2020.16
@enduml

PlantUML version 1.2020.16(Sun Aug 23 21:20:43 WEST 2020)
(APACHE source distribution)
Java Runtime: OpenJDK Runtime Environment
JVM: OpenJDK 64-Bit Server VM
Default Encoding: UTF-8
Language: pt
Country: PT
--></g></svg>