<?xml version="1.0" encoding="UTF-8" standalone="no"?><svg xmlns="http://www.w3.org/2000/svg" xmlns:xlink="http://www.w3.org/1999/xlink" contentScriptType="application/ecmascript" contentStyleType="text/css" height="186px" preserveAspectRatio="none" style="width:344px;height:186px;" version="1.1" viewBox="0 0 344 186" width="344px" zoomAndPan="magnify"><defs><filter height="300%" id="ffis1ujb4e8z6" width="300%" x="-1" y="-1"><feGaussianBlur result="blurOut" stdDeviation="2.0"/><feColorMatrix in="blurOut" result="blurOut2" type="matrix" values="0 0 0 0 0 0 0 0 0 0 0 0 0 0 0 0 0 0 .4 0"/><feOffset dx="4.0" dy="4.0" in="blurOut2" result="blurOut3"/><feBlend in="SourceGraphic" in2="blurOut3" mode="normal"/></filter></defs><g><!--MD5=[25a83bc52577e5a32264369cb4772e04]
class persistence.inmemory.InMemoryAuthenticationRepository--><a href="InMemoryAuthenticationRepository.html" target="_top" title="InMemoryAuthenticationRepository.html" xlink:actuate="onRequest" xlink:href="InMemoryAuthenticationRepository.html" xlink:show="new" xlink:title="InMemoryAuthenticationRepository.html" xlink:type="simple"><rect codeLine="5" fill="#FEFECE" filter="url(#ffis1ujb4e8z6)" height="148.5792" id="persistence.inmemory.InMemoryAuthenticationRepository" style="stroke: #A80036; stroke-width: 1.5;" width="318" x="7" y="7"/><ellipse cx="43.15" cy="28.344" fill="#ADD1B2" rx="11" ry="11" style="stroke: #A80036; stroke-width: 1.0;"/><path d="M46.1188,33.9846 Q45.5406,34.2815 44.9,34.4221 Q44.2594,34.5783 43.5563,34.5783 Q41.0563,34.5783 39.7281,32.9377 Q38.4156,31.2815 38.4156,28.1565 Q38.4156,25.0315 39.7281,23.3752 Q41.0563,21.719 43.5563,21.719 Q44.2594,21.719 44.9,21.8752 Q45.5563,22.0315 46.1188,22.3283 L46.1188,25.0471 Q45.4938,24.469 44.9,24.2033 Q44.3063,23.9221 43.6813,23.9221 Q42.3375,23.9221 41.65,25.0002 Q40.9625,26.0627 40.9625,28.1565 Q40.9625,30.2502 41.65,31.3283 Q42.3375,32.3908 43.6813,32.3908 Q44.3063,32.3908 44.9,32.1252 Q45.4938,31.844 46.1188,31.2658 L46.1188,33.9846 Z "/><text fill="#000000" font-family="sans-serif" font-size="14" lengthAdjust="spacingAndGlyphs" textLength="239" x="61.85" y="26.9659">InMemoryAuthenticationRepository</text><text fill="#000000" font-family="sans-serif" font-size="10" lengthAdjust="spacingAndGlyphs" textLength="107" x="127.85" y="41.7579">persistence.inmemory</text><line style="stroke: #A80036; stroke-width: 1.5;" x1="8" x2="324" y1="49.6879" y2="49.6879"/><rect fill="none" height="6" style="stroke: #C82930; stroke-width: 1.0;" width="6" x="15" y="57.6879"/><text fill="#000000" font-family="sans-serif" font-size="11" lengthAdjust="spacingAndGlyphs" textLength="179" x="27" y="65.4468">authenticationFacade: AuthFacade</text><line style="stroke: #A80036; stroke-width: 1.5;" x1="8" x2="324" y1="72.6698" y2="72.6698"/><ellipse cx="18" cy="83.6698" fill="#84BE84" rx="3" ry="3" style="stroke: #038048; stroke-width: 1.0;"/><text fill="#000000" font-family="sans-serif" font-size="11" lengthAdjust="spacingAndGlyphs" textLength="169" x="27" y="88.4287">doLogin(String, String): boolean</text><ellipse cx="18" cy="98.6517" fill="#84BE84" rx="3" ry="3" style="stroke: #038048; stroke-width: 1.0;"/><text fill="#000000" font-family="sans-serif" font-size="11" lengthAdjust="spacingAndGlyphs" textLength="87" x="27" y="103.4106">doLogout(): void</text><ellipse cx="18" cy="113.6336" fill="#84BE84" rx="3" ry="3" style="stroke: #038048; stroke-width: 1.0;"/><text fill="#000000" font-family="sans-serif" font-size="11" lengthAdjust="spacingAndGlyphs" textLength="196" x="27" y="118.3925">getCurrentUserSession(): UserSession</text><ellipse cx="18" cy="128.6155" fill="#84BE84" rx="3" ry="3" style="stroke: #038048; stroke-width: 1.0;"/><text fill="#000000" font-family="sans-serif" font-size="11" lengthAdjust="spacingAndGlyphs" textLength="192" x="27" y="133.3744">addUserRole(String, String): boolean</text><ellipse cx="18" cy="143.5973" fill="#84BE84" rx="3" ry="3" style="stroke: #038048; stroke-width: 1.0;"/><text fill="#000000" font-family="sans-serif" font-size="11" lengthAdjust="spacingAndGlyphs" textLength="292" x="27" y="148.3563">addUserWithRole(String, String, String, String): boolean</text></a><text fill="#888888" font-family="sans-serif" font-size="10" lengthAdjust="spacingAndGlyphs" textLength="188" x="72" y="173.2692">UMLDoclet 2.0.12, PlantUML 1.2020.16</text><!--MD5=[10dc7fb49b70e10df701efd729fb5024]
@startuml
    set namespaceSeparator none
    hide empty fields
    hide empty methods

    class "<size:14>InMemoryAuthenticationRepository\n<size:10>persistence.inmemory" as persistence.inmemory.InMemoryAuthenticationRepository [[InMemoryAuthenticationRepository.html]] {
        -authenticationFacade: AuthFacade
        +doLogin(String, String): boolean
        +doLogout(): void
        +getCurrentUserSession(): UserSession
        +addUserRole(String, String): boolean
        +addUserWithRole(String, String, String, String): boolean
    }

    center footer UMLDoclet 2.0.12, PlantUML 1.2020.16
@enduml

PlantUML version 1.2020.16(Sun Aug 23 21:20:43 WEST 2020)
(APACHE source distribution)
Java Runtime: Java(TM) SE Runtime Environment
JVM: Java HotSpot(TM) 64-Bit Server VM
Default Encoding: UTF-8
Language: en
Country: US
--></g></svg>