<?xml version="1.0" encoding="UTF-8" standalone="no"?><svg xmlns="http://www.w3.org/2000/svg" xmlns:xlink="http://www.w3.org/1999/xlink" contentScriptType="application/ecmascript" contentStyleType="text/css" height="224px" preserveAspectRatio="none" style="width:266px;height:224px;" version="1.1" viewBox="0 0 266 224" width="266px" zoomAndPan="magnify"><defs><filter height="300%" id="fbes8aut2cdmw" width="300%" x="-1" y="-1"><feGaussianBlur result="blurOut" stdDeviation="2.0"/><feColorMatrix in="blurOut" result="blurOut2" type="matrix" values="0 0 0 0 0 0 0 0 0 0 0 0 0 0 0 0 0 0 .4 0"/><feOffset dx="4.0" dy="4.0" in="blurOut2" result="blurOut3"/><feBlend in="SourceGraphic" in2="blurOut3" mode="normal"/></filter></defs><g><!--MD5=[38679c60165f1d015ed189dda14ed926]
class persistence.inmemory.InMemoryCustomerRepository--><a href="InMemoryCustomerRepository.html" target="_top" title="InMemoryCustomerRepository.html" xlink:actuate="onRequest" xlink:href="InMemoryCustomerRepository.html" xlink:show="new" xlink:title="InMemoryCustomerRepository.html" xlink:type="simple"><rect codeLine="5" fill="#FEFECE" filter="url(#fbes8aut2cdmw)" height="59.2207" id="persistence.inmemory.InMemoryCustomerRepository" style="stroke: #A80036; stroke-width: 1.5;" width="240" x="7" y="129.22"/><ellipse cx="22" cy="148.3528" fill="#ADD1B2" rx="11" ry="11" style="stroke: #A80036; stroke-width: 1.0;"/><path d="M24.4731,154.4959 Q23.8921,154.7947 23.2529,154.9441 Q22.6138,155.0935 21.9082,155.0935 Q19.4014,155.0935 18.0815,153.4417 Q16.7617,151.7898 16.7617,148.6687 Q16.7617,145.5393 18.0815,143.8875 Q19.4014,142.2356 21.9082,142.2356 Q22.6138,142.2356 23.2612,142.385 Q23.9087,142.5345 24.4731,142.8333 L24.4731,145.5559 Q23.8423,144.9749 23.2488,144.7051 Q22.6553,144.4353 22.0244,144.4353 Q20.6797,144.4353 19.9949,145.502 Q19.3101,146.5686 19.3101,148.6687 Q19.3101,150.7605 19.9949,151.8272 Q20.6797,152.8938 22.0244,152.8938 Q22.6553,152.8938 23.2488,152.6241 Q23.8423,152.3543 24.4731,151.7732 Z "/><text fill="#000000" font-family="sans-serif" font-size="14" lengthAdjust="spacingAndGlyphs" textLength="208" x="36" y="147.7552">InMemoryCustomerRepository</text><text fill="#000000" font-family="sans-serif" font-size="10" lengthAdjust="spacingAndGlyphs" textLength="107" x="86.5" y="160.3763">persistence.inmemory</text><line style="stroke: #A80036; stroke-width: 1.5;" x1="8" x2="246" y1="167.4856" y2="167.4856"/><ellipse cx="18" cy="178.4856" fill="#84BE84" rx="3" ry="3" style="stroke: #038048; stroke-width: 1.0;"/><text fill="#000000" font-family="sans-serif" font-size="11" lengthAdjust="spacingAndGlyphs" textLength="104" x="27" y="182.1204">add(Object): Object</text></a><!--MD5=[b23d6c304d5c6d82ca819f3e54e22ec7]
class persistence.interfaces.CostumerRepository--><a href="../interfaces/CostumerRepository.html" target="_top" title="../interfaces/CostumerRepository.html" xlink:actuate="onRequest" xlink:href="../interfaces/CostumerRepository.html" xlink:show="new" xlink:title="../interfaces/CostumerRepository.html" xlink:type="simple"><rect codeLine="9" fill="#FEFECE" filter="url(#fbes8aut2cdmw)" height="59.2207" id="persistence.interfaces.CostumerRepository" style="stroke: #A80036; stroke-width: 1.5;" width="184" x="35" y="10"/><ellipse cx="50" cy="29.1328" fill="#B4A7E5" rx="11" ry="11" style="stroke: #A80036; stroke-width: 1.0;"/><path d="M46.4277,25.3979 L46.4277,23.2397 L53.8071,23.2397 L53.8071,25.3979 L51.3418,25.3979 L51.3418,33.4746 L53.8071,33.4746 L53.8071,35.6328 L46.4277,35.6328 L46.4277,33.4746 L48.8931,33.4746 L48.8931,25.3979 Z "/><text fill="#000000" font-family="sans-serif" font-size="14" font-style="italic" lengthAdjust="spacingAndGlyphs" textLength="140" x="64" y="28.5352">CostumerRepository</text><text fill="#000000" font-family="sans-serif" font-size="10" font-style="italic" lengthAdjust="spacingAndGlyphs" textLength="108" x="80" y="41.1563">persistence.interfaces</text><rect fill="#FFFFFF" height="16.1328" style="stroke: #000000; stroke-width: 1.0; stroke-dasharray: 2.0,2.0;" width="10" x="212" y="7"/><text fill="#000000" font-family="sans-serif" font-size="12" font-style="italic" lengthAdjust="spacingAndGlyphs" textLength="8" x="213" y="19.6016">T</text><line style="stroke: #A80036; stroke-width: 1.5;" x1="36" x2="218" y1="48.2656" y2="48.2656"/><ellipse cx="46" cy="59.2656" fill="#84BE84" rx="3" ry="3" style="stroke: #038048; stroke-width: 1.0;"/><text fill="#000000" font-family="sans-serif" font-size="11" font-style="italic" lengthAdjust="spacingAndGlyphs" textLength="48" x="55" y="62.9004">add(T): T</text></a><!--MD5=[bb5e037493e234c83a6980b0f97963b3]
reverse link persistence.interfaces.CostumerRepository to persistence.inmemory.InMemoryCustomerRepository--><path codeLine="13" d="M127,91 C127,103.91 127,117.36 127,128.78 " fill="none" id="persistence.interfaces.CostumerRepository-backto-persistence.inmemory.InMemoryCustomerRepository" style="stroke: #A80036; stroke-width: 1.0; stroke-dasharray: 7.0,7.0;"/><polygon fill="none" points="120,91.1,127,71.1,134,91.1,120,91.1" style="stroke: #A80036; stroke-width: 1.0;"/><text fill="#888888" font-family="sans-serif" font-size="10" lengthAdjust="spacingAndGlyphs" textLength="188" x="30" y="211.1087">UMLDoclet 2.0.12, PlantUML 1.2020.16</text><!--MD5=[2b0fe1a22fe7c0b1070584a66d1a7987]
@startuml
    set namespaceSeparator none
    hide empty fields
    hide empty methods

    class "<size:14>InMemoryCustomerRepository\n<size:10>persistence.inmemory" as persistence.inmemory.InMemoryCustomerRepository [[InMemoryCustomerRepository.html]] {
        +add(Object): Object
    }

    interface "<size:14>CostumerRepository\n<size:10>persistence.interfaces" as persistence.interfaces.CostumerRepository<T> [[../interfaces/CostumerRepository.html]] {
        {abstract} +add(T): T
    }

    persistence.interfaces.CostumerRepository <|.. persistence.inmemory.InMemoryCustomerRepository

    center footer UMLDoclet 2.0.12, PlantUML 1.2020.16
@enduml

PlantUML version 1.2020.16(Sun Aug 23 21:20:43 WEST 2020)
(APACHE source distribution)
Java Runtime: OpenJDK Runtime Environment
JVM: OpenJDK 64-Bit Server VM
Default Encoding: UTF-8
Language: pt
Country: PT
--></g></svg>