<?xml version="1.0" encoding="UTF-8" standalone="no"?><svg xmlns="http://www.w3.org/2000/svg" xmlns:xlink="http://www.w3.org/1999/xlink" contentScriptType="application/ecmascript" contentStyleType="text/css" height="238px" preserveAspectRatio="none" style="width:289px;height:238px;" version="1.1" viewBox="0 0 289 238" width="289px" zoomAndPan="magnify"><defs><filter height="300%" id="f1vlysxlzjnl8c" width="300%" x="-1" y="-1"><feGaussianBlur result="blurOut" stdDeviation="2.0"/><feColorMatrix in="blurOut" result="blurOut2" type="matrix" values="0 0 0 0 0 0 0 0 0 0 0 0 0 0 0 0 0 0 .4 0"/><feOffset dx="4.0" dy="4.0" in="blurOut2" result="blurOut3"/><feBlend in="SourceGraphic" in2="blurOut3" mode="normal"/></filter></defs><g><!--MD5=[eb872b9ce2cd26d259e932265288c3e3]
class persistence.inmemory.InMemoryShowRequestRepository--><a href="InMemoryShowRequestRepository.html" target="_top" title="InMemoryShowRequestRepository.html" xlink:actuate="onRequest" xlink:href="InMemoryShowRequestRepository.html" xlink:show="new" xlink:title="InMemoryShowRequestRepository.html" xlink:type="simple"><rect codeLine="5" fill="#FEFECE" filter="url(#f1vlysxlzjnl8c)" height="65.6698" id="persistence.inmemory.InMemoryShowRequestRepository" style="stroke: #A80036; stroke-width: 1.5;" width="263" x="7" y="136.016"/><ellipse cx="22" cy="157.36" fill="#ADD1B2" rx="11" ry="11" style="stroke: #A80036; stroke-width: 1.0;"/><path d="M24.9688,163.0006 Q24.3906,163.2975 23.75,163.4381 Q23.1094,163.5944 22.4063,163.5944 Q19.9063,163.5944 18.5781,161.9537 Q17.2656,160.2975 17.2656,157.1725 Q17.2656,154.0475 18.5781,152.3912 Q19.9063,150.735 22.4063,150.735 Q23.1094,150.735 23.75,150.8912 Q24.4063,151.0475 24.9688,151.3444 L24.9688,154.0631 Q24.3438,153.485 23.75,153.2194 Q23.1563,152.9381 22.5313,152.9381 Q21.1875,152.9381 20.5,154.0162 Q19.8125,155.0787 19.8125,157.1725 Q19.8125,159.2662 20.5,160.3444 Q21.1875,161.4069 22.5313,161.4069 Q23.1563,161.4069 23.75,161.1412 Q24.3438,160.86 24.9688,160.2819 L24.9688,163.0006 Z "/><text fill="#000000" font-family="sans-serif" font-size="14" lengthAdjust="spacingAndGlyphs" textLength="231" x="36" y="155.982">InMemoryShowRequestRepository</text><text fill="#000000" font-family="sans-serif" font-size="10" lengthAdjust="spacingAndGlyphs" textLength="107" x="98" y="170.7739">persistence.inmemory</text><line style="stroke: #A80036; stroke-width: 1.5;" x1="8" x2="269" y1="178.7039" y2="178.7039"/><ellipse cx="18" cy="189.7039" fill="#84BE84" rx="3" ry="3" style="stroke: #038048; stroke-width: 1.0;"/><text fill="#000000" font-family="sans-serif" font-size="11" lengthAdjust="spacingAndGlyphs" textLength="100" x="27" y="194.4628">add(Object): Object</text></a><!--MD5=[abdfb4f157874ee149227debb82cee43]
class persistence.interfaces.ShowRequestRepository--><a href="../interfaces/ShowRequestRepository.html" target="_top" title="../interfaces/ShowRequestRepository.html" xlink:actuate="onRequest" xlink:href="../interfaces/ShowRequestRepository.html" xlink:show="new" xlink:title="../interfaces/ShowRequestRepository.html" xlink:type="simple"><rect codeLine="9" fill="#FEFECE" filter="url(#f1vlysxlzjnl8c)" height="65.6698" id="persistence.interfaces.ShowRequestRepository" style="stroke: #A80036; stroke-width: 1.5;" width="191" x="43" y="10.016"/><ellipse cx="58" cy="31.36" fill="#B4A7E5" rx="11" ry="11" style="stroke: #A80036; stroke-width: 1.0;"/><path d="M53.9219,27.1256 L53.9219,24.9694 L61.3125,24.9694 L61.3125,27.1256 L58.8438,27.1256 L58.8438,35.2037 L61.3125,35.2037 L61.3125,37.36 L53.9219,37.36 L53.9219,35.2037 L56.3906,35.2037 L56.3906,27.1256 L53.9219,27.1256 Z "/><text fill="#000000" font-family="sans-serif" font-size="14" font-style="italic" lengthAdjust="spacingAndGlyphs" textLength="149" x="72" y="29.982">ShowRequestRepository</text><text fill="#000000" font-family="sans-serif" font-size="10" font-style="italic" lengthAdjust="spacingAndGlyphs" textLength="97" x="98" y="44.7739">persistence.interfaces</text><rect fill="#FFFFFF" height="18.3441" style="stroke: #000000; stroke-width: 1.0; stroke-dasharray: 2.0,2.0;" width="8" x="229" y="7.016"/><text fill="#000000" font-family="sans-serif" font-size="12" font-style="italic" lengthAdjust="spacingAndGlyphs" textLength="6" x="230" y="20.8441">T</text><line style="stroke: #A80036; stroke-width: 1.5;" x1="44" x2="233" y1="52.7039" y2="52.7039"/><ellipse cx="54" cy="63.7039" fill="#84BE84" rx="3" ry="3" style="stroke: #038048; stroke-width: 1.0;"/><text fill="#000000" font-family="sans-serif" font-size="11" font-style="italic" lengthAdjust="spacingAndGlyphs" textLength="42" x="63" y="68.4628">add(T): T</text></a><!--MD5=[4bdf0288ab6e3f44a0e45300b39ce872]
reverse link persistence.interfaces.ShowRequestRepository to persistence.inmemory.InMemoryShowRequestRepository--><path codeLine="13" d="M138.5,96.466 C138.5,109.866 138.5,123.886 138.5,135.926 " fill="none" id="persistence.interfaces.ShowRequestRepository-backto-persistence.inmemory.InMemoryShowRequestRepository" style="stroke: #A80036; stroke-width: 1.0; stroke-dasharray: 7.0,7.0;"/><polygon fill="none" points="131.5,96.276,138.5,76.276,145.5,96.276,131.5,96.276" style="stroke: #A80036; stroke-width: 1.0;"/><text fill="#888888" font-family="sans-serif" font-size="10" lengthAdjust="spacingAndGlyphs" textLength="188" x="41.5" y="225.3758">UMLDoclet 2.0.12, PlantUML 1.2020.16</text><!--MD5=[2a5db3c874ef623621b4b920e93639a6]
@startuml
    set namespaceSeparator none
    hide empty fields
    hide empty methods

    class "<size:14>InMemoryShowRequestRepository\n<size:10>persistence.inmemory" as persistence.inmemory.InMemoryShowRequestRepository [[InMemoryShowRequestRepository.html]] {
        +add(Object): Object
    }

    interface "<size:14>ShowRequestRepository\n<size:10>persistence.interfaces" as persistence.interfaces.ShowRequestRepository<T> [[../interfaces/ShowRequestRepository.html]] {
        {abstract} +add(T): T
    }

    persistence.interfaces.ShowRequestRepository <|.. persistence.inmemory.InMemoryShowRequestRepository

    center footer UMLDoclet 2.0.12, PlantUML 1.2020.16
@enduml

PlantUML version 1.2020.16(Sun Aug 23 21:20:43 WEST 2020)
(APACHE source distribution)
Java Runtime: Java(TM) SE Runtime Environment
JVM: Java HotSpot(TM) 64-Bit Server VM
Default Encoding: UTF-8
Language: en
Country: US
--></g></svg>