<?xml version="1.0" encoding="UTF-8" standalone="no"?><svg xmlns="http://www.w3.org/2000/svg" xmlns:xlink="http://www.w3.org/1999/xlink" contentScriptType="application/ecmascript" contentStyleType="text/css" height="568px" preserveAspectRatio="none" style="width:749px;height:568px;" version="1.1" viewBox="0 0 749 568" width="749px" zoomAndPan="magnify"><defs><filter height="300%" id="f7n8bp4jgrwak" width="300%" x="-1" y="-1"><feGaussianBlur result="blurOut" stdDeviation="2.0"/><feColorMatrix in="blurOut" result="blurOut2" type="matrix" values="0 0 0 0 0 0 0 0 0 0 0 0 0 0 0 0 0 0 .4 0"/><feOffset dx="4.0" dy="4.0" in="blurOut2" result="blurOut3"/><feBlend in="SourceGraphic" in2="blurOut3" mode="normal"/></filter></defs><g><!--MD5=[0bfac829526841e29760a88ea428ae36]
cluster persistence.inmemory--><polygon fill="#FFFFFF" filter="url(#f7n8bp4jgrwak)" points="16,156.602,177,156.602,184,181.6699,727,181.6699,727,538.602,16,538.602,16,156.602" style="stroke: #000000; stroke-width: 1.5;"/><line style="stroke: #000000; stroke-width: 1.5;" x1="16" x2="184" y1="181.6699" y2="181.6699"/><text fill="#000000" font-family="sans-serif" font-size="14" font-weight="bold" lengthAdjust="spacingAndGlyphs" textLength="155" x="20" y="173.5679">persistence.inmemory</text><!--MD5=[2080742880720af87d67468ca1701f80]
cluster persistence.interfaces--><polygon fill="#FFFFFF" filter="url(#f7n8bp4jgrwak)" points="498,6.602,655,6.602,662,31.6699,700,31.6699,700,123.602,498,123.602,498,6.602" style="stroke: #000000; stroke-width: 1.5;"/><line style="stroke: #000000; stroke-width: 1.5;" x1="498" x2="662" y1="31.6699" y2="31.6699"/><text fill="#000000" font-family="sans-serif" font-size="14" font-weight="bold" lengthAdjust="spacingAndGlyphs" textLength="151" x="502" y="23.5679">persistence.interfaces</text><!--MD5=[eb872b9ce2cd26d259e932265288c3e3]
class persistence.inmemory.InMemoryShowRequestRepository--><a href="InMemoryShowRequestRepository.html" target="_top" title="InMemoryShowRequestRepository.html" xlink:actuate="onRequest" xlink:href="InMemoryShowRequestRepository.html" xlink:show="new" xlink:title="InMemoryShowRequestRepository.html" xlink:type="simple"><rect codeLine="3" fill="#FEFECE" filter="url(#f7n8bp4jgrwak)" height="62.9819" id="persistence.inmemory.InMemoryShowRequestRepository" style="stroke: #A80036; stroke-width: 1.5;" width="224" x="487" y="209.602"/><ellipse cx="502" cy="225.602" fill="#ADD1B2" rx="11" ry="11" style="stroke: #A80036; stroke-width: 1.0;"/><path d="M504.9688,231.2426 Q504.3906,231.5395 503.75,231.6801 Q503.1094,231.8364 502.4063,231.8364 Q499.9063,231.8364 498.5781,230.1957 Q497.2656,228.5395 497.2656,225.4145 Q497.2656,222.2895 498.5781,220.6332 Q499.9063,218.977 502.4063,218.977 Q503.1094,218.977 503.75,219.1332 Q504.4063,219.2895 504.9688,219.5864 L504.9688,222.3051 Q504.3438,221.727 503.75,221.4614 Q503.1563,221.1801 502.5313,221.1801 Q501.1875,221.1801 500.5,222.2582 Q499.8125,223.3207 499.8125,225.4145 Q499.8125,227.5082 500.5,228.5864 Q501.1875,229.6489 502.5313,229.6489 Q503.1563,229.6489 503.75,229.3832 Q504.3438,229.102 504.9688,228.5239 L504.9688,231.2426 Z "/><text fill="#000000" font-family="sans-serif" font-size="12" lengthAdjust="spacingAndGlyphs" textLength="192" x="516" y="230.258">InMemoryShowRequestRepository</text><line style="stroke: #A80036; stroke-width: 1.5;" x1="488" x2="710" y1="241.602" y2="241.602"/><line style="stroke: #A80036; stroke-width: 1.5;" x1="488" x2="710" y1="249.602" y2="249.602"/><ellipse cx="498" cy="260.602" fill="#84BE84" rx="3" ry="3" style="stroke: #038048; stroke-width: 1.0;"/><text fill="#000000" font-family="sans-serif" font-size="11" lengthAdjust="spacingAndGlyphs" textLength="100" x="507" y="265.3609">add(Object): Object</text></a><!--MD5=[25a83bc52577e5a32264369cb4772e04]
class persistence.inmemory.InMemoryAuthenticationRepository--><a href="InMemoryAuthenticationRepository.html" target="_top" title="InMemoryAuthenticationRepository.html" xlink:actuate="onRequest" xlink:href="InMemoryAuthenticationRepository.html" xlink:show="new" xlink:title="InMemoryAuthenticationRepository.html" xlink:type="simple"><rect codeLine="7" fill="#FEFECE" filter="url(#f7n8bp4jgrwak)" height="137.8913" id="persistence.inmemory.InMemoryAuthenticationRepository" style="stroke: #A80036; stroke-width: 1.5;" width="318" x="43" y="384.602"/><ellipse cx="98.75" cy="400.602" fill="#ADD1B2" rx="11" ry="11" style="stroke: #A80036; stroke-width: 1.0;"/><path d="M101.7188,406.2426 Q101.1406,406.5395 100.5,406.6801 Q99.8594,406.8364 99.1563,406.8364 Q96.6563,406.8364 95.3281,405.1957 Q94.0156,403.5395 94.0156,400.4145 Q94.0156,397.2895 95.3281,395.6332 Q96.6563,393.977 99.1563,393.977 Q99.8594,393.977 100.5,394.1332 Q101.1563,394.2895 101.7188,394.5864 L101.7188,397.3051 Q101.0938,396.727 100.5,396.4614 Q99.9063,396.1801 99.2813,396.1801 Q97.9375,396.1801 97.25,397.2582 Q96.5625,398.3207 96.5625,400.4145 Q96.5625,402.5082 97.25,403.5864 Q97.9375,404.6489 99.2813,404.6489 Q99.9063,404.6489 100.5,404.3832 Q101.0938,404.102 101.7188,403.5239 L101.7188,406.2426 Z "/><text fill="#000000" font-family="sans-serif" font-size="12" lengthAdjust="spacingAndGlyphs" textLength="198" x="119.25" y="405.258">InMemoryAuthenticationRepository</text><line style="stroke: #A80036; stroke-width: 1.5;" x1="44" x2="360" y1="416.602" y2="416.602"/><rect fill="none" height="6" style="stroke: #C82930; stroke-width: 1.0;" width="6" x="51" y="424.602"/><text fill="#000000" font-family="sans-serif" font-size="11" lengthAdjust="spacingAndGlyphs" textLength="179" x="63" y="432.3609">authenticationFacade: AuthFacade</text><line style="stroke: #A80036; stroke-width: 1.5;" x1="44" x2="360" y1="439.5839" y2="439.5839"/><ellipse cx="54" cy="450.5839" fill="#84BE84" rx="3" ry="3" style="stroke: #038048; stroke-width: 1.0;"/><text fill="#000000" font-family="sans-serif" font-size="11" lengthAdjust="spacingAndGlyphs" textLength="169" x="63" y="455.3428">doLogin(String, String): boolean</text><ellipse cx="54" cy="465.5658" fill="#84BE84" rx="3" ry="3" style="stroke: #038048; stroke-width: 1.0;"/><text fill="#000000" font-family="sans-serif" font-size="11" lengthAdjust="spacingAndGlyphs" textLength="87" x="63" y="470.3247">doLogout(): void</text><ellipse cx="54" cy="480.5476" fill="#84BE84" rx="3" ry="3" style="stroke: #038048; stroke-width: 1.0;"/><text fill="#000000" font-family="sans-serif" font-size="11" lengthAdjust="spacingAndGlyphs" textLength="196" x="63" y="485.3066">getCurrentUserSession(): UserSession</text><ellipse cx="54" cy="495.5295" fill="#84BE84" rx="3" ry="3" style="stroke: #038048; stroke-width: 1.0;"/><text fill="#000000" font-family="sans-serif" font-size="11" lengthAdjust="spacingAndGlyphs" textLength="192" x="63" y="500.2884">addUserRole(String, String): boolean</text><ellipse cx="54" cy="510.5114" fill="#84BE84" rx="3" ry="3" style="stroke: #038048; stroke-width: 1.0;"/><text fill="#000000" font-family="sans-serif" font-size="11" lengthAdjust="spacingAndGlyphs" textLength="292" x="63" y="515.2703">addUserWithRole(String, String, String, String): boolean</text></a><!--MD5=[21bcd791f2d8f541eff6ec794f8f10a5]
class persistence.inmemory.Repositories--><a href="Repositories.html" target="_top" title="Repositories.html" xlink:actuate="onRequest" xlink:href="Repositories.html" xlink:show="new" xlink:title="Repositories.html" xlink:type="simple"><rect codeLine="16" fill="#FEFECE" filter="url(#f7n8bp4jgrwak)" height="92.9457" id="persistence.inmemory.Repositories" style="stroke: #A80036; stroke-width: 1.5;" width="339" x="32.5" y="194.602"/><ellipse cx="163.25" cy="210.602" fill="#ADD1B2" rx="11" ry="11" style="stroke: #A80036; stroke-width: 1.0;"/><path d="M166.2188,216.2426 Q165.6406,216.5395 165,216.6801 Q164.3594,216.8364 163.6563,216.8364 Q161.1563,216.8364 159.8281,215.1957 Q158.5156,213.5395 158.5156,210.4145 Q158.5156,207.2895 159.8281,205.6332 Q161.1563,203.977 163.6563,203.977 Q164.3594,203.977 165,204.1332 Q165.6563,204.2895 166.2188,204.5864 L166.2188,207.3051 Q165.5938,206.727 165,206.4614 Q164.4063,206.1801 163.7813,206.1801 Q162.4375,206.1801 161.75,207.2582 Q161.0625,208.3207 161.0625,210.4145 Q161.0625,212.5082 161.75,213.5864 Q162.4375,214.6489 163.7813,214.6489 Q164.4063,214.6489 165,214.3832 Q165.5938,214.102 166.2188,213.5239 L166.2188,216.2426 Z "/><text fill="#000000" font-family="sans-serif" font-size="12" lengthAdjust="spacingAndGlyphs" textLength="69" x="183.75" y="215.258">Repositories</text><line style="stroke: #A80036; stroke-width: 1.5;" x1="33.5" x2="370.5" y1="226.602" y2="226.602"/><rect fill="none" height="6" style="stroke: #C82930; stroke-width: 1.0;" width="6" x="40.5" y="234.602"/><text fill="#000000" font-family="sans-serif" font-size="11" lengthAdjust="spacingAndGlyphs" textLength="290" x="52.5" y="242.3609">jpaAuthenticationRepository: AuthenticationRepository</text><line style="stroke: #A80036; stroke-width: 1.5;" x1="33.5" x2="370.5" y1="249.5839" y2="249.5839"/><ellipse cx="43.5" cy="260.5839" fill="#84BE84" rx="3" ry="3" style="stroke: #038048; stroke-width: 1.0;"/><text fill="#000000" font-family="sans-serif" font-size="11" lengthAdjust="spacingAndGlyphs" text-decoration="underline" textLength="138" x="52.5" y="265.3428">getInstance(): Repositories</text><ellipse cx="43.5" cy="275.5658" fill="#84BE84" rx="3" ry="3" style="stroke: #038048; stroke-width: 1.0;"/><text fill="#000000" font-family="sans-serif" font-size="11" lengthAdjust="spacingAndGlyphs" textLength="313" x="52.5" y="280.3247">getJpaAuthenticationRepository(): AuthenticationRepository</text></a><!--MD5=[abdfb4f157874ee149227debb82cee43]
class persistence.interfaces.ShowRequestRepository--><a href="../interfaces/ShowRequestRepository.html" target="_top" title="../interfaces/ShowRequestRepository.html" xlink:actuate="onRequest" xlink:href="../interfaces/ShowRequestRepository.html" xlink:show="new" xlink:title="../interfaces/ShowRequestRepository.html" xlink:type="simple"><rect codeLine="28" fill="#FEFECE" filter="url(#f7n8bp4jgrwak)" height="62.9819" id="persistence.interfaces.ShowRequestRepository" style="stroke: #A80036; stroke-width: 1.5;" width="170" x="514" y="44.602"/><ellipse cx="529" cy="60.602" fill="#B4A7E5" rx="11" ry="11" style="stroke: #A80036; stroke-width: 1.0;"/><path d="M524.9219,56.3676 L524.9219,54.2114 L532.3125,54.2114 L532.3125,56.3676 L529.8438,56.3676 L529.8438,64.4457 L532.3125,64.4457 L532.3125,66.602 L524.9219,66.602 L524.9219,64.4457 L527.3906,64.4457 L527.3906,56.3676 L524.9219,56.3676 Z "/><text fill="#000000" font-family="sans-serif" font-size="12" font-style="italic" lengthAdjust="spacingAndGlyphs" textLength="128" x="543" y="65.258">ShowRequestRepository</text><rect fill="#FFFFFF" height="18.3441" style="stroke: #000000; stroke-width: 1.0; stroke-dasharray: 2.0,2.0;" width="8" x="679" y="41.602"/><text fill="#000000" font-family="sans-serif" font-size="12" font-style="italic" lengthAdjust="spacingAndGlyphs" textLength="6" x="680" y="55.4301">T</text><line style="stroke: #A80036; stroke-width: 1.5;" x1="515" x2="683" y1="76.602" y2="76.602"/><line style="stroke: #A80036; stroke-width: 1.5;" x1="515" x2="683" y1="84.602" y2="84.602"/><ellipse cx="525" cy="95.602" fill="#84BE84" rx="3" ry="3" style="stroke: #038048; stroke-width: 1.0;"/><text fill="#000000" font-family="sans-serif" font-size="11" font-style="italic" lengthAdjust="spacingAndGlyphs" textLength="42" x="534" y="100.3609">add(T): T</text></a><!--MD5=[4bdf0288ab6e3f44a0e45300b39ce872]
reverse link persistence.interfaces.ShowRequestRepository to persistence.inmemory.InMemoryShowRequestRepository--><path codeLine="22" d="M599,127.862 C599,154.642 599,186.622 599,209.582 " fill="none" id="persistence.interfaces.ShowRequestRepository-backto-persistence.inmemory.InMemoryShowRequestRepository" style="stroke: #A80036; stroke-width: 1.0; stroke-dasharray: 7.0,7.0;"/><polygon fill="none" points="592,127.762,599,107.762,606,127.762,592,127.762" style="stroke: #A80036; stroke-width: 1.0;"/><!--MD5=[5cb2d5e1abcc491e6f42d3457ff3e044]
link persistence.inmemory.Repositories to persistence.inmemory.Repositories--><path codeLine="23" d="M371.65,225.802 C392.68,228.522 406.5,233.622 406.5,241.102 C406.5,247.942 394.96,252.792 376.9,255.652 " fill="none" id="persistence.inmemory.Repositories-to-persistence.inmemory.Repositories" style="stroke: #A80036; stroke-width: 1.0;"/><polygon fill="#A80036" points="371.65,256.402,381.122,259.1005,376.6006,255.7009,380.0002,251.1795,371.65,256.402" style="stroke: #A80036; stroke-width: 1.0;"/><text fill="#000000" font-family="sans-serif" font-size="13" lengthAdjust="spacingAndGlyphs" textLength="50" x="412.5" y="246.499">instance</text><!--MD5=[84e90238a4331c42c060f753df14f331]
link persistence.inmemory.Repositories to persistence.inmemory.InMemoryAuthenticationRepository--><path codeLine="24" d="M202,287.782 C202,314.412 202,348.632 202,378.982 " fill="none" id="persistence.inmemory.Repositories-to-persistence.inmemory.InMemoryAuthenticationRepository" style="stroke: #A80036; stroke-width: 1.0;"/><polygon fill="#A80036" points="202,384.212,206,375.212,202,379.212,198,375.212,202,384.212" style="stroke: #A80036; stroke-width: 1.0;"/><text fill="#000000" font-family="sans-serif" font-size="13" lengthAdjust="spacingAndGlyphs" textLength="216" x="203" y="332.499">inMemoryAuthenticationRepository</text><text fill="#000000" font-family="sans-serif" font-size="13" lengthAdjust="spacingAndGlyphs" textLength="153" x="234.5" y="350.205">authenticationRepository</text><text fill="#888888" font-family="sans-serif" font-size="10" lengthAdjust="spacingAndGlyphs" textLength="188" x="271.5" y="555.292">UMLDoclet 2.0.12, PlantUML 1.2020.16</text><!--MD5=[7cf101da1b5addd149e88708fdfad342]
@startuml
    namespace persistence.inmemory {

        class InMemoryShowRequestRepository [[InMemoryShowRequestRepository.html]] {
            +add(Object): Object
        }

        class InMemoryAuthenticationRepository [[InMemoryAuthenticationRepository.html]] {
            -authenticationFacade: AuthFacade
            +doLogin(String, String): boolean
            +doLogout(): void
            +getCurrentUserSession(): UserSession
            +addUserRole(String, String): boolean
            +addUserWithRole(String, String, String, String): boolean
        }

        class Repositories [[Repositories.html]] {
            -jpaAuthenticationRepository: AuthenticationRepository
            {static} +getInstance(): Repositories
            +getJpaAuthenticationRepository(): AuthenticationRepository
        }

        persistence.interfaces.ShowRequestRepository <|.. InMemoryShowRequestRepository
        Repositories - -> Repositories: instance
        Repositories - -> InMemoryAuthenticationRepository: inMemoryAuthenticationRepository\nauthenticationRepository
    }

    namespace persistence.interfaces {
        interface ShowRequestRepository<T> [[../interfaces/ShowRequestRepository.html]] {
            {abstract} +add(T): T
        }
    }

    center footer UMLDoclet 2.0.12, PlantUML 1.2020.16
@enduml

PlantUML version 1.2020.16(Sun Aug 23 21:20:43 WEST 2020)
(APACHE source distribution)
Java Runtime: Java(TM) SE Runtime Environment
JVM: Java HotSpot(TM) 64-Bit Server VM
Default Encoding: UTF-8
Language: en
Country: US
--></g></svg>