<?xml version="1.0" encoding="UTF-8" standalone="no"?><svg xmlns="http://www.w3.org/2000/svg" xmlns:xlink="http://www.w3.org/1999/xlink" contentScriptType="application/ecmascript" contentStyleType="text/css" height="416px" preserveAspectRatio="none" style="width:1320px;height:416px;" version="1.1" viewBox="0 0 1320 416" width="1320px" zoomAndPan="magnify"><defs><filter height="300%" id="fhnfac8mlrhxg" width="300%" x="-1" y="-1"><feGaussianBlur result="blurOut" stdDeviation="2.0"/><feColorMatrix in="blurOut" result="blurOut2" type="matrix" values="0 0 0 0 0 0 0 0 0 0 0 0 0 0 0 0 0 0 .4 0"/><feOffset dx="4.0" dy="4.0" in="blurOut2" result="blurOut3"/><feBlend in="SourceGraphic" in2="blurOut3" mode="normal"/></filter></defs><g><!--MD5=[0bfac829526841e29760a88ea428ae36]
cluster persistence.inmemory--><polygon fill="#FFFFFF" filter="url(#fhnfac8mlrhxg)" points="16,6,180,6,187,28.4883,866,28.4883,866,387.51,16,387.51,16,6" style="stroke: #000000; stroke-width: 1.5;"/><line style="stroke: #000000; stroke-width: 1.5;" x1="16" x2="187" y1="28.4883" y2="28.4883"/><text fill="#000000" font-family="sans-serif" font-size="14" font-weight="bold" lengthAdjust="spacingAndGlyphs" textLength="158" x="20" y="21.5352">persistence.inmemory</text><!--MD5=[2080742880720af87d67468ca1701f80]
cluster persistence.interfaces--><polygon fill="#FFFFFF" filter="url(#fhnfac8mlrhxg)" points="890,31.91,1052,31.91,1059,54.3983,1298,54.3983,1298,143.87,890,143.87,890,31.91" style="stroke: #000000; stroke-width: 1.5;"/><line style="stroke: #000000; stroke-width: 1.5;" x1="890" x2="1059" y1="54.3983" y2="54.3983"/><text fill="#000000" font-family="sans-serif" font-size="14" font-weight="bold" lengthAdjust="spacingAndGlyphs" textLength="156" x="894" y="47.4452">persistence.interfaces</text><!--MD5=[eb872b9ce2cd26d259e932265288c3e3]
class persistence.inmemory.InMemoryShowRequestRepository--><a href="InMemoryShowRequestRepository.html" target="_top" title="InMemoryShowRequestRepository.html" xlink:actuate="onRequest" xlink:href="InMemoryShowRequestRepository.html" xlink:show="new" xlink:title="InMemoryShowRequestRepository.html" xlink:type="simple"><rect codeLine="3" fill="#FEFECE" filter="url(#fhnfac8mlrhxg)" height="60.9551" id="persistence.inmemory.InMemoryShowRequestRepository" style="stroke: #A80036; stroke-width: 1.5;" width="225" x="386.5" y="278.17"/><ellipse cx="401.5" cy="294.17" fill="#ADD1B2" rx="11" ry="11" style="stroke: #A80036; stroke-width: 1.0;"/><path d="M403.9731,300.3131 Q403.3921,300.6119 402.7529,300.7613 Q402.1138,300.9107 401.4082,300.9107 Q398.9014,300.9107 397.5815,299.2589 Q396.2617,297.607 396.2617,294.4859 Q396.2617,291.3565 397.5815,289.7047 Q398.9014,288.0528 401.4082,288.0528 Q402.1138,288.0528 402.7612,288.2022 Q403.4087,288.3516 403.9731,288.6505 L403.9731,291.3731 Q403.3423,290.7921 402.7488,290.5223 Q402.1553,290.2525 401.5244,290.2525 Q400.1797,290.2525 399.4949,291.3192 Q398.8101,292.3858 398.8101,294.4859 Q398.8101,296.5777 399.4949,297.6444 Q400.1797,298.711 401.5244,298.711 Q402.1553,298.711 402.7488,298.4412 Q403.3423,298.1715 403.9731,297.5904 Z "/><text fill="#000000" font-family="sans-serif" font-size="12" lengthAdjust="spacingAndGlyphs" textLength="193" x="415.5" y="298.7052">InMemoryShowRequestRepository</text><line style="stroke: #A80036; stroke-width: 1.5;" x1="387.5" x2="610.5" y1="310.17" y2="310.17"/><line style="stroke: #A80036; stroke-width: 1.5;" x1="387.5" x2="610.5" y1="318.17" y2="318.17"/><ellipse cx="397.5" cy="329.17" fill="#84BE84" rx="3" ry="3" style="stroke: #038048; stroke-width: 1.0;"/><text fill="#000000" font-family="sans-serif" font-size="11" lengthAdjust="spacingAndGlyphs" textLength="104" x="406.5" y="332.8048">add(Object): Object</text></a><!--MD5=[25a83bc52577e5a32264369cb4772e04]
class persistence.inmemory.InMemoryAuthenticationRepository--><a href="InMemoryAuthenticationRepository.html" target="_top" title="InMemoryAuthenticationRepository.html" xlink:actuate="onRequest" xlink:href="InMemoryAuthenticationRepository.html" xlink:show="new" xlink:title="InMemoryAuthenticationRepository.html" xlink:type="simple"><rect codeLine="7" fill="#FEFECE" filter="url(#fhnfac8mlrhxg)" height="125.7305" id="persistence.inmemory.InMemoryAuthenticationRepository" style="stroke: #A80036; stroke-width: 1.5;" width="320" x="32" y="245.78"/><ellipse cx="88.75" cy="261.78" fill="#ADD1B2" rx="11" ry="11" style="stroke: #A80036; stroke-width: 1.0;"/><path d="M91.2231,267.9231 Q90.6421,268.2219 90.0029,268.3713 Q89.3638,268.5207 88.6582,268.5207 Q86.1514,268.5207 84.8315,266.8689 Q83.5117,265.217 83.5117,262.0959 Q83.5117,258.9665 84.8315,257.3147 Q86.1514,255.6628 88.6582,255.6628 Q89.3638,255.6628 90.0112,255.8122 Q90.6587,255.9616 91.2231,256.2605 L91.2231,258.9831 Q90.5923,258.4021 89.9988,258.1323 Q89.4053,257.8625 88.7744,257.8625 Q87.4297,257.8625 86.7449,258.9292 Q86.0601,259.9958 86.0601,262.0959 Q86.0601,264.1877 86.7449,265.2544 Q87.4297,266.321 88.7744,266.321 Q89.4053,266.321 89.9988,266.0512 Q90.5923,265.7815 91.2231,265.2004 Z "/><text fill="#000000" font-family="sans-serif" font-size="12" lengthAdjust="spacingAndGlyphs" textLength="198" x="109.25" y="266.3152">InMemoryAuthenticationRepository</text><line style="stroke: #A80036; stroke-width: 1.5;" x1="33" x2="351" y1="277.78" y2="277.78"/><rect fill="none" height="6" style="stroke: #C82930; stroke-width: 1.0;" width="6" x="40" y="285.78"/><text fill="#000000" font-family="sans-serif" font-size="11" lengthAdjust="spacingAndGlyphs" textLength="183" x="52" y="292.4148">authenticationFacade: AuthFacade</text><line style="stroke: #A80036; stroke-width: 1.5;" x1="33" x2="351" y1="298.7351" y2="298.7351"/><ellipse cx="43" cy="309.7351" fill="#84BE84" rx="3" ry="3" style="stroke: #038048; stroke-width: 1.0;"/><text fill="#000000" font-family="sans-serif" font-size="11" lengthAdjust="spacingAndGlyphs" textLength="171" x="52" y="313.3698">doLogin(String, String): boolean</text><ellipse cx="43" cy="322.6902" fill="#84BE84" rx="3" ry="3" style="stroke: #038048; stroke-width: 1.0;"/><text fill="#000000" font-family="sans-serif" font-size="11" lengthAdjust="spacingAndGlyphs" textLength="89" x="52" y="326.3249">doLogout(): void</text><ellipse cx="43" cy="335.6452" fill="#84BE84" rx="3" ry="3" style="stroke: #038048; stroke-width: 1.0;"/><text fill="#000000" font-family="sans-serif" font-size="11" lengthAdjust="spacingAndGlyphs" textLength="205" x="52" y="339.28">getCurrentUserSession(): UserSession</text><ellipse cx="43" cy="348.6003" fill="#84BE84" rx="3" ry="3" style="stroke: #038048; stroke-width: 1.0;"/><text fill="#000000" font-family="sans-serif" font-size="11" lengthAdjust="spacingAndGlyphs" textLength="195" x="52" y="352.2351">addUserRole(String, String): boolean</text><ellipse cx="43" cy="361.5554" fill="#84BE84" rx="3" ry="3" style="stroke: #038048; stroke-width: 1.0;"/><text fill="#000000" font-family="sans-serif" font-size="11" lengthAdjust="spacingAndGlyphs" textLength="294" x="52" y="365.1902">addUserWithRole(String, String, String, String): boolean</text></a><!--MD5=[21bcd791f2d8f541eff6ec794f8f10a5]
class persistence.inmemory.Repositories--><a href="Repositories.html" target="_top" title="Repositories.html" xlink:actuate="onRequest" xlink:href="Repositories.html" xlink:show="new" xlink:title="Repositories.html" xlink:type="simple"><rect codeLine="16" fill="#FEFECE" filter="url(#fhnfac8mlrhxg)" height="112.7754" id="persistence.inmemory.Repositories" style="stroke: #A80036; stroke-width: 1.5;" width="347" x="230.5" y="41"/><ellipse cx="364.25" cy="57" fill="#ADD1B2" rx="11" ry="11" style="stroke: #A80036; stroke-width: 1.0;"/><path d="M366.7231,63.1431 Q366.1421,63.4419 365.5029,63.5913 Q364.8638,63.7407 364.1582,63.7407 Q361.6514,63.7407 360.3315,62.0889 Q359.0117,60.437 359.0117,57.3159 Q359.0117,54.1865 360.3315,52.5347 Q361.6514,50.8828 364.1582,50.8828 Q364.8638,50.8828 365.5112,51.0322 Q366.1587,51.1816 366.7231,51.4805 L366.7231,54.2031 Q366.0923,53.6221 365.4988,53.3523 Q364.9053,53.0825 364.2744,53.0825 Q362.9297,53.0825 362.2449,54.1492 Q361.5601,55.2158 361.5601,57.3159 Q361.5601,59.4077 362.2449,60.4744 Q362.9297,61.541 364.2744,61.541 Q364.9053,61.541 365.4988,61.2712 Q366.0923,61.0015 366.7231,60.4204 Z "/><text fill="#000000" font-family="sans-serif" font-size="12" lengthAdjust="spacingAndGlyphs" textLength="71" x="384.75" y="61.5352">Repositories</text><line style="stroke: #A80036; stroke-width: 1.5;" x1="231.5" x2="576.5" y1="73" y2="73"/><rect fill="none" height="6" style="stroke: #C82930; stroke-width: 1.0;" width="6" x="238.5" y="81"/><text fill="#000000" font-family="sans-serif" font-size="11" lengthAdjust="spacingAndGlyphs" textLength="296" x="250.5" y="87.6348">jpaAuthenticationRepository: AuthenticationRepository</text><line style="stroke: #A80036; stroke-width: 1.5;" x1="231.5" x2="576.5" y1="93.9551" y2="93.9551"/><ellipse cx="241.5" cy="104.9551" fill="#84BE84" rx="3" ry="3" style="stroke: #038048; stroke-width: 1.0;"/><text fill="#000000" font-family="sans-serif" font-size="11" lengthAdjust="spacingAndGlyphs" text-decoration="underline" textLength="143" x="250.5" y="108.5898">getInstance(): Repositories</text><ellipse cx="241.5" cy="117.9102" fill="#84BE84" rx="3" ry="3" style="stroke: #038048; stroke-width: 1.0;"/><text fill="#000000" font-family="sans-serif" font-size="11" lengthAdjust="spacingAndGlyphs" textLength="321" x="250.5" y="121.5449">getJpaAuthenticationRepository(): AuthenticationRepository</text><ellipse cx="241.5" cy="130.8652" fill="#84BE84" rx="3" ry="3" style="stroke: #038048; stroke-width: 1.0;"/><text fill="#000000" font-family="sans-serif" font-size="11" lengthAdjust="spacingAndGlyphs" textLength="289" x="250.5" y="134.5">getShowRequestRepository(): ShowRequestRepository</text><ellipse cx="241.5" cy="143.8203" fill="#84BE84" rx="3" ry="3" style="stroke: #038048; stroke-width: 1.0;"/><text fill="#000000" font-family="sans-serif" font-size="11" lengthAdjust="spacingAndGlyphs" textLength="253" x="250.5" y="147.4551">getCostumerRepository(): CostumerRepository</text></a><!--MD5=[38679c60165f1d015ed189dda14ed926]
class persistence.inmemory.InMemoryCustomerRepository--><a href="InMemoryCustomerRepository.html" target="_top" title="InMemoryCustomerRepository.html" xlink:actuate="onRequest" xlink:href="InMemoryCustomerRepository.html" xlink:show="new" xlink:title="InMemoryCustomerRepository.html" xlink:type="simple"><rect codeLine="24" fill="#FEFECE" filter="url(#fhnfac8mlrhxg)" height="60.9551" id="persistence.inmemory.InMemoryCustomerRepository" style="stroke: #A80036; stroke-width: 1.5;" width="204" x="646" y="278.17"/><ellipse cx="661" cy="294.17" fill="#ADD1B2" rx="11" ry="11" style="stroke: #A80036; stroke-width: 1.0;"/><path d="M663.4731,300.3131 Q662.8921,300.6119 662.2529,300.7613 Q661.6138,300.9107 660.9082,300.9107 Q658.4014,300.9107 657.0815,299.2589 Q655.7617,297.607 655.7617,294.4859 Q655.7617,291.3565 657.0815,289.7047 Q658.4014,288.0528 660.9082,288.0528 Q661.6138,288.0528 662.2612,288.2022 Q662.9087,288.3516 663.4731,288.6505 L663.4731,291.3731 Q662.8423,290.7921 662.2488,290.5223 Q661.6553,290.2525 661.0244,290.2525 Q659.6797,290.2525 658.9949,291.3192 Q658.3101,292.3858 658.3101,294.4859 Q658.3101,296.5777 658.9949,297.6444 Q659.6797,298.711 661.0244,298.711 Q661.6553,298.711 662.2488,298.4412 Q662.8423,298.1715 663.4731,297.5904 Z "/><text fill="#000000" font-family="sans-serif" font-size="12" lengthAdjust="spacingAndGlyphs" textLength="172" x="675" y="298.7052">InMemoryCustomerRepository</text><line style="stroke: #A80036; stroke-width: 1.5;" x1="647" x2="849" y1="310.17" y2="310.17"/><line style="stroke: #A80036; stroke-width: 1.5;" x1="647" x2="849" y1="318.17" y2="318.17"/><ellipse cx="657" cy="329.17" fill="#84BE84" rx="3" ry="3" style="stroke: #038048; stroke-width: 1.0;"/><text fill="#000000" font-family="sans-serif" font-size="11" lengthAdjust="spacingAndGlyphs" textLength="104" x="666" y="332.8048">add(Object): Object</text></a><!--MD5=[abdfb4f157874ee149227debb82cee43]
class persistence.interfaces.ShowRequestRepository--><a href="../interfaces/ShowRequestRepository.html" target="_top" title="../interfaces/ShowRequestRepository.html" xlink:actuate="onRequest" xlink:href="../interfaces/ShowRequestRepository.html" xlink:show="new" xlink:title="../interfaces/ShowRequestRepository.html" xlink:type="simple"><rect codeLine="37" fill="#FEFECE" filter="url(#fhnfac8mlrhxg)" height="60.9551" id="persistence.interfaces.ShowRequestRepository" style="stroke: #A80036; stroke-width: 1.5;" width="181" x="906.5" y="66.91"/><ellipse cx="921.5" cy="82.91" fill="#B4A7E5" rx="11" ry="11" style="stroke: #A80036; stroke-width: 1.0;"/><path d="M917.9277,79.1751 L917.9277,77.0169 L925.3071,77.0169 L925.3071,79.1751 L922.8418,79.1751 L922.8418,87.2518 L925.3071,87.2518 L925.3071,89.41 L917.9277,89.41 L917.9277,87.2518 L920.3931,87.2518 L920.3931,79.1751 Z "/><text fill="#000000" font-family="sans-serif" font-size="12" font-style="italic" lengthAdjust="spacingAndGlyphs" textLength="137" x="935.5" y="87.4452">ShowRequestRepository</text><rect fill="#FFFFFF" height="16.1328" style="stroke: #000000; stroke-width: 1.0; stroke-dasharray: 2.0,2.0;" width="10" x="1080.5" y="63.91"/><text fill="#000000" font-family="sans-serif" font-size="12" font-style="italic" lengthAdjust="spacingAndGlyphs" textLength="8" x="1081.5" y="76.5116">T</text><line style="stroke: #A80036; stroke-width: 1.5;" x1="907.5" x2="1086.5" y1="98.91" y2="98.91"/><line style="stroke: #A80036; stroke-width: 1.5;" x1="907.5" x2="1086.5" y1="106.91" y2="106.91"/><ellipse cx="917.5" cy="117.91" fill="#84BE84" rx="3" ry="3" style="stroke: #038048; stroke-width: 1.0;"/><text fill="#000000" font-family="sans-serif" font-size="11" font-style="italic" lengthAdjust="spacingAndGlyphs" textLength="48" x="926.5" y="121.5448">add(T): T</text></a><!--MD5=[b23d6c304d5c6d82ca819f3e54e22ec7]
class persistence.interfaces.CostumerRepository--><a href="../interfaces/CostumerRepository.html" target="_top" title="../interfaces/CostumerRepository.html" xlink:actuate="onRequest" xlink:href="../interfaces/CostumerRepository.html" xlink:show="new" xlink:title="../interfaces/CostumerRepository.html" xlink:type="simple"><rect codeLine="40" fill="#FEFECE" filter="url(#fhnfac8mlrhxg)" height="60.9551" id="persistence.interfaces.CostumerRepository" style="stroke: #A80036; stroke-width: 1.5;" width="160" x="1122" y="66.91"/><ellipse cx="1137" cy="82.91" fill="#B4A7E5" rx="11" ry="11" style="stroke: #A80036; stroke-width: 1.0;"/><path d="M1133.4277,79.1751 L1133.4277,77.0169 L1140.8071,77.0169 L1140.8071,79.1751 L1138.3418,79.1751 L1138.3418,87.2518 L1140.8071,87.2518 L1140.8071,89.41 L1133.4277,89.41 L1133.4277,87.2518 L1135.8931,87.2518 L1135.8931,79.1751 Z "/><text fill="#000000" font-family="sans-serif" font-size="12" font-style="italic" lengthAdjust="spacingAndGlyphs" textLength="116" x="1151" y="87.4452">CostumerRepository</text><rect fill="#FFFFFF" height="16.1328" style="stroke: #000000; stroke-width: 1.0; stroke-dasharray: 2.0,2.0;" width="10" x="1275" y="63.91"/><text fill="#000000" font-family="sans-serif" font-size="12" font-style="italic" lengthAdjust="spacingAndGlyphs" textLength="8" x="1276" y="76.5116">T</text><line style="stroke: #A80036; stroke-width: 1.5;" x1="1123" x2="1281" y1="98.91" y2="98.91"/><line style="stroke: #A80036; stroke-width: 1.5;" x1="1123" x2="1281" y1="106.91" y2="106.91"/><ellipse cx="1133" cy="117.91" fill="#84BE84" rx="3" ry="3" style="stroke: #038048; stroke-width: 1.0;"/><text fill="#000000" font-family="sans-serif" font-size="11" font-style="italic" lengthAdjust="spacingAndGlyphs" textLength="48" x="1142" y="121.5448">add(T): T</text></a><!--MD5=[4bdf0288ab6e3f44a0e45300b39ce872]
reverse link persistence.interfaces.ShowRequestRepository to persistence.inmemory.InMemoryShowRequestRepository--><path codeLine="28" d="M956.68,143.4 C931.05,168.98 895.69,199.14 858,215.78 C764.1,257.24 727.44,216.7 629,245.78 C602.75,253.53 575.17,265.97 552.21,277.67 " fill="none" id="persistence.interfaces.ShowRequestRepository-backto-persistence.inmemory.InMemoryShowRequestRepository" style="stroke: #A80036; stroke-width: 1.0; stroke-dasharray: 7.0,7.0;"/><polygon fill="none" points="951.34,138.86,970.26,129.32,961.42,148.58,951.34,138.86" style="stroke: #A80036; stroke-width: 1.0;"/><!--MD5=[5cb2d5e1abcc491e6f42d3457ff3e044]
link persistence.inmemory.Repositories to persistence.inmemory.Repositories--><path codeLine="29" d="M577.75,80.84 C598.76,83.82 612.5,89.34 612.5,97.39 C612.5,104.62 601.41,109.81 583.92,112.96 " fill="none" id="persistence.inmemory.Repositories-to-persistence.inmemory.Repositories" style="stroke: #A80036; stroke-width: 1.0;"/><polygon fill="#A80036" points="579.24,113.71,588.7646,116.2163,584.1754,112.9089,587.4828,108.3197,579.24,113.71" style="stroke: #A80036; stroke-width: 1.0;"/><text fill="#000000" font-family="sans-serif" font-size="13" lengthAdjust="spacingAndGlyphs" textLength="53" x="618.5" y="102.4584">instance</text><!--MD5=[39e0ab2e9e72322e7f46cad631f0ba77]
link persistence.inmemory.Repositories to persistence.inmemory.InMemoryShowRequestRepository--><path codeLine="30" d="M393.07,154.01 C391.53,174.19 392.73,196.7 401,215.78 C410.96,238.76 429.81,258.63 448.34,273.95 " fill="none" id="persistence.inmemory.Repositories-to-persistence.inmemory.InMemoryShowRequestRepository" style="stroke: #A80036; stroke-width: 1.0;"/><polygon fill="#A80036" points="451.86,276.79,447.3779,268.0201,447.9724,273.6457,442.3469,274.2402,451.86,276.79" style="stroke: #A80036; stroke-width: 1.0;"/><text fill="#000000" font-family="sans-serif" font-size="13" lengthAdjust="spacingAndGlyphs" textLength="212" x="402" y="204.8484">inMemoryShowRequestRepository</text><!--MD5=[ef607dcfdf20d238374500627bee5c1b]
link persistence.inmemory.Repositories to persistence.inmemory.InMemoryCustomerRepository--><path codeLine="31" d="M564.79,154.18 C583.62,163.04 602.11,172.92 619,183.78 C657.51,208.55 694.46,245.88 718.87,273.09 " fill="none" id="persistence.inmemory.Repositories-to-persistence.inmemory.InMemoryCustomerRepository" style="stroke: #A80036; stroke-width: 1.0;"/><polygon fill="#A80036" points="721.97,276.57,718.9603,267.1923,718.6402,272.8401,712.9924,272.5199,721.97,276.57" style="stroke: #A80036; stroke-width: 1.0;"/><text fill="#000000" font-family="sans-serif" font-size="13" lengthAdjust="spacingAndGlyphs" textLength="190" x="659.09" y="204.8484">inMemoryCustomerRepository</text><!--MD5=[84e90238a4331c42c060f753df14f331]
link persistence.inmemory.Repositories to persistence.inmemory.InMemoryAuthenticationRepository--><path codeLine="32" d="M230.24,129.46 C203.03,141.97 178.26,159.43 161,183.78 C149.44,200.09 149.87,220.28 155.28,239.59 " fill="none" id="persistence.inmemory.Repositories-to-persistence.inmemory.InMemoryAuthenticationRepository" style="stroke: #A80036; stroke-width: 1.0;"/><polygon fill="#A80036" points="156.67,244.1,157.8669,234.3241,155.2096,239.318,150.2158,236.6607,156.67,244.1" style="stroke: #A80036; stroke-width: 1.0;"/><text fill="#000000" font-family="sans-serif" font-size="13" lengthAdjust="spacingAndGlyphs" textLength="222" x="162" y="197.3484">inMemoryAuthenticationRepository</text><text fill="#000000" font-family="sans-serif" font-size="13" lengthAdjust="spacingAndGlyphs" textLength="158" x="194" y="212.6589">authenticationRepository</text><!--MD5=[bb5e037493e234c83a6980b0f97963b3]
reverse link persistence.interfaces.CostumerRepository to persistence.inmemory.InMemoryCustomerRepository--><path codeLine="33" d="M1133.54,138.74 C1124.05,143.97 1114.34,149.12 1105,153.78 C1010.04,201.17 897.04,248.4 823.99,277.78 " fill="none" id="persistence.interfaces.CostumerRepository-backto-persistence.inmemory.InMemoryCustomerRepository" style="stroke: #A80036; stroke-width: 1.0; stroke-dasharray: 7.0,7.0;"/><polygon fill="none" points="1129.8,132.81,1150.67,129.11,1136.66,145.01,1129.8,132.81" style="stroke: #A80036; stroke-width: 1.0;"/><text fill="#888888" font-family="sans-serif" font-size="10" lengthAdjust="spacingAndGlyphs" textLength="188" x="557" y="403.178">UMLDoclet 2.0.12, PlantUML 1.2020.16</text><!--MD5=[78e5986c4f4a612cd8897b20c806d6f4]
@startuml
    namespace persistence.inmemory {

        class InMemoryShowRequestRepository [[InMemoryShowRequestRepository.html]] {
            +add(Object): Object
        }

        class InMemoryAuthenticationRepository [[InMemoryAuthenticationRepository.html]] {
            -authenticationFacade: AuthFacade
            +doLogin(String, String): boolean
            +doLogout(): void
            +getCurrentUserSession(): UserSession
            +addUserRole(String, String): boolean
            +addUserWithRole(String, String, String, String): boolean
        }

        class Repositories [[Repositories.html]] {
            -jpaAuthenticationRepository: AuthenticationRepository
            {static} +getInstance(): Repositories
            +getJpaAuthenticationRepository(): AuthenticationRepository
            +getShowRequestRepository(): ShowRequestRepository
            +getCostumerRepository(): CostumerRepository
        }

        class InMemoryCustomerRepository [[InMemoryCustomerRepository.html]] {
            +add(Object): Object
        }

        persistence.interfaces.ShowRequestRepository <|.. InMemoryShowRequestRepository
        Repositories - -> Repositories: instance
        Repositories - -> InMemoryShowRequestRepository: inMemoryShowRequestRepository
        Repositories - -> InMemoryCustomerRepository: inMemoryCustomerRepository
        Repositories - -> InMemoryAuthenticationRepository: inMemoryAuthenticationRepository\nauthenticationRepository
        persistence.interfaces.CostumerRepository <|.. InMemoryCustomerRepository
    }

    namespace persistence.interfaces {
        interface ShowRequestRepository<T> [[../interfaces/ShowRequestRepository.html]] {
            {abstract} +add(T): T
        }
        interface CostumerRepository<T> [[../interfaces/CostumerRepository.html]] {
            {abstract} +add(T): T
        }
    }

    center footer UMLDoclet 2.0.12, PlantUML 1.2020.16
@enduml

PlantUML version 1.2020.16(Sun Aug 23 21:20:43 WEST 2020)
(APACHE source distribution)
Java Runtime: OpenJDK Runtime Environment
JVM: OpenJDK 64-Bit Server VM
Default Encoding: UTF-8
Language: pt
Country: PT
--></g></svg>