<?xml version="1.0" encoding="UTF-8" standalone="no"?><svg xmlns="http://www.w3.org/2000/svg" xmlns:xlink="http://www.w3.org/1999/xlink" contentScriptType="application/ecmascript" contentStyleType="text/css" height="186px" preserveAspectRatio="none" style="width:435px;height:186px;" version="1.1" viewBox="0 0 435 186" width="435px" zoomAndPan="magnify"><defs><filter height="300%" id="f1t1sjjxsysk7o" width="300%" x="-1" y="-1"><feGaussianBlur result="blurOut" stdDeviation="2.0"/><feColorMatrix in="blurOut" result="blurOut2" type="matrix" values="0 0 0 0 0 0 0 0 0 0 0 0 0 0 0 0 0 0 .4 0"/><feOffset dx="4.0" dy="4.0" in="blurOut2" result="blurOut3"/><feBlend in="SourceGraphic" in2="blurOut3" mode="normal"/></filter></defs><g><!--MD5=[21bcd791f2d8f541eff6ec794f8f10a5]
class persistence.inmemory.Repositories--><a href="Repositories.html" target="_top" title="Repositories.html" xlink:actuate="onRequest" xlink:href="Repositories.html" xlink:show="new" xlink:title="Repositories.html" xlink:type="simple"><rect codeLine="5" fill="#FEFECE" filter="url(#f1t1sjjxsysk7o)" height="148.5792" id="persistence.inmemory.Repositories" style="stroke: #A80036; stroke-width: 1.5;" width="409" x="7" y="7"/><ellipse cx="153.75" cy="28.344" fill="#ADD1B2" rx="11" ry="11" style="stroke: #A80036; stroke-width: 1.0;"/><path d="M156.7188,33.9846 Q156.1406,34.2815 155.5,34.4221 Q154.8594,34.5783 154.1563,34.5783 Q151.6563,34.5783 150.3281,32.9377 Q149.0156,31.2815 149.0156,28.1565 Q149.0156,25.0315 150.3281,23.3752 Q151.6563,21.719 154.1563,21.719 Q154.8594,21.719 155.5,21.8752 Q156.1563,22.0315 156.7188,22.3283 L156.7188,25.0471 Q156.0938,24.469 155.5,24.2033 Q154.9063,23.9221 154.2813,23.9221 Q152.9375,23.9221 152.25,25.0002 Q151.5625,26.0627 151.5625,28.1565 Q151.5625,30.2502 152.25,31.3283 Q152.9375,32.3908 154.2813,32.3908 Q154.9063,32.3908 155.5,32.1252 Q156.0938,31.844 156.7188,31.2658 L156.7188,33.9846 Z "/><text fill="#000000" font-family="sans-serif" font-size="14" lengthAdjust="spacingAndGlyphs" textLength="83" x="186.25" y="26.9659">Repositories</text><text fill="#000000" font-family="sans-serif" font-size="10" lengthAdjust="spacingAndGlyphs" textLength="107" x="174.25" y="41.7579">persistence.inmemory</text><line style="stroke: #A80036; stroke-width: 1.5;" x1="8" x2="415" y1="49.6879" y2="49.6879"/><rect fill="none" height="6" style="stroke: #C82930; stroke-width: 1.0;" width="6" x="15" y="57.6879"/><text fill="#000000" font-family="sans-serif" font-size="11" lengthAdjust="spacingAndGlyphs" text-decoration="underline" textLength="114" x="27" y="65.4468">instance: Repositories</text><rect fill="none" height="6" style="stroke: #C82930; stroke-width: 1.0;" width="6" x="15" y="72.6698"/><text fill="#000000" font-family="sans-serif" font-size="11" lengthAdjust="spacingAndGlyphs" textLength="383" x="27" y="80.4287">inMemoryAuthenticationRepository: InMemoryAuthenticationRepository</text><rect fill="none" height="6" style="stroke: #C82930; stroke-width: 1.0;" width="6" x="15" y="87.6517"/><text fill="#000000" font-family="sans-serif" font-size="11" lengthAdjust="spacingAndGlyphs" textLength="290" x="27" y="95.4106">jpaAuthenticationRepository: AuthenticationRepository</text><line style="stroke: #A80036; stroke-width: 1.5;" x1="8" x2="415" y1="102.6336" y2="102.6336"/><ellipse cx="18" cy="113.6336" fill="#84BE84" rx="3" ry="3" style="stroke: #038048; stroke-width: 1.0;"/><text fill="#000000" font-family="sans-serif" font-size="11" lengthAdjust="spacingAndGlyphs" text-decoration="underline" textLength="138" x="27" y="118.3925">getInstance(): Repositories</text><ellipse cx="18" cy="128.6155" fill="#84BE84" rx="3" ry="3" style="stroke: #038048; stroke-width: 1.0;"/><text fill="#000000" font-family="sans-serif" font-size="11" lengthAdjust="spacingAndGlyphs" textLength="352" x="27" y="133.3744">getAuthenticationRepository(): InMemoryAuthenticationRepository</text><ellipse cx="18" cy="143.5973" fill="#84BE84" rx="3" ry="3" style="stroke: #038048; stroke-width: 1.0;"/><text fill="#000000" font-family="sans-serif" font-size="11" lengthAdjust="spacingAndGlyphs" textLength="313" x="27" y="148.3563">getJpaAuthenticationRepository(): AuthenticationRepository</text></a><text fill="#888888" font-family="sans-serif" font-size="10" lengthAdjust="spacingAndGlyphs" textLength="188" x="117.5" y="173.2692">UMLDoclet 2.0.12, PlantUML 1.2020.16</text><!--MD5=[e019bbb4bc9cc005ce750e70ebd1ba82]
@startuml
    set namespaceSeparator none
    hide empty fields
    hide empty methods

    class "<size:14>Repositories\n<size:10>persistence.inmemory" as persistence.inmemory.Repositories [[Repositories.html]] {
        {static} -instance: Repositories
        -inMemoryAuthenticationRepository: InMemoryAuthenticationRepository
        -jpaAuthenticationRepository: AuthenticationRepository
        {static} +getInstance(): Repositories
        +getAuthenticationRepository(): InMemoryAuthenticationRepository
        +getJpaAuthenticationRepository(): AuthenticationRepository
    }

    center footer UMLDoclet 2.0.12, PlantUML 1.2020.16
@enduml

PlantUML version 1.2020.16(Sun Aug 23 21:20:43 WEST 2020)
(APACHE source distribution)
Java Runtime: Java(TM) SE Runtime Environment
JVM: Java HotSpot(TM) 64-Bit Server VM
Default Encoding: UTF-8
Language: en
Country: US
--></g></svg>