<svg xmlns="http://www.w3.org/2000/svg" xmlns:xlink="http://www.w3.org/1999/xlink" contentStyleType="text/css" height="484px" preserveAspectRatio="none" style="width:467px;height:484px;background:#FFFFFF;" version="1.1" viewBox="0 0 467 484" width="467px" zoomAndPan="magnify"><title>Authenticate User - Domain Model (US210)</title><defs/><g><text fill="#000000" font-family="sans-serif" font-size="14" font-weight="bold" lengthAdjust="spacing" textLength="283.9375" x="84.5313" y="25.1074">Authenticate User - Domain Model (US210)</text><!--cluster Authentication Subsystem--><g id="cluster_Authentication Subsystem"><rect fill="none" height="432" rx="2.5" ry="2.5" style="stroke:#000000;stroke-width:1.5;" width="454" x="7" y="46.6211"/><text fill="#000000" font-family="sans-serif" font-size="14" font-weight="bold" lengthAdjust="spacing" textLength="176.5791" x="145.7104" y="63.7285">Authentication Subsystem</text></g><!--class User--><g id="elem_User"><rect codeLine="13" fill="#F1F1F1" height="92.4844" id="User" rx="2.5" ry="2.5" style="stroke:#181818;stroke-width:0.5;" width="141.165" x="156.5" y="217.6211"/><text fill="#000000" font-family="sans-serif" font-size="14" lengthAdjust="spacing" textLength="29.5586" x="212.3032" y="237.7285">User</text><line style="stroke:#181818;stroke-width:0.5;" x1="157.5" x2="296.665" y1="246.2422" y2="246.2422"/><text fill="#000000" font-family="sans-serif" font-size="14" lengthAdjust="spacing" textLength="53.6826" x="162.5" y="265.3496">Email: id</text><text fill="#000000" font-family="sans-serif" font-size="14" lengthAdjust="spacing" textLength="129.165" x="162.5" y="283.9707">Password: password</text><text fill="#000000" font-family="sans-serif" font-size="14" lengthAdjust="spacing" textLength="79.3721" x="162.5" y="302.5918">String: name</text></g><!--class UserRole--><g id="elem_UserRole"><rect codeLine="19" fill="#F1F1F1" height="73.8633" id="UserRole" rx="2.5" ry="2.5" style="stroke:#181818;stroke-width:0.5;" width="124.0547" x="23" y="388.6211"/><text fill="#000000" font-family="sans-serif" font-size="14" lengthAdjust="spacing" textLength="58.3516" x="55.8516" y="408.7285">UserRole</text><line style="stroke:#181818;stroke-width:0.5;" x1="24" x2="146.0547" y1="417.2422" y2="417.2422"/><text fill="#000000" font-family="sans-serif" font-size="14" lengthAdjust="spacing" textLength="55.248" x="29" y="436.3496">String: id</text><text fill="#000000" font-family="sans-serif" font-size="14" lengthAdjust="spacing" textLength="112.0547" x="29" y="454.9707">String: description</text></g><!--class UserSession--><g id="elem_UserSession"><rect codeLine="24" fill="#F1F1F1" height="55.2422" id="UserSession" rx="2.5" ry="2.5" style="stroke:#181818;stroke-width:0.5;" width="85.3652" x="184.5" y="83.6211"/><text fill="#000000" font-family="sans-serif" font-size="14" lengthAdjust="spacing" textLength="79.3652" x="187.5" y="103.7285">UserSession</text><line style="stroke:#181818;stroke-width:0.5;" x1="185.5" x2="268.8652" y1="112.2422" y2="112.2422"/><text fill="#000000" font-family="sans-serif" font-size="14" lengthAdjust="spacing" textLength="64.5723" x="190.5" y="131.3496">User: user</text></g><!--class Email--><g id="elem_Email"><rect codeLine="28" fill="#F1F1F1" height="55.2422" id="Email" rx="2.5" ry="2.5" style="stroke:#181818;stroke-width:0.5;" width="89.8203" x="182" y="398.1211"/><text fill="#000000" font-family="sans-serif" font-size="14" lengthAdjust="spacing" textLength="35.0068" x="209.4067" y="418.2285">Email</text><line style="stroke:#181818;stroke-width:0.5;" x1="183" x2="270.8203" y1="426.7422" y2="426.7422"/><text fill="#000000" font-family="sans-serif" font-size="14" lengthAdjust="spacing" textLength="77.8203" x="188" y="445.8496">String: value</text></g><!--class Password--><g id="elem_Password"><rect codeLine="32" fill="#F1F1F1" height="55.2422" id="Password" rx="2.5" ry="2.5" style="stroke:#181818;stroke-width:0.5;" width="138.0889" x="307" y="398.1211"/><text fill="#000000" font-family="sans-serif" font-size="14" lengthAdjust="spacing" textLength="61.4688" x="345.3101" y="418.2285">Password</text><line style="stroke:#181818;stroke-width:0.5;" x1="308" x2="444.0889" y1="426.7422" y2="426.7422"/><text fill="#000000" font-family="sans-serif" font-size="14" lengthAdjust="spacing" textLength="126.0889" x="313" y="445.8496">String: hashedValue</text></g><!--link User to UserRole--><g id="link_User_UserRole"><path codeLine="36" d="M186.69,310.0411 C164.63,334.8911 141.662,360.7729 121.052,384.0029 " fill="none" id="User-to-UserRole" style="stroke:#181818;stroke-width:1.0;"/><polygon fill="#181818" points="117.07,388.4911,126.0351,384.4135,120.3883,384.7509,120.0509,379.1042,117.07,388.4911" style="stroke:#181818;stroke-width:1.0;"/><polygon fill="#000000" points="161.6812,353.0063,169.8831,348.1919,165.4868,344.2904,161.6812,353.0063" style="stroke:#000000;stroke-width:1.0;"/><text fill="#000000" font-family="sans-serif" font-size="13" lengthAdjust="spacing" textLength="20.96" x="174" y="354.6494">has</text><text fill="#000000" font-family="sans-serif" font-size="13" lengthAdjust="spacing" textLength="7.23" x="173.2602" y="332.1216">1</text><text fill="#000000" font-family="sans-serif" font-size="13" lengthAdjust="spacing" textLength="19.5127" x="102.1311" y="377.4297">1..*</text></g><!--link UserSession to User--><g id="link_UserSession_User"><path codeLine="37" d="M227,138.6811 C227,160.4511 227,185.7511 227,211.4511 " fill="none" id="UserSession-to-User" style="stroke:#181818;stroke-width:1.0;"/><polygon fill="#181818" points="227,217.4511,231,208.4511,227,212.4511,223,208.4511,227,217.4511" style="stroke:#181818;stroke-width:1.0;"/><polygon fill="#000000" points="232,183.2666,234.9389,174.2215,229.0611,174.2215,232,183.2666" style="stroke:#000000;stroke-width:1.0;"/><text fill="#000000" font-family="sans-serif" font-size="13" lengthAdjust="spacing" textLength="33.23" x="241" y="183.6494">refers</text><text fill="#000000" font-family="sans-serif" font-size="13" lengthAdjust="spacing" textLength="7.23" x="219.175" y="161.0539">1</text><text fill="#000000" font-family="sans-serif" font-size="13" lengthAdjust="spacing" textLength="7.23" x="219.4907" y="206.4356">1</text></g><!--link User to Email--><g id="link_User_Email"><path codeLine="38" d="M227,310.0411 C227,338.5011 227,368.1811 227,392.1011 " fill="none" id="User-to-Email" style="stroke:#181818;stroke-width:1.0;"/><polygon fill="#181818" points="227,398.1011,231,389.1011,227,393.1011,223,389.1011,227,398.1011" style="stroke:#181818;stroke-width:1.0;"/><text fill="#000000" font-family="sans-serif" font-size="13" lengthAdjust="spacing" textLength="7.23" x="219.238" y="386.8054">1</text></g><!--link User to Password--><g id="link_User_Password"><path codeLine="39" d="M269.3,310.0411 C295.8,338.5011 324.9415,369.7897 347.2115,393.7097 " fill="none" id="User-to-Password" style="stroke:#181818;stroke-width:1.0;"/><polygon fill="#181818" points="351.3,398.1011,348.0949,388.7883,347.8929,394.4416,342.2397,394.2397,351.3,398.1011" style="stroke:#181818;stroke-width:1.0;"/><text fill="#000000" font-family="sans-serif" font-size="13" lengthAdjust="spacing" textLength="7.23" x="337.7951" y="386.8054">1</text></g><!--SRC=[RL3BQiCm4BphAnQVsa92qwCFWK9xB9IQzBwLDf687aOhDmIJVwzirqw8lGSzHZEpE-AZyJL6TE223rB7u0XIR4Zmz5AZFEA1gdIs195aGd-mjmJMgCB9-0FiqJ89aKpArDScQVB9I4m4EwO8AtWB3es7Zw38miEkUjayFmgXZIAG9afBF5mS9HqK2_7V78eRDnCyLCqFdpcHAw0L0d99Yyn3dxO7kdhFxMm9Hat8PsQTGbHbpZMSfgSgnHoY18-EUl1ox_mLSgvs9Z1p3qKiewcxMPUjAcBkWbpTEhI49gzpHPzZeVClscPXrZ7aWa8ZQrBVzxh-tufD0QlLDk_hzLDnJTohO3iHnzcl_86SYP7s56-v4w6FC8V7KSL5_040]--></g></svg>