<svg xmlns="http://www.w3.org/2000/svg" xmlns:xlink="http://www.w3.org/1999/xlink" contentStyleType="text/css" height="1730px" preserveAspectRatio="none" style="width:2319px;height:1730px;background:#FFFFFF;" version="1.1" viewBox="0 0 2319 1730" width="2319px" zoomAndPan="magnify"><title>UI Sequence Diagram (SD) - Remove Drone from Inventory</title><defs/><g><text fill="#000000" font-family="sans-serif" font-size="14" font-weight="bold" lengthAdjust="spacing" textLength="389.751" x="963.7319" y="30.1074">UI Sequence Diagram (SD) - Remove Drone from Inventory</text><rect fill="#FFFFFF" height="343.1914" style="stroke:#181818;stroke-width:1.0;" width="10" x="74.5723" y="133.2422"/><rect fill="#FFFFFF" height="319.9004" style="stroke:#181818;stroke-width:1.0;" width="10" x="808.73" y="156.5332"/><rect fill="#FFFFFF" height="187.4063" style="stroke:#181818;stroke-width:1.0;" width="10" x="1039.897" y="231.4453"/><rect fill="#FFFFFF" height="93.873" style="stroke:#181818;stroke-width:1.0;" width="10" x="1039.897" y="690.8398"/><rect fill="#FFFFFF" height="33.6211" style="stroke:#181818;stroke-width:1.0;" width="10" x="1172.8276" y="582.3066"/><rect fill="#FFFFFF" height="33.6211" style="stroke:#181818;stroke-width:1.0;" width="10" x="1297.9858" y="1078.332"/><rect fill="#FFFFFF" height="299.9102" style="stroke:#181818;stroke-width:1.0;" width="10" x="1486.5645" y="1186.8652"/><rect fill="#FFFFFF" height="52.2422" style="stroke:#181818;stroke-width:1.0;" width="10" x="1739.1406" y="272.7363"/><rect fill="#FFFFFF" height="52.2422" style="stroke:#181818;stroke-width:1.0;" width="10" x="1739.1406" y="1228.1563"/><rect fill="#FFFFFF" height="31.291" style="stroke:#181818;stroke-width:1.0;" width="10" x="1879.0781" y="356.2695"/><rect fill="#FFFFFF" height="31.291" style="stroke:#181818;stroke-width:1.0;" width="10" x="1879.0781" y="722.1309"/><rect fill="#FFFFFF" height="31.291" style="stroke:#181818;stroke-width:1.0;" width="10" x="2041.188" y="1337.9805"/><rect fill="#FFFFFF" height="31.291" style="stroke:#181818;stroke-width:1.0;" width="10" x="2193.9565" y="1417.1934"/><rect fill="none" height="1196.4277" style="stroke:#000000;stroke-width:1.5;" width="2291.084" x="10" y="433.8516"/><rect fill="none" height="711.0625" style="stroke:#000000;stroke-width:1.5;" width="2271.084" x="20" y="799.7129"/><rect fill="none" height="600.1895" style="stroke:#000000;stroke-width:1.5;" width="2251.084" x="30" y="903.5859"/><rect fill="none" height="471.0254" style="stroke:#000000;stroke-width:1.5;" width="1557.2227" x="713.8613" y="1025.75"/><rect fill="none" height="161.0859" style="stroke:#000000;stroke-width:1.5;" width="892.7329" x="1368.3511" y="1295.3984"/><rect fill="none" height="98.5039" style="stroke:#000000;stroke-width:1.5;" width="883.5986" x="30" y="1524.7754"/><line style="stroke:#181818;stroke-width:0.5;stroke-dasharray:5.0,5.0;" x1="79" x2="79" y1="123.2422" y2="1647.2793"/><line style="stroke:#181818;stroke-width:0.5;stroke-dasharray:5.0,5.0;" x1="812.8613" x2="812.8613" y1="123.2422" y2="1647.2793"/><line style="stroke:#181818;stroke-width:0.5;stroke-dasharray:5.0,5.0;" x1="1044.7593" x2="1044.7593" y1="655.7383" y2="1647.2793"/><line style="stroke:#181818;stroke-width:0.5;stroke-dasharray:5.0,5.0;" x1="1177.0347" x2="1177.0347" y1="580.8262" y2="1647.2793"/><line style="stroke:#181818;stroke-width:0.5;stroke-dasharray:5.0,5.0;" x1="1302.6206" x2="1302.6206" y1="1076.8516" y2="1647.2793"/><line style="stroke:#181818;stroke-width:0.5;stroke-dasharray:5.0,5.0;" x1="1491.3511" x2="1491.3511" y1="1151.7637" y2="1647.2793"/><line style="stroke:#181818;stroke-width:0.5;stroke-dasharray:5.0,5.0;" x1="1743.6719" x2="1743.6719" y1="1235.9863" y2="1647.2793"/><line style="stroke:#181818;stroke-width:0.5;stroke-dasharray:5.0,5.0;" x1="1883.6094" x2="1883.6094" y1="123.2422" y2="1647.2793"/><line style="stroke:#181818;stroke-width:0.5;stroke-dasharray:5.0,5.0;" x1="2045.5469" x2="2045.5469" y1="123.2422" y2="1647.2793"/><line style="stroke:#181818;stroke-width:0.5;stroke-dasharray:5.0,5.0;" x1="2198.8291" x2="2198.8291" y1="123.2422" y2="1647.2793"/><line style="stroke:#181818;stroke-width:0.5;stroke-dasharray:5.0,5.0;" x1="2287.084" x2="2287.084" y1="123.2422" y2="1647.2793"/><text fill="#000000" font-family="sans-serif" font-size="14" lengthAdjust="spacing" textLength="73.1445" x="40" y="119.7285">Drone Tech</text><ellipse cx="79.5723" cy="53.1211" fill="#E3E3E3" rx="8" ry="8" style="stroke:#181818;stroke-width:0.5;"/><path d="M79.5723,61.1211 L79.5723,88.1211 M66.5723,69.1211 L92.5723,69.1211 M79.5723,88.1211 L66.5723,103.1211 M79.5723,88.1211 L92.5723,103.1211 " fill="none" style="stroke:#181818;stroke-width:0.5;"/><text fill="#000000" font-family="sans-serif" font-size="14" lengthAdjust="spacing" textLength="73.1445" x="40" y="1661.3867">Drone Tech</text><ellipse cx="79.5723" cy="1673.4004" fill="#E3E3E3" rx="8" ry="8" style="stroke:#181818;stroke-width:0.5;"/><path d="M79.5723,1681.4004 L79.5723,1708.4004 M66.5723,1689.4004 L92.5723,1689.4004 M79.5723,1708.4004 L66.5723,1723.4004 M79.5723,1708.4004 L92.5723,1723.4004 " fill="none" style="stroke:#181818;stroke-width:0.5;"/><rect fill="#E3E3E3" height="32.6211" rx="2.5" ry="2.5" style="stroke:#181818;stroke-width:0.5;" width="179.7373" x="723.8613" y="89.6211"/><text fill="#000000" font-family="sans-serif" font-size="14" lengthAdjust="spacing" textLength="165.7373" x="730.8613" y="111.7285">:RemoveDroneInventoryUI</text><rect fill="#E3E3E3" height="32.6211" rx="2.5" ry="2.5" style="stroke:#181818;stroke-width:0.5;" width="179.7373" x="723.8613" y="1646.2793"/><text fill="#000000" font-family="sans-serif" font-size="14" lengthAdjust="spacing" textLength="165.7373" x="730.8613" y="1668.3867">:RemoveDroneInventoryUI</text><rect fill="#E3E3E3" height="32.6211" rx="2.5" ry="2.5" style="stroke:#181818;stroke-width:0.5;" width="146.2754" x="971.7593" y="1646.2793"/><text fill="#000000" font-family="sans-serif" font-size="14" lengthAdjust="spacing" textLength="132.2754" x="978.7593" y="1668.3867">:GetDronesController</text><rect fill="#E3E3E3" height="32.6211" rx="2.5" ry="2.5" style="stroke:#181818;stroke-width:0.5;" width="99.5859" x="1128.0347" y="1646.2793"/><text fill="#000000" font-family="sans-serif" font-size="14" lengthAdjust="spacing" textLength="85.5859" x="1135.0347" y="1668.3867">SerialNumber</text><rect fill="#E3E3E3" height="32.6211" rx="2.5" ry="2.5" style="stroke:#181818;stroke-width:0.5;" width="130.7305" x="1237.6206" y="1646.2793"/><text fill="#000000" font-family="sans-serif" font-size="14" lengthAdjust="spacing" textLength="116.7305" x="1244.6206" y="1668.3867">DroneRemovalLog</text><rect fill="#E3E3E3" height="32.6211" rx="2.5" ry="2.5" style="stroke:#181818;stroke-width:0.5;" width="226.4268" x="1378.3511" y="1646.2793"/><text fill="#000000" font-family="sans-serif" font-size="14" lengthAdjust="spacing" textLength="212.4268" x="1385.3511" y="1668.3867">:RemoveDroneInventoryController</text><rect fill="#E3E3E3" height="51.2422" rx="2.5" ry="2.5" style="stroke:#181818;stroke-width:0.5;" width="136.9375" x="1675.6719" y="1646.2793"/><text fill="#000000" font-family="sans-serif" font-size="14" lengthAdjust="spacing" textLength="113.5996" x="1687.3408" y="1668.3867">repositoryProvider</text><text fill="#000000" font-family="sans-serif" font-size="14" lengthAdjust="spacing" textLength="122.9375" x="1682.6719" y="1687.0078">:RepositoryProvider</text><rect fill="#E3E3E3" height="51.2422" rx="2.5" ry="2.5" style="stroke:#181818;stroke-width:0.5;" width="122.9375" x="1822.6094" y="71"/><text fill="#000000" font-family="sans-serif" font-size="14" lengthAdjust="spacing" textLength="105.0479" x="1831.5542" y="93.1074">DroneRepository</text><text fill="#000000" font-family="sans-serif" font-size="14" lengthAdjust="spacing" textLength="108.9375" x="1829.6094" y="111.7285">:DroneRepository</text><rect fill="#E3E3E3" height="51.2422" rx="2.5" ry="2.5" style="stroke:#181818;stroke-width:0.5;" width="122.9375" x="1822.6094" y="1646.2793"/><text fill="#000000" font-family="sans-serif" font-size="14" lengthAdjust="spacing" textLength="105.0479" x="1831.5542" y="1668.3867">DroneRepository</text><text fill="#000000" font-family="sans-serif" font-size="14" lengthAdjust="spacing" textLength="108.9375" x="1829.6094" y="1687.0078">:DroneRepository</text><rect fill="#E3E3E3" height="32.6211" rx="2.5" ry="2.5" style="stroke:#181818;stroke-width:0.5;" width="181.2822" x="1955.5469" y="89.6211"/><text fill="#000000" font-family="sans-serif" font-size="14" lengthAdjust="spacing" textLength="167.2822" x="1962.5469" y="111.7285">InMemoryDroneRepository</text><rect fill="#E3E3E3" height="32.6211" rx="2.5" ry="2.5" style="stroke:#181818;stroke-width:0.5;" width="181.2822" x="1955.5469" y="1646.2793"/><text fill="#000000" font-family="sans-serif" font-size="14" lengthAdjust="spacing" textLength="167.2822" x="1962.5469" y="1668.3867">InMemoryDroneRepository</text><rect fill="#E3E3E3" height="32.6211" rx="2.5" ry="2.5" style="stroke:#181818;stroke-width:0.5;" width="104.2549" x="2146.8291" y="89.6211"/><text fill="#000000" font-family="sans-serif" font-size="14" lengthAdjust="spacing" textLength="90.2549" x="2153.8291" y="111.7285">DroneJPAImpl</text><rect fill="#E3E3E3" height="32.6211" rx="2.5" ry="2.5" style="stroke:#181818;stroke-width:0.5;" width="104.2549" x="2146.8291" y="1646.2793"/><text fill="#000000" font-family="sans-serif" font-size="14" lengthAdjust="spacing" textLength="90.2549" x="2153.8291" y="1668.3867">DroneJPAImpl</text><rect fill="#E3E3E3" height="32.6211" rx="2.5" ry="2.5" style="stroke:#181818;stroke-width:0.5;" width="52.1309" x="2261.084" y="89.6211"/><text fill="#000000" font-family="sans-serif" font-size="14" lengthAdjust="spacing" textLength="38.1309" x="2268.084" y="111.7285">Drone</text><rect fill="#E3E3E3" height="32.6211" rx="2.5" ry="2.5" style="stroke:#181818;stroke-width:0.5;" width="52.1309" x="2261.084" y="1646.2793"/><text fill="#000000" font-family="sans-serif" font-size="14" lengthAdjust="spacing" textLength="38.1309" x="2268.084" y="1668.3867">Drone</text><rect fill="#FFFFFF" height="343.1914" style="stroke:#181818;stroke-width:1.0;" width="10" x="74.5723" y="133.2422"/><rect fill="#FFFFFF" height="319.9004" style="stroke:#181818;stroke-width:1.0;" width="10" x="808.73" y="156.5332"/><rect fill="#FFFFFF" height="187.4063" style="stroke:#181818;stroke-width:1.0;" width="10" x="1039.897" y="231.4453"/><rect fill="#FFFFFF" height="93.873" style="stroke:#181818;stroke-width:1.0;" width="10" x="1039.897" y="690.8398"/><rect fill="#FFFFFF" height="33.6211" style="stroke:#181818;stroke-width:1.0;" width="10" x="1172.8276" y="582.3066"/><rect fill="#FFFFFF" height="33.6211" style="stroke:#181818;stroke-width:1.0;" width="10" x="1297.9858" y="1078.332"/><rect fill="#FFFFFF" height="299.9102" style="stroke:#181818;stroke-width:1.0;" width="10" x="1486.5645" y="1186.8652"/><rect fill="#FFFFFF" height="52.2422" style="stroke:#181818;stroke-width:1.0;" width="10" x="1739.1406" y="272.7363"/><rect fill="#FFFFFF" height="52.2422" style="stroke:#181818;stroke-width:1.0;" width="10" x="1739.1406" y="1228.1563"/><rect fill="#FFFFFF" height="31.291" style="stroke:#181818;stroke-width:1.0;" width="10" x="1879.0781" y="356.2695"/><rect fill="#FFFFFF" height="31.291" style="stroke:#181818;stroke-width:1.0;" width="10" x="1879.0781" y="722.1309"/><rect fill="#FFFFFF" height="31.291" style="stroke:#181818;stroke-width:1.0;" width="10" x="2041.188" y="1337.9805"/><rect fill="#FFFFFF" height="31.291" style="stroke:#181818;stroke-width:1.0;" width="10" x="2193.9565" y="1417.1934"/><polygon fill="#181818" points="796.73,152.5332,806.73,156.5332,796.73,160.5332,800.73,156.5332" style="stroke:#181818;stroke-width:1.0;"/><line style="stroke:#181818;stroke-width:1.0;" x1="84.5723" x2="802.73" y1="156.5332" y2="156.5332"/><text fill="#000000" font-family="sans-serif" font-size="13" font-weight="bold" lengthAdjust="spacing" textLength="7.23" x="91.5723" y="151.2705">1</text><text fill="#000000" font-family="sans-serif" font-size="13" lengthAdjust="spacing" textLength="244.9497" x="102.8022" y="151.2705">requests to remove a drone from inventory</text><polygon fill="#181818" points="959.7593,183.8242,969.7593,187.8242,959.7593,191.8242,963.7593,187.8242" style="stroke:#181818;stroke-width:1.0;"/><line style="stroke:#181818;stroke-width:1.0;" x1="818.73" x2="965.7593" y1="187.8242" y2="187.8242"/><text fill="#000000" font-family="sans-serif" font-size="13" font-weight="bold" lengthAdjust="spacing" textLength="7.23" x="825.73" y="182.5615">2</text><text fill="#000000" font-family="sans-serif" font-size="13" lengthAdjust="spacing" textLength="36.1309" x="836.96" y="182.5615">create</text><rect fill="#E3E3E3" height="32.6211" rx="2.5" ry="2.5" style="stroke:#181818;stroke-width:0.5;" width="146.2754" x="971.7593" y="164.5332"/><text fill="#000000" font-family="sans-serif" font-size="14" lengthAdjust="spacing" textLength="132.2754" x="978.7593" y="186.6406">:GetDronesController</text><polygon fill="#181818" points="1027.897,227.4453,1037.897,231.4453,1027.897,235.4453,1031.897,231.4453" style="stroke:#181818;stroke-width:1.0;"/><line style="stroke:#181818;stroke-width:1.0;" x1="818.73" x2="1033.897" y1="231.4453" y2="231.4453"/><text fill="#000000" font-family="sans-serif" font-size="13" font-weight="bold" lengthAdjust="spacing" textLength="7.23" x="825.73" y="226.1826">3</text><text fill="#000000" font-family="sans-serif" font-size="13" lengthAdjust="spacing" textLength="83.0845" x="836.96" y="226.1826">getAllDrones()</text><polygon fill="#181818" points="1663.6719,258.7363,1673.6719,262.7363,1663.6719,266.7363,1667.6719,262.7363" style="stroke:#181818;stroke-width:1.0;"/><line style="stroke:#181818;stroke-width:1.0;" x1="1049.897" x2="1669.6719" y1="262.7363" y2="262.7363"/><text fill="#000000" font-family="sans-serif" font-size="13" font-weight="bold" lengthAdjust="spacing" textLength="7.23" x="1056.897" y="257.4736">4</text><text fill="#000000" font-family="sans-serif" font-size="13" lengthAdjust="spacing" textLength="104.0444" x="1068.127" y="257.4736">droneRepository()</text><rect fill="#E3E3E3" height="51.2422" rx="2.5" ry="2.5" style="stroke:#181818;stroke-width:0.5;" width="136.9375" x="1675.6719" y="239.4453"/><text fill="#000000" font-family="sans-serif" font-size="14" lengthAdjust="spacing" textLength="113.5996" x="1687.3408" y="261.5527">repositoryProvider</text><text fill="#000000" font-family="sans-serif" font-size="14" lengthAdjust="spacing" textLength="122.9375" x="1682.6719" y="280.1738">:RepositoryProvider</text><polygon fill="#181818" points="1060.897,320.9785,1050.897,324.9785,1060.897,328.9785,1056.897,324.9785" style="stroke:#181818;stroke-width:1.0;"/><line style="stroke:#181818;stroke-width:1.0;stroke-dasharray:2.0,2.0;" x1="1054.897" x2="1743.1406" y1="324.9785" y2="324.9785"/><text fill="#000000" font-family="sans-serif" font-size="13" font-weight="bold" lengthAdjust="spacing" textLength="7.23" x="1066.897" y="319.7158">5</text><text fill="#000000" font-family="sans-serif" font-size="13" lengthAdjust="spacing" textLength="57.0781" x="1078.127" y="319.7158">repository</text><polygon fill="#181818" points="1867.0781,352.2695,1877.0781,356.2695,1867.0781,360.2695,1871.0781,356.2695" style="stroke:#181818;stroke-width:1.0;"/><line style="stroke:#181818;stroke-width:1.0;" x1="1049.897" x2="1873.0781" y1="356.2695" y2="356.2695"/><text fill="#000000" font-family="sans-serif" font-size="13" font-weight="bold" lengthAdjust="spacing" textLength="7.23" x="1056.897" y="351.0068">6</text><text fill="#000000" font-family="sans-serif" font-size="13" lengthAdjust="spacing" textLength="44.0654" x="1068.127" y="351.0068">findAll()</text><polygon fill="#181818" points="1060.897,383.5605,1050.897,387.5605,1060.897,391.5605,1056.897,387.5605" style="stroke:#181818;stroke-width:1.0;"/><line style="stroke:#181818;stroke-width:1.0;stroke-dasharray:2.0,2.0;" x1="1054.897" x2="1883.0781" y1="387.5605" y2="387.5605"/><text fill="#000000" font-family="sans-serif" font-size="13" font-weight="bold" lengthAdjust="spacing" textLength="7.23" x="1066.897" y="382.2979">7</text><text fill="#000000" font-family="sans-serif" font-size="13" lengthAdjust="spacing" textLength="59.979" x="1078.127" y="382.2979">dronesList</text><polygon fill="#181818" points="829.73,414.8516,819.73,418.8516,829.73,422.8516,825.73,418.8516" style="stroke:#181818;stroke-width:1.0;"/><line style="stroke:#181818;stroke-width:1.0;stroke-dasharray:2.0,2.0;" x1="823.73" x2="1043.897" y1="418.8516" y2="418.8516"/><text fill="#000000" font-family="sans-serif" font-size="13" font-weight="bold" lengthAdjust="spacing" textLength="7.23" x="835.73" y="413.5889">8</text><text fill="#000000" font-family="sans-serif" font-size="13" lengthAdjust="spacing" textLength="123.5825" x="846.96" y="413.5889">Optional&lt;dronesList&gt;</text><path d="M10,433.8516 L70.1709,433.8516 L70.1709,443.1426 L60.1709,453.1426 L10,453.1426 L10,433.8516 " fill="#EEEEEE" style="stroke:#000000;stroke-width:1.5;"/><rect fill="none" height="1196.4277" style="stroke:#000000;stroke-width:1.5;" width="2291.084" x="10" y="433.8516"/><text fill="#000000" font-family="sans-serif" font-size="13" font-weight="bold" lengthAdjust="spacing" textLength="15.1709" x="25" y="448.8799">alt</text><text fill="#000000" font-family="sans-serif" font-size="11" font-weight="bold" lengthAdjust="spacing" textLength="111.2407" x="85.1709" y="447.7217">[dronesList is empty]</text><polygon fill="#181818" points="90.5723,472.4336,80.5723,476.4336,90.5723,480.4336,86.5723,476.4336" style="stroke:#181818;stroke-width:1.0;"/><line style="stroke:#181818;stroke-width:1.0;stroke-dasharray:2.0,2.0;" x1="84.5723" x2="812.73" y1="476.4336" y2="476.4336"/><text fill="#000000" font-family="sans-serif" font-size="13" font-weight="bold" lengthAdjust="spacing" textLength="7.23" x="96.5723" y="471.1709">9</text><text fill="#000000" font-family="sans-serif" font-size="13" lengthAdjust="spacing" textLength="277.272" x="107.8022" y="471.1709">error message ("No drones in the system yet...")</text><line style="stroke:#000000;stroke-width:1.0;stroke-dasharray:2.0,2.0;" x1="10" x2="2301.084" y1="485.4336" y2="485.4336"/><polygon fill="#181818" points="90.5723,505.7246,80.5723,509.7246,90.5723,513.7246,86.5723,509.7246" style="stroke:#181818;stroke-width:1.0;"/><line style="stroke:#181818;stroke-width:1.0;" x1="84.5723" x2="812.73" y1="509.7246" y2="509.7246"/><text fill="#000000" font-family="sans-serif" font-size="13" font-weight="bold" lengthAdjust="spacing" textLength="14.46" x="96.5723" y="504.4619">10</text><text fill="#000000" font-family="sans-serif" font-size="13" lengthAdjust="spacing" textLength="130.7681" x="115.0322" y="504.4619">provideSerialNumber()</text><polygon fill="#181818" points="801.73,537.0156,811.73,541.0156,801.73,545.0156,805.73,541.0156" style="stroke:#181818;stroke-width:1.0;"/><line style="stroke:#181818;stroke-width:1.0;" x1="79.5723" x2="807.73" y1="541.0156" y2="541.0156"/><text fill="#000000" font-family="sans-serif" font-size="13" font-weight="bold" lengthAdjust="spacing" textLength="14.46" x="86.5723" y="535.7529">11</text><text fill="#000000" font-family="sans-serif" font-size="13" lengthAdjust="spacing" textLength="77.3018" x="105.0322" y="535.7529">serialNumber</text><polygon fill="#181818" points="1116.0347,568.3066,1126.0347,572.3066,1116.0347,576.3066,1120.0347,572.3066" style="stroke:#181818;stroke-width:1.0;"/><line style="stroke:#181818;stroke-width:1.0;" x1="813.73" x2="1122.0347" y1="572.3066" y2="572.3066"/><text fill="#000000" font-family="sans-serif" font-size="13" font-weight="bold" lengthAdjust="spacing" textLength="14.46" x="820.73" y="567.0439">12</text><text fill="#000000" font-family="sans-serif" font-size="13" lengthAdjust="spacing" textLength="166.1689" x="839.1899" y="567.0439">Utils.readLineFromConsole()</text><rect fill="#E3E3E3" height="32.6211" rx="2.5" ry="2.5" style="stroke:#181818;stroke-width:0.5;" width="99.5859" x="1128.0347" y="549.0156"/><text fill="#000000" font-family="sans-serif" font-size="14" lengthAdjust="spacing" textLength="85.5859" x="1135.0347" y="571.123">SerialNumber</text><polygon fill="#181818" points="824.73,611.9277,814.73,615.9277,824.73,619.9277,820.73,615.9277" style="stroke:#181818;stroke-width:1.0;"/><line style="stroke:#181818;stroke-width:1.0;" x1="818.73" x2="1176.8276" y1="615.9277" y2="615.9277"/><text fill="#000000" font-family="sans-serif" font-size="13" font-weight="bold" lengthAdjust="spacing" textLength="14.46" x="830.73" y="610.665">13</text><text fill="#000000" font-family="sans-serif" font-size="13" lengthAdjust="spacing" textLength="77.3018" x="849.1899" y="610.665">serialNumber</text><polygon fill="#181818" points="959.7593,643.2188,969.7593,647.2188,959.7593,651.2188,963.7593,647.2188" style="stroke:#181818;stroke-width:1.0;"/><line style="stroke:#181818;stroke-width:1.0;" x1="813.73" x2="965.7593" y1="647.2188" y2="647.2188"/><text fill="#000000" font-family="sans-serif" font-size="13" font-weight="bold" lengthAdjust="spacing" textLength="14.46" x="820.73" y="641.9561">14</text><text fill="#000000" font-family="sans-serif" font-size="13" lengthAdjust="spacing" textLength="36.1309" x="839.1899" y="641.9561">create</text><rect fill="#E3E3E3" height="32.6211" rx="2.5" ry="2.5" style="stroke:#181818;stroke-width:0.5;" width="146.2754" x="971.7593" y="623.9277"/><text fill="#000000" font-family="sans-serif" font-size="14" lengthAdjust="spacing" textLength="132.2754" x="978.7593" y="646.0352">:GetDronesController</text><polygon fill="#181818" points="1027.897,686.8398,1037.897,690.8398,1027.897,694.8398,1031.897,690.8398" style="stroke:#181818;stroke-width:1.0;"/><line style="stroke:#181818;stroke-width:1.0;" x1="813.73" x2="1033.897" y1="690.8398" y2="690.8398"/><text fill="#000000" font-family="sans-serif" font-size="13" font-weight="bold" lengthAdjust="spacing" textLength="14.46" x="820.73" y="685.5771">15</text><text fill="#000000" font-family="sans-serif" font-size="13" lengthAdjust="spacing" textLength="172.6689" x="839.1899" y="685.5771">getDroneBySN(serialNumber)</text><polygon fill="#181818" points="1867.0781,718.1309,1877.0781,722.1309,1867.0781,726.1309,1871.0781,722.1309" style="stroke:#181818;stroke-width:1.0;"/><line style="stroke:#181818;stroke-width:1.0;" x1="1049.897" x2="1873.0781" y1="722.1309" y2="722.1309"/><text fill="#000000" font-family="sans-serif" font-size="13" font-weight="bold" lengthAdjust="spacing" textLength="14.46" x="1056.897" y="716.8682">16</text><text fill="#000000" font-family="sans-serif" font-size="13" lengthAdjust="spacing" textLength="175.5571" x="1075.3569" y="716.8682">findByDroneSN(serialNumber)</text><polygon fill="#181818" points="1060.897,749.4219,1050.897,753.4219,1060.897,757.4219,1056.897,753.4219" style="stroke:#181818;stroke-width:1.0;"/><line style="stroke:#181818;stroke-width:1.0;stroke-dasharray:2.0,2.0;" x1="1054.897" x2="1883.0781" y1="753.4219" y2="753.4219"/><text fill="#000000" font-family="sans-serif" font-size="13" font-weight="bold" lengthAdjust="spacing" textLength="14.46" x="1066.897" y="748.1592">17</text><text fill="#000000" font-family="sans-serif" font-size="13" lengthAdjust="spacing" textLength="99.0107" x="1085.3569" y="748.1592">Optional&lt;Drone&gt;</text><polygon fill="#181818" points="824.73,780.7129,814.73,784.7129,824.73,788.7129,820.73,784.7129" style="stroke:#181818;stroke-width:1.0;"/><line style="stroke:#181818;stroke-width:1.0;stroke-dasharray:2.0,2.0;" x1="818.73" x2="1043.897" y1="784.7129" y2="784.7129"/><text fill="#000000" font-family="sans-serif" font-size="13" font-weight="bold" lengthAdjust="spacing" textLength="14.46" x="830.73" y="779.4502">18</text><text fill="#000000" font-family="sans-serif" font-size="13" lengthAdjust="spacing" textLength="147.4307" x="849.1899" y="779.4502">Optional&lt;selectedDrone&gt;</text><path d="M20,799.7129 L80.1709,799.7129 L80.1709,809.0039 L70.1709,819.0039 L20,819.0039 L20,799.7129 " fill="#EEEEEE" style="stroke:#000000;stroke-width:1.5;"/><rect fill="none" height="711.0625" style="stroke:#000000;stroke-width:1.5;" width="2271.084" x="20" y="799.7129"/><text fill="#000000" font-family="sans-serif" font-size="13" font-weight="bold" lengthAdjust="spacing" textLength="15.1709" x="35" y="814.7412">alt</text><text fill="#000000" font-family="sans-serif" font-size="11" font-weight="bold" lengthAdjust="spacing" textLength="130.8184" x="95.1709" y="813.583">[selectedDrone is empty]</text><polygon fill="#181818" points="90.5723,838.2949,80.5723,842.2949,90.5723,846.2949,86.5723,842.2949" style="stroke:#181818;stroke-width:1.0;"/><line style="stroke:#181818;stroke-width:1.0;stroke-dasharray:2.0,2.0;" x1="84.5723" x2="812.73" y1="842.2949" y2="842.2949"/><text fill="#000000" font-family="sans-serif" font-size="13" font-weight="bold" lengthAdjust="spacing" textLength="14.46" x="96.5723" y="837.0322">19</text><text fill="#000000" font-family="sans-serif" font-size="13" lengthAdjust="spacing" textLength="417.46" x="115.0322" y="837.0322">error message ("No drone with that Serial Number found in the system!")</text><line style="stroke:#000000;stroke-width:1.0;stroke-dasharray:2.0,2.0;" x1="20" x2="2291.084" y1="851.2949" y2="851.2949"/><line style="stroke:#181818;stroke-width:1.0;" x1="813.73" x2="855.73" y1="875.5859" y2="875.5859"/><line style="stroke:#181818;stroke-width:1.0;" x1="855.73" x2="855.73" y1="875.5859" y2="888.5859"/><line style="stroke:#181818;stroke-width:1.0;" x1="814.73" x2="855.73" y1="888.5859" y2="888.5859"/><polygon fill="#181818" points="824.73,884.5859,814.73,888.5859,824.73,892.5859,820.73,888.5859" style="stroke:#181818;stroke-width:1.0;"/><text fill="#000000" font-family="sans-serif" font-size="13" font-weight="bold" lengthAdjust="spacing" textLength="14.46" x="820.73" y="870.3232">20</text><text fill="#000000" font-family="sans-serif" font-size="13" lengthAdjust="spacing" textLength="198.707" x="839.1899" y="870.3232">checkDroneStatus(selectedDrone)</text><path d="M30,903.5859 L90.1709,903.5859 L90.1709,912.877 L80.1709,922.877 L30,922.877 L30,903.5859 " fill="#EEEEEE" style="stroke:#000000;stroke-width:1.5;"/><rect fill="none" height="600.1895" style="stroke:#000000;stroke-width:1.5;" width="2251.084" x="30" y="903.5859"/><text fill="#000000" font-family="sans-serif" font-size="13" font-weight="bold" lengthAdjust="spacing" textLength="15.1709" x="45" y="918.6143">alt</text><text fill="#000000" font-family="sans-serif" font-size="11" font-weight="bold" lengthAdjust="spacing" textLength="171.7246" x="105.1709" y="917.4561">[drone status is not AVAILABLE]</text><polygon fill="#181818" points="90.5723,942.168,80.5723,946.168,90.5723,950.168,86.5723,946.168" style="stroke:#181818;stroke-width:1.0;"/><line style="stroke:#181818;stroke-width:1.0;stroke-dasharray:2.0,2.0;" x1="84.5723" x2="812.73" y1="946.168" y2="946.168"/><text fill="#000000" font-family="sans-serif" font-size="13" font-weight="bold" lengthAdjust="spacing" textLength="14.46" x="96.5723" y="940.9053">21</text><text fill="#000000" font-family="sans-serif" font-size="13" lengthAdjust="spacing" textLength="691.6978" x="115.0322" y="940.9053">error message ("This drone is no longer available in the inventory. Current status: " + selectedDrone.get().droneStatus())</text><line style="stroke:#000000;stroke-width:1.0;stroke-dasharray:2.0,2.0;" x1="30" x2="2281.084" y1="955.168" y2="955.168"/><polygon fill="#181818" points="90.5723,975.459,80.5723,979.459,90.5723,983.459,86.5723,979.459" style="stroke:#181818;stroke-width:1.0;"/><line style="stroke:#181818;stroke-width:1.0;" x1="84.5723" x2="812.73" y1="979.459" y2="979.459"/><text fill="#000000" font-family="sans-serif" font-size="13" font-weight="bold" lengthAdjust="spacing" textLength="14.46" x="96.5723" y="974.1963">22</text><text fill="#000000" font-family="sans-serif" font-size="13" lengthAdjust="spacing" textLength="114.1499" x="115.0322" y="974.1963">showDroneDetails()</text><polygon fill="#181818" points="801.73,1006.75,811.73,1010.75,801.73,1014.75,805.73,1010.75" style="stroke:#181818;stroke-width:1.0;"/><line style="stroke:#181818;stroke-width:1.0;" x1="79.5723" x2="807.73" y1="1010.75" y2="1010.75"/><text fill="#000000" font-family="sans-serif" font-size="13" font-weight="bold" lengthAdjust="spacing" textLength="14.46" x="86.5723" y="1005.4873">23</text><text fill="#000000" font-family="sans-serif" font-size="13" lengthAdjust="spacing" textLength="104.7554" x="105.0322" y="1005.4873">confirmSelection()</text><path d="M713.8613,1025.75 L774.0322,1025.75 L774.0322,1035.041 L764.0322,1045.041 L713.8613,1045.041 L713.8613,1025.75 " fill="#EEEEEE" style="stroke:#000000;stroke-width:1.5;"/><rect fill="none" height="471.0254" style="stroke:#000000;stroke-width:1.5;" width="1557.2227" x="713.8613" y="1025.75"/><text fill="#000000" font-family="sans-serif" font-size="13" font-weight="bold" lengthAdjust="spacing" textLength="15.1709" x="728.8613" y="1040.7783">alt</text><text fill="#000000" font-family="sans-serif" font-size="11" font-weight="bold" lengthAdjust="spacing" textLength="60.5" x="789.0322" y="1039.6201">[confirmed]</text><polygon fill="#181818" points="1225.6206,1064.332,1235.6206,1068.332,1225.6206,1072.332,1229.6206,1068.332" style="stroke:#181818;stroke-width:1.0;"/><line style="stroke:#181818;stroke-width:1.0;" x1="813.73" x2="1231.6206" y1="1068.332" y2="1068.332"/><text fill="#000000" font-family="sans-serif" font-size="13" font-weight="bold" lengthAdjust="spacing" textLength="14.46" x="820.73" y="1063.0693">24</text><text fill="#000000" font-family="sans-serif" font-size="13" lengthAdjust="spacing" textLength="161.0908" x="839.1899" y="1063.0693">Utils.rePromptWhileInvalid()</text><rect fill="#E3E3E3" height="32.6211" rx="2.5" ry="2.5" style="stroke:#181818;stroke-width:0.5;" width="130.7305" x="1237.6206" y="1045.041"/><text fill="#000000" font-family="sans-serif" font-size="14" lengthAdjust="spacing" textLength="116.7305" x="1244.6206" y="1067.1484">DroneRemovalLog</text><polygon fill="#181818" points="824.73,1107.9531,814.73,1111.9531,824.73,1115.9531,820.73,1111.9531" style="stroke:#181818;stroke-width:1.0;"/><line style="stroke:#181818;stroke-width:1.0;" x1="818.73" x2="1301.9858" y1="1111.9531" y2="1111.9531"/><text fill="#000000" font-family="sans-serif" font-size="13" font-weight="bold" lengthAdjust="spacing" textLength="14.46" x="830.73" y="1106.6904">25</text><text fill="#000000" font-family="sans-serif" font-size="13" lengthAdjust="spacing" textLength="67.9263" x="849.1899" y="1106.6904">removalLog</text><polygon fill="#181818" points="1366.3511,1139.2441,1376.3511,1143.2441,1366.3511,1147.2441,1370.3511,1143.2441" style="stroke:#181818;stroke-width:1.0;"/><line style="stroke:#181818;stroke-width:1.0;" x1="813.73" x2="1372.3511" y1="1143.2441" y2="1143.2441"/><text fill="#000000" font-family="sans-serif" font-size="13" font-weight="bold" lengthAdjust="spacing" textLength="14.46" x="820.73" y="1137.9814">26</text><text fill="#000000" font-family="sans-serif" font-size="13" lengthAdjust="spacing" textLength="36.1309" x="839.1899" y="1137.9814">create</text><rect fill="#E3E3E3" height="32.6211" rx="2.5" ry="2.5" style="stroke:#181818;stroke-width:0.5;" width="226.4268" x="1378.3511" y="1119.9531"/><text fill="#000000" font-family="sans-serif" font-size="14" lengthAdjust="spacing" textLength="212.4268" x="1385.3511" y="1142.0605">:RemoveDroneInventoryController</text><polygon fill="#181818" points="1474.5645,1182.8652,1484.5645,1186.8652,1474.5645,1190.8652,1478.5645,1186.8652" style="stroke:#181818;stroke-width:1.0;"/><line style="stroke:#181818;stroke-width:1.0;" x1="813.73" x2="1480.5645" y1="1186.8652" y2="1186.8652"/><text fill="#000000" font-family="sans-serif" font-size="13" font-weight="bold" lengthAdjust="spacing" textLength="14.46" x="820.73" y="1181.6025">27</text><text fill="#000000" font-family="sans-serif" font-size="13" lengthAdjust="spacing" textLength="276.7324" x="839.1899" y="1181.6025">removeDrone(selectedDrone.get(), removalLog)</text><polygon fill="#181818" points="1663.6719,1214.1563,1673.6719,1218.1563,1663.6719,1222.1563,1667.6719,1218.1563" style="stroke:#181818;stroke-width:1.0;"/><line style="stroke:#181818;stroke-width:1.0;" x1="1496.5645" x2="1669.6719" y1="1218.1563" y2="1218.1563"/><text fill="#000000" font-family="sans-serif" font-size="13" font-weight="bold" lengthAdjust="spacing" textLength="14.46" x="1503.5645" y="1212.8936">28</text><text fill="#000000" font-family="sans-serif" font-size="13" lengthAdjust="spacing" textLength="104.0444" x="1522.0244" y="1212.8936">droneRepository()</text><rect fill="#E3E3E3" height="51.2422" rx="2.5" ry="2.5" style="stroke:#181818;stroke-width:0.5;" width="136.9375" x="1675.6719" y="1194.8652"/><text fill="#000000" font-family="sans-serif" font-size="14" lengthAdjust="spacing" textLength="113.5996" x="1687.3408" y="1216.9727">repositoryProvider</text><text fill="#000000" font-family="sans-serif" font-size="14" lengthAdjust="spacing" textLength="122.9375" x="1682.6719" y="1235.5938">:RepositoryProvider</text><polygon fill="#181818" points="1507.5645,1276.3984,1497.5645,1280.3984,1507.5645,1284.3984,1503.5645,1280.3984" style="stroke:#181818;stroke-width:1.0;"/><line style="stroke:#181818;stroke-width:1.0;stroke-dasharray:2.0,2.0;" x1="1501.5645" x2="1743.1406" y1="1280.3984" y2="1280.3984"/><text fill="#000000" font-family="sans-serif" font-size="13" font-weight="bold" lengthAdjust="spacing" textLength="14.46" x="1513.5645" y="1275.1357">29</text><text fill="#000000" font-family="sans-serif" font-size="13" lengthAdjust="spacing" textLength="200.1162" x="1532.0244" y="1275.1357">repository (dynamic: inMem or jpa)</text><path d="M1368.3511,1295.3984 L1428.522,1295.3984 L1428.522,1304.6895 L1418.522,1314.6895 L1368.3511,1314.6895 L1368.3511,1295.3984 " fill="#EEEEEE" style="stroke:#000000;stroke-width:1.5;"/><rect fill="none" height="161.0859" style="stroke:#000000;stroke-width:1.5;" width="892.7329" x="1368.3511" y="1295.3984"/><text fill="#000000" font-family="sans-serif" font-size="13" font-weight="bold" lengthAdjust="spacing" textLength="15.1709" x="1383.3511" y="1310.4268">alt</text><text fill="#000000" font-family="sans-serif" font-size="11" font-weight="bold" lengthAdjust="spacing" textLength="221.2568" x="1443.522" y="1309.2686">[Repository is InMemoryDroneRepository]</text><polygon fill="#181818" points="2029.188,1333.9805,2039.188,1337.9805,2029.188,1341.9805,2033.188,1337.9805" style="stroke:#181818;stroke-width:1.0;"/><line style="stroke:#181818;stroke-width:1.0;" x1="1496.5645" x2="2035.188" y1="1337.9805" y2="1337.9805"/><text fill="#000000" font-family="sans-serif" font-size="13" font-weight="bold" lengthAdjust="spacing" textLength="14.46" x="1503.5645" y="1332.7178">30</text><text fill="#000000" font-family="sans-serif" font-size="13" lengthAdjust="spacing" textLength="276.7324" x="1522.0244" y="1332.7178">removeDrone(selectedDrone.get(), removalLog)</text><polygon fill="#181818" points="1507.5645,1365.2715,1497.5645,1369.2715,1507.5645,1373.2715,1503.5645,1369.2715" style="stroke:#181818;stroke-width:1.0;"/><line style="stroke:#181818;stroke-width:1.0;stroke-dasharray:2.0,2.0;" x1="1501.5645" x2="2045.188" y1="1369.2715" y2="1369.2715"/><text fill="#000000" font-family="sans-serif" font-size="13" font-weight="bold" lengthAdjust="spacing" textLength="14.46" x="1513.5645" y="1364.0088">31</text><text fill="#000000" font-family="sans-serif" font-size="13" lengthAdjust="spacing" textLength="99.0107" x="1532.0244" y="1364.0088">Optional&lt;Drone&gt;</text><line style="stroke:#000000;stroke-width:1.0;stroke-dasharray:2.0,2.0;" x1="1368.3511" x2="2261.084" y1="1378.2715" y2="1378.2715"/><text fill="#000000" font-family="sans-serif" font-size="11" font-weight="bold" lengthAdjust="spacing" textLength="155.8584" x="1373.3511" y="1390.1416">[Repository is DroneJPAImpl]</text><polygon fill="#181818" points="2181.9565,1413.1934,2191.9565,1417.1934,2181.9565,1421.1934,2185.9565,1417.1934" style="stroke:#181818;stroke-width:1.0;"/><line style="stroke:#181818;stroke-width:1.0;" x1="1496.5645" x2="2187.9565" y1="1417.1934" y2="1417.1934"/><text fill="#000000" font-family="sans-serif" font-size="13" font-weight="bold" lengthAdjust="spacing" textLength="14.46" x="1503.5645" y="1411.9307">32</text><text fill="#000000" font-family="sans-serif" font-size="13" lengthAdjust="spacing" textLength="276.7324" x="1522.0244" y="1411.9307">removeDrone(selectedDrone.get(), removalLog)</text><polygon fill="#181818" points="1507.5645,1444.4844,1497.5645,1448.4844,1507.5645,1452.4844,1503.5645,1448.4844" style="stroke:#181818;stroke-width:1.0;"/><line style="stroke:#181818;stroke-width:1.0;stroke-dasharray:2.0,2.0;" x1="1501.5645" x2="2197.9565" y1="1448.4844" y2="1448.4844"/><text fill="#000000" font-family="sans-serif" font-size="13" font-weight="bold" lengthAdjust="spacing" textLength="14.46" x="1513.5645" y="1443.2217">33</text><text fill="#000000" font-family="sans-serif" font-size="13" lengthAdjust="spacing" textLength="99.0107" x="1532.0244" y="1443.2217">Optional&lt;Drone&gt;</text><polygon fill="#181818" points="824.73,1482.7754,814.73,1486.7754,824.73,1490.7754,820.73,1486.7754" style="stroke:#181818;stroke-width:1.0;"/><line style="stroke:#181818;stroke-width:1.0;stroke-dasharray:2.0,2.0;" x1="818.73" x2="1490.5645" y1="1486.7754" y2="1486.7754"/><text fill="#000000" font-family="sans-serif" font-size="13" font-weight="bold" lengthAdjust="spacing" textLength="14.46" x="830.73" y="1481.5127">34</text><text fill="#000000" font-family="sans-serif" font-size="13" lengthAdjust="spacing" textLength="99.0107" x="849.1899" y="1481.5127">Optional&lt;Drone&gt;</text><line style="stroke:#000000;stroke-width:1.0;stroke-dasharray:2.0,2.0;" x1="713.8613" x2="2271.084" y1="1495.7754" y2="1495.7754"/><path d="M30,1524.7754 L90.1709,1524.7754 L90.1709,1534.0664 L80.1709,1544.0664 L30,1544.0664 L30,1524.7754 " fill="#EEEEEE" style="stroke:#000000;stroke-width:1.5;"/><rect fill="none" height="98.5039" style="stroke:#000000;stroke-width:1.5;" width="883.5986" x="30" y="1524.7754"/><text fill="#000000" font-family="sans-serif" font-size="13" font-weight="bold" lengthAdjust="spacing" textLength="15.1709" x="45" y="1539.8037">alt</text><text fill="#000000" font-family="sans-serif" font-size="11" font-weight="bold" lengthAdjust="spacing" textLength="157.1099" x="105.1709" y="1538.6455">[Drone removed successfully]</text><polygon fill="#181818" points="90.5723,1563.3574,80.5723,1567.3574,90.5723,1571.3574,86.5723,1567.3574" style="stroke:#181818;stroke-width:1.0;"/><line style="stroke:#181818;stroke-width:1.0;stroke-dasharray:2.0,2.0;" x1="84.5723" x2="812.73" y1="1567.3574" y2="1567.3574"/><text fill="#000000" font-family="sans-serif" font-size="13" font-weight="bold" lengthAdjust="spacing" textLength="14.46" x="96.5723" y="1562.0947">35</text><text fill="#000000" font-family="sans-serif" font-size="13" lengthAdjust="spacing" textLength="291.7192" x="115.0322" y="1562.0947">success message ("Drone removed successfully!")</text><line style="stroke:#000000;stroke-width:1.0;stroke-dasharray:2.0,2.0;" x1="30" x2="913.5986" y1="1576.3574" y2="1576.3574"/><text fill="#000000" font-family="sans-serif" font-size="11" font-weight="bold" lengthAdjust="spacing" textLength="84.9653" x="35" y="1588.2275">[Removal failed]</text><polygon fill="#181818" points="90.5723,1611.2793,80.5723,1615.2793,90.5723,1619.2793,86.5723,1615.2793" style="stroke:#181818;stroke-width:1.0;"/><line style="stroke:#181818;stroke-width:1.0;stroke-dasharray:2.0,2.0;" x1="84.5723" x2="812.73" y1="1615.2793" y2="1615.2793"/><text fill="#000000" font-family="sans-serif" font-size="13" font-weight="bold" lengthAdjust="spacing" textLength="14.46" x="96.5723" y="1610.0166">36</text><text fill="#000000" font-family="sans-serif" font-size="13" lengthAdjust="spacing" textLength="194.9048" x="115.0322" y="1610.0166">error message ("Removal failed!")</text><!--SRC=[hLTDSzis4BtpLsnrej9QFq3JyOnijHrr53SJoSab5vY4HDGWm02GFFhtNG0K2P2Wucch4mc-tRSV3rX8lpBH44LggAMGHQLaJS6e4yrqzwKXnIivqfsvS0gA5eQ88my1kYAbV6FY20V2DSqommn2dpUmezzFL1GKremSBJJVhUTm1vzfBS-uggIWS41Is8Wp5KQgIvQHav7YLBzGXSy5hi7C0_Uqg6P0DApt6J8RLh2620EpfVVdK9sZvut3Fcy6s3-eSK3zA8LHadEg7F3OhHl5OviTLOpm9nUJmseH0voX2uBmhJmwZEfUtn7i89R7_UTjRALe8pMpq4zAdbb9rJU1deQBphffNv8nNYtGVB3YR4lx7Xjkn4UCM5rIS6Q_9NZ-_BJQr0rtcByRaa1uDllakipEn53Rs6ozXxjxAvubbX3beuq68tqvAH1luqN3Ej5q7h3T6TgYXwYVyE43-YiKHKpo-zA-hpZtI_cyznZh8hP2DzTYUuOohb7ef-_ArU8k4KNVvwoaOziHlUiNsXsOA37yaD2tqWDIL2vMlMNQX5JUQi1pRSXVZM5I4FvhRtiV6iUroWWt0Gim3RHkp2K3_Dace5lizXAeKhZBQwerdZEGpvvaQuOT1bDHq1TjQ0qNQXQBnMpk70IqsFJ12Wg9sgFeojGIjNKCztFklGMgqy7Nm84MliNFXd6zG2MLMoRexwX3tBnQSjfwwcB0GyA-ezsavo1YH0Taq-ATmYoxzuVBxYaFgGPnnKsodswgwi5l_Di-lMfSIfDwwyJZLk-71UXT_4XycdASGhHC-nbeq8M9EeoCOYc-Luxmnao5UYG6l8B0rm8EyYJAMAi_jIfDAtMiLhlIARRliKkyg6ZnwfjWY3dfFCgbv-cs6sY7iraAQM3rPRNPhXwsltN87sMyhrXxE7iVmAKuOgBaJ1WdBpZSssIx4tW1ZoUbyBdbNi8CVewBli3EvFD56IGodqSXfGkLBjQeO8EjhYlvvcZNr63GEe-fWlrUI75WgjwvM55X0wIjQWkXPVIbP-ndVNn6u5X6bNsj6BUZdd1M3fn7coYuCGmn0K4_72VHGRK2r4JizgunEc4cO2shlxpaYUx-4X3UoDJTRuPV7SCx9kgarsvA3X7HnEqIkRg4lBm8KhDYwQypW5i1xoppMsNjgCRHe5pwSEtscRW_ZIp36lX0_cEve-BucreAuhc2qgGEwXkrI7ksUtDGYF1cU3DxhFx_chkzWQO0bkVVvvtoIaMPJGXxDCOcM0A6qJOP7NZsXqSyxdDsh0nwvr8s6bxmBvkzD2VkEzamtE5pbu9Lif-MlXCbw5DHu8mud3XFJyuM44oIQGVN2TaAnRKI_q3YKLc-Qoh79fqtZDvb4C-IU7xy0m00]--></g></svg>