<svg xmlns="http://www.w3.org/2000/svg" xmlns:xlink="http://www.w3.org/1999/xlink" contentStyleType="text/css" height="1677px" preserveAspectRatio="none" style="width:2131px;height:1677px;background:#FFFFFF;" version="1.1" viewBox="0 0 2131 1677" width="2131px" zoomAndPan="magnify"><title>Sequence Diagram (SD) - Edit Maintenance Type</title><defs/><g><text fill="#000000" font-family="sans-serif" font-size="14" font-weight="bold" lengthAdjust="spacing" textLength="322.8477" x="905.147" y="30.1074">Sequence Diagram (SD) - Edit Maintenance Type</text><rect fill="#FFFFFF" height="1450.7266" style="stroke:#181818;stroke-width:1.0;" width="10" x="74.5723" y="133.2422"/><rect fill="#FFFFFF" height="31.291" style="stroke:#181818;stroke-width:1.0;" width="10" x="470.1567" y="156.5332"/><rect fill="#FFFFFF" height="319.9004" style="stroke:#181818;stroke-width:1.0;" width="10" x="470.1567" y="219.1152"/><rect fill="#FFFFFF" height="244.9883" style="stroke:#181818;stroke-width:1.0;" width="10" x="875.3599" y="294.0273"/><rect fill="#FFFFFF" height="345.5703" style="stroke:#181818;stroke-width:1.0;" width="10" x="875.3599" y="724.4316"/><rect fill="#FFFFFF" height="77.9121" style="stroke:#181818;stroke-width:1.0;" width="10" x="1051.8066" y="765.7227"/><rect fill="#FFFFFF" height="33.6211" style="stroke:#181818;stroke-width:1.0;" width="10" x="1151.2202" y="884.9258"/><rect fill="#FFFFFF" height="31.291" style="stroke:#181818;stroke-width:1.0;" width="10" x="1265.8784" y="1117.9238"/><rect fill="#FFFFFF" height="52.2422" style="stroke:#181818;stroke-width:1.0;" width="10" x="1406.9917" y="335.3184"/><rect fill="#FFFFFF" height="31.291" style="stroke:#181818;stroke-width:1.0;" width="10" x="1583.5083" y="418.8516"/><rect fill="#FFFFFF" height="31.291" style="stroke:#181818;stroke-width:1.0;" width="10" x="1583.5083" y="949.8379"/><rect fill="#FFFFFF" height="206.377" style="stroke:#181818;stroke-width:1.0;" width="10" x="1583.5083" y="1180.5059"/><rect fill="#FFFFFF" height="31.291" style="stroke:#181818;stroke-width:1.0;" width="10" x="1802.9116" y="1238.0879"/><rect fill="#FFFFFF" height="31.291" style="stroke:#181818;stroke-width:1.0;" width="10" x="1995.3799" y="1317.3008"/><rect fill="none" height="1111.8262" style="stroke:#000000;stroke-width:1.5;" width="2114.1416" x="10" y="465.1426"/><rect fill="none" height="573.8398" style="stroke:#000000;stroke-width:1.5;" width="2094.1416" x="20" y="996.1289"/><rect fill="none" height="161.0859" style="stroke:#000000;stroke-width:1.5;" width="623.6812" x="1480.4604" y="1195.5059"/><rect fill="none" height="161.0859" style="stroke:#000000;stroke-width:1.5;" width="967.356" x="30" y="1401.8828"/><line style="stroke:#181818;stroke-width:0.5;stroke-dasharray:5.0,5.0;" x1="79" x2="79" y1="123.2422" y2="1593.9688"/><line style="stroke:#181818;stroke-width:0.5;stroke-dasharray:5.0,5.0;" x1="474.5054" x2="474.5054" y1="123.2422" y2="1593.9688"/><line style="stroke:#181818;stroke-width:0.5;stroke-dasharray:5.0,5.0;" x1="879.3638" x2="879.3638" y1="689.3301" y2="1593.9688"/><line style="stroke:#181818;stroke-width:0.5;stroke-dasharray:5.0,5.0;" x1="1056.1343" x2="1056.1343" y1="764.2422" y2="1593.9688"/><line style="stroke:#181818;stroke-width:0.5;stroke-dasharray:5.0,5.0;" x1="1156.2065" x2="1156.2065" y1="883.4453" y2="1593.9688"/><line style="stroke:#181818;stroke-width:0.5;stroke-dasharray:5.0,5.0;" x1="1270.2339" x2="1270.2339" y1="123.2422" y2="1593.9688"/><line style="stroke:#181818;stroke-width:0.5;stroke-dasharray:5.0,5.0;" x1="1411.5229" x2="1411.5229" y1="343.1484" y2="1593.9688"/><line style="stroke:#181818;stroke-width:0.5;stroke-dasharray:5.0,5.0;" x1="1588.4604" x2="1588.4604" y1="123.2422" y2="1593.9688"/><line style="stroke:#181818;stroke-width:0.5;stroke-dasharray:5.0,5.0;" x1="1807.2051" x2="1807.2051" y1="123.2422" y2="1593.9688"/><line style="stroke:#181818;stroke-width:0.5;stroke-dasharray:5.0,5.0;" x1="1999.6182" x2="1999.6182" y1="123.2422" y2="1593.9688"/><text fill="#000000" font-family="sans-serif" font-size="14" lengthAdjust="spacing" textLength="73.1445" x="40" y="119.7285">Drone Tech</text><ellipse cx="79.5723" cy="53.1211" fill="#E3E3E3" rx="8" ry="8" style="stroke:#181818;stroke-width:0.5;"/><path d="M79.5723,61.1211 L79.5723,88.1211 M66.5723,69.1211 L92.5723,69.1211 M79.5723,88.1211 L66.5723,103.1211 M79.5723,88.1211 L92.5723,103.1211 " fill="none" style="stroke:#181818;stroke-width:0.5;"/><text fill="#000000" font-family="sans-serif" font-size="14" lengthAdjust="spacing" textLength="73.1445" x="40" y="1608.0762">Drone Tech</text><ellipse cx="79.5723" cy="1620.0898" fill="#E3E3E3" rx="8" ry="8" style="stroke:#181818;stroke-width:0.5;"/><path d="M79.5723,1628.0898 L79.5723,1655.0898 M66.5723,1636.0898 L92.5723,1636.0898 M79.5723,1655.0898 L66.5723,1670.0898 M79.5723,1655.0898 L92.5723,1670.0898 " fill="none" style="stroke:#181818;stroke-width:0.5;"/><rect fill="#E3E3E3" height="32.6211" rx="2.5" ry="2.5" style="stroke:#181818;stroke-width:0.5;" width="167.3027" x="391.5054" y="89.6211"/><text fill="#000000" font-family="sans-serif" font-size="14" lengthAdjust="spacing" textLength="153.3027" x="398.5054" y="111.7285">:EditMaintenanceTypeUI</text><rect fill="#E3E3E3" height="32.6211" rx="2.5" ry="2.5" style="stroke:#181818;stroke-width:0.5;" width="167.3027" x="391.5054" y="1592.9688"/><text fill="#000000" font-family="sans-serif" font-size="14" lengthAdjust="spacing" textLength="153.3027" x="398.5054" y="1615.0762">:EditMaintenanceTypeUI</text><rect fill="#E3E3E3" height="32.6211" rx="2.5" ry="2.5" style="stroke:#181818;stroke-width:0.5;" width="213.9922" x="773.3638" y="1592.9688"/><text fill="#000000" font-family="sans-serif" font-size="14" lengthAdjust="spacing" textLength="199.9922" x="780.3638" y="1615.0762">:EditMaintenanceTypeController</text><rect fill="#E3E3E3" height="32.6211" rx="2.5" ry="2.5" style="stroke:#181818;stroke-width:0.5;" width="51.3447" x="1031.1343" y="1592.9688"/><text fill="#000000" font-family="sans-serif" font-size="14" lengthAdjust="spacing" textLength="37.3447" x="1038.1343" y="1615.0762">Name</text><rect fill="#E3E3E3" height="32.6211" rx="2.5" ry="2.5" style="stroke:#181818;stroke-width:0.5;" width="84.0273" x="1114.2065" y="1592.9688"/><text fill="#000000" font-family="sans-serif" font-size="14" lengthAdjust="spacing" textLength="70.0273" x="1121.2065" y="1615.0762">Description</text><rect fill="#E3E3E3" height="32.6211" rx="2.5" ry="2.5" style="stroke:#181818;stroke-width:0.5;" width="125.2891" x="1208.2339" y="89.6211"/><text fill="#000000" font-family="sans-serif" font-size="14" lengthAdjust="spacing" textLength="111.2891" x="1215.2339" y="111.7285">MaintenanceType</text><rect fill="#E3E3E3" height="32.6211" rx="2.5" ry="2.5" style="stroke:#181818;stroke-width:0.5;" width="125.2891" x="1208.2339" y="1592.9688"/><text fill="#000000" font-family="sans-serif" font-size="14" lengthAdjust="spacing" textLength="111.2891" x="1215.2339" y="1615.0762">MaintenanceType</text><rect fill="#E3E3E3" height="51.2422" rx="2.5" ry="2.5" style="stroke:#181818;stroke-width:0.5;" width="136.9375" x="1343.5229" y="1592.9688"/><text fill="#000000" font-family="sans-serif" font-size="14" lengthAdjust="spacing" textLength="113.5996" x="1355.1919" y="1615.0762">repositoryProvider</text><text fill="#000000" font-family="sans-serif" font-size="14" lengthAdjust="spacing" textLength="122.9375" x="1350.5229" y="1633.6973">:RepositoryProvider</text><rect fill="#E3E3E3" height="51.2422" rx="2.5" ry="2.5" style="stroke:#181818;stroke-width:0.5;" width="196.0957" x="1490.4604" y="71"/><text fill="#000000" font-family="sans-serif" font-size="14" lengthAdjust="spacing" textLength="178.2061" x="1499.4053" y="93.1074">MaintenanceTypeRepository</text><text fill="#000000" font-family="sans-serif" font-size="14" lengthAdjust="spacing" textLength="182.0957" x="1497.4604" y="111.7285">:MaintenanceTypeRepository</text><rect fill="#E3E3E3" height="51.2422" rx="2.5" ry="2.5" style="stroke:#181818;stroke-width:0.5;" width="196.0957" x="1490.4604" y="1592.9688"/><text fill="#000000" font-family="sans-serif" font-size="14" lengthAdjust="spacing" textLength="178.2061" x="1499.4053" y="1615.0762">MaintenanceTypeRepository</text><text fill="#000000" font-family="sans-serif" font-size="14" lengthAdjust="spacing" textLength="182.0957" x="1497.4604" y="1633.6973">:MaintenanceTypeRepository</text><rect fill="#E3E3E3" height="32.6211" rx="2.5" ry="2.5" style="stroke:#181818;stroke-width:0.5;" width="177.4131" x="1719.2051" y="89.6211"/><text fill="#000000" font-family="sans-serif" font-size="14" lengthAdjust="spacing" textLength="163.4131" x="1726.2051" y="111.7285">MaintenanceTypeJPAImpl</text><rect fill="#E3E3E3" height="32.6211" rx="2.5" ry="2.5" style="stroke:#181818;stroke-width:0.5;" width="177.4131" x="1719.2051" y="1592.9688"/><text fill="#000000" font-family="sans-serif" font-size="14" lengthAdjust="spacing" textLength="163.4131" x="1726.2051" y="1615.0762">MaintenanceTypeJPAImpl</text><rect fill="#E3E3E3" height="32.6211" rx="2.5" ry="2.5" style="stroke:#181818;stroke-width:0.5;" width="187.5234" x="1906.6182" y="89.6211"/><text fill="#000000" font-family="sans-serif" font-size="14" lengthAdjust="spacing" textLength="173.5234" x="1913.6182" y="111.7285">MaintenanceTypeInMemory</text><rect fill="#E3E3E3" height="32.6211" rx="2.5" ry="2.5" style="stroke:#181818;stroke-width:0.5;" width="187.5234" x="1906.6182" y="1592.9688"/><text fill="#000000" font-family="sans-serif" font-size="14" lengthAdjust="spacing" textLength="173.5234" x="1913.6182" y="1615.0762">MaintenanceTypeInMemory</text><rect fill="#FFFFFF" height="1450.7266" style="stroke:#181818;stroke-width:1.0;" width="10" x="74.5723" y="133.2422"/><rect fill="#FFFFFF" height="31.291" style="stroke:#181818;stroke-width:1.0;" width="10" x="470.1567" y="156.5332"/><rect fill="#FFFFFF" height="319.9004" style="stroke:#181818;stroke-width:1.0;" width="10" x="470.1567" y="219.1152"/><rect fill="#FFFFFF" height="244.9883" style="stroke:#181818;stroke-width:1.0;" width="10" x="875.3599" y="294.0273"/><rect fill="#FFFFFF" height="345.5703" style="stroke:#181818;stroke-width:1.0;" width="10" x="875.3599" y="724.4316"/><rect fill="#FFFFFF" height="77.9121" style="stroke:#181818;stroke-width:1.0;" width="10" x="1051.8066" y="765.7227"/><rect fill="#FFFFFF" height="33.6211" style="stroke:#181818;stroke-width:1.0;" width="10" x="1151.2202" y="884.9258"/><rect fill="#FFFFFF" height="31.291" style="stroke:#181818;stroke-width:1.0;" width="10" x="1265.8784" y="1117.9238"/><rect fill="#FFFFFF" height="52.2422" style="stroke:#181818;stroke-width:1.0;" width="10" x="1406.9917" y="335.3184"/><rect fill="#FFFFFF" height="31.291" style="stroke:#181818;stroke-width:1.0;" width="10" x="1583.5083" y="418.8516"/><rect fill="#FFFFFF" height="31.291" style="stroke:#181818;stroke-width:1.0;" width="10" x="1583.5083" y="949.8379"/><rect fill="#FFFFFF" height="206.377" style="stroke:#181818;stroke-width:1.0;" width="10" x="1583.5083" y="1180.5059"/><rect fill="#FFFFFF" height="31.291" style="stroke:#181818;stroke-width:1.0;" width="10" x="1802.9116" y="1238.0879"/><rect fill="#FFFFFF" height="31.291" style="stroke:#181818;stroke-width:1.0;" width="10" x="1995.3799" y="1317.3008"/><polygon fill="#181818" points="458.1567,152.5332,468.1567,156.5332,458.1567,160.5332,462.1567,156.5332" style="stroke:#181818;stroke-width:1.0;"/><line style="stroke:#181818;stroke-width:1.0;" x1="84.5723" x2="464.1567" y1="156.5332" y2="156.5332"/><text fill="#000000" font-family="sans-serif" font-size="13" font-weight="bold" lengthAdjust="spacing" textLength="7.23" x="91.5723" y="151.2705">1</text><text fill="#000000" font-family="sans-serif" font-size="13" lengthAdjust="spacing" textLength="177.7598" x="102.8022" y="151.2705">requestEditMaintenanceType()</text><polygon fill="#181818" points="95.5723,183.8242,85.5723,187.8242,95.5723,191.8242,91.5723,187.8242" style="stroke:#181818;stroke-width:1.0;"/><line style="stroke:#181818;stroke-width:1.0;stroke-dasharray:2.0,2.0;" x1="89.5723" x2="474.1567" y1="187.8242" y2="187.8242"/><text fill="#000000" font-family="sans-serif" font-size="13" font-weight="bold" lengthAdjust="spacing" textLength="7.23" x="101.5723" y="182.5615">2</text><text fill="#000000" font-family="sans-serif" font-size="13" lengthAdjust="spacing" textLength="208.8379" x="112.8022" y="182.5615">requestMaintenanceTypeSelection()</text><polygon fill="#181818" points="458.1567,215.1152,468.1567,219.1152,458.1567,223.1152,462.1567,219.1152" style="stroke:#181818;stroke-width:1.0;"/><line style="stroke:#181818;stroke-width:1.0;" x1="84.5723" x2="464.1567" y1="219.1152" y2="219.1152"/><text fill="#000000" font-family="sans-serif" font-size="13" font-weight="bold" lengthAdjust="spacing" textLength="7.23" x="91.5723" y="213.8525">3</text><text fill="#000000" font-family="sans-serif" font-size="13" lengthAdjust="spacing" textLength="195.0952" x="102.8022" y="213.8525">selectMaintenanceType(identifier)</text><polygon fill="#181818" points="761.3638,246.4063,771.3638,250.4063,761.3638,254.4063,765.3638,250.4063" style="stroke:#181818;stroke-width:1.0;"/><line style="stroke:#181818;stroke-width:1.0;" x1="480.1567" x2="767.3638" y1="250.4063" y2="250.4063"/><text fill="#000000" font-family="sans-serif" font-size="13" font-weight="bold" lengthAdjust="spacing" textLength="7.23" x="487.1567" y="245.1436">4</text><text fill="#000000" font-family="sans-serif" font-size="13" lengthAdjust="spacing" textLength="36.1309" x="498.3867" y="245.1436">create</text><rect fill="#E3E3E3" height="32.6211" rx="2.5" ry="2.5" style="stroke:#181818;stroke-width:0.5;" width="213.9922" x="773.3638" y="227.1152"/><text fill="#000000" font-family="sans-serif" font-size="14" lengthAdjust="spacing" textLength="199.9922" x="780.3638" y="249.2227">:EditMaintenanceTypeController</text><polygon fill="#181818" points="863.3599,290.0273,873.3599,294.0273,863.3599,298.0273,867.3599,294.0273" style="stroke:#181818;stroke-width:1.0;"/><line style="stroke:#181818;stroke-width:1.0;" x1="480.1567" x2="869.3599" y1="294.0273" y2="294.0273"/><text fill="#000000" font-family="sans-serif" font-size="13" font-weight="bold" lengthAdjust="spacing" textLength="7.23" x="487.1567" y="288.7646">5</text><text fill="#000000" font-family="sans-serif" font-size="13" lengthAdjust="spacing" textLength="179.207" x="498.3867" y="288.7646">getMaintenanceType(identifier)</text><polygon fill="#181818" points="1331.5229,321.3184,1341.5229,325.3184,1331.5229,329.3184,1335.5229,325.3184" style="stroke:#181818;stroke-width:1.0;"/><line style="stroke:#181818;stroke-width:1.0;" x1="885.3599" x2="1337.5229" y1="325.3184" y2="325.3184"/><text fill="#000000" font-family="sans-serif" font-size="13" font-weight="bold" lengthAdjust="spacing" textLength="7.23" x="892.3599" y="320.0557">6</text><text fill="#000000" font-family="sans-serif" font-size="13" lengthAdjust="spacing" textLength="174.1353" x="903.5898" y="320.0557">maintenanceTypeRepository()</text><rect fill="#E3E3E3" height="51.2422" rx="2.5" ry="2.5" style="stroke:#181818;stroke-width:0.5;" width="136.9375" x="1343.5229" y="302.0273"/><text fill="#000000" font-family="sans-serif" font-size="14" lengthAdjust="spacing" textLength="113.5996" x="1355.1919" y="324.1348">repositoryProvider</text><text fill="#000000" font-family="sans-serif" font-size="14" lengthAdjust="spacing" textLength="122.9375" x="1350.5229" y="342.7559">:RepositoryProvider</text><polygon fill="#181818" points="896.3599,383.5605,886.3599,387.5605,896.3599,391.5605,892.3599,387.5605" style="stroke:#181818;stroke-width:1.0;"/><line style="stroke:#181818;stroke-width:1.0;stroke-dasharray:2.0,2.0;" x1="890.3599" x2="1410.9917" y1="387.5605" y2="387.5605"/><text fill="#000000" font-family="sans-serif" font-size="13" font-weight="bold" lengthAdjust="spacing" textLength="7.23" x="902.3599" y="382.2979">7</text><text fill="#000000" font-family="sans-serif" font-size="13" lengthAdjust="spacing" textLength="207.3335" x="913.5898" y="382.2979">repository (dynamic: JPA or InMem)</text><polygon fill="#181818" points="1571.5083,414.8516,1581.5083,418.8516,1571.5083,422.8516,1575.5083,418.8516" style="stroke:#181818;stroke-width:1.0;"/><line style="stroke:#181818;stroke-width:1.0;" x1="885.3599" x2="1577.5083" y1="418.8516" y2="418.8516"/><text fill="#000000" font-family="sans-serif" font-size="13" font-weight="bold" lengthAdjust="spacing" textLength="7.23" x="892.3599" y="413.5889">8</text><text fill="#000000" font-family="sans-serif" font-size="13" lengthAdjust="spacing" textLength="104.7681" x="903.5898" y="413.5889">findById(identifier)</text><polygon fill="#181818" points="896.3599,446.1426,886.3599,450.1426,896.3599,454.1426,892.3599,450.1426" style="stroke:#181818;stroke-width:1.0;"/><line style="stroke:#181818;stroke-width:1.0;stroke-dasharray:2.0,2.0;" x1="890.3599" x2="1587.5083" y1="450.1426" y2="450.1426"/><text fill="#000000" font-family="sans-serif" font-size="13" font-weight="bold" lengthAdjust="spacing" textLength="7.23" x="902.3599" y="444.8799">9</text><text fill="#000000" font-family="sans-serif" font-size="13" lengthAdjust="spacing" textLength="166.9434" x="913.5898" y="444.8799">Optional&lt;MaintenanceType&gt;</text><path d="M10,465.1426 L70.1709,465.1426 L70.1709,474.4336 L60.1709,484.4336 L10,484.4336 L10,465.1426 " fill="#EEEEEE" style="stroke:#000000;stroke-width:1.5;"/><rect fill="none" height="1111.8262" style="stroke:#000000;stroke-width:1.5;" width="2114.1416" x="10" y="465.1426"/><text fill="#000000" font-family="sans-serif" font-size="13" font-weight="bold" lengthAdjust="spacing" textLength="15.1709" x="25" y="480.1709">alt</text><text fill="#000000" font-family="sans-serif" font-size="11" font-weight="bold" lengthAdjust="spacing" textLength="154" x="85.1709" y="479.0127">[maintenance type not found]</text><polygon fill="#181818" points="491.1567,503.7246,481.1567,507.7246,491.1567,511.7246,487.1567,507.7246" style="stroke:#181818;stroke-width:1.0;"/><line style="stroke:#181818;stroke-width:1.0;stroke-dasharray:2.0,2.0;" x1="485.1567" x2="874.3599" y1="507.7246" y2="507.7246"/><text fill="#000000" font-family="sans-serif" font-size="13" font-weight="bold" lengthAdjust="spacing" textLength="14.46" x="497.1567" y="502.4619">10</text><text fill="#000000" font-family="sans-serif" font-size="13" lengthAdjust="spacing" textLength="258.5337" x="515.6167" y="502.4619">errorMessage("Maintenance type not found")</text><polygon fill="#181818" points="95.5723,535.0156,85.5723,539.0156,95.5723,543.0156,91.5723,539.0156" style="stroke:#181818;stroke-width:1.0;"/><line style="stroke:#181818;stroke-width:1.0;stroke-dasharray:2.0,2.0;" x1="89.5723" x2="474.1567" y1="539.0156" y2="539.0156"/><text fill="#000000" font-family="sans-serif" font-size="13" font-weight="bold" lengthAdjust="spacing" textLength="14.46" x="101.5723" y="533.7529">11</text><text fill="#000000" font-family="sans-serif" font-size="13" lengthAdjust="spacing" textLength="258.5337" x="120.0322" y="533.7529">errorMessage("Maintenance type not found")</text><line style="stroke:#000000;stroke-width:1.0;stroke-dasharray:2.0,2.0;" x1="10" x2="2124.1416" y1="548.0156" y2="548.0156"/><text fill="#000000" font-family="sans-serif" font-size="11" font-weight="bold" lengthAdjust="spacing" textLength="133.8423" x="15" y="559.8857">[maintenance type found]</text><polygon fill="#181818" points="486.1567,582.9375,476.1567,586.9375,486.1567,590.9375,482.1567,586.9375" style="stroke:#181818;stroke-width:1.0;"/><line style="stroke:#181818;stroke-width:1.0;stroke-dasharray:2.0,2.0;" x1="480.1567" x2="879.3599" y1="586.9375" y2="586.9375"/><text fill="#000000" font-family="sans-serif" font-size="13" font-weight="bold" lengthAdjust="spacing" textLength="14.46" x="492.1567" y="581.6748">12</text><text fill="#000000" font-family="sans-serif" font-size="13" lengthAdjust="spacing" textLength="103.3398" x="510.6167" y="581.6748">maintenanceType</text><polygon fill="#181818" points="95.5723,614.2285,85.5723,618.2285,95.5723,622.2285,91.5723,618.2285" style="stroke:#181818;stroke-width:1.0;"/><line style="stroke:#181818;stroke-width:1.0;stroke-dasharray:2.0,2.0;" x1="89.5723" x2="474.1567" y1="618.2285" y2="618.2285"/><text fill="#000000" font-family="sans-serif" font-size="13" font-weight="bold" lengthAdjust="spacing" textLength="14.46" x="101.5723" y="612.9658">13</text><text fill="#000000" font-family="sans-serif" font-size="13" lengthAdjust="spacing" textLength="140.9053" x="120.0322" y="612.9658">requestUpdatedDetails()</text><polygon fill="#181818" points="463.1567,645.5195,473.1567,649.5195,463.1567,653.5195,467.1567,649.5195" style="stroke:#181818;stroke-width:1.0;"/><line style="stroke:#181818;stroke-width:1.0;" x1="84.5723" x2="469.1567" y1="649.5195" y2="649.5195"/><text fill="#000000" font-family="sans-serif" font-size="13" font-weight="bold" lengthAdjust="spacing" textLength="14.46" x="91.5723" y="644.2568">14</text><text fill="#000000" font-family="sans-serif" font-size="13" lengthAdjust="spacing" textLength="294.8042" x="110.0322" y="644.2568">provideUpdatedDetails(newName, newDescription)</text><polygon fill="#181818" points="761.3638,676.8105,771.3638,680.8105,761.3638,684.8105,765.3638,680.8105" style="stroke:#181818;stroke-width:1.0;"/><line style="stroke:#181818;stroke-width:1.0;" x1="475.1567" x2="767.3638" y1="680.8105" y2="680.8105"/><text fill="#000000" font-family="sans-serif" font-size="13" font-weight="bold" lengthAdjust="spacing" textLength="14.46" x="482.1567" y="675.5479">15</text><text fill="#000000" font-family="sans-serif" font-size="13" lengthAdjust="spacing" textLength="36.1309" x="500.6167" y="675.5479">create</text><rect fill="#E3E3E3" height="32.6211" rx="2.5" ry="2.5" style="stroke:#181818;stroke-width:0.5;" width="213.9922" x="773.3638" y="657.5195"/><text fill="#000000" font-family="sans-serif" font-size="14" lengthAdjust="spacing" textLength="199.9922" x="780.3638" y="679.627">:EditMaintenanceTypeController</text><polygon fill="#181818" points="863.3599,720.4316,873.3599,724.4316,863.3599,728.4316,867.3599,724.4316" style="stroke:#181818;stroke-width:1.0;"/><line style="stroke:#181818;stroke-width:1.0;" x1="475.1567" x2="869.3599" y1="724.4316" y2="724.4316"/><text fill="#000000" font-family="sans-serif" font-size="13" font-weight="bold" lengthAdjust="spacing" textLength="14.46" x="482.1567" y="719.1689">16</text><text fill="#000000" font-family="sans-serif" font-size="13" lengthAdjust="spacing" textLength="362.7432" x="500.6167" y="719.1689">updateMaintenanceType(identifier, newName, newDescription)</text><polygon fill="#181818" points="1019.1343,751.7227,1029.1343,755.7227,1019.1343,759.7227,1023.1343,755.7227" style="stroke:#181818;stroke-width:1.0;"/><line style="stroke:#181818;stroke-width:1.0;" x1="885.3599" x2="1025.1343" y1="755.7227" y2="755.7227"/><text fill="#000000" font-family="sans-serif" font-size="13" font-weight="bold" lengthAdjust="spacing" textLength="14.46" x="892.3599" y="750.46">17</text><text fill="#000000" font-family="sans-serif" font-size="13" lengthAdjust="spacing" textLength="103.3145" x="910.8198" y="750.46">create(newName)</text><rect fill="#E3E3E3" height="32.6211" rx="2.5" ry="2.5" style="stroke:#181818;stroke-width:0.5;" width="51.3447" x="1031.1343" y="732.4316"/><text fill="#000000" font-family="sans-serif" font-size="14" lengthAdjust="spacing" textLength="37.3447" x="1038.1343" y="754.5391">Name</text><line style="stroke:#181818;stroke-width:1.0;" x1="1061.8066" x2="1103.8066" y1="799.3438" y2="799.3438"/><line style="stroke:#181818;stroke-width:1.0;" x1="1103.8066" x2="1103.8066" y1="799.3438" y2="812.3438"/><line style="stroke:#181818;stroke-width:1.0;" x1="1062.8066" x2="1103.8066" y1="812.3438" y2="812.3438"/><polygon fill="#181818" points="1072.8066,808.3438,1062.8066,812.3438,1072.8066,816.3438,1068.8066,812.3438" style="stroke:#181818;stroke-width:1.0;"/><text fill="#000000" font-family="sans-serif" font-size="13" font-weight="bold" lengthAdjust="spacing" textLength="14.46" x="1068.8066" y="794.0811">18</text><text fill="#000000" font-family="sans-serif" font-size="13" lengthAdjust="spacing" textLength="46.9536" x="1087.2666" y="794.0811">isValid()</text><polygon fill="#181818" points="896.3599,839.6348,886.3599,843.6348,896.3599,847.6348,892.3599,843.6348" style="stroke:#181818;stroke-width:1.0;"/><line style="stroke:#181818;stroke-width:1.0;stroke-dasharray:2.0,2.0;" x1="890.3599" x2="1055.8066" y1="843.6348" y2="843.6348"/><text fill="#000000" font-family="sans-serif" font-size="13" font-weight="bold" lengthAdjust="spacing" textLength="14.46" x="902.3599" y="838.3721">19</text><text fill="#000000" font-family="sans-serif" font-size="13" lengthAdjust="spacing" textLength="86.709" x="920.8198" y="838.3721">Name instance</text><polygon fill="#181818" points="1102.2065,870.9258,1112.2065,874.9258,1102.2065,878.9258,1106.2065,874.9258" style="stroke:#181818;stroke-width:1.0;"/><line style="stroke:#181818;stroke-width:1.0;" x1="885.3599" x2="1108.2065" y1="874.9258" y2="874.9258"/><text fill="#000000" font-family="sans-serif" font-size="13" font-weight="bold" lengthAdjust="spacing" textLength="14.46" x="892.3599" y="869.6631">20</text><text fill="#000000" font-family="sans-serif" font-size="13" lengthAdjust="spacing" textLength="133.6626" x="910.8198" y="869.6631">create(newDescription)</text><rect fill="#E3E3E3" height="32.6211" rx="2.5" ry="2.5" style="stroke:#181818;stroke-width:0.5;" width="84.0273" x="1114.2065" y="851.6348"/><text fill="#000000" font-family="sans-serif" font-size="14" lengthAdjust="spacing" textLength="70.0273" x="1121.2065" y="873.7422">Description</text><polygon fill="#181818" points="896.3599,914.5469,886.3599,918.5469,896.3599,922.5469,892.3599,918.5469" style="stroke:#181818;stroke-width:1.0;"/><line style="stroke:#181818;stroke-width:1.0;stroke-dasharray:2.0,2.0;" x1="890.3599" x2="1155.2202" y1="918.5469" y2="918.5469"/><text fill="#000000" font-family="sans-serif" font-size="13" font-weight="bold" lengthAdjust="spacing" textLength="14.46" x="902.3599" y="913.2842">21</text><text fill="#000000" font-family="sans-serif" font-size="13" lengthAdjust="spacing" textLength="117.0571" x="920.8198" y="913.2842">Description instance</text><polygon fill="#181818" points="1571.5083,945.8379,1581.5083,949.8379,1571.5083,953.8379,1575.5083,949.8379" style="stroke:#181818;stroke-width:1.0;"/><line style="stroke:#181818;stroke-width:1.0;" x1="885.3599" x2="1577.5083" y1="949.8379" y2="949.8379"/><text fill="#000000" font-family="sans-serif" font-size="13" font-weight="bold" lengthAdjust="spacing" textLength="14.46" x="892.3599" y="944.5752">22</text><text fill="#000000" font-family="sans-serif" font-size="13" lengthAdjust="spacing" textLength="137.9917" x="910.8198" y="944.5752">findByName(newName)</text><polygon fill="#181818" points="896.3599,977.1289,886.3599,981.1289,896.3599,985.1289,892.3599,981.1289" style="stroke:#181818;stroke-width:1.0;"/><line style="stroke:#181818;stroke-width:1.0;stroke-dasharray:2.0,2.0;" x1="890.3599" x2="1587.5083" y1="981.1289" y2="981.1289"/><text fill="#000000" font-family="sans-serif" font-size="13" font-weight="bold" lengthAdjust="spacing" textLength="14.46" x="902.3599" y="975.8662">23</text><text fill="#000000" font-family="sans-serif" font-size="13" lengthAdjust="spacing" textLength="166.9434" x="920.8198" y="975.8662">Optional&lt;MaintenanceType&gt;</text><path d="M20,996.1289 L80.1709,996.1289 L80.1709,1005.4199 L70.1709,1015.4199 L20,1015.4199 L20,996.1289 " fill="#EEEEEE" style="stroke:#000000;stroke-width:1.5;"/><rect fill="none" height="573.8398" style="stroke:#000000;stroke-width:1.5;" width="2094.1416" x="20" y="996.1289"/><text fill="#000000" font-family="sans-serif" font-size="13" font-weight="bold" lengthAdjust="spacing" textLength="15.1709" x="35" y="1011.1572">alt</text><text fill="#000000" font-family="sans-serif" font-size="11" font-weight="bold" lengthAdjust="spacing" textLength="107.5562" x="95.1709" y="1009.999">[name is not unique]</text><polygon fill="#181818" points="486.1567,1034.7109,476.1567,1038.7109,486.1567,1042.7109,482.1567,1038.7109" style="stroke:#181818;stroke-width:1.0;"/><line style="stroke:#181818;stroke-width:1.0;stroke-dasharray:2.0,2.0;" x1="480.1567" x2="874.3599" y1="1038.7109" y2="1038.7109"/><text fill="#000000" font-family="sans-serif" font-size="13" font-weight="bold" lengthAdjust="spacing" textLength="14.46" x="492.1567" y="1033.4482">24</text><text fill="#000000" font-family="sans-serif" font-size="13" lengthAdjust="spacing" textLength="298.2573" x="510.6167" y="1033.4482">errorMessage("Duplicate maintenance type name!")</text><polygon fill="#181818" points="95.5723,1066.002,85.5723,1070.002,95.5723,1074.002,91.5723,1070.002" style="stroke:#181818;stroke-width:1.0;"/><line style="stroke:#181818;stroke-width:1.0;stroke-dasharray:2.0,2.0;" x1="89.5723" x2="474.1567" y1="1070.002" y2="1070.002"/><text fill="#000000" font-family="sans-serif" font-size="13" font-weight="bold" lengthAdjust="spacing" textLength="14.46" x="101.5723" y="1064.7393">25</text><text fill="#000000" font-family="sans-serif" font-size="13" lengthAdjust="spacing" textLength="298.2573" x="120.0322" y="1064.7393">errorMessage("Duplicate maintenance type name!")</text><line style="stroke:#000000;stroke-width:1.0;stroke-dasharray:2.0,2.0;" x1="20" x2="2114.1416" y1="1079.002" y2="1079.002"/><text fill="#000000" font-family="sans-serif" font-size="11" font-weight="bold" lengthAdjust="spacing" textLength="87.3984" x="25" y="1090.8721">[name is unique]</text><polygon fill="#181818" points="1253.8784,1113.9238,1263.8784,1117.9238,1253.8784,1121.9238,1257.8784,1117.9238" style="stroke:#181818;stroke-width:1.0;"/><line style="stroke:#181818;stroke-width:1.0;" x1="880.3599" x2="1259.8784" y1="1117.9238" y2="1117.9238"/><text fill="#000000" font-family="sans-serif" font-size="13" font-weight="bold" lengthAdjust="spacing" textLength="14.46" x="887.3599" y="1112.6611">26</text><text fill="#000000" font-family="sans-serif" font-size="13" lengthAdjust="spacing" textLength="203.0425" x="905.8198" y="1112.6611">update(newName, newDescription)</text><polygon fill="#181818" points="891.3599,1145.2148,881.3599,1149.2148,891.3599,1153.2148,887.3599,1149.2148" style="stroke:#181818;stroke-width:1.0;"/><line style="stroke:#181818;stroke-width:1.0;stroke-dasharray:2.0,2.0;" x1="885.3599" x2="1269.8784" y1="1149.2148" y2="1149.2148"/><text fill="#000000" font-family="sans-serif" font-size="13" font-weight="bold" lengthAdjust="spacing" textLength="14.46" x="897.3599" y="1143.9521">27</text><text fill="#000000" font-family="sans-serif" font-size="13" lengthAdjust="spacing" textLength="153.9434" x="915.8198" y="1143.9521">updated MaintenanceType</text><polygon fill="#181818" points="1571.5083,1176.5059,1581.5083,1180.5059,1571.5083,1184.5059,1575.5083,1180.5059" style="stroke:#181818;stroke-width:1.0;"/><line style="stroke:#181818;stroke-width:1.0;" x1="880.3599" x2="1577.5083" y1="1180.5059" y2="1180.5059"/><text fill="#000000" font-family="sans-serif" font-size="13" font-weight="bold" lengthAdjust="spacing" textLength="14.46" x="887.3599" y="1175.2432">28</text><text fill="#000000" font-family="sans-serif" font-size="13" lengthAdjust="spacing" textLength="139.458" x="905.8198" y="1175.2432">save(maintenanceType)</text><path d="M1480.4604,1195.5059 L1540.6313,1195.5059 L1540.6313,1204.7969 L1530.6313,1214.7969 L1480.4604,1214.7969 L1480.4604,1195.5059 " fill="#EEEEEE" style="stroke:#000000;stroke-width:1.5;"/><rect fill="none" height="161.0859" style="stroke:#000000;stroke-width:1.5;" width="623.6812" x="1480.4604" y="1195.5059"/><text fill="#000000" font-family="sans-serif" font-size="13" font-weight="bold" lengthAdjust="spacing" textLength="15.1709" x="1495.4604" y="1210.5342">alt</text><text fill="#000000" font-family="sans-serif" font-size="11" font-weight="bold" lengthAdjust="spacing" textLength="216.3799" x="1555.6313" y="1209.376">[Repository is MaintenanceTypeJPAImpl]</text><polygon fill="#181818" points="1790.9116,1234.0879,1800.9116,1238.0879,1790.9116,1242.0879,1794.9116,1238.0879" style="stroke:#181818;stroke-width:1.0;"/><line style="stroke:#181818;stroke-width:1.0;" x1="1593.5083" x2="1796.9116" y1="1238.0879" y2="1238.0879"/><text fill="#000000" font-family="sans-serif" font-size="13" font-weight="bold" lengthAdjust="spacing" textLength="14.46" x="1600.5083" y="1232.8252">29</text><text fill="#000000" font-family="sans-serif" font-size="13" lengthAdjust="spacing" textLength="139.458" x="1618.9683" y="1232.8252">save(maintenanceType)</text><polygon fill="#181818" points="1604.5083,1265.3789,1594.5083,1269.3789,1604.5083,1273.3789,1600.5083,1269.3789" style="stroke:#181818;stroke-width:1.0;"/><line style="stroke:#181818;stroke-width:1.0;stroke-dasharray:2.0,2.0;" x1="1598.5083" x2="1806.9116" y1="1269.3789" y2="1269.3789"/><text fill="#000000" font-family="sans-serif" font-size="13" font-weight="bold" lengthAdjust="spacing" textLength="14.46" x="1610.5083" y="1264.1162">30</text><text fill="#000000" font-family="sans-serif" font-size="13" lengthAdjust="spacing" textLength="166.9434" x="1628.9683" y="1264.1162">Optional&lt;MaintenanceType&gt;</text><line style="stroke:#000000;stroke-width:1.0;stroke-dasharray:2.0,2.0;" x1="1480.4604" x2="2104.1416" y1="1278.3789" y2="1278.3789"/><text fill="#000000" font-family="sans-serif" font-size="11" font-weight="bold" lengthAdjust="spacing" textLength="224.3237" x="1485.4604" y="1290.249">[Repository is MaintenanceTypeInMemory]</text><polygon fill="#181818" points="1983.3799,1313.3008,1993.3799,1317.3008,1983.3799,1321.3008,1987.3799,1317.3008" style="stroke:#181818;stroke-width:1.0;"/><line style="stroke:#181818;stroke-width:1.0;" x1="1593.5083" x2="1989.3799" y1="1317.3008" y2="1317.3008"/><text fill="#000000" font-family="sans-serif" font-size="13" font-weight="bold" lengthAdjust="spacing" textLength="14.46" x="1600.5083" y="1312.0381">31</text><text fill="#000000" font-family="sans-serif" font-size="13" lengthAdjust="spacing" textLength="139.458" x="1618.9683" y="1312.0381">save(maintenanceType)</text><polygon fill="#181818" points="1604.5083,1344.5918,1594.5083,1348.5918,1604.5083,1352.5918,1600.5083,1348.5918" style="stroke:#181818;stroke-width:1.0;"/><line style="stroke:#181818;stroke-width:1.0;stroke-dasharray:2.0,2.0;" x1="1598.5083" x2="1999.3799" y1="1348.5918" y2="1348.5918"/><text fill="#000000" font-family="sans-serif" font-size="13" font-weight="bold" lengthAdjust="spacing" textLength="14.46" x="1610.5083" y="1343.3291">32</text><text fill="#000000" font-family="sans-serif" font-size="13" lengthAdjust="spacing" textLength="166.9434" x="1628.9683" y="1343.3291">Optional&lt;MaintenanceType&gt;</text><polygon fill="#181818" points="891.3599,1382.8828,881.3599,1386.8828,891.3599,1390.8828,887.3599,1386.8828" style="stroke:#181818;stroke-width:1.0;"/><line style="stroke:#181818;stroke-width:1.0;stroke-dasharray:2.0,2.0;" x1="885.3599" x2="1587.5083" y1="1386.8828" y2="1386.8828"/><text fill="#000000" font-family="sans-serif" font-size="13" font-weight="bold" lengthAdjust="spacing" textLength="14.46" x="897.3599" y="1381.6201">33</text><text fill="#000000" font-family="sans-serif" font-size="13" lengthAdjust="spacing" textLength="166.9434" x="915.8198" y="1381.6201">Optional&lt;MaintenanceType&gt;</text><path d="M30,1401.8828 L90.1709,1401.8828 L90.1709,1411.1738 L80.1709,1421.1738 L30,1421.1738 L30,1401.8828 " fill="#EEEEEE" style="stroke:#000000;stroke-width:1.5;"/><rect fill="none" height="161.0859" style="stroke:#000000;stroke-width:1.5;" width="967.356" x="30" y="1401.8828"/><text fill="#000000" font-family="sans-serif" font-size="13" font-weight="bold" lengthAdjust="spacing" textLength="15.1709" x="45" y="1416.9111">alt</text><text fill="#000000" font-family="sans-serif" font-size="11" font-weight="bold" lengthAdjust="spacing" textLength="63.583" x="105.1709" y="1415.7529">[save failed]</text><polygon fill="#181818" points="486.1567,1440.4648,476.1567,1444.4648,486.1567,1448.4648,482.1567,1444.4648" style="stroke:#181818;stroke-width:1.0;"/><line style="stroke:#181818;stroke-width:1.0;stroke-dasharray:2.0,2.0;" x1="480.1567" x2="879.3599" y1="1444.4648" y2="1444.4648"/><text fill="#000000" font-family="sans-serif" font-size="13" font-weight="bold" lengthAdjust="spacing" textLength="14.46" x="492.1567" y="1439.2021">34</text><text fill="#000000" font-family="sans-serif" font-size="13" lengthAdjust="spacing" textLength="301.1646" x="510.6167" y="1439.2021">errorMessage("Failed to update maintenance type!")</text><polygon fill="#181818" points="95.5723,1471.7559,85.5723,1475.7559,95.5723,1479.7559,91.5723,1475.7559" style="stroke:#181818;stroke-width:1.0;"/><line style="stroke:#181818;stroke-width:1.0;stroke-dasharray:2.0,2.0;" x1="89.5723" x2="474.1567" y1="1475.7559" y2="1475.7559"/><text fill="#000000" font-family="sans-serif" font-size="13" font-weight="bold" lengthAdjust="spacing" textLength="14.46" x="101.5723" y="1470.4932">35</text><text fill="#000000" font-family="sans-serif" font-size="13" lengthAdjust="spacing" textLength="301.1646" x="120.0322" y="1470.4932">errorMessage("Failed to update maintenance type!")</text><line style="stroke:#000000;stroke-width:1.0;stroke-dasharray:2.0,2.0;" x1="30" x2="997.356" y1="1484.7559" y2="1484.7559"/><text fill="#000000" font-family="sans-serif" font-size="11" font-weight="bold" lengthAdjust="spacing" textLength="91.7168" x="35" y="1496.626">[save succeeded]</text><polygon fill="#181818" points="486.1567,1519.6777,476.1567,1523.6777,486.1567,1527.6777,482.1567,1523.6777" style="stroke:#181818;stroke-width:1.0;"/><line style="stroke:#181818;stroke-width:1.0;stroke-dasharray:2.0,2.0;" x1="480.1567" x2="879.3599" y1="1523.6777" y2="1523.6777"/><text fill="#000000" font-family="sans-serif" font-size="13" font-weight="bold" lengthAdjust="spacing" textLength="14.46" x="492.1567" y="1518.415">36</text><text fill="#000000" font-family="sans-serif" font-size="13" lengthAdjust="spacing" textLength="348.1245" x="510.6167" y="1518.415">successMessage("Maintenance type updated successfully!")</text><polygon fill="#181818" points="95.5723,1550.9688,85.5723,1554.9688,95.5723,1558.9688,91.5723,1554.9688" style="stroke:#181818;stroke-width:1.0;"/><line style="stroke:#181818;stroke-width:1.0;stroke-dasharray:2.0,2.0;" x1="89.5723" x2="474.1567" y1="1554.9688" y2="1554.9688"/><text fill="#000000" font-family="sans-serif" font-size="13" font-weight="bold" lengthAdjust="spacing" textLength="14.46" x="101.5723" y="1549.7061">37</text><text fill="#000000" font-family="sans-serif" font-size="13" lengthAdjust="spacing" textLength="348.1245" x="120.0322" y="1549.7061">successMessage("Maintenance type updated successfully!")</text><!--SRC=[fLRBRjim4BphArYVdA3-0Q4mq4OjuA9kWjZ9gHTMMZj4958bgGJ- -ovNBugMb1Z9mP78dTdXlYZpB6J9DIzOeQHAdxGgW5bTGMIwdPAdp_m8EtlAWMb8BPV7t3SmJpnJhq8UsO7d1gB82ekcE_XNWKo19O8VdTrobron5VkU2SksN4WBahlz_Qb44A-iabNn5pG-frPfjaYqahWDwTE2SSEIVOGEhKX5oQLbYzWnUKIEvs53fW-RjqrlbBHQvJbeWjpixtyDGRzv0RJb7XvlXvi9c5IBqWebQt7u7je43ibk6nn2GwcCmEEUxhHw4HdeFpA-FriaRFiowwN78j7a7l6vrrckdtTVDqMPap4-pzfkv1QAbfbUA8_YXLjmgOkIFLkjCJCn5X5MXh4ZELbUzHZCuSE6hH2Jx3jCOB-370iISu3037oevywGKUW90ocjE0ZGvpxNL0ti-ZfcgGRSy5PZTeJtaL55HSI4s3Pvn5fCvSKFG9Vk3hhgDFHbmvRPIV92fB5B4SE-eU0Fuj4nTMgSnvWTXCo-dJRPk7ug3_VZ-RsbYkVvbo02QzyT0IEUM_-SpA8PaygoWwfa5Z7ygzKqQGAjbTw2CJXibdvr1SZ55M6zshWGwIcb50LhM0E0O-nS-uJk89UXkAPm7yeCoRC4B1UvMKuhwUkshBCM82MykddqcU63DuJwe9mNxt0dPXKnJjSmSKyx2Ggy3yYwcPIUxrPkW6mcgbjh81quPi8yybnaJOpQ_KwzMs126kkKXs5iY0UYwj4SY9e-LJF9AHSrilVjeIObDFY11B_TdCI9i53Zk9LtTrtWk-uyuiJkanGfGmrGIO5rI5jlT5vIbRb87TjvzoBXfwQBPdlm0ewn7g3-QzMFAb_ZHTeMydnB30ACjs-xjjrx0Qw9ChOTwUL095ASQQdJQ_WBB8DfCAAXItARfdxwk-EENy4TeA-EjPltRtaTU7PNkB_XxejL9t- -o4OYuTDHncOFqduVZ9w4DYywI_s5uM_HoaVECwI4PjPVt8wJBTdcsvqIFvL53jb0oanF_Y1hPbLJgMTjvNVKR6TUn4HP9RccIbE0R4uncHWpVG-tJTOO7geyFyte_Z1Vcy7sVpXft7hmrUYFyNtq7m00]--></g></svg>