<svg xmlns="http://www.w3.org/2000/svg" xmlns:xlink="http://www.w3.org/1999/xlink" contentStyleType="text/css" height="2037px" preserveAspectRatio="none" style="width:2684px;height:2037px;background:#FFFFFF;" version="1.1" viewBox="0 0 2684 2037" width="2684px" zoomAndPan="magnify"><title>UI Sequence Diagram (SD) - Edit a Maintenance Type</title><defs/><g><text fill="#000000" font-family="sans-serif" font-size="14" font-weight="bold" lengthAdjust="spacing" textLength="352.4131" x="1166.7993" y="30.1074">UI Sequence Diagram (SD) - Edit a Maintenance Type</text><rect fill="#FFFFFF" height="1811.3164" style="stroke:#181818;stroke-width:1.0;" width="10" x="74.5723" y="133.2422"/><rect fill="#FFFFFF" height="451.7051" style="stroke:#181818;stroke-width:1.0;" width="10" x="470.1567" y="156.5332"/><rect fill="#FFFFFF" height="362.832" style="stroke:#181818;stroke-width:1.0;" width="10" x="716.29" y="187.8242"/><rect fill="#FFFFFF" height="591.2383" style="stroke:#181818;stroke-width:1.0;" width="10" x="990.1997" y="1218.8164"/><rect fill="#FFFFFF" height="33.6211" style="stroke:#181818;stroke-width:1.0;" width="10" x="1188.5127" y="874.9063"/><rect fill="#FFFFFF" height="33.6211" style="stroke:#181818;stroke-width:1.0;" width="10" x="1321.8433" y="1060.6914"/><rect fill="#FFFFFF" height="31.291" style="stroke:#181818;stroke-width:1.0;" width="10" x="1436.5015" y="1283.7285"/><rect fill="#FFFFFF" height="31.291" style="stroke:#181818;stroke-width:1.0;" width="10" x="1436.5015" y="1346.3105"/><rect fill="#FFFFFF" height="31.291" style="stroke:#181818;stroke-width:1.0;" width="10" x="1577.6147" y="250.4063"/><rect fill="#FFFFFF" height="33.6211" style="stroke:#181818;stroke-width:1.0;" width="10" x="1577.6147" y="1418.8926"/><rect fill="#FFFFFF" height="206.377" style="stroke:#181818;stroke-width:1.0;" width="10" x="1754.1313" y="312.9883"/><rect fill="#FFFFFF" height="294.959" style="stroke:#181818;stroke-width:1.0;" width="10" x="1754.1313" y="1483.8047"/><rect fill="#FFFFFF" height="31.291" style="stroke:#181818;stroke-width:1.0;" width="10" x="2115.9399" y="370.5703"/><rect fill="#FFFFFF" height="119.873" style="stroke:#181818;stroke-width:1.0;" width="10" x="2115.9399" y="1541.3867"/><rect fill="#FFFFFF" height="31.291" style="stroke:#181818;stroke-width:1.0;" width="10" x="2551.3604" y="449.7832"/><rect fill="#FFFFFF" height="31.291" style="stroke:#181818;stroke-width:1.0;" width="10" x="2551.3604" y="1709.1816"/><rect fill="none" height="161.0859" style="stroke:#000000;stroke-width:1.5;" width="1005.9282" x="1651.0835" y="327.9883"/><rect fill="none" height="1371.9023" style="stroke:#000000;stroke-width:1.5;" width="2667.0117" x="10" y="565.6563"/><rect fill="none" height="96.2031" style="stroke:#000000;stroke-width:1.5;" width="903.3242" x="381.5054" y="822.3242"/><rect fill="none" height="96.2031" style="stroke:#000000;stroke-width:1.5;" width="997.3516" x="381.5054" y="1008.1094"/><rect fill="none" height="812.2461" style="stroke:#000000;stroke-width:1.5;" width="2647.0117" x="20" y="1118.3125"/><rect fill="none" height="249.668" style="stroke:#000000;stroke-width:1.5;" width="1005.9282" x="1651.0835" y="1498.8047"/><rect fill="none" height="98.5039" style="stroke:#000000;stroke-width:1.5;" width="538.8081" x="30" y="1825.0547"/><line style="stroke:#181818;stroke-width:0.5;stroke-dasharray:5.0,5.0;" x1="79" x2="79" y1="123.2422" y2="1954.5586"/><line style="stroke:#181818;stroke-width:0.5;stroke-dasharray:5.0,5.0;" x1="474.5054" x2="474.5054" y1="123.2422" y2="1954.5586"/><line style="stroke:#181818;stroke-width:0.5;stroke-dasharray:5.0,5.0;" x1="721.0732" x2="721.0732" y1="123.2422" y2="1954.5586"/><line style="stroke:#181818;stroke-width:0.5;stroke-dasharray:5.0,5.0;" x1="994.2036" x2="994.2036" y1="1217.3359" y2="1954.5586"/><line style="stroke:#181818;stroke-width:0.5;stroke-dasharray:5.0,5.0;" x1="1193.1958" x2="1193.1958" y1="873.4258" y2="1954.5586"/><line style="stroke:#181818;stroke-width:0.5;stroke-dasharray:5.0,5.0;" x1="1326.8296" x2="1326.8296" y1="1059.2109" y2="1954.5586"/><line style="stroke:#181818;stroke-width:0.5;stroke-dasharray:5.0,5.0;" x1="1440.8569" x2="1440.8569" y1="123.2422" y2="1954.5586"/><line style="stroke:#181818;stroke-width:0.5;stroke-dasharray:5.0,5.0;" x1="1582.146" x2="1582.146" y1="1417.4121" y2="1954.5586"/><line style="stroke:#181818;stroke-width:0.5;stroke-dasharray:5.0,5.0;" x1="1759.0835" x2="1759.0835" y1="123.2422" y2="1954.5586"/><line style="stroke:#181818;stroke-width:0.5;stroke-dasharray:5.0,5.0;" x1="2120.7749" x2="2120.7749" y1="123.2422" y2="1954.5586"/><line style="stroke:#181818;stroke-width:0.5;stroke-dasharray:5.0,5.0;" x1="2555.709" x2="2555.709" y1="123.2422" y2="1954.5586"/><text fill="#000000" font-family="sans-serif" font-size="14" lengthAdjust="spacing" textLength="73.1445" x="40" y="119.7285">Drone Tech</text><ellipse cx="79.5723" cy="53.1211" fill="#E3E3E3" rx="8" ry="8" style="stroke:#181818;stroke-width:0.5;"/><path d="M79.5723,61.1211 L79.5723,88.1211 M66.5723,69.1211 L92.5723,69.1211 M79.5723,88.1211 L66.5723,103.1211 M79.5723,88.1211 L92.5723,103.1211 " fill="none" style="stroke:#181818;stroke-width:0.5;"/><text fill="#000000" font-family="sans-serif" font-size="14" lengthAdjust="spacing" textLength="73.1445" x="40" y="1968.666">Drone Tech</text><ellipse cx="79.5723" cy="1980.6797" fill="#E3E3E3" rx="8" ry="8" style="stroke:#181818;stroke-width:0.5;"/><path d="M79.5723,1988.6797 L79.5723,2015.6797 M66.5723,1996.6797 L92.5723,1996.6797 M79.5723,2015.6797 L66.5723,2030.6797 M79.5723,2015.6797 L92.5723,2030.6797 " fill="none" style="stroke:#181818;stroke-width:0.5;"/><rect fill="#E3E3E3" height="32.6211" rx="2.5" ry="2.5" style="stroke:#181818;stroke-width:0.5;" width="167.3027" x="391.5054" y="89.6211"/><text fill="#000000" font-family="sans-serif" font-size="14" lengthAdjust="spacing" textLength="153.3027" x="398.5054" y="111.7285">:EditMaintenanceTypeUI</text><rect fill="#E3E3E3" height="32.6211" rx="2.5" ry="2.5" style="stroke:#181818;stroke-width:0.5;" width="167.3027" x="391.5054" y="1953.5586"/><text fill="#000000" font-family="sans-serif" font-size="14" lengthAdjust="spacing" textLength="153.3027" x="398.5054" y="1975.666">:EditMaintenanceTypeUI</text><rect fill="#E3E3E3" height="32.6211" rx="2.5" ry="2.5" style="stroke:#181818;stroke-width:0.5;" width="212.4336" x="615.0732" y="89.6211"/><text fill="#000000" font-family="sans-serif" font-size="14" lengthAdjust="spacing" textLength="198.4336" x="622.0732" y="111.7285">:GetMaintenanceTypeController</text><rect fill="#E3E3E3" height="32.6211" rx="2.5" ry="2.5" style="stroke:#181818;stroke-width:0.5;" width="212.4336" x="615.0732" y="1953.5586"/><text fill="#000000" font-family="sans-serif" font-size="14" lengthAdjust="spacing" textLength="198.4336" x="622.0732" y="1975.666">:GetMaintenanceTypeController</text><rect fill="#E3E3E3" height="32.6211" rx="2.5" ry="2.5" style="stroke:#181818;stroke-width:0.5;" width="213.9922" x="888.2036" y="1953.5586"/><text fill="#000000" font-family="sans-serif" font-size="14" lengthAdjust="spacing" textLength="199.9922" x="895.2036" y="1975.666">:EditMaintenanceTypeController</text><rect fill="#E3E3E3" height="32.6211" rx="2.5" ry="2.5" style="stroke:#181818;stroke-width:0.5;" width="162.6338" x="1112.1958" y="1953.5586"/><text fill="#000000" font-family="sans-serif" font-size="14" lengthAdjust="spacing" textLength="148.6338" x="1119.1958" y="1975.666">MaintenanceTypeName</text><rect fill="#E3E3E3" height="32.6211" rx="2.5" ry="2.5" style="stroke:#181818;stroke-width:0.5;" width="84.0273" x="1284.8296" y="1953.5586"/><text fill="#000000" font-family="sans-serif" font-size="14" lengthAdjust="spacing" textLength="70.0273" x="1291.8296" y="1975.666">Description</text><rect fill="#E3E3E3" height="32.6211" rx="2.5" ry="2.5" style="stroke:#181818;stroke-width:0.5;" width="125.2891" x="1378.8569" y="89.6211"/><text fill="#000000" font-family="sans-serif" font-size="14" lengthAdjust="spacing" textLength="111.2891" x="1385.8569" y="111.7285">MaintenanceType</text><rect fill="#E3E3E3" height="32.6211" rx="2.5" ry="2.5" style="stroke:#181818;stroke-width:0.5;" width="125.2891" x="1378.8569" y="1953.5586"/><text fill="#000000" font-family="sans-serif" font-size="14" lengthAdjust="spacing" textLength="111.2891" x="1385.8569" y="1975.666">MaintenanceType</text><rect fill="#E3E3E3" height="32.6211" rx="2.5" ry="2.5" style="stroke:#181818;stroke-width:0.5;" width="136.9375" x="1514.146" y="1953.5586"/><text fill="#000000" font-family="sans-serif" font-size="14" lengthAdjust="spacing" textLength="122.9375" x="1521.146" y="1975.666">:RepositoryProvider</text><rect fill="#E3E3E3" height="32.6211" rx="2.5" ry="2.5" style="stroke:#181818;stroke-width:0.5;" width="196.0957" x="1661.0835" y="89.6211"/><text fill="#000000" font-family="sans-serif" font-size="14" lengthAdjust="spacing" textLength="182.0957" x="1668.0835" y="111.7285">:MaintenanceTypeRepository</text><rect fill="#E3E3E3" height="32.6211" rx="2.5" ry="2.5" style="stroke:#181818;stroke-width:0.5;" width="196.0957" x="1661.0835" y="1953.5586"/><text fill="#000000" font-family="sans-serif" font-size="14" lengthAdjust="spacing" textLength="182.0957" x="1668.0835" y="1975.666">:MaintenanceTypeRepository</text><rect fill="#E3E3E3" height="32.6211" rx="2.5" ry="2.5" style="stroke:#181818;stroke-width:0.5;" width="258.3301" x="1991.7749" y="89.6211"/><text fill="#000000" font-family="sans-serif" font-size="14" lengthAdjust="spacing" textLength="244.3301" x="1998.7749" y="111.7285">:InMemoryMaintenanceTypeRepository</text><rect fill="#E3E3E3" height="32.6211" rx="2.5" ry="2.5" style="stroke:#181818;stroke-width:0.5;" width="258.3301" x="1991.7749" y="1953.5586"/><text fill="#000000" font-family="sans-serif" font-size="14" lengthAdjust="spacing" textLength="244.3301" x="1998.7749" y="1975.666">:InMemoryMaintenanceTypeRepository</text><rect fill="#E3E3E3" height="32.6211" rx="2.5" ry="2.5" style="stroke:#181818;stroke-width:0.5;" width="181.3027" x="2465.709" y="89.6211"/><text fill="#000000" font-family="sans-serif" font-size="14" lengthAdjust="spacing" textLength="167.3027" x="2472.709" y="111.7285">:MaintenanceTypeJPAImpl</text><rect fill="#E3E3E3" height="32.6211" rx="2.5" ry="2.5" style="stroke:#181818;stroke-width:0.5;" width="181.3027" x="2465.709" y="1953.5586"/><text fill="#000000" font-family="sans-serif" font-size="14" lengthAdjust="spacing" textLength="167.3027" x="2472.709" y="1975.666">:MaintenanceTypeJPAImpl</text><rect fill="#FFFFFF" height="1811.3164" style="stroke:#181818;stroke-width:1.0;" width="10" x="74.5723" y="133.2422"/><rect fill="#FFFFFF" height="451.7051" style="stroke:#181818;stroke-width:1.0;" width="10" x="470.1567" y="156.5332"/><rect fill="#FFFFFF" height="362.832" style="stroke:#181818;stroke-width:1.0;" width="10" x="716.29" y="187.8242"/><rect fill="#FFFFFF" height="591.2383" style="stroke:#181818;stroke-width:1.0;" width="10" x="990.1997" y="1218.8164"/><rect fill="#FFFFFF" height="33.6211" style="stroke:#181818;stroke-width:1.0;" width="10" x="1188.5127" y="874.9063"/><rect fill="#FFFFFF" height="33.6211" style="stroke:#181818;stroke-width:1.0;" width="10" x="1321.8433" y="1060.6914"/><rect fill="#FFFFFF" height="31.291" style="stroke:#181818;stroke-width:1.0;" width="10" x="1436.5015" y="1283.7285"/><rect fill="#FFFFFF" height="31.291" style="stroke:#181818;stroke-width:1.0;" width="10" x="1436.5015" y="1346.3105"/><rect fill="#FFFFFF" height="31.291" style="stroke:#181818;stroke-width:1.0;" width="10" x="1577.6147" y="250.4063"/><rect fill="#FFFFFF" height="33.6211" style="stroke:#181818;stroke-width:1.0;" width="10" x="1577.6147" y="1418.8926"/><rect fill="#FFFFFF" height="206.377" style="stroke:#181818;stroke-width:1.0;" width="10" x="1754.1313" y="312.9883"/><rect fill="#FFFFFF" height="294.959" style="stroke:#181818;stroke-width:1.0;" width="10" x="1754.1313" y="1483.8047"/><rect fill="#FFFFFF" height="31.291" style="stroke:#181818;stroke-width:1.0;" width="10" x="2115.9399" y="370.5703"/><rect fill="#FFFFFF" height="119.873" style="stroke:#181818;stroke-width:1.0;" width="10" x="2115.9399" y="1541.3867"/><rect fill="#FFFFFF" height="31.291" style="stroke:#181818;stroke-width:1.0;" width="10" x="2551.3604" y="449.7832"/><rect fill="#FFFFFF" height="31.291" style="stroke:#181818;stroke-width:1.0;" width="10" x="2551.3604" y="1709.1816"/><polygon fill="#181818" points="458.1567,152.5332,468.1567,156.5332,458.1567,160.5332,462.1567,156.5332" style="stroke:#181818;stroke-width:1.0;"/><line style="stroke:#181818;stroke-width:1.0;" x1="84.5723" x2="464.1567" y1="156.5332" y2="156.5332"/><text fill="#000000" font-family="sans-serif" font-size="13" font-weight="bold" lengthAdjust="spacing" textLength="7.23" x="91.5723" y="151.2705">1</text><text fill="#000000" font-family="sans-serif" font-size="13" lengthAdjust="spacing" textLength="205.9624" x="102.8022" y="151.2705">requests to edit a maintenance type</text><polygon fill="#181818" points="704.29,183.8242,714.29,187.8242,704.29,191.8242,708.29,187.8242" style="stroke:#181818;stroke-width:1.0;"/><line style="stroke:#181818;stroke-width:1.0;" x1="480.1567" x2="710.29" y1="187.8242" y2="187.8242"/><text fill="#000000" font-family="sans-serif" font-size="13" font-weight="bold" lengthAdjust="spacing" textLength="7.23" x="487.1567" y="182.5615">2</text><text fill="#000000" font-family="sans-serif" font-size="13" lengthAdjust="spacing" textLength="36.1309" x="498.3867" y="182.5615">create</text><polygon fill="#181818" points="704.29,215.1152,714.29,219.1152,704.29,223.1152,708.29,219.1152" style="stroke:#181818;stroke-width:1.0;"/><line style="stroke:#181818;stroke-width:1.0;" x1="480.1567" x2="710.29" y1="219.1152" y2="219.1152"/><text fill="#000000" font-family="sans-serif" font-size="13" font-weight="bold" lengthAdjust="spacing" textLength="7.23" x="487.1567" y="213.8525">3</text><text fill="#000000" font-family="sans-serif" font-size="13" lengthAdjust="spacing" textLength="151.0171" x="498.3867" y="213.8525">getAllMaintenanceTypes()</text><polygon fill="#181818" points="1565.6147,246.4063,1575.6147,250.4063,1565.6147,254.4063,1569.6147,250.4063" style="stroke:#181818;stroke-width:1.0;"/><line style="stroke:#181818;stroke-width:1.0;" x1="726.29" x2="1571.6147" y1="250.4063" y2="250.4063"/><text fill="#000000" font-family="sans-serif" font-size="13" font-weight="bold" lengthAdjust="spacing" textLength="7.23" x="733.29" y="245.1436">4</text><text fill="#000000" font-family="sans-serif" font-size="13" lengthAdjust="spacing" textLength="174.1353" x="744.52" y="245.1436">maintenanceTypeRepository()</text><polygon fill="#181818" points="737.29,277.6973,727.29,281.6973,737.29,285.6973,733.29,281.6973" style="stroke:#181818;stroke-width:1.0;"/><line style="stroke:#181818;stroke-width:1.0;stroke-dasharray:2.0,2.0;" x1="731.29" x2="1581.6147" y1="281.6973" y2="281.6973"/><text fill="#000000" font-family="sans-serif" font-size="13" font-weight="bold" lengthAdjust="spacing" textLength="7.23" x="743.29" y="276.4346">5</text><text fill="#000000" font-family="sans-serif" font-size="13" lengthAdjust="spacing" textLength="57.0781" x="754.52" y="276.4346">repository</text><polygon fill="#181818" points="1742.1313,308.9883,1752.1313,312.9883,1742.1313,316.9883,1746.1313,312.9883" style="stroke:#181818;stroke-width:1.0;"/><line style="stroke:#181818;stroke-width:1.0;" x1="726.29" x2="1748.1313" y1="312.9883" y2="312.9883"/><text fill="#000000" font-family="sans-serif" font-size="13" font-weight="bold" lengthAdjust="spacing" textLength="7.23" x="733.29" y="307.7256">6</text><text fill="#000000" font-family="sans-serif" font-size="13" lengthAdjust="spacing" textLength="44.0654" x="744.52" y="307.7256">findAll()</text><path d="M1651.0835,327.9883 L1711.2544,327.9883 L1711.2544,337.2793 L1701.2544,347.2793 L1651.0835,347.2793 L1651.0835,327.9883 " fill="#EEEEEE" style="stroke:#000000;stroke-width:1.5;"/><rect fill="none" height="161.0859" style="stroke:#000000;stroke-width:1.5;" width="1005.9282" x="1651.0835" y="327.9883"/><text fill="#000000" font-family="sans-serif" font-size="13" font-weight="bold" lengthAdjust="spacing" textLength="15.1709" x="1666.0835" y="343.0166">alt</text><text fill="#000000" font-family="sans-serif" font-size="11" font-weight="bold" lengthAdjust="spacing" textLength="281.7783" x="1726.2544" y="341.8584">[Repository is InMemoryMaintenanceTypeRepository]</text><polygon fill="#181818" points="2103.9399,366.5703,2113.9399,370.5703,2103.9399,374.5703,2107.9399,370.5703" style="stroke:#181818;stroke-width:1.0;"/><line style="stroke:#181818;stroke-width:1.0;" x1="1764.1313" x2="2109.9399" y1="370.5703" y2="370.5703"/><text fill="#000000" font-family="sans-serif" font-size="13" font-weight="bold" lengthAdjust="spacing" textLength="7.23" x="1771.1313" y="365.3076">7</text><text fill="#000000" font-family="sans-serif" font-size="13" lengthAdjust="spacing" textLength="44.0654" x="1782.3613" y="365.3076">findAll()</text><polygon fill="#181818" points="1775.1313,397.8613,1765.1313,401.8613,1775.1313,405.8613,1771.1313,401.8613" style="stroke:#181818;stroke-width:1.0;"/><line style="stroke:#181818;stroke-width:1.0;stroke-dasharray:2.0,2.0;" x1="1769.1313" x2="2119.9399" y1="401.8613" y2="401.8613"/><text fill="#000000" font-family="sans-serif" font-size="13" font-weight="bold" lengthAdjust="spacing" textLength="7.23" x="1781.1313" y="396.5986">8</text><text fill="#000000" font-family="sans-serif" font-size="13" lengthAdjust="spacing" textLength="130.0698" x="1792.3613" y="396.5986">maintenanceTypesList</text><line style="stroke:#000000;stroke-width:1.0;stroke-dasharray:2.0,2.0;" x1="1651.0835" x2="2657.0117" y1="410.8613" y2="410.8613"/><text fill="#000000" font-family="sans-serif" font-size="11" font-weight="bold" lengthAdjust="spacing" textLength="216.3799" x="1656.0835" y="422.7314">[Repository is MaintenanceTypeJPAImpl]</text><polygon fill="#181818" points="2539.3604,445.7832,2549.3604,449.7832,2539.3604,453.7832,2543.3604,449.7832" style="stroke:#181818;stroke-width:1.0;"/><line style="stroke:#181818;stroke-width:1.0;" x1="1764.1313" x2="2545.3604" y1="449.7832" y2="449.7832"/><text fill="#000000" font-family="sans-serif" font-size="13" font-weight="bold" lengthAdjust="spacing" textLength="7.23" x="1771.1313" y="444.5205">9</text><text fill="#000000" font-family="sans-serif" font-size="13" lengthAdjust="spacing" textLength="44.0654" x="1782.3613" y="444.5205">findAll()</text><polygon fill="#181818" points="1775.1313,477.0742,1765.1313,481.0742,1775.1313,485.0742,1771.1313,481.0742" style="stroke:#181818;stroke-width:1.0;"/><line style="stroke:#181818;stroke-width:1.0;stroke-dasharray:2.0,2.0;" x1="1769.1313" x2="2555.3604" y1="481.0742" y2="481.0742"/><text fill="#000000" font-family="sans-serif" font-size="13" font-weight="bold" lengthAdjust="spacing" textLength="14.46" x="1781.1313" y="475.8115">10</text><text fill="#000000" font-family="sans-serif" font-size="13" lengthAdjust="spacing" textLength="130.0698" x="1799.5913" y="475.8115">maintenanceTypesList</text><polygon fill="#181818" points="737.29,515.3652,727.29,519.3652,737.29,523.3652,733.29,519.3652" style="stroke:#181818;stroke-width:1.0;"/><line style="stroke:#181818;stroke-width:1.0;stroke-dasharray:2.0,2.0;" x1="731.29" x2="1758.1313" y1="519.3652" y2="519.3652"/><text fill="#000000" font-family="sans-serif" font-size="13" font-weight="bold" lengthAdjust="spacing" textLength="14.46" x="743.29" y="514.1025">11</text><text fill="#000000" font-family="sans-serif" font-size="13" lengthAdjust="spacing" textLength="130.0698" x="761.75" y="514.1025">maintenanceTypesList</text><polygon fill="#181818" points="491.1567,546.6563,481.1567,550.6563,491.1567,554.6563,487.1567,550.6563" style="stroke:#181818;stroke-width:1.0;"/><line style="stroke:#181818;stroke-width:1.0;stroke-dasharray:2.0,2.0;" x1="485.1567" x2="720.29" y1="550.6563" y2="550.6563"/><text fill="#000000" font-family="sans-serif" font-size="13" font-weight="bold" lengthAdjust="spacing" textLength="14.46" x="497.1567" y="545.3936">12</text><text fill="#000000" font-family="sans-serif" font-size="13" lengthAdjust="spacing" textLength="193.6733" x="515.6167" y="545.3936">Optional&lt;maintenanceTypesList&gt;</text><path d="M10,565.6563 L70.1709,565.6563 L70.1709,574.9473 L60.1709,584.9473 L10,584.9473 L10,565.6563 " fill="#EEEEEE" style="stroke:#000000;stroke-width:1.5;"/><rect fill="none" height="1371.9023" style="stroke:#000000;stroke-width:1.5;" width="2667.0117" x="10" y="565.6563"/><text fill="#000000" font-family="sans-serif" font-size="13" font-weight="bold" lengthAdjust="spacing" textLength="15.1709" x="25" y="580.6846">alt</text><text fill="#000000" font-family="sans-serif" font-size="11" font-weight="bold" lengthAdjust="spacing" textLength="173.6045" x="85.1709" y="579.5264">[maintenanceTypesList is empty]</text><polygon fill="#181818" points="95.5723,604.2383,85.5723,608.2383,95.5723,612.2383,91.5723,608.2383" style="stroke:#181818;stroke-width:1.0;"/><line style="stroke:#181818;stroke-width:1.0;stroke-dasharray:2.0,2.0;" x1="89.5723" x2="474.1567" y1="608.2383" y2="608.2383"/><text fill="#000000" font-family="sans-serif" font-size="13" font-weight="bold" lengthAdjust="spacing" textLength="14.46" x="101.5723" y="602.9756">13</text><text fill="#000000" font-family="sans-serif" font-size="13" lengthAdjust="spacing" textLength="339.4219" x="120.0322" y="602.9756">errorMessage("No maintenance types in the system yet...")</text><line style="stroke:#000000;stroke-width:1.0;stroke-dasharray:2.0,2.0;" x1="10" x2="2677.0117" y1="617.2383" y2="617.2383"/><text fill="#000000" font-family="sans-serif" font-size="11" font-weight="bold" lengthAdjust="spacing" textLength="193.7622" x="15" y="629.1084">[maintenanceTypesList is not empty]</text><polygon fill="#181818" points="95.5723,652.1602,85.5723,656.1602,95.5723,660.1602,91.5723,656.1602" style="stroke:#181818;stroke-width:1.0;"/><line style="stroke:#181818;stroke-width:1.0;stroke-dasharray:2.0,2.0;" x1="89.5723" x2="474.1567" y1="656.1602" y2="656.1602"/><text fill="#000000" font-family="sans-serif" font-size="13" font-weight="bold" lengthAdjust="spacing" textLength="14.46" x="101.5723" y="650.8975">14</text><text fill="#000000" font-family="sans-serif" font-size="13" lengthAdjust="spacing" textLength="145.958" x="120.0322" y="650.8975">selectMaintenanceType()</text><polygon fill="#181818" points="463.1567,683.4512,473.1567,687.4512,463.1567,691.4512,467.1567,687.4512" style="stroke:#181818;stroke-width:1.0;"/><line style="stroke:#181818;stroke-width:1.0;" x1="84.5723" x2="469.1567" y1="687.4512" y2="687.4512"/><text fill="#000000" font-family="sans-serif" font-size="13" font-weight="bold" lengthAdjust="spacing" textLength="14.46" x="91.5723" y="682.1885">15</text><text fill="#000000" font-family="sans-serif" font-size="13" lengthAdjust="spacing" textLength="264.4878" x="110.0322" y="682.1885">provideMaintenanceTypeSelection(typeIndex)</text><line style="stroke:#181818;stroke-width:1.0;" x1="475.1567" x2="517.1567" y1="718.7422" y2="718.7422"/><line style="stroke:#181818;stroke-width:1.0;" x1="517.1567" x2="517.1567" y1="718.7422" y2="731.7422"/><line style="stroke:#181818;stroke-width:1.0;" x1="476.1567" x2="517.1567" y1="731.7422" y2="731.7422"/><polygon fill="#181818" points="486.1567,727.7422,476.1567,731.7422,486.1567,735.7422,482.1567,731.7422" style="stroke:#181818;stroke-width:1.0;"/><text fill="#000000" font-family="sans-serif" font-size="13" font-weight="bold" lengthAdjust="spacing" textLength="14.46" x="482.1567" y="713.4795">16</text><text fill="#000000" font-family="sans-serif" font-size="13" lengthAdjust="spacing" textLength="186.4434" x="500.6167" y="713.4795">getMaintenanceType(typeIndex)</text><line style="stroke:#181818;stroke-width:1.0;" x1="475.1567" x2="517.1567" y1="763.0332" y2="763.0332"/><line style="stroke:#181818;stroke-width:1.0;" x1="517.1567" x2="517.1567" y1="763.0332" y2="776.0332"/><line style="stroke:#181818;stroke-width:1.0;" x1="476.1567" x2="517.1567" y1="776.0332" y2="776.0332"/><polygon fill="#181818" points="486.1567,772.0332,476.1567,776.0332,486.1567,780.0332,482.1567,776.0332" style="stroke:#181818;stroke-width:1.0;"/><text fill="#000000" font-family="sans-serif" font-size="13" font-weight="bold" lengthAdjust="spacing" textLength="14.46" x="482.1567" y="757.7705">17</text><text fill="#000000" font-family="sans-serif" font-size="13" lengthAdjust="spacing" textLength="108.3545" x="500.6167" y="757.7705">confirmEditName()</text><polygon fill="#181818" points="463.1567,803.3242,473.1567,807.3242,463.1567,811.3242,467.1567,807.3242" style="stroke:#181818;stroke-width:1.0;"/><line style="stroke:#181818;stroke-width:1.0;" x1="84.5723" x2="469.1567" y1="807.3242" y2="807.3242"/><text fill="#000000" font-family="sans-serif" font-size="13" font-weight="bold" lengthAdjust="spacing" textLength="14.46" x="91.5723" y="802.0615">18</text><text fill="#000000" font-family="sans-serif" font-size="13" lengthAdjust="spacing" textLength="163.9917" x="110.0322" y="802.0615">confirmNameEdit(editName)</text><path d="M381.5054,822.3242 L441.6763,822.3242 L441.6763,831.6152 L431.6763,841.6152 L381.5054,841.6152 L381.5054,822.3242 " fill="#EEEEEE" style="stroke:#000000;stroke-width:1.5;"/><rect fill="none" height="96.2031" style="stroke:#000000;stroke-width:1.5;" width="903.3242" x="381.5054" y="822.3242"/><text fill="#000000" font-family="sans-serif" font-size="13" font-weight="bold" lengthAdjust="spacing" textLength="15.1709" x="396.5054" y="837.3525">alt</text><text fill="#000000" font-family="sans-serif" font-size="11" font-weight="bold" lengthAdjust="spacing" textLength="90.1592" x="456.6763" y="836.1943">[editName = true]</text><polygon fill="#181818" points="1100.1958,860.9063,1110.1958,864.9063,1100.1958,868.9063,1104.1958,864.9063" style="stroke:#181818;stroke-width:1.0;"/><line style="stroke:#181818;stroke-width:1.0;" x1="475.1567" x2="1106.1958" y1="864.9063" y2="864.9063"/><text fill="#000000" font-family="sans-serif" font-size="13" font-weight="bold" lengthAdjust="spacing" textLength="14.46" x="482.1567" y="859.6436">19</text><text fill="#000000" font-family="sans-serif" font-size="13" lengthAdjust="spacing" textLength="161.0908" x="500.6167" y="859.6436">Utils.rePromptWhileInvalid()</text><rect fill="#E3E3E3" height="32.6211" rx="2.5" ry="2.5" style="stroke:#181818;stroke-width:0.5;" width="162.6338" x="1112.1958" y="841.6152"/><text fill="#000000" font-family="sans-serif" font-size="14" lengthAdjust="spacing" textLength="148.6338" x="1119.1958" y="863.7227">MaintenanceTypeName</text><polygon fill="#181818" points="486.1567,904.5273,476.1567,908.5273,486.1567,912.5273,482.1567,908.5273" style="stroke:#181818;stroke-width:1.0;"/><line style="stroke:#181818;stroke-width:1.0;" x1="480.1567" x2="1192.5127" y1="908.5273" y2="908.5273"/><text fill="#000000" font-family="sans-serif" font-size="13" font-weight="bold" lengthAdjust="spacing" textLength="14.46" x="492.1567" y="903.2646">20</text><text fill="#000000" font-family="sans-serif" font-size="13" lengthAdjust="spacing" textLength="132.9644" x="510.6167" y="903.2646">newMaintenanceName</text><line style="stroke:#000000;stroke-width:1.0;stroke-dasharray:2.0,2.0;" x1="381.5054" x2="1284.8296" y1="917.5273" y2="917.5273"/><line style="stroke:#181818;stroke-width:1.0;" x1="475.1567" x2="517.1567" y1="948.8184" y2="948.8184"/><line style="stroke:#181818;stroke-width:1.0;" x1="517.1567" x2="517.1567" y1="948.8184" y2="961.8184"/><line style="stroke:#181818;stroke-width:1.0;" x1="476.1567" x2="517.1567" y1="961.8184" y2="961.8184"/><polygon fill="#181818" points="486.1567,957.8184,476.1567,961.8184,486.1567,965.8184,482.1567,961.8184" style="stroke:#181818;stroke-width:1.0;"/><text fill="#000000" font-family="sans-serif" font-size="13" font-weight="bold" lengthAdjust="spacing" textLength="14.46" x="482.1567" y="943.5557">21</text><text fill="#000000" font-family="sans-serif" font-size="13" lengthAdjust="spacing" textLength="138.7026" x="500.6167" y="943.5557">confirmEditDescription()</text><polygon fill="#181818" points="463.1567,989.1094,473.1567,993.1094,463.1567,997.1094,467.1567,993.1094" style="stroke:#181818;stroke-width:1.0;"/><line style="stroke:#181818;stroke-width:1.0;" x1="84.5723" x2="469.1567" y1="993.1094" y2="993.1094"/><text fill="#000000" font-family="sans-serif" font-size="13" font-weight="bold" lengthAdjust="spacing" textLength="14.46" x="91.5723" y="987.8467">22</text><text fill="#000000" font-family="sans-serif" font-size="13" lengthAdjust="spacing" textLength="224.688" x="110.0322" y="987.8467">confirmDescriptionEdit(editDescription)</text><path d="M381.5054,1008.1094 L441.6763,1008.1094 L441.6763,1017.4004 L431.6763,1027.4004 L381.5054,1027.4004 L381.5054,1008.1094 " fill="#EEEEEE" style="stroke:#000000;stroke-width:1.5;"/><rect fill="none" height="96.2031" style="stroke:#000000;stroke-width:1.5;" width="997.3516" x="381.5054" y="1008.1094"/><text fill="#000000" font-family="sans-serif" font-size="13" font-weight="bold" lengthAdjust="spacing" textLength="15.1709" x="396.5054" y="1023.1377">alt</text><text fill="#000000" font-family="sans-serif" font-size="11" font-weight="bold" lengthAdjust="spacing" textLength="120.71" x="456.6763" y="1021.9795">[editDescription = true]</text><polygon fill="#181818" points="1272.8296,1046.6914,1282.8296,1050.6914,1272.8296,1054.6914,1276.8296,1050.6914" style="stroke:#181818;stroke-width:1.0;"/><line style="stroke:#181818;stroke-width:1.0;" x1="475.1567" x2="1278.8296" y1="1050.6914" y2="1050.6914"/><text fill="#000000" font-family="sans-serif" font-size="13" font-weight="bold" lengthAdjust="spacing" textLength="14.46" x="482.1567" y="1045.4287">23</text><text fill="#000000" font-family="sans-serif" font-size="13" lengthAdjust="spacing" textLength="161.0908" x="500.6167" y="1045.4287">Utils.rePromptWhileInvalid()</text><rect fill="#E3E3E3" height="32.6211" rx="2.5" ry="2.5" style="stroke:#181818;stroke-width:0.5;" width="84.0273" x="1284.8296" y="1027.4004"/><text fill="#000000" font-family="sans-serif" font-size="14" lengthAdjust="spacing" textLength="70.0273" x="1291.8296" y="1049.5078">Description</text><polygon fill="#181818" points="486.1567,1090.3125,476.1567,1094.3125,486.1567,1098.3125,482.1567,1094.3125" style="stroke:#181818;stroke-width:1.0;"/><line style="stroke:#181818;stroke-width:1.0;" x1="480.1567" x2="1325.8433" y1="1094.3125" y2="1094.3125"/><text fill="#000000" font-family="sans-serif" font-size="13" font-weight="bold" lengthAdjust="spacing" textLength="14.46" x="492.1567" y="1089.0498">24</text><text fill="#000000" font-family="sans-serif" font-size="13" lengthAdjust="spacing" textLength="88.8735" x="510.6167" y="1089.0498">newDescription</text><line style="stroke:#000000;stroke-width:1.0;stroke-dasharray:2.0,2.0;" x1="381.5054" x2="1378.8569" y1="1103.3125" y2="1103.3125"/><path d="M20,1118.3125 L80.1709,1118.3125 L80.1709,1127.6035 L70.1709,1137.6035 L20,1137.6035 L20,1118.3125 " fill="#EEEEEE" style="stroke:#000000;stroke-width:1.5;"/><rect fill="none" height="812.2461" style="stroke:#000000;stroke-width:1.5;" width="2647.0117" x="20" y="1118.3125"/><text fill="#000000" font-family="sans-serif" font-size="13" font-weight="bold" lengthAdjust="spacing" textLength="15.1709" x="35" y="1133.3408">alt</text><text fill="#000000" font-family="sans-serif" font-size="11" font-weight="bold" lengthAdjust="spacing" textLength="117.9546" x="95.1709" y="1132.1826">[no changes provided]</text><polygon fill="#181818" points="95.5723,1156.8945,85.5723,1160.8945,95.5723,1164.8945,91.5723,1160.8945" style="stroke:#181818;stroke-width:1.0;"/><line style="stroke:#181818;stroke-width:1.0;stroke-dasharray:2.0,2.0;" x1="89.5723" x2="474.1567" y1="1160.8945" y2="1160.8945"/><text fill="#000000" font-family="sans-serif" font-size="13" font-weight="bold" lengthAdjust="spacing" textLength="14.46" x="101.5723" y="1155.6318">25</text><text fill="#000000" font-family="sans-serif" font-size="13" lengthAdjust="spacing" textLength="231.791" x="120.0322" y="1155.6318">errorMessage("Nothing has changed...")</text><line style="stroke:#000000;stroke-width:1.0;stroke-dasharray:2.0,2.0;" x1="20" x2="2667.0117" y1="1169.8945" y2="1169.8945"/><text fill="#000000" font-family="sans-serif" font-size="11" font-weight="bold" lengthAdjust="spacing" textLength="101.46" x="25" y="1181.7646">[changes provided]</text><polygon fill="#181818" points="876.2036,1204.8164,886.2036,1208.8164,876.2036,1212.8164,880.2036,1208.8164" style="stroke:#181818;stroke-width:1.0;"/><line style="stroke:#181818;stroke-width:1.0;" x1="475.1567" x2="882.2036" y1="1208.8164" y2="1208.8164"/><text fill="#000000" font-family="sans-serif" font-size="13" font-weight="bold" lengthAdjust="spacing" textLength="14.46" x="482.1567" y="1203.5537">26</text><text fill="#000000" font-family="sans-serif" font-size="13" lengthAdjust="spacing" textLength="36.1309" x="500.6167" y="1203.5537">create</text><rect fill="#E3E3E3" height="32.6211" rx="2.5" ry="2.5" style="stroke:#181818;stroke-width:0.5;" width="213.9922" x="888.2036" y="1185.5254"/><text fill="#000000" font-family="sans-serif" font-size="14" lengthAdjust="spacing" textLength="199.9922" x="895.2036" y="1207.6328">:EditMaintenanceTypeController</text><polygon fill="#181818" points="978.1997,1248.4375,988.1997,1252.4375,978.1997,1256.4375,982.1997,1252.4375" style="stroke:#181818;stroke-width:1.0;"/><line style="stroke:#181818;stroke-width:1.0;" x1="475.1567" x2="984.1997" y1="1252.4375" y2="1252.4375"/><text fill="#000000" font-family="sans-serif" font-size="13" font-weight="bold" lengthAdjust="spacing" textLength="14.46" x="482.1567" y="1247.1748">27</text><text fill="#000000" font-family="sans-serif" font-size="13" lengthAdjust="spacing" textLength="472.583" x="500.6167" y="1247.1748">editMaintenanceType(maintenanceType, newMaintenanceName, newDescription)</text><polygon fill="#181818" points="1424.5015,1279.7285,1434.5015,1283.7285,1424.5015,1287.7285,1428.5015,1283.7285" style="stroke:#181818;stroke-width:1.0;"/><line style="stroke:#181818;stroke-width:1.0;" x1="1000.1997" x2="1430.5015" y1="1283.7285" y2="1283.7285"/><text fill="#000000" font-family="sans-serif" font-size="13" font-weight="bold" lengthAdjust="spacing" textLength="14.46" x="1007.1997" y="1278.4658">28</text><text fill="#000000" font-family="sans-serif" font-size="13" lengthAdjust="spacing" textLength="234.1206" x="1025.6597" y="1278.4658">changeNameTo(newMaintenanceName)</text><polygon fill="#181818" points="1011.1997,1311.0195,1001.1997,1315.0195,1011.1997,1319.0195,1007.1997,1315.0195" style="stroke:#181818;stroke-width:1.0;"/><line style="stroke:#181818;stroke-width:1.0;stroke-dasharray:2.0,2.0;" x1="1005.1997" x2="1440.5015" y1="1315.0195" y2="1315.0195"/><text fill="#000000" font-family="sans-serif" font-size="13" font-weight="bold" lengthAdjust="spacing" textLength="14.46" x="1017.1997" y="1309.7568">29</text><text fill="#000000" font-family="sans-serif" font-size="13" lengthAdjust="spacing" textLength="3.6118" x="1035.6597" y="1309.7568">&#160;</text><polygon fill="#181818" points="1424.5015,1342.3105,1434.5015,1346.3105,1424.5015,1350.3105,1428.5015,1346.3105" style="stroke:#181818;stroke-width:1.0;"/><line style="stroke:#181818;stroke-width:1.0;" x1="1000.1997" x2="1430.5015" y1="1346.3105" y2="1346.3105"/><text fill="#000000" font-family="sans-serif" font-size="13" font-weight="bold" lengthAdjust="spacing" textLength="14.46" x="1007.1997" y="1341.0479">30</text><text fill="#000000" font-family="sans-serif" font-size="13" lengthAdjust="spacing" textLength="220.3779" x="1025.6597" y="1341.0479">changeDescriptionTo(newDescription)</text><polygon fill="#181818" points="1011.1997,1373.6016,1001.1997,1377.6016,1011.1997,1381.6016,1007.1997,1377.6016" style="stroke:#181818;stroke-width:1.0;"/><line style="stroke:#181818;stroke-width:1.0;stroke-dasharray:2.0,2.0;" x1="1005.1997" x2="1440.5015" y1="1377.6016" y2="1377.6016"/><text fill="#000000" font-family="sans-serif" font-size="13" font-weight="bold" lengthAdjust="spacing" textLength="14.46" x="1017.1997" y="1372.3389">31</text><text fill="#000000" font-family="sans-serif" font-size="13" lengthAdjust="spacing" textLength="3.6118" x="1035.6597" y="1372.3389">&#160;</text><polygon fill="#181818" points="1502.146,1404.8926,1512.146,1408.8926,1502.146,1412.8926,1506.146,1408.8926" style="stroke:#181818;stroke-width:1.0;"/><line style="stroke:#181818;stroke-width:1.0;" x1="1000.1997" x2="1508.146" y1="1408.8926" y2="1408.8926"/><text fill="#000000" font-family="sans-serif" font-size="13" font-weight="bold" lengthAdjust="spacing" textLength="14.46" x="1007.1997" y="1403.6299">32</text><text fill="#000000" font-family="sans-serif" font-size="13" lengthAdjust="spacing" textLength="174.1353" x="1025.6597" y="1403.6299">maintenanceTypeRepository()</text><rect fill="#E3E3E3" height="32.6211" rx="2.5" ry="2.5" style="stroke:#181818;stroke-width:0.5;" width="136.9375" x="1514.146" y="1385.6016"/><text fill="#000000" font-family="sans-serif" font-size="14" lengthAdjust="spacing" textLength="122.9375" x="1521.146" y="1407.709">:RepositoryProvider</text><polygon fill="#181818" points="1011.1997,1448.5137,1001.1997,1452.5137,1011.1997,1456.5137,1007.1997,1452.5137" style="stroke:#181818;stroke-width:1.0;"/><line style="stroke:#181818;stroke-width:1.0;stroke-dasharray:2.0,2.0;" x1="1005.1997" x2="1581.6147" y1="1452.5137" y2="1452.5137"/><text fill="#000000" font-family="sans-serif" font-size="13" font-weight="bold" lengthAdjust="spacing" textLength="14.46" x="1017.1997" y="1447.251">33</text><text fill="#000000" font-family="sans-serif" font-size="13" lengthAdjust="spacing" textLength="57.0781" x="1035.6597" y="1447.251">repository</text><polygon fill="#181818" points="1742.1313,1479.8047,1752.1313,1483.8047,1742.1313,1487.8047,1746.1313,1483.8047" style="stroke:#181818;stroke-width:1.0;"/><line style="stroke:#181818;stroke-width:1.0;" x1="1000.1997" x2="1748.1313" y1="1483.8047" y2="1483.8047"/><text fill="#000000" font-family="sans-serif" font-size="13" font-weight="bold" lengthAdjust="spacing" textLength="14.46" x="1007.1997" y="1478.542">34</text><text fill="#000000" font-family="sans-serif" font-size="13" lengthAdjust="spacing" textLength="314.3486" x="1025.6597" y="1478.542">updateMaintenanceType(maintenanceType, oldName)</text><path d="M1651.0835,1498.8047 L1711.2544,1498.8047 L1711.2544,1508.0957 L1701.2544,1518.0957 L1651.0835,1518.0957 L1651.0835,1498.8047 " fill="#EEEEEE" style="stroke:#000000;stroke-width:1.5;"/><rect fill="none" height="249.668" style="stroke:#000000;stroke-width:1.5;" width="1005.9282" x="1651.0835" y="1498.8047"/><text fill="#000000" font-family="sans-serif" font-size="13" font-weight="bold" lengthAdjust="spacing" textLength="15.1709" x="1666.0835" y="1513.833">alt</text><text fill="#000000" font-family="sans-serif" font-size="11" font-weight="bold" lengthAdjust="spacing" textLength="281.7783" x="1726.2544" y="1512.6748">[Repository is InMemoryMaintenanceTypeRepository]</text><polygon fill="#181818" points="2103.9399,1537.3867,2113.9399,1541.3867,2103.9399,1545.3867,2107.9399,1541.3867" style="stroke:#181818;stroke-width:1.0;"/><line style="stroke:#181818;stroke-width:1.0;" x1="1764.1313" x2="2109.9399" y1="1541.3867" y2="1541.3867"/><text fill="#000000" font-family="sans-serif" font-size="13" font-weight="bold" lengthAdjust="spacing" textLength="14.46" x="1771.1313" y="1536.124">35</text><text fill="#000000" font-family="sans-serif" font-size="13" lengthAdjust="spacing" textLength="314.3486" x="1789.5913" y="1536.124">updateMaintenanceType(maintenanceType, oldName)</text><line style="stroke:#181818;stroke-width:1.0;" x1="2125.9399" x2="2167.9399" y1="1572.6777" y2="1572.6777"/><line style="stroke:#181818;stroke-width:1.0;" x1="2167.9399" x2="2167.9399" y1="1572.6777" y2="1585.6777"/><line style="stroke:#181818;stroke-width:1.0;" x1="2126.9399" x2="2167.9399" y1="1585.6777" y2="1585.6777"/><polygon fill="#181818" points="2136.9399,1581.6777,2126.9399,1585.6777,2136.9399,1589.6777,2132.9399,1585.6777" style="stroke:#181818;stroke-width:1.0;"/><text fill="#000000" font-family="sans-serif" font-size="13" font-weight="bold" lengthAdjust="spacing" textLength="14.46" x="2132.9399" y="1567.415">36</text><text fill="#000000" font-family="sans-serif" font-size="13" lengthAdjust="spacing" textLength="192.8989" x="2151.3999" y="1567.415">remove(oldName.toLowerCase())</text><line style="stroke:#181818;stroke-width:1.0;" x1="2125.9399" x2="2167.9399" y1="1616.9688" y2="1616.9688"/><line style="stroke:#181818;stroke-width:1.0;" x1="2167.9399" x2="2167.9399" y1="1616.9688" y2="1629.9688"/><line style="stroke:#181818;stroke-width:1.0;" x1="2126.9399" x2="2167.9399" y1="1629.9688" y2="1629.9688"/><polygon fill="#181818" points="2136.9399,1625.9688,2126.9399,1629.9688,2136.9399,1633.9688,2132.9399,1629.9688" style="stroke:#181818;stroke-width:1.0;"/><text fill="#000000" font-family="sans-serif" font-size="13" font-weight="bold" lengthAdjust="spacing" textLength="14.46" x="2132.9399" y="1611.7061">37</text><text fill="#000000" font-family="sans-serif" font-size="13" lengthAdjust="spacing" textLength="382.9604" x="2151.3999" y="1611.7061">put(maintenanceType.identity().toLowerCase(), maintenanceType)</text><polygon fill="#181818" points="1775.1313,1657.2598,1765.1313,1661.2598,1775.1313,1665.2598,1771.1313,1661.2598" style="stroke:#181818;stroke-width:1.0;"/><line style="stroke:#181818;stroke-width:1.0;stroke-dasharray:2.0,2.0;" x1="1769.1313" x2="2119.9399" y1="1661.2598" y2="1661.2598"/><text fill="#000000" font-family="sans-serif" font-size="13" font-weight="bold" lengthAdjust="spacing" textLength="14.46" x="1781.1313" y="1655.9971">38</text><text fill="#000000" font-family="sans-serif" font-size="13" lengthAdjust="spacing" textLength="166.9434" x="1799.5913" y="1655.9971">Optional&lt;MaintenanceType&gt;</text><line style="stroke:#000000;stroke-width:1.0;stroke-dasharray:2.0,2.0;" x1="1651.0835" x2="2657.0117" y1="1670.2598" y2="1670.2598"/><text fill="#000000" font-family="sans-serif" font-size="11" font-weight="bold" lengthAdjust="spacing" textLength="216.3799" x="1656.0835" y="1682.1299">[Repository is MaintenanceTypeJPAImpl]</text><polygon fill="#181818" points="2539.3604,1705.1816,2549.3604,1709.1816,2539.3604,1713.1816,2543.3604,1709.1816" style="stroke:#181818;stroke-width:1.0;"/><line style="stroke:#181818;stroke-width:1.0;" x1="1764.1313" x2="2545.3604" y1="1709.1816" y2="1709.1816"/><text fill="#000000" font-family="sans-serif" font-size="13" font-weight="bold" lengthAdjust="spacing" textLength="14.46" x="1771.1313" y="1703.9189">39</text><text fill="#000000" font-family="sans-serif" font-size="13" lengthAdjust="spacing" textLength="314.3486" x="1789.5913" y="1703.9189">updateMaintenanceType(maintenanceType, oldName)</text><polygon fill="#181818" points="1775.1313,1736.4727,1765.1313,1740.4727,1775.1313,1744.4727,1771.1313,1740.4727" style="stroke:#181818;stroke-width:1.0;"/><line style="stroke:#181818;stroke-width:1.0;stroke-dasharray:2.0,2.0;" x1="1769.1313" x2="2555.3604" y1="1740.4727" y2="1740.4727"/><text fill="#000000" font-family="sans-serif" font-size="13" font-weight="bold" lengthAdjust="spacing" textLength="14.46" x="1781.1313" y="1735.21">40</text><text fill="#000000" font-family="sans-serif" font-size="13" lengthAdjust="spacing" textLength="166.9434" x="1799.5913" y="1735.21">Optional&lt;MaintenanceType&gt;</text><polygon fill="#181818" points="1011.1997,1774.7637,1001.1997,1778.7637,1011.1997,1782.7637,1007.1997,1778.7637" style="stroke:#181818;stroke-width:1.0;"/><line style="stroke:#181818;stroke-width:1.0;stroke-dasharray:2.0,2.0;" x1="1005.1997" x2="1758.1313" y1="1778.7637" y2="1778.7637"/><text fill="#000000" font-family="sans-serif" font-size="13" font-weight="bold" lengthAdjust="spacing" textLength="14.46" x="1017.1997" y="1773.501">41</text><text fill="#000000" font-family="sans-serif" font-size="13" lengthAdjust="spacing" textLength="166.9434" x="1035.6597" y="1773.501">Optional&lt;MaintenanceType&gt;</text><polygon fill="#181818" points="486.1567,1806.0547,476.1567,1810.0547,486.1567,1814.0547,482.1567,1810.0547" style="stroke:#181818;stroke-width:1.0;"/><line style="stroke:#181818;stroke-width:1.0;stroke-dasharray:2.0,2.0;" x1="480.1567" x2="994.1997" y1="1810.0547" y2="1810.0547"/><text fill="#000000" font-family="sans-serif" font-size="13" font-weight="bold" lengthAdjust="spacing" textLength="14.46" x="492.1567" y="1804.792">42</text><text fill="#000000" font-family="sans-serif" font-size="13" lengthAdjust="spacing" textLength="166.9434" x="510.6167" y="1804.792">Optional&lt;MaintenanceType&gt;</text><path d="M30,1825.0547 L90.1709,1825.0547 L90.1709,1834.3457 L80.1709,1844.3457 L30,1844.3457 L30,1825.0547 " fill="#EEEEEE" style="stroke:#000000;stroke-width:1.5;"/><rect fill="none" height="98.5039" style="stroke:#000000;stroke-width:1.5;" width="538.8081" x="30" y="1825.0547"/><text fill="#000000" font-family="sans-serif" font-size="13" font-weight="bold" lengthAdjust="spacing" textLength="15.1709" x="45" y="1840.083">alt</text><text fill="#000000" font-family="sans-serif" font-size="11" font-weight="bold" lengthAdjust="spacing" textLength="103.3022" x="105.1709" y="1838.9248">[update succeeded]</text><polygon fill="#181818" points="95.5723,1863.6367,85.5723,1867.6367,95.5723,1871.6367,91.5723,1867.6367" style="stroke:#181818;stroke-width:1.0;"/><line style="stroke:#181818;stroke-width:1.0;stroke-dasharray:2.0,2.0;" x1="89.5723" x2="474.1567" y1="1867.6367" y2="1867.6367"/><text fill="#000000" font-family="sans-serif" font-size="13" font-weight="bold" lengthAdjust="spacing" textLength="14.46" x="101.5723" y="1862.374">43</text><text fill="#000000" font-family="sans-serif" font-size="13" lengthAdjust="spacing" textLength="348.1245" x="120.0322" y="1862.374">successMessage("Maintenance type updated successfully!")</text><line style="stroke:#000000;stroke-width:1.0;stroke-dasharray:2.0,2.0;" x1="30" x2="568.8081" y1="1876.6367" y2="1876.6367"/><text fill="#000000" font-family="sans-serif" font-size="11" font-weight="bold" lengthAdjust="spacing" textLength="75.1685" x="35" y="1888.5068">[update failed]</text><polygon fill="#181818" points="95.5723,1911.5586,85.5723,1915.5586,95.5723,1919.5586,91.5723,1915.5586" style="stroke:#181818;stroke-width:1.0;"/><line style="stroke:#181818;stroke-width:1.0;stroke-dasharray:2.0,2.0;" x1="89.5723" x2="474.1567" y1="1915.5586" y2="1915.5586"/><text fill="#000000" font-family="sans-serif" font-size="13" font-weight="bold" lengthAdjust="spacing" textLength="14.46" x="101.5723" y="1910.2959">44</text><text fill="#000000" font-family="sans-serif" font-size="13" lengthAdjust="spacing" textLength="301.1646" x="120.0322" y="1910.2959">errorMessage("Failed to update maintenance type!")</text><!--SRC=[hLVRRkCs47tNLx1-iXU9Fy1e0opYjd0HxousJllCIcERY4Ig99tKVzyPag8fIdAQO0K4aSWprpFaZCspa2tNl66DageyQjK0i_e4XOaxBI-V-G4UxRa6fg6qN1xg562El5AlGXxOdjS6Yi8AYz2d3Nk4VquWIs1hmGy4dJ-k5-oM_Le9opZRSY4jI4w8tRb5INwoIfwQlq7ZUscLPhErLXAteJpE63TilIlGgXMbQBcqRBOYNOaYqlEqST2dJGRz7NBalP9Mgxe6xIGGSB_x_l2sXKoE44F1JEOBRy2XwUNFhtti6aofHMk5aZvC_CuncJw7s-Rf-0wjCW8pT_wcrOkeWeVTHuREL5w4dH1zPW8RkOK6zwyBEjHrKtzy-xnfsjh1yTtHBLwu1MAuME_OxHqIkCA2mn8orZ2h6FYoQPAoiLGsKHGPBx3iK3GmoLQir81R5qp7SG-tOWUmd-iwSzBC5qMd2S5T4b5hCnK_IaHJCUbHy3OrgQDGKS5GA35CwbTiBsI5FgOM74EyjkpY01CX_zTOAXW-z4dQ7JfLJvlHXEUIbjoR2y7xa-N0F0XZ7J29nai3NWkPY-FbqFCBroQzefAX1Vp_Jez84cHLU2if7wFIYQHBTcGbrETNTsPv_VEOz5qgtXMUusiCJMc1fhMU7QfFjB7UhHXehVGMZC5hU3xxeWOdm30XcJq2CsTZaQCpsELoELlaiUFvS5HCMPVAZdjWeCQBF-CiS78vgwqltGpsw6GnINDoTICh-7SHzNl1m-1YdiQMIkw5RkZAfOjqu4JOfpt2p240Gm5XxhiLzejlTImyteQ_dTcdJolsP4LjbXhmI69I_ZgA6brwuRMeWjLUIOPhlLiFUe9N4bwJ26al0XD-4XN4KuGWBzXwnU5eaOfdqI9Jv3y5ui5OpvDPIbhBLB8IICnPijPFNR8nda7VkpwGmT3qklMWvvB1nF9OzXBnDx9N9I4CaaXnIiNA8yuvUB92KLUz82SEfZtI57J4bkQbgyifTEVkgiwxE4Qur8M-DKXId3N6PLSkeFmqPGV-PgGURx8CN_Y9Rg6PBKRjeo2PdPeF5OqGYrDAjxRTkUmDeaXuJD3ZfXCllGUZRlzOwx654pVNkl_0V6petKvl6hZmfllTENDhe2LrpdU_KriXyatgLLrDqEGQN5pzu5JHFTbqyL7d9cQHxWapIJIZqSCNc0SrIwiUr2leUswmKIokIhOdcxkpn8HB_363jFOrtUGLCAew4XDdX2pykvxKO6hgDjutFUNvTrFK3yb-DtDrJt_sUdUGgRhkxhqutZiQR-lEnxJXASddjV-ZQd1FqA7mkMJcL9O0wIMUpqm4C2QsXsqsj0L5LGVSd-hw_DDiqUSzMDjpR9sJflfzw3U7fHzCGJWV5tj6GkRfF_qL_N4nRQ-xuZy0]--></g></svg>