<svg xmlns="http://www.w3.org/2000/svg" xmlns:xlink="http://www.w3.org/1999/xlink" contentStyleType="text/css" height="436.8px" preserveAspectRatio="none" style="width:899px;height:436px;background:#FFFFFF;" version="1.1" viewBox="0 0 899 436" width="899.4px" zoomAndPan="magnify"><title>System Sequence Diagram (SSD) - US220 - Register Customer</title><defs/><g><text fill="#000000" font-family="sans-serif" font-size="8.4" font-weight="bold" lengthAdjust="spacing" textLength="248.8131" x="323.1855" y="18.0645">System Sequence Diagram (SSD) - US220 - Register Customer</text><rect fill="#FFFFFF" height="260.0484" style="stroke:#181818;stroke-width:0.6;" width="6" x="134.8787" y="121.0945"/><rect fill="#FFFFFF" height="56.3238" style="stroke:#181818;stroke-width:0.6;" width="6" x="337.1941" y="139.8691"/><rect fill="#FFFFFF" height="93.873" style="stroke:#181818;stroke-width:0.6;" width="6" x="468.0744" y="230.7422"/><rect fill="#FFFFFF" height="18.7746" style="stroke:#181818;stroke-width:0.6;" width="6" x="585.1837" y="158.6437"/><rect fill="#FFFFFF" height="18.7746" style="stroke:#181818;stroke-width:0.6;" width="6" x="706.7268" y="249.5168"/><rect fill="#FFFFFF" height="18.7746" style="stroke:#181818;stroke-width:0.6;" width="6" x="832.7036" y="287.066"/><rect fill="none" height="171.75" style="stroke:#000000;stroke-width:0.8999999999999999;" width="883.7842" x="6" y="205.193"/><line style="stroke:#181818;stroke-width:0.3;stroke-dasharray:5.0,5.0;" x1="47.4" x2="47.4" y1="73.9453" y2="387.143"/><line style="stroke:#181818;stroke-width:0.3;stroke-dasharray:5.0,5.0;" x1="137.6678" x2="137.6678" y1="73.9453" y2="387.143"/><line style="stroke:#181818;stroke-width:0.3;stroke-dasharray:5.0,5.0;" x1="339.7764" x2="339.7764" y1="73.9453" y2="387.143"/><line style="stroke:#181818;stroke-width:0.3;stroke-dasharray:5.0,5.0;" x1="470.8119" x2="470.8119" y1="73.9453" y2="387.143"/><line style="stroke:#181818;stroke-width:0.3;stroke-dasharray:5.0,5.0;" x1="587.7369" x2="587.7369" y1="73.9453" y2="387.143"/><line style="stroke:#181818;stroke-width:0.3;stroke-dasharray:5.0,5.0;" x1="709.2305" x2="709.2305" y1="73.9453" y2="387.143"/><line style="stroke:#181818;stroke-width:0.3;stroke-dasharray:5.0,5.0;" x1="835.623" x2="835.623" y1="73.9453" y2="387.143"/><text fill="#000000" font-family="sans-serif" font-size="8.4" lengthAdjust="spacing" textLength="67.2205" x="12" y="71.8371">CRM Collaborator</text><ellipse cx="47.4103" cy="31.8727" fill="#E3E3E3" rx="4.8" ry="4.8" style="stroke:#181818;stroke-width:0.3;"/><path d="M47.4103,36.6727 L47.4103,52.8727 M39.6103,41.4727 L55.2103,41.4727 M47.4103,52.8727 L39.6103,61.8727 M47.4103,52.8727 L55.2103,61.8727 " fill="none" style="stroke:#181818;stroke-width:0.3;"/><text fill="#000000" font-family="sans-serif" font-size="8.4" lengthAdjust="spacing" textLength="67.2205" x="12" y="395.6074">CRM Collaborator</text><ellipse cx="47.4103" cy="402.8156" fill="#E3E3E3" rx="4.8" ry="4.8" style="stroke:#181818;stroke-width:0.3;"/><path d="M47.4103,407.6156 L47.4103,423.8156 M39.6103,412.4156 L55.2103,412.4156 M47.4103,423.8156 L39.6103,432.8156 M47.4103,423.8156 L55.2103,432.8156 " fill="none" style="stroke:#181818;stroke-width:0.3;"/><rect fill="#E3E3E3" height="19.5727" rx="1.5" ry="1.5" style="stroke:#181818;stroke-width:0.3;" width="86.8219" x="94.4678" y="53.7727"/><text fill="#000000" font-family="sans-serif" font-size="8.4" lengthAdjust="spacing" textLength="78.4219" x="98.6678" y="67.0371">:RegisterCustomerUI</text><rect fill="#E3E3E3" height="19.5727" rx="1.5" ry="1.5" style="stroke:#181818;stroke-width:0.3;" width="86.8219" x="94.4678" y="386.543"/><text fill="#000000" font-family="sans-serif" font-size="8.4" lengthAdjust="spacing" textLength="78.4219" x="98.6678" y="399.8074">:RegisterCustomerUI</text><rect fill="#E3E3E3" height="19.5727" rx="1.5" ry="1.5" style="stroke:#181818;stroke-width:0.3;" width="114.8355" x="282.7764" y="53.7727"/><text fill="#000000" font-family="sans-serif" font-size="8.4" lengthAdjust="spacing" textLength="106.4355" x="286.9764" y="67.0371">:RegisterCustomerController</text><rect fill="#E3E3E3" height="19.5727" rx="1.5" ry="1.5" style="stroke:#181818;stroke-width:0.3;" width="114.8355" x="282.7764" y="386.543"/><text fill="#000000" font-family="sans-serif" font-size="8.4" lengthAdjust="spacing" textLength="106.4355" x="286.9764" y="399.8074">:RegisterCustomerController</text><rect fill="#E3E3E3" height="19.5727" rx="1.5" ry="1.5" style="stroke:#181818;stroke-width:0.3;" width="134.925" x="403.6119" y="53.7727"/><text fill="#000000" font-family="sans-serif" font-size="8.4" lengthAdjust="spacing" textLength="126.525" x="407.8119" y="67.0371">:RegisterRepresentativeController</text><rect fill="#E3E3E3" height="19.5727" rx="1.5" ry="1.5" style="stroke:#181818;stroke-width:0.3;" width="134.925" x="403.6119" y="386.543"/><text fill="#000000" font-family="sans-serif" font-size="8.4" lengthAdjust="spacing" textLength="126.525" x="407.8119" y="399.8074">:RegisterRepresentativeController</text><rect fill="#E3E3E3" height="19.5727" rx="1.5" ry="1.5" style="stroke:#181818;stroke-width:0.3;" width="87.2936" x="544.5369" y="53.7727"/><text fill="#000000" font-family="sans-serif" font-size="8.4" lengthAdjust="spacing" textLength="78.8936" x="548.7369" y="67.0371">:CostumerRepository</text><rect fill="#E3E3E3" height="19.5727" rx="1.5" ry="1.5" style="stroke:#181818;stroke-width:0.3;" width="87.2936" x="544.5369" y="386.543"/><text fill="#000000" font-family="sans-serif" font-size="8.4" lengthAdjust="spacing" textLength="78.8936" x="548.7369" y="399.8074">:CostumerRepository</text><rect fill="#E3E3E3" height="19.5727" rx="1.5" ry="1.5" style="stroke:#181818;stroke-width:0.3;" width="143.7926" x="637.8305" y="53.7727"/><text fill="#000000" font-family="sans-serif" font-size="8.4" lengthAdjust="spacing" textLength="135.3926" x="642.0305" y="67.0371">:CustomerRepresentativeRepository</text><rect fill="#E3E3E3" height="19.5727" rx="1.5" ry="1.5" style="stroke:#181818;stroke-width:0.3;" width="143.7926" x="637.8305" y="386.543"/><text fill="#000000" font-family="sans-serif" font-size="8.4" lengthAdjust="spacing" textLength="135.3926" x="642.0305" y="399.8074">:CustomerRepresentativeRepository</text><rect fill="#E3E3E3" height="19.5727" rx="1.5" ry="1.5" style="stroke:#181818;stroke-width:0.3;" width="96.1611" x="787.623" y="53.7727"/><text fill="#000000" font-family="sans-serif" font-size="8.4" lengthAdjust="spacing" textLength="87.7611" x="791.823" y="67.0371">:RegisterUserController</text><rect fill="#E3E3E3" height="19.5727" rx="1.5" ry="1.5" style="stroke:#181818;stroke-width:0.3;" width="96.1611" x="787.623" y="386.543"/><text fill="#000000" font-family="sans-serif" font-size="8.4" lengthAdjust="spacing" textLength="87.7611" x="791.823" y="399.8074">:RegisterUserController</text><rect fill="#FFFFFF" height="260.0484" style="stroke:#181818;stroke-width:0.6;" width="6" x="134.8787" y="121.0945"/><rect fill="#FFFFFF" height="56.3238" style="stroke:#181818;stroke-width:0.6;" width="6" x="337.1941" y="139.8691"/><rect fill="#FFFFFF" height="93.873" style="stroke:#181818;stroke-width:0.6;" width="6" x="468.0744" y="230.7422"/><rect fill="#FFFFFF" height="18.7746" style="stroke:#181818;stroke-width:0.6;" width="6" x="585.1837" y="158.6437"/><rect fill="#FFFFFF" height="18.7746" style="stroke:#181818;stroke-width:0.6;" width="6" x="706.7268" y="249.5168"/><rect fill="#FFFFFF" height="18.7746" style="stroke:#181818;stroke-width:0.6;" width="6" x="832.7036" y="287.066"/><rect fill="#EEEEEE" height="1.8" style="stroke:#EEEEEE;stroke-width:0.6;" width="895.7842" x="0" y="92.9326"/><line style="stroke:#000000;stroke-width:0.6;" x1="0" x2="895.7842" y1="92.9326" y2="92.9326"/><line style="stroke:#000000;stroke-width:0.6;" x1="0" x2="895.7842" y1="94.7326" y2="94.7326"/><rect fill="#EEEEEE" height="15.1746" style="stroke:#000000;stroke-width:1.2;" width="28.338" x="433.7231" y="85.9453"/><text fill="#000000" font-family="sans-serif" font-size="7.8" font-weight="bold" lengthAdjust="spacing" textLength="17.7709" x="437.3231" y="96.7623">Start</text><polygon fill="#181818" points="127.6787,118.6945,133.6787,121.0945,127.6787,123.4945,130.0787,121.0945" style="stroke:#181818;stroke-width:0.6;"/><line style="stroke:#181818;stroke-width:0.6;" x1="47.4103" x2="131.2787" y1="121.0945" y2="121.0945"/><text fill="#000000" font-family="sans-serif" font-size="7.8" font-weight="bold" lengthAdjust="spacing" textLength="4.338" x="51.6103" y="117.9369">1</text><text fill="#000000" font-family="sans-serif" font-size="7.8" lengthAdjust="spacing" textLength="16.4684" x="58.3482" y="117.9369">run()</text><polygon fill="#181818" points="329.9941,137.4691,335.9941,139.8691,329.9941,142.2691,332.3941,139.8691" style="stroke:#181818;stroke-width:0.6;"/><line style="stroke:#181818;stroke-width:0.6;" x1="140.8787" x2="333.5941" y1="139.8691" y2="139.8691"/><text fill="#000000" font-family="sans-serif" font-size="7.8" font-weight="bold" lengthAdjust="spacing" textLength="4.338" x="145.0787" y="136.7115">2</text><text fill="#000000" font-family="sans-serif" font-size="7.8" lengthAdjust="spacing" textLength="178.1774" x="151.8167" y="136.7115">registerCustomer(name, email, phone, nif, address)</text><polygon fill="#181818" points="577.9837,156.2438,583.9837,158.6437,577.9837,161.0438,580.3837,158.6437" style="stroke:#181818;stroke-width:0.6;"/><line style="stroke:#181818;stroke-width:0.6;" x1="343.1941" x2="581.5837" y1="158.6437" y2="158.6437"/><text fill="#000000" font-family="sans-serif" font-size="7.8" font-weight="bold" lengthAdjust="spacing" textLength="4.338" x="347.3941" y="155.4861">3</text><text fill="#000000" font-family="sans-serif" font-size="7.8" lengthAdjust="spacing" textLength="93.2001" x="354.1321" y="155.4861">saveInStore(Customer, nif)</text><polygon fill="#181818" points="349.7941,175.0184,343.7941,177.4184,349.7941,179.8184,347.3941,177.4184" style="stroke:#181818;stroke-width:0.6;"/><line style="stroke:#181818;stroke-width:0.6;stroke-dasharray:2.0,2.0;" x1="346.1941" x2="587.5837" y1="177.4184" y2="177.4184"/><text fill="#000000" font-family="sans-serif" font-size="7.8" font-weight="bold" lengthAdjust="spacing" textLength="4.338" x="353.3941" y="174.2607">4</text><text fill="#000000" font-family="sans-serif" font-size="7.8" lengthAdjust="spacing" textLength="71.971" x="360.1321" y="174.2607">Optional&lt;Customer&gt;</text><polygon fill="#181818" points="147.4787,193.793,141.4787,196.193,147.4787,198.593,145.0787,196.193" style="stroke:#181818;stroke-width:0.6;"/><line style="stroke:#181818;stroke-width:0.6;stroke-dasharray:2.0,2.0;" x1="143.8787" x2="339.5941" y1="196.193" y2="196.193"/><text fill="#000000" font-family="sans-serif" font-size="7.8" font-weight="bold" lengthAdjust="spacing" textLength="4.338" x="151.0787" y="193.0354">5</text><text fill="#000000" font-family="sans-serif" font-size="7.8" lengthAdjust="spacing" textLength="71.971" x="157.8167" y="193.0354">Optional&lt;Customer&gt;</text><path d="M6,205.193 L42.1025,205.193 L42.1025,210.7676 L36.1025,216.7676 L6,216.7676 L6,205.193 " fill="#EEEEEE" style="stroke:#000000;stroke-width:0.8999999999999999;"/><rect fill="none" height="171.75" style="stroke:#000000;stroke-width:0.8999999999999999;" width="883.7842" x="6" y="205.193"/><text fill="#000000" font-family="sans-serif" font-size="7.8" font-weight="bold" lengthAdjust="spacing" textLength="9.1025" x="15" y="214.21">alt</text><text fill="#000000" font-family="sans-serif" font-size="6.6" font-weight="bold" lengthAdjust="spacing" textLength="70.0573" x="51.1025" y="213.515">[Customer was saved]</text><polygon fill="#181818" points="460.8744,228.3422,466.8744,230.7422,460.8744,233.1422,463.2744,230.7422" style="stroke:#181818;stroke-width:0.6;"/><line style="stroke:#181818;stroke-width:0.6;" x1="140.8787" x2="464.4744" y1="230.7422" y2="230.7422"/><text fill="#000000" font-family="sans-serif" font-size="7.8" font-weight="bold" lengthAdjust="spacing" textLength="4.338" x="145.0787" y="227.5846">6</text><text fill="#000000" font-family="sans-serif" font-size="7.8" lengthAdjust="spacing" textLength="294.3662" x="151.8167" y="227.5846">registerRepresentative(customer, repName, repEmail, repPhone, position, password)</text><polygon fill="#181818" points="699.5268,247.1168,705.5268,249.5168,699.5268,251.9168,701.9268,249.5168" style="stroke:#181818;stroke-width:0.6;"/><line style="stroke:#181818;stroke-width:0.6;" x1="474.0744" x2="703.1268" y1="249.5168" y2="249.5168"/><text fill="#000000" font-family="sans-serif" font-size="7.8" font-weight="bold" lengthAdjust="spacing" textLength="4.338" x="478.2744" y="246.3592">7</text><text fill="#000000" font-family="sans-serif" font-size="7.8" lengthAdjust="spacing" textLength="74.1343" x="485.0124" y="246.3592">save(Representative)</text><polygon fill="#181818" points="480.6744,265.8914,474.6744,268.2914,480.6744,270.6914,478.2744,268.2914" style="stroke:#181818;stroke-width:0.6;"/><line style="stroke:#181818;stroke-width:0.6;stroke-dasharray:2.0,2.0;" x1="477.0744" x2="709.1268" y1="268.2914" y2="268.2914"/><text fill="#000000" font-family="sans-serif" font-size="7.8" font-weight="bold" lengthAdjust="spacing" textLength="4.338" x="484.2744" y="265.1338">8</text><text fill="#000000" font-family="sans-serif" font-size="7.8" lengthAdjust="spacing" textLength="14.3089" x="491.0124" y="265.1338">void</text><polygon fill="#181818" points="825.5036,284.666,831.5036,287.066,825.5036,289.466,827.9036,287.066" style="stroke:#181818;stroke-width:0.6;"/><line style="stroke:#181818;stroke-width:0.6;" x1="474.0744" x2="829.1036" y1="287.066" y2="287.066"/><text fill="#000000" font-family="sans-serif" font-size="7.8" font-weight="bold" lengthAdjust="spacing" textLength="4.338" x="478.2744" y="283.9084">9</text><text fill="#000000" font-family="sans-serif" font-size="7.8" lengthAdjust="spacing" textLength="145.2141" x="485.0124" y="283.9084">registerUser(name, email, password, role)</text><polygon fill="#181818" points="480.6744,303.4406,474.6744,305.8406,480.6744,308.2406,478.2744,305.8406" style="stroke:#181818;stroke-width:0.6;"/><line style="stroke:#181818;stroke-width:0.6;stroke-dasharray:2.0,2.0;" x1="477.0744" x2="835.1036" y1="305.8406" y2="305.8406"/><text fill="#000000" font-family="sans-serif" font-size="7.8" font-weight="bold" lengthAdjust="spacing" textLength="8.676" x="484.2744" y="302.683">10</text><text fill="#000000" font-family="sans-serif" font-size="7.8" lengthAdjust="spacing" textLength="27.7608" x="495.3504" y="302.683">boolean</text><polygon fill="#181818" points="147.4787,322.2152,141.4787,324.6152,147.4787,327.0152,145.0787,324.6152" style="stroke:#181818;stroke-width:0.6;"/><line style="stroke:#181818;stroke-width:0.6;stroke-dasharray:2.0,2.0;" x1="143.8787" x2="470.4744" y1="324.6152" y2="324.6152"/><text fill="#000000" font-family="sans-serif" font-size="7.8" font-weight="bold" lengthAdjust="spacing" textLength="8.676" x="151.0787" y="321.4576">11</text><text fill="#000000" font-family="sans-serif" font-size="7.8" lengthAdjust="spacing" textLength="27.7608" x="162.1547" y="321.4576">boolean</text><polygon fill="#181818" points="54.0103,340.9898,48.0103,343.3898,54.0103,345.7898,51.6103,343.3898" style="stroke:#181818;stroke-width:0.6;"/><line style="stroke:#181818;stroke-width:0.6;stroke-dasharray:2.0,2.0;" x1="50.4103" x2="134.2787" y1="343.3898" y2="343.3898"/><text fill="#000000" font-family="sans-serif" font-size="7.8" font-weight="bold" lengthAdjust="spacing" textLength="8.676" x="57.6103" y="340.2322">12</text><text fill="#000000" font-family="sans-serif" font-size="7.8" lengthAdjust="spacing" textLength="61.9925" x="68.6862" y="340.2322">success message</text><line style="stroke:#000000;stroke-width:0.6;stroke-dasharray:2.0,2.0;" x1="6" x2="889.7842" y1="348.7898" y2="348.7898"/><text fill="#000000" font-family="sans-serif" font-size="6.6" font-weight="bold" lengthAdjust="spacing" textLength="80.6985" x="9" y="355.9119">[Customer already exists]</text><polygon fill="#181818" points="54.0103,369.743,48.0103,372.143,54.0103,374.543,51.6103,372.143" style="stroke:#181818;stroke-width:0.6;"/><line style="stroke:#181818;stroke-width:0.6;stroke-dasharray:2.0,2.0;" x1="50.4103" x2="134.2787" y1="372.143" y2="372.143"/><text fill="#000000" font-family="sans-serif" font-size="7.8" font-weight="bold" lengthAdjust="spacing" textLength="8.676" x="57.6103" y="368.9854">13</text><text fill="#000000" font-family="sans-serif" font-size="7.8" lengthAdjust="spacing" textLength="50.2849" x="68.6862" y="368.9854">error message</text><!--SRC=[ZLHDZvim4BtxLuno8b8YLNjSDNjXUyYX7mhY1qnWbbWBDhLDqlpx3YQmnY7RvX3CVBnvysQCVPUgHOCDD5hfucHqG-1CHy9EdXQBTwmeSzUQm53XK5Lr661FMEgBL1MyOMr922STXsPNwwY1Z7vtf0g2LubL7vvasUiQjf1dJqzV-7cWIdAaWRIpZkiR8R1pMdNDqPyBfmsiqiDtI7LTur4RPCiAqCuCWiauMSWMbOFLyuWwWkPxdv7l_n6NQkKCmzAjmftvGVw1MaEMb4CdpnIXiFCXGAgjwneFeAtaHgwpmhqvplXm1IMZV7vTI1tPvlQkqxb9YDqECiV9iDi94GeDsnUM4Px1T2fPz_EHPtJKIolOpjvxqVheIEX4OKCRe0PblO7sf1M_AVcs0InBxii6q0jJ40j5Wj9zxrpKufdsAcFMb8mkNsK1tCirozy-wkLdwwHMM7yTlI-YfCy1GvgZWFy74pQDjPliSE6fzGsM0lWtI3_Rj43r-QuanQI5eVQ77mGVlWspuDElOHn-evWYdz3QYpRbsjUQECuNs_lc30PAmJIIEPDxFA_Q3MYQGjpMMSkXwq2lCNUPnNoz0sLwHxIBjrvP2Lt73ADhufMtT-ED-Hur8w6AASTtRe7vk2iF41O6q2z2lxZXbMNjkwBWImKD__7NN0ZYJ_N7Bc5j2Cihq1yMnNw2GyRmSqGXLOfmP_FzNm00]--></g></svg>