<svg xmlns="http://www.w3.org/2000/svg" xmlns:xlink="http://www.w3.org/1999/xlink" contentStyleType="text/css" height="639px" preserveAspectRatio="none" style="width:923px;height:639px;background:#FFFFFF;" version="1.1" viewBox="0 0 923 639" width="923px" zoomAndPan="magnify"><title>System Sequence Diagram (SSD) - Search Figure catalogue</title><defs/><g><text fill="#000000" font-family="sans-serif" font-size="14" font-weight="bold" lengthAdjust="spacing" textLength="396.792" x="267.8811" y="30.1074">System Sequence Diagram (SSD) - Search Figure catalogue</text><rect fill="#FFFFFF" height="405.2012" style="stroke:#181818;stroke-width:1.0;" width="10" x="50.4688" y="133.2422"/><rect fill="#FFFFFF" height="54.582" style="stroke:#181818;stroke-width:1.0;" width="10" x="495.3428" y="133.2422"/><rect fill="#FFFFFF" height="31.291" style="stroke:#181818;stroke-width:1.0;" width="10" x="495.3428" y="281.6973"/><rect fill="#FFFFFF" height="194.1641" style="stroke:#181818;stroke-width:1.0;" width="10" x="495.3428" y="344.2793"/><rect fill="#FFFFFF" height="28" style="stroke:#181818;stroke-width:1.0;" width="10" x="500.3428" y="383.5703"/><rect fill="#FFFFFF" height="42.291" style="stroke:#181818;stroke-width:1.0;" width="10" x="500.3428" y="457.8613"/><line style="stroke:#181818;stroke-width:0.5;stroke-dasharray:5.0,5.0;" x1="55" x2="55" y1="123.2422" y2="556.4434"/><line style="stroke:#181818;stroke-width:0.5;stroke-dasharray:5.0,5.0;" x1="500.0601" x2="500.0601" y1="123.2422" y2="556.4434"/><text fill="#000000" font-family="sans-serif" font-size="14" lengthAdjust="spacing" textLength="94.9375" x="5" y="119.7285">Show Designer</text><ellipse cx="55.4688" cy="53.1211" fill="#E3E3E3" rx="8" ry="8" style="stroke:#181818;stroke-width:0.5;"/><path d="M55.4688,61.1211 L55.4688,88.1211 M42.4688,69.1211 L68.4688,69.1211 M55.4688,88.1211 L42.4688,103.1211 M55.4688,88.1211 L68.4688,103.1211 " fill="none" style="stroke:#181818;stroke-width:0.5;"/><text fill="#000000" font-family="sans-serif" font-size="14" lengthAdjust="spacing" textLength="94.9375" x="5" y="570.5508">Show Designer</text><ellipse cx="55.4688" cy="582.5645" fill="#E3E3E3" rx="8" ry="8" style="stroke:#181818;stroke-width:0.5;"/><path d="M55.4688,590.5645 L55.4688,617.5645 M42.4688,598.5645 L68.4688,598.5645 M55.4688,617.5645 L42.4688,632.5645 M55.4688,617.5645 L68.4688,632.5645 " fill="none" style="stroke:#181818;stroke-width:0.5;"/><rect fill="#E3E3E3" height="32.6211" rx="2.5" ry="2.5" style="stroke:#181818;stroke-width:0.5;" width="64.5654" x="468.0601" y="89.6211"/><text fill="#000000" font-family="sans-serif" font-size="14" lengthAdjust="spacing" textLength="50.5654" x="475.0601" y="111.7285">:System</text><rect fill="#E3E3E3" height="32.6211" rx="2.5" ry="2.5" style="stroke:#181818;stroke-width:0.5;" width="64.5654" x="468.0601" y="555.4434"/><text fill="#000000" font-family="sans-serif" font-size="14" lengthAdjust="spacing" textLength="50.5654" x="475.0601" y="577.5508">:System</text><rect fill="#FFFFFF" height="405.2012" style="stroke:#181818;stroke-width:1.0;" width="10" x="50.4688" y="133.2422"/><rect fill="#FFFFFF" height="54.582" style="stroke:#181818;stroke-width:1.0;" width="10" x="495.3428" y="133.2422"/><rect fill="#FFFFFF" height="31.291" style="stroke:#181818;stroke-width:1.0;" width="10" x="495.3428" y="281.6973"/><rect fill="#FFFFFF" height="194.1641" style="stroke:#181818;stroke-width:1.0;" width="10" x="495.3428" y="344.2793"/><rect fill="#FFFFFF" height="28" style="stroke:#181818;stroke-width:1.0;" width="10" x="500.3428" y="383.5703"/><rect fill="#FFFFFF" height="42.291" style="stroke:#181818;stroke-width:1.0;" width="10" x="500.3428" y="457.8613"/><polygon fill="#181818" points="483.3428,152.5332,493.3428,156.5332,483.3428,160.5332,487.3428,156.5332" style="stroke:#181818;stroke-width:1.0;"/><line style="stroke:#181818;stroke-width:1.0;" x1="60.4688" x2="489.3428" y1="156.5332" y2="156.5332"/><text fill="#000000" font-family="sans-serif" font-size="13" font-weight="bold" lengthAdjust="spacing" textLength="7.23" x="67.4688" y="151.2705">1</text><text fill="#000000" font-family="sans-serif" font-size="13" lengthAdjust="spacing" textLength="36.1245" x="78.6987" y="151.2705">login()</text><polygon fill="#181818" points="71.4688,183.8242,61.4688,187.8242,71.4688,191.8242,67.4688,187.8242" style="stroke:#181818;stroke-width:1.0;"/><line style="stroke:#181818;stroke-width:1.0;stroke-dasharray:2.0,2.0;" x1="65.4688" x2="499.3428" y1="187.8242" y2="187.8242"/><text fill="#000000" font-family="sans-serif" font-size="13" font-weight="bold" lengthAdjust="spacing" textLength="7.23" x="77.4688" y="182.5615">2</text><text fill="#000000" font-family="sans-serif" font-size="13" lengthAdjust="spacing" textLength="78.0635" x="88.6987" y="182.5615">authenticated</text><polygon fill="#181818" points="488.3428,215.1152,498.3428,219.1152,488.3428,223.1152,492.3428,219.1152" style="stroke:#181818;stroke-width:1.0;"/><line style="stroke:#181818;stroke-width:1.0;" x1="60.4688" x2="494.3428" y1="219.1152" y2="219.1152"/><text fill="#000000" font-family="sans-serif" font-size="13" font-weight="bold" lengthAdjust="spacing" textLength="7.23" x="67.4688" y="213.8525">3</text><text fill="#000000" font-family="sans-serif" font-size="13" lengthAdjust="spacing" textLength="138.728" x="78.6987" y="213.8525">ask to search for figures</text><polygon fill="#181818" points="71.4688,246.4063,61.4688,250.4063,71.4688,254.4063,67.4688,250.4063" style="stroke:#181818;stroke-width:1.0;"/><line style="stroke:#181818;stroke-width:1.0;stroke-dasharray:2.0,2.0;" x1="65.4688" x2="499.3428" y1="250.4063" y2="250.4063"/><text fill="#000000" font-family="sans-serif" font-size="13" font-weight="bold" lengthAdjust="spacing" textLength="7.23" x="77.4688" y="245.1436">4</text><text fill="#000000" font-family="sans-serif" font-size="13" lengthAdjust="spacing" textLength="355.5005" x="88.6987" y="245.1436">request data (id, name, categoryId, availability, customerId,...)</text><polygon fill="#181818" points="483.3428,277.6973,493.3428,281.6973,483.3428,285.6973,487.3428,281.6973" style="stroke:#181818;stroke-width:1.0;"/><line style="stroke:#181818;stroke-width:1.0;" x1="60.4688" x2="489.3428" y1="281.6973" y2="281.6973"/><text fill="#000000" font-family="sans-serif" font-size="13" font-weight="bold" lengthAdjust="spacing" textLength="7.23" x="67.4688" y="276.4346">5</text><text fill="#000000" font-family="sans-serif" font-size="13" lengthAdjust="spacing" textLength="404.644" x="78.6987" y="276.4346">types requested data (id, name, categoryId, availability, customerId,...)</text><polygon fill="#181818" points="71.4688,308.9883,61.4688,312.9883,71.4688,316.9883,67.4688,312.9883" style="stroke:#181818;stroke-width:1.0;"/><line style="stroke:#181818;stroke-width:1.0;stroke-dasharray:2.0,2.0;" x1="65.4688" x2="499.3428" y1="312.9883" y2="312.9883"/><text fill="#000000" font-family="sans-serif" font-size="13" font-weight="bold" lengthAdjust="spacing" textLength="7.23" x="77.4688" y="307.7256">6</text><text fill="#000000" font-family="sans-serif" font-size="13" lengthAdjust="spacing" textLength="230.5024" x="88.6987" y="307.7256">show all data registered for confirmation</text><polygon fill="#181818" points="483.3428,340.2793,493.3428,344.2793,483.3428,348.2793,487.3428,344.2793" style="stroke:#181818;stroke-width:1.0;"/><line style="stroke:#181818;stroke-width:1.0;" x1="60.4688" x2="489.3428" y1="344.2793" y2="344.2793"/><text fill="#000000" font-family="sans-serif" font-size="13" font-weight="bold" lengthAdjust="spacing" textLength="7.23" x="67.4688" y="339.0166">7</text><text fill="#000000" font-family="sans-serif" font-size="13" lengthAdjust="spacing" textLength="361.9814" x="78.6987" y="339.0166">searchFigures(id, name, categoryId, availability, customerId,...)</text><line style="stroke:#181818;stroke-width:1.0;" x1="510.3428" x2="552.3428" y1="375.5703" y2="375.5703"/><line style="stroke:#181818;stroke-width:1.0;" x1="552.3428" x2="552.3428" y1="375.5703" y2="388.5703"/><line style="stroke:#181818;stroke-width:1.0;" x1="511.3428" x2="552.3428" y1="388.5703" y2="388.5703"/><polygon fill="#181818" points="521.3428,384.5703,511.3428,388.5703,521.3428,392.5703,517.3428,388.5703" style="stroke:#181818;stroke-width:1.0;"/><text fill="#000000" font-family="sans-serif" font-size="13" font-weight="bold" lengthAdjust="spacing" textLength="7.23" x="517.3428" y="370.3076">8</text><text fill="#000000" font-family="sans-serif" font-size="13" lengthAdjust="spacing" textLength="80.9199" x="528.5728" y="370.3076">validations(...)</text><line style="stroke:#181818;stroke-width:1.0;" x1="505.3428" x2="552.3428" y1="444.8613" y2="444.8613"/><line style="stroke:#181818;stroke-width:1.0;" x1="552.3428" x2="552.3428" y1="444.8613" y2="457.8613"/><line style="stroke:#181818;stroke-width:1.0;" x1="511.3428" x2="552.3428" y1="457.8613" y2="457.8613"/><polygon fill="#181818" points="521.3428,453.8613,511.3428,457.8613,521.3428,461.8613,517.3428,457.8613" style="stroke:#181818;stroke-width:1.0;"/><text fill="#000000" font-family="sans-serif" font-size="13" font-weight="bold" lengthAdjust="spacing" textLength="7.23" x="517.3428" y="439.5986">9</text><text fill="#000000" font-family="sans-serif" font-size="13" lengthAdjust="spacing" textLength="387.9814" x="528.5728" y="439.5986">findFiguresByFilter(id, name, categoryId, availability, customerId,...)</text><line style="stroke:#181818;stroke-width:1.0;stroke-dasharray:2.0,2.0;" x1="510.3428" x2="552.3428" y1="499.1523" y2="499.1523"/><line style="stroke:#181818;stroke-width:1.0;stroke-dasharray:2.0,2.0;" x1="552.3428" x2="552.3428" y1="499.1523" y2="512.1523"/><line style="stroke:#181818;stroke-width:1.0;stroke-dasharray:2.0,2.0;" x1="505.3428" x2="552.3428" y1="512.1523" y2="512.1523"/><polygon fill="#181818" points="515.3428,508.1523,505.3428,512.1523,515.3428,516.1523,511.3428,512.1523" style="stroke:#181818;stroke-width:1.0;"/><text fill="#000000" font-family="sans-serif" font-size="13" font-weight="bold" lengthAdjust="spacing" textLength="14.46" x="517.3428" y="493.8896">10</text><text fill="#000000" font-family="sans-serif" font-size="13" lengthAdjust="spacing" textLength="52.749" x="535.8027" y="493.8896">figureList</text><polygon fill="#181818" points="66.4688,534.4434,56.4688,538.4434,66.4688,542.4434,62.4688,538.4434" style="stroke:#181818;stroke-width:1.0;"/><line style="stroke:#181818;stroke-width:1.0;stroke-dasharray:2.0,2.0;" x1="60.4688" x2="499.3428" y1="538.4434" y2="538.4434"/><text fill="#000000" font-family="sans-serif" font-size="13" font-weight="bold" lengthAdjust="spacing" textLength="14.46" x="72.4688" y="533.1807">11</text><text fill="#000000" font-family="sans-serif" font-size="13" lengthAdjust="spacing" textLength="199.4497" x="90.9287" y="533.1807">show the output of public figure list</text><!--SRC=[fLD1RkCm3Bpx5KHE2T3a0JdqK1W55jYRNy38j4n4bhmIbSA_NzfAk-d6AHPTdsGEDSCPskdCViI80mp11zF7C118p5Ib3sH4SqPBZKoE898HzDRTDgGUs_36taA7Bb5L2OksDbCI6g2XNvcy8QWPxTo-RPfw1ti5C9eUNjdcI61Gq0MhoXLc2JuF9ufwDX8YR9e-l45DYQsdk05CqDILgWiR7j4BR8v5hc3BSRdC5nIQcszUhYZeqzImVxvMZg3wxBUxWfJfzpDS7q5dwichd3AqvMvBVrFUCs8wWmH8nMgdLhh5RghMHE8SLH9eDGlOSli47WTwchCX6-BqGojuGNPuOiSoAPAJwCgY8eV3OVVFSyaqKdhNe_O_51VozMm_cqlp2j6veXN9ii9HjUTKJF0Tnm65WtzWOiL5YRLyGEdRUQqAtHhu8tX1n-qoPDf-tF-Iuu6FTVgEVNjrypAzijDylkrgTQexxK_Yi_1FtSfNmp_ShFuU4BACMI1qCEQJOtFb1FTEUazuMwchtm00]--></g></svg>