<svg xmlns="http://www.w3.org/2000/svg" xmlns:xlink="http://www.w3.org/1999/xlink" contentStyleType="text/css" height="514px" preserveAspectRatio="none" style="width:651px;height:514px;background:#FFFFFF;" version="1.1" viewBox="0 0 651 514" width="651px" zoomAndPan="magnify"><title>System Sequence Diagram (SSD) - US251: Specification of Language for Figure Description</title><defs/><g><text fill="#000000" font-family="sans-serif" font-size="14" font-weight="bold" lengthAdjust="spacing" textLength="623.1095" x="10" y="29.9659">System Sequence Diagram (SSD) - US251: Specification of Language for Figure Description</text><rect fill="#FFFFFF" height="278.9421" style="stroke:#181818;stroke-width:1.0;" width="10" x="92.7829" y="134.1358"/><rect fill="#FFFFFF" height="264.2361" style="stroke:#181818;stroke-width:1.0;" width="10" x="363.5091" y="157.8419"/><rect fill="#FFFFFF" height="176.8241" style="stroke:#181818;stroke-width:1.0;" width="10" x="368.5091" y="197.5479"/><rect fill="#FFFFFF" height="87.412" style="stroke:#181818;stroke-width:1.0;" width="10" x="373.5091" y="242.2539"/><line style="stroke:#181818;stroke-width:0.5;stroke-dasharray:5.0,5.0;" x1="97.2282" x2="97.2282" y1="124.1358" y2="431.0779"/><line style="stroke:#181818;stroke-width:0.5;stroke-dasharray:5.0,5.0;" x1="367.5665" x2="367.5665" y1="124.1358" y2="431.0779"/><text fill="#000000" font-family="sans-serif" font-size="14" lengthAdjust="spacing" textLength="131.1095" x="29.2282" y="120.0339">Product Owner (PO)</text><ellipse cx="97.7829" cy="53.5679" fill="#E3E3E3" rx="8" ry="8" style="stroke:#181818;stroke-width:0.5;"/><path d="M97.7829,61.5679 L97.7829,88.5679 M84.7829,69.5679 L110.7829,69.5679 M97.7829,88.5679 L84.7829,103.5679 M97.7829,88.5679 L110.7829,103.5679 " fill="none" style="stroke:#181818;stroke-width:0.5;"/><text fill="#000000" font-family="sans-serif" font-size="14" lengthAdjust="spacing" textLength="131.1095" x="29.2282" y="445.0439">Product Owner (PO)</text><ellipse cx="97.7829" cy="457.6459" fill="#E3E3E3" rx="8" ry="8" style="stroke:#181818;stroke-width:0.5;"/><path d="M97.7829,465.6459 L97.7829,492.6459 M84.7829,473.6459 L110.7829,473.6459 M97.7829,492.6459 L84.7829,507.6459 M97.7829,492.6459 L110.7829,507.6459 " fill="none" style="stroke:#181818;stroke-width:0.5;"/><rect fill="#E3E3E3" height="33.0679" rx="2.5" ry="2.5" style="stroke:#181818;stroke-width:0.5;" width="179.8854" x="278.5665" y="90.0679"/><text fill="#000000" font-family="sans-serif" font-size="14" lengthAdjust="spacing" textLength="165.8854" x="285.5665" y="112.0339">:Figure Language System</text><rect fill="#E3E3E3" height="33.0679" rx="2.5" ry="2.5" style="stroke:#181818;stroke-width:0.5;" width="179.8854" x="278.5665" y="430.0779"/><text fill="#000000" font-family="sans-serif" font-size="14" lengthAdjust="spacing" textLength="165.8854" x="285.5665" y="452.0439">:Figure Language System</text><rect fill="#FFFFFF" height="278.9421" style="stroke:#181818;stroke-width:1.0;" width="10" x="92.7829" y="134.1358"/><rect fill="#FFFFFF" height="264.2361" style="stroke:#181818;stroke-width:1.0;" width="10" x="363.5091" y="157.8419"/><rect fill="#FFFFFF" height="176.8241" style="stroke:#181818;stroke-width:1.0;" width="10" x="368.5091" y="197.5479"/><rect fill="#FFFFFF" height="87.412" style="stroke:#181818;stroke-width:1.0;" width="10" x="373.5091" y="242.2539"/><polygon fill="#181818" points="351.5091,153.8419,361.5091,157.8419,351.5091,161.8419,355.5091,157.8419" style="stroke:#181818;stroke-width:1.0;"/><line style="stroke:#181818;stroke-width:1.0;" x1="102.7829" x2="357.5091" y1="157.8419" y2="157.8419"/><text fill="#000000" font-family="sans-serif" font-size="13" font-weight="bold" lengthAdjust="spacing" textLength="7.436" x="109.7829" y="152.0328">1</text><text fill="#000000" font-family="sans-serif" font-size="13" lengthAdjust="spacing" textLength="219.8822" x="121.2189" y="152.0328">submitFigureDescriptionCode(code)</text><line style="stroke:#181818;stroke-width:1.0;" x1="373.5091" x2="420.5091" y1="184.5479" y2="184.5479"/><line style="stroke:#181818;stroke-width:1.0;" x1="420.5091" x2="420.5091" y1="184.5479" y2="197.5479"/><line style="stroke:#181818;stroke-width:1.0;" x1="379.5091" x2="420.5091" y1="197.5479" y2="197.5479"/><polygon fill="#181818" points="389.5091,193.5479,379.5091,197.5479,389.5091,201.5479,385.5091,197.5479" style="stroke:#181818;stroke-width:1.0;"/><text fill="#000000" font-family="sans-serif" font-size="13" font-weight="bold" lengthAdjust="spacing" textLength="7.436" x="385.5091" y="178.7389">2</text><text fill="#000000" font-family="sans-serif" font-size="13" lengthAdjust="spacing" textLength="174.8761" x="396.9451" y="178.7389">invokeLexerAndParser(code)</text><line style="stroke:#181818;stroke-width:1.0;" x1="378.5091" x2="425.5091" y1="229.2539" y2="229.2539"/><line style="stroke:#181818;stroke-width:1.0;" x1="425.5091" x2="425.5091" y1="229.2539" y2="242.2539"/><line style="stroke:#181818;stroke-width:1.0;" x1="384.5091" x2="425.5091" y1="242.2539" y2="242.2539"/><polygon fill="#181818" points="394.5091,238.2539,384.5091,242.2539,394.5091,246.2539,390.5091,242.2539" style="stroke:#181818;stroke-width:1.0;"/><text fill="#000000" font-family="sans-serif" font-size="13" font-weight="bold" lengthAdjust="spacing" textLength="7.436" x="390.5091" y="223.4449">3</text><text fill="#000000" font-family="sans-serif" font-size="13" lengthAdjust="spacing" textLength="95.9271" x="401.9451" y="223.4449">parseProgram()</text><line style="stroke:#181818;stroke-width:1.0;" x1="383.5091" x2="425.5091" y1="278.9599" y2="278.9599"/><line style="stroke:#181818;stroke-width:1.0;" x1="425.5091" x2="425.5091" y1="278.9599" y2="291.9599"/><line style="stroke:#181818;stroke-width:1.0;" x1="384.5091" x2="425.5091" y1="291.9599" y2="291.9599"/><polygon fill="#181818" points="394.5091,287.9599,384.5091,291.9599,394.5091,295.9599,390.5091,291.9599" style="stroke:#181818;stroke-width:1.0;"/><text fill="#000000" font-family="sans-serif" font-size="13" font-weight="bold" lengthAdjust="spacing" textLength="7.436" x="390.5091" y="273.1509">4</text><text fill="#000000" font-family="sans-serif" font-size="13" lengthAdjust="spacing" textLength="111.6051" x="401.9451" y="273.1509">parseStatements()</text><line style="stroke:#181818;stroke-width:1.0;stroke-dasharray:2.0,2.0;" x1="383.5091" x2="425.5091" y1="328.6659" y2="328.6659"/><line style="stroke:#181818;stroke-width:1.0;stroke-dasharray:2.0,2.0;" x1="425.5091" x2="425.5091" y1="328.6659" y2="341.6659"/><line style="stroke:#181818;stroke-width:1.0;stroke-dasharray:2.0,2.0;" x1="378.5091" x2="425.5091" y1="341.6659" y2="341.6659"/><polygon fill="#181818" points="388.5091,337.6659,378.5091,341.6659,388.5091,345.6659,384.5091,341.6659" style="stroke:#181818;stroke-width:1.0;"/><text fill="#000000" font-family="sans-serif" font-size="13" font-weight="bold" lengthAdjust="spacing" textLength="7.436" x="390.5091" y="322.8569">5</text><text fill="#000000" font-family="sans-serif" font-size="13" lengthAdjust="spacing" textLength="64.8831" x="401.9451" y="322.8569">parsedAST</text><line style="stroke:#181818;stroke-width:1.0;stroke-dasharray:2.0,2.0;" x1="378.5091" x2="420.5091" y1="373.3719" y2="373.3719"/><line style="stroke:#181818;stroke-width:1.0;stroke-dasharray:2.0,2.0;" x1="420.5091" x2="420.5091" y1="373.3719" y2="386.3719"/><line style="stroke:#181818;stroke-width:1.0;stroke-dasharray:2.0,2.0;" x1="373.5091" x2="420.5091" y1="386.3719" y2="386.3719"/><polygon fill="#181818" points="383.5091,382.3719,373.5091,386.3719,383.5091,390.3719,379.5091,386.3719" style="stroke:#181818;stroke-width:1.0;"/><text fill="#000000" font-family="sans-serif" font-size="13" font-weight="bold" lengthAdjust="spacing" textLength="7.436" x="385.5091" y="367.5629">6</text><text fill="#000000" font-family="sans-serif" font-size="13" lengthAdjust="spacing" textLength="195.9362" x="396.9451" y="367.5629">validationResult(success/failure)</text><polygon fill="#181818" points="108.7829,409.0779,98.7829,413.0779,108.7829,417.0779,104.7829,413.0779" style="stroke:#181818;stroke-width:1.0;"/><line style="stroke:#181818;stroke-width:1.0;stroke-dasharray:2.0,2.0;" x1="102.7829" x2="362.5091" y1="413.0779" y2="413.0779"/><text fill="#000000" font-family="sans-serif" font-size="13" font-weight="bold" lengthAdjust="spacing" textLength="7.436" x="114.7829" y="407.2689">7</text><text fill="#000000" font-family="sans-serif" font-size="13" lengthAdjust="spacing" textLength="225.2902" x="126.2189" y="407.2689">feedbackOnParsing(validationResult)</text><!--SRC=[bP91QiCm44NtEiMGbRq8fOLkl2Y4Xgu2DbLxW8ayTeVOaYkDakRsbUCqc1H2wuKnrljFmvV2Zks07dledNNcmxkUG7ma5Iuh0veTjgJbs15uCeAsxUP0-C3Q7TYsq60NI2bXIQW-1g4UD7r6iePWpTYEUARrEeSblEk7n_i2z4266pOex2ou1ZR97zE6q3WFBzn6dx8KZETXH1H6SJRsM_9AeP44BIhlwcW4oeCb3rbLvWl005MfqeJ2XWUq0elYRBliC8ruOgVFav7tA3I65QIdAc7vT5uk8CHjpp9vPaCzkveoarxvANEH_5Z7d-S-PZAsUxUZ3NsHNzcwGX_8_zyoZBdKm5XkTYDv8wqbmJrP2Kdm2xwcwvL-cwYQRiuu2-wnu_fqnAyKOYTPYCPG27SDSfUwpF_egye26g9wcovbQSVAqhtBhksvcfdIGNu3]--></g></svg>