<svg xmlns="http://www.w3.org/2000/svg" xmlns:xlink="http://www.w3.org/1999/xlink" contentStyleType="text/css" height="582px" preserveAspectRatio="none" style="width:663px;height:582px;background:#FFFFFF;" version="1.1" viewBox="0 0 663 582" width="663px" zoomAndPan="magnify"><title>System Sequence Diagram (SSD) - Edit Figure Category</title><defs/><g><text fill="#000000" font-family="sans-serif" font-size="14" font-weight="bold" lengthAdjust="spacing" textLength="397.5439" x="140.0469" y="28.5352">System Sequence Diagram (SSD) - Edit Figure Category</text><rect fill="#FFFFFF" height="362.0605" style="stroke:#181818;stroke-width:1.0;" width="10" x="68.2305" y="128.9766"/><rect fill="#FFFFFF" height="340.75" style="stroke:#181818;stroke-width:1.0;" width="10" x="399.2065" y="150.2871"/><rect fill="none" height="90.8867" style="stroke:#000000;stroke-width:1.5;" width="437.4702" x="10" y="393.1504"/><line style="stroke:#181818;stroke-width:0.5;stroke-dasharray:5.0,5.0;" x1="73" x2="73" y1="118.9766" y2="501.0371"/><line style="stroke:#181818;stroke-width:0.5;stroke-dasharray:5.0,5.0;" x1="403.9429" x2="403.9429" y1="118.9766" y2="501.0371"/><text fill="#000000" font-family="sans-serif" font-size="14" lengthAdjust="spacing" textLength="100.4609" x="20" y="116.0234">Show Designer</text><ellipse cx="73.2305" cy="50.9883" fill="#E3E3E3" rx="8" ry="8" style="stroke:#181818;stroke-width:0.5;"/><path d="M73.2305,58.9883 L73.2305,85.9883 M60.2305,66.9883 L86.2305,66.9883 M73.2305,85.9883 L60.2305,100.9883 M73.2305,85.9883 L86.2305,100.9883 " fill="none" style="stroke:#181818;stroke-width:0.5;"/><text fill="#000000" font-family="sans-serif" font-size="14" lengthAdjust="spacing" textLength="100.4609" x="20" y="513.5723">Show Designer</text><ellipse cx="73.2305" cy="525.0254" fill="#E3E3E3" rx="8" ry="8" style="stroke:#181818;stroke-width:0.5;"/><path d="M73.2305,533.0254 L73.2305,560.0254 M60.2305,541.0254 L86.2305,541.0254 M73.2305,560.0254 L60.2305,575.0254 M73.2305,560.0254 L86.2305,575.0254 " fill="none" style="stroke:#181818;stroke-width:0.5;"/><rect fill="#E3E3E3" height="30.4883" rx="2.5" ry="2.5" style="stroke:#181818;stroke-width:0.5;" width="66.5273" x="370.9429" y="87.4883"/><text fill="#000000" font-family="sans-serif" font-size="14" lengthAdjust="spacing" textLength="52.5273" x="377.9429" y="108.0234">:System</text><rect fill="#E3E3E3" height="30.4883" rx="2.5" ry="2.5" style="stroke:#181818;stroke-width:0.5;" width="66.5273" x="370.9429" y="500.0371"/><text fill="#000000" font-family="sans-serif" font-size="14" lengthAdjust="spacing" textLength="52.5273" x="377.9429" y="520.5723">:System</text><rect fill="#FFFFFF" height="362.0605" style="stroke:#181818;stroke-width:1.0;" width="10" x="68.2305" y="128.9766"/><rect fill="#FFFFFF" height="340.75" style="stroke:#181818;stroke-width:1.0;" width="10" x="399.2065" y="150.2871"/><polygon fill="#181818" points="387.2065,146.2871,397.2065,150.2871,387.2065,154.2871,391.2065,150.2871" style="stroke:#181818;stroke-width:1.0;"/><line style="stroke:#181818;stroke-width:1.0;" x1="78.2305" x2="393.2065" y1="150.2871" y2="150.2871"/><text fill="#000000" font-family="sans-serif" font-size="13" font-weight="bold" lengthAdjust="spacing" textLength="8.5757" x="85.2305" y="145.5449">1</text><text fill="#000000" font-family="sans-serif" font-size="13" lengthAdjust="spacing" textLength="203.4614" x="97.8062" y="145.5449">requests to edit Figure Category</text><line style="stroke:#181818;stroke-width:1.0;" x1="409.2065" x2="451.2065" y1="179.5977" y2="179.5977"/><line style="stroke:#181818;stroke-width:1.0;" x1="451.2065" x2="451.2065" y1="179.5977" y2="192.5977"/><line style="stroke:#181818;stroke-width:1.0;" x1="410.2065" x2="451.2065" y1="192.5977" y2="192.5977"/><polygon fill="#181818" points="420.2065,188.5977,410.2065,192.5977,420.2065,196.5977,416.2065,192.5977" style="stroke:#181818;stroke-width:1.0;"/><text fill="#000000" font-family="sans-serif" font-size="13" font-weight="bold" lengthAdjust="spacing" textLength="8.5757" x="416.2065" y="174.8555">2</text><text fill="#000000" font-family="sans-serif" font-size="13" lengthAdjust="spacing" textLength="173.9258" x="428.7822" y="174.8555">fetches all active categories</text><polygon fill="#181818" points="89.2305,217.9082,79.2305,221.9082,89.2305,225.9082,85.2305,221.9082" style="stroke:#181818;stroke-width:1.0;"/><line style="stroke:#181818;stroke-width:1.0;stroke-dasharray:2.0,2.0;" x1="83.2305" x2="398.2065" y1="221.9082" y2="221.9082"/><text fill="#000000" font-family="sans-serif" font-size="13" font-weight="bold" lengthAdjust="spacing" textLength="8.5757" x="95.2305" y="217.166">3</text><text fill="#000000" font-family="sans-serif" font-size="13" lengthAdjust="spacing" textLength="284.4004" x="107.8062" y="217.166">sends all active categories for user to choose</text><polygon fill="#181818" points="387.2065,247.2188,397.2065,251.2188,387.2065,255.2188,391.2065,251.2188" style="stroke:#181818;stroke-width:1.0;"/><line style="stroke:#181818;stroke-width:1.0;" x1="78.2305" x2="393.2065" y1="251.2188" y2="251.2188"/><text fill="#000000" font-family="sans-serif" font-size="13" font-weight="bold" lengthAdjust="spacing" textLength="8.5757" x="85.2305" y="246.4766">4</text><text fill="#000000" font-family="sans-serif" font-size="13" lengthAdjust="spacing" textLength="279.646" x="97.8062" y="246.4766">chooses the category to edit and edits fields</text><line style="stroke:#181818;stroke-width:1.0;" x1="409.2065" x2="451.2065" y1="280.5293" y2="280.5293"/><line style="stroke:#181818;stroke-width:1.0;" x1="451.2065" x2="451.2065" y1="280.5293" y2="293.5293"/><line style="stroke:#181818;stroke-width:1.0;" x1="410.2065" x2="451.2065" y1="293.5293" y2="293.5293"/><polygon fill="#181818" points="420.2065,289.5293,410.2065,293.5293,420.2065,297.5293,416.2065,293.5293" style="stroke:#181818;stroke-width:1.0;"/><text fill="#000000" font-family="sans-serif" font-size="13" font-weight="bold" lengthAdjust="spacing" textLength="8.5757" x="416.2065" y="275.7871">5</text><text fill="#000000" font-family="sans-serif" font-size="13" lengthAdjust="spacing" textLength="154.8511" x="428.7822" y="275.7871">validates Category name</text><line style="stroke:#181818;stroke-width:1.0;" x1="409.2065" x2="451.2065" y1="322.8398" y2="322.8398"/><line style="stroke:#181818;stroke-width:1.0;" x1="451.2065" x2="451.2065" y1="322.8398" y2="335.8398"/><line style="stroke:#181818;stroke-width:1.0;" x1="410.2065" x2="451.2065" y1="335.8398" y2="335.8398"/><polygon fill="#181818" points="420.2065,331.8398,410.2065,335.8398,420.2065,339.8398,416.2065,335.8398" style="stroke:#181818;stroke-width:1.0;"/><text fill="#000000" font-family="sans-serif" font-size="13" font-weight="bold" lengthAdjust="spacing" textLength="8.5757" x="416.2065" y="318.0977">6</text><text fill="#000000" font-family="sans-serif" font-size="13" lengthAdjust="spacing" textLength="227.8555" x="428.7822" y="318.0977">checks Category's name uniqueness</text><line style="stroke:#181818;stroke-width:1.0;" x1="409.2065" x2="451.2065" y1="365.1504" y2="365.1504"/><line style="stroke:#181818;stroke-width:1.0;" x1="451.2065" x2="451.2065" y1="365.1504" y2="378.1504"/><line style="stroke:#181818;stroke-width:1.0;" x1="410.2065" x2="451.2065" y1="378.1504" y2="378.1504"/><polygon fill="#181818" points="420.2065,374.1504,410.2065,378.1504,420.2065,382.1504,416.2065,378.1504" style="stroke:#181818;stroke-width:1.0;"/><text fill="#000000" font-family="sans-serif" font-size="13" font-weight="bold" lengthAdjust="spacing" textLength="8.5757" x="416.2065" y="360.4082">7</text><text fill="#000000" font-family="sans-serif" font-size="13" lengthAdjust="spacing" textLength="130.2729" x="428.7822" y="360.4082">validates description</text><path d="M10,393.1504 L72.1387,393.1504 L72.1387,400.4609 L62.1387,410.4609 L10,410.4609 L10,393.1504 " fill="#EEEEEE" style="stroke:#000000;stroke-width:1.5;"/><rect fill="none" height="90.8867" style="stroke:#000000;stroke-width:1.5;" width="437.4702" x="10" y="393.1504"/><text fill="#000000" font-family="sans-serif" font-size="13" font-weight="bold" lengthAdjust="spacing" textLength="17.1387" x="25" y="406.7188">alt</text><text fill="#000000" font-family="sans-serif" font-size="11" font-weight="bold" lengthAdjust="spacing" textLength="103.4849" x="87.1387" y="405.7852">[Duplicated name]</text><polygon fill="#181818" points="89.2305,427.7715,79.2305,431.7715,89.2305,435.7715,85.2305,431.7715" style="stroke:#181818;stroke-width:1.0;"/><line style="stroke:#181818;stroke-width:1.0;stroke-dasharray:2.0,2.0;" x1="83.2305" x2="398.2065" y1="431.7715" y2="431.7715"/><text fill="#000000" font-family="sans-serif" font-size="13" font-weight="bold" lengthAdjust="spacing" textLength="8.5757" x="95.2305" y="427.0293">8</text><text fill="#000000" font-family="sans-serif" font-size="13" lengthAdjust="spacing" textLength="207.8413" x="107.8062" y="427.0293">error message (duplicated name)</text><line style="stroke:#000000;stroke-width:1.0;stroke-dasharray:2.0,2.0;" x1="10" x2="447.4702" y1="440.7715" y2="440.7715"/><text fill="#000000" font-family="sans-serif" font-size="11" font-weight="bold" lengthAdjust="spacing" textLength="71.1777" x="15" y="451.4063">[Valid name]</text><polygon fill="#181818" points="89.2305,472.0371,79.2305,476.0371,89.2305,480.0371,85.2305,476.0371" style="stroke:#181818;stroke-width:1.0;"/><line style="stroke:#181818;stroke-width:1.0;stroke-dasharray:2.0,2.0;" x1="83.2305" x2="398.2065" y1="476.0371" y2="476.0371"/><text fill="#000000" font-family="sans-serif" font-size="13" font-weight="bold" lengthAdjust="spacing" textLength="8.5757" x="95.2305" y="471.2949">9</text><text fill="#000000" font-family="sans-serif" font-size="13" lengthAdjust="spacing" textLength="278.6431" x="107.8062" y="471.2949">informs user about the successful operation</text><!--SRC=[VL91KiCm3Bpx5PfUW0CVo84BWGzaXhjgguccZXqikPt-7YNfXC8KRXfhTxKhMOwS9YmumfXJzaF98u6MIawspeJ-Y3rrUea4XRnYwkCjG0OC-SofXmD68UUKrQ3THPH6wEYpKl84BMC_mn-xhds2PtWBhF3EVIq4hwZKvt9n3glcLCSz5QkzvWAxRiXdQ4cuJrHsW09TwsoqikS9ayAkMMUjlQLSo7mosHdikXQUNwwjnaAO9L41pK3tN7npLx5hb1k90waVI01ZX0LDu5SsaspucT0s89J27r0uMC8gL6OlViZPzdTh5fhhgvaTDk9bSuufB8K9CSKWTwoUC78mdcpv8E58Tv2Mo1-_OG-o0A4cdaz8yhzw8F659-MSRFjHeQrJvDbnM0V2hxLGAHP-D5txNl0OViAV7DbdWezP_pwVaorlb7LzkCzLbnr9zTuq3pL2dgZWQiXEu5oWtvUzVMdT5m00]--></g></svg>