<svg xmlns="http://www.w3.org/2000/svg" xmlns:xlink="http://www.w3.org/1999/xlink" contentStyleType="text/css" height="746px" preserveAspectRatio="none" style="width:497px;height:746px;background:#FFFFFF;" version="1.1" viewBox="0 0 497 746" width="497px" zoomAndPan="magnify"><title>System Sequence Diagram (SSD) - Register Proposal Template</title><defs/><g><text fill="#000000" font-family="sans-serif" font-size="14" font-weight="bold" lengthAdjust="spacing" textLength="449.251" x="30.6602" y="28.5352">System Sequence Diagram (SSD) - Register Proposal Template</text><rect fill="#FFFFFF" height="505.6133" style="stroke:#181818;stroke-width:1.0;" width="10" x="302.7197" y="150.2871"/><rect fill="none" height="118.2422" style="stroke:#000000;stroke-width:1.5;" width="469.7124" x="10" y="324.8398"/><rect fill="none" height="90.8867" style="stroke:#000000;stroke-width:1.5;" width="338.7686" x="10" y="558.0137"/><line style="stroke:#181818;stroke-width:0.5;stroke-dasharray:5.0,5.0;" x1="69" x2="69" y1="118.9766" y2="665.9004"/><line style="stroke:#181818;stroke-width:0.5;stroke-dasharray:5.0,5.0;" x1="307.6709" x2="307.6709" y1="118.9766" y2="665.9004"/><text fill="#000000" font-family="sans-serif" font-size="14" lengthAdjust="spacing" textLength="93.4951" x="20" y="116.0234">CRM Manager</text><ellipse cx="69.7476" cy="50.9883" fill="#E3E3E3" rx="8" ry="8" style="stroke:#181818;stroke-width:0.5;"/><path d="M69.7476,58.9883 L69.7476,85.9883 M56.7476,66.9883 L82.7476,66.9883 M69.7476,85.9883 L56.7476,100.9883 M69.7476,85.9883 L82.7476,100.9883 " fill="none" style="stroke:#181818;stroke-width:0.5;"/><text fill="#000000" font-family="sans-serif" font-size="14" lengthAdjust="spacing" textLength="93.4951" x="20" y="678.4355">CRM Manager</text><ellipse cx="69.7476" cy="689.8887" fill="#E3E3E3" rx="8" ry="8" style="stroke:#181818;stroke-width:0.5;"/><path d="M69.7476,697.8887 L69.7476,724.8887 M56.7476,705.8887 L82.7476,705.8887 M69.7476,724.8887 L56.7476,739.8887 M69.7476,724.8887 L82.7476,739.8887 " fill="none" style="stroke:#181818;stroke-width:0.5;"/><rect fill="#E3E3E3" height="30.4883" rx="2.5" ry="2.5" style="stroke:#181818;stroke-width:0.5;" width="62.0977" x="276.6709" y="87.4883"/><text fill="#000000" font-family="sans-serif" font-size="14" lengthAdjust="spacing" textLength="48.0977" x="283.6709" y="108.0234">System</text><rect fill="#E3E3E3" height="30.4883" rx="2.5" ry="2.5" style="stroke:#181818;stroke-width:0.5;" width="62.0977" x="276.6709" y="664.9004"/><text fill="#000000" font-family="sans-serif" font-size="14" lengthAdjust="spacing" textLength="48.0977" x="283.6709" y="685.4355">System</text><rect fill="#FFFFFF" height="505.6133" style="stroke:#181818;stroke-width:1.0;" width="10" x="302.7197" y="150.2871"/><polygon fill="#181818" points="290.7197,146.2871,300.7197,150.2871,290.7197,154.2871,294.7197,150.2871" style="stroke:#181818;stroke-width:1.0;"/><line style="stroke:#181818;stroke-width:1.0;" x1="69.7476" x2="296.7197" y1="150.2871" y2="150.2871"/><text fill="#000000" font-family="sans-serif" font-size="13" font-weight="bold" lengthAdjust="spacing" textLength="8.5757" x="76.7476" y="145.5449">1</text><text fill="#000000" font-family="sans-serif" font-size="13" lengthAdjust="spacing" textLength="166.0039" x="89.3232" y="145.5449">Start template registration</text><polygon fill="#181818" points="80.7476,175.5977,70.7476,179.5977,80.7476,183.5977,76.7476,179.5977" style="stroke:#181818;stroke-width:1.0;"/><line style="stroke:#181818;stroke-width:1.0;" x1="74.7476" x2="301.7197" y1="179.5977" y2="179.5977"/><text fill="#000000" font-family="sans-serif" font-size="13" font-weight="bold" lengthAdjust="spacing" textLength="8.5757" x="86.7476" y="174.8555">2</text><text fill="#000000" font-family="sans-serif" font-size="13" lengthAdjust="spacing" textLength="148.7637" x="99.3232" y="174.8555">Request template name</text><polygon fill="#181818" points="290.7197,204.9082,300.7197,208.9082,290.7197,212.9082,294.7197,208.9082" style="stroke:#181818;stroke-width:1.0;"/><line style="stroke:#181818;stroke-width:1.0;" x1="69.7476" x2="296.7197" y1="208.9082" y2="208.9082"/><text fill="#000000" font-family="sans-serif" font-size="13" font-weight="bold" lengthAdjust="spacing" textLength="8.5757" x="76.7476" y="204.166">3</text><text fill="#000000" font-family="sans-serif" font-size="13" lengthAdjust="spacing" textLength="85.1411" x="89.3232" y="204.166">Provide name</text><line style="stroke:#181818;stroke-width:1.0;" x1="312.7197" x2="354.7197" y1="238.2188" y2="238.2188"/><line style="stroke:#181818;stroke-width:1.0;" x1="354.7197" x2="354.7197" y1="238.2188" y2="251.2188"/><line style="stroke:#181818;stroke-width:1.0;" x1="313.7197" x2="354.7197" y1="251.2188" y2="251.2188"/><polygon fill="#181818" points="323.7197,247.2188,313.7197,251.2188,323.7197,255.2188,319.7197,251.2188" style="stroke:#181818;stroke-width:1.0;"/><text fill="#000000" font-family="sans-serif" font-size="13" font-weight="bold" lengthAdjust="spacing" textLength="8.5757" x="319.7197" y="233.4766">4</text><text fill="#000000" font-family="sans-serif" font-size="13" lengthAdjust="spacing" textLength="89.4004" x="332.2954" y="233.4766">Validate name</text><polygon fill="#181818" points="80.7476,276.5293,70.7476,280.5293,80.7476,284.5293,76.7476,280.5293" style="stroke:#181818;stroke-width:1.0;"/><line style="stroke:#181818;stroke-width:1.0;" x1="74.7476" x2="301.7197" y1="280.5293" y2="280.5293"/><text fill="#000000" font-family="sans-serif" font-size="13" font-weight="bold" lengthAdjust="spacing" textLength="8.5757" x="86.7476" y="275.7871">5</text><text fill="#000000" font-family="sans-serif" font-size="13" lengthAdjust="spacing" textLength="176.249" x="99.3232" y="275.7871">Ask for description (yes/no)</text><polygon fill="#181818" points="290.7197,305.8398,300.7197,309.8398,290.7197,313.8398,294.7197,309.8398" style="stroke:#181818;stroke-width:1.0;"/><line style="stroke:#181818;stroke-width:1.0;" x1="69.7476" x2="296.7197" y1="309.8398" y2="309.8398"/><text fill="#000000" font-family="sans-serif" font-size="13" font-weight="bold" lengthAdjust="spacing" textLength="8.5757" x="76.7476" y="305.0977">6</text><text fill="#000000" font-family="sans-serif" font-size="13" lengthAdjust="spacing" textLength="165.4834" x="89.3232" y="305.0977">Answer description choice</text><path d="M10,324.8398 L72.1387,324.8398 L72.1387,332.1504 L62.1387,342.1504 L10,342.1504 L10,324.8398 " fill="#EEEEEE" style="stroke:#000000;stroke-width:1.5;"/><rect fill="none" height="118.2422" style="stroke:#000000;stroke-width:1.5;" width="469.7124" x="10" y="324.8398"/><text fill="#000000" font-family="sans-serif" font-size="13" font-weight="bold" lengthAdjust="spacing" textLength="17.1387" x="25" y="338.4082">alt</text><text fill="#000000" font-family="sans-serif" font-size="11" font-weight="bold" lengthAdjust="spacing" textLength="117.165" x="87.1387" y="337.4746">[Description chosen]</text><polygon fill="#181818" points="80.7476,359.4609,70.7476,363.4609,80.7476,367.4609,76.7476,363.4609" style="stroke:#181818;stroke-width:1.0;"/><line style="stroke:#181818;stroke-width:1.0;" x1="74.7476" x2="301.7197" y1="363.4609" y2="363.4609"/><text fill="#000000" font-family="sans-serif" font-size="13" font-weight="bold" lengthAdjust="spacing" textLength="8.5757" x="86.7476" y="358.7188">7</text><text fill="#000000" font-family="sans-serif" font-size="13" lengthAdjust="spacing" textLength="125.2012" x="99.3232" y="358.7188">Request description</text><polygon fill="#181818" points="290.7197,388.7715,300.7197,392.7715,290.7197,396.7715,294.7197,392.7715" style="stroke:#181818;stroke-width:1.0;"/><line style="stroke:#181818;stroke-width:1.0;" x1="69.7476" x2="296.7197" y1="392.7715" y2="392.7715"/><text fill="#000000" font-family="sans-serif" font-size="13" font-weight="bold" lengthAdjust="spacing" textLength="8.5757" x="76.7476" y="388.0293">8</text><text fill="#000000" font-family="sans-serif" font-size="13" lengthAdjust="spacing" textLength="121.1577" x="89.3232" y="388.0293">Provide description</text><line style="stroke:#181818;stroke-width:1.0;" x1="312.7197" x2="354.7197" y1="422.082" y2="422.082"/><line style="stroke:#181818;stroke-width:1.0;" x1="354.7197" x2="354.7197" y1="422.082" y2="435.082"/><line style="stroke:#181818;stroke-width:1.0;" x1="313.7197" x2="354.7197" y1="435.082" y2="435.082"/><polygon fill="#181818" points="323.7197,431.082,313.7197,435.082,323.7197,439.082,319.7197,435.082" style="stroke:#181818;stroke-width:1.0;"/><text fill="#000000" font-family="sans-serif" font-size="13" font-weight="bold" lengthAdjust="spacing" textLength="8.5757" x="319.7197" y="417.3398">9</text><text fill="#000000" font-family="sans-serif" font-size="13" lengthAdjust="spacing" textLength="125.417" x="332.2954" y="417.3398">Validate description</text><polygon fill="#181818" points="80.7476,467.3926,70.7476,471.3926,80.7476,475.3926,76.7476,471.3926" style="stroke:#181818;stroke-width:1.0;"/><line style="stroke:#181818;stroke-width:1.0;" x1="74.7476" x2="301.7197" y1="471.3926" y2="471.3926"/><text fill="#000000" font-family="sans-serif" font-size="13" font-weight="bold" lengthAdjust="spacing" textLength="17.1514" x="86.7476" y="466.6504">10</text><text fill="#000000" font-family="sans-serif" font-size="13" lengthAdjust="spacing" textLength="161.8843" x="107.8989" y="466.6504">Request template content</text><polygon fill="#181818" points="290.7197,496.7031,300.7197,500.7031,290.7197,504.7031,294.7197,500.7031" style="stroke:#181818;stroke-width:1.0;"/><line style="stroke:#181818;stroke-width:1.0;" x1="69.7476" x2="296.7197" y1="500.7031" y2="500.7031"/><text fill="#000000" font-family="sans-serif" font-size="13" font-weight="bold" lengthAdjust="spacing" textLength="17.1514" x="76.7476" y="495.9609">11</text><text fill="#000000" font-family="sans-serif" font-size="13" lengthAdjust="spacing" textLength="132.6406" x="97.8989" y="495.9609">Submit template text</text><line style="stroke:#181818;stroke-width:1.0;" x1="312.7197" x2="354.7197" y1="530.0137" y2="530.0137"/><line style="stroke:#181818;stroke-width:1.0;" x1="354.7197" x2="354.7197" y1="530.0137" y2="543.0137"/><line style="stroke:#181818;stroke-width:1.0;" x1="313.7197" x2="354.7197" y1="543.0137" y2="543.0137"/><polygon fill="#181818" points="323.7197,539.0137,313.7197,543.0137,323.7197,547.0137,319.7197,543.0137" style="stroke:#181818;stroke-width:1.0;"/><text fill="#000000" font-family="sans-serif" font-size="13" font-weight="bold" lengthAdjust="spacing" textLength="17.1514" x="319.7197" y="525.2715">12</text><text fill="#000000" font-family="sans-serif" font-size="13" lengthAdjust="spacing" textLength="148.7002" x="340.8711" y="525.2715">Validate template fields</text><path d="M10,558.0137 L72.1387,558.0137 L72.1387,565.3242 L62.1387,575.3242 L10,575.3242 L10,558.0137 " fill="#EEEEEE" style="stroke:#000000;stroke-width:1.5;"/><rect fill="none" height="90.8867" style="stroke:#000000;stroke-width:1.5;" width="338.7686" x="10" y="558.0137"/><text fill="#000000" font-family="sans-serif" font-size="13" font-weight="bold" lengthAdjust="spacing" textLength="17.1387" x="25" y="571.582">alt</text><text fill="#000000" font-family="sans-serif" font-size="11" font-weight="bold" lengthAdjust="spacing" textLength="101.041" x="87.1387" y="570.6484">[Validation failed]</text><polygon fill="#181818" points="80.7476,592.6348,70.7476,596.6348,80.7476,600.6348,76.7476,596.6348" style="stroke:#181818;stroke-width:1.0;"/><line style="stroke:#181818;stroke-width:1.0;" x1="74.7476" x2="301.7197" y1="596.6348" y2="596.6348"/><text fill="#000000" font-family="sans-serif" font-size="13" font-weight="bold" lengthAdjust="spacing" textLength="17.1514" x="86.7476" y="591.8926">13</text><text fill="#000000" font-family="sans-serif" font-size="13" lengthAdjust="spacing" textLength="161.9668" x="107.8989" y="591.8926">Show missing fields: ${...}</text><line style="stroke:#000000;stroke-width:1.0;stroke-dasharray:2.0,2.0;" x1="10" x2="348.7686" y1="605.6348" y2="605.6348"/><text fill="#000000" font-family="sans-serif" font-size="11" font-weight="bold" lengthAdjust="spacing" textLength="109.0547" x="15" y="616.2695">[Validation passed]</text><polygon fill="#181818" points="80.7476,636.9004,70.7476,640.9004,80.7476,644.9004,76.7476,640.9004" style="stroke:#181818;stroke-width:1.0;"/><line style="stroke:#181818;stroke-width:1.0;" x1="74.7476" x2="301.7197" y1="640.9004" y2="640.9004"/><text fill="#000000" font-family="sans-serif" font-size="13" font-weight="bold" lengthAdjust="spacing" textLength="17.1514" x="86.7476" y="636.1582">14</text><text fill="#000000" font-family="sans-serif" font-size="13" lengthAdjust="spacing" textLength="187.8208" x="107.8989" y="636.1582">Confirm template registration</text><!--SRC=[VL8zRy8m4DtzAqwe0mpGdQ4I2cka2bVTZNC9fyPswhj0KTN_NWSYaYXgj-ZUnxrt3d-GRqmq3bpmmPvYS0WIMrH2KYFeAmiwqFZPehS8Up9LnrvglL_16WvOKM94U8sX2MngU4FNr4PGATDAyAqxOapVLaA4HNR88JVUL1WNO1YoNANjGfOQumKMztKtI2kLvR1-0Rq5BOa4qZj3l2sDHYZupfdEtJG9TCVFycsAbVBoIEADmy4lXJrJqKzrFtmtDHKFxk2rumyeK_W2sKPgkgMml28_-x0QB7UUBpWbsLCWszsX5jXFvunU0SpYZjG9diMTmhFSOnXzyTyvRF22NaONRe-EHWJ1BvbVvW6NX7N1zsezsZKh3TLOZ9lfKxY08sRoLQ_QmjFtPhFvKLWpZjMDOPwgi-1BYkwFbxzrB73u0Nu1]--></g></svg>