<svg xmlns="http://www.w3.org/2000/svg" xmlns:xlink="http://www.w3.org/1999/xlink" contentStyleType="text/css" height="855px" preserveAspectRatio="none" style="width:1012px;height:855px;background:#FFFFFF;" version="1.1" viewBox="0 0 1012 855" width="1012px" zoomAndPan="magnify"><defs/><g><!--cluster usermanagement--><g id="cluster_usermanagement"><path d="M8.5,6.0137 L125.4307,6.0137 A3.75,3.75 0 0 1 127.9307,8.5137 L134.9307,30.6348 L1002.5,30.6348 A2.5,2.5 0 0 1 1005,33.1348 L1005,845.5137 A2.5,2.5 0 0 1 1002.5,848.0137 L8.5,848.0137 A2.5,2.5 0 0 1 6,845.5137 L6,8.5137 A2.5,2.5 0 0 1 8.5,6.0137 " fill="none" style="stroke:#000000;stroke-width:1.5;"/><line style="stroke:#000000;stroke-width:1.5;" x1="6" x2="134.9307" y1="30.6348" y2="30.6348"/><text fill="#000000" font-family="sans-serif" font-size="14" font-weight="bold" lengthAdjust="spacing" textLength="115.9307" x="10" y="23.1211">usermanagement</text></g><!--cluster domain--><g id="cluster_domain"><path d="M513.5,428.0137 L564.2793,428.0137 A3.75,3.75 0 0 1 566.7793,430.5137 L573.7793,452.6348 L978.5,452.6348 A2.5,2.5 0 0 1 981,455.1348 L981,821.5137 A2.5,2.5 0 0 1 978.5,824.0137 L513.5,824.0137 A2.5,2.5 0 0 1 511,821.5137 L511,430.5137 A2.5,2.5 0 0 1 513.5,428.0137 " fill="none" style="stroke:#000000;stroke-width:1.5;"/><line style="stroke:#000000;stroke-width:1.5;" x1="511" x2="573.7793" y1="452.6348" y2="452.6348"/><text fill="#000000" font-family="sans-serif" font-size="14" font-weight="bold" lengthAdjust="spacing" textLength="49.7793" x="515" y="445.1211">domain</text></g><!--cluster application--><g id="cluster_application"><path d="M32.5,222.0137 L107.3965,222.0137 A3.75,3.75 0 0 1 109.8965,224.5137 L116.8965,246.6348 L484.5,246.6348 A2.5,2.5 0 0 1 487,249.1348 L487,619.5137 A2.5,2.5 0 0 1 484.5,622.0137 L32.5,622.0137 A2.5,2.5 0 0 1 30,619.5137 L30,224.5137 A2.5,2.5 0 0 1 32.5,222.0137 " fill="none" style="stroke:#000000;stroke-width:1.5;"/><line style="stroke:#000000;stroke-width:1.5;" x1="30" x2="116.8965" y1="246.6348" y2="246.6348"/><text fill="#000000" font-family="sans-serif" font-size="14" font-weight="bold" lengthAdjust="spacing" textLength="73.8965" x="34" y="239.1211">application</text></g><!--cluster bootstrap--><g id="cluster_bootstrap"><path d="M164.5,51.0137 L230.0518,51.0137 A3.75,3.75 0 0 1 232.5518,53.5137 L239.5518,75.6348 L413.5,75.6348 A2.5,2.5 0 0 1 416,78.1348 L416,186.5137 A2.5,2.5 0 0 1 413.5,189.0137 L164.5,189.0137 A2.5,2.5 0 0 1 162,186.5137 L162,53.5137 A2.5,2.5 0 0 1 164.5,51.0137 " fill="none" style="stroke:#000000;stroke-width:1.5;"/><line style="stroke:#000000;stroke-width:1.5;" x1="162" x2="239.5518" y1="75.6348" y2="75.6348"/><text fill="#000000" font-family="sans-serif" font-size="14" font-weight="bold" lengthAdjust="spacing" textLength="64.5518" x="166" y="68.1211">bootstrap</text></g><!--class User--><g id="elem_User"><rect codeLine="4" fill="#F1F1F1" height="196.9688" id="User" rx="2.5" ry="2.5" style="stroke:#181818;stroke-width:0.5;" width="145.8477" x="593" y="465.0137"/><ellipse cx="646.8945" cy="481.0137" fill="#ADD1B2" rx="11" ry="11" style="stroke:#181818;stroke-width:1.0;"/><path d="M649.6602,476.8887 Q649.8164,476.6699 650.0039,476.5605 Q650.1914,476.4512 650.4102,476.4512 Q650.7852,476.4512 651.0195,476.7168 Q651.2539,476.9668 651.2539,477.5762 L651.2539,479.0293 Q651.2539,479.6387 651.0195,479.9043 Q650.7852,480.1699 650.4102,480.1699 Q650.0664,480.1699 649.8633,479.9668 Q649.6602,479.7793 649.5508,479.2637 Q649.5039,478.9043 649.3164,478.7168 Q648.9883,478.3418 648.3789,478.123 Q647.7695,477.9043 647.1445,477.9043 Q646.3789,477.9043 645.7383,478.2324 Q645.1133,478.5605 644.6133,479.3105 Q644.1289,480.0605 644.1289,481.0918 L644.1289,482.1855 Q644.1289,483.4199 645.0195,484.248 Q645.9102,485.0605 647.5039,485.0605 Q648.4414,485.0605 649.0977,484.8105 Q649.4883,484.6543 649.9102,484.2168 Q650.1758,483.9512 650.3164,483.873 Q650.4727,483.7949 650.6758,483.7949 Q651.0039,483.7949 651.2539,484.0605 Q651.5195,484.3105 651.5195,484.6543 Q651.5195,484.998 651.1758,485.4043 Q650.6758,485.9824 649.8789,486.3105 Q648.8008,486.7637 647.5039,486.7637 Q645.9883,486.7637 644.7852,486.1387 Q643.8008,485.6387 643.1133,484.5762 Q642.4258,483.498 642.4258,482.2168 L642.4258,481.0605 Q642.4258,479.7324 643.0352,478.5918 Q643.6602,477.4355 644.7539,476.8262 Q645.8477,476.2012 647.082,476.2012 Q647.8164,476.2012 648.457,476.373 Q649.1133,476.5293 649.6602,476.8887 Z " fill="#000000"/><text fill="#000000" font-family="sans-serif" font-size="14" lengthAdjust="spacing" textLength="29.5586" x="667.3945" y="486.8105">User</text><line style="stroke:#181818;stroke-width:0.5;" x1="594" x2="737.8477" y1="497.0137" y2="497.0137"/><text fill="#000000" font-family="sans-serif" font-size="14" lengthAdjust="spacing" textLength="54.4551" x="599" y="516.1211">-Email id</text><text fill="#000000" font-family="sans-serif" font-size="14" lengthAdjust="spacing" textLength="129.9375" x="599" y="534.7422">-Password password</text><text fill="#000000" font-family="sans-serif" font-size="14" lengthAdjust="spacing" textLength="80.1445" x="599" y="553.3633">-String name</text><text fill="#000000" font-family="sans-serif" font-size="14" lengthAdjust="spacing" textLength="133.8477" x="599" y="571.9844">-String phoneNumber</text><text fill="#000000" font-family="sans-serif" font-size="14" lengthAdjust="spacing" textLength="94.9512" x="599" y="590.6055">-boolean active</text><text fill="#000000" font-family="sans-serif" font-size="14" lengthAdjust="spacing" textLength="90.248" x="599" y="609.2266">-UserRole role</text><line style="stroke:#181818;stroke-width:0.5;" x1="594" x2="737.8477" y1="616.7402" y2="616.7402"/><text fill="#000000" font-family="sans-serif" font-size="14" lengthAdjust="spacing" textLength="65.748" x="599" y="635.8477">+activate()</text><text fill="#000000" font-family="sans-serif" font-size="14" lengthAdjust="spacing" textLength="81.3203" x="599" y="654.4688">+deactivate()</text></g><!--class UserRole--><g id="elem_UserRole"><rect codeLine="15" fill="#F1F1F1" height="85.2422" id="UserRole" rx="2.5" ry="2.5" style="stroke:#181818;stroke-width:0.5;" width="124.8271" x="527.5" y="723.0137"/><ellipse cx="558.014" cy="739.0137" fill="#ADD1B2" rx="11" ry="11" style="stroke:#181818;stroke-width:1.0;"/><path d="M560.7796,734.8887 Q560.9359,734.6699 561.1234,734.5605 Q561.3109,734.4512 561.5296,734.4512 Q561.9046,734.4512 562.139,734.7168 Q562.3734,734.9668 562.3734,735.5762 L562.3734,737.0293 Q562.3734,737.6387 562.139,737.9043 Q561.9046,738.1699 561.5296,738.1699 Q561.1859,738.1699 560.9828,737.9668 Q560.7796,737.7793 560.6703,737.2637 Q560.6234,736.9043 560.4359,736.7168 Q560.1078,736.3418 559.4984,736.123 Q558.889,735.9043 558.264,735.9043 Q557.4984,735.9043 556.8578,736.2324 Q556.2328,736.5605 555.7328,737.3105 Q555.2484,738.0605 555.2484,739.0918 L555.2484,740.1855 Q555.2484,741.4199 556.139,742.248 Q557.0296,743.0605 558.6234,743.0605 Q559.5609,743.0605 560.2171,742.8105 Q560.6078,742.6543 561.0296,742.2168 Q561.2953,741.9512 561.4359,741.873 Q561.5921,741.7949 561.7953,741.7949 Q562.1234,741.7949 562.3734,742.0605 Q562.639,742.3105 562.639,742.6543 Q562.639,742.998 562.2953,743.4043 Q561.7953,743.9824 560.9984,744.3105 Q559.9203,744.7637 558.6234,744.7637 Q557.1078,744.7637 555.9046,744.1387 Q554.9203,743.6387 554.2328,742.5762 Q553.5453,741.498 553.5453,740.2168 L553.5453,739.0605 Q553.5453,737.7324 554.1546,736.5918 Q554.7796,735.4355 555.8734,734.8262 Q556.9671,734.2012 558.2015,734.2012 Q558.9359,734.2012 559.5765,734.373 Q560.2328,734.5293 560.7796,734.8887 Z " fill="#000000"/><text fill="#000000" font-family="sans-serif" font-size="14" lengthAdjust="spacing" textLength="58.3516" x="575.4616" y="744.8105">UserRole</text><line style="stroke:#181818;stroke-width:0.5;" x1="528.5" x2="651.3271" y1="755.0137" y2="755.0137"/><text fill="#000000" font-family="sans-serif" font-size="14" lengthAdjust="spacing" textLength="56.0205" x="533.5" y="774.1211">-String id</text><text fill="#000000" font-family="sans-serif" font-size="14" lengthAdjust="spacing" textLength="112.8271" x="533.5" y="792.7422">-String description</text><line style="stroke:#181818;stroke-width:0.5;" x1="528.5" x2="651.3271" y1="800.2559" y2="800.2559"/></g><!--class Email--><g id="elem_Email"><rect codeLine="20" fill="#F1F1F1" height="66.6211" id="Email" rx="2.5" ry="2.5" style="stroke:#181818;stroke-width:0.5;" width="90.5928" x="687.5" y="732.0137"/><ellipse cx="713.1137" cy="748.0137" fill="#ADD1B2" rx="11" ry="11" style="stroke:#181818;stroke-width:1.0;"/><path d="M715.8793,743.8887 Q716.0355,743.6699 716.223,743.5605 Q716.4105,743.4512 716.6293,743.4512 Q717.0043,743.4512 717.2387,743.7168 Q717.473,743.9668 717.473,744.5762 L717.473,746.0293 Q717.473,746.6387 717.2387,746.9043 Q717.0043,747.1699 716.6293,747.1699 Q716.2855,747.1699 716.0824,746.9668 Q715.8793,746.7793 715.7699,746.2637 Q715.723,745.9043 715.5355,745.7168 Q715.2074,745.3418 714.598,745.123 Q713.9887,744.9043 713.3637,744.9043 Q712.598,744.9043 711.9574,745.2324 Q711.3324,745.5605 710.8324,746.3105 Q710.348,747.0605 710.348,748.0918 L710.348,749.1855 Q710.348,750.4199 711.2387,751.248 Q712.1293,752.0605 713.723,752.0605 Q714.6605,752.0605 715.3168,751.8105 Q715.7074,751.6543 716.1293,751.2168 Q716.3949,750.9512 716.5355,750.873 Q716.6918,750.7949 716.8949,750.7949 Q717.223,750.7949 717.473,751.0605 Q717.7387,751.3105 717.7387,751.6543 Q717.7387,751.998 717.3949,752.4043 Q716.8949,752.9824 716.098,753.3105 Q715.0199,753.7637 713.723,753.7637 Q712.2074,753.7637 711.0043,753.1387 Q710.0199,752.6387 709.3324,751.5762 Q708.6449,750.498 708.6449,749.2168 L708.6449,748.0605 Q708.6449,746.7324 709.2543,745.5918 Q709.8793,744.4355 710.973,743.8262 Q712.0668,743.2012 713.3012,743.2012 Q714.0355,743.2012 714.6762,743.373 Q715.3324,743.5293 715.8793,743.8887 Z " fill="#000000"/><text fill="#000000" font-family="sans-serif" font-size="14" lengthAdjust="spacing" textLength="35.0068" x="729.4723" y="753.8105">Email</text><line style="stroke:#181818;stroke-width:0.5;" x1="688.5" x2="777.0928" y1="764.0137" y2="764.0137"/><text fill="#000000" font-family="sans-serif" font-size="14" lengthAdjust="spacing" textLength="78.5928" x="693.5" y="783.1211">-String value</text><line style="stroke:#181818;stroke-width:0.5;" x1="688.5" x2="777.0928" y1="790.6348" y2="790.6348"/></g><!--class Password--><g id="elem_Password"><rect codeLine="24" fill="#F1F1F1" height="85.2422" id="Password" rx="2.5" ry="2.5" style="stroke:#181818;stroke-width:0.5;" width="150.9131" x="813.5" y="723.0137"/><ellipse cx="854.35" cy="739.0137" fill="#ADD1B2" rx="11" ry="11" style="stroke:#181818;stroke-width:1.0;"/><path d="M857.1156,734.8887 Q857.2718,734.6699 857.4593,734.5605 Q857.6468,734.4512 857.8656,734.4512 Q858.2406,734.4512 858.475,734.7168 Q858.7093,734.9668 858.7093,735.5762 L858.7093,737.0293 Q858.7093,737.6387 858.475,737.9043 Q858.2406,738.1699 857.8656,738.1699 Q857.5218,738.1699 857.3187,737.9668 Q857.1156,737.7793 857.0062,737.2637 Q856.9593,736.9043 856.7718,736.7168 Q856.4437,736.3418 855.8343,736.123 Q855.225,735.9043 854.6,735.9043 Q853.8343,735.9043 853.1937,736.2324 Q852.5687,736.5605 852.0687,737.3105 Q851.5843,738.0605 851.5843,739.0918 L851.5843,740.1855 Q851.5843,741.4199 852.475,742.248 Q853.3656,743.0605 854.9593,743.0605 Q855.8968,743.0605 856.5531,742.8105 Q856.9437,742.6543 857.3656,742.2168 Q857.6312,741.9512 857.7718,741.873 Q857.9281,741.7949 858.1312,741.7949 Q858.4593,741.7949 858.7093,742.0605 Q858.975,742.3105 858.975,742.6543 Q858.975,742.998 858.6312,743.4043 Q858.1312,743.9824 857.3343,744.3105 Q856.2562,744.7637 854.9593,744.7637 Q853.4437,744.7637 852.2406,744.1387 Q851.2562,743.6387 850.5687,742.5762 Q849.8812,741.498 849.8812,740.2168 L849.8812,739.0605 Q849.8812,737.7324 850.4906,736.5918 Q851.1156,735.4355 852.2093,734.8262 Q853.3031,734.2012 854.5375,734.2012 Q855.2718,734.2012 855.9125,734.373 Q856.5687,734.5293 857.1156,734.8887 Z " fill="#000000"/><text fill="#000000" font-family="sans-serif" font-size="14" lengthAdjust="spacing" textLength="61.4688" x="874.0944" y="744.8105">Password</text><line style="stroke:#181818;stroke-width:0.5;" x1="814.5" x2="963.4131" y1="755.0137" y2="755.0137"/><text fill="#000000" font-family="sans-serif" font-size="14" lengthAdjust="spacing" textLength="126.8613" x="819.5" y="774.1211">-String hashedValue</text><line style="stroke:#181818;stroke-width:0.5;" x1="814.5" x2="963.4131" y1="781.6348" y2="781.6348"/><text fill="#000000" font-family="sans-serif" font-size="14" lengthAdjust="spacing" textLength="138.9131" x="819.5" y="800.7422">+verify(input): boolean</text></g><!--class RegisterUserController--><g id="elem_RegisterUserController"><rect codeLine="35" fill="#F1F1F1" height="103.8633" id="RegisterUserController" rx="2.5" ry="2.5" style="stroke:#181818;stroke-width:0.5;" width="362.5742" x="107.5" y="259.0137"/><ellipse cx="213.3477" cy="275.0137" fill="#ADD1B2" rx="11" ry="11" style="stroke:#181818;stroke-width:1.0;"/><path d="M216.1133,270.8887 Q216.2695,270.6699 216.457,270.5605 Q216.6445,270.4512 216.8633,270.4512 Q217.2383,270.4512 217.4727,270.7168 Q217.707,270.9668 217.707,271.5762 L217.707,273.0293 Q217.707,273.6387 217.4727,273.9043 Q217.2383,274.1699 216.8633,274.1699 Q216.5195,274.1699 216.3164,273.9668 Q216.1133,273.7793 216.0039,273.2637 Q215.957,272.9043 215.7695,272.7168 Q215.4414,272.3418 214.832,272.123 Q214.2227,271.9043 213.5977,271.9043 Q212.832,271.9043 212.1914,272.2324 Q211.5664,272.5605 211.0664,273.3105 Q210.582,274.0605 210.582,275.0918 L210.582,276.1855 Q210.582,277.4199 211.4727,278.248 Q212.3633,279.0605 213.957,279.0605 Q214.8945,279.0605 215.5508,278.8105 Q215.9414,278.6543 216.3633,278.2168 Q216.6289,277.9512 216.7695,277.873 Q216.9258,277.7949 217.1289,277.7949 Q217.457,277.7949 217.707,278.0605 Q217.9727,278.3105 217.9727,278.6543 Q217.9727,278.998 217.6289,279.4043 Q217.1289,279.9824 216.332,280.3105 Q215.2539,280.7637 213.957,280.7637 Q212.4414,280.7637 211.2383,280.1387 Q210.2539,279.6387 209.5664,278.5762 Q208.8789,277.498 208.8789,276.2168 L208.8789,275.0605 Q208.8789,273.7324 209.4883,272.5918 Q210.1133,271.4355 211.207,270.8262 Q212.3008,270.2012 213.5352,270.2012 Q214.2695,270.2012 214.9102,270.373 Q215.5664,270.5293 216.1133,270.8887 Z " fill="#000000"/><text fill="#000000" font-family="sans-serif" font-size="14" lengthAdjust="spacing" textLength="142.3789" x="233.8477" y="280.8105">RegisterUserController</text><line style="stroke:#181818;stroke-width:0.5;" x1="108.5" x2="469.0742" y1="291.0137" y2="291.0137"/><text fill="#000000" font-family="sans-serif" font-size="14" lengthAdjust="spacing" textLength="165.7305" x="113.5" y="310.1211">-UserRepository userRepo</text><text fill="#000000" font-family="sans-serif" font-size="14" lengthAdjust="spacing" textLength="190.6338" x="113.5" y="328.7422">-UserRoleRepository roleRepo</text><line style="stroke:#181818;stroke-width:0.5;" x1="108.5" x2="469.0742" y1="336.2559" y2="336.2559"/><text fill="#000000" font-family="sans-serif" font-size="14" lengthAdjust="spacing" textLength="350.5742" x="113.5" y="355.3633">+registerUser(name, email, phone, pwd, roleId): boolean</text></g><!--class UserRepository--><g id="elem_UserRepository"><rect codeLine="41" fill="#F1F1F1" height="85.2422" id="UserRepository" rx="2.5" ry="2.5" style="stroke:#181818;stroke-width:0.5;" width="207.6924" x="46" y="521.0137"/><ellipse cx="97.3584" cy="537.0137" fill="#B4A7E5" rx="11" ry="11" style="stroke:#181818;stroke-width:1.0;"/><path d="M98.3115,533.6543 L98.3115,540.3105 L100.0303,540.3105 Q100.6396,540.3105 100.9053,540.5449 Q101.1709,540.7793 101.1709,541.1699 Q101.1709,541.5449 100.9053,541.7793 Q100.6396,542.0137 100.0303,542.0137 L94.8896,542.0137 Q94.2803,542.0137 94.0146,541.7793 Q93.749,541.5449 93.749,541.1543 Q93.749,540.7793 94.0146,540.5449 Q94.2803,540.3105 94.8896,540.3105 L96.6084,540.3105 L96.6084,533.6543 L94.8896,533.6543 Q94.2803,533.6543 94.0146,533.4199 Q93.749,533.1855 93.749,532.7949 Q93.749,532.4199 94.0146,532.1855 Q94.2803,531.9512 94.8896,531.9512 L100.0303,531.9512 Q100.6396,531.9512 100.9053,532.1855 Q101.1709,532.4199 101.1709,532.7949 Q101.1709,533.1855 100.9053,533.4199 Q100.6396,533.6543 100.0303,533.6543 L98.3115,533.6543 Z " fill="#000000"/><text fill="#000000" font-family="sans-serif" font-size="14" font-style="italic" lengthAdjust="spacing" textLength="96.4756" x="117.8584" y="542.8105">UserRepository</text><line style="stroke:#181818;stroke-width:0.5;" x1="47" x2="252.6924" y1="553.0137" y2="553.0137"/><line style="stroke:#181818;stroke-width:0.5;" x1="47" x2="252.6924" y1="561.0137" y2="561.0137"/><text fill="#000000" font-family="sans-serif" font-size="14" lengthAdjust="spacing" textLength="107.7686" x="52" y="580.1211">+save(user): void</text><text fill="#000000" font-family="sans-serif" font-size="14" lengthAdjust="spacing" textLength="195.6924" x="52" y="598.7422">+existsByEmail(email): boolean</text></g><!--class UserRoleRepository--><g id="elem_UserRoleRepository"><rect codeLine="46" fill="#F1F1F1" height="66.6211" id="UserRoleRepository" rx="2.5" ry="2.5" style="stroke:#181818;stroke-width:0.5;" width="181.2373" x="289.5" y="530.0137"/><ellipse cx="315.2859" cy="546.0137" fill="#B4A7E5" rx="11" ry="11" style="stroke:#181818;stroke-width:1.0;"/><path d="M316.2391,542.6543 L316.2391,549.3105 L317.9578,549.3105 Q318.5672,549.3105 318.8328,549.5449 Q319.0984,549.7793 319.0984,550.1699 Q319.0984,550.5449 318.8328,550.7793 Q318.5672,551.0137 317.9578,551.0137 L312.8172,551.0137 Q312.2078,551.0137 311.9422,550.7793 Q311.6766,550.5449 311.6766,550.1543 Q311.6766,549.7793 311.9422,549.5449 Q312.2078,549.3105 312.8172,549.3105 L314.5359,549.3105 L314.5359,542.6543 L312.8172,542.6543 Q312.2078,542.6543 311.9422,542.4199 Q311.6766,542.1855 311.6766,541.7949 Q311.6766,541.4199 311.9422,541.1855 Q312.2078,540.9512 312.8172,540.9512 L317.9578,540.9512 Q318.5672,540.9512 318.8328,541.1855 Q319.0984,541.4199 319.0984,541.7949 Q319.0984,542.1855 318.8328,542.4199 Q318.5672,542.6543 317.9578,542.6543 L316.2391,542.6543 Z " fill="#000000"/><text fill="#000000" font-family="sans-serif" font-size="14" font-style="italic" lengthAdjust="spacing" textLength="125.2686" x="331.6828" y="551.8105">UserRoleRepository</text><line style="stroke:#181818;stroke-width:0.5;" x1="290.5" x2="469.7373" y1="562.0137" y2="562.0137"/><line style="stroke:#181818;stroke-width:0.5;" x1="290.5" x2="469.7373" y1="570.0137" y2="570.0137"/><text fill="#000000" font-family="sans-serif" font-size="14" lengthAdjust="spacing" textLength="169.2373" x="295.5" y="589.1211">+findById(roleId): UserRole</text></g><!--class BootstrapUsers--><g id="elem_BootstrapUsers"><rect codeLine="52" fill="#F1F1F1" height="85.2422" id="BootstrapUsers" rx="2.5" ry="2.5" style="stroke:#181818;stroke-width:0.5;" width="220.5098" x="178.5" y="88.0137"/><ellipse cx="236.2637" cy="104.0137" fill="#ADD1B2" rx="11" ry="11" style="stroke:#181818;stroke-width:1.0;"/><path d="M239.0293,99.8887 Q239.1855,99.6699 239.373,99.5605 Q239.5605,99.4512 239.7793,99.4512 Q240.1543,99.4512 240.3887,99.7168 Q240.623,99.9668 240.623,100.5762 L240.623,102.0293 Q240.623,102.6387 240.3887,102.9043 Q240.1543,103.1699 239.7793,103.1699 Q239.4355,103.1699 239.2324,102.9668 Q239.0293,102.7793 238.9199,102.2637 Q238.873,101.9043 238.6855,101.7168 Q238.3574,101.3418 237.748,101.123 Q237.1387,100.9043 236.5137,100.9043 Q235.748,100.9043 235.1074,101.2324 Q234.4824,101.5605 233.9824,102.3105 Q233.498,103.0605 233.498,104.0918 L233.498,105.1855 Q233.498,106.4199 234.3887,107.248 Q235.2793,108.0605 236.873,108.0605 Q237.8105,108.0605 238.4668,107.8105 Q238.8574,107.6543 239.2793,107.2168 Q239.5449,106.9512 239.6855,106.873 Q239.8418,106.7949 240.0449,106.7949 Q240.373,106.7949 240.623,107.0605 Q240.8887,107.3105 240.8887,107.6543 Q240.8887,107.998 240.5449,108.4043 Q240.0449,108.9824 239.248,109.3105 Q238.1699,109.7637 236.873,109.7637 Q235.3574,109.7637 234.1543,109.1387 Q233.1699,108.6387 232.4824,107.5762 Q231.7949,106.498 231.7949,105.2168 L231.7949,104.0605 Q231.7949,102.7324 232.4043,101.5918 Q233.0293,100.4355 234.123,99.8262 Q235.2168,99.2012 236.4512,99.2012 Q237.1855,99.2012 237.8262,99.373 Q238.4824,99.5293 239.0293,99.8887 Z " fill="#000000"/><text fill="#000000" font-family="sans-serif" font-size="14" lengthAdjust="spacing" textLength="96.4824" x="256.7637" y="109.8105">BootstrapUsers</text><line style="stroke:#181818;stroke-width:0.5;" x1="179.5" x2="398.0098" y1="120.0137" y2="120.0137"/><text fill="#000000" font-family="sans-serif" font-size="14" lengthAdjust="spacing" textLength="208.5098" x="184.5" y="139.1211">-RegisterUserController controller</text><line style="stroke:#181818;stroke-width:0.5;" x1="179.5" x2="398.0098" y1="146.6348" y2="146.6348"/><text fill="#000000" font-family="sans-serif" font-size="14" lengthAdjust="spacing" textLength="99.9961" x="184.5" y="165.7422">+execute(): void</text></g><!--link User to Email--><g id="link_User_Email"><path codeLine="29" d="M698.71,662.1737 C707.15,687.3537 713.7555,707.0539 720.1755,726.2339 " fill="none" id="User-to-Email" style="stroke:#181818;stroke-width:1.0;"/><polygon fill="#181818" points="722.08,731.9237,723.0164,722.1194,720.4929,727.1822,715.4301,724.6587,722.08,731.9237" style="stroke:#181818;stroke-width:1.0;"/></g><!--link User to Password--><g id="link_User_Password"><path codeLine="30" d="M739.02,630.0037 C773.06,660.5337 808.0936,691.9472 838.0036,718.7772 " fill="none" id="User-to-Password" style="stroke:#181818;stroke-width:1.0;"/><polygon fill="#181818" points="842.47,722.7837,838.4414,713.7964,838.748,719.445,833.0995,719.7516,842.47,722.7837" style="stroke:#181818;stroke-width:1.0;"/></g><!--link User to UserRole--><g id="link_User_UserRole"><path codeLine="31" d="M628.89,662.1737 C620.75,683.5837 614.6933,699.5457 607.9333,717.3157 " fill="none" id="User-to-UserRole" style="stroke:#181818;stroke-width:1.0;"/><polygon fill="#181818" points="605.8,722.9237,612.7386,715.934,607.5778,718.2504,605.2614,713.0896,605.8,722.9237" style="stroke:#181818;stroke-width:1.0;"/></g><!--link RegisterUserController to UserRepository--><g id="link_RegisterUserController_UserRepository"><path codeLine="58" d="M260.54,363.3137 C234.72,409.8337 200.0512,472.3072 176.0412,515.5772 " fill="none" id="RegisterUserController-to-UserRepository" style="stroke:#181818;stroke-width:1.0;"/><polygon fill="#181818" points="173.13,520.8237,180.9944,514.8948,175.556,516.4516,173.9992,511.0132,173.13,520.8237" style="stroke:#181818;stroke-width:1.0;"/></g><!--link RegisterUserController to UserRoleRepository--><g id="link_RegisterUserController_UserRoleRepository"><path codeLine="59" d="M307.63,363.3137 C325.78,413.2637 350.7618,482.0341 366.1318,524.3541 " fill="none" id="RegisterUserController-to-UserRoleRepository" style="stroke:#181818;stroke-width:1.0;"/><polygon fill="#181818" points="368.18,529.9937,368.8674,520.1688,366.4732,525.294,361.348,522.8998,368.18,529.9937" style="stroke:#181818;stroke-width:1.0;"/></g><!--link RegisterUserController to User--><g id="link_RegisterUserController_User"><path codeLine="60" d="M390.69,363.1237 C422.23,380.1237 456.66,399.8837 487,420.0137 C523.24,444.0637 556.5918,469.8075 588.2018,495.7475 " fill="none" id="RegisterUserController-to-User" style="stroke:#181818;stroke-width:1.0;"/><polygon fill="#181818" points="592.84,499.5537,588.4202,490.7522,588.9748,496.3818,583.3453,496.9365,592.84,499.5537" style="stroke:#181818;stroke-width:1.0;"/><polygon fill="#000000" points="480.151,405.4465,474.2801,397.9643,471.0034,402.8441,480.151,405.4465" style="stroke:#000000;stroke-width:1.0;"/><text fill="#000000" font-family="sans-serif" font-size="13" lengthAdjust="spacing" textLength="42.6309" x="485" y="408.042">creates</text></g><!--link BootstrapUsers to RegisterUserController--><g id="link_BootstrapUsers_RegisterUserController"><path codeLine="61" d="M289,173.3637 C289,198.9237 289,225.7737 289,252.8737 " fill="none" id="BootstrapUsers-to-RegisterUserController" style="stroke:#181818;stroke-width:1.0;"/><polygon fill="#181818" points="289,258.8737,293,249.8737,289,253.8737,285,249.8737,289,258.8737" style="stroke:#181818;stroke-width:1.0;"/></g><!--SRC=[ZLF1Ri8m3BttAwoTEWscdJbC6jCEN2O4skucCH3H9b6IbZ6qVr_IGfIMCjO3fCxpyxEVQtT2QZHO0YlGsXVdZ5XLZcPCoQNu9dZACeriXnk2kygIAL7wSqdIFN9Lef1tSCp0Fqq-V7Z8AH2UCRnvJ0629w6v1-wLuQ1FX-HkwUlB3KWiwJAgjqhIUrMko2INAwKAGWd8dAZJhA1buU_0-9yOVsY1w2Y_JuASUk6VhDTMGtMyL2K6z7Eop0ZjX9ANPEr81fXgB2gwnCTv3QHiqMw9VyR4jfcQZ5WVSczjvUudvmcbp8rFu_5pAwORcgUsnEXv1DdFzOr0hGl1CBJTNOi5ROHrP0B9gvBEErBq5gNX9wsiSCeSe3gz3lYPeCpfDUdT9ANoi4SZeD3Zg5qV_xVdeoPnneTd8wHFNoEZlgPZKiPYJNaGwJbgbUp00z2N5s2dXsQqULFyNuMwhQN5raBowM76yoWxkj7I_U69h-kiCwYxZapFuS1aEqvSCOl5OwTNObNuPf8fD7AkaCHDYetUH7R6SWiD4s26_5TiuJdhzHWmm-dPBm00]--></g></svg>