<?xml version="1.0" encoding="UTF-8" standalone="no"?><svg xmlns="http://www.w3.org/2000/svg" xmlns:xlink="http://www.w3.org/1999/xlink" contentScriptType="application/ecmascript" contentStyleType="text/css" height="186px" preserveAspectRatio="none" style="width:344px;height:186px;" version="1.1" viewBox="0 0 344 186" width="344px" zoomAndPan="magnify"><defs><filter height="300%" id="fmmcoayg0o8yc" width="300%" x="-1" y="-1"><feGaussianBlur result="blurOut" stdDeviation="2.0"/><feColorMatrix in="blurOut" result="blurOut2" type="matrix" values="0 0 0 0 0 0 0 0 0 0 0 0 0 0 0 0 0 0 .4 0"/><feOffset dx="4.0" dy="4.0" in="blurOut2" result="blurOut3"/><feBlend in="SourceGraphic" in2="blurOut3" mode="normal"/></filter></defs><g><!--MD5=[afd8543c14b3fc51cd35a3d007eeda1e]
class repositories.AuthenticationRepository--><a href="AuthenticationRepository.html" target="_top" title="AuthenticationRepository.html" xlink:actuate="onRequest" xlink:href="AuthenticationRepository.html" xlink:show="new" xlink:title="AuthenticationRepository.html" xlink:type="simple"><rect codeLine="5" fill="#FEFECE" filter="url(#fmmcoayg0o8yc)" height="148.5792" id="repositories.AuthenticationRepository" style="stroke: #A80036; stroke-width: 1.5;" width="318" x="7" y="7"/><ellipse cx="76.75" cy="28.344" fill="#ADD1B2" rx="11" ry="11" style="stroke: #A80036; stroke-width: 1.0;"/><path d="M79.7188,33.9846 Q79.1406,34.2815 78.5,34.4221 Q77.8594,34.5783 77.1563,34.5783 Q74.6563,34.5783 73.3281,32.9377 Q72.0156,31.2815 72.0156,28.1565 Q72.0156,25.0315 73.3281,23.3752 Q74.6563,21.719 77.1563,21.719 Q77.8594,21.719 78.5,21.8752 Q79.1563,22.0315 79.7188,22.3283 L79.7188,25.0471 Q79.0938,24.469 78.5,24.2033 Q77.9063,23.9221 77.2813,23.9221 Q75.9375,23.9221 75.25,25.0002 Q74.5625,26.0627 74.5625,28.1565 Q74.5625,30.2502 75.25,31.3283 Q75.9375,32.3908 77.2813,32.3908 Q77.9063,32.3908 78.5,32.1252 Q79.0938,31.844 79.7188,31.2658 L79.7188,33.9846 Z "/><text fill="#000000" font-family="sans-serif" font-size="14" lengthAdjust="spacingAndGlyphs" textLength="170" x="97.25" y="26.9659">AuthenticationRepository</text><text fill="#000000" font-family="sans-serif" font-size="10" lengthAdjust="spacingAndGlyphs" textLength="58" x="153.25" y="41.7579">repositories</text><line style="stroke: #A80036; stroke-width: 1.5;" x1="8" x2="324" y1="49.6879" y2="49.6879"/><rect fill="none" height="6" style="stroke: #C82930; stroke-width: 1.0;" width="6" x="15" y="57.6879"/><text fill="#000000" font-family="sans-serif" font-size="11" lengthAdjust="spacingAndGlyphs" textLength="179" x="27" y="65.4468">authenticationFacade: AuthFacade</text><line style="stroke: #A80036; stroke-width: 1.5;" x1="8" x2="324" y1="72.6698" y2="72.6698"/><ellipse cx="18" cy="83.6698" fill="#84BE84" rx="3" ry="3" style="stroke: #038048; stroke-width: 1.0;"/><text fill="#000000" font-family="sans-serif" font-size="11" lengthAdjust="spacingAndGlyphs" textLength="169" x="27" y="88.4287">doLogin(String, String): boolean</text><ellipse cx="18" cy="98.6517" fill="#84BE84" rx="3" ry="3" style="stroke: #038048; stroke-width: 1.0;"/><text fill="#000000" font-family="sans-serif" font-size="11" lengthAdjust="spacingAndGlyphs" textLength="87" x="27" y="103.4106">doLogout(): void</text><ellipse cx="18" cy="113.6336" fill="#84BE84" rx="3" ry="3" style="stroke: #038048; stroke-width: 1.0;"/><text fill="#000000" font-family="sans-serif" font-size="11" lengthAdjust="spacingAndGlyphs" textLength="196" x="27" y="118.3925">getCurrentUserSession(): UserSession</text><ellipse cx="18" cy="128.6155" fill="#84BE84" rx="3" ry="3" style="stroke: #038048; stroke-width: 1.0;"/><text fill="#000000" font-family="sans-serif" font-size="11" lengthAdjust="spacingAndGlyphs" textLength="192" x="27" y="133.3744">addUserRole(String, String): boolean</text><ellipse cx="18" cy="143.5973" fill="#84BE84" rx="3" ry="3" style="stroke: #038048; stroke-width: 1.0;"/><text fill="#000000" font-family="sans-serif" font-size="11" lengthAdjust="spacingAndGlyphs" textLength="292" x="27" y="148.3563">addUserWithRole(String, String, String, String): boolean</text></a><text fill="#888888" font-family="sans-serif" font-size="10" lengthAdjust="spacingAndGlyphs" textLength="188" x="72" y="173.2692">UMLDoclet 2.0.12, PlantUML 1.2020.16</text><!--MD5=[8b759e21fe180bcacb086836b9b8ace0]
@startuml
    set namespaceSeparator none
    hide empty fields
    hide empty methods

    class "<size:14>AuthenticationRepository\n<size:10>repositories" as repositories.AuthenticationRepository [[AuthenticationRepository.html]] {
        -authenticationFacade: AuthFacade
        +doLogin(String, String): boolean
        +doLogout(): void
        +getCurrentUserSession(): UserSession
        +addUserRole(String, String): boolean
        +addUserWithRole(String, String, String, String): boolean
    }

    center footer UMLDoclet 2.0.12, PlantUML 1.2020.16
@enduml

PlantUML version 1.2020.16(Sun Aug 23 21:20:43 WEST 2020)
(APACHE source distribution)
Java Runtime: Java(TM) SE Runtime Environment
JVM: Java HotSpot(TM) 64-Bit Server VM
Default Encoding: UTF-8
Language: en
Country: US
--></g></svg>