<?xml version="1.0" encoding="UTF-8" standalone="no"?><svg xmlns="http://www.w3.org/2000/svg" xmlns:xlink="http://www.w3.org/1999/xlink" contentScriptType="application/ecmascript" contentStyleType="text/css" height="370px" preserveAspectRatio="none" style="width:388px;height:370px;" version="1.1" viewBox="0 0 388 370" width="388px" zoomAndPan="magnify"><defs><filter height="300%" id="fjuxrpf45bq33" width="300%" x="-1" y="-1"><feGaussianBlur result="blurOut" stdDeviation="2.0"/><feColorMatrix in="blurOut" result="blurOut2" type="matrix" values="0 0 0 0 0 0 0 0 0 0 0 0 0 0 0 0 0 0 .4 0"/><feOffset dx="4.0" dy="4.0" in="blurOut2" result="blurOut3"/><feBlend in="SourceGraphic" in2="blurOut3" mode="normal"/></filter></defs><g><!--MD5=[96f760269fc4f42dc47a24738b17ae1e]
cluster repositories--><polygon fill="#FFFFFF" filter="url(#fjuxrpf45bq33)" points="16,6.602,105,6.602,112,31.6699,366,31.6699,366,340.602,16,340.602,16,6.602" style="stroke: #000000; stroke-width: 1.5;"/><line style="stroke: #000000; stroke-width: 1.5;" x1="16" x2="112" y1="31.6699" y2="31.6699"/><text fill="#000000" font-family="sans-serif" font-size="14" font-weight="bold" lengthAdjust="spacingAndGlyphs" textLength="83" x="20" y="23.5679">repositories</text><!--MD5=[afd8543c14b3fc51cd35a3d007eeda1e]
class repositories.AuthenticationRepository--><a href="AuthenticationRepository.html" target="_top" title="AuthenticationRepository.html" xlink:actuate="onRequest" xlink:href="AuthenticationRepository.html" xlink:show="new" xlink:title="AuthenticationRepository.html" xlink:type="simple"><rect codeLine="3" fill="#FEFECE" filter="url(#fjuxrpf45bq33)" height="137.8913" id="repositories.AuthenticationRepository" style="stroke: #A80036; stroke-width: 1.5;" width="318" x="32" y="186.602"/><ellipse cx="116.75" cy="202.602" fill="#ADD1B2" rx="11" ry="11" style="stroke: #A80036; stroke-width: 1.0;"/><path d="M119.7188,208.2426 Q119.1406,208.5395 118.5,208.6801 Q117.8594,208.8364 117.1563,208.8364 Q114.6563,208.8364 113.3281,207.1957 Q112.0156,205.5395 112.0156,202.4145 Q112.0156,199.2895 113.3281,197.6332 Q114.6563,195.977 117.1563,195.977 Q117.8594,195.977 118.5,196.1332 Q119.1563,196.2895 119.7188,196.5864 L119.7188,199.3051 Q119.0938,198.727 118.5,198.4614 Q117.9063,198.1801 117.2813,198.1801 Q115.9375,198.1801 115.25,199.2582 Q114.5625,200.3207 114.5625,202.4145 Q114.5625,204.5082 115.25,205.5864 Q115.9375,206.6489 117.2813,206.6489 Q117.9063,206.6489 118.5,206.3832 Q119.0938,206.102 119.7188,205.5239 L119.7188,208.2426 Z "/><text fill="#000000" font-family="sans-serif" font-size="12" lengthAdjust="spacingAndGlyphs" textLength="140" x="137.25" y="207.258">AuthenticationRepository</text><line style="stroke: #A80036; stroke-width: 1.5;" x1="33" x2="349" y1="218.602" y2="218.602"/><rect fill="none" height="6" style="stroke: #C82930; stroke-width: 1.0;" width="6" x="40" y="226.602"/><text fill="#000000" font-family="sans-serif" font-size="11" lengthAdjust="spacingAndGlyphs" textLength="179" x="52" y="234.3609">authenticationFacade: AuthFacade</text><line style="stroke: #A80036; stroke-width: 1.5;" x1="33" x2="349" y1="241.5839" y2="241.5839"/><ellipse cx="43" cy="252.5839" fill="#84BE84" rx="3" ry="3" style="stroke: #038048; stroke-width: 1.0;"/><text fill="#000000" font-family="sans-serif" font-size="11" lengthAdjust="spacingAndGlyphs" textLength="169" x="52" y="257.3428">doLogin(String, String): boolean</text><ellipse cx="43" cy="267.5658" fill="#84BE84" rx="3" ry="3" style="stroke: #038048; stroke-width: 1.0;"/><text fill="#000000" font-family="sans-serif" font-size="11" lengthAdjust="spacingAndGlyphs" textLength="87" x="52" y="272.3247">doLogout(): void</text><ellipse cx="43" cy="282.5476" fill="#84BE84" rx="3" ry="3" style="stroke: #038048; stroke-width: 1.0;"/><text fill="#000000" font-family="sans-serif" font-size="11" lengthAdjust="spacingAndGlyphs" textLength="196" x="52" y="287.3066">getCurrentUserSession(): UserSession</text><ellipse cx="43" cy="297.5295" fill="#84BE84" rx="3" ry="3" style="stroke: #038048; stroke-width: 1.0;"/><text fill="#000000" font-family="sans-serif" font-size="11" lengthAdjust="spacingAndGlyphs" textLength="192" x="52" y="302.2884">addUserRole(String, String): boolean</text><ellipse cx="43" cy="312.5114" fill="#84BE84" rx="3" ry="3" style="stroke: #038048; stroke-width: 1.0;"/><text fill="#000000" font-family="sans-serif" font-size="11" lengthAdjust="spacingAndGlyphs" textLength="292" x="52" y="317.2703">addUserWithRole(String, String, String, String): boolean</text></a><!--MD5=[033aff05a3c289d1ddc9abeebcd574ce]
class repositories.Repositories--><a href="Repositories.html" target="_top" title="Repositories.html" xlink:actuate="onRequest" xlink:href="Repositories.html" xlink:show="new" xlink:title="Repositories.html" xlink:type="simple"><rect codeLine="12" fill="#FEFECE" filter="url(#fjuxrpf45bq33)" height="62.9819" id="repositories.Repositories" style="stroke: #A80036; stroke-width: 1.5;" width="164" x="106" y="44.602"/><ellipse cx="149.35" cy="60.602" fill="#ADD1B2" rx="11" ry="11" style="stroke: #A80036; stroke-width: 1.0;"/><path d="M152.3188,66.2426 Q151.7406,66.5395 151.1,66.6801 Q150.4594,66.8364 149.7563,66.8364 Q147.2563,66.8364 145.9281,65.1957 Q144.6156,63.5395 144.6156,60.4145 Q144.6156,57.2895 145.9281,55.6332 Q147.2563,53.977 149.7563,53.977 Q150.4594,53.977 151.1,54.1332 Q151.7563,54.2895 152.3188,54.5864 L152.3188,57.3051 Q151.6938,56.727 151.1,56.4614 Q150.5063,56.1801 149.8813,56.1801 Q148.5375,56.1801 147.85,57.2582 Q147.1625,58.3207 147.1625,60.4145 Q147.1625,62.5082 147.85,63.5864 Q148.5375,64.6489 149.8813,64.6489 Q150.5063,64.6489 151.1,64.3832 Q151.6938,64.102 152.3188,63.5239 L152.3188,66.2426 Z "/><text fill="#000000" font-family="sans-serif" font-size="12" lengthAdjust="spacingAndGlyphs" textLength="69" x="169.65" y="65.258">Repositories</text><line style="stroke: #A80036; stroke-width: 1.5;" x1="107" x2="269" y1="76.602" y2="76.602"/><line style="stroke: #A80036; stroke-width: 1.5;" x1="107" x2="269" y1="84.602" y2="84.602"/><ellipse cx="117" cy="95.602" fill="#84BE84" rx="3" ry="3" style="stroke: #038048; stroke-width: 1.0;"/><text fill="#000000" font-family="sans-serif" font-size="11" lengthAdjust="spacingAndGlyphs" text-decoration="underline" textLength="138" x="126" y="100.3609">getInstance(): Repositories</text></a><!--MD5=[a51e20d5f2d60d9599cb9240bdb36175]
link repositories.Repositories to repositories.Repositories--><path codeLine="16" d="M270.01,63.182 C290.07,64.142 305,68.442 305,76.102 C305,83.102 292.53,87.302 275.06,88.702 " fill="none" id="repositories.Repositories-to-repositories.Repositories" style="stroke: #A80036; stroke-width: 1.0;"/><polygon fill="#A80036" points="270.01,89.022,279.2438,92.4478,275.0001,88.7074,278.7405,84.4637,270.01,89.022" style="stroke: #A80036; stroke-width: 1.0;"/><text fill="#000000" font-family="sans-serif" font-size="13" lengthAdjust="spacingAndGlyphs" textLength="50" x="311" y="81.499">instance</text><!--MD5=[d2abc86df241beeb865c25278f1953b0]
link repositories.Repositories to repositories.AuthenticationRepository--><path codeLine="17" d="M188.52,107.612 C188.86,127.872 189.32,155.382 189.76,181.122 " fill="none" id="repositories.Repositories-to-repositories.AuthenticationRepository" style="stroke: #A80036; stroke-width: 1.0;"/><polygon fill="#A80036" points="189.84,186.242,193.6851,177.1747,189.7543,181.2427,185.6863,177.3119,189.84,186.242" style="stroke: #A80036; stroke-width: 1.0;"/><text fill="#000000" font-family="sans-serif" font-size="13" lengthAdjust="spacingAndGlyphs" textLength="153" x="190" y="152.499">authenticationRepository</text><text fill="#888888" font-family="sans-serif" font-size="10" lengthAdjust="spacingAndGlyphs" textLength="188" x="91" y="357.292">UMLDoclet 2.0.12, PlantUML 1.2020.16</text><!--MD5=[2656a5ba80843606c70115f9823f83a1]
@startuml
    namespace repositories {

        class AuthenticationRepository [[AuthenticationRepository.html]] {
            -authenticationFacade: AuthFacade
            +doLogin(String, String): boolean
            +doLogout(): void
            +getCurrentUserSession(): UserSession
            +addUserRole(String, String): boolean
            +addUserWithRole(String, String, String, String): boolean
        }

        class Repositories [[Repositories.html]] {
            {static} +getInstance(): Repositories
        }

        Repositories - -> Repositories: instance
        Repositories - -> AuthenticationRepository: authenticationRepository
    }

    center footer UMLDoclet 2.0.12, PlantUML 1.2020.16
@enduml

PlantUML version 1.2020.16(Sun Aug 23 21:20:43 WEST 2020)
(APACHE source distribution)
Java Runtime: Java(TM) SE Runtime Environment
JVM: Java HotSpot(TM) 64-Bit Server VM
Default Encoding: UTF-8
Language: en
Country: US
--></g></svg>