<?xml version="1.0" encoding="UTF-8" standalone="no"?><svg xmlns="http://www.w3.org/2000/svg" xmlns:xlink="http://www.w3.org/1999/xlink" contentScriptType="application/ecmascript" contentStyleType="text/css" height="156px" preserveAspectRatio="none" style="width:349px;height:156px;" version="1.1" viewBox="0 0 349 156" width="349px" zoomAndPan="magnify"><defs><filter height="300%" id="fvt08vqt1yjgn" width="300%" x="-1" y="-1"><feGaussianBlur result="blurOut" stdDeviation="2.0"/><feColorMatrix in="blurOut" result="blurOut2" type="matrix" values="0 0 0 0 0 0 0 0 0 0 0 0 0 0 0 0 0 0 .4 0"/><feOffset dx="4.0" dy="4.0" in="blurOut2" result="blurOut3"/><feBlend in="SourceGraphic" in2="blurOut3" mode="normal"/></filter></defs><g><!--MD5=[033aff05a3c289d1ddc9abeebcd574ce]
class repositories.Repositories--><a href="Repositories.html" target="_top" title="Repositories.html" xlink:actuate="onRequest" xlink:href="Repositories.html" xlink:show="new" xlink:title="Repositories.html" xlink:type="simple"><rect codeLine="5" fill="#FEFECE" filter="url(#fvt08vqt1yjgn)" height="118.6155" id="repositories.Repositories" style="stroke: #A80036; stroke-width: 1.5;" width="323" x="7" y="7"/><ellipse cx="122.75" cy="28.344" fill="#ADD1B2" rx="11" ry="11" style="stroke: #A80036; stroke-width: 1.0;"/><path d="M125.7188,33.9846 Q125.1406,34.2815 124.5,34.4221 Q123.8594,34.5783 123.1563,34.5783 Q120.6563,34.5783 119.3281,32.9377 Q118.0156,31.2815 118.0156,28.1565 Q118.0156,25.0315 119.3281,23.3752 Q120.6563,21.719 123.1563,21.719 Q123.8594,21.719 124.5,21.8752 Q125.1563,22.0315 125.7188,22.3283 L125.7188,25.0471 Q125.0938,24.469 124.5,24.2033 Q123.9063,23.9221 123.2813,23.9221 Q121.9375,23.9221 121.25,25.0002 Q120.5625,26.0627 120.5625,28.1565 Q120.5625,30.2502 121.25,31.3283 Q121.9375,32.3908 123.2813,32.3908 Q123.9063,32.3908 124.5,32.1252 Q125.0938,31.844 125.7188,31.2658 L125.7188,33.9846 Z "/><text fill="#000000" font-family="sans-serif" font-size="14" lengthAdjust="spacingAndGlyphs" textLength="83" x="143.25" y="26.9659">Repositories</text><text fill="#000000" font-family="sans-serif" font-size="10" lengthAdjust="spacingAndGlyphs" textLength="58" x="155.75" y="41.7579">repositories</text><line style="stroke: #A80036; stroke-width: 1.5;" x1="8" x2="329" y1="49.6879" y2="49.6879"/><rect fill="none" height="6" style="stroke: #C82930; stroke-width: 1.0;" width="6" x="15" y="57.6879"/><text fill="#000000" font-family="sans-serif" font-size="11" lengthAdjust="spacingAndGlyphs" text-decoration="underline" textLength="114" x="27" y="65.4468">instance: Repositories</text><rect fill="none" height="6" style="stroke: #C82930; stroke-width: 1.0;" width="6" x="15" y="72.6698"/><text fill="#000000" font-family="sans-serif" font-size="11" lengthAdjust="spacingAndGlyphs" textLength="273" x="27" y="80.4287">authenticationRepository: AuthenticationRepository</text><line style="stroke: #A80036; stroke-width: 1.5;" x1="8" x2="329" y1="87.6517" y2="87.6517"/><ellipse cx="18" cy="98.6517" fill="#84BE84" rx="3" ry="3" style="stroke: #038048; stroke-width: 1.0;"/><text fill="#000000" font-family="sans-serif" font-size="11" lengthAdjust="spacingAndGlyphs" text-decoration="underline" textLength="138" x="27" y="103.4106">getInstance(): Repositories</text><ellipse cx="18" cy="113.6336" fill="#84BE84" rx="3" ry="3" style="stroke: #038048; stroke-width: 1.0;"/><text fill="#000000" font-family="sans-serif" font-size="11" lengthAdjust="spacingAndGlyphs" textLength="297" x="27" y="118.3925">getAuthenticationRepository(): AuthenticationRepository</text></a><text fill="#888888" font-family="sans-serif" font-size="10" lengthAdjust="spacingAndGlyphs" textLength="188" x="74.5" y="143.3054">UMLDoclet 2.0.12, PlantUML 1.2020.16</text><!--MD5=[58347931b6026f5b21af33392b34bf66]
@startuml
    set namespaceSeparator none
    hide empty fields
    hide empty methods

    class "<size:14>Repositories\n<size:10>repositories" as repositories.Repositories [[Repositories.html]] {
        {static} -instance: Repositories
        -authenticationRepository: AuthenticationRepository
        {static} +getInstance(): Repositories
        +getAuthenticationRepository(): AuthenticationRepository
    }

    center footer UMLDoclet 2.0.12, PlantUML 1.2020.16
@enduml

PlantUML version 1.2020.16(Sun Aug 23 21:20:43 WEST 2020)
(APACHE source distribution)
Java Runtime: Java(TM) SE Runtime Environment
JVM: Java HotSpot(TM) 64-Bit Server VM
Default Encoding: UTF-8
Language: en
Country: US
--></g></svg>