<svg xmlns="http://www.w3.org/2000/svg" xmlns:xlink="http://www.w3.org/1999/xlink" contentStyleType="text/css" height="841px" preserveAspectRatio="none" style="width:1851px;height:841px;background:#FFFFFF;" version="1.1" viewBox="0 0 1851 841" width="1851px" zoomAndPan="magnify"><defs/><g><rect fill="#FFFFFF" height="659.1211" style="stroke:#181818;stroke-width:1.0;" width="10" x="66.0156" y="91.4883"/><rect fill="#FFFFFF" height="637.8105" style="stroke:#181818;stroke-width:1.0;" width="10" x="497.5576" y="112.7988"/><rect fill="#FFFFFF" height="431.9922" style="stroke:#181818;stroke-width:1.0;" width="10" x="951.583" y="267.3516"/><rect fill="#FFFFFF" height="87.9316" style="stroke:#181818;stroke-width:1.0;" width="10" x="1177.5752" y="296.6621"/><rect fill="#FFFFFF" height="29.3105" style="stroke:#181818;stroke-width:1.0;" width="10" x="1331.769" y="325.9727"/><rect fill="none" height="514.8789" style="stroke:#000000;stroke-width:1.5;" width="1747.8965" x="10" y="228.7305"/><rect fill="none" height="178.8184" style="stroke:#000000;stroke-width:1.5;" width="1336.7241" x="411.1724" y="513.5254"/><line style="stroke:#181818;stroke-width:0.5;stroke-dasharray:5.0,5.0;" x1="71" x2="71" y1="81.4883" y2="760.6094"/><line style="stroke:#181818;stroke-width:0.5;stroke-dasharray:5.0,5.0;" x1="502.1724" x2="502.1724" y1="81.4883" y2="760.6094"/><line style="stroke:#181818;stroke-width:0.5;stroke-dasharray:5.0,5.0;" x1="955.9839" x2="955.9839" y1="81.4883" y2="760.6094"/><line style="stroke:#181818;stroke-width:0.5;stroke-dasharray:5.0,5.0;" x1="1182.3027" x2="1182.3027" y1="81.4883" y2="760.6094"/><line style="stroke:#181818;stroke-width:0.5;stroke-dasharray:5.0,5.0;" x1="1335.8477" x2="1335.8477" y1="81.4883" y2="760.6094"/><line style="stroke:#181818;stroke-width:0.5;stroke-dasharray:5.0,5.0;" x1="1512.6904" x2="1512.6904" y1="81.4883" y2="760.6094"/><line style="stroke:#181818;stroke-width:0.5;stroke-dasharray:5.0,5.0;" x1="1678.5713" x2="1678.5713" y1="81.4883" y2="760.6094"/><line style="stroke:#181818;stroke-width:0.5;stroke-dasharray:5.0,5.0;" x1="1795.8965" x2="1795.8965" y1="81.4883" y2="760.6094"/><text fill="#000000" font-family="sans-serif" font-size="14" lengthAdjust="spacing" textLength="96.0313" x="20" y="78.5352">ShowDesigner</text><ellipse cx="71.0156" cy="13.5" fill="#E3E3E3" rx="8" ry="8" style="stroke:#181818;stroke-width:0.5;"/><path d="M71.0156,21.5 L71.0156,48.5 M58.0156,29.5 L84.0156,29.5 M71.0156,48.5 L58.0156,63.5 M71.0156,48.5 L84.0156,63.5 " fill="none" style="stroke:#181818;stroke-width:0.5;"/><text fill="#000000" font-family="sans-serif" font-size="14" lengthAdjust="spacing" textLength="96.0313" x="20" y="773.1445">ShowDesigner</text><ellipse cx="71.0156" cy="784.5977" fill="#E3E3E3" rx="8" ry="8" style="stroke:#181818;stroke-width:0.5;"/><path d="M71.0156,792.5977 L71.0156,819.5977 M58.0156,800.5977 L84.0156,800.5977 M71.0156,819.5977 L58.0156,834.5977 M71.0156,819.5977 L84.0156,834.5977 " fill="none" style="stroke:#181818;stroke-width:0.5;"/><rect fill="#E3E3E3" height="30.4883" rx="2.5" ry="2.5" style="stroke:#181818;stroke-width:0.5;" width="162.7705" x="421.1724" y="50"/><text fill="#000000" font-family="sans-serif" font-size="14" lengthAdjust="spacing" textLength="148.7705" x="428.1724" y="70.5352">:AddFigureCategoryUI</text><rect fill="#E3E3E3" height="30.4883" rx="2.5" ry="2.5" style="stroke:#181818;stroke-width:0.5;" width="162.7705" x="421.1724" y="759.6094"/><text fill="#000000" font-family="sans-serif" font-size="14" lengthAdjust="spacing" textLength="148.7705" x="428.1724" y="780.1445">:AddFigureCategoryUI</text><rect fill="#E3E3E3" height="30.4883" rx="2.5" ry="2.5" style="stroke:#181818;stroke-width:0.5;" width="217.1982" x="847.9839" y="50"/><text fill="#000000" font-family="sans-serif" font-size="14" lengthAdjust="spacing" textLength="203.1982" x="854.9839" y="70.5352">:AddFigureCategoryController</text><rect fill="#E3E3E3" height="30.4883" rx="2.5" ry="2.5" style="stroke:#181818;stroke-width:0.5;" width="217.1982" x="847.9839" y="759.6094"/><text fill="#000000" font-family="sans-serif" font-size="14" lengthAdjust="spacing" textLength="203.1982" x="854.9839" y="780.1445">:AddFigureCategoryController</text><rect fill="#E3E3E3" height="30.4883" rx="2.5" ry="2.5" style="stroke:#181818;stroke-width:0.5;" width="148.5449" x="1108.3027" y="50"/><text fill="#000000" font-family="sans-serif" font-size="14" lengthAdjust="spacing" textLength="134.5449" x="1115.3027" y="70.5352">:PersistenceContext</text><rect fill="#E3E3E3" height="30.4883" rx="2.5" ry="2.5" style="stroke:#181818;stroke-width:0.5;" width="148.5449" x="1108.3027" y="759.6094"/><text fill="#000000" font-family="sans-serif" font-size="14" lengthAdjust="spacing" textLength="134.5449" x="1115.3027" y="780.1445">:PersistenceContext</text><rect fill="#E3E3E3" height="46.9766" rx="2.5" ry="2.5" style="stroke:#181818;stroke-width:0.5;" width="139.8428" x="1266.8477" y="33.5117"/><text fill="#000000" font-family="sans-serif" font-size="14" lengthAdjust="spacing" textLength="46.9287" x="1313.3047" y="54.0469">factory</text><text fill="#000000" font-family="sans-serif" font-size="14" lengthAdjust="spacing" textLength="125.8428" x="1273.8477" y="70.5352">:RepositoryFactory</text><rect fill="#E3E3E3" height="46.9766" rx="2.5" ry="2.5" style="stroke:#181818;stroke-width:0.5;" width="139.8428" x="1266.8477" y="759.6094"/><text fill="#000000" font-family="sans-serif" font-size="14" lengthAdjust="spacing" textLength="46.9287" x="1313.3047" y="780.1445">factory</text><text fill="#000000" font-family="sans-serif" font-size="14" lengthAdjust="spacing" textLength="125.8428" x="1273.8477" y="796.6328">:RepositoryFactory</text><rect fill="#E3E3E3" height="46.9766" rx="2.5" ry="2.5" style="stroke:#181818;stroke-width:0.5;" width="193.8809" x="1416.6904" y="33.5117"/><text fill="#000000" font-family="sans-serif" font-size="14" lengthAdjust="spacing" textLength="69.002" x="1479.1299" y="54.0469">repository</text><text fill="#000000" font-family="sans-serif" font-size="14" lengthAdjust="spacing" textLength="179.8809" x="1423.6904" y="70.5352">:FigureCategoryRepository</text><rect fill="#E3E3E3" height="46.9766" rx="2.5" ry="2.5" style="stroke:#181818;stroke-width:0.5;" width="193.8809" x="1416.6904" y="759.6094"/><text fill="#000000" font-family="sans-serif" font-size="14" lengthAdjust="spacing" textLength="69.002" x="1479.1299" y="780.1445">repository</text><text fill="#000000" font-family="sans-serif" font-size="14" lengthAdjust="spacing" textLength="179.8809" x="1423.6904" y="796.6328">:FigureCategoryRepository</text><rect fill="#E3E3E3" height="30.4883" rx="2.5" ry="2.5" style="stroke:#181818;stroke-width:0.5;" width="117.3252" x="1620.5713" y="50"/><text fill="#000000" font-family="sans-serif" font-size="14" lengthAdjust="spacing" textLength="103.3252" x="1627.5713" y="70.5352">FigureCategory</text><rect fill="#E3E3E3" height="30.4883" rx="2.5" ry="2.5" style="stroke:#181818;stroke-width:0.5;" width="117.3252" x="1620.5713" y="759.6094"/><text fill="#000000" font-family="sans-serif" font-size="14" lengthAdjust="spacing" textLength="103.3252" x="1627.5713" y="780.1445">FigureCategory</text><rect fill="#E3E3E3" height="30.4883" rx="2.5" ry="2.5" style="stroke:#181818;stroke-width:0.5;" width="97.4531" x="1747.8965" y="50"/><text fill="#000000" font-family="sans-serif" font-size="14" lengthAdjust="spacing" textLength="83.4531" x="1754.8965" y="70.5352">:AuthFacade</text><rect fill="#E3E3E3" height="30.4883" rx="2.5" ry="2.5" style="stroke:#181818;stroke-width:0.5;" width="97.4531" x="1747.8965" y="759.6094"/><text fill="#000000" font-family="sans-serif" font-size="14" lengthAdjust="spacing" textLength="83.4531" x="1754.8965" y="780.1445">:AuthFacade</text><rect fill="#FFFFFF" height="659.1211" style="stroke:#181818;stroke-width:1.0;" width="10" x="66.0156" y="91.4883"/><rect fill="#FFFFFF" height="637.8105" style="stroke:#181818;stroke-width:1.0;" width="10" x="497.5576" y="112.7988"/><rect fill="#FFFFFF" height="431.9922" style="stroke:#181818;stroke-width:1.0;" width="10" x="951.583" y="267.3516"/><rect fill="#FFFFFF" height="87.9316" style="stroke:#181818;stroke-width:1.0;" width="10" x="1177.5752" y="296.6621"/><rect fill="#FFFFFF" height="29.3105" style="stroke:#181818;stroke-width:1.0;" width="10" x="1331.769" y="325.9727"/><polygon fill="#181818" points="485.5576,108.7988,495.5576,112.7988,485.5576,116.7988,489.5576,112.7988" style="stroke:#181818;stroke-width:1.0;"/><line style="stroke:#181818;stroke-width:1.0;" x1="76.0156" x2="491.5576" y1="112.7988" y2="112.7988"/><text fill="#000000" font-family="sans-serif" font-size="13" font-weight="bold" lengthAdjust="spacing" textLength="8.5757" x="83.0156" y="108.0566">1</text><text fill="#000000" font-family="sans-serif" font-size="13" lengthAdjust="spacing" textLength="181.4731" x="95.5913" y="108.0566">requests add figure category</text><polygon fill="#181818" points="1784.623,138.1094,1794.623,142.1094,1784.623,146.1094,1788.623,142.1094" style="stroke:#181818;stroke-width:1.0;"/><line style="stroke:#181818;stroke-width:1.0;" x1="507.5576" x2="1790.623" y1="142.1094" y2="142.1094"/><text fill="#000000" font-family="sans-serif" font-size="13" font-weight="bold" lengthAdjust="spacing" textLength="8.5757" x="514.5576" y="137.3672">2</text><text fill="#000000" font-family="sans-serif" font-size="13" lengthAdjust="spacing" textLength="104.7363" x="527.1333" y="137.3672">getCurrentUser()</text><polygon fill="#181818" points="518.5576,167.4199,508.5576,171.4199,518.5576,175.4199,514.5576,171.4199" style="stroke:#181818;stroke-width:1.0;"/><line style="stroke:#181818;stroke-width:1.0;" x1="512.5576" x2="1795.623" y1="171.4199" y2="171.4199"/><text fill="#000000" font-family="sans-serif" font-size="13" font-weight="bold" lengthAdjust="spacing" textLength="8.5757" x="524.5576" y="166.6777">3</text><text fill="#000000" font-family="sans-serif" font-size="13" lengthAdjust="spacing" textLength="128.9971" x="537.1333" y="166.6777">user (ShowDesigner)</text><line style="stroke:#181818;stroke-width:1.0;" x1="507.5576" x2="549.5576" y1="200.7305" y2="200.7305"/><line style="stroke:#181818;stroke-width:1.0;" x1="549.5576" x2="549.5576" y1="200.7305" y2="213.7305"/><line style="stroke:#181818;stroke-width:1.0;" x1="508.5576" x2="549.5576" y1="213.7305" y2="213.7305"/><polygon fill="#181818" points="518.5576,209.7305,508.5576,213.7305,518.5576,217.7305,514.5576,213.7305" style="stroke:#181818;stroke-width:1.0;"/><text fill="#000000" font-family="sans-serif" font-size="13" font-weight="bold" lengthAdjust="spacing" textLength="8.5757" x="514.5576" y="195.9883">4</text><text fill="#000000" font-family="sans-serif" font-size="13" lengthAdjust="spacing" textLength="170.771" x="527.1333" y="195.9883">checkRole("ShowDesigner")</text><path d="M10,228.7305 L72.1387,228.7305 L72.1387,236.041 L62.1387,246.041 L10,246.041 L10,228.7305 " fill="#EEEEEE" style="stroke:#000000;stroke-width:1.5;"/><rect fill="none" height="514.8789" style="stroke:#000000;stroke-width:1.5;" width="1747.8965" x="10" y="228.7305"/><text fill="#000000" font-family="sans-serif" font-size="13" font-weight="bold" lengthAdjust="spacing" textLength="17.1387" x="25" y="242.2988">alt</text><text fill="#000000" font-family="sans-serif" font-size="11" font-weight="bold" lengthAdjust="spacing" textLength="128.165" x="87.1387" y="241.3652">[role is ShowDesigner]</text><polygon fill="#181818" points="939.583,263.3516,949.583,267.3516,939.583,271.3516,943.583,267.3516" style="stroke:#181818;stroke-width:1.0;"/><line style="stroke:#181818;stroke-width:1.0;" x1="507.5576" x2="945.583" y1="267.3516" y2="267.3516"/><text fill="#000000" font-family="sans-serif" font-size="13" font-weight="bold" lengthAdjust="spacing" textLength="8.5757" x="514.5576" y="262.6094">5</text><text fill="#000000" font-family="sans-serif" font-size="13" lengthAdjust="spacing" textLength="46.96" x="527.1333" y="262.6094">create()</text><polygon fill="#181818" points="1165.5752,292.6621,1175.5752,296.6621,1165.5752,300.6621,1169.5752,296.6621" style="stroke:#181818;stroke-width:1.0;"/><line style="stroke:#181818;stroke-width:1.0;" x1="961.583" x2="1171.5752" y1="296.6621" y2="296.6621"/><text fill="#000000" font-family="sans-serif" font-size="13" font-weight="bold" lengthAdjust="spacing" textLength="8.5757" x="968.583" y="291.9199">6</text><text fill="#000000" font-family="sans-serif" font-size="13" lengthAdjust="spacing" textLength="83.3638" x="981.1587" y="291.9199">repositories()</text><polygon fill="#181818" points="1319.769,321.9727,1329.769,325.9727,1319.769,329.9727,1323.769,325.9727" style="stroke:#181818;stroke-width:1.0;"/><line style="stroke:#181818;stroke-width:1.0;" x1="1187.5752" x2="1325.769" y1="325.9727" y2="325.9727"/><text fill="#000000" font-family="sans-serif" font-size="13" font-weight="bold" lengthAdjust="spacing" textLength="8.5757" x="1194.5752" y="321.2305">7</text><text fill="#000000" font-family="sans-serif" font-size="13" lengthAdjust="spacing" textLength="46.96" x="1207.1509" y="321.2305">create()</text><polygon fill="#181818" points="1501.6309,351.2832,1511.6309,355.2832,1501.6309,359.2832,1505.6309,355.2832" style="stroke:#181818;stroke-width:1.0;"/><line style="stroke:#181818;stroke-width:1.0;" x1="1336.769" x2="1507.6309" y1="355.2832" y2="355.2832"/><text fill="#000000" font-family="sans-serif" font-size="13" font-weight="bold" lengthAdjust="spacing" textLength="8.5757" x="1343.769" y="350.541">8</text><text fill="#000000" font-family="sans-serif" font-size="13" lengthAdjust="spacing" textLength="46.96" x="1356.3447" y="350.541">create()</text><polygon fill="#181818" points="972.583,380.5938,962.583,384.5938,972.583,388.5938,968.583,384.5938" style="stroke:#181818;stroke-width:1.0;"/><line style="stroke:#181818;stroke-width:1.0;" x1="966.583" x2="1181.5752" y1="384.5938" y2="384.5938"/><text fill="#000000" font-family="sans-serif" font-size="13" font-weight="bold" lengthAdjust="spacing" textLength="8.5757" x="978.583" y="379.8516">9</text><text fill="#000000" font-family="sans-serif" font-size="13" lengthAdjust="spacing" textLength="162.9189" x="991.1587" y="379.8516">FigureCategoryRepository</text><line style="stroke:#181818;stroke-width:1.0;" x1="507.5576" x2="549.5576" y1="413.9043" y2="413.9043"/><line style="stroke:#181818;stroke-width:1.0;" x1="549.5576" x2="549.5576" y1="413.9043" y2="426.9043"/><line style="stroke:#181818;stroke-width:1.0;" x1="508.5576" x2="549.5576" y1="426.9043" y2="426.9043"/><polygon fill="#181818" points="518.5576,422.9043,508.5576,426.9043,518.5576,430.9043,514.5576,426.9043" style="stroke:#181818;stroke-width:1.0;"/><text fill="#000000" font-family="sans-serif" font-size="13" font-weight="bold" lengthAdjust="spacing" textLength="17.1514" x="514.5576" y="409.1621">10</text><text fill="#000000" font-family="sans-serif" font-size="13" lengthAdjust="spacing" textLength="57.6938" x="535.709" y="409.1621">doShow()</text><polygon fill="#181818" points="939.583,452.2148,949.583,456.2148,939.583,460.2148,943.583,456.2148" style="stroke:#181818;stroke-width:1.0;"/><line style="stroke:#181818;stroke-width:1.0;" x1="507.5576" x2="945.583" y1="456.2148" y2="456.2148"/><text fill="#000000" font-family="sans-serif" font-size="13" font-weight="bold" lengthAdjust="spacing" textLength="17.1514" x="514.5576" y="451.4727">11</text><text fill="#000000" font-family="sans-serif" font-size="13" lengthAdjust="spacing" textLength="241.4395" x="535.709" y="451.4727">addFigureCategory(name, description)</text><line style="stroke:#181818;stroke-width:1.0;" x1="961.583" x2="1003.583" y1="485.5254" y2="485.5254"/><line style="stroke:#181818;stroke-width:1.0;" x1="1003.583" x2="1003.583" y1="485.5254" y2="498.5254"/><line style="stroke:#181818;stroke-width:1.0;" x1="962.583" x2="1003.583" y1="498.5254" y2="498.5254"/><polygon fill="#181818" points="972.583,494.5254,962.583,498.5254,972.583,502.5254,968.583,498.5254" style="stroke:#181818;stroke-width:1.0;"/><text fill="#000000" font-family="sans-serif" font-size="13" font-weight="bold" lengthAdjust="spacing" textLength="17.1514" x="968.583" y="480.7832">12</text><text fill="#000000" font-family="sans-serif" font-size="13" lengthAdjust="spacing" textLength="170.8408" x="989.7344" y="480.7832">validate(name, description)</text><path d="M411.1724,513.5254 L473.311,513.5254 L473.311,520.8359 L463.311,530.8359 L411.1724,530.8359 L411.1724,513.5254 " fill="#EEEEEE" style="stroke:#000000;stroke-width:1.5;"/><rect fill="none" height="178.8184" style="stroke:#000000;stroke-width:1.5;" width="1336.7241" x="411.1724" y="513.5254"/><text fill="#000000" font-family="sans-serif" font-size="13" font-weight="bold" lengthAdjust="spacing" textLength="17.1387" x="426.1724" y="527.0938">alt</text><text fill="#000000" font-family="sans-serif" font-size="11" font-weight="bold" lengthAdjust="spacing" textLength="79.7876" x="488.311" y="526.1602">[invalid input]</text><polygon fill="#181818" points="518.5576,548.1465,508.5576,552.1465,518.5576,556.1465,514.5576,552.1465" style="stroke:#181818;stroke-width:1.0;"/><line style="stroke:#181818;stroke-width:1.0;" x1="512.5576" x2="950.583" y1="552.1465" y2="552.1465"/><text fill="#000000" font-family="sans-serif" font-size="13" font-weight="bold" lengthAdjust="spacing" textLength="17.1514" x="524.5576" y="547.4043">13</text><text fill="#000000" font-family="sans-serif" font-size="13" lengthAdjust="spacing" textLength="398.874" x="545.709" y="547.4043">errorMessage("Invalid or duplicate category name/description")</text><line style="stroke:#000000;stroke-width:1.0;stroke-dasharray:2.0,2.0;" x1="411.1724" x2="1747.8965" y1="561.1465" y2="561.1465"/><text fill="#000000" font-family="sans-serif" font-size="11" font-weight="bold" lengthAdjust="spacing" textLength="68.9863" x="416.1724" y="571.7813">[valid input]</text><polygon fill="#181818" points="1667.2339,592.4121,1677.2339,596.4121,1667.2339,600.4121,1671.2339,596.4121" style="stroke:#181818;stroke-width:1.0;"/><line style="stroke:#181818;stroke-width:1.0;" x1="961.583" x2="1673.2339" y1="596.4121" y2="596.4121"/><text fill="#000000" font-family="sans-serif" font-size="13" font-weight="bold" lengthAdjust="spacing" textLength="17.1514" x="968.583" y="591.6699">14</text><text fill="#000000" font-family="sans-serif" font-size="13" lengthAdjust="spacing" textLength="300.2886" x="989.7344" y="591.6699">newFigureCategory = create(name, description)</text><polygon fill="#181818" points="1501.6309,621.7227,1511.6309,625.7227,1501.6309,629.7227,1505.6309,625.7227" style="stroke:#181818;stroke-width:1.0;"/><line style="stroke:#181818;stroke-width:1.0;" x1="961.583" x2="1507.6309" y1="625.7227" y2="625.7227"/><text fill="#000000" font-family="sans-serif" font-size="13" font-weight="bold" lengthAdjust="spacing" textLength="17.1514" x="968.583" y="620.9805">15</text><text fill="#000000" font-family="sans-serif" font-size="13" lengthAdjust="spacing" textLength="157.5044" x="989.7344" y="620.9805">save(newFigureCategory)</text><polygon fill="#181818" points="972.583,651.0332,962.583,655.0332,972.583,659.0332,968.583,655.0332" style="stroke:#181818;stroke-width:1.0;"/><line style="stroke:#181818;stroke-width:1.0;" x1="966.583" x2="1512.6309" y1="655.0332" y2="655.0332"/><text fill="#000000" font-family="sans-serif" font-size="13" font-weight="bold" lengthAdjust="spacing" textLength="17.1514" x="978.583" y="650.291">16</text><text fill="#000000" font-family="sans-serif" font-size="13" lengthAdjust="spacing" textLength="80.5581" x="999.7344" y="650.291">confirmation</text><polygon fill="#181818" points="518.5576,680.3438,508.5576,684.3438,518.5576,688.3438,514.5576,684.3438" style="stroke:#181818;stroke-width:1.0;"/><line style="stroke:#181818;stroke-width:1.0;" x1="512.5576" x2="950.583" y1="684.3438" y2="684.3438"/><text fill="#000000" font-family="sans-serif" font-size="13" font-weight="bold" lengthAdjust="spacing" textLength="17.1514" x="524.5576" y="679.6016">17</text><text fill="#000000" font-family="sans-serif" font-size="13" lengthAdjust="spacing" textLength="300.2378" x="545.709" y="679.6016">successMessage("Category added successfully")</text><line style="stroke:#000000;stroke-width:1.0;stroke-dasharray:2.0,2.0;" x1="10" x2="1757.8965" y1="700.3438" y2="700.3438"/><text fill="#000000" font-family="sans-serif" font-size="11" font-weight="bold" lengthAdjust="spacing" textLength="150.498" x="15" y="710.9785">[role is not ShowDesigner]</text><polygon fill="#181818" points="87.0156,731.6094,77.0156,735.6094,87.0156,739.6094,83.0156,735.6094" style="stroke:#181818;stroke-width:1.0;"/><line style="stroke:#181818;stroke-width:1.0;" x1="81.0156" x2="496.5576" y1="735.6094" y2="735.6094"/><text fill="#000000" font-family="sans-serif" font-size="13" font-weight="bold" lengthAdjust="spacing" textLength="17.1514" x="93.0156" y="730.8672">18</text><text fill="#000000" font-family="sans-serif" font-size="13" lengthAdjust="spacing" textLength="376.3906" x="114.167" y="730.8672">errorMessage("Access denied: ShowDesigner role required")</text><!--SRC=[XLJBgjim4DtxAuQi4cZftj12S6yWS1yXZqMXK5HfueZOagj7qlnzHtByaDlSPkDOS-RCp3bZsRDK3JEiXbehpKz6rmZEUCni7saOFxCIT-vM8HZaZgco6WFiYGbzbQg48wiiPXdpJYjV_qH3_xdJ1cQxaxv-HIjBXMO6pCAosBzjCo9maik6AGUpV2d4IfRUOC4SbjhS3kk8FQp_1ooqSaPNrPsys6-V9oaRD5PQXufZ0EDl5v6R8iKTOx-txohVOgEj32-hzYpYLx7lRp_MhxlzyhLuIhDDdqC4QOS3NUJPFctUqjmKtXPBZgOQU7UYpfZ0Li_-DMekBvHr5pcB3_ZuXOI4d2pyvT4w2qm8ECOImBiQGow9Jd1A6fXpAD4LtXXKxc3Hp1VP46pvS_0KWFdOxyMTA4Jv2VbvgokSfokno5ZbW2n4a1R6eGpern84Msa0Rf0QfE8nr3SSJGyd4KRmJH66lSikqL96aa3UX_TD4S1JOqTbagI_5Y14fuU1C3Wy8H7uFatRIMW_XqVRCoMY8KOA1Oc53l9ryWpAvS7mb7QkM8qVYCvo8nidjLea2hPf5rP94QPuW0xEIHLHz6oyYwTZdj0M6gFD2rfBTybyjhxZwMuGlgbaMC1-2o4K-ZIgCsiB8Tqky5wTTBeS55xJ8_ZSEV9WbZ5Rww1b5q9FYGPqG0rQSQsEqjGiCFvJ1kiv9n5w8VhEo1mKNVZeg-hMJQr4DdKzxdgKe_jab7QFFfkuQbC3bh4ESIg98azIMyvmJKY3Whg87OogqzKmUcilcJy0]--></g></svg>