<svg xmlns="http://www.w3.org/2000/svg" xmlns:xlink="http://www.w3.org/1999/xlink" contentStyleType="text/css" height="665px" preserveAspectRatio="none" style="width:1522px;height:665px;background:#FFFFFF;" version="1.1" viewBox="0 0 1522 665" width="1522px" zoomAndPan="magnify"><defs/><g><rect fill="#FFFFFF" height="482.6133" style="stroke:#181818;stroke-width:1.0;" width="10" x="51.0156" y="91.4883"/><rect fill="#FFFFFF" height="461.3027" style="stroke:#181818;stroke-width:1.0;" width="10" x="274.0645" y="112.7988"/><rect fill="#FFFFFF" height="431.9922" style="stroke:#181818;stroke-width:1.0;" width="10" x="728.0898" y="142.1094"/><rect fill="#FFFFFF" height="87.9316" style="stroke:#181818;stroke-width:1.0;" width="10" x="945.5063" y="171.4199"/><rect fill="#FFFFFF" height="29.3105" style="stroke:#181818;stroke-width:1.0;" width="10" x="1099.7002" y="200.7305"/><rect fill="none" height="178.8184" style="stroke:#000000;stroke-width:1.5;" width="1328.1484" x="187.6792" y="388.2832"/><line style="stroke:#181818;stroke-width:0.5;stroke-dasharray:5.0,5.0;" x1="56" x2="56" y1="81.4883" y2="584.1016"/><line style="stroke:#181818;stroke-width:0.5;stroke-dasharray:5.0,5.0;" x1="278.6792" x2="278.6792" y1="81.4883" y2="584.1016"/><line style="stroke:#181818;stroke-width:0.5;stroke-dasharray:5.0,5.0;" x1="732.4907" x2="732.4907" y1="81.4883" y2="584.1016"/><line style="stroke:#181818;stroke-width:0.5;stroke-dasharray:5.0,5.0;" x1="950.2339" x2="950.2339" y1="81.4883" y2="584.1016"/><line style="stroke:#181818;stroke-width:0.5;stroke-dasharray:5.0,5.0;" x1="1103.7788" x2="1103.7788" y1="81.4883" y2="584.1016"/><line style="stroke:#181818;stroke-width:0.5;stroke-dasharray:5.0,5.0;" x1="1280.6216" x2="1280.6216" y1="81.4883" y2="584.1016"/><line style="stroke:#181818;stroke-width:0.5;stroke-dasharray:5.0,5.0;" x1="1446.5024" x2="1446.5024" y1="81.4883" y2="584.1016"/><text fill="#000000" font-family="sans-serif" font-size="14" lengthAdjust="spacing" textLength="96.0313" x="5" y="78.5352">ShowDesigner</text><ellipse cx="56.0156" cy="13.5" fill="#E3E3E3" rx="8" ry="8" style="stroke:#181818;stroke-width:0.5;"/><path d="M56.0156,21.5 L56.0156,48.5 M43.0156,29.5 L69.0156,29.5 M56.0156,48.5 L43.0156,63.5 M56.0156,48.5 L69.0156,63.5 " fill="none" style="stroke:#181818;stroke-width:0.5;"/><text fill="#000000" font-family="sans-serif" font-size="14" lengthAdjust="spacing" textLength="96.0313" x="5" y="596.6367">ShowDesigner</text><ellipse cx="56.0156" cy="608.0898" fill="#E3E3E3" rx="8" ry="8" style="stroke:#181818;stroke-width:0.5;"/><path d="M56.0156,616.0898 L56.0156,643.0898 M43.0156,624.0898 L69.0156,624.0898 M56.0156,643.0898 L43.0156,658.0898 M56.0156,643.0898 L69.0156,658.0898 " fill="none" style="stroke:#181818;stroke-width:0.5;"/><rect fill="#E3E3E3" height="30.4883" rx="2.5" ry="2.5" style="stroke:#181818;stroke-width:0.5;" width="162.7705" x="197.6792" y="50"/><text fill="#000000" font-family="sans-serif" font-size="14" lengthAdjust="spacing" textLength="148.7705" x="204.6792" y="70.5352">:AddFigureCategoryUI</text><rect fill="#E3E3E3" height="30.4883" rx="2.5" ry="2.5" style="stroke:#181818;stroke-width:0.5;" width="162.7705" x="197.6792" y="583.1016"/><text fill="#000000" font-family="sans-serif" font-size="14" lengthAdjust="spacing" textLength="148.7705" x="204.6792" y="603.6367">:AddFigureCategoryUI</text><rect fill="#E3E3E3" height="30.4883" rx="2.5" ry="2.5" style="stroke:#181818;stroke-width:0.5;" width="217.1982" x="624.4907" y="50"/><text fill="#000000" font-family="sans-serif" font-size="14" lengthAdjust="spacing" textLength="203.1982" x="631.4907" y="70.5352">:AddFigureCategoryController</text><rect fill="#E3E3E3" height="30.4883" rx="2.5" ry="2.5" style="stroke:#181818;stroke-width:0.5;" width="217.1982" x="624.4907" y="583.1016"/><text fill="#000000" font-family="sans-serif" font-size="14" lengthAdjust="spacing" textLength="203.1982" x="631.4907" y="603.6367">:AddFigureCategoryController</text><rect fill="#E3E3E3" height="30.4883" rx="2.5" ry="2.5" style="stroke:#181818;stroke-width:0.5;" width="148.5449" x="876.2339" y="50"/><text fill="#000000" font-family="sans-serif" font-size="14" lengthAdjust="spacing" textLength="134.5449" x="883.2339" y="70.5352">:PersistenceContext</text><rect fill="#E3E3E3" height="30.4883" rx="2.5" ry="2.5" style="stroke:#181818;stroke-width:0.5;" width="148.5449" x="876.2339" y="583.1016"/><text fill="#000000" font-family="sans-serif" font-size="14" lengthAdjust="spacing" textLength="134.5449" x="883.2339" y="603.6367">:PersistenceContext</text><rect fill="#E3E3E3" height="46.9766" rx="2.5" ry="2.5" style="stroke:#181818;stroke-width:0.5;" width="139.8428" x="1034.7788" y="33.5117"/><text fill="#000000" font-family="sans-serif" font-size="14" lengthAdjust="spacing" textLength="46.9287" x="1081.2358" y="54.0469">factory</text><text fill="#000000" font-family="sans-serif" font-size="14" lengthAdjust="spacing" textLength="125.8428" x="1041.7788" y="70.5352">:RepositoryFactory</text><rect fill="#E3E3E3" height="46.9766" rx="2.5" ry="2.5" style="stroke:#181818;stroke-width:0.5;" width="139.8428" x="1034.7788" y="583.1016"/><text fill="#000000" font-family="sans-serif" font-size="14" lengthAdjust="spacing" textLength="46.9287" x="1081.2358" y="603.6367">factory</text><text fill="#000000" font-family="sans-serif" font-size="14" lengthAdjust="spacing" textLength="125.8428" x="1041.7788" y="620.125">:RepositoryFactory</text><rect fill="#E3E3E3" height="46.9766" rx="2.5" ry="2.5" style="stroke:#181818;stroke-width:0.5;" width="193.8809" x="1184.6216" y="33.5117"/><text fill="#000000" font-family="sans-serif" font-size="14" lengthAdjust="spacing" textLength="69.002" x="1247.061" y="54.0469">repository</text><text fill="#000000" font-family="sans-serif" font-size="14" lengthAdjust="spacing" textLength="179.8809" x="1191.6216" y="70.5352">:FigureCategoryRepository</text><rect fill="#E3E3E3" height="46.9766" rx="2.5" ry="2.5" style="stroke:#181818;stroke-width:0.5;" width="193.8809" x="1184.6216" y="583.1016"/><text fill="#000000" font-family="sans-serif" font-size="14" lengthAdjust="spacing" textLength="69.002" x="1247.061" y="603.6367">repository</text><text fill="#000000" font-family="sans-serif" font-size="14" lengthAdjust="spacing" textLength="179.8809" x="1191.6216" y="620.125">:FigureCategoryRepository</text><rect fill="#E3E3E3" height="30.4883" rx="2.5" ry="2.5" style="stroke:#181818;stroke-width:0.5;" width="117.3252" x="1388.5024" y="50"/><text fill="#000000" font-family="sans-serif" font-size="14" lengthAdjust="spacing" textLength="103.3252" x="1395.5024" y="70.5352">FigureCategory</text><rect fill="#E3E3E3" height="30.4883" rx="2.5" ry="2.5" style="stroke:#181818;stroke-width:0.5;" width="117.3252" x="1388.5024" y="583.1016"/><text fill="#000000" font-family="sans-serif" font-size="14" lengthAdjust="spacing" textLength="103.3252" x="1395.5024" y="603.6367">FigureCategory</text><rect fill="#FFFFFF" height="482.6133" style="stroke:#181818;stroke-width:1.0;" width="10" x="51.0156" y="91.4883"/><rect fill="#FFFFFF" height="461.3027" style="stroke:#181818;stroke-width:1.0;" width="10" x="274.0645" y="112.7988"/><rect fill="#FFFFFF" height="431.9922" style="stroke:#181818;stroke-width:1.0;" width="10" x="728.0898" y="142.1094"/><rect fill="#FFFFFF" height="87.9316" style="stroke:#181818;stroke-width:1.0;" width="10" x="945.5063" y="171.4199"/><rect fill="#FFFFFF" height="29.3105" style="stroke:#181818;stroke-width:1.0;" width="10" x="1099.7002" y="200.7305"/><polygon fill="#181818" points="262.0645,108.7988,272.0645,112.7988,262.0645,116.7988,266.0645,112.7988" style="stroke:#181818;stroke-width:1.0;"/><line style="stroke:#181818;stroke-width:1.0;" x1="61.0156" x2="268.0645" y1="112.7988" y2="112.7988"/><text fill="#000000" font-family="sans-serif" font-size="13" font-weight="bold" lengthAdjust="spacing" textLength="8.5757" x="68.0156" y="108.0566">1</text><text fill="#000000" font-family="sans-serif" font-size="13" lengthAdjust="spacing" textLength="181.4731" x="80.5913" y="108.0566">requests add figure category</text><polygon fill="#181818" points="716.0898,138.1094,726.0898,142.1094,716.0898,146.1094,720.0898,142.1094" style="stroke:#181818;stroke-width:1.0;"/><line style="stroke:#181818;stroke-width:1.0;" x1="284.0645" x2="722.0898" y1="142.1094" y2="142.1094"/><text fill="#000000" font-family="sans-serif" font-size="13" font-weight="bold" lengthAdjust="spacing" textLength="8.5757" x="291.0645" y="137.3672">2</text><text fill="#000000" font-family="sans-serif" font-size="13" lengthAdjust="spacing" textLength="46.96" x="303.6401" y="137.3672">create()</text><polygon fill="#181818" points="933.5063,167.4199,943.5063,171.4199,933.5063,175.4199,937.5063,171.4199" style="stroke:#181818;stroke-width:1.0;"/><line style="stroke:#181818;stroke-width:1.0;" x1="738.0898" x2="939.5063" y1="171.4199" y2="171.4199"/><text fill="#000000" font-family="sans-serif" font-size="13" font-weight="bold" lengthAdjust="spacing" textLength="8.5757" x="745.0898" y="166.6777">3</text><text fill="#000000" font-family="sans-serif" font-size="13" lengthAdjust="spacing" textLength="83.3638" x="757.6655" y="166.6777">repositories()</text><polygon fill="#181818" points="1087.7002,196.7305,1097.7002,200.7305,1087.7002,204.7305,1091.7002,200.7305" style="stroke:#181818;stroke-width:1.0;"/><line style="stroke:#181818;stroke-width:1.0;" x1="955.5063" x2="1093.7002" y1="200.7305" y2="200.7305"/><text fill="#000000" font-family="sans-serif" font-size="13" font-weight="bold" lengthAdjust="spacing" textLength="8.5757" x="962.5063" y="195.9883">4</text><text fill="#000000" font-family="sans-serif" font-size="13" lengthAdjust="spacing" textLength="46.96" x="975.082" y="195.9883">create()</text><polygon fill="#181818" points="1269.562,226.041,1279.562,230.041,1269.562,234.041,1273.562,230.041" style="stroke:#181818;stroke-width:1.0;"/><line style="stroke:#181818;stroke-width:1.0;" x1="1104.7002" x2="1275.562" y1="230.041" y2="230.041"/><text fill="#000000" font-family="sans-serif" font-size="13" font-weight="bold" lengthAdjust="spacing" textLength="8.5757" x="1111.7002" y="225.2988">5</text><text fill="#000000" font-family="sans-serif" font-size="13" lengthAdjust="spacing" textLength="46.96" x="1124.2759" y="225.2988">create()</text><polygon fill="#181818" points="749.0898,255.3516,739.0898,259.3516,749.0898,263.3516,745.0898,259.3516" style="stroke:#181818;stroke-width:1.0;"/><line style="stroke:#181818;stroke-width:1.0;" x1="743.0898" x2="949.5063" y1="259.3516" y2="259.3516"/><text fill="#000000" font-family="sans-serif" font-size="13" font-weight="bold" lengthAdjust="spacing" textLength="8.5757" x="755.0898" y="254.6094">6</text><text fill="#000000" font-family="sans-serif" font-size="13" lengthAdjust="spacing" textLength="162.9189" x="767.6655" y="254.6094">FigureCategoryRepository</text><line style="stroke:#181818;stroke-width:1.0;" x1="284.0645" x2="326.0645" y1="288.6621" y2="288.6621"/><line style="stroke:#181818;stroke-width:1.0;" x1="326.0645" x2="326.0645" y1="288.6621" y2="301.6621"/><line style="stroke:#181818;stroke-width:1.0;" x1="285.0645" x2="326.0645" y1="301.6621" y2="301.6621"/><polygon fill="#181818" points="295.0645,297.6621,285.0645,301.6621,295.0645,305.6621,291.0645,301.6621" style="stroke:#181818;stroke-width:1.0;"/><text fill="#000000" font-family="sans-serif" font-size="13" font-weight="bold" lengthAdjust="spacing" textLength="8.5757" x="291.0645" y="283.9199">7</text><text fill="#000000" font-family="sans-serif" font-size="13" lengthAdjust="spacing" textLength="57.6938" x="303.6401" y="283.9199">doShow()</text><polygon fill="#181818" points="716.0898,326.9727,726.0898,330.9727,716.0898,334.9727,720.0898,330.9727" style="stroke:#181818;stroke-width:1.0;"/><line style="stroke:#181818;stroke-width:1.0;" x1="284.0645" x2="722.0898" y1="330.9727" y2="330.9727"/><text fill="#000000" font-family="sans-serif" font-size="13" font-weight="bold" lengthAdjust="spacing" textLength="8.5757" x="291.0645" y="326.2305">8</text><text fill="#000000" font-family="sans-serif" font-size="13" lengthAdjust="spacing" textLength="241.4395" x="303.6401" y="326.2305">addFigureCategory(name, description)</text><line style="stroke:#181818;stroke-width:1.0;" x1="738.0898" x2="780.0898" y1="360.2832" y2="360.2832"/><line style="stroke:#181818;stroke-width:1.0;" x1="780.0898" x2="780.0898" y1="360.2832" y2="373.2832"/><line style="stroke:#181818;stroke-width:1.0;" x1="739.0898" x2="780.0898" y1="373.2832" y2="373.2832"/><polygon fill="#181818" points="749.0898,369.2832,739.0898,373.2832,749.0898,377.2832,745.0898,373.2832" style="stroke:#181818;stroke-width:1.0;"/><text fill="#000000" font-family="sans-serif" font-size="13" font-weight="bold" lengthAdjust="spacing" textLength="8.5757" x="745.0898" y="355.541">9</text><text fill="#000000" font-family="sans-serif" font-size="13" lengthAdjust="spacing" textLength="170.8408" x="757.6655" y="355.541">validate(name, description)</text><path d="M187.6792,388.2832 L249.8179,388.2832 L249.8179,395.5938 L239.8179,405.5938 L187.6792,405.5938 L187.6792,388.2832 " fill="#EEEEEE" style="stroke:#000000;stroke-width:1.5;"/><rect fill="none" height="178.8184" style="stroke:#000000;stroke-width:1.5;" width="1328.1484" x="187.6792" y="388.2832"/><text fill="#000000" font-family="sans-serif" font-size="13" font-weight="bold" lengthAdjust="spacing" textLength="17.1387" x="202.6792" y="401.8516">alt</text><text fill="#000000" font-family="sans-serif" font-size="11" font-weight="bold" lengthAdjust="spacing" textLength="79.7876" x="264.8179" y="400.918">[invalid input]</text><polygon fill="#181818" points="295.0645,422.9043,285.0645,426.9043,295.0645,430.9043,291.0645,426.9043" style="stroke:#181818;stroke-width:1.0;"/><line style="stroke:#181818;stroke-width:1.0;" x1="289.0645" x2="727.0898" y1="426.9043" y2="426.9043"/><text fill="#000000" font-family="sans-serif" font-size="13" font-weight="bold" lengthAdjust="spacing" textLength="17.1514" x="301.0645" y="422.1621">10</text><text fill="#000000" font-family="sans-serif" font-size="13" lengthAdjust="spacing" textLength="398.874" x="322.2158" y="422.1621">errorMessage("Invalid or duplicate category name/description")</text><line style="stroke:#000000;stroke-width:1.0;stroke-dasharray:2.0,2.0;" x1="187.6792" x2="1515.8276" y1="435.9043" y2="435.9043"/><text fill="#000000" font-family="sans-serif" font-size="11" font-weight="bold" lengthAdjust="spacing" textLength="68.9863" x="192.6792" y="446.5391">[valid input]</text><polygon fill="#181818" points="1435.165,467.1699,1445.165,471.1699,1435.165,475.1699,1439.165,471.1699" style="stroke:#181818;stroke-width:1.0;"/><line style="stroke:#181818;stroke-width:1.0;" x1="738.0898" x2="1441.165" y1="471.1699" y2="471.1699"/><text fill="#000000" font-family="sans-serif" font-size="13" font-weight="bold" lengthAdjust="spacing" textLength="17.1514" x="745.0898" y="466.4277">11</text><text fill="#000000" font-family="sans-serif" font-size="13" lengthAdjust="spacing" textLength="300.2886" x="766.2412" y="466.4277">newFigureCategory = create(name, description)</text><polygon fill="#181818" points="1269.562,496.4805,1279.562,500.4805,1269.562,504.4805,1273.562,500.4805" style="stroke:#181818;stroke-width:1.0;"/><line style="stroke:#181818;stroke-width:1.0;" x1="738.0898" x2="1275.562" y1="500.4805" y2="500.4805"/><text fill="#000000" font-family="sans-serif" font-size="13" font-weight="bold" lengthAdjust="spacing" textLength="17.1514" x="745.0898" y="495.7383">12</text><text fill="#000000" font-family="sans-serif" font-size="13" lengthAdjust="spacing" textLength="157.5044" x="766.2412" y="495.7383">save(newFigureCategory)</text><polygon fill="#181818" points="749.0898,525.791,739.0898,529.791,749.0898,533.791,745.0898,529.791" style="stroke:#181818;stroke-width:1.0;"/><line style="stroke:#181818;stroke-width:1.0;" x1="743.0898" x2="1280.562" y1="529.791" y2="529.791"/><text fill="#000000" font-family="sans-serif" font-size="13" font-weight="bold" lengthAdjust="spacing" textLength="17.1514" x="755.0898" y="525.0488">13</text><text fill="#000000" font-family="sans-serif" font-size="13" lengthAdjust="spacing" textLength="80.5581" x="776.2412" y="525.0488">confirmation</text><polygon fill="#181818" points="295.0645,555.1016,285.0645,559.1016,295.0645,563.1016,291.0645,559.1016" style="stroke:#181818;stroke-width:1.0;"/><line style="stroke:#181818;stroke-width:1.0;" x1="289.0645" x2="727.0898" y1="559.1016" y2="559.1016"/><text fill="#000000" font-family="sans-serif" font-size="13" font-weight="bold" lengthAdjust="spacing" textLength="17.1514" x="301.0645" y="554.3594">14</text><text fill="#000000" font-family="sans-serif" font-size="13" lengthAdjust="spacing" textLength="300.2378" x="322.2158" y="554.3594">successMessage("Category added successfully")</text><!--SRC=[XPDFYzim4CNl_XI3Jmcqz6xOGd0tO6XtJVuS2eMYIcD7h2rv9Jbfldr7ikF8oORcuaZwlQUP9yc-ITKnmrfejTByO7IBu4oFYPrMEiRVM8rRTsuG37B7LDt4W3qmeKzIrL2nncAIiDvfrRT_qD1_xhI1T7lGfszePQtGfC0ihFBTwoOX0oUvx9Xoa6Oh8TQoxWtcp66jpNbV17PV_0_CjN96Dyredkystsya9HehhKF5qSFurmMopETS5Uez_rBP1ZjjfH-iXxd0hqFTFtyNBzlTwYL_dglDf263UOLNk-2pUIvVvzevFcmscmfPoYEDnl2Iy87FNoaWoEXetdkqpW8J0geW1NwlfJ099v4FYMJS84qlbX4IuWlBX9MvjnwBbsY9d41AhymzT1jBP3l1Tz7TJdWZdqia5lXOFkpioypWKTQn0HKxThulCX3QNqdVzZMDp4Stjreerk8d46YvaPsJMYsdP0R9aJLI-6e_85dZGAf0qBVhNGBqk-Xz6MYCDZ_GMdfXYxGOMNenekyQwOzlEaFm6to9_DDbWlJUu97_l9CC59xcK_1qIVg3scEduLGiEn9vQpAGdhXcmhMgf6cPTxfhsVQSKyDJqrCr53wAotBLDytPTwX44fzYk9lHcAvpD1eUnZy0]--></g></svg>