<svg xmlns="http://www.w3.org/2000/svg" xmlns:xlink="http://www.w3.org/1999/xlink" contentStyleType="text/css" height="1166px" preserveAspectRatio="none" style="width:2590px;height:1166px;background:#FFFFFF;" version="1.1" viewBox="0 0 2590 1166" width="2590px" zoomAndPan="magnify"><title>UI Sequence Diagram (SSD) - Add Figure Category</title><defs/><g><text fill="#000000" font-family="sans-serif" font-size="14" font-weight="bold" lengthAdjust="spacing" textLength="361.915" x="1113.4346" y="28.5352">UI Sequence Diagram (SSD) - Add Figure Category</text><rect fill="#FFFFFF" height="536.457" style="stroke:#181818;stroke-width:1.0;" width="10" x="53.2305" y="128.9766"/><rect fill="#FFFFFF" height="515.1465" style="stroke:#181818;stroke-width:1.0;" width="10" x="359.2476" y="150.2871"/><rect fill="#FFFFFF" height="417.2148" style="stroke:#181818;stroke-width:1.0;" width="10" x="759.0513" y="248.2188"/><rect fill="#FFFFFF" height="157.5527" style="stroke:#181818;stroke-width:1.0;" width="10" x="764.0513" y="287.707"/><rect fill="#FFFFFF" height="240.8398" style="stroke:#181818;stroke-width:1.0;" width="10" x="759.0513" y="796.9863"/><rect fill="#FFFFFF" height="29.3105" style="stroke:#181818;stroke-width:1.0;" width="10" x="1153.2822" y="322.0176"/><rect fill="#FFFFFF" height="29.3105" style="stroke:#181818;stroke-width:1.0;" width="10" x="1265.5068" y="380.6387"/><rect fill="#FFFFFF" height="29.3105" style="stroke:#181818;stroke-width:1.0;" width="10" x="1592.208" y="481.5703"/><rect fill="#FFFFFF" height="271.7949" style="stroke:#181818;stroke-width:1.0;" width="10" x="1764.418" y="540.1914"/><rect fill="#FFFFFF" height="29.3105" style="stroke:#181818;stroke-width:1.0;" width="10" x="2093.4092" y="920.584"/><rect fill="#FFFFFF" height="29.3105" style="stroke:#181818;stroke-width:1.0;" width="10" x="2320.7305" y="979.2051"/><rect fill="#FFFFFF" height="47.9766" style="stroke:#181818;stroke-width:1.0;" width="10" x="2520.5508" y="843.2969"/><rect fill="none" height="207.4844" style="stroke:#000000;stroke-width:1.5;" width="1738.8125" x="272.8623" y="597.502"/><line style="stroke:#181818;stroke-width:0.5;stroke-dasharray:5.0,5.0;" x1="58" x2="58" y1="118.9766" y2="1085.1367"/><line style="stroke:#181818;stroke-width:0.5;stroke-dasharray:5.0,5.0;" x1="363.8623" x2="363.8623" y1="118.9766" y2="1085.1367"/><line style="stroke:#181818;stroke-width:0.5;stroke-dasharray:5.0,5.0;" x1="763.4521" x2="763.4521" y1="247.6523" y2="1085.1367"/><line style="stroke:#181818;stroke-width:0.5;stroke-dasharray:5.0,5.0;" x1="1001.2539" x2="1001.2539" y1="118.9766" y2="1085.1367"/><line style="stroke:#181818;stroke-width:0.5;stroke-dasharray:5.0,5.0;" x1="1158.1699" x2="1158.1699" y1="118.9766" y2="1085.1367"/><line style="stroke:#181818;stroke-width:0.5;stroke-dasharray:5.0,5.0;" x1="1270.3945" x2="1270.3945" y1="118.9766" y2="1085.1367"/><line style="stroke:#181818;stroke-width:0.5;stroke-dasharray:5.0,5.0;" x1="1427.6191" x2="1427.6191" y1="118.9766" y2="1085.1367"/><line style="stroke:#181818;stroke-width:0.5;stroke-dasharray:5.0,5.0;" x1="1596.5" x2="1596.5" y1="118.9766" y2="1085.1367"/><line style="stroke:#181818;stroke-width:0.5;stroke-dasharray:5.0,5.0;" x1="1768.916" x2="1768.916" y1="118.9766" y2="1085.1367"/><line style="stroke:#181818;stroke-width:0.5;stroke-dasharray:5.0,5.0;" x1="1939.9199" x2="1939.9199" y1="756.6875" y2="1085.1367"/><line style="stroke:#181818;stroke-width:0.5;stroke-dasharray:5.0,5.0;" x1="2097.6748" x2="2097.6748" y1="118.9766" y2="1085.1367"/><line style="stroke:#181818;stroke-width:0.5;stroke-dasharray:5.0,5.0;" x1="2325.1436" x2="2325.1436" y1="118.9766" y2="1085.1367"/><line style="stroke:#181818;stroke-width:0.5;stroke-dasharray:5.0,5.0;" x1="2525.3174" x2="2525.3174" y1="850.9746" y2="1085.1367"/><text fill="#000000" font-family="sans-serif" font-size="14" lengthAdjust="spacing" textLength="100.4609" x="5" y="116.0234">Show Designer</text><ellipse cx="58.2305" cy="50.9883" fill="#E3E3E3" rx="8" ry="8" style="stroke:#181818;stroke-width:0.5;"/><path d="M58.2305,58.9883 L58.2305,85.9883 M45.2305,66.9883 L71.2305,66.9883 M58.2305,85.9883 L45.2305,100.9883 M58.2305,85.9883 L71.2305,100.9883 " fill="none" style="stroke:#181818;stroke-width:0.5;"/><text fill="#000000" font-family="sans-serif" font-size="14" lengthAdjust="spacing" textLength="100.4609" x="5" y="1097.6719">Show Designer</text><ellipse cx="58.2305" cy="1109.125" fill="#E3E3E3" rx="8" ry="8" style="stroke:#181818;stroke-width:0.5;"/><path d="M58.2305,1117.125 L58.2305,1144.125 M45.2305,1125.125 L71.2305,1125.125 M58.2305,1144.125 L45.2305,1159.125 M58.2305,1144.125 L71.2305,1159.125 " fill="none" style="stroke:#181818;stroke-width:0.5;"/><rect fill="#E3E3E3" height="30.4883" rx="2.5" ry="2.5" style="stroke:#181818;stroke-width:0.5;" width="162.7705" x="282.8623" y="87.4883"/><text fill="#000000" font-family="sans-serif" font-size="14" lengthAdjust="spacing" textLength="148.7705" x="289.8623" y="108.0234">:AddFigureCategoryUI</text><rect fill="#E3E3E3" height="30.4883" rx="2.5" ry="2.5" style="stroke:#181818;stroke-width:0.5;" width="162.7705" x="282.8623" y="1084.1367"/><text fill="#000000" font-family="sans-serif" font-size="14" lengthAdjust="spacing" textLength="148.7705" x="289.8623" y="1104.6719">:AddFigureCategoryUI</text><rect fill="#E3E3E3" height="30.4883" rx="2.5" ry="2.5" style="stroke:#181818;stroke-width:0.5;" width="217.1982" x="655.4521" y="1084.1367"/><text fill="#000000" font-family="sans-serif" font-size="14" lengthAdjust="spacing" textLength="203.1982" x="662.4521" y="1104.6719">:AddFigureCategoryController</text><rect fill="#E3E3E3" height="46.9766" rx="2.5" ry="2.5" style="stroke:#181818;stroke-width:0.5;" width="189.916" x="907.2539" y="71"/><text fill="#000000" font-family="sans-serif" font-size="14" lengthAdjust="spacing" textLength="169.1279" x="917.6479" y="91.5352">figureCategoryController</text><text fill="#000000" font-family="sans-serif" font-size="14" lengthAdjust="spacing" textLength="175.916" x="914.2539" y="108.0234">:FigureCategoryController</text><rect fill="#E3E3E3" height="46.9766" rx="2.5" ry="2.5" style="stroke:#181818;stroke-width:0.5;" width="189.916" x="907.2539" y="1084.1367"/><text fill="#000000" font-family="sans-serif" font-size="14" lengthAdjust="spacing" textLength="169.1279" x="917.6479" y="1104.6719">figureCategoryController</text><text fill="#000000" font-family="sans-serif" font-size="14" lengthAdjust="spacing" textLength="175.916" x="914.2539" y="1121.1602">:FigureCategoryController</text><rect fill="#E3E3E3" height="30.4883" rx="2.5" ry="2.5" style="stroke:#181818;stroke-width:0.5;" width="102.2246" x="1107.1699" y="87.4883"/><text fill="#000000" font-family="sans-serif" font-size="14" lengthAdjust="spacing" textLength="88.2246" x="1114.1699" y="108.0234">:Repositories</text><rect fill="#E3E3E3" height="30.4883" rx="2.5" ry="2.5" style="stroke:#181818;stroke-width:0.5;" width="102.2246" x="1107.1699" y="1084.1367"/><text fill="#000000" font-family="sans-serif" font-size="14" lengthAdjust="spacing" textLength="88.2246" x="1114.1699" y="1104.6719">:Repositories</text><rect fill="#E3E3E3" height="46.9766" rx="2.5" ry="2.5" style="stroke:#181818;stroke-width:0.5;" width="102.2246" x="1219.3945" y="71"/><text fill="#000000" font-family="sans-serif" font-size="14" lengthAdjust="spacing" textLength="80.6709" x="1230.1714" y="91.5352">repositories</text><text fill="#000000" font-family="sans-serif" font-size="14" lengthAdjust="spacing" textLength="88.2246" x="1226.3945" y="108.0234">:Repositories</text><rect fill="#E3E3E3" height="46.9766" rx="2.5" ry="2.5" style="stroke:#181818;stroke-width:0.5;" width="102.2246" x="1219.3945" y="1084.1367"/><text fill="#000000" font-family="sans-serif" font-size="14" lengthAdjust="spacing" textLength="80.6709" x="1230.1714" y="1104.6719">repositories</text><text fill="#000000" font-family="sans-serif" font-size="14" lengthAdjust="spacing" textLength="88.2246" x="1226.3945" y="1121.1602">:Repositories</text><rect fill="#E3E3E3" height="46.9766" rx="2.5" ry="2.5" style="stroke:#181818;stroke-width:0.5;" width="193.8809" x="1331.6191" y="71"/><text fill="#000000" font-family="sans-serif" font-size="14" lengthAdjust="spacing" textLength="173.0928" x="1342.0132" y="91.5352">figureCategoryRepository</text><text fill="#000000" font-family="sans-serif" font-size="14" lengthAdjust="spacing" textLength="179.8809" x="1338.6191" y="108.0234">:FigureCategoryRepository</text><rect fill="#E3E3E3" height="46.9766" rx="2.5" ry="2.5" style="stroke:#181818;stroke-width:0.5;" width="193.8809" x="1331.6191" y="1084.1367"/><text fill="#000000" font-family="sans-serif" font-size="14" lengthAdjust="spacing" textLength="173.0928" x="1342.0132" y="1104.6719">figureCategoryRepository</text><text fill="#000000" font-family="sans-serif" font-size="14" lengthAdjust="spacing" textLength="179.8809" x="1338.6191" y="1121.1602">:FigureCategoryRepository</text><rect fill="#E3E3E3" height="46.9766" rx="2.5" ry="2.5" style="stroke:#181818;stroke-width:0.5;" width="123.416" x="1535.5" y="71"/><text fill="#000000" font-family="sans-serif" font-size="14" lengthAdjust="spacing" textLength="102.6279" x="1545.894" y="91.5352">factoryProvider</text><text fill="#000000" font-family="sans-serif" font-size="14" lengthAdjust="spacing" textLength="109.416" x="1542.5" y="108.0234">:FactoryProvider</text><rect fill="#E3E3E3" height="46.9766" rx="2.5" ry="2.5" style="stroke:#181818;stroke-width:0.5;" width="123.416" x="1535.5" y="1084.1367"/><text fill="#000000" font-family="sans-serif" font-size="14" lengthAdjust="spacing" textLength="102.6279" x="1545.894" y="1104.6719">factoryProvider</text><text fill="#000000" font-family="sans-serif" font-size="14" lengthAdjust="spacing" textLength="109.416" x="1542.5" y="1121.1602">:FactoryProvider</text><rect fill="#E3E3E3" height="46.9766" rx="2.5" ry="2.5" style="stroke:#181818;stroke-width:0.5;" width="201.0039" x="1668.916" y="71"/><text fill="#000000" font-family="sans-serif" font-size="14" lengthAdjust="spacing" textLength="180.2158" x="1679.3101" y="91.5352">figureCategoryFactoryImpl</text><text fill="#000000" font-family="sans-serif" font-size="14" lengthAdjust="spacing" textLength="187.0039" x="1675.916" y="108.0234">:FigureCategoryFactoryImpl</text><rect fill="#E3E3E3" height="46.9766" rx="2.5" ry="2.5" style="stroke:#181818;stroke-width:0.5;" width="201.0039" x="1668.916" y="1084.1367"/><text fill="#000000" font-family="sans-serif" font-size="14" lengthAdjust="spacing" textLength="180.2158" x="1679.3101" y="1104.6719">figureCategoryFactoryImpl</text><text fill="#000000" font-family="sans-serif" font-size="14" lengthAdjust="spacing" textLength="187.0039" x="1675.916" y="1121.1602">:FigureCategoryFactoryImpl</text><rect fill="#E3E3E3" height="46.9766" rx="2.5" ry="2.5" style="stroke:#181818;stroke-width:0.5;" width="121.7549" x="1879.9199" y="1084.1367"/><text fill="#000000" font-family="sans-serif" font-size="14" lengthAdjust="spacing" textLength="100.9668" x="1890.314" y="1104.6719">figureCategory</text><text fill="#000000" font-family="sans-serif" font-size="14" lengthAdjust="spacing" textLength="107.7549" x="1886.9199" y="1121.1602">:FigureCategory</text><rect fill="#E3E3E3" height="46.9766" rx="2.5" ry="2.5" style="stroke:#181818;stroke-width:0.5;" width="173.4688" x="2011.6748" y="71"/><text fill="#000000" font-family="sans-serif" font-size="14" lengthAdjust="spacing" textLength="152.6807" x="2022.0688" y="91.5352">figureCategoryJPAImpl</text><text fill="#000000" font-family="sans-serif" font-size="14" lengthAdjust="spacing" textLength="159.4688" x="2018.6748" y="108.0234">:FigureCategoryJPAImpl</text><rect fill="#E3E3E3" height="46.9766" rx="2.5" ry="2.5" style="stroke:#181818;stroke-width:0.5;" width="173.4688" x="2011.6748" y="1084.1367"/><text fill="#000000" font-family="sans-serif" font-size="14" lengthAdjust="spacing" textLength="152.6807" x="2022.0688" y="1104.6719">figureCategoryJPAImpl</text><text fill="#000000" font-family="sans-serif" font-size="14" lengthAdjust="spacing" textLength="159.4688" x="2018.6748" y="1121.1602">:FigureCategoryJPAImpl</text><rect fill="#E3E3E3" height="46.9766" rx="2.5" ry="2.5" style="stroke:#181818;stroke-width:0.5;" width="261.1738" x="2195.1436" y="71"/><text fill="#000000" font-family="sans-serif" font-size="14" lengthAdjust="spacing" textLength="242.7578" x="2204.3516" y="91.5352">inMemoryFigureCategoryRepository</text><text fill="#000000" font-family="sans-serif" font-size="14" lengthAdjust="spacing" textLength="247.1738" x="2202.1436" y="108.0234">:InMemoryFigureCategoryRepository</text><rect fill="#E3E3E3" height="46.9766" rx="2.5" ry="2.5" style="stroke:#181818;stroke-width:0.5;" width="261.1738" x="2195.1436" y="1084.1367"/><text fill="#000000" font-family="sans-serif" font-size="14" lengthAdjust="spacing" textLength="242.7578" x="2204.3516" y="1104.6719">inMemoryFigureCategoryRepository</text><text fill="#000000" font-family="sans-serif" font-size="14" lengthAdjust="spacing" textLength="247.1738" x="2202.1436" y="1121.1602">:InMemoryFigureCategoryRepository</text><rect fill="#E3E3E3" height="46.9766" rx="2.5" ry="2.5" style="stroke:#181818;stroke-width:0.5;" width="118.4668" x="2466.3174" y="1084.1367"/><text fill="#000000" font-family="sans-serif" font-size="14" lengthAdjust="spacing" textLength="96.6191" x="2477.2412" y="1104.6719">localDateTime</text><text fill="#000000" font-family="sans-serif" font-size="14" lengthAdjust="spacing" textLength="104.4668" x="2473.3174" y="1121.1602">:LocalDateTime</text><rect fill="#FFFFFF" height="536.457" style="stroke:#181818;stroke-width:1.0;" width="10" x="53.2305" y="128.9766"/><rect fill="#FFFFFF" height="515.1465" style="stroke:#181818;stroke-width:1.0;" width="10" x="359.2476" y="150.2871"/><rect fill="#FFFFFF" height="417.2148" style="stroke:#181818;stroke-width:1.0;" width="10" x="759.0513" y="248.2188"/><rect fill="#FFFFFF" height="157.5527" style="stroke:#181818;stroke-width:1.0;" width="10" x="764.0513" y="287.707"/><rect fill="#FFFFFF" height="240.8398" style="stroke:#181818;stroke-width:1.0;" width="10" x="759.0513" y="796.9863"/><rect fill="#FFFFFF" height="29.3105" style="stroke:#181818;stroke-width:1.0;" width="10" x="1153.2822" y="322.0176"/><rect fill="#FFFFFF" height="29.3105" style="stroke:#181818;stroke-width:1.0;" width="10" x="1265.5068" y="380.6387"/><rect fill="#FFFFFF" height="29.3105" style="stroke:#181818;stroke-width:1.0;" width="10" x="1592.208" y="481.5703"/><rect fill="#FFFFFF" height="271.7949" style="stroke:#181818;stroke-width:1.0;" width="10" x="1764.418" y="540.1914"/><rect fill="#FFFFFF" height="29.3105" style="stroke:#181818;stroke-width:1.0;" width="10" x="2093.4092" y="920.584"/><rect fill="#FFFFFF" height="29.3105" style="stroke:#181818;stroke-width:1.0;" width="10" x="2320.7305" y="979.2051"/><rect fill="#FFFFFF" height="47.9766" style="stroke:#181818;stroke-width:1.0;" width="10" x="2520.5508" y="843.2969"/><polygon fill="#181818" points="347.2476,146.2871,357.2476,150.2871,347.2476,154.2871,351.2476,150.2871" style="stroke:#181818;stroke-width:1.0;"/><line style="stroke:#181818;stroke-width:1.0;" x1="63.2305" x2="353.2476" y1="150.2871" y2="150.2871"/><text fill="#000000" font-family="sans-serif" font-size="13" font-weight="bold" lengthAdjust="spacing" textLength="8.5757" x="70.2305" y="145.5449">1</text><text fill="#000000" font-family="sans-serif" font-size="13" lengthAdjust="spacing" textLength="181.4858" x="82.8062" y="145.5449">ask to add a Figure Category</text><polygon fill="#181818" points="74.2305,175.5977,64.2305,179.5977,74.2305,183.5977,70.2305,179.5977" style="stroke:#181818;stroke-width:1.0;"/><line style="stroke:#181818;stroke-width:1.0;" x1="68.2305" x2="358.2476" y1="179.5977" y2="179.5977"/><text fill="#000000" font-family="sans-serif" font-size="13" font-weight="bold" lengthAdjust="spacing" textLength="8.5757" x="80.2305" y="174.8555">2</text><text fill="#000000" font-family="sans-serif" font-size="13" lengthAdjust="spacing" textLength="259.4414" x="92.8062" y="174.8555">ask for category data (name, description)</text><polygon fill="#181818" points="347.2476,204.9082,357.2476,208.9082,347.2476,212.9082,351.2476,208.9082" style="stroke:#181818;stroke-width:1.0;"/><line style="stroke:#181818;stroke-width:1.0;" x1="63.2305" x2="353.2476" y1="208.9082" y2="208.9082"/><text fill="#000000" font-family="sans-serif" font-size="13" font-weight="bold" lengthAdjust="spacing" textLength="8.5757" x="70.2305" y="204.166">3</text><text fill="#000000" font-family="sans-serif" font-size="13" lengthAdjust="spacing" textLength="143.7998" x="82.8062" y="204.166">provides category data</text><polygon fill="#181818" points="643.4521,234.2188,653.4521,238.2188,643.4521,242.2188,647.4521,238.2188" style="stroke:#181818;stroke-width:1.0;"/><line style="stroke:#181818;stroke-width:1.0;" x1="369.2476" x2="649.4521" y1="238.2188" y2="238.2188"/><text fill="#000000" font-family="sans-serif" font-size="13" font-weight="bold" lengthAdjust="spacing" textLength="8.5757" x="376.2476" y="233.4766">4</text><text fill="#000000" font-family="sans-serif" font-size="13" lengthAdjust="spacing" textLength="38.5049" x="388.8232" y="233.4766">create</text><rect fill="#E3E3E3" height="30.4883" rx="2.5" ry="2.5" style="stroke:#181818;stroke-width:0.5;" width="217.1982" x="655.4521" y="216.9082"/><text fill="#000000" font-family="sans-serif" font-size="14" lengthAdjust="spacing" textLength="203.1982" x="662.4521" y="237.4434">:AddFigureCategoryController</text><line style="stroke:#181818;stroke-width:1.0;" x1="769.0513" x2="816.0513" y1="274.707" y2="274.707"/><line style="stroke:#181818;stroke-width:1.0;" x1="816.0513" x2="816.0513" y1="274.707" y2="287.707"/><line style="stroke:#181818;stroke-width:1.0;" x1="775.0513" x2="816.0513" y1="287.707" y2="287.707"/><polygon fill="#181818" points="785.0513,283.707,775.0513,287.707,785.0513,291.707,781.0513,287.707" style="stroke:#181818;stroke-width:1.0;"/><text fill="#000000" font-family="sans-serif" font-size="13" font-weight="bold" lengthAdjust="spacing" textLength="8.5757" x="781.0513" y="269.9648">5</text><text fill="#000000" font-family="sans-serif" font-size="13" lengthAdjust="spacing" textLength="191.585" x="793.627" y="269.9648">getFigureCategoryRepository()</text><polygon fill="#181818" points="1141.2822,318.0176,1151.2822,322.0176,1141.2822,326.0176,1145.2822,322.0176" style="stroke:#181818;stroke-width:1.0;"/><line style="stroke:#181818;stroke-width:1.0;" x1="774.0513" x2="1147.2822" y1="322.0176" y2="322.0176"/><text fill="#000000" font-family="sans-serif" font-size="13" font-weight="bold" lengthAdjust="spacing" textLength="8.5757" x="781.0513" y="317.2754">6</text><text fill="#000000" font-family="sans-serif" font-size="13" lengthAdjust="spacing" textLength="81.1167" x="793.627" y="317.2754">getInstance()</text><polygon fill="#181818" points="785.0513,347.3281,775.0513,351.3281,785.0513,355.3281,781.0513,351.3281" style="stroke:#181818;stroke-width:1.0;"/><line style="stroke:#181818;stroke-width:1.0;stroke-dasharray:2.0,2.0;" x1="779.0513" x2="1157.2822" y1="351.3281" y2="351.3281"/><text fill="#000000" font-family="sans-serif" font-size="13" font-weight="bold" lengthAdjust="spacing" textLength="8.5757" x="791.0513" y="346.5859">7</text><text fill="#000000" font-family="sans-serif" font-size="13" lengthAdjust="spacing" textLength="74.9087" x="803.627" y="346.5859">repositories</text><polygon fill="#181818" points="1253.5068,376.6387,1263.5068,380.6387,1253.5068,384.6387,1257.5068,380.6387" style="stroke:#181818;stroke-width:1.0;"/><line style="stroke:#181818;stroke-width:1.0;" x1="774.0513" x2="1259.5068" y1="380.6387" y2="380.6387"/><text fill="#000000" font-family="sans-serif" font-size="13" font-weight="bold" lengthAdjust="spacing" textLength="8.5757" x="781.0513" y="375.8965">8</text><text fill="#000000" font-family="sans-serif" font-size="13" lengthAdjust="spacing" textLength="191.585" x="793.627" y="375.8965">getFigureCategoryRepository()</text><polygon fill="#181818" points="785.0513,405.9492,775.0513,409.9492,785.0513,413.9492,781.0513,409.9492" style="stroke:#181818;stroke-width:1.0;"/><line style="stroke:#181818;stroke-width:1.0;stroke-dasharray:2.0,2.0;" x1="779.0513" x2="1269.5068" y1="409.9492" y2="409.9492"/><text fill="#000000" font-family="sans-serif" font-size="13" font-weight="bold" lengthAdjust="spacing" textLength="8.5757" x="791.0513" y="405.207">9</text><text fill="#000000" font-family="sans-serif" font-size="13" lengthAdjust="spacing" textLength="160.729" x="803.627" y="405.207">figureCategoryRepository</text><line style="stroke:#181818;stroke-width:1.0;stroke-dasharray:2.0,2.0;" x1="774.0513" x2="816.0513" y1="444.2598" y2="444.2598"/><line style="stroke:#181818;stroke-width:1.0;stroke-dasharray:2.0,2.0;" x1="816.0513" x2="816.0513" y1="444.2598" y2="457.2598"/><line style="stroke:#181818;stroke-width:1.0;stroke-dasharray:2.0,2.0;" x1="769.0513" x2="816.0513" y1="457.2598" y2="457.2598"/><polygon fill="#181818" points="779.0513,453.2598,769.0513,457.2598,779.0513,461.2598,775.0513,457.2598" style="stroke:#181818;stroke-width:1.0;"/><text fill="#000000" font-family="sans-serif" font-size="13" font-weight="bold" lengthAdjust="spacing" textLength="17.1514" x="781.0513" y="439.5176">10</text><text fill="#000000" font-family="sans-serif" font-size="13" lengthAdjust="spacing" textLength="160.729" x="802.2026" y="439.5176">figureCategoryRepository</text><polygon fill="#181818" points="1580.208,477.5703,1590.208,481.5703,1580.208,485.5703,1584.208,481.5703" style="stroke:#181818;stroke-width:1.0;"/><line style="stroke:#181818;stroke-width:1.0;" x1="769.0513" x2="1586.208" y1="481.5703" y2="481.5703"/><text fill="#000000" font-family="sans-serif" font-size="13" font-weight="bold" lengthAdjust="spacing" textLength="17.1514" x="776.0513" y="476.8281">11</text><text fill="#000000" font-family="sans-serif" font-size="13" lengthAdjust="spacing" textLength="170.3774" x="797.2026" y="476.8281">getFigureCategoryFactory()</text><polygon fill="#181818" points="780.0513,506.8809,770.0513,510.8809,780.0513,514.8809,776.0513,510.8809" style="stroke:#181818;stroke-width:1.0;"/><line style="stroke:#181818;stroke-width:1.0;stroke-dasharray:2.0,2.0;" x1="774.0513" x2="1596.208" y1="510.8809" y2="510.8809"/><text fill="#000000" font-family="sans-serif" font-size="13" font-weight="bold" lengthAdjust="spacing" textLength="17.1514" x="786.0513" y="506.1387">12</text><text fill="#000000" font-family="sans-serif" font-size="13" lengthAdjust="spacing" textLength="99.9121" x="807.2026" y="506.1387">categoryFactory</text><polygon fill="#181818" points="1752.418,536.1914,1762.418,540.1914,1752.418,544.1914,1756.418,540.1914" style="stroke:#181818;stroke-width:1.0;"/><line style="stroke:#181818;stroke-width:1.0;" x1="769.0513" x2="1758.418" y1="540.1914" y2="540.1914"/><text fill="#000000" font-family="sans-serif" font-size="13" font-weight="bold" lengthAdjust="spacing" textLength="17.1514" x="776.0513" y="535.4492">13</text><text fill="#000000" font-family="sans-serif" font-size="13" lengthAdjust="spacing" textLength="256.4009" x="797.2026" y="535.4492">createFigureCategory(name, description)</text><line style="stroke:#181818;stroke-width:1.0;stroke-dasharray:2.0,2.0;" x1="1774.418" x2="1816.418" y1="569.502" y2="569.502"/><line style="stroke:#181818;stroke-width:1.0;stroke-dasharray:2.0,2.0;" x1="1816.418" x2="1816.418" y1="569.502" y2="582.502"/><line style="stroke:#181818;stroke-width:1.0;stroke-dasharray:2.0,2.0;" x1="1775.418" x2="1816.418" y1="582.502" y2="582.502"/><polygon fill="#181818" points="1785.418,578.502,1775.418,582.502,1785.418,586.502,1781.418,582.502" style="stroke:#181818;stroke-width:1.0;"/><text fill="#000000" font-family="sans-serif" font-size="13" font-weight="bold" lengthAdjust="spacing" textLength="17.1514" x="1781.418" y="564.7598">14</text><text fill="#000000" font-family="sans-serif" font-size="13" lengthAdjust="spacing" textLength="76.54" x="1802.5693" y="564.7598">validations()</text><path d="M272.8623,597.502 L335.001,597.502 L335.001,604.8125 L325.001,614.8125 L272.8623,614.8125 L272.8623,597.502 " fill="#EEEEEE" style="stroke:#000000;stroke-width:1.5;"/><rect fill="none" height="207.4844" style="stroke:#000000;stroke-width:1.5;" width="1738.8125" x="272.8623" y="597.502"/><text fill="#000000" font-family="sans-serif" font-size="13" font-weight="bold" lengthAdjust="spacing" textLength="17.1387" x="287.8623" y="611.0703">alt</text><text fill="#000000" font-family="sans-serif" font-size="11" font-weight="bold" lengthAdjust="spacing" textLength="79.7876" x="350.001" y="610.1367">[invalid input]</text><polygon fill="#181818" points="780.0513,632.123,770.0513,636.123,780.0513,640.123,776.0513,636.123" style="stroke:#181818;stroke-width:1.0;"/><line style="stroke:#181818;stroke-width:1.0;stroke-dasharray:2.0,2.0;" x1="774.0513" x2="1763.418" y1="636.123" y2="636.123"/><text fill="#000000" font-family="sans-serif" font-size="13" font-weight="bold" lengthAdjust="spacing" textLength="17.1514" x="786.0513" y="631.3809">15</text><text fill="#000000" font-family="sans-serif" font-size="13" lengthAdjust="spacing" textLength="344.6523" x="807.2026" y="631.3809">error("Invalid or duplicate category name/description")</text><polygon fill="#181818" points="375.2476,661.4336,365.2476,665.4336,375.2476,669.4336,371.2476,665.4336" style="stroke:#181818;stroke-width:1.0;"/><line style="stroke:#181818;stroke-width:1.0;" x1="369.2476" x2="763.0513" y1="665.4336" y2="665.4336"/><text fill="#000000" font-family="sans-serif" font-size="13" font-weight="bold" lengthAdjust="spacing" textLength="17.1514" x="381.2476" y="660.6914">16</text><text fill="#000000" font-family="sans-serif" font-size="13" lengthAdjust="spacing" textLength="344.6523" x="402.3989" y="660.6914">error("Invalid or duplicate category name/description")</text><polygon fill="#181818" points="752.0513,690.7441,762.0513,694.7441,752.0513,698.7441,756.0513,694.7441" style="stroke:#181818;stroke-width:1.0;"/><line style="stroke:#181818;stroke-width:1.0;stroke-dasharray:2.0,2.0;" x1="364.2476" x2="758.0513" y1="694.7441" y2="694.7441"/><text fill="#000000" font-family="sans-serif" font-size="13" font-weight="bold" lengthAdjust="spacing" textLength="17.1514" x="371.2476" y="690.002">17</text><text fill="#000000" font-family="sans-serif" font-size="13" lengthAdjust="spacing" textLength="4.1133" x="392.3989" y="690.002">&#160;</text><line style="stroke:#000000;stroke-width:1.0;stroke-dasharray:2.0,2.0;" x1="272.8623" x2="2011.6748" y1="703.7441" y2="703.7441"/><text fill="#000000" font-family="sans-serif" font-size="11" font-weight="bold" lengthAdjust="spacing" textLength="68.9863" x="277.8623" y="714.3789">[valid input]</text><polygon fill="#181818" points="1867.9199,735.0098,1877.9199,739.0098,1867.9199,743.0098,1871.9199,739.0098" style="stroke:#181818;stroke-width:1.0;"/><line style="stroke:#181818;stroke-width:1.0;" x1="1774.418" x2="1873.9199" y1="739.0098" y2="739.0098"/><text fill="#000000" font-family="sans-serif" font-size="13" font-weight="bold" lengthAdjust="spacing" textLength="17.1514" x="1781.418" y="734.2676">18</text><text fill="#000000" font-family="sans-serif" font-size="13" lengthAdjust="spacing" textLength="38.5049" x="1802.5693" y="734.2676">create</text><rect fill="#E3E3E3" height="46.9766" rx="2.5" ry="2.5" style="stroke:#181818;stroke-width:0.5;" width="121.7549" x="1879.9199" y="717.6992"/><text fill="#000000" font-family="sans-serif" font-size="14" lengthAdjust="spacing" textLength="100.9668" x="1890.314" y="738.2344">figureCategory</text><text fill="#000000" font-family="sans-serif" font-size="14" lengthAdjust="spacing" textLength="107.7549" x="1886.9199" y="754.7227">:FigureCategory</text><polygon fill="#181818" points="780.0513,792.9863,770.0513,796.9863,780.0513,800.9863,776.0513,796.9863" style="stroke:#181818;stroke-width:1.0;"/><line style="stroke:#181818;stroke-width:1.0;stroke-dasharray:2.0,2.0;" x1="774.0513" x2="1763.418" y1="796.9863" y2="796.9863"/><text fill="#000000" font-family="sans-serif" font-size="13" font-weight="bold" lengthAdjust="spacing" textLength="17.1514" x="786.0513" y="792.2441">19</text><text fill="#000000" font-family="sans-serif" font-size="13" lengthAdjust="spacing" textLength="134.7544" x="807.2026" y="792.2441">figureCategoryObject</text><polygon fill="#181818" points="2454.3174,829.2969,2464.3174,833.2969,2454.3174,837.2969,2458.3174,833.2969" style="stroke:#181818;stroke-width:1.0;"/><line style="stroke:#181818;stroke-width:1.0;" x1="769.0513" x2="2460.3174" y1="833.2969" y2="833.2969"/><text fill="#000000" font-family="sans-serif" font-size="13" font-weight="bold" lengthAdjust="spacing" textLength="17.1514" x="776.0513" y="828.5547">20</text><text fill="#000000" font-family="sans-serif" font-size="13" lengthAdjust="spacing" textLength="128.0322" x="797.2026" y="828.5547">getCurrentMoment()</text><rect fill="#E3E3E3" height="46.9766" rx="2.5" ry="2.5" style="stroke:#181818;stroke-width:0.5;" width="118.4668" x="2466.3174" y="811.9863"/><text fill="#000000" font-family="sans-serif" font-size="14" lengthAdjust="spacing" textLength="96.6191" x="2477.2412" y="832.5215">localDateTime</text><text fill="#000000" font-family="sans-serif" font-size="14" lengthAdjust="spacing" textLength="104.4668" x="2473.3174" y="849.0098">:LocalDateTime</text><polygon fill="#181818" points="780.0513,887.2734,770.0513,891.2734,780.0513,895.2734,776.0513,891.2734" style="stroke:#181818;stroke-width:1.0;"/><line style="stroke:#181818;stroke-width:1.0;stroke-dasharray:2.0,2.0;" x1="774.0513" x2="2524.5508" y1="891.2734" y2="891.2734"/><text fill="#000000" font-family="sans-serif" font-size="13" font-weight="bold" lengthAdjust="spacing" textLength="17.1514" x="786.0513" y="886.5313">21</text><text fill="#000000" font-family="sans-serif" font-size="13" lengthAdjust="spacing" textLength="64.854" x="807.2026" y="886.5313">createdOn</text><polygon fill="#181818" points="2081.4092,916.584,2091.4092,920.584,2081.4092,924.584,2085.4092,920.584" style="stroke:#181818;stroke-width:1.0;"/><line style="stroke:#181818;stroke-width:1.0;" x1="769.0513" x2="2087.4092" y1="920.584" y2="920.584"/><text fill="#000000" font-family="sans-serif" font-size="13" font-weight="bold" lengthAdjust="spacing" textLength="17.1514" x="776.0513" y="915.8418">22</text><text fill="#000000" font-family="sans-serif" font-size="13" lengthAdjust="spacing" textLength="166.7529" x="797.2026" y="915.8418">add(figureCategoryObject)</text><polygon fill="#181818" points="780.0513,945.8945,770.0513,949.8945,780.0513,953.8945,776.0513,949.8945" style="stroke:#181818;stroke-width:1.0;"/><line style="stroke:#181818;stroke-width:1.0;stroke-dasharray:2.0,2.0;" x1="774.0513" x2="2097.4092" y1="949.8945" y2="949.8945"/><text fill="#000000" font-family="sans-serif" font-size="13" font-weight="bold" lengthAdjust="spacing" textLength="17.1514" x="786.0513" y="945.1523">23</text><text fill="#000000" font-family="sans-serif" font-size="13" lengthAdjust="spacing" textLength="80.5581" x="807.2026" y="945.1523">confirmation</text><polygon fill="#181818" points="2308.7305,975.2051,2318.7305,979.2051,2308.7305,983.2051,2312.7305,979.2051" style="stroke:#181818;stroke-width:1.0;"/><line style="stroke:#181818;stroke-width:1.0;" x1="769.0513" x2="2314.7305" y1="979.2051" y2="979.2051"/><text fill="#000000" font-family="sans-serif" font-size="13" font-weight="bold" lengthAdjust="spacing" textLength="17.1514" x="776.0513" y="974.4629">24</text><text fill="#000000" font-family="sans-serif" font-size="13" lengthAdjust="spacing" textLength="166.7529" x="797.2026" y="974.4629">add(figureCategoryObject)</text><polygon fill="#181818" points="780.0513,1004.5156,770.0513,1008.5156,780.0513,1012.5156,776.0513,1008.5156" style="stroke:#181818;stroke-width:1.0;"/><line style="stroke:#181818;stroke-width:1.0;stroke-dasharray:2.0,2.0;" x1="774.0513" x2="2324.7305" y1="1008.5156" y2="1008.5156"/><text fill="#000000" font-family="sans-serif" font-size="13" font-weight="bold" lengthAdjust="spacing" textLength="17.1514" x="786.0513" y="1003.7734">25</text><text fill="#000000" font-family="sans-serif" font-size="13" lengthAdjust="spacing" textLength="80.5581" x="807.2026" y="1003.7734">confirmation</text><polygon fill="#181818" points="375.2476,1033.8262,365.2476,1037.8262,375.2476,1041.8262,371.2476,1037.8262" style="stroke:#181818;stroke-width:1.0;"/><line style="stroke:#181818;stroke-width:1.0;" x1="369.2476" x2="763.0513" y1="1037.8262" y2="1037.8262"/><text fill="#000000" font-family="sans-serif" font-size="13" font-weight="bold" lengthAdjust="spacing" textLength="17.1514" x="381.2476" y="1033.084">26</text><text fill="#000000" font-family="sans-serif" font-size="13" lengthAdjust="spacing" textLength="134.7544" x="402.3989" y="1033.084">figureCategoryObject</text><polygon fill="#181818" points="69.2305,1063.1367,59.2305,1067.1367,69.2305,1071.1367,65.2305,1067.1367" style="stroke:#181818;stroke-width:1.0;"/><line style="stroke:#181818;stroke-width:1.0;" x1="63.2305" x2="363.2476" y1="1067.1367" y2="1067.1367"/><text fill="#000000" font-family="sans-serif" font-size="13" font-weight="bold" lengthAdjust="spacing" textLength="17.1514" x="75.2305" y="1062.3945">27</text><text fill="#000000" font-family="sans-serif" font-size="13" lengthAdjust="spacing" textLength="176.9219" x="96.3818" y="1062.3945">shows operation (in)success</text><!--SRC=[hLPDRzim3BtxLmWv9S62tNCeK2GOuA55WwQzxQBAZAl5bZn9Rf5_Fqh-Y6JBRWRCbqGK-VX4yz7IPouggcX9IYaaUrUo169K3OdkTohApZI7exaKG1GmGqLU-0xwdMRoaukSd6YX8KaCD-Zwcf8Z_Ab1C21xJdFhkZmUzoko8VTPHdxml5P0TjH0BjKbIMXjfAZBDr3udncfoEBuBZ_97ZJF1QW5eHgJoS_Ea61-mnclg31aiKNG1hE3V4rTo6lwbUDE2gDaKRGvTY_F3s78QSBzbzZE8Z5gTaOLW_pFK4dDyO0Sj7Fh3PSZjyN5EeGXoel0d2E0myFzonpZQu8Hu-jMnzXQaW6QUn-NWv8VF6kE7LfShFMoXZacRLnQLiM8YhVNSR4ckvw37E4qP0BJNFpFmtsKJcllgE0oHE7Y4KfBUxhKwHSk7JPw3IfUI4QBFGQyy18GwS5Vkp3dOLTEBVm3zq9r90GVtq8sTrQLMum-4oC9HHNIaGvjL0-8sd463CFW0Ao1EQ5CMHjACceeMGfQmZUIWMQALuPBiPfcKZNzeqCCFwSLutgDham1-YGXFoTLPxAFNNKn6963cIhySjK7JM3vU15zDl2fq3WE6NXm0MHCs86dVMBec_OKM-9BFmZDuFOqtK7idBYvCC59t8GPKNTuLwvJGsUAjmCTyxo-mKd0988MxuLkACMEtGwSM3FqiopWruDv75a85cCs1klOUIEkR_6GuvIS0hR-fFJv-l2RKReFMd2K6qBguMil3E72xUDlLPlHcnyYjyK0fQHQBj8s5eT3LbS5Pot9HkBsHD-z0orM8_YkFcv8_2_GOQ_CxEFSczaDnkpGJu6fbGZCWDSYSdCrxmPjlrw7m- -6rn02FBtznclRA7Pcy878OdtijzcebVllaPlMgBLThHG8yuXtIc5Y6lE-O7xotXoep1KWUn8nNX4WJs3uuROVgonRnigo-kgWCR7Pky1GQ3QDJrYA4rUbazT4YW358uotWPi8-rZk1Z5WP77-ZL604cXmigEY0pXwNR1BJMG5ob4WIovMkcOCj4wIK7jJMliB]--></g></svg>