<svg xmlns="http://www.w3.org/2000/svg" xmlns:xlink="http://www.w3.org/1999/xlink" contentStyleType="text/css" height="989px" preserveAspectRatio="none" style="width:2356px;height:989px;background:#FFFFFF;" version="1.1" viewBox="0 0 2356 989" width="2356px" zoomAndPan="magnify"><title>UI Sequence Diagram (SSD) - Add Figure Category</title><defs/><g><text fill="#000000" font-family="sans-serif" font-size="14" font-weight="bold" lengthAdjust="spacing" textLength="361.915" x="996.4451" y="28.5352">UI Sequence Diagram (SSD) - Add Figure Category</text><rect fill="#FFFFFF" height="769.9414" style="stroke:#181818;stroke-width:1.0;" width="10" x="68.2305" y="128.9766"/><rect fill="#FFFFFF" height="748.6309" style="stroke:#181818;stroke-width:1.0;" width="10" x="559.0742" y="150.2871"/><rect fill="#FFFFFF" height="31.4883" style="stroke:#181818;stroke-width:1.0;" width="10" x="801.3018" y="189.5977"/><rect fill="#FFFFFF" height="31.4883" style="stroke:#181818;stroke-width:1.0;" width="10" x="883.6499" y="260.3965"/><rect fill="#FFFFFF" height="423.3477" style="stroke:#181818;stroke-width:1.0;" width="10" x="1072.6616" y="362.6836"/><rect fill="#FFFFFF" height="47.9766" style="stroke:#181818;stroke-width:1.0;" width="10" x="1365.1245" y="460.6152"/><rect fill="#FFFFFF" height="71.6211" style="stroke:#181818;stroke-width:1.0;" width="10" x="1780.5049" y="562.2129"/><rect fill="#FFFFFF" height="71.6211" style="stroke:#181818;stroke-width:1.0;" width="10" x="2034.0776" y="678.0996"/><rect fill="#FFFFFF" height="29.3105" style="stroke:#181818;stroke-width:1.0;" width="10" x="2287.1426" y="391.9941"/><rect fill="none" height="234.1289" style="stroke:#000000;stroke-width:1.5;" width="1333.0801" x="959.0625" y="523.5918"/><rect fill="none" height="90.8867" style="stroke:#000000;stroke-width:1.5;" width="645.4595" x="10" y="801.0313"/><line style="stroke:#181818;stroke-width:0.5;stroke-dasharray:5.0,5.0;" x1="73" x2="73" y1="118.9766" y2="908.918"/><line style="stroke:#181818;stroke-width:0.5;stroke-dasharray:5.0,5.0;" x1="563.689" x2="563.689" y1="118.9766" y2="908.918"/><line style="stroke:#181818;stroke-width:0.5;stroke-dasharray:5.0,5.0;" x1="805.8296" x2="805.8296" y1="189.0313" y2="908.918"/><line style="stroke:#181818;stroke-width:0.5;stroke-dasharray:5.0,5.0;" x1="887.7739" x2="887.7739" y1="259.8301" y2="908.918"/><line style="stroke:#181818;stroke-width:0.5;stroke-dasharray:5.0,5.0;" x1="1077.0625" x2="1077.0625" y1="330.6289" y2="908.918"/><line style="stroke:#181818;stroke-width:0.5;stroke-dasharray:5.0,5.0;" x1="1369.9971" x2="1369.9971" y1="468.293" y2="908.918"/><line style="stroke:#181818;stroke-width:0.5;stroke-dasharray:5.0,5.0;" x1="1549.252" x2="1549.252" y1="118.9766" y2="908.918"/><line style="stroke:#181818;stroke-width:0.5;stroke-dasharray:5.0,5.0;" x1="1785.1328" x2="1785.1328" y1="118.9766" y2="908.918"/><line style="stroke:#181818;stroke-width:0.5;stroke-dasharray:5.0,5.0;" x1="2038.5581" x2="2038.5581" y1="118.9766" y2="908.918"/><line style="stroke:#181818;stroke-width:0.5;stroke-dasharray:5.0,5.0;" x1="2291.48" x2="2291.48" y1="118.9766" y2="908.918"/><text fill="#000000" font-family="sans-serif" font-size="14" lengthAdjust="spacing" textLength="100.4609" x="20" y="116.0234">Show Designer</text><ellipse cx="73.2305" cy="50.9883" fill="#E3E3E3" rx="8" ry="8" style="stroke:#181818;stroke-width:0.5;"/><path d="M73.2305,58.9883 L73.2305,85.9883 M60.2305,66.9883 L86.2305,66.9883 M73.2305,85.9883 L60.2305,100.9883 M73.2305,85.9883 L86.2305,100.9883 " fill="none" style="stroke:#181818;stroke-width:0.5;"/><text fill="#000000" font-family="sans-serif" font-size="14" lengthAdjust="spacing" textLength="100.4609" x="20" y="921.4531">Show Designer</text><ellipse cx="73.2305" cy="932.9063" fill="#E3E3E3" rx="8" ry="8" style="stroke:#181818;stroke-width:0.5;"/><path d="M73.2305,940.9063 L73.2305,967.9063 M60.2305,948.9063 L86.2305,948.9063 M73.2305,967.9063 L60.2305,982.9063 M73.2305,967.9063 L86.2305,982.9063 " fill="none" style="stroke:#181818;stroke-width:0.5;"/><rect fill="#E3E3E3" height="30.4883" rx="2.5" ry="2.5" style="stroke:#181818;stroke-width:0.5;" width="162.7705" x="482.689" y="87.4883"/><text fill="#000000" font-family="sans-serif" font-size="14" lengthAdjust="spacing" textLength="148.7705" x="489.689" y="108.0234">:AddFigureCategoryUI</text><rect fill="#E3E3E3" height="30.4883" rx="2.5" ry="2.5" style="stroke:#181818;stroke-width:0.5;" width="162.7705" x="482.689" y="907.918"/><text fill="#000000" font-family="sans-serif" font-size="14" lengthAdjust="spacing" textLength="148.7705" x="489.689" y="928.4531">:AddFigureCategoryUI</text><rect fill="#E3E3E3" height="30.4883" rx="2.5" ry="2.5" style="stroke:#181818;stroke-width:0.5;" width="52.9443" x="779.8296" y="907.918"/><text fill="#000000" font-family="sans-serif" font-size="14" lengthAdjust="spacing" textLength="38.9443" x="786.8296" y="928.4531">Name</text><rect fill="#E3E3E3" height="30.4883" rx="2.5" ry="2.5" style="stroke:#181818;stroke-width:0.5;" width="91.752" x="842.7739" y="907.918"/><text fill="#000000" font-family="sans-serif" font-size="14" lengthAdjust="spacing" textLength="77.752" x="849.7739" y="928.4531">Description</text><rect fill="#E3E3E3" height="30.4883" rx="2.5" ry="2.5" style="stroke:#181818;stroke-width:0.5;" width="217.1982" x="969.0625" y="907.918"/><text fill="#000000" font-family="sans-serif" font-size="14" lengthAdjust="spacing" textLength="203.1982" x="976.0625" y="928.4531">:AddFigureCategoryController</text><rect fill="#E3E3E3" height="46.9766" rx="2.5" ry="2.5" style="stroke:#181818;stroke-width:0.5;" width="146.2549" x="1296.9971" y="907.918"/><text fill="#000000" font-family="sans-serif" font-size="14" lengthAdjust="spacing" textLength="124.7012" x="1307.7739" y="928.4531">repositoryProvider</text><text fill="#000000" font-family="sans-serif" font-size="14" lengthAdjust="spacing" textLength="132.2549" x="1303.9971" y="944.9414">:RepositoryProvider</text><rect fill="#E3E3E3" height="46.9766" rx="2.5" ry="2.5" style="stroke:#181818;stroke-width:0.5;" width="193.8809" x="1453.252" y="71"/><text fill="#000000" font-family="sans-serif" font-size="14" lengthAdjust="spacing" textLength="175.4512" x="1462.4668" y="91.5352">FigureCategoryRepository</text><text fill="#000000" font-family="sans-serif" font-size="14" lengthAdjust="spacing" textLength="179.8809" x="1460.252" y="108.0234">:FigureCategoryRepository</text><rect fill="#E3E3E3" height="46.9766" rx="2.5" ry="2.5" style="stroke:#181818;stroke-width:0.5;" width="193.8809" x="1453.252" y="907.918"/><text fill="#000000" font-family="sans-serif" font-size="14" lengthAdjust="spacing" textLength="175.4512" x="1462.4668" y="928.4531">FigureCategoryRepository</text><text fill="#000000" font-family="sans-serif" font-size="14" lengthAdjust="spacing" textLength="179.8809" x="1460.252" y="944.9414">:FigureCategoryRepository</text><rect fill="#E3E3E3" height="30.4883" rx="2.5" ry="2.5" style="stroke:#181818;stroke-width:0.5;" width="256.7441" x="1657.1328" y="87.4883"/><text fill="#000000" font-family="sans-serif" font-size="14" lengthAdjust="spacing" textLength="242.7441" x="1664.1328" y="108.0234">InMemoryFigureCategoryRepository</text><rect fill="#E3E3E3" height="30.4883" rx="2.5" ry="2.5" style="stroke:#181818;stroke-width:0.5;" width="256.7441" x="1657.1328" y="907.918"/><text fill="#000000" font-family="sans-serif" font-size="14" lengthAdjust="spacing" textLength="242.7441" x="1664.1328" y="928.4531">InMemoryFigureCategoryRepository</text><rect fill="#E3E3E3" height="30.4883" rx="2.5" ry="2.5" style="stroke:#181818;stroke-width:0.5;" width="169.0391" x="1954.5581" y="87.4883"/><text fill="#000000" font-family="sans-serif" font-size="14" lengthAdjust="spacing" textLength="155.0391" x="1961.5581" y="108.0234">FigureCategoryJPAImpl</text><rect fill="#E3E3E3" height="30.4883" rx="2.5" ry="2.5" style="stroke:#181818;stroke-width:0.5;" width="169.0391" x="1954.5581" y="907.918"/><text fill="#000000" font-family="sans-serif" font-size="14" lengthAdjust="spacing" textLength="155.0391" x="1961.5581" y="928.4531">FigureCategoryJPAImpl</text><rect fill="#E3E3E3" height="30.4883" rx="2.5" ry="2.5" style="stroke:#181818;stroke-width:0.5;" width="117.3252" x="2233.48" y="87.4883"/><text fill="#000000" font-family="sans-serif" font-size="14" lengthAdjust="spacing" textLength="103.3252" x="2240.48" y="108.0234">FigureCategory</text><rect fill="#E3E3E3" height="30.4883" rx="2.5" ry="2.5" style="stroke:#181818;stroke-width:0.5;" width="117.3252" x="2233.48" y="907.918"/><text fill="#000000" font-family="sans-serif" font-size="14" lengthAdjust="spacing" textLength="103.3252" x="2240.48" y="928.4531">FigureCategory</text><rect fill="#FFFFFF" height="769.9414" style="stroke:#181818;stroke-width:1.0;" width="10" x="68.2305" y="128.9766"/><rect fill="#FFFFFF" height="748.6309" style="stroke:#181818;stroke-width:1.0;" width="10" x="559.0742" y="150.2871"/><rect fill="#FFFFFF" height="31.4883" style="stroke:#181818;stroke-width:1.0;" width="10" x="801.3018" y="189.5977"/><rect fill="#FFFFFF" height="31.4883" style="stroke:#181818;stroke-width:1.0;" width="10" x="883.6499" y="260.3965"/><rect fill="#FFFFFF" height="423.3477" style="stroke:#181818;stroke-width:1.0;" width="10" x="1072.6616" y="362.6836"/><rect fill="#FFFFFF" height="47.9766" style="stroke:#181818;stroke-width:1.0;" width="10" x="1365.1245" y="460.6152"/><rect fill="#FFFFFF" height="71.6211" style="stroke:#181818;stroke-width:1.0;" width="10" x="1780.5049" y="562.2129"/><rect fill="#FFFFFF" height="71.6211" style="stroke:#181818;stroke-width:1.0;" width="10" x="2034.0776" y="678.0996"/><rect fill="#FFFFFF" height="29.3105" style="stroke:#181818;stroke-width:1.0;" width="10" x="2287.1426" y="391.9941"/><polygon fill="#181818" points="547.0742,146.2871,557.0742,150.2871,547.0742,154.2871,551.0742,150.2871" style="stroke:#181818;stroke-width:1.0;"/><line style="stroke:#181818;stroke-width:1.0;" x1="78.2305" x2="553.0742" y1="150.2871" y2="150.2871"/><text fill="#000000" font-family="sans-serif" font-size="13" font-weight="bold" lengthAdjust="spacing" textLength="8.5757" x="85.2305" y="145.5449">1</text><text fill="#000000" font-family="sans-serif" font-size="13" lengthAdjust="spacing" textLength="449.2681" x="97.8062" y="145.5449">requests to add a new Figure Category with valid name and description</text><polygon fill="#181818" points="767.8296,175.5977,777.8296,179.5977,767.8296,183.5977,771.8296,179.5977" style="stroke:#181818;stroke-width:1.0;"/><line style="stroke:#181818;stroke-width:1.0;" x1="569.0742" x2="773.8296" y1="179.5977" y2="179.5977"/><text fill="#000000" font-family="sans-serif" font-size="13" font-weight="bold" lengthAdjust="spacing" textLength="8.5757" x="576.0742" y="174.8555">2</text><text fill="#000000" font-family="sans-serif" font-size="13" lengthAdjust="spacing" textLength="174.1797" x="588.6499" y="174.8555">Utils.rePromptWhileInvalid()</text><rect fill="#E3E3E3" height="30.4883" rx="2.5" ry="2.5" style="stroke:#181818;stroke-width:0.5;" width="52.9443" x="779.8296" y="158.2871"/><text fill="#000000" font-family="sans-serif" font-size="14" lengthAdjust="spacing" textLength="38.9443" x="786.8296" y="178.8223">Name</text><polygon fill="#181818" points="580.0742,217.0859,570.0742,221.0859,580.0742,225.0859,576.0742,221.0859" style="stroke:#181818;stroke-width:1.0;"/><line style="stroke:#181818;stroke-width:1.0;" x1="574.0742" x2="805.3018" y1="221.0859" y2="221.0859"/><text fill="#000000" font-family="sans-serif" font-size="13" font-weight="bold" lengthAdjust="spacing" textLength="8.5757" x="586.0742" y="216.3438">3</text><text fill="#000000" font-family="sans-serif" font-size="13" lengthAdjust="spacing" textLength="34.6265" x="598.6499" y="216.3438">name</text><polygon fill="#181818" points="830.7739,246.3965,840.7739,250.3965,830.7739,254.3965,834.7739,250.3965" style="stroke:#181818;stroke-width:1.0;"/><line style="stroke:#181818;stroke-width:1.0;" x1="569.0742" x2="836.7739" y1="250.3965" y2="250.3965"/><text fill="#000000" font-family="sans-serif" font-size="13" font-weight="bold" lengthAdjust="spacing" textLength="8.5757" x="576.0742" y="245.6543">4</text><text fill="#000000" font-family="sans-serif" font-size="13" lengthAdjust="spacing" textLength="174.1797" x="588.6499" y="245.6543">Utils.rePromptWhileInvalid()</text><rect fill="#E3E3E3" height="30.4883" rx="2.5" ry="2.5" style="stroke:#181818;stroke-width:0.5;" width="91.752" x="842.7739" y="229.0859"/><text fill="#000000" font-family="sans-serif" font-size="14" lengthAdjust="spacing" textLength="77.752" x="849.7739" y="249.6211">Description</text><polygon fill="#181818" points="580.0742,287.8848,570.0742,291.8848,580.0742,295.8848,576.0742,291.8848" style="stroke:#181818;stroke-width:1.0;"/><line style="stroke:#181818;stroke-width:1.0;" x1="574.0742" x2="887.6499" y1="291.8848" y2="291.8848"/><text fill="#000000" font-family="sans-serif" font-size="13" font-weight="bold" lengthAdjust="spacing" textLength="8.5757" x="586.0742" y="287.1426">5</text><text fill="#000000" font-family="sans-serif" font-size="13" lengthAdjust="spacing" textLength="70.6431" x="598.6499" y="287.1426">description</text><polygon fill="#181818" points="957.0625,317.1953,967.0625,321.1953,957.0625,325.1953,961.0625,321.1953" style="stroke:#181818;stroke-width:1.0;"/><line style="stroke:#181818;stroke-width:1.0;" x1="569.0742" x2="963.0625" y1="321.1953" y2="321.1953"/><text fill="#000000" font-family="sans-serif" font-size="13" font-weight="bold" lengthAdjust="spacing" textLength="8.5757" x="576.0742" y="316.4531">6</text><text fill="#000000" font-family="sans-serif" font-size="13" lengthAdjust="spacing" textLength="38.5049" x="588.6499" y="316.4531">create</text><rect fill="#E3E3E3" height="30.4883" rx="2.5" ry="2.5" style="stroke:#181818;stroke-width:0.5;" width="217.1982" x="969.0625" y="299.8848"/><text fill="#000000" font-family="sans-serif" font-size="14" lengthAdjust="spacing" textLength="203.1982" x="976.0625" y="320.4199">:AddFigureCategoryController</text><polygon fill="#181818" points="1060.6616,358.6836,1070.6616,362.6836,1060.6616,366.6836,1064.6616,362.6836" style="stroke:#181818;stroke-width:1.0;"/><line style="stroke:#181818;stroke-width:1.0;" x1="569.0742" x2="1066.6616" y1="362.6836" y2="362.6836"/><text fill="#000000" font-family="sans-serif" font-size="13" font-weight="bold" lengthAdjust="spacing" textLength="8.5757" x="576.0742" y="357.9414">7</text><text fill="#000000" font-family="sans-serif" font-size="13" lengthAdjust="spacing" textLength="472.0117" x="588.6499" y="357.9414">addFigureCategoryWithNameAndDescription(name, description, createdBy)</text><polygon fill="#181818" points="2275.1426,387.9941,2285.1426,391.9941,2275.1426,395.9941,2279.1426,391.9941" style="stroke:#181818;stroke-width:1.0;"/><line style="stroke:#181818;stroke-width:1.0;" x1="1082.6616" x2="2281.1426" y1="391.9941" y2="391.9941"/><text fill="#000000" font-family="sans-serif" font-size="13" font-weight="bold" lengthAdjust="spacing" textLength="8.5757" x="1089.6616" y="387.252">8</text><text fill="#000000" font-family="sans-serif" font-size="13" lengthAdjust="spacing" textLength="316.5195" x="1102.2373" y="387.252">new FigureCategory(name, description, createdBy)</text><polygon fill="#181818" points="1093.6616,417.3047,1083.6616,421.3047,1093.6616,425.3047,1089.6616,421.3047" style="stroke:#181818;stroke-width:1.0;"/><line style="stroke:#181818;stroke-width:1.0;stroke-dasharray:2.0,2.0;" x1="1087.6616" x2="2291.1426" y1="421.3047" y2="421.3047"/><text fill="#000000" font-family="sans-serif" font-size="13" font-weight="bold" lengthAdjust="spacing" textLength="8.5757" x="1099.6616" y="416.5625">9</text><text fill="#000000" font-family="sans-serif" font-size="13" lengthAdjust="spacing" textLength="152.5215" x="1112.2373" y="416.5625">FigureCategory instance</text><polygon fill="#181818" points="1284.9971,446.6152,1294.9971,450.6152,1284.9971,454.6152,1288.9971,450.6152" style="stroke:#181818;stroke-width:1.0;"/><line style="stroke:#181818;stroke-width:1.0;" x1="1082.6616" x2="1290.9971" y1="450.6152" y2="450.6152"/><text fill="#000000" font-family="sans-serif" font-size="13" font-weight="bold" lengthAdjust="spacing" textLength="17.1514" x="1089.6616" y="445.873">10</text><text fill="#000000" font-family="sans-serif" font-size="13" lengthAdjust="spacing" textLength="169.1841" x="1110.813" y="445.873">figureCategoryRepository()</text><rect fill="#E3E3E3" height="46.9766" rx="2.5" ry="2.5" style="stroke:#181818;stroke-width:0.5;" width="146.2549" x="1296.9971" y="429.3047"/><text fill="#000000" font-family="sans-serif" font-size="14" lengthAdjust="spacing" textLength="124.7012" x="1307.7739" y="449.8398">repositoryProvider</text><text fill="#000000" font-family="sans-serif" font-size="14" lengthAdjust="spacing" textLength="132.2549" x="1303.9971" y="466.3281">:RepositoryProvider</text><polygon fill="#181818" points="1093.6616,504.5918,1083.6616,508.5918,1093.6616,512.5918,1089.6616,508.5918" style="stroke:#181818;stroke-width:1.0;"/><line style="stroke:#181818;stroke-width:1.0;stroke-dasharray:2.0,2.0;" x1="1087.6616" x2="1369.1245" y1="508.5918" y2="508.5918"/><text fill="#000000" font-family="sans-serif" font-size="13" font-weight="bold" lengthAdjust="spacing" textLength="17.1514" x="1099.6616" y="503.8496">11</text><text fill="#000000" font-family="sans-serif" font-size="13" lengthAdjust="spacing" textLength="220.8921" x="1120.813" y="503.8496">repository (dynamic: inMem or jpa)</text><path d="M959.0625,523.5918 L1021.2012,523.5918 L1021.2012,530.9023 L1011.2012,540.9023 L959.0625,540.9023 L959.0625,523.5918 " fill="#EEEEEE" style="stroke:#000000;stroke-width:1.5;"/><rect fill="none" height="234.1289" style="stroke:#000000;stroke-width:1.5;" width="1333.0801" x="959.0625" y="523.5918"/><text fill="#000000" font-family="sans-serif" font-size="13" font-weight="bold" lengthAdjust="spacing" textLength="17.1387" x="974.0625" y="537.1602">alt</text><text fill="#000000" font-family="sans-serif" font-size="11" font-weight="bold" lengthAdjust="spacing" textLength="290.415" x="1036.2012" y="536.2266">[Repository is InMemoryFigureCategoryRepository]</text><polygon fill="#181818" points="1768.5049,558.2129,1778.5049,562.2129,1768.5049,566.2129,1772.5049,562.2129" style="stroke:#181818;stroke-width:1.0;"/><line style="stroke:#181818;stroke-width:1.0;" x1="1082.6616" x2="1774.5049" y1="562.2129" y2="562.2129"/><text fill="#000000" font-family="sans-serif" font-size="13" font-weight="bold" lengthAdjust="spacing" textLength="17.1514" x="1089.6616" y="557.4707">12</text><text fill="#000000" font-family="sans-serif" font-size="13" lengthAdjust="spacing" textLength="90.3779" x="1110.813" y="557.4707">save(category)</text><line style="stroke:#181818;stroke-width:1.0;" x1="1790.5049" x2="1832.5049" y1="591.5234" y2="591.5234"/><line style="stroke:#181818;stroke-width:1.0;" x1="1832.5049" x2="1832.5049" y1="591.5234" y2="604.5234"/><line style="stroke:#181818;stroke-width:1.0;" x1="1791.5049" x2="1832.5049" y1="604.5234" y2="604.5234"/><polygon fill="#181818" points="1801.5049,600.5234,1791.5049,604.5234,1801.5049,608.5234,1797.5049,604.5234" style="stroke:#181818;stroke-width:1.0;"/><text fill="#000000" font-family="sans-serif" font-size="13" font-weight="bold" lengthAdjust="spacing" textLength="17.1514" x="1797.5049" y="586.7813">13</text><text fill="#000000" font-family="sans-serif" font-size="13" lengthAdjust="spacing" textLength="198.4214" x="1818.6563" y="586.7813">containsKey(category.identity())</text><polygon fill="#181818" points="1093.6616,629.834,1083.6616,633.834,1093.6616,637.834,1089.6616,633.834" style="stroke:#181818;stroke-width:1.0;"/><line style="stroke:#181818;stroke-width:1.0;stroke-dasharray:2.0,2.0;" x1="1087.6616" x2="1784.5049" y1="633.834" y2="633.834"/><text fill="#000000" font-family="sans-serif" font-size="13" font-weight="bold" lengthAdjust="spacing" textLength="17.1514" x="1099.6616" y="629.0918">14</text><text fill="#000000" font-family="sans-serif" font-size="13" lengthAdjust="spacing" textLength="170.5044" x="1120.813" y="629.0918">Optional&lt;FigureCategory&gt;</text><line style="stroke:#000000;stroke-width:1.0;stroke-dasharray:2.0,2.0;" x1="959.0625" x2="2292.1426" y1="642.834" y2="642.834"/><text fill="#000000" font-family="sans-serif" font-size="11" font-weight="bold" lengthAdjust="spacing" textLength="217.5938" x="964.0625" y="653.4688">[Repository is FigureCategoryJPAImpl]</text><polygon fill="#181818" points="2022.0776,674.0996,2032.0776,678.0996,2022.0776,682.0996,2026.0776,678.0996" style="stroke:#181818;stroke-width:1.0;"/><line style="stroke:#181818;stroke-width:1.0;" x1="1082.6616" x2="2028.0776" y1="678.0996" y2="678.0996"/><text fill="#000000" font-family="sans-serif" font-size="13" font-weight="bold" lengthAdjust="spacing" textLength="17.1514" x="1089.6616" y="673.3574">15</text><text fill="#000000" font-family="sans-serif" font-size="13" lengthAdjust="spacing" textLength="90.3779" x="1110.813" y="673.3574">save(category)</text><line style="stroke:#181818;stroke-width:1.0;" x1="2044.0776" x2="2086.0776" y1="707.4102" y2="707.4102"/><line style="stroke:#181818;stroke-width:1.0;" x1="2086.0776" x2="2086.0776" y1="707.4102" y2="720.4102"/><line style="stroke:#181818;stroke-width:1.0;" x1="2045.0776" x2="2086.0776" y1="720.4102" y2="720.4102"/><polygon fill="#181818" points="2055.0776,716.4102,2045.0776,720.4102,2055.0776,724.4102,2051.0776,720.4102" style="stroke:#181818;stroke-width:1.0;"/><text fill="#000000" font-family="sans-serif" font-size="13" font-weight="bold" lengthAdjust="spacing" textLength="17.1514" x="2051.0776" y="702.668">16</text><text fill="#000000" font-family="sans-serif" font-size="13" lengthAdjust="spacing" textLength="197.9136" x="2072.229" y="702.668">findByName(category.identity())</text><polygon fill="#181818" points="1093.6616,745.7207,1083.6616,749.7207,1093.6616,753.7207,1089.6616,749.7207" style="stroke:#181818;stroke-width:1.0;"/><line style="stroke:#181818;stroke-width:1.0;stroke-dasharray:2.0,2.0;" x1="1087.6616" x2="2038.0776" y1="749.7207" y2="749.7207"/><text fill="#000000" font-family="sans-serif" font-size="13" font-weight="bold" lengthAdjust="spacing" textLength="17.1514" x="1099.6616" y="744.9785">17</text><text fill="#000000" font-family="sans-serif" font-size="13" lengthAdjust="spacing" textLength="170.5044" x="1120.813" y="744.9785">Optional&lt;FigureCategory&gt;</text><polygon fill="#181818" points="580.0742,782.0313,570.0742,786.0313,580.0742,790.0313,576.0742,786.0313" style="stroke:#181818;stroke-width:1.0;"/><line style="stroke:#181818;stroke-width:1.0;stroke-dasharray:2.0,2.0;" x1="574.0742" x2="1076.6616" y1="786.0313" y2="786.0313"/><text fill="#000000" font-family="sans-serif" font-size="13" font-weight="bold" lengthAdjust="spacing" textLength="17.1514" x="586.0742" y="781.2891">18</text><text fill="#000000" font-family="sans-serif" font-size="13" lengthAdjust="spacing" textLength="170.5044" x="607.2256" y="781.2891">Optional&lt;FigureCategory&gt;</text><path d="M10,801.0313 L72.1387,801.0313 L72.1387,808.3418 L62.1387,818.3418 L10,818.3418 L10,801.0313 " fill="#EEEEEE" style="stroke:#000000;stroke-width:1.5;"/><rect fill="none" height="90.8867" style="stroke:#000000;stroke-width:1.5;" width="645.4595" x="10" y="801.0313"/><text fill="#000000" font-family="sans-serif" font-size="13" font-weight="bold" lengthAdjust="spacing" textLength="17.1387" x="25" y="814.5996">alt</text><text fill="#000000" font-family="sans-serif" font-size="11" font-weight="bold" lengthAdjust="spacing" textLength="168.6416" x="87.1387" y="813.666">[Category saved successfully]</text><polygon fill="#181818" points="89.2305,835.6523,79.2305,839.6523,89.2305,843.6523,85.2305,839.6523" style="stroke:#181818;stroke-width:1.0;"/><line style="stroke:#181818;stroke-width:1.0;stroke-dasharray:2.0,2.0;" x1="83.2305" x2="558.0742" y1="839.6523" y2="839.6523"/><text fill="#000000" font-family="sans-serif" font-size="13" font-weight="bold" lengthAdjust="spacing" textLength="17.1514" x="95.2305" y="834.9102">19</text><text fill="#000000" font-family="sans-serif" font-size="13" lengthAdjust="spacing" textLength="107.7832" x="116.3818" y="834.9102">success message</text><line style="stroke:#000000;stroke-width:1.0;stroke-dasharray:2.0,2.0;" x1="10" x2="655.4595" y1="848.6523" y2="848.6523"/><text fill="#000000" font-family="sans-serif" font-size="11" font-weight="bold" lengthAdjust="spacing" textLength="167.8037" x="15" y="859.2871">[Save failed (duplicate name)]</text><polygon fill="#181818" points="89.2305,879.918,79.2305,883.918,89.2305,887.918,85.2305,883.918" style="stroke:#181818;stroke-width:1.0;"/><line style="stroke:#181818;stroke-width:1.0;stroke-dasharray:2.0,2.0;" x1="83.2305" x2="558.0742" y1="883.918" y2="883.918"/><text fill="#000000" font-family="sans-serif" font-size="13" font-weight="bold" lengthAdjust="spacing" textLength="17.1514" x="95.2305" y="879.1758">20</text><text fill="#000000" font-family="sans-serif" font-size="13" lengthAdjust="spacing" textLength="90.4604" x="116.3818" y="879.1758">error message</text><!--SRC=[bLN9Rjim4BthAmOvsK6I3n2A06w40kuQH3LowOKbnp8RYbH9oeR_laDgezmwJdsGHVBDc-rnv5waRfXbDTH66xwpfaRmjiNCZISDuo-imj8V5O95xfckL0fmEoRCGUeAjamvp38lFK4tQoZnTukQ8nIILG6wACjY2RUm4W8-oAgr20_COsNiCSjOwurkwvzewPrxO-6gt9a35EXafT5U0NDG5XbvzPBBXcaFLpbHTKm3qMOTWPlr7FYLrHWFDBtCZyW1jxBnqkY84BI-vEN1Q6-DKdrO3z-VFizDB3R6IShY-6ZDNWgqFtJ-zDTcj6xwnPnXxd0o9PvpHv5DQezso_X9bclz1Ml2NB0bq6jXV7nShUj6HV2lXhq6ZHW-jPTxkQTLQ65M5d1x7oIIawH89Cuxy0OOwOA1niEfEk0W_GxsJ4aH6mXCYzYdlcyJE_Kz8rvY3xZhwnmsNYftPv5ANZV-UISLhdMaMYmdkoYBI1q3oxiDWND0JnqylvqwwYay1keqyCH3nFKUWg0WkE0MwIpTpKEPvgL-fke4WQ-qICIy227VfDvkUZhn_fZ45yMRHMxoCNIC_4oD61ozbN9i-yXsEuK_foJDEPefV5RiIJP3MCCTeQ8GnVQCYDEoJxTgC4rYcAudBCIHif8yxzGFD7X8sSiqd94gOyh3v0waWqltAWFw3Lb43paujiV5aECo8aPVtHKCMrquanMdcSEeMf_mE1hVKLYQ1YvblaoD-anp-1QxnDIxUNpt4PoasBdDa2RuIOB_702phAXSh-SK9aNOeFyHlvMQD1DKUpwPYF_lL88tr6BGJd_fpbedbjrD23qUrHdI4k1Qpj6vRQjKrz1m7ucuBFBX36fwq8UoAs59PlGzf84WI61jeoGVXiZob02j9SsDvY7o92OQQCcgBFu0]--></g></svg>