<svg xmlns="http://www.w3.org/2000/svg" xmlns:xlink="http://www.w3.org/1999/xlink" contentStyleType="text/css" height="723px" preserveAspectRatio="none" style="width:1603px;height:723px;background:#FFFFFF;" version="1.1" viewBox="0 0 1603 723" width="1603px" zoomAndPan="magnify"><defs/><g><rect fill="#FFFFFF" height="541.2344" style="stroke:#181818;stroke-width:1.0;" width="10" x="51.0156" y="91.4883"/><rect fill="#FFFFFF" height="519.9238" style="stroke:#181818;stroke-width:1.0;" width="10" x="313.6738" y="112.7988"/><rect fill="#FFFFFF" height="490.6133" style="stroke:#181818;stroke-width:1.0;" width="10" x="816.2778" y="142.1094"/><rect fill="#FFFFFF" height="87.9316" style="stroke:#181818;stroke-width:1.0;" width="10" x="1025.7725" y="171.4199"/><rect fill="#FFFFFF" height="29.3105" style="stroke:#181818;stroke-width:1.0;" width="10" x="1179.9663" y="200.7305"/><rect fill="none" height="237.4395" style="stroke:#000000;stroke-width:1.5;" width="1380.3613" x="215.7324" y="388.2832"/><line style="stroke:#181818;stroke-width:0.5;stroke-dasharray:5.0,5.0;" x1="56" x2="56" y1="81.4883" y2="642.7227"/><line style="stroke:#181818;stroke-width:0.5;stroke-dasharray:5.0,5.0;" x1="317.7324" x2="317.7324" y1="81.4883" y2="642.7227"/><line style="stroke:#181818;stroke-width:0.5;stroke-dasharray:5.0,5.0;" x1="821.1226" x2="821.1226" y1="81.4883" y2="642.7227"/><line style="stroke:#181818;stroke-width:0.5;stroke-dasharray:5.0,5.0;" x1="1030.5" x2="1030.5" y1="81.4883" y2="642.7227"/><line style="stroke:#181818;stroke-width:0.5;stroke-dasharray:5.0,5.0;" x1="1184.0449" x2="1184.0449" y1="81.4883" y2="642.7227"/><line style="stroke:#181818;stroke-width:0.5;stroke-dasharray:5.0,5.0;" x1="1360.8877" x2="1360.8877" y1="81.4883" y2="642.7227"/><line style="stroke:#181818;stroke-width:0.5;stroke-dasharray:5.0,5.0;" x1="1526.7686" x2="1526.7686" y1="81.4883" y2="642.7227"/><text fill="#000000" font-family="sans-serif" font-size="14" lengthAdjust="spacing" textLength="96.0313" x="5" y="78.5352">ShowDesigner</text><ellipse cx="56.0156" cy="13.5" fill="#E3E3E3" rx="8" ry="8" style="stroke:#181818;stroke-width:0.5;"/><path d="M56.0156,21.5 L56.0156,48.5 M43.0156,29.5 L69.0156,29.5 M56.0156,48.5 L43.0156,63.5 M56.0156,48.5 L69.0156,63.5 " fill="none" style="stroke:#181818;stroke-width:0.5;"/><text fill="#000000" font-family="sans-serif" font-size="14" lengthAdjust="spacing" textLength="96.0313" x="5" y="655.2578">ShowDesigner</text><ellipse cx="56.0156" cy="666.7109" fill="#E3E3E3" rx="8" ry="8" style="stroke:#181818;stroke-width:0.5;"/><path d="M56.0156,674.7109 L56.0156,701.7109 M43.0156,682.7109 L69.0156,682.7109 M56.0156,701.7109 L43.0156,716.7109 M56.0156,701.7109 L69.0156,716.7109 " fill="none" style="stroke:#181818;stroke-width:0.5;"/><rect fill="#E3E3E3" height="30.4883" rx="2.5" ry="2.5" style="stroke:#181818;stroke-width:0.5;" width="185.8828" x="225.7324" y="50"/><text fill="#000000" font-family="sans-serif" font-size="14" lengthAdjust="spacing" textLength="171.8828" x="232.7324" y="70.5352">:ChangeCategoryStatusUI</text><rect fill="#E3E3E3" height="30.4883" rx="2.5" ry="2.5" style="stroke:#181818;stroke-width:0.5;" width="185.8828" x="225.7324" y="641.7227"/><text fill="#000000" font-family="sans-serif" font-size="14" lengthAdjust="spacing" textLength="171.8828" x="232.7324" y="662.2578">:ChangeCategoryStatusUI</text><rect fill="#E3E3E3" height="30.4883" rx="2.5" ry="2.5" style="stroke:#181818;stroke-width:0.5;" width="240.3105" x="701.1226" y="50"/><text fill="#000000" font-family="sans-serif" font-size="14" lengthAdjust="spacing" textLength="226.3105" x="708.1226" y="70.5352">:ChangeCategoryStatusController</text><rect fill="#E3E3E3" height="30.4883" rx="2.5" ry="2.5" style="stroke:#181818;stroke-width:0.5;" width="240.3105" x="701.1226" y="641.7227"/><text fill="#000000" font-family="sans-serif" font-size="14" lengthAdjust="spacing" textLength="226.3105" x="708.1226" y="662.2578">:ChangeCategoryStatusController</text><rect fill="#E3E3E3" height="30.4883" rx="2.5" ry="2.5" style="stroke:#181818;stroke-width:0.5;" width="148.5449" x="956.5" y="50"/><text fill="#000000" font-family="sans-serif" font-size="14" lengthAdjust="spacing" textLength="134.5449" x="963.5" y="70.5352">:PersistenceContext</text><rect fill="#E3E3E3" height="30.4883" rx="2.5" ry="2.5" style="stroke:#181818;stroke-width:0.5;" width="148.5449" x="956.5" y="641.7227"/><text fill="#000000" font-family="sans-serif" font-size="14" lengthAdjust="spacing" textLength="134.5449" x="963.5" y="662.2578">:PersistenceContext</text><rect fill="#E3E3E3" height="46.9766" rx="2.5" ry="2.5" style="stroke:#181818;stroke-width:0.5;" width="139.8428" x="1115.0449" y="33.5117"/><text fill="#000000" font-family="sans-serif" font-size="14" lengthAdjust="spacing" textLength="46.9287" x="1161.502" y="54.0469">factory</text><text fill="#000000" font-family="sans-serif" font-size="14" lengthAdjust="spacing" textLength="125.8428" x="1122.0449" y="70.5352">:RepositoryFactory</text><rect fill="#E3E3E3" height="46.9766" rx="2.5" ry="2.5" style="stroke:#181818;stroke-width:0.5;" width="139.8428" x="1115.0449" y="641.7227"/><text fill="#000000" font-family="sans-serif" font-size="14" lengthAdjust="spacing" textLength="46.9287" x="1161.502" y="662.2578">factory</text><text fill="#000000" font-family="sans-serif" font-size="14" lengthAdjust="spacing" textLength="125.8428" x="1122.0449" y="678.7461">:RepositoryFactory</text><rect fill="#E3E3E3" height="46.9766" rx="2.5" ry="2.5" style="stroke:#181818;stroke-width:0.5;" width="193.8809" x="1264.8877" y="33.5117"/><text fill="#000000" font-family="sans-serif" font-size="14" lengthAdjust="spacing" textLength="69.002" x="1327.3271" y="54.0469">repository</text><text fill="#000000" font-family="sans-serif" font-size="14" lengthAdjust="spacing" textLength="179.8809" x="1271.8877" y="70.5352">:FigureCategoryRepository</text><rect fill="#E3E3E3" height="46.9766" rx="2.5" ry="2.5" style="stroke:#181818;stroke-width:0.5;" width="193.8809" x="1264.8877" y="641.7227"/><text fill="#000000" font-family="sans-serif" font-size="14" lengthAdjust="spacing" textLength="69.002" x="1327.3271" y="662.2578">repository</text><text fill="#000000" font-family="sans-serif" font-size="14" lengthAdjust="spacing" textLength="179.8809" x="1271.8877" y="678.7461">:FigureCategoryRepository</text><rect fill="#E3E3E3" height="30.4883" rx="2.5" ry="2.5" style="stroke:#181818;stroke-width:0.5;" width="117.3252" x="1468.7686" y="50"/><text fill="#000000" font-family="sans-serif" font-size="14" lengthAdjust="spacing" textLength="103.3252" x="1475.7686" y="70.5352">FigureCategory</text><rect fill="#E3E3E3" height="30.4883" rx="2.5" ry="2.5" style="stroke:#181818;stroke-width:0.5;" width="117.3252" x="1468.7686" y="641.7227"/><text fill="#000000" font-family="sans-serif" font-size="14" lengthAdjust="spacing" textLength="103.3252" x="1475.7686" y="662.2578">FigureCategory</text><rect fill="#FFFFFF" height="541.2344" style="stroke:#181818;stroke-width:1.0;" width="10" x="51.0156" y="91.4883"/><rect fill="#FFFFFF" height="519.9238" style="stroke:#181818;stroke-width:1.0;" width="10" x="313.6738" y="112.7988"/><rect fill="#FFFFFF" height="490.6133" style="stroke:#181818;stroke-width:1.0;" width="10" x="816.2778" y="142.1094"/><rect fill="#FFFFFF" height="87.9316" style="stroke:#181818;stroke-width:1.0;" width="10" x="1025.7725" y="171.4199"/><rect fill="#FFFFFF" height="29.3105" style="stroke:#181818;stroke-width:1.0;" width="10" x="1179.9663" y="200.7305"/><polygon fill="#181818" points="301.6738,108.7988,311.6738,112.7988,301.6738,116.7988,305.6738,112.7988" style="stroke:#181818;stroke-width:1.0;"/><line style="stroke:#181818;stroke-width:1.0;" x1="61.0156" x2="307.6738" y1="112.7988" y2="112.7988"/><text fill="#000000" font-family="sans-serif" font-size="13" font-weight="bold" lengthAdjust="spacing" textLength="8.5757" x="68.0156" y="108.0566">1</text><text fill="#000000" font-family="sans-serif" font-size="13" lengthAdjust="spacing" textLength="221.0825" x="80.5913" y="108.0566">requests change of category status</text><polygon fill="#181818" points="804.2778,138.1094,814.2778,142.1094,804.2778,146.1094,808.2778,142.1094" style="stroke:#181818;stroke-width:1.0;"/><line style="stroke:#181818;stroke-width:1.0;" x1="323.6738" x2="810.2778" y1="142.1094" y2="142.1094"/><text fill="#000000" font-family="sans-serif" font-size="13" font-weight="bold" lengthAdjust="spacing" textLength="8.5757" x="330.6738" y="137.3672">2</text><text fill="#000000" font-family="sans-serif" font-size="13" lengthAdjust="spacing" textLength="46.96" x="343.2495" y="137.3672">create()</text><polygon fill="#181818" points="1013.7725,167.4199,1023.7725,171.4199,1013.7725,175.4199,1017.7725,171.4199" style="stroke:#181818;stroke-width:1.0;"/><line style="stroke:#181818;stroke-width:1.0;" x1="826.2778" x2="1019.7725" y1="171.4199" y2="171.4199"/><text fill="#000000" font-family="sans-serif" font-size="13" font-weight="bold" lengthAdjust="spacing" textLength="8.5757" x="833.2778" y="166.6777">3</text><text fill="#000000" font-family="sans-serif" font-size="13" lengthAdjust="spacing" textLength="83.3638" x="845.8535" y="166.6777">repositories()</text><polygon fill="#181818" points="1167.9663,196.7305,1177.9663,200.7305,1167.9663,204.7305,1171.9663,200.7305" style="stroke:#181818;stroke-width:1.0;"/><line style="stroke:#181818;stroke-width:1.0;" x1="1035.7725" x2="1173.9663" y1="200.7305" y2="200.7305"/><text fill="#000000" font-family="sans-serif" font-size="13" font-weight="bold" lengthAdjust="spacing" textLength="8.5757" x="1042.7725" y="195.9883">4</text><text fill="#000000" font-family="sans-serif" font-size="13" lengthAdjust="spacing" textLength="46.96" x="1055.3481" y="195.9883">create()</text><polygon fill="#181818" points="1349.8281,226.041,1359.8281,230.041,1349.8281,234.041,1353.8281,230.041" style="stroke:#181818;stroke-width:1.0;"/><line style="stroke:#181818;stroke-width:1.0;" x1="1184.9663" x2="1355.8281" y1="230.041" y2="230.041"/><text fill="#000000" font-family="sans-serif" font-size="13" font-weight="bold" lengthAdjust="spacing" textLength="8.5757" x="1191.9663" y="225.2988">5</text><text fill="#000000" font-family="sans-serif" font-size="13" lengthAdjust="spacing" textLength="46.96" x="1204.542" y="225.2988">create()</text><polygon fill="#181818" points="837.2778,255.3516,827.2778,259.3516,837.2778,263.3516,833.2778,259.3516" style="stroke:#181818;stroke-width:1.0;"/><line style="stroke:#181818;stroke-width:1.0;" x1="831.2778" x2="1029.7725" y1="259.3516" y2="259.3516"/><text fill="#000000" font-family="sans-serif" font-size="13" font-weight="bold" lengthAdjust="spacing" textLength="8.5757" x="843.2778" y="254.6094">6</text><text fill="#000000" font-family="sans-serif" font-size="13" lengthAdjust="spacing" textLength="162.9189" x="855.8535" y="254.6094">FigureCategoryRepository</text><line style="stroke:#181818;stroke-width:1.0;" x1="323.6738" x2="365.6738" y1="288.6621" y2="288.6621"/><line style="stroke:#181818;stroke-width:1.0;" x1="365.6738" x2="365.6738" y1="288.6621" y2="301.6621"/><line style="stroke:#181818;stroke-width:1.0;" x1="324.6738" x2="365.6738" y1="301.6621" y2="301.6621"/><polygon fill="#181818" points="334.6738,297.6621,324.6738,301.6621,334.6738,305.6621,330.6738,301.6621" style="stroke:#181818;stroke-width:1.0;"/><text fill="#000000" font-family="sans-serif" font-size="13" font-weight="bold" lengthAdjust="spacing" textLength="8.5757" x="330.6738" y="283.9199">7</text><text fill="#000000" font-family="sans-serif" font-size="13" lengthAdjust="spacing" textLength="57.6938" x="343.2495" y="283.9199">doShow()</text><polygon fill="#181818" points="804.2778,326.9727,814.2778,330.9727,804.2778,334.9727,808.2778,330.9727" style="stroke:#181818;stroke-width:1.0;"/><line style="stroke:#181818;stroke-width:1.0;" x1="323.6738" x2="810.2778" y1="330.9727" y2="330.9727"/><text fill="#000000" font-family="sans-serif" font-size="13" font-weight="bold" lengthAdjust="spacing" textLength="8.5757" x="330.6738" y="326.2305">8</text><text fill="#000000" font-family="sans-serif" font-size="13" lengthAdjust="spacing" textLength="207.5366" x="343.2495" y="326.2305">changeCategoryStatus(id, action)</text><line style="stroke:#181818;stroke-width:1.0;" x1="826.2778" x2="868.2778" y1="360.2832" y2="360.2832"/><line style="stroke:#181818;stroke-width:1.0;" x1="868.2778" x2="868.2778" y1="360.2832" y2="373.2832"/><line style="stroke:#181818;stroke-width:1.0;" x1="827.2778" x2="868.2778" y1="373.2832" y2="373.2832"/><polygon fill="#181818" points="837.2778,369.2832,827.2778,373.2832,837.2778,377.2832,833.2778,373.2832" style="stroke:#181818;stroke-width:1.0;"/><text fill="#000000" font-family="sans-serif" font-size="13" font-weight="bold" lengthAdjust="spacing" textLength="8.5757" x="833.2778" y="355.541">9</text><text fill="#000000" font-family="sans-serif" font-size="13" lengthAdjust="spacing" textLength="116.0225" x="845.8535" y="355.541">validate(id, action)</text><path d="M215.7324,388.2832 L277.8711,388.2832 L277.8711,395.5938 L267.8711,405.5938 L215.7324,405.5938 L215.7324,388.2832 " fill="#EEEEEE" style="stroke:#000000;stroke-width:1.5;"/><rect fill="none" height="237.4395" style="stroke:#000000;stroke-width:1.5;" width="1380.3613" x="215.7324" y="388.2832"/><text fill="#000000" font-family="sans-serif" font-size="13" font-weight="bold" lengthAdjust="spacing" textLength="17.1387" x="230.7324" y="401.8516">alt</text><text fill="#000000" font-family="sans-serif" font-size="11" font-weight="bold" lengthAdjust="spacing" textLength="254.2622" x="292.8711" y="400.918">[invalid input or already in requested status]</text><polygon fill="#181818" points="334.6738,422.9043,324.6738,426.9043,334.6738,430.9043,330.6738,426.9043" style="stroke:#181818;stroke-width:1.0;"/><line style="stroke:#181818;stroke-width:1.0;" x1="328.6738" x2="815.2778" y1="426.9043" y2="426.9043"/><text fill="#000000" font-family="sans-serif" font-size="13" font-weight="bold" lengthAdjust="spacing" textLength="17.1514" x="340.6738" y="422.1621">10</text><text fill="#000000" font-family="sans-serif" font-size="13" lengthAdjust="spacing" textLength="447.4526" x="361.8252" y="422.1621">errorMessage("Invalid request or category already in requested status")</text><line style="stroke:#000000;stroke-width:1.0;stroke-dasharray:2.0,2.0;" x1="215.7324" x2="1596.0938" y1="435.9043" y2="435.9043"/><text fill="#000000" font-family="sans-serif" font-size="11" font-weight="bold" lengthAdjust="spacing" textLength="68.9863" x="220.7324" y="446.5391">[valid input]</text><polygon fill="#181818" points="1349.8281,467.1699,1359.8281,471.1699,1349.8281,475.1699,1353.8281,471.1699" style="stroke:#181818;stroke-width:1.0;"/><line style="stroke:#181818;stroke-width:1.0;" x1="826.2778" x2="1355.8281" y1="471.1699" y2="471.1699"/><text fill="#000000" font-family="sans-serif" font-size="13" font-weight="bold" lengthAdjust="spacing" textLength="17.1514" x="833.2778" y="466.4277">11</text><text fill="#000000" font-family="sans-serif" font-size="13" lengthAdjust="spacing" textLength="71.3794" x="854.4292" y="466.4277">findById(id)</text><polygon fill="#181818" points="837.2778,496.4805,827.2778,500.4805,837.2778,504.4805,833.2778,500.4805" style="stroke:#181818;stroke-width:1.0;"/><line style="stroke:#181818;stroke-width:1.0;" x1="831.2778" x2="1360.8281" y1="500.4805" y2="500.4805"/><text fill="#000000" font-family="sans-serif" font-size="13" font-weight="bold" lengthAdjust="spacing" textLength="17.1514" x="843.2778" y="495.7383">12</text><text fill="#000000" font-family="sans-serif" font-size="13" lengthAdjust="spacing" textLength="95.9448" x="864.4292" y="495.7383">FigureCategory</text><polygon fill="#181818" points="1515.4312,525.791,1525.4312,529.791,1515.4312,533.791,1519.4312,529.791" style="stroke:#181818;stroke-width:1.0;"/><line style="stroke:#181818;stroke-width:1.0;" x1="826.2778" x2="1521.4312" y1="529.791" y2="529.791"/><text fill="#000000" font-family="sans-serif" font-size="13" font-weight="bold" lengthAdjust="spacing" textLength="17.1514" x="833.2778" y="525.0488">13</text><text fill="#000000" font-family="sans-serif" font-size="13" lengthAdjust="spacing" textLength="129.2827" x="854.4292" y="525.0488">updateStatus(action)</text><polygon fill="#181818" points="1349.8281,555.1016,1359.8281,559.1016,1349.8281,563.1016,1353.8281,559.1016" style="stroke:#181818;stroke-width:1.0;"/><line style="stroke:#181818;stroke-width:1.0;" x1="826.2778" x2="1355.8281" y1="559.1016" y2="559.1016"/><text fill="#000000" font-family="sans-serif" font-size="13" font-weight="bold" lengthAdjust="spacing" textLength="17.1514" x="833.2778" y="554.3594">14</text><text fill="#000000" font-family="sans-serif" font-size="13" lengthAdjust="spacing" textLength="132.1772" x="854.4292" y="554.3594">save(FigureCategory)</text><polygon fill="#181818" points="837.2778,584.4121,827.2778,588.4121,837.2778,592.4121,833.2778,588.4121" style="stroke:#181818;stroke-width:1.0;"/><line style="stroke:#181818;stroke-width:1.0;" x1="831.2778" x2="1360.8281" y1="588.4121" y2="588.4121"/><text fill="#000000" font-family="sans-serif" font-size="13" font-weight="bold" lengthAdjust="spacing" textLength="17.1514" x="843.2778" y="583.6699">15</text><text fill="#000000" font-family="sans-serif" font-size="13" lengthAdjust="spacing" textLength="80.5581" x="864.4292" y="583.6699">confirmation</text><polygon fill="#181818" points="334.6738,613.7227,324.6738,617.7227,334.6738,621.7227,330.6738,617.7227" style="stroke:#181818;stroke-width:1.0;"/><line style="stroke:#181818;stroke-width:1.0;" x1="328.6738" x2="815.2778" y1="617.7227" y2="617.7227"/><text fill="#000000" font-family="sans-serif" font-size="13" font-weight="bold" lengthAdjust="spacing" textLength="17.1514" x="340.6738" y="612.9805">16</text><text fill="#000000" font-family="sans-serif" font-size="13" lengthAdjust="spacing" textLength="355.5068" x="361.8252" y="612.9805">successMessage("Category status updated successfully")</text><!--SRC=[ZPFTZjiW48Nl_HGZNoLI-mA-gBHrDvAbTZVApqMbIXM5iOFM0HTmjdxx3lXd8TbKpOq3d7Dc-03x8bN733l3MIlDJqQV4PpfCRFBIiVu2sjmxuOMmI1tJ3LjBB0d9lIhL0tKhBMOPQntMlNdNsZeFtVQGBu_wTSlQ6MZqEJ0B3oKX-TTHW5ESjanvI0loXD5OyaSDjeCUyTSRuzLa1-h_z2MMZcZstOgKHvsNwzSMpHMMeUAenVZ7nUKspBLrQ7huOSgTjXfA_rWCyu5_IPq__rdzRG_F3oLZwdRB1uAsCYcDqkVRt4XP_UuVKwzgNmibam5el92embX5ZxmyHCnWe8Ew7UFrbdW0H3e6lXa1HieHGb4bKnazQZ8p0tIz6eTIGB4i4ooRUaBJ5kGQ4cv28dXjlIYQpXHx2A-0NWzuOCydSWiyBvzhEpRBE0UyJY0cfrsVgmA4DfVJx_jDnh5132zOIifFe1FqMgzK1db5zPAuJkD9Qnr85LOec_NEw37m5hQaXXeOZuj5FFP0FtcNDyQ6gFDDxIMNk0ghwQeoUR3biFzHsg-pf0U9aHz98L6qBLKulDG2Th0EYpxwNjO4t-wL43VUH0JiHd5RK7BBhXAlUyLvbhLqfoPZxdXOtlEYSv2g4pl-jIAc7LrtxQ3nw545j-7SCkZCJsCQ3G-jBy0]--></g></svg>