<svg xmlns="http://www.w3.org/2000/svg" xmlns:xlink="http://www.w3.org/1999/xlink" contentStyleType="text/css" height="900px" preserveAspectRatio="none" style="width:1883px;height:900px;background:#FFFFFF;" version="1.1" viewBox="0 0 1883 900" width="1883px" zoomAndPan="magnify"><defs/><g><rect fill="#FFFFFF" height="717.7422" style="stroke:#181818;stroke-width:1.0;" width="10" x="66.0156" y="91.4883"/><rect fill="#FFFFFF" height="696.4316" style="stroke:#181818;stroke-width:1.0;" width="10" x="497.5576" y="112.7988"/><rect fill="#FFFFFF" height="490.6133" style="stroke:#181818;stroke-width:1.0;" width="10" x="1000.1616" y="267.3516"/><rect fill="#FFFFFF" height="87.9316" style="stroke:#181818;stroke-width:1.0;" width="10" x="1209.6563" y="296.6621"/><rect fill="#FFFFFF" height="29.3105" style="stroke:#181818;stroke-width:1.0;" width="10" x="1363.8501" y="325.9727"/><rect fill="none" height="573.5" style="stroke:#000000;stroke-width:1.5;" width="1779.9775" x="10" y="228.7305"/><rect fill="none" height="237.4395" style="stroke:#000000;stroke-width:1.5;" width="1380.3613" x="399.6162" y="513.5254"/><line style="stroke:#181818;stroke-width:0.5;stroke-dasharray:5.0,5.0;" x1="71" x2="71" y1="81.4883" y2="819.2305"/><line style="stroke:#181818;stroke-width:0.5;stroke-dasharray:5.0,5.0;" x1="501.6162" x2="501.6162" y1="81.4883" y2="819.2305"/><line style="stroke:#181818;stroke-width:0.5;stroke-dasharray:5.0,5.0;" x1="1005.0063" x2="1005.0063" y1="81.4883" y2="819.2305"/><line style="stroke:#181818;stroke-width:0.5;stroke-dasharray:5.0,5.0;" x1="1214.3838" x2="1214.3838" y1="81.4883" y2="819.2305"/><line style="stroke:#181818;stroke-width:0.5;stroke-dasharray:5.0,5.0;" x1="1367.9287" x2="1367.9287" y1="81.4883" y2="819.2305"/><line style="stroke:#181818;stroke-width:0.5;stroke-dasharray:5.0,5.0;" x1="1544.7715" x2="1544.7715" y1="81.4883" y2="819.2305"/><line style="stroke:#181818;stroke-width:0.5;stroke-dasharray:5.0,5.0;" x1="1710.6523" x2="1710.6523" y1="81.4883" y2="819.2305"/><line style="stroke:#181818;stroke-width:0.5;stroke-dasharray:5.0,5.0;" x1="1827.9775" x2="1827.9775" y1="81.4883" y2="819.2305"/><text fill="#000000" font-family="sans-serif" font-size="14" lengthAdjust="spacing" textLength="96.0313" x="20" y="78.5352">ShowDesigner</text><ellipse cx="71.0156" cy="13.5" fill="#E3E3E3" rx="8" ry="8" style="stroke:#181818;stroke-width:0.5;"/><path d="M71.0156,21.5 L71.0156,48.5 M58.0156,29.5 L84.0156,29.5 M71.0156,48.5 L58.0156,63.5 M71.0156,48.5 L84.0156,63.5 " fill="none" style="stroke:#181818;stroke-width:0.5;"/><text fill="#000000" font-family="sans-serif" font-size="14" lengthAdjust="spacing" textLength="96.0313" x="20" y="831.7656">ShowDesigner</text><ellipse cx="71.0156" cy="843.2188" fill="#E3E3E3" rx="8" ry="8" style="stroke:#181818;stroke-width:0.5;"/><path d="M71.0156,851.2188 L71.0156,878.2188 M58.0156,859.2188 L84.0156,859.2188 M71.0156,878.2188 L58.0156,893.2188 M71.0156,878.2188 L84.0156,893.2188 " fill="none" style="stroke:#181818;stroke-width:0.5;"/><rect fill="#E3E3E3" height="30.4883" rx="2.5" ry="2.5" style="stroke:#181818;stroke-width:0.5;" width="185.8828" x="409.6162" y="50"/><text fill="#000000" font-family="sans-serif" font-size="14" lengthAdjust="spacing" textLength="171.8828" x="416.6162" y="70.5352">:ChangeCategoryStatusUI</text><rect fill="#E3E3E3" height="30.4883" rx="2.5" ry="2.5" style="stroke:#181818;stroke-width:0.5;" width="185.8828" x="409.6162" y="818.2305"/><text fill="#000000" font-family="sans-serif" font-size="14" lengthAdjust="spacing" textLength="171.8828" x="416.6162" y="838.7656">:ChangeCategoryStatusUI</text><rect fill="#E3E3E3" height="30.4883" rx="2.5" ry="2.5" style="stroke:#181818;stroke-width:0.5;" width="240.3105" x="885.0063" y="50"/><text fill="#000000" font-family="sans-serif" font-size="14" lengthAdjust="spacing" textLength="226.3105" x="892.0063" y="70.5352">:ChangeCategoryStatusController</text><rect fill="#E3E3E3" height="30.4883" rx="2.5" ry="2.5" style="stroke:#181818;stroke-width:0.5;" width="240.3105" x="885.0063" y="818.2305"/><text fill="#000000" font-family="sans-serif" font-size="14" lengthAdjust="spacing" textLength="226.3105" x="892.0063" y="838.7656">:ChangeCategoryStatusController</text><rect fill="#E3E3E3" height="30.4883" rx="2.5" ry="2.5" style="stroke:#181818;stroke-width:0.5;" width="148.5449" x="1140.3838" y="50"/><text fill="#000000" font-family="sans-serif" font-size="14" lengthAdjust="spacing" textLength="134.5449" x="1147.3838" y="70.5352">:PersistenceContext</text><rect fill="#E3E3E3" height="30.4883" rx="2.5" ry="2.5" style="stroke:#181818;stroke-width:0.5;" width="148.5449" x="1140.3838" y="818.2305"/><text fill="#000000" font-family="sans-serif" font-size="14" lengthAdjust="spacing" textLength="134.5449" x="1147.3838" y="838.7656">:PersistenceContext</text><rect fill="#E3E3E3" height="46.9766" rx="2.5" ry="2.5" style="stroke:#181818;stroke-width:0.5;" width="139.8428" x="1298.9287" y="33.5117"/><text fill="#000000" font-family="sans-serif" font-size="14" lengthAdjust="spacing" textLength="46.9287" x="1345.3857" y="54.0469">factory</text><text fill="#000000" font-family="sans-serif" font-size="14" lengthAdjust="spacing" textLength="125.8428" x="1305.9287" y="70.5352">:RepositoryFactory</text><rect fill="#E3E3E3" height="46.9766" rx="2.5" ry="2.5" style="stroke:#181818;stroke-width:0.5;" width="139.8428" x="1298.9287" y="818.2305"/><text fill="#000000" font-family="sans-serif" font-size="14" lengthAdjust="spacing" textLength="46.9287" x="1345.3857" y="838.7656">factory</text><text fill="#000000" font-family="sans-serif" font-size="14" lengthAdjust="spacing" textLength="125.8428" x="1305.9287" y="855.2539">:RepositoryFactory</text><rect fill="#E3E3E3" height="46.9766" rx="2.5" ry="2.5" style="stroke:#181818;stroke-width:0.5;" width="193.8809" x="1448.7715" y="33.5117"/><text fill="#000000" font-family="sans-serif" font-size="14" lengthAdjust="spacing" textLength="69.002" x="1511.2109" y="54.0469">repository</text><text fill="#000000" font-family="sans-serif" font-size="14" lengthAdjust="spacing" textLength="179.8809" x="1455.7715" y="70.5352">:FigureCategoryRepository</text><rect fill="#E3E3E3" height="46.9766" rx="2.5" ry="2.5" style="stroke:#181818;stroke-width:0.5;" width="193.8809" x="1448.7715" y="818.2305"/><text fill="#000000" font-family="sans-serif" font-size="14" lengthAdjust="spacing" textLength="69.002" x="1511.2109" y="838.7656">repository</text><text fill="#000000" font-family="sans-serif" font-size="14" lengthAdjust="spacing" textLength="179.8809" x="1455.7715" y="855.2539">:FigureCategoryRepository</text><rect fill="#E3E3E3" height="30.4883" rx="2.5" ry="2.5" style="stroke:#181818;stroke-width:0.5;" width="117.3252" x="1652.6523" y="50"/><text fill="#000000" font-family="sans-serif" font-size="14" lengthAdjust="spacing" textLength="103.3252" x="1659.6523" y="70.5352">FigureCategory</text><rect fill="#E3E3E3" height="30.4883" rx="2.5" ry="2.5" style="stroke:#181818;stroke-width:0.5;" width="117.3252" x="1652.6523" y="818.2305"/><text fill="#000000" font-family="sans-serif" font-size="14" lengthAdjust="spacing" textLength="103.3252" x="1659.6523" y="838.7656">FigureCategory</text><rect fill="#E3E3E3" height="30.4883" rx="2.5" ry="2.5" style="stroke:#181818;stroke-width:0.5;" width="97.4531" x="1779.9775" y="50"/><text fill="#000000" font-family="sans-serif" font-size="14" lengthAdjust="spacing" textLength="83.4531" x="1786.9775" y="70.5352">:AuthFacade</text><rect fill="#E3E3E3" height="30.4883" rx="2.5" ry="2.5" style="stroke:#181818;stroke-width:0.5;" width="97.4531" x="1779.9775" y="818.2305"/><text fill="#000000" font-family="sans-serif" font-size="14" lengthAdjust="spacing" textLength="83.4531" x="1786.9775" y="838.7656">:AuthFacade</text><rect fill="#FFFFFF" height="717.7422" style="stroke:#181818;stroke-width:1.0;" width="10" x="66.0156" y="91.4883"/><rect fill="#FFFFFF" height="696.4316" style="stroke:#181818;stroke-width:1.0;" width="10" x="497.5576" y="112.7988"/><rect fill="#FFFFFF" height="490.6133" style="stroke:#181818;stroke-width:1.0;" width="10" x="1000.1616" y="267.3516"/><rect fill="#FFFFFF" height="87.9316" style="stroke:#181818;stroke-width:1.0;" width="10" x="1209.6563" y="296.6621"/><rect fill="#FFFFFF" height="29.3105" style="stroke:#181818;stroke-width:1.0;" width="10" x="1363.8501" y="325.9727"/><polygon fill="#181818" points="485.5576,108.7988,495.5576,112.7988,485.5576,116.7988,489.5576,112.7988" style="stroke:#181818;stroke-width:1.0;"/><line style="stroke:#181818;stroke-width:1.0;" x1="76.0156" x2="491.5576" y1="112.7988" y2="112.7988"/><text fill="#000000" font-family="sans-serif" font-size="13" font-weight="bold" lengthAdjust="spacing" textLength="8.5757" x="83.0156" y="108.0566">1</text><text fill="#000000" font-family="sans-serif" font-size="13" lengthAdjust="spacing" textLength="221.0825" x="95.5913" y="108.0566">requests change of category status</text><polygon fill="#181818" points="1816.7041,138.1094,1826.7041,142.1094,1816.7041,146.1094,1820.7041,142.1094" style="stroke:#181818;stroke-width:1.0;"/><line style="stroke:#181818;stroke-width:1.0;" x1="507.5576" x2="1822.7041" y1="142.1094" y2="142.1094"/><text fill="#000000" font-family="sans-serif" font-size="13" font-weight="bold" lengthAdjust="spacing" textLength="8.5757" x="514.5576" y="137.3672">2</text><text fill="#000000" font-family="sans-serif" font-size="13" lengthAdjust="spacing" textLength="104.7363" x="527.1333" y="137.3672">getCurrentUser()</text><polygon fill="#181818" points="518.5576,167.4199,508.5576,171.4199,518.5576,175.4199,514.5576,171.4199" style="stroke:#181818;stroke-width:1.0;"/><line style="stroke:#181818;stroke-width:1.0;" x1="512.5576" x2="1827.7041" y1="171.4199" y2="171.4199"/><text fill="#000000" font-family="sans-serif" font-size="13" font-weight="bold" lengthAdjust="spacing" textLength="8.5757" x="524.5576" y="166.6777">3</text><text fill="#000000" font-family="sans-serif" font-size="13" lengthAdjust="spacing" textLength="128.9971" x="537.1333" y="166.6777">user (ShowDesigner)</text><line style="stroke:#181818;stroke-width:1.0;" x1="507.5576" x2="549.5576" y1="200.7305" y2="200.7305"/><line style="stroke:#181818;stroke-width:1.0;" x1="549.5576" x2="549.5576" y1="200.7305" y2="213.7305"/><line style="stroke:#181818;stroke-width:1.0;" x1="508.5576" x2="549.5576" y1="213.7305" y2="213.7305"/><polygon fill="#181818" points="518.5576,209.7305,508.5576,213.7305,518.5576,217.7305,514.5576,213.7305" style="stroke:#181818;stroke-width:1.0;"/><text fill="#000000" font-family="sans-serif" font-size="13" font-weight="bold" lengthAdjust="spacing" textLength="8.5757" x="514.5576" y="195.9883">4</text><text fill="#000000" font-family="sans-serif" font-size="13" lengthAdjust="spacing" textLength="170.771" x="527.1333" y="195.9883">checkRole("ShowDesigner")</text><path d="M10,228.7305 L72.1387,228.7305 L72.1387,236.041 L62.1387,246.041 L10,246.041 L10,228.7305 " fill="#EEEEEE" style="stroke:#000000;stroke-width:1.5;"/><rect fill="none" height="573.5" style="stroke:#000000;stroke-width:1.5;" width="1779.9775" x="10" y="228.7305"/><text fill="#000000" font-family="sans-serif" font-size="13" font-weight="bold" lengthAdjust="spacing" textLength="17.1387" x="25" y="242.2988">alt</text><text fill="#000000" font-family="sans-serif" font-size="11" font-weight="bold" lengthAdjust="spacing" textLength="128.165" x="87.1387" y="241.3652">[role is ShowDesigner]</text><polygon fill="#181818" points="988.1616,263.3516,998.1616,267.3516,988.1616,271.3516,992.1616,267.3516" style="stroke:#181818;stroke-width:1.0;"/><line style="stroke:#181818;stroke-width:1.0;" x1="507.5576" x2="994.1616" y1="267.3516" y2="267.3516"/><text fill="#000000" font-family="sans-serif" font-size="13" font-weight="bold" lengthAdjust="spacing" textLength="8.5757" x="514.5576" y="262.6094">5</text><text fill="#000000" font-family="sans-serif" font-size="13" lengthAdjust="spacing" textLength="46.96" x="527.1333" y="262.6094">create()</text><polygon fill="#181818" points="1197.6563,292.6621,1207.6563,296.6621,1197.6563,300.6621,1201.6563,296.6621" style="stroke:#181818;stroke-width:1.0;"/><line style="stroke:#181818;stroke-width:1.0;" x1="1010.1616" x2="1203.6563" y1="296.6621" y2="296.6621"/><text fill="#000000" font-family="sans-serif" font-size="13" font-weight="bold" lengthAdjust="spacing" textLength="8.5757" x="1017.1616" y="291.9199">6</text><text fill="#000000" font-family="sans-serif" font-size="13" lengthAdjust="spacing" textLength="83.3638" x="1029.7373" y="291.9199">repositories()</text><polygon fill="#181818" points="1351.8501,321.9727,1361.8501,325.9727,1351.8501,329.9727,1355.8501,325.9727" style="stroke:#181818;stroke-width:1.0;"/><line style="stroke:#181818;stroke-width:1.0;" x1="1219.6563" x2="1357.8501" y1="325.9727" y2="325.9727"/><text fill="#000000" font-family="sans-serif" font-size="13" font-weight="bold" lengthAdjust="spacing" textLength="8.5757" x="1226.6563" y="321.2305">7</text><text fill="#000000" font-family="sans-serif" font-size="13" lengthAdjust="spacing" textLength="46.96" x="1239.2319" y="321.2305">create()</text><polygon fill="#181818" points="1533.7119,351.2832,1543.7119,355.2832,1533.7119,359.2832,1537.7119,355.2832" style="stroke:#181818;stroke-width:1.0;"/><line style="stroke:#181818;stroke-width:1.0;" x1="1368.8501" x2="1539.7119" y1="355.2832" y2="355.2832"/><text fill="#000000" font-family="sans-serif" font-size="13" font-weight="bold" lengthAdjust="spacing" textLength="8.5757" x="1375.8501" y="350.541">8</text><text fill="#000000" font-family="sans-serif" font-size="13" lengthAdjust="spacing" textLength="46.96" x="1388.4258" y="350.541">create()</text><polygon fill="#181818" points="1021.1616,380.5938,1011.1616,384.5938,1021.1616,388.5938,1017.1616,384.5938" style="stroke:#181818;stroke-width:1.0;"/><line style="stroke:#181818;stroke-width:1.0;" x1="1015.1616" x2="1213.6563" y1="384.5938" y2="384.5938"/><text fill="#000000" font-family="sans-serif" font-size="13" font-weight="bold" lengthAdjust="spacing" textLength="8.5757" x="1027.1616" y="379.8516">9</text><text fill="#000000" font-family="sans-serif" font-size="13" lengthAdjust="spacing" textLength="162.9189" x="1039.7373" y="379.8516">FigureCategoryRepository</text><line style="stroke:#181818;stroke-width:1.0;" x1="507.5576" x2="549.5576" y1="413.9043" y2="413.9043"/><line style="stroke:#181818;stroke-width:1.0;" x1="549.5576" x2="549.5576" y1="413.9043" y2="426.9043"/><line style="stroke:#181818;stroke-width:1.0;" x1="508.5576" x2="549.5576" y1="426.9043" y2="426.9043"/><polygon fill="#181818" points="518.5576,422.9043,508.5576,426.9043,518.5576,430.9043,514.5576,426.9043" style="stroke:#181818;stroke-width:1.0;"/><text fill="#000000" font-family="sans-serif" font-size="13" font-weight="bold" lengthAdjust="spacing" textLength="17.1514" x="514.5576" y="409.1621">10</text><text fill="#000000" font-family="sans-serif" font-size="13" lengthAdjust="spacing" textLength="57.6938" x="535.709" y="409.1621">doShow()</text><polygon fill="#181818" points="988.1616,452.2148,998.1616,456.2148,988.1616,460.2148,992.1616,456.2148" style="stroke:#181818;stroke-width:1.0;"/><line style="stroke:#181818;stroke-width:1.0;" x1="507.5576" x2="994.1616" y1="456.2148" y2="456.2148"/><text fill="#000000" font-family="sans-serif" font-size="13" font-weight="bold" lengthAdjust="spacing" textLength="17.1514" x="514.5576" y="451.4727">11</text><text fill="#000000" font-family="sans-serif" font-size="13" lengthAdjust="spacing" textLength="207.5366" x="535.709" y="451.4727">changeCategoryStatus(id, action)</text><line style="stroke:#181818;stroke-width:1.0;" x1="1010.1616" x2="1052.1616" y1="485.5254" y2="485.5254"/><line style="stroke:#181818;stroke-width:1.0;" x1="1052.1616" x2="1052.1616" y1="485.5254" y2="498.5254"/><line style="stroke:#181818;stroke-width:1.0;" x1="1011.1616" x2="1052.1616" y1="498.5254" y2="498.5254"/><polygon fill="#181818" points="1021.1616,494.5254,1011.1616,498.5254,1021.1616,502.5254,1017.1616,498.5254" style="stroke:#181818;stroke-width:1.0;"/><text fill="#000000" font-family="sans-serif" font-size="13" font-weight="bold" lengthAdjust="spacing" textLength="17.1514" x="1017.1616" y="480.7832">12</text><text fill="#000000" font-family="sans-serif" font-size="13" lengthAdjust="spacing" textLength="116.0225" x="1038.313" y="480.7832">validate(id, action)</text><path d="M399.6162,513.5254 L461.7549,513.5254 L461.7549,520.8359 L451.7549,530.8359 L399.6162,530.8359 L399.6162,513.5254 " fill="#EEEEEE" style="stroke:#000000;stroke-width:1.5;"/><rect fill="none" height="237.4395" style="stroke:#000000;stroke-width:1.5;" width="1380.3613" x="399.6162" y="513.5254"/><text fill="#000000" font-family="sans-serif" font-size="13" font-weight="bold" lengthAdjust="spacing" textLength="17.1387" x="414.6162" y="527.0938">alt</text><text fill="#000000" font-family="sans-serif" font-size="11" font-weight="bold" lengthAdjust="spacing" textLength="254.2622" x="476.7549" y="526.1602">[invalid input or already in requested status]</text><polygon fill="#181818" points="518.5576,548.1465,508.5576,552.1465,518.5576,556.1465,514.5576,552.1465" style="stroke:#181818;stroke-width:1.0;"/><line style="stroke:#181818;stroke-width:1.0;" x1="512.5576" x2="999.1616" y1="552.1465" y2="552.1465"/><text fill="#000000" font-family="sans-serif" font-size="13" font-weight="bold" lengthAdjust="spacing" textLength="17.1514" x="524.5576" y="547.4043">13</text><text fill="#000000" font-family="sans-serif" font-size="13" lengthAdjust="spacing" textLength="447.4526" x="545.709" y="547.4043">errorMessage("Invalid request or category already in requested status")</text><line style="stroke:#000000;stroke-width:1.0;stroke-dasharray:2.0,2.0;" x1="399.6162" x2="1779.9775" y1="561.1465" y2="561.1465"/><text fill="#000000" font-family="sans-serif" font-size="11" font-weight="bold" lengthAdjust="spacing" textLength="68.9863" x="404.6162" y="571.7813">[valid input]</text><polygon fill="#181818" points="1533.7119,592.4121,1543.7119,596.4121,1533.7119,600.4121,1537.7119,596.4121" style="stroke:#181818;stroke-width:1.0;"/><line style="stroke:#181818;stroke-width:1.0;" x1="1010.1616" x2="1539.7119" y1="596.4121" y2="596.4121"/><text fill="#000000" font-family="sans-serif" font-size="13" font-weight="bold" lengthAdjust="spacing" textLength="17.1514" x="1017.1616" y="591.6699">14</text><text fill="#000000" font-family="sans-serif" font-size="13" lengthAdjust="spacing" textLength="71.3794" x="1038.313" y="591.6699">findById(id)</text><polygon fill="#181818" points="1021.1616,621.7227,1011.1616,625.7227,1021.1616,629.7227,1017.1616,625.7227" style="stroke:#181818;stroke-width:1.0;"/><line style="stroke:#181818;stroke-width:1.0;" x1="1015.1616" x2="1544.7119" y1="625.7227" y2="625.7227"/><text fill="#000000" font-family="sans-serif" font-size="13" font-weight="bold" lengthAdjust="spacing" textLength="17.1514" x="1027.1616" y="620.9805">15</text><text fill="#000000" font-family="sans-serif" font-size="13" lengthAdjust="spacing" textLength="95.9448" x="1048.313" y="620.9805">FigureCategory</text><polygon fill="#181818" points="1699.3149,651.0332,1709.3149,655.0332,1699.3149,659.0332,1703.3149,655.0332" style="stroke:#181818;stroke-width:1.0;"/><line style="stroke:#181818;stroke-width:1.0;" x1="1010.1616" x2="1705.3149" y1="655.0332" y2="655.0332"/><text fill="#000000" font-family="sans-serif" font-size="13" font-weight="bold" lengthAdjust="spacing" textLength="17.1514" x="1017.1616" y="650.291">16</text><text fill="#000000" font-family="sans-serif" font-size="13" lengthAdjust="spacing" textLength="129.2827" x="1038.313" y="650.291">updateStatus(action)</text><polygon fill="#181818" points="1533.7119,680.3438,1543.7119,684.3438,1533.7119,688.3438,1537.7119,684.3438" style="stroke:#181818;stroke-width:1.0;"/><line style="stroke:#181818;stroke-width:1.0;" x1="1010.1616" x2="1539.7119" y1="684.3438" y2="684.3438"/><text fill="#000000" font-family="sans-serif" font-size="13" font-weight="bold" lengthAdjust="spacing" textLength="17.1514" x="1017.1616" y="679.6016">17</text><text fill="#000000" font-family="sans-serif" font-size="13" lengthAdjust="spacing" textLength="132.1772" x="1038.313" y="679.6016">save(FigureCategory)</text><polygon fill="#181818" points="1021.1616,709.6543,1011.1616,713.6543,1021.1616,717.6543,1017.1616,713.6543" style="stroke:#181818;stroke-width:1.0;"/><line style="stroke:#181818;stroke-width:1.0;" x1="1015.1616" x2="1544.7119" y1="713.6543" y2="713.6543"/><text fill="#000000" font-family="sans-serif" font-size="13" font-weight="bold" lengthAdjust="spacing" textLength="17.1514" x="1027.1616" y="708.9121">18</text><text fill="#000000" font-family="sans-serif" font-size="13" lengthAdjust="spacing" textLength="80.5581" x="1048.313" y="708.9121">confirmation</text><polygon fill="#181818" points="518.5576,738.9648,508.5576,742.9648,518.5576,746.9648,514.5576,742.9648" style="stroke:#181818;stroke-width:1.0;"/><line style="stroke:#181818;stroke-width:1.0;" x1="512.5576" x2="999.1616" y1="742.9648" y2="742.9648"/><text fill="#000000" font-family="sans-serif" font-size="13" font-weight="bold" lengthAdjust="spacing" textLength="17.1514" x="524.5576" y="738.2227">19</text><text fill="#000000" font-family="sans-serif" font-size="13" lengthAdjust="spacing" textLength="355.5068" x="545.709" y="738.2227">successMessage("Category status updated successfully")</text><line style="stroke:#000000;stroke-width:1.0;stroke-dasharray:2.0,2.0;" x1="10" x2="1789.9775" y1="758.9648" y2="758.9648"/><text fill="#000000" font-family="sans-serif" font-size="11" font-weight="bold" lengthAdjust="spacing" textLength="150.498" x="15" y="769.5996">[role is not ShowDesigner]</text><polygon fill="#181818" points="87.0156,790.2305,77.0156,794.2305,87.0156,798.2305,83.0156,794.2305" style="stroke:#181818;stroke-width:1.0;"/><line style="stroke:#181818;stroke-width:1.0;" x1="81.0156" x2="496.5576" y1="794.2305" y2="794.2305"/><text fill="#000000" font-family="sans-serif" font-size="13" font-weight="bold" lengthAdjust="spacing" textLength="17.1514" x="93.0156" y="789.4883">20</text><text fill="#000000" font-family="sans-serif" font-size="13" lengthAdjust="spacing" textLength="376.3906" x="114.167" y="789.4883">errorMessage("Access denied: ShowDesigner role required")</text><!--SRC=[ZLJBZjim3BpxAuYS7A3z0HyAfEuk4A3T3V8u52XGg19j2t4aLvApzT-NaX-nd6RHN1o9v70u96NFKZNCi0jSjDAyClg2u4oBYPqi3UDdLkB1TJM2GUwOAkkvWwsOq6zIbL2mscAIiDPfrLv-eQ7_t6a3gqEbtxwWbQL2im9cOPCVN_S90JZ9PSEKWrMMLmIDENDOQjCT77EjFMs3-sdx7xwvLixekXvIvCVzrqNK3esLrg7Yw9tnZmkUkppsAmBhxeVAzjXeA_tXkRyB_i-1_VUVsvV3SVEIFyNHPeeXW6TPjcRYUOCBEFkdtMiS6xltoQAhHK6RrbN4Z0diLPsEGNbvfQX1wYHyuECdqX8oQkJl5gspm8EGe0lWGmgmGSqP0gbFGHHwmy-WH9Utng1o9uicNIStOvybWvOCaCvxlnw0l9LNoCzxNMCQZySwORK3QYI2j30t9K2_7i0tbyhW1eaW9G-cYN1elRy9RkI-ott9W_WIBKL40JG1_hpBlVEolRCqKT3T67Zhyj83-ZulG0I-3zCpyVGpU3H3Io0gOgQGbrXeBzyepqsvR6Xxl3-f51z2TLgj8_Nwa2khfV0LBDrykwGAPleshGDQULPJkQAZYt7MK8oJ1SDlnFTKqHXjlg6rzDQag-q0DuHwm6aytq5UzOIGdY6OyRbBs3Uaa4fyxhQ22bfFBjxqIFexdDXC0zzuWGOrvnBT9xViYcaS_uW4rwgGvi8yt3-riotdfDoaNXvlya1BZ7v5MzVTA9KIoNAEmlO43SSbLDezMiGmlClsRK8UmbGIHHQ5zfY-STAW81Q1mImxFJQpK_zu_GK0]--></g></svg>