<svg xmlns="http://www.w3.org/2000/svg" xmlns:xlink="http://www.w3.org/1999/xlink" contentStyleType="text/css" height="720px" preserveAspectRatio="none" style="width:1059px;height:720px;background:#FFFFFF;" version="1.1" viewBox="0 0 1059 720" width="1059px" zoomAndPan="magnify"><title>System Sequence Diagram (SSD) - Add Figure to the catalogue</title><defs/><g><text fill="#000000" font-family="sans-serif" font-size="14" font-weight="bold" lengthAdjust="spacing" textLength="419.3027" x="321.0254" y="30.1074">System Sequence Diagram (SSD) - Add Figure to the catalogue</text><rect fill="#FFFFFF" height="494.4141" style="stroke:#181818;stroke-width:1.0;" width="10" x="65.4688" y="133.2422"/><rect fill="#FFFFFF" height="31.291" style="stroke:#181818;stroke-width:1.0;" width="10" x="667.6294" y="156.5332"/><rect fill="#FFFFFF" height="31.291" style="stroke:#181818;stroke-width:1.0;" width="10" x="667.6294" y="219.1152"/><rect fill="#FFFFFF" height="31.291" style="stroke:#181818;stroke-width:1.0;" width="10" x="667.6294" y="281.6973"/><rect fill="#FFFFFF" height="268.377" style="stroke:#181818;stroke-width:1.0;" width="10" x="667.6294" y="344.2793"/><rect fill="#FFFFFF" height="28" style="stroke:#181818;stroke-width:1.0;" width="10" x="672.6294" y="383.5703"/><rect fill="#FFFFFF" height="42.291" style="stroke:#181818;stroke-width:1.0;" width="10" x="672.6294" y="532.0742"/><rect fill="none" height="187.0859" style="stroke:#000000;stroke-width:1.5;" width="1042.3535" x="10" y="433.5703"/><line style="stroke:#181818;stroke-width:0.5;stroke-dasharray:5.0,5.0;" x1="70" x2="70" y1="123.2422" y2="637.6563"/><line style="stroke:#181818;stroke-width:0.5;stroke-dasharray:5.0,5.0;" x1="672.3467" x2="672.3467" y1="123.2422" y2="637.6563"/><text fill="#000000" font-family="sans-serif" font-size="14" lengthAdjust="spacing" textLength="94.9375" x="20" y="119.7285">Show Designer</text><ellipse cx="70.4688" cy="53.1211" fill="#E3E3E3" rx="8" ry="8" style="stroke:#181818;stroke-width:0.5;"/><path d="M70.4688,61.1211 L70.4688,88.1211 M57.4688,69.1211 L83.4688,69.1211 M70.4688,88.1211 L57.4688,103.1211 M70.4688,88.1211 L83.4688,103.1211 " fill="none" style="stroke:#181818;stroke-width:0.5;"/><text fill="#000000" font-family="sans-serif" font-size="14" lengthAdjust="spacing" textLength="94.9375" x="20" y="651.7637">Show Designer</text><ellipse cx="70.4688" cy="663.7773" fill="#E3E3E3" rx="8" ry="8" style="stroke:#181818;stroke-width:0.5;"/><path d="M70.4688,671.7773 L70.4688,698.7773 M57.4688,679.7773 L83.4688,679.7773 M70.4688,698.7773 L57.4688,713.7773 M70.4688,698.7773 L83.4688,713.7773 " fill="none" style="stroke:#181818;stroke-width:0.5;"/><rect fill="#E3E3E3" height="32.6211" rx="2.5" ry="2.5" style="stroke:#181818;stroke-width:0.5;" width="64.5654" x="640.3467" y="89.6211"/><text fill="#000000" font-family="sans-serif" font-size="14" lengthAdjust="spacing" textLength="50.5654" x="647.3467" y="111.7285">:System</text><rect fill="#E3E3E3" height="32.6211" rx="2.5" ry="2.5" style="stroke:#181818;stroke-width:0.5;" width="64.5654" x="640.3467" y="636.6563"/><text fill="#000000" font-family="sans-serif" font-size="14" lengthAdjust="spacing" textLength="50.5654" x="647.3467" y="658.7637">:System</text><rect fill="#FFFFFF" height="494.4141" style="stroke:#181818;stroke-width:1.0;" width="10" x="65.4688" y="133.2422"/><rect fill="#FFFFFF" height="31.291" style="stroke:#181818;stroke-width:1.0;" width="10" x="667.6294" y="156.5332"/><rect fill="#FFFFFF" height="31.291" style="stroke:#181818;stroke-width:1.0;" width="10" x="667.6294" y="219.1152"/><rect fill="#FFFFFF" height="31.291" style="stroke:#181818;stroke-width:1.0;" width="10" x="667.6294" y="281.6973"/><rect fill="#FFFFFF" height="268.377" style="stroke:#181818;stroke-width:1.0;" width="10" x="667.6294" y="344.2793"/><rect fill="#FFFFFF" height="28" style="stroke:#181818;stroke-width:1.0;" width="10" x="672.6294" y="383.5703"/><rect fill="#FFFFFF" height="42.291" style="stroke:#181818;stroke-width:1.0;" width="10" x="672.6294" y="532.0742"/><polygon fill="#181818" points="655.6294,152.5332,665.6294,156.5332,655.6294,160.5332,659.6294,156.5332" style="stroke:#181818;stroke-width:1.0;"/><line style="stroke:#181818;stroke-width:1.0;" x1="75.4688" x2="661.6294" y1="156.5332" y2="156.5332"/><text fill="#000000" font-family="sans-serif" font-size="13" font-weight="bold" lengthAdjust="spacing" textLength="7.23" x="82.4688" y="151.2705">1</text><text fill="#000000" font-family="sans-serif" font-size="13" lengthAdjust="spacing" textLength="36.1245" x="93.6987" y="151.2705">login()</text><polygon fill="#181818" points="86.4688,183.8242,76.4688,187.8242,86.4688,191.8242,82.4688,187.8242" style="stroke:#181818;stroke-width:1.0;"/><line style="stroke:#181818;stroke-width:1.0;stroke-dasharray:2.0,2.0;" x1="80.4688" x2="671.6294" y1="187.8242" y2="187.8242"/><text fill="#000000" font-family="sans-serif" font-size="13" font-weight="bold" lengthAdjust="spacing" textLength="7.23" x="92.4688" y="182.5615">2</text><text fill="#000000" font-family="sans-serif" font-size="13" lengthAdjust="spacing" textLength="78.0635" x="103.6987" y="182.5615">authenticated</text><polygon fill="#181818" points="655.6294,215.1152,665.6294,219.1152,655.6294,223.1152,659.6294,219.1152" style="stroke:#181818;stroke-width:1.0;"/><line style="stroke:#181818;stroke-width:1.0;" x1="75.4688" x2="661.6294" y1="219.1152" y2="219.1152"/><text fill="#000000" font-family="sans-serif" font-size="13" font-weight="bold" lengthAdjust="spacing" textLength="7.23" x="82.4688" y="213.8525">3</text><text fill="#000000" font-family="sans-serif" font-size="13" lengthAdjust="spacing" textLength="128.6162" x="93.6987" y="213.8525">ask to register a figure</text><polygon fill="#181818" points="86.4688,246.4063,76.4688,250.4063,86.4688,254.4063,82.4688,250.4063" style="stroke:#181818;stroke-width:1.0;"/><line style="stroke:#181818;stroke-width:1.0;stroke-dasharray:2.0,2.0;" x1="80.4688" x2="671.6294" y1="250.4063" y2="250.4063"/><text fill="#000000" font-family="sans-serif" font-size="13" font-weight="bold" lengthAdjust="spacing" textLength="7.23" x="92.4688" y="245.1436">4</text><text fill="#000000" font-family="sans-serif" font-size="13" lengthAdjust="spacing" textLength="339.6123" x="103.6987" y="245.1436">request data (id, name, description, version, categoryId, ...)</text><polygon fill="#181818" points="655.6294,277.6973,665.6294,281.6973,655.6294,285.6973,659.6294,281.6973" style="stroke:#181818;stroke-width:1.0;"/><line style="stroke:#181818;stroke-width:1.0;" x1="75.4688" x2="661.6294" y1="281.6973" y2="281.6973"/><text fill="#000000" font-family="sans-serif" font-size="13" font-weight="bold" lengthAdjust="spacing" textLength="7.23" x="82.4688" y="276.4346">5</text><text fill="#000000" font-family="sans-serif" font-size="13" lengthAdjust="spacing" textLength="388.7559" x="93.6987" y="276.4346">types requested data (id, name, description, version, categoryId, ...)</text><polygon fill="#181818" points="86.4688,308.9883,76.4688,312.9883,86.4688,316.9883,82.4688,312.9883" style="stroke:#181818;stroke-width:1.0;"/><line style="stroke:#181818;stroke-width:1.0;stroke-dasharray:2.0,2.0;" x1="80.4688" x2="671.6294" y1="312.9883" y2="312.9883"/><text fill="#000000" font-family="sans-serif" font-size="13" font-weight="bold" lengthAdjust="spacing" textLength="7.23" x="92.4688" y="307.7256">6</text><text fill="#000000" font-family="sans-serif" font-size="13" lengthAdjust="spacing" textLength="230.5024" x="103.6987" y="307.7256">show all data registered for confirmation</text><polygon fill="#181818" points="655.6294,340.2793,665.6294,344.2793,655.6294,348.2793,659.6294,344.2793" style="stroke:#181818;stroke-width:1.0;"/><line style="stroke:#181818;stroke-width:1.0;" x1="75.4688" x2="661.6294" y1="344.2793" y2="344.2793"/><text fill="#000000" font-family="sans-serif" font-size="13" font-weight="bold" lengthAdjust="spacing" textLength="7.23" x="82.4688" y="339.0166">7</text><text fill="#000000" font-family="sans-serif" font-size="13" lengthAdjust="spacing" textLength="343.9224" x="93.6987" y="339.0166">registerFigure(id, name, description, version, categoryId, ...)</text><line style="stroke:#181818;stroke-width:1.0;" x1="682.6294" x2="724.6294" y1="375.5703" y2="375.5703"/><line style="stroke:#181818;stroke-width:1.0;" x1="724.6294" x2="724.6294" y1="375.5703" y2="388.5703"/><line style="stroke:#181818;stroke-width:1.0;" x1="683.6294" x2="724.6294" y1="388.5703" y2="388.5703"/><polygon fill="#181818" points="693.6294,384.5703,683.6294,388.5703,693.6294,392.5703,689.6294,388.5703" style="stroke:#181818;stroke-width:1.0;"/><text fill="#000000" font-family="sans-serif" font-size="13" font-weight="bold" lengthAdjust="spacing" textLength="7.23" x="689.6294" y="370.3076">8</text><text fill="#000000" font-family="sans-serif" font-size="13" lengthAdjust="spacing" textLength="80.9199" x="700.8594" y="370.3076">validations(...)</text><path d="M10,433.5703 L70.1709,433.5703 L70.1709,442.8613 L60.1709,452.8613 L10,452.8613 L10,433.5703 " fill="#EEEEEE" style="stroke:#000000;stroke-width:1.5;"/><rect fill="none" height="187.0859" style="stroke:#000000;stroke-width:1.5;" width="1042.3535" x="10" y="433.5703"/><text fill="#000000" font-family="sans-serif" font-size="13" font-weight="bold" lengthAdjust="spacing" textLength="15.1709" x="25" y="448.5986">alt</text><text fill="#000000" font-family="sans-serif" font-size="11" font-weight="bold" lengthAdjust="spacing" textLength="383.8613" x="85.1709" y="447.4404">[id invalid, duplicate, or invalid name, description, version, categoryId, ...]</text><polygon fill="#181818" points="86.4688,472.1523,76.4688,476.1523,86.4688,480.1523,82.4688,476.1523" style="stroke:#181818;stroke-width:1.0;"/><line style="stroke:#181818;stroke-width:1.0;stroke-dasharray:2.0,2.0;" x1="80.4688" x2="666.6294" y1="476.1523" y2="476.1523"/><text fill="#000000" font-family="sans-serif" font-size="13" font-weight="bold" lengthAdjust="spacing" textLength="7.23" x="92.4688" y="470.8896">9</text><text fill="#000000" font-family="sans-serif" font-size="13" lengthAdjust="spacing" textLength="556.9307" x="103.6987" y="470.8896">errorMessage("Invalid or duplicate figure id, or invalid name, description, version, categoryId, ...")</text><line style="stroke:#000000;stroke-width:1.0;stroke-dasharray:2.0,2.0;" x1="10" x2="1052.3535" y1="485.1523" y2="485.1523"/><text fill="#000000" font-family="sans-serif" font-size="11" font-weight="bold" lengthAdjust="spacing" textLength="374.0752" x="15" y="497.0225">[id valid and unique and name, description, version, categoryId, .. valid]</text><line style="stroke:#181818;stroke-width:1.0;" x1="677.6294" x2="724.6294" y1="519.0742" y2="519.0742"/><line style="stroke:#181818;stroke-width:1.0;" x1="724.6294" x2="724.6294" y1="519.0742" y2="532.0742"/><line style="stroke:#181818;stroke-width:1.0;" x1="683.6294" x2="724.6294" y1="532.0742" y2="532.0742"/><polygon fill="#181818" points="693.6294,528.0742,683.6294,532.0742,693.6294,536.0742,689.6294,532.0742" style="stroke:#181818;stroke-width:1.0;"/><text fill="#000000" font-family="sans-serif" font-size="13" font-weight="bold" lengthAdjust="spacing" textLength="14.46" x="689.6294" y="513.8115">10</text><text fill="#000000" font-family="sans-serif" font-size="13" lengthAdjust="spacing" textLength="322.2642" x="708.0894" y="513.8115">addFigure(id, name, description, version, categoryId, ...)</text><line style="stroke:#181818;stroke-width:1.0;stroke-dasharray:2.0,2.0;" x1="682.6294" x2="724.6294" y1="573.3652" y2="573.3652"/><line style="stroke:#181818;stroke-width:1.0;stroke-dasharray:2.0,2.0;" x1="724.6294" x2="724.6294" y1="573.3652" y2="586.3652"/><line style="stroke:#181818;stroke-width:1.0;stroke-dasharray:2.0,2.0;" x1="677.6294" x2="724.6294" y1="586.3652" y2="586.3652"/><polygon fill="#181818" points="687.6294,582.3652,677.6294,586.3652,687.6294,590.3652,683.6294,586.3652" style="stroke:#181818;stroke-width:1.0;"/><text fill="#000000" font-family="sans-serif" font-size="13" font-weight="bold" lengthAdjust="spacing" textLength="14.46" x="689.6294" y="568.1025">11</text><text fill="#000000" font-family="sans-serif" font-size="13" lengthAdjust="spacing" textLength="73.7026" x="708.0894" y="568.1025">figure Object</text><polygon fill="#181818" points="86.4688,608.6563,76.4688,612.6563,86.4688,616.6563,82.4688,612.6563" style="stroke:#181818;stroke-width:1.0;"/><line style="stroke:#181818;stroke-width:1.0;stroke-dasharray:2.0,2.0;" x1="80.4688" x2="671.6294" y1="612.6563" y2="612.6563"/><text fill="#000000" font-family="sans-serif" font-size="13" font-weight="bold" lengthAdjust="spacing" textLength="14.46" x="92.4688" y="607.3936">12</text><text fill="#000000" font-family="sans-serif" font-size="13" lengthAdjust="spacing" textLength="291.7446" x="110.9287" y="607.3936">confirmationMessage("Figure added successfully")</text><!--SRC=[hLH1hfim4DrpYX4h8YKvG1QLAg5AVr5rmGdcsmEuCJQrJRwuVSU64DgF8XgLbSMycJVlpTZ-gaoF3ZlehB6YTROZ26wWp2-H7iKL6wh2g0aSYO2cqMk0Rr7Q3sKQg55xohAW0aEhqGVgeA9V0nb1K2fi8hoegl809_Wg9NnJpU2OqK9e2GG6rBPXzWo7OCtGlPFZimZMGLwrzWDAygenv7903rMPSGT12TMZ2P1V9iefbeufMTqmK0Hdm5zLmkdB7Bu0qobJ75Ba0Prp4tnISOevvGMuhvOCKp9EJWX9VoT-fa5_ZI8TDOf_E42ea_9iDx6BDle0aZs2GiaZ6EpeoEnUEDK7PSqHRkHyEiJs6kl6DyQTp-V3xaR3s9E_av5ybMwtB1-7YbfFH7T_cBZcaGjhQkKwZ6ox5TnhJAlrFrjVj__Wkw5MChNeYyNgfpK-gtZaw01AWZAfAlSyz3hjsX7OZ_dtl-XPAczuJyvPzvsyvzjTv6zpSUPPMESjXTZAQ_pvmm_Yjo6AcsgWaJ0OnNkMZljBJlcRkbRtJSfNvxyklBLjMsREhBDRFzv_yYlv1_Z9o3S6izxxPJxpKydA-7RuGGWEr8FMO_xiTYVZ3RzKMRO6bF77Rm00]--></g></svg>