<svg xmlns="http://www.w3.org/2000/svg" xmlns:xlink="http://www.w3.org/1999/xlink" contentStyleType="text/css" height="1004px" preserveAspectRatio="none" style="width:832px;height:1004px;background:#FFFFFF;" version="1.1" viewBox="0 0 832 1004" width="832px" zoomAndPan="magnify"><title>System Sequence Diagram (SSD) - Edit a Maintenance Type</title><defs/><g><text fill="#000000" font-family="sans-serif" font-size="14" font-weight="bold" lengthAdjust="spacing" textLength="397.5576" x="218.4148" y="30.1074">System Sequence Diagram (SSD) - Edit a Maintenance Type</text><rect fill="#FFFFFF" height="778.2949" style="stroke:#181818;stroke-width:1.0;" width="10" x="74.5723" y="133.2422"/><rect fill="#FFFFFF" height="101.873" style="stroke:#181818;stroke-width:1.0;" width="10" x="466.5449" y="156.5332"/><rect fill="none" height="688.7129" style="stroke:#000000;stroke-width:1.5;" width="815.3872" x="10" y="215.8242"/><rect fill="none" height="83.873" style="stroke:#000000;stroke-width:1.5;" width="483.8276" x="30" y="415.2012"/><rect fill="none" height="83.873" style="stroke:#000000;stroke-width:1.5;" width="483.8276" x="30" y="575.6563"/><rect fill="none" height="224.0078" style="stroke:#000000;stroke-width:1.5;" width="795.3872" x="20" y="673.5293"/><rect fill="none" height="98.5039" style="stroke:#000000;stroke-width:1.5;" width="483.8276" x="30" y="792.0332"/><line style="stroke:#181818;stroke-width:0.5;stroke-dasharray:5.0,5.0;" x1="79" x2="79" y1="123.2422" y2="921.5371"/><line style="stroke:#181818;stroke-width:0.5;stroke-dasharray:5.0,5.0;" x1="471.2622" x2="471.2622" y1="123.2422" y2="921.5371"/><text fill="#000000" font-family="sans-serif" font-size="14" lengthAdjust="spacing" textLength="73.1445" x="40" y="119.7285">Drone Tech</text><ellipse cx="79.5723" cy="53.1211" fill="#E3E3E3" rx="8" ry="8" style="stroke:#181818;stroke-width:0.5;"/><path d="M79.5723,61.1211 L79.5723,88.1211 M66.5723,69.1211 L92.5723,69.1211 M79.5723,88.1211 L66.5723,103.1211 M79.5723,88.1211 L92.5723,103.1211 " fill="none" style="stroke:#181818;stroke-width:0.5;"/><text fill="#000000" font-family="sans-serif" font-size="14" lengthAdjust="spacing" textLength="73.1445" x="40" y="935.6445">Drone Tech</text><ellipse cx="79.5723" cy="947.6582" fill="#E3E3E3" rx="8" ry="8" style="stroke:#181818;stroke-width:0.5;"/><path d="M79.5723,955.6582 L79.5723,982.6582 M66.5723,963.6582 L92.5723,963.6582 M79.5723,982.6582 L66.5723,997.6582 M79.5723,982.6582 L92.5723,997.6582 " fill="none" style="stroke:#181818;stroke-width:0.5;"/><rect fill="#E3E3E3" height="32.6211" rx="2.5" ry="2.5" style="stroke:#181818;stroke-width:0.5;" width="64.5654" x="439.2622" y="89.6211"/><text fill="#000000" font-family="sans-serif" font-size="14" lengthAdjust="spacing" textLength="50.5654" x="446.2622" y="111.7285">:System</text><rect fill="#E3E3E3" height="32.6211" rx="2.5" ry="2.5" style="stroke:#181818;stroke-width:0.5;" width="64.5654" x="439.2622" y="920.5371"/><text fill="#000000" font-family="sans-serif" font-size="14" lengthAdjust="spacing" textLength="50.5654" x="446.2622" y="942.6445">:System</text><rect fill="#FFFFFF" height="778.2949" style="stroke:#181818;stroke-width:1.0;" width="10" x="74.5723" y="133.2422"/><rect fill="#FFFFFF" height="101.873" style="stroke:#181818;stroke-width:1.0;" width="10" x="466.5449" y="156.5332"/><polygon fill="#181818" points="454.5449,152.5332,464.5449,156.5332,454.5449,160.5332,458.5449,156.5332" style="stroke:#181818;stroke-width:1.0;"/><line style="stroke:#181818;stroke-width:1.0;" x1="84.5723" x2="460.5449" y1="156.5332" y2="156.5332"/><text fill="#000000" font-family="sans-serif" font-size="13" font-weight="bold" lengthAdjust="spacing" textLength="7.23" x="91.5723" y="151.2705">1</text><text fill="#000000" font-family="sans-serif" font-size="13" lengthAdjust="spacing" textLength="205.9624" x="102.8022" y="151.2705">requests to edit a maintenance type</text><line style="stroke:#181818;stroke-width:1.0;" x1="476.5449" x2="518.5449" y1="187.8242" y2="187.8242"/><line style="stroke:#181818;stroke-width:1.0;" x1="518.5449" x2="518.5449" y1="187.8242" y2="200.8242"/><line style="stroke:#181818;stroke-width:1.0;" x1="477.5449" x2="518.5449" y1="200.8242" y2="200.8242"/><polygon fill="#181818" points="487.5449,196.8242,477.5449,200.8242,487.5449,204.8242,483.5449,200.8242" style="stroke:#181818;stroke-width:1.0;"/><text fill="#000000" font-family="sans-serif" font-size="13" font-weight="bold" lengthAdjust="spacing" textLength="7.23" x="483.5449" y="182.5615">2</text><text fill="#000000" font-family="sans-serif" font-size="13" lengthAdjust="spacing" textLength="161.8462" x="494.7749" y="182.5615">retrieveMaintenanceTypes()</text><path d="M10,215.8242 L70.1709,215.8242 L70.1709,225.1152 L60.1709,235.1152 L10,235.1152 L10,215.8242 " fill="#EEEEEE" style="stroke:#000000;stroke-width:1.5;"/><rect fill="none" height="688.7129" style="stroke:#000000;stroke-width:1.5;" width="815.3872" x="10" y="215.8242"/><text fill="#000000" font-family="sans-serif" font-size="13" font-weight="bold" lengthAdjust="spacing" textLength="15.1709" x="25" y="230.8525">alt</text><text fill="#000000" font-family="sans-serif" font-size="11" font-weight="bold" lengthAdjust="spacing" textLength="150.9868" x="85.1709" y="229.6943">[no maintenance types exist]</text><polygon fill="#181818" points="95.5723,254.4063,85.5723,258.4063,95.5723,262.4063,91.5723,258.4063" style="stroke:#181818;stroke-width:1.0;"/><line style="stroke:#181818;stroke-width:1.0;stroke-dasharray:2.0,2.0;" x1="89.5723" x2="470.5449" y1="258.4063" y2="258.4063"/><text fill="#000000" font-family="sans-serif" font-size="13" font-weight="bold" lengthAdjust="spacing" textLength="7.23" x="101.5723" y="253.1436">3</text><text fill="#000000" font-family="sans-serif" font-size="13" lengthAdjust="spacing" textLength="328.5864" x="112.8022" y="253.1436">errorMessage("No maintenance types in the system yet")</text><line style="stroke:#000000;stroke-width:1.0;stroke-dasharray:2.0,2.0;" x1="10" x2="825.3872" y1="267.4063" y2="267.4063"/><text fill="#000000" font-family="sans-serif" font-size="11" font-weight="bold" lengthAdjust="spacing" textLength="134.4922" x="15" y="279.2764">[maintenance types exist]</text><polygon fill="#181818" points="95.5723,302.3281,85.5723,306.3281,95.5723,310.3281,91.5723,306.3281" style="stroke:#181818;stroke-width:1.0;"/><line style="stroke:#181818;stroke-width:1.0;stroke-dasharray:2.0,2.0;" x1="89.5723" x2="470.5449" y1="306.3281" y2="306.3281"/><text fill="#000000" font-family="sans-serif" font-size="13" font-weight="bold" lengthAdjust="spacing" textLength="7.23" x="101.5723" y="301.0654">4</text><text fill="#000000" font-family="sans-serif" font-size="13" lengthAdjust="spacing" textLength="145.958" x="112.8022" y="301.0654">selectMaintenanceType()</text><polygon fill="#181818" points="459.5449,333.6191,469.5449,337.6191,459.5449,341.6191,463.5449,337.6191" style="stroke:#181818;stroke-width:1.0;"/><line style="stroke:#181818;stroke-width:1.0;" x1="84.5723" x2="465.5449" y1="337.6191" y2="337.6191"/><text fill="#000000" font-family="sans-serif" font-size="13" font-weight="bold" lengthAdjust="spacing" textLength="7.23" x="91.5723" y="332.3564">5</text><text fill="#000000" font-family="sans-serif" font-size="13" lengthAdjust="spacing" textLength="257.2515" x="102.8022" y="332.3564">provideMaintenanceTypeSelection(identifier)</text><polygon fill="#181818" points="95.5723,364.9102,85.5723,368.9102,95.5723,372.9102,91.5723,368.9102" style="stroke:#181818;stroke-width:1.0;"/><line style="stroke:#181818;stroke-width:1.0;stroke-dasharray:2.0,2.0;" x1="89.5723" x2="470.5449" y1="368.9102" y2="368.9102"/><text fill="#000000" font-family="sans-serif" font-size="13" font-weight="bold" lengthAdjust="spacing" textLength="7.23" x="101.5723" y="363.6475">6</text><text fill="#000000" font-family="sans-serif" font-size="13" lengthAdjust="spacing" textLength="108.3545" x="112.8022" y="363.6475">confirmEditName()</text><polygon fill="#181818" points="459.5449,396.2012,469.5449,400.2012,459.5449,404.2012,463.5449,400.2012" style="stroke:#181818;stroke-width:1.0;"/><line style="stroke:#181818;stroke-width:1.0;" x1="84.5723" x2="465.5449" y1="400.2012" y2="400.2012"/><text fill="#000000" font-family="sans-serif" font-size="13" font-weight="bold" lengthAdjust="spacing" textLength="7.23" x="91.5723" y="394.9385">7</text><text fill="#000000" font-family="sans-serif" font-size="13" lengthAdjust="spacing" textLength="163.9917" x="102.8022" y="394.9385">confirmNameEdit(editName)</text><path d="M30,415.2012 L90.1709,415.2012 L90.1709,424.4922 L80.1709,434.4922 L30,434.4922 L30,415.2012 " fill="#EEEEEE" style="stroke:#000000;stroke-width:1.5;"/><rect fill="none" height="83.873" style="stroke:#000000;stroke-width:1.5;" width="483.8276" x="30" y="415.2012"/><text fill="#000000" font-family="sans-serif" font-size="13" font-weight="bold" lengthAdjust="spacing" textLength="15.1709" x="45" y="430.2295">alt</text><text fill="#000000" font-family="sans-serif" font-size="11" font-weight="bold" lengthAdjust="spacing" textLength="90.1592" x="105.1709" y="429.0713">[editName = true]</text><polygon fill="#181818" points="95.5723,453.7832,85.5723,457.7832,95.5723,461.7832,91.5723,457.7832" style="stroke:#181818;stroke-width:1.0;"/><line style="stroke:#181818;stroke-width:1.0;stroke-dasharray:2.0,2.0;" x1="89.5723" x2="470.5449" y1="457.7832" y2="457.7832"/><text fill="#000000" font-family="sans-serif" font-size="13" font-weight="bold" lengthAdjust="spacing" textLength="7.23" x="101.5723" y="452.5205">8</text><text fill="#000000" font-family="sans-serif" font-size="13" lengthAdjust="spacing" textLength="112.7026" x="112.8022" y="452.5205">requestNewName()</text><polygon fill="#181818" points="459.5449,485.0742,469.5449,489.0742,459.5449,493.0742,463.5449,489.0742" style="stroke:#181818;stroke-width:1.0;"/><line style="stroke:#181818;stroke-width:1.0;" x1="84.5723" x2="465.5449" y1="489.0742" y2="489.0742"/><text fill="#000000" font-family="sans-serif" font-size="13" font-weight="bold" lengthAdjust="spacing" textLength="7.23" x="91.5723" y="483.8115">9</text><text fill="#000000" font-family="sans-serif" font-size="13" lengthAdjust="spacing" textLength="170.5044" x="102.8022" y="483.8115">provideNewName(newName)</text><line style="stroke:#000000;stroke-width:1.0;stroke-dasharray:2.0,2.0;" x1="30" x2="513.8276" y1="498.0742" y2="498.0742"/><polygon fill="#181818" points="95.5723,525.3652,85.5723,529.3652,95.5723,533.3652,91.5723,529.3652" style="stroke:#181818;stroke-width:1.0;"/><line style="stroke:#181818;stroke-width:1.0;stroke-dasharray:2.0,2.0;" x1="89.5723" x2="470.5449" y1="529.3652" y2="529.3652"/><text fill="#000000" font-family="sans-serif" font-size="13" font-weight="bold" lengthAdjust="spacing" textLength="14.46" x="101.5723" y="524.1025">10</text><text fill="#000000" font-family="sans-serif" font-size="13" lengthAdjust="spacing" textLength="138.7026" x="120.0322" y="524.1025">confirmEditDescription()</text><polygon fill="#181818" points="459.5449,556.6563,469.5449,560.6563,459.5449,564.6563,463.5449,560.6563" style="stroke:#181818;stroke-width:1.0;"/><line style="stroke:#181818;stroke-width:1.0;" x1="84.5723" x2="465.5449" y1="560.6563" y2="560.6563"/><text fill="#000000" font-family="sans-serif" font-size="13" font-weight="bold" lengthAdjust="spacing" textLength="14.46" x="91.5723" y="555.3936">11</text><text fill="#000000" font-family="sans-serif" font-size="13" lengthAdjust="spacing" textLength="224.688" x="110.0322" y="555.3936">confirmDescriptionEdit(editDescription)</text><path d="M30,575.6563 L90.1709,575.6563 L90.1709,584.9473 L80.1709,594.9473 L30,594.9473 L30,575.6563 " fill="#EEEEEE" style="stroke:#000000;stroke-width:1.5;"/><rect fill="none" height="83.873" style="stroke:#000000;stroke-width:1.5;" width="483.8276" x="30" y="575.6563"/><text fill="#000000" font-family="sans-serif" font-size="13" font-weight="bold" lengthAdjust="spacing" textLength="15.1709" x="45" y="590.6846">alt</text><text fill="#000000" font-family="sans-serif" font-size="11" font-weight="bold" lengthAdjust="spacing" textLength="120.71" x="105.1709" y="589.5264">[editDescription = true]</text><polygon fill="#181818" points="95.5723,614.2383,85.5723,618.2383,95.5723,622.2383,91.5723,618.2383" style="stroke:#181818;stroke-width:1.0;"/><line style="stroke:#181818;stroke-width:1.0;stroke-dasharray:2.0,2.0;" x1="89.5723" x2="470.5449" y1="618.2383" y2="618.2383"/><text fill="#000000" font-family="sans-serif" font-size="13" font-weight="bold" lengthAdjust="spacing" textLength="14.46" x="101.5723" y="612.9756">12</text><text fill="#000000" font-family="sans-serif" font-size="13" lengthAdjust="spacing" textLength="143.0508" x="120.0322" y="612.9756">requestNewDescription()</text><polygon fill="#181818" points="459.5449,645.5293,469.5449,649.5293,459.5449,653.5293,463.5449,649.5293" style="stroke:#181818;stroke-width:1.0;"/><line style="stroke:#181818;stroke-width:1.0;" x1="84.5723" x2="465.5449" y1="649.5293" y2="649.5293"/><text fill="#000000" font-family="sans-serif" font-size="13" font-weight="bold" lengthAdjust="spacing" textLength="14.46" x="91.5723" y="644.2666">13</text><text fill="#000000" font-family="sans-serif" font-size="13" lengthAdjust="spacing" textLength="231.2007" x="110.0322" y="644.2666">provideNewDescription(newDescription)</text><line style="stroke:#000000;stroke-width:1.0;stroke-dasharray:2.0,2.0;" x1="30" x2="513.8276" y1="658.5293" y2="658.5293"/><path d="M20,673.5293 L80.1709,673.5293 L80.1709,682.8203 L70.1709,692.8203 L20,692.8203 L20,673.5293 " fill="#EEEEEE" style="stroke:#000000;stroke-width:1.5;"/><rect fill="none" height="224.0078" style="stroke:#000000;stroke-width:1.5;" width="795.3872" x="20" y="673.5293"/><text fill="#000000" font-family="sans-serif" font-size="13" font-weight="bold" lengthAdjust="spacing" textLength="15.1709" x="35" y="688.5576">alt</text><text fill="#000000" font-family="sans-serif" font-size="11" font-weight="bold" lengthAdjust="spacing" textLength="117.9546" x="95.1709" y="687.3994">[no changes provided]</text><polygon fill="#181818" points="95.5723,712.1113,85.5723,716.1113,95.5723,720.1113,91.5723,716.1113" style="stroke:#181818;stroke-width:1.0;"/><line style="stroke:#181818;stroke-width:1.0;stroke-dasharray:2.0,2.0;" x1="89.5723" x2="470.5449" y1="716.1113" y2="716.1113"/><text fill="#000000" font-family="sans-serif" font-size="13" font-weight="bold" lengthAdjust="spacing" textLength="14.46" x="101.5723" y="710.8486">14</text><text fill="#000000" font-family="sans-serif" font-size="13" lengthAdjust="spacing" textLength="220.9556" x="120.0322" y="710.8486">errorMessage("Nothing has changed")</text><line style="stroke:#000000;stroke-width:1.0;stroke-dasharray:2.0,2.0;" x1="20" x2="815.3872" y1="725.1113" y2="725.1113"/><text fill="#000000" font-family="sans-serif" font-size="11" font-weight="bold" lengthAdjust="spacing" textLength="101.46" x="25" y="736.9814">[changes provided]</text><line style="stroke:#181818;stroke-width:1.0;" x1="471.5449" x2="513.5449" y1="764.0332" y2="764.0332"/><line style="stroke:#181818;stroke-width:1.0;" x1="513.5449" x2="513.5449" y1="764.0332" y2="777.0332"/><line style="stroke:#181818;stroke-width:1.0;" x1="472.5449" x2="513.5449" y1="777.0332" y2="777.0332"/><polygon fill="#181818" points="482.5449,773.0332,472.5449,777.0332,482.5449,781.0332,478.5449,777.0332" style="stroke:#181818;stroke-width:1.0;"/><text fill="#000000" font-family="sans-serif" font-size="13" font-weight="bold" lengthAdjust="spacing" textLength="14.46" x="478.5449" y="758.7705">15</text><text fill="#000000" font-family="sans-serif" font-size="13" lengthAdjust="spacing" textLength="306.3823" x="497.0049" y="758.7705">updateMaintenanceType(newName, newDescription)</text><path d="M30,792.0332 L90.1709,792.0332 L90.1709,801.3242 L80.1709,811.3242 L30,811.3242 L30,792.0332 " fill="#EEEEEE" style="stroke:#000000;stroke-width:1.5;"/><rect fill="none" height="98.5039" style="stroke:#000000;stroke-width:1.5;" width="483.8276" x="30" y="792.0332"/><text fill="#000000" font-family="sans-serif" font-size="13" font-weight="bold" lengthAdjust="spacing" textLength="15.1709" x="45" y="807.0615">alt</text><text fill="#000000" font-family="sans-serif" font-size="11" font-weight="bold" lengthAdjust="spacing" textLength="103.3022" x="105.1709" y="805.9033">[update successful]</text><polygon fill="#181818" points="95.5723,830.6152,85.5723,834.6152,95.5723,838.6152,91.5723,834.6152" style="stroke:#181818;stroke-width:1.0;"/><line style="stroke:#181818;stroke-width:1.0;stroke-dasharray:2.0,2.0;" x1="89.5723" x2="470.5449" y1="834.6152" y2="834.6152"/><text fill="#000000" font-family="sans-serif" font-size="13" font-weight="bold" lengthAdjust="spacing" textLength="14.46" x="101.5723" y="829.3525">16</text><text fill="#000000" font-family="sans-serif" font-size="13" lengthAdjust="spacing" textLength="344.5127" x="120.0322" y="829.3525">successMessage("Maintenance type updated successfully")</text><line style="stroke:#000000;stroke-width:1.0;stroke-dasharray:2.0,2.0;" x1="30" x2="513.8276" y1="843.6152" y2="843.6152"/><text fill="#000000" font-family="sans-serif" font-size="11" font-weight="bold" lengthAdjust="spacing" textLength="75.1685" x="35" y="855.4854">[update failed]</text><polygon fill="#181818" points="95.5723,878.5371,85.5723,882.5371,95.5723,886.5371,91.5723,882.5371" style="stroke:#181818;stroke-width:1.0;"/><line style="stroke:#181818;stroke-width:1.0;stroke-dasharray:2.0,2.0;" x1="89.5723" x2="470.5449" y1="882.5371" y2="882.5371"/><text fill="#000000" font-family="sans-serif" font-size="13" font-weight="bold" lengthAdjust="spacing" textLength="14.46" x="101.5723" y="877.2744">17</text><text fill="#000000" font-family="sans-serif" font-size="13" lengthAdjust="spacing" textLength="297.5527" x="120.0322" y="877.2744">errorMessage("Failed to update maintenance type")</text><!--SRC=[bLJ1afim3Btp5HfEPARx0vbfJxItv49-m3KAU08sjKMs-VlAs127i9ij5y1wajvxjkmkIW_2YXvweurihUaHo8wOkIKo27aH3LPqwn0iIXAwwLA0QqLjtfLku2mwXrb6YXXQtHnX3nN-6L5BX5A9niEBgYfty0O_QqKWu22K9jJ2GqwtWTF5I4QF_M-q_2t9MCXBQpI7KROv20VbAUFMfAGQX2R8zw7N50kVKwQw2a8FpieJlFs8eJsBO4gE790132pwX0Lv5ajwh1VLF5GXg_2AYG3FtnMxJ7G4sZmLTO1_bQCC-9dhSS7oj0UqrjW3EiTE5_bnArTfe1R1XSGRKhwRAjMuvegy2__Jt677sxhIKOJgZyuDrbnLlPPSJVdAw89ZcjHPeTrjDP96dvNj_SuVHR_T8c9ytECAZE20zSxEA_0z75M8pwfPtEKZlYUzFfGqmtHu1xGtSadJXXssgcc97RkemO7s93oR0DRr2yqbEcdLC3drYVG4jZYGh3qQaGI-xCSpZyziIT7wuVTB9jK9mIUlug38bkyKFg6nQVsHXFMKKEjldPQdFbIeypkbrqNlOiUXvl5P3q0y2jzWI_NCFgI26wLaNkUnMw9RWnPGYuB3QaPZjJefrztoUyD9L-nu5gfBHBrqwzU4zrTUBB2-8D8-SNlczyOLmv4iMUPBzXy0]--></g></svg>