<svg xmlns="http://www.w3.org/2000/svg" xmlns:xlink="http://www.w3.org/1999/xlink" contentStyleType="text/css" height="746px" preserveAspectRatio="none" style="width:749px;height:746px;background:#FFFFFF;" version="1.1" viewBox="0 0 749 746" width="749px" zoomAndPan="magnify"><title>System Sequence Diagram (SSD) - Edit a Maintenance Type</title><defs/><g><text fill="#000000" font-family="sans-serif" font-size="14" font-weight="bold" lengthAdjust="spacing" textLength="397.5576" x="176.7512" y="30.1074">System Sequence Diagram (SSD) - Edit a Maintenance Type</text><rect fill="#FFFFFF" height="519.9668" style="stroke:#181818;stroke-width:1.0;" width="10" x="74.5723" y="133.2422"/><rect fill="#FFFFFF" height="31.291" style="stroke:#181818;stroke-width:1.0;" width="10" x="471.5449" y="156.5332"/><rect fill="#FFFFFF" height="57.582" style="stroke:#181818;stroke-width:1.0;" width="10" x="471.5449" y="219.1152"/><rect fill="#FFFFFF" height="345.2207" style="stroke:#181818;stroke-width:1.0;" width="10" x="471.5449" y="307.9883"/><rect fill="none" height="412.0938" style="stroke:#000000;stroke-width:1.5;" width="732.0601" x="10" y="234.1152"/><rect fill="none" height="224.0078" style="stroke:#000000;stroke-width:1.5;" width="712.0601" x="20" y="367.2793"/><rect fill="none" height="98.5039" style="stroke:#000000;stroke-width:1.5;" width="488.8276" x="30" y="485.7832"/><line style="stroke:#181818;stroke-width:0.5;stroke-dasharray:5.0,5.0;" x1="79" x2="79" y1="123.2422" y2="663.209"/><line style="stroke:#181818;stroke-width:0.5;stroke-dasharray:5.0,5.0;" x1="476.2622" x2="476.2622" y1="123.2422" y2="663.209"/><text fill="#000000" font-family="sans-serif" font-size="14" lengthAdjust="spacing" textLength="73.1445" x="40" y="119.7285">Drone Tech</text><ellipse cx="79.5723" cy="53.1211" fill="#E3E3E3" rx="8" ry="8" style="stroke:#181818;stroke-width:0.5;"/><path d="M79.5723,61.1211 L79.5723,88.1211 M66.5723,69.1211 L92.5723,69.1211 M79.5723,88.1211 L66.5723,103.1211 M79.5723,88.1211 L92.5723,103.1211 " fill="none" style="stroke:#181818;stroke-width:0.5;"/><text fill="#000000" font-family="sans-serif" font-size="14" lengthAdjust="spacing" textLength="73.1445" x="40" y="677.3164">Drone Tech</text><ellipse cx="79.5723" cy="689.3301" fill="#E3E3E3" rx="8" ry="8" style="stroke:#181818;stroke-width:0.5;"/><path d="M79.5723,697.3301 L79.5723,724.3301 M66.5723,705.3301 L92.5723,705.3301 M79.5723,724.3301 L66.5723,739.3301 M79.5723,724.3301 L92.5723,739.3301 " fill="none" style="stroke:#181818;stroke-width:0.5;"/><rect fill="#E3E3E3" height="32.6211" rx="2.5" ry="2.5" style="stroke:#181818;stroke-width:0.5;" width="64.5654" x="444.2622" y="89.6211"/><text fill="#000000" font-family="sans-serif" font-size="14" lengthAdjust="spacing" textLength="50.5654" x="451.2622" y="111.7285">:System</text><rect fill="#E3E3E3" height="32.6211" rx="2.5" ry="2.5" style="stroke:#181818;stroke-width:0.5;" width="64.5654" x="444.2622" y="662.209"/><text fill="#000000" font-family="sans-serif" font-size="14" lengthAdjust="spacing" textLength="50.5654" x="451.2622" y="684.3164">:System</text><rect fill="#FFFFFF" height="519.9668" style="stroke:#181818;stroke-width:1.0;" width="10" x="74.5723" y="133.2422"/><rect fill="#FFFFFF" height="31.291" style="stroke:#181818;stroke-width:1.0;" width="10" x="471.5449" y="156.5332"/><rect fill="#FFFFFF" height="57.582" style="stroke:#181818;stroke-width:1.0;" width="10" x="471.5449" y="219.1152"/><rect fill="#FFFFFF" height="345.2207" style="stroke:#181818;stroke-width:1.0;" width="10" x="471.5449" y="307.9883"/><polygon fill="#181818" points="459.5449,152.5332,469.5449,156.5332,459.5449,160.5332,463.5449,156.5332" style="stroke:#181818;stroke-width:1.0;"/><line style="stroke:#181818;stroke-width:1.0;" x1="84.5723" x2="465.5449" y1="156.5332" y2="156.5332"/><text fill="#000000" font-family="sans-serif" font-size="13" font-weight="bold" lengthAdjust="spacing" textLength="7.23" x="91.5723" y="151.2705">1</text><text fill="#000000" font-family="sans-serif" font-size="13" lengthAdjust="spacing" textLength="177.7598" x="102.8022" y="151.2705">requestEditMaintenanceType()</text><polygon fill="#181818" points="95.5723,183.8242,85.5723,187.8242,95.5723,191.8242,91.5723,187.8242" style="stroke:#181818;stroke-width:1.0;"/><line style="stroke:#181818;stroke-width:1.0;stroke-dasharray:2.0,2.0;" x1="89.5723" x2="475.5449" y1="187.8242" y2="187.8242"/><text fill="#000000" font-family="sans-serif" font-size="13" font-weight="bold" lengthAdjust="spacing" textLength="7.23" x="101.5723" y="182.5615">2</text><text fill="#000000" font-family="sans-serif" font-size="13" lengthAdjust="spacing" textLength="208.8379" x="112.8022" y="182.5615">requestMaintenanceTypeSelection()</text><polygon fill="#181818" points="459.5449,215.1152,469.5449,219.1152,459.5449,223.1152,463.5449,219.1152" style="stroke:#181818;stroke-width:1.0;"/><line style="stroke:#181818;stroke-width:1.0;" x1="84.5723" x2="465.5449" y1="219.1152" y2="219.1152"/><text fill="#000000" font-family="sans-serif" font-size="13" font-weight="bold" lengthAdjust="spacing" textLength="7.23" x="91.5723" y="213.8525">3</text><text fill="#000000" font-family="sans-serif" font-size="13" lengthAdjust="spacing" textLength="195.0952" x="102.8022" y="213.8525">selectMaintenanceType(identifier)</text><path d="M10,234.1152 L70.1709,234.1152 L70.1709,243.4063 L60.1709,253.4063 L10,253.4063 L10,234.1152 " fill="#EEEEEE" style="stroke:#000000;stroke-width:1.5;"/><rect fill="none" height="412.0938" style="stroke:#000000;stroke-width:1.5;" width="732.0601" x="10" y="234.1152"/><text fill="#000000" font-family="sans-serif" font-size="13" font-weight="bold" lengthAdjust="spacing" textLength="15.1709" x="25" y="249.1436">alt</text><text fill="#000000" font-family="sans-serif" font-size="11" font-weight="bold" lengthAdjust="spacing" textLength="134.4922" x="85.1709" y="247.9854">[maintenance type exists]</text><polygon fill="#181818" points="95.5723,272.6973,85.5723,276.6973,95.5723,280.6973,91.5723,276.6973" style="stroke:#181818;stroke-width:1.0;"/><line style="stroke:#181818;stroke-width:1.0;stroke-dasharray:2.0,2.0;" x1="89.5723" x2="475.5449" y1="276.6973" y2="276.6973"/><text fill="#000000" font-family="sans-serif" font-size="13" font-weight="bold" lengthAdjust="spacing" textLength="7.23" x="101.5723" y="271.4346">4</text><text fill="#000000" font-family="sans-serif" font-size="13" lengthAdjust="spacing" textLength="140.9053" x="112.8022" y="271.4346">requestUpdatedDetails()</text><polygon fill="#181818" points="459.5449,303.9883,469.5449,307.9883,459.5449,311.9883,463.5449,307.9883" style="stroke:#181818;stroke-width:1.0;"/><line style="stroke:#181818;stroke-width:1.0;" x1="84.5723" x2="465.5449" y1="307.9883" y2="307.9883"/><text fill="#000000" font-family="sans-serif" font-size="13" font-weight="bold" lengthAdjust="spacing" textLength="7.23" x="91.5723" y="302.7256">5</text><text fill="#000000" font-family="sans-serif" font-size="13" lengthAdjust="spacing" textLength="198.707" x="102.8022" y="302.7256">provideUpdatedDetails(newName)</text><line style="stroke:#181818;stroke-width:1.0;" x1="481.5449" x2="523.5449" y1="339.2793" y2="339.2793"/><line style="stroke:#181818;stroke-width:1.0;" x1="523.5449" x2="523.5449" y1="339.2793" y2="352.2793"/><line style="stroke:#181818;stroke-width:1.0;" x1="482.5449" x2="523.5449" y1="352.2793" y2="352.2793"/><polygon fill="#181818" points="492.5449,348.2793,482.5449,352.2793,492.5449,356.2793,488.5449,352.2793" style="stroke:#181818;stroke-width:1.0;"/><text fill="#000000" font-family="sans-serif" font-size="13" font-weight="bold" lengthAdjust="spacing" textLength="7.23" x="488.5449" y="334.0166">6</text><text fill="#000000" font-family="sans-serif" font-size="13" lengthAdjust="spacing" textLength="172.6753" x="499.7749" y="334.0166">validateNewName(newName)</text><path d="M20,367.2793 L80.1709,367.2793 L80.1709,376.5703 L70.1709,386.5703 L20,386.5703 L20,367.2793 " fill="#EEEEEE" style="stroke:#000000;stroke-width:1.5;"/><rect fill="none" height="224.0078" style="stroke:#000000;stroke-width:1.5;" width="712.0601" x="20" y="367.2793"/><text fill="#000000" font-family="sans-serif" font-size="13" font-weight="bold" lengthAdjust="spacing" textLength="15.1709" x="35" y="382.3076">alt</text><text fill="#000000" font-family="sans-serif" font-size="11" font-weight="bold" lengthAdjust="spacing" textLength="107.5562" x="95.1709" y="381.1494">[name is not unique]</text><polygon fill="#181818" points="95.5723,405.8613,85.5723,409.8613,95.5723,413.8613,91.5723,409.8613" style="stroke:#181818;stroke-width:1.0;"/><line style="stroke:#181818;stroke-width:1.0;stroke-dasharray:2.0,2.0;" x1="89.5723" x2="470.5449" y1="409.8613" y2="409.8613"/><text fill="#000000" font-family="sans-serif" font-size="13" font-weight="bold" lengthAdjust="spacing" textLength="7.23" x="101.5723" y="404.5986">7</text><text fill="#000000" font-family="sans-serif" font-size="13" lengthAdjust="spacing" textLength="294.6455" x="112.8022" y="404.5986">errorMessage("Duplicate maintenance type name")</text><line style="stroke:#000000;stroke-width:1.0;stroke-dasharray:2.0,2.0;" x1="20" x2="732.0601" y1="418.8613" y2="418.8613"/><text fill="#000000" font-family="sans-serif" font-size="11" font-weight="bold" lengthAdjust="spacing" textLength="87.3984" x="25" y="430.7314">[name is unique]</text><line style="stroke:#181818;stroke-width:1.0;" x1="481.5449" x2="523.5449" y1="457.7832" y2="457.7832"/><line style="stroke:#181818;stroke-width:1.0;" x1="523.5449" x2="523.5449" y1="457.7832" y2="470.7832"/><line style="stroke:#181818;stroke-width:1.0;" x1="482.5449" x2="523.5449" y1="470.7832" y2="470.7832"/><polygon fill="#181818" points="492.5449,466.7832,482.5449,470.7832,492.5449,474.7832,488.5449,470.7832" style="stroke:#181818;stroke-width:1.0;"/><text fill="#000000" font-family="sans-serif" font-size="13" font-weight="bold" lengthAdjust="spacing" textLength="7.23" x="488.5449" y="452.5205">8</text><text fill="#000000" font-family="sans-serif" font-size="13" lengthAdjust="spacing" textLength="210.2852" x="499.7749" y="452.5205">updateMaintenanceType(newName)</text><path d="M30,485.7832 L90.1709,485.7832 L90.1709,495.0742 L80.1709,505.0742 L30,505.0742 L30,485.7832 " fill="#EEEEEE" style="stroke:#000000;stroke-width:1.5;"/><rect fill="none" height="98.5039" style="stroke:#000000;stroke-width:1.5;" width="488.8276" x="30" y="485.7832"/><text fill="#000000" font-family="sans-serif" font-size="13" font-weight="bold" lengthAdjust="spacing" textLength="15.1709" x="45" y="500.8115">alt</text><text fill="#000000" font-family="sans-serif" font-size="11" font-weight="bold" lengthAdjust="spacing" textLength="75.1685" x="105.1709" y="499.6533">[update failed]</text><polygon fill="#181818" points="95.5723,524.3652,85.5723,528.3652,95.5723,532.3652,91.5723,528.3652" style="stroke:#181818;stroke-width:1.0;"/><line style="stroke:#181818;stroke-width:1.0;stroke-dasharray:2.0,2.0;" x1="89.5723" x2="470.5449" y1="528.3652" y2="528.3652"/><text fill="#000000" font-family="sans-serif" font-size="13" font-weight="bold" lengthAdjust="spacing" textLength="7.23" x="101.5723" y="523.1025">9</text><text fill="#000000" font-family="sans-serif" font-size="13" lengthAdjust="spacing" textLength="297.5527" x="112.8022" y="523.1025">errorMessage("Failed to update maintenance type")</text><line style="stroke:#000000;stroke-width:1.0;stroke-dasharray:2.0,2.0;" x1="30" x2="518.8276" y1="537.3652" y2="537.3652"/><text fill="#000000" font-family="sans-serif" font-size="11" font-weight="bold" lengthAdjust="spacing" textLength="103.3022" x="35" y="549.2354">[update succeeded]</text><polygon fill="#181818" points="95.5723,572.2871,85.5723,576.2871,95.5723,580.2871,91.5723,576.2871" style="stroke:#181818;stroke-width:1.0;"/><line style="stroke:#181818;stroke-width:1.0;stroke-dasharray:2.0,2.0;" x1="89.5723" x2="470.5449" y1="576.2871" y2="576.2871"/><text fill="#000000" font-family="sans-serif" font-size="13" font-weight="bold" lengthAdjust="spacing" textLength="14.46" x="101.5723" y="571.0244">10</text><text fill="#000000" font-family="sans-serif" font-size="13" lengthAdjust="spacing" textLength="344.5127" x="120.0322" y="571.0244">successMessage("Maintenance type updated successfully")</text><line style="stroke:#000000;stroke-width:1.0;stroke-dasharray:2.0,2.0;" x1="10" x2="742.0601" y1="599.2871" y2="599.2871"/><text fill="#000000" font-family="sans-serif" font-size="11" font-weight="bold" lengthAdjust="spacing" textLength="177.2622" x="15" y="611.1572">[maintenance type does not exist]</text><polygon fill="#181818" points="95.5723,634.209,85.5723,638.209,95.5723,642.209,91.5723,638.209" style="stroke:#181818;stroke-width:1.0;"/><line style="stroke:#181818;stroke-width:1.0;stroke-dasharray:2.0,2.0;" x1="89.5723" x2="470.5449" y1="638.209" y2="638.209"/><text fill="#000000" font-family="sans-serif" font-size="13" font-weight="bold" lengthAdjust="spacing" textLength="14.46" x="101.5723" y="632.9463">11</text><text fill="#000000" font-family="sans-serif" font-size="13" lengthAdjust="spacing" textLength="258.5337" x="120.0322" y="632.9463">errorMessage("Maintenance type not found")</text><!--SRC=[XLCzTjim3Dvr2ZnDpk0BPEYaTdCMkGT0ITZ62qMg9EZKjoz8sR8YkuqMISJt1v1Cx-n7Z3Z047mmfnW60ecPcZHNHZJlUAHUBeuWaX7qHxS4f1FQyC7-20TqYPf6M1JQNvBG03tzpkGDGSTuBF1DttSli8NlbWKGTiXUo6E1x2-ZqZ5By7duHL6_ZOG8RHU3rpAPKmkOeDitQYriU4GlqBvENhKsVLOcdr6eW9jk3zjlrzAhDg6HafG02_TYldcvywv2rpQsok_sCtV5wydfO3Xu5R2qbbZPfmfUExCbBtnWYeyPq0aCYpc94e3-S9BKW3xFC_uShMhOZWJP9KrMe8_fokhdW6CCPuspudlwUCE19fbd8hSKTw4pEYuQRnDr9Q5DUVq3Jk23GFQiiMlfIKyKOuWxIacFugRjykZO5F-7iHJ9Td8WFOspnJ_axs5pRNUzBPyYts9FK3tkxCZEbIzJ_wXua70JM8TlxpOr-nMMiZ54zlzM5PJIRBPR3sOIipVW8JjtMHhwIRwyg_d3P6sWQQVgoMk-RFSXGU4UGlPMROlDavkoMD9x-nS0]--></g></svg>