<svg xmlns="http://www.w3.org/2000/svg" xmlns:xlink="http://www.w3.org/1999/xlink" contentStyleType="text/css" height="909px" preserveAspectRatio="none" style="width:591px;height:909px;background:#FFFFFF;" version="1.1" viewBox="0 0 591 909" width="591px" zoomAndPan="magnify"><title>Add Figure to Proposal - Domain Model (US312)</title><defs/><g><text fill="#000000" font-family="sans-serif" font-size="14" font-weight="bold" lengthAdjust="spacing" textLength="327.5707" x="124.7146" y="24.9659">Add Figure to Proposal - Domain Model (US312)</text><!--cluster Show Proposal Subsystem--><g id="cluster_Show Proposal Subsystem"><rect fill="none" height="856" rx="2.5" ry="2.5" style="stroke:#000000;stroke-width:1.5;" width="578" x="7" y="47.0679"/><text fill="#000000" font-family="sans-serif" font-size="14" font-weight="bold" lengthAdjust="spacing" textLength="181.6213" x="205.1893" y="64.0339">Show Proposal Subsystem</text></g><!--class ShowProposal--><g id="elem_ShowProposal"><rect codeLine="13" fill="#F1F1F1" height="151.4754" id="ShowProposal" rx="2.5" ry="2.5" style="stroke:#181818;stroke-width:0.5;" width="305.7469" x="234" y="85.0679"/><text fill="#000000" font-family="sans-serif" font-size="14" lengthAdjust="spacing" textLength="93.7857" x="339.9806" y="105.0339">ShowProposal</text><line style="stroke:#181818;stroke-width:0.5;" x1="235" x2="538.7469" y1="114.1358" y2="114.1358"/><text fill="#000000" font-family="sans-serif" font-size="14" lengthAdjust="spacing" textLength="59.0098" x="240" y="133.1018">String: id</text><text fill="#000000" font-family="sans-serif" font-size="14" lengthAdjust="spacing" textLength="133.7975" x="240" y="152.1697">Integer: totalDrones</text><text fill="#000000" font-family="sans-serif" font-size="14" lengthAdjust="spacing" textLength="293.7469" x="240" y="171.2376">List&lt;DroneModelAssignment&gt;: droneModels</text><text fill="#000000" font-family="sans-serif" font-size="14" lengthAdjust="spacing" textLength="262.499" x="240" y="190.3055">List&lt;FigureExecution&gt;: figureExecutions</text><text fill="#000000" font-family="sans-serif" font-size="14" lengthAdjust="spacing" textLength="191.1973" x="240" y="209.3734">ShowProposalAuthor: author</text><text fill="#000000" font-family="sans-serif" font-size="14" lengthAdjust="spacing" textLength="155.8614" x="240" y="228.4414">DateTime: creationDate</text></g><!--class FigureExecution--><g id="elem_FigureExecution"><rect codeLine="22" fill="#F1F1F1" height="113.3396" id="FigureExecution" rx="2.5" ry="2.5" style="stroke:#181818;stroke-width:0.5;" width="325.4028" x="26.5" y="315.0679"/><text fill="#000000" font-family="sans-serif" font-size="14" lengthAdjust="spacing" textLength="106.0636" x="136.1696" y="335.0339">FigureExecution</text><line style="stroke:#181818;stroke-width:0.5;" x1="27.5" x2="350.9028" y1="344.1358" y2="344.1358"/><text fill="#000000" font-family="sans-serif" font-size="14" lengthAdjust="spacing" textLength="59.0098" x="32.5" y="363.1018">String: id</text><text fill="#000000" font-family="sans-serif" font-size="14" lengthAdjust="spacing" textLength="88.5777" x="32.5" y="382.1697">Figure: figure</text><text fill="#000000" font-family="sans-serif" font-size="14" lengthAdjust="spacing" textLength="172.1013" x="32.5" y="401.2376">Integer: sequencePosition</text><text fill="#000000" font-family="sans-serif" font-size="14" lengthAdjust="spacing" textLength="313.4028" x="32.5" y="420.3055">List&lt;DroneTypeMapping&gt;: droneTypeMappings</text></g><!--class Figure--><g id="elem_Figure"><rect codeLine="29" fill="#F1F1F1" height="151.4754" id="Figure" rx="2.5" ry="2.5" style="stroke:#181818;stroke-width:0.5;" width="208.1112" x="23" y="563.0679"/><text fill="#000000" font-family="sans-serif" font-size="14" lengthAdjust="spacing" textLength="41.8178" x="106.1467" y="583.0339">Figure</text><line style="stroke:#181818;stroke-width:0.5;" x1="24" x2="230.1112" y1="592.1358" y2="592.1358"/><text fill="#000000" font-family="sans-serif" font-size="14" lengthAdjust="spacing" textLength="59.0098" x="29" y="611.1018">String: id</text><text fill="#000000" font-family="sans-serif" font-size="14" lengthAdjust="spacing" textLength="78.4837" x="29" y="630.1697">String: code</text><text fill="#000000" font-family="sans-serif" font-size="14" lengthAdjust="spacing" textLength="111.1036" x="29" y="649.2376">Boolean: isActive</text><text fill="#000000" font-family="sans-serif" font-size="14" lengthAdjust="spacing" textLength="111.4396" x="29" y="668.3055">Boolean: isPublic</text><text fill="#000000" font-family="sans-serif" font-size="14" lengthAdjust="spacing" textLength="139.4115" x="29" y="687.3734">Customer: exclusivity</text><text fill="#000000" font-family="sans-serif" font-size="14" lengthAdjust="spacing" textLength="196.1112" x="29" y="706.4414">List&lt;DroneType&gt;: droneTypes</text></g><!--class DroneTypeMapping--><g id="elem_DroneTypeMapping"><rect codeLine="38" fill="#F1F1F1" height="75.2038" id="DroneTypeMapping" rx="2.5" ry="2.5" style="stroke:#181818;stroke-width:0.5;" width="182.3933" x="266" y="601.0679"/><text fill="#000000" font-family="sans-serif" font-size="14" lengthAdjust="spacing" textLength="131.0955" x="291.6489" y="621.0339">DroneTypeMapping</text><line style="stroke:#181818;stroke-width:0.5;" x1="267" x2="447.3933" y1="630.1358" y2="630.1358"/><text fill="#000000" font-family="sans-serif" font-size="14" lengthAdjust="spacing" textLength="150.6814" x="272" y="649.1018">DroneType: droneType</text><text fill="#000000" font-family="sans-serif" font-size="14" lengthAdjust="spacing" textLength="170.3933" x="272" y="668.1697">DroneModel: droneModel</text></g><!--class DroneModelAssignment--><g id="elem_DroneModelAssignment"><rect codeLine="43" fill="#F1F1F1" height="75.2038" id="DroneModelAssignment" rx="2.5" ry="2.5" style="stroke:#181818;stroke-width:0.5;" width="182.3933" x="341" y="458.0679"/><text fill="#000000" font-family="sans-serif" font-size="14" lengthAdjust="spacing" textLength="160.2294" x="352.082" y="478.0339">DroneModelAssignment</text><line style="stroke:#181818;stroke-width:0.5;" x1="342" x2="522.3933" y1="487.1358" y2="487.1358"/><text fill="#000000" font-family="sans-serif" font-size="14" lengthAdjust="spacing" textLength="170.3933" x="347" y="506.1018">DroneModel: droneModel</text><text fill="#000000" font-family="sans-serif" font-size="14" lengthAdjust="spacing" textLength="110.6556" x="347" y="525.1697">Integer: quantity</text></g><!--class DroneModel--><g id="elem_DroneModel"><rect codeLine="48" fill="#F1F1F1" height="94.2717" id="DroneModel" rx="2.5" ry="2.5" style="stroke:#181818;stroke-width:0.5;" width="139.9455" x="378" y="793.0679"/><text fill="#000000" font-family="sans-serif" font-size="14" lengthAdjust="spacing" textLength="82.3057" x="406.8199" y="813.0339">DroneModel</text><line style="stroke:#181818;stroke-width:0.5;" x1="379" x2="516.9455" y1="822.1358" y2="822.1358"/><text fill="#000000" font-family="sans-serif" font-size="14" lengthAdjust="spacing" textLength="59.0098" x="384" y="841.1018">String: id</text><text fill="#000000" font-family="sans-serif" font-size="14" lengthAdjust="spacing" textLength="127.9455" x="384" y="860.1697">String: modelName</text><text fill="#000000" font-family="sans-serif" font-size="14" lengthAdjust="spacing" textLength="120.5396" x="384" y="879.2376">String: capabilities</text></g><!--class DroneType--><g id="elem_DroneType"><rect codeLine="54" fill="#F1F1F1" height="75.2038" id="DroneType" rx="2.5" ry="2.5" style="stroke:#181818;stroke-width:0.5;" width="126.9676" x="165.5" y="802.5679"/><text fill="#000000" font-family="sans-serif" font-size="14" lengthAdjust="spacing" textLength="72.4497" x="192.7589" y="822.5339">DroneType</text><line style="stroke:#181818;stroke-width:0.5;" x1="166.5" x2="291.4676" y1="831.6358" y2="831.6358"/><text fill="#000000" font-family="sans-serif" font-size="14" lengthAdjust="spacing" textLength="59.0098" x="171.5" y="850.6018">String: id</text><text fill="#000000" font-family="sans-serif" font-size="14" lengthAdjust="spacing" textLength="114.9676" x="171.5" y="869.6697">String: typeName</text></g><!--class ShowProposalAuthor--><g id="elem_ShowProposalAuthor"><rect codeLine="59" fill="#F1F1F1" height="75.2038" id="ShowProposalAuthor" rx="2.5" ry="2.5" style="stroke:#181818;stroke-width:0.5;" width="145.3415" x="423.5" y="334.0679"/><text fill="#000000" font-family="sans-serif" font-size="14" lengthAdjust="spacing" textLength="139.3415" x="426.5" y="354.0339">ShowProposalAuthor</text><line style="stroke:#181818;stroke-width:0.5;" x1="424.5" x2="567.8415" y1="363.1358" y2="363.1358"/><text fill="#000000" font-family="sans-serif" font-size="14" lengthAdjust="spacing" textLength="89.1797" x="429.5" y="382.1018">String: userId</text><text fill="#000000" font-family="sans-serif" font-size="14" lengthAdjust="spacing" textLength="113.3156" x="429.5" y="401.1697">String: username</text></g><!--link ShowProposal to FigureExecution--><g id="link_ShowProposal_FigureExecution"><path codeLine="64" d="M307.19,236.2779 C297.21,246.1479 287.26,256.2479 278,266.0679 C263.45,281.4979 252.1438,294.2545 238.5138,310.3045 " fill="none" id="ShowProposal-to-FigureExecution" style="stroke:#181818;stroke-width:1.0;"/><polygon fill="#181818" points="234.63,314.8779,243.5047,310.607,237.8665,311.0668,237.4068,305.4286,234.63,314.8779" style="stroke:#181818;stroke-width:1.0;"/><polygon fill="#000000" points="279.5994,279.5864,287.9057,274.9543,283.5966,270.9566,279.5994,279.5864" style="stroke:#000000;stroke-width:1.0;"/><text fill="#000000" font-family="sans-serif" font-size="13" lengthAdjust="spacing" textLength="51.7401" x="292" y="280.9649">contains</text><text fill="#000000" font-family="sans-serif" font-size="13" lengthAdjust="spacing" textLength="7.436" x="292.0231" y="258.4757">1</text><text fill="#000000" font-family="sans-serif" font-size="13" lengthAdjust="spacing" textLength="21.567" x="218.1416" y="303.4459">0..*</text></g><!--link FigureExecution to Figure--><g id="link_FigureExecution_Figure"><path codeLine="65" d="M176,428.1179 C166.84,467.2779 155.8371,514.3157 145.8171,557.1357 " fill="none" id="FigureExecution-to-Figure" style="stroke:#181818;stroke-width:1.0;"/><polygon fill="#181818" points="144.45,562.9779,150.3954,555.126,145.5892,558.1094,142.6058,553.3033,144.45,562.9779" style="stroke:#181818;stroke-width:1.0;"/><polygon fill="#000000" points="172.861,500.7895,177.7831,492.6517,172.0598,491.3127,172.861,500.7895" style="stroke:#000000;stroke-width:1.0;"/><text fill="#000000" font-family="sans-serif" font-size="13" lengthAdjust="spacing" textLength="36.101" x="183" y="500.9649">refers</text><text fill="#000000" font-family="sans-serif" font-size="13" lengthAdjust="spacing" textLength="7.436" x="166.8881" y="450.3729">1</text><text fill="#000000" font-family="sans-serif" font-size="13" lengthAdjust="spacing" textLength="7.436" x="138.9053" y="551.215">1</text></g><!--link FigureExecution to DroneTypeMapping--><g id="link_FigureExecution_DroneTypeMapping"><path codeLine="66" d="M214.68,428.0879 C219.18,438.0379 223.77,448.3379 228,458.0679 C242.38,491.1479 239.46,502.7579 259,533.0679 C274.9,557.7379 292.6918,577.6612 311.8518,596.5012 " fill="none" id="FigureExecution-to-DroneTypeMapping" style="stroke:#181818;stroke-width:1.0;"/><polygon fill="#181818" points="316.13,600.7079,312.5172,591.5456,312.5648,597.2023,306.9082,597.2499,316.13,600.7079" style="stroke:#181818;stroke-width:1.0;"/><polygon fill="#000000" points="266.4988,500.2517,264.524,490.9485,259.4328,493.886,266.4988,500.2517" style="stroke:#000000;stroke-width:1.0;"/><text fill="#000000" font-family="sans-serif" font-size="13" lengthAdjust="spacing" textLength="50.5701" x="273" y="500.9649">includes</text><text fill="#000000" font-family="sans-serif" font-size="13" lengthAdjust="spacing" textLength="7.436" x="210.5239" y="450.3391">1</text><text fill="#000000" font-family="sans-serif" font-size="13" lengthAdjust="spacing" textLength="21.567" x="285.9952" y="589.3918">1..*</text></g><!--link DroneTypeMapping to DroneType--><g id="link_DroneTypeMapping_DroneType"><path codeLine="67" d="M333.52,676.1579 C310.5,712.0479 278.8304,761.3982 255.7804,797.3182 " fill="none" id="DroneTypeMapping-to-DroneType" style="stroke:#181818;stroke-width:1.0;"/><polygon fill="#181818" points="252.54,802.3679,260.7671,796.9536,255.2404,798.1598,254.0342,792.6331,252.54,802.3679" style="stroke:#181818;stroke-width:1.0;"/><polygon fill="#000000" points="291.2999,758.1292,298.658,752.1035,293.7109,748.9293,291.2999,758.1292" style="stroke:#000000;stroke-width:1.0;"/><text fill="#000000" font-family="sans-serif" font-size="13" lengthAdjust="spacing" textLength="33.67" x="303" y="758.9649">maps</text><text fill="#000000" font-family="sans-serif" font-size="13" lengthAdjust="spacing" textLength="7.436" x="321.718" y="698.3094">1</text><text fill="#000000" font-family="sans-serif" font-size="13" lengthAdjust="spacing" textLength="7.436" x="249.2781" y="790.7931">1</text></g><!--link DroneTypeMapping to DroneModel--><g id="link_DroneTypeMapping_DroneModel"><path codeLine="68" d="M373.69,676.1579 C388.67,709.0079 408.2503,751.9188 424.4403,787.4188 " fill="none" id="DroneTypeMapping-to-DroneModel" style="stroke:#181818;stroke-width:1.0;"/><polygon fill="#181818" points="426.93,792.8779,426.8349,783.0295,424.8553,788.3287,419.5561,786.3491,426.93,792.8779" style="stroke:#181818;stroke-width:1.0;"/><polygon fill="#000000" points="420.075,758.47,418.9952,749.021,413.6474,751.4603,420.075,758.47" style="stroke:#000000;stroke-width:1.0;"/><text fill="#000000" font-family="sans-serif" font-size="13" lengthAdjust="spacing" textLength="12.558" x="427" y="758.9649">to</text><text fill="#000000" font-family="sans-serif" font-size="13" lengthAdjust="spacing" textLength="7.436" x="369.0433" y="698.3094">1</text><text fill="#000000" font-family="sans-serif" font-size="13" lengthAdjust="spacing" textLength="7.436" x="416.2053" y="781.2807">1</text></g><!--link ShowProposal to DroneModelAssignment--><g id="link_ShowProposal_DroneModelAssignment"><path codeLine="69" d="M382.19,236.3279 C381.7,246.3179 381.28,256.4379 381,266.0679 C378.91,338.8879 386.37,357.9079 406,428.0679 C408.74,437.8579 410.2184,442.6047 413.9184,452.1347 " fill="none" id="ShowProposal-to-DroneModelAssignment" style="stroke:#181818;stroke-width:1.0;"/><polygon fill="#181818" points="416.09,457.7279,416.5615,447.8904,414.2804,453.0669,409.1038,450.7858,416.09,457.7279" style="stroke:#181818;stroke-width:1.0;"/><polygon fill="#000000" points="386.7273,280.8677,388.3193,271.4914,382.5039,272.3464,386.7273,280.8677" style="stroke:#000000;stroke-width:1.0;"/><text fill="#000000" font-family="sans-serif" font-size="13" lengthAdjust="spacing" textLength="45.357" x="395" y="280.9649">assigns</text><text fill="#000000" font-family="sans-serif" font-size="13" lengthAdjust="spacing" textLength="7.436" x="374.4059" y="258.5306">1</text><text fill="#000000" font-family="sans-serif" font-size="13" lengthAdjust="spacing" textLength="21.567" x="390.2367" y="446.1273">1..*</text></g><!--link DroneModelAssignment to DroneModel--><g id="link_DroneModelAssignment_DroneModel"><path codeLine="70" d="M454.67,533.3479 C459.34,542.7079 463.57,552.9879 466,563.0679 C485.06,642.1979 472.229,731.6672 460.539,787.0572 " fill="none" id="DroneModelAssignment-to-DroneModel" style="stroke:#181818;stroke-width:1.0;"/><polygon fill="#181818" points="459.3,792.9279,465.0723,784.9479,460.3325,788.0357,457.2447,783.2959,459.3,792.9279" style="stroke:#181818;stroke-width:1.0;"/><polygon fill="#000000" points="480.1156,643.9196,482.8446,634.809,476.9683,634.9449,480.1156,643.9196" style="stroke:#000000;stroke-width:1.0;"/><text fill="#000000" font-family="sans-serif" font-size="13" lengthAdjust="spacing" textLength="36.101" x="489" y="643.9649">refers</text><text fill="#000000" font-family="sans-serif" font-size="13" lengthAdjust="spacing" textLength="7.436" x="450.9685" y="555.2425">1</text><text fill="#000000" font-family="sans-serif" font-size="13" lengthAdjust="spacing" textLength="7.436" x="453.5319" y="781.3383">1</text></g><!--link ShowProposal to ShowProposalAuthor--><g id="link_ShowProposal_ShowProposalAuthor"><path codeLine="71" d="M432.73,236.3379 C438.38,246.2379 443.94,256.3379 449,266.0679 C460.46,288.1379 469.5624,308.0591 478.3024,328.3091 " fill="none" id="ShowProposal-to-ShowProposalAuthor" style="stroke:#181818;stroke-width:1.0;"/><polygon fill="#181818" points="480.68,333.8179,480.7861,323.9696,478.6986,329.2272,473.441,327.1398,480.68,333.8179" style="stroke:#181818;stroke-width:1.0;"/><polygon fill="#000000" points="464.22,280.4011,462.8374,270.9915,457.5707,273.6013,464.22,280.4011" style="stroke:#000000;stroke-width:1.0;"/><text fill="#000000" font-family="sans-serif" font-size="13" lengthAdjust="spacing" textLength="64.259" x="471" y="280.9649">created by</text><text fill="#000000" font-family="sans-serif" font-size="13" lengthAdjust="spacing" textLength="7.436" x="429.9209" y="258.5416">1</text><text fill="#000000" font-family="sans-serif" font-size="13" lengthAdjust="spacing" textLength="7.436" x="470.2188" y="322.2339">1</text></g><!--link Figure to DroneType--><g id="link_Figure_DroneType"><path codeLine="72" d="M165.13,714.1379 C180.57,744.3479 194.9784,772.5258 207.6084,797.2258 " fill="none" id="Figure-to-DroneType" style="stroke:#181818;stroke-width:1.0;"/><polygon fill="#181818" points="210.34,802.5679,209.804,792.7337,208.0637,798.1161,202.6812,796.3758,210.34,802.5679" style="stroke:#181818;stroke-width:1.0;"/><polygon fill="#000000" points="197.276,758.3729,195.7754,748.9814,190.5419,751.6571,197.276,758.3729" style="stroke:#000000;stroke-width:1.0;"/><text fill="#000000" font-family="sans-serif" font-size="13" lengthAdjust="spacing" textLength="51.012" x="204" y="758.9649">requires</text><text fill="#000000" font-family="sans-serif" font-size="13" lengthAdjust="spacing" textLength="7.436" x="161.5549" y="736.3219">1</text><text fill="#000000" font-family="sans-serif" font-size="13" lengthAdjust="spacing" textLength="21.567" x="183.8385" y="790.7441">1..*</text></g><!--SRC=[ZLJ1Zjem4BtdAqOvjPLObVQ6AYHQMccbReN4zWECFGHh7JjuxDr5A_wzaq124f8jkI1ctinxypmsFMbR22zoo9rrSkTTZX1yn8IQJ27aayXm7Gu6mQCCmcQc3Q2TKEv5smosmX0cIT21eGkbu9VEekUE3bRU5Ow4WGaiNIwqXGUdqC27l-klqoyVasId5OBKNXgaqvySmyufIfAp0aZNE_TowRIE6pfGm3o5joG1_gGHH52Y6j1RbIY_TV2iSGPQDQ5x6p13FsE1GPYbTvQvw-HlJU5R5QkKBeXqPdEqOJu3rOHx-DF0FrzHng2TPUYs6xdWsp8NaKTb7QBwRI1B4V1HvpW3wL6KvMMaIX_R4_TOtn_w1Aw5NNj1k8ze9QuSwRBRW26FXm8VH55mwzgCLeZ61Bwlgmv9jhK9VdVEeB0Cf8KC-damiueResMJ-H4fy1xpAFWgJIJzhCDXP8gs_07T_MbR4pIfLeTkijgFzgwCzE-jLvzZk4tdoFPHs50FEK9mc_bv2VqZShm-5b68ZJQy4kyQTHjDO6J3SXoxlATRCT0n4lfxDHYslQwTno2TfZ2Pp27zV7VtARswDkNksS1l4y4ykLoL2w2fdzR5NEDnY_x_5HNZrJwnEvPtL67Tu0hHvhoup2SbYjjhJXjGldFdac5RMYBxIyblK_Mdmza7ZV9sF1hXJeVE_lpoeOBDeMFngBCLspvgNrbwJFu1]--></g></svg>