<svg xmlns="http://www.w3.org/2000/svg" xmlns:xlink="http://www.w3.org/1999/xlink" contentStyleType="text/css" height="785.6px" preserveAspectRatio="none" style="width:1348px;height:785px;background:#FFFFFF;" version="1.1" viewBox="0 0 1348 785" width="1348.8px" zoomAndPan="magnify"><title>Register Show Request Domain Model Template</title><defs/><g><text fill="#000000" font-family="sans-serif" font-size="11.2" font-weight="bold" lengthAdjust="spacing" textLength="267.9926" x="534.8037" y="19.9727">Register Show Request Domain Model Template</text><!--cluster CRM Collaborator Subsystem--><g id="cluster_CRM Collaborator Subsystem"><rect fill="none" height="743.2" rx="2" ry="2" style="stroke:#000000;stroke-width:1.2000000000000002;" width="1338.4" x="5.6" y="37.6543"/><text fill="#000000" font-family="sans-serif" font-size="11.2" font-weight="bold" lengthAdjust="spacing" textLength="161.929" x="593.8355" y="51.2271">CRM Collaborator Subsystem</text></g><!--class Customer--><g id="elem_Customer"><rect codeLine="13" fill="#F1F1F1" height="81.8173" id="Customer" rx="2" ry="2" style="stroke:#181818;stroke-width:0.4000000000000001;" width="249.6599" x="624.8" y="68.0543"/><text fill="#000000" font-family="sans-serif" font-size="11.2" lengthAdjust="spacing" textLength="51.5982" x="723.8308" y="84.0271">Customer</text><line style="stroke:#181818;stroke-width:0.4000000000000001;" x1="625.6" x2="873.6599" y1="91.3087" y2="91.3087"/><ellipse cx="633.6" cy="103.3358" fill="#000000" rx="2.4" ry="2.4" style="stroke:#000000;stroke-width:0.8000000000000002;"/><text fill="#000000" font-family="sans-serif" font-size="11.2" lengthAdjust="spacing" textLength="119.0332" x="640.8" y="106.4814">id : String &#171;generated&#187;</text><line style="stroke:#181818;stroke-width:0.8000000000000002;" x1="625.6" x2="873.6599" y1="112.963" y2="112.963"/><ellipse cx="633.6" cy="124.9902" fill="#000000" rx="2.4" ry="2.4" style="stroke:#000000;stroke-width:0.8000000000000002;"/><text fill="#000000" font-family="sans-serif" font-size="11.2" lengthAdjust="spacing" textLength="70.3357" x="640.8" y="128.1357">name : String</text><ellipse cx="633.6" cy="140.2445" fill="#000000" rx="2.4" ry="2.4" style="stroke:#000000;stroke-width:0.8000000000000002;"/><text fill="#000000" font-family="sans-serif" font-size="11.2" lengthAdjust="spacing" textLength="228.8599" x="640.8" y="143.3901">status : String &#171;enum&#187; {active, VIP, inactive}</text></g><!--class ShowRequest--><g id="elem_ShowRequest"><rect codeLine="20" fill="#F1F1F1" height="112.326" id="ShowRequest" rx="2" ry="2" style="stroke:#181818;stroke-width:0.4000000000000001;" width="161.4603" x="668.8" y="212.8543"/><text fill="#000000" font-family="sans-serif" font-size="11.2" lengthAdjust="spacing" textLength="71.4669" x="713.7967" y="228.8271">ShowRequest</text><line style="stroke:#181818;stroke-width:0.4000000000000001;" x1="669.6" x2="829.4603" y1="236.1087" y2="236.1087"/><ellipse cx="677.6" cy="248.1358" fill="#000000" rx="2.4" ry="2.4" style="stroke:#000000;stroke-width:0.8000000000000002;"/><text fill="#000000" font-family="sans-serif" font-size="11.2" lengthAdjust="spacing" textLength="119.0332" x="684.8" y="251.2814">id : String &#171;generated&#187;</text><line style="stroke:#181818;stroke-width:0.8000000000000002;" x1="669.6" x2="829.4603" y1="257.763" y2="257.763"/><ellipse cx="677.6" cy="269.7902" fill="#000000" rx="2.4" ry="2.4" style="stroke:#000000;stroke-width:0.8000000000000002;"/><text fill="#000000" font-family="sans-serif" font-size="11.2" lengthAdjust="spacing" textLength="140.6603" x="684.8" y="272.9357">numberOfDrones : Integer</text><ellipse cx="677.6" cy="285.0445" fill="#000000" rx="2.4" ry="2.4" style="stroke:#000000;stroke-width:0.8000000000000002;"/><text fill="#000000" font-family="sans-serif" font-size="11.2" lengthAdjust="spacing" textLength="93.0828" x="684.8" y="288.1901">duration : Integer</text><ellipse cx="677.6" cy="300.2988" fill="#000000" rx="2.4" ry="2.4" style="stroke:#000000;stroke-width:0.8000000000000002;"/><text fill="#000000" font-family="sans-serif" font-size="11.2" lengthAdjust="spacing" textLength="127.6011" x="684.8" y="303.4444">creationDate : DateTime</text><ellipse cx="677.6" cy="315.5532" fill="#000000" rx="2.4" ry="2.4" style="stroke:#000000;stroke-width:0.8000000000000002;"/><text fill="#000000" font-family="sans-serif" font-size="11.2" lengthAdjust="spacing" textLength="72.3629" x="684.8" y="318.6987">status : String</text></g><!--class ShowProposal--><g id="elem_ShowProposal"><rect codeLine="29" fill="#F1F1F1" height="112.326" id="ShowProposal" rx="2" ry="2" style="stroke:#181818;stroke-width:0.4000000000000001;" width="314.026" x="382" y="388.0543"/><text fill="#000000" font-family="sans-serif" font-size="11.2" lengthAdjust="spacing" textLength="75.0285" x="501.4988" y="404.0271">ShowProposal</text><line style="stroke:#181818;stroke-width:0.4000000000000001;" x1="382.8" x2="695.226" y1="411.3087" y2="411.3087"/><ellipse cx="390.8" cy="423.3358" fill="#000000" rx="2.4" ry="2.4" style="stroke:#000000;stroke-width:0.8000000000000002;"/><text fill="#000000" font-family="sans-serif" font-size="11.2" lengthAdjust="spacing" textLength="119.0332" x="398" y="426.4814">id : String &#171;generated&#187;</text><line style="stroke:#181818;stroke-width:0.8000000000000002;" x1="382.8" x2="695.226" y1="432.963" y2="432.963"/><ellipse cx="390.8" cy="444.9902" fill="#000000" rx="2.4" ry="2.4" style="stroke:#000000;stroke-width:0.8000000000000002;"/><text fill="#000000" font-family="sans-serif" font-size="11.2" lengthAdjust="spacing" textLength="130.8603" x="398" y="448.1357">proposalDate : DateTime</text><ellipse cx="390.8" cy="460.2445" fill="#000000" rx="2.4" ry="2.4" style="stroke:#000000;stroke-width:0.8000000000000002;"/><text fill="#000000" font-family="sans-serif" font-size="11.2" lengthAdjust="spacing" textLength="293.226" x="398" y="463.3901">status : String &#171;enum&#187; {Draft, Sent, Approved, Rejected}</text><ellipse cx="390.8" cy="475.4988" fill="#000000" rx="2.4" ry="2.4" style="stroke:#000000;stroke-width:0.8000000000000002;"/><text fill="#000000" font-family="sans-serif" font-size="11.2" lengthAdjust="spacing" textLength="118.4283" x="398" y="478.6444">costEstimate : Decimal</text><ellipse cx="390.8" cy="490.7532" fill="#000000" rx="2.4" ry="2.4" style="stroke:#000000;stroke-width:0.8000000000000002;"/><text fill="#000000" font-family="sans-serif" font-size="11.2" lengthAdjust="spacing" textLength="121.3739" x="398" y="493.8987">feasibilityNotes : String</text></g><!--class ShowDescription--><g id="elem_ShowDescription"><rect codeLine="38" fill="#F1F1F1" height="90.6717" id="ShowDescription" rx="2" ry="2" style="stroke:#181818;stroke-width:0.4000000000000001;" width="118.1276" x="900.8" y="398.8543"/><text fill="#000000" font-family="sans-serif" font-size="11.2" lengthAdjust="spacing" textLength="88.9165" x="915.4056" y="414.8271">ShowDescription</text><line style="stroke:#181818;stroke-width:0.4000000000000001;" x1="901.6" x2="1018.1276" y1="422.1087" y2="422.1087"/><ellipse cx="909.6" cy="434.1358" fill="#000000" rx="2.4" ry="2.4" style="stroke:#000000;stroke-width:0.8000000000000002;"/><text fill="#000000" font-family="sans-serif" font-size="11.2" lengthAdjust="spacing" textLength="68.0957" x="916.8" y="437.2814">place : String</text><ellipse cx="909.6" cy="449.3902" fill="#000000" rx="2.4" ry="2.4" style="stroke:#000000;stroke-width:0.8000000000000002;"/><text fill="#000000" font-family="sans-serif" font-size="11.2" lengthAdjust="spacing" textLength="87.0685" x="916.8" y="452.5357">latitude : Double</text><ellipse cx="909.6" cy="464.6445" fill="#000000" rx="2.4" ry="2.4" style="stroke:#000000;stroke-width:0.8000000000000002;"/><text fill="#000000" font-family="sans-serif" font-size="11.2" lengthAdjust="spacing" textLength="97.3276" x="916.8" y="467.7901">longitude : Double</text><ellipse cx="909.6" cy="479.8988" fill="#000000" rx="2.4" ry="2.4" style="stroke:#000000;stroke-width:0.8000000000000002;"/><text fill="#000000" font-family="sans-serif" font-size="11.2" lengthAdjust="spacing" textLength="83.2717" x="916.8" y="483.0444">time : DateTime</text></g><!--class FigureExecution--><g id="elem_FigureExecution"><rect codeLine="45" fill="#F1F1F1" height="44.9087" id="FigureExecution" rx="2" ry="2" style="stroke:#181818;stroke-width:0.4000000000000001;" width="97.7661" x="911.2" y="563.2543"/><text fill="#000000" font-family="sans-serif" font-size="11.2" lengthAdjust="spacing" textLength="84.8509" x="917.6576" y="579.2271">FigureExecution</text><line style="stroke:#181818;stroke-width:0.4000000000000001;" x1="912" x2="1008.1661" y1="586.5087" y2="586.5087"/><ellipse cx="920" cy="598.5358" fill="#000000" rx="2.4" ry="2.4" style="stroke:#000000;stroke-width:0.8000000000000002;"/><text fill="#000000" font-family="sans-serif" font-size="11.2" lengthAdjust="spacing" textLength="76.9661" x="927.2" y="601.6814">order : Integer</text></g><!--class Figure--><g id="elem_Figure"><rect codeLine="49" fill="#F1F1F1" height="97.0717" id="Figure" rx="2" ry="2" style="stroke:#181818;stroke-width:0.4000000000000001;" width="139.8332" x="890" y="671.2543"/><text fill="#000000" font-family="sans-serif" font-size="11.2" lengthAdjust="spacing" textLength="33.4543" x="943.1894" y="687.2271">Figure</text><line style="stroke:#181818;stroke-width:0.4000000000000001;" x1="890.8" x2="1029.0332" y1="694.5087" y2="694.5087"/><ellipse cx="898.8" cy="706.5358" fill="#000000" rx="2.4" ry="2.4" style="stroke:#000000;stroke-width:0.8000000000000002;"/><text fill="#000000" font-family="sans-serif" font-size="11.2" lengthAdjust="spacing" textLength="119.0332" x="906" y="709.6814">id : String &#171;generated&#187;</text><line style="stroke:#181818;stroke-width:0.8000000000000002;" x1="890.8" x2="1029.0332" y1="716.163" y2="716.163"/><ellipse cx="898.8" cy="728.1902" fill="#000000" rx="2.4" ry="2.4" style="stroke:#000000;stroke-width:0.8000000000000002;"/><text fill="#000000" font-family="sans-serif" font-size="11.2" lengthAdjust="spacing" textLength="70.3357" x="906" y="731.3357">name : String</text><ellipse cx="898.8" cy="743.4445" fill="#000000" rx="2.4" ry="2.4" style="stroke:#000000;stroke-width:0.8000000000000002;"/><text fill="#000000" font-family="sans-serif" font-size="11.2" lengthAdjust="spacing" textLength="92.0636" x="906" y="746.5901">isPublic : Boolean</text><ellipse cx="898.8" cy="758.6988" fill="#000000" rx="2.4" ry="2.4" style="stroke:#000000;stroke-width:0.8000000000000002;"/><text fill="#000000" font-family="sans-serif" font-size="11.2" lengthAdjust="spacing" textLength="94.3596" x="906" y="761.8444">exclusivity : String</text></g><!--class ShowRequestAuthor--><g id="elem_ShowRequestAuthor"><rect codeLine="57" fill="#F1F1F1" height="60.163" id="ShowRequestAuthor" rx="2" ry="2" style="stroke:#181818;stroke-width:0.4000000000000001;" width="114.3644" x="1216.4" y="414.0543"/><text fill="#000000" font-family="sans-serif" font-size="11.2" lengthAdjust="spacing" textLength="107.9116" x="1219.6264" y="430.0271">ShowRequestAuthor</text><line style="stroke:#181818;stroke-width:0.4000000000000001;" x1="1217.2" x2="1329.9644" y1="437.3087" y2="437.3087"/><ellipse cx="1225.2" cy="449.3358" fill="#000000" rx="2.4" ry="2.4" style="stroke:#000000;stroke-width:0.8000000000000002;"/><text fill="#000000" font-family="sans-serif" font-size="11.2" lengthAdjust="spacing" textLength="74.2557" x="1232.4" y="452.4814">userId : String</text><ellipse cx="1225.2" cy="464.5902" fill="#000000" rx="2.4" ry="2.4" style="stroke:#000000;stroke-width:0.8000000000000002;"/><text fill="#000000" font-family="sans-serif" font-size="11.2" lengthAdjust="spacing" textLength="93.5644" x="1232.4" y="467.7357">username : String</text></g><!--class ShowRequestStatus--><g id="elem_ShowRequestStatus"><rect codeLine="62" fill="#F1F1F1" height="75.4173" id="ShowRequestStatus" rx="2" ry="2" style="stroke:#181818;stroke-width:0.4000000000000001;" width="137.1228" x="18.8" y="406.4543"/><text fill="#000000" font-family="sans-serif" font-size="11.2" lengthAdjust="spacing" textLength="104.2716" x="35.2256" y="422.4271">ShowRequestStatus</text><line style="stroke:#181818;stroke-width:0.4000000000000001;" x1="19.6" x2="155.1228" y1="429.7087" y2="429.7087"/><ellipse cx="27.6" cy="441.7358" fill="#000000" rx="2.4" ry="2.4" style="stroke:#000000;stroke-width:0.8000000000000002;"/><text fill="#000000" font-family="sans-serif" font-size="11.2" lengthAdjust="spacing" textLength="72.3629" x="34.8" y="444.8814">status : String</text><ellipse cx="27.6" cy="456.9902" fill="#000000" rx="2.4" ry="2.4" style="stroke:#000000;stroke-width:0.8000000000000002;"/><text fill="#000000" font-family="sans-serif" font-size="11.2" lengthAdjust="spacing" textLength="116.3228" x="34.8" y="460.1357">timestamp : DateTime</text><ellipse cx="27.6" cy="472.2445" fill="#000000" rx="2.4" ry="2.4" style="stroke:#000000;stroke-width:0.8000000000000002;"/><text fill="#000000" font-family="sans-serif" font-size="11.2" lengthAdjust="spacing" textLength="98.9292" x="34.8" y="475.3901">changedBy : String</text></g><g id="elem_GMN18"><path d="M902.4,97.6543 L902.4,105.6543 L874.456,108.8543 L902.4,112.0543 L902.4,119.8191 A0,0 0 0 0 902.4,119.8191 L1107.2426,119.8191 A0,0 0 0 0 1107.2426,119.8191 L1107.2426,105.6543 L1099.2426,97.6543 L902.4,97.6543 A0,0 0 0 0 902.4,97.6543 " fill="#FAFAFA" style="stroke:#181818;stroke-width:0.4000000000000001;"/><path d="M1099.2426,97.6543 L1099.2426,105.6543 L1107.2426,105.6543 L1099.2426,97.6543 " fill="#FAFAFA" style="stroke:#181818;stroke-width:0.4000000000000001;"/><text fill="#000000" font-family="sans-serif" font-size="10.4" lengthAdjust="spacing" textLength="188.0426" x="907.2" y="112.7719">Must be active or VIP for new requests</text></g><g id="elem_GMN21"><path d="M1058,708.4543 L1058,716.4543 L1030.248,719.6543 L1058,722.8543 L1058,730.6191 A0,0 0 0 0 1058,730.6191 L1268.7082,730.6191 A0,0 0 0 0 1268.7082,730.6191 L1268.7082,716.4543 L1260.7082,708.4543 L1058,708.4543 A0,0 0 0 0 1058,708.4543 " fill="#FAFAFA" style="stroke:#181818;stroke-width:0.4000000000000001;"/><path d="M1260.7082,708.4543 L1260.7082,716.4543 L1268.7082,716.4543 L1260.7082,708.4543 " fill="#FAFAFA" style="stroke:#181818;stroke-width:0.4000000000000001;"/><text fill="#000000" font-family="sans-serif" font-size="10.4" lengthAdjust="spacing" textLength="193.9082" x="1062.8" y="723.5719">Must be public or exclusive to customer</text></g><g id="elem_GMN24"><path d="M183.6,432.8543 L183.6,440.8543 L155.656,444.0543 L183.6,447.2543 L183.6,455.0191 A0,0 0 0 0 183.6,455.0191 L353.7793,455.0191 A0,0 0 0 0 353.7793,455.0191 L353.7793,440.8543 L345.7793,432.8543 L183.6,432.8543 A0,0 0 0 0 183.6,432.8543 " fill="#FAFAFA" style="stroke:#181818;stroke-width:0.4000000000000001;"/><path d="M345.7793,432.8543 L345.7793,440.8543 L353.7793,440.8543 L345.7793,432.8543 " fill="#FAFAFA" style="stroke:#181818;stroke-width:0.4000000000000001;"/><text fill="#000000" font-family="sans-serif" font-size="10.4" lengthAdjust="spacing" textLength="153.3793" x="188.4" y="447.9719">Initialized with "Created" status</text></g><g id="elem_GMN27"><path d="M724.4,432.8543 L724.4,440.8543 L696.64,444.0543 L724.4,447.2543 L724.4,455.0191 A0,0 0 0 0 724.4,455.0191 L872.2089,455.0191 A0,0 0 0 0 872.2089,455.0191 L872.2089,440.8543 L864.2089,432.8543 L724.4,432.8543 A0,0 0 0 0 724.4,432.8543 " fill="#FAFAFA" style="stroke:#181818;stroke-width:0.4000000000000001;"/><path d="M864.2089,432.8543 L864.2089,440.8543 L872.2089,440.8543 L864.2089,432.8543 " fill="#FAFAFA" style="stroke:#181818;stroke-width:0.4000000000000001;"/><text fill="#000000" font-family="sans-serif" font-size="10.4" lengthAdjust="spacing" textLength="131.0089" x="729.2" y="447.9719">Created with "Draft" status</text></g><g id="elem_GMN30"><path d="M858.4,257.6543 L858.4,265.6543 L830.424,268.8543 L858.4,272.0543 L858.4,279.8191 A0,0 0 0 0 858.4,279.8191 L1096.8034,279.8191 A0,0 0 0 0 1096.8034,279.8191 L1096.8034,265.6543 L1088.8034,257.6543 L858.4,257.6543 A0,0 0 0 0 858.4,257.6543 " fill="#FAFAFA" style="stroke:#181818;stroke-width:0.4000000000000001;"/><path d="M1088.8034,257.6543 L1088.8034,265.6543 L1096.8034,265.6543 L1088.8034,257.6543 " fill="#FAFAFA" style="stroke:#181818;stroke-width:0.4000000000000001;"/><text fill="#000000" font-family="sans-serif" font-size="10.4" lengthAdjust="spacing" textLength="221.6034" x="863.2" y="272.7719">Cannot be edited once a ShowProposal exists</text></g><g id="elem_GMN33"><path d="M1047.2,426.0543 L1047.2,440.8543 L1019.408,444.0543 L1047.2,447.2543 L1047.2,462.384 A0,0 0 0 0 1047.2,462.384 L1188.0305,462.384 A0,0 0 0 0 1188.0305,462.384 L1188.0305,434.0543 L1180.0305,426.0543 L1047.2,426.0543 A0,0 0 0 0 1047.2,426.0543 " fill="#FAFAFA" style="stroke:#181818;stroke-width:0.4000000000000001;"/><path d="M1180.0305,426.0543 L1180.0305,434.0543 L1188.0305,434.0543 L1180.0305,426.0543 " fill="#FAFAFA" style="stroke:#181818;stroke-width:0.4000000000000001;"/><text fill="#000000" font-family="sans-serif" font-size="10.4" lengthAdjust="spacing" textLength="102.6065" x="1052" y="441.1719">Latitude: [-90.0, 90.0]</text><text fill="#000000" font-family="sans-serif" font-size="10.4" lengthAdjust="spacing" textLength="124.0305" x="1052" y="455.3368">Longitude: [-180.0, 180.0]</text></g><!--link Customer to ShowRequest--><g id="link_Customer_ShowRequest"><path codeLine="69" d="M749.6,156.2303 C749.6,175.2943 749.6,177.5823 749.6,198.2783 " fill="none" id="Customer-ShowRequest" style="stroke:#181818;stroke-width:0.8000000000000002;"/><line style="stroke:#181818;stroke-width:0.8000000000000002;" x1="746.4" x2="752.8" y1="153.0303" y2="153.0303"/><line style="stroke:#181818;stroke-width:0.8000000000000002;" x1="746.4" x2="752.8" y1="155.4303" y2="155.4303"/><line style="stroke:#181818;stroke-width:0.8000000000000002;" x1="749.6" x2="749.6" y1="156.2303" y2="149.8303"/><line style="stroke:#181818;stroke-width:0.8000000000000002;" x1="749.6" x2="754.4" y1="206.2783" y2="212.6783"/><line style="stroke:#181818;stroke-width:0.8000000000000002;" x1="749.6" x2="744.8" y1="206.2783" y2="212.6783"/><line style="stroke:#181818;stroke-width:0.8000000000000002;" x1="749.6" x2="749.6" y1="206.2783" y2="212.6783"/><ellipse cx="749.6" cy="201.4783" fill="none" rx="3.2" ry="3.2" style="stroke:#181818;stroke-width:0.8000000000000002;"/><text fill="#000000" font-family="sans-serif" font-size="10.4" lengthAdjust="spacing" textLength="42.5672" x="750.4" y="185.5719">requests</text></g><!--link ShowRequest to ShowDescription--><g id="link_ShowRequest_ShowDescription"><path codeLine="70" d="M821.6885,329.1355 C850.5525,352.9515 869.6411,368.6958 896.8491,391.1518 " fill="none" id="ShowRequest-ShowDescription" style="stroke:#181818;stroke-width:0.8000000000000002;"/><line style="stroke:#181818;stroke-width:0.8000000000000002;" x1="817.1837" x2="821.2568" y1="329.5672" y2="324.6307"/><line style="stroke:#181818;stroke-width:0.8000000000000002;" x1="819.0349" x2="823.108" y1="331.0946" y2="326.1581"/><line style="stroke:#181818;stroke-width:0.8000000000000002;" x1="821.6885" x2="816.752" y1="329.1355" y2="325.0623"/><line style="stroke:#181818;stroke-width:0.8000000000000002;" x1="899.3171" x2="906.104" y1="393.1888" y2="398.7903"/><ellipse cx="899.3171" cy="393.1888" fill="none" rx="3.2" ry="3.2" style="stroke:#181818;stroke-width:0.8000000000000002;"/><line style="stroke:#181818;stroke-width:0.8000000000000002;" x1="905.673" x2="901.5991" y1="394.2854" y2="399.2214"/><text fill="#000000" font-family="sans-serif" font-size="10.4" lengthAdjust="spacing" textLength="46.4568" x="861.6" y="360.7719">describes</text></g><!--link ShowDescription to FigureExecution--><g id="link_ShowDescription_FigureExecution"><path codeLine="71" d="M960,495.9343 C960,520.4223 960,528.8863 960,548.4703 " fill="none" id="ShowDescription-FigureExecution" style="stroke:#181818;stroke-width:0.8000000000000002;"/><line style="stroke:#181818;stroke-width:0.8000000000000002;" x1="956.8" x2="963.2" y1="492.7343" y2="492.7343"/><line style="stroke:#181818;stroke-width:0.8000000000000002;" x1="956.8" x2="963.2" y1="495.1343" y2="495.1343"/><line style="stroke:#181818;stroke-width:0.8000000000000002;" x1="960" x2="960" y1="495.9343" y2="489.5343"/><line style="stroke:#181818;stroke-width:0.8000000000000002;" x1="960" x2="964.8" y1="556.4703" y2="562.8703"/><line style="stroke:#181818;stroke-width:0.8000000000000002;" x1="960" x2="955.2" y1="556.4703" y2="562.8703"/><line style="stroke:#181818;stroke-width:0.8000000000000002;" x1="960" x2="960" y1="556.4703" y2="562.8703"/><ellipse cx="960" cy="551.6703" fill="none" rx="3.2" ry="3.2" style="stroke:#181818;stroke-width:0.8000000000000002;"/><text fill="#000000" font-family="sans-serif" font-size="10.4" lengthAdjust="spacing" textLength="40.456" x="960.8" y="535.9719">includes</text></g><!--link FigureExecution to Figure--><g id="link_FigureExecution_Figure"><path codeLine="72" d="M960,614.7183 C960,631.7583 960,635.2543 960,656.7263 " fill="none" id="FigureExecution-Figure" style="stroke:#181818;stroke-width:0.8000000000000002;"/><line style="stroke:#181818;stroke-width:0.8000000000000002;" x1="956.8" x2="963.2" y1="611.5183" y2="611.5183"/><line style="stroke:#181818;stroke-width:0.8000000000000002;" x1="956.8" x2="963.2" y1="613.9183" y2="613.9183"/><line style="stroke:#181818;stroke-width:0.8000000000000002;" x1="960" x2="960" y1="614.7183" y2="608.3183"/><line style="stroke:#181818;stroke-width:0.8000000000000002;" x1="960" x2="964.8" y1="664.7263" y2="671.1263"/><line style="stroke:#181818;stroke-width:0.8000000000000002;" x1="960" x2="955.2" y1="664.7263" y2="671.1263"/><line style="stroke:#181818;stroke-width:0.8000000000000002;" x1="960" x2="960" y1="664.7263" y2="671.1263"/><ellipse cx="960" cy="659.9263" fill="none" rx="3.2" ry="3.2" style="stroke:#181818;stroke-width:0.8000000000000002;"/><text fill="#000000" font-family="sans-serif" font-size="10.4" lengthAdjust="spacing" textLength="45.4272" x="960.8" y="643.9719">performs</text></g><!--link ShowRequest to ShowRequestAuthor--><g id="link_ShowRequest_ShowRequestAuthor"><path codeLine="73" d="M836.3287,321.6309 C841.0967,323.7669 840.048,323.1183 844.8,324.8543 C996.4,380.2223 1054.848,322.6543 1202.4,388.0543 C1216.696,394.3903 1221.4002,396.5998 1233.1442,406.2078 " fill="none" id="ShowRequest-ShowRequestAuthor" style="stroke:#181818;stroke-width:0.8000000000000002;"/><line style="stroke:#181818;stroke-width:0.8000000000000002;" x1="832.1001" x2="834.7166" y1="323.243" y2="317.4023"/><line style="stroke:#181818;stroke-width:0.8000000000000002;" x1="834.2903" x2="836.9069" y1="324.2242" y2="318.3835"/><line style="stroke:#181818;stroke-width:0.8000000000000002;" x1="836.3287" x2="830.488" y1="321.6309" y2="319.0143"/><line style="stroke:#181818;stroke-width:0.8000000000000002;" x1="1235.621" x2="1242.432" y1="408.2341" y2="413.8063"/><ellipse cx="1235.621" cy="408.2341" fill="none" rx="3.2" ry="3.2" style="stroke:#181818;stroke-width:0.8000000000000002;"/><line style="stroke:#181818;stroke-width:0.8000000000000002;" x1="1241.9815" x2="1237.929" y1="409.3033" y2="414.2568"/><text fill="#000000" font-family="sans-serif" font-size="10.4" lengthAdjust="spacing" textLength="49.0672" x="1130.4" y="360.7719">createdBy</text></g><!--link ShowRequest to ShowRequestStatus--><g id="link_ShowRequest_ShowRequestStatus"><path codeLine="74" d="M662.2478,276.8518 C547.3998,288.3478 338.744,317.3743 169.6,388.0543 C158,392.9023 158.4368,391.6893 147.6608,398.6093 " fill="none" id="ShowRequest-ShowRequestStatus" style="stroke:#181818;stroke-width:0.8000000000000002;"/><line style="stroke:#181818;stroke-width:0.8000000000000002;" x1="665.1132" x2="665.7506" y1="273.349" y2="279.7171"/><line style="stroke:#181818;stroke-width:0.8000000000000002;" x1="662.7251" x2="663.3626" y1="273.588" y2="279.9562"/><line style="stroke:#181818;stroke-width:0.8000000000000002;" x1="662.2478" x2="668.616" y1="276.8518" y2="276.2143"/><line style="stroke:#181818;stroke-width:0.8000000000000002;" x1="140.9292" x2="138.1377" y1="402.9321" y2="410.4293"/><line style="stroke:#181818;stroke-width:0.8000000000000002;" x1="140.9292" x2="132.9503" y1="402.9321" y2="402.3514"/><line style="stroke:#181818;stroke-width:0.8000000000000002;" x1="140.9292" x2="135.544" y1="402.9321" y2="406.3903"/><ellipse cx="144.9682" cy="400.3384" fill="none" rx="3.2" ry="3.2" style="stroke:#181818;stroke-width:0.8000000000000002;"/><text fill="#000000" font-family="sans-serif" font-size="10.4" lengthAdjust="spacing" textLength="47.7048" x="276" y="360.7719">hasStatus</text></g><!--link ShowRequest to ShowProposal--><g id="link_ShowRequest_ShowProposal"><path codeLine="75" d="M677.5115,329.1355 C653.2235,349.1755 639.9915,360.0886 615.6875,380.1446 " fill="none" id="ShowRequest-ShowProposal" style="stroke:#181818;stroke-width:0.8000000000000002;"/><line style="stroke:#181818;stroke-width:0.8000000000000002;" x1="677.9432" x2="682.0163" y1="324.6306" y2="329.5672"/><line style="stroke:#181818;stroke-width:0.8000000000000002;" x1="676.0919" x2="680.1651" y1="326.1581" y2="331.0946"/><line style="stroke:#181818;stroke-width:0.8000000000000002;" x1="677.5115" x2="682.448" y1="329.1355" y2="325.0623"/><line style="stroke:#181818;stroke-width:0.8000000000000002;" x1="613.2194" x2="606.432" y1="382.1813" y2="387.7823"/><ellipse cx="613.2194" cy="382.1813" fill="none" rx="3.2" ry="3.2" style="stroke:#181818;stroke-width:0.8000000000000002;"/><line style="stroke:#181818;stroke-width:0.8000000000000002;" x1="610.9369" x2="606.8634" y1="388.2137" y2="383.2775"/><text fill="#000000" font-family="sans-serif" font-size="10.4" lengthAdjust="spacing" textLength="58.5417" x="651.2" y="360.7719">proposedAs</text></g><!--SRC=[hLNVJzim47xFNt7gowIfdTZR5g5AG9c411kYQ2yR3wvzJJmSExCT2YlzttT9d3HfKvZGyj3Qlb_VVRuxktkfSsPP1fdHXgVMP0ZU5XYvLf8pViyIdFidXM2HUwOJrLLmAHDc9NK2IwOSHf6NdbHlC97EeuLvQbQq-rsWyp0p6PCQhen01RUOvOfvCacbGE3ISeMktcJeKoDS58NuC3gxkO8penHR6Cky8SV5mZrHY6m4woW2-b1Jx2TIBPodLEm8c8DcGqfGVUz12eXXxcq9-lWuGOta4SLq6ZGcarPLCwAaKMvFdMU-S5qdg8jiEeKruru-u1Y-NroFGUfwkwaCDtsG9I-1bWfdP_z6g4MsGFjjERD6OmdkGdjCqBOAeY1RQVI0Y5kiH3DoJkBoxrPcU2ZXG_bSMvCRnrIRK7FmjepoOFsFg3hNCBDiwSSm9t1ZECd9qGEACPNXBwfW59jjuiRvS-Tb5a8WfwLgnKjaJYwaeWo_6e-lCp13nwtCIovR4Zfd7HwezFb0QL53I5-82emf5cgRhJ8wEI0Y_7i4xO3x8fF2ulaZyg85jtFM0MUie8xfrycWmuwV_zbWqbrJWfAJvDGOXKot8dpagd3oeGJnscs4VZefQ9ZOtIwhJpke2uVsGko3AS_tOHuEDw_ASZTSVTe9DzHJpMMIBCk7IfwdD7zHd0xd_eugN5MDx5APk-gidN_FpvE9MVVcJ4mJlLhLgbrHfVsyLxynY6gtmAr9Lnw2x5PMJBEGhaq4grrnpugKSxHBOxCNKVLlCQv7MCdCiD5wu2vYI9chroz5QeTO72OIYXFN45wF1Sg14-dUqkiMoDGa02kJr8DPjhSGmnMjO85GFmtKQULR0PGkQ5prxwFlecPdwo2lEuGCcvQWnzi03v46FEmnK3Quz98f-GS5hAHFwV6iUHo5-ZpWfk4aXg0VhAl1-ufjW42cJ9Eqp0M5B7qOJIEHzKd7HpdCnqxfnN0PHcSCFoQVZpuSZQ7ylVkfBvl9MKe-Vgf4rTzT56sYlm00]--></g></svg>