<svg xmlns="http://www.w3.org/2000/svg" xmlns:xlink="http://www.w3.org/1999/xlink" contentStyleType="text/css" height="536.4px" preserveAspectRatio="none" style="width:1131px;height:536px;background:#FFFFFF;" version="1.1" viewBox="0 0 1131 536" width="1131.6px" zoomAndPan="magnify"><defs/><g><!--cluster domain--><g id="cluster_domain"><path d="M836.1,309.0082 L866.5676,309.0082 A2.25,2.25 0 0 1 868.0676,310.5082 L872.2676,323.7809 L1125.9,323.7809 A1.5,1.5 0 0 1 1127.4,325.2809 L1127.4,530.7082 A1.5,1.5 0 0 1 1125.9,532.2082 L836.1,532.2082 A1.5,1.5 0 0 1 834.6,530.7082 L834.6,310.5082 A1.5,1.5 0 0 1 836.1,309.0082 " fill="none" style="stroke:#000000;stroke-width:0.8999999999999999;"/><line style="stroke:#000000;stroke-width:0.8999999999999999;" x1="834.6" x2="872.2676" y1="323.7809" y2="323.7809"/><text fill="#000000" font-family="sans-serif" font-size="8.4" font-weight="bold" lengthAdjust="spacing" textLength="29.8676" x="837" y="319.2727">domain</text></g><!--cluster entity--><g id="cluster_entity"><path d="M850.5,336.0082 L873.5027,336.0082 A2.25,2.25 0 0 1 875.0027,337.5082 L879.2027,350.7809 L1111.5,350.7809 A1.5,1.5 0 0 1 1113,352.2809 L1113,516.3082 A1.5,1.5 0 0 1 1111.5,517.8082 L850.5,517.8082 A1.5,1.5 0 0 1 849,516.3082 L849,337.5082 A1.5,1.5 0 0 1 850.5,336.0082 " fill="none" style="stroke:#000000;stroke-width:0.8999999999999999;"/><line style="stroke:#000000;stroke-width:0.8999999999999999;" x1="849" x2="879.2027" y1="350.7809" y2="350.7809"/><text fill="#000000" font-family="sans-serif" font-size="8.4" font-weight="bold" lengthAdjust="spacing" textLength="22.4027" x="851.4" y="346.2727">entity</text></g><!--cluster controller--><g id="cluster_controller"><path d="M275.1,169.8082 L314.4393,169.8082 A2.25,2.25 0 0 1 315.9393,171.3082 L320.1393,184.5809 L818.7,184.5809 A1.5,1.5 0 0 1 820.2,186.0809 L820.2,443.1082 A1.5,1.5 0 0 1 818.7,444.6082 L275.1,444.6082 A1.5,1.5 0 0 1 273.6,443.1082 L273.6,171.3082 A1.5,1.5 0 0 1 275.1,169.8082 " fill="none" style="stroke:#000000;stroke-width:0.8999999999999999;"/><line style="stroke:#000000;stroke-width:0.8999999999999999;" x1="273.6" x2="320.1393" y1="184.5809" y2="184.5809"/><text fill="#000000" font-family="sans-serif" font-size="8.4" font-weight="bold" lengthAdjust="spacing" textLength="38.7393" x="276" y="180.0727">controller</text></g><!--cluster showproposal--><g id="cluster_showproposal"><path d="M289.5,196.8082 L347.0379,196.8082 A2.25,2.25 0 0 1 348.5379,198.3082 L352.7379,211.5809 L804.3,211.5809 A1.5,1.5 0 0 1 805.8,213.0809 L805.8,428.7082 A1.5,1.5 0 0 1 804.3,430.2082 L289.5,430.2082 A1.5,1.5 0 0 1 288,428.7082 L288,198.3082 A1.5,1.5 0 0 1 289.5,196.8082 " fill="none" style="stroke:#000000;stroke-width:0.8999999999999999;"/><line style="stroke:#000000;stroke-width:0.8999999999999999;" x1="288" x2="352.7379" y1="211.5809" y2="211.5809"/><text fill="#000000" font-family="sans-serif" font-size="8.4" font-weight="bold" lengthAdjust="spacing" textLength="56.9379" x="290.4" y="207.0727">showproposal</text></g><!--cluster persistence--><g id="cluster_persistence"><path d="M5.1,196.8082 L52.3922,196.8082 A2.25,2.25 0 0 1 53.8922,198.3082 L58.0922,211.5809 L257.7,211.5809 A1.5,1.5 0 0 1 259.2,213.0809 L259.2,434.1082 A1.5,1.5 0 0 1 257.7,435.6082 L5.1,435.6082 A1.5,1.5 0 0 1 3.6,434.1082 L3.6,198.3082 A1.5,1.5 0 0 1 5.1,196.8082 " fill="none" style="stroke:#000000;stroke-width:0.8999999999999999;"/><line style="stroke:#000000;stroke-width:0.8999999999999999;" x1="3.6" x2="58.0922" y1="211.5809" y2="211.5809"/><text fill="#000000" font-family="sans-serif" font-size="8.4" font-weight="bold" lengthAdjust="spacing" textLength="46.6922" x="6" y="207.0727">persistence</text></g><!--cluster ui--><g id="cluster_ui"><path d="M455.7,3.6082 L463.7648,3.6082 A2.25,2.25 0 0 1 465.2648,5.1082 L469.4648,18.3809 L663.9,18.3809 A1.5,1.5 0 0 1 665.4,19.8809 L665.4,137.7082 A1.5,1.5 0 0 1 663.9,139.2082 L455.7,139.2082 A1.5,1.5 0 0 1 454.2,137.7082 L454.2,5.1082 A1.5,1.5 0 0 1 455.7,3.6082 " fill="none" style="stroke:#000000;stroke-width:0.8999999999999999;"/><line style="stroke:#000000;stroke-width:0.8999999999999999;" x1="454.2" x2="469.4648" y1="18.3809" y2="18.3809"/><text fill="#000000" font-family="sans-serif" font-size="8.4" font-weight="bold" lengthAdjust="spacing" textLength="7.4648" x="456.6" y="13.8727">ui</text></g><!--cluster showproposal--><g id="cluster_showproposal"><path d="M470.1,30.6082 L527.6379,30.6082 A2.25,2.25 0 0 1 529.1379,32.1082 L533.3379,45.3809 L649.5,45.3809 A1.5,1.5 0 0 1 651,46.8809 L651,123.3082 A1.5,1.5 0 0 1 649.5,124.8082 L470.1,124.8082 A1.5,1.5 0 0 1 468.6,123.3082 L468.6,32.1082 A1.5,1.5 0 0 1 470.1,30.6082 " fill="none" style="stroke:#000000;stroke-width:0.8999999999999999;"/><line style="stroke:#000000;stroke-width:0.8999999999999999;" x1="468.6" x2="533.3379" y1="45.3809" y2="45.3809"/><text fill="#000000" font-family="sans-serif" font-size="8.4" font-weight="bold" lengthAdjust="spacing" textLength="56.9379" x="471" y="40.8727">showproposal</text></g><!--class ShowProposal--><g id="elem_ShowProposal"><rect codeLine="4" fill="#F1F1F1" height="84.6633" id="ShowProposal" rx="1.5" ry="1.5" style="stroke:#181818;stroke-width:0.3;" width="106.6588" x="902.4" y="358.2082"/><ellipse cx="926.3821" cy="367.8082" fill="#ADD1B2" rx="6.6" ry="6.6" style="stroke:#181818;stroke-width:0.6;"/><path d="M928.0415,365.3332 Q928.1352,365.202 928.2477,365.1363 Q928.3602,365.0707 928.4915,365.0707 Q928.7165,365.0707 928.8571,365.2301 Q928.9977,365.3801 928.9977,365.7457 L928.9977,366.6176 Q928.9977,366.9832 928.8571,367.1426 Q928.7165,367.302 928.4915,367.302 Q928.2852,367.302 928.1633,367.1801 Q928.0415,367.0676 927.9758,366.7582 Q927.9477,366.5426 927.8352,366.4301 Q927.6383,366.2051 927.2727,366.0738 Q926.9071,365.9426 926.5321,365.9426 Q926.0727,365.9426 925.6883,366.1395 Q925.3133,366.3363 925.0133,366.7863 Q924.7227,367.2363 924.7227,367.8551 L924.7227,368.5113 Q924.7227,369.252 925.2571,369.7488 Q925.7915,370.2363 926.7477,370.2363 Q927.3102,370.2363 927.704,370.0863 Q927.9383,369.9926 928.1915,369.7301 Q928.3508,369.5707 928.4352,369.5238 Q928.529,369.477 928.6508,369.477 Q928.8477,369.477 928.9977,369.6363 Q929.1571,369.7863 929.1571,369.9926 Q929.1571,370.1988 928.9508,370.4426 Q928.6508,370.7895 928.1727,370.9863 Q927.5258,371.2582 926.7477,371.2582 Q925.8383,371.2582 925.1165,370.8832 Q924.5258,370.5832 924.1133,369.9457 Q923.7008,369.2988 923.7008,368.5301 L923.7008,367.8363 Q923.7008,367.0395 924.0665,366.3551 Q924.4415,365.6613 925.0977,365.2957 Q925.754,364.9207 926.4946,364.9207 Q926.9352,364.9207 927.3196,365.0238 Q927.7133,365.1176 928.0415,365.3332 Z " fill="#000000"/><text fill="#000000" font-family="sans-serif" font-size="8.4" lengthAdjust="spacing" textLength="54.1652" x="938.1115" y="371.2863">ShowProposal</text><line style="stroke:#181818;stroke-width:0.3;" x1="903" x2="1008.4588" y1="377.4082" y2="377.4082"/><text fill="#000000" font-family="sans-serif" font-size="8.4" lengthAdjust="spacing" textLength="72.8396" x="906" y="388.8727">-ShowProposalId id</text><text fill="#000000" font-family="sans-serif" font-size="8.4" lengthAdjust="spacing" textLength="99.4588" x="906" y="400.0453">-ShowRequestId requestId</text><text fill="#000000" font-family="sans-serif" font-size="8.4" lengthAdjust="spacing" textLength="51.3557" x="906" y="411.218">-Status status</text><line style="stroke:#181818;stroke-width:0.3;" x1="903" x2="1008.4588" y1="415.7262" y2="415.7262"/><text fill="#000000" font-family="sans-serif" font-size="8.4" lengthAdjust="spacing" textLength="88.0072" x="906" y="427.1906">+setStatus(status): void</text><text fill="#000000" font-family="sans-serif" font-size="8.4" lengthAdjust="spacing" textLength="74.4721" x="906" y="438.3633">+getStatus(): Status</text></g><!--class ShowProposalId--><g id="elem_ShowProposalId"><rect codeLine="12" fill="#F1F1F1" height="28.8" id="ShowProposalId" rx="1.5" ry="1.5" style="stroke:#181818;stroke-width:0.3;" width="80.3707" x="858.6" y="479.4082"/><ellipse cx="867.6" cy="489.0082" fill="#ADD1B2" rx="6.6" ry="6.6" style="stroke:#181818;stroke-width:0.6;"/><path d="M869.2594,486.5332 Q869.3531,486.402 869.4656,486.3363 Q869.5781,486.2707 869.7094,486.2707 Q869.9344,486.2707 870.075,486.4301 Q870.2156,486.5801 870.2156,486.9457 L870.2156,487.8176 Q870.2156,488.1832 870.075,488.3426 Q869.9344,488.502 869.7094,488.502 Q869.5031,488.502 869.3813,488.3801 Q869.2594,488.2676 869.1938,487.9582 Q869.1656,487.7426 869.0531,487.6301 Q868.8562,487.4051 868.4906,487.2738 Q868.125,487.1426 867.75,487.1426 Q867.2906,487.1426 866.9063,487.3395 Q866.5313,487.5363 866.2312,487.9863 Q865.9406,488.4363 865.9406,489.0551 L865.9406,489.7113 Q865.9406,490.452 866.475,490.9488 Q867.0094,491.4363 867.9656,491.4363 Q868.5281,491.4363 868.9219,491.2863 Q869.1563,491.1926 869.4094,490.9301 Q869.5688,490.7707 869.6531,490.7238 Q869.7469,490.677 869.8688,490.677 Q870.0656,490.677 870.2156,490.8363 Q870.375,490.9863 870.375,491.1926 Q870.375,491.3988 870.1687,491.6426 Q869.8688,491.9895 869.3906,492.1863 Q868.7438,492.4582 867.9656,492.4582 Q867.0563,492.4582 866.3344,492.0832 Q865.7438,491.7832 865.3313,491.1457 Q864.9187,490.4988 864.9187,489.7301 L864.9187,489.0363 Q864.9187,488.2395 865.2844,487.5551 Q865.6594,486.8613 866.3156,486.4957 Q866.9719,486.1207 867.7125,486.1207 Q868.1531,486.1207 868.5375,486.2238 Q868.9313,486.3176 869.2594,486.5332 Z " fill="#000000"/><text fill="#000000" font-family="sans-serif" font-size="8.4" lengthAdjust="spacing" textLength="61.1707" x="876" y="492.4863">ShowProposalId</text><line style="stroke:#181818;stroke-width:0.3;" x1="859.2" x2="938.3707" y1="498.6082" y2="498.6082"/><line style="stroke:#181818;stroke-width:0.3;" x1="859.2" x2="938.3707" y1="503.4082" y2="503.4082"/></g><!--class ShowRequestId--><g id="elem_ShowRequestId"><rect codeLine="13" fill="#F1F1F1" height="28.8" id="ShowRequestId" rx="1.5" ry="1.5" style="stroke:#181818;stroke-width:0.3;" width="78.5045" x="960.3" y="479.4082"/><ellipse cx="969.3" cy="489.0082" fill="#ADD1B2" rx="6.6" ry="6.6" style="stroke:#181818;stroke-width:0.6;"/><path d="M970.9594,486.5332 Q971.0531,486.402 971.1656,486.3363 Q971.2781,486.2707 971.4094,486.2707 Q971.6344,486.2707 971.775,486.4301 Q971.9156,486.5801 971.9156,486.9457 L971.9156,487.8176 Q971.9156,488.1832 971.775,488.3426 Q971.6344,488.502 971.4094,488.502 Q971.2031,488.502 971.0813,488.3801 Q970.9594,488.2676 970.8938,487.9582 Q970.8656,487.7426 970.7531,487.6301 Q970.5563,487.4051 970.1906,487.2738 Q969.825,487.1426 969.45,487.1426 Q968.9906,487.1426 968.6062,487.3395 Q968.2312,487.5363 967.9313,487.9863 Q967.6406,488.4363 967.6406,489.0551 L967.6406,489.7113 Q967.6406,490.452 968.175,490.9488 Q968.7094,491.4363 969.6656,491.4363 Q970.2281,491.4363 970.6219,491.2863 Q970.8562,491.1926 971.1094,490.9301 Q971.2688,490.7707 971.3531,490.7238 Q971.4469,490.677 971.5687,490.677 Q971.7656,490.677 971.9156,490.8363 Q972.075,490.9863 972.075,491.1926 Q972.075,491.3988 971.8688,491.6426 Q971.5687,491.9895 971.0906,492.1863 Q970.4437,492.4582 969.6656,492.4582 Q968.7562,492.4582 968.0344,492.0832 Q967.4437,491.7832 967.0313,491.1457 Q966.6188,490.4988 966.6188,489.7301 L966.6188,489.0363 Q966.6188,488.2395 966.9844,487.5551 Q967.3594,486.8613 968.0156,486.4957 Q968.6719,486.1207 969.4125,486.1207 Q969.8531,486.1207 970.2375,486.2238 Q970.6312,486.3176 970.9594,486.5332 Z " fill="#000000"/><text fill="#000000" font-family="sans-serif" font-size="8.4" lengthAdjust="spacing" textLength="59.3045" x="977.7" y="492.4863">ShowRequestId</text><line style="stroke:#181818;stroke-width:0.3;" x1="960.9" x2="1038.2045" y1="498.6082" y2="498.6082"/><line style="stroke:#181818;stroke-width:0.3;" x1="960.9" x2="1038.2045" y1="503.4082" y2="503.4082"/></g><!--class Status--><g id="elem_Status"><rect codeLine="14" fill="#F1F1F1" height="28.8" id="Status" rx="1.5" ry="1.5" style="stroke:#181818;stroke-width:0.3;" width="43.0137" x="1060.2" y="479.4082"/><ellipse cx="1069.2" cy="489.0082" fill="#ADD1B2" rx="6.6" ry="6.6" style="stroke:#181818;stroke-width:0.6;"/><path d="M1070.8594,486.5332 Q1070.9531,486.402 1071.0656,486.3363 Q1071.1781,486.2707 1071.3094,486.2707 Q1071.5344,486.2707 1071.675,486.4301 Q1071.8156,486.5801 1071.8156,486.9457 L1071.8156,487.8176 Q1071.8156,488.1832 1071.675,488.3426 Q1071.5344,488.502 1071.3094,488.502 Q1071.1031,488.502 1070.9813,488.3801 Q1070.8594,488.2676 1070.7938,487.9582 Q1070.7656,487.7426 1070.6531,487.6301 Q1070.4563,487.4051 1070.0906,487.2738 Q1069.725,487.1426 1069.35,487.1426 Q1068.8906,487.1426 1068.5063,487.3395 Q1068.1313,487.5363 1067.8313,487.9863 Q1067.5406,488.4363 1067.5406,489.0551 L1067.5406,489.7113 Q1067.5406,490.452 1068.075,490.9488 Q1068.6094,491.4363 1069.5656,491.4363 Q1070.1281,491.4363 1070.5219,491.2863 Q1070.7563,491.1926 1071.0094,490.9301 Q1071.1688,490.7707 1071.2531,490.7238 Q1071.3469,490.677 1071.4688,490.677 Q1071.6656,490.677 1071.8156,490.8363 Q1071.975,490.9863 1071.975,491.1926 Q1071.975,491.3988 1071.7688,491.6426 Q1071.4688,491.9895 1070.9906,492.1863 Q1070.3438,492.4582 1069.5656,492.4582 Q1068.6563,492.4582 1067.9344,492.0832 Q1067.3438,491.7832 1066.9312,491.1457 Q1066.5188,490.4988 1066.5188,489.7301 L1066.5188,489.0363 Q1066.5188,488.2395 1066.8844,487.5551 Q1067.2594,486.8613 1067.9156,486.4957 Q1068.5719,486.1207 1069.3125,486.1207 Q1069.7531,486.1207 1070.1375,486.2238 Q1070.5313,486.3176 1070.8594,486.5332 Z " fill="#000000"/><text fill="#000000" font-family="sans-serif" font-size="8.4" lengthAdjust="spacing" textLength="23.8137" x="1077.6" y="492.4863">Status</text><line style="stroke:#181818;stroke-width:0.3;" x1="1060.8" x2="1102.6137" y1="498.6082" y2="498.6082"/><line style="stroke:#181818;stroke-width:0.3;" x1="1060.8" x2="1102.6137" y1="503.4082" y2="503.4082"/></g><!--class AcceptShowProposalController--><g id="elem_AcceptShowProposalController"><rect codeLine="18" fill="#F1F1F1" height="51.1453" id="AcceptShowProposalController" rx="1.5" ry="1.5" style="stroke:#181818;stroke-width:0.3;" width="267.5098" x="528.6" y="219.0082"/><ellipse cx="601.6755" cy="228.6082" fill="#ADD1B2" rx="6.6" ry="6.6" style="stroke:#181818;stroke-width:0.6;"/><path d="M603.3349,226.1332 Q603.4286,226.002 603.5411,225.9363 Q603.6536,225.8707 603.7849,225.8707 Q604.0099,225.8707 604.1505,226.0301 Q604.2911,226.1801 604.2911,226.5457 L604.2911,227.4176 Q604.2911,227.7832 604.1505,227.9426 Q604.0099,228.102 603.7849,228.102 Q603.5786,228.102 603.4567,227.9801 Q603.3349,227.8676 603.2692,227.5582 Q603.2411,227.3426 603.1286,227.2301 Q602.9317,227.0051 602.5661,226.8738 Q602.2005,226.7426 601.8255,226.7426 Q601.3661,226.7426 600.9817,226.9395 Q600.6067,227.1363 600.3067,227.5863 Q600.0161,228.0363 600.0161,228.6551 L600.0161,229.3113 Q600.0161,230.052 600.5505,230.5488 Q601.0849,231.0363 602.0411,231.0363 Q602.6036,231.0363 602.9974,230.8863 Q603.2317,230.7926 603.4849,230.5301 Q603.6442,230.3707 603.7286,230.3238 Q603.8224,230.277 603.9442,230.277 Q604.1411,230.277 604.2911,230.4363 Q604.4505,230.5863 604.4505,230.7926 Q604.4505,230.9988 604.2442,231.2426 Q603.9442,231.5895 603.4661,231.7863 Q602.8192,232.0582 602.0411,232.0582 Q601.1317,232.0582 600.4099,231.6832 Q599.8192,231.3832 599.4067,230.7457 Q598.9942,230.0988 598.9942,229.3301 L598.9942,228.6363 Q598.9942,227.8395 599.3599,227.1551 Q599.7349,226.4613 600.3911,226.0957 Q601.0474,225.7207 601.788,225.7207 Q602.2286,225.7207 602.613,225.8238 Q603.0067,225.9176 603.3349,226.1332 Z " fill="#000000"/><text fill="#000000" font-family="sans-serif" font-size="8.4" lengthAdjust="spacing" textLength="116.2588" x="613.9755" y="232.0863">AcceptShowProposalController</text><line style="stroke:#181818;stroke-width:0.3;" x1="529.2" x2="795.5098" y1="238.2082" y2="238.2082"/><text fill="#000000" font-family="sans-serif" font-size="8.4" lengthAdjust="spacing" textLength="190.0131" x="532.2" y="249.6727">-VerifyShowProposalStatusController statusVerifier</text><line style="stroke:#181818;stroke-width:0.3;" x1="529.2" x2="795.5098" y1="254.1809" y2="254.1809"/><text fill="#000000" font-family="sans-serif" font-size="8.4" lengthAdjust="spacing" textLength="260.3098" x="532.2" y="265.6453">+markShowProposalAsAccepted(proposal): Optional&lt;ShowProposal&gt;</text></g><!--class VerifyShowProposalStatusController--><g id="elem_VerifyShowProposalStatusController"><rect codeLine="23" fill="#F1F1F1" height="39.9727" id="VerifyShowProposalStatusController" rx="1.5" ry="1.5" style="stroke:#181818;stroke-width:0.3;" width="170.8688" x="576.9" y="380.4082"/><ellipse cx="593.012" cy="390.0082" fill="#ADD1B2" rx="6.6" ry="6.6" style="stroke:#181818;stroke-width:0.6;"/><path d="M594.6714,387.5332 Q594.7651,387.402 594.8776,387.3363 Q594.9901,387.2707 595.1214,387.2707 Q595.3464,387.2707 595.487,387.4301 Q595.6276,387.5801 595.6276,387.9457 L595.6276,388.8176 Q595.6276,389.1832 595.487,389.3426 Q595.3464,389.502 595.1214,389.502 Q594.9151,389.502 594.7933,389.3801 Q594.6714,389.2676 594.6058,388.9582 Q594.5776,388.7426 594.4651,388.6301 Q594.2683,388.4051 593.9026,388.2738 Q593.537,388.1426 593.162,388.1426 Q592.7026,388.1426 592.3183,388.3395 Q591.9433,388.5363 591.6433,388.9863 Q591.3526,389.4363 591.3526,390.0551 L591.3526,390.7113 Q591.3526,391.452 591.887,391.9488 Q592.4214,392.4363 593.3776,392.4363 Q593.9401,392.4363 594.3339,392.2863 Q594.5683,392.1926 594.8214,391.9301 Q594.9808,391.7707 595.0651,391.7238 Q595.1589,391.677 595.2808,391.677 Q595.4776,391.677 595.6276,391.8363 Q595.787,391.9863 595.787,392.1926 Q595.787,392.3988 595.5808,392.6426 Q595.2808,392.9895 594.8026,393.1863 Q594.1558,393.4582 593.3776,393.4582 Q592.4683,393.4582 591.7464,393.0832 Q591.1558,392.7832 590.7433,392.1457 Q590.3308,391.4988 590.3308,390.7301 L590.3308,390.0363 Q590.3308,389.2395 590.6964,388.5551 Q591.0714,387.8613 591.7276,387.4957 Q592.3839,387.1207 593.1245,387.1207 Q593.5651,387.1207 593.9495,387.2238 Q594.3433,387.3176 594.6714,387.5332 Z " fill="#000000"/><text fill="#000000" font-family="sans-serif" font-size="8.4" lengthAdjust="spacing" textLength="135.8643" x="602.9925" y="393.4863">VerifyShowProposalStatusController</text><line style="stroke:#181818;stroke-width:0.3;" x1="577.5" x2="747.1687" y1="399.6082" y2="399.6082"/><line style="stroke:#181818;stroke-width:0.3;" x1="577.5" x2="747.1687" y1="404.4082" y2="404.4082"/><text fill="#000000" font-family="sans-serif" font-size="8.4" lengthAdjust="spacing" textLength="163.6688" x="580.5" y="415.8727">+wasShowProposalSent(proposal): boolean</text></g><!--class ListShowProposalController--><g id="elem_ListShowProposalController"><rect codeLine="27" fill="#F1F1F1" height="39.9727" id="ListShowProposalController" rx="1.5" ry="1.5" style="stroke:#181818;stroke-width:0.3;" width="210.0838" x="297.6" y="224.4082"/><ellipse cx="348.2666" cy="234.0082" fill="#ADD1B2" rx="6.6" ry="6.6" style="stroke:#181818;stroke-width:0.6;"/><path d="M349.926,231.5332 Q350.0197,231.402 350.1322,231.3363 Q350.2447,231.2707 350.376,231.2707 Q350.601,231.2707 350.7416,231.4301 Q350.8822,231.5801 350.8822,231.9457 L350.8822,232.8176 Q350.8822,233.1832 350.7416,233.3426 Q350.601,233.502 350.376,233.502 Q350.1697,233.502 350.0479,233.3801 Q349.926,233.2676 349.8604,232.9582 Q349.8322,232.7426 349.7197,232.6301 Q349.5229,232.4051 349.1572,232.2738 Q348.7916,232.1426 348.4166,232.1426 Q347.9572,232.1426 347.5729,232.3395 Q347.1979,232.5363 346.8979,232.9863 Q346.6072,233.4363 346.6072,234.0551 L346.6072,234.7113 Q346.6072,235.452 347.1416,235.9488 Q347.676,236.4363 348.6322,236.4363 Q349.1947,236.4363 349.5885,236.2863 Q349.8229,236.1926 350.076,235.9301 Q350.2354,235.7707 350.3197,235.7238 Q350.4135,235.677 350.5354,235.677 Q350.7322,235.677 350.8822,235.8363 Q351.0416,235.9863 351.0416,236.1926 Q351.0416,236.3988 350.8354,236.6426 Q350.5354,236.9895 350.0572,237.1863 Q349.4104,237.4582 348.6322,237.4582 Q347.7229,237.4582 347.001,237.0832 Q346.4104,236.7832 345.9979,236.1457 Q345.5854,235.4988 345.5854,234.7301 L345.5854,234.0363 Q345.5854,233.2395 345.951,232.5551 Q346.326,231.8613 346.9822,231.4957 Q347.6385,231.1207 348.3791,231.1207 Q348.8197,231.1207 349.2041,231.2238 Q349.5979,231.3176 349.926,231.5332 Z " fill="#000000"/><text fill="#000000" font-family="sans-serif" font-size="8.4" lengthAdjust="spacing" textLength="103.6506" x="360.5666" y="237.4863">ListShowProposalController</text><line style="stroke:#181818;stroke-width:0.3;" x1="298.2" x2="507.0838" y1="243.6082" y2="243.6082"/><line style="stroke:#181818;stroke-width:0.3;" x1="298.2" x2="507.0838" y1="248.4082" y2="248.4082"/><text fill="#000000" font-family="sans-serif" font-size="8.4" lengthAdjust="spacing" textLength="202.8838" x="301.2" y="259.8727">+getAllSentAcceptedProposals(): List&lt;ShowProposal&gt;</text></g><!--class ShowProposalRepository--><g id="elem_ShowProposalRepository"><rect codeLine="33" fill="#F1F1F1" height="51.1453" id="ShowProposalRepository" rx="1.5" ry="1.5" style="stroke:#181818;stroke-width:0.3;" width="235.7801" x="13.5" y="375.0082"/><ellipse cx="81.6823" cy="384.6082" fill="#B4A7E5" rx="6.6" ry="6.6" style="stroke:#181818;stroke-width:0.6;"/><path d="M82.2542,382.5926 L82.2542,386.5863 L83.2854,386.5863 Q83.6511,386.5863 83.8104,386.727 Q83.9698,386.8676 83.9698,387.102 Q83.9698,387.327 83.8104,387.4676 Q83.6511,387.6082 83.2854,387.6082 L80.2011,387.6082 Q79.8354,387.6082 79.6761,387.4676 Q79.5167,387.327 79.5167,387.0926 Q79.5167,386.8676 79.6761,386.727 Q79.8354,386.5863 80.2011,386.5863 L81.2323,386.5863 L81.2323,382.5926 L80.2011,382.5926 Q79.8354,382.5926 79.6761,382.452 Q79.5167,382.3113 79.5167,382.077 Q79.5167,381.852 79.6761,381.7113 Q79.8354,381.5707 80.2011,381.5707 L83.2854,381.5707 Q83.6511,381.5707 83.8104,381.7113 Q83.9698,381.852 83.9698,382.077 Q83.9698,382.3113 83.8104,382.452 Q83.6511,382.5926 83.2854,382.5926 L82.2542,382.5926 Z " fill="#000000"/><text fill="#000000" font-family="sans-serif" font-size="8.4" font-style="italic" lengthAdjust="spacing" textLength="94.3154" x="93.9823" y="388.0863">ShowProposalRepository</text><line style="stroke:#181818;stroke-width:0.3;" x1="14.1" x2="248.6801" y1="394.2082" y2="394.2082"/><line style="stroke:#181818;stroke-width:0.3;" x1="14.1" x2="248.6801" y1="399.0082" y2="399.0082"/><text fill="#000000" font-family="sans-serif" font-size="8.4" lengthAdjust="spacing" textLength="191.6783" x="17.1" y="410.4727">+getAllProposals(): Optional&lt;List&lt;ShowProposal&gt;&gt;</text><text fill="#000000" font-family="sans-serif" font-size="8.4" lengthAdjust="spacing" textLength="228.5801" x="17.1" y="421.6453">+updateInStoreProposal(proposal): Optional&lt;ShowProposal&gt;</text></g><!--class ShowProposalRepositoryJPAImpl--><g id="elem_ShowProposalRepositoryJPAImpl"><rect codeLine="38" fill="#F1F1F1" height="51.1453" id="ShowProposalRepositoryJPAImpl" rx="1.5" ry="1.5" style="stroke:#181818;stroke-width:0.3;" width="235.7801" x="13.5" y="219.0082"/><ellipse cx="66.0451" cy="228.6082" fill="#ADD1B2" rx="6.6" ry="6.6" style="stroke:#181818;stroke-width:0.6;"/><path d="M67.7045,226.1332 Q67.7982,226.002 67.9107,225.9363 Q68.0232,225.8707 68.1545,225.8707 Q68.3795,225.8707 68.5201,226.0301 Q68.6607,226.1801 68.6607,226.5457 L68.6607,227.4176 Q68.6607,227.7832 68.5201,227.9426 Q68.3795,228.102 68.1545,228.102 Q67.9482,228.102 67.8264,227.9801 Q67.7045,227.8676 67.6389,227.5582 Q67.6107,227.3426 67.4982,227.2301 Q67.3014,227.0051 66.9357,226.8738 Q66.5701,226.7426 66.1951,226.7426 Q65.7357,226.7426 65.3514,226.9395 Q64.9764,227.1363 64.6764,227.5863 Q64.3857,228.0363 64.3857,228.6551 L64.3857,229.3113 Q64.3857,230.052 64.9201,230.5488 Q65.4545,231.0363 66.4107,231.0363 Q66.9732,231.0363 67.367,230.8863 Q67.6014,230.7926 67.8545,230.5301 Q68.0139,230.3707 68.0982,230.3238 Q68.192,230.277 68.3139,230.277 Q68.5107,230.277 68.6607,230.4363 Q68.8201,230.5863 68.8201,230.7926 Q68.8201,230.9988 68.6139,231.2426 Q68.3139,231.5895 67.8357,231.7863 Q67.1889,232.0582 66.4107,232.0582 Q65.5014,232.0582 64.7795,231.6832 Q64.1889,231.3832 63.7764,230.7457 Q63.3639,230.0988 63.3639,229.3301 L63.3639,228.6363 Q63.3639,227.8395 63.7295,227.1551 Q64.1045,226.4613 64.7607,226.0957 Q65.417,225.7207 66.1576,225.7207 Q66.5982,225.7207 66.9826,225.8238 Q67.3764,225.9176 67.7045,226.1332 Z " fill="#000000"/><text fill="#000000" font-family="sans-serif" font-size="8.4" lengthAdjust="spacing" textLength="125.5898" x="78.3451" y="232.0863">ShowProposalRepositoryJPAImpl</text><line style="stroke:#181818;stroke-width:0.3;" x1="14.1" x2="248.6801" y1="238.2082" y2="238.2082"/><line style="stroke:#181818;stroke-width:0.3;" x1="14.1" x2="248.6801" y1="243.0082" y2="243.0082"/><text fill="#000000" font-family="sans-serif" font-size="8.4" lengthAdjust="spacing" textLength="191.6783" x="17.1" y="254.4727">+getAllProposals(): Optional&lt;List&lt;ShowProposal&gt;&gt;</text><text fill="#000000" font-family="sans-serif" font-size="8.4" lengthAdjust="spacing" textLength="228.5801" x="17.1" y="265.6453">+updateInStoreProposal(proposal): Optional&lt;ShowProposal&gt;</text></g><!--class AcceptShowProposalUI--><g id="elem_AcceptShowProposalUI"><rect codeLine="47" fill="#F1F1F1" height="62.318" id="AcceptShowProposalUI" rx="1.5" ry="1.5" style="stroke:#181818;stroke-width:0.3;" width="163.1373" x="478.2" y="52.8082"/><ellipse cx="513.0961" cy="62.4082" fill="#ADD1B2" rx="6.6" ry="6.6" style="stroke:#181818;stroke-width:0.6;"/><path d="M514.7555,59.9332 Q514.8492,59.802 514.9617,59.7363 Q515.0742,59.6707 515.2055,59.6707 Q515.4305,59.6707 515.5711,59.8301 Q515.7117,59.9801 515.7117,60.3457 L515.7117,61.2176 Q515.7117,61.5832 515.5711,61.7426 Q515.4305,61.902 515.2055,61.902 Q514.9992,61.902 514.8773,61.7801 Q514.7555,61.6676 514.6898,61.3582 Q514.6617,61.1426 514.5492,61.0301 Q514.3523,60.8051 513.9867,60.6738 Q513.6211,60.5426 513.2461,60.5426 Q512.7867,60.5426 512.4023,60.7395 Q512.0273,60.9363 511.7273,61.3863 Q511.4367,61.8363 511.4367,62.4551 L511.4367,63.1113 Q511.4367,63.852 511.9711,64.3488 Q512.5055,64.8363 513.4617,64.8363 Q514.0242,64.8363 514.418,64.6863 Q514.6523,64.5926 514.9055,64.3301 Q515.0648,64.1707 515.1492,64.1238 Q515.243,64.077 515.3648,64.077 Q515.5617,64.077 515.7117,64.2363 Q515.8711,64.3863 515.8711,64.5926 Q515.8711,64.7988 515.6648,65.0426 Q515.3648,65.3895 514.8867,65.5863 Q514.2398,65.8582 513.4617,65.8582 Q512.5523,65.8582 511.8305,65.4832 Q511.2398,65.1832 510.8273,64.5457 Q510.4148,63.8988 510.4148,63.1301 L510.4148,62.4363 Q510.4148,61.6395 510.7805,60.9551 Q511.1555,60.2613 511.8117,59.8957 Q512.468,59.5207 513.2086,59.5207 Q513.6492,59.5207 514.0336,59.6238 Q514.4273,59.7176 514.7555,59.9332 Z " fill="#000000"/><text fill="#000000" font-family="sans-serif" font-size="8.4" lengthAdjust="spacing" textLength="88.2451" x="525.3961" y="65.8863">AcceptShowProposalUI</text><line style="stroke:#181818;stroke-width:0.3;" x1="478.8" x2="640.7373" y1="72.0082" y2="72.0082"/><text fill="#000000" font-family="sans-serif" font-size="8.4" lengthAdjust="spacing" textLength="155.9373" x="481.8" y="83.4727">-AcceptShowProposalController controller</text><text fill="#000000" font-family="sans-serif" font-size="8.4" lengthAdjust="spacing" textLength="155.4615" x="481.8" y="94.6453">-ListShowProposalController listController</text><line style="stroke:#181818;stroke-width:0.3;" x1="478.8" x2="640.7373" y1="99.1535" y2="99.1535"/><text fill="#000000" font-family="sans-serif" font-size="8.4" lengthAdjust="spacing" textLength="42.7178" x="481.8" y="110.618">+run(): void</text></g><!--link ShowProposalRepositoryJPAImpl to ShowProposalRepository--><g id="link_ShowProposalRepositoryJPAImpl_ShowProposalRepository"><path codeLine="43" d="M131.4,270.1522 C131.4,298.9882 131.4,335.2762 131.4,364.1002 " fill="none" id="ShowProposalRepositoryJPAImpl-to-ShowProposalRepository" style="stroke:#181818;stroke-width:0.6;stroke-dasharray:7.0,7.0;"/><polygon fill="none" points="131.4,374.9002,135,364.1002,127.8,364.1002,131.4,374.9002" style="stroke:#181818;stroke-width:0.6;"/></g><!--link AcceptShowProposalController to ShowProposal--><g id="link_AcceptShowProposalController_ShowProposal"><path codeLine="54" d="M729.912,270.0742 C754.26,279.8182 781.668,291.6622 805.8,304.2082 C838.962,321.4462 871.2977,341.7707 899.3297,360.5207 " fill="none" id="AcceptShowProposalController-to-ShowProposal" style="stroke:#181818;stroke-width:0.6;"/><polygon fill="#181818" points="902.322,362.5222,899.1678,357.5251,899.8284,360.8543,896.4992,361.5148,902.322,362.5222" style="stroke:#181818;stroke-width:0.6;"/><text fill="#000000" font-family="sans-serif" font-size="7.8" lengthAdjust="spacing" textLength="29.0443" x="795" y="297.0252">modifies</text></g><!--link AcceptShowProposalController to ShowProposalRepository--><g id="link_AcceptShowProposalController_ShowProposalRepository"><path codeLine="55" d="M528.456,268.2742 C525.066,268.8622 521.712,269.4382 518.4,270.0082 C442.146,283.1362 423.57,289.7182 346.8,299.4082 C320.784,302.6902 312.93,296.0842 288,304.2082 C240.438,319.7062 195.1817,350.0165 165.0737,372.8225 " fill="none" id="AcceptShowProposalController-to-ShowProposalRepository" style="stroke:#181818;stroke-width:0.6;"/><polygon fill="#181818" points="162.204,374.9962,167.9576,373.6488,164.5954,373.1848,165.0594,369.8225,162.204,374.9962" style="stroke:#181818;stroke-width:0.6;"/><text fill="#000000" font-family="sans-serif" font-size="7.8" lengthAdjust="spacing" textLength="26.8734" x="421.8" y="297.0252">persists</text></g><!--link AcceptShowProposalController to VerifyShowProposalStatusController--><g id="link_AcceptShowProposalController_VerifyShowProposalStatusController"><path codeLine="56" d="M662.4,270.1522 C662.4,300.8722 662.4,348.7042 662.4,376.7002 " fill="none" id="AcceptShowProposalController-to-VerifyShowProposalStatusController" style="stroke:#181818;stroke-width:0.6;"/><polygon fill="#181818" points="662.4,380.3002,664.8,374.9002,662.4,377.3002,660,374.9002,662.4,380.3002" style="stroke:#181818;stroke-width:0.6;"/><text fill="#000000" font-family="sans-serif" font-size="7.8" lengthAdjust="spacing" textLength="30.7849" x="663" y="297.0252">validates</text></g><!--link AcceptShowProposalUI to AcceptShowProposalController--><g id="link_AcceptShowProposalUI_AcceptShowProposalController"><path codeLine="57" d="M579.582,115.3222 C598.974,145.4302 626.227,187.7394 644.269,215.7594 " fill="none" id="AcceptShowProposalUI-to-AcceptShowProposalController" style="stroke:#181818;stroke-width:0.6;"/><polygon fill="#181818" points="646.218,218.7862,645.3124,212.9467,644.5939,216.2639,641.2767,215.5453,646.218,218.7862" style="stroke:#181818;stroke-width:0.6;"/><text fill="#000000" font-family="sans-serif" font-size="7.8" lengthAdjust="spacing" textLength="16.476" x="608.4" y="157.8252">uses</text></g><!--link AcceptShowProposalUI to ListShowProposalController--><g id="link_AcceptShowProposalUI_ListShowProposalController"><path codeLine="58" d="M529.488,115.3222 C497.73,147.5122 451.3166,194.5397 424.4426,221.7737 " fill="none" id="AcceptShowProposalUI-to-ListShowProposalController" style="stroke:#181818;stroke-width:0.6;"/><polygon fill="#181818" points="421.914,224.3362,427.4152,222.1782,424.0212,222.2008,423.9986,218.8068,421.914,224.3362" style="stroke:#181818;stroke-width:0.6;"/><text fill="#000000" font-family="sans-serif" font-size="7.8" lengthAdjust="spacing" textLength="16.476" x="495.6" y="157.8252">uses</text></g><!--link ListShowProposalController to ShowProposalRepository--><g id="link_ListShowProposalController_ShowProposalRepository"><path codeLine="59" d="M362.976,264.6562 C340.728,275.8462 312.582,290.3782 288,304.2082 C247.314,327.0922 204.9573,353.2043 173.5593,372.9983 " fill="none" id="ListShowProposalController-to-ShowProposalRepository" style="stroke:#181818;stroke-width:0.6;"/><polygon fill="#181818" points="170.514,374.9182,176.3619,374.0687,173.0518,373.3183,173.8021,370.0082,170.514,374.9182" style="stroke:#181818;stroke-width:0.6;"/><text fill="#000000" font-family="sans-serif" font-size="7.8" lengthAdjust="spacing" textLength="25.5823" x="316.2" y="297.0252">queries</text></g><!--link ShowProposal to ShowProposalId--><g id="link_ShowProposal_ShowProposalId"><path codeLine="60" d="M929.97,442.8442 C921.84,455.9842 915.3109,466.5313 909.2749,476.2813 " fill="none" id="ShowProposal-to-ShowProposalId" style="stroke:#181818;stroke-width:0.6;"/><polygon fill="#181818" points="907.38,479.3422,912.263,476.0141,908.9591,476.7914,908.1818,473.4875,907.38,479.3422" style="stroke:#181818;stroke-width:0.6;"/></g><!--link ShowProposal to ShowRequestId--><g id="link_ShowProposal_ShowRequestId"><path codeLine="61" d="M975.648,442.8442 C981.894,455.9842 986.8216,466.3413 991.4596,476.0913 " fill="none" id="ShowProposal-to-ShowRequestId" style="stroke:#181818;stroke-width:0.6;"/><polygon fill="#181818" points="993.006,479.3422,992.8536,473.4349,991.7173,476.6331,988.5191,475.4968,993.006,479.3422" style="stroke:#181818;stroke-width:0.6;"/></g><!--link ShowProposal to Status--><g id="link_ShowProposal_Status"><path codeLine="62" d="M1009.236,440.1682 C1028.286,454.0882 1045.6236,466.7658 1059.8736,477.1818 " fill="none" id="ShowProposal-to-Status" style="stroke:#181818;stroke-width:0.6;"/><polygon fill="#181818" points="1062.78,479.3062,1059.8367,474.182,1060.358,477.5359,1057.0042,478.0572,1062.78,479.3062" style="stroke:#181818;stroke-width:0.6;"/></g><!--SRC=[pLJBRi8m4Bpp5LPFL0ZKSrGXHPoeAXM1shj95chXsAxj557AlzTnNZO9BlJKN19bPlOnthNQ4IQmn1bAA5OgrbgITQvXdd2s8b-07WO3WPCTtWAwItc62Pi0qqGVxj1nWCnZTMZrplSBoGLNc5P0yOmzO9uYafvXI_Z8GMa3oVhBPMYiSuMKVJN_HqY1Bg5X2Tr7w9CxiKTesp0Cjchrfy65ggkyBR3qwgd-bu5EZYd6A2qvfI0dogX45Swt9quI4DfDDsjadbrl8Cdcu1BBb0wzxDWI2KYdvGpBdQkCLPaMqc5TbV7YHMZ26QQFBdNQzUQAIevEyZrM7jSCYPjrpJa5pBffdedwtHTxd36rKUkUQe4zu29ARqFkIGcGol209L2V3c4Qv0Odu8t24ioBQ2uFFJLuUHipkmLC7MKkKcnsYgrCJAWPVpcK_YgV5l4y4_J_51ikSpBvdbwWUEULaviswdNkRL9mvTgbTHI1KQG6cdKr8oHpDdGl7pjnmTJZiTyyYb36qsANrMr2PqeZLCts5I6ks6lJ3wQac8A-UCRd8aumKOHo5H87hAwa0KRG27Ddoy9Ap-9pXRdJU_7sok_2rgGV]--></g></svg>