<svg xmlns="http://www.w3.org/2000/svg" xmlns:xlink="http://www.w3.org/1999/xlink" contentStyleType="text/css" height="618.5px" preserveAspectRatio="none" style="width:918px;height:618px;background:#FFFFFF;" version="1.1" viewBox="0 0 918 618" width="918.5px" zoomAndPan="magnify"><title>UI Sequence Diagram (SSD) - Authentication Flow</title><defs/><g><text fill="#000000" font-family="sans-serif" font-size="7" font-weight="bold" lengthAdjust="spacing" textLength="166.0723" x="374.3326" y="15.0537">UI Sequence Diagram (SSD) - Authentication Flow</text><rect fill="#FFFFFF" height="456.084" style="stroke:#181818;stroke-width:0.5;" width="5" x="201.0972" y="116.5576"/><rect fill="#FFFFFF" height="15.6455" style="stroke:#181818;stroke-width:0.5;" width="5" x="297.0857" y="132.2031"/><rect fill="#FFFFFF" height="389.502" style="stroke:#181818;stroke-width:0.5;" width="5" x="379.7043" y="163.4941"/><rect fill="#FFFFFF" height="486.375" style="stroke:#181818;stroke-width:0.5;" width="5" x="484.5039" y="66.6211"/><rect fill="#FFFFFF" height="220.707" style="stroke:#181818;stroke-width:0.5;" width="5" x="604.8621" y="163.4941"/><rect fill="none" height="382.002" style="stroke:#000000;stroke-width:0.75;" width="758.4678" x="151.7698" y="170.9941"/><rect fill="none" height="111.834" style="stroke:#000000;stroke-width:0.75;" width="748.4678" x="156.7698" y="268.8672"/><rect fill="none" height="71.3975" style="stroke:#000000;stroke-width:0.75;" width="417.5222" x="156.7698" y="478.0986"/><line style="stroke:#181818;stroke-width:0.25;stroke-dasharray:5.0,5.0;" x1="24" x2="24" y1="61.6211" y2="577.1416"/><line style="stroke:#181818;stroke-width:0.25;stroke-dasharray:5.0,5.0;" x1="111.5198" x2="111.5198" y1="61.6211" y2="577.1416"/><line style="stroke:#181818;stroke-width:0.25;stroke-dasharray:5.0,5.0;" x1="203.2698" x2="203.2698" y1="61.6211" y2="577.1416"/><line style="stroke:#181818;stroke-width:0.25;stroke-dasharray:5.0,5.0;" x1="299.3513" x2="299.3513" y1="61.6211" y2="577.1416"/><line style="stroke:#181818;stroke-width:0.25;stroke-dasharray:5.0,5.0;" x1="381.8201" x2="381.8201" y1="61.6211" y2="577.1416"/><line style="stroke:#181818;stroke-width:0.25;stroke-dasharray:5.0,5.0;" x1="486.5886" x2="486.5886" y1="61.6211" y2="577.1416"/><line style="stroke:#181818;stroke-width:0.25;stroke-dasharray:5.0,5.0;" x1="606.9192" x2="606.9192" y1="61.6211" y2="577.1416"/><line style="stroke:#181818;stroke-width:0.25;stroke-dasharray:5.0,5.0;" x1="701.5569" x2="701.5569" y1="61.6211" y2="577.1416"/><line style="stroke:#181818;stroke-width:0.25;stroke-dasharray:5.0,5.0;" x1="766.3035" x2="766.3035" y1="61.6211" y2="577.1416"/><line style="stroke:#181818;stroke-width:0.25;stroke-dasharray:5.0,5.0;" x1="818.7585" x2="818.7585" y1="61.6211" y2="577.1416"/><line style="stroke:#181818;stroke-width:0.25;stroke-dasharray:5.0,5.0;" x1="875.6101" x2="875.6101" y1="61.6211" y2="577.1416"/><text fill="#000000" font-family="sans-serif" font-size="7" lengthAdjust="spacing" textLength="40.062" x="2.5" y="59.8643">System User</text><ellipse cx="24.031" cy="26.5605" fill="#E3E3E3" rx="4" ry="4" style="stroke:#181818;stroke-width:0.25;"/><path d="M24.031,30.5605 L24.031,44.0605 M17.531,34.5605 L30.531,34.5605 M24.031,44.0605 L17.531,51.5605 M24.031,44.0605 L30.531,51.5605 " fill="none" style="stroke:#181818;stroke-width:0.25;"/><text fill="#000000" font-family="sans-serif" font-size="7" lengthAdjust="spacing" textLength="40.062" x="2.5" y="584.1953">System User</text><ellipse cx="24.031" cy="590.2021" fill="#E3E3E3" rx="4" ry="4" style="stroke:#181818;stroke-width:0.25;"/><path d="M24.031,594.2021 L24.031,607.7021 M17.531,598.2021 L30.531,598.2021 M24.031,607.7021 L17.531,615.2021 M24.031,607.7021 L30.531,615.2021 " fill="none" style="stroke:#181818;stroke-width:0.25;"/><rect fill="#E3E3E3" height="16.3105" rx="1.25" ry="1.25" style="stroke:#181818;stroke-width:0.25;" width="33.0723" x="95.0198" y="44.8105"/><text fill="#000000" font-family="sans-serif" font-size="7" lengthAdjust="spacing" textLength="26.0723" x="98.5198" y="55.8643">:LoginUI</text><rect fill="#E3E3E3" height="16.3105" rx="1.25" ry="1.25" style="stroke:#181818;stroke-width:0.25;" width="33.0723" x="95.0198" y="576.6416"/><text fill="#000000" font-family="sans-serif" font-size="7" lengthAdjust="spacing" textLength="26.0723" x="98.5198" y="587.6953">:LoginUI</text><rect fill="#E3E3E3" height="16.3105" rx="1.25" ry="1.25" style="stroke:#181818;stroke-width:0.25;" width="83.6548" x="161.7698" y="44.8105"/><text fill="#000000" font-family="sans-serif" font-size="7" lengthAdjust="spacing" textLength="76.6548" x="165.2698" y="55.8643">:AuthenticationController</text><rect fill="#E3E3E3" height="16.3105" rx="1.25" ry="1.25" style="stroke:#181818;stroke-width:0.25;" width="83.6548" x="161.7698" y="576.6416"/><text fill="#000000" font-family="sans-serif" font-size="7" lengthAdjust="spacing" textLength="76.6548" x="165.2698" y="587.6953">:AuthenticationController</text><rect fill="#E3E3E3" height="16.3105" rx="1.25" ry="1.25" style="stroke:#181818;stroke-width:0.25;" width="68.4688" x="265.3513" y="44.8105"/><text fill="#000000" font-family="sans-serif" font-size="7" lengthAdjust="spacing" textLength="61.4688" x="268.8513" y="55.8643">:RepositoryProvider</text><rect fill="#E3E3E3" height="16.3105" rx="1.25" ry="1.25" style="stroke:#181818;stroke-width:0.25;" width="68.4688" x="265.3513" y="576.6416"/><text fill="#000000" font-family="sans-serif" font-size="7" lengthAdjust="spacing" textLength="61.4688" x="268.8513" y="587.6953">:RepositoryProvider</text><rect fill="#E3E3E3" height="16.3105" rx="1.25" ry="1.25" style="stroke:#181818;stroke-width:0.25;" width="86.7686" x="338.8201" y="44.8105"/><text fill="#000000" font-family="sans-serif" font-size="7" lengthAdjust="spacing" textLength="79.7686" x="342.3201" y="55.8643">:AuthenticationRepository</text><rect fill="#E3E3E3" height="16.3105" rx="1.25" ry="1.25" style="stroke:#181818;stroke-width:0.25;" width="86.7686" x="338.8201" y="576.6416"/><text fill="#000000" font-family="sans-serif" font-size="7" lengthAdjust="spacing" textLength="79.7686" x="342.3201" y="587.6953">:AuthenticationRepository</text><rect fill="#E3E3E3" height="16.3105" rx="1.25" ry="1.25" style="stroke:#181818;stroke-width:0.25;" width="112.8306" x="430.5886" y="44.8105"/><text fill="#000000" font-family="sans-serif" font-size="7" lengthAdjust="spacing" textLength="105.8306" x="434.0886" y="55.8643">:AuthenticationRepositoryJPAImpl</text><rect fill="#E3E3E3" height="16.3105" rx="1.25" ry="1.25" style="stroke:#181818;stroke-width:0.25;" width="112.8306" x="430.5886" y="576.6416"/><text fill="#000000" font-family="sans-serif" font-size="7" lengthAdjust="spacing" textLength="105.8306" x="434.0886" y="587.6953">:AuthenticationRepositoryJPAImpl</text><rect fill="#E3E3E3" height="16.3105" rx="1.25" ry="1.25" style="stroke:#181818;stroke-width:0.25;" width="117.8857" x="548.4192" y="44.8105"/><text fill="#000000" font-family="sans-serif" font-size="7" lengthAdjust="spacing" textLength="110.8857" x="551.9192" y="55.8643">:InMemoryAuthenticationRepository</text><rect fill="#E3E3E3" height="16.3105" rx="1.25" ry="1.25" style="stroke:#181818;stroke-width:0.25;" width="117.8857" x="548.4192" y="576.6416"/><text fill="#000000" font-family="sans-serif" font-size="7" lengthAdjust="spacing" textLength="110.8857" x="551.9192" y="587.6953">:InMemoryAuthenticationRepository</text><rect fill="#E3E3E3" height="16.3105" rx="1.25" ry="1.25" style="stroke:#181818;stroke-width:0.25;" width="46.6929" x="678.5569" y="44.8105"/><text fill="#000000" font-family="sans-serif" font-size="7" lengthAdjust="spacing" textLength="39.6929" x="682.0569" y="55.8643">:AuthFacade</text><rect fill="#E3E3E3" height="16.3105" rx="1.25" ry="1.25" style="stroke:#181818;stroke-width:0.25;" width="46.6929" x="678.5569" y="576.6416"/><text fill="#000000" font-family="sans-serif" font-size="7" lengthAdjust="spacing" textLength="39.6929" x="682.0569" y="587.6953">:AuthFacade</text><rect fill="#E3E3E3" height="16.3105" rx="1.25" ry="1.25" style="stroke:#181818;stroke-width:0.25;" width="40.4551" x="746.3035" y="44.8105"/><text fill="#000000" font-family="sans-serif" font-size="7" lengthAdjust="spacing" textLength="33.4551" x="749.8035" y="55.8643">:UserStore</text><rect fill="#E3E3E3" height="16.3105" rx="1.25" ry="1.25" style="stroke:#181818;stroke-width:0.25;" width="40.4551" x="746.3035" y="576.6416"/><text fill="#000000" font-family="sans-serif" font-size="7" lengthAdjust="spacing" textLength="33.4551" x="749.8035" y="587.6953">:UserStore</text><rect fill="#E3E3E3" height="16.3105" rx="1.25" ry="1.25" style="stroke:#181818;stroke-width:0.25;" width="54.8516" x="791.7585" y="44.8105"/><text fill="#000000" font-family="sans-serif" font-size="7" lengthAdjust="spacing" textLength="47.8516" x="795.2585" y="55.8643">:UserRoleStore</text><rect fill="#E3E3E3" height="16.3105" rx="1.25" ry="1.25" style="stroke:#181818;stroke-width:0.25;" width="54.8516" x="791.7585" y="576.6416"/><text fill="#000000" font-family="sans-serif" font-size="7" lengthAdjust="spacing" textLength="47.8516" x="795.2585" y="587.6953">:UserRoleStore</text><rect fill="#E3E3E3" height="16.3105" rx="1.25" ry="1.25" style="stroke:#181818;stroke-width:0.25;" width="48.6274" x="851.6101" y="44.8105"/><text fill="#000000" font-family="sans-serif" font-size="7" lengthAdjust="spacing" textLength="41.6274" x="855.1101" y="55.8643">:UserSession</text><rect fill="#E3E3E3" height="16.3105" rx="1.25" ry="1.25" style="stroke:#181818;stroke-width:0.25;" width="48.6274" x="851.6101" y="576.6416"/><text fill="#000000" font-family="sans-serif" font-size="7" lengthAdjust="spacing" textLength="41.6274" x="855.1101" y="587.6953">:UserSession</text><rect fill="#FFFFFF" height="456.084" style="stroke:#181818;stroke-width:0.5;" width="5" x="201.0972" y="116.5576"/><rect fill="#FFFFFF" height="15.6455" style="stroke:#181818;stroke-width:0.5;" width="5" x="297.0857" y="132.2031"/><rect fill="#FFFFFF" height="389.502" style="stroke:#181818;stroke-width:0.5;" width="5" x="379.7043" y="163.4941"/><rect fill="#FFFFFF" height="486.375" style="stroke:#181818;stroke-width:0.5;" width="5" x="484.5039" y="66.6211"/><rect fill="#FFFFFF" height="220.707" style="stroke:#181818;stroke-width:0.5;" width="5" x="604.8621" y="163.4941"/><rect fill="#EEEEEE" height="1.5" style="stroke:#EEEEEE;stroke-width:0.5;" width="915.2375" x="0" y="77.4438"/><line style="stroke:#000000;stroke-width:0.5;" x1="0" x2="915.2375" y1="77.4438" y2="77.4438"/><line style="stroke:#000000;stroke-width:0.5;" x1="0" x2="915.2375" y1="78.9438" y2="78.9438"/><rect fill="#EEEEEE" height="12.6455" style="stroke:#000000;stroke-width:1.0;" width="30.4705" x="442.3835" y="71.6211"/><text fill="#000000" font-family="sans-serif" font-size="6.5" font-weight="bold" lengthAdjust="spacing" textLength="21.6646" x="445.3835" y="80.6353">START</text><polygon fill="#181818" points="105.5559,98.9121,110.5559,100.9121,105.5559,102.9121,107.5559,100.9121" style="stroke:#181818;stroke-width:0.5;"/><line style="stroke:#181818;stroke-width:0.5;" x1="24.031" x2="108.5559" y1="100.9121" y2="100.9121"/><text fill="#000000" font-family="sans-serif" font-size="6.5" font-weight="bold" lengthAdjust="spacing" textLength="3.615" x="27.531" y="98.2808">1</text><text fill="#000000" font-family="sans-serif" font-size="6.5" lengthAdjust="spacing" textLength="69.9099" x="33.146" y="98.2808">inputs email + password</text><polygon fill="#181818" points="195.0972,114.5576,200.0972,116.5576,195.0972,118.5576,197.0972,116.5576" style="stroke:#181818;stroke-width:0.5;"/><line style="stroke:#181818;stroke-width:0.5;" x1="111.5559" x2="198.0972" y1="116.5576" y2="116.5576"/><text fill="#000000" font-family="sans-serif" font-size="6.5" font-weight="bold" lengthAdjust="spacing" textLength="3.615" x="115.0559" y="113.9263">2</text><text fill="#000000" font-family="sans-serif" font-size="6.5" lengthAdjust="spacing" textLength="74.4263" x="120.6709" y="113.9263">doLogin(email, password)</text><polygon fill="#181818" points="291.0857,130.2031,296.0857,132.2031,291.0857,134.2031,293.0857,132.2031" style="stroke:#181818;stroke-width:0.5;"/><line style="stroke:#181818;stroke-width:0.5;" x1="206.0972" x2="294.0857" y1="132.2031" y2="132.2031"/><text fill="#000000" font-family="sans-serif" font-size="6.5" font-weight="bold" lengthAdjust="spacing" textLength="3.615" x="209.5972" y="129.5718">3</text><text fill="#000000" font-family="sans-serif" font-size="6.5" lengthAdjust="spacing" textLength="75.8735" x="215.2122" y="129.5718">authenticationRepository()</text><polygon fill="#181818" points="211.5972,145.8486,206.5972,147.8486,211.5972,149.8486,209.5972,147.8486" style="stroke:#181818;stroke-width:0.5;"/><line style="stroke:#181818;stroke-width:0.5;stroke-dasharray:2.0,2.0;" x1="208.5972" x2="299.0857" y1="147.8486" y2="147.8486"/><text fill="#000000" font-family="sans-serif" font-size="6.5" font-weight="bold" lengthAdjust="spacing" textLength="3.615" x="214.5972" y="145.2173">4</text><text fill="#000000" font-family="sans-serif" font-size="6.5" lengthAdjust="spacing" textLength="53.4822" x="220.2122" y="145.2173">authRepoInterface</text><polygon fill="#181818" points="373.7043,161.4941,378.7043,163.4941,373.7043,165.4941,375.7043,163.4941" style="stroke:#181818;stroke-width:0.5;"/><line style="stroke:#181818;stroke-width:0.5;" x1="206.0972" x2="376.7043" y1="163.4941" y2="163.4941"/><text fill="#000000" font-family="sans-serif" font-size="6.5" font-weight="bold" lengthAdjust="spacing" textLength="3.615" x="209.5972" y="160.8628">5</text><text fill="#000000" font-family="sans-serif" font-size="6.5" lengthAdjust="spacing" textLength="74.4263" x="215.2122" y="160.8628">doLogin(email, password)</text><path d="M151.7698,170.9941 L181.8552,170.9941 L181.8552,175.6396 L176.8552,180.6396 L151.7698,180.6396 L151.7698,170.9941 " fill="#EEEEEE" style="stroke:#000000;stroke-width:0.75;"/><rect fill="none" height="382.002" style="stroke:#000000;stroke-width:0.75;" width="758.4678" x="151.7698" y="170.9941"/><text fill="#000000" font-family="sans-serif" font-size="6.5" font-weight="bold" lengthAdjust="spacing" textLength="7.5854" x="159.2698" y="178.5083">alt</text><text fill="#000000" font-family="sans-serif" font-size="5.5" font-weight="bold" lengthAdjust="spacing" textLength="113.6711" x="189.3552" y="177.9292">[Using InMemoryAuthenticationRepository]</text><polygon fill="#181818" points="598.8621,190.2852,603.8621,192.2852,598.8621,194.2852,600.8621,192.2852" style="stroke:#181818;stroke-width:0.5;"/><line style="stroke:#181818;stroke-width:0.5;" x1="384.7043" x2="601.8621" y1="192.2852" y2="192.2852"/><text fill="#000000" font-family="sans-serif" font-size="6.5" font-weight="bold" lengthAdjust="spacing" textLength="3.615" x="388.2043" y="189.6538">6</text><text fill="#000000" font-family="sans-serif" font-size="6.5" lengthAdjust="spacing" textLength="1.8059" x="393.8193" y="189.6538">&#160;</text><polygon fill="#181818" points="695.9033,205.9307,700.9033,207.9307,695.9033,209.9307,697.9033,207.9307" style="stroke:#181818;stroke-width:0.5;"/><line style="stroke:#181818;stroke-width:0.5;" x1="609.8621" x2="698.9033" y1="207.9307" y2="207.9307"/><text fill="#000000" font-family="sans-serif" font-size="6.5" font-weight="bold" lengthAdjust="spacing" textLength="3.615" x="613.3621" y="205.2993">7</text><text fill="#000000" font-family="sans-serif" font-size="6.5" lengthAdjust="spacing" textLength="74.4263" x="618.9771" y="205.2993">doLogin(email, password)</text><polygon fill="#181818" points="760.531,221.5762,765.531,223.5762,760.531,225.5762,762.531,223.5762" style="stroke:#181818;stroke-width:0.5;"/><line style="stroke:#181818;stroke-width:0.5;" x1="701.9033" x2="763.531" y1="223.5762" y2="223.5762"/><text fill="#000000" font-family="sans-serif" font-size="6.5" font-weight="bold" lengthAdjust="spacing" textLength="3.615" x="705.4033" y="220.9448">8</text><text fill="#000000" font-family="sans-serif" font-size="6.5" lengthAdjust="spacing" textLength="41.9041" x="711.0183" y="220.9448">getById(email)</text><polygon fill="#181818" points="707.4033,237.2217,702.4033,239.2217,707.4033,241.2217,705.4033,239.2217" style="stroke:#181818;stroke-width:0.5;"/><line style="stroke:#181818;stroke-width:0.5;stroke-dasharray:2.0,2.0;" x1="704.4033" x2="766.031" y1="239.2217" y2="239.2217"/><text fill="#000000" font-family="sans-serif" font-size="6.5" font-weight="bold" lengthAdjust="spacing" textLength="3.615" x="710.4033" y="236.5903">9</text><text fill="#000000" font-family="sans-serif" font-size="6.5" lengthAdjust="spacing" textLength="12.6445" x="716.0183" y="236.5903">user</text><line style="stroke:#181818;stroke-width:0.5;" x1="701.9033" x2="722.9033" y1="254.8672" y2="254.8672"/><line style="stroke:#181818;stroke-width:0.5;" x1="722.9033" x2="722.9033" y1="254.8672" y2="261.3672"/><line style="stroke:#181818;stroke-width:0.5;" x1="702.4033" x2="722.9033" y1="261.3672" y2="261.3672"/><polygon fill="#181818" points="707.4033,259.3672,702.4033,261.3672,707.4033,263.3672,705.4033,261.3672" style="stroke:#181818;stroke-width:0.5;"/><text fill="#000000" font-family="sans-serif" font-size="6.5" font-weight="bold" lengthAdjust="spacing" textLength="7.23" x="705.4033" y="252.2358">10</text><text fill="#000000" font-family="sans-serif" font-size="6.5" lengthAdjust="spacing" textLength="48.3977" x="714.6333" y="252.2358">verifyPassword()</text><path d="M156.7698,268.8672 L186.8552,268.8672 L186.8552,273.5127 L181.8552,278.5127 L156.7698,278.5127 L156.7698,268.8672 " fill="#EEEEEE" style="stroke:#000000;stroke-width:0.75;"/><rect fill="none" height="111.834" style="stroke:#000000;stroke-width:0.75;" width="748.4678" x="156.7698" y="268.8672"/><text fill="#000000" font-family="sans-serif" font-size="6.5" font-weight="bold" lengthAdjust="spacing" textLength="7.5854" x="164.2698" y="276.3813">alt</text><text fill="#000000" font-family="sans-serif" font-size="5.5" font-weight="bold" lengthAdjust="spacing" textLength="16.1965" x="194.3552" y="275.8022">[valid]</text><polygon fill="#181818" points="869.9238,288.1582,874.9238,290.1582,869.9238,292.1582,871.9238,290.1582" style="stroke:#181818;stroke-width:0.5;"/><line style="stroke:#181818;stroke-width:0.5;" x1="701.9033" x2="872.9238" y1="290.1582" y2="290.1582"/><text fill="#000000" font-family="sans-serif" font-size="6.5" font-weight="bold" lengthAdjust="spacing" textLength="7.23" x="705.4033" y="287.5269">11</text><text fill="#000000" font-family="sans-serif" font-size="6.5" lengthAdjust="spacing" textLength="67.5518" x="714.6333" y="287.5269">new UserSession(user)</text><polygon fill="#181818" points="707.4033,303.8037,702.4033,305.8037,707.4033,307.8037,705.4033,305.8037" style="stroke:#181818;stroke-width:0.5;"/><line style="stroke:#181818;stroke-width:0.5;stroke-dasharray:2.0,2.0;" x1="704.4033" x2="875.4238" y1="305.8037" y2="305.8037"/><text fill="#000000" font-family="sans-serif" font-size="6.5" font-weight="bold" lengthAdjust="spacing" textLength="7.23" x="710.4033" y="303.1724">12</text><text fill="#000000" font-family="sans-serif" font-size="6.5" lengthAdjust="spacing" textLength="23.48" x="719.6333" y="303.1724">success</text><polygon fill="#181818" points="615.3621,319.4492,610.3621,321.4492,615.3621,323.4492,613.3621,321.4492" style="stroke:#181818;stroke-width:0.5;"/><line style="stroke:#181818;stroke-width:0.5;stroke-dasharray:2.0,2.0;" x1="612.3621" x2="701.4033" y1="321.4492" y2="321.4492"/><text fill="#000000" font-family="sans-serif" font-size="6.5" font-weight="bold" lengthAdjust="spacing" textLength="7.23" x="618.3621" y="318.8179">13</text><text fill="#000000" font-family="sans-serif" font-size="6.5" lengthAdjust="spacing" textLength="22.0391" x="627.592" y="318.8179">session</text><polygon fill="#181818" points="211.5972,335.0947,206.5972,337.0947,211.5972,339.0947,209.5972,337.0947" style="stroke:#181818;stroke-width:0.5;"/><line style="stroke:#181818;stroke-width:0.5;stroke-dasharray:2.0,2.0;" x1="208.5972" x2="604.3621" y1="337.0947" y2="337.0947"/><text fill="#000000" font-family="sans-serif" font-size="6.5" font-weight="bold" lengthAdjust="spacing" textLength="7.23" x="214.5972" y="334.4634">14</text><text fill="#000000" font-family="sans-serif" font-size="6.5" lengthAdjust="spacing" textLength="11.2004" x="223.8271" y="334.4634">true</text><line style="stroke:#000000;stroke-width:0.5;stroke-dasharray:2.0,2.0;" x1="156.7698" x2="905.2375" y1="341.5947" y2="341.5947"/><text fill="#000000" font-family="sans-serif" font-size="5.5" font-weight="bold" lengthAdjust="spacing" textLength="21.0842" x="159.2698" y="347.5298">[invalid]</text><polygon fill="#181818" points="615.3621,359.0557,610.3621,361.0557,615.3621,363.0557,613.3621,361.0557" style="stroke:#181818;stroke-width:0.5;"/><line style="stroke:#181818;stroke-width:0.5;stroke-dasharray:2.0,2.0;" x1="612.3621" x2="701.4033" y1="361.0557" y2="361.0557"/><text fill="#000000" font-family="sans-serif" font-size="6.5" font-weight="bold" lengthAdjust="spacing" textLength="7.23" x="618.3621" y="358.4243">15</text><text fill="#000000" font-family="sans-serif" font-size="6.5" lengthAdjust="spacing" textLength="38.2922" x="627.592" y="358.4243">session (null)</text><polygon fill="#181818" points="211.5972,374.7012,206.5972,376.7012,211.5972,378.7012,209.5972,376.7012" style="stroke:#181818;stroke-width:0.5;"/><line style="stroke:#181818;stroke-width:0.5;stroke-dasharray:2.0,2.0;" x1="208.5972" x2="604.3621" y1="376.7012" y2="376.7012"/><text fill="#000000" font-family="sans-serif" font-size="6.5" font-weight="bold" lengthAdjust="spacing" textLength="7.23" x="214.5972" y="374.0698">16</text><text fill="#000000" font-family="sans-serif" font-size="6.5" lengthAdjust="spacing" textLength="13.73" x="223.8271" y="374.0698">false</text><line style="stroke:#000000;stroke-width:0.5;stroke-dasharray:2.0,2.0;" x1="151.7698" x2="910.2375" y1="384.7012" y2="384.7012"/><text fill="#000000" font-family="sans-serif" font-size="5.5" font-weight="bold" lengthAdjust="spacing" textLength="109.6992" x="154.2698" y="390.6362">[Using AuthenticationRepositoryJPAImpl]</text><polygon fill="#181818" points="478.5039,402.1621,483.5039,404.1621,478.5039,406.1621,480.5039,404.1621" style="stroke:#181818;stroke-width:0.5;"/><line style="stroke:#181818;stroke-width:0.5;" x1="384.7043" x2="481.5039" y1="404.1621" y2="404.1621"/><text fill="#000000" font-family="sans-serif" font-size="6.5" font-weight="bold" lengthAdjust="spacing" textLength="7.23" x="388.2043" y="401.5308">17</text><text fill="#000000" font-family="sans-serif" font-size="6.5" lengthAdjust="spacing" textLength="1.8059" x="397.4343" y="401.5308">&#160;</text><line style="stroke:#181818;stroke-width:0.5;" x1="489.5039" x2="510.5039" y1="419.8076" y2="419.8076"/><line style="stroke:#181818;stroke-width:0.5;" x1="510.5039" x2="510.5039" y1="419.8076" y2="426.3076"/><line style="stroke:#181818;stroke-width:0.5;" x1="490.0039" x2="510.5039" y1="426.3076" y2="426.3076"/><polygon fill="#181818" points="495.0039,424.3076,490.0039,426.3076,495.0039,428.3076,493.0039,426.3076" style="stroke:#181818;stroke-width:0.5;"/><text fill="#000000" font-family="sans-serif" font-size="6.5" font-weight="bold" lengthAdjust="spacing" textLength="7.23" x="493.0039" y="417.1763">18</text><text fill="#000000" font-family="sans-serif" font-size="6.5" lengthAdjust="spacing" textLength="43.3481" x="502.2339" y="417.1763">findById(email)</text><line style="stroke:#181818;stroke-width:0.5;stroke-dasharray:2.0,2.0;" x1="489.5039" x2="510.5039" y1="441.9531" y2="441.9531"/><line style="stroke:#181818;stroke-width:0.5;stroke-dasharray:2.0,2.0;" x1="510.5039" x2="510.5039" y1="441.9531" y2="448.4531"/><line style="stroke:#181818;stroke-width:0.5;stroke-dasharray:2.0,2.0;" x1="490.0039" x2="510.5039" y1="448.4531" y2="448.4531"/><polygon fill="#181818" points="495.0039,446.4531,490.0039,448.4531,495.0039,450.4531,493.0039,448.4531" style="stroke:#181818;stroke-width:0.5;"/><text fill="#000000" font-family="sans-serif" font-size="6.5" font-weight="bold" lengthAdjust="spacing" textLength="7.23" x="493.0039" y="439.3218">19</text><text fill="#000000" font-family="sans-serif" font-size="6.5" lengthAdjust="spacing" textLength="12.6445" x="502.2339" y="439.3218">user</text><line style="stroke:#181818;stroke-width:0.5;" x1="489.5039" x2="510.5039" y1="464.0986" y2="464.0986"/><line style="stroke:#181818;stroke-width:0.5;" x1="510.5039" x2="510.5039" y1="464.0986" y2="470.5986"/><line style="stroke:#181818;stroke-width:0.5;" x1="490.0039" x2="510.5039" y1="470.5986" y2="470.5986"/><polygon fill="#181818" points="495.0039,468.5986,490.0039,470.5986,495.0039,472.5986,493.0039,470.5986" style="stroke:#181818;stroke-width:0.5;"/><text fill="#000000" font-family="sans-serif" font-size="6.5" font-weight="bold" lengthAdjust="spacing" textLength="7.23" x="493.0039" y="461.4673">20</text><text fill="#000000" font-family="sans-serif" font-size="6.5" lengthAdjust="spacing" textLength="48.3977" x="502.2339" y="461.4673">verifyPassword()</text><path d="M156.7698,478.0986 L186.8552,478.0986 L186.8552,482.7441 L181.8552,487.7441 L156.7698,487.7441 L156.7698,478.0986 " fill="#EEEEEE" style="stroke:#000000;stroke-width:0.75;"/><rect fill="none" height="71.3975" style="stroke:#000000;stroke-width:0.75;" width="417.5222" x="156.7698" y="478.0986"/><text fill="#000000" font-family="sans-serif" font-size="6.5" font-weight="bold" lengthAdjust="spacing" textLength="7.5854" x="164.2698" y="485.6128">alt</text><text fill="#000000" font-family="sans-serif" font-size="5.5" font-weight="bold" lengthAdjust="spacing" textLength="16.1965" x="194.3552" y="485.0337">[valid]</text><line style="stroke:#181818;stroke-width:0.5;stroke-dasharray:2.0,2.0;" x1="489.5039" x2="510.5039" y1="499.3896" y2="499.3896"/><line style="stroke:#181818;stroke-width:0.5;stroke-dasharray:2.0,2.0;" x1="510.5039" x2="510.5039" y1="499.3896" y2="505.8896"/><line style="stroke:#181818;stroke-width:0.5;stroke-dasharray:2.0,2.0;" x1="490.0039" x2="510.5039" y1="505.8896" y2="505.8896"/><polygon fill="#181818" points="495.0039,503.8896,490.0039,505.8896,495.0039,507.8896,493.0039,505.8896" style="stroke:#181818;stroke-width:0.5;"/><text fill="#000000" font-family="sans-serif" font-size="6.5" font-weight="bold" lengthAdjust="spacing" textLength="7.23" x="493.0039" y="496.7583">21</text><text fill="#000000" font-family="sans-serif" font-size="6.5" lengthAdjust="spacing" textLength="61.0581" x="502.2339" y="496.7583">setLoggedUser(user)</text><polygon fill="#181818" points="211.5972,519.5352,206.5972,521.5352,211.5972,523.5352,209.5972,521.5352" style="stroke:#181818;stroke-width:0.5;"/><line style="stroke:#181818;stroke-width:0.5;stroke-dasharray:2.0,2.0;" x1="208.5972" x2="484.0039" y1="521.5352" y2="521.5352"/><text fill="#000000" font-family="sans-serif" font-size="6.5" font-weight="bold" lengthAdjust="spacing" textLength="7.23" x="214.5972" y="518.9038">22</text><text fill="#000000" font-family="sans-serif" font-size="6.5" lengthAdjust="spacing" textLength="11.2004" x="223.8271" y="518.9038">true</text><line style="stroke:#000000;stroke-width:0.5;stroke-dasharray:2.0,2.0;" x1="156.7698" x2="574.292" y1="526.0352" y2="526.0352"/><text fill="#000000" font-family="sans-serif" font-size="5.5" font-weight="bold" lengthAdjust="spacing" textLength="21.0842" x="159.2698" y="531.9702">[invalid]</text><polygon fill="#181818" points="211.5972,543.4961,206.5972,545.4961,211.5972,547.4961,209.5972,545.4961" style="stroke:#181818;stroke-width:0.5;"/><line style="stroke:#181818;stroke-width:0.5;stroke-dasharray:2.0,2.0;" x1="208.5972" x2="484.0039" y1="545.4961" y2="545.4961"/><text fill="#000000" font-family="sans-serif" font-size="6.5" font-weight="bold" lengthAdjust="spacing" textLength="7.23" x="214.5972" y="542.8647">23</text><text fill="#000000" font-family="sans-serif" font-size="6.5" lengthAdjust="spacing" textLength="13.73" x="223.8271" y="542.8647">false</text><polygon fill="#181818" points="117.0559,566.1416,112.0559,568.1416,117.0559,570.1416,115.0559,568.1416" style="stroke:#181818;stroke-width:0.5;"/><line style="stroke:#181818;stroke-width:0.5;stroke-dasharray:2.0,2.0;" x1="114.0559" x2="200.5972" y1="568.1416" y2="568.1416"/><text fill="#000000" font-family="sans-serif" font-size="6.5" font-weight="bold" lengthAdjust="spacing" textLength="7.23" x="120.0559" y="565.5103">24</text><text fill="#000000" font-family="sans-serif" font-size="6.5" lengthAdjust="spacing" textLength="65.0254" x="129.2859" y="565.5103">returns success/failure</text><!--SRC=[ZLJRZjem47ttLunu2cfHtrUY4jtjIgaM2H7u03SPWhMEJMq7nDztxDn35iYJB-UScSmSZ_qKwiGDBw3GIgT7emi4PqfajhqvyVIJvvYugqGmc3gkSja7s2FFz4Me70vSMcJC2KVGVGm9_YjHfGXlWkSU6YN9snmMi2hT4PKJANT2AtYN-i8OBvrMPV4N3QrJfmtCagjrMC3Uefa1jr3IWb5KOeeJLmvcBnyw5seVX-jzFBeSnddLoXajPItskjj-ZF1RF6ahAFHrO_HPP3NIq75pS3T2nmyy-gEZFugLGtFWAJv9_hDPnSL9jXgq7p5ZjSQ2a0_3ht-l9uA-yvHd6427i1nXVC4Jqi6swc4tWTfgYHtIDBifFRIMSWmuMwqPMouXsQssErWk6VDnOF7JE-S5o5sbiu055nA-aGkjlMYJCReaYEyTWJ8TsXy5rFSMDFV-4MVki6eo2t2YzHj9TFv5zQAUmA3t0_wYo-EsqHbEAxIft52U-ftRG8nBHm_4Fxz7fc10tq3AkoCStYHJPzW7qDeVLuQvbwqdr2Z2j-uXIexkrpNEAae5xAuNVV7mqeT2xTqPZJXSDtMygDBnPJXpARAm6p9hkn5LuGLwPenyc7dBQ723J6oPfdH-8zjLo8DgGpUWjbwTHy9OzNT8GvBiFPtib2f4gfHoVa-ychn1NLMYFGCsZMGXSkML1wFdrYf-1jsrIXz0wzwnpq-eRDpv5ZX0jesVr7cozTFI5XqvDiVCEs3K-ZxZgOPD41usOVXo9m2-XioJwp7H34E3hZJADbxySQ0YbZHbsNy0]--></g></svg>