<svg xmlns="http://www.w3.org/2000/svg" xmlns:xlink="http://www.w3.org/1999/xlink" contentStyleType="text/css" height="530.4px" preserveAspectRatio="none" style="width:1086px;height:530px;background:#FFFFFF;" version="1.1" viewBox="0 0 1086 530" width="1086.6px" zoomAndPan="magnify"><title>UI Sequence Diagram (SSD) - Mark Show Proposal as Accepted (US317)</title><defs/><g><text fill="#000000" font-family="sans-serif" font-size="8.4" font-weight="bold" lengthAdjust="spacing" textLength="287.0807" x="397.6488" y="18.0645">UI Sequence Diagram (SSD) - Mark Show Proposal as Accepted (US317)</text><rect fill="#FFFFFF" height="395.0707" style="stroke:#181818;stroke-width:0.6;" width="6" x="35.4103" y="79.9453"/><rect fill="#FFFFFF" height="353.9215" style="stroke:#181818;stroke-width:0.6;" width="6" x="179.6561" y="121.0945"/><rect fill="#FFFFFF" height="75.0984" style="stroke:#181818;stroke-width:0.6;" width="6" x="311.7524" y="139.8691"/><rect fill="#FFFFFF" height="203.7246" style="stroke:#181818;stroke-width:0.6;" width="6" x="438.4409" y="271.2914"/><rect fill="#FFFFFF" height="18.7746" style="stroke:#181818;stroke-width:0.6;" width="6" x="582.2449" y="290.066"/><rect fill="#FFFFFF" height="18.7746" style="stroke:#181818;stroke-width:0.6;" width="6" x="702.6252" y="158.6437"/><rect fill="#FFFFFF" height="18.7746" style="stroke:#181818;stroke-width:0.6;" width="6" x="702.6252" y="362.1645"/><rect fill="#FFFFFF" height="18.7746" style="stroke:#181818;stroke-width:0.6;" width="6" x="802.2311" y="196.193"/><rect fill="#FFFFFF" height="18.7746" style="stroke:#181818;stroke-width:0.6;" width="6" x="802.2311" y="399.7137"/><rect fill="none" height="152.9754" style="stroke:#000000;stroke-width:0.8999999999999999;" width="949.8117" x="127.1666" y="317.8406"/><line style="stroke:#181818;stroke-width:0.3;stroke-dasharray:5.0,5.0;" x1="38.4" x2="38.4" y1="73.9453" y2="481.016"/><line style="stroke:#181818;stroke-width:0.3;stroke-dasharray:5.0,5.0;" x1="182.3666" x2="182.3666" y1="73.9453" y2="481.016"/><line style="stroke:#181818;stroke-width:0.3;stroke-dasharray:5.0,5.0;" x1="314.5603" x2="314.5603" y1="73.9453" y2="481.016"/><line style="stroke:#181818;stroke-width:0.3;stroke-dasharray:5.0,5.0;" x1="440.9446" x2="440.9446" y1="73.9453" y2="481.016"/><line style="stroke:#181818;stroke-width:0.3;stroke-dasharray:5.0,5.0;" x1="585.1459" x2="585.1459" y1="73.9453" y2="481.016"/><line style="stroke:#181818;stroke-width:0.3;stroke-dasharray:5.0,5.0;" x1="705.3439" x2="705.3439" y1="73.9453" y2="481.016"/><line style="stroke:#181818;stroke-width:0.3;stroke-dasharray:5.0,5.0;" x1="804.9064" x2="804.9064" y1="73.9453" y2="481.016"/><line style="stroke:#181818;stroke-width:0.3;stroke-dasharray:5.0,5.0;" x1="931.5557" x2="931.5557" y1="73.9453" y2="481.016"/><line style="stroke:#181818;stroke-width:0.3;stroke-dasharray:5.0,5.0;" x1="1038.4793" x2="1038.4793" y1="73.9453" y2="481.016"/><text fill="#000000" font-family="sans-serif" font-size="8.4" lengthAdjust="spacing" textLength="67.2205" x="3" y="71.8371">CRM Collaborator</text><ellipse cx="38.4103" cy="31.8727" fill="#E3E3E3" rx="4.8" ry="4.8" style="stroke:#181818;stroke-width:0.3;"/><path d="M38.4103,36.6727 L38.4103,52.8727 M30.6103,41.4727 L46.2103,41.4727 M38.4103,52.8727 L30.6103,61.8727 M38.4103,52.8727 L46.2103,61.8727 " fill="none" style="stroke:#181818;stroke-width:0.3;"/><text fill="#000000" font-family="sans-serif" font-size="8.4" lengthAdjust="spacing" textLength="67.2205" x="3" y="489.4805">CRM Collaborator</text><ellipse cx="38.4103" cy="496.6887" fill="#E3E3E3" rx="4.8" ry="4.8" style="stroke:#181818;stroke-width:0.3;"/><path d="M38.4103,501.4887 L38.4103,517.6887 M30.6103,506.2887 L46.2103,506.2887 M38.4103,517.6887 L30.6103,526.6887 M38.4103,517.6887 L46.2103,526.6887 " fill="none" style="stroke:#181818;stroke-width:0.3;"/><rect fill="#E3E3E3" height="19.5727" rx="1.5" ry="1.5" style="stroke:#181818;stroke-width:0.3;" width="98.9789" x="133.1666" y="53.7727"/><text fill="#000000" font-family="sans-serif" font-size="8.4" lengthAdjust="spacing" textLength="90.5789" x="137.3666" y="67.0371">:AcceptShowProposalUI</text><rect fill="#E3E3E3" height="19.5727" rx="1.5" ry="1.5" style="stroke:#181818;stroke-width:0.3;" width="98.9789" x="133.1666" y="480.416"/><text fill="#000000" font-family="sans-serif" font-size="8.4" lengthAdjust="spacing" textLength="90.5789" x="137.3666" y="493.6805">:AcceptShowProposalUI</text><rect fill="#E3E3E3" height="19.5727" rx="1.5" ry="1.5" style="stroke:#181818;stroke-width:0.3;" width="114.3844" x="257.5603" y="53.7727"/><text fill="#000000" font-family="sans-serif" font-size="8.4" lengthAdjust="spacing" textLength="105.9844" x="261.7603" y="67.0371">:ListShowProposalController</text><rect fill="#E3E3E3" height="19.5727" rx="1.5" ry="1.5" style="stroke:#181818;stroke-width:0.3;" width="114.3844" x="257.5603" y="480.416"/><text fill="#000000" font-family="sans-serif" font-size="8.4" lengthAdjust="spacing" textLength="105.9844" x="261.7603" y="493.6805">:ListShowProposalController</text><rect fill="#E3E3E3" height="19.5727" rx="1.5" ry="1.5" style="stroke:#181818;stroke-width:0.3;" width="126.9926" x="377.9446" y="53.7727"/><text fill="#000000" font-family="sans-serif" font-size="8.4" lengthAdjust="spacing" textLength="118.5926" x="382.1446" y="67.0371">:AcceptShowProposalController</text><rect fill="#E3E3E3" height="19.5727" rx="1.5" ry="1.5" style="stroke:#181818;stroke-width:0.3;" width="126.9926" x="377.9446" y="480.416"/><text fill="#000000" font-family="sans-serif" font-size="8.4" lengthAdjust="spacing" textLength="118.5926" x="382.1446" y="493.6805">:AcceptShowProposalController</text><rect fill="#E3E3E3" height="19.5727" rx="1.5" ry="1.5" style="stroke:#181818;stroke-width:0.3;" width="146.598" x="511.9459" y="53.7727"/><text fill="#000000" font-family="sans-serif" font-size="8.4" lengthAdjust="spacing" textLength="138.198" x="516.1459" y="67.0371">:VerifyShowProposalStatusController</text><rect fill="#E3E3E3" height="19.5727" rx="1.5" ry="1.5" style="stroke:#181818;stroke-width:0.3;" width="146.598" x="511.9459" y="480.416"/><text fill="#000000" font-family="sans-serif" font-size="8.4" lengthAdjust="spacing" textLength="138.198" x="516.1459" y="493.6805">:VerifyShowProposalStatusController</text><rect fill="#E3E3E3" height="19.5727" rx="1.5" ry="1.5" style="stroke:#181818;stroke-width:0.3;" width="82.1625" x="664.5439" y="53.7727"/><text fill="#000000" font-family="sans-serif" font-size="8.4" lengthAdjust="spacing" textLength="73.7625" x="668.7439" y="67.0371">:RepositoryProvider</text><rect fill="#E3E3E3" height="19.5727" rx="1.5" ry="1.5" style="stroke:#181818;stroke-width:0.3;" width="82.1625" x="664.5439" y="480.416"/><text fill="#000000" font-family="sans-serif" font-size="8.4" lengthAdjust="spacing" textLength="73.7625" x="668.7439" y="493.6805">:RepositoryProvider</text><rect fill="#E3E3E3" height="19.5727" rx="1.5" ry="1.5" style="stroke:#181818;stroke-width:0.3;" width="105.0492" x="752.7064" y="53.7727"/><text fill="#000000" font-family="sans-serif" font-size="8.4" lengthAdjust="spacing" textLength="96.6492" x="756.9064" y="67.0371">:ShowProposalRepository</text><rect fill="#E3E3E3" height="19.5727" rx="1.5" ry="1.5" style="stroke:#181818;stroke-width:0.3;" width="105.0492" x="752.7064" y="480.416"/><text fill="#000000" font-family="sans-serif" font-size="8.4" lengthAdjust="spacing" textLength="96.6492" x="756.9064" y="493.6805">:ShowProposalRepository</text><rect fill="#E3E3E3" height="19.5727" rx="1.5" ry="1.5" style="stroke:#181818;stroke-width:0.3;" width="136.3236" x="863.7557" y="53.7727"/><text fill="#000000" font-family="sans-serif" font-size="8.4" lengthAdjust="spacing" textLength="127.9236" x="867.9557" y="67.0371">:ShowProposalRepositoryJPAImpl</text><rect fill="#E3E3E3" height="19.5727" rx="1.5" ry="1.5" style="stroke:#181818;stroke-width:0.3;" width="136.3236" x="863.7557" y="480.416"/><text fill="#000000" font-family="sans-serif" font-size="8.4" lengthAdjust="spacing" textLength="127.9236" x="867.9557" y="493.6805">:ShowProposalRepositoryJPAImpl</text><rect fill="#E3E3E3" height="19.5727" rx="1.5" ry="1.5" style="stroke:#181818;stroke-width:0.3;" width="64.899" x="1006.0793" y="53.7727"/><text fill="#000000" font-family="sans-serif" font-size="8.4" lengthAdjust="spacing" textLength="56.499" x="1010.2793" y="67.0371">:ShowProposal</text><rect fill="#E3E3E3" height="19.5727" rx="1.5" ry="1.5" style="stroke:#181818;stroke-width:0.3;" width="64.899" x="1006.0793" y="480.416"/><text fill="#000000" font-family="sans-serif" font-size="8.4" lengthAdjust="spacing" textLength="56.499" x="1010.2793" y="493.6805">:ShowProposal</text><rect fill="#FFFFFF" height="395.0707" style="stroke:#181818;stroke-width:0.6;" width="6" x="35.4103" y="79.9453"/><rect fill="#FFFFFF" height="353.9215" style="stroke:#181818;stroke-width:0.6;" width="6" x="179.6561" y="121.0945"/><rect fill="#FFFFFF" height="75.0984" style="stroke:#181818;stroke-width:0.6;" width="6" x="311.7524" y="139.8691"/><rect fill="#FFFFFF" height="203.7246" style="stroke:#181818;stroke-width:0.6;" width="6" x="438.4409" y="271.2914"/><rect fill="#FFFFFF" height="18.7746" style="stroke:#181818;stroke-width:0.6;" width="6" x="582.2449" y="290.066"/><rect fill="#FFFFFF" height="18.7746" style="stroke:#181818;stroke-width:0.6;" width="6" x="702.6252" y="158.6437"/><rect fill="#FFFFFF" height="18.7746" style="stroke:#181818;stroke-width:0.6;" width="6" x="702.6252" y="362.1645"/><rect fill="#FFFFFF" height="18.7746" style="stroke:#181818;stroke-width:0.6;" width="6" x="802.2311" y="196.193"/><rect fill="#FFFFFF" height="18.7746" style="stroke:#181818;stroke-width:0.6;" width="6" x="802.2311" y="399.7137"/><rect fill="#EEEEEE" height="1.8" style="stroke:#EEEEEE;stroke-width:0.6;" width="1082.9783" x="0" y="92.9326"/><line style="stroke:#000000;stroke-width:0.6;" x1="0" x2="1082.9783" y1="92.9326" y2="92.9326"/><line style="stroke:#000000;stroke-width:0.6;" x1="0" x2="1082.9783" y1="94.7326" y2="94.7326"/><rect fill="#EEEEEE" height="15.1746" style="stroke:#000000;stroke-width:1.2;" width="36.5646" x="523.2069" y="85.9453"/><text fill="#000000" font-family="sans-serif" font-size="7.8" font-weight="bold" lengthAdjust="spacing" textLength="25.9975" x="526.8069" y="96.7623">START</text><polygon fill="#181818" points="172.4561,118.6945,178.4561,121.0945,172.4561,123.4945,174.8561,121.0945" style="stroke:#181818;stroke-width:0.6;"/><line style="stroke:#181818;stroke-width:0.6;" x1="41.4103" x2="176.0561" y1="121.0945" y2="121.0945"/><text fill="#000000" font-family="sans-serif" font-size="7.8" font-weight="bold" lengthAdjust="spacing" textLength="4.338" x="45.6103" y="117.9369">1</text><text fill="#000000" font-family="sans-serif" font-size="7.8" lengthAdjust="spacing" textLength="120.1078" x="52.3482" y="117.9369">selects option to accept a proposal</text><polygon fill="#181818" points="304.5524,137.4691,310.5524,139.8691,304.5524,142.2691,306.9524,139.8691" style="stroke:#181818;stroke-width:0.6;"/><line style="stroke:#181818;stroke-width:0.6;" x1="185.6561" x2="308.1524" y1="139.8691" y2="139.8691"/><text fill="#000000" font-family="sans-serif" font-size="7.8" font-weight="bold" lengthAdjust="spacing" textLength="4.338" x="189.8561" y="136.7115">2</text><text fill="#000000" font-family="sans-serif" font-size="7.8" lengthAdjust="spacing" textLength="107.9584" x="196.594" y="136.7115">getAllSentAcceptedProposals()</text><polygon fill="#181818" points="695.4252,156.2438,701.4252,158.6437,695.4252,161.0438,697.8252,158.6437" style="stroke:#181818;stroke-width:0.6;"/><line style="stroke:#181818;stroke-width:0.6;" x1="317.7524" x2="699.0252" y1="158.6437" y2="158.6437"/><text fill="#000000" font-family="sans-serif" font-size="7.8" font-weight="bold" lengthAdjust="spacing" textLength="4.338" x="321.9524" y="155.4861">3</text><text fill="#000000" font-family="sans-serif" font-size="7.8" lengthAdjust="spacing" textLength="91.471" x="328.6904" y="155.4861">showProposalRepository()</text><polygon fill="#181818" points="324.3524,175.0184,318.3524,177.4184,324.3524,179.8184,321.9524,177.4184" style="stroke:#181818;stroke-width:0.6;"/><line style="stroke:#181818;stroke-width:0.6;stroke-dasharray:2.0,2.0;" x1="320.7524" x2="705.0252" y1="177.4184" y2="177.4184"/><text fill="#000000" font-family="sans-serif" font-size="7.8" font-weight="bold" lengthAdjust="spacing" textLength="4.338" x="327.9524" y="174.2607">4</text><text fill="#000000" font-family="sans-serif" font-size="7.8" lengthAdjust="spacing" textLength="45.9621" x="334.6904" y="174.2607">repoInterface</text><polygon fill="#181818" points="795.0311,193.793,801.0311,196.193,795.0311,198.593,797.4311,196.193" style="stroke:#181818;stroke-width:0.6;"/><line style="stroke:#181818;stroke-width:0.6;" x1="317.7524" x2="798.6311" y1="196.193" y2="196.193"/><text fill="#000000" font-family="sans-serif" font-size="7.8" font-weight="bold" lengthAdjust="spacing" textLength="4.338" x="321.9524" y="193.0354">5</text><text fill="#000000" font-family="sans-serif" font-size="7.8" lengthAdjust="spacing" textLength="59.3912" x="328.6904" y="193.0354">getAllProposals()</text><polygon fill="#181818" points="321.3524,212.5676,315.3524,214.9676,321.3524,217.3676,318.9524,214.9676" style="stroke:#181818;stroke-width:0.6;"/><line style="stroke:#181818;stroke-width:0.6;stroke-dasharray:2.0,2.0;" x1="317.7524" x2="804.6311" y1="214.9676" y2="214.9676"/><text fill="#000000" font-family="sans-serif" font-size="7.8" font-weight="bold" lengthAdjust="spacing" textLength="4.338" x="324.9524" y="211.81">6</text><text fill="#000000" font-family="sans-serif" font-size="7.8" lengthAdjust="spacing" textLength="71.5444" x="331.6904" y="211.81">List&lt;ShowProposal&gt;</text><polygon fill="#181818" points="48.0103,231.3422,42.0103,233.7422,48.0103,236.1422,45.6103,233.7422" style="stroke:#181818;stroke-width:0.6;"/><line style="stroke:#181818;stroke-width:0.6;" x1="44.4103" x2="179.0561" y1="233.7422" y2="233.7422"/><text fill="#000000" font-family="sans-serif" font-size="7.8" font-weight="bold" lengthAdjust="spacing" textLength="4.338" x="51.6103" y="230.5846">7</text><text fill="#000000" font-family="sans-serif" font-size="7.8" lengthAdjust="spacing" textLength="112.285" x="58.3482" y="230.5846">shows list and prompts selection</text><polygon fill="#181818" points="172.4561,250.1168,178.4561,252.5168,172.4561,254.9168,174.8561,252.5168" style="stroke:#181818;stroke-width:0.6;"/><line style="stroke:#181818;stroke-width:0.6;" x1="41.4103" x2="176.0561" y1="252.5168" y2="252.5168"/><text fill="#000000" font-family="sans-serif" font-size="7.8" font-weight="bold" lengthAdjust="spacing" textLength="4.338" x="45.6103" y="249.3592">8</text><text fill="#000000" font-family="sans-serif" font-size="7.8" lengthAdjust="spacing" textLength="56.3634" x="52.3482" y="249.3592">selects proposal</text><polygon fill="#181818" points="431.2409,268.8914,437.2409,271.2914,431.2409,273.6914,433.6409,271.2914" style="stroke:#181818;stroke-width:0.6;"/><line style="stroke:#181818;stroke-width:0.6;" x1="185.6561" x2="434.8409" y1="271.2914" y2="271.2914"/><text fill="#000000" font-family="sans-serif" font-size="7.8" font-weight="bold" lengthAdjust="spacing" textLength="4.338" x="189.8561" y="268.1338">9</text><text fill="#000000" font-family="sans-serif" font-size="7.8" lengthAdjust="spacing" textLength="144.3686" x="196.594" y="268.1338">markShowProposalAsAccepted(proposal)</text><polygon fill="#181818" points="575.0449,287.666,581.0449,290.066,575.0449,292.466,577.4449,290.066" style="stroke:#181818;stroke-width:0.6;"/><line style="stroke:#181818;stroke-width:0.6;" x1="444.4409" x2="578.6449" y1="290.066" y2="290.066"/><text fill="#000000" font-family="sans-serif" font-size="7.8" font-weight="bold" lengthAdjust="spacing" textLength="8.676" x="448.6409" y="286.9084">10</text><text fill="#000000" font-family="sans-serif" font-size="7.8" lengthAdjust="spacing" textLength="115.328" x="459.7169" y="286.9084">wasShowProposalSent(proposal)</text><polygon fill="#181818" points="451.0409,306.4406,445.0409,308.8406,451.0409,311.2406,448.6409,308.8406" style="stroke:#181818;stroke-width:0.6;"/><line style="stroke:#181818;stroke-width:0.6;stroke-dasharray:2.0,2.0;" x1="447.4409" x2="584.6449" y1="308.8406" y2="308.8406"/><text fill="#000000" font-family="sans-serif" font-size="7.8" font-weight="bold" lengthAdjust="spacing" textLength="8.676" x="454.6409" y="305.683">11</text><text fill="#000000" font-family="sans-serif" font-size="7.8" lengthAdjust="spacing" textLength="32.0836" x="465.7169" y="305.683">true/false</text><path d="M127.1666,317.8406 L163.2691,317.8406 L163.2691,323.4152 L157.2691,329.4152 L127.1666,329.4152 L127.1666,317.8406 " fill="#EEEEEE" style="stroke:#000000;stroke-width:0.8999999999999999;"/><rect fill="none" height="152.9754" style="stroke:#000000;stroke-width:0.8999999999999999;" width="949.8117" x="127.1666" y="317.8406"/><text fill="#000000" font-family="sans-serif" font-size="7.8" font-weight="bold" lengthAdjust="spacing" textLength="9.1025" x="136.1666" y="326.8576">alt</text><a href="proposal" target="_top" title="proposal" xlink:actuate="onRequest" xlink:href="proposal" xlink:show="new" xlink:title="proposal" xlink:type="simple"><text fill="#1D1D1D" font-family="sans-serif" font-size="6.6" font-weight="bold" lengthAdjust="spacing" text-decoration="underline" textLength="30.0771" x="172.2691" y="326.1627">is eligible</text></a><polygon fill="#181818" points="1031.3288,340.9898,1037.3288,343.3898,1031.3288,345.7898,1033.7288,343.3898" style="stroke:#181818;stroke-width:0.6;"/><line style="stroke:#181818;stroke-width:0.6;" x1="444.4409" x2="1034.9288" y1="343.3898" y2="343.3898"/><text fill="#000000" font-family="sans-serif" font-size="7.8" font-weight="bold" lengthAdjust="spacing" textLength="8.676" x="448.6409" y="340.2322">12</text><text fill="#000000" font-family="sans-serif" font-size="7.8" lengthAdjust="spacing" textLength="149.5444" x="459.7169" y="340.2322">setStatus(COLLABORATOR_APPROVED)</text><polygon fill="#181818" points="695.4252,359.7645,701.4252,362.1645,695.4252,364.5645,697.8252,362.1645" style="stroke:#181818;stroke-width:0.6;"/><line style="stroke:#181818;stroke-width:0.6;" x1="444.4409" x2="699.0252" y1="362.1645" y2="362.1645"/><text fill="#000000" font-family="sans-serif" font-size="7.8" font-weight="bold" lengthAdjust="spacing" textLength="8.676" x="448.6409" y="359.0068">13</text><text fill="#000000" font-family="sans-serif" font-size="7.8" lengthAdjust="spacing" textLength="91.471" x="459.7169" y="359.0068">showProposalRepository()</text><polygon fill="#181818" points="451.0409,378.5391,445.0409,380.9391,451.0409,383.3391,448.6409,380.9391" style="stroke:#181818;stroke-width:0.6;"/><line style="stroke:#181818;stroke-width:0.6;stroke-dasharray:2.0,2.0;" x1="447.4409" x2="705.0252" y1="380.9391" y2="380.9391"/><text fill="#000000" font-family="sans-serif" font-size="7.8" font-weight="bold" lengthAdjust="spacing" textLength="8.676" x="454.6409" y="377.7814">14</text><text fill="#000000" font-family="sans-serif" font-size="7.8" lengthAdjust="spacing" textLength="45.9621" x="465.7169" y="377.7814">repoInterface</text><polygon fill="#181818" points="795.0311,397.3137,801.0311,399.7137,795.0311,402.1137,797.4311,399.7137" style="stroke:#181818;stroke-width:0.6;"/><line style="stroke:#181818;stroke-width:0.6;" x1="444.4409" x2="798.6311" y1="399.7137" y2="399.7137"/><text fill="#000000" font-family="sans-serif" font-size="7.8" font-weight="bold" lengthAdjust="spacing" textLength="8.676" x="448.6409" y="396.5561">15</text><text fill="#000000" font-family="sans-serif" font-size="7.8" lengthAdjust="spacing" textLength="114.9053" x="459.7169" y="396.5561">updateInStoreProposal(proposal)</text><polygon fill="#181818" points="451.0409,416.0883,445.0409,418.4883,451.0409,420.8883,448.6409,418.4883" style="stroke:#181818;stroke-width:0.6;"/><line style="stroke:#181818;stroke-width:0.6;stroke-dasharray:2.0,2.0;" x1="447.4409" x2="804.6311" y1="418.4883" y2="418.4883"/><text fill="#000000" font-family="sans-serif" font-size="7.8" font-weight="bold" lengthAdjust="spacing" textLength="8.676" x="454.6409" y="415.3307">16</text><text fill="#000000" font-family="sans-serif" font-size="7.8" lengthAdjust="spacing" textLength="28.176" x="465.7169" y="415.3307">success</text><polygon fill="#181818" points="192.2561,434.8629,186.2561,437.2629,192.2561,439.6629,189.8561,437.2629" style="stroke:#181818;stroke-width:0.6;"/><line style="stroke:#181818;stroke-width:0.6;stroke-dasharray:2.0,2.0;" x1="188.6561" x2="437.8409" y1="437.2629" y2="437.2629"/><text fill="#000000" font-family="sans-serif" font-size="7.8" font-weight="bold" lengthAdjust="spacing" textLength="8.676" x="195.8561" y="434.1053">17</text><text fill="#000000" font-family="sans-serif" font-size="7.8" lengthAdjust="spacing" textLength="82.3685" x="206.932" y="434.1053">show success message</text><line style="stroke:#000000;stroke-width:0.6;stroke-dasharray:2.0,2.0;" x1="127.1666" x2="1076.9783" y1="442.6629" y2="442.6629"/><a href="proposal" target="_top" title="proposal" xlink:actuate="onRequest" xlink:href="proposal" xlink:show="new" xlink:title="proposal" xlink:type="simple"><text fill="#1D1D1D" font-family="sans-serif" font-size="6.6" font-weight="bold" lengthAdjust="spacing" text-decoration="underline" textLength="20.9054" x="130.1666" y="449.785">invalid</text></a><polygon fill="#181818" points="192.2561,463.616,186.2561,466.016,192.2561,468.416,189.8561,466.016" style="stroke:#181818;stroke-width:0.6;"/><line style="stroke:#181818;stroke-width:0.6;stroke-dasharray:2.0,2.0;" x1="188.6561" x2="437.8409" y1="466.016" y2="466.016"/><text fill="#000000" font-family="sans-serif" font-size="7.8" font-weight="bold" lengthAdjust="spacing" textLength="8.676" x="195.8561" y="462.8584">18</text><text fill="#000000" font-family="sans-serif" font-size="7.8" lengthAdjust="spacing" textLength="145.5873" x="206.932" y="462.8584">show error "Proposal cannot be accepted"</text><!--SRC=[ZPKnRzim48Lt_eg39sSmYg93WQ0Ee3ePN3Ym8TbTYg2WfOj3X29LadBWVz-ZPL6KhBJ9O4JIVSUdUu-KVHMgueQNK6gbynUZImHdQcGsFAbu_ieFcBcJH32OEwuECYwmBxpGRq8Tu9bBYumvuQXqjuGC_zIeSeHxmG- -T9fbzpSmWqTkNY5xqM-mCRhIbalW5f8ynyfX0TDTzkNprnl6UEsqgiiz6le_Tzh0P94-ma9BoVVQSBepyMHjgO8An94xRAuOYNCY5nLN3YQtJM-_PBlYRdb6Tyj1vKhONjr2AsTeGMoMalHuiKrN_-q_u4QOdsZ4yobcCiTTRGVaqPS9UgK-dI8XWYPm8leeYakreTljZG4HhzJHWLegX-QPv_WXxCScMPQLx6Yw-0Tuhgik5m-A8d9YR3w7R9kaMvZF6VEkmUpEv-OMB4fAcWLTEQ4LE0tyF63WeKddDrd8Y2AsDOSw7D0bKcQeN1khLegTtdHii9C5blh4G_HgHYSGj-bDlKVF-hBwWovmlCELc824DnjzctxtFZWGucF-BNReRgXcL6OthsRYPzUQ2JLx0xWgl4TbHVOrDfA3u-u6AvjU5sKb7GwniCIs3avR87hbHamxgtQlK9itRdjRYv8mneVT5T1P9yKVXP-QKosQGK0Obmv-jKr1M40f3c8lyOa1_RMg-ha_3y0rMtswMAzMoVTrccpNwUzaiqdNFn_kwUIByO-cqJFZUV9Fhb8vcaXV-MugXwBYLDPLGS1IPIG6MtdHmA_4zTUypkf5dgt9V6l7X7KT8cKXO_xhSe6Xf1_wXZ4a9sF3r95BKJozXwCn_fCJlb4vLqexsEFbDC9Ymb0LB0x7EO_HDHrEqPNV1dy1]--></g></svg>