<svg xmlns="http://www.w3.org/2000/svg" xmlns:xlink="http://www.w3.org/1999/xlink" contentStyleType="text/css" height="566px" preserveAspectRatio="none" style="width:1090px;height:566px;background:#FFFFFF;" version="1.1" viewBox="0 0 1090 566" width="1090px" zoomAndPan="magnify"><title>Domain Model Excerpt - US263 Detect Drone Collisions in Real Time</title><defs/><g><text fill="#000000" font-family="sans-serif" font-size="14" font-weight="bold" lengthAdjust="spacing" textLength="467.5562" x="304.658" y="24.9659">Domain Model Excerpt - US263 Detect Drone Collisions in Real Time</text><!--class Drone--><g id="elem_Drone"><rect codeLine="7" fill="#F1F1F1" height="124.2717" id="Drone" rx="2.5" ry="2.5" style="stroke:#181818;stroke-width:0.5;" width="232.4852" x="7" y="47.0679"/><ellipse cx="98.4827" cy="63.0679" fill="#C2C2C2" rx="11" ry="11" style="stroke:#181818;stroke-width:1.0;"/><path d="M102.5921,69.0679 L94.8733,69.0679 L94.8733,56.6773 L102.5921,56.6773 L102.5921,58.8335 L97.3264,58.8335 L97.3264,61.5054 L102.0921,61.5054 L102.0921,63.6617 L97.3264,63.6617 L97.3264,66.9117 L102.5921,66.9117 L102.5921,69.0679 Z " fill="#000000"/><text fill="#000000" font-family="sans-serif" font-size="14" lengthAdjust="spacing" textLength="41.0198" x="118.9827" y="68.4999">Drone</text><line style="stroke:#181818;stroke-width:0.5;" x1="8" x2="238.4852" y1="79.0679" y2="79.0679"/><rect fill="none" height="6" style="stroke:#595959;stroke-width:1.0;" width="6" x="15" y="91.1019"/><text fill="#000000" font-family="sans-serif" font-size="14" lengthAdjust="spacing" textLength="68.2497" x="27" y="98.0339">id: Integer</text><rect fill="none" height="6" style="stroke:#595959;stroke-width:1.0;" width="6" x="15" y="110.1698"/><text fill="#000000" font-family="sans-serif" font-size="14" lengthAdjust="spacing" textLength="176.0353" x="27" y="117.1018">biggestDimension: Integer</text><line style="stroke:#181818;stroke-width:1.0;" x1="8" x2="238.4852" y1="125.2038" y2="125.2038"/><ellipse cx="18" cy="140.2377" fill="#A6A6A6" rx="3" ry="3" style="stroke:#545454;stroke-width:1.0;"/><text fill="#000000" font-family="sans-serif" font-size="14" lengthAdjust="spacing" textLength="99.3436" x="27" y="144.1697">getId(): Integer</text><ellipse cx="18" cy="159.3056" fill="#A6A6A6" rx="3" ry="3" style="stroke:#545454;stroke-width:1.0;"/><text fill="#000000" font-family="sans-serif" font-size="14" lengthAdjust="spacing" textLength="206.4852" x="27" y="163.2376">getBiggestDimension(): Integer</text></g><!--class Position--><g id="elem_Position"><rect codeLine="15" fill="#F1F1F1" height="124.2717" id="Position" rx="2.5" ry="2.5" style="stroke:#181818;stroke-width:0.5;" width="89.4338" x="379.5" y="435.0679"/><ellipse cx="396.4746" cy="451.0679" fill="#C2C2C2" rx="11" ry="11" style="stroke:#181818;stroke-width:1.0;"/><path d="M400.584,457.0679 L392.8652,457.0679 L392.8652,444.6773 L400.584,444.6773 L400.584,446.8335 L395.3183,446.8335 L395.3183,449.5054 L400.084,449.5054 L400.084,451.6617 L395.3183,451.6617 L395.3183,454.9117 L400.584,454.9117 L400.584,457.0679 Z " fill="#000000"/><text fill="#000000" font-family="sans-serif" font-size="14" lengthAdjust="spacing" textLength="53.0458" x="410.9134" y="456.4999">Position</text><line style="stroke:#181818;stroke-width:0.5;" x1="380.5" x2="467.9338" y1="467.0679" y2="467.0679"/><rect fill="none" height="6" style="stroke:#595959;stroke-width:1.0;" width="6" x="387.5" y="479.1019"/><text fill="#000000" font-family="sans-serif" font-size="14" lengthAdjust="spacing" textLength="63.4338" x="399.5" y="486.0339">x: Integer</text><rect fill="none" height="6" style="stroke:#595959;stroke-width:1.0;" width="6" x="387.5" y="498.1698"/><text fill="#000000" font-family="sans-serif" font-size="14" lengthAdjust="spacing" textLength="63.1678" x="399.5" y="505.1018">y: Integer</text><rect fill="none" height="6" style="stroke:#595959;stroke-width:1.0;" width="6" x="387.5" y="517.2377"/><text fill="#000000" font-family="sans-serif" font-size="14" lengthAdjust="spacing" textLength="62.6078" x="399.5" y="524.1697">z: Integer</text><rect fill="none" height="6" style="stroke:#595959;stroke-width:1.0;" width="6" x="387.5" y="536.3056"/><text fill="#000000" font-family="sans-serif" font-size="14" lengthAdjust="spacing" textLength="60.3258" x="399.5" y="543.2376">pid: pid_t</text><line style="stroke:#181818;stroke-width:0.5;" x1="380.5" x2="467.9338" y1="551.3396" y2="551.3396"/></g><!--class Radar--><g id="elem_Radar"><rect codeLine="22" fill="#F1F1F1" height="124.2717" id="Radar" rx="2.5" ry="2.5" style="stroke:#181818;stroke-width:0.5;" width="193.0194" x="327.5" y="250.0679"/><ellipse cx="400.3558" cy="266.0679" fill="#C2C2C2" rx="11" ry="11" style="stroke:#181818;stroke-width:1.0;"/><path d="M404.4651,272.0679 L396.7464,272.0679 L396.7464,259.6773 L404.4651,259.6773 L404.4651,261.8335 L399.1995,261.8335 L399.1995,264.5054 L403.9651,264.5054 L403.9651,266.6617 L399.1995,266.6617 L399.1995,269.9117 L404.4651,269.9117 L404.4651,272.0679 Z " fill="#000000"/><text fill="#000000" font-family="sans-serif" font-size="14" lengthAdjust="spacing" textLength="38.8079" x="420.8558" y="271.4999">Radar</text><line style="stroke:#181818;stroke-width:0.5;" x1="328.5" x2="519.5194" y1="282.0679" y2="282.0679"/><rect fill="none" height="6" style="stroke:#595959;stroke-width:1.0;" width="6" x="335.5" y="294.1019"/><text fill="#000000" font-family="sans-serif" font-size="14" lengthAdjust="spacing" textLength="167.0194" x="347.5" y="301.0339">droneInformation: Drone</text><rect fill="none" height="6" style="stroke:#595959;stroke-width:1.0;" width="6" x="335.5" y="313.1698"/><text fill="#000000" font-family="sans-serif" font-size="14" lengthAdjust="spacing" textLength="113.6236" x="347.5" y="320.1018">position: Position</text><rect fill="none" height="6" style="stroke:#595959;stroke-width:1.0;" width="6" x="335.5" y="332.2377"/><text fill="#000000" font-family="sans-serif" font-size="14" lengthAdjust="spacing" textLength="127.9735" x="347.5" y="339.1697">timeStamp: Integer</text><rect fill="none" height="6" style="stroke:#595959;stroke-width:1.0;" width="6" x="335.5" y="351.3056"/><text fill="#000000" font-family="sans-serif" font-size="14" lengthAdjust="spacing" textLength="134.9455" x="347.5" y="358.2376">terminated: Boolean</text><line style="stroke:#181818;stroke-width:0.5;" x1="328.5" x2="519.5194" y1="366.3396" y2="366.3396"/></g><!--class Collision_Stamp--><g id="elem_Collision_Stamp"><rect codeLine="29" fill="#F1F1F1" height="105.2038" id="Collision_Stamp" rx="2.5" ry="2.5" style="stroke:#181818;stroke-width:0.5;" width="171.3614" x="640.5" y="56.5679"/><ellipse cx="671.366" cy="72.5679" fill="#C2C2C2" rx="11" ry="11" style="stroke:#181818;stroke-width:1.0;"/><path d="M675.4754,78.5679 L667.7566,78.5679 L667.7566,66.1773 L675.4754,66.1773 L675.4754,68.3335 L670.2098,68.3335 L670.2098,71.0054 L674.9754,71.0054 L674.9754,73.1617 L670.2098,73.1617 L670.2098,76.4117 L675.4754,76.4117 L675.4754,78.5679 Z " fill="#000000"/><text fill="#000000" font-family="sans-serif" font-size="14" lengthAdjust="spacing" textLength="104.1036" x="688.8918" y="77.9999">Collision_Stamp</text><line style="stroke:#181818;stroke-width:0.5;" x1="641.5" x2="810.8614" y1="88.5679" y2="88.5679"/><rect fill="none" height="6" style="stroke:#595959;stroke-width:1.0;" width="6" x="648.5" y="100.6019"/><text fill="#000000" font-family="sans-serif" font-size="14" lengthAdjust="spacing" textLength="121.8835" x="660.5" y="107.5339">id_drone1: Integer</text><rect fill="none" height="6" style="stroke:#595959;stroke-width:1.0;" width="6" x="648.5" y="119.6698"/><text fill="#000000" font-family="sans-serif" font-size="14" lengthAdjust="spacing" textLength="121.8835" x="660.5" y="126.6018">id_drone2: Integer</text><rect fill="none" height="6" style="stroke:#595959;stroke-width:1.0;" width="6" x="648.5" y="138.7377"/><text fill="#000000" font-family="sans-serif" font-size="14" lengthAdjust="spacing" textLength="145.3614" x="660.5" y="145.6697">collision_time: Integer</text><line style="stroke:#181818;stroke-width:0.5;" x1="641.5" x2="810.8614" y1="153.7717" y2="153.7717"/></g><g id="elem_GMN9"><path d="M274.5,86.5679 L274.5,105.0679 L239.09,109.0679 L274.5,113.0679 L274.5,131.9799 A0,0 0 0 0 274.5,131.9799 L605.3553,131.9799 A0,0 0 0 0 605.3553,131.9799 L605.3553,96.5679 L595.3553,86.5679 L274.5,86.5679 A0,0 0 0 0 274.5,86.5679 " fill="#FAFAFA" style="stroke:#181818;stroke-width:0.5;"/><path d="M595.3553,86.5679 L595.3553,96.5679 L605.3553,96.5679 L595.3553,86.5679 " fill="#FAFAFA" style="stroke:#181818;stroke-width:0.5;"/><text fill="#000000" font-family="sans-serif" font-size="13" lengthAdjust="spacing" textLength="207.6102" x="280.5" y="105.4649">Represents a drone in the system.</text><text fill="#000000" font-family="sans-serif" font-size="13" lengthAdjust="spacing" textLength="309.8553" x="280.5" y="123.1709">Includes physical attributes like biggestDimension.</text></g><g id="elem_GMN12"><path d="M503.5,474.5679 L503.5,493.0679 L468.91,497.0679 L503.5,501.0679 L503.5,519.9799 A0,0 0 0 0 503.5,519.9799 L782.3942,519.9799 A0,0 0 0 0 782.3942,519.9799 L782.3942,484.5679 L772.3942,474.5679 L503.5,474.5679 A0,0 0 0 0 503.5,474.5679 " fill="#FAFAFA" style="stroke:#181818;stroke-width:0.5;"/><path d="M772.3942,474.5679 L772.3942,484.5679 L782.3942,484.5679 L772.3942,474.5679 " fill="#FAFAFA" style="stroke:#181818;stroke-width:0.5;"/><text fill="#000000" font-family="sans-serif" font-size="13" lengthAdjust="spacing" textLength="240.9162" x="509.5" y="493.4649">Captures the 3D coordinates of a drone</text><text fill="#000000" font-family="sans-serif" font-size="13" lengthAdjust="spacing" textLength="257.8942" x="509.5" y="511.1709">at a specific timestamp, along with its PID.</text></g><g id="elem_GMN15"><path d="M556,289.5679 L556,308.0679 L520.85,312.0679 L556,316.0679 L556,334.9799 A0,0 0 0 0 556,334.9799 L797.6362,334.9799 A0,0 0 0 0 797.6362,334.9799 L797.6362,299.5679 L787.6362,289.5679 L556,289.5679 A0,0 0 0 0 556,289.5679 " fill="#FAFAFA" style="stroke:#181818;stroke-width:0.5;"/><path d="M787.6362,289.5679 L787.6362,299.5679 L797.6362,299.5679 L787.6362,289.5679 " fill="#FAFAFA" style="stroke:#181818;stroke-width:0.5;"/><text fill="#000000" font-family="sans-serif" font-size="13" lengthAdjust="spacing" textLength="220.6362" x="562" y="308.4649">Aggregates drone data and position</text><text fill="#000000" font-family="sans-serif" font-size="13" lengthAdjust="spacing" textLength="144.0141" x="562" y="326.1709">at a specific timestamp.</text></g><g id="elem_GMN18"><path d="M846.5,86.5679 L846.5,105.0679 L811.89,109.0679 L846.5,113.0679 L846.5,131.9799 A0,0 0 0 0 846.5,131.9799 L1083.8722,131.9799 A0,0 0 0 0 1083.8722,131.9799 L1083.8722,96.5679 L1073.8722,86.5679 L846.5,86.5679 A0,0 0 0 0 846.5,86.5679 " fill="#FAFAFA" style="stroke:#181818;stroke-width:0.5;"/><path d="M1073.8722,86.5679 L1073.8722,96.5679 L1083.8722,96.5679 L1073.8722,86.5679 " fill="#FAFAFA" style="stroke:#181818;stroke-width:0.5;"/><text fill="#000000" font-family="sans-serif" font-size="13" lengthAdjust="spacing" textLength="186.2902" x="852.5" y="105.4649">Logs a collision event between</text><text fill="#000000" font-family="sans-serif" font-size="13" lengthAdjust="spacing" textLength="216.3722" x="852.5" y="123.1709">two drones at a specific timestamp.</text></g><!--link Drone to Radar--><g id="link_Drone_Radar"><path codeLine="35" d="M221.1931,175.6404 C258.6331,200.6404 280.2399,215.0732 317.6699,240.0632 " fill="none" id="Drone-Radar" style="stroke:#181818;stroke-width:1.0;"/><line style="stroke:#181818;stroke-width:1.0;" x1="215.6453" x2="220.0878" y1="176.7457" y2="170.0926"/><line style="stroke:#181818;stroke-width:1.0;" x1="218.1402" x2="222.5827" y1="178.4117" y2="171.7586"/><line style="stroke:#181818;stroke-width:1.0;" x1="221.1931" x2="214.54" y1="175.6404" y2="171.1979"/><line style="stroke:#181818;stroke-width:1.0;" x1="325.9866" x2="335.9716" y1="245.6158" y2="245.0679"/><line style="stroke:#181818;stroke-width:1.0;" x1="325.9866" x2="329.3084" y1="245.6158" y2="255.048"/><line style="stroke:#181818;stroke-width:1.0;" x1="325.9866" x2="332.64" y1="245.6158" y2="250.0579"/><ellipse cx="320.9966" cy="242.2842" fill="none" rx="4" ry="4" style="stroke:#181818;stroke-width:1.0;"/></g><!--link Radar to Position--><g id="link_Radar_Position"><path codeLine="36" d="M424,382.2579 C424,401.7879 424,397.4079 424,416.9379 " fill="none" id="Radar-Position" style="stroke:#181818;stroke-width:1.0;"/><line style="stroke:#181818;stroke-width:1.0;" x1="420" x2="428" y1="378.2579" y2="378.2579"/><line style="stroke:#181818;stroke-width:1.0;" x1="420" x2="428" y1="381.2579" y2="381.2579"/><line style="stroke:#181818;stroke-width:1.0;" x1="424" x2="424" y1="382.2579" y2="374.2579"/><line style="stroke:#181818;stroke-width:1.0;" x1="424" x2="430" y1="426.9379" y2="434.9379"/><line style="stroke:#181818;stroke-width:1.0;" x1="424" x2="418" y1="426.9379" y2="434.9379"/><line style="stroke:#181818;stroke-width:1.0;" x1="424" x2="424" y1="426.9379" y2="434.9379"/><ellipse cx="424" cy="420.9379" fill="none" rx="4" ry="4" style="stroke:#181818;stroke-width:1.0;"/></g><!--link Collision_Stamp to Radar--><g id="link_Collision_Stamp_Radar"><path codeLine="37" d="M641.9603,166.0006 C601.4103,192.9906 573.134,211.8039 530.664,240.0739 " fill="none" id="Collision_Stamp-Radar" style="stroke:#181818;stroke-width:1.0;"/><line style="stroke:#181818;stroke-width:1.0;" x1="643.0738" x2="647.5065" y1="160.4544" y2="167.1141"/><line style="stroke:#181818;stroke-width:1.0;" x1="640.5764" x2="645.0091" y1="162.1167" y2="168.7763"/><line style="stroke:#181818;stroke-width:1.0;" x1="641.9603" x2="648.62" y1="166.0006" y2="161.5679"/><line style="stroke:#181818;stroke-width:1.0;" x1="522.3395" x2="519.0047" y1="245.615" y2="255.0426"/><line style="stroke:#181818;stroke-width:1.0;" x1="522.3395" x2="512.3553" y1="245.615" y2="245.0533"/><line style="stroke:#181818;stroke-width:1.0;" x1="522.3395" x2="515.68" y1="245.615" y2="250.0479"/><ellipse cx="527.3342" cy="242.2903" fill="none" rx="4" ry="4" style="stroke:#181818;stroke-width:1.0;"/><text fill="#000000" font-family="sans-serif" font-size="13" lengthAdjust="spacing" textLength="49.374" x="585" y="215.9649">involves</text></g><!--SRC=[TPF1Rjim38RlVWgYfmsR2xG5Tl1jhNS8i091izqA18pDo49aoP2Of5cxTnyb9wvce1T3fiZ_8t_JOQVjW1vxw9rrJUTTJy1-JqMORWPiTgXenIT3uAbXjCha2Q73rXsrLR154wWeMBEargv7RU7HjMJWnqj3Vc0euVVgzjiTrCIY1BLtbk316QE3TZQ053mH6lYbUn4YAr8dk4ffLu3XNF1QbBgjO66P5FcYt6YbA70jHJRgP5TbyKKHBzfFdz-3CN8_Aydl_xwJbovebki4lxn4_al6E6NdFzbvY4tAOysvv1Esw9DUEaMnDawri5ldU-JKVvfJ5Cx4Qc8N9KlBAyP-o4XCljSMcGHuxvmXj3boCdYT2XDy5XizNQTERZBbI-msYpLJQUpbFz_6x_FsLfRkTPol6ASyXwOnvlYy12hPWuCp1mf5OHtBscdLCRZjw4ibEp9u2Z9U08JKNzmSxWZ2AJ3rryzsOHkpRod0q9s2RcIdaDdhpPubPlIEOBurrpFMSZB_0GVU2p0HxcfedFDjyZl4n7CBpnAGSnYeqLlTG3GdnE6-0XedlyTHSmTQUbukwZai3Lx1TwKygIGyZjKY8w1juR8A7rBcYZE7A_ZfLBHh-df01t4GDiH78j7benkXalKHuXy0]--></g></svg>