<svg xmlns="http://www.w3.org/2000/svg" xmlns:xlink="http://www.w3.org/1999/xlink" contentStyleType="text/css" height="2462px" preserveAspectRatio="none" style="width:2397px;height:2462px;background:#FFFFFF;" version="1.1" viewBox="0 0 2397 2462" width="2397px" zoomAndPan="magnify"><title>End-to-End Accept/Reject Show Proposal Flow (US316 &amp; US371)</title><defs/><g><text fill="#000000" font-family="sans-serif" font-size="14" font-weight="bold" lengthAdjust="spacing" textLength="466.1494" x="961.8618" y="28.5352">End-to-End Accept/Reject Show Proposal Flow (US316 &amp; US371)</text><rect fill="#DDDDDD" height="2413.3984" style="stroke:#181818;stroke-width:0.5;" width="871.3223" x="16" y="43.4883"/><text fill="#000000" font-family="sans-serif" font-size="13" font-weight="bold" lengthAdjust="spacing" textLength="95.9385" x="403.6919" y="56.0566">Customer App</text><rect fill="#DDDDDD" height="2413.3984" style="stroke:#181818;stroke-width:0.5;" width="1277.4043" x="1112.4688" y="43.4883"/><text fill="#000000" font-family="sans-serif" font-size="13" font-weight="bold" lengthAdjust="spacing" textLength="42.1929" x="1730.0745" y="56.0566">Server</text><rect fill="none" height="1510.9922" style="stroke:#000000;stroke-width:1.5;" width="2315.5049" x="10" y="860.918"/><rect fill="none" height="315.0156" style="stroke:#000000;stroke-width:1.5;" width="948.1284" x="1367.3765" y="1178.334"/><rect fill="none" height="46.6211" style="stroke:#000000;stroke-width:1.5;" width="676.8657" x="1377.3765" y="1231.9551"/><rect fill="none" height="90.8867" style="stroke:#000000;stroke-width:1.5;" width="928.1284" x="1377.3765" y="1351.1973"/><rect fill="none" height="315.0156" style="stroke:#000000;stroke-width:1.5;" width="948.1284" x="1367.3765" y="1932.6523"/><rect fill="none" height="46.6211" style="stroke:#000000;stroke-width:1.5;" width="676.8657" x="1377.3765" y="1986.2734"/><rect fill="none" height="90.8867" style="stroke:#000000;stroke-width:1.5;" width="928.1284" x="1377.3765" y="2105.5156"/><line style="stroke:#181818;stroke-width:0.5;stroke-dasharray:5.0,5.0;" x1="89" x2="89" y1="127.7754" y2="2388.9102"/><line style="stroke:#181818;stroke-width:0.5;stroke-dasharray:5.0,5.0;" x1="391.5747" x2="391.5747" y1="127.7754" y2="2388.9102"/><line style="stroke:#181818;stroke-width:0.5;stroke-dasharray:5.0,5.0;" x1="530.6304" x2="530.6304" y1="127.7754" y2="2388.9102"/><line style="stroke:#181818;stroke-width:0.5;stroke-dasharray:5.0,5.0;" x1="791.6436" x2="791.6436" y1="127.7754" y2="2388.9102"/><line style="stroke:#181818;stroke-width:0.5;stroke-dasharray:5.0,5.0;" x1="1204.4688" x2="1204.4688" y1="127.7754" y2="2388.9102"/><line style="stroke:#181818;stroke-width:0.5;stroke-dasharray:5.0,5.0;" x1="1481.3765" x2="1481.3765" y1="127.7754" y2="2388.9102"/><line style="stroke:#181818;stroke-width:0.5;stroke-dasharray:5.0,5.0;" x1="1782.5522" x2="1782.5522" y1="127.7754" y2="2388.9102"/><line style="stroke:#181818;stroke-width:0.5;stroke-dasharray:5.0,5.0;" x1="1994.2344" x2="1994.2344" y1="127.7754" y2="2388.9102"/><line style="stroke:#181818;stroke-width:0.5;stroke-dasharray:5.0,5.0;" x1="2119.2422" x2="2119.2422" y1="127.7754" y2="2388.9102"/><line style="stroke:#181818;stroke-width:0.5;stroke-dasharray:5.0,5.0;" x1="2244.4648" x2="2244.4648" y1="127.7754" y2="2388.9102"/><line style="stroke:#181818;stroke-width:0.5;stroke-dasharray:5.0,5.0;" x1="2345.5049" x2="2345.5049" y1="127.7754" y2="2388.9102"/><rect fill="#E2E2F0" height="46.9766" rx="2.5" ry="2.5" style="stroke:#181818;stroke-width:0.5;" width="138.5029" x="20" y="79.7988"/><text fill="#000000" font-family="sans-serif" font-size="14" lengthAdjust="spacing" textLength="124.5029" x="27" y="100.334">AnalyseProposalUI</text><text fill="#000000" font-family="sans-serif" font-size="14" lengthAdjust="spacing" textLength="106.7637" x="35.8696" y="116.8223">(Customer App)</text><rect fill="#E2E2F0" height="46.9766" rx="2.5" ry="2.5" style="stroke:#181818;stroke-width:0.5;" width="138.5029" x="20" y="2387.9102"/><text fill="#000000" font-family="sans-serif" font-size="14" lengthAdjust="spacing" textLength="124.5029" x="27" y="2408.4453">AnalyseProposalUI</text><text fill="#000000" font-family="sans-serif" font-size="14" lengthAdjust="spacing" textLength="106.7637" x="35.8696" y="2424.9336">(Customer App)</text><rect fill="#E2E2F0" height="46.9766" rx="2.5" ry="2.5" style="stroke:#181818;stroke-width:0.5;" width="122.0557" x="330.5747" y="79.7988"/><text fill="#000000" font-family="sans-serif" font-size="14" lengthAdjust="spacing" textLength="108.0557" x="337.5747" y="100.334">GetMyProposals</text><text fill="#000000" font-family="sans-serif" font-size="14" lengthAdjust="spacing" textLength="68.1611" x="357.522" y="116.8223">Controller</text><rect fill="#E2E2F0" height="46.9766" rx="2.5" ry="2.5" style="stroke:#181818;stroke-width:0.5;" width="122.0557" x="330.5747" y="2387.9102"/><text fill="#000000" font-family="sans-serif" font-size="14" lengthAdjust="spacing" textLength="108.0557" x="337.5747" y="2408.4453">GetMyProposals</text><text fill="#000000" font-family="sans-serif" font-size="14" lengthAdjust="spacing" textLength="68.1611" x="357.522" y="2424.9336">Controller</text><rect fill="#E2E2F0" height="46.9766" rx="2.5" ry="2.5" style="stroke:#181818;stroke-width:0.5;" width="137.2178" x="462.6304" y="79.7988"/><text fill="#000000" font-family="sans-serif" font-size="14" lengthAdjust="spacing" textLength="123.2178" x="469.6304" y="100.334">ProposalResponse</text><text fill="#000000" font-family="sans-serif" font-size="14" lengthAdjust="spacing" textLength="68.1611" x="497.1587" y="116.8223">Controller</text><rect fill="#E2E2F0" height="46.9766" rx="2.5" ry="2.5" style="stroke:#181818;stroke-width:0.5;" width="137.2178" x="462.6304" y="2387.9102"/><text fill="#000000" font-family="sans-serif" font-size="14" lengthAdjust="spacing" textLength="123.2178" x="469.6304" y="2408.4453">ProposalResponse</text><text fill="#000000" font-family="sans-serif" font-size="14" lengthAdjust="spacing" textLength="68.1611" x="497.1587" y="2424.9336">Controller</text><rect fill="#E2E2F0" height="46.9766" rx="2.5" ry="2.5" style="stroke:#181818;stroke-width:0.5;" width="181.6787" x="701.6436" y="79.7988"/><text fill="#000000" font-family="sans-serif" font-size="14" lengthAdjust="spacing" textLength="167.6787" x="708.6436" y="100.334">AuthenticationController</text><text fill="#000000" font-family="sans-serif" font-size="14" lengthAdjust="spacing" textLength="79.3174" x="752.8242" y="116.8223">(TCP Client)</text><rect fill="#E2E2F0" height="46.9766" rx="2.5" ry="2.5" style="stroke:#181818;stroke-width:0.5;" width="181.6787" x="701.6436" y="2387.9102"/><text fill="#000000" font-family="sans-serif" font-size="14" lengthAdjust="spacing" textLength="167.6787" x="708.6436" y="2408.4453">AuthenticationController</text><text fill="#000000" font-family="sans-serif" font-size="14" lengthAdjust="spacing" textLength="79.3174" x="752.8242" y="2424.9336">(TCP Client)</text><rect fill="#E2E2F0" height="30.4883" rx="2.5" ry="2.5" style="stroke:#181818;stroke-width:0.5;" width="176.1689" x="1116.4688" y="96.2871"/><text fill="#000000" font-family="sans-serif" font-size="14" lengthAdjust="spacing" textLength="162.1689" x="1123.4688" y="116.8223">HandleClientsController</text><rect fill="#E2E2F0" height="30.4883" rx="2.5" ry="2.5" style="stroke:#181818;stroke-width:0.5;" width="176.1689" x="1116.4688" y="2387.9102"/><text fill="#000000" font-family="sans-serif" font-size="14" lengthAdjust="spacing" textLength="162.1689" x="1123.4688" y="2408.4453">HandleClientsController</text><rect fill="#E2E2F0" height="30.4883" rx="2.5" ry="2.5" style="stroke:#181818;stroke-width:0.5;" width="189.5947" x="1387.3765" y="96.2871"/><text fill="#000000" font-family="sans-serif" font-size="14" lengthAdjust="spacing" textLength="175.5947" x="1394.3765" y="116.8223">AnalyseProposalResponse</text><rect fill="#E2E2F0" height="30.4883" rx="2.5" ry="2.5" style="stroke:#181818;stroke-width:0.5;" width="189.5947" x="1387.3765" y="2387.9102"/><text fill="#000000" font-family="sans-serif" font-size="14" lengthAdjust="spacing" textLength="175.5947" x="1394.3765" y="2408.4453">AnalyseProposalResponse</text><rect fill="#E2E2F0" height="30.4883" rx="2.5" ry="2.5" style="stroke:#181818;stroke-width:0.5;" width="141.8252" x="1712.5522" y="96.2871"/><text fill="#000000" font-family="sans-serif" font-size="14" lengthAdjust="spacing" textLength="127.8252" x="1719.5522" y="116.8223">RepositoryProvider</text><rect fill="#E2E2F0" height="30.4883" rx="2.5" ry="2.5" style="stroke:#181818;stroke-width:0.5;" width="141.8252" x="1712.5522" y="2387.9102"/><text fill="#000000" font-family="sans-serif" font-size="14" lengthAdjust="spacing" textLength="127.8252" x="1719.5522" y="2408.4453">RepositoryProvider</text><text fill="#000000" font-family="sans-serif" font-size="14" lengthAdjust="spacing" textLength="94.0078" x="1944.2344" y="108.334">ShowProposal</text><text fill="#000000" font-family="sans-serif" font-size="14" lengthAdjust="spacing" textLength="47.2158" x="1967.6304" y="124.8223">(Entity)</text><ellipse cx="1994.2383" cy="78.7988" fill="#E2E2F0" rx="12" ry="12" style="stroke:#181818;stroke-width:0.5;"/><line style="stroke:#181818;stroke-width:0.5;" x1="1982.2383" x2="2006.2383" y1="92.7988" y2="92.7988"/><text fill="#000000" font-family="sans-serif" font-size="14" lengthAdjust="spacing" textLength="94.0078" x="1944.2344" y="2401.4453">ShowProposal</text><text fill="#000000" font-family="sans-serif" font-size="14" lengthAdjust="spacing" textLength="47.2158" x="1967.6304" y="2417.9336">(Entity)</text><ellipse cx="1994.2383" cy="2436.8867" fill="#E2E2F0" rx="12" ry="12" style="stroke:#181818;stroke-width:0.5;"/><line style="stroke:#181818;stroke-width:0.5;" x1="1982.2383" x2="2006.2383" y1="2450.8867" y2="2450.8867"/><text fill="#000000" font-family="sans-serif" font-size="14" lengthAdjust="spacing" textLength="124.2227" x="2054.2422" y="124.8223">ShowProposalDTO</text><ellipse cx="2119.3535" cy="95.2871" fill="#E2E2F0" rx="12" ry="12" style="stroke:#181818;stroke-width:0.5;"/><line style="stroke:#181818;stroke-width:0.5;" x1="2107.3535" x2="2131.3535" y1="109.2871" y2="109.2871"/><text fill="#000000" font-family="sans-serif" font-size="14" lengthAdjust="spacing" textLength="124.2227" x="2054.2422" y="2401.4453">ShowProposalDTO</text><ellipse cx="2119.3535" cy="2420.3984" fill="#E2E2F0" rx="12" ry="12" style="stroke:#181818;stroke-width:0.5;"/><line style="stroke:#181818;stroke-width:0.5;" x1="2107.3535" x2="2131.3535" y1="2434.3984" y2="2434.3984"/><text fill="#000000" font-family="sans-serif" font-size="14" lengthAdjust="spacing" textLength="95.04" x="2194.4648" y="124.8223">ResponseDTO</text><ellipse cx="2244.9849" cy="95.2871" fill="#E2E2F0" rx="12" ry="12" style="stroke:#181818;stroke-width:0.5;"/><line style="stroke:#181818;stroke-width:0.5;" x1="2232.9849" x2="2256.9849" y1="109.2871" y2="109.2871"/><text fill="#000000" font-family="sans-serif" font-size="14" lengthAdjust="spacing" textLength="95.04" x="2194.4648" y="2401.4453">ResponseDTO</text><ellipse cx="2244.9849" cy="2420.3984" fill="#E2E2F0" rx="12" ry="12" style="stroke:#181818;stroke-width:0.5;"/><line style="stroke:#181818;stroke-width:0.5;" x1="2232.9849" x2="2256.9849" y1="2434.3984" y2="2434.3984"/><text fill="#000000" font-family="sans-serif" font-size="14" lengthAdjust="spacing" textLength="74.3682" x="2305.5049" y="124.8223">ObjectDTO</text><ellipse cx="2345.689" cy="95.2871" fill="#E2E2F0" rx="12" ry="12" style="stroke:#181818;stroke-width:0.5;"/><line style="stroke:#181818;stroke-width:0.5;" x1="2333.689" x2="2357.689" y1="109.2871" y2="109.2871"/><text fill="#000000" font-family="sans-serif" font-size="14" lengthAdjust="spacing" textLength="74.3682" x="2305.5049" y="2401.4453">ObjectDTO</text><ellipse cx="2345.689" cy="2420.3984" fill="#E2E2F0" rx="12" ry="12" style="stroke:#181818;stroke-width:0.5;"/><line style="stroke:#181818;stroke-width:0.5;" x1="2333.689" x2="2357.689" y1="2434.3984" y2="2434.3984"/><rect fill="#EEEEEE" height="3" style="stroke:#EEEEEE;stroke-width:1.0;" width="2390.873" x="0" y="158.4307"/><line style="stroke:#000000;stroke-width:1.0;" x1="0" x2="2390.873" y1="158.4307" y2="158.4307"/><line style="stroke:#000000;stroke-width:1.0;" x1="0" x2="2390.873" y1="161.4307" y2="161.4307"/><rect fill="#EEEEEE" height="23.3105" style="stroke:#000000;stroke-width:2.0;" width="124.5317" x="1133.1707" y="147.7754"/><text fill="#000000" font-family="sans-serif" font-size="13" font-weight="bold" lengthAdjust="spacing" textLength="106.2471" x="1139.1707" y="164.3438">Login (optional)</text><polygon fill="#181818" points="780.4829,198.3965,790.4829,202.3965,780.4829,206.3965,784.4829,202.3965" style="stroke:#181818;stroke-width:1.0;"/><line style="stroke:#181818;stroke-width:1.0;" x1="89.2515" x2="786.4829" y1="202.3965" y2="202.3965"/><text fill="#000000" font-family="sans-serif" font-size="13" lengthAdjust="spacing" textLength="109.0273" x="96.2515" y="197.6543">login(credentials)</text><polygon fill="#181818" points="1192.5532,227.707,1202.5532,231.707,1192.5532,235.707,1196.5532,231.707" style="stroke:#181818;stroke-width:1.0;"/><line style="stroke:#181818;stroke-width:1.0;" x1="792.4829" x2="1198.5532" y1="231.707" y2="231.707"/><text fill="#000000" font-family="sans-serif" font-size="13" lengthAdjust="spacing" textLength="145.9961" x="799.4829" y="226.9648">[TCP] login(credentials)</text><polygon fill="#181818" points="1771.4648,257.0176,1781.4648,261.0176,1771.4648,265.0176,1775.4648,261.0176" style="stroke:#181818;stroke-width:1.0;"/><line style="stroke:#181818;stroke-width:1.0;" x1="1204.5532" x2="1777.4648" y1="261.0176" y2="261.0176"/><text fill="#000000" font-family="sans-serif" font-size="13" lengthAdjust="spacing" textLength="183.5996" x="1211.5532" y="256.2754">authenticateUser(credentials)</text><polygon fill="#181818" points="1215.5532,286.3281,1205.5532,290.3281,1215.5532,294.3281,1211.5532,290.3281" style="stroke:#181818;stroke-width:1.0;"/><line style="stroke:#181818;stroke-width:1.0;stroke-dasharray:2.0,2.0;" x1="1209.5532" x2="1782.4648" y1="290.3281" y2="290.3281"/><text fill="#000000" font-family="sans-serif" font-size="13" lengthAdjust="spacing" textLength="113.3184" x="1221.5532" y="285.5859">authentication OK</text><polygon fill="#181818" points="803.4829,315.6387,793.4829,319.6387,803.4829,323.6387,799.4829,319.6387" style="stroke:#181818;stroke-width:1.0;"/><line style="stroke:#181818;stroke-width:1.0;" x1="797.4829" x2="1203.5532" y1="319.6387" y2="319.6387"/><text fill="#000000" font-family="sans-serif" font-size="13" lengthAdjust="spacing" textLength="121.2656" x="809.4829" y="314.8965">[TCP] login success</text><polygon fill="#181818" points="100.2515,344.9492,90.2515,348.9492,100.2515,352.9492,96.2515,348.9492" style="stroke:#181818;stroke-width:1.0;"/><line style="stroke:#181818;stroke-width:1.0;" x1="94.2515" x2="791.4829" y1="348.9492" y2="348.9492"/><text fill="#000000" font-family="sans-serif" font-size="13" lengthAdjust="spacing" textLength="99.9185" x="106.2515" y="344.207">login confirmed</text><rect fill="#EEEEEE" height="3" style="stroke:#EEEEEE;stroke-width:1.0;" width="2390.873" x="0" y="377.6045"/><line style="stroke:#000000;stroke-width:1.0;" x1="0" x2="2390.873" y1="377.6045" y2="377.6045"/><line style="stroke:#000000;stroke-width:1.0;" x1="0" x2="2390.873" y1="380.6045" y2="380.6045"/><rect fill="#EEEEEE" height="23.3105" style="stroke:#000000;stroke-width:2.0;" width="262.6504" x="1064.1113" y="366.9492"/><text fill="#000000" font-family="sans-serif" font-size="13" font-weight="bold" lengthAdjust="spacing" textLength="244.3657" x="1070.1113" y="383.5176">Retrieve Customer's Show Proposals</text><polygon fill="#181818" points="379.6025,417.5703,389.6025,421.5703,379.6025,425.5703,383.6025,421.5703" style="stroke:#181818;stroke-width:1.0;"/><line style="stroke:#181818;stroke-width:1.0;" x1="89.2515" x2="385.6025" y1="421.5703" y2="421.5703"/><text fill="#000000" font-family="sans-serif" font-size="13" lengthAdjust="spacing" textLength="149.9189" x="96.2515" y="416.8281">requestShowProposals()</text><polygon fill="#181818" points="780.4829,446.8809,790.4829,450.8809,780.4829,454.8809,784.4829,450.8809" style="stroke:#181818;stroke-width:1.0;"/><line style="stroke:#181818;stroke-width:1.0;" x1="391.6025" x2="786.4829" y1="450.8809" y2="450.8809"/><text fill="#000000" font-family="sans-serif" font-size="13" lengthAdjust="spacing" textLength="199.0625" x="398.6025" y="446.1387">prepare request (get proposals)</text><polygon fill="#181818" points="1192.5532,476.1914,1202.5532,480.1914,1192.5532,484.1914,1196.5532,480.1914" style="stroke:#181818;stroke-width:1.0;"/><line style="stroke:#181818;stroke-width:1.0;" x1="792.4829" x2="1198.5532" y1="480.1914" y2="480.1914"/><text fill="#000000" font-family="sans-serif" font-size="13" lengthAdjust="spacing" textLength="216.5884" x="799.4829" y="475.4492">[TCP] GetMyProposals(customerId)</text><polygon fill="#181818" points="1771.4648,505.502,1781.4648,509.502,1771.4648,513.502,1775.4648,509.502" style="stroke:#181818;stroke-width:1.0;"/><line style="stroke:#181818;stroke-width:1.0;" x1="1204.5532" x2="1777.4648" y1="509.502" y2="509.502"/><text fill="#000000" font-family="sans-serif" font-size="13" lengthAdjust="spacing" textLength="275.2725" x="1211.5532" y="504.7598">FindCustomersProposalsAction(customerId)</text><polygon fill="#181818" points="1982.2383,534.8125,1992.2383,538.8125,1982.2383,542.8125,1986.2383,538.8125" style="stroke:#181818;stroke-width:1.0;"/><line style="stroke:#181818;stroke-width:1.0;" x1="1783.4648" x2="1988.2383" y1="538.8125" y2="538.8125"/><text fill="#000000" font-family="sans-serif" font-size="13" lengthAdjust="spacing" textLength="186.7734" x="1790.4648" y="534.0703">query proposals for customer</text><polygon fill="#181818" points="1794.4648,564.123,1784.4648,568.123,1794.4648,572.123,1790.4648,568.123" style="stroke:#181818;stroke-width:1.0;"/><line style="stroke:#181818;stroke-width:1.0;stroke-dasharray:2.0,2.0;" x1="1788.4648" x2="1993.2383" y1="568.123" y2="568.123"/><text fill="#000000" font-family="sans-serif" font-size="13" lengthAdjust="spacing" textLength="127.2896" x="1800.4648" y="563.3809">list of ShowProposal</text><polygon fill="#181818" points="1215.5532,593.4336,1205.5532,597.4336,1215.5532,601.4336,1211.5532,597.4336" style="stroke:#181818;stroke-width:1.0;"/><line style="stroke:#181818;stroke-width:1.0;stroke-dasharray:2.0,2.0;" x1="1209.5532" x2="1782.4648" y1="597.4336" y2="597.4336"/><text fill="#000000" font-family="sans-serif" font-size="13" lengthAdjust="spacing" textLength="176.9155" x="1221.5532" y="592.6914">list of ShowProposal objects</text><polygon fill="#181818" points="2107.3535,622.7441,2117.3535,626.7441,2107.3535,630.7441,2111.3535,626.7441" style="stroke:#181818;stroke-width:1.0;"/><line style="stroke:#181818;stroke-width:1.0;" x1="1204.5532" x2="2113.3535" y1="626.7441" y2="626.7441"/><text fill="#000000" font-family="sans-serif" font-size="13" lengthAdjust="spacing" textLength="177.5947" x="1211.5532" y="622.002">create DTOs from proposals</text><polygon fill="#181818" points="1215.5532,652.0547,1205.5532,656.0547,1215.5532,660.0547,1211.5532,656.0547" style="stroke:#181818;stroke-width:1.0;"/><line style="stroke:#181818;stroke-width:1.0;stroke-dasharray:2.0,2.0;" x1="1209.5532" x2="2118.3535" y1="656.0547" y2="656.0547"/><text fill="#000000" font-family="sans-serif" font-size="13" lengthAdjust="spacing" textLength="138.4678" x="1221.5532" y="651.3125">ShowProposalDTO list</text><polygon fill="#181818" points="2333.689,681.3652,2343.689,685.3652,2333.689,689.3652,2337.689,685.3652" style="stroke:#181818;stroke-width:1.0;"/><line style="stroke:#181818;stroke-width:1.0;" x1="1204.5532" x2="2339.689" y1="685.3652" y2="685.3652"/><text fill="#000000" font-family="sans-serif" font-size="13" lengthAdjust="spacing" textLength="185.7642" x="1211.5532" y="680.623">wrap proposals in ObjectDTO</text><polygon fill="#181818" points="1215.5532,710.6758,1205.5532,714.6758,1215.5532,718.6758,1211.5532,714.6758" style="stroke:#181818;stroke-width:1.0;"/><line style="stroke:#181818;stroke-width:1.0;stroke-dasharray:2.0,2.0;" x1="1209.5532" x2="2344.689" y1="714.6758" y2="714.6758"/><text fill="#000000" font-family="sans-serif" font-size="13" lengthAdjust="spacing" textLength="126.2866" x="1221.5532" y="709.9336">proposals packaged</text><polygon fill="#181818" points="803.4829,739.9863,793.4829,743.9863,803.4829,747.9863,799.4829,743.9863" style="stroke:#181818;stroke-width:1.0;"/><line style="stroke:#181818;stroke-width:1.0;" x1="797.4829" x2="1203.5532" y1="743.9863" y2="743.9863"/><text fill="#000000" font-family="sans-serif" font-size="13" lengthAdjust="spacing" textLength="388.0703" x="809.4829" y="739.2441">[TCP] send proposals (ObjectDTO with ShowProposalDTO list)</text><polygon fill="#181818" points="402.6025,769.2969,392.6025,773.2969,402.6025,777.2969,398.6025,773.2969" style="stroke:#181818;stroke-width:1.0;"/><line style="stroke:#181818;stroke-width:1.0;stroke-dasharray:2.0,2.0;" x1="396.6025" x2="791.4829" y1="773.2969" y2="773.2969"/><text fill="#000000" font-family="sans-serif" font-size="13" lengthAdjust="spacing" textLength="223.0757" x="408.6025" y="768.5547">proposals list received (ObjectDTO)</text><polygon fill="#181818" points="100.2515,798.6074,90.2515,802.6074,100.2515,806.6074,96.2515,802.6074" style="stroke:#181818;stroke-width:1.0;"/><line style="stroke:#181818;stroke-width:1.0;stroke-dasharray:2.0,2.0;" x1="94.2515" x2="390.6025" y1="802.6074" y2="802.6074"/><text fill="#000000" font-family="sans-serif" font-size="13" lengthAdjust="spacing" textLength="278.3511" x="106.2515" y="797.8652">display proposals (list of ShowProposalDTO)</text><rect fill="#EEEEEE" height="3" style="stroke:#EEEEEE;stroke-width:1.0;" width="2390.873" x="0" y="831.2627"/><line style="stroke:#000000;stroke-width:1.0;" x1="0" x2="2390.873" y1="831.2627" y2="831.2627"/><line style="stroke:#000000;stroke-width:1.0;" x1="0" x2="2390.873" y1="834.2627" y2="834.2627"/><rect fill="#EEEEEE" height="23.3105" style="stroke:#000000;stroke-width:2.0;" width="250.666" x="1070.1035" y="820.6074"/><text fill="#000000" font-family="sans-serif" font-size="13" font-weight="bold" lengthAdjust="spacing" textLength="232.3813" x="1076.1035" y="837.1758">User Accepts or Rejects a Proposal</text><path d="M10,860.918 L72.1387,860.918 L72.1387,868.2285 L62.1387,878.2285 L10,878.2285 L10,860.918 " fill="#EEEEEE" style="stroke:#000000;stroke-width:1.5;"/><rect fill="none" height="1510.9922" style="stroke:#000000;stroke-width:1.5;" width="2315.5049" x="10" y="860.918"/><text fill="#000000" font-family="sans-serif" font-size="13" font-weight="bold" lengthAdjust="spacing" textLength="17.1387" x="25" y="874.4863">alt</text><text fill="#000000" font-family="sans-serif" font-size="11" font-weight="bold" lengthAdjust="spacing" textLength="99.1289" x="87.1387" y="873.5527">[Accept Proposal]</text><polygon fill="#181818" points="519.2393,895.5391,529.2393,899.5391,519.2393,903.5391,523.2393,899.5391" style="stroke:#181818;stroke-width:1.0;"/><line style="stroke:#181818;stroke-width:1.0;" x1="89.2515" x2="525.2393" y1="899.5391" y2="899.5391"/><text fill="#000000" font-family="sans-serif" font-size="13" lengthAdjust="spacing" textLength="292.2017" x="96.2515" y="894.7969">acceptProposal(selectedProposalId, feedback?)</text><polygon fill="#181818" points="2232.9849,924.8496,2242.9849,928.8496,2232.9849,932.8496,2236.9849,928.8496" style="stroke:#181818;stroke-width:1.0;"/><line style="stroke:#181818;stroke-width:1.0;" x1="531.2393" x2="2238.9849" y1="928.8496" y2="928.8496"/><text fill="#000000" font-family="sans-serif" font-size="13" lengthAdjust="spacing" textLength="326.3521" x="538.2393" y="924.1074">create ResponseDTO(decision="ACCEPT", feedback)</text><polygon fill="#181818" points="542.2393,954.1602,532.2393,958.1602,542.2393,962.1602,538.2393,958.1602" style="stroke:#181818;stroke-width:1.0;"/><line style="stroke:#181818;stroke-width:1.0;stroke-dasharray:2.0,2.0;" x1="536.2393" x2="2243.9849" y1="958.1602" y2="958.1602"/><text fill="#000000" font-family="sans-serif" font-size="13" lengthAdjust="spacing" textLength="139.0518" x="548.2393" y="953.418">ResponseDTO created</text><polygon fill="#181818" points="780.4829,983.4707,790.4829,987.4707,780.4829,991.4707,784.4829,987.4707" style="stroke:#181818;stroke-width:1.0;"/><line style="stroke:#181818;stroke-width:1.0;" x1="531.2393" x2="786.4829" y1="987.4707" y2="987.4707"/><text fill="#000000" font-family="sans-serif" font-size="13" lengthAdjust="spacing" textLength="237.2437" x="538.2393" y="982.7285">send ResponseDTO (accept response)</text><polygon fill="#181818" points="1192.5532,1012.7813,1202.5532,1016.7813,1192.5532,1020.7813,1196.5532,1016.7813" style="stroke:#181818;stroke-width:1.0;"/><line style="stroke:#181818;stroke-width:1.0;" x1="792.4829" x2="1198.5532" y1="1016.7813" y2="1016.7813"/><text fill="#000000" font-family="sans-serif" font-size="13" lengthAdjust="spacing" textLength="233.2573" x="799.4829" y="1012.0391">[TCP] forward ResponseDTO (Accept)</text><polygon fill="#181818" points="1470.1738,1042.0918,1480.1738,1046.0918,1470.1738,1050.0918,1474.1738,1046.0918" style="stroke:#181818;stroke-width:1.0;"/><line style="stroke:#181818;stroke-width:1.0;" x1="1204.5532" x2="1476.1738" y1="1046.0918" y2="1046.0918"/><text fill="#000000" font-family="sans-serif" font-size="13" lengthAdjust="spacing" textLength="253.6206" x="1211.5532" y="1041.3496">handleProposalResponse(ResponseDTO)</text><polygon fill="#181818" points="1771.4648,1071.4023,1781.4648,1075.4023,1771.4648,1079.4023,1775.4648,1075.4023" style="stroke:#181818;stroke-width:1.0;"/><line style="stroke:#181818;stroke-width:1.0;" x1="1482.1738" x2="1777.4648" y1="1075.4023" y2="1075.4023"/><text fill="#000000" font-family="sans-serif" font-size="13" lengthAdjust="spacing" textLength="277.291" x="1489.1738" y="1070.6602">get ShowProposal by id (selectedProposalId)</text><polygon fill="#181818" points="1982.2383,1100.7129,1992.2383,1104.7129,1982.2383,1108.7129,1986.2383,1104.7129" style="stroke:#181818;stroke-width:1.0;"/><line style="stroke:#181818;stroke-width:1.0;" x1="1783.4648" x2="1988.2383" y1="1104.7129" y2="1104.7129"/><text fill="#000000" font-family="sans-serif" font-size="13" lengthAdjust="spacing" textLength="119.2598" x="1790.4648" y="1099.9707">find proposal by id</text><polygon fill="#181818" points="1794.4648,1130.0234,1784.4648,1134.0234,1794.4648,1138.0234,1790.4648,1134.0234" style="stroke:#181818;stroke-width:1.0;"/><line style="stroke:#181818;stroke-width:1.0;stroke-dasharray:2.0,2.0;" x1="1788.4648" x2="1993.2383" y1="1134.0234" y2="1134.0234"/><text fill="#000000" font-family="sans-serif" font-size="13" lengthAdjust="spacing" textLength="130.292" x="1800.4648" y="1129.2813">ShowProposal object</text><polygon fill="#181818" points="1493.1738,1159.334,1483.1738,1163.334,1493.1738,1167.334,1489.1738,1163.334" style="stroke:#181818;stroke-width:1.0;"/><line style="stroke:#181818;stroke-width:1.0;stroke-dasharray:2.0,2.0;" x1="1487.1738" x2="1782.4648" y1="1163.334" y2="1163.334"/><text fill="#000000" font-family="sans-serif" font-size="13" lengthAdjust="spacing" textLength="130.292" x="1499.1738" y="1158.5918">ShowProposal object</text><path d="M1367.3765,1178.334 L1429.5151,1178.334 L1429.5151,1185.6445 L1419.5151,1195.6445 L1367.3765,1195.6445 L1367.3765,1178.334 " fill="#EEEEEE" style="stroke:#000000;stroke-width:1.5;"/><rect fill="none" height="315.0156" style="stroke:#000000;stroke-width:1.5;" width="948.1284" x="1367.3765" y="1178.334"/><text fill="#000000" font-family="sans-serif" font-size="13" font-weight="bold" lengthAdjust="spacing" textLength="17.1387" x="1382.3765" y="1191.9023">alt</text><text fill="#000000" font-family="sans-serif" font-size="11" font-weight="bold" lengthAdjust="spacing" textLength="94.4507" x="1444.5151" y="1190.9688">[Proposal found]</text><polygon fill="#181818" points="1982.2383,1212.9551,1992.2383,1216.9551,1982.2383,1220.9551,1986.2383,1216.9551" style="stroke:#181818;stroke-width:1.0;"/><line style="stroke:#181818;stroke-width:1.0;" x1="1482.1738" x2="1988.2383" y1="1216.9551" y2="1216.9551"/><text fill="#000000" font-family="sans-serif" font-size="13" lengthAdjust="spacing" textLength="145.8247" x="1489.1738" y="1212.2129">set status = ACCEPTED</text><path d="M1377.3765,1231.9551 L1444.5615,1231.9551 L1444.5615,1239.2656 L1434.5615,1249.2656 L1377.3765,1249.2656 L1377.3765,1231.9551 " fill="#EEEEEE" style="stroke:#000000;stroke-width:1.5;"/><rect fill="none" height="46.6211" style="stroke:#000000;stroke-width:1.5;" width="676.8657" x="1377.3765" y="1231.9551"/><text fill="#000000" font-family="sans-serif" font-size="13" font-weight="bold" lengthAdjust="spacing" textLength="22.1851" x="1392.3765" y="1245.5234">opt</text><text fill="#000000" font-family="sans-serif" font-size="11" font-weight="bold" lengthAdjust="spacing" textLength="113.5288" x="1459.5615" y="1244.5898">[feedback provided]</text><polygon fill="#181818" points="1982.2383,1266.5762,1992.2383,1270.5762,1982.2383,1274.5762,1986.2383,1270.5762" style="stroke:#181818;stroke-width:1.0;"/><line style="stroke:#181818;stroke-width:1.0;" x1="1482.1738" x2="1988.2383" y1="1270.5762" y2="1270.5762"/><text fill="#000000" font-family="sans-serif" font-size="13" lengthAdjust="spacing" textLength="176.2808" x="1489.1738" y="1265.834">attach feedback to proposal</text><polygon fill="#181818" points="1771.4648,1302.8867,1781.4648,1306.8867,1771.4648,1310.8867,1775.4648,1306.8867" style="stroke:#181818;stroke-width:1.0;"/><line style="stroke:#181818;stroke-width:1.0;" x1="1482.1738" x2="1777.4648" y1="1306.8867" y2="1306.8867"/><text fill="#000000" font-family="sans-serif" font-size="13" lengthAdjust="spacing" textLength="135.1226" x="1489.1738" y="1302.1445">update ShowProposal</text><polygon fill="#181818" points="1493.1738,1332.1973,1483.1738,1336.1973,1493.1738,1340.1973,1489.1738,1336.1973" style="stroke:#181818;stroke-width:1.0;"/><line style="stroke:#181818;stroke-width:1.0;stroke-dasharray:2.0,2.0;" x1="1487.1738" x2="1782.4648" y1="1336.1973" y2="1336.1973"/><text fill="#000000" font-family="sans-serif" font-size="13" lengthAdjust="spacing" textLength="197.501" x="1499.1738" y="1331.4551">update result (success or error)</text><path d="M1377.3765,1351.1973 L1439.5151,1351.1973 L1439.5151,1358.5078 L1429.5151,1368.5078 L1377.3765,1368.5078 L1377.3765,1351.1973 " fill="#EEEEEE" style="stroke:#000000;stroke-width:1.5;"/><rect fill="none" height="90.8867" style="stroke:#000000;stroke-width:1.5;" width="928.1284" x="1377.3765" y="1351.1973"/><text fill="#000000" font-family="sans-serif" font-size="13" font-weight="bold" lengthAdjust="spacing" textLength="17.1387" x="1392.3765" y="1364.7656">alt</text><text fill="#000000" font-family="sans-serif" font-size="11" font-weight="bold" lengthAdjust="spacing" textLength="111.2246" x="1454.5151" y="1363.832">[Update successful]</text><polygon fill="#181818" points="2232.9849,1385.8184,2242.9849,1389.8184,2232.9849,1393.8184,2236.9849,1389.8184" style="stroke:#181818;stroke-width:1.0;"/><line style="stroke:#181818;stroke-width:1.0;" x1="1482.1738" x2="2238.9849" y1="1389.8184" y2="1389.8184"/><text fill="#000000" font-family="sans-serif" font-size="13" lengthAdjust="spacing" textLength="424.3218" x="1489.1738" y="1385.0762">prepare ResponseDTO(status="OK", message="Proposal accepted")</text><line style="stroke:#000000;stroke-width:1.0;stroke-dasharray:2.0,2.0;" x1="1377.3765" x2="2305.5049" y1="1398.8184" y2="1398.8184"/><text fill="#000000" font-family="sans-serif" font-size="11" font-weight="bold" lengthAdjust="spacing" textLength="83.7407" x="1382.3765" y="1409.4531">[Update failed]</text><polygon fill="#181818" points="2232.9849,1430.084,2242.9849,1434.084,2232.9849,1438.084,2236.9849,1434.084" style="stroke:#181818;stroke-width:1.0;"/><line style="stroke:#181818;stroke-width:1.0;" x1="1482.1738" x2="2238.9849" y1="1434.084" y2="1434.084"/><text fill="#000000" font-family="sans-serif" font-size="13" lengthAdjust="spacing" textLength="377.5015" x="1489.1738" y="1429.3418">prepare ResponseDTO(status="FAIL", error="Update failed")</text><line style="stroke:#000000;stroke-width:1.0;stroke-dasharray:2.0,2.0;" x1="1367.3765" x2="2315.5049" y1="1450.084" y2="1450.084"/><text fill="#000000" font-family="sans-serif" font-size="11" font-weight="bold" lengthAdjust="spacing" textLength="116.7837" x="1372.3765" y="1460.7188">[Proposal not found]</text><polygon fill="#181818" points="2232.9849,1481.3496,2242.9849,1485.3496,2232.9849,1489.3496,2236.9849,1485.3496" style="stroke:#181818;stroke-width:1.0;"/><line style="stroke:#181818;stroke-width:1.0;" x1="1482.1738" x2="2238.9849" y1="1485.3496" y2="1485.3496"/><text fill="#000000" font-family="sans-serif" font-size="13" lengthAdjust="spacing" textLength="414.2798" x="1489.1738" y="1480.6074">prepare ResponseDTO(status="FAIL", error="Proposal not found")</text><polygon fill="#181818" points="1215.5532,1517.6602,1205.5532,1521.6602,1215.5532,1525.6602,1211.5532,1521.6602" style="stroke:#181818;stroke-width:1.0;"/><line style="stroke:#181818;stroke-width:1.0;stroke-dasharray:2.0,2.0;" x1="1209.5532" x2="1481.1738" y1="1521.6602" y2="1521.6602"/><text fill="#000000" font-family="sans-serif" font-size="13" lengthAdjust="spacing" textLength="136.6968" x="1221.5532" y="1516.918">ResponseDTO (result)</text><polygon fill="#181818" points="803.4829,1546.9707,793.4829,1550.9707,803.4829,1554.9707,799.4829,1550.9707" style="stroke:#181818;stroke-width:1.0;"/><line style="stroke:#181818;stroke-width:1.0;" x1="797.4829" x2="1203.5532" y1="1550.9707" y2="1550.9707"/><text fill="#000000" font-family="sans-serif" font-size="13" lengthAdjust="spacing" textLength="229.3154" x="809.4829" y="1546.2285">[TCP] send response (ResponseDTO)</text><polygon fill="#181818" points="542.2393,1576.2813,532.2393,1580.2813,542.2393,1584.2813,538.2393,1580.2813" style="stroke:#181818;stroke-width:1.0;"/><line style="stroke:#181818;stroke-width:1.0;stroke-dasharray:2.0,2.0;" x1="536.2393" x2="791.4829" y1="1580.2813" y2="1580.2813"/><text fill="#000000" font-family="sans-serif" font-size="13" lengthAdjust="spacing" textLength="204.458" x="548.2393" y="1575.5391">deliver response (ResponseDTO)</text><polygon fill="#181818" points="100.2515,1605.5918,90.2515,1609.5918,100.2515,1613.5918,96.2515,1609.5918" style="stroke:#181818;stroke-width:1.0;"/><line style="stroke:#181818;stroke-width:1.0;stroke-dasharray:2.0,2.0;" x1="94.2515" x2="530.2393" y1="1609.5918" y2="1609.5918"/><text fill="#000000" font-family="sans-serif" font-size="13" lengthAdjust="spacing" textLength="186.145" x="106.2515" y="1604.8496">show confirmation (accepted)</text><line style="stroke:#000000;stroke-width:1.0;stroke-dasharray:2.0,2.0;" x1="10" x2="2325.5049" y1="1618.5918" y2="1618.5918"/><text fill="#000000" font-family="sans-serif" font-size="11" font-weight="bold" lengthAdjust="spacing" textLength="95.584" x="15" y="1629.2266">[Reject Proposal]</text><polygon fill="#181818" points="519.2393,1649.8574,529.2393,1653.8574,519.2393,1657.8574,523.2393,1653.8574" style="stroke:#181818;stroke-width:1.0;"/><line style="stroke:#181818;stroke-width:1.0;" x1="89.2515" x2="525.2393" y1="1653.8574" y2="1653.8574"/><text fill="#000000" font-family="sans-serif" font-size="13" lengthAdjust="spacing" textLength="286.6982" x="96.2515" y="1649.1152">rejectProposal(selectedProposalId, feedback?)</text><polygon fill="#181818" points="2232.9849,1679.168,2242.9849,1683.168,2232.9849,1687.168,2236.9849,1683.168" style="stroke:#181818;stroke-width:1.0;"/><line style="stroke:#181818;stroke-width:1.0;" x1="531.2393" x2="2238.9849" y1="1683.168" y2="1683.168"/><text fill="#000000" font-family="sans-serif" font-size="13" lengthAdjust="spacing" textLength="320.5122" x="538.2393" y="1678.4258">create ResponseDTO(decision="REJECT", feedback)</text><polygon fill="#181818" points="542.2393,1708.4785,532.2393,1712.4785,542.2393,1716.4785,538.2393,1712.4785" style="stroke:#181818;stroke-width:1.0;"/><line style="stroke:#181818;stroke-width:1.0;stroke-dasharray:2.0,2.0;" x1="536.2393" x2="2243.9849" y1="1712.4785" y2="1712.4785"/><text fill="#000000" font-family="sans-serif" font-size="13" lengthAdjust="spacing" textLength="139.0518" x="548.2393" y="1707.7363">ResponseDTO created</text><polygon fill="#181818" points="780.4829,1737.7891,790.4829,1741.7891,780.4829,1745.7891,784.4829,1741.7891" style="stroke:#181818;stroke-width:1.0;"/><line style="stroke:#181818;stroke-width:1.0;" x1="531.2393" x2="786.4829" y1="1741.7891" y2="1741.7891"/><text fill="#000000" font-family="sans-serif" font-size="13" lengthAdjust="spacing" textLength="231.7402" x="538.2393" y="1737.0469">send ResponseDTO (reject response)</text><polygon fill="#181818" points="1192.5532,1767.0996,1202.5532,1771.0996,1192.5532,1775.0996,1196.5532,1771.0996" style="stroke:#181818;stroke-width:1.0;"/><line style="stroke:#181818;stroke-width:1.0;" x1="792.4829" x2="1198.5532" y1="1771.0996" y2="1771.0996"/><text fill="#000000" font-family="sans-serif" font-size="13" lengthAdjust="spacing" textLength="228.8647" x="799.4829" y="1766.3574">[TCP] forward ResponseDTO (Reject)</text><polygon fill="#181818" points="1470.1738,1796.4102,1480.1738,1800.4102,1470.1738,1804.4102,1474.1738,1800.4102" style="stroke:#181818;stroke-width:1.0;"/><line style="stroke:#181818;stroke-width:1.0;" x1="1204.5532" x2="1476.1738" y1="1800.4102" y2="1800.4102"/><text fill="#000000" font-family="sans-serif" font-size="13" lengthAdjust="spacing" textLength="253.6206" x="1211.5532" y="1795.668">handleProposalResponse(ResponseDTO)</text><polygon fill="#181818" points="1771.4648,1825.7207,1781.4648,1829.7207,1771.4648,1833.7207,1775.4648,1829.7207" style="stroke:#181818;stroke-width:1.0;"/><line style="stroke:#181818;stroke-width:1.0;" x1="1482.1738" x2="1777.4648" y1="1829.7207" y2="1829.7207"/><text fill="#000000" font-family="sans-serif" font-size="13" lengthAdjust="spacing" textLength="277.291" x="1489.1738" y="1824.9785">get ShowProposal by id (selectedProposalId)</text><polygon fill="#181818" points="1982.2383,1855.0313,1992.2383,1859.0313,1982.2383,1863.0313,1986.2383,1859.0313" style="stroke:#181818;stroke-width:1.0;"/><line style="stroke:#181818;stroke-width:1.0;" x1="1783.4648" x2="1988.2383" y1="1859.0313" y2="1859.0313"/><text fill="#000000" font-family="sans-serif" font-size="13" lengthAdjust="spacing" textLength="119.2598" x="1790.4648" y="1854.2891">find proposal by id</text><polygon fill="#181818" points="1794.4648,1884.3418,1784.4648,1888.3418,1794.4648,1892.3418,1790.4648,1888.3418" style="stroke:#181818;stroke-width:1.0;"/><line style="stroke:#181818;stroke-width:1.0;stroke-dasharray:2.0,2.0;" x1="1788.4648" x2="1993.2383" y1="1888.3418" y2="1888.3418"/><text fill="#000000" font-family="sans-serif" font-size="13" lengthAdjust="spacing" textLength="130.292" x="1800.4648" y="1883.5996">ShowProposal object</text><polygon fill="#181818" points="1493.1738,1913.6523,1483.1738,1917.6523,1493.1738,1921.6523,1489.1738,1917.6523" style="stroke:#181818;stroke-width:1.0;"/><line style="stroke:#181818;stroke-width:1.0;stroke-dasharray:2.0,2.0;" x1="1487.1738" x2="1782.4648" y1="1917.6523" y2="1917.6523"/><text fill="#000000" font-family="sans-serif" font-size="13" lengthAdjust="spacing" textLength="130.292" x="1499.1738" y="1912.9102">ShowProposal object</text><path d="M1367.3765,1932.6523 L1429.5151,1932.6523 L1429.5151,1939.9629 L1419.5151,1949.9629 L1367.3765,1949.9629 L1367.3765,1932.6523 " fill="#EEEEEE" style="stroke:#000000;stroke-width:1.5;"/><rect fill="none" height="315.0156" style="stroke:#000000;stroke-width:1.5;" width="948.1284" x="1367.3765" y="1932.6523"/><text fill="#000000" font-family="sans-serif" font-size="13" font-weight="bold" lengthAdjust="spacing" textLength="17.1387" x="1382.3765" y="1946.2207">alt</text><text fill="#000000" font-family="sans-serif" font-size="11" font-weight="bold" lengthAdjust="spacing" textLength="94.4507" x="1444.5151" y="1945.2871">[Proposal found]</text><polygon fill="#181818" points="1982.2383,1967.2734,1992.2383,1971.2734,1982.2383,1975.2734,1986.2383,1971.2734" style="stroke:#181818;stroke-width:1.0;"/><line style="stroke:#181818;stroke-width:1.0;" x1="1482.1738" x2="1988.2383" y1="1971.2734" y2="1971.2734"/><text fill="#000000" font-family="sans-serif" font-size="13" lengthAdjust="spacing" textLength="139.9849" x="1489.1738" y="1966.5313">set status = REJECTED</text><path d="M1377.3765,1986.2734 L1444.5615,1986.2734 L1444.5615,1993.584 L1434.5615,2003.584 L1377.3765,2003.584 L1377.3765,1986.2734 " fill="#EEEEEE" style="stroke:#000000;stroke-width:1.5;"/><rect fill="none" height="46.6211" style="stroke:#000000;stroke-width:1.5;" width="676.8657" x="1377.3765" y="1986.2734"/><text fill="#000000" font-family="sans-serif" font-size="13" font-weight="bold" lengthAdjust="spacing" textLength="22.1851" x="1392.3765" y="1999.8418">opt</text><text fill="#000000" font-family="sans-serif" font-size="11" font-weight="bold" lengthAdjust="spacing" textLength="113.5288" x="1459.5615" y="1998.9082">[feedback provided]</text><polygon fill="#181818" points="1982.2383,2020.8945,1992.2383,2024.8945,1982.2383,2028.8945,1986.2383,2024.8945" style="stroke:#181818;stroke-width:1.0;"/><line style="stroke:#181818;stroke-width:1.0;" x1="1482.1738" x2="1988.2383" y1="2024.8945" y2="2024.8945"/><text fill="#000000" font-family="sans-serif" font-size="13" lengthAdjust="spacing" textLength="176.2808" x="1489.1738" y="2020.1523">attach feedback to proposal</text><polygon fill="#181818" points="1771.4648,2057.2051,1781.4648,2061.2051,1771.4648,2065.2051,1775.4648,2061.2051" style="stroke:#181818;stroke-width:1.0;"/><line style="stroke:#181818;stroke-width:1.0;" x1="1482.1738" x2="1777.4648" y1="2061.2051" y2="2061.2051"/><text fill="#000000" font-family="sans-serif" font-size="13" lengthAdjust="spacing" textLength="135.1226" x="1489.1738" y="2056.4629">update ShowProposal</text><polygon fill="#181818" points="1493.1738,2086.5156,1483.1738,2090.5156,1493.1738,2094.5156,1489.1738,2090.5156" style="stroke:#181818;stroke-width:1.0;"/><line style="stroke:#181818;stroke-width:1.0;stroke-dasharray:2.0,2.0;" x1="1487.1738" x2="1782.4648" y1="2090.5156" y2="2090.5156"/><text fill="#000000" font-family="sans-serif" font-size="13" lengthAdjust="spacing" textLength="197.501" x="1499.1738" y="2085.7734">update result (success or error)</text><path d="M1377.3765,2105.5156 L1439.5151,2105.5156 L1439.5151,2112.8262 L1429.5151,2122.8262 L1377.3765,2122.8262 L1377.3765,2105.5156 " fill="#EEEEEE" style="stroke:#000000;stroke-width:1.5;"/><rect fill="none" height="90.8867" style="stroke:#000000;stroke-width:1.5;" width="928.1284" x="1377.3765" y="2105.5156"/><text fill="#000000" font-family="sans-serif" font-size="13" font-weight="bold" lengthAdjust="spacing" textLength="17.1387" x="1392.3765" y="2119.084">alt</text><text fill="#000000" font-family="sans-serif" font-size="11" font-weight="bold" lengthAdjust="spacing" textLength="111.2246" x="1454.5151" y="2118.1504">[Update successful]</text><polygon fill="#181818" points="2232.9849,2140.1367,2242.9849,2144.1367,2232.9849,2148.1367,2236.9849,2144.1367" style="stroke:#181818;stroke-width:1.0;"/><line style="stroke:#181818;stroke-width:1.0;" x1="1482.1738" x2="2238.9849" y1="2144.1367" y2="2144.1367"/><text fill="#000000" font-family="sans-serif" font-size="13" lengthAdjust="spacing" textLength="418.8184" x="1489.1738" y="2139.3945">prepare ResponseDTO(status="OK", message="Proposal rejected")</text><line style="stroke:#000000;stroke-width:1.0;stroke-dasharray:2.0,2.0;" x1="1377.3765" x2="2305.5049" y1="2153.1367" y2="2153.1367"/><text fill="#000000" font-family="sans-serif" font-size="11" font-weight="bold" lengthAdjust="spacing" textLength="83.7407" x="1382.3765" y="2163.7715">[Update failed]</text><polygon fill="#181818" points="2232.9849,2184.4023,2242.9849,2188.4023,2232.9849,2192.4023,2236.9849,2188.4023" style="stroke:#181818;stroke-width:1.0;"/><line style="stroke:#181818;stroke-width:1.0;" x1="1482.1738" x2="2238.9849" y1="2188.4023" y2="2188.4023"/><text fill="#000000" font-family="sans-serif" font-size="13" lengthAdjust="spacing" textLength="377.5015" x="1489.1738" y="2183.6602">prepare ResponseDTO(status="FAIL", error="Update failed")</text><line style="stroke:#000000;stroke-width:1.0;stroke-dasharray:2.0,2.0;" x1="1367.3765" x2="2315.5049" y1="2204.4023" y2="2204.4023"/><text fill="#000000" font-family="sans-serif" font-size="11" font-weight="bold" lengthAdjust="spacing" textLength="116.7837" x="1372.3765" y="2215.0371">[Proposal not found]</text><polygon fill="#181818" points="2232.9849,2235.668,2242.9849,2239.668,2232.9849,2243.668,2236.9849,2239.668" style="stroke:#181818;stroke-width:1.0;"/><line style="stroke:#181818;stroke-width:1.0;" x1="1482.1738" x2="2238.9849" y1="2239.668" y2="2239.668"/><text fill="#000000" font-family="sans-serif" font-size="13" lengthAdjust="spacing" textLength="414.2798" x="1489.1738" y="2234.9258">prepare ResponseDTO(status="FAIL", error="Proposal not found")</text><polygon fill="#181818" points="1215.5532,2271.9785,1205.5532,2275.9785,1215.5532,2279.9785,1211.5532,2275.9785" style="stroke:#181818;stroke-width:1.0;"/><line style="stroke:#181818;stroke-width:1.0;stroke-dasharray:2.0,2.0;" x1="1209.5532" x2="1481.1738" y1="2275.9785" y2="2275.9785"/><text fill="#000000" font-family="sans-serif" font-size="13" lengthAdjust="spacing" textLength="136.6968" x="1221.5532" y="2271.2363">ResponseDTO (result)</text><polygon fill="#181818" points="803.4829,2301.2891,793.4829,2305.2891,803.4829,2309.2891,799.4829,2305.2891" style="stroke:#181818;stroke-width:1.0;"/><line style="stroke:#181818;stroke-width:1.0;" x1="797.4829" x2="1203.5532" y1="2305.2891" y2="2305.2891"/><text fill="#000000" font-family="sans-serif" font-size="13" lengthAdjust="spacing" textLength="229.3154" x="809.4829" y="2300.5469">[TCP] send response (ResponseDTO)</text><polygon fill="#181818" points="542.2393,2330.5996,532.2393,2334.5996,542.2393,2338.5996,538.2393,2334.5996" style="stroke:#181818;stroke-width:1.0;"/><line style="stroke:#181818;stroke-width:1.0;stroke-dasharray:2.0,2.0;" x1="536.2393" x2="791.4829" y1="2334.5996" y2="2334.5996"/><text fill="#000000" font-family="sans-serif" font-size="13" lengthAdjust="spacing" textLength="204.458" x="548.2393" y="2329.8574">deliver response (ResponseDTO)</text><polygon fill="#181818" points="100.2515,2359.9102,90.2515,2363.9102,100.2515,2367.9102,96.2515,2363.9102" style="stroke:#181818;stroke-width:1.0;"/><line style="stroke:#181818;stroke-width:1.0;stroke-dasharray:2.0,2.0;" x1="94.2515" x2="530.2393" y1="2363.9102" y2="2363.9102"/><text fill="#000000" font-family="sans-serif" font-size="13" lengthAdjust="spacing" textLength="180.6416" x="106.2515" y="2359.168">show confirmation (rejected)</text><!--SRC=[xLXDR-Cs4BthLmnyQ6MWnc9He0KCU1U6rsdTtIA14vzsUs2aSSoM4LMIJkf_tw58YjH7dA98UzdauaYSDvnvysR6YU568AohScRaZ3vWMHHOcpTR_1qB0zS7-GXNIjPICm4NWfxotVNtRt-0Ru0-VtmxpR9R-HTCLaTjv3qgMDRr90FwgPaolE0rgmnCbXKJ9ut1qsxpfSfJo7G2JCDkCqJ-XERNKy3fBzLALaP98L0r43fU6IM6k03PegvbfN60j0VZqENH7B2YPsQuJ60Kyytg2bQ2qwcBs9gwvmo9FAB2yt6Dwe4k6Zh_cLMbG8VHlP3ysNXGNGP3MYuATsRV3O5R900tKbaM7tZPfb_BnjXcQauKCPKwUATCryrhbsLu_QJzXvlBZY4zTsn3jC7EFlTjBc-jue85FLc3bjJ50Zx9Erv1BcjR5IQci5XakmtCtYLLc8EmLdcXiBIEIJBJB1vRuqZo73vJFNyRWqGZ2x5SpO55MU1Ee-eYh0tCUlvPHqbm-R7dE0qyYGNqaRfGwrxakurF3mfPxRcwnx8XPej6SNn021trhUushevK-NwPWy8_ZwXDMaMTJpD_tW-kLaYYme22_0uDlVIuvodkTd5U-40tvJZL5xmgGpAwXIqBos87x5X_rsOw1ufFdM9ei9SA0Y9h9zcilKfmIaVk8ILYl9XZbY0RrUfU5aaVp85aGee1-fsYKV8-1fSbTeFhUltLND-xnZN971uLgvEKII1jCsNEPk0zMjUi-8FTaPIUawQspHXnUNi7F79p68stAunKVj5FGwl20la3bedNH8jU-oNNjM1fSVEncZHOsnUsIVq-qq0oS3jD0uiRZVg22UEDkdFEzKlO4jJBZKqmoJKASePbUB4fluCzOdbBTBwVDXu2DlX9rP1CnBp4WcjIzcAoNAtMLpUJw2aw2aMC0IKklDToS6rQnQP-AIXtAH7vxfsxxBbMfePwPAhdoH7e7FHq57VJ70xDKN-7vOah7qC4nQ5WHqwdzsvFm4anmqe4rlgpOSyJ1JjuOpao5aQQF77Qp-ifQwkjzlrU7YjttqYACKXDQMh3p96cDZX1h3-qCDf-hJXiAdQXHwTd7JDZM768Q2DRBbe7-7I4ZfTZNLhvTgPb08npun4aiYEnaVlLPliHbP9gsi8jMJjdx8tsHt4kjRQdmdPAcyfHk9XSVgHskYTdDECMxRT2tyrOJkBzA3I60FQCY_Ey_gFBBvQRJtHza-XYql6TNkn9Rm9e8woaEI-PVn71qBaF8uJGkQBN_fs6T-KSRVZnnH6638nqUtT7n0bNeg2beCvXux3pIqBRBpx- -v7xrfM7Ma-pXc7_fytPOQyQc_zss6_NlwnN_z-mTocznB1t1BuE-vSUzauGhyF-nOUza_xhiFyQXdsezTJ-xo3x6m00]--></g></svg>