<svg xmlns="http://www.w3.org/2000/svg" xmlns:xlink="http://www.w3.org/1999/xlink" contentStyleType="text/css" height="750px" preserveAspectRatio="none" style="width:1040px;height:750px;background:#FFFFFF;" version="1.1" viewBox="0 0 1040 750" width="1040px" zoomAndPan="magnify"><title>System Sequence Diagram (SSD) - US310 Create Show Proposal</title><defs/><g><text fill="#000000" font-family="sans-serif" font-size="14" font-weight="bold" lengthAdjust="spacing" textLength="434.4043" x="304.1816" y="29.9659">System Sequence Diagram (SSD) - US310 Create Show Proposal</text><rect fill="#FFFFFF" height="522.7481" style="stroke:#181818;stroke-width:1.0;" width="10" x="76.1558" y="134.1358"/><rect fill="#FFFFFF" height="76.412" style="stroke:#181818;stroke-width:1.0;" width="10" x="393.656" y="157.8419"/><rect fill="#FFFFFF" height="375.924" style="stroke:#181818;stroke-width:1.0;" width="10" x="393.656" y="265.9599"/><rect fill="#FFFFFF" height="28" style="stroke:#181818;stroke-width:1.0;" width="10" x="398.656" y="425.7659"/><rect fill="#FFFFFF" height="28" style="stroke:#181818;stroke-width:1.0;" width="10" x="398.656" y="500.4719"/><rect fill="#FFFFFF" height="28" style="stroke:#181818;stroke-width:1.0;" width="10" x="398.656" y="575.1779"/><rect fill="none" height="324.218" style="stroke:#000000;stroke-width:1.5;" width="1023.7674" x="10" y="325.6659"/><line style="stroke:#181818;stroke-width:0.5;stroke-dasharray:5.0,5.0;" x1="81" x2="81" y1="124.1358" y2="666.8839"/><line style="stroke:#181818;stroke-width:0.5;stroke-dasharray:5.0,5.0;" x1="397.8701" x2="397.8701" y1="124.1358" y2="666.8839"/><text fill="#000000" font-family="sans-serif" font-size="14" lengthAdjust="spacing" textLength="116.3116" x="20" y="120.0339">CRM Collaborator</text><ellipse cx="81.1558" cy="53.5679" fill="#E3E3E3" rx="8" ry="8" style="stroke:#181818;stroke-width:0.5;"/><path d="M81.1558,61.5679 L81.1558,88.5679 M68.1558,69.5679 L94.1558,69.5679 M81.1558,88.5679 L68.1558,103.5679 M81.1558,88.5679 L94.1558,103.5679 " fill="none" style="stroke:#181818;stroke-width:0.5;"/><text fill="#000000" font-family="sans-serif" font-size="14" lengthAdjust="spacing" textLength="116.3116" x="20" y="680.8498">CRM Collaborator</text><ellipse cx="81.1558" cy="693.4518" fill="#E3E3E3" rx="8" ry="8" style="stroke:#181818;stroke-width:0.5;"/><path d="M81.1558,701.4518 L81.1558,728.4518 M68.1558,709.4518 L94.1558,709.4518 M81.1558,728.4518 L68.1558,743.4518 M81.1558,728.4518 L94.1558,743.4518 " fill="none" style="stroke:#181818;stroke-width:0.5;"/><rect fill="#E3E3E3" height="33.0679" rx="2.5" ry="2.5" style="stroke:#181818;stroke-width:0.5;" width="61.5718" x="367.8701" y="90.0679"/><text fill="#000000" font-family="sans-serif" font-size="14" lengthAdjust="spacing" textLength="47.5718" x="374.8701" y="112.0339">System</text><rect fill="#E3E3E3" height="33.0679" rx="2.5" ry="2.5" style="stroke:#181818;stroke-width:0.5;" width="61.5718" x="367.8701" y="665.8839"/><text fill="#000000" font-family="sans-serif" font-size="14" lengthAdjust="spacing" textLength="47.5718" x="374.8701" y="687.8498">System</text><rect fill="#FFFFFF" height="522.7481" style="stroke:#181818;stroke-width:1.0;" width="10" x="76.1558" y="134.1358"/><rect fill="#FFFFFF" height="76.412" style="stroke:#181818;stroke-width:1.0;" width="10" x="393.656" y="157.8419"/><rect fill="#FFFFFF" height="375.924" style="stroke:#181818;stroke-width:1.0;" width="10" x="393.656" y="265.9599"/><rect fill="#FFFFFF" height="28" style="stroke:#181818;stroke-width:1.0;" width="10" x="398.656" y="425.7659"/><rect fill="#FFFFFF" height="28" style="stroke:#181818;stroke-width:1.0;" width="10" x="398.656" y="500.4719"/><rect fill="#FFFFFF" height="28" style="stroke:#181818;stroke-width:1.0;" width="10" x="398.656" y="575.1779"/><polygon fill="#181818" points="381.656,153.8419,391.656,157.8419,381.656,161.8419,385.656,157.8419" style="stroke:#181818;stroke-width:1.0;"/><line style="stroke:#181818;stroke-width:1.0;" x1="86.1558" x2="387.656" y1="157.8419" y2="157.8419"/><text fill="#000000" font-family="sans-serif" font-size="13" font-weight="bold" lengthAdjust="spacing" textLength="7.436" x="93.1558" y="152.0328">1</text><text fill="#000000" font-family="sans-serif" font-size="13" lengthAdjust="spacing" textLength="230.0872" x="104.5918" y="152.0328">Request to create new Show Proposal</text><line style="stroke:#181818;stroke-width:1.0;" x1="403.656" x2="445.656" y1="189.5479" y2="189.5479"/><line style="stroke:#181818;stroke-width:1.0;" x1="445.656" x2="445.656" y1="189.5479" y2="202.5479"/><line style="stroke:#181818;stroke-width:1.0;" x1="404.656" x2="445.656" y1="202.5479" y2="202.5479"/><polygon fill="#181818" points="414.656,198.5479,404.656,202.5479,414.656,206.5479,410.656,202.5479" style="stroke:#181818;stroke-width:1.0;"/><text fill="#000000" font-family="sans-serif" font-size="13" font-weight="bold" lengthAdjust="spacing" textLength="7.436" x="410.656" y="183.7389">2</text><text fill="#000000" font-family="sans-serif" font-size="13" lengthAdjust="spacing" textLength="155.1421" x="422.092" y="183.7389">list of proposal templates</text><polygon fill="#181818" points="97.1558,230.2539,87.1558,234.2539,97.1558,238.2539,93.1558,234.2539" style="stroke:#181818;stroke-width:1.0;"/><line style="stroke:#181818;stroke-width:1.0;stroke-dasharray:2.0,2.0;" x1="91.1558" x2="397.656" y1="234.2539" y2="234.2539"/><text fill="#000000" font-family="sans-serif" font-size="13" font-weight="bold" lengthAdjust="spacing" textLength="7.436" x="103.1558" y="228.4449">3</text><text fill="#000000" font-family="sans-serif" font-size="13" lengthAdjust="spacing" textLength="142.7271" x="114.5918" y="228.4449">Return list of templates</text><polygon fill="#181818" points="381.656,261.9599,391.656,265.9599,381.656,269.9599,385.656,265.9599" style="stroke:#181818;stroke-width:1.0;"/><line style="stroke:#181818;stroke-width:1.0;" x1="86.1558" x2="387.656" y1="265.9599" y2="265.9599"/><text fill="#000000" font-family="sans-serif" font-size="13" font-weight="bold" lengthAdjust="spacing" textLength="7.436" x="93.1558" y="260.1509">4</text><text fill="#000000" font-family="sans-serif" font-size="13" lengthAdjust="spacing" textLength="167.0892" x="104.5918" y="260.1509">Submit show proposal data</text><line style="stroke:#181818;stroke-width:1.0;" x1="403.656" x2="445.656" y1="297.6659" y2="297.6659"/><line style="stroke:#181818;stroke-width:1.0;" x1="445.656" x2="445.656" y1="297.6659" y2="310.6659"/><line style="stroke:#181818;stroke-width:1.0;" x1="404.656" x2="445.656" y1="310.6659" y2="310.6659"/><polygon fill="#181818" points="414.656,306.6659,404.656,310.6659,414.656,314.6659,410.656,310.6659" style="stroke:#181818;stroke-width:1.0;"/><text fill="#000000" font-family="sans-serif" font-size="13" font-weight="bold" lengthAdjust="spacing" textLength="7.436" x="410.656" y="291.8569">5</text><text fill="#000000" font-family="sans-serif" font-size="13" lengthAdjust="spacing" textLength="547.3135" x="422.092" y="291.8569">Validate input (showRequestID, numberOfDrones, sequenceFigues,showProposalDate, ...)</text><path d="M10,325.6659 L72.459,325.6659 L72.459,335.3719 L62.459,345.3719 L10,345.3719 L10,325.6659 " fill="#EEEEEE" style="stroke:#000000;stroke-width:1.5;"/><rect fill="none" height="324.218" style="stroke:#000000;stroke-width:1.5;" width="1023.7674" x="10" y="325.6659"/><text fill="#000000" font-family="sans-serif" font-size="13" font-weight="bold" lengthAdjust="spacing" textLength="17.459" x="25" y="340.5629">alt</text><text fill="#000000" font-family="sans-serif" font-size="11" font-weight="bold" lengthAdjust="spacing" textLength="188.6377" x="87.459" y="339.4248">[Invalid or missing required fields]</text><polygon fill="#181818" points="97.1558,365.0779,87.1558,369.0779,97.1558,373.0779,93.1558,369.0779" style="stroke:#181818;stroke-width:1.0;"/><line style="stroke:#181818;stroke-width:1.0;stroke-dasharray:2.0,2.0;" x1="91.1558" x2="392.656" y1="369.0779" y2="369.0779"/><text fill="#000000" font-family="sans-serif" font-size="13" font-weight="bold" lengthAdjust="spacing" textLength="7.436" x="103.1558" y="363.2689">6</text><text fill="#000000" font-family="sans-serif" font-size="13" lengthAdjust="spacing" textLength="151.4891" x="114.5918" y="363.2689">Error Invalid information</text><line style="stroke:#000000;stroke-width:1.0;stroke-dasharray:2.0,2.0;" x1="10" x2="1033.7674" y1="378.0779" y2="378.0779"/><text fill="#000000" font-family="sans-serif" font-size="11" font-weight="bold" lengthAdjust="spacing" textLength="49.3127" x="15" y="389.8369">[Success]</text><line style="stroke:#181818;stroke-width:1.0;" x1="408.656" x2="450.656" y1="417.7659" y2="417.7659"/><line style="stroke:#181818;stroke-width:1.0;" x1="450.656" x2="450.656" y1="417.7659" y2="430.7659"/><line style="stroke:#181818;stroke-width:1.0;" x1="409.656" x2="450.656" y1="430.7659" y2="430.7659"/><polygon fill="#181818" points="419.656,426.7659,409.656,430.7659,419.656,434.7659,415.656,430.7659" style="stroke:#181818;stroke-width:1.0;"/><text fill="#000000" font-family="sans-serif" font-size="13" font-weight="bold" lengthAdjust="spacing" textLength="7.436" x="415.656" y="411.9569">7</text><text fill="#000000" font-family="sans-serif" font-size="13" lengthAdjust="spacing" textLength="584.6754" x="427.092" y="411.9569">createShowProposal(showRequestID, numberOfDrones, sequenceFigues,showProposalDate, ...)</text><line style="stroke:#181818;stroke-width:1.0;" x1="408.656" x2="450.656" y1="492.4719" y2="492.4719"/><line style="stroke:#181818;stroke-width:1.0;" x1="450.656" x2="450.656" y1="492.4719" y2="505.4719"/><line style="stroke:#181818;stroke-width:1.0;" x1="409.656" x2="450.656" y1="505.4719" y2="505.4719"/><polygon fill="#181818" points="419.656,501.4719,409.656,505.4719,419.656,509.4719,415.656,505.4719" style="stroke:#181818;stroke-width:1.0;"/><text fill="#000000" font-family="sans-serif" font-size="13" font-weight="bold" lengthAdjust="spacing" textLength="7.436" x="415.656" y="486.6629">8</text><text fill="#000000" font-family="sans-serif" font-size="13" lengthAdjust="spacing" textLength="287.8463" x="427.092" y="486.6629">addShowProposalStatus("Created", timestamp)</text><line style="stroke:#181818;stroke-width:1.0;" x1="408.656" x2="450.656" y1="567.1779" y2="567.1779"/><line style="stroke:#181818;stroke-width:1.0;" x1="450.656" x2="450.656" y1="567.1779" y2="580.1779"/><line style="stroke:#181818;stroke-width:1.0;" x1="409.656" x2="450.656" y1="580.1779" y2="580.1779"/><polygon fill="#181818" points="419.656,576.1779,409.656,580.1779,419.656,584.1779,415.656,580.1779" style="stroke:#181818;stroke-width:1.0;"/><text fill="#000000" font-family="sans-serif" font-size="13" font-weight="bold" lengthAdjust="spacing" textLength="7.436" x="415.656" y="561.3689">9</text><text fill="#000000" font-family="sans-serif" font-size="13" lengthAdjust="spacing" textLength="131.9501" x="427.092" y="561.3689">persistShowRequest()</text><polygon fill="#181818" points="97.1558,637.8839,87.1558,641.8839,97.1558,645.8839,93.1558,641.8839" style="stroke:#181818;stroke-width:1.0;"/><line style="stroke:#181818;stroke-width:1.0;stroke-dasharray:2.0,2.0;" x1="91.1558" x2="397.656" y1="641.8839" y2="641.8839"/><text fill="#000000" font-family="sans-serif" font-size="13" font-weight="bold" lengthAdjust="spacing" textLength="14.872" x="103.1558" y="636.0749">10</text><text fill="#000000" font-family="sans-serif" font-size="13" lengthAdjust="spacing" textLength="264.6282" x="122.0278" y="636.0749">show outputs and status of the registration</text><!--SRC=[hLHDYzim4BtxLmm-PS4RMdhBeL3Y5lPGMjQqzuarTiJgmvN66_RVTsJPsQJ1i8NLHKPwyzwR3pa-QJTWG0lMEzyUWxS474OgulbcmFO9UshunH04QXbTRou1yOZAdxJheKCJgIXOiq2RbyXaeQ4_8xcMeDRO9_YcQUexk8TVpQUF7s0V25d0Ht-2dy4FFg8f2XpPkz4UACXtopv0kN_y3djl31vyG3af0IDyINU5s63TwW4TGvbbfzlyEJ7evwIIuSMqmVtdnU8E7fF9oC0Uscp8qUaVKo3hpBHGfyEPvPBFQ27p7GnpCCZnO2GmNaL8IFQI7F0Ot3dm5Lyekb6zJQ0P3rQpj48SdqKLClwNxTzej4euQUt8i4bqSsaUwWfoHtvqTV2EOWLnRkqttGkaIkYbMhMmLB3TRk-o0SFmu9uJFOXpgsDCynA4G0TIq6aoAjTcfJvVGv1zuT2kyy4YQ- -M89BHapAqBSLReYN7tTpUviBg-sMvMkgqRjkuRXALkdJOCF8ODsL-AwgiWBKLjsY7TnOUA4IPmEQr8fitAAmhhNPqbqVLZoo35W6TWZXbEGt_CVreUZ4IhbgyaWevTVLA9e6_]--></g></svg>