<svg xmlns="http://www.w3.org/2000/svg" xmlns:xlink="http://www.w3.org/1999/xlink" contentStyleType="text/css" height="1594px" preserveAspectRatio="none" style="width:2238px;height:1594px;background:#FFFFFF;" version="1.1" viewBox="0 0 2238 1594" width="2238px" zoomAndPan="magnify"><title>UI Sequence Diagram (SD) - Add Drones to Inventory</title><defs/><g><text fill="#000000" font-family="sans-serif" font-size="14" font-weight="bold" lengthAdjust="spacing" textLength="352.3857" x="944.7871" y="30.1074">UI Sequence Diagram (SD) - Add Drones to Inventory</text><rect fill="#FFFFFF" height="985.7305" style="stroke:#181818;stroke-width:1.0;" width="10" x="39.5723" y="133.2422"/><rect fill="#FFFFFF" height="962.4395" style="stroke:#181818;stroke-width:1.0;" width="10" x="362.29" y="156.5332"/><rect fill="#FFFFFF" height="307.6191" style="stroke:#181818;stroke-width:1.0;" width="10" x="750.1919" y="187.8242"/><rect fill="#FFFFFF" height="167.4551" style="stroke:#181818;stroke-width:1.0;" width="10" x="755.1919" y="227.1152"/><rect fill="#FFFFFF" height="529.6563" style="stroke:#181818;stroke-width:1.0;" width="10" x="750.1919" y="589.3164"/><rect fill="#FFFFFF" height="167.4551" style="stroke:#181818;stroke-width:1.0;" width="10" x="755.1919" y="628.6074"/><rect fill="#FFFFFF" height="170.4551" style="stroke:#181818;stroke-width:1.0;" width="10" x="750.1919" y="1291.7188"/><rect fill="#FFFFFF" height="31.291" style="stroke:#181818;stroke-width:1.0;" width="10" x="955.1035" y="263.4063"/><rect fill="#FFFFFF" height="31.291" style="stroke:#181818;stroke-width:1.0;" width="10" x="955.1035" y="664.8984"/><rect fill="#FFFFFF" height="31.291" style="stroke:#181818;stroke-width:1.0;" width="10" x="1060.8066" y="325.9883"/><rect fill="#FFFFFF" height="31.291" style="stroke:#181818;stroke-width:1.0;" width="10" x="1060.8066" y="727.4805"/><rect fill="#FFFFFF" height="31.291" style="stroke:#181818;stroke-width:1.0;" width="10" x="1199.1924" y="432.8613"/><rect fill="#FFFFFF" height="31.291" style="stroke:#181818;stroke-width:1.0;" width="10" x="1351.1953" y="998.8086"/><rect fill="#FFFFFF" height="31.291" style="stroke:#181818;stroke-width:1.0;" width="10" x="1481.0122" y="834.3535"/><rect fill="#FFFFFF" height="383.4922" style="stroke:#181818;stroke-width:1.0;" width="10" x="1613.9326" y="923.2266"/><rect fill="#FFFFFF" height="31.291" style="stroke:#181818;stroke-width:1.0;" width="10" x="1968.7158" y="1330.0098"/><rect fill="#FFFFFF" height="31.291" style="stroke:#181818;stroke-width:1.0;" width="10" x="2125.374" y="1392.5918"/><rect fill="none" height="551.2383" style="stroke:#000000;stroke-width:1.5;" width="1973.5972" x="259.3628" y="880.6445"/><rect fill="none" height="254.6191" style="stroke:#000000;stroke-width:1.5;" width="1650.2808" x="269.3628" y="1045.0996"/><line style="stroke:#181818;stroke-width:0.5;stroke-dasharray:5.0,5.0;" x1="44" x2="44" y1="123.2422" y2="1511.4648"/><line style="stroke:#181818;stroke-width:0.5;stroke-dasharray:5.0,5.0;" x1="366.3628" x2="366.3628" y1="123.2422" y2="1511.4648"/><line style="stroke:#181818;stroke-width:0.5;stroke-dasharray:5.0,5.0;" x1="754.9199" x2="754.9199" y1="123.2422" y2="1511.4648"/><line style="stroke:#181818;stroke-width:0.5;stroke-dasharray:5.0,5.0;" x1="959.252" x2="959.252" y1="123.2422" y2="1511.4648"/><line style="stroke:#181818;stroke-width:0.5;stroke-dasharray:5.0,5.0;" x1="1064.9551" x2="1064.9551" y1="123.2422" y2="1511.4648"/><line style="stroke:#181818;stroke-width:0.5;stroke-dasharray:5.0,5.0;" x1="1203.6582" x2="1203.6582" y1="123.2422" y2="1511.4648"/><line style="stroke:#181818;stroke-width:0.5;stroke-dasharray:5.0,5.0;" x1="1355.7266" x2="1355.7266" y1="123.2422" y2="1511.4648"/><line style="stroke:#181818;stroke-width:0.5;stroke-dasharray:5.0,5.0;" x1="1485.6641" x2="1485.6641" y1="123.2422" y2="1511.4648"/><line style="stroke:#181818;stroke-width:0.5;stroke-dasharray:5.0,5.0;" x1="1618.3604" x2="1618.3604" y1="123.2422" y2="1511.4648"/><line style="stroke:#181818;stroke-width:0.5;stroke-dasharray:5.0,5.0;" x1="1881.623" x2="1881.623" y1="1216.0156" y2="1511.4648"/><line style="stroke:#181818;stroke-width:0.5;stroke-dasharray:5.0,5.0;" x1="1973.6436" x2="1973.6436" y1="123.2422" y2="1511.4648"/><line style="stroke:#181818;stroke-width:0.5;stroke-dasharray:5.0,5.0;" x1="2129.7881" x2="2129.7881" y1="123.2422" y2="1511.4648"/><text fill="#000000" font-family="sans-serif" font-size="14" lengthAdjust="spacing" textLength="73.1445" x="5" y="119.7285">Drone Tech</text><ellipse cx="44.5723" cy="53.1211" fill="#E3E3E3" rx="8" ry="8" style="stroke:#181818;stroke-width:0.5;"/><path d="M44.5723,61.1211 L44.5723,88.1211 M31.5723,69.1211 L57.5723,69.1211 M44.5723,88.1211 L31.5723,103.1211 M44.5723,88.1211 L57.5723,103.1211 " fill="none" style="stroke:#181818;stroke-width:0.5;"/><text fill="#000000" font-family="sans-serif" font-size="14" lengthAdjust="spacing" textLength="73.1445" x="5" y="1525.5723">Drone Tech</text><ellipse cx="44.5723" cy="1537.5859" fill="#E3E3E3" rx="8" ry="8" style="stroke:#181818;stroke-width:0.5;"/><path d="M44.5723,1545.5859 L44.5723,1572.5859 M31.5723,1553.5859 L57.5723,1553.5859 M44.5723,1572.5859 L31.5723,1587.5859 M44.5723,1572.5859 L57.5723,1587.5859 " fill="none" style="stroke:#181818;stroke-width:0.5;"/><rect fill="#E3E3E3" height="32.6211" rx="2.5" ry="2.5" style="stroke:#181818;stroke-width:0.5;" width="175.8545" x="279.3628" y="89.6211"/><text fill="#000000" font-family="sans-serif" font-size="14" lengthAdjust="spacing" textLength="161.8545" x="286.3628" y="111.7285">:AddDronesToInventoryUI</text><rect fill="#E3E3E3" height="32.6211" rx="2.5" ry="2.5" style="stroke:#181818;stroke-width:0.5;" width="175.8545" x="279.3628" y="1510.4648"/><text fill="#000000" font-family="sans-serif" font-size="14" lengthAdjust="spacing" textLength="161.8545" x="286.3628" y="1532.5723">:AddDronesToInventoryUI</text><rect fill="#E3E3E3" height="32.6211" rx="2.5" ry="2.5" style="stroke:#181818;stroke-width:0.5;" width="222.5439" x="643.9199" y="89.6211"/><text fill="#000000" font-family="sans-serif" font-size="14" lengthAdjust="spacing" textLength="208.5439" x="650.9199" y="111.7285">:AddDronesToInventoryController</text><rect fill="#E3E3E3" height="32.6211" rx="2.5" ry="2.5" style="stroke:#181818;stroke-width:0.5;" width="222.5439" x="643.9199" y="1510.4648"/><text fill="#000000" font-family="sans-serif" font-size="14" lengthAdjust="spacing" textLength="208.5439" x="650.9199" y="1532.5723">:AddDronesToInventoryController</text><rect fill="#E3E3E3" height="32.6211" rx="2.5" ry="2.5" style="stroke:#181818;stroke-width:0.5;" width="95.7031" x="912.252" y="89.6211"/><text fill="#000000" font-family="sans-serif" font-size="14" lengthAdjust="spacing" textLength="81.7031" x="919.252" y="111.7285">:Repositories</text><rect fill="#E3E3E3" height="32.6211" rx="2.5" ry="2.5" style="stroke:#181818;stroke-width:0.5;" width="95.7031" x="912.252" y="1510.4648"/><text fill="#000000" font-family="sans-serif" font-size="14" lengthAdjust="spacing" textLength="81.7031" x="919.252" y="1532.5723">:Repositories</text><rect fill="#E3E3E3" height="51.2422" rx="2.5" ry="2.5" style="stroke:#181818;stroke-width:0.5;" width="95.7031" x="1017.9551" y="71"/><text fill="#000000" font-family="sans-serif" font-size="14" lengthAdjust="spacing" textLength="72.3652" x="1029.624" y="93.1074">repositories</text><text fill="#000000" font-family="sans-serif" font-size="14" lengthAdjust="spacing" textLength="81.7031" x="1024.9551" y="111.7285">:Repositories</text><rect fill="#E3E3E3" height="51.2422" rx="2.5" ry="2.5" style="stroke:#181818;stroke-width:0.5;" width="95.7031" x="1017.9551" y="1510.4648"/><text fill="#000000" font-family="sans-serif" font-size="14" lengthAdjust="spacing" textLength="72.3652" x="1029.624" y="1532.5723">repositories</text><text fill="#000000" font-family="sans-serif" font-size="14" lengthAdjust="spacing" textLength="81.7031" x="1024.9551" y="1551.1934">:Repositories</text><rect fill="#E3E3E3" height="51.2422" rx="2.5" ry="2.5" style="stroke:#181818;stroke-width:0.5;" width="161.0684" x="1123.6582" y="71"/><text fill="#000000" font-family="sans-serif" font-size="14" lengthAdjust="spacing" textLength="140.8545" x="1133.7651" y="93.1074">droneModelRepository</text><text fill="#000000" font-family="sans-serif" font-size="14" lengthAdjust="spacing" textLength="147.0684" x="1130.6582" y="111.7285">:DroneModelRepository</text><rect fill="#E3E3E3" height="51.2422" rx="2.5" ry="2.5" style="stroke:#181818;stroke-width:0.5;" width="161.0684" x="1123.6582" y="1510.4648"/><text fill="#000000" font-family="sans-serif" font-size="14" lengthAdjust="spacing" textLength="140.8545" x="1133.7651" y="1532.5723">droneModelRepository</text><text fill="#000000" font-family="sans-serif" font-size="14" lengthAdjust="spacing" textLength="147.0684" x="1130.6582" y="1551.1934">:DroneModelRepository</text><rect fill="#E3E3E3" height="51.2422" rx="2.5" ry="2.5" style="stroke:#181818;stroke-width:0.5;" width="122.9375" x="1294.7266" y="71"/><text fill="#000000" font-family="sans-serif" font-size="14" lengthAdjust="spacing" textLength="102.7236" x="1304.8335" y="93.1074">droneRepository</text><text fill="#000000" font-family="sans-serif" font-size="14" lengthAdjust="spacing" textLength="108.9375" x="1301.7266" y="111.7285">:DroneRepository</text><rect fill="#E3E3E3" height="51.2422" rx="2.5" ry="2.5" style="stroke:#181818;stroke-width:0.5;" width="122.9375" x="1294.7266" y="1510.4648"/><text fill="#000000" font-family="sans-serif" font-size="14" lengthAdjust="spacing" textLength="102.7236" x="1304.8335" y="1532.5723">droneRepository</text><text fill="#000000" font-family="sans-serif" font-size="14" lengthAdjust="spacing" textLength="108.9375" x="1301.7266" y="1551.1934">:DroneRepository</text><rect fill="#E3E3E3" height="51.2422" rx="2.5" ry="2.5" style="stroke:#181818;stroke-width:0.5;" width="116.6963" x="1427.6641" y="71"/><text fill="#000000" font-family="sans-serif" font-size="14" lengthAdjust="spacing" textLength="94.1445" x="1438.9399" y="93.1074">factoryProvider</text><text fill="#000000" font-family="sans-serif" font-size="14" lengthAdjust="spacing" textLength="102.6963" x="1434.6641" y="111.7285">:FactoryProvider</text><rect fill="#E3E3E3" height="51.2422" rx="2.5" ry="2.5" style="stroke:#181818;stroke-width:0.5;" width="116.6963" x="1427.6641" y="1510.4648"/><text fill="#000000" font-family="sans-serif" font-size="14" lengthAdjust="spacing" textLength="94.1445" x="1438.9399" y="1532.5723">factoryProvider</text><text fill="#000000" font-family="sans-serif" font-size="14" lengthAdjust="spacing" textLength="102.6963" x="1434.6641" y="1551.1934">:FactoryProvider</text><rect fill="#E3E3E3" height="51.2422" rx="2.5" ry="2.5" style="stroke:#181818;stroke-width:0.5;" width="129.1445" x="1554.3604" y="71"/><text fill="#000000" font-family="sans-serif" font-size="14" lengthAdjust="spacing" textLength="108.9307" x="1564.4673" y="93.1074">droneFactoryImpl</text><text fill="#000000" font-family="sans-serif" font-size="14" lengthAdjust="spacing" textLength="115.1445" x="1561.3604" y="111.7285">:DroneFactoryImpl</text><rect fill="#E3E3E3" height="51.2422" rx="2.5" ry="2.5" style="stroke:#181818;stroke-width:0.5;" width="129.1445" x="1554.3604" y="1510.4648"/><text fill="#000000" font-family="sans-serif" font-size="14" lengthAdjust="spacing" textLength="108.9307" x="1564.4673" y="1532.5723">droneFactoryImpl</text><text fill="#000000" font-family="sans-serif" font-size="14" lengthAdjust="spacing" textLength="115.1445" x="1561.3604" y="1551.1934">:DroneFactoryImpl</text><rect fill="#E3E3E3" height="51.2422" rx="2.5" ry="2.5" style="stroke:#181818;stroke-width:0.5;" width="56.0205" x="1853.623" y="1510.4648"/><text fill="#000000" font-family="sans-serif" font-size="14" lengthAdjust="spacing" textLength="35.8066" x="1863.73" y="1532.5723">drone</text><text fill="#000000" font-family="sans-serif" font-size="14" lengthAdjust="spacing" textLength="42.0205" x="1860.623" y="1551.1934">:Drone</text><rect fill="#E3E3E3" height="51.2422" rx="2.5" ry="2.5" style="stroke:#181818;stroke-width:0.5;" width="108.1445" x="1919.6436" y="71"/><text fill="#000000" font-family="sans-serif" font-size="14" lengthAdjust="spacing" textLength="87.9307" x="1929.7505" y="93.1074">droneJPAImpl</text><text fill="#000000" font-family="sans-serif" font-size="14" lengthAdjust="spacing" textLength="94.1445" x="1926.6436" y="111.7285">:DroneJPAImpl</text><rect fill="#E3E3E3" height="51.2422" rx="2.5" ry="2.5" style="stroke:#181818;stroke-width:0.5;" width="108.1445" x="1919.6436" y="1510.4648"/><text fill="#000000" font-family="sans-serif" font-size="14" lengthAdjust="spacing" textLength="87.9307" x="1929.7505" y="1532.5723">droneJPAImpl</text><text fill="#000000" font-family="sans-serif" font-size="14" lengthAdjust="spacing" textLength="94.1445" x="1926.6436" y="1551.1934">:DroneJPAImpl</text><rect fill="#E3E3E3" height="51.2422" rx="2.5" ry="2.5" style="stroke:#181818;stroke-width:0.5;" width="185.1719" x="2037.7881" y="71"/><text fill="#000000" font-family="sans-serif" font-size="14" lengthAdjust="spacing" textLength="166.5029" x="2047.1226" y="93.1074">inMemoryDroneRepository</text><text fill="#000000" font-family="sans-serif" font-size="14" lengthAdjust="spacing" textLength="171.1719" x="2044.7881" y="111.7285">:InMemoryDroneRepository</text><rect fill="#E3E3E3" height="51.2422" rx="2.5" ry="2.5" style="stroke:#181818;stroke-width:0.5;" width="185.1719" x="2037.7881" y="1510.4648"/><text fill="#000000" font-family="sans-serif" font-size="14" lengthAdjust="spacing" textLength="166.5029" x="2047.1226" y="1532.5723">inMemoryDroneRepository</text><text fill="#000000" font-family="sans-serif" font-size="14" lengthAdjust="spacing" textLength="171.1719" x="2044.7881" y="1551.1934">:InMemoryDroneRepository</text><rect fill="#FFFFFF" height="985.7305" style="stroke:#181818;stroke-width:1.0;" width="10" x="39.5723" y="133.2422"/><rect fill="#FFFFFF" height="962.4395" style="stroke:#181818;stroke-width:1.0;" width="10" x="362.29" y="156.5332"/><rect fill="#FFFFFF" height="307.6191" style="stroke:#181818;stroke-width:1.0;" width="10" x="750.1919" y="187.8242"/><rect fill="#FFFFFF" height="167.4551" style="stroke:#181818;stroke-width:1.0;" width="10" x="755.1919" y="227.1152"/><rect fill="#FFFFFF" height="529.6563" style="stroke:#181818;stroke-width:1.0;" width="10" x="750.1919" y="589.3164"/><rect fill="#FFFFFF" height="167.4551" style="stroke:#181818;stroke-width:1.0;" width="10" x="755.1919" y="628.6074"/><rect fill="#FFFFFF" height="170.4551" style="stroke:#181818;stroke-width:1.0;" width="10" x="750.1919" y="1291.7188"/><rect fill="#FFFFFF" height="31.291" style="stroke:#181818;stroke-width:1.0;" width="10" x="955.1035" y="263.4063"/><rect fill="#FFFFFF" height="31.291" style="stroke:#181818;stroke-width:1.0;" width="10" x="955.1035" y="664.8984"/><rect fill="#FFFFFF" height="31.291" style="stroke:#181818;stroke-width:1.0;" width="10" x="1060.8066" y="325.9883"/><rect fill="#FFFFFF" height="31.291" style="stroke:#181818;stroke-width:1.0;" width="10" x="1060.8066" y="727.4805"/><rect fill="#FFFFFF" height="31.291" style="stroke:#181818;stroke-width:1.0;" width="10" x="1199.1924" y="432.8613"/><rect fill="#FFFFFF" height="31.291" style="stroke:#181818;stroke-width:1.0;" width="10" x="1351.1953" y="998.8086"/><rect fill="#FFFFFF" height="31.291" style="stroke:#181818;stroke-width:1.0;" width="10" x="1481.0122" y="834.3535"/><rect fill="#FFFFFF" height="383.4922" style="stroke:#181818;stroke-width:1.0;" width="10" x="1613.9326" y="923.2266"/><rect fill="#FFFFFF" height="31.291" style="stroke:#181818;stroke-width:1.0;" width="10" x="1968.7158" y="1330.0098"/><rect fill="#FFFFFF" height="31.291" style="stroke:#181818;stroke-width:1.0;" width="10" x="2125.374" y="1392.5918"/><polygon fill="#181818" points="350.29,152.5332,360.29,156.5332,350.29,160.5332,354.29,156.5332" style="stroke:#181818;stroke-width:1.0;"/><line style="stroke:#181818;stroke-width:1.0;" x1="49.5723" x2="356.29" y1="156.5332" y2="156.5332"/><text fill="#000000" font-family="sans-serif" font-size="13" font-weight="bold" lengthAdjust="spacing" textLength="7.23" x="56.5723" y="151.2705">1</text><text fill="#000000" font-family="sans-serif" font-size="13" lengthAdjust="spacing" textLength="159.6943" x="67.8022" y="151.2705">request to list drone models</text><polygon fill="#181818" points="738.1919,183.8242,748.1919,187.8242,738.1919,191.8242,742.1919,187.8242" style="stroke:#181818;stroke-width:1.0;"/><line style="stroke:#181818;stroke-width:1.0;" x1="372.29" x2="744.1919" y1="187.8242" y2="187.8242"/><text fill="#000000" font-family="sans-serif" font-size="13" font-weight="bold" lengthAdjust="spacing" textLength="7.23" x="379.29" y="182.5615">2</text><text fill="#000000" font-family="sans-serif" font-size="13" lengthAdjust="spacing" textLength="104.0444" x="390.52" y="182.5615">getDroneModels()</text><line style="stroke:#181818;stroke-width:1.0;" x1="760.1919" x2="807.1919" y1="214.1152" y2="214.1152"/><line style="stroke:#181818;stroke-width:1.0;" x1="807.1919" x2="807.1919" y1="214.1152" y2="227.1152"/><line style="stroke:#181818;stroke-width:1.0;" x1="766.1919" x2="807.1919" y1="227.1152" y2="227.1152"/><polygon fill="#181818" points="776.1919,223.1152,766.1919,227.1152,776.1919,231.1152,772.1919,227.1152" style="stroke:#181818;stroke-width:1.0;"/><text fill="#000000" font-family="sans-serif" font-size="13" font-weight="bold" lengthAdjust="spacing" textLength="7.23" x="772.1919" y="208.8525">3</text><text fill="#000000" font-family="sans-serif" font-size="13" lengthAdjust="spacing" textLength="159.6816" x="783.4219" y="208.8525">getDroneModelRepository()</text><polygon fill="#181818" points="943.1035,259.4063,953.1035,263.4063,943.1035,267.4063,947.1035,263.4063" style="stroke:#181818;stroke-width:1.0;"/><line style="stroke:#181818;stroke-width:1.0;" x1="765.1919" x2="949.1035" y1="263.4063" y2="263.4063"/><text fill="#000000" font-family="sans-serif" font-size="13" font-weight="bold" lengthAdjust="spacing" textLength="7.23" x="772.1919" y="258.1436">4</text><text fill="#000000" font-family="sans-serif" font-size="13" lengthAdjust="spacing" textLength="75.8735" x="783.4219" y="258.1436">getInstance()</text><polygon fill="#181818" points="776.1919,290.6973,766.1919,294.6973,776.1919,298.6973,772.1919,294.6973" style="stroke:#181818;stroke-width:1.0;"/><line style="stroke:#181818;stroke-width:1.0;stroke-dasharray:2.0,2.0;" x1="770.1919" x2="959.1035" y1="294.6973" y2="294.6973"/><text fill="#000000" font-family="sans-serif" font-size="13" font-weight="bold" lengthAdjust="spacing" textLength="7.23" x="782.1919" y="289.4346">5</text><text fill="#000000" font-family="sans-serif" font-size="13" lengthAdjust="spacing" textLength="67.1963" x="793.4219" y="289.4346">repositories</text><polygon fill="#181818" points="1048.8066,321.9883,1058.8066,325.9883,1048.8066,329.9883,1052.8066,325.9883" style="stroke:#181818;stroke-width:1.0;"/><line style="stroke:#181818;stroke-width:1.0;" x1="765.1919" x2="1054.8066" y1="325.9883" y2="325.9883"/><text fill="#000000" font-family="sans-serif" font-size="13" font-weight="bold" lengthAdjust="spacing" textLength="7.23" x="772.1919" y="320.7256">6</text><text fill="#000000" font-family="sans-serif" font-size="13" lengthAdjust="spacing" textLength="159.6816" x="783.4219" y="320.7256">getDroneModelRepository()</text><polygon fill="#181818" points="776.1919,353.2793,766.1919,357.2793,776.1919,361.2793,772.1919,357.2793" style="stroke:#181818;stroke-width:1.0;"/><line style="stroke:#181818;stroke-width:1.0;stroke-dasharray:2.0,2.0;" x1="770.1919" x2="1064.8066" y1="357.2793" y2="357.2793"/><text fill="#000000" font-family="sans-serif" font-size="13" font-weight="bold" lengthAdjust="spacing" textLength="7.23" x="782.1919" y="352.0166">7</text><text fill="#000000" font-family="sans-serif" font-size="13" lengthAdjust="spacing" textLength="130.7935" x="793.4219" y="352.0166">droneModelRepository</text><line style="stroke:#181818;stroke-width:1.0;stroke-dasharray:2.0,2.0;" x1="765.1919" x2="807.1919" y1="393.5703" y2="393.5703"/><line style="stroke:#181818;stroke-width:1.0;stroke-dasharray:2.0,2.0;" x1="807.1919" x2="807.1919" y1="393.5703" y2="406.5703"/><line style="stroke:#181818;stroke-width:1.0;stroke-dasharray:2.0,2.0;" x1="760.1919" x2="807.1919" y1="406.5703" y2="406.5703"/><polygon fill="#181818" points="770.1919,402.5703,760.1919,406.5703,770.1919,410.5703,766.1919,406.5703" style="stroke:#181818;stroke-width:1.0;"/><text fill="#000000" font-family="sans-serif" font-size="13" font-weight="bold" lengthAdjust="spacing" textLength="7.23" x="772.1919" y="388.3076">8</text><text fill="#000000" font-family="sans-serif" font-size="13" lengthAdjust="spacing" textLength="130.7935" x="783.4219" y="388.3076">droneModelRepository</text><polygon fill="#181818" points="1187.1924,428.8613,1197.1924,432.8613,1187.1924,436.8613,1191.1924,432.8613" style="stroke:#181818;stroke-width:1.0;"/><line style="stroke:#181818;stroke-width:1.0;" x1="760.1919" x2="1193.1924" y1="432.8613" y2="432.8613"/><text fill="#000000" font-family="sans-serif" font-size="13" font-weight="bold" lengthAdjust="spacing" textLength="7.23" x="767.1919" y="427.5986">9</text><text fill="#000000" font-family="sans-serif" font-size="13" lengthAdjust="spacing" textLength="44.0654" x="778.4219" y="427.5986">findAll()</text><polygon fill="#181818" points="771.1919,460.1523,761.1919,464.1523,771.1919,468.1523,767.1919,464.1523" style="stroke:#181818;stroke-width:1.0;"/><line style="stroke:#181818;stroke-width:1.0;stroke-dasharray:2.0,2.0;" x1="765.1919" x2="1203.1924" y1="464.1523" y2="464.1523"/><text fill="#000000" font-family="sans-serif" font-size="13" font-weight="bold" lengthAdjust="spacing" textLength="14.46" x="777.1919" y="458.8896">10</text><text fill="#000000" font-family="sans-serif" font-size="13" lengthAdjust="spacing" textLength="95.3862" x="795.6519" y="458.8896">droneModelsList</text><polygon fill="#181818" points="383.29,491.4434,373.29,495.4434,383.29,499.4434,379.29,495.4434" style="stroke:#181818;stroke-width:1.0;"/><line style="stroke:#181818;stroke-width:1.0;" x1="377.29" x2="754.1919" y1="495.4434" y2="495.4434"/><text fill="#000000" font-family="sans-serif" font-size="13" font-weight="bold" lengthAdjust="spacing" textLength="14.46" x="389.29" y="490.1807">11</text><text fill="#000000" font-family="sans-serif" font-size="13" lengthAdjust="spacing" textLength="95.3862" x="407.75" y="490.1807">droneModelsList</text><polygon fill="#181818" points="60.5723,522.7344,50.5723,526.7344,60.5723,530.7344,56.5723,526.7344" style="stroke:#181818;stroke-width:1.0;"/><line style="stroke:#181818;stroke-width:1.0;" x1="54.5723" x2="361.29" y1="526.7344" y2="526.7344"/><text fill="#000000" font-family="sans-serif" font-size="13" font-weight="bold" lengthAdjust="spacing" textLength="14.46" x="66.5723" y="521.4717">12</text><text fill="#000000" font-family="sans-serif" font-size="13" lengthAdjust="spacing" textLength="142.3462" x="85.0322" y="521.4717">display drone models list</text><polygon fill="#181818" points="350.29,554.0254,360.29,558.0254,350.29,562.0254,354.29,558.0254" style="stroke:#181818;stroke-width:1.0;"/><line style="stroke:#181818;stroke-width:1.0;" x1="49.5723" x2="356.29" y1="558.0254" y2="558.0254"/><text fill="#000000" font-family="sans-serif" font-size="13" font-weight="bold" lengthAdjust="spacing" textLength="14.46" x="56.5723" y="552.7627">13</text><text fill="#000000" font-family="sans-serif" font-size="13" lengthAdjust="spacing" textLength="270.2578" x="75.0322" y="552.7627">select drone model and provide serial numbers</text><polygon fill="#181818" points="738.1919,585.3164,748.1919,589.3164,738.1919,593.3164,742.1919,589.3164" style="stroke:#181818;stroke-width:1.0;"/><line style="stroke:#181818;stroke-width:1.0;" x1="372.29" x2="744.1919" y1="589.3164" y2="589.3164"/><text fill="#000000" font-family="sans-serif" font-size="13" font-weight="bold" lengthAdjust="spacing" textLength="14.46" x="379.29" y="584.0537">14</text><text fill="#000000" font-family="sans-serif" font-size="13" lengthAdjust="spacing" textLength="293.3569" x="397.75" y="584.0537">addDrones(selectedDroneModelId, serialNumbers)</text><line style="stroke:#181818;stroke-width:1.0;" x1="760.1919" x2="807.1919" y1="615.6074" y2="615.6074"/><line style="stroke:#181818;stroke-width:1.0;" x1="807.1919" x2="807.1919" y1="615.6074" y2="628.6074"/><line style="stroke:#181818;stroke-width:1.0;" x1="766.1919" x2="807.1919" y1="628.6074" y2="628.6074"/><polygon fill="#181818" points="776.1919,624.6074,766.1919,628.6074,776.1919,632.6074,772.1919,628.6074" style="stroke:#181818;stroke-width:1.0;"/><text fill="#000000" font-family="sans-serif" font-size="13" font-weight="bold" lengthAdjust="spacing" textLength="14.46" x="772.1919" y="610.3447">15</text><text fill="#000000" font-family="sans-serif" font-size="13" lengthAdjust="spacing" textLength="124.2744" x="790.6519" y="610.3447">getDroneRepository()</text><polygon fill="#181818" points="943.1035,660.8984,953.1035,664.8984,943.1035,668.8984,947.1035,664.8984" style="stroke:#181818;stroke-width:1.0;"/><line style="stroke:#181818;stroke-width:1.0;" x1="765.1919" x2="949.1035" y1="664.8984" y2="664.8984"/><text fill="#000000" font-family="sans-serif" font-size="13" font-weight="bold" lengthAdjust="spacing" textLength="14.46" x="772.1919" y="659.6357">16</text><text fill="#000000" font-family="sans-serif" font-size="13" lengthAdjust="spacing" textLength="75.8735" x="790.6519" y="659.6357">getInstance()</text><polygon fill="#181818" points="776.1919,692.1895,766.1919,696.1895,776.1919,700.1895,772.1919,696.1895" style="stroke:#181818;stroke-width:1.0;"/><line style="stroke:#181818;stroke-width:1.0;stroke-dasharray:2.0,2.0;" x1="770.1919" x2="959.1035" y1="696.1895" y2="696.1895"/><text fill="#000000" font-family="sans-serif" font-size="13" font-weight="bold" lengthAdjust="spacing" textLength="14.46" x="782.1919" y="690.9268">17</text><text fill="#000000" font-family="sans-serif" font-size="13" lengthAdjust="spacing" textLength="67.1963" x="800.6519" y="690.9268">repositories</text><polygon fill="#181818" points="1048.8066,723.4805,1058.8066,727.4805,1048.8066,731.4805,1052.8066,727.4805" style="stroke:#181818;stroke-width:1.0;"/><line style="stroke:#181818;stroke-width:1.0;" x1="765.1919" x2="1054.8066" y1="727.4805" y2="727.4805"/><text fill="#000000" font-family="sans-serif" font-size="13" font-weight="bold" lengthAdjust="spacing" textLength="14.46" x="772.1919" y="722.2178">18</text><text fill="#000000" font-family="sans-serif" font-size="13" lengthAdjust="spacing" textLength="124.2744" x="790.6519" y="722.2178">getDroneRepository()</text><polygon fill="#181818" points="776.1919,754.7715,766.1919,758.7715,776.1919,762.7715,772.1919,758.7715" style="stroke:#181818;stroke-width:1.0;"/><line style="stroke:#181818;stroke-width:1.0;stroke-dasharray:2.0,2.0;" x1="770.1919" x2="1064.8066" y1="758.7715" y2="758.7715"/><text fill="#000000" font-family="sans-serif" font-size="13" font-weight="bold" lengthAdjust="spacing" textLength="14.46" x="782.1919" y="753.5088">19</text><text fill="#000000" font-family="sans-serif" font-size="13" lengthAdjust="spacing" textLength="95.3862" x="800.6519" y="753.5088">droneRepository</text><line style="stroke:#181818;stroke-width:1.0;stroke-dasharray:2.0,2.0;" x1="765.1919" x2="807.1919" y1="795.0625" y2="795.0625"/><line style="stroke:#181818;stroke-width:1.0;stroke-dasharray:2.0,2.0;" x1="807.1919" x2="807.1919" y1="795.0625" y2="808.0625"/><line style="stroke:#181818;stroke-width:1.0;stroke-dasharray:2.0,2.0;" x1="760.1919" x2="807.1919" y1="808.0625" y2="808.0625"/><polygon fill="#181818" points="770.1919,804.0625,760.1919,808.0625,770.1919,812.0625,766.1919,808.0625" style="stroke:#181818;stroke-width:1.0;"/><text fill="#000000" font-family="sans-serif" font-size="13" font-weight="bold" lengthAdjust="spacing" textLength="14.46" x="772.1919" y="789.7998">20</text><text fill="#000000" font-family="sans-serif" font-size="13" lengthAdjust="spacing" textLength="95.3862" x="790.6519" y="789.7998">droneRepository</text><polygon fill="#181818" points="1469.0122,830.3535,1479.0122,834.3535,1469.0122,838.3535,1473.0122,834.3535" style="stroke:#181818;stroke-width:1.0;"/><line style="stroke:#181818;stroke-width:1.0;" x1="760.1919" x2="1475.0122" y1="834.3535" y2="834.3535"/><text fill="#000000" font-family="sans-serif" font-size="13" font-weight="bold" lengthAdjust="spacing" textLength="14.46" x="767.1919" y="829.0908">21</text><text fill="#000000" font-family="sans-serif" font-size="13" lengthAdjust="spacing" textLength="105.479" x="785.6519" y="829.0908">getDroneFactory()</text><polygon fill="#181818" points="771.1919,861.6445,761.1919,865.6445,771.1919,869.6445,767.1919,865.6445" style="stroke:#181818;stroke-width:1.0;"/><line style="stroke:#181818;stroke-width:1.0;stroke-dasharray:2.0,2.0;" x1="765.1919" x2="1485.0122" y1="865.6445" y2="865.6445"/><text fill="#000000" font-family="sans-serif" font-size="13" font-weight="bold" lengthAdjust="spacing" textLength="14.46" x="777.1919" y="860.3818">22</text><text fill="#000000" font-family="sans-serif" font-size="13" lengthAdjust="spacing" textLength="76.5908" x="795.6519" y="860.3818">droneFactory</text><path d="M259.3628,880.6445 L331.7974,880.6445 L331.7974,889.9355 L321.7974,899.9355 L259.3628,899.9355 L259.3628,880.6445 " fill="#EEEEEE" style="stroke:#000000;stroke-width:1.5;"/><rect fill="none" height="551.2383" style="stroke:#000000;stroke-width:1.5;" width="1973.5972" x="259.3628" y="880.6445"/><text fill="#000000" font-family="sans-serif" font-size="13" font-weight="bold" lengthAdjust="spacing" textLength="27.4346" x="274.3628" y="895.6729">loop</text><text fill="#000000" font-family="sans-serif" font-size="11" font-weight="bold" lengthAdjust="spacing" textLength="215.7944" x="346.7974" y="894.5146">[for each serialNumber in serialNumbers]</text><polygon fill="#181818" points="1601.9326,919.2266,1611.9326,923.2266,1601.9326,927.2266,1605.9326,923.2266" style="stroke:#181818;stroke-width:1.0;"/><line style="stroke:#181818;stroke-width:1.0;" x1="760.1919" x2="1607.9326" y1="923.2266" y2="923.2266"/><text fill="#000000" font-family="sans-serif" font-size="13" font-weight="bold" lengthAdjust="spacing" textLength="14.46" x="767.1919" y="917.9639">23</text><text fill="#000000" font-family="sans-serif" font-size="13" lengthAdjust="spacing" textLength="294.7979" x="785.6519" y="917.9639">createDrone(serialNumber, selectedDroneModelId)</text><line style="stroke:#181818;stroke-width:1.0;stroke-dasharray:2.0,2.0;" x1="1623.9326" x2="1665.9326" y1="954.5176" y2="954.5176"/><line style="stroke:#181818;stroke-width:1.0;stroke-dasharray:2.0,2.0;" x1="1665.9326" x2="1665.9326" y1="954.5176" y2="967.5176"/><line style="stroke:#181818;stroke-width:1.0;stroke-dasharray:2.0,2.0;" x1="1624.9326" x2="1665.9326" y1="967.5176" y2="967.5176"/><polygon fill="#181818" points="1634.9326,963.5176,1624.9326,967.5176,1634.9326,971.5176,1630.9326,967.5176" style="stroke:#181818;stroke-width:1.0;"/><text fill="#000000" font-family="sans-serif" font-size="13" font-weight="bold" lengthAdjust="spacing" textLength="14.46" x="1630.9326" y="949.2549">24</text><text fill="#000000" font-family="sans-serif" font-size="13" lengthAdjust="spacing" textLength="210.2407" x="1649.3926" y="949.2549">validateSerialNumber(serialNumber)</text><polygon fill="#181818" points="1372.1953,994.8086,1362.1953,998.8086,1372.1953,1002.8086,1368.1953,998.8086" style="stroke:#181818;stroke-width:1.0;"/><line style="stroke:#181818;stroke-width:1.0;" x1="1366.1953" x2="1612.9326" y1="998.8086" y2="998.8086"/><text fill="#000000" font-family="sans-serif" font-size="13" font-weight="bold" lengthAdjust="spacing" textLength="14.46" x="1378.1953" y="993.5459">25</text><text fill="#000000" font-family="sans-serif" font-size="13" lengthAdjust="spacing" textLength="213.8335" x="1396.6553" y="993.5459">existsBySerialNumber(serialNumber)</text><polygon fill="#181818" points="1601.9326,1026.0996,1611.9326,1030.0996,1601.9326,1034.0996,1605.9326,1030.0996" style="stroke:#181818;stroke-width:1.0;"/><line style="stroke:#181818;stroke-width:1.0;stroke-dasharray:2.0,2.0;" x1="1356.1953" x2="1607.9326" y1="1030.0996" y2="1030.0996"/><text fill="#000000" font-family="sans-serif" font-size="13" font-weight="bold" lengthAdjust="spacing" textLength="14.46" x="1363.1953" y="1024.8369">26</text><text fill="#000000" font-family="sans-serif" font-size="13" lengthAdjust="spacing" textLength="33.23" x="1381.6553" y="1024.8369">exists</text><path d="M269.3628,1045.0996 L329.5337,1045.0996 L329.5337,1054.3906 L319.5337,1064.3906 L269.3628,1064.3906 L269.3628,1045.0996 " fill="#EEEEEE" style="stroke:#000000;stroke-width:1.5;"/><rect fill="none" height="254.6191" style="stroke:#000000;stroke-width:1.5;" width="1650.2808" x="269.3628" y="1045.0996"/><text fill="#000000" font-family="sans-serif" font-size="13" font-weight="bold" lengthAdjust="spacing" textLength="15.1709" x="284.3628" y="1060.1279">alt</text><text fill="#000000" font-family="sans-serif" font-size="11" font-weight="bold" lengthAdjust="spacing" textLength="182.7622" x="344.5337" y="1058.9697">[invalid or duplicate serial number]</text><polygon fill="#181818" points="771.1919,1083.6816,761.1919,1087.6816,771.1919,1091.6816,767.1919,1087.6816" style="stroke:#181818;stroke-width:1.0;"/><line style="stroke:#181818;stroke-width:1.0;stroke-dasharray:2.0,2.0;" x1="765.1919" x2="1612.9326" y1="1087.6816" y2="1087.6816"/><text fill="#000000" font-family="sans-serif" font-size="13" font-weight="bold" lengthAdjust="spacing" textLength="14.46" x="777.1919" y="1082.4189">27</text><text fill="#000000" font-family="sans-serif" font-size="13" lengthAdjust="spacing" textLength="335.4419" x="795.6519" y="1082.4189">error("Invalid or duplicate serial number: " + serialNumber)</text><polygon fill="#181818" points="378.29,1114.9727,368.29,1118.9727,378.29,1122.9727,374.29,1118.9727" style="stroke:#181818;stroke-width:1.0;"/><line style="stroke:#181818;stroke-width:1.0;" x1="372.29" x2="754.1919" y1="1118.9727" y2="1118.9727"/><text fill="#000000" font-family="sans-serif" font-size="13" font-weight="bold" lengthAdjust="spacing" textLength="14.46" x="384.29" y="1113.71">28</text><text fill="#000000" font-family="sans-serif" font-size="13" lengthAdjust="spacing" textLength="335.4419" x="402.75" y="1113.71">error("Invalid or duplicate serial number: " + serialNumber)</text><polygon fill="#181818" points="743.1919,1146.2637,753.1919,1150.2637,743.1919,1154.2637,747.1919,1150.2637" style="stroke:#181818;stroke-width:1.0;"/><line style="stroke:#181818;stroke-width:1.0;stroke-dasharray:2.0,2.0;" x1="367.29" x2="749.1919" y1="1150.2637" y2="1150.2637"/><text fill="#000000" font-family="sans-serif" font-size="13" font-weight="bold" lengthAdjust="spacing" textLength="14.46" x="374.29" y="1145.001">29</text><text fill="#000000" font-family="sans-serif" font-size="13" lengthAdjust="spacing" textLength="3.6118" x="392.75" y="1145.001">&#160;</text><line style="stroke:#000000;stroke-width:1.0;stroke-dasharray:2.0,2.0;" x1="269.3628" x2="1919.6436" y1="1159.2637" y2="1159.2637"/><text fill="#000000" font-family="sans-serif" font-size="11" font-weight="bold" lengthAdjust="spacing" textLength="107.5884" x="274.3628" y="1171.1338">[valid serial number]</text><polygon fill="#181818" points="1841.623,1194.1855,1851.623,1198.1855,1841.623,1202.1855,1845.623,1198.1855" style="stroke:#181818;stroke-width:1.0;"/><line style="stroke:#181818;stroke-width:1.0;" x1="1623.9326" x2="1847.623" y1="1198.1855" y2="1198.1855"/><text fill="#000000" font-family="sans-serif" font-size="13" font-weight="bold" lengthAdjust="spacing" textLength="14.46" x="1630.9326" y="1192.9229">30</text><text fill="#000000" font-family="sans-serif" font-size="13" lengthAdjust="spacing" textLength="36.1309" x="1649.3926" y="1192.9229">create</text><rect fill="#E3E3E3" height="51.2422" rx="2.5" ry="2.5" style="stroke:#181818;stroke-width:0.5;" width="56.0205" x="1853.623" y="1174.8945"/><text fill="#000000" font-family="sans-serif" font-size="14" lengthAdjust="spacing" textLength="35.8066" x="1863.73" y="1197.002">drone</text><text fill="#000000" font-family="sans-serif" font-size="14" lengthAdjust="spacing" textLength="42.0205" x="1860.623" y="1215.623">:Drone</text><polygon fill="#181818" points="1869.6333,1256.4277,1879.6333,1260.4277,1869.6333,1264.4277,1873.6333,1260.4277" style="stroke:#181818;stroke-width:1.0;"/><line style="stroke:#181818;stroke-width:1.0;" x1="1623.9326" x2="1875.6333" y1="1260.4277" y2="1260.4277"/><text fill="#000000" font-family="sans-serif" font-size="13" font-weight="bold" lengthAdjust="spacing" textLength="14.46" x="1630.9326" y="1255.165">31</text><text fill="#000000" font-family="sans-serif" font-size="13" lengthAdjust="spacing" textLength="114.1689" x="1649.3926" y="1255.165">setStatus(available)</text><polygon fill="#181818" points="771.1919,1287.7188,761.1919,1291.7188,771.1919,1295.7188,767.1919,1291.7188" style="stroke:#181818;stroke-width:1.0;"/><line style="stroke:#181818;stroke-width:1.0;stroke-dasharray:2.0,2.0;" x1="765.1919" x2="1612.9326" y1="1291.7188" y2="1291.7188"/><text fill="#000000" font-family="sans-serif" font-size="13" font-weight="bold" lengthAdjust="spacing" textLength="14.46" x="777.1919" y="1286.4561">32</text><text fill="#000000" font-family="sans-serif" font-size="13" lengthAdjust="spacing" textLength="70.8208" x="795.6519" y="1286.4561">droneObject</text><polygon fill="#181818" points="1956.7158,1326.0098,1966.7158,1330.0098,1956.7158,1334.0098,1960.7158,1330.0098" style="stroke:#181818;stroke-width:1.0;"/><line style="stroke:#181818;stroke-width:1.0;" x1="760.1919" x2="1962.7158" y1="1330.0098" y2="1330.0098"/><text fill="#000000" font-family="sans-serif" font-size="13" font-weight="bold" lengthAdjust="spacing" textLength="14.46" x="767.1919" y="1324.7471">33</text><text fill="#000000" font-family="sans-serif" font-size="13" lengthAdjust="spacing" textLength="101.1689" x="785.6519" y="1324.7471">add(droneObject)</text><polygon fill="#181818" points="771.1919,1357.3008,761.1919,1361.3008,771.1919,1365.3008,767.1919,1361.3008" style="stroke:#181818;stroke-width:1.0;"/><line style="stroke:#181818;stroke-width:1.0;stroke-dasharray:2.0,2.0;" x1="765.1919" x2="1972.7158" y1="1361.3008" y2="1361.3008"/><text fill="#000000" font-family="sans-serif" font-size="13" font-weight="bold" lengthAdjust="spacing" textLength="14.46" x="777.1919" y="1356.0381">34</text><text fill="#000000" font-family="sans-serif" font-size="13" lengthAdjust="spacing" textLength="70.8081" x="795.6519" y="1356.0381">confirmation</text><polygon fill="#181818" points="2113.374,1388.5918,2123.374,1392.5918,2113.374,1396.5918,2117.374,1392.5918" style="stroke:#181818;stroke-width:1.0;"/><line style="stroke:#181818;stroke-width:1.0;" x1="760.1919" x2="2119.374" y1="1392.5918" y2="1392.5918"/><text fill="#000000" font-family="sans-serif" font-size="13" font-weight="bold" lengthAdjust="spacing" textLength="14.46" x="767.1919" y="1387.3291">35</text><text fill="#000000" font-family="sans-serif" font-size="13" lengthAdjust="spacing" textLength="101.1689" x="785.6519" y="1387.3291">add(droneObject)</text><polygon fill="#181818" points="771.1919,1419.8828,761.1919,1423.8828,771.1919,1427.8828,767.1919,1423.8828" style="stroke:#181818;stroke-width:1.0;"/><line style="stroke:#181818;stroke-width:1.0;stroke-dasharray:2.0,2.0;" x1="765.1919" x2="2129.374" y1="1423.8828" y2="1423.8828"/><text fill="#000000" font-family="sans-serif" font-size="13" font-weight="bold" lengthAdjust="spacing" textLength="14.46" x="777.1919" y="1418.6201">36</text><text fill="#000000" font-family="sans-serif" font-size="13" lengthAdjust="spacing" textLength="70.8081" x="795.6519" y="1418.6201">confirmation</text><polygon fill="#181818" points="378.29,1458.1738,368.29,1462.1738,378.29,1466.1738,374.29,1462.1738" style="stroke:#181818;stroke-width:1.0;"/><line style="stroke:#181818;stroke-width:1.0;" x1="372.29" x2="754.1919" y1="1462.1738" y2="1462.1738"/><text fill="#000000" font-family="sans-serif" font-size="13" font-weight="bold" lengthAdjust="spacing" textLength="14.46" x="384.29" y="1456.9111">37</text><text fill="#000000" font-family="sans-serif" font-size="13" lengthAdjust="spacing" textLength="83.8018" x="402.75" y="1456.9111">serialNumbers</text><polygon fill="#181818" points="55.5723,1489.4648,45.5723,1493.4648,55.5723,1497.4648,51.5723,1493.4648" style="stroke:#181818;stroke-width:1.0;"/><line style="stroke:#181818;stroke-width:1.0;" x1="49.5723" x2="366.29" y1="1493.4648" y2="1493.4648"/><text fill="#000000" font-family="sans-serif" font-size="13" font-weight="bold" lengthAdjust="spacing" textLength="14.46" x="61.5723" y="1488.2021">38</text><text fill="#000000" font-family="sans-serif" font-size="13" lengthAdjust="spacing" textLength="164.0171" x="80.0322" y="1488.2021">shows operation (in)success</text><!--SRC=[vLR1SjiW4BtxAnYVv3J-WHmouzRJ6NMIDXCdjrw8jBPf4AY0dFhlku2CX8GJPPfRVKbOxNkxxBu5z3CJDLMq8fKKijWhMG4nge6P3bzgMZpJ7MpCaGDHK1WgThpleFUqb2zCxCYMSWspcM46NHzpie7V3OW2o9hHdNNDDki5MP9LMPAraW8qCPBauW32I7MSpMXZf6Yg9r3uVu4sCdT-v06A_PnGJKgxjAiP1ZUiO3KLXiolaD8pFiZ0zvWxo6C-mVUB54P9pa4vp9U7-vi1wXvggHdwCj3E9nYE6sPBWgd74DL3_1HZWhkRrKECSBkxbINmZXoHwuJPLwEoXWJ763v4Ec2CtBgI7- -KFB0I52A_nXQ7j5xMa8ZQkkTLpKzXUoOVrnhiAW4_ORf69vo-tQtw_EtIGt0H8vYuXGh3hqSroTDVF0z-SlfZ1sgW9xaPmLzOakMr5VaL3WNAN1khPSxmh_F0YS9-QGS9L2X5Pq0OWgt84Bu3qpLOPuiOufJeJCxz3ApRmNbydoEXNK-P2uq3Na1B4r6b11-yx2_5kcmpjcNgz1zW9KoZFoLkP-RDpKTPkocBqdGSNLwfeKlbvuZYVBfk94bc0uPnB_q08txBHBdYVDYzTi2xTBn_Ch2-GV4DG_O9Ja6TQD_0TQbwhNQgHoZJDQV7IETE-MVcGmF7QwFlJgWeIUrF5Voi6EN4d_iwCI3qT5vddWdAhlTvUTaIVFVuzuxF_pev7p4q_pelxngLqxtJsqDxkGmR5swe43rWXncq3CFeCGENiYPRV8oWmpvI6s4YLj-ewk6-muY50YHtcMTzr2L9wJhHbUxoZ5hJnLWE8XuePoKYDxreKUZ5EQ9h_q903lY3awq_7oToTCd69rU84GwmVg8-I9mCl4P5kS7Yk_qHx4pPr9mLrZSwJSRHerArIW2bfChc-PjqLsHEFf7pUnyTiX_AF9oELxxZE-ELhzs3PkYam3HAH6Oysy7hQ7ffs-lYuYA8VeAtkoZCnb3Jw8mUAEFqYSDYMWiTmu-dNpX58y3vge4eKmTNOip2EECJqzz8MIzaQbJjMpJMiuNsKYwas39LKSEaI6OHCOG4y6qwBG7tY8qIiD3t960PJcKQFo36vzx4vuFUonTDP0tAXIOP4mlT50LelFnZ4IT5-nS0]--></g></svg>