<?xml version="1.0" encoding="UTF-8" standalone="no"?><svg xmlns="http://www.w3.org/2000/svg" xmlns:xlink="http://www.w3.org/1999/xlink" contentScriptType="application/ecmascript" contentStyleType="text/css" height="307px" preserveAspectRatio="none" style="width:346px;height:307px;" version="1.1" viewBox="0 0 346 307" width="346px" zoomAndPan="magnify"><defs><filter height="300%" id="fyk54tgy45ze2" width="300%" x="-1" y="-1"><feGaussianBlur result="blurOut" stdDeviation="2.0"/><feColorMatrix in="blurOut" result="blurOut2" type="matrix" values="0 0 0 0 0 0 0 0 0 0 0 0 0 0 0 0 0 0 .4 0"/><feOffset dx="4.0" dy="4.0" in="blurOut2" result="blurOut3"/><feBlend in="SourceGraphic" in2="blurOut3" mode="normal"/></filter></defs><g><!--MD5=[5bcec26b0f1bac56bd497563aefdd7f6]
class ui.authz.AuthenticationUI--><a href="AuthenticationUI.html" target="_top" title="AuthenticationUI.html" xlink:actuate="onRequest" xlink:href="AuthenticationUI.html" xlink:show="new" xlink:title="AuthenticationUI.html" xlink:type="simple"><rect codeLine="5" fill="#FEFECE" filter="url(#fyk54tgy45ze2)" height="144.9512" id="ui.authz.AuthenticationUI" style="stroke: #A80036; stroke-width: 1.5;" width="320" x="7" y="126.22"/><ellipse cx="105.25" cy="145.3528" fill="#ADD1B2" rx="11" ry="11" style="stroke: #A80036; stroke-width: 1.0;"/><path d="M107.7231,151.4959 Q107.1421,151.7947 106.5029,151.9441 Q105.8638,152.0935 105.1582,152.0935 Q102.6514,152.0935 101.3315,150.4417 Q100.0117,148.7898 100.0117,145.6687 Q100.0117,142.5393 101.3315,140.8875 Q102.6514,139.2356 105.1582,139.2356 Q105.8638,139.2356 106.5112,139.385 Q107.1587,139.5345 107.7231,139.8333 L107.7231,142.5559 Q107.0923,141.9749 106.4988,141.7051 Q105.9053,141.4353 105.2744,141.4353 Q103.9297,141.4353 103.2449,142.502 Q102.5601,143.5686 102.5601,145.6687 Q102.5601,147.7605 103.2449,148.8272 Q103.9297,149.8938 105.2744,149.8938 Q105.9053,149.8938 106.4988,149.6241 Q107.0923,149.3543 107.7231,148.7732 Z "/><text fill="#000000" font-family="sans-serif" font-size="14" lengthAdjust="spacingAndGlyphs" textLength="115" x="125.75" y="144.7552">AuthenticationUI</text><text fill="#000000" font-family="sans-serif" font-size="10" lengthAdjust="spacingAndGlyphs" textLength="40" x="163.25" y="157.3763">ui.authz</text><line style="stroke: #A80036; stroke-width: 1.5;" x1="8" x2="326" y1="164.4856" y2="164.4856"/><rect fill="none" height="6" style="stroke: #C82930; stroke-width: 1.0;" width="6" x="15" y="172.4856"/><text fill="#000000" font-family="sans-serif" font-size="11" lengthAdjust="spacingAndGlyphs" textLength="158" x="27" y="179.1204">ctrl: AuthenticationController</text><line style="stroke: #A80036; stroke-width: 1.5;" x1="8" x2="326" y1="185.4407" y2="185.4407"/><ellipse cx="18" cy="196.4407" fill="#84BE84" rx="3" ry="3" style="stroke: #038048; stroke-width: 1.0;"/><text fill="#000000" font-family="sans-serif" font-size="11" lengthAdjust="spacingAndGlyphs" textLength="56" x="27" y="200.0755">run(): void</text><rect fill="#F24D5C" height="6" style="stroke: #C82930; stroke-width: 1.0;" width="6" x="15" y="206.3958"/><text fill="#000000" font-family="sans-serif" font-size="11" lengthAdjust="spacingAndGlyphs" textLength="219" x="27" y="213.0305">getMenuItemForRoles(): List&lt;MenuItem&gt;</text><rect fill="#F24D5C" height="6" style="stroke: #C82930; stroke-width: 1.0;" width="6" x="15" y="219.3509"/><text fill="#000000" font-family="sans-serif" font-size="11" lengthAdjust="spacingAndGlyphs" textLength="101" x="27" y="225.9856">doLogin(): boolean</text><rect fill="#F24D5C" height="6" style="stroke: #C82930; stroke-width: 1.0;" width="6" x="15" y="232.3059"/><text fill="#000000" font-family="sans-serif" font-size="11" lengthAdjust="spacingAndGlyphs" textLength="72" x="27" y="238.9407">logout(): void</text><rect fill="#F24D5C" height="6" style="stroke: #C82930; stroke-width: 1.0;" width="6" x="15" y="245.261"/><text fill="#000000" font-family="sans-serif" font-size="11" lengthAdjust="spacingAndGlyphs" textLength="294" x="27" y="251.8958">redirectToRoleUI(List&lt;MenuItem&gt;, UserRoleDTO): void</text><rect fill="#F24D5C" height="6" style="stroke: #C82930; stroke-width: 1.0;" width="6" x="15" y="258.2161"/><text fill="#000000" font-family="sans-serif" font-size="11" lengthAdjust="spacingAndGlyphs" textLength="255" x="27" y="264.8509">selectsRole(List&lt;UserRoleDTO&gt;): UserRoleDTO</text></a><!--MD5=[8dac795f9edbf65a524ac462449c98fb]
class java.lang.Runnable--><rect codeLine="15" fill="#FEFECE" filter="url(#fyk54tgy45ze2)" height="59.2207" id="java.lang.Runnable" style="stroke: #A80036; stroke-width: 1.5;" width="97" x="118.5" y="7"/><ellipse cx="133.5" cy="26.1328" fill="#B4A7E5" rx="11" ry="11" style="stroke: #A80036; stroke-width: 1.0;"/><path d="M129.9277,22.3979 L129.9277,20.2397 L137.3071,20.2397 L137.3071,22.3979 L134.8418,22.3979 L134.8418,30.4746 L137.3071,30.4746 L137.3071,32.6328 L129.9277,32.6328 L129.9277,30.4746 L132.3931,30.4746 L132.3931,22.3979 Z "/><text fill="#000000" font-family="sans-serif" font-size="14" font-style="italic" lengthAdjust="spacingAndGlyphs" textLength="65" x="147.5" y="25.5352">Runnable</text><text fill="#000000" font-family="sans-serif" font-size="10" font-style="italic" lengthAdjust="spacingAndGlyphs" textLength="44" x="158" y="38.1563">java.lang</text><line style="stroke: #A80036; stroke-width: 1.5;" x1="119.5" x2="214.5" y1="45.2656" y2="45.2656"/><ellipse cx="129.5" cy="56.2656" fill="#84BE84" rx="3" ry="3" style="stroke: #038048; stroke-width: 1.0;"/><text fill="#000000" font-family="sans-serif" font-size="11" font-style="italic" lengthAdjust="spacingAndGlyphs" textLength="56" x="138.5" y="59.9004">run(): void</text><!--MD5=[21591bd4ac32d7074ce6bcdc1f6bd207]
reverse link java.lang.Runnable to ui.authz.AuthenticationUI--><path codeLine="19" d="M167,88.11 C167,100.13 167,113.2 167,125.97 " fill="none" id="java.lang.Runnable-backto-ui.authz.AuthenticationUI" style="stroke: #A80036; stroke-width: 1.0; stroke-dasharray: 7.0,7.0;"/><polygon fill="none" points="160,88.11,167,68.11,174,88.11,160,88.11" style="stroke: #A80036; stroke-width: 1.0;"/><text fill="#888888" font-family="sans-serif" font-size="10" lengthAdjust="spacingAndGlyphs" textLength="188" x="70" y="293.8391">UMLDoclet 2.0.12, PlantUML 1.2020.16</text><!--MD5=[d8cd2410d99ba37b17c4de6c157e9cfe]
@startuml
    set namespaceSeparator none
    hide empty fields
    hide empty methods

    class "<size:14>AuthenticationUI\n<size:10>ui.authz" as ui.authz.AuthenticationUI [[AuthenticationUI.html]] {
        -ctrl: AuthenticationController
        +run(): void
        -getMenuItemForRoles(): List<MenuItem>
        -doLogin(): boolean
        -logout(): void
        -redirectToRoleUI(List<MenuItem>, UserRoleDTO): void
        -selectsRole(List<UserRoleDTO>): UserRoleDTO
    }

    interface "<size:14>Runnable\n<size:10>java.lang" as java.lang.Runnable {
        {abstract} +run(): void
    }

    java.lang.Runnable <|.. ui.authz.AuthenticationUI

    center footer UMLDoclet 2.0.12, PlantUML 1.2020.16
@enduml

PlantUML version 1.2020.16(Sun Aug 23 21:20:43 WEST 2020)
(APACHE source distribution)
Java Runtime: OpenJDK Runtime Environment
JVM: OpenJDK 64-Bit Server VM
Default Encoding: UTF-8
Language: pt
Country: PT
--></g></svg>