<?xml version="1.0" encoding="UTF-8" standalone="no"?><svg xmlns="http://www.w3.org/2000/svg" xmlns:xlink="http://www.w3.org/1999/xlink" contentScriptType="application/ecmascript" contentStyleType="text/css" height="384px" preserveAspectRatio="none" style="width:380px;height:384px;" version="1.1" viewBox="0 0 380 384" width="380px" zoomAndPan="magnify"><defs><filter height="300%" id="fy011szmc6mgz" width="300%" x="-1" y="-1"><feGaussianBlur result="blurOut" stdDeviation="2.0"/><feColorMatrix in="blurOut" result="blurOut2" type="matrix" values="0 0 0 0 0 0 0 0 0 0 0 0 0 0 0 0 0 0 .4 0"/><feOffset dx="4.0" dy="4.0" in="blurOut2" result="blurOut3"/><feBlend in="SourceGraphic" in2="blurOut3" mode="normal"/></filter></defs><g><!--MD5=[824ebff99219d6da106a1a456e703c94]
cluster ui.authz--><polygon fill="#FFFFFF" filter="url(#fy011szmc6mgz)" points="16,147.602,78,147.602,85,172.6699,358,172.6699,358,354.602,16,354.602,16,147.602" style="stroke: #000000; stroke-width: 1.5;"/><line style="stroke: #000000; stroke-width: 1.5;" x1="16" x2="85" y1="172.6699" y2="172.6699"/><text fill="#000000" font-family="sans-serif" font-size="14" font-weight="bold" lengthAdjust="spacingAndGlyphs" textLength="56" x="20" y="164.5679">ui.authz</text><!--MD5=[aa8f7b917213fcc1c2766e2d59b49067]
cluster java.lang--><polygon fill="#FFFFFF" filter="url(#fy011szmc6mgz)" points="129,6.602,197,6.602,204,31.6699,245,31.6699,245,123.602,129,123.602,129,6.602" style="stroke: #000000; stroke-width: 1.5;"/><line style="stroke: #000000; stroke-width: 1.5;" x1="129" x2="204" y1="31.6699" y2="31.6699"/><text fill="#000000" font-family="sans-serif" font-size="14" font-weight="bold" lengthAdjust="spacingAndGlyphs" textLength="62" x="133" y="23.5679">java.lang</text><!--MD5=[5bcec26b0f1bac56bd497563aefdd7f6]
class ui.authz.AuthenticationUI--><a href="AuthenticationUI.html" target="_top" title="AuthenticationUI.html" xlink:actuate="onRequest" xlink:href="AuthenticationUI.html" xlink:show="new" xlink:title="AuthenticationUI.html" xlink:type="simple"><rect codeLine="3" fill="#FEFECE" filter="url(#fy011szmc6mgz)" height="152.8732" id="ui.authz.AuthenticationUI" style="stroke: #A80036; stroke-width: 1.5;" width="310" x="32" y="185.602"/><ellipse cx="135.75" cy="201.602" fill="#ADD1B2" rx="11" ry="11" style="stroke: #A80036; stroke-width: 1.0;"/><path d="M138.7188,207.2426 Q138.1406,207.5395 137.5,207.6801 Q136.8594,207.8364 136.1563,207.8364 Q133.6563,207.8364 132.3281,206.1957 Q131.0156,204.5395 131.0156,201.4145 Q131.0156,198.2895 132.3281,196.6332 Q133.6563,194.977 136.1563,194.977 Q136.8594,194.977 137.5,195.1332 Q138.1563,195.2895 138.7188,195.5864 L138.7188,198.3051 Q138.0938,197.727 137.5,197.4614 Q136.9063,197.1801 136.2813,197.1801 Q134.9375,197.1801 134.25,198.2582 Q133.5625,199.3207 133.5625,201.4145 Q133.5625,203.5082 134.25,204.5864 Q134.9375,205.6489 136.2813,205.6489 Q136.9063,205.6489 137.5,205.3832 Q138.0938,205.102 138.7188,204.5239 L138.7188,207.2426 Z "/><text fill="#000000" font-family="sans-serif" font-size="12" lengthAdjust="spacingAndGlyphs" textLength="94" x="156.25" y="206.258">AuthenticationUI</text><line style="stroke: #A80036; stroke-width: 1.5;" x1="33" x2="341" y1="217.602" y2="217.602"/><rect fill="none" height="6" style="stroke: #C82930; stroke-width: 1.0;" width="6" x="40" y="225.602"/><text fill="#000000" font-family="sans-serif" font-size="11" lengthAdjust="spacingAndGlyphs" textLength="154" x="52" y="233.3609">ctrl: AuthenticationController</text><line style="stroke: #A80036; stroke-width: 1.5;" x1="33" x2="341" y1="240.5839" y2="240.5839"/><ellipse cx="43" cy="251.5839" fill="#84BE84" rx="3" ry="3" style="stroke: #038048; stroke-width: 1.0;"/><text fill="#000000" font-family="sans-serif" font-size="11" lengthAdjust="spacingAndGlyphs" textLength="54" x="52" y="256.3428">run(): void</text><rect fill="#F24D5C" height="6" style="stroke: #C82930; stroke-width: 1.0;" width="6" x="40" y="263.5658"/><text fill="#000000" font-family="sans-serif" font-size="11" lengthAdjust="spacingAndGlyphs" textLength="213" x="52" y="271.3247">getMenuItemForRoles(): List&lt;MenuItem&gt;</text><rect fill="#F24D5C" height="6" style="stroke: #C82930; stroke-width: 1.0;" width="6" x="40" y="278.5476"/><text fill="#000000" font-family="sans-serif" font-size="11" lengthAdjust="spacingAndGlyphs" textLength="99" x="52" y="286.3066">doLogin(): boolean</text><rect fill="#F24D5C" height="6" style="stroke: #C82930; stroke-width: 1.0;" width="6" x="40" y="293.5295"/><text fill="#000000" font-family="sans-serif" font-size="11" lengthAdjust="spacingAndGlyphs" textLength="70" x="52" y="301.2884">logout(): void</text><rect fill="#F24D5C" height="6" style="stroke: #C82930; stroke-width: 1.0;" width="6" x="40" y="308.5114"/><text fill="#000000" font-family="sans-serif" font-size="11" lengthAdjust="spacingAndGlyphs" textLength="284" x="52" y="316.2703">redirectToRoleUI(List&lt;MenuItem&gt;, UserRoleDTO): void</text><rect fill="#F24D5C" height="6" style="stroke: #C82930; stroke-width: 1.0;" width="6" x="40" y="323.4933"/><text fill="#000000" font-family="sans-serif" font-size="11" lengthAdjust="spacingAndGlyphs" textLength="239" x="52" y="331.2522">selectsRole(List&lt;UserRoleDTO&gt;): UserRoleDTO</text></a><!--MD5=[8dac795f9edbf65a524ac462449c98fb]
class java.lang.Runnable--><rect codeLine="17" fill="#FEFECE" filter="url(#fy011szmc6mgz)" height="62.9819" id="java.lang.Runnable" style="stroke: #A80036; stroke-width: 1.5;" width="83" x="145.5" y="44.602"/><ellipse cx="160.5" cy="60.602" fill="#B4A7E5" rx="11" ry="11" style="stroke: #A80036; stroke-width: 1.0;"/><path d="M156.4219,56.3676 L156.4219,54.2114 L163.8125,54.2114 L163.8125,56.3676 L161.3438,56.3676 L161.3438,64.4457 L163.8125,64.4457 L163.8125,66.602 L156.4219,66.602 L156.4219,64.4457 L158.8906,64.4457 L158.8906,56.3676 L156.4219,56.3676 Z "/><text fill="#000000" font-family="sans-serif" font-size="12" font-style="italic" lengthAdjust="spacingAndGlyphs" textLength="51" x="174.5" y="65.258">Runnable</text><line style="stroke: #A80036; stroke-width: 1.5;" x1="146.5" x2="227.5" y1="76.602" y2="76.602"/><line style="stroke: #A80036; stroke-width: 1.5;" x1="146.5" x2="227.5" y1="84.602" y2="84.602"/><ellipse cx="156.5" cy="95.602" fill="#84BE84" rx="3" ry="3" style="stroke: #038048; stroke-width: 1.0;"/><text fill="#000000" font-family="sans-serif" font-size="11" font-style="italic" lengthAdjust="spacingAndGlyphs" textLength="48" x="165.5" y="100.3609">run(): void</text><!--MD5=[21591bd4ac32d7074ce6bcdc1f6bd207]
reverse link java.lang.Runnable to ui.authz.AuthenticationUI--><path codeLine="13" d="M187,128.012 C187,145.732 187,166.022 187,185.322 " fill="none" id="java.lang.Runnable-backto-ui.authz.AuthenticationUI" style="stroke: #A80036; stroke-width: 1.0; stroke-dasharray: 7.0,7.0;"/><polygon fill="none" points="180,127.902,187,107.902,194,127.902,180,127.902" style="stroke: #A80036; stroke-width: 1.0;"/><text fill="#888888" font-family="sans-serif" font-size="10" lengthAdjust="spacingAndGlyphs" textLength="188" x="87" y="371.292">UMLDoclet 2.0.12, PlantUML 1.2020.16</text><!--MD5=[701f5d15baf44f5387d3dc906552b1a7]
@startuml
    namespace ui.authz {

        class AuthenticationUI [[AuthenticationUI.html]] {
            -ctrl: AuthenticationController
            +run(): void
            -getMenuItemForRoles(): List<MenuItem>
            -doLogin(): boolean
            -logout(): void
            -redirectToRoleUI(List<MenuItem>, UserRoleDTO): void
            -selectsRole(List<UserRoleDTO>): UserRoleDTO
        }

        java.lang.Runnable <|.. AuthenticationUI
    }

    namespace java.lang {
        interface Runnable {
            {abstract} +run(): void
        }
    }

    center footer UMLDoclet 2.0.12, PlantUML 1.2020.16
@enduml

PlantUML version 1.2020.16(Sun Aug 23 21:20:43 WEST 2020)
(APACHE source distribution)
Java Runtime: Java(TM) SE Runtime Environment
JVM: Java HotSpot(TM) 64-Bit Server VM
Default Encoding: UTF-8
Language: en
Country: US
--></g></svg>