<?xml version="1.0" encoding="UTF-8" standalone="no"?><svg xmlns="http://www.w3.org/2000/svg" xmlns:xlink="http://www.w3.org/1999/xlink" contentScriptType="application/ecmascript" contentStyleType="text/css" height="360px" preserveAspectRatio="none" style="width:390px;height:360px;" version="1.1" viewBox="0 0 390 360" width="390px" zoomAndPan="magnify"><defs><filter height="300%" id="fy011szmc6mgz" width="300%" x="-1" y="-1"><feGaussianBlur result="blurOut" stdDeviation="2.0"/><feColorMatrix in="blurOut" result="blurOut2" type="matrix" values="0 0 0 0 0 0 0 0 0 0 0 0 0 0 0 0 0 0 .4 0"/><feOffset dx="4.0" dy="4.0" in="blurOut2" result="blurOut3"/><feBlend in="SourceGraphic" in2="blurOut3" mode="normal"/></filter></defs><g><!--MD5=[824ebff99219d6da106a1a456e703c94]
cluster ui.authz--><polygon fill="#FFFFFF" filter="url(#fy011szmc6mgz)" points="16,141.95,79,141.95,86,164.4383,368,164.4383,368,331.64,16,331.64,16,141.95" style="stroke: #000000; stroke-width: 1.5;"/><line style="stroke: #000000; stroke-width: 1.5;" x1="16" x2="86" y1="164.4383" y2="164.4383"/><text fill="#000000" font-family="sans-serif" font-size="14" font-weight="bold" lengthAdjust="spacingAndGlyphs" textLength="57" x="20" y="157.4852">ui.authz</text><!--MD5=[aa8f7b917213fcc1c2766e2d59b49067]
cluster java.lang--><polygon fill="#FFFFFF" filter="url(#fy011szmc6mgz)" points="133,6,202,6,209,28.4883,251,28.4883,251,117.95,133,117.95,133,6" style="stroke: #000000; stroke-width: 1.5;"/><line style="stroke: #000000; stroke-width: 1.5;" x1="133" x2="209" y1="28.4883" y2="28.4883"/><text fill="#000000" font-family="sans-serif" font-size="14" font-weight="bold" lengthAdjust="spacingAndGlyphs" textLength="63" x="137" y="21.5352">java.lang</text><!--MD5=[5bcec26b0f1bac56bd497563aefdd7f6]
class ui.authz.AuthenticationUI--><a href="AuthenticationUI.html" target="_top" title="AuthenticationUI.html" xlink:actuate="onRequest" xlink:href="AuthenticationUI.html" xlink:show="new" xlink:title="AuthenticationUI.html" xlink:type="simple"><rect codeLine="3" fill="#FEFECE" filter="url(#fy011szmc6mgz)" height="138.6855" id="ui.authz.AuthenticationUI" style="stroke: #A80036; stroke-width: 1.5;" width="320" x="32" y="176.95"/><ellipse cx="141.75" cy="192.95" fill="#ADD1B2" rx="11" ry="11" style="stroke: #A80036; stroke-width: 1.0;"/><path d="M144.2231,199.0931 Q143.6421,199.3919 143.0029,199.5413 Q142.3638,199.6907 141.6582,199.6907 Q139.1514,199.6907 137.8315,198.0389 Q136.5117,196.387 136.5117,193.2659 Q136.5117,190.1365 137.8315,188.4847 Q139.1514,186.8328 141.6582,186.8328 Q142.3638,186.8328 143.0112,186.9822 Q143.6587,187.1316 144.2231,187.4305 L144.2231,190.1531 Q143.5923,189.5721 142.9988,189.3023 Q142.4053,189.0325 141.7744,189.0325 Q140.4297,189.0325 139.7449,190.0992 Q139.0601,191.1658 139.0601,193.2659 Q139.0601,195.3577 139.7449,196.4244 Q140.4297,197.491 141.7744,197.491 Q142.4053,197.491 142.9988,197.2212 Q143.5923,196.9515 144.2231,196.3704 Z "/><text fill="#000000" font-family="sans-serif" font-size="12" lengthAdjust="spacingAndGlyphs" textLength="92" x="162.25" y="197.4852">AuthenticationUI</text><line style="stroke: #A80036; stroke-width: 1.5;" x1="33" x2="351" y1="208.95" y2="208.95"/><rect fill="none" height="6" style="stroke: #C82930; stroke-width: 1.0;" width="6" x="40" y="216.95"/><text fill="#000000" font-family="sans-serif" font-size="11" lengthAdjust="spacingAndGlyphs" textLength="158" x="52" y="223.5848">ctrl: AuthenticationController</text><line style="stroke: #A80036; stroke-width: 1.5;" x1="33" x2="351" y1="229.9051" y2="229.9051"/><ellipse cx="43" cy="240.9051" fill="#84BE84" rx="3" ry="3" style="stroke: #038048; stroke-width: 1.0;"/><text fill="#000000" font-family="sans-serif" font-size="11" lengthAdjust="spacingAndGlyphs" textLength="56" x="52" y="244.5398">run(): void</text><rect fill="#F24D5C" height="6" style="stroke: #C82930; stroke-width: 1.0;" width="6" x="40" y="250.8602"/><text fill="#000000" font-family="sans-serif" font-size="11" lengthAdjust="spacingAndGlyphs" textLength="219" x="52" y="257.4949">getMenuItemForRoles(): List&lt;MenuItem&gt;</text><rect fill="#F24D5C" height="6" style="stroke: #C82930; stroke-width: 1.0;" width="6" x="40" y="263.8152"/><text fill="#000000" font-family="sans-serif" font-size="11" lengthAdjust="spacingAndGlyphs" textLength="101" x="52" y="270.45">doLogin(): boolean</text><rect fill="#F24D5C" height="6" style="stroke: #C82930; stroke-width: 1.0;" width="6" x="40" y="276.7703"/><text fill="#000000" font-family="sans-serif" font-size="11" lengthAdjust="spacingAndGlyphs" textLength="72" x="52" y="283.4051">logout(): void</text><rect fill="#F24D5C" height="6" style="stroke: #C82930; stroke-width: 1.0;" width="6" x="40" y="289.7254"/><text fill="#000000" font-family="sans-serif" font-size="11" lengthAdjust="spacingAndGlyphs" textLength="294" x="52" y="296.3602">redirectToRoleUI(List&lt;MenuItem&gt;, UserRoleDTO): void</text><rect fill="#F24D5C" height="6" style="stroke: #C82930; stroke-width: 1.0;" width="6" x="40" y="302.6805"/><text fill="#000000" font-family="sans-serif" font-size="11" lengthAdjust="spacingAndGlyphs" textLength="255" x="52" y="309.3152">selectsRole(List&lt;UserRoleDTO&gt;): UserRoleDTO</text></a><!--MD5=[8dac795f9edbf65a524ac462449c98fb]
class java.lang.Runnable--><rect codeLine="17" fill="#FEFECE" filter="url(#fy011szmc6mgz)" height="60.9551" id="java.lang.Runnable" style="stroke: #A80036; stroke-width: 1.5;" width="86" x="149" y="41"/><ellipse cx="164" cy="57" fill="#B4A7E5" rx="11" ry="11" style="stroke: #A80036; stroke-width: 1.0;"/><path d="M160.4277,53.2651 L160.4277,51.1069 L167.8071,51.1069 L167.8071,53.2651 L165.3418,53.2651 L165.3418,61.3418 L167.8071,61.3418 L167.8071,63.5 L160.4277,63.5 L160.4277,61.3418 L162.8931,61.3418 L162.8931,53.2651 Z "/><text fill="#000000" font-family="sans-serif" font-size="12" font-style="italic" lengthAdjust="spacingAndGlyphs" textLength="54" x="178" y="61.5352">Runnable</text><line style="stroke: #A80036; stroke-width: 1.5;" x1="150" x2="234" y1="73" y2="73"/><line style="stroke: #A80036; stroke-width: 1.5;" x1="150" x2="234" y1="81" y2="81"/><ellipse cx="160" cy="92" fill="#84BE84" rx="3" ry="3" style="stroke: #038048; stroke-width: 1.0;"/><text fill="#000000" font-family="sans-serif" font-size="11" font-style="italic" lengthAdjust="spacingAndGlyphs" textLength="56" x="169" y="95.6348">run(): void</text><!--MD5=[21591bd4ac32d7074ce6bcdc1f6bd207]
reverse link java.lang.Runnable to ui.authz.AuthenticationUI--><path codeLine="13" d="M192,123.58 C192,140.18 192,158.88 192,176.55 " fill="none" id="java.lang.Runnable-backto-ui.authz.AuthenticationUI" style="stroke: #A80036; stroke-width: 1.0; stroke-dasharray: 7.0,7.0;"/><polygon fill="none" points="185,123.7,192,103.7,199,123.7,185,123.7" style="stroke: #A80036; stroke-width: 1.0;"/><text fill="#888888" font-family="sans-serif" font-size="10" lengthAdjust="spacingAndGlyphs" textLength="188" x="92" y="347.308">UMLDoclet 2.0.12, PlantUML 1.2020.16</text><!--MD5=[0d293dc63f2357d8c60b061580fb9eac]
@startuml
    namespace ui.authz {

        class AuthenticationUI [[AuthenticationUI.html]] {
            -ctrl: AuthenticationController
            +run(): void
            -getMenuItemForRoles(): List<MenuItem>
            -doLogin(): boolean
            -logout(): void
            -redirectToRoleUI(List<MenuItem>, UserRoleDTO): void
            -selectsRole(List<UserRoleDTO>): UserRoleDTO
        }

        java.lang.Runnable <|.. AuthenticationUI
    }

    namespace java.lang {
        interface Runnable {
            {abstract} +run(): void
        }
    }

    center footer UMLDoclet 2.0.12, PlantUML 1.2020.16
@enduml

PlantUML version 1.2020.16(Sun Aug 23 21:20:43 WEST 2020)
(APACHE source distribution)
Java Runtime: OpenJDK Runtime Environment
JVM: OpenJDK 64-Bit Server VM
Default Encoding: UTF-8
Language: pt
Country: PT
--></g></svg>