<svg xmlns="http://www.w3.org/2000/svg" xmlns:xlink="http://www.w3.org/1999/xlink" contentStyleType="text/css" height="490px" preserveAspectRatio="none" style="width:871px;height:490px;background:#FFFFFF;" version="1.1" viewBox="0 0 871 490" width="871px" zoomAndPan="magnify"><title>Figure and Category domain model section</title><defs/><g><text fill="#000000" font-family="sans-serif" font-size="14" font-weight="bold" lengthAdjust="spacing" textLength="310.3994" x="273.3103" y="23.5352">Figure and Category domain model section</text><!--cluster Category Aggregate--><g id="cluster_Category Aggregate"><rect fill="none" height="440" rx="2.5" ry="2.5" style="stroke:#000000;stroke-width:1.5;" width="611.02" x="254" y="44.4883"/><text fill="#000000" font-family="sans-serif" font-size="14" font-weight="bold" lengthAdjust="spacing" textLength="144.0879" x="487.4661" y="60.0234">Category Aggregate</text></g><!--cluster Figure Aggregate--><g id="cluster_Figure Aggregate"><rect fill="none" height="99" rx="2.5" ry="2.5" style="stroke:#000000;stroke-width:1.5;" width="140" x="7" y="196.4883"/><text fill="#000000" font-family="sans-serif" font-size="14" font-weight="bold" lengthAdjust="spacing" textLength="124.8926" x="14.5537" y="212.0234">Figure Aggregate</text></g><!--class Category--><g id="elem_Category"><rect codeLine="14" fill="#F1F1F1" height="48.6211" id="Category" rx="2.5" ry="2.5" style="stroke:#181818;stroke-width:0.5;" width="101.5156" x="270" y="231.1783"/><text fill="#000000" font-family="sans-serif" font-size="12" font-style="italic" lengthAdjust="spacing" textLength="99.5156" x="271" y="247.7798">&#171;AggregateRoot&#187;</text><text fill="#000000" font-family="sans-serif" font-size="14" lengthAdjust="spacing" textLength="60.8262" x="290.3447" y="263.8463">Category</text><line style="stroke:#181818;stroke-width:0.5;" x1="271" x2="370.5156" y1="271.7994" y2="271.7994"/></g><!--class Name--><g id="elem_Name"><rect codeLine="17" fill="#F1F1F1" height="34.4883" id="Name" rx="2.5" ry="2.5" style="stroke:#181818;stroke-width:0.5;" width="44.9443" x="627.6" y="416.2483"/><text fill="#000000" font-family="sans-serif" font-size="14" lengthAdjust="spacing" textLength="38.9443" x="630.6" y="434.7834">Name</text><line style="stroke:#181818;stroke-width:0.5;" x1="628.6" x2="671.5443" y1="442.7366" y2="442.7366"/></g><!--class ID--><g id="elem_ID"><rect codeLine="20" fill="#F1F1F1" height="34.4883" id="ID" rx="2.5" ry="2.5" style="stroke:#181818;stroke-width:0.5;" width="20.5195" x="473.43" y="351.2483"/><text fill="#000000" font-family="sans-serif" font-size="14" lengthAdjust="spacing" textLength="14.5195" x="476.43" y="369.7834">ID</text><line style="stroke:#181818;stroke-width:0.5;" x1="474.43" x2="492.9495" y1="377.7366" y2="377.7366"/></g><!--class CategoryStatus--><g id="elem_CategoryStatus"><rect codeLine="23" fill="#F1F1F1" height="34.4883" id="CategoryStatus" rx="2.5" ry="2.5" style="stroke:#181818;stroke-width:0.5;" width="108.3955" x="595.87" y="264.2483"/><text fill="#000000" font-family="sans-serif" font-size="14" lengthAdjust="spacing" textLength="102.3955" x="598.87" y="282.7834">CategoryStatus</text><line style="stroke:#181818;stroke-width:0.5;" x1="596.87" x2="703.2655" y1="290.7366" y2="290.7366"/></g><!--class CreatedOn--><g id="elem_CreatedOn"><rect codeLine="26" fill="#F1F1F1" height="34.4883" id="CreatedOn" rx="2.5" ry="2.5" style="stroke:#181818;stroke-width:0.5;" width="78.3584" x="444.51" y="199.2483"/><text fill="#000000" font-family="sans-serif" font-size="14" lengthAdjust="spacing" textLength="72.3584" x="447.51" y="217.7834">CreatedOn</text><line style="stroke:#181818;stroke-width:0.5;" x1="445.51" x2="521.8684" y1="225.7366" y2="225.7366"/></g><!--class CreatedBy--><g id="elem_CreatedBy"><rect codeLine="29" fill="#F1F1F1" height="34.4883" id="CreatedBy" rx="2.5" ry="2.5" style="stroke:#181818;stroke-width:0.5;" width="74.1611" x="612.99" y="128.2483"/><text fill="#000000" font-family="sans-serif" font-size="14" lengthAdjust="spacing" textLength="68.1611" x="615.99" y="146.7834">CreatedBy</text><line style="stroke:#181818;stroke-width:0.5;" x1="613.99" x2="686.1511" y1="154.7366" y2="154.7366"/></g><!--class Description--><g id="elem_Description"><rect codeLine="32" fill="#F1F1F1" height="34.4883" id="Description" rx="2.5" ry="2.5" style="stroke:#181818;stroke-width:0.5;" width="83.752" x="765.27" y="79.2483"/><text fill="#000000" font-family="sans-serif" font-size="14" lengthAdjust="spacing" textLength="77.752" x="768.27" y="97.7834">Description</text><line style="stroke:#181818;stroke-width:0.5;" x1="766.27" x2="848.022" y1="105.7366" y2="105.7366"/></g><!--class Figure--><g id="elem_Figure"><rect codeLine="38" fill="#F1F1F1" height="48.6211" id="Figure" rx="2.5" ry="2.5" style="stroke:#181818;stroke-width:0.5;" width="101.5156" x="25.74" y="231.1783"/><text fill="#000000" font-family="sans-serif" font-size="12" font-style="italic" lengthAdjust="spacing" textLength="99.5156" x="26.74" y="247.7798">&#171;AggregateRoot&#187;</text><text fill="#000000" font-family="sans-serif" font-size="14" lengthAdjust="spacing" textLength="42.499" x="55.2483" y="263.8463">Figure</text><line style="stroke:#181818;stroke-width:0.5;" x1="26.74" x2="126.2556" y1="271.7994" y2="271.7994"/></g><!--link Figure to Category--><g id="link_Figure_Category"><path codeLine="43" d="M127.69,255.4883 C169.27,255.4883 228.06,255.4883 269.62,255.4883 " fill="none" id="Figure-Category" style="stroke:#181818;stroke-width:1.0;"/><polygon fill="#000000" points="204,248.9883,194.9549,246.0494,194.9549,251.9272,204,248.9883" style="stroke:#000000;stroke-width:1.0;"/><text fill="#000000" font-family="sans-serif" font-size="13" lengthAdjust="spacing" textLength="6.2651" x="135.3294" y="269.1331">*</text><text fill="#000000" font-family="sans-serif" font-size="13" lengthAdjust="spacing" textLength="18.5986" x="243.5792" y="269.0852">1 *</text></g><!--link Category to ID--><g id="link_Category_ID"><path codeLine="44" d="M357.07,280.2883 C394.27,306.4083 450.5,345.8783 472.94,361.6383 " fill="none" id="Category-ID" style="stroke:#181818;stroke-width:1.0;"/><polygon fill="#000000" points="410.6022,308.3613,404.8881,300.7586,401.5107,305.5693,410.6022,308.3613" style="stroke:#000000;stroke-width:1.0;"/><text fill="#000000" font-family="sans-serif" font-size="13" lengthAdjust="spacing" textLength="8.2202" x="356.5677" y="300.3618">1</text><text fill="#000000" font-family="sans-serif" font-size="13" lengthAdjust="spacing" textLength="8.2202" x="457.0712" y="374.6372">1</text></g><!--link Category to Name--><g id="link_Category_Name"><path codeLine="45" d="M332.39,280.0583 C349.82,316.9683 388.25,385.6683 444.51,416.4883 C503.9,449.0183 587.81,442.6283 627.13,437.1683 " fill="none" id="Category-Name" style="stroke:#181818;stroke-width:1.0;"/><polygon fill="#000000" points="486.6023,412.3402,480.0028,405.492,477.2379,410.679,486.6023,412.3402" style="stroke:#000000;stroke-width:1.0;"/><text fill="#000000" font-family="sans-serif" font-size="13" lengthAdjust="spacing" textLength="8.2202" x="326.2772" y="300.4814">1</text><text fill="#000000" font-family="sans-serif" font-size="13" lengthAdjust="spacing" textLength="8.2202" x="611.2481" y="453.0652">1</text></g><!--link Category to CategoryStatus--><g id="link_Category_CategoryStatus"><path codeLine="46" d="M371.82,259.4683 C432.26,264.2683 533.49,272.3083 595.47,277.2283 " fill="none" id="Category-CategoryStatus" style="stroke:#181818;stroke-width:1.0;"/><polygon fill="#000000" points="487.1743,259.3741,478.3903,255.7284,477.925,261.5878,487.1743,259.3741" style="stroke:#000000;stroke-width:1.0;"/><text fill="#000000" font-family="sans-serif" font-size="13" lengthAdjust="spacing" textLength="8.2202" x="379.5786" y="273.6728">1</text><text fill="#000000" font-family="sans-serif" font-size="13" lengthAdjust="spacing" textLength="8.2202" x="579.6107" y="290.2523">1</text></g><!--link Category to CreatedOn--><g id="link_Category_CreatedOn"><path codeLine="47" d="M371.79,243.3583 C395.14,237.7083 422.49,231.0783 444.19,225.8183 " fill="none" id="Category-CreatedOn" style="stroke:#181818;stroke-width:1.0;"/><polygon fill="#000000" points="411.3694,225.971,401.8867,225.2444,403.2706,230.957,411.3694,225.971" style="stroke:#000000;stroke-width:1.0;"/><text fill="#000000" font-family="sans-serif" font-size="13" lengthAdjust="spacing" textLength="8.2202" x="379.5444" y="255.2973">1</text><text fill="#000000" font-family="sans-serif" font-size="13" lengthAdjust="spacing" textLength="8.2202" x="428.1901" y="241.5175">1</text></g><!--link Category to CreatedBy--><g id="link_Category_CreatedBy"><path codeLine="48" d="M354.94,230.8483 C378.71,214.3983 412.12,193.6183 444.51,181.4883 C500.91,160.3683 570.77,151.4783 612.54,147.8583 " fill="none" id="Category-CreatedBy" style="stroke:#181818;stroke-width:1.0;"/><polygon fill="#000000" points="486.9491,152.5951,477.4386,152.5713,479.241,158.166,486.9491,152.5951" style="stroke:#000000;stroke-width:1.0;"/><text fill="#000000" font-family="sans-serif" font-size="13" lengthAdjust="spacing" textLength="8.2202" x="354.3237" y="220.6202">1</text><text fill="#000000" font-family="sans-serif" font-size="13" lengthAdjust="spacing" textLength="8.2202" x="596.6442" y="162.3369">1</text></g><!--link Category to Description--><g id="link_Category_Description"><path codeLine="49" d="M340.54,230.7783 C362.43,203.8583 401.19,161.6683 444.51,139.4883 C550.03,85.4583 694.98,87.5083 764.99,92.4683 " fill="none" id="Category-Description" style="stroke:#181818;stroke-width:1.0;"/><polygon fill="#000000" points="562.624,93.2592,553.1134,93.2672,554.9345,98.8559,562.624,93.2592" style="stroke:#000000;stroke-width:1.0;"/><text fill="#000000" font-family="sans-serif" font-size="13" lengthAdjust="spacing" textLength="8.2202" x="336.4137" y="220.5332">1</text><text fill="#000000" font-family="sans-serif" font-size="13" lengthAdjust="spacing" textLength="8.2202" x="749.0759" y="105.6607">1</text></g><!--SRC=[VP1DQiCm48NtEiNWPI6BR4imj3M5R5feJZ184rb4bemqffYIkrTs_1UmhOsaUTyyQLwy6LTZm0egxxmiWwy8E3GaugJKA6-ewSAj9GWa6PssIo2MgFolSHgkQ2C9IrS6zX2CBXcKwNgCTqAmuMJnQNGJ2D0f-40cxKCBobTeNFg48Wjnv4kZ2AG9qb9yN2hYqgienF0fo2QBDwq3wNJBu4y8I4jQZ75-utIQa1_lESyJrs7t9Vs5AO2L-hbOguxU5qPkuYeHA37gs-s8x-sQM52KmTHT4hDyNqm-vFWqzzm-gDj39wl-D83PImQ7mm6o8wJJ5Dehv3qr5R9Zn_NRkTXG7t8NvIxmdDxUIrEA-tvZd5lK0ri4su7Y7m00]--></g></svg>