<?xml version="1.0" encoding="UTF-8" standalone="no"?><svg xmlns="http://www.w3.org/2000/svg" xmlns:xlink="http://www.w3.org/1999/xlink" contentStyleType="text/css" height="1606px" preserveAspectRatio="none" style="width:509px;height:1606px;background:#FFFFFF;" version="1.1" viewBox="0 0 509 1606" width="509px" zoomAndPan="magnify"><defs/><g><text fill="#000000" font-family="Times" font-size="14" font-weight="bold" lengthAdjust="spacing" textLength="171" x="162.37" y="23.5352">Main Use Case Diagram</text><!--cluster actors--><g id="cluster_actors"><rect fill="none" height="546" rx="2.5" ry="2.5" style="stroke:#000000;stroke-width:1.0;" width="159" x="7" y="277.4883"/><text fill="#000000" font-family="Times" font-size="10" font-weight="bold" lengthAdjust="spacing" textLength="74" x="15" y="289.1563">System Actors</text></g><!--cluster usecases--><g id="cluster_usecases"><rect fill="none" height="1272" rx="2.5" ry="2.5" style="stroke:#000000;stroke-width:1.0;" width="313.74" x="190" y="44.4883"/><text fill="#000000" font-family="Times" font-size="10" font-weight="bold" lengthAdjust="spacing" textLength="51" x="321.37" y="56.1563">Backoffice</text></g><!--cluster showmng--><g id="cluster_showmng"><rect fill="none" height="359" rx="2.5" ry="2.5" style="stroke:#000000;stroke-width:1.0;" width="265.74" x="214" y="116.4883"/><text fill="#000000" font-family="Times" font-size="10" font-weight="bold" lengthAdjust="spacing" textLength="93" x="300.37" y="128.1563">Show Managment</text></g><!--cluster drnmng--><g id="cluster_drnmng"><rect fill="none" height="447" rx="2.5" ry="2.5" style="stroke:#000000;stroke-width:1.0;" width="219.8" x="236.97" y="676.4883"/><text fill="#000000" font-family="Times" font-size="10" font-weight="bold" lengthAdjust="spacing" textLength="97" x="298.37" y="688.1563">Drone Managment</text></g><!--cluster drncfig--><g id="cluster_drncfig"><rect fill="none" height="145" rx="2.5" ry="2.5" style="stroke:#000000;stroke-width:1.0;" width="174.37" x="259.69" y="1147.4883"/><text fill="#000000" font-family="Times" font-size="10" font-weight="bold" lengthAdjust="spacing" textLength="107" x="293.375" y="1159.1563">Drone Configuration</text></g><!--cluster usecase--><g id="cluster_usecase"><rect fill="none" height="260" rx="2.5" ry="2.5" style="stroke:#000000;stroke-width:1.0;" width="167.2" x="263.27" y="1340.4883"/><text fill="#000000" font-family="Times" font-size="10" font-weight="bold" lengthAdjust="spacing" textLength="71" x="311.37" y="1352.1563">Show Testing</text></g><!--entity ADM--><g id="elem_ADM"><ellipse cx="86" cy="316.0983" fill="#F1F1F1" rx="8" ry="8" style="stroke:#181818;stroke-width:0.5;"/><path d="M86,324.0983 L86,351.0983 M73,332.0983 L99,332.0983 M86,351.0983 L73,366.0983 M86,351.0983 L99,366.0983 " fill="none" style="stroke:#181818;stroke-width:0.5;"/><text fill="#000000" font-family="Times" font-size="10" lengthAdjust="spacing" textLength="31" x="70.5" y="377.2662">Admin</text></g><!--entity CRMM--><g id="elem_CRMM"><ellipse cx="86" cy="637.0983" fill="#F1F1F1" rx="8" ry="8" style="stroke:#181818;stroke-width:0.5;"/><path d="M86,645.0983 L86,672.0983 M73,653.0983 L99,653.0983 M86,672.0983 L73,687.0983 M86,672.0983 L99,687.0983 " fill="none" style="stroke:#181818;stroke-width:0.5;"/><text fill="#000000" font-family="Times" font-size="10" lengthAdjust="spacing" textLength="68" x="52" y="698.2663">CRM Manager</text></g><!--entity CRMCLTR--><g id="elem_CRMCLTR"><ellipse cx="86" cy="530.0983" fill="#F1F1F1" rx="8" ry="8" style="stroke:#181818;stroke-width:0.5;"/><path d="M86,538.0983 L86,565.0983 M73,546.0983 L99,546.0983 M86,565.0983 L73,580.0983 M86,565.0983 L99,580.0983 " fill="none" style="stroke:#181818;stroke-width:0.5;"/><text fill="#000000" font-family="Times" font-size="10" lengthAdjust="spacing" textLength="86" x="43" y="591.2662">CRM Collaborator</text></g><!--entity showdsg--><g id="elem_showdsg"><ellipse cx="86" cy="423.0983" fill="#F1F1F1" rx="8" ry="8" style="stroke:#181818;stroke-width:0.5;"/><path d="M86,431.0983 L86,458.0983 M73,439.0983 L99,439.0983 M86,458.0983 L73,473.0983 M86,458.0983 L99,473.0983 " fill="none" style="stroke:#181818;stroke-width:0.5;"/><text fill="#000000" font-family="Times" font-size="10" lengthAdjust="spacing" textLength="71" x="50.5" y="484.2662">Show Designer</text></g><!--entity drntch--><g id="elem_drntch"><ellipse cx="86" cy="744.0983" fill="#F1F1F1" rx="8" ry="8" style="stroke:#181818;stroke-width:0.5;"/><path d="M86,752.0983 L86,779.0983 M73,760.0983 L99,760.0983 M86,779.0983 L73,794.0983 M86,779.0983 L99,794.0983 " fill="none" style="stroke:#181818;stroke-width:0.5;"/><text fill="#000000" font-family="Times" font-size="10" lengthAdjust="spacing" textLength="55" x="58.5" y="805.2663">Drone Tech</text></g><g id="elem_mngusr"><ellipse cx="346.868" cy="87.4919" fill="#F1F1F1" rx="52.668" ry="12.9336" style="stroke:#181818;stroke-width:0.5;"/><text fill="#000000" font-family="Times" font-size="10" lengthAdjust="spacing" textLength="68" x="312.868" y="89.2712">Manage users</text></g><g id="elem_mngppt"><ellipse cx="346.8724" cy="574.4868" fill="#F1F1F1" rx="82.6424" ry="18.9285" style="stroke:#181818;stroke-width:0.5;"/><text fill="#000000" font-family="Times" font-size="10" lengthAdjust="spacing" textLength="136" x="278.8724" y="576.2661">Manage proposal templates</text></g><g id="elem_ccstts"><ellipse cx="346.8686" cy="644.492" fill="#F1F1F1" rx="66.2686" ry="15.6537" style="stroke:#181818;stroke-width:0.5;"/><text fill="#000000" font-family="Times" font-size="10" lengthAdjust="spacing" textLength="100" x="296.8686" y="646.2713">Change client status</text></g><g id="elem_mngc"><ellipse cx="346.8744" cy="507.4912" fill="#F1F1F1" rx="55.1144" ry="13.4229" style="stroke:#181818;stroke-width:0.5;"/><text fill="#000000" font-family="Times" font-size="10" lengthAdjust="spacing" textLength="74" x="309.8744" y="509.2705">Manage clients</text></g><g id="elem_sdlshw"><ellipse cx="346.866" cy="445.4915" fill="#F1F1F1" rx="57.616" ry="13.9232" style="stroke:#181818;stroke-width:0.5;"/><text fill="#000000" font-family="Times" font-size="10" lengthAdjust="spacing" textLength="80" x="306.866" y="447.2708">Schedule a show</text></g><g id="elem_gsppstc"><ellipse cx="346.8723" cy="370.4928" fill="#F1F1F1" rx="116.8723" ry="25.7745" style="stroke:#181818;stroke-width:0.5;"/><text fill="#000000" font-family="Times" font-size="10" lengthAdjust="spacing" textLength="208" x="242.8723" y="372.272">Generate show proposal and send to client</text></g><g id="elem_cfgsdl"><ellipse cx="346.8676" cy="291.4858" fill="#F1F1F1" rx="80.7876" ry="18.5575" style="stroke:#181818;stroke-width:0.5;"/><text fill="#000000" font-family="Times" font-size="10" lengthAdjust="spacing" textLength="132" x="280.8676" y="293.2651">Configure show's drone list</text></g><g id="elem_subsreq"><ellipse cx="346.8715" cy="222.4906" fill="#F1F1F1" rx="66.7115" ry="15.7423" style="stroke:#181818;stroke-width:0.5;"/><text fill="#000000" font-family="Times" font-size="10" lengthAdjust="spacing" textLength="101" x="296.3715" y="224.2699">Submit show request</text></g><g id="elem_cf"><ellipse cx="346.8681" cy="159.4919" fill="#F1F1F1" rx="51.4681" ry="12.6936" style="stroke:#181818;stroke-width:0.5;"/><text fill="#000000" font-family="Times" font-size="10" lengthAdjust="spacing" textLength="65" x="314.3681" y="161.2712">Create figure</text></g><g id="elem_ldi"><ellipse cx="346.8654" cy="721.4894" fill="#F1F1F1" rx="64.5054" ry="15.3011" style="stroke:#181818;stroke-width:0.5;"/><text fill="#000000" font-family="Times" font-size="10" lengthAdjust="spacing" textLength="96" x="298.8654" y="723.2687">List drone inventory</text></g><g id="elem_ldmh"><ellipse cx="346.8727" cy="1017.4848" fill="#F1F1F1" rx="92.4827" ry="20.8965" style="stroke:#181818;stroke-width:0.5;"/><text fill="#000000" font-family="Times" font-size="10" lengthAdjust="spacing" textLength="157" x="268.3727" y="1019.2641">List drone's maintenance history</text></g><g id="elem_rdfm"><ellipse cx="346.8706" cy="940.4884" fill="#F1F1F1" rx="93.9006" ry="21.1801" style="stroke:#181818;stroke-width:0.5;"/><text fill="#000000" font-family="Times" font-size="10" lengthAdjust="spacing" textLength="160" x="266.8706" y="942.2677">Receive drone from maintenance</text></g><g id="elem_sdfm"><ellipse cx="346.8672" cy="865.4897" fill="#F1F1F1" rx="83.1072" ry="19.0214" style="stroke:#181818;stroke-width:0.5;"/><text fill="#000000" font-family="Times" font-size="10" lengthAdjust="spacing" textLength="137" x="278.3672" y="867.269">Send drone for maintenance</text></g><g id="elem_rdfi"><ellipse cx="346.8745" cy="791.4892" fill="#F1F1F1" rx="85.9045" ry="19.5809" style="stroke:#181818;stroke-width:0.5;"/><text fill="#000000" font-family="Times" font-size="10" lengthAdjust="spacing" textLength="143" x="275.3745" y="793.2685">Remove drone from inventory</text></g><g id="elem_adddti"><ellipse cx="346.8748" cy="1090.4852" fill="#F1F1F1" rx="71.1848" ry="16.637" style="stroke:#181818;stroke-width:0.5;"/><text fill="#000000" font-family="Times" font-size="10" lengthAdjust="spacing" textLength="111" x="291.3748" y="1092.2645">Add drone to inventory</text></g><g id="elem_cdmdl"><ellipse cx="346.8652" cy="1261.4853" fill="#F1F1F1" rx="65.3852" ry="15.477" style="stroke:#181818;stroke-width:0.5;"/><text fill="#000000" font-family="Times" font-size="10" lengthAdjust="spacing" textLength="98" x="297.8652" y="1263.2646">Create Drone model</text></g><g id="elem_cdlng"><ellipse cx="346.8748" cy="1194.4852" fill="#F1F1F1" rx="71.1848" ry="16.637" style="stroke:#181818;stroke-width:0.5;"/><text fill="#000000" font-family="Times" font-size="10" lengthAdjust="spacing" textLength="111" x="291.3748" y="1196.2645">Config drone language</text></g><g id="elem_gfcd"><ellipse cx="346.87" cy="1452.4883" fill="#F1F1F1" rx="67.6" ry="15.92" style="stroke:#181818;stroke-width:0.5;"/><text fill="#000000" font-family="Times" font-size="10" lengthAdjust="spacing" textLength="103" x="295.37" y="1454.2676">Generate figure code</text></g><g id="elem_gscd"><ellipse cx="346.8664" cy="1386.4836" fill="#F1F1F1" rx="65.8264" ry="15.5653" style="stroke:#181818;stroke-width:0.5;"/><text fill="#000000" font-family="Times" font-size="10" lengthAdjust="spacing" textLength="99" x="297.3664" y="1388.2629">Generate show code</text></g><g id="elem_tstfigure"><ellipse cx="346.8739" cy="1572.4891" fill="#F1F1F1" rx="46.8539" ry="11.7708" style="stroke:#181818;stroke-width:0.5;"/><text fill="#000000" font-family="Times" font-size="10" lengthAdjust="spacing" textLength="53" x="320.3739" y="1574.2684">Test figure</text></g><g id="elem_tstshw"><ellipse cx="346.8729" cy="1514.4869" fill="#F1F1F1" rx="45.3929" ry="11.4786" style="stroke:#181818;stroke-width:0.5;"/><text fill="#000000" font-family="Times" font-size="10" lengthAdjust="spacing" textLength="49" x="322.3729" y="1516.2662">Test show</text></g><!--link ADM to mngusr--><g id="link_ADM_mngusr"><path d="M93.2,307.1883 C103.28,259.5183 127.83,176.4783 182,130.4883 C211.45,105.4883 253.81,94.8183 288.08,90.3583 " fill="none" id="ADM-to-mngusr" style="stroke:#181818;stroke-width:1.0;"/><polygon fill="#181818" points="292.88,89.7783,283.4564,86.9155,287.918,90.3932,284.4402,94.8547,292.88,89.7783" style="stroke:#181818;stroke-width:1.0;"/></g><!--link CRMM to mngppt--><g id="link_CRMM_mngppt"><path d="M120.15,642.8983 C137.9,632.1483 160.48,619.7183 182,611.4883 C210.61,600.5383 243.33,592.3483 271.97,586.4883 " fill="none" id="CRMM-to-mngppt" style="stroke:#181818;stroke-width:1.0;"/><polygon fill="#181818" points="276.53,585.5783,266.9179,583.4318,271.6282,586.5644,268.4956,591.2747,276.53,585.5783" style="stroke:#181818;stroke-width:1.0;"/></g><!--link CRMM to ccstts--><g id="link_CRMM_ccstts"><path d="M120.31,661.9183 C159.67,658.8783 226.17,653.7383 276.8,649.8283 " fill="none" id="CRMM-to-ccstts" style="stroke:#181818;stroke-width:1.0;"/><polygon fill="#181818" points="281.7,649.4483,272.4183,646.1544,276.7149,649.8339,273.0353,654.1306,281.7,649.4483" style="stroke:#181818;stroke-width:1.0;"/></g><!--link CRMM to mngc--><g id="link_CRMM_mngc"><path d="M120.08,652.5283 C139.08,643.8583 161.57,630.1783 174,610.4883 C182.59,596.8783 171.06,550.2983 182,538.4883 C208.69,509.6783 253.11,502.6983 288.97,502.4983 " fill="none" id="CRMM-to-mngc" style="stroke:#181818;stroke-width:1.0;"/><polygon fill="#181818" points="293.59,502.5183,284.613,498.4669,288.5901,502.4897,284.5673,506.4668,293.59,502.5183" style="stroke:#181818;stroke-width:1.0;"/></g><!--link CRMCLTR to mngc--><g id="link_CRMCLTR_mngc"><path d="M129.07,548.9783 C145.57,545.6683 164.66,541.8583 182,538.4883 C220.1,531.0783 263.24,522.9283 295.69,516.8383 " fill="none" id="CRMCLTR-to-mngc" style="stroke:#181818;stroke-width:1.0;"/><polygon fill="#181818" points="300.54,515.9283,290.9602,513.6419,295.6243,516.8428,292.4235,521.507,300.54,515.9283" style="stroke:#181818;stroke-width:1.0;"/></g><!--link CRMCLTR to sdlshw--><g id="link_CRMCLTR_sdlshw"><path d="M129.19,540.2683 C145.55,531.5683 162.96,519.4083 174,503.4883 C184.33,488.5883 168.63,475.7283 182,463.4883 C211.53,436.4483 257.73,433.5883 293.56,436.5483 " fill="none" id="CRMCLTR-to-sdlshw" style="stroke:#181818;stroke-width:1.0;"/><polygon fill="#181818" points="298.16,436.9783,289.5641,432.171,293.181,436.5204,288.8315,440.1374,298.16,436.9783" style="stroke:#181818;stroke-width:1.0;"/></g><!--link CRMCLTR to gsppstc--><g id="link_CRMCLTR_gsppstc"><path d="M129.15,541.3083 C145.91,532.6683 163.64,520.2883 174,503.4883 C184.42,486.5883 169.22,429.6883 182,414.4883 C194.97,399.0583 212.71,388.7383 231.75,381.8883 " fill="none" id="CRMCLTR-to-gsppstc" style="stroke:#181818;stroke-width:1.0;"/><polygon fill="#181818" points="236.26,380.3583,226.4527,379.454,231.5238,381.9609,229.0169,387.0319,236.26,380.3583" style="stroke:#181818;stroke-width:1.0;"/></g><!--link CRMCLTR to cfgsdl--><g id="link_CRMCLTR_cfgsdl"><path d="M129.05,541.7583 C146.02,533.1483 163.93,520.6683 174,503.4883 C183.9,486.5983 169.39,342.4583 182,327.4883 C201.1,304.8183 230.9,294.4783 259.89,290.2583 " fill="none" id="CRMCLTR-to-cfgsdl" style="stroke:#181818;stroke-width:1.0;"/><polygon fill="#181818" points="264.56,289.6383,255.1124,286.8557,259.6034,290.2954,256.1637,294.7863,264.56,289.6383" style="stroke:#181818;stroke-width:1.0;"/></g><!--link CRMCLTR to subsreq--><g id="link_CRMCLTR_subsreq"><path d="M129.16,541.8183 C146.14,533.2183 164.04,520.7283 174,503.4883 C187.79,479.6183 164.19,276.5383 182,255.4883 C204.76,228.5783 242.81,219.7783 276.51,217.9583 " fill="none" id="CRMCLTR-to-subsreq" style="stroke:#181818;stroke-width:1.0;"/><polygon fill="#181818" points="281.24,217.7583,272.0873,214.1212,276.244,217.9581,272.4071,222.1148,281.24,217.7583" style="stroke:#181818;stroke-width:1.0;"/></g><!--link CRMCLTR to cf--><g id="link_CRMCLTR_cf"><path d="M129.22,541.8483 C146.21,533.2583 164.1,520.7583 174,503.4883 C182.68,488.3483 170.66,202.7483 182,189.4883 C208.84,158.1183 256.69,152.3983 293.79,153.4883 " fill="none" id="CRMCLTR-to-cf" style="stroke:#181818;stroke-width:1.0;"/><polygon fill="#181818" points="298.6,153.6783,289.7671,149.3218,293.604,153.4784,289.4473,157.3154,298.6,153.6783" style="stroke:#181818;stroke-width:1.0;"/></g><!--link showdsg to cf--><g id="link_showdsg_cf"><path d="M121.92,438.2383 C140.81,429.6583 162.56,416.1583 174,396.4883 C185.58,376.5983 166.92,206.8783 182,189.4883 C209.04,158.2883 256.88,152.5583 293.91,153.5883 " fill="none" id="showdsg-to-cf" style="stroke:#181818;stroke-width:1.0;"/><polygon fill="#181818" points="298.71,153.7783,289.8776,149.4208,293.714,153.5779,289.5569,157.4143,298.71,153.7783" style="stroke:#181818;stroke-width:1.0;"/></g><!--link drntch to ldi--><g id="link_drntch_ldi"><path d="M113.73,766.3283 C155.03,758.3483 235.25,742.8583 289.7,732.3383 " fill="none" id="drntch-to-ldi" style="stroke:#181818;stroke-width:1.0;"/><polygon fill="#181818" points="294.39,731.4283,284.7975,729.1957,289.4796,732.3704,286.3049,737.0524,294.39,731.4283" style="stroke:#181818;stroke-width:1.0;"/></g><!--link drntch to ldmh--><g id="link_drntch_ldmh"><path d="M93.36,807.5783 C103.56,854.4683 128.2,935.5283 182,979.4883 C201.49,995.4183 226.44,1004.9283 250.95,1010.5383 " fill="none" id="drntch-to-ldmh" style="stroke:#181818;stroke-width:1.0;"/><polygon fill="#181818" points="255.69,1011.5583,247.7198,1005.7724,250.7995,1010.5175,246.0545,1013.5972,255.69,1011.5583" style="stroke:#181818;stroke-width:1.0;"/></g><!--link drntch to rdfm--><g id="link_drntch_rdfm"><path d="M103.99,807.6883 C119.95,837.6783 146.65,879.0383 182,902.4883 C203.09,916.4783 228.68,925.3483 253.31,930.9683 " fill="none" id="drntch-to-rdfm" style="stroke:#181818;stroke-width:1.0;"/><polygon fill="#181818" points="258.06,931.9983,250.1095,926.1854,253.1731,930.9409,248.4176,934.0045,258.06,931.9983" style="stroke:#181818;stroke-width:1.0;"/></g><!--link drntch to sdfm--><g id="link_drntch_sdfm"><path d="M113.64,790.6283 C132.05,803.0483 157.54,818.6883 182,828.4883 C209.94,839.6883 241.98,847.8683 270.28,853.6483 " fill="none" id="drntch-to-sdfm" style="stroke:#181818;stroke-width:1.0;"/><polygon fill="#181818" points="275.15,854.6183,267.1156,848.9219,270.2482,853.6322,265.5379,856.7648,275.15,854.6183" style="stroke:#181818;stroke-width:1.0;"/></g><!--link drntch to rdfi--><g id="link_drntch_rdfi"><path d="M113.73,773.5583 C147.67,776.1783 207.92,780.8283 258.53,784.7383 " fill="none" id="drntch-to-rdfi" style="stroke:#181818;stroke-width:1.0;"/><polygon fill="#181818" points="263.46,785.1183,254.7953,780.436,258.4749,784.7326,254.1783,788.4122,263.46,785.1183" style="stroke:#181818;stroke-width:1.0;"/></g><!--link drntch to adddti--><g id="link_drntch_adddti"><path d="M88.15,807.6583 C92.14,868.3783 109.31,990.5383 182,1055.4883 C205.6,1076.5683 238.72,1086.0583 269.02,1089.9983 " fill="none" id="drntch-to-adddti" style="stroke:#181818;stroke-width:1.0;"/><polygon fill="#181818" points="273.93,1090.5783,265.4598,1085.5527,268.9643,1089.9932,264.5238,1093.4977,273.93,1090.5783" style="stroke:#181818;stroke-width:1.0;"/></g><!--link CRMCLTR to ldi--><g id="link_CRMCLTR_ldi"><path d="M129.16,573.6583 C145.93,582.2983 163.66,594.6783 174,611.4883 C184.64,628.7783 167.85,687.9383 182,702.4883 C208.9,730.1483 252.86,733.9583 288.49,731.3583 " fill="none" id="CRMCLTR-to-ldi" style="stroke:#181818;stroke-width:1.0;"/><polygon fill="#181818" points="293.07,730.9783,283.7605,727.7638,288.0884,731.4065,284.4456,735.7344,293.07,730.9783" style="stroke:#181818;stroke-width:1.0;"/></g><!--link drntch to cdmdl--><g id="link_drntch_cdmdl"><path d="M89.49,807.7483 C96.93,905.1583 122.29,1169.1483 182,1228.4883 C206.41,1252.7483 243.37,1261.6183 276.02,1264.1383 " fill="none" id="drntch-to-cdmdl" style="stroke:#181818;stroke-width:1.0;"/><polygon fill="#181818" points="280.98,1264.4683,272.2617,1259.8867,275.9908,1264.1404,271.7371,1267.8695,280.98,1264.4683" style="stroke:#181818;stroke-width:1.0;"/></g><!--link drntch to cdlng--><g id="link_drntch_cdlng"><path d="M86.9,807.6183 C88.62,877.1383 101.91,1030.8283 182,1123.4883 C208.45,1154.0883 250.5,1171.9383 285.38,1182.0883 " fill="none" id="drntch-to-cdlng" style="stroke:#181818;stroke-width:1.0;"/><polygon fill="#181818" points="289.9,1183.3583,282.3229,1177.0664,285.0876,1182.0017,280.1523,1184.7663,289.9,1183.3583" style="stroke:#181818;stroke-width:1.0;"/></g><!--link drntch to gfcd--><g id="link_drntch_gfcd"><path d="M87.04,807.4783 C87.96,930.3183 97.51,1330.3783 182,1419.4883 C205.4,1444.1683 241.72,1453.1683 274.22,1455.6683 " fill="none" id="drntch-to-gfcd" style="stroke:#181818;stroke-width:1.0;"/><polygon fill="#181818" points="279.15,1455.9883,270.4317,1451.4067,274.1608,1455.6604,269.9071,1459.3895,279.15,1455.9883" style="stroke:#181818;stroke-width:1.0;"/></g><!--link drntch to gscd--><g id="link_drntch_gscd"><path d="M89.64,807.5183 C97.92,912.1383 126.15,1213.4583 182,1292.4883 C210.3,1332.5283 261.43,1357.8683 299.08,1372.0083 " fill="none" id="drntch-to-gscd" style="stroke:#181818;stroke-width:1.0;"/><polygon fill="#181818" points="303.58,1373.6683,296.5206,1366.8006,298.889,1371.9378,293.7518,1374.3061,303.58,1373.6683" style="stroke:#181818;stroke-width:1.0;"/></g><!--link drntch to tstfigure--><g id="link_drntch_tstfigure"><path d="M88.96,807.7983 C97.16,953.3483 130.65,1489.3583 182,1543.4883 C211.23,1574.2983 260.92,1579.2883 297.94,1577.9483 " fill="none" id="drntch-to-tstfigure" style="stroke:#181818;stroke-width:1.0;"/><polygon fill="#181818" points="302.72,1577.7283,293.536,1574.1709,297.7259,1577.9715,293.9253,1582.1614,302.72,1577.7283" style="stroke:#181818;stroke-width:1.0;"/></g><!--link drntch to tstshw--><g id="link_drntch_tstshw"><path d="M86.43,807.5083 C85.12,938.5083 87.71,1387.0583 182,1485.4883 C211.66,1516.4483 262.01,1521.2583 299.09,1519.8383 " fill="none" id="drntch-to-tstshw" style="stroke:#181818;stroke-width:1.0;"/><polygon fill="#181818" points="303.87,1519.5983,294.686,1516.0409,298.8759,1519.8415,295.0753,1524.0314,303.87,1519.5983" style="stroke:#181818;stroke-width:1.0;"/></g><!--SRC=[ZLNDRjmW4Bxp56WlEKLgNw3IPbVjfUbXDtq05iOs2WQNmOdIQD-zOsDxmSiczS4ICzytFnymuBEsdV2YDKu-W-8AAj6RyDtPy4kqm9zq2yZmDkge_mB_-eNTBHZUEkjauntHW-_XmkQTaC-YXcDuCy0zo21iRI3bOYEKUzMsvfKm22mXB_XtnkbxS5w1tpdZF3yP2ipEZ0KTAFAZq9R_Hk0xGR-z5ZNn6JDG1HuSzxfk0bTw2AYTPMo9p3V7DmpGygqCpYClVnika8k8YBMC2xxPgbRRqRlTFwQEtU6HYhBKkX_TjBxoKoT6d9mNP9b1kvzFXnHtRDmhtmFgsawHa2mAwnIqzyxIne5iHeJoDiY6iK4UblNwGAAvgj8IHc2F84alZ2rDAxw9TGzhZoEkjNMFlWZglEiS2iD9myw800kZwqBEs3LK1N1fDDZ0COZGHx2K608MmqVm4bEo4KLQy_lxRsbTWxwpRSwys984AKwEblGe36AFcLlAkgXDqAXGLk5HDg1weeaH5D7AOFDwZVq1j7iapeYyQ2QiuWZqeoCQEnsZrDXr6EHrc9spbQvx7-FS3JizRBpH68coggc2GgdzgTKX9lVmfuS9Z_q9QLr8v66eDYQRGhC5DXtJNCQrOoL5wbhtb_fMBMGHLzNcjCKytO_KV6RhdOut9jzgkZRPJcUA_2ID9xcrVI6AysyZooZz6OCsggNv5C0AAu4tvBYmswPCFu04_G9JpefcQnfa97jLjMNoSJXK4vC6n9g8Dua7Q5sUDE-MKjveTwlcZ7IOSv9GIeMSDdznL8rxjHQo25cfLS1SYLB0u7zWhZejO3veB3sSSsVdyYcSRxKOdgRv94eolT-yc97OEWKctaxLbkvzZ3nF2KhQqqoT2CRMhD1I7Ybpp8ppyAwif-OJpHHwmzDdvVs3EJYDCKaTn95NIVNPsBo0iGGUAaWdLi0GLpUWoz0cO3gfafwpgb8xbktNANFdaERC_W40]--></g></svg>