<svg xmlns="http://www.w3.org/2000/svg" xmlns:xlink="http://www.w3.org/1999/xlink" contentStyleType="text/css" height="459.9px" preserveAspectRatio="none" style="width:797px;height:459px;background:#FFFFFF;" version="1.1" viewBox="0 0 797 459" width="798px" zoomAndPan="magnify"><title>Register Customer - Domain Model (US220)</title><defs/><g><text fill="#000000" font-family="sans-serif" font-size="9.8" font-weight="bold" lengthAdjust="spacing" textLength="202.57" x="292.815" y="17.5752">Register Customer - Domain Model (US220)</text><!--cluster Customer Management Subsystem--><g id="cluster_Customer Management Subsystem"><rect fill="none" height="423.5" rx="1.75" ry="1.75" style="stroke:#000000;stroke-width:1.0499999999999998;" width="788.9" x="4.9" y="32.6348"/><text fill="#000000" font-family="sans-serif" font-size="9.8" font-weight="bold" lengthAdjust="spacing" textLength="163.3748" x="317.6626" y="44.61">Customer Management Subsystem</text></g><!--class Costumer--><g id="elem_Costumer"><rect codeLine="13" fill="#F1F1F1" height="90.8086" id="Costumer" rx="1.75" ry="1.75" style="stroke:#181818;stroke-width:0.3499999999999999;" width="104.2897" x="540.05" y="139.7348"/><text fill="#000000" font-family="sans-serif" font-size="9.8" lengthAdjust="spacing" textLength="42.4778" x="570.956" y="153.81">Costumer</text><line style="stroke:#181818;stroke-width:0.3499999999999999;" x1="540.75" x2="643.6397" y1="159.7695" y2="159.7695"/><text fill="#000000" font-family="sans-serif" font-size="9.8" lengthAdjust="spacing" textLength="56.1012" x="544.25" y="173.1447">Name: name</text><text fill="#000000" font-family="sans-serif" font-size="9.8" lengthAdjust="spacing" textLength="89.3197" x="544.25" y="186.1795">EmailAddress: email</text><text fill="#000000" font-family="sans-serif" font-size="9.8" lengthAdjust="spacing" textLength="95.8897" x="544.25" y="199.2143">PhoneNumber: phone</text><text fill="#000000" font-family="sans-serif" font-size="9.8" lengthAdjust="spacing" textLength="31.582" x="544.25" y="212.249">NIF: nif</text><text fill="#000000" font-family="sans-serif" font-size="9.8" lengthAdjust="spacing" textLength="76.261" x="544.25" y="225.2838">Address: address</text></g><!--class CustomerRepresentative--><g id="elem_CustomerRepresentative"><rect codeLine="21" fill="#F1F1F1" height="77.7738" id="CustomerRepresentative" rx="1.75" ry="1.75" style="stroke:#181818;stroke-width:0.3499999999999999;" width="112.5934" x="328.65" y="286.0348"/><text fill="#000000" font-family="sans-serif" font-size="9.8" lengthAdjust="spacing" textLength="108.3934" x="330.75" y="300.11">CustomerRepresentative</text><line style="stroke:#181818;stroke-width:0.3499999999999999;" x1="329.35" x2="440.5434" y1="306.0695" y2="306.0695"/><text fill="#000000" font-family="sans-serif" font-size="9.8" lengthAdjust="spacing" textLength="56.1012" x="332.85" y="319.4447">Name: name</text><text fill="#000000" font-family="sans-serif" font-size="9.8" lengthAdjust="spacing" textLength="53.3688" x="332.85" y="332.4795">Email: email</text><text fill="#000000" font-family="sans-serif" font-size="9.8" lengthAdjust="spacing" textLength="95.8897" x="332.85" y="345.5143">PhoneNumber: phone</text><text fill="#000000" font-family="sans-serif" font-size="9.8" lengthAdjust="spacing" textLength="64.8245" x="332.85" y="358.549">String: position</text></g><!--class Name--><g id="elem_Name"><rect codeLine="28" fill="#F1F1F1" height="38.6695" id="Name" rx="1.75" ry="1.75" style="stroke:#181818;stroke-width:0.3499999999999999;" width="62.8742" x="563.5" y="406.4348"/><text fill="#000000" font-family="sans-serif" font-size="9.8" lengthAdjust="spacing" textLength="26.1413" x="581.8665" y="420.51">Name</text><line style="stroke:#181818;stroke-width:0.3499999999999999;" x1="564.2" x2="625.6742" y1="426.4695" y2="426.4695"/><text fill="#000000" font-family="sans-serif" font-size="9.8" lengthAdjust="spacing" textLength="54.4742" x="567.7" y="439.8447">String: value</text></g><!--class EmailAddress--><g id="elem_EmailAddress"><rect codeLine="32" fill="#F1F1F1" height="38.6695" id="EmailAddress" rx="1.75" ry="1.75" style="stroke:#181818;stroke-width:0.3499999999999999;" width="64.6557" x="630.7" y="305.6348"/><text fill="#000000" font-family="sans-serif" font-size="9.8" lengthAdjust="spacing" textLength="60.4557" x="632.8" y="319.71">EmailAddress</text><line style="stroke:#181818;stroke-width:0.3499999999999999;" x1="631.4" x2="694.6557" y1="325.6695" y2="325.6695"/><text fill="#000000" font-family="sans-serif" font-size="9.8" lengthAdjust="spacing" textLength="54.4742" x="634.9" y="339.0447">String: value</text></g><!--class NIF--><g id="elem_NIF"><rect codeLine="36" fill="#F1F1F1" height="38.6695" id="NIF" rx="1.75" ry="1.75" style="stroke:#181818;stroke-width:0.3499999999999999;" width="62.8742" x="719.6" y="305.6348"/><text fill="#000000" font-family="sans-serif" font-size="9.8" lengthAdjust="spacing" textLength="15.7862" x="743.144" y="319.71">NIF</text><line style="stroke:#181818;stroke-width:0.3499999999999999;" x1="720.3" x2="781.7742" y1="325.6695" y2="325.6695"/><text fill="#000000" font-family="sans-serif" font-size="9.8" lengthAdjust="spacing" textLength="54.4742" x="723.8" y="339.0447">String: value</text></g><!--class Address--><g id="elem_Address"><rect codeLine="40" fill="#F1F1F1" height="38.6695" id="Address" rx="1.75" ry="1.75" style="stroke:#181818;stroke-width:0.3499999999999999;" width="87.9245" x="466.2" y="305.6348"/><text fill="#000000" font-family="sans-serif" font-size="9.8" lengthAdjust="spacing" textLength="35.9509" x="492.1868" y="319.71">Address</text><line style="stroke:#181818;stroke-width:0.3499999999999999;" x1="466.9" x2="553.4245" y1="325.6695" y2="325.6695"/><text fill="#000000" font-family="sans-serif" font-size="9.8" lengthAdjust="spacing" textLength="79.5245" x="470.4" y="339.0447">String: fullAddress</text></g><!--class PhoneNumber--><g id="elem_PhoneNumber"><rect codeLine="44" fill="#F1F1F1" height="38.6695" id="PhoneNumber" rx="1.75" ry="1.75" style="stroke:#181818;stroke-width:0.3499999999999999;" width="67.3928" x="451.5" y="406.4348"/><text fill="#000000" font-family="sans-serif" font-size="9.8" lengthAdjust="spacing" textLength="63.1928" x="453.6" y="420.51">PhoneNumber</text><line style="stroke:#181818;stroke-width:0.3499999999999999;" x1="452.2" x2="518.1928" y1="426.4695" y2="426.4695"/><text fill="#000000" font-family="sans-serif" font-size="9.8" lengthAdjust="spacing" textLength="54.4742" x="455.7" y="439.8447">String: value</text></g><!--class Email--><g id="elem_Email"><rect codeLine="48" fill="#F1F1F1" height="38.6695" id="Email" rx="1.75" ry="1.75" style="stroke:#181818;stroke-width:0.3499999999999999;" width="62.8646" x="353.5" y="406.4348"/><text fill="#000000" font-family="sans-serif" font-size="9.8" lengthAdjust="spacing" textLength="24.5048" x="372.6799" y="420.51">Email</text><line style="stroke:#181818;stroke-width:0.3499999999999999;" x1="354.2" x2="415.6646" y1="426.4695" y2="426.4695"/><text fill="#000000" font-family="sans-serif" font-size="9.8" lengthAdjust="spacing" textLength="54.4646" x="357.7" y="439.8447">String: email</text></g><!--class CostumerRepository--><g id="elem_CostumerRepository"><rect codeLine="52" fill="#F1F1F1" height="25.6348" id="CostumerRepository" rx="1.75" ry="1.75" style="stroke:#181818;stroke-width:0.3499999999999999;" width="93.5197" x="669.2" y="172.2848"/><text fill="#000000" font-family="sans-serif" font-size="9.8" font-style="italic" lengthAdjust="spacing" textLength="89.3197" x="671.3" y="186.36">CostumerRepository</text><line style="stroke:#181818;stroke-width:0.3499999999999999;" x1="669.9" x2="762.0197" y1="192.3195" y2="192.3195"/></g><!--class CustomerRepresentativeRepository--><g id="elem_CustomerRepresentativeRepository"><rect codeLine="56" fill="#F1F1F1" height="25.6348" id="CustomerRepresentativeRepository" rx="1.75" ry="1.75" style="stroke:#181818;stroke-width:0.3499999999999999;" width="159.4353" x="16.1" y="311.9348"/><text fill="#000000" font-family="sans-serif" font-size="9.8" font-style="italic" lengthAdjust="spacing" textLength="155.2353" x="18.2" y="326.01">CustomerRepresentativeRepository</text><line style="stroke:#181818;stroke-width:0.3499999999999999;" x1="16.8" x2="174.8353" y1="331.9695" y2="331.9695"/></g><!--class RegisterCustomerController--><g id="elem_RegisterCustomerController"><rect codeLine="60" fill="#F1F1F1" height="25.6348" id="RegisterCustomerController" rx="1.75" ry="1.75" style="stroke:#181818;stroke-width:0.3499999999999999;" width="125.6521" x="576.8" y="58.5348"/><text fill="#000000" font-family="sans-serif" font-size="9.8" lengthAdjust="spacing" textLength="121.4521" x="578.9" y="72.61">RegisterCustomerController</text><line style="stroke:#181818;stroke-width:0.3499999999999999;" x1="577.5" x2="701.7521" y1="78.5695" y2="78.5695"/></g><!--class RegisterRepresentativeController--><g id="elem_RegisterRepresentativeController"><rect codeLine="64" fill="#F1F1F1" height="25.6348" id="RegisterRepresentativeController" rx="1.75" ry="1.75" style="stroke:#181818;stroke-width:0.3499999999999999;" width="149.0897" x="177.45" y="172.2848"/><text fill="#000000" font-family="sans-serif" font-size="9.8" lengthAdjust="spacing" textLength="144.8897" x="179.55" y="186.36">RegisterRepresentativeController</text><line style="stroke:#181818;stroke-width:0.3499999999999999;" x1="178.15" x2="325.8397" y1="192.3195" y2="192.3195"/></g><!--class RegisterUserController--><g id="elem_RegisterUserController"><rect codeLine="68" fill="#F1F1F1" height="25.6348" id="RegisterUserController" rx="1.75" ry="1.75" style="stroke:#181818;stroke-width:0.3499999999999999;" width="103.8652" x="200.2" y="311.9348"/><text fill="#000000" font-family="sans-serif" font-size="9.8" lengthAdjust="spacing" textLength="99.6652" x="202.3" y="326.01">RegisterUserController</text><line style="stroke:#181818;stroke-width:0.3499999999999999;" x1="200.9" x2="303.3652" y1="331.9695" y2="331.9695"/></g><!--link RegisterCustomerController to CostumerRepository--><g id="link_RegisterCustomerController_CostumerRepository"><path codeLine="72" d="M652.169,84.6028 C657.881,90.6368 664.566,98.1478 669.9,105.4348 C686.252,127.7578 699.7917,152.542 708.0237,168.523 " fill="none" id="RegisterCustomerController-to-CostumerRepository" style="stroke:#181818;stroke-width:0.6999999999999998;"/><polygon fill="#181818" points="709.947,172.2568,709.5512,165.3739,708.3442,169.1453,704.5729,167.9383,709.947,172.2568" style="stroke:#181818;stroke-width:0.6999999999999998;"/><polygon fill="#000000" points="683.7392,115.1003,681.9437,108.6896,678.5185,110.9693,683.7392,115.1003" style="stroke:#000000;stroke-width:0.6999999999999998;"/><text fill="#000000" font-family="sans-serif" font-size="9.1" lengthAdjust="spacing" textLength="19.222" x="688.1" y="115.9546">uses</text></g><!--link RegisterCustomerController to Costumer--><g id="link_RegisterCustomerController_Costumer"><path codeLine="73" d="M634.522,84.6378 C628.887,97.9518 621.2499,115.9663 612.8219,135.8673 " fill="none" id="RegisterCustomerController-to-Costumer" style="stroke:#181818;stroke-width:0.6999999999999998;"/><polygon fill="#181818" points="611.184,139.7348,616.2191,135.0255,612.5489,136.5119,611.0625,132.8416,611.184,139.7348" style="stroke:#181818;stroke-width:0.6999999999999998;"/><polygon fill="#000000" points="626.5349,115.4094,630.8987,110.3817,627.1101,108.7769,626.5349,115.4094" style="stroke:#000000;stroke-width:0.6999999999999998;"/><text fill="#000000" font-family="sans-serif" font-size="9.1" lengthAdjust="spacing" textLength="29.8416" x="634.2" y="115.9546">creates</text></g><!--link RegisterRepresentativeController to CustomerRepresentativeRepository--><g id="link_RegisterRepresentativeController_CustomerRepresentativeRepository"><path codeLine="75" d="M238.147,198.2058 C208.6,224.3718 142.808,282.641 113.093,308.961 " fill="none" id="RegisterRepresentativeController-to-CustomerRepresentativeRepository" style="stroke:#181818;stroke-width:0.6999999999999998;"/><polygon fill="#181818" points="109.949,311.7458,116.5216,309.6646,112.569,309.4251,112.8085,305.4725,109.949,311.7458" style="stroke:#181818;stroke-width:0.6999999999999998;"/><polygon fill="#000000" points="174.4799,260.8072,180.5837,258.1493,177.8557,255.0692,174.4799,260.8072" style="stroke:#000000;stroke-width:0.6999999999999998;"/><text fill="#000000" font-family="sans-serif" font-size="9.1" lengthAdjust="spacing" textLength="19.222" x="183.4" y="262.2546">uses</text></g><!--link RegisterRepresentativeController to CustomerRepresentative--><g id="link_RegisterRepresentativeController_CustomerRepresentative"><path codeLine="76" d="M263.802,198.2058 C282.555,217.7008 317.0233,253.5239 345.3383,282.9589 " fill="none" id="RegisterRepresentativeController-to-CustomerRepresentative" style="stroke:#181818;stroke-width:0.6999999999999998;"/><polygon fill="#181818" points="348.25,285.9858,345.9004,279.5043,345.8236,283.4634,341.8645,283.3866,348.25,285.9858" style="stroke:#181818;stroke-width:0.6999999999999998;"/><polygon fill="#000000" points="332.1265,261.0089,329.2194,255.0198,326.2543,257.8723,332.1265,261.0089" style="stroke:#000000;stroke-width:0.6999999999999998;"/><text fill="#000000" font-family="sans-serif" font-size="9.1" lengthAdjust="spacing" textLength="29.8416" x="336" y="262.2546">creates</text></g><!--link RegisterRepresentativeController to RegisterUserController--><g id="link_RegisterRepresentativeController_RegisterUserController"><path codeLine="77" d="M252,198.2058 C252,224.3718 252,281.2258 252,307.5458 " fill="none" id="RegisterRepresentativeController-to-RegisterUserController" style="stroke:#181818;stroke-width:0.6999999999999998;"/><polygon fill="#181818" points="252,311.7458,254.8,305.4458,252,308.2458,249.2,305.4458,252,311.7458" style="stroke:#181818;stroke-width:0.6999999999999998;"/><polygon fill="#000000" points="255.5,261.9866,257.5572,255.6551,253.4428,255.6551,255.5,261.9866" style="stroke:#000000;stroke-width:0.6999999999999998;"/><text fill="#000000" font-family="sans-serif" font-size="9.1" lengthAdjust="spacing" textLength="39.4659" x="261.8" y="262.2546">delegates</text></g><!--link Costumer to CustomerRepresentative--><g id="link_Costumer_CustomerRepresentative"><path codeLine="79" d="M539.917,220.8228 C509.88,240.8568 475.6508,263.6977 444.9418,284.1867 " fill="none" id="Costumer-to-CustomerRepresentative" style="stroke:#181818;stroke-width:0.6999999999999998;"/><polygon fill="#181818" points="441.448,286.5178,448.2426,285.3504,444.3595,284.5752,445.1346,280.6921,441.448,286.5178" style="stroke:#181818;stroke-width:0.6999999999999998;"/><polygon fill="#000000" points="489.1885,260.4291,495.5972,258.6265,493.3137,255.2038,489.1885,260.4291" style="stroke:#000000;stroke-width:0.6999999999999998;"/><text fill="#000000" font-family="sans-serif" font-size="9.1" lengthAdjust="spacing" textLength="14.672" x="498.4" y="262.2546">has</text><text fill="#000000" font-family="sans-serif" font-size="9.1" lengthAdjust="spacing" textLength="5.061" x="529.3815" y="221.8194">1</text><text fill="#000000" font-family="sans-serif" font-size="9.1" lengthAdjust="spacing" textLength="3.5414" x="446.8199" y="280.3581">*</text></g><!--link Costumer to Name--><g id="link_Costumer_Name"><path codeLine="80" d="M592.725,230.8958 C593.341,283.6478 594.2926,364.4491 594.7336,401.9621 " fill="none" id="Costumer-to-Name" style="stroke:#181818;stroke-width:0.6999999999999998;"/><polygon fill="#181818" points="594.783,406.1618,597.5087,399.8293,594.7419,402.662,591.9091,399.8951,594.783,406.1618" style="stroke:#181818;stroke-width:0.6999999999999998;"/></g><!--link Costumer to EmailAddress--><g id="link_Costumer_EmailAddress"><path codeLine="81" d="M615.153,230.8188 C628.096,256.1308 641.6688,282.6588 651.4128,301.7268 " fill="none" id="Costumer-to-EmailAddress" style="stroke:#181818;stroke-width:0.6999999999999998;"/><polygon fill="#181818" points="653.324,305.4668,652.9506,298.5827,651.7314,302.3501,647.9639,301.1309,653.324,305.4668" style="stroke:#181818;stroke-width:0.6999999999999998;"/></g><!--link Costumer to PhoneNumber--><g id="link_Costumer_PhoneNumber"><path codeLine="82" d="M587.657,230.7418 C582.414,279.6368 573.664,352.4858 567,363.7348 C555.737,382.7538 539.6498,395.5932 522.4088,405.9882 " fill="none" id="Costumer-to-PhoneNumber" style="stroke:#181818;stroke-width:0.6999999999999998;"/><polygon fill="#181818" points="518.812,408.1568,525.653,407.3017,521.8094,406.3496,522.7615,402.506,518.812,408.1568" style="stroke:#181818;stroke-width:0.6999999999999998;"/></g><!--link Costumer to NIF--><g id="link_Costumer_NIF"><path codeLine="83" d="M644.301,230.9518 C664.167,248.1578 687.008,267.9748 707.7,286.0348 C714.959,292.3698 719.7245,296.5374 726.7805,302.7534 " fill="none" id="Costumer-to-NIF" style="stroke:#181818;stroke-width:0.6999999999999998;"/><polygon fill="#181818" points="729.932,305.5298,727.0556,299.2643,727.3057,303.2162,723.3539,303.4663,729.932,305.5298" style="stroke:#181818;stroke-width:0.6999999999999998;"/></g><!--link Costumer to Address--><g id="link_Costumer_Address"><path codeLine="84" d="M565.607,230.8188 C550.613,256.1308 534.827,282.7854 523.529,301.8534 " fill="none" id="Costumer-to-Address" style="stroke:#181818;stroke-width:0.6999999999999998;"/><polygon fill="#181818" points="521.388,305.4668,527.0083,301.474,523.1721,302.4556,522.1905,298.6194,521.388,305.4668" style="stroke:#181818;stroke-width:0.6999999999999998;"/></g><!--link CustomerRepresentative to Name--><g id="link_CustomerRepresentative_Name"><path codeLine="86" d="M441.504,357.2458 C445.809,359.4858 450.107,361.6768 454.3,363.7348 C491.12,381.8368 530.6719,398.7233 559.4419,410.5813 " fill="none" id="CustomerRepresentative-to-Name" style="stroke:#181818;stroke-width:0.6999999999999998;"/><polygon fill="#181818" points="563.325,412.1818,558.5673,407.1923,560.0891,410.848,556.4334,412.3698,563.325,412.1818" style="stroke:#181818;stroke-width:0.6999999999999998;"/></g><!--link CustomerRepresentative to Email--><g id="link_CustomerRepresentative_Email"><path codeLine="87" d="M385,364.0148 C385,378.5468 385,390.2368 385,402.1508 " fill="none" id="CustomerRepresentative-to-Email" style="stroke:#181818;stroke-width:0.6999999999999998;"/><polygon fill="#181818" points="385,406.3508,387.8,400.0508,385,402.8508,382.2,400.0508,385,406.3508" style="stroke:#181818;stroke-width:0.6999999999999998;"/></g><!--link CustomerRepresentative to PhoneNumber--><g id="link_CustomerRepresentative_PhoneNumber"><path codeLine="88" d="M423.703,364.0148 C438.333,378.5468 451.3547,391.4774 463.3527,403.3914 " fill="none" id="CustomerRepresentative-to-PhoneNumber" style="stroke:#181818;stroke-width:0.6999999999999998;"/><polygon fill="#181818" points="466.333,406.3508,463.8355,399.9248,463.8494,403.8846,459.8897,403.8985,466.333,406.3508" style="stroke:#181818;stroke-width:0.6999999999999998;"/></g><!--SRC=[dLJDRgCm4BxxAKQSqkqcwlQ8Lf5MsLRAeTbLepx012PWrTZ8DgcYgk- -DWak5CZFSeZ2pFVdiR5vvR94ZGKKIgearweWiBeYPaAdnEGLCrhRlI3Gb5YKcMW3J8wfUkCoWoqAGunPRXtqcJ9kB6bOLCOwNGrJ-AqAv1AUL4e29Y_h-_kx6yPodX8aN2U2pE6b89khr31sD8SeY3oXT8M2f8LrjJ5xPr54yCuOk2SHQ0mibB6LnxxNHV-iiA0OfFiDfGSNHVnAKqt6n43-BVJ-vahIgYesf6Ce_SkdqlBH2V5jA0G9FFof6n-TFCViprGwW4kEbk_eWdHNn5fRxNR0LPNXbYlPJ-5DMfuDOOUYeZwwFPtBMMuubuF7rRULQBpxjDOGhbpE0FnplaSub-x8RZ6XS8hShlcPAhrlyMyDxcWfrwvCamRvtQ__9eO_fTy153-Rndp4OV1SZFjDXWdESQTusbzqymKsj8MILYiXEeExrLzGazbiTdOHNODkdjCsNUpHRAEK89JZ3Y_cN7oF65SxCOhfT3wqrp5KXWpChw4xKg89RSth44SdLDFFdOF1BFyXsSbtiTR87iJWBd7AsgiDSuX-H3Kr-XQDHycnYH5udhDghi5EjNqVzRkjEs50SFdOBpPIXyvmn6wQSSn3k4HEWDeHFzW_]--></g></svg>