<?xml version="1.0" encoding="UTF-8" standalone="no"?><svg xmlns="http://www.w3.org/2000/svg" xmlns:xlink="http://www.w3.org/1999/xlink" contentScriptType="application/ecmascript" contentStyleType="text/css" height="283px" preserveAspectRatio="none" style="width:354px;height:283px;" version="1.1" viewBox="0 0 354 283" width="354px" zoomAndPan="magnify"><defs><filter height="300%" id="f19fomvyp77mr5" width="300%" x="-1" y="-1"><feGaussianBlur result="blurOut" stdDeviation="2.0"/><feColorMatrix in="blurOut" result="blurOut2" type="matrix" values="0 0 0 0 0 0 0 0 0 0 0 0 0 0 0 0 0 0 .4 0"/><feOffset dx="4.0" dy="4.0" in="blurOut2" result="blurOut3"/><feBlend in="SourceGraphic" in2="blurOut3" mode="normal"/></filter></defs><g><!--MD5=[ac32fdb6b1583a963df6fd85d013532e]
cluster factories.impl--><polygon fill="#FFFFFF" filter="url(#f19fomvyp77mr5)" points="71,141.95,176,141.95,183,164.4383,277,164.4383,277,253.91,71,253.91,71,141.95" style="stroke: #000000; stroke-width: 1.5;"/><line style="stroke: #000000; stroke-width: 1.5;" x1="71" x2="183" y1="164.4383" y2="164.4383"/><text fill="#000000" font-family="sans-serif" font-size="14" font-weight="bold" lengthAdjust="spacingAndGlyphs" textLength="99" x="75" y="157.4852">factories.impl</text><!--MD5=[9924618b55dd3727aa6057b8427147b7]
cluster eapli.framework.domain.model--><polygon fill="#FFFFFF" filter="url(#f19fomvyp77mr5)" points="16,6,243,6,250,28.4883,332,28.4883,332,117.95,16,117.95,16,6" style="stroke: #000000; stroke-width: 1.5;"/><line style="stroke: #000000; stroke-width: 1.5;" x1="16" x2="250" y1="28.4883" y2="28.4883"/><text fill="#000000" font-family="sans-serif" font-size="14" font-weight="bold" lengthAdjust="spacingAndGlyphs" textLength="221" x="20" y="21.5352">eapli.framework.domain.model</text><!--MD5=[11c875b6ab44a78ef898de1588dde805]
class factories.impl.ShowRequestFactoryImpl--><a href="ShowRequestFactoryImpl.html" target="_top" title="ShowRequestFactoryImpl.html" xlink:actuate="onRequest" xlink:href="ShowRequestFactoryImpl.html" xlink:show="new" xlink:title="ShowRequestFactoryImpl.html" xlink:type="simple"><rect codeLine="3" fill="#FEFECE" filter="url(#f19fomvyp77mr5)" height="60.9551" id="factories.impl.ShowRequestFactoryImpl" style="stroke: #A80036; stroke-width: 1.5;" width="174" x="87" y="176.95"/><ellipse cx="102" cy="192.95" fill="#ADD1B2" rx="11" ry="11" style="stroke: #A80036; stroke-width: 1.0;"/><path d="M104.4731,199.0931 Q103.8921,199.3919 103.2529,199.5413 Q102.6138,199.6907 101.9082,199.6907 Q99.4014,199.6907 98.0815,198.0389 Q96.7617,196.387 96.7617,193.2659 Q96.7617,190.1365 98.0815,188.4847 Q99.4014,186.8328 101.9082,186.8328 Q102.6138,186.8328 103.2612,186.9822 Q103.9087,187.1316 104.4731,187.4305 L104.4731,190.1531 Q103.8423,189.5721 103.2488,189.3023 Q102.6553,189.0325 102.0244,189.0325 Q100.6797,189.0325 99.9949,190.0992 Q99.3101,191.1658 99.3101,193.2659 Q99.3101,195.3577 99.9949,196.4244 Q100.6797,197.491 102.0244,197.491 Q102.6553,197.491 103.2488,197.2212 Q103.8423,196.9515 104.4731,196.3704 Z "/><text fill="#000000" font-family="sans-serif" font-size="12" lengthAdjust="spacingAndGlyphs" textLength="142" x="116" y="197.4852">ShowRequestFactoryImpl</text><line style="stroke: #A80036; stroke-width: 1.5;" x1="88" x2="260" y1="208.95" y2="208.95"/><line style="stroke: #A80036; stroke-width: 1.5;" x1="88" x2="260" y1="216.95" y2="216.95"/><ellipse cx="98" cy="227.95" fill="#84BE84" rx="3" ry="3" style="stroke: #038048; stroke-width: 1.0;"/><text fill="#000000" font-family="sans-serif" font-size="11" lengthAdjust="spacingAndGlyphs" textLength="112" x="107" y="231.5848">build(): ShowRequest</text></a><!--MD5=[e2d268cf9ed8c63b2fbfa9dd65f8d87c]
class eapli.framework.domain.model.DomainFactory--><rect codeLine="11" fill="#FEFECE" filter="url(#f19fomvyp77mr5)" height="60.9551" id="eapli.framework.domain.model.DomainFactory" style="stroke: #A80036; stroke-width: 1.5;" width="283" x="32.5" y="41"/><ellipse cx="47.5" cy="57" fill="#B4A7E5" rx="11" ry="11" style="stroke: #A80036; stroke-width: 1.0;"/><path d="M43.9277,53.2651 L43.9277,51.1069 L51.3071,51.1069 L51.3071,53.2651 L48.8418,53.2651 L48.8418,61.3418 L51.3071,61.3418 L51.3071,63.5 L43.9277,63.5 L43.9277,61.3418 L46.3931,61.3418 L46.3931,53.2651 Z "/><text fill="#000000" font-family="sans-serif" font-size="12" font-style="italic" lengthAdjust="spacingAndGlyphs" textLength="85" x="61.5" y="61.5352">DomainFactory</text><rect fill="#FFFFFF" height="16.1328" style="stroke: #000000; stroke-width: 1.0; stroke-dasharray: 2.0,2.0;" width="164" x="154.5" y="38"/><text fill="#000000" font-family="sans-serif" font-size="12" font-style="italic" lengthAdjust="spacingAndGlyphs" textLength="162" x="155.5" y="50.6016">T extends DomainEntity&lt;?&gt;</text><line style="stroke: #A80036; stroke-width: 1.5;" x1="33.5" x2="314.5" y1="73" y2="73"/><line style="stroke: #A80036; stroke-width: 1.5;" x1="33.5" x2="314.5" y1="81" y2="81"/><ellipse cx="43.5" cy="92" fill="#84BE84" rx="3" ry="3" style="stroke: #038048; stroke-width: 1.0;"/><text fill="#000000" font-family="sans-serif" font-size="11" font-style="italic" lengthAdjust="spacingAndGlyphs" textLength="191" x="52.5" y="95.6348">build(): T extends DomainEntity&lt;?&gt;</text><!--MD5=[ca100428b03313e45aa22a15a47ef777]
reverse link eapli.framework.domain.model.DomainFactory to factories.impl.ShowRequestFactoryImpl--><path codeLine="7" d="M174,123.67 C174,141.63 174,161.19 174,176.79 " fill="none" id="eapli.framework.domain.model.DomainFactory-backto-factories.impl.ShowRequestFactoryImpl" style="stroke: #A80036; stroke-width: 1.0; stroke-dasharray: 7.0,7.0;"/><polygon fill="none" points="167,123.72,174,103.72,181,123.72,167,123.72" style="stroke: #A80036; stroke-width: 1.0;"/><text fill="#888888" font-family="sans-serif" font-size="10" lengthAdjust="spacingAndGlyphs" textLength="188" x="74" y="269.578">UMLDoclet 2.0.12, PlantUML 1.2020.16</text><!--MD5=[d9fc9b05e7d9965597a2b624c1c9204b]
@startuml
    namespace factories.impl {

        class ShowRequestFactoryImpl [[ShowRequestFactoryImpl.html]] {
            +build(): ShowRequest
        }

        eapli.framework.domain.model.DomainFactory <|.. ShowRequestFactoryImpl
    }

    namespace eapli.framework.domain.model {
        interface DomainFactory<T extends DomainEntity<?>> {
            {abstract} +build(): T extends DomainEntity<?>
        }
    }

    center footer UMLDoclet 2.0.12, PlantUML 1.2020.16
@enduml

PlantUML version 1.2020.16(Sun Aug 23 21:20:43 WEST 2020)
(APACHE source distribution)
Java Runtime: OpenJDK Runtime Environment
JVM: OpenJDK 64-Bit Server VM
Default Encoding: UTF-8
Language: pt
Country: PT
--></g></svg>