<?xml version="1.0" encoding="UTF-8" standalone="no"?><svg xmlns="http://www.w3.org/2000/svg" xmlns:xlink="http://www.w3.org/1999/xlink" contentScriptType="application/ecmascript" contentStyleType="text/css" height="294px" preserveAspectRatio="none" style="width:334px;height:294px;" version="1.1" viewBox="0 0 334 294" width="334px" zoomAndPan="magnify"><defs><filter height="300%" id="f19fomvyp77mr5" width="300%" x="-1" y="-1"><feGaussianBlur result="blurOut" stdDeviation="2.0"/><feColorMatrix in="blurOut" result="blurOut2" type="matrix" values="0 0 0 0 0 0 0 0 0 0 0 0 0 0 0 0 0 0 .4 0"/><feOffset dx="4.0" dy="4.0" in="blurOut2" result="blurOut3"/><feBlend in="SourceGraphic" in2="blurOut3" mode="normal"/></filter></defs><g><!--MD5=[ac32fdb6b1583a963df6fd85d013532e]
cluster factories.impl--><polygon fill="#FFFFFF" filter="url(#f19fomvyp77mr5)" points="61,147.602,162,147.602,169,172.6699,267,172.6699,267,264.602,61,264.602,61,147.602" style="stroke: #000000; stroke-width: 1.5;"/><line style="stroke: #000000; stroke-width: 1.5;" x1="61" x2="169" y1="172.6699" y2="172.6699"/><text fill="#000000" font-family="sans-serif" font-size="14" font-weight="bold" lengthAdjust="spacingAndGlyphs" textLength="95" x="65" y="164.5679">factories.impl</text><!--MD5=[9924618b55dd3727aa6057b8427147b7]
cluster eapli.framework.domain.model--><polygon fill="#FFFFFF" filter="url(#f19fomvyp77mr5)" points="16,6.602,241,6.602,248,31.6699,312,31.6699,312,123.602,16,123.602,16,6.602" style="stroke: #000000; stroke-width: 1.5;"/><line style="stroke: #000000; stroke-width: 1.5;" x1="16" x2="248" y1="31.6699" y2="31.6699"/><text fill="#000000" font-family="sans-serif" font-size="14" font-weight="bold" lengthAdjust="spacingAndGlyphs" textLength="219" x="20" y="23.5679">eapli.framework.domain.model</text><!--MD5=[11c875b6ab44a78ef898de1588dde805]
class factories.impl.ShowRequestFactoryImpl--><a href="ShowRequestFactoryImpl.html" target="_top" title="ShowRequestFactoryImpl.html" xlink:actuate="onRequest" xlink:href="ShowRequestFactoryImpl.html" xlink:show="new" xlink:title="ShowRequestFactoryImpl.html" xlink:type="simple"><rect codeLine="3" fill="#FEFECE" filter="url(#f19fomvyp77mr5)" height="62.9819" id="factories.impl.ShowRequestFactoryImpl" style="stroke: #A80036; stroke-width: 1.5;" width="173" x="77.5" y="185.602"/><ellipse cx="92.5" cy="201.602" fill="#ADD1B2" rx="11" ry="11" style="stroke: #A80036; stroke-width: 1.0;"/><path d="M95.4688,207.2426 Q94.8906,207.5395 94.25,207.6801 Q93.6094,207.8364 92.9063,207.8364 Q90.4063,207.8364 89.0781,206.1957 Q87.7656,204.5395 87.7656,201.4145 Q87.7656,198.2895 89.0781,196.6332 Q90.4063,194.977 92.9063,194.977 Q93.6094,194.977 94.25,195.1332 Q94.9063,195.2895 95.4688,195.5864 L95.4688,198.3051 Q94.8438,197.727 94.25,197.4614 Q93.6563,197.1801 93.0313,197.1801 Q91.6875,197.1801 91,198.2582 Q90.3125,199.3207 90.3125,201.4145 Q90.3125,203.5082 91,204.5864 Q91.6875,205.6489 93.0313,205.6489 Q93.6563,205.6489 94.25,205.3832 Q94.8438,205.102 95.4688,204.5239 L95.4688,207.2426 Z "/><text fill="#000000" font-family="sans-serif" font-size="12" lengthAdjust="spacingAndGlyphs" textLength="141" x="106.5" y="206.258">ShowRequestFactoryImpl</text><line style="stroke: #A80036; stroke-width: 1.5;" x1="78.5" x2="249.5" y1="217.602" y2="217.602"/><line style="stroke: #A80036; stroke-width: 1.5;" x1="78.5" x2="249.5" y1="225.602" y2="225.602"/><ellipse cx="88.5" cy="236.602" fill="#84BE84" rx="3" ry="3" style="stroke: #038048; stroke-width: 1.0;"/><text fill="#000000" font-family="sans-serif" font-size="11" lengthAdjust="spacingAndGlyphs" textLength="110" x="97.5" y="241.3609">build(): ShowRequest</text></a><!--MD5=[e2d268cf9ed8c63b2fbfa9dd65f8d87c]
class eapli.framework.domain.model.DomainFactory--><rect codeLine="11" fill="#FEFECE" filter="url(#f19fomvyp77mr5)" height="62.9819" id="eapli.framework.domain.model.DomainFactory" style="stroke: #A80036; stroke-width: 1.5;" width="264" x="32" y="44.602"/><ellipse cx="47" cy="60.602" fill="#B4A7E5" rx="11" ry="11" style="stroke: #A80036; stroke-width: 1.0;"/><path d="M42.9219,56.3676 L42.9219,54.2114 L50.3125,54.2114 L50.3125,56.3676 L47.8438,56.3676 L47.8438,64.4457 L50.3125,64.4457 L50.3125,66.602 L42.9219,66.602 L42.9219,64.4457 L45.3906,64.4457 L45.3906,56.3676 L42.9219,56.3676 Z "/><text fill="#000000" font-family="sans-serif" font-size="12" font-style="italic" lengthAdjust="spacingAndGlyphs" textLength="83" x="61" y="65.258">DomainFactory</text><rect fill="#FFFFFF" height="18.3441" style="stroke: #000000; stroke-width: 1.0; stroke-dasharray: 2.0,2.0;" width="147" x="152" y="41.602"/><text fill="#000000" font-family="sans-serif" font-size="12" font-style="italic" lengthAdjust="spacingAndGlyphs" textLength="145" x="153" y="55.4301">T extends DomainEntity&lt;?&gt;</text><line style="stroke: #A80036; stroke-width: 1.5;" x1="33" x2="295" y1="76.602" y2="76.602"/><line style="stroke: #A80036; stroke-width: 1.5;" x1="33" x2="295" y1="84.602" y2="84.602"/><ellipse cx="43" cy="95.602" fill="#84BE84" rx="3" ry="3" style="stroke: #038048; stroke-width: 1.0;"/><text fill="#000000" font-family="sans-serif" font-size="11" font-style="italic" lengthAdjust="spacingAndGlyphs" textLength="167" x="52" y="100.3609">build(): T extends DomainEntity&lt;?&gt;</text><!--MD5=[ca100428b03313e45aa22a15a47ef777]
reverse link eapli.framework.domain.model.DomainFactory to factories.impl.ShowRequestFactoryImpl--><path codeLine="7" d="M164,127.722 C164,146.972 164,168.302 164,185.192 " fill="none" id="eapli.framework.domain.model.DomainFactory-backto-factories.impl.ShowRequestFactoryImpl" style="stroke: #A80036; stroke-width: 1.0; stroke-dasharray: 7.0,7.0;"/><polygon fill="none" points="157,127.602,164,107.602,171,127.602,157,127.602" style="stroke: #A80036; stroke-width: 1.0;"/><text fill="#888888" font-family="sans-serif" font-size="10" lengthAdjust="spacingAndGlyphs" textLength="188" x="64" y="281.292">UMLDoclet 2.0.12, PlantUML 1.2020.16</text><!--MD5=[7ce68bb4559462218913144bcf7f76eb]
@startuml
    namespace factories.impl {

        class ShowRequestFactoryImpl [[ShowRequestFactoryImpl.html]] {
            +build(): ShowRequest
        }

        eapli.framework.domain.model.DomainFactory <|.. ShowRequestFactoryImpl
    }

    namespace eapli.framework.domain.model {
        interface DomainFactory<T extends DomainEntity<?>> {
            {abstract} +build(): T extends DomainEntity<?>
        }
    }

    center footer UMLDoclet 2.0.12, PlantUML 1.2020.16
@enduml

PlantUML version 1.2020.16(Sun Aug 23 21:20:43 WEST 2020)
(APACHE source distribution)
Java Runtime: Java(TM) SE Runtime Environment
JVM: Java HotSpot(TM) 64-Bit Server VM
Default Encoding: UTF-8
Language: en
Country: US
--></g></svg>