<?xml version="1.0" encoding="UTF-8" standalone="no"?><svg xmlns="http://www.w3.org/2000/svg" xmlns:xlink="http://www.w3.org/1999/xlink" contentScriptType="application/ecmascript" contentStyleType="text/css" height="238px" preserveAspectRatio="none" style="width:279px;height:238px;" version="1.1" viewBox="0 0 279 238" width="279px" zoomAndPan="magnify"><defs><filter height="300%" id="f1lzbuq5acjdmt" width="300%" x="-1" y="-1"><feGaussianBlur result="blurOut" stdDeviation="2.0"/><feColorMatrix in="blurOut" result="blurOut2" type="matrix" values="0 0 0 0 0 0 0 0 0 0 0 0 0 0 0 0 0 0 .4 0"/><feOffset dx="4.0" dy="4.0" in="blurOut2" result="blurOut3"/><feBlend in="SourceGraphic" in2="blurOut3" mode="normal"/></filter></defs><g><!--MD5=[11c875b6ab44a78ef898de1588dde805]
class factories.impl.ShowRequestFactoryImpl--><a href="ShowRequestFactoryImpl.html" target="_top" title="ShowRequestFactoryImpl.html" xlink:actuate="onRequest" xlink:href="ShowRequestFactoryImpl.html" xlink:show="new" xlink:title="ShowRequestFactoryImpl.html" xlink:type="simple"><rect codeLine="5" fill="#FEFECE" filter="url(#f1lzbuq5acjdmt)" height="65.6698" id="factories.impl.ShowRequestFactoryImpl" style="stroke: #A80036; stroke-width: 1.5;" width="202" x="32.5" y="136.016"/><ellipse cx="47.5" cy="157.36" fill="#ADD1B2" rx="11" ry="11" style="stroke: #A80036; stroke-width: 1.0;"/><path d="M50.4688,163.0006 Q49.8906,163.2975 49.25,163.4381 Q48.6094,163.5944 47.9063,163.5944 Q45.4063,163.5944 44.0781,161.9537 Q42.7656,160.2975 42.7656,157.1725 Q42.7656,154.0475 44.0781,152.3912 Q45.4063,150.735 47.9063,150.735 Q48.6094,150.735 49.25,150.8912 Q49.9063,151.0475 50.4688,151.3444 L50.4688,154.0631 Q49.8438,153.485 49.25,153.2194 Q48.6563,152.9381 48.0313,152.9381 Q46.6875,152.9381 46,154.0162 Q45.3125,155.0787 45.3125,157.1725 Q45.3125,159.2662 46,160.3444 Q46.6875,161.4069 48.0313,161.4069 Q48.6563,161.4069 49.25,161.1412 Q49.8438,160.86 50.4688,160.2819 L50.4688,163.0006 Z "/><text fill="#000000" font-family="sans-serif" font-size="14" lengthAdjust="spacingAndGlyphs" textLength="170" x="61.5" y="155.982">ShowRequestFactoryImpl</text><text fill="#000000" font-family="sans-serif" font-size="10" lengthAdjust="spacingAndGlyphs" textLength="66" x="113.5" y="170.7739">factories.impl</text><line style="stroke: #A80036; stroke-width: 1.5;" x1="33.5" x2="233.5" y1="178.7039" y2="178.7039"/><ellipse cx="43.5" cy="189.7039" fill="#84BE84" rx="3" ry="3" style="stroke: #038048; stroke-width: 1.0;"/><text fill="#000000" font-family="sans-serif" font-size="11" lengthAdjust="spacingAndGlyphs" textLength="110" x="52.5" y="194.4628">build(): ShowRequest</text></a><!--MD5=[e2d268cf9ed8c63b2fbfa9dd65f8d87c]
class eapli.framework.domain.model.DomainFactory--><rect codeLine="9" fill="#FEFECE" filter="url(#f1lzbuq5acjdmt)" height="65.6698" id="eapli.framework.domain.model.DomainFactory" style="stroke: #A80036; stroke-width: 1.5;" width="253" x="7" y="10.016"/><ellipse cx="22" cy="31.36" fill="#B4A7E5" rx="11" ry="11" style="stroke: #A80036; stroke-width: 1.0;"/><path d="M17.9219,27.1256 L17.9219,24.9694 L25.3125,24.9694 L25.3125,27.1256 L22.8438,27.1256 L22.8438,35.2037 L25.3125,35.2037 L25.3125,37.36 L17.9219,37.36 L17.9219,35.2037 L20.3906,35.2037 L20.3906,27.1256 L17.9219,27.1256 Z "/><text fill="#000000" font-family="sans-serif" font-size="14" font-style="italic" lengthAdjust="spacingAndGlyphs" textLength="96" x="61" y="29.982">DomainFactory</text><text fill="#000000" font-family="sans-serif" font-size="10" font-style="italic" lengthAdjust="spacingAndGlyphs" textLength="146" x="36" y="44.7739">eapli.framework.domain.model</text><rect fill="#FFFFFF" height="18.3441" style="stroke: #000000; stroke-width: 1.0; stroke-dasharray: 2.0,2.0;" width="73" x="190" y="7.016"/><text fill="#000000" font-family="sans-serif" font-size="12" font-style="italic" lengthAdjust="spacingAndGlyphs" textLength="71" x="191" y="20.8441">ShowRequest</text><line style="stroke: #A80036; stroke-width: 1.5;" x1="8" x2="259" y1="52.7039" y2="52.7039"/><ellipse cx="18" cy="63.7039" fill="#84BE84" rx="3" ry="3" style="stroke: #038048; stroke-width: 1.0;"/><text fill="#000000" font-family="sans-serif" font-size="11" font-style="italic" lengthAdjust="spacingAndGlyphs" textLength="99" x="27" y="68.4628">build(): ShowRequest</text><!--MD5=[ca100428b03313e45aa22a15a47ef777]
reverse link eapli.framework.domain.model.DomainFactory to factories.impl.ShowRequestFactoryImpl--><path codeLine="13" d="M133.5,96.466 C133.5,109.866 133.5,123.886 133.5,135.926 " fill="none" id="eapli.framework.domain.model.DomainFactory-backto-factories.impl.ShowRequestFactoryImpl" style="stroke: #A80036; stroke-width: 1.0; stroke-dasharray: 7.0,7.0;"/><polygon fill="none" points="126.5,96.276,133.5,76.276,140.5,96.276,126.5,96.276" style="stroke: #A80036; stroke-width: 1.0;"/><text fill="#888888" font-family="sans-serif" font-size="10" lengthAdjust="spacingAndGlyphs" textLength="188" x="36.5" y="225.3758">UMLDoclet 2.0.12, PlantUML 1.2020.16</text><!--MD5=[1943d88ee0fa459ed0a79763042f5322]
@startuml
    set namespaceSeparator none
    hide empty fields
    hide empty methods

    class "<size:14>ShowRequestFactoryImpl\n<size:10>factories.impl" as factories.impl.ShowRequestFactoryImpl [[ShowRequestFactoryImpl.html]] {
        +build(): ShowRequest
    }

    interface "<size:14>DomainFactory\n<size:10>eapli.framework.domain.model" as eapli.framework.domain.model.DomainFactory<ShowRequest> {
        {abstract} +build(): ShowRequest
    }

    eapli.framework.domain.model.DomainFactory <|.. factories.impl.ShowRequestFactoryImpl

    center footer UMLDoclet 2.0.12, PlantUML 1.2020.16
@enduml

PlantUML version 1.2020.16(Sun Aug 23 21:20:43 WEST 2020)
(APACHE source distribution)
Java Runtime: Java(TM) SE Runtime Environment
JVM: Java HotSpot(TM) 64-Bit Server VM
Default Encoding: UTF-8
Language: en
Country: US
--></g></svg>