<?xml version="1.0" encoding="UTF-8" standalone="no"?><svg xmlns="http://www.w3.org/2000/svg" xmlns:xlink="http://www.w3.org/1999/xlink" contentScriptType="application/ecmascript" contentStyleType="text/css" height="224px" preserveAspectRatio="none" style="width:290px;height:224px;" version="1.1" viewBox="0 0 290 224" width="290px" zoomAndPan="magnify"><defs><filter height="300%" id="f1lzbuq5acjdmt" width="300%" x="-1" y="-1"><feGaussianBlur result="blurOut" stdDeviation="2.0"/><feColorMatrix in="blurOut" result="blurOut2" type="matrix" values="0 0 0 0 0 0 0 0 0 0 0 0 0 0 0 0 0 0 .4 0"/><feOffset dx="4.0" dy="4.0" in="blurOut2" result="blurOut3"/><feBlend in="SourceGraphic" in2="blurOut3" mode="normal"/></filter></defs><g><!--MD5=[11c875b6ab44a78ef898de1588dde805]
class factories.impl.ShowRequestFactoryImpl--><a href="ShowRequestFactoryImpl.html" target="_top" title="ShowRequestFactoryImpl.html" xlink:actuate="onRequest" xlink:href="ShowRequestFactoryImpl.html" xlink:show="new" xlink:title="ShowRequestFactoryImpl.html" xlink:type="simple"><rect codeLine="5" fill="#FEFECE" filter="url(#f1lzbuq5acjdmt)" height="59.2207" id="factories.impl.ShowRequestFactoryImpl" style="stroke: #A80036; stroke-width: 1.5;" width="204" x="37" y="129.22"/><ellipse cx="52" cy="148.3528" fill="#ADD1B2" rx="11" ry="11" style="stroke: #A80036; stroke-width: 1.0;"/><path d="M54.4731,154.4959 Q53.8921,154.7947 53.2529,154.9441 Q52.6138,155.0935 51.9082,155.0935 Q49.4014,155.0935 48.0815,153.4417 Q46.7617,151.7898 46.7617,148.6687 Q46.7617,145.5393 48.0815,143.8875 Q49.4014,142.2356 51.9082,142.2356 Q52.6138,142.2356 53.2612,142.385 Q53.9087,142.5345 54.4731,142.8333 L54.4731,145.5559 Q53.8423,144.9749 53.2488,144.7051 Q52.6553,144.4353 52.0244,144.4353 Q50.6797,144.4353 49.9949,145.502 Q49.3101,146.5686 49.3101,148.6687 Q49.3101,150.7605 49.9949,151.8272 Q50.6797,152.8938 52.0244,152.8938 Q52.6553,152.8938 53.2488,152.6241 Q53.8423,152.3543 54.4731,151.7732 Z "/><text fill="#000000" font-family="sans-serif" font-size="14" lengthAdjust="spacingAndGlyphs" textLength="172" x="66" y="147.7552">ShowRequestFactoryImpl</text><text fill="#000000" font-family="sans-serif" font-size="10" lengthAdjust="spacingAndGlyphs" textLength="67" x="118.5" y="160.3763">factories.impl</text><line style="stroke: #A80036; stroke-width: 1.5;" x1="38" x2="240" y1="167.4856" y2="167.4856"/><ellipse cx="48" cy="178.4856" fill="#84BE84" rx="3" ry="3" style="stroke: #038048; stroke-width: 1.0;"/><text fill="#000000" font-family="sans-serif" font-size="11" lengthAdjust="spacingAndGlyphs" textLength="112" x="57" y="182.1204">build(): ShowRequest</text></a><!--MD5=[e2d268cf9ed8c63b2fbfa9dd65f8d87c]
class eapli.framework.domain.model.DomainFactory--><rect codeLine="9" fill="#FEFECE" filter="url(#f1lzbuq5acjdmt)" height="59.2207" id="eapli.framework.domain.model.DomainFactory" style="stroke: #A80036; stroke-width: 1.5;" width="264" x="7" y="10"/><ellipse cx="22" cy="29.1328" fill="#B4A7E5" rx="11" ry="11" style="stroke: #A80036; stroke-width: 1.0;"/><path d="M18.4277,25.3979 L18.4277,23.2397 L25.8071,23.2397 L25.8071,25.3979 L23.3418,25.3979 L23.3418,33.4746 L25.8071,33.4746 L25.8071,35.6328 L18.4277,35.6328 L18.4277,33.4746 L20.8931,33.4746 L20.8931,25.3979 Z "/><text fill="#000000" font-family="sans-serif" font-size="14" font-style="italic" lengthAdjust="spacingAndGlyphs" textLength="103" x="60.5" y="28.5352">DomainFactory</text><text fill="#000000" font-family="sans-serif" font-size="10" font-style="italic" lengthAdjust="spacingAndGlyphs" textLength="152" x="36" y="41.1563">eapli.framework.domain.model</text><rect fill="#FFFFFF" height="16.1328" style="stroke: #000000; stroke-width: 1.0; stroke-dasharray: 2.0,2.0;" width="78" x="196" y="7"/><text fill="#000000" font-family="sans-serif" font-size="12" font-style="italic" lengthAdjust="spacingAndGlyphs" textLength="76" x="197" y="19.6016">ShowRequest</text><line style="stroke: #A80036; stroke-width: 1.5;" x1="8" x2="270" y1="48.2656" y2="48.2656"/><ellipse cx="18" cy="59.2656" fill="#84BE84" rx="3" ry="3" style="stroke: #038048; stroke-width: 1.0;"/><text fill="#000000" font-family="sans-serif" font-size="11" font-style="italic" lengthAdjust="spacingAndGlyphs" textLength="112" x="27" y="62.9004">build(): ShowRequest</text><!--MD5=[ca100428b03313e45aa22a15a47ef777]
reverse link eapli.framework.domain.model.DomainFactory to factories.impl.ShowRequestFactoryImpl--><path codeLine="13" d="M139,91 C139,103.91 139,117.36 139,128.78 " fill="none" id="eapli.framework.domain.model.DomainFactory-backto-factories.impl.ShowRequestFactoryImpl" style="stroke: #A80036; stroke-width: 1.0; stroke-dasharray: 7.0,7.0;"/><polygon fill="none" points="132,91.1,139,71.1,146,91.1,132,91.1" style="stroke: #A80036; stroke-width: 1.0;"/><text fill="#888888" font-family="sans-serif" font-size="10" lengthAdjust="spacingAndGlyphs" textLength="188" x="42" y="211.1087">UMLDoclet 2.0.12, PlantUML 1.2020.16</text><!--MD5=[40789cae7adaeabf5b59ee69ddd35928]
@startuml
    set namespaceSeparator none
    hide empty fields
    hide empty methods

    class "<size:14>ShowRequestFactoryImpl\n<size:10>factories.impl" as factories.impl.ShowRequestFactoryImpl [[ShowRequestFactoryImpl.html]] {
        +build(): ShowRequest
    }

    interface "<size:14>DomainFactory\n<size:10>eapli.framework.domain.model" as eapli.framework.domain.model.DomainFactory<ShowRequest> {
        {abstract} +build(): ShowRequest
    }

    eapli.framework.domain.model.DomainFactory <|.. factories.impl.ShowRequestFactoryImpl

    center footer UMLDoclet 2.0.12, PlantUML 1.2020.16
@enduml

PlantUML version 1.2020.16(Sun Aug 23 21:20:43 WEST 2020)
(APACHE source distribution)
Java Runtime: OpenJDK Runtime Environment
JVM: OpenJDK 64-Bit Server VM
Default Encoding: UTF-8
Language: pt
Country: PT
--></g></svg>