<svg xmlns="http://www.w3.org/2000/svg" xmlns:xlink="http://www.w3.org/1999/xlink" contentStyleType="text/css" height="591px" preserveAspectRatio="none" style="width:1049px;height:591px;background:#FFFFFF;" version="1.1" viewBox="0 0 1049 591" width="1049px" zoomAndPan="magnify"><title>System Sequence Diagram (SSD) - Remove Drone from Inventory</title><defs/><g><text fill="#000000" font-family="sans-serif" font-size="14" font-weight="bold" lengthAdjust="spacing" textLength="434.8955" x="308.1277" y="30.1074">System Sequence Diagram (SSD) - Remove Drone from Inventory</text><rect fill="#FFFFFF" height="365.25" style="stroke:#181818;stroke-width:1.0;" width="10" x="54.5723" y="133.2422"/><rect fill="#FFFFFF" height="341.959" style="stroke:#181818;stroke-width:1.0;" width="10" x="489.0596" y="156.5332"/><rect fill="none" height="231.377" style="stroke:#000000;stroke-width:1.5;" width="1032.1509" x="10" y="260.1152"/><line style="stroke:#181818;stroke-width:0.5;stroke-dasharray:5.0,5.0;" x1="59" x2="59" y1="123.2422" y2="508.4922"/><line style="stroke:#181818;stroke-width:0.5;stroke-dasharray:5.0,5.0;" x1="493.7769" x2="493.7769" y1="123.2422" y2="508.4922"/><text fill="#000000" font-family="sans-serif" font-size="14" lengthAdjust="spacing" textLength="73.1445" x="20" y="119.7285">Drone Tech</text><ellipse cx="59.5723" cy="53.1211" fill="#E3E3E3" rx="8" ry="8" style="stroke:#181818;stroke-width:0.5;"/><path d="M59.5723,61.1211 L59.5723,88.1211 M46.5723,69.1211 L72.5723,69.1211 M59.5723,88.1211 L46.5723,103.1211 M59.5723,88.1211 L72.5723,103.1211 " fill="none" style="stroke:#181818;stroke-width:0.5;"/><text fill="#000000" font-family="sans-serif" font-size="14" lengthAdjust="spacing" textLength="73.1445" x="20" y="522.5996">Drone Tech</text><ellipse cx="59.5723" cy="534.6133" fill="#E3E3E3" rx="8" ry="8" style="stroke:#181818;stroke-width:0.5;"/><path d="M59.5723,542.6133 L59.5723,569.6133 M46.5723,550.6133 L72.5723,550.6133 M59.5723,569.6133 L46.5723,584.6133 M59.5723,569.6133 L72.5723,584.6133 " fill="none" style="stroke:#181818;stroke-width:0.5;"/><rect fill="#E3E3E3" height="32.6211" rx="2.5" ry="2.5" style="stroke:#181818;stroke-width:0.5;" width="64.5654" x="461.7769" y="89.6211"/><text fill="#000000" font-family="sans-serif" font-size="14" lengthAdjust="spacing" textLength="50.5654" x="468.7769" y="111.7285">:System</text><rect fill="#E3E3E3" height="32.6211" rx="2.5" ry="2.5" style="stroke:#181818;stroke-width:0.5;" width="64.5654" x="461.7769" y="507.4922"/><text fill="#000000" font-family="sans-serif" font-size="14" lengthAdjust="spacing" textLength="50.5654" x="468.7769" y="529.5996">:System</text><rect fill="#FFFFFF" height="365.25" style="stroke:#181818;stroke-width:1.0;" width="10" x="54.5723" y="133.2422"/><rect fill="#FFFFFF" height="341.959" style="stroke:#181818;stroke-width:1.0;" width="10" x="489.0596" y="156.5332"/><polygon fill="#181818" points="477.0596,152.5332,487.0596,156.5332,477.0596,160.5332,481.0596,156.5332" style="stroke:#181818;stroke-width:1.0;"/><line style="stroke:#181818;stroke-width:1.0;" x1="64.5723" x2="483.0596" y1="156.5332" y2="156.5332"/><text fill="#000000" font-family="sans-serif" font-size="13" font-weight="bold" lengthAdjust="spacing" textLength="7.23" x="71.5723" y="151.2705">1</text><text fill="#000000" font-family="sans-serif" font-size="13" lengthAdjust="spacing" textLength="311.4033" x="82.8022" y="151.2705">requestRemoveDrone(serialNumber, removalReason)</text><line style="stroke:#181818;stroke-width:1.0;" x1="499.0596" x2="541.0596" y1="187.8242" y2="187.8242"/><line style="stroke:#181818;stroke-width:1.0;" x1="541.0596" x2="541.0596" y1="187.8242" y2="200.8242"/><line style="stroke:#181818;stroke-width:1.0;" x1="500.0596" x2="541.0596" y1="200.8242" y2="200.8242"/><polygon fill="#181818" points="510.0596,196.8242,500.0596,200.8242,510.0596,204.8242,506.0596,200.8242" style="stroke:#181818;stroke-width:1.0;"/><text fill="#000000" font-family="sans-serif" font-size="13" font-weight="bold" lengthAdjust="spacing" textLength="7.23" x="506.0596" y="182.5615">2</text><text fill="#000000" font-family="sans-serif" font-size="13" lengthAdjust="spacing" textLength="210.2407" x="517.2896" y="182.5615">validateSerialNumber(serialNumber)</text><line style="stroke:#181818;stroke-width:1.0;" x1="499.0596" x2="541.0596" y1="232.1152" y2="232.1152"/><line style="stroke:#181818;stroke-width:1.0;" x1="541.0596" x2="541.0596" y1="232.1152" y2="245.1152"/><line style="stroke:#181818;stroke-width:1.0;" x1="500.0596" x2="541.0596" y1="245.1152" y2="245.1152"/><polygon fill="#181818" points="510.0596,241.1152,500.0596,245.1152,510.0596,249.1152,506.0596,245.1152" style="stroke:#181818;stroke-width:1.0;"/><text fill="#000000" font-family="sans-serif" font-size="13" font-weight="bold" lengthAdjust="spacing" textLength="7.23" x="506.0596" y="226.8525">3</text><text fill="#000000" font-family="sans-serif" font-size="13" lengthAdjust="spacing" textLength="189.998" x="517.2896" y="226.8525">checkDroneExists(serialNumber)</text><path d="M10,260.1152 L70.1709,260.1152 L70.1709,269.4063 L60.1709,279.4063 L10,279.4063 L10,260.1152 " fill="#EEEEEE" style="stroke:#000000;stroke-width:1.5;"/><rect fill="none" height="231.377" style="stroke:#000000;stroke-width:1.5;" width="1032.1509" x="10" y="260.1152"/><text fill="#000000" font-family="sans-serif" font-size="13" font-weight="bold" lengthAdjust="spacing" textLength="15.1709" x="25" y="275.1436">alt</text><text fill="#000000" font-family="sans-serif" font-size="11" font-weight="bold" lengthAdjust="spacing" textLength="243.2676" x="85.1709" y="273.9854">[Serial number invalid or drone does not exist]</text><polygon fill="#181818" points="75.5723,298.6973,65.5723,302.6973,75.5723,306.6973,71.5723,302.6973" style="stroke:#181818;stroke-width:1.0;"/><line style="stroke:#181818;stroke-width:1.0;stroke-dasharray:2.0,2.0;" x1="69.5723" x2="488.0596" y1="302.6973" y2="302.6973"/><text fill="#000000" font-family="sans-serif" font-size="13" font-weight="bold" lengthAdjust="spacing" textLength="7.23" x="81.5723" y="297.4346">4</text><text fill="#000000" font-family="sans-serif" font-size="13" lengthAdjust="spacing" textLength="327.8882" x="92.8022" y="297.4346">errorMessage("Invalid serial number or drone not found")</text><line style="stroke:#000000;stroke-width:1.0;stroke-dasharray:2.0,2.0;" x1="10" x2="1042.1509" y1="311.6973" y2="311.6973"/><text fill="#000000" font-family="sans-serif" font-size="11" font-weight="bold" lengthAdjust="spacing" textLength="199.2783" x="15" y="323.5674">[Serial number valid and drone exists]</text><line style="stroke:#181818;stroke-width:1.0;" x1="499.0596" x2="541.0596" y1="350.6191" y2="350.6191"/><line style="stroke:#181818;stroke-width:1.0;" x1="541.0596" x2="541.0596" y1="350.6191" y2="363.6191"/><line style="stroke:#181818;stroke-width:1.0;" x1="500.0596" x2="541.0596" y1="363.6191" y2="363.6191"/><polygon fill="#181818" points="510.0596,359.6191,500.0596,363.6191,510.0596,367.6191,506.0596,363.6191" style="stroke:#181818;stroke-width:1.0;"/><text fill="#000000" font-family="sans-serif" font-size="13" font-weight="bold" lengthAdjust="spacing" textLength="7.23" x="506.0596" y="345.3564">5</text><text fill="#000000" font-family="sans-serif" font-size="13" lengthAdjust="spacing" textLength="97.5381" x="517.2896" y="345.3564">getCurrentDate()</text><line style="stroke:#181818;stroke-width:1.0;" x1="499.0596" x2="541.0596" y1="394.9102" y2="394.9102"/><line style="stroke:#181818;stroke-width:1.0;" x1="541.0596" x2="541.0596" y1="394.9102" y2="407.9102"/><line style="stroke:#181818;stroke-width:1.0;" x1="500.0596" x2="541.0596" y1="407.9102" y2="407.9102"/><polygon fill="#181818" points="510.0596,403.9102,500.0596,407.9102,510.0596,411.9102,506.0596,407.9102" style="stroke:#181818;stroke-width:1.0;"/><text fill="#000000" font-family="sans-serif" font-size="13" font-weight="bold" lengthAdjust="spacing" textLength="7.23" x="506.0596" y="389.6475">6</text><text fill="#000000" font-family="sans-serif" font-size="13" lengthAdjust="spacing" textLength="97.5381" x="517.2896" y="389.6475">getRemovedBy()</text><line style="stroke:#181818;stroke-width:1.0;" x1="499.0596" x2="541.0596" y1="439.2012" y2="439.2012"/><line style="stroke:#181818;stroke-width:1.0;" x1="541.0596" x2="541.0596" y1="439.2012" y2="452.2012"/><line style="stroke:#181818;stroke-width:1.0;" x1="500.0596" x2="541.0596" y1="452.2012" y2="452.2012"/><polygon fill="#181818" points="510.0596,448.2012,500.0596,452.2012,510.0596,456.2012,506.0596,452.2012" style="stroke:#181818;stroke-width:1.0;"/><text fill="#000000" font-family="sans-serif" font-size="13" font-weight="bold" lengthAdjust="spacing" textLength="7.23" x="506.0596" y="433.9385">7</text><text fill="#000000" font-family="sans-serif" font-size="13" lengthAdjust="spacing" textLength="502.8613" x="517.2896" y="433.9385">createDroneRemovalRecord(serialNumber, removalReason, removalDate, removedBy)</text><polygon fill="#181818" points="75.5723,479.4922,65.5723,483.4922,75.5723,487.4922,71.5723,483.4922" style="stroke:#181818;stroke-width:1.0;"/><line style="stroke:#181818;stroke-width:1.0;stroke-dasharray:2.0,2.0;" x1="69.5723" x2="488.0596" y1="483.4922" y2="483.4922"/><text fill="#000000" font-family="sans-serif" font-size="13" font-weight="bold" lengthAdjust="spacing" textLength="7.23" x="81.5723" y="478.2295">8</text><text fill="#000000" font-family="sans-serif" font-size="13" lengthAdjust="spacing" textLength="389.2573" x="92.8022" y="478.2295">confirmationMessage("Drone removed successfully", serialNumber)</text><!--SRC=[VL91Sjim3Bpp5HYTh9da0pxqq2Y77DA3vG-W92HpB84k2RdLxmkHicDxal140ejTSfVfwFc44KSO0mTxY64aa3YHITVE2UqHUsfb7WWYMK7kXrj0Eg0BVpttqE6Go1Znej1sJa8ZjFHd8hO4ZST-WM_QjgdX6NOqXhEMOs22JfNXZS_44k9i34uIU1f_KzIzrHfK1RWdUwW04pHxe_BYhJyX2rJRefTxPPid_Hc55h1fzl3yOsrjzI5whIJb4fbwaoXw77vbrIS5Q0U77M4AN7zGNRZNvzrGAjexXRGtF7UazIT3za3scFLV__aawM401u721yKEy9nrG2rnsH4NA0470Le83EYwoAXEizy2nHZYEwMaCMwgjvKWtT5UwHQcBapigjgGnlaWNsQHtGhFekbEzUDnFSdB5AE6sgWlc_fhMCd1_Po_1Db8of6TsbsYiI6wxsAx7XVvzR28r9-vP0DtFeueFl3LhFBfra58axNQwQPXcAidk8-As1dZwF6Zt5Jq5_u7]--></g></svg>