<svg xmlns="http://www.w3.org/2000/svg" xmlns:xlink="http://www.w3.org/1999/xlink" contentStyleType="text/css" height="997px" preserveAspectRatio="none" style="width:1055px;height:997px;background:#FFFFFF;" version="1.1" viewBox="0 0 1055 997" width="1055px" zoomAndPan="magnify"><title>System Sequence Diagram (SSD) - Remove Drone from Inventory</title><defs/><g><text fill="#000000" font-family="sans-serif" font-size="14" font-weight="bold" lengthAdjust="spacing" textLength="434.8955" x="311.1926" y="30.1074">System Sequence Diagram (SSD) - Remove Drone from Inventory</text><rect fill="#FFFFFF" height="112.1641" style="stroke:#181818;stroke-width:1.0;" width="10" x="94.5723" y="133.2422"/><rect fill="#FFFFFF" height="31.291" style="stroke:#181818;stroke-width:1.0;" width="10" x="687.8374" y="156.5332"/><rect fill="#FFFFFF" height="101.873" style="stroke:#181818;stroke-width:1.0;" width="10" x="687.8374" y="278.6973"/><rect fill="#FFFFFF" height="351.25" style="stroke:#181818;stroke-width:1.0;" width="10" x="687.8374" y="532.3652"/><rect fill="#FFFFFF" height="253.377" style="stroke:#181818;stroke-width:1.0;" width="10" x="692.8374" y="621.2383"/><rect fill="none" height="694.791" style="stroke:#000000;stroke-width:1.5;" width="1038.2808" x="10" y="202.8242"/><rect fill="none" height="552.627" style="stroke:#000000;stroke-width:1.5;" width="1018.2808" x="20" y="337.9883"/><rect fill="none" height="427.123" style="stroke:#000000;stroke-width:1.5;" width="998.2808" x="30" y="456.4922"/><rect fill="none" height="297.959" style="stroke:#000000;stroke-width:1.5;" width="978.2808" x="40" y="578.6563"/><rect fill="none" height="98.5039" style="stroke:#000000;stroke-width:1.5;" width="685.1201" x="50" y="769.1113"/><line style="stroke:#181818;stroke-width:0.5;stroke-dasharray:5.0,5.0;" x1="99" x2="99" y1="123.2422" y2="914.6152"/><line style="stroke:#181818;stroke-width:0.5;stroke-dasharray:5.0,5.0;" x1="692.5547" x2="692.5547" y1="123.2422" y2="914.6152"/><text fill="#000000" font-family="sans-serif" font-size="14" lengthAdjust="spacing" textLength="73.1445" x="60" y="119.7285">Drone Tech</text><ellipse cx="99.5723" cy="53.1211" fill="#E3E3E3" rx="8" ry="8" style="stroke:#181818;stroke-width:0.5;"/><path d="M99.5723,61.1211 L99.5723,88.1211 M86.5723,69.1211 L112.5723,69.1211 M99.5723,88.1211 L86.5723,103.1211 M99.5723,88.1211 L112.5723,103.1211 " fill="none" style="stroke:#181818;stroke-width:0.5;"/><text fill="#000000" font-family="sans-serif" font-size="14" lengthAdjust="spacing" textLength="73.1445" x="60" y="928.7227">Drone Tech</text><ellipse cx="99.5723" cy="940.7363" fill="#E3E3E3" rx="8" ry="8" style="stroke:#181818;stroke-width:0.5;"/><path d="M99.5723,948.7363 L99.5723,975.7363 M86.5723,956.7363 L112.5723,956.7363 M99.5723,975.7363 L86.5723,990.7363 M99.5723,975.7363 L112.5723,990.7363 " fill="none" style="stroke:#181818;stroke-width:0.5;"/><rect fill="#E3E3E3" height="32.6211" rx="2.5" ry="2.5" style="stroke:#181818;stroke-width:0.5;" width="64.5654" x="660.5547" y="89.6211"/><text fill="#000000" font-family="sans-serif" font-size="14" lengthAdjust="spacing" textLength="50.5654" x="667.5547" y="111.7285">:System</text><rect fill="#E3E3E3" height="32.6211" rx="2.5" ry="2.5" style="stroke:#181818;stroke-width:0.5;" width="64.5654" x="660.5547" y="913.6152"/><text fill="#000000" font-family="sans-serif" font-size="14" lengthAdjust="spacing" textLength="50.5654" x="667.5547" y="935.7227">:System</text><rect fill="#FFFFFF" height="112.1641" style="stroke:#181818;stroke-width:1.0;" width="10" x="94.5723" y="133.2422"/><rect fill="#FFFFFF" height="31.291" style="stroke:#181818;stroke-width:1.0;" width="10" x="687.8374" y="156.5332"/><rect fill="#FFFFFF" height="101.873" style="stroke:#181818;stroke-width:1.0;" width="10" x="687.8374" y="278.6973"/><rect fill="#FFFFFF" height="351.25" style="stroke:#181818;stroke-width:1.0;" width="10" x="687.8374" y="532.3652"/><rect fill="#FFFFFF" height="253.377" style="stroke:#181818;stroke-width:1.0;" width="10" x="692.8374" y="621.2383"/><polygon fill="#181818" points="675.8374,152.5332,685.8374,156.5332,675.8374,160.5332,679.8374,156.5332" style="stroke:#181818;stroke-width:1.0;"/><line style="stroke:#181818;stroke-width:1.0;" x1="104.5723" x2="681.8374" y1="156.5332" y2="156.5332"/><text fill="#000000" font-family="sans-serif" font-size="13" font-weight="bold" lengthAdjust="spacing" textLength="7.23" x="111.5723" y="151.2705">1</text><text fill="#000000" font-family="sans-serif" font-size="13" lengthAdjust="spacing" textLength="108.3735" x="122.8022" y="151.2705">requestAllDrones()</text><polygon fill="#181818" points="115.5723,183.8242,105.5723,187.8242,115.5723,191.8242,111.5723,187.8242" style="stroke:#181818;stroke-width:1.0;"/><line style="stroke:#181818;stroke-width:1.0;stroke-dasharray:2.0,2.0;" x1="109.5723" x2="691.8374" y1="187.8242" y2="187.8242"/><text fill="#000000" font-family="sans-serif" font-size="13" font-weight="bold" lengthAdjust="spacing" textLength="7.23" x="121.5723" y="182.5615">2</text><text fill="#000000" font-family="sans-serif" font-size="13" lengthAdjust="spacing" textLength="59.979" x="132.8022" y="182.5615">dronesList</text><path d="M10,202.8242 L70.1709,202.8242 L70.1709,212.1152 L60.1709,222.1152 L10,222.1152 L10,202.8242 " fill="#EEEEEE" style="stroke:#000000;stroke-width:1.5;"/><rect fill="none" height="694.791" style="stroke:#000000;stroke-width:1.5;" width="1038.2808" x="10" y="202.8242"/><text fill="#000000" font-family="sans-serif" font-size="13" font-weight="bold" lengthAdjust="spacing" textLength="15.1709" x="25" y="217.8525">alt</text><text fill="#000000" font-family="sans-serif" font-size="11" font-weight="bold" lengthAdjust="spacing" textLength="111.2407" x="85.1709" y="216.6943">[dronesList is empty]</text><polygon fill="#181818" points="680.8374,241.4063,690.8374,245.4063,680.8374,249.4063,684.8374,245.4063" style="stroke:#181818;stroke-width:1.0;"/><line style="stroke:#181818;stroke-width:1.0;" x1="99.5723" x2="686.8374" y1="245.4063" y2="245.4063"/><text fill="#000000" font-family="sans-serif" font-size="13" font-weight="bold" lengthAdjust="spacing" textLength="7.23" x="106.5723" y="240.1436">3</text><text fill="#000000" font-family="sans-serif" font-size="13" lengthAdjust="spacing" textLength="260.6475" x="117.8022" y="240.1436">receiveError("No drones in the system yet...")</text><line style="stroke:#000000;stroke-width:1.0;stroke-dasharray:2.0,2.0;" x1="10" x2="1048.2808" y1="254.4063" y2="254.4063"/><polygon fill="#181818" points="675.8374,274.6973,685.8374,278.6973,675.8374,282.6973,679.8374,278.6973" style="stroke:#181818;stroke-width:1.0;"/><line style="stroke:#181818;stroke-width:1.0;" x1="99.5723" x2="681.8374" y1="278.6973" y2="278.6973"/><text fill="#000000" font-family="sans-serif" font-size="13" font-weight="bold" lengthAdjust="spacing" textLength="7.23" x="106.5723" y="273.4346">4</text><text fill="#000000" font-family="sans-serif" font-size="13" lengthAdjust="spacing" textLength="130.7681" x="117.8022" y="273.4346">provideSerialNumber()</text><line style="stroke:#181818;stroke-width:1.0;" x1="697.8374" x2="739.8374" y1="309.9883" y2="309.9883"/><line style="stroke:#181818;stroke-width:1.0;" x1="739.8374" x2="739.8374" y1="309.9883" y2="322.9883"/><line style="stroke:#181818;stroke-width:1.0;" x1="698.8374" x2="739.8374" y1="322.9883" y2="322.9883"/><polygon fill="#181818" points="708.8374,318.9883,698.8374,322.9883,708.8374,326.9883,704.8374,322.9883" style="stroke:#181818;stroke-width:1.0;"/><text fill="#000000" font-family="sans-serif" font-size="13" font-weight="bold" lengthAdjust="spacing" textLength="7.23" x="704.8374" y="304.7256">5</text><text fill="#000000" font-family="sans-serif" font-size="13" lengthAdjust="spacing" textLength="244.1943" x="716.0674" y="304.7256">fetchDroneBySerialNumber(serialNumber)</text><path d="M20,337.9883 L80.1709,337.9883 L80.1709,347.2793 L70.1709,357.2793 L20,357.2793 L20,337.9883 " fill="#EEEEEE" style="stroke:#000000;stroke-width:1.5;"/><rect fill="none" height="552.627" style="stroke:#000000;stroke-width:1.5;" width="1018.2808" x="20" y="337.9883"/><text fill="#000000" font-family="sans-serif" font-size="13" font-weight="bold" lengthAdjust="spacing" textLength="15.1709" x="35" y="353.0166">alt</text><text fill="#000000" font-family="sans-serif" font-size="11" font-weight="bold" lengthAdjust="spacing" textLength="91.6362" x="95.1709" y="351.8584">[drone not found]</text><polygon fill="#181818" points="110.5723,376.5703,100.5723,380.5703,110.5723,384.5703,106.5723,380.5703" style="stroke:#181818;stroke-width:1.0;"/><line style="stroke:#181818;stroke-width:1.0;stroke-dasharray:2.0,2.0;" x1="104.5723" x2="691.8374" y1="380.5703" y2="380.5703"/><text fill="#000000" font-family="sans-serif" font-size="13" font-weight="bold" lengthAdjust="spacing" textLength="7.23" x="116.5723" y="375.3076">6</text><text fill="#000000" font-family="sans-serif" font-size="13" lengthAdjust="spacing" textLength="410.2363" x="127.8022" y="375.3076">errorMessage("No drone with that Serial Number found in the system!")</text><line style="stroke:#000000;stroke-width:1.0;stroke-dasharray:2.0,2.0;" x1="20" x2="1038.2808" y1="389.5703" y2="389.5703"/><text fill="#000000" font-family="sans-serif" font-size="11" font-weight="bold" lengthAdjust="spacing" textLength="71.4785" x="25" y="401.4404">[drone found]</text><line style="stroke:#181818;stroke-width:1.0;" x1="692.8374" x2="734.8374" y1="428.4922" y2="428.4922"/><line style="stroke:#181818;stroke-width:1.0;" x1="734.8374" x2="734.8374" y1="428.4922" y2="441.4922"/><line style="stroke:#181818;stroke-width:1.0;" x1="693.8374" x2="734.8374" y1="441.4922" y2="441.4922"/><polygon fill="#181818" points="703.8374,437.4922,693.8374,441.4922,703.8374,445.4922,699.8374,441.4922" style="stroke:#181818;stroke-width:1.0;"/><text fill="#000000" font-family="sans-serif" font-size="13" font-weight="bold" lengthAdjust="spacing" textLength="7.23" x="699.8374" y="423.2295">7</text><text fill="#000000" font-family="sans-serif" font-size="13" lengthAdjust="spacing" textLength="114.8799" x="711.0674" y="423.2295">checkDroneStatus()</text><path d="M30,456.4922 L90.1709,456.4922 L90.1709,465.7832 L80.1709,475.7832 L30,475.7832 L30,456.4922 " fill="#EEEEEE" style="stroke:#000000;stroke-width:1.5;"/><rect fill="none" height="427.123" style="stroke:#000000;stroke-width:1.5;" width="998.2808" x="30" y="456.4922"/><text fill="#000000" font-family="sans-serif" font-size="13" font-weight="bold" lengthAdjust="spacing" textLength="15.1709" x="45" y="471.5205">alt</text><text fill="#000000" font-family="sans-serif" font-size="11" font-weight="bold" lengthAdjust="spacing" textLength="171.7246" x="105.1709" y="470.3623">[drone status is not AVAILABLE]</text><polygon fill="#181818" points="110.5723,495.0742,100.5723,499.0742,110.5723,503.0742,106.5723,499.0742" style="stroke:#181818;stroke-width:1.0;"/><line style="stroke:#181818;stroke-width:1.0;stroke-dasharray:2.0,2.0;" x1="104.5723" x2="691.8374" y1="499.0742" y2="499.0742"/><text fill="#000000" font-family="sans-serif" font-size="13" font-weight="bold" lengthAdjust="spacing" textLength="7.23" x="116.5723" y="493.8115">8</text><text fill="#000000" font-family="sans-serif" font-size="13" lengthAdjust="spacing" textLength="558.0352" x="127.8022" y="493.8115">errorMessage("This drone is no longer available in the inventory. Current status: " + droneStatus)</text><line style="stroke:#000000;stroke-width:1.0;stroke-dasharray:2.0,2.0;" x1="30" x2="1028.2808" y1="508.0742" y2="508.0742"/><polygon fill="#181818" points="110.5723,528.3652,100.5723,532.3652,110.5723,536.3652,106.5723,532.3652" style="stroke:#181818;stroke-width:1.0;"/><line style="stroke:#181818;stroke-width:1.0;stroke-dasharray:2.0,2.0;" x1="104.5723" x2="686.8374" y1="532.3652" y2="532.3652"/><text fill="#000000" font-family="sans-serif" font-size="13" font-weight="bold" lengthAdjust="spacing" textLength="7.23" x="116.5723" y="527.1025">9</text><text fill="#000000" font-family="sans-serif" font-size="13" lengthAdjust="spacing" textLength="114.1499" x="127.8022" y="527.1025">showDroneDetails()</text><polygon fill="#181818" points="675.8374,559.6563,685.8374,563.6563,675.8374,567.6563,679.8374,563.6563" style="stroke:#181818;stroke-width:1.0;"/><line style="stroke:#181818;stroke-width:1.0;" x1="99.5723" x2="681.8374" y1="563.6563" y2="563.6563"/><text fill="#000000" font-family="sans-serif" font-size="13" font-weight="bold" lengthAdjust="spacing" textLength="14.46" x="106.5723" y="558.3936">10</text><text fill="#000000" font-family="sans-serif" font-size="13" lengthAdjust="spacing" textLength="104.7554" x="125.0322" y="558.3936">confirmSelection()</text><path d="M40,578.6563 L100.1709,578.6563 L100.1709,587.9473 L90.1709,597.9473 L40,597.9473 L40,578.6563 " fill="#EEEEEE" style="stroke:#000000;stroke-width:1.5;"/><rect fill="none" height="297.959" style="stroke:#000000;stroke-width:1.5;" width="978.2808" x="40" y="578.6563"/><text fill="#000000" font-family="sans-serif" font-size="13" font-weight="bold" lengthAdjust="spacing" textLength="15.1709" x="55" y="593.6846">alt</text><text fill="#000000" font-family="sans-serif" font-size="11" font-weight="bold" lengthAdjust="spacing" textLength="60.5" x="115.1709" y="592.5264">[confirmed]</text><polygon fill="#181818" points="680.8374,617.2383,690.8374,621.2383,680.8374,625.2383,684.8374,621.2383" style="stroke:#181818;stroke-width:1.0;"/><line style="stroke:#181818;stroke-width:1.0;" x1="99.5723" x2="686.8374" y1="621.2383" y2="621.2383"/><text fill="#000000" font-family="sans-serif" font-size="13" font-weight="bold" lengthAdjust="spacing" textLength="14.46" x="106.5723" y="615.9756">11</text><text fill="#000000" font-family="sans-serif" font-size="13" lengthAdjust="spacing" textLength="147.3989" x="125.0322" y="615.9756">provideRemovalReason()</text><line style="stroke:#181818;stroke-width:1.0;" x1="702.8374" x2="744.8374" y1="652.5293" y2="652.5293"/><line style="stroke:#181818;stroke-width:1.0;" x1="744.8374" x2="744.8374" y1="652.5293" y2="665.5293"/><line style="stroke:#181818;stroke-width:1.0;" x1="703.8374" x2="744.8374" y1="665.5293" y2="665.5293"/><polygon fill="#181818" points="713.8374,661.5293,703.8374,665.5293,713.8374,669.5293,709.8374,665.5293" style="stroke:#181818;stroke-width:1.0;"/><text fill="#000000" font-family="sans-serif" font-size="13" font-weight="bold" lengthAdjust="spacing" textLength="14.46" x="709.8374" y="647.2666">12</text><text fill="#000000" font-family="sans-serif" font-size="13" lengthAdjust="spacing" textLength="149.5698" x="728.2974" y="647.2666">validateRemovalReason()</text><line style="stroke:#181818;stroke-width:1.0;" x1="702.8374" x2="744.8374" y1="696.8203" y2="696.8203"/><line style="stroke:#181818;stroke-width:1.0;" x1="744.8374" x2="744.8374" y1="696.8203" y2="709.8203"/><line style="stroke:#181818;stroke-width:1.0;" x1="703.8374" x2="744.8374" y1="709.8203" y2="709.8203"/><polygon fill="#181818" points="713.8374,705.8203,703.8374,709.8203,713.8374,713.8203,709.8374,709.8203" style="stroke:#181818;stroke-width:1.0;"/><text fill="#000000" font-family="sans-serif" font-size="13" font-weight="bold" lengthAdjust="spacing" textLength="14.46" x="709.8374" y="691.5576">13</text><text fill="#000000" font-family="sans-serif" font-size="13" lengthAdjust="spacing" textLength="262.9834" x="728.2974" y="691.5576">removeDrone(serialNumber, removalReason)</text><line style="stroke:#181818;stroke-width:1.0;" x1="702.8374" x2="744.8374" y1="741.1113" y2="741.1113"/><line style="stroke:#181818;stroke-width:1.0;" x1="744.8374" x2="744.8374" y1="741.1113" y2="754.1113"/><line style="stroke:#181818;stroke-width:1.0;" x1="703.8374" x2="744.8374" y1="754.1113" y2="754.1113"/><polygon fill="#181818" points="713.8374,750.1113,703.8374,754.1113,713.8374,758.1113,709.8374,754.1113" style="stroke:#181818;stroke-width:1.0;"/><text fill="#000000" font-family="sans-serif" font-size="13" font-weight="bold" lengthAdjust="spacing" textLength="14.46" x="709.8374" y="735.8486">14</text><text fill="#000000" font-family="sans-serif" font-size="13" lengthAdjust="spacing" textLength="87.4136" x="728.2974" y="735.8486">saveRemoval()</text><path d="M50,769.1113 L110.1709,769.1113 L110.1709,778.4023 L100.1709,788.4023 L50,788.4023 L50,769.1113 " fill="#EEEEEE" style="stroke:#000000;stroke-width:1.5;"/><rect fill="none" height="98.5039" style="stroke:#000000;stroke-width:1.5;" width="685.1201" x="50" y="769.1113"/><text fill="#000000" font-family="sans-serif" font-size="13" font-weight="bold" lengthAdjust="spacing" textLength="15.1709" x="65" y="784.1396">alt</text><text fill="#000000" font-family="sans-serif" font-size="11" font-weight="bold" lengthAdjust="spacing" textLength="81.3022" x="125.1709" y="782.9814">[removal failed]</text><polygon fill="#181818" points="110.5723,807.6934,100.5723,811.6934,110.5723,815.6934,106.5723,811.6934" style="stroke:#181818;stroke-width:1.0;"/><line style="stroke:#181818;stroke-width:1.0;stroke-dasharray:2.0,2.0;" x1="104.5723" x2="691.8374" y1="811.6934" y2="811.6934"/><text fill="#000000" font-family="sans-serif" font-size="13" font-weight="bold" lengthAdjust="spacing" textLength="14.46" x="116.5723" y="806.4307">15</text><text fill="#000000" font-family="sans-serif" font-size="13" lengthAdjust="spacing" textLength="187.6812" x="135.0322" y="806.4307">errorMessage("Removal failed!")</text><line style="stroke:#000000;stroke-width:1.0;stroke-dasharray:2.0,2.0;" x1="50" x2="735.1201" y1="820.6934" y2="820.6934"/><text fill="#000000" font-family="sans-serif" font-size="11" font-weight="bold" lengthAdjust="spacing" textLength="109.436" x="55" y="832.5635">[removal succeeded]</text><polygon fill="#181818" points="110.5723,855.6152,100.5723,859.6152,110.5723,863.6152,106.5723,859.6152" style="stroke:#181818;stroke-width:1.0;"/><line style="stroke:#181818;stroke-width:1.0;stroke-dasharray:2.0,2.0;" x1="104.5723" x2="691.8374" y1="859.6152" y2="859.6152"/><text fill="#000000" font-family="sans-serif" font-size="13" font-weight="bold" lengthAdjust="spacing" textLength="14.46" x="116.5723" y="854.3525">16</text><text fill="#000000" font-family="sans-serif" font-size="13" lengthAdjust="spacing" textLength="284.4956" x="135.0322" y="854.3525">successMessage("Drone removed successfully!")</text><line style="stroke:#000000;stroke-width:1.0;stroke-dasharray:2.0,2.0;" x1="40" x2="1018.2808" y1="875.6152" y2="875.6152"/><!--SRC=[ZLN1Sk8m3BtdAxISOBRb0pZi35rww4otXuRPk-i8ugbZixQIJlv-5Tk1108q5uBrz9xqa8N_LEOWdAYWiiRAqjaAWLoDcJz63a9-YZtcr6e4XvA4sUiXm9UYi5_Ax64djCSi8qKCpLjFM46E_seq4c6ZnBw3p_Dyiu17UCVADdpih47OiJAyc0ODMTTccQZ9chhwGCVlaizW5e5RbEKCX8VDDcDvKb8TX26OhQ9UYCNNaAaQGTY1iyqM7d-bq8eRuR8yhRKEl7w-EA5JUchWaRCssnKK0VUgF6K5dcCpeMc00EK1gmEr6V1phYnHDVZid7NpsPjDQQ0CK8dWesgBj5mkPuj0SAbtTihzOMVzfTh1sKOLcADJGhy5H-UHT8goR_cKlqEIPR3egHsH-C6NHDXR0COIx6njYd0-94vUOjVy7_IU1-la0NmfAja4GH2b8D97hh51Fv8rr-tf34cyqxMScfGboi_GP4w2QZy_SP-QyY7K_R9TU-k_wvVNzTFhyn5vjyrjoRcHAv20jcRFtOb6A2q- -Cga3bL_3vRmktQEtvFu2cRmCrB4GXSZzMaVUYzk5UfB-nNwto1nCKC3herA_up7JLgpKwxAKVEYKDQS4x6R2OB5A79rSiEQ4FeTXR-WkrVRzA_DRAhWZ7lCbvakhAnWr6Z-7sAav_eEbHTDNy1KK-nJekIbglI4MNV7xNsKFxmlmwauolXQIiJYUqe1xFrHA-xcQ4_HHtUrrksahhaKkJwxa_FRFNmDMLFjIu8LtoLxyF31_rL0TchhPRSgk75p4hB_l4HsaMoyY_y3]--></g></svg>