<svg xmlns="http://www.w3.org/2000/svg" xmlns:xlink="http://www.w3.org/1999/xlink" contentStyleType="text/css" height="2089px" preserveAspectRatio="none" style="width:1953px;height:2089px;background:#FFFFFF;" version="1.1" viewBox="0 0 1953 2089" width="1953px" zoomAndPan="magnify"><title>UI Sequence Diagram (SSD) - Add Figure with DSL Validation</title><defs/><g><text fill="#000000" font-family="sans-serif" font-size="14" font-weight="bold" lengthAdjust="spacing" textLength="406.8203" x="769.1655" y="30.1074">UI Sequence Diagram (SSD) - Add Figure with DSL Validation</text><rect fill="#FFFFFF" height="1862.666" style="stroke:#181818;stroke-width:1.0;" width="10" x="85.4688" y="133.2422"/><rect fill="#FFFFFF" height="1794.084" style="stroke:#181818;stroke-width:1.0;" width="10" x="333.7729" y="201.8242"/><rect fill="#FFFFFF" height="33.6211" style="stroke:#181818;stroke-width:1.0;" width="10" x="560.7661" y="243.1152"/><rect fill="#FFFFFF" height="33.6211" style="stroke:#181818;stroke-width:1.0;" width="10" x="638.4521" y="380.6094"/><rect fill="#FFFFFF" height="33.6211" style="stroke:#181818;stroke-width:1.0;" width="10" x="750.376" y="733.8496"/><rect fill="#FFFFFF" height="33.6211" style="stroke:#181818;stroke-width:1.0;" width="10" x="866.9722" y="871.3438"/><rect fill="#FFFFFF" height="31.291" style="stroke:#181818;stroke-width:1.0;" width="10" x="1025.9785" y="490.8125"/><rect fill="#FFFFFF" height="31.291" style="stroke:#181818;stroke-width:1.0;" width="10" x="1220.3779" y="1673.6582"/><rect fill="#FFFFFF" height="31.291" style="stroke:#181818;stroke-width:1.0;" width="10" x="1402.7153" y="1221.875"/><rect fill="#FFFFFF" height="31.291" style="stroke:#181818;stroke-width:1.0;" width="10" x="1580.0181" y="1096.7109"/><rect fill="#FFFFFF" height="31.291" style="stroke:#181818;stroke-width:1.0;" width="10" x="1580.0181" y="1159.293"/><rect fill="#FFFFFF" height="31.291" style="stroke:#181818;stroke-width:1.0;" width="10" x="1580.0181" y="1284.457"/><rect fill="#FFFFFF" height="31.291" style="stroke:#181818;stroke-width:1.0;" width="10" x="1726.9658" y="1034.1289"/><rect fill="#FFFFFF" height="31.291" style="stroke:#181818;stroke-width:1.0;" width="10" x="1866.5103" y="1844.1133"/><rect fill="none" height="632.8203" style="stroke:#000000;stroke-width:1.5;" width="1801.8691" x="10" y="965.2559"/><rect fill="none" height="566.2383" style="stroke:#000000;stroke-width:1.5;" width="1781.8691" x="20" y="991.5469"/><rect fill="none" height="113.1641" style="stroke:#000000;stroke-width:1.5;" width="367.0142" x="30" y="1437.6211"/><rect fill="none" height="98.5039" style="stroke:#000000;stroke-width:1.5;" width="367.0142" x="30" y="1890.4043"/><line style="stroke:#181818;stroke-width:0.5;stroke-dasharray:5.0,5.0;" x1="90" x2="90" y1="123.2422" y2="2005.9082"/><line style="stroke:#181818;stroke-width:0.5;stroke-dasharray:5.0,5.0;" x1="338.5317" x2="338.5317" y1="123.2422" y2="2005.9082"/><line style="stroke:#181818;stroke-width:0.5;stroke-dasharray:5.0,5.0;" x1="565.0938" x2="565.0938" y1="241.6348" y2="2005.9082"/><line style="stroke:#181818;stroke-width:0.5;stroke-dasharray:5.0,5.0;" x1="643.4385" x2="643.4385" y1="379.1289" y2="2005.9082"/><line style="stroke:#181818;stroke-width:0.5;stroke-dasharray:5.0,5.0;" x1="754.4658" x2="754.4658" y1="732.3691" y2="2005.9082"/><line style="stroke:#181818;stroke-width:0.5;stroke-dasharray:5.0,5.0;" x1="871.2861" x2="871.2861" y1="869.8633" y2="2005.9082"/><line style="stroke:#181818;stroke-width:0.5;stroke-dasharray:5.0,5.0;" x1="1030.6582" x2="1030.6582" y1="123.2422" y2="2005.9082"/><line style="stroke:#181818;stroke-width:0.5;stroke-dasharray:5.0,5.0;" x1="1225.2988" x2="1225.2988" y1="123.2422" y2="2005.9082"/><line style="stroke:#181818;stroke-width:0.5;stroke-dasharray:5.0,5.0;" x1="1407.457" x2="1407.457" y1="123.2422" y2="2005.9082"/><line style="stroke:#181818;stroke-width:0.5;stroke-dasharray:5.0,5.0;" x1="1584.9736" x2="1584.9736" y1="123.2422" y2="2005.9082"/><line style="stroke:#181818;stroke-width:0.5;stroke-dasharray:5.0,5.0;" x1="1731.0625" x2="1731.0625" y1="123.2422" y2="2005.9082"/><line style="stroke:#181818;stroke-width:0.5;stroke-dasharray:5.0,5.0;" x1="1870.8691" x2="1870.8691" y1="123.2422" y2="2005.9082"/><text fill="#000000" font-family="sans-serif" font-size="14" lengthAdjust="spacing" textLength="94.9375" x="40" y="119.7285">Show Designer</text><ellipse cx="90.4688" cy="53.1211" fill="#E3E3E3" rx="8" ry="8" style="stroke:#181818;stroke-width:0.5;"/><path d="M90.4688,61.1211 L90.4688,88.1211 M77.4688,69.1211 L103.4688,69.1211 M90.4688,88.1211 L77.4688,103.1211 M90.4688,88.1211 L103.4688,103.1211 " fill="none" style="stroke:#181818;stroke-width:0.5;"/><text fill="#000000" font-family="sans-serif" font-size="14" lengthAdjust="spacing" textLength="94.9375" x="40" y="2020.0156">Show Designer</text><ellipse cx="90.4688" cy="2032.0293" fill="#E3E3E3" rx="8" ry="8" style="stroke:#181818;stroke-width:0.5;"/><path d="M90.4688,2040.0293 L90.4688,2067.0293 M77.4688,2048.0293 L103.4688,2048.0293 M90.4688,2067.0293 L77.4688,2082.0293 M90.4688,2067.0293 L103.4688,2082.0293 " fill="none" style="stroke:#181818;stroke-width:0.5;"/><rect fill="#E3E3E3" height="32.6211" rx="2.5" ry="2.5" style="stroke:#181818;stroke-width:0.5;" width="96.4824" x="290.5317" y="89.6211"/><text fill="#000000" font-family="sans-serif" font-size="14" lengthAdjust="spacing" textLength="82.4824" x="297.5317" y="111.7285">:AddFigureUI</text><rect fill="#E3E3E3" height="32.6211" rx="2.5" ry="2.5" style="stroke:#181818;stroke-width:0.5;" width="96.4824" x="290.5317" y="2004.9082"/><text fill="#000000" font-family="sans-serif" font-size="14" lengthAdjust="spacing" textLength="82.4824" x="297.5317" y="2027.0156">:AddFigureUI</text><rect fill="#E3E3E3" height="32.6211" rx="2.5" ry="2.5" style="stroke:#181818;stroke-width:0.5;" width="51.3447" x="540.0938" y="2004.9082"/><text fill="#000000" font-family="sans-serif" font-size="14" lengthAdjust="spacing" textLength="37.3447" x="547.0938" y="2027.0156">Name</text><rect fill="#E3E3E3" height="32.6211" rx="2.5" ry="2.5" style="stroke:#181818;stroke-width:0.5;" width="84.0273" x="601.4385" y="2004.9082"/><text fill="#000000" font-family="sans-serif" font-size="14" lengthAdjust="spacing" textLength="70.0273" x="608.4385" y="2027.0156">Description</text><rect fill="#E3E3E3" height="32.6211" rx="2.5" ry="2.5" style="stroke:#181818;stroke-width:0.5;" width="119.8203" x="695.4658" y="2004.9082"/><text fill="#000000" font-family="sans-serif" font-size="14" lengthAdjust="spacing" textLength="105.8203" x="702.4658" y="2027.0156">FigureAvailability</text><rect fill="#E3E3E3" height="32.6211" rx="2.5" ry="2.5" style="stroke:#181818;stroke-width:0.5;" width="93.3721" x="825.2861" y="2004.9082"/><text fill="#000000" font-family="sans-serif" font-size="14" lengthAdjust="spacing" textLength="79.3721" x="832.2861" y="2027.0156">FigureStatus</text><rect fill="#E3E3E3" height="32.6211" rx="2.5" ry="2.5" style="stroke:#181818;stroke-width:0.5;" width="204.6406" x="928.6582" y="89.6211"/><text fill="#000000" font-family="sans-serif" font-size="14" lengthAdjust="spacing" textLength="190.6406" x="935.6582" y="111.7285">GetFigureCategoriesController</text><rect fill="#E3E3E3" height="32.6211" rx="2.5" ry="2.5" style="stroke:#181818;stroke-width:0.5;" width="204.6406" x="928.6582" y="2004.9082"/><text fill="#000000" font-family="sans-serif" font-size="14" lengthAdjust="spacing" textLength="190.6406" x="935.6582" y="2027.0156">GetFigureCategoriesController</text><rect fill="#E3E3E3" height="32.6211" rx="2.5" ry="2.5" style="stroke:#181818;stroke-width:0.5;" width="164.1582" x="1143.2988" y="89.6211"/><text fill="#000000" font-family="sans-serif" font-size="14" lengthAdjust="spacing" textLength="150.1582" x="1150.2988" y="111.7285">ListCostumersController</text><rect fill="#E3E3E3" height="32.6211" rx="2.5" ry="2.5" style="stroke:#181818;stroke-width:0.5;" width="164.1582" x="1143.2988" y="2004.9082"/><text fill="#000000" font-family="sans-serif" font-size="14" lengthAdjust="spacing" textLength="150.1582" x="1150.2988" y="2027.0156">ListCostumersController</text><rect fill="#E3E3E3" height="32.6211" rx="2.5" ry="2.5" style="stroke:#181818;stroke-width:0.5;" width="180.5166" x="1317.457" y="89.6211"/><text fill="#000000" font-family="sans-serif" font-size="14" lengthAdjust="spacing" textLength="166.5166" x="1324.457" y="111.7285">GetDroneModelsController</text><rect fill="#E3E3E3" height="32.6211" rx="2.5" ry="2.5" style="stroke:#181818;stroke-width:0.5;" width="180.5166" x="1317.457" y="2004.9082"/><text fill="#000000" font-family="sans-serif" font-size="14" lengthAdjust="spacing" textLength="166.5166" x="1324.457" y="2027.0156">GetDroneModelsController</text><rect fill="#E3E3E3" height="32.6211" rx="2.5" ry="2.5" style="stroke:#181818;stroke-width:0.5;" width="154.0889" x="1507.9736" y="89.6211"/><text fill="#000000" font-family="sans-serif" font-size="14" lengthAdjust="spacing" textLength="140.0889" x="1514.9736" y="111.7285">FigureValidationPlugin</text><rect fill="#E3E3E3" height="32.6211" rx="2.5" ry="2.5" style="stroke:#181818;stroke-width:0.5;" width="154.0889" x="1507.9736" y="2004.9082"/><text fill="#000000" font-family="sans-serif" font-size="14" lengthAdjust="spacing" textLength="140.0889" x="1514.9736" y="2027.0156">FigureValidationPlugin</text><rect fill="#E3E3E3" height="32.6211" rx="2.5" ry="2.5" style="stroke:#181818;stroke-width:0.5;" width="119.8066" x="1672.0625" y="89.6211"/><text fill="#000000" font-family="sans-serif" font-size="14" lengthAdjust="spacing" textLength="105.8066" x="1679.0625" y="111.7285">DSLTextBoxUtils</text><rect fill="#E3E3E3" height="32.6211" rx="2.5" ry="2.5" style="stroke:#181818;stroke-width:0.5;" width="119.8066" x="1672.0625" y="2004.9082"/><text fill="#000000" font-family="sans-serif" font-size="14" lengthAdjust="spacing" textLength="105.8066" x="1679.0625" y="2027.0156">DSLTextBoxUtils</text><rect fill="#E3E3E3" height="32.6211" rx="2.5" ry="2.5" style="stroke:#181818;stroke-width:0.5;" width="139.2822" x="1801.8691" y="89.6211"/><text fill="#000000" font-family="sans-serif" font-size="14" lengthAdjust="spacing" textLength="125.2822" x="1808.8691" y="111.7285">AddFigureController</text><rect fill="#E3E3E3" height="32.6211" rx="2.5" ry="2.5" style="stroke:#181818;stroke-width:0.5;" width="139.2822" x="1801.8691" y="2004.9082"/><text fill="#000000" font-family="sans-serif" font-size="14" lengthAdjust="spacing" textLength="125.2822" x="1808.8691" y="2027.0156">AddFigureController</text><rect fill="#FFFFFF" height="1862.666" style="stroke:#181818;stroke-width:1.0;" width="10" x="85.4688" y="133.2422"/><rect fill="#FFFFFF" height="1794.084" style="stroke:#181818;stroke-width:1.0;" width="10" x="333.7729" y="201.8242"/><rect fill="#FFFFFF" height="33.6211" style="stroke:#181818;stroke-width:1.0;" width="10" x="560.7661" y="243.1152"/><rect fill="#FFFFFF" height="33.6211" style="stroke:#181818;stroke-width:1.0;" width="10" x="638.4521" y="380.6094"/><rect fill="#FFFFFF" height="33.6211" style="stroke:#181818;stroke-width:1.0;" width="10" x="750.376" y="733.8496"/><rect fill="#FFFFFF" height="33.6211" style="stroke:#181818;stroke-width:1.0;" width="10" x="866.9722" y="871.3438"/><rect fill="#FFFFFF" height="31.291" style="stroke:#181818;stroke-width:1.0;" width="10" x="1025.9785" y="490.8125"/><rect fill="#FFFFFF" height="31.291" style="stroke:#181818;stroke-width:1.0;" width="10" x="1220.3779" y="1673.6582"/><rect fill="#FFFFFF" height="31.291" style="stroke:#181818;stroke-width:1.0;" width="10" x="1402.7153" y="1221.875"/><rect fill="#FFFFFF" height="31.291" style="stroke:#181818;stroke-width:1.0;" width="10" x="1580.0181" y="1096.7109"/><rect fill="#FFFFFF" height="31.291" style="stroke:#181818;stroke-width:1.0;" width="10" x="1580.0181" y="1159.293"/><rect fill="#FFFFFF" height="31.291" style="stroke:#181818;stroke-width:1.0;" width="10" x="1580.0181" y="1284.457"/><rect fill="#FFFFFF" height="31.291" style="stroke:#181818;stroke-width:1.0;" width="10" x="1726.9658" y="1034.1289"/><rect fill="#FFFFFF" height="31.291" style="stroke:#181818;stroke-width:1.0;" width="10" x="1866.5103" y="1844.1133"/><rect fill="#EEEEEE" height="3" style="stroke:#EEEEEE;stroke-width:1.0;" width="1946.1514" x="0" y="154.8877"/><line style="stroke:#000000;stroke-width:1.0;" x1="0" x2="1946.1514" y1="154.8877" y2="154.8877"/><line style="stroke:#000000;stroke-width:1.0;" x1="0" x2="1946.1514" y1="157.8877" y2="157.8877"/><rect fill="#EEEEEE" height="25.291" style="stroke:#000000;stroke-width:2.0;" width="141.1436" x="902.5039" y="143.2422"/><text fill="#000000" font-family="sans-serif" font-size="13" font-weight="bold" lengthAdjust="spacing" textLength="123.5317" x="908.5039" y="161.2705">Name &amp; Description</text><polygon fill="#181818" points="321.7729,197.8242,331.7729,201.8242,321.7729,205.8242,325.7729,201.8242" style="stroke:#181818;stroke-width:1.0;"/><line style="stroke:#181818;stroke-width:1.0;" x1="95.4688" x2="327.7729" y1="201.8242" y2="201.8242"/><text fill="#000000" font-family="sans-serif" font-size="13" font-weight="bold" lengthAdjust="spacing" textLength="7.23" x="102.4688" y="196.5615">1</text><text fill="#000000" font-family="sans-serif" font-size="13" lengthAdjust="spacing" textLength="114.1626" x="113.6987" y="196.5615">start addFigure flow</text><polygon fill="#181818" points="528.0938,229.1152,538.0938,233.1152,528.0938,237.1152,532.0938,233.1152" style="stroke:#181818;stroke-width:1.0;"/><line style="stroke:#181818;stroke-width:1.0;" x1="343.7729" x2="534.0938" y1="233.1152" y2="233.1152"/><text fill="#000000" font-family="sans-serif" font-size="13" font-weight="bold" lengthAdjust="spacing" textLength="7.23" x="350.7729" y="227.8525">2</text><text fill="#000000" font-family="sans-serif" font-size="13" lengthAdjust="spacing" textLength="161.0908" x="362.0029" y="227.8525">Utils.rePromptWhileInvalid()</text><rect fill="#E3E3E3" height="32.6211" rx="2.5" ry="2.5" style="stroke:#181818;stroke-width:0.5;" width="51.3447" x="540.0938" y="209.8242"/><text fill="#000000" font-family="sans-serif" font-size="14" lengthAdjust="spacing" textLength="37.3447" x="547.0938" y="231.9316">Name</text><polygon fill="#181818" points="354.7729,272.7363,344.7729,276.7363,354.7729,280.7363,350.7729,276.7363" style="stroke:#181818;stroke-width:1.0;"/><line style="stroke:#181818;stroke-width:1.0;stroke-dasharray:2.0,2.0;" x1="348.7729" x2="564.7661" y1="276.7363" y2="276.7363"/><text fill="#000000" font-family="sans-serif" font-size="13" font-weight="bold" lengthAdjust="spacing" textLength="7.23" x="360.7729" y="271.4736">3</text><text fill="#000000" font-family="sans-serif" font-size="13" lengthAdjust="spacing" textLength="32.519" x="372.0029" y="271.4736">name</text><polygon fill="#181818" points="106.4688,304.0273,96.4688,308.0273,106.4688,312.0273,102.4688,308.0273" style="stroke:#181818;stroke-width:1.0;"/><line style="stroke:#181818;stroke-width:1.0;" x1="100.4688" x2="332.7729" y1="308.0273" y2="308.0273"/><text fill="#000000" font-family="sans-serif" font-size="13" font-weight="bold" lengthAdjust="spacing" textLength="7.23" x="112.4688" y="302.7646">4</text><text fill="#000000" font-family="sans-serif" font-size="13" lengthAdjust="spacing" textLength="154.6416" x="123.6987" y="302.7646">ask for optional description</text><polygon fill="#181818" points="321.7729,335.3184,331.7729,339.3184,321.7729,343.3184,325.7729,339.3184" style="stroke:#181818;stroke-width:1.0;"/><line style="stroke:#181818;stroke-width:1.0;" x1="95.4688" x2="327.7729" y1="339.3184" y2="339.3184"/><text fill="#000000" font-family="sans-serif" font-size="13" font-weight="bold" lengthAdjust="spacing" textLength="7.23" x="102.4688" y="334.0557">5</text><text fill="#000000" font-family="sans-serif" font-size="13" lengthAdjust="spacing" textLength="109.1162" x="113.6987" y="334.0557">provide description</text><polygon fill="#181818" points="589.4385,366.6094,599.4385,370.6094,589.4385,374.6094,593.4385,370.6094" style="stroke:#181818;stroke-width:1.0;"/><line style="stroke:#181818;stroke-width:1.0;" x1="343.7729" x2="595.4385" y1="370.6094" y2="370.6094"/><text fill="#000000" font-family="sans-serif" font-size="13" font-weight="bold" lengthAdjust="spacing" textLength="7.23" x="350.7729" y="365.3467">6</text><text fill="#000000" font-family="sans-serif" font-size="13" lengthAdjust="spacing" textLength="161.0908" x="362.0029" y="365.3467">Utils.rePromptWhileInvalid()</text><rect fill="#E3E3E3" height="32.6211" rx="2.5" ry="2.5" style="stroke:#181818;stroke-width:0.5;" width="84.0273" x="601.4385" y="347.3184"/><text fill="#000000" font-family="sans-serif" font-size="14" lengthAdjust="spacing" textLength="70.0273" x="608.4385" y="369.4258">Description</text><polygon fill="#181818" points="354.7729,410.2305,344.7729,414.2305,354.7729,418.2305,350.7729,414.2305" style="stroke:#181818;stroke-width:1.0;"/><line style="stroke:#181818;stroke-width:1.0;stroke-dasharray:2.0,2.0;" x1="348.7729" x2="642.4521" y1="414.2305" y2="414.2305"/><text fill="#000000" font-family="sans-serif" font-size="13" font-weight="bold" lengthAdjust="spacing" textLength="7.23" x="360.7729" y="408.9678">7</text><text fill="#000000" font-family="sans-serif" font-size="13" lengthAdjust="spacing" textLength="62.8672" x="372.0029" y="408.9678">description</text><rect fill="#EEEEEE" height="3" style="stroke:#EEEEEE;stroke-width:1.0;" width="1946.1514" x="0" y="443.876"/><line style="stroke:#000000;stroke-width:1.0;" x1="0" x2="1946.1514" y1="443.876" y2="443.876"/><line style="stroke:#000000;stroke-width:1.0;" x1="0" x2="1946.1514" y1="446.876" y2="446.876"/><rect fill="#EEEEEE" height="25.291" style="stroke:#000000;stroke-width:2.0;" width="135.3672" x="905.3921" y="432.2305"/><text fill="#000000" font-family="sans-serif" font-size="13" font-weight="bold" lengthAdjust="spacing" textLength="117.7554" x="911.3921" y="450.2588">Category Selection</text><polygon fill="#181818" points="1013.9785,486.8125,1023.9785,490.8125,1013.9785,494.8125,1017.9785,490.8125" style="stroke:#181818;stroke-width:1.0;"/><line style="stroke:#181818;stroke-width:1.0;" x1="343.7729" x2="1019.9785" y1="490.8125" y2="490.8125"/><text fill="#000000" font-family="sans-serif" font-size="13" font-weight="bold" lengthAdjust="spacing" textLength="7.23" x="350.7729" y="485.5498">8</text><text fill="#000000" font-family="sans-serif" font-size="13" lengthAdjust="spacing" textLength="161.8462" x="362.0029" y="485.5498">getActiveFigureCategories()</text><polygon fill="#181818" points="354.7729,518.1035,344.7729,522.1035,354.7729,526.1035,350.7729,522.1035" style="stroke:#181818;stroke-width:1.0;"/><line style="stroke:#181818;stroke-width:1.0;stroke-dasharray:2.0,2.0;" x1="348.7729" x2="1029.9785" y1="522.1035" y2="522.1035"/><text fill="#000000" font-family="sans-serif" font-size="13" font-weight="bold" lengthAdjust="spacing" textLength="7.23" x="360.7729" y="516.8408">9</text><text fill="#000000" font-family="sans-serif" font-size="13" lengthAdjust="spacing" textLength="125.0107" x="372.0029" y="516.8408">List&lt;FigureCategory&gt;</text><polygon fill="#181818" points="106.4688,549.3945,96.4688,553.3945,106.4688,557.3945,102.4688,553.3945" style="stroke:#181818;stroke-width:1.0;"/><line style="stroke:#181818;stroke-width:1.0;" x1="100.4688" x2="332.7729" y1="553.3945" y2="553.3945"/><text fill="#000000" font-family="sans-serif" font-size="13" font-weight="bold" lengthAdjust="spacing" textLength="14.46" x="112.4688" y="548.1318">10</text><text fill="#000000" font-family="sans-serif" font-size="13" lengthAdjust="spacing" textLength="195.8442" x="130.9287" y="548.1318">show categories and get selection</text><polygon fill="#181818" points="321.7729,580.6855,331.7729,584.6855,321.7729,588.6855,325.7729,584.6855" style="stroke:#181818;stroke-width:1.0;"/><line style="stroke:#181818;stroke-width:1.0;" x1="95.4688" x2="327.7729" y1="584.6855" y2="584.6855"/><text fill="#000000" font-family="sans-serif" font-size="13" font-weight="bold" lengthAdjust="spacing" textLength="14.46" x="102.4688" y="579.4229">11</text><text fill="#000000" font-family="sans-serif" font-size="13" lengthAdjust="spacing" textLength="101.8926" x="120.9287" y="579.4229">category selected</text><rect fill="#EEEEEE" height="3" style="stroke:#EEEEEE;stroke-width:1.0;" width="1946.1514" x="0" y="614.3311"/><line style="stroke:#000000;stroke-width:1.0;" x1="0" x2="1946.1514" y1="614.3311" y2="614.3311"/><line style="stroke:#000000;stroke-width:1.0;" x1="0" x2="1946.1514" y1="617.3311" y2="617.3311"/><rect fill="#EEEEEE" height="25.291" style="stroke:#000000;stroke-width:2.0;" width="142.5908" x="901.7803" y="602.6855"/><text fill="#000000" font-family="sans-serif" font-size="13" font-weight="bold" lengthAdjust="spacing" textLength="124.979" x="907.7803" y="620.7139">Availability &amp; Status</text><polygon fill="#181818" points="106.4688,657.2676,96.4688,661.2676,106.4688,665.2676,102.4688,661.2676" style="stroke:#181818;stroke-width:1.0;"/><line style="stroke:#181818;stroke-width:1.0;" x1="100.4688" x2="332.7729" y1="661.2676" y2="661.2676"/><text fill="#000000" font-family="sans-serif" font-size="13" font-weight="bold" lengthAdjust="spacing" textLength="14.46" x="112.4688" y="656.0049">12</text><text fill="#000000" font-family="sans-serif" font-size="13" lengthAdjust="spacing" textLength="144.5171" x="130.9287" y="656.0049">ask to provide availability</text><polygon fill="#181818" points="321.7729,688.5586,331.7729,692.5586,321.7729,696.5586,325.7729,692.5586" style="stroke:#181818;stroke-width:1.0;"/><line style="stroke:#181818;stroke-width:1.0;" x1="95.4688" x2="327.7729" y1="692.5586" y2="692.5586"/><text fill="#000000" font-family="sans-serif" font-size="13" font-weight="bold" lengthAdjust="spacing" textLength="14.46" x="102.4688" y="687.2959">13</text><text fill="#000000" font-family="sans-serif" font-size="13" lengthAdjust="spacing" textLength="84.519" x="120.9287" y="687.2959">confirm or skip</text><polygon fill="#181818" points="683.4658,719.8496,693.4658,723.8496,683.4658,727.8496,687.4658,723.8496" style="stroke:#181818;stroke-width:1.0;"/><line style="stroke:#181818;stroke-width:1.0;" x1="343.7729" x2="689.4658" y1="723.8496" y2="723.8496"/><text fill="#000000" font-family="sans-serif" font-size="13" font-weight="bold" lengthAdjust="spacing" textLength="14.46" x="350.7729" y="718.5869">14</text><text fill="#000000" font-family="sans-serif" font-size="13" lengthAdjust="spacing" textLength="195.0508" x="369.2329" y="718.5869">Utils.rePromptEnumWhileInvalid()</text><rect fill="#E3E3E3" height="32.6211" rx="2.5" ry="2.5" style="stroke:#181818;stroke-width:0.5;" width="119.8203" x="695.4658" y="700.5586"/><text fill="#000000" font-family="sans-serif" font-size="14" lengthAdjust="spacing" textLength="105.8203" x="702.4658" y="722.666">FigureAvailability</text><polygon fill="#181818" points="354.7729,763.4707,344.7729,767.4707,354.7729,771.4707,350.7729,767.4707" style="stroke:#181818;stroke-width:1.0;"/><line style="stroke:#181818;stroke-width:1.0;stroke-dasharray:2.0,2.0;" x1="348.7729" x2="754.376" y1="767.4707" y2="767.4707"/><text fill="#000000" font-family="sans-serif" font-size="13" font-weight="bold" lengthAdjust="spacing" textLength="14.46" x="360.7729" y="762.208">15</text><text fill="#000000" font-family="sans-serif" font-size="13" lengthAdjust="spacing" textLength="98.2617" x="379.2329" y="762.208">FigureAvailability</text><polygon fill="#181818" points="106.4688,794.7617,96.4688,798.7617,106.4688,802.7617,102.4688,798.7617" style="stroke:#181818;stroke-width:1.0;"/><line style="stroke:#181818;stroke-width:1.0;" x1="100.4688" x2="332.7729" y1="798.7617" y2="798.7617"/><text fill="#000000" font-family="sans-serif" font-size="13" font-weight="bold" lengthAdjust="spacing" textLength="14.46" x="112.4688" y="793.499">16</text><text fill="#000000" font-family="sans-serif" font-size="13" lengthAdjust="spacing" textLength="119.228" x="130.9287" y="793.499">ask to provide status</text><polygon fill="#181818" points="321.7729,826.0527,331.7729,830.0527,321.7729,834.0527,325.7729,830.0527" style="stroke:#181818;stroke-width:1.0;"/><line style="stroke:#181818;stroke-width:1.0;" x1="95.4688" x2="327.7729" y1="830.0527" y2="830.0527"/><text fill="#000000" font-family="sans-serif" font-size="13" font-weight="bold" lengthAdjust="spacing" textLength="14.46" x="102.4688" y="824.79">17</text><text fill="#000000" font-family="sans-serif" font-size="13" lengthAdjust="spacing" textLength="84.519" x="120.9287" y="824.79">confirm or skip</text><polygon fill="#181818" points="813.2861,857.3438,823.2861,861.3438,813.2861,865.3438,817.2861,861.3438" style="stroke:#181818;stroke-width:1.0;"/><line style="stroke:#181818;stroke-width:1.0;" x1="343.7729" x2="819.2861" y1="861.3438" y2="861.3438"/><text fill="#000000" font-family="sans-serif" font-size="13" font-weight="bold" lengthAdjust="spacing" textLength="14.46" x="350.7729" y="856.0811">18</text><text fill="#000000" font-family="sans-serif" font-size="13" lengthAdjust="spacing" textLength="195.0508" x="369.2329" y="856.0811">Utils.rePromptEnumWhileInvalid()</text><rect fill="#E3E3E3" height="32.6211" rx="2.5" ry="2.5" style="stroke:#181818;stroke-width:0.5;" width="93.3721" x="825.2861" y="838.0527"/><text fill="#000000" font-family="sans-serif" font-size="14" lengthAdjust="spacing" textLength="79.3721" x="832.2861" y="860.1602">FigureStatus</text><polygon fill="#181818" points="354.7729,900.9648,344.7729,904.9648,354.7729,908.9648,350.7729,904.9648" style="stroke:#181818;stroke-width:1.0;"/><line style="stroke:#181818;stroke-width:1.0;stroke-dasharray:2.0,2.0;" x1="348.7729" x2="870.9722" y1="904.9648" y2="904.9648"/><text fill="#000000" font-family="sans-serif" font-size="13" font-weight="bold" lengthAdjust="spacing" textLength="14.46" x="360.7729" y="899.7021">19</text><text fill="#000000" font-family="sans-serif" font-size="13" lengthAdjust="spacing" textLength="73.7026" x="379.2329" y="899.7021">FigureStatus</text><rect fill="#EEEEEE" height="3" style="stroke:#EEEEEE;stroke-width:1.0;" width="1946.1514" x="0" y="934.6104"/><line style="stroke:#000000;stroke-width:1.0;" x1="0" x2="1946.1514" y1="934.6104" y2="934.6104"/><line style="stroke:#000000;stroke-width:1.0;" x1="0" x2="1946.1514" y1="937.6104" y2="937.6104"/><rect fill="#EEEEEE" height="25.291" style="stroke:#000000;stroke-width:2.0;" width="193.0928" x="876.5293" y="922.9648"/><text fill="#000000" font-family="sans-serif" font-size="13" font-weight="bold" lengthAdjust="spacing" textLength="175.481" x="882.5293" y="940.9932">DSL Input &amp; Validation Loop</text><path d="M10,965.2559 L70.1709,965.2559 L70.1709,974.5469 L60.1709,984.5469 L10,984.5469 L10,965.2559 " fill="#EEEEEE" style="stroke:#000000;stroke-width:1.5;"/><rect fill="none" height="632.8203" style="stroke:#000000;stroke-width:1.5;" width="1801.8691" x="10" y="965.2559"/><text fill="#000000" font-family="sans-serif" font-size="13" font-weight="bold" lengthAdjust="spacing" textLength="15.1709" x="25" y="980.2842">alt</text><text fill="#000000" font-family="sans-serif" font-size="11" font-weight="bold" lengthAdjust="spacing" textLength="53.7646" x="85.1709" y="979.126">[Add DSL]</text><path d="M20,991.5469 L92.4346,991.5469 L92.4346,1000.8379 L82.4346,1010.8379 L20,1010.8379 L20,991.5469 " fill="#EEEEEE" style="stroke:#000000;stroke-width:1.5;"/><rect fill="none" height="566.2383" style="stroke:#000000;stroke-width:1.5;" width="1781.8691" x="20" y="991.5469"/><text fill="#000000" font-family="sans-serif" font-size="13" font-weight="bold" lengthAdjust="spacing" textLength="27.4346" x="35" y="1006.5752">loop</text><text fill="#000000" font-family="sans-serif" font-size="11" font-weight="bold" lengthAdjust="spacing" textLength="159.5107" x="107.4346" y="1005.417">[While User wants to add DSL]</text><polygon fill="#181818" points="1714.9658,1030.1289,1724.9658,1034.1289,1714.9658,1038.1289,1718.9658,1034.1289" style="stroke:#181818;stroke-width:1.0;"/><line style="stroke:#181818;stroke-width:1.0;" x1="343.7729" x2="1720.9658" y1="1034.1289" y2="1034.1289"/><text fill="#000000" font-family="sans-serif" font-size="13" font-weight="bold" lengthAdjust="spacing" textLength="14.46" x="350.7729" y="1028.8662">20</text><text fill="#000000" font-family="sans-serif" font-size="13" lengthAdjust="spacing" textLength="154.5972" x="369.2329" y="1028.8662">getDslLinesFromTextBox()</text><polygon fill="#181818" points="354.7729,1061.4199,344.7729,1065.4199,354.7729,1069.4199,350.7729,1065.4199" style="stroke:#181818;stroke-width:1.0;"/><line style="stroke:#181818;stroke-width:1.0;stroke-dasharray:2.0,2.0;" x1="348.7729" x2="1730.9658" y1="1065.4199" y2="1065.4199"/><text fill="#000000" font-family="sans-serif" font-size="13" font-weight="bold" lengthAdjust="spacing" textLength="14.46" x="360.7729" y="1060.1572">21</text><text fill="#000000" font-family="sans-serif" font-size="13" lengthAdjust="spacing" textLength="120.6816" x="379.2329" y="1060.1572">List&lt;String&gt; dslLines</text><polygon fill="#181818" points="1568.0181,1092.7109,1578.0181,1096.7109,1568.0181,1100.7109,1572.0181,1096.7109" style="stroke:#181818;stroke-width:1.0;"/><line style="stroke:#181818;stroke-width:1.0;" x1="343.7729" x2="1574.0181" y1="1096.7109" y2="1096.7109"/><text fill="#000000" font-family="sans-serif" font-size="13" font-weight="bold" lengthAdjust="spacing" textLength="14.46" x="350.7729" y="1091.4482">22</text><text fill="#000000" font-family="sans-serif" font-size="13" lengthAdjust="spacing" textLength="101.1626" x="369.2329" y="1091.4482">validate(dslLines)</text><polygon fill="#181818" points="354.7729,1124.002,344.7729,1128.002,354.7729,1132.002,350.7729,1128.002" style="stroke:#181818;stroke-width:1.0;"/><line style="stroke:#181818;stroke-width:1.0;stroke-dasharray:2.0,2.0;" x1="348.7729" x2="1584.0181" y1="1128.002" y2="1128.002"/><text fill="#000000" font-family="sans-serif" font-size="13" font-weight="bold" lengthAdjust="spacing" textLength="14.46" x="360.7729" y="1122.7393">23</text><text fill="#000000" font-family="sans-serif" font-size="13" lengthAdjust="spacing" textLength="106.9326" x="379.2329" y="1122.7393">List&lt;String&gt; errors</text><polygon fill="#181818" points="1568.0181,1155.293,1578.0181,1159.293,1568.0181,1163.293,1572.0181,1159.293" style="stroke:#181818;stroke-width:1.0;"/><line style="stroke:#181818;stroke-width:1.0;" x1="343.7729" x2="1574.0181" y1="1159.293" y2="1159.293"/><text fill="#000000" font-family="sans-serif" font-size="13" font-weight="bold" lengthAdjust="spacing" textLength="14.46" x="350.7729" y="1154.0303">24</text><text fill="#000000" font-family="sans-serif" font-size="13" lengthAdjust="spacing" textLength="132.2217" x="369.2329" y="1154.0303">getDroneModelName()</text><polygon fill="#181818" points="354.7729,1186.584,344.7729,1190.584,354.7729,1194.584,350.7729,1190.584" style="stroke:#181818;stroke-width:1.0;"/><line style="stroke:#181818;stroke-width:1.0;stroke-dasharray:2.0,2.0;" x1="348.7729" x2="1584.0181" y1="1190.584" y2="1190.584"/><text fill="#000000" font-family="sans-serif" font-size="13" font-weight="bold" lengthAdjust="spacing" textLength="14.46" x="360.7729" y="1185.3213">25</text><text fill="#000000" font-family="sans-serif" font-size="13" lengthAdjust="spacing" textLength="103.3335" x="379.2329" y="1185.3213">droneModelName</text><polygon fill="#181818" points="1390.7153,1217.875,1400.7153,1221.875,1390.7153,1225.875,1394.7153,1221.875" style="stroke:#181818;stroke-width:1.0;"/><line style="stroke:#181818;stroke-width:1.0;" x1="343.7729" x2="1396.7153" y1="1221.875" y2="1221.875"/><text fill="#000000" font-family="sans-serif" font-size="13" font-weight="bold" lengthAdjust="spacing" textLength="14.46" x="350.7729" y="1216.6123">26</text><text fill="#000000" font-family="sans-serif" font-size="13" lengthAdjust="spacing" textLength="83.0845" x="369.2329" y="1216.6123">getAllModels()</text><polygon fill="#181818" points="354.7729,1249.166,344.7729,1253.166,354.7729,1257.166,350.7729,1253.166" style="stroke:#181818;stroke-width:1.0;"/><line style="stroke:#181818;stroke-width:1.0;stroke-dasharray:2.0,2.0;" x1="348.7729" x2="1406.7153" y1="1253.166" y2="1253.166"/><text fill="#000000" font-family="sans-serif" font-size="13" font-weight="bold" lengthAdjust="spacing" textLength="14.46" x="360.7729" y="1247.9033">27</text><text fill="#000000" font-family="sans-serif" font-size="13" lengthAdjust="spacing" textLength="112.728" x="379.2329" y="1247.9033">List&lt;DroneModels&gt;</text><polygon fill="#181818" points="1568.0181,1280.457,1578.0181,1284.457,1568.0181,1288.457,1572.0181,1284.457" style="stroke:#181818;stroke-width:1.0;"/><line style="stroke:#181818;stroke-width:1.0;" x1="343.7729" x2="1574.0181" y1="1284.457" y2="1284.457"/><text fill="#000000" font-family="sans-serif" font-size="13" font-weight="bold" lengthAdjust="spacing" textLength="14.46" x="350.7729" y="1279.1943">28</text><text fill="#000000" font-family="sans-serif" font-size="13" lengthAdjust="spacing" textLength="89.5845" x="369.2329" y="1279.1943">getDslVersion()</text><polygon fill="#181818" points="354.7729,1311.748,344.7729,1315.748,354.7729,1319.748,350.7729,1315.748" style="stroke:#181818;stroke-width:1.0;"/><line style="stroke:#181818;stroke-width:1.0;stroke-dasharray:2.0,2.0;" x1="348.7729" x2="1584.0181" y1="1315.748" y2="1315.748"/><text fill="#000000" font-family="sans-serif" font-size="13" font-weight="bold" lengthAdjust="spacing" textLength="14.46" x="360.7729" y="1310.4854">29</text><text fill="#000000" font-family="sans-serif" font-size="13" lengthAdjust="spacing" textLength="41.9072" x="379.2329" y="1310.4854">version</text><line style="stroke:#181818;stroke-width:1.0;stroke-dasharray:2.0,2.0;" x1="343.7729" x2="385.7729" y1="1347.0391" y2="1347.0391"/><line style="stroke:#181818;stroke-width:1.0;stroke-dasharray:2.0,2.0;" x1="385.7729" x2="385.7729" y1="1347.0391" y2="1360.0391"/><line style="stroke:#181818;stroke-width:1.0;stroke-dasharray:2.0,2.0;" x1="344.7729" x2="385.7729" y1="1360.0391" y2="1360.0391"/><polygon fill="#181818" points="354.7729,1356.0391,344.7729,1360.0391,354.7729,1364.0391,350.7729,1360.0391" style="stroke:#181818;stroke-width:1.0;"/><text fill="#000000" font-family="sans-serif" font-size="13" font-weight="bold" lengthAdjust="spacing" textLength="14.46" x="350.7729" y="1341.7764">30</text><text fill="#000000" font-family="sans-serif" font-size="13" lengthAdjust="spacing" textLength="173.4116" x="369.2329" y="1341.7764">Store DSL in dslVersions Map</text><polygon fill="#181818" points="106.4688,1387.3301,96.4688,1391.3301,106.4688,1395.3301,102.4688,1391.3301" style="stroke:#181818;stroke-width:1.0;"/><line style="stroke:#181818;stroke-width:1.0;" x1="100.4688" x2="332.7729" y1="1391.3301" y2="1391.3301"/><text fill="#000000" font-family="sans-serif" font-size="13" font-weight="bold" lengthAdjust="spacing" textLength="14.46" x="112.4688" y="1386.0674">31</text><text fill="#000000" font-family="sans-serif" font-size="13" lengthAdjust="spacing" textLength="177.7725" x="130.9287" y="1386.0674">ask if want to add another DSL</text><polygon fill="#181818" points="321.7729,1418.6211,331.7729,1422.6211,321.7729,1426.6211,325.7729,1422.6211" style="stroke:#181818;stroke-width:1.0;"/><line style="stroke:#181818;stroke-width:1.0;stroke-dasharray:2.0,2.0;" x1="95.4688" x2="327.7729" y1="1422.6211" y2="1422.6211"/><text fill="#000000" font-family="sans-serif" font-size="13" font-weight="bold" lengthAdjust="spacing" textLength="14.46" x="102.4688" y="1417.3584">32</text><text fill="#000000" font-family="sans-serif" font-size="13" lengthAdjust="spacing" textLength="38.3018" x="120.9287" y="1417.3584">yes/no</text><path d="M30,1437.6211 L90.1709,1437.6211 L90.1709,1446.9121 L80.1709,1456.9121 L30,1456.9121 L30,1437.6211 " fill="#EEEEEE" style="stroke:#000000;stroke-width:1.5;"/><rect fill="none" height="113.1641" style="stroke:#000000;stroke-width:1.5;" width="367.0142" x="30" y="1437.6211"/><text fill="#000000" font-family="sans-serif" font-size="13" font-weight="bold" lengthAdjust="spacing" textLength="15.1709" x="45" y="1452.6494">alt</text><text fill="#000000" font-family="sans-serif" font-size="11" font-weight="bold" lengthAdjust="spacing" textLength="76.3984" x="105.1709" y="1451.4912">[if erros in dsl]</text><polygon fill="#181818" points="106.4688,1476.2031,96.4688,1480.2031,106.4688,1484.2031,102.4688,1480.2031" style="stroke:#181818;stroke-width:1.0;"/><line style="stroke:#181818;stroke-width:1.0;" x1="100.4688" x2="332.7729" y1="1480.2031" y2="1480.2031"/><text fill="#000000" font-family="sans-serif" font-size="13" font-weight="bold" lengthAdjust="spacing" textLength="14.46" x="112.4688" y="1474.9404">33</text><text fill="#000000" font-family="sans-serif" font-size="13" lengthAdjust="spacing" textLength="126.4453" x="130.9287" y="1474.9404">show validation errors</text><polygon fill="#181818" points="106.4688,1507.4941,96.4688,1511.4941,106.4688,1515.4941,102.4688,1511.4941" style="stroke:#181818;stroke-width:1.0;"/><line style="stroke:#181818;stroke-width:1.0;" x1="100.4688" x2="332.7729" y1="1511.4941" y2="1511.4941"/><text fill="#000000" font-family="sans-serif" font-size="13" font-weight="bold" lengthAdjust="spacing" textLength="14.46" x="112.4688" y="1506.2314">34</text><text fill="#000000" font-family="sans-serif" font-size="13" lengthAdjust="spacing" textLength="64.2954" x="130.9287" y="1506.2314">ask to retry</text><polygon fill="#181818" points="321.7729,1538.7852,331.7729,1542.7852,321.7729,1546.7852,325.7729,1542.7852" style="stroke:#181818;stroke-width:1.0;"/><line style="stroke:#181818;stroke-width:1.0;stroke-dasharray:2.0,2.0;" x1="95.4688" x2="327.7729" y1="1542.7852" y2="1542.7852"/><text fill="#000000" font-family="sans-serif" font-size="13" font-weight="bold" lengthAdjust="spacing" textLength="14.46" x="102.4688" y="1537.5225">35</text><text fill="#000000" font-family="sans-serif" font-size="13" lengthAdjust="spacing" textLength="38.3018" x="120.9287" y="1537.5225">yes/no</text><line style="stroke:#000000;stroke-width:1.0;stroke-dasharray:2.0,2.0;" x1="10" x2="1811.8691" y1="1565.7852" y2="1565.7852"/><polygon fill="#181818" points="106.4688,1586.0762,96.4688,1590.0762,106.4688,1594.0762,102.4688,1590.0762" style="stroke:#181818;stroke-width:1.0;"/><line style="stroke:#181818;stroke-width:1.0;" x1="100.4688" x2="332.7729" y1="1590.0762" y2="1590.0762"/><text fill="#000000" font-family="sans-serif" font-size="13" font-weight="bold" lengthAdjust="spacing" textLength="14.46" x="112.4688" y="1584.8135">36</text><text fill="#000000" font-family="sans-serif" font-size="13" lengthAdjust="spacing" textLength="55.6436" x="130.9287" y="1584.8135">skipped...</text><rect fill="#EEEEEE" height="3" style="stroke:#EEEEEE;stroke-width:1.0;" width="1946.1514" x="0" y="1626.7217"/><line style="stroke:#000000;stroke-width:1.0;" x1="0" x2="1946.1514" y1="1626.7217" y2="1626.7217"/><line style="stroke:#000000;stroke-width:1.0;" x1="0" x2="1946.1514" y1="1629.7217" y2="1629.7217"/><rect fill="#EEEEEE" height="25.291" style="stroke:#000000;stroke-width:2.0;" width="139.6963" x="903.2275" y="1615.0762"/><text fill="#000000" font-family="sans-serif" font-size="13" font-weight="bold" lengthAdjust="spacing" textLength="122.0845" x="909.2275" y="1633.1045">Costumer Selection</text><polygon fill="#181818" points="1208.3779,1669.6582,1218.3779,1673.6582,1208.3779,1677.6582,1212.3779,1673.6582" style="stroke:#181818;stroke-width:1.0;"/><line style="stroke:#181818;stroke-width:1.0;" x1="343.7729" x2="1214.3779" y1="1673.6582" y2="1673.6582"/><text fill="#000000" font-family="sans-serif" font-size="13" font-weight="bold" lengthAdjust="spacing" textLength="14.46" x="350.7729" y="1668.3955">37</text><text fill="#000000" font-family="sans-serif" font-size="13" lengthAdjust="spacing" textLength="97.5254" x="369.2329" y="1668.3955">getAllCustomer()</text><polygon fill="#181818" points="354.7729,1700.9492,344.7729,1704.9492,354.7729,1708.9492,350.7729,1704.9492" style="stroke:#181818;stroke-width:1.0;"/><line style="stroke:#181818;stroke-width:1.0;stroke-dasharray:2.0,2.0;" x1="348.7729" x2="1224.3779" y1="1704.9492" y2="1704.9492"/><text fill="#000000" font-family="sans-serif" font-size="13" font-weight="bold" lengthAdjust="spacing" textLength="14.46" x="360.7729" y="1699.6865">38</text><text fill="#000000" font-family="sans-serif" font-size="13" lengthAdjust="spacing" textLength="91.7617" x="379.2329" y="1699.6865">List&lt;Costumer&gt;</text><polygon fill="#181818" points="106.4688,1732.2402,96.4688,1736.2402,106.4688,1740.2402,102.4688,1736.2402" style="stroke:#181818;stroke-width:1.0;"/><line style="stroke:#181818;stroke-width:1.0;" x1="100.4688" x2="332.7729" y1="1736.2402" y2="1736.2402"/><text fill="#000000" font-family="sans-serif" font-size="13" font-weight="bold" lengthAdjust="spacing" textLength="14.46" x="112.4688" y="1730.9775">39</text><text fill="#000000" font-family="sans-serif" font-size="13" lengthAdjust="spacing" textLength="187.1353" x="130.9287" y="1730.9775">ask to select costumer (optional)</text><polygon fill="#181818" points="321.7729,1763.5313,331.7729,1767.5313,321.7729,1771.5313,325.7729,1767.5313" style="stroke:#181818;stroke-width:1.0;"/><line style="stroke:#181818;stroke-width:1.0;stroke-dasharray:2.0,2.0;" x1="95.4688" x2="327.7729" y1="1767.5313" y2="1767.5313"/><text fill="#000000" font-family="sans-serif" font-size="13" font-weight="bold" lengthAdjust="spacing" textLength="14.46" x="102.4688" y="1762.2686">40</text><text fill="#000000" font-family="sans-serif" font-size="13" lengthAdjust="spacing" textLength="112.0107" x="120.9287" y="1762.2686">selected or skipped</text><rect fill="#EEEEEE" height="3" style="stroke:#EEEEEE;stroke-width:1.0;" width="1946.1514" x="0" y="1797.1768"/><line style="stroke:#000000;stroke-width:1.0;" x1="0" x2="1946.1514" y1="1797.1768" y2="1797.1768"/><line style="stroke:#000000;stroke-width:1.0;" x1="0" x2="1946.1514" y1="1800.1768" y2="1800.1768"/><rect fill="#EEEEEE" height="25.291" style="stroke:#000000;stroke-width:2.0;" width="125.2363" x="910.4575" y="1785.5313"/><text fill="#000000" font-family="sans-serif" font-size="13" font-weight="bold" lengthAdjust="spacing" textLength="107.6245" x="916.4575" y="1803.5596">Final Submission</text><polygon fill="#181818" points="1854.5103,1840.1133,1864.5103,1844.1133,1854.5103,1848.1133,1858.5103,1844.1133" style="stroke:#181818;stroke-width:1.0;"/><line style="stroke:#181818;stroke-width:1.0;" x1="343.7729" x2="1860.5103" y1="1844.1133" y2="1844.1133"/><text fill="#000000" font-family="sans-serif" font-size="13" font-weight="bold" lengthAdjust="spacing" textLength="14.46" x="350.7729" y="1838.8506">41</text><text fill="#000000" font-family="sans-serif" font-size="13" lengthAdjust="spacing" textLength="435.6904" x="369.2329" y="1838.8506">addFigure(name, desc, category, availability, status, dslVersions, costumer)</text><polygon fill="#181818" points="354.7729,1871.4043,344.7729,1875.4043,354.7729,1879.4043,350.7729,1875.4043" style="stroke:#181818;stroke-width:1.0;"/><line style="stroke:#181818;stroke-width:1.0;stroke-dasharray:2.0,2.0;" x1="348.7729" x2="1870.5103" y1="1875.4043" y2="1875.4043"/><text fill="#000000" font-family="sans-serif" font-size="13" font-weight="bold" lengthAdjust="spacing" textLength="14.46" x="360.7729" y="1870.1416">42</text><text fill="#000000" font-family="sans-serif" font-size="13" lengthAdjust="spacing" textLength="100.4517" x="379.2329" y="1870.1416">Optional&lt;Figure&gt;</text><path d="M30,1890.4043 L90.1709,1890.4043 L90.1709,1899.6953 L80.1709,1909.6953 L30,1909.6953 L30,1890.4043 " fill="#EEEEEE" style="stroke:#000000;stroke-width:1.5;"/><rect fill="none" height="98.5039" style="stroke:#000000;stroke-width:1.5;" width="367.0142" x="30" y="1890.4043"/><text fill="#000000" font-family="sans-serif" font-size="13" font-weight="bold" lengthAdjust="spacing" textLength="15.1709" x="45" y="1905.4326">alt</text><text fill="#000000" font-family="sans-serif" font-size="11" font-weight="bold" lengthAdjust="spacing" textLength="145.4814" x="105.1709" y="1904.2744">[Figure added successfully]</text><polygon fill="#181818" points="106.4688,1928.9863,96.4688,1932.9863,106.4688,1936.9863,102.4688,1932.9863" style="stroke:#181818;stroke-width:1.0;"/><line style="stroke:#181818;stroke-width:1.0;stroke-dasharray:2.0,2.0;" x1="100.4688" x2="332.7729" y1="1932.9863" y2="1932.9863"/><text fill="#000000" font-family="sans-serif" font-size="13" font-weight="bold" lengthAdjust="spacing" textLength="14.46" x="112.4688" y="1927.7236">43</text><text fill="#000000" font-family="sans-serif" font-size="13" lengthAdjust="spacing" textLength="103.3208" x="130.9287" y="1927.7236">success message</text><line style="stroke:#000000;stroke-width:1.0;stroke-dasharray:2.0,2.0;" x1="30" x2="397.0142" y1="1941.9863" y2="1941.9863"/><text fill="#000000" font-family="sans-serif" font-size="11" font-weight="bold" lengthAdjust="spacing" textLength="142.4414" x="35" y="1953.8564">[Error (e.g., already exists)]</text><polygon fill="#181818" points="106.4688,1976.9082,96.4688,1980.9082,106.4688,1984.9082,102.4688,1980.9082" style="stroke:#181818;stroke-width:1.0;"/><line style="stroke:#181818;stroke-width:1.0;stroke-dasharray:2.0,2.0;" x1="100.4688" x2="332.7729" y1="1980.9082" y2="1980.9082"/><text fill="#000000" font-family="sans-serif" font-size="13" font-weight="bold" lengthAdjust="spacing" textLength="14.46" x="112.4688" y="1975.6455">44</text><text fill="#000000" font-family="sans-serif" font-size="13" lengthAdjust="spacing" textLength="83.8081" x="130.9287" y="1975.6455">error message</text><!--SRC=[dLV1RkCs4BthAmOv5Cx2SUz14o2DDuM1RBk0wksPaSOo4PfKISgE_xv3Yg98MSaYpI6noPd7DpEFCunvvR9bcXtWeAIgzbeT4Apki31nfsNLAskmj6U1eB6oJ3OYDJ1xLgiJbmtic31O59PRCjrkeCH_EvGLmfgpnfakod9z3JVmKDVmn9jE8voutSEwV8OVJF2QMQvaKR3EAjaTNb3Jvyeg3LVbNfrWZOOt4lKLC0FbkY02bbUyPTB2rIsXzg3RZJVORehSuazsGByZwKE-HSYLvgqxtblKz3stwA4VZemBzi85jsTlo9A5EOVICjiPRshynzpe3xIztIEps2ZDqJmgQRKI8eHPCJkkvCxFtD2UiTq1zONRvVh5oMkj97vJDOgfTpstCnVUMBNlecjudxnZlwWc7bJbl_7D_gxUjfQBFYUM5bx2GcuTgtaHMEHJtDs1gody0adzuExEguOVAQLE9UKQRkwT7czT2RG5Da33JgZJQEi4GsPax0G2NxwGXsUsqlYTxaPh_zbpWHlf0rnSZvvUKDxfPZZABzMOcmHuOdHBiRp2ZgIjF6iclEP232ddLgiZhp7Rxc7SocTOUb5xfyWo1Kt8UakNtY3BCzrbGNT_I6z_VYPD0clGFZW4d4ew9P7hEOU8j9ooVyjGplSflnmapQfnVQAA9mEJjUC5Pk2VfhOQekjtiVOnftUSfDNVu2JiM3shOd6oDf2UeEIEwmDGdQbZjW4XjPuhu5TgVkyLCJif0uhPksnLQUuoW0z22ktgfy7qTfyD8w07vmdrFkKfwM3kokE6nKQsdQNQZEq7dfLgNP6Oi7w-a5bH2BVeAS3MaC1Er5gC2v852w2VFeoq4_LQNXlnp2MQ9mecD2wAm7b4MbdxSZiPIYxdqceQadHh0wotJqBCi19YiPiIKFYCYm5amcVil6vvz9ndWbehVS4ZnvZdqQJ3mxNWa9WFoBn3gCvWekKidmcXsI4Lsf0G_SOSh_dX5a-UHSqJc0pE-pdAyoVy99z6_A1nJLB-txayzlwVIEBWMT8E-fl5fHDeO6BW6skdl6Elu3j_duRhnAIoUqhLSAtSZsiUmnbdDBzADOP6zvGGd0PDE3NkJGxpFVquNlL4j-zG8qeQhJvdDX-GGLaNmrzqZzWKyzPtknRhrMfLE0i_6CFxQdumNZw-eYuVEsFfcQspcJZpM9l3o5KuKCWdumpKJ9Fl1rwqXiNm2hakqZGDSt5e-MqOaK_SFLZAxkN0ZPd6deGSNreBz_nP-dV5CexTPJQBbg79BrC1BYF5B5r9bYwJyrS89JmW9kaPi-8K6Dw1n9E2D5rLeJ6xJeXpaLoHNeJz9Xpe5_q_v6K2NvqIOO6hPaN128siFWE-KNL2PquHl6n7VoUaX1azFfDlvVe_]--></g></svg>