<?xml version="1.0" encoding="UTF-8" standalone="no"?><svg xmlns="http://www.w3.org/2000/svg" xmlns:xlink="http://www.w3.org/1999/xlink" contentScriptType="application/ecmascript" contentStyleType="text/css" height="103px" preserveAspectRatio="none" style="width:200px;height:103px;" version="1.1" viewBox="0 0 200 103" width="200px" zoomAndPan="magnify"><defs><filter height="300%" id="f162b66lc73hd4" width="300%" x="-1" y="-1"><feGaussianBlur result="blurOut" stdDeviation="2.0"/><feColorMatrix in="blurOut" result="blurOut2" type="matrix" values="0 0 0 0 0 0 0 0 0 0 0 0 0 0 0 0 0 0 .4 0"/><feOffset dx="4.0" dy="4.0" in="blurOut2" result="blurOut3"/><feBlend in="SourceGraphic" in2="blurOut3" mode="normal"/></filter></defs><g><!--MD5=[e27d3ab401de2ae0717001adfcbdd2c5]
class hello.Greeter--><a href="Greeter.html" target="_top" title="Greeter.html" xlink:actuate="onRequest" xlink:href="Greeter.html" xlink:show="new" xlink:title="Greeter.html" xlink:type="simple"><rect codeLine="5" fill="#FEFECE" filter="url(#f162b66lc73hd4)" height="65.6698" id="hello.Greeter" style="stroke: #A80036; stroke-width: 1.5;" width="114" x="37" y="7"/><ellipse cx="65.95" cy="28.344" fill="#ADD1B2" rx="11" ry="11" style="stroke: #A80036; stroke-width: 1.0;"/><path d="M68.9188,33.9846 Q68.3406,34.2815 67.7,34.4221 Q67.0594,34.5783 66.3563,34.5783 Q63.8563,34.5783 62.5281,32.9377 Q61.2156,31.2815 61.2156,28.1565 Q61.2156,25.0315 62.5281,23.3752 Q63.8563,21.719 66.3563,21.719 Q67.0594,21.719 67.7,21.8752 Q68.3563,22.0315 68.9188,22.3283 L68.9188,25.0471 Q68.2938,24.469 67.7,24.2033 Q67.1063,23.9221 66.4813,23.9221 Q65.1375,23.9221 64.45,25.0002 Q63.7625,26.0627 63.7625,28.1565 Q63.7625,30.2502 64.45,31.3283 Q65.1375,32.3908 66.4813,32.3908 Q67.1063,32.3908 67.7,32.1252 Q68.2938,31.844 68.9188,31.2658 L68.9188,33.9846 Z "/><text fill="#000000" font-family="sans-serif" font-size="14" lengthAdjust="spacingAndGlyphs" textLength="51" x="83.05" y="26.9659">Greeter</text><text fill="#000000" font-family="sans-serif" font-size="10" lengthAdjust="spacingAndGlyphs" textLength="24" x="96.55" y="41.7579">hello</text><line style="stroke: #A80036; stroke-width: 1.5;" x1="38" x2="150" y1="49.6879" y2="49.6879"/><ellipse cx="48" cy="60.6879" fill="#84BE84" rx="3" ry="3" style="stroke: #038048; stroke-width: 1.0;"/><text fill="#000000" font-family="sans-serif" font-size="11" lengthAdjust="spacingAndGlyphs" textLength="88" x="57" y="65.4468">sayHello(): String</text></a><text fill="#888888" font-family="sans-serif" font-size="10" lengthAdjust="spacingAndGlyphs" textLength="188" x="0" y="90.3598">UMLDoclet 2.0.12, PlantUML 1.2020.16</text><!--MD5=[309ed02a7bf07a2ce8bee95481aae1e1]
@startuml
    set namespaceSeparator none
    hide empty fields
    hide empty methods

    class "<size:14>Greeter\n<size:10>hello" as hello.Greeter [[Greeter.html]] {
        +sayHello(): String
    }

    center footer UMLDoclet 2.0.12, PlantUML 1.2020.16
@enduml

PlantUML version 1.2020.16(Sun Aug 23 21:20:43 WEST 2020)
(APACHE source distribution)
Java Runtime: Java(TM) SE Runtime Environment
JVM: Java HotSpot(TM) 64-Bit Server VM
Default Encoding: UTF-8
Language: en
Country: US
--></g></svg>