<svg xmlns="http://www.w3.org/2000/svg" xmlns:xlink="http://www.w3.org/1999/xlink" contentStyleType="text/css" height="651px" preserveAspectRatio="none" style="width:670px;height:651px;background:#FFFFFF;" version="1.1" viewBox="0 0 670 651" width="670px" zoomAndPan="magnify"><title>Figure and Category domain model section</title><defs/><g><text fill="#000000" font-family="sans-serif" font-size="14" font-weight="bold" lengthAdjust="spacing" textLength="287.8203" x="184.0898" y="25.1074">Figure and Category domain model section</text><!--cluster Category Aggregate--><g id="cluster_Category Aggregate"><rect fill="none" height="107" rx="2.5" ry="2.5" style="stroke:#000000;stroke-width:1.5;" width="149" x="7" y="281.6211"/><text fill="#000000" font-family="sans-serif" font-size="14" font-weight="bold" lengthAdjust="spacing" textLength="133.8066" x="14.5967" y="298.7285">Category Aggregate</text></g><!--cluster Figure Aggregate--><g id="cluster_Figure Aggregate"><rect fill="none" height="599" rx="2.5" ry="2.5" style="stroke:#000000;stroke-width:1.5;" width="339" x="325" y="46.6211"/><text fill="#000000" font-family="sans-serif" font-size="14" font-weight="bold" lengthAdjust="spacing" textLength="115.9033" x="436.5483" y="63.7285">Figure Aggregate</text></g><!--class Category--><g id="elem_Category"><rect codeLine="14" fill="#F1F1F1" height="52.582" id="Category" rx="2.5" ry="2.5" style="stroke:#181818;stroke-width:0.5;" width="96.0723" x="33" y="319.1211"/><text fill="#000000" font-family="sans-serif" font-size="12" font-style="italic" lengthAdjust="spacing" textLength="94.0723" x="34" y="337.0703">&#171;AggregateRoot&#187;</text><text fill="#000000" font-family="sans-serif" font-size="14" lengthAdjust="spacing" textLength="56.8066" x="52.6328" y="355.1895">Category</text><line style="stroke:#181818;stroke-width:0.5;" x1="34" x2="128.0723" y1="363.7031" y2="363.7031"/></g><!--class Figure--><g id="elem_Figure"><rect codeLine="21" fill="#F1F1F1" height="52.582" id="Figure" rx="2.5" ry="2.5" style="stroke:#181818;stroke-width:0.5;" width="96.0723" x="341" y="319.1211"/><text fill="#000000" font-family="sans-serif" font-size="12" font-style="italic" lengthAdjust="spacing" textLength="94.0723" x="342" y="337.0703">&#171;AggregateRoot&#187;</text><text fill="#000000" font-family="sans-serif" font-size="14" lengthAdjust="spacing" textLength="39.6826" x="369.1948" y="355.1895">Figure</text><line style="stroke:#181818;stroke-width:0.5;" x1="342" x2="436.0723" y1="363.7031" y2="363.7031"/></g><!--class Name--><g id="elem_Name"><rect codeLine="24" fill="#F1F1F1" height="36.6211" id="Name" rx="2.5" ry="2.5" style="stroke:#181818;stroke-width:0.5;" width="43.3447" x="588.5" y="576.1211"/><text fill="#000000" font-family="sans-serif" font-size="14" lengthAdjust="spacing" textLength="37.3447" x="591.5" y="596.2285">Name</text><line style="stroke:#181818;stroke-width:0.5;" x1="589.5" x2="630.8447" y1="604.7422" y2="604.7422"/></g><!--class ID--><g id="elem_ID"><rect codeLine="27" fill="#F1F1F1" height="36.6211" id="ID" rx="2.5" ry="2.5" style="stroke:#181818;stroke-width:0.5;" width="20" x="600" y="493.1211"/><text fill="#000000" font-family="sans-serif" font-size="14" lengthAdjust="spacing" textLength="14" x="603" y="513.2285">ID</text><line style="stroke:#181818;stroke-width:0.5;" x1="601" x2="619" y1="521.7422" y2="521.7422"/></g><!--class Version--><g id="elem_Version"><rect codeLine="30" fill="#F1F1F1" height="36.6211" id="Version" rx="2.5" ry="2.5" style="stroke:#181818;stroke-width:0.5;" width="53.4688" x="583.5" y="410.1211"/><text fill="#000000" font-family="sans-serif" font-size="14" lengthAdjust="spacing" textLength="47.4688" x="586.5" y="430.2285">Version</text><line style="stroke:#181818;stroke-width:0.5;" x1="584.5" x2="635.9688" y1="438.7422" y2="438.7422"/></g><!--class Availability--><g id="elem_Availability"><rect codeLine="33" fill="#F1F1F1" height="36.6211" id="Availability" rx="2.5" ry="2.5" style="stroke:#181818;stroke-width:0.5;" width="72.1377" x="574" y="327.1211"/><text fill="#000000" font-family="sans-serif" font-size="14" lengthAdjust="spacing" textLength="66.1377" x="577" y="347.2285">Availability</text><line style="stroke:#181818;stroke-width:0.5;" x1="575" x2="645.1377" y1="355.7422" y2="355.7422"/></g><!--class DSL--><g id="elem_DSL"><rect codeLine="36" fill="#F1F1F1" height="36.6211" id="DSL" rx="2.5" ry="2.5" style="stroke:#181818;stroke-width:0.5;" width="33.2344" x="593.5" y="244.1211"/><text fill="#000000" font-family="sans-serif" font-size="14" lengthAdjust="spacing" textLength="27.2344" x="596.5" y="264.2285">DSL</text><line style="stroke:#181818;stroke-width:0.5;" x1="594.5" x2="625.7344" y1="272.7422" y2="272.7422"/></g><!--class Description--><g id="elem_Description"><rect codeLine="39" fill="#F1F1F1" height="36.6211" id="Description" rx="2.5" ry="2.5" style="stroke:#181818;stroke-width:0.5;" width="76.0273" x="572" y="161.1211"/><text fill="#000000" font-family="sans-serif" font-size="14" lengthAdjust="spacing" textLength="70.0273" x="575" y="181.2285">Description</text><line style="stroke:#181818;stroke-width:0.5;" x1="573" x2="647.0273" y1="189.7422" y2="189.7422"/></g><!--class Status--><g id="elem_Status"><rect codeLine="42" fill="#F1F1F1" height="36.6211" id="Status" rx="2.5" ry="2.5" style="stroke:#181818;stroke-width:0.5;" width="45.6895" x="587" y="84.1211"/><text fill="#000000" font-family="sans-serif" font-size="14" lengthAdjust="spacing" textLength="39.6895" x="590" y="104.2285">Status</text><line style="stroke:#181818;stroke-width:0.5;" x1="588" x2="631.6895" y1="112.7422" y2="112.7422"/></g><!--link Category to Figure--><g id="link_Category_Figure"><path codeLine="46" d="M129.14,345.6211 C186.64,345.6211 283.28,345.6211 340.8,345.6211 " fill="none" id="Category-Figure" style="stroke:#181818;stroke-width:1.0;"/><polygon fill="#000000" points="234,339.1211,243.0451,342.06,243.0451,336.1822,234,339.1211" style="stroke:#000000;stroke-width:1.0;"/><text fill="#000000" font-family="sans-serif" font-size="13" lengthAdjust="spacing" textLength="7.23" x="137.0595" y="361.0053">1</text><text fill="#000000" font-family="sans-serif" font-size="13" lengthAdjust="spacing" textLength="5.0591" x="328.0356" y="361.0053">*</text></g><!--link Figure to ID--><g id="link_Figure_ID"><path codeLine="48" d="M425.19,372.2911 C476.94,411.5211 570.61,482.5211 599.96,504.7711 " fill="none" id="Figure-ID" style="stroke:#181818;stroke-width:1.0;"/><polygon fill="#000000" points="506.9846,425.1415,501.5518,417.3354,498.001,422.0196,506.9846,425.1415" style="stroke:#000000;stroke-width:1.0;"/><text fill="#000000" font-family="sans-serif" font-size="13" lengthAdjust="spacing" textLength="7.23" x="424.9486" y="393.6463">1</text><text fill="#000000" font-family="sans-serif" font-size="13" lengthAdjust="spacing" textLength="7.23" x="584.7372" y="520.0152">1</text></g><!--link Figure to Name--><g id="link_Figure_Name"><path codeLine="49" d="M413.44,372.2711 C458.02,422.9511 554.01,532.0911 592.52,575.8811 " fill="none" id="Figure-Name" style="stroke:#181818;stroke-width:1.0;"/><polygon fill="#000000" points="506.3021,466.8755,502.5353,458.1427,498.1217,462.0246,506.3021,466.8755" style="stroke:#000000;stroke-width:1.0;"/><text fill="#000000" font-family="sans-serif" font-size="13" lengthAdjust="spacing" textLength="7.23" x="410.7751" y="393.6222">1</text><text fill="#000000" font-family="sans-serif" font-size="13" lengthAdjust="spacing" textLength="7.23" x="579.3403" y="565.0061">1</text></g><!--link Figure to Description--><g id="link_Figure_Description"><path codeLine="50" d="M425.19,318.9511 C469.8,285.1311 545.58,227.6911 584.43,198.2411 " fill="none" id="Figure-Description" style="stroke:#181818;stroke-width:1.0;"/><polygon fill="#000000" points="506.9846,245.1006,498.001,248.2226,501.5518,252.9068,506.9846,245.1006" style="stroke:#000000;stroke-width:1.0;"/><text fill="#000000" font-family="sans-serif" font-size="13" lengthAdjust="spacing" textLength="7.23" x="425.7678" y="307.9283">1</text><text fill="#000000" font-family="sans-serif" font-size="13" lengthAdjust="spacing" textLength="7.23" x="569.6447" y="219.6479">1</text></g><!--link Figure to Version--><g id="link_Figure_Version"><path codeLine="51" d="M437.25,363.5311 C482.01,380.4911 547.56,405.3411 583.35,418.9011 " fill="none" id="Figure-Version" style="stroke:#181818;stroke-width:1.0;"/><polygon fill="#000000" points="507.6755,382.893,500.259,376.9394,498.1759,382.4357,507.6755,382.893" style="stroke:#000000;stroke-width:1.0;"/><text fill="#000000" font-family="sans-serif" font-size="13" lengthAdjust="spacing" textLength="7.23" x="445.1863" y="381.6577">1</text><text fill="#000000" font-family="sans-serif" font-size="13" lengthAdjust="spacing" textLength="7.23" x="568.2151" y="432.6916">1</text></g><!--link Figure to Availability--><g id="link_Figure_Availability"><path codeLine="52" d="M437.25,345.6211 C478.24,345.6211 536.66,345.6211 573.7,345.6211 " fill="none" id="Figure-Availability" style="stroke:#181818;stroke-width:1.0;"/><polygon fill="#000000" points="508,339.1211,498.9549,336.1822,498.9549,342.06,508,339.1211" style="stroke:#000000;stroke-width:1.0;"/><text fill="#000000" font-family="sans-serif" font-size="13" lengthAdjust="spacing" textLength="7.23" x="445.1863" y="361.0053">1</text><text fill="#000000" font-family="sans-serif" font-size="13" lengthAdjust="spacing" textLength="7.23" x="558.8735" y="361.3888">1</text></g><!--link Figure to DSL--><g id="link_Figure_DSL"><path codeLine="53" d="M437.25,327.7111 C486.54,309.0311 561.03,280.8011 593.24,268.5911 " fill="none" id="Figure-DSL" style="stroke:#181818;stroke-width:1.0;"/><polygon fill="#000000" points="507.6755,292.3491,498.1759,292.8065,500.259,298.3028,507.6755,292.3491" style="stroke:#000000;stroke-width:1.0;"/><text fill="#000000" font-family="sans-serif" font-size="13" lengthAdjust="spacing" textLength="7.23" x="445.1863" y="340.3528">1</text><text fill="#000000" font-family="sans-serif" font-size="13" lengthAdjust="spacing" textLength="7.23" x="578.2618" y="288.4489">1</text></g><!--link Figure to Status--><g id="link_Figure_Status"><path codeLine="54" d="M414.13,318.8211 C448.98,280.1311 515.42,206.3711 572,143.6211 C578.55,136.3611 585.75,128.3711 592.05,121.4011 " fill="none" id="Figure-Status" style="stroke:#181818;stroke-width:1.0;"/><polygon fill="#000000" points="506.3473,201.4069,498.1088,206.1584,502.4751,210.0935,506.3473,201.4069" style="stroke:#000000;stroke-width:1.0;"/><text fill="#000000" font-family="sans-serif" font-size="13" lengthAdjust="spacing" textLength="7.23" x="412.1502" y="307.7683">1</text><text fill="#000000" font-family="sans-serif" font-size="13" lengthAdjust="spacing" textLength="7.23" x="579.3579" y="142.8509">1</text></g><!--SRC=[VP1DQyCm38Rl_XKYny4EkvPIA0k3GkbXWTqrMtL47RlOwaOO_UzprZJD8PuljlIyVlMHJkpF6B63BlYWsnWw0eaNKcaYPzGdjDH8xmWYQK5ltLoGMZJXcxs58xf4oj5HG094jgs0uU4F1w-Ki6IBDxQNI83Um2iAsH1xCA53zha9GmxINT-o8T0SjQDq2pgIDfYarDWKL9F5rjf8DaSL_2W5-MY7AJrghDUJv3q4sMooRf1TbRhE3CVsIdOZ_iVieJrWtkP2VbSlPJyefZps4jf-8JlyPCVIB_6wsI-cAUd8PocuDe9oIHF9RDfLzLB1SpvGFLNtaLUmLcfyZ_pltjKhs2o1OVm2cdLMK8pRAD3vGaebcds1tEOUu2y0]--></g></svg>