<svg xmlns="http://www.w3.org/2000/svg" xmlns:xlink="http://www.w3.org/1999/xlink" contentStyleType="text/css" height="572px" preserveAspectRatio="none" style="width:608px;height:572px;background:#FFFFFF;" version="1.1" viewBox="0 0 608 572" width="608px" zoomAndPan="magnify"><title>System Sequence Diagram (SSD) - List Drones in the Inventory</title><defs/><g><text fill="#000000" font-family="sans-serif" font-size="14" font-weight="bold" lengthAdjust="spacing" textLength="419.3232" x="101.6101" y="30.1074">System Sequence Diagram (SSD) - List Drones in the Inventory</text><rect fill="#FFFFFF" height="338.6191" style="stroke:#181818;stroke-width:1.0;" width="10" x="39.5723" y="133.2422"/><rect fill="#FFFFFF" height="31.291" style="stroke:#181818;stroke-width:1.0;" width="10" x="324.0347" y="156.5332"/><rect fill="#FFFFFF" height="252.7461" style="stroke:#181818;stroke-width:1.0;" width="10" x="324.0347" y="219.1152"/><line style="stroke:#181818;stroke-width:0.5;stroke-dasharray:5.0,5.0;" x1="44" x2="44" y1="123.2422" y2="489.8613"/><line style="stroke:#181818;stroke-width:0.5;stroke-dasharray:5.0,5.0;" x1="328.752" x2="328.752" y1="123.2422" y2="489.8613"/><text fill="#000000" font-family="sans-serif" font-size="14" lengthAdjust="spacing" textLength="73.1445" x="5" y="119.7285">Drone Tech</text><ellipse cx="44.5723" cy="53.1211" fill="#E3E3E3" rx="8" ry="8" style="stroke:#181818;stroke-width:0.5;"/><path d="M44.5723,61.1211 L44.5723,88.1211 M31.5723,69.1211 L57.5723,69.1211 M44.5723,88.1211 L31.5723,103.1211 M44.5723,88.1211 L57.5723,103.1211 " fill="none" style="stroke:#181818;stroke-width:0.5;"/><text fill="#000000" font-family="sans-serif" font-size="14" lengthAdjust="spacing" textLength="73.1445" x="5" y="503.9688">Drone Tech</text><ellipse cx="44.5723" cy="515.9824" fill="#E3E3E3" rx="8" ry="8" style="stroke:#181818;stroke-width:0.5;"/><path d="M44.5723,523.9824 L44.5723,550.9824 M31.5723,531.9824 L57.5723,531.9824 M44.5723,550.9824 L31.5723,565.9824 M44.5723,550.9824 L57.5723,565.9824 " fill="none" style="stroke:#181818;stroke-width:0.5;"/><rect fill="#E3E3E3" height="32.6211" rx="2.5" ry="2.5" style="stroke:#181818;stroke-width:0.5;" width="64.5654" x="296.752" y="89.6211"/><text fill="#000000" font-family="sans-serif" font-size="14" lengthAdjust="spacing" textLength="50.5654" x="303.752" y="111.7285">:System</text><rect fill="#E3E3E3" height="32.6211" rx="2.5" ry="2.5" style="stroke:#181818;stroke-width:0.5;" width="64.5654" x="296.752" y="488.8613"/><text fill="#000000" font-family="sans-serif" font-size="14" lengthAdjust="spacing" textLength="50.5654" x="303.752" y="510.9688">:System</text><rect fill="#FFFFFF" height="338.6191" style="stroke:#181818;stroke-width:1.0;" width="10" x="39.5723" y="133.2422"/><rect fill="#FFFFFF" height="31.291" style="stroke:#181818;stroke-width:1.0;" width="10" x="324.0347" y="156.5332"/><rect fill="#FFFFFF" height="252.7461" style="stroke:#181818;stroke-width:1.0;" width="10" x="324.0347" y="219.1152"/><polygon fill="#181818" points="312.0347,152.5332,322.0347,156.5332,312.0347,160.5332,316.0347,156.5332" style="stroke:#181818;stroke-width:1.0;"/><line style="stroke:#181818;stroke-width:1.0;" x1="49.5723" x2="318.0347" y1="156.5332" y2="156.5332"/><text fill="#000000" font-family="sans-serif" font-size="13" font-weight="bold" lengthAdjust="spacing" textLength="7.23" x="56.5723" y="151.2705">1</text><text fill="#000000" font-family="sans-serif" font-size="13" lengthAdjust="spacing" textLength="149.5635" x="67.8022" y="151.2705">requestListDroneModels()</text><polygon fill="#181818" points="60.5723,183.8242,50.5723,187.8242,60.5723,191.8242,56.5723,187.8242" style="stroke:#181818;stroke-width:1.0;"/><line style="stroke:#181818;stroke-width:1.0;stroke-dasharray:2.0,2.0;" x1="54.5723" x2="328.0347" y1="187.8242" y2="187.8242"/><text fill="#000000" font-family="sans-serif" font-size="13" font-weight="bold" lengthAdjust="spacing" textLength="7.23" x="66.5723" y="182.5615">2</text><text fill="#000000" font-family="sans-serif" font-size="13" lengthAdjust="spacing" textLength="95.3862" x="77.8022" y="182.5615">droneModelsList</text><polygon fill="#181818" points="312.0347,215.1152,322.0347,219.1152,312.0347,223.1152,316.0347,219.1152" style="stroke:#181818;stroke-width:1.0;"/><line style="stroke:#181818;stroke-width:1.0;" x1="49.5723" x2="318.0347" y1="219.1152" y2="219.1152"/><text fill="#000000" font-family="sans-serif" font-size="13" font-weight="bold" lengthAdjust="spacing" textLength="7.23" x="56.5723" y="213.8525">3</text><text fill="#000000" font-family="sans-serif" font-size="13" lengthAdjust="spacing" textLength="244.2324" x="67.8022" y="213.8525">requestListDrones(selectedDroneModelId)</text><line style="stroke:#181818;stroke-width:1.0;" x1="334.0347" x2="376.0347" y1="250.4063" y2="250.4063"/><line style="stroke:#181818;stroke-width:1.0;" x1="376.0347" x2="376.0347" y1="250.4063" y2="263.4063"/><line style="stroke:#181818;stroke-width:1.0;" x1="335.0347" x2="376.0347" y1="263.4063" y2="263.4063"/><polygon fill="#181818" points="345.0347,259.4063,335.0347,263.4063,345.0347,267.4063,341.0347,263.4063" style="stroke:#181818;stroke-width:1.0;"/><text fill="#000000" font-family="sans-serif" font-size="13" font-weight="bold" lengthAdjust="spacing" textLength="7.23" x="341.0347" y="245.1436">4</text><text fill="#000000" font-family="sans-serif" font-size="13" lengthAdjust="spacing" textLength="93.1963" x="352.2646" y="245.1436">fetchAllDrones()</text><line style="stroke:#181818;stroke-width:1.0;" x1="334.0347" x2="376.0347" y1="294.6973" y2="294.6973"/><line style="stroke:#181818;stroke-width:1.0;" x1="376.0347" x2="376.0347" y1="294.6973" y2="307.6973"/><line style="stroke:#181818;stroke-width:1.0;" x1="335.0347" x2="376.0347" y1="307.6973" y2="307.6973"/><polygon fill="#181818" points="345.0347,303.6973,335.0347,307.6973,345.0347,311.6973,341.0347,307.6973" style="stroke:#181818;stroke-width:1.0;"/><text fill="#000000" font-family="sans-serif" font-size="13" font-weight="bold" lengthAdjust="spacing" textLength="7.23" x="341.0347" y="289.4346">5</text><text fill="#000000" font-family="sans-serif" font-size="13" lengthAdjust="spacing" textLength="249.2788" x="352.2646" y="289.4346">filterByDroneModel(selectedDroneModelId)</text><line style="stroke:#181818;stroke-width:1.0;" x1="334.0347" x2="376.0347" y1="338.9883" y2="338.9883"/><line style="stroke:#181818;stroke-width:1.0;" x1="376.0347" x2="376.0347" y1="338.9883" y2="351.9883"/><line style="stroke:#181818;stroke-width:1.0;" x1="335.0347" x2="376.0347" y1="351.9883" y2="351.9883"/><polygon fill="#181818" points="345.0347,347.9883,335.0347,351.9883,345.0347,355.9883,341.0347,351.9883" style="stroke:#181818;stroke-width:1.0;"/><text fill="#000000" font-family="sans-serif" font-size="13" font-weight="bold" lengthAdjust="spacing" textLength="7.23" x="341.0347" y="333.7256">6</text><text fill="#000000" font-family="sans-serif" font-size="13" lengthAdjust="spacing" textLength="136.5571" x="352.2646" y="333.7256">filterByStatus(available)</text><line style="stroke:#181818;stroke-width:1.0;" x1="334.0347" x2="376.0347" y1="383.2793" y2="383.2793"/><line style="stroke:#181818;stroke-width:1.0;" x1="376.0347" x2="376.0347" y1="383.2793" y2="396.2793"/><line style="stroke:#181818;stroke-width:1.0;" x1="335.0347" x2="376.0347" y1="396.2793" y2="396.2793"/><polygon fill="#181818" points="345.0347,392.2793,335.0347,396.2793,345.0347,400.2793,341.0347,396.2793" style="stroke:#181818;stroke-width:1.0;"/><text fill="#000000" font-family="sans-serif" font-size="13" font-weight="bold" lengthAdjust="spacing" textLength="7.23" x="341.0347" y="378.0166">7</text><text fill="#000000" font-family="sans-serif" font-size="13" lengthAdjust="spacing" textLength="151.0107" x="352.2646" y="378.0166">excludeRemovedDrones()</text><line style="stroke:#181818;stroke-width:1.0;" x1="334.0347" x2="376.0347" y1="427.5703" y2="427.5703"/><line style="stroke:#181818;stroke-width:1.0;" x1="376.0347" x2="376.0347" y1="427.5703" y2="440.5703"/><line style="stroke:#181818;stroke-width:1.0;" x1="335.0347" x2="376.0347" y1="440.5703" y2="440.5703"/><polygon fill="#181818" points="345.0347,436.5703,335.0347,440.5703,345.0347,444.5703,341.0347,440.5703" style="stroke:#181818;stroke-width:1.0;"/><text fill="#000000" font-family="sans-serif" font-size="13" font-weight="bold" lengthAdjust="spacing" textLength="7.23" x="341.0347" y="422.3076">8</text><text fill="#000000" font-family="sans-serif" font-size="13" lengthAdjust="spacing" textLength="166.8799" x="352.2646" y="422.3076">sortDronesBySerialNumber()</text><polygon fill="#181818" points="55.5723,467.8613,45.5723,471.8613,55.5723,475.8613,51.5723,471.8613" style="stroke:#181818;stroke-width:1.0;"/><line style="stroke:#181818;stroke-width:1.0;" x1="49.5723" x2="328.0347" y1="471.8613" y2="471.8613"/><text fill="#000000" font-family="sans-serif" font-size="13" font-weight="bold" lengthAdjust="spacing" textLength="7.23" x="61.5723" y="466.5986">9</text><text fill="#000000" font-family="sans-serif" font-size="13" lengthAdjust="spacing" textLength="162.5508" x="72.8022" y="466.5986">displayDrones(listOfDrones)</text><!--SRC=[XP5DReCm48NtFiKeArZa0bbKQiKcKd-amWKcPW9MZ4qz0osth_bHI5kYxcpFzzwR6VF5k1O3Dj1uvtKTV4CWeIF5rqgB-e8LvJ9OWa1Qq5Ns5k0QI_zfN0Ldj4nAYP68vWCBDP3JHqTE4sG6gn5FyZnBOG_FXWMou1qn60TI4nnTJqvy69J2JhphcXE5UDRn3NOJ2mNfUWV8a1KgvelHfaKdi3lCWLDjFavAqwFG2AkiWFt3KZh4IM9VB6CNa_6BByboagwQnMIPOn-rMN60SeL7hIhfj-2V84wOR5mZbMlkiVoRUmrUhSuakdwqTl59jn1ZXSBJi7hVYRilpGMbumHxD1PFbhPO-jAsA-cT6jylpjlzi0_BsD6OWa7xEltg3tZQg-7Muh1OsRYjj_DyITN6aczUujz-0m00]--></g></svg>