<svg xmlns="http://www.w3.org/2000/svg" xmlns:xlink="http://www.w3.org/1999/xlink" contentStyleType="text/css" height="481px" preserveAspectRatio="none" style="width:788px;height:481px;background:#FFFFFF;" version="1.1" viewBox="0 0 788 481" width="788px" zoomAndPan="magnify"><title>System Sequence Diagram (SSD) - Add Figure Category</title><defs/><g><text fill="#000000" font-family="sans-serif" font-size="14" font-weight="bold" lengthAdjust="spacing" textLength="398.4941" x="196.1877" y="28.5352">System Sequence Diagram (SSD) - Add Figure Category</text><rect fill="#FFFFFF" height="261.1289" style="stroke:#181818;stroke-width:1.0;" width="10" x="68.2305" y="128.9766"/><rect fill="#FFFFFF" height="239.8184" style="stroke:#181818;stroke-width:1.0;" width="10" x="447.0933" y="150.2871"/><rect fill="none" height="133.1973" style="stroke:#000000;stroke-width:1.5;" width="771.8696" x="10" y="249.9082"/><line style="stroke:#181818;stroke-width:0.5;stroke-dasharray:5.0,5.0;" x1="73" x2="73" y1="118.9766" y2="400.1055"/><line style="stroke:#181818;stroke-width:0.5;stroke-dasharray:5.0,5.0;" x1="451.8296" x2="451.8296" y1="118.9766" y2="400.1055"/><text fill="#000000" font-family="sans-serif" font-size="14" lengthAdjust="spacing" textLength="100.4609" x="20" y="116.0234">Show Designer</text><ellipse cx="73.2305" cy="50.9883" fill="#E3E3E3" rx="8" ry="8" style="stroke:#181818;stroke-width:0.5;"/><path d="M73.2305,58.9883 L73.2305,85.9883 M60.2305,66.9883 L86.2305,66.9883 M73.2305,85.9883 L60.2305,100.9883 M73.2305,85.9883 L86.2305,100.9883 " fill="none" style="stroke:#181818;stroke-width:0.5;"/><text fill="#000000" font-family="sans-serif" font-size="14" lengthAdjust="spacing" textLength="100.4609" x="20" y="412.6406">Show Designer</text><ellipse cx="73.2305" cy="424.0938" fill="#E3E3E3" rx="8" ry="8" style="stroke:#181818;stroke-width:0.5;"/><path d="M73.2305,432.0938 L73.2305,459.0938 M60.2305,440.0938 L86.2305,440.0938 M73.2305,459.0938 L60.2305,474.0938 M73.2305,459.0938 L86.2305,474.0938 " fill="none" style="stroke:#181818;stroke-width:0.5;"/><rect fill="#E3E3E3" height="30.4883" rx="2.5" ry="2.5" style="stroke:#181818;stroke-width:0.5;" width="66.5273" x="418.8296" y="87.4883"/><text fill="#000000" font-family="sans-serif" font-size="14" lengthAdjust="spacing" textLength="52.5273" x="425.8296" y="108.0234">:System</text><rect fill="#E3E3E3" height="30.4883" rx="2.5" ry="2.5" style="stroke:#181818;stroke-width:0.5;" width="66.5273" x="418.8296" y="399.1055"/><text fill="#000000" font-family="sans-serif" font-size="14" lengthAdjust="spacing" textLength="52.5273" x="425.8296" y="419.6406">:System</text><rect fill="#FFFFFF" height="261.1289" style="stroke:#181818;stroke-width:1.0;" width="10" x="68.2305" y="128.9766"/><rect fill="#FFFFFF" height="239.8184" style="stroke:#181818;stroke-width:1.0;" width="10" x="447.0933" y="150.2871"/><polygon fill="#181818" points="435.0933,146.2871,445.0933,150.2871,435.0933,154.2871,439.0933,150.2871" style="stroke:#181818;stroke-width:1.0;"/><line style="stroke:#181818;stroke-width:1.0;" x1="78.2305" x2="441.0933" y1="150.2871" y2="150.2871"/><text fill="#000000" font-family="sans-serif" font-size="13" font-weight="bold" lengthAdjust="spacing" textLength="8.5757" x="85.2305" y="145.5449">1</text><text fill="#000000" font-family="sans-serif" font-size="13" lengthAdjust="spacing" textLength="228.1221" x="97.8062" y="145.5449">requestAddCategory(categoryName)</text><line style="stroke:#181818;stroke-width:1.0;" x1="457.0933" x2="499.0933" y1="179.5977" y2="179.5977"/><line style="stroke:#181818;stroke-width:1.0;" x1="499.0933" x2="499.0933" y1="179.5977" y2="192.5977"/><line style="stroke:#181818;stroke-width:1.0;" x1="458.0933" x2="499.0933" y1="192.5977" y2="192.5977"/><polygon fill="#181818" points="468.0933,188.5977,458.0933,192.5977,468.0933,196.5977,464.0933,192.5977" style="stroke:#181818;stroke-width:1.0;"/><text fill="#000000" font-family="sans-serif" font-size="13" font-weight="bold" lengthAdjust="spacing" textLength="8.5757" x="464.0933" y="174.8555">2</text><text fill="#000000" font-family="sans-serif" font-size="13" lengthAdjust="spacing" textLength="240.2969" x="476.6689" y="174.8555">validateCategoryName(categoryName)</text><line style="stroke:#181818;stroke-width:1.0;" x1="457.0933" x2="499.0933" y1="221.9082" y2="221.9082"/><line style="stroke:#181818;stroke-width:1.0;" x1="499.0933" x2="499.0933" y1="221.9082" y2="234.9082"/><line style="stroke:#181818;stroke-width:1.0;" x1="458.0933" x2="499.0933" y1="234.9082" y2="234.9082"/><polygon fill="#181818" points="468.0933,230.9082,458.0933,234.9082,468.0933,238.9082,464.0933,234.9082" style="stroke:#181818;stroke-width:1.0;"/><text fill="#000000" font-family="sans-serif" font-size="13" font-weight="bold" lengthAdjust="spacing" textLength="8.5757" x="464.0933" y="217.166">3</text><text fill="#000000" font-family="sans-serif" font-size="13" lengthAdjust="spacing" textLength="264.3608" x="476.6689" y="217.166">checkCategoryUniqueness(categoryName)</text><path d="M10,249.9082 L72.1387,249.9082 L72.1387,257.2188 L62.1387,267.2188 L10,267.2188 L10,249.9082 " fill="#EEEEEE" style="stroke:#000000;stroke-width:1.5;"/><rect fill="none" height="133.1973" style="stroke:#000000;stroke-width:1.5;" width="771.8696" x="10" y="249.9082"/><text fill="#000000" font-family="sans-serif" font-size="13" font-weight="bold" lengthAdjust="spacing" textLength="17.1387" x="25" y="263.4766">alt</text><text fill="#000000" font-family="sans-serif" font-size="11" font-weight="bold" lengthAdjust="spacing" textLength="206.8032" x="87.1387" y="262.543">[Category name invalid or duplicate]</text><polygon fill="#181818" points="89.2305,284.5293,79.2305,288.5293,89.2305,292.5293,85.2305,288.5293" style="stroke:#181818;stroke-width:1.0;"/><line style="stroke:#181818;stroke-width:1.0;stroke-dasharray:2.0,2.0;" x1="83.2305" x2="446.0933" y1="288.5293" y2="288.5293"/><text fill="#000000" font-family="sans-serif" font-size="13" font-weight="bold" lengthAdjust="spacing" textLength="8.5757" x="95.2305" y="283.7871">4</text><text fill="#000000" font-family="sans-serif" font-size="13" lengthAdjust="spacing" textLength="321.4136" x="107.8062" y="283.7871">errorMessage("Invalid or duplicate category name")</text><line style="stroke:#000000;stroke-width:1.0;stroke-dasharray:2.0,2.0;" x1="10" x2="781.8696" y1="297.5293" y2="297.5293"/><text fill="#000000" font-family="sans-serif" font-size="11" font-weight="bold" lengthAdjust="spacing" textLength="191.7588" x="15" y="308.1641">[Category name valid and unique]</text><line style="stroke:#181818;stroke-width:1.0;" x1="457.0933" x2="499.0933" y1="332.7949" y2="332.7949"/><line style="stroke:#181818;stroke-width:1.0;" x1="499.0933" x2="499.0933" y1="332.7949" y2="345.7949"/><line style="stroke:#181818;stroke-width:1.0;" x1="458.0933" x2="499.0933" y1="345.7949" y2="345.7949"/><polygon fill="#181818" points="468.0933,341.7949,458.0933,345.7949,468.0933,349.7949,464.0933,345.7949" style="stroke:#181818;stroke-width:1.0;"/><text fill="#000000" font-family="sans-serif" font-size="13" font-weight="bold" lengthAdjust="spacing" textLength="8.5757" x="464.0933" y="328.0527">5</text><text fill="#000000" font-family="sans-serif" font-size="13" lengthAdjust="spacing" textLength="283.2007" x="476.6689" y="328.0527">saveCategory(categoryName, timestamp, SD)</text><polygon fill="#181818" points="89.2305,371.1055,79.2305,375.1055,89.2305,379.1055,85.2305,375.1055" style="stroke:#181818;stroke-width:1.0;"/><line style="stroke:#181818;stroke-width:1.0;stroke-dasharray:2.0,2.0;" x1="83.2305" x2="446.0933" y1="375.1055" y2="375.1055"/><text fill="#000000" font-family="sans-serif" font-size="13" font-weight="bold" lengthAdjust="spacing" textLength="8.5757" x="95.2305" y="370.3633">6</text><text fill="#000000" font-family="sans-serif" font-size="13" lengthAdjust="spacing" textLength="332.2871" x="107.8062" y="370.3633">confirmationMessage("Category added successfully")</text><!--SRC=[RL4xRiCm3Drr2i9J3AGNo52WY56WGxi8FG0hCROGVLnz4lZsfHt7TTre8iJt8vdEnlSOqO4BFgWk1aUGOo6HbawFwemjoJnOWaWges_j6f0wrE5gV0idj8c4o2OpL0ufamD9tuMy8cWCjYDy9sLJmnEyQ0slfYsHu8YPsX078R3au8lxeiYroY529RjmXOQIQJt52Z21R0GxPwDCZpv3TRXPtNfJEP7DXML7i90DF3tFhGFFm8bIPl-xxqxDnGSwgbVSMMmUPQLnGMiqGuuhuaRbFqbrfCvtngStus8efQsxpSj2mFCN63_P0Mz3bzwQ4I-0tzrYz6WEG366-CwAVAvTzVQ01MejNDM2-60RjniBlOOoHVpZz3jCmWiztDyUid6yNtJzdcFLZvAgu4ycEimc-2Nm4WEr9WsfACMjKx5s69DwBOIcxMtMFutu0G00]--></g></svg>