<svg xmlns="http://www.w3.org/2000/svg" xmlns:xlink="http://www.w3.org/1999/xlink" contentStyleType="text/css" height="523px" preserveAspectRatio="none" style="width:1044px;height:523px;background:#FFFFFF;" version="1.1" viewBox="0 0 1044 523" width="1044px" zoomAndPan="magnify"><title>System Sequence Diagram (SSD) - Add Figure Category</title><defs/><g><text fill="#000000" font-family="sans-serif" font-size="14" font-weight="bold" lengthAdjust="spacing" textLength="398.4941" x="324.0232" y="28.5352">System Sequence Diagram (SSD) - Add Figure Category</text><rect fill="#FFFFFF" height="303.4395" style="stroke:#181818;stroke-width:1.0;" width="10" x="68.2305" y="128.9766"/><rect fill="#FFFFFF" height="282.1289" style="stroke:#181818;stroke-width:1.0;" width="10" x="578.0518" y="150.2871"/><rect fill="none" height="133.1973" style="stroke:#000000;stroke-width:1.5;" width="1027.5405" x="10" y="292.2188"/><line style="stroke:#181818;stroke-width:0.5;stroke-dasharray:5.0,5.0;" x1="73" x2="73" y1="118.9766" y2="442.416"/><line style="stroke:#181818;stroke-width:0.5;stroke-dasharray:5.0,5.0;" x1="582.7881" x2="582.7881" y1="118.9766" y2="442.416"/><text fill="#000000" font-family="sans-serif" font-size="14" lengthAdjust="spacing" textLength="100.4609" x="20" y="116.0234">Show Designer</text><ellipse cx="73.2305" cy="50.9883" fill="#E3E3E3" rx="8" ry="8" style="stroke:#181818;stroke-width:0.5;"/><path d="M73.2305,58.9883 L73.2305,85.9883 M60.2305,66.9883 L86.2305,66.9883 M73.2305,85.9883 L60.2305,100.9883 M73.2305,85.9883 L86.2305,100.9883 " fill="none" style="stroke:#181818;stroke-width:0.5;"/><text fill="#000000" font-family="sans-serif" font-size="14" lengthAdjust="spacing" textLength="100.4609" x="20" y="454.9512">Show Designer</text><ellipse cx="73.2305" cy="466.4043" fill="#E3E3E3" rx="8" ry="8" style="stroke:#181818;stroke-width:0.5;"/><path d="M73.2305,474.4043 L73.2305,501.4043 M60.2305,482.4043 L86.2305,482.4043 M73.2305,501.4043 L60.2305,516.4043 M73.2305,501.4043 L86.2305,516.4043 " fill="none" style="stroke:#181818;stroke-width:0.5;"/><rect fill="#E3E3E3" height="30.4883" rx="2.5" ry="2.5" style="stroke:#181818;stroke-width:0.5;" width="66.5273" x="549.7881" y="87.4883"/><text fill="#000000" font-family="sans-serif" font-size="14" lengthAdjust="spacing" textLength="52.5273" x="556.7881" y="108.0234">:System</text><rect fill="#E3E3E3" height="30.4883" rx="2.5" ry="2.5" style="stroke:#181818;stroke-width:0.5;" width="66.5273" x="549.7881" y="441.416"/><text fill="#000000" font-family="sans-serif" font-size="14" lengthAdjust="spacing" textLength="52.5273" x="556.7881" y="461.9512">:System</text><rect fill="#FFFFFF" height="303.4395" style="stroke:#181818;stroke-width:1.0;" width="10" x="68.2305" y="128.9766"/><rect fill="#FFFFFF" height="282.1289" style="stroke:#181818;stroke-width:1.0;" width="10" x="578.0518" y="150.2871"/><polygon fill="#181818" points="566.0518,146.2871,576.0518,150.2871,566.0518,154.2871,570.0518,150.2871" style="stroke:#181818;stroke-width:1.0;"/><line style="stroke:#181818;stroke-width:1.0;" x1="78.2305" x2="572.0518" y1="150.2871" y2="150.2871"/><text fill="#000000" font-family="sans-serif" font-size="13" font-weight="bold" lengthAdjust="spacing" textLength="8.5757" x="85.2305" y="145.5449">1</text><text fill="#000000" font-family="sans-serif" font-size="13" lengthAdjust="spacing" textLength="251.3101" x="97.8062" y="145.5449">requestAddCategory(name, description)</text><line style="stroke:#181818;stroke-width:1.0;" x1="588.0518" x2="630.0518" y1="179.5977" y2="179.5977"/><line style="stroke:#181818;stroke-width:1.0;" x1="630.0518" x2="630.0518" y1="179.5977" y2="192.5977"/><line style="stroke:#181818;stroke-width:1.0;" x1="589.0518" x2="630.0518" y1="192.5977" y2="192.5977"/><polygon fill="#181818" points="599.0518,188.5977,589.0518,192.5977,599.0518,196.5977,595.0518,192.5977" style="stroke:#181818;stroke-width:1.0;"/><text fill="#000000" font-family="sans-serif" font-size="13" font-weight="bold" lengthAdjust="spacing" textLength="8.5757" x="595.0518" y="174.8555">2</text><text fill="#000000" font-family="sans-serif" font-size="13" lengthAdjust="spacing" textLength="184.6152" x="607.6274" y="174.8555">validateCategoryName(name)</text><line style="stroke:#181818;stroke-width:1.0;" x1="588.0518" x2="630.0518" y1="221.9082" y2="221.9082"/><line style="stroke:#181818;stroke-width:1.0;" x1="630.0518" x2="630.0518" y1="221.9082" y2="234.9082"/><line style="stroke:#181818;stroke-width:1.0;" x1="589.0518" x2="630.0518" y1="234.9082" y2="234.9082"/><polygon fill="#181818" points="599.0518,230.9082,589.0518,234.9082,599.0518,238.9082,595.0518,234.9082" style="stroke:#181818;stroke-width:1.0;"/><text fill="#000000" font-family="sans-serif" font-size="13" font-weight="bold" lengthAdjust="spacing" textLength="8.5757" x="595.0518" y="217.166">3</text><text fill="#000000" font-family="sans-serif" font-size="13" lengthAdjust="spacing" textLength="208.6792" x="607.6274" y="217.166">checkCategoryUniqueness(name)</text><line style="stroke:#181818;stroke-width:1.0;" x1="588.0518" x2="630.0518" y1="264.2188" y2="264.2188"/><line style="stroke:#181818;stroke-width:1.0;" x1="630.0518" x2="630.0518" y1="264.2188" y2="277.2188"/><line style="stroke:#181818;stroke-width:1.0;" x1="589.0518" x2="630.0518" y1="277.2188" y2="277.2188"/><polygon fill="#181818" points="599.0518,273.2188,589.0518,277.2188,599.0518,281.2188,595.0518,277.2188" style="stroke:#181818;stroke-width:1.0;"/><text fill="#000000" font-family="sans-serif" font-size="13" font-weight="bold" lengthAdjust="spacing" textLength="8.5757" x="595.0518" y="259.4766">4</text><text fill="#000000" font-family="sans-serif" font-size="13" lengthAdjust="spacing" textLength="200.186" x="607.6274" y="259.4766">validateDescription(description)</text><path d="M10,292.2188 L72.1387,292.2188 L72.1387,299.5293 L62.1387,309.5293 L10,309.5293 L10,292.2188 " fill="#EEEEEE" style="stroke:#000000;stroke-width:1.5;"/><rect fill="none" height="133.1973" style="stroke:#000000;stroke-width:1.5;" width="1027.5405" x="10" y="292.2188"/><text fill="#000000" font-family="sans-serif" font-size="13" font-weight="bold" lengthAdjust="spacing" textLength="17.1387" x="25" y="305.7871">alt</text><text fill="#000000" font-family="sans-serif" font-size="11" font-weight="bold" lengthAdjust="spacing" textLength="268.3882" x="87.1387" y="304.8535">[Name invalid, duplicate, or description invalid]</text><polygon fill="#181818" points="89.2305,326.8398,79.2305,330.8398,89.2305,334.8398,85.2305,330.8398" style="stroke:#181818;stroke-width:1.0;"/><line style="stroke:#181818;stroke-width:1.0;stroke-dasharray:2.0,2.0;" x1="83.2305" x2="577.0518" y1="330.8398" y2="330.8398"/><text fill="#000000" font-family="sans-serif" font-size="13" font-weight="bold" lengthAdjust="spacing" textLength="8.5757" x="95.2305" y="326.0977">5</text><text fill="#000000" font-family="sans-serif" font-size="13" lengthAdjust="spacing" textLength="463.2456" x="107.8062" y="326.0977">errorMessage("Invalid or duplicate category name, or invalid description")</text><line style="stroke:#000000;stroke-width:1.0;stroke-dasharray:2.0,2.0;" x1="10" x2="1037.5405" y1="339.8398" y2="339.8398"/><text fill="#000000" font-family="sans-serif" font-size="11" font-weight="bold" lengthAdjust="spacing" textLength="230.6509" x="15" y="350.4746">[Name and description valid and unique]</text><line style="stroke:#181818;stroke-width:1.0;" x1="588.0518" x2="630.0518" y1="375.1055" y2="375.1055"/><line style="stroke:#181818;stroke-width:1.0;" x1="630.0518" x2="630.0518" y1="375.1055" y2="388.1055"/><line style="stroke:#181818;stroke-width:1.0;" x1="589.0518" x2="630.0518" y1="388.1055" y2="388.1055"/><polygon fill="#181818" points="599.0518,384.1055,589.0518,388.1055,599.0518,392.1055,595.0518,388.1055" style="stroke:#181818;stroke-width:1.0;"/><text fill="#000000" font-family="sans-serif" font-size="13" font-weight="bold" lengthAdjust="spacing" textLength="8.5757" x="595.0518" y="370.3633">6</text><text fill="#000000" font-family="sans-serif" font-size="13" lengthAdjust="spacing" textLength="407.9131" x="607.6274" y="370.3633">saveCategory(id, name, description, status, cretedOn, createdBy)</text><polygon fill="#181818" points="89.2305,413.416,79.2305,417.416,89.2305,421.416,85.2305,417.416" style="stroke:#181818;stroke-width:1.0;"/><line style="stroke:#181818;stroke-width:1.0;stroke-dasharray:2.0,2.0;" x1="83.2305" x2="577.0518" y1="417.416" y2="417.416"/><text fill="#000000" font-family="sans-serif" font-size="13" font-weight="bold" lengthAdjust="spacing" textLength="8.5757" x="95.2305" y="412.6738">7</text><text fill="#000000" font-family="sans-serif" font-size="13" lengthAdjust="spacing" textLength="332.2871" x="107.8062" y="412.6738">confirmationMessage("Category added successfully")</text><!--SRC=[TLBDJiCm3BxdAQoUMcbxWHsGW0g90t2eU02JU5sqDYc9iwblZ_ktTJ1wikBFtu_TUBIkmu0jjDvvVGY-9U2GICLBfqDzn9egxXk2G9hHrSqQ40ze_Dcw6lROH5AABGkqwYDJ2nLz9tAQeBHO3_2ygie2jl1e3BpOEWM2PsIgVUYLmiJUfVQBWjIQVO2iElWpb1HjxIXaW16gKeaoMsqxT0pPRfAQUcCv3jkJq0vWLPMmVPXREyaWZYAB_gAREsnf0uQY3hPZwrsn8fWPvpmheXCsrWXaeNaNbf6gk0FM1zB71VdfxB0LYl5V_49UNatbjmORXa4Hh1knuZzrZTKoim5Pt0gyG1J8jqWDMkKEA0GVtiI9t3ZFNYVWEB-mWPvTmxGcwSryQusiK2JNdooXk-bDOSRND2Q_CNBD7F5qMMO-9Ffpbmr4Havn0peGa_bmOoKpvgalxkNJtkrjQ76OliHSH02D8GCnQIsjVMgQViZXZ5A6Vly1wvTI_G00]--></g></svg>