<svg xmlns="http://www.w3.org/2000/svg" xmlns:xlink="http://www.w3.org/1999/xlink" contentStyleType="text/css" height="523px" preserveAspectRatio="none" style="width:819px;height:523px;background:#FFFFFF;" version="1.1" viewBox="0 0 819 523" width="819px" zoomAndPan="magnify"><title>System Sequence Diagram (SSD) - Add Figure Category</title><defs/><g><text fill="#000000" font-family="sans-serif" font-size="14" font-weight="bold" lengthAdjust="spacing" textLength="398.4941" x="211.5808" y="28.5352">System Sequence Diagram (SSD) - Add Figure Category</text><rect fill="#FFFFFF" height="303.4395" style="stroke:#181818;stroke-width:1.0;" width="10" x="68.2305" y="128.9766"/><rect fill="#FFFFFF" height="282.1289" style="stroke:#181818;stroke-width:1.0;" width="10" x="393.4492" y="150.2871"/><rect fill="none" height="133.1973" style="stroke:#000000;stroke-width:1.5;" width="802.6558" x="10" y="292.2188"/><line style="stroke:#181818;stroke-width:0.5;stroke-dasharray:5.0,5.0;" x1="73" x2="73" y1="118.9766" y2="442.416"/><line style="stroke:#181818;stroke-width:0.5;stroke-dasharray:5.0,5.0;" x1="398.1855" x2="398.1855" y1="118.9766" y2="442.416"/><text fill="#000000" font-family="sans-serif" font-size="14" lengthAdjust="spacing" textLength="100.4609" x="20" y="116.0234">Show Designer</text><ellipse cx="73.2305" cy="50.9883" fill="#E3E3E3" rx="8" ry="8" style="stroke:#181818;stroke-width:0.5;"/><path d="M73.2305,58.9883 L73.2305,85.9883 M60.2305,66.9883 L86.2305,66.9883 M73.2305,85.9883 L60.2305,100.9883 M73.2305,85.9883 L86.2305,100.9883 " fill="none" style="stroke:#181818;stroke-width:0.5;"/><text fill="#000000" font-family="sans-serif" font-size="14" lengthAdjust="spacing" textLength="100.4609" x="20" y="454.9512">Show Designer</text><ellipse cx="73.2305" cy="466.4043" fill="#E3E3E3" rx="8" ry="8" style="stroke:#181818;stroke-width:0.5;"/><path d="M73.2305,474.4043 L73.2305,501.4043 M60.2305,482.4043 L86.2305,482.4043 M73.2305,501.4043 L60.2305,516.4043 M73.2305,501.4043 L86.2305,516.4043 " fill="none" style="stroke:#181818;stroke-width:0.5;"/><rect fill="#E3E3E3" height="30.4883" rx="2.5" ry="2.5" style="stroke:#181818;stroke-width:0.5;" width="66.5273" x="365.1855" y="87.4883"/><text fill="#000000" font-family="sans-serif" font-size="14" lengthAdjust="spacing" textLength="52.5273" x="372.1855" y="108.0234">:System</text><rect fill="#E3E3E3" height="30.4883" rx="2.5" ry="2.5" style="stroke:#181818;stroke-width:0.5;" width="66.5273" x="365.1855" y="441.416"/><text fill="#000000" font-family="sans-serif" font-size="14" lengthAdjust="spacing" textLength="52.5273" x="372.1855" y="461.9512">:System</text><rect fill="#FFFFFF" height="303.4395" style="stroke:#181818;stroke-width:1.0;" width="10" x="68.2305" y="128.9766"/><rect fill="#FFFFFF" height="282.1289" style="stroke:#181818;stroke-width:1.0;" width="10" x="393.4492" y="150.2871"/><polygon fill="#181818" points="381.4492,146.2871,391.4492,150.2871,381.4492,154.2871,385.4492,150.2871" style="stroke:#181818;stroke-width:1.0;"/><line style="stroke:#181818;stroke-width:1.0;" x1="78.2305" x2="387.4492" y1="150.2871" y2="150.2871"/><text fill="#000000" font-family="sans-serif" font-size="13" font-weight="bold" lengthAdjust="spacing" textLength="8.5757" x="85.2305" y="145.5449">1</text><text fill="#000000" font-family="sans-serif" font-size="13" lengthAdjust="spacing" textLength="243.6929" x="97.8062" y="145.5449">requests to add a new Figure Category</text><line style="stroke:#181818;stroke-width:1.0;" x1="403.4492" x2="445.4492" y1="179.5977" y2="179.5977"/><line style="stroke:#181818;stroke-width:1.0;" x1="445.4492" x2="445.4492" y1="179.5977" y2="192.5977"/><line style="stroke:#181818;stroke-width:1.0;" x1="404.4492" x2="445.4492" y1="192.5977" y2="192.5977"/><polygon fill="#181818" points="414.4492,188.5977,404.4492,192.5977,414.4492,196.5977,410.4492,192.5977" style="stroke:#181818;stroke-width:1.0;"/><text fill="#000000" font-family="sans-serif" font-size="13" font-weight="bold" lengthAdjust="spacing" textLength="8.5757" x="410.4492" y="174.8555">2</text><text fill="#000000" font-family="sans-serif" font-size="13" lengthAdjust="spacing" textLength="154.8511" x="423.0249" y="174.8555">validates Category name</text><line style="stroke:#181818;stroke-width:1.0;" x1="403.4492" x2="445.4492" y1="221.9082" y2="221.9082"/><line style="stroke:#181818;stroke-width:1.0;" x1="445.4492" x2="445.4492" y1="221.9082" y2="234.9082"/><line style="stroke:#181818;stroke-width:1.0;" x1="404.4492" x2="445.4492" y1="234.9082" y2="234.9082"/><polygon fill="#181818" points="414.4492,230.9082,404.4492,234.9082,414.4492,238.9082,410.4492,234.9082" style="stroke:#181818;stroke-width:1.0;"/><text fill="#000000" font-family="sans-serif" font-size="13" font-weight="bold" lengthAdjust="spacing" textLength="8.5757" x="410.4492" y="217.166">3</text><text fill="#000000" font-family="sans-serif" font-size="13" lengthAdjust="spacing" textLength="227.8555" x="423.0249" y="217.166">checks Category's name uniqueness</text><line style="stroke:#181818;stroke-width:1.0;" x1="403.4492" x2="445.4492" y1="264.2188" y2="264.2188"/><line style="stroke:#181818;stroke-width:1.0;" x1="445.4492" x2="445.4492" y1="264.2188" y2="277.2188"/><line style="stroke:#181818;stroke-width:1.0;" x1="404.4492" x2="445.4492" y1="277.2188" y2="277.2188"/><polygon fill="#181818" points="414.4492,273.2188,404.4492,277.2188,414.4492,281.2188,410.4492,277.2188" style="stroke:#181818;stroke-width:1.0;"/><text fill="#000000" font-family="sans-serif" font-size="13" font-weight="bold" lengthAdjust="spacing" textLength="8.5757" x="410.4492" y="259.4766">4</text><text fill="#000000" font-family="sans-serif" font-size="13" lengthAdjust="spacing" textLength="130.2729" x="423.0249" y="259.4766">validates description</text><path d="M10,292.2188 L72.1387,292.2188 L72.1387,299.5293 L62.1387,309.5293 L10,309.5293 L10,292.2188 " fill="#EEEEEE" style="stroke:#000000;stroke-width:1.5;"/><rect fill="none" height="133.1973" style="stroke:#000000;stroke-width:1.5;" width="802.6558" x="10" y="292.2188"/><text fill="#000000" font-family="sans-serif" font-size="13" font-weight="bold" lengthAdjust="spacing" textLength="17.1387" x="25" y="305.7871">alt</text><text fill="#000000" font-family="sans-serif" font-size="11" font-weight="bold" lengthAdjust="spacing" textLength="95.9922" x="87.1387" y="304.8535">[Name duplicate]</text><polygon fill="#181818" points="89.2305,326.8398,79.2305,330.8398,89.2305,334.8398,85.2305,330.8398" style="stroke:#181818;stroke-width:1.0;"/><line style="stroke:#181818;stroke-width:1.0;stroke-dasharray:2.0,2.0;" x1="83.2305" x2="392.4492" y1="330.8398" y2="330.8398"/><text fill="#000000" font-family="sans-serif" font-size="13" font-weight="bold" lengthAdjust="spacing" textLength="8.5757" x="95.2305" y="326.0977">5</text><text fill="#000000" font-family="sans-serif" font-size="13" lengthAdjust="spacing" textLength="207.8413" x="107.8062" y="326.0977">error message (duplicated name)</text><line style="stroke:#000000;stroke-width:1.0;stroke-dasharray:2.0,2.0;" x1="10" x2="812.6558" y1="339.8398" y2="339.8398"/><text fill="#000000" font-family="sans-serif" font-size="11" font-weight="bold" lengthAdjust="spacing" textLength="230.6509" x="15" y="350.4746">[Name and description valid and unique]</text><line style="stroke:#181818;stroke-width:1.0;" x1="403.4492" x2="445.4492" y1="375.1055" y2="375.1055"/><line style="stroke:#181818;stroke-width:1.0;" x1="445.4492" x2="445.4492" y1="375.1055" y2="388.1055"/><line style="stroke:#181818;stroke-width:1.0;" x1="404.4492" x2="445.4492" y1="388.1055" y2="388.1055"/><polygon fill="#181818" points="414.4492,384.1055,404.4492,388.1055,414.4492,392.1055,410.4492,388.1055" style="stroke:#181818;stroke-width:1.0;"/><text fill="#000000" font-family="sans-serif" font-size="13" font-weight="bold" lengthAdjust="spacing" textLength="8.5757" x="410.4492" y="370.3633">6</text><text fill="#000000" font-family="sans-serif" font-size="13" lengthAdjust="spacing" textLength="367.6309" x="423.0249" y="370.3633">saves new category and registers who created it and when</text><polygon fill="#181818" points="89.2305,413.416,79.2305,417.416,89.2305,421.416,85.2305,417.416" style="stroke:#181818;stroke-width:1.0;"/><line style="stroke:#181818;stroke-width:1.0;stroke-dasharray:2.0,2.0;" x1="83.2305" x2="392.4492" y1="417.416" y2="417.416"/><text fill="#000000" font-family="sans-serif" font-size="13" font-weight="bold" lengthAdjust="spacing" textLength="8.5757" x="95.2305" y="412.6738">7</text><text fill="#000000" font-family="sans-serif" font-size="13" lengthAdjust="spacing" textLength="278.6431" x="107.8062" y="412.6738">informs user about the successful operation</text><!--SRC=[VL6zRkCm3Dxr54IMjaDV8CC1HOsENVm4hCJOH6p99QaOUVkZxJH9xufg8iJlZwGUEKyeEC9OSeczb970f5BGQsV2UCIEMZiF14BHC7V3FK1xJ6NctC411wKGZCsXxLcDHcZfirAE10rZjy0VsxPvWcTuIGdUkAj2y8f6NP5p25Yjv3f-a7WThGZishxCq91obqbsW0fj4zpPEFA4sM2ttwostbgkP3wvx08ERGFFVowjlS_WYTGKh01w28HCytzHRW8NnSiyTq8d73WvHAyio3ZI3yZOKppUO0-w0g5cNfP3gh-g9z8eF1cN770mU5-ugKu3H-y7yFT5N_ZD7aZ4LpUwi5yE7g_OjFe-1V8xRJAOqxt-vhh-Rk6-gT_2APuysBAt-3NwmX7gs06YCFS5ej3goROsvvxoJs4v7ugC2bL903zADR2UG6kCFi2X3b0c4bp7fvn2IFJlSUv_cl0N]--></g></svg>