<svg xmlns="http://www.w3.org/2000/svg" xmlns:xlink="http://www.w3.org/1999/xlink" contentStyleType="text/css" height="791px" preserveAspectRatio="none" style="width:933px;height:791px;background:#FFFFFF;" version="1.1" viewBox="0 0 933 791" width="933px" zoomAndPan="magnify"><title>Collision Detection Sequence Diagram - US263</title><defs/><g><text fill="#000000" font-family="sans-serif" font-size="14" font-weight="bold" lengthAdjust="spacing" textLength="320.4028" x="308.1406" y="29.9659">Collision Detection Sequence Diagram - US263</text><rect fill="#FFFFFF" height="535.2782" style="stroke:#181818;stroke-width:1.0;" width="10" x="55.5208" y="134.1358"/><rect fill="#FFFFFF" height="511.5721" style="stroke:#181818;stroke-width:1.0;" width="10" x="242.995" y="157.8419"/><rect fill="#FFFFFF" height="401.7481" style="stroke:#181818;stroke-width:1.0;" width="10" x="494.0002" y="216.2539"/><rect fill="#FFFFFF" height="31.706" style="stroke:#181818;stroke-width:1.0;" width="10" x="756.5624" y="351.0779"/><rect fill="#FFFFFF" height="139.8241" style="stroke:#181818;stroke-width:1.0;" width="10" x="849.7991" y="414.49"/><rect fill="none" height="445.1601" style="stroke:#000000;stroke-width:1.5;" width="730.4749" x="197.209" y="172.8419"/><rect fill="none" height="335.0421" style="stroke:#000000;stroke-width:1.5;" width="710.4749" x="207.209" y="275.9599"/><line style="stroke:#181818;stroke-width:0.5;stroke-dasharray:5.0,5.0;" x1="60" x2="60" y1="124.1358" y2="708.12"/><line style="stroke:#181818;stroke-width:0.5;stroke-dasharray:5.0,5.0;" x1="247.209" x2="247.209" y1="124.1358" y2="708.12"/><line style="stroke:#181818;stroke-width:0.5;stroke-dasharray:5.0,5.0;" x1="498.6574" x2="498.6574" y1="124.1358" y2="708.12"/><line style="stroke:#181818;stroke-width:0.5;stroke-dasharray:5.0,5.0;" x1="761.2104" x2="761.2104" y1="124.1358" y2="708.12"/><line style="stroke:#181818;stroke-width:0.5;stroke-dasharray:5.0,5.0;" x1="853.9143" x2="853.9143" y1="124.1358" y2="708.12"/><text fill="#000000" font-family="sans-serif" font-size="14" lengthAdjust="spacing" textLength="105.0416" x="5" y="120.0339">Drone Operator</text><ellipse cx="60.5208" cy="53.5679" fill="#E3E3E3" rx="8" ry="8" style="stroke:#181818;stroke-width:0.5;"/><path d="M60.5208,61.5679 L60.5208,88.5679 M47.5208,69.5679 L73.5208,69.5679 M60.5208,88.5679 L47.5208,103.5679 M60.5208,88.5679 L73.5208,103.5679 " fill="none" style="stroke:#181818;stroke-width:0.5;"/><text fill="#000000" font-family="sans-serif" font-size="14" lengthAdjust="spacing" textLength="105.0416" x="5" y="722.0859">Drone Operator</text><ellipse cx="60.5208" cy="734.6879" fill="#E3E3E3" rx="8" ry="8" style="stroke:#181818;stroke-width:0.5;"/><path d="M60.5208,742.6879 L60.5208,769.6879 M47.5208,750.6879 L73.5208,750.6879 M60.5208,769.6879 L47.5208,784.6879 M60.5208,769.6879 L73.5208,784.6879 " fill="none" style="stroke:#181818;stroke-width:0.5;"/><rect fill="#E3E3E3" height="33.0679" rx="2.5" ry="2.5" style="stroke:#181818;stroke-width:0.5;" width="61.5718" x="217.209" y="90.0679"/><text fill="#000000" font-family="sans-serif" font-size="14" lengthAdjust="spacing" textLength="47.5718" x="224.209" y="112.0339">System</text><rect fill="#E3E3E3" height="33.0679" rx="2.5" ry="2.5" style="stroke:#181818;stroke-width:0.5;" width="61.5718" x="217.209" y="707.12"/><text fill="#000000" font-family="sans-serif" font-size="14" lengthAdjust="spacing" textLength="47.5718" x="224.209" y="729.0859">System</text><rect fill="#E3E3E3" height="33.0679" rx="2.5" ry="2.5" style="stroke:#181818;stroke-width:0.5;" width="126.6856" x="435.6574" y="90.0679"/><text fill="#000000" font-family="sans-serif" font-size="14" lengthAdjust="spacing" textLength="112.6856" x="442.6574" y="112.0339">CollisionDetector</text><rect fill="#E3E3E3" height="33.0679" rx="2.5" ry="2.5" style="stroke:#181818;stroke-width:0.5;" width="126.6856" x="435.6574" y="707.12"/><text fill="#000000" font-family="sans-serif" font-size="14" lengthAdjust="spacing" textLength="112.6856" x="442.6574" y="729.0859">CollisionDetector</text><rect fill="#E3E3E3" height="33.0679" rx="2.5" ry="2.5" style="stroke:#181818;stroke-width:0.5;" width="60.7038" x="731.2104" y="90.0679"/><text fill="#000000" font-family="sans-serif" font-size="14" lengthAdjust="spacing" textLength="46.7038" x="738.2104" y="112.0339">Logger</text><rect fill="#E3E3E3" height="33.0679" rx="2.5" ry="2.5" style="stroke:#181818;stroke-width:0.5;" width="60.7038" x="731.2104" y="707.12"/><text fill="#000000" font-family="sans-serif" font-size="14" lengthAdjust="spacing" textLength="46.7038" x="738.2104" y="729.0859">Logger</text><rect fill="#E3E3E3" height="33.0679" rx="2.5" ry="2.5" style="stroke:#181818;stroke-width:0.5;" width="105.7697" x="801.9143" y="90.0679"/><text fill="#000000" font-family="sans-serif" font-size="14" lengthAdjust="spacing" textLength="91.7697" x="808.9143" y="112.0339">DroneProcess</text><rect fill="#E3E3E3" height="33.0679" rx="2.5" ry="2.5" style="stroke:#181818;stroke-width:0.5;" width="105.7697" x="801.9143" y="707.12"/><text fill="#000000" font-family="sans-serif" font-size="14" lengthAdjust="spacing" textLength="91.7697" x="808.9143" y="729.0859">DroneProcess</text><rect fill="#FFFFFF" height="535.2782" style="stroke:#181818;stroke-width:1.0;" width="10" x="55.5208" y="134.1358"/><rect fill="#FFFFFF" height="511.5721" style="stroke:#181818;stroke-width:1.0;" width="10" x="242.995" y="157.8419"/><rect fill="#FFFFFF" height="401.7481" style="stroke:#181818;stroke-width:1.0;" width="10" x="494.0002" y="216.2539"/><rect fill="#FFFFFF" height="31.706" style="stroke:#181818;stroke-width:1.0;" width="10" x="756.5624" y="351.0779"/><rect fill="#FFFFFF" height="139.8241" style="stroke:#181818;stroke-width:1.0;" width="10" x="849.7991" y="414.49"/><polygon fill="#181818" points="230.995,153.8419,240.995,157.8419,230.995,161.8419,234.995,157.8419" style="stroke:#181818;stroke-width:1.0;"/><line style="stroke:#181818;stroke-width:1.0;" x1="65.5208" x2="236.995" y1="157.8419" y2="157.8419"/><text fill="#000000" font-family="sans-serif" font-size="13" font-weight="bold" lengthAdjust="spacing" textLength="7.436" x="72.5208" y="152.0328">1</text><text fill="#000000" font-family="sans-serif" font-size="13" lengthAdjust="spacing" textLength="136.0971" x="83.9568" y="152.0328">start show monitoring</text><path d="M197.209,172.8419 L270.4971,172.8419 L270.4971,182.5479 L260.4971,192.5479 L197.209,192.5479 L197.209,172.8419 " fill="#EEEEEE" style="stroke:#000000;stroke-width:1.5;"/><rect fill="none" height="445.1601" style="stroke:#000000;stroke-width:1.5;" width="730.4749" x="197.209" y="172.8419"/><text fill="#000000" font-family="sans-serif" font-size="13" font-weight="bold" lengthAdjust="spacing" textLength="28.288" x="212.209" y="187.7389">loop</text><text fill="#000000" font-family="sans-serif" font-size="11" font-weight="bold" lengthAdjust="spacing" textLength="115.1692" x="285.4971" y="186.6008">[for each timestamp]</text><polygon fill="#181818" points="482.0002,212.2539,492.0002,216.2539,482.0002,220.2539,486.0002,216.2539" style="stroke:#181818;stroke-width:1.0;"/><line style="stroke:#181818;stroke-width:1.0;" x1="252.995" x2="488.0002" y1="216.2539" y2="216.2539"/><text fill="#000000" font-family="sans-serif" font-size="13" font-weight="bold" lengthAdjust="spacing" textLength="7.436" x="259.995" y="210.4449">2</text><text fill="#000000" font-family="sans-serif" font-size="13" lengthAdjust="spacing" textLength="146.2241" x="271.431" y="210.4449">process drone positions</text><line style="stroke:#181818;stroke-width:1.0;" x1="504.0002" x2="546.0002" y1="247.9599" y2="247.9599"/><line style="stroke:#181818;stroke-width:1.0;" x1="546.0002" x2="546.0002" y1="247.9599" y2="260.9599"/><line style="stroke:#181818;stroke-width:1.0;" x1="505.0002" x2="546.0002" y1="260.9599" y2="260.9599"/><polygon fill="#181818" points="515.0002,256.9599,505.0002,260.9599,515.0002,264.9599,511.0002,260.9599" style="stroke:#181818;stroke-width:1.0;"/><text fill="#000000" font-family="sans-serif" font-size="13" font-weight="bold" lengthAdjust="spacing" textLength="7.436" x="511.0002" y="242.1509">3</text><text fill="#000000" font-family="sans-serif" font-size="13" lengthAdjust="spacing" textLength="217.1262" x="522.4362" y="242.1509">calculate distances between drones</text><path d="M207.209,275.9599 L269.668,275.9599 L269.668,285.6659 L259.668,295.6659 L207.209,295.6659 L207.209,275.9599 " fill="#EEEEEE" style="stroke:#000000;stroke-width:1.5;"/><rect fill="none" height="335.0421" style="stroke:#000000;stroke-width:1.5;" width="710.4749" x="207.209" y="275.9599"/><text fill="#000000" font-family="sans-serif" font-size="13" font-weight="bold" lengthAdjust="spacing" textLength="17.459" x="222.209" y="290.8569">alt</text><text fill="#000000" font-family="sans-serif" font-size="11" font-weight="bold" lengthAdjust="spacing" textLength="264.8561" x="284.668" y="289.7188">[collision detected (distance &lt; combined radius)]</text><polygon fill="#181818" points="263.995,315.3719,253.995,319.3719,263.995,323.3719,259.995,319.3719" style="stroke:#181818;stroke-width:1.0;"/><line style="stroke:#181818;stroke-width:1.0;" x1="257.995" x2="493.0002" y1="319.3719" y2="319.3719"/><text fill="#000000" font-family="sans-serif" font-size="13" font-weight="bold" lengthAdjust="spacing" textLength="7.436" x="269.995" y="313.5629">4</text><text fill="#000000" font-family="sans-serif" font-size="13" lengthAdjust="spacing" textLength="88.0751" x="281.431" y="313.5629">notify collision</text><polygon fill="#181818" points="744.5624,347.0779,754.5624,351.0779,744.5624,355.0779,748.5624,351.0779" style="stroke:#181818;stroke-width:1.0;"/><line style="stroke:#181818;stroke-width:1.0;" x1="252.995" x2="750.5624" y1="351.0779" y2="351.0779"/><text fill="#000000" font-family="sans-serif" font-size="13" font-weight="bold" lengthAdjust="spacing" textLength="7.436" x="259.995" y="345.2689">5</text><text fill="#000000" font-family="sans-serif" font-size="13" lengthAdjust="spacing" textLength="109.6161" x="271.431" y="345.2689">log collision event</text><polygon fill="#181818" points="263.995,378.784,253.995,382.784,263.995,386.784,259.995,382.784" style="stroke:#181818;stroke-width:1.0;"/><line style="stroke:#181818;stroke-width:1.0;stroke-dasharray:2.0,2.0;" x1="257.995" x2="760.5624" y1="382.784" y2="382.784"/><text fill="#000000" font-family="sans-serif" font-size="13" font-weight="bold" lengthAdjust="spacing" textLength="7.436" x="269.995" y="376.975">6</text><text fill="#000000" font-family="sans-serif" font-size="13" lengthAdjust="spacing" textLength="95.5631" x="281.431" y="376.975">collision logged</text><polygon fill="#181818" points="837.7991,410.49,847.7991,414.49,837.7991,418.49,841.7991,414.49" style="stroke:#181818;stroke-width:1.0;"/><line style="stroke:#181818;stroke-width:1.0;" x1="252.995" x2="843.7991" y1="414.49" y2="414.49"/><text fill="#000000" font-family="sans-serif" font-size="13" font-weight="bold" lengthAdjust="spacing" textLength="7.436" x="259.995" y="408.681">7</text><text fill="#000000" font-family="sans-serif" font-size="13" lengthAdjust="spacing" textLength="134.1991" x="271.431" y="408.681">send SIGUSR1 (pause)</text><polygon fill="#181818" points="263.995,442.196,253.995,446.196,263.995,450.196,259.995,446.196" style="stroke:#181818;stroke-width:1.0;"/><line style="stroke:#181818;stroke-width:1.0;stroke-dasharray:2.0,2.0;" x1="257.995" x2="848.7991" y1="446.196" y2="446.196"/><text fill="#000000" font-family="sans-serif" font-size="13" font-weight="bold" lengthAdjust="spacing" textLength="7.436" x="269.995" y="440.387">8</text><text fill="#000000" font-family="sans-serif" font-size="13" lengthAdjust="spacing" textLength="44.876" x="281.431" y="440.387">paused</text><line style="stroke:#181818;stroke-width:1.0;" x1="252.995" x2="294.995" y1="477.902" y2="477.902"/><line style="stroke:#181818;stroke-width:1.0;" x1="294.995" x2="294.995" y1="477.902" y2="490.902"/><line style="stroke:#181818;stroke-width:1.0;" x1="253.995" x2="294.995" y1="490.902" y2="490.902"/><polygon fill="#181818" points="263.995,486.902,253.995,490.902,263.995,494.902,259.995,490.902" style="stroke:#181818;stroke-width:1.0;"/><text fill="#000000" font-family="sans-serif" font-size="13" font-weight="bold" lengthAdjust="spacing" textLength="7.436" x="259.995" y="472.093">9</text><text fill="#000000" font-family="sans-serif" font-size="13" lengthAdjust="spacing" textLength="144.6641" x="271.431" y="472.093">wait for operator action</text><polygon fill="#181818" points="837.7991,518.608,847.7991,522.608,837.7991,526.608,841.7991,522.608" style="stroke:#181818;stroke-width:1.0;"/><line style="stroke:#181818;stroke-width:1.0;" x1="252.995" x2="843.7991" y1="522.608" y2="522.608"/><text fill="#000000" font-family="sans-serif" font-size="13" font-weight="bold" lengthAdjust="spacing" textLength="14.872" x="259.995" y="516.799">10</text><text fill="#000000" font-family="sans-serif" font-size="13" lengthAdjust="spacing" textLength="147.0821" x="278.867" y="516.799">send SIGCONT (resume)</text><polygon fill="#181818" points="263.995,550.314,253.995,554.314,263.995,558.314,259.995,554.314" style="stroke:#181818;stroke-width:1.0;"/><line style="stroke:#181818;stroke-width:1.0;stroke-dasharray:2.0,2.0;" x1="257.995" x2="853.7991" y1="554.314" y2="554.314"/><text fill="#000000" font-family="sans-serif" font-size="13" font-weight="bold" lengthAdjust="spacing" textLength="14.872" x="269.995" y="548.505">11</text><text fill="#000000" font-family="sans-serif" font-size="13" lengthAdjust="spacing" textLength="54.444" x="288.867" y="548.505">resumed</text><line style="stroke:#000000;stroke-width:1.0;stroke-dasharray:2.0,2.0;" x1="207.209" x2="917.6839" y1="563.314" y2="563.314"/><text fill="#000000" font-family="sans-serif" font-size="11" font-weight="bold" lengthAdjust="spacing" textLength="69.5635" x="212.209" y="575.073">[no collision]</text><polygon fill="#181818" points="263.995,599.002,253.995,603.002,263.995,607.002,259.995,603.002" style="stroke:#181818;stroke-width:1.0;"/><line style="stroke:#181818;stroke-width:1.0;stroke-dasharray:2.0,2.0;" x1="257.995" x2="493.0002" y1="603.002" y2="603.002"/><text fill="#000000" font-family="sans-serif" font-size="13" font-weight="bold" lengthAdjust="spacing" textLength="14.872" x="269.995" y="597.1929">12</text><text fill="#000000" font-family="sans-serif" font-size="13" lengthAdjust="spacing" textLength="198.1332" x="288.867" y="597.1929">update positions (normal status)</text><polygon fill="#181818" points="235.995,665.414,245.995,669.414,235.995,673.414,239.995,669.414" style="stroke:#181818;stroke-width:1.0;"/><line style="stroke:#181818;stroke-width:1.0;" x1="60.5208" x2="241.995" y1="669.414" y2="669.414"/><text fill="#000000" font-family="sans-serif" font-size="13" font-weight="bold" lengthAdjust="spacing" textLength="14.872" x="67.5208" y="663.605">13</text><text fill="#000000" font-family="sans-serif" font-size="13" lengthAdjust="spacing" textLength="134.6021" x="86.3928" y="663.605">stop show monitoring</text><path d="M257,630.002 L257,693.002 L587,693.002 L587,640.002 L577,630.002 L257,630.002 " fill="#FAFAFA" style="stroke:#181818;stroke-width:0.5;"/><path d="M577,630.002 L577,640.002 L587,640.002 L577,630.002 " fill="#FAFAFA" style="stroke:#181818;stroke-width:0.5;"/><text fill="#000000" font-family="sans-serif" font-size="13" lengthAdjust="spacing" textLength="289.2893" x="263" y="648.899">Updated as of 11:27 AM WEST on May 16, 2025.</text><text fill="#000000" font-family="sans-serif" font-size="13" lengthAdjust="spacing" textLength="309.6083" x="263" y="666.605">- Collision radius = (biggestDimension/200 + 0.5m).</text><text fill="#000000" font-family="sans-serif" font-size="13" lengthAdjust="spacing" textLength="182.1692" x="263" y="684.311">- Excludes terminated drones.</text><!--SRC=[TLJ1Rjim3BthAuYS4cp9aWpjW60RC3J5C61TYxd1Bhie5kC8bILFaflbxqT9iIrtwCcKo4S-aazsJr8ttF8QQgDDURIcHl2sHUPwJyFB9rvXuSyAmMBfkQvK7k2EN9YJr1KSk7B8c9UUGc-CKj99es6Bdc31Al1FYxf4s4fU1UmSTiNw-ZrZlFL6j_KUBTcbDnOcMsiqmds3bjDv0jpr1qQLlInbmxM7IN5s7kiOaConkoUIU5nITOTnx7TJLPW2aZbsHqeFrfJeNCeIBY9Z-Spzm9QnpeBvvmkh3JXFoMXUvXJcBSbBKnl05_9C6TF0WQ38ooDuMIC1wuObVqZOaTz0ayY0YCDgZ9DXq6v8slVP6MDyoLNPgX0e95MXtJZOepyXwfIJKYaFPRzC4Q4eODe1u2EvwxtKT6cvaAsRZOfrtMlZvU4yfChwIRFUW39LLWgVKVkXayj2qWVcMUO1ee9JC84lKTdiGbUq2zG2YczVTyNF5KmRtZgSPLEBUqqAp2l5E95bwnmdBdtScUdspgFaNozyS__Z4QOMNLjJvVzB9S-ebyGAwP7HCBD13jFEy6qZ0gQN14oriJLNGOK-x2ZmeDsE2dHY2RuWmzTqJ09zAUCiJIVax6fu62G3-e_8wkWti8iSHNX9vW2hrMRz0RxSmQ_RuX5ectVy3Alhjx1UhgyMl_Ky-wSaeS4dcEubBTZvBJqJ7Lplriibl87buggUHT3jtrArWdJjqTPInu99sWls3m00]--></g></svg>