<svg xmlns="http://www.w3.org/2000/svg" xmlns:xlink="http://www.w3.org/1999/xlink" contentStyleType="text/css" height="649px" preserveAspectRatio="none" style="width:1797px;height:649px;background:#FFFFFF;" version="1.1" viewBox="0 0 1797 649" width="1797px" zoomAndPan="magnify"><title>Class Diagram - US220 - Register Customer</title><defs/><g><text fill="#000000" font-family="sans-serif" font-size="14" font-weight="bold" lengthAdjust="spacing" textLength="290.2129" x="746.3936" y="25.1074">Class Diagram - US220 - Register Customer</text><!--cluster customermanagement--><g id="cluster_customermanagement"><path d="M8.5,45.6348 L158.8789,45.6348 A3.75,3.75 0 0 1 161.3789,48.1348 L168.3789,70.2559 L1787.5,70.2559 A2.5,2.5 0 0 1 1790,72.7559 L1790,640.1348 A2.5,2.5 0 0 1 1787.5,642.6348 L8.5,642.6348 A2.5,2.5 0 0 1 6,640.1348 L6,48.1348 A2.5,2.5 0 0 1 8.5,45.6348 " fill="none" style="stroke:#000000;stroke-width:1.5;"/><line style="stroke:#000000;stroke-width:1.5;" x1="6" x2="168.3789" y1="70.2559" y2="70.2559"/><text fill="#000000" font-family="sans-serif" font-size="14" font-weight="bold" lengthAdjust="spacing" textLength="149.3789" x="10" y="62.7422">customermanagement</text></g><!--cluster domain--><g id="cluster_domain"><path d="M920.5,259.6348 L971.2793,259.6348 A3.75,3.75 0 0 1 973.7793,262.1348 L980.7793,284.2559 L1763.5,284.2559 A2.5,2.5 0 0 1 1766,286.7559 L1766,616.1348 A2.5,2.5 0 0 1 1763.5,618.6348 L920.5,618.6348 A2.5,2.5 0 0 1 918,616.1348 L918,262.1348 A2.5,2.5 0 0 1 920.5,259.6348 " fill="none" style="stroke:#000000;stroke-width:1.5;"/><line style="stroke:#000000;stroke-width:1.5;" x1="918" x2="980.7793" y1="284.2559" y2="284.2559"/><text fill="#000000" font-family="sans-serif" font-size="14" font-weight="bold" lengthAdjust="spacing" textLength="49.7793" x="922" y="276.7422">domain</text></g><!--cluster application--><g id="cluster_application"><path d="M32.5,90.6348 L107.3965,90.6348 A3.75,3.75 0 0 1 109.8965,93.1348 L116.8965,115.2559 L891.5,115.2559 A2.5,2.5 0 0 1 894,117.7559 L894,432.6348 A2.5,2.5 0 0 1 891.5,435.1348 L32.5,435.1348 A2.5,2.5 0 0 1 30,432.6348 L30,93.1348 A2.5,2.5 0 0 1 32.5,90.6348 " fill="none" style="stroke:#000000;stroke-width:1.5;"/><line style="stroke:#000000;stroke-width:1.5;" x1="30" x2="116.8965" y1="115.2559" y2="115.2559"/><text fill="#000000" font-family="sans-serif" font-size="14" font-weight="bold" lengthAdjust="spacing" textLength="73.8965" x="34" y="107.7422">application</text></g><!--class Costumer--><g id="elem_Costumer"><rect codeLine="6" fill="#F1F1F1" height="178.3477" id="Costumer" rx="2.5" ry="2.5" style="stroke:#181818;stroke-width:0.5;" width="149.7578" x="1189" y="296.6348"/><ellipse cx="1229.6838" cy="312.6348" fill="#ADD1B2" rx="11" ry="11" style="stroke:#181818;stroke-width:1.0;"/><path d="M1232.4495,308.5098 Q1232.6057,308.291 1232.7932,308.1816 Q1232.9807,308.0723 1233.1995,308.0723 Q1233.5745,308.0723 1233.8088,308.3379 Q1234.0432,308.5879 1234.0432,309.1973 L1234.0432,310.6504 Q1234.0432,311.2598 1233.8088,311.5254 Q1233.5745,311.791 1233.1995,311.791 Q1232.8557,311.791 1232.6526,311.5879 Q1232.4495,311.4004 1232.3401,310.8848 Q1232.2932,310.5254 1232.1057,310.3379 Q1231.7776,309.9629 1231.1682,309.7441 Q1230.5588,309.5254 1229.9338,309.5254 Q1229.1682,309.5254 1228.5276,309.8535 Q1227.9026,310.1816 1227.4026,310.9316 Q1226.9182,311.6816 1226.9182,312.7129 L1226.9182,313.8066 Q1226.9182,315.041 1227.8088,315.8691 Q1228.6995,316.6816 1230.2932,316.6816 Q1231.2307,316.6816 1231.887,316.4316 Q1232.2776,316.2754 1232.6995,315.8379 Q1232.9651,315.5723 1233.1057,315.4941 Q1233.262,315.416 1233.4651,315.416 Q1233.7932,315.416 1234.0432,315.6816 Q1234.3088,315.9316 1234.3088,316.2754 Q1234.3088,316.6191 1233.9651,317.0254 Q1233.4651,317.6035 1232.6682,317.9316 Q1231.5901,318.3848 1230.2932,318.3848 Q1228.7776,318.3848 1227.5745,317.7598 Q1226.5901,317.2598 1225.9026,316.1973 Q1225.2151,315.1191 1225.2151,313.8379 L1225.2151,312.6816 Q1225.2151,311.3535 1225.8245,310.2129 Q1226.4495,309.0566 1227.5432,308.4473 Q1228.637,307.8223 1229.8713,307.8223 Q1230.6057,307.8223 1231.2463,307.9941 Q1231.9026,308.1504 1232.4495,308.5098 Z " fill="#000000"/><text fill="#000000" font-family="sans-serif" font-size="14" lengthAdjust="spacing" textLength="60.6826" x="1249.3914" y="318.4316">Costumer</text><line style="stroke:#181818;stroke-width:0.5;" x1="1190" x2="1337.7578" y1="328.6348" y2="328.6348"/><text fill="#000000" font-family="sans-serif" font-size="14" lengthAdjust="spacing" textLength="80.917" x="1195" y="347.7422">-Name name</text><text fill="#000000" font-family="sans-serif" font-size="14" lengthAdjust="spacing" textLength="128.3721" x="1195" y="366.3633">-EmailAddress email</text><text fill="#000000" font-family="sans-serif" font-size="14" lengthAdjust="spacing" textLength="137.7578" x="1195" y="384.9844">-PhoneNumber phone</text><text fill="#000000" font-family="sans-serif" font-size="14" lengthAdjust="spacing" textLength="45.8896" x="1195" y="403.6055">-NIF nif</text><text fill="#000000" font-family="sans-serif" font-size="14" lengthAdjust="spacing" textLength="109.7168" x="1195" y="422.2266">-Address address</text><line style="stroke:#181818;stroke-width:0.5;" x1="1190" x2="1337.7578" y1="429.7402" y2="429.7402"/><text fill="#000000" font-family="sans-serif" font-size="14" lengthAdjust="spacing" textLength="89.8447" x="1195" y="448.8477">+getNIF(): NIF</text><text fill="#000000" font-family="sans-serif" font-size="14" lengthAdjust="spacing" textLength="119.4307" x="1195" y="467.4688">+getName(): Name</text></g><!--class CustomerRepresentative--><g id="elem_CustomerRepresentative"><rect codeLine="16" fill="#F1F1F1" height="141.1055" id="CustomerRepresentative" rx="2.5" ry="2.5" style="stroke:#181818;stroke-width:0.5;" width="186.8477" x="955.5" y="315.1348"/><ellipse cx="970.5" cy="331.1348" fill="#ADD1B2" rx="11" ry="11" style="stroke:#181818;stroke-width:1.0;"/><path d="M973.2656,327.0098 Q973.4219,326.791 973.6094,326.6816 Q973.7969,326.5723 974.0156,326.5723 Q974.3906,326.5723 974.625,326.8379 Q974.8594,327.0879 974.8594,327.6973 L974.8594,329.1504 Q974.8594,329.7598 974.625,330.0254 Q974.3906,330.291 974.0156,330.291 Q973.6719,330.291 973.4688,330.0879 Q973.2656,329.9004 973.1563,329.3848 Q973.1094,329.0254 972.9219,328.8379 Q972.5938,328.4629 971.9844,328.2441 Q971.375,328.0254 970.75,328.0254 Q969.9844,328.0254 969.3438,328.3535 Q968.7188,328.6816 968.2188,329.4316 Q967.7344,330.1816 967.7344,331.2129 L967.7344,332.3066 Q967.7344,333.541 968.625,334.3691 Q969.5156,335.1816 971.1094,335.1816 Q972.0469,335.1816 972.7031,334.9316 Q973.0938,334.7754 973.5156,334.3379 Q973.7813,334.0723 973.9219,333.9941 Q974.0781,333.916 974.2813,333.916 Q974.6094,333.916 974.8594,334.1816 Q975.125,334.4316 975.125,334.7754 Q975.125,335.1191 974.7813,335.5254 Q974.2813,336.1035 973.4844,336.4316 Q972.4063,336.8848 971.1094,336.8848 Q969.5938,336.8848 968.3906,336.2598 Q967.4063,335.7598 966.7188,334.6973 Q966.0313,333.6191 966.0313,332.3379 L966.0313,331.1816 Q966.0313,329.8535 966.6406,328.7129 Q967.2656,327.5566 968.3594,326.9473 Q969.4531,326.3223 970.6875,326.3223 Q971.4219,326.3223 972.0625,326.4941 Q972.7188,326.6504 973.2656,327.0098 Z " fill="#000000"/><text fill="#000000" font-family="sans-serif" font-size="14" lengthAdjust="spacing" textLength="154.8477" x="984.5" y="336.9316">CustomerRepresentative</text><line style="stroke:#181818;stroke-width:0.5;" x1="956.5" x2="1141.3477" y1="347.1348" y2="347.1348"/><text fill="#000000" font-family="sans-serif" font-size="14" lengthAdjust="spacing" textLength="80.917" x="961.5" y="366.2422">-Name name</text><text fill="#000000" font-family="sans-serif" font-size="14" lengthAdjust="spacing" textLength="77.0137" x="961.5" y="384.8633">-Email email</text><text fill="#000000" font-family="sans-serif" font-size="14" lengthAdjust="spacing" textLength="137.7578" x="961.5" y="403.4844">-PhoneNumber phone</text><text fill="#000000" font-family="sans-serif" font-size="14" lengthAdjust="spacing" textLength="93.3789" x="961.5" y="422.1055">-String position</text><line style="stroke:#181818;stroke-width:0.5;" x1="956.5" x2="1141.3477" y1="429.6191" y2="429.6191"/><text fill="#000000" font-family="sans-serif" font-size="14" lengthAdjust="spacing" textLength="114.7549" x="961.5" y="448.7266">+getEmail(): Email</text></g><!--class Name--><g id="elem_Name"><rect codeLine="24" fill="#F1F1F1" height="66.6211" id="Name" rx="2.5" ry="2.5" style="stroke:#181818;stroke-width:0.5;" width="90.5928" x="1060.5" y="535.6348"/><ellipse cx="1085.0616" cy="551.6348" fill="#ADD1B2" rx="11" ry="11" style="stroke:#181818;stroke-width:1.0;"/><path d="M1087.8272,547.5098 Q1087.9835,547.291 1088.171,547.1816 Q1088.3585,547.0723 1088.5772,547.0723 Q1088.9522,547.0723 1089.1866,547.3379 Q1089.421,547.5879 1089.421,548.1973 L1089.421,549.6504 Q1089.421,550.2598 1089.1866,550.5254 Q1088.9522,550.791 1088.5772,550.791 Q1088.2335,550.791 1088.0304,550.5879 Q1087.8272,550.4004 1087.7179,549.8848 Q1087.671,549.5254 1087.4835,549.3379 Q1087.1554,548.9629 1086.546,548.7441 Q1085.9366,548.5254 1085.3116,548.5254 Q1084.546,548.5254 1083.9054,548.8535 Q1083.2804,549.1816 1082.7804,549.9316 Q1082.296,550.6816 1082.296,551.7129 L1082.296,552.8066 Q1082.296,554.041 1083.1866,554.8691 Q1084.0772,555.6816 1085.671,555.6816 Q1086.6085,555.6816 1087.2647,555.4316 Q1087.6554,555.2754 1088.0772,554.8379 Q1088.3429,554.5723 1088.4835,554.4941 Q1088.6397,554.416 1088.8429,554.416 Q1089.171,554.416 1089.421,554.6816 Q1089.6866,554.9316 1089.6866,555.2754 Q1089.6866,555.6191 1089.3429,556.0254 Q1088.8429,556.6035 1088.046,556.9316 Q1086.9679,557.3848 1085.671,557.3848 Q1084.1554,557.3848 1082.9522,556.7598 Q1081.9679,556.2598 1081.2804,555.1973 Q1080.5929,554.1191 1080.5929,552.8379 L1080.5929,551.6816 Q1080.5929,550.3535 1081.2022,549.2129 Q1081.8272,548.0566 1082.921,547.4473 Q1084.0147,546.8223 1085.2491,546.8223 Q1085.9835,546.8223 1086.6241,546.9941 Q1087.2804,547.1504 1087.8272,547.5098 Z " fill="#000000"/><text fill="#000000" font-family="sans-serif" font-size="14" lengthAdjust="spacing" textLength="37.3447" x="1101.1864" y="557.4316">Name</text><line style="stroke:#181818;stroke-width:0.5;" x1="1061.5" x2="1150.0928" y1="567.6348" y2="567.6348"/><text fill="#000000" font-family="sans-serif" font-size="14" lengthAdjust="spacing" textLength="78.5928" x="1066.5" y="586.7422">-String value</text><line style="stroke:#181818;stroke-width:0.5;" x1="1061.5" x2="1150.0928" y1="594.2559" y2="594.2559"/></g><!--class EmailAddress--><g id="elem_EmailAddress"><rect codeLine="28" fill="#F1F1F1" height="66.6211" id="EmailAddress" rx="2.5" ry="2.5" style="stroke:#181818;stroke-width:0.5;" width="118.3652" x="1505" y="535.6348"/><ellipse cx="1520" cy="551.6348" fill="#ADD1B2" rx="11" ry="11" style="stroke:#181818;stroke-width:1.0;"/><path d="M1522.7656,547.5098 Q1522.9219,547.291 1523.1094,547.1816 Q1523.2969,547.0723 1523.5156,547.0723 Q1523.8906,547.0723 1524.125,547.3379 Q1524.3594,547.5879 1524.3594,548.1973 L1524.3594,549.6504 Q1524.3594,550.2598 1524.125,550.5254 Q1523.8906,550.791 1523.5156,550.791 Q1523.1719,550.791 1522.9688,550.5879 Q1522.7656,550.4004 1522.6563,549.8848 Q1522.6094,549.5254 1522.4219,549.3379 Q1522.0938,548.9629 1521.4844,548.7441 Q1520.875,548.5254 1520.25,548.5254 Q1519.4844,548.5254 1518.8438,548.8535 Q1518.2188,549.1816 1517.7188,549.9316 Q1517.2344,550.6816 1517.2344,551.7129 L1517.2344,552.8066 Q1517.2344,554.041 1518.125,554.8691 Q1519.0156,555.6816 1520.6094,555.6816 Q1521.5469,555.6816 1522.2031,555.4316 Q1522.5938,555.2754 1523.0156,554.8379 Q1523.2813,554.5723 1523.4219,554.4941 Q1523.5781,554.416 1523.7813,554.416 Q1524.1094,554.416 1524.3594,554.6816 Q1524.625,554.9316 1524.625,555.2754 Q1524.625,555.6191 1524.2813,556.0254 Q1523.7813,556.6035 1522.9844,556.9316 Q1521.9063,557.3848 1520.6094,557.3848 Q1519.0938,557.3848 1517.8906,556.7598 Q1516.9063,556.2598 1516.2188,555.1973 Q1515.5313,554.1191 1515.5313,552.8379 L1515.5313,551.6816 Q1515.5313,550.3535 1516.1406,549.2129 Q1516.7656,548.0566 1517.8594,547.4473 Q1518.9531,546.8223 1520.1875,546.8223 Q1520.9219,546.8223 1521.5625,546.9941 Q1522.2188,547.1504 1522.7656,547.5098 Z " fill="#000000"/><text fill="#000000" font-family="sans-serif" font-size="14" lengthAdjust="spacing" textLength="86.3652" x="1534" y="557.4316">EmailAddress</text><line style="stroke:#181818;stroke-width:0.5;" x1="1506" x2="1622.3652" y1="567.6348" y2="567.6348"/><text fill="#000000" font-family="sans-serif" font-size="14" lengthAdjust="spacing" textLength="78.5928" x="1511" y="586.7422">-String value</text><line style="stroke:#181818;stroke-width:0.5;" x1="1506" x2="1622.3652" y1="594.2559" y2="594.2559"/></g><!--class Email--><g id="elem_Email"><rect codeLine="32" fill="#F1F1F1" height="66.6211" id="Email" rx="2.5" ry="2.5" style="stroke:#181818;stroke-width:0.5;" width="90.5791" x="934.5" y="535.6348"/><ellipse cx="960.1075" cy="551.6348" fill="#ADD1B2" rx="11" ry="11" style="stroke:#181818;stroke-width:1.0;"/><path d="M962.8731,547.5098 Q963.0294,547.291 963.2169,547.1816 Q963.4044,547.0723 963.6231,547.0723 Q963.9981,547.0723 964.2325,547.3379 Q964.4669,547.5879 964.4669,548.1973 L964.4669,549.6504 Q964.4669,550.2598 964.2325,550.5254 Q963.9981,550.791 963.6231,550.791 Q963.2794,550.791 963.0763,550.5879 Q962.8731,550.4004 962.7638,549.8848 Q962.7169,549.5254 962.5294,549.3379 Q962.2013,548.9629 961.5919,548.7441 Q960.9825,548.5254 960.3575,548.5254 Q959.5919,548.5254 958.9513,548.8535 Q958.3263,549.1816 957.8263,549.9316 Q957.3419,550.6816 957.3419,551.7129 L957.3419,552.8066 Q957.3419,554.041 958.2325,554.8691 Q959.1231,555.6816 960.7169,555.6816 Q961.6544,555.6816 962.3106,555.4316 Q962.7013,555.2754 963.1231,554.8379 Q963.3888,554.5723 963.5294,554.4941 Q963.6856,554.416 963.8888,554.416 Q964.2169,554.416 964.4669,554.6816 Q964.7325,554.9316 964.7325,555.2754 Q964.7325,555.6191 964.3888,556.0254 Q963.8888,556.6035 963.0919,556.9316 Q962.0138,557.3848 960.7169,557.3848 Q959.2013,557.3848 957.9981,556.7598 Q957.0138,556.2598 956.3263,555.1973 Q955.6388,554.1191 955.6388,552.8379 L955.6388,551.6816 Q955.6388,550.3535 956.2481,549.2129 Q956.8731,548.0566 957.9669,547.4473 Q959.0606,546.8223 960.295,546.8223 Q961.0294,546.8223 961.67,546.9941 Q962.3263,547.1504 962.8731,547.5098 Z " fill="#000000"/><text fill="#000000" font-family="sans-serif" font-size="14" lengthAdjust="spacing" textLength="35.0068" x="976.4647" y="557.4316">Email</text><line style="stroke:#181818;stroke-width:0.5;" x1="935.5" x2="1024.0791" y1="567.6348" y2="567.6348"/><text fill="#000000" font-family="sans-serif" font-size="14" lengthAdjust="spacing" textLength="78.5791" x="940.5" y="586.7422">-String email</text><line style="stroke:#181818;stroke-width:0.5;" x1="935.5" x2="1024.0791" y1="594.2559" y2="594.2559"/></g><!--class PhoneNumber--><g id="elem_PhoneNumber"><rect codeLine="36" fill="#F1F1F1" height="66.6211" id="PhoneNumber" rx="2.5" ry="2.5" style="stroke:#181818;stroke-width:0.5;" width="122.2754" x="1187" y="535.6348"/><ellipse cx="1202" cy="551.6348" fill="#ADD1B2" rx="11" ry="11" style="stroke:#181818;stroke-width:1.0;"/><path d="M1204.7656,547.5098 Q1204.9219,547.291 1205.1094,547.1816 Q1205.2969,547.0723 1205.5156,547.0723 Q1205.8906,547.0723 1206.125,547.3379 Q1206.3594,547.5879 1206.3594,548.1973 L1206.3594,549.6504 Q1206.3594,550.2598 1206.125,550.5254 Q1205.8906,550.791 1205.5156,550.791 Q1205.1719,550.791 1204.9688,550.5879 Q1204.7656,550.4004 1204.6563,549.8848 Q1204.6094,549.5254 1204.4219,549.3379 Q1204.0938,548.9629 1203.4844,548.7441 Q1202.875,548.5254 1202.25,548.5254 Q1201.4844,548.5254 1200.8438,548.8535 Q1200.2188,549.1816 1199.7188,549.9316 Q1199.2344,550.6816 1199.2344,551.7129 L1199.2344,552.8066 Q1199.2344,554.041 1200.125,554.8691 Q1201.0156,555.6816 1202.6094,555.6816 Q1203.5469,555.6816 1204.2031,555.4316 Q1204.5938,555.2754 1205.0156,554.8379 Q1205.2813,554.5723 1205.4219,554.4941 Q1205.5781,554.416 1205.7813,554.416 Q1206.1094,554.416 1206.3594,554.6816 Q1206.625,554.9316 1206.625,555.2754 Q1206.625,555.6191 1206.2813,556.0254 Q1205.7813,556.6035 1204.9844,556.9316 Q1203.9063,557.3848 1202.6094,557.3848 Q1201.0938,557.3848 1199.8906,556.7598 Q1198.9063,556.2598 1198.2188,555.1973 Q1197.5313,554.1191 1197.5313,552.8379 L1197.5313,551.6816 Q1197.5313,550.3535 1198.1406,549.2129 Q1198.7656,548.0566 1199.8594,547.4473 Q1200.9531,546.8223 1202.1875,546.8223 Q1202.9219,546.8223 1203.5625,546.9941 Q1204.2188,547.1504 1204.7656,547.5098 Z " fill="#000000"/><text fill="#000000" font-family="sans-serif" font-size="14" lengthAdjust="spacing" textLength="90.2754" x="1216" y="557.4316">PhoneNumber</text><line style="stroke:#181818;stroke-width:0.5;" x1="1188" x2="1308.2754" y1="567.6348" y2="567.6348"/><text fill="#000000" font-family="sans-serif" font-size="14" lengthAdjust="spacing" textLength="78.5928" x="1193" y="586.7422">-String value</text><line style="stroke:#181818;stroke-width:0.5;" x1="1188" x2="1308.2754" y1="594.2559" y2="594.2559"/></g><!--class NIF--><g id="elem_NIF"><rect codeLine="40" fill="#F1F1F1" height="66.6211" id="NIF" rx="2.5" ry="2.5" style="stroke:#181818;stroke-width:0.5;" width="90.5928" x="1658.5" y="535.6348"/><ellipse cx="1689.7185" cy="551.6348" fill="#ADD1B2" rx="11" ry="11" style="stroke:#181818;stroke-width:1.0;"/><path d="M1692.4841,547.5098 Q1692.6403,547.291 1692.8278,547.1816 Q1693.0153,547.0723 1693.2341,547.0723 Q1693.6091,547.0723 1693.8435,547.3379 Q1694.0778,547.5879 1694.0778,548.1973 L1694.0778,549.6504 Q1694.0778,550.2598 1693.8435,550.5254 Q1693.6091,550.791 1693.2341,550.791 Q1692.8903,550.791 1692.6872,550.5879 Q1692.4841,550.4004 1692.3747,549.8848 Q1692.3278,549.5254 1692.1403,549.3379 Q1691.8122,548.9629 1691.2028,548.7441 Q1690.5935,548.5254 1689.9685,548.5254 Q1689.2028,548.5254 1688.5622,548.8535 Q1687.9372,549.1816 1687.4372,549.9316 Q1686.9528,550.6816 1686.9528,551.7129 L1686.9528,552.8066 Q1686.9528,554.041 1687.8435,554.8691 Q1688.7341,555.6816 1690.3278,555.6816 Q1691.2653,555.6816 1691.9216,555.4316 Q1692.3122,555.2754 1692.7341,554.8379 Q1692.9997,554.5723 1693.1403,554.4941 Q1693.2966,554.416 1693.4997,554.416 Q1693.8278,554.416 1694.0778,554.6816 Q1694.3435,554.9316 1694.3435,555.2754 Q1694.3435,555.6191 1693.9997,556.0254 Q1693.4997,556.6035 1692.7028,556.9316 Q1691.6247,557.3848 1690.3278,557.3848 Q1688.8122,557.3848 1687.6091,556.7598 Q1686.6247,556.2598 1685.9372,555.1973 Q1685.2497,554.1191 1685.2497,552.8379 L1685.2497,551.6816 Q1685.2497,550.3535 1685.8591,549.2129 Q1686.4841,548.0566 1687.5778,547.4473 Q1688.6716,546.8223 1689.906,546.8223 Q1690.6403,546.8223 1691.281,546.9941 Q1691.9372,547.1504 1692.4841,547.5098 Z " fill="#000000"/><text fill="#000000" font-family="sans-serif" font-size="14" lengthAdjust="spacing" textLength="22.5518" x="1707.3226" y="557.4316">NIF</text><line style="stroke:#181818;stroke-width:0.5;" x1="1659.5" x2="1748.0928" y1="567.6348" y2="567.6348"/><text fill="#000000" font-family="sans-serif" font-size="14" lengthAdjust="spacing" textLength="78.5928" x="1664.5" y="586.7422">-String value</text><line style="stroke:#181818;stroke-width:0.5;" x1="1659.5" x2="1748.0928" y1="594.2559" y2="594.2559"/></g><!--class Address--><g id="elem_Address"><rect codeLine="44" fill="#F1F1F1" height="66.6211" id="Address" rx="2.5" ry="2.5" style="stroke:#181818;stroke-width:0.5;" width="126.3789" x="1344" y="535.6348"/><ellipse cx="1378.3592" cy="551.6348" fill="#ADD1B2" rx="11" ry="11" style="stroke:#181818;stroke-width:1.0;"/><path d="M1381.1249,547.5098 Q1381.2811,547.291 1381.4686,547.1816 Q1381.6561,547.0723 1381.8749,547.0723 Q1382.2499,547.0723 1382.4842,547.3379 Q1382.7186,547.5879 1382.7186,548.1973 L1382.7186,549.6504 Q1382.7186,550.2598 1382.4842,550.5254 Q1382.2499,550.791 1381.8749,550.791 Q1381.5311,550.791 1381.328,550.5879 Q1381.1249,550.4004 1381.0155,549.8848 Q1380.9686,549.5254 1380.7811,549.3379 Q1380.453,548.9629 1379.8436,548.7441 Q1379.2342,548.5254 1378.6092,548.5254 Q1377.8436,548.5254 1377.203,548.8535 Q1376.578,549.1816 1376.078,549.9316 Q1375.5936,550.6816 1375.5936,551.7129 L1375.5936,552.8066 Q1375.5936,554.041 1376.4842,554.8691 Q1377.3749,555.6816 1378.9686,555.6816 Q1379.9061,555.6816 1380.5624,555.4316 Q1380.953,555.2754 1381.3749,554.8379 Q1381.6405,554.5723 1381.7811,554.4941 Q1381.9374,554.416 1382.1405,554.416 Q1382.4686,554.416 1382.7186,554.6816 Q1382.9842,554.9316 1382.9842,555.2754 Q1382.9842,555.6191 1382.6405,556.0254 Q1382.1405,556.6035 1381.3436,556.9316 Q1380.2655,557.3848 1378.9686,557.3848 Q1377.453,557.3848 1376.2499,556.7598 Q1375.2655,556.2598 1374.578,555.1973 Q1373.8905,554.1191 1373.8905,552.8379 L1373.8905,551.6816 Q1373.8905,550.3535 1374.4999,549.2129 Q1375.1249,548.0566 1376.2186,547.4473 Q1377.3124,546.8223 1378.5467,546.8223 Q1379.2811,546.8223 1379.9217,546.9941 Q1380.578,547.1504 1381.1249,547.5098 Z " fill="#000000"/><text fill="#000000" font-family="sans-serif" font-size="14" lengthAdjust="spacing" textLength="51.3584" x="1396.6613" y="557.4316">Address</text><line style="stroke:#181818;stroke-width:0.5;" x1="1345" x2="1469.3789" y1="567.6348" y2="567.6348"/><text fill="#000000" font-family="sans-serif" font-size="14" lengthAdjust="spacing" textLength="114.3789" x="1350" y="586.7422">-String fullAddress</text><line style="stroke:#181818;stroke-width:0.5;" x1="1345" x2="1469.3789" y1="594.2559" y2="594.2559"/></g><!--class RegisterCustomerController--><g id="elem_RegisterCustomerController"><rect codeLine="60" fill="#F1F1F1" height="66.6211" id="RegisterCustomerController" rx="2.5" ry="2.5" style="stroke:#181818;stroke-width:0.5;" width="285.4922" x="585.5" y="127.6348"/><ellipse cx="637.2446" cy="143.6348" fill="#ADD1B2" rx="11" ry="11" style="stroke:#181818;stroke-width:1.0;"/><path d="M640.0103,139.5098 Q640.1665,139.291 640.354,139.1816 Q640.5415,139.0723 640.7603,139.0723 Q641.1353,139.0723 641.3696,139.3379 Q641.604,139.5879 641.604,140.1973 L641.604,141.6504 Q641.604,142.2598 641.3696,142.5254 Q641.1353,142.791 640.7603,142.791 Q640.4165,142.791 640.2134,142.5879 Q640.0103,142.4004 639.9009,141.8848 Q639.854,141.5254 639.6665,141.3379 Q639.3384,140.9629 638.729,140.7441 Q638.1196,140.5254 637.4946,140.5254 Q636.729,140.5254 636.0884,140.8535 Q635.4634,141.1816 634.9634,141.9316 Q634.479,142.6816 634.479,143.7129 L634.479,144.8066 Q634.479,146.041 635.3696,146.8691 Q636.2603,147.6816 637.854,147.6816 Q638.7915,147.6816 639.4478,147.4316 Q639.8384,147.2754 640.2603,146.8379 Q640.5259,146.5723 640.6665,146.4941 Q640.8228,146.416 641.0259,146.416 Q641.354,146.416 641.604,146.6816 Q641.8696,146.9316 641.8696,147.2754 Q641.8696,147.6191 641.5259,148.0254 Q641.0259,148.6035 640.229,148.9316 Q639.1509,149.3848 637.854,149.3848 Q636.3384,149.3848 635.1353,148.7598 Q634.1509,148.2598 633.4634,147.1973 Q632.7759,146.1191 632.7759,144.8379 L632.7759,143.6816 Q632.7759,142.3535 633.3853,141.2129 Q634.0103,140.0566 635.104,139.4473 Q636.1978,138.8223 637.4321,138.8223 Q638.1665,138.8223 638.8071,138.9941 Q639.4634,139.1504 640.0103,139.5098 Z " fill="#000000"/><text fill="#000000" font-family="sans-serif" font-size="14" lengthAdjust="spacing" textLength="173.5029" x="657.7446" y="149.4316">RegisterCustomerController</text><line style="stroke:#181818;stroke-width:0.5;" x1="586.5" x2="869.9922" y1="159.6348" y2="159.6348"/><line style="stroke:#181818;stroke-width:0.5;" x1="586.5" x2="869.9922" y1="167.6348" y2="167.6348"/><text fill="#000000" font-family="sans-serif" font-size="14" lengthAdjust="spacing" textLength="273.4922" x="591.5" y="186.7422">+registerCustomer(...): Optional&lt;Costumer&gt;</text></g><!--class RegisterRepresentativeController--><g id="elem_RegisterRepresentativeController"><rect codeLine="64" fill="#F1F1F1" height="66.6211" id="RegisterRepresentativeController" rx="2.5" ry="2.5" style="stroke:#181818;stroke-width:0.5;" width="239.623" x="303" y="127.6348"/><ellipse cx="318.287" cy="143.6348" fill="#ADD1B2" rx="11" ry="11" style="stroke:#181818;stroke-width:1.0;"/><path d="M321.0526,139.5098 Q321.2088,139.291 321.3963,139.1816 Q321.5838,139.0723 321.8026,139.0723 Q322.1776,139.0723 322.412,139.3379 Q322.6463,139.5879 322.6463,140.1973 L322.6463,141.6504 Q322.6463,142.2598 322.412,142.5254 Q322.1776,142.791 321.8026,142.791 Q321.4588,142.791 321.2557,142.5879 Q321.0526,142.4004 320.9432,141.8848 Q320.8963,141.5254 320.7088,141.3379 Q320.3807,140.9629 319.7713,140.7441 Q319.162,140.5254 318.537,140.5254 Q317.7713,140.5254 317.1307,140.8535 Q316.5057,141.1816 316.0057,141.9316 Q315.5213,142.6816 315.5213,143.7129 L315.5213,144.8066 Q315.5213,146.041 316.412,146.8691 Q317.3026,147.6816 318.8963,147.6816 Q319.8338,147.6816 320.4901,147.4316 Q320.8807,147.2754 321.3026,146.8379 Q321.5682,146.5723 321.7088,146.4941 Q321.8651,146.416 322.0682,146.416 Q322.3963,146.416 322.6463,146.6816 Q322.912,146.9316 322.912,147.2754 Q322.912,147.6191 322.5682,148.0254 Q322.0682,148.6035 321.2713,148.9316 Q320.1932,149.3848 318.8963,149.3848 Q317.3807,149.3848 316.1776,148.7598 Q315.1932,148.2598 314.5057,147.1973 Q313.8182,146.1191 313.8182,144.8379 L313.8182,143.6816 Q313.8182,142.3535 314.4276,141.2129 Q315.0526,140.0566 316.1463,139.4473 Q317.2401,138.8223 318.4745,138.8223 Q319.2088,138.8223 319.8495,138.9941 Q320.5057,139.1504 321.0526,139.5098 Z " fill="#000000"/><text fill="#000000" font-family="sans-serif" font-size="14" lengthAdjust="spacing" textLength="206.9854" x="332.3507" y="149.4316">RegisterRepresentativeController</text><line style="stroke:#181818;stroke-width:0.5;" x1="304" x2="541.623" y1="159.6348" y2="159.6348"/><line style="stroke:#181818;stroke-width:0.5;" x1="304" x2="541.623" y1="167.6348" y2="167.6348"/><text fill="#000000" font-family="sans-serif" font-size="14" lengthAdjust="spacing" textLength="227.623" x="309" y="186.7422">+registerRepresentative(...): boolean</text></g><!--class RegisterUserController--><g id="elem_RegisterUserController"><rect codeLine="68" fill="#F1F1F1" height="66.6211" id="RegisterUserController" rx="2.5" ry="2.5" style="stroke:#181818;stroke-width:0.5;" width="175.0166" x="335.5" y="352.1348"/><ellipse cx="350.787" cy="368.1348" fill="#ADD1B2" rx="11" ry="11" style="stroke:#181818;stroke-width:1.0;"/><path d="M353.5526,364.0098 Q353.7088,363.791 353.8963,363.6816 Q354.0838,363.5723 354.3026,363.5723 Q354.6776,363.5723 354.912,363.8379 Q355.1463,364.0879 355.1463,364.6973 L355.1463,366.1504 Q355.1463,366.7598 354.912,367.0254 Q354.6776,367.291 354.3026,367.291 Q353.9588,367.291 353.7557,367.0879 Q353.5526,366.9004 353.4432,366.3848 Q353.3963,366.0254 353.2088,365.8379 Q352.8807,365.4629 352.2713,365.2441 Q351.662,365.0254 351.037,365.0254 Q350.2713,365.0254 349.6307,365.3535 Q349.0057,365.6816 348.5057,366.4316 Q348.0213,367.1816 348.0213,368.2129 L348.0213,369.3066 Q348.0213,370.541 348.912,371.3691 Q349.8026,372.1816 351.3963,372.1816 Q352.3338,372.1816 352.9901,371.9316 Q353.3807,371.7754 353.8026,371.3379 Q354.0682,371.0723 354.2088,370.9941 Q354.3651,370.916 354.5682,370.916 Q354.8963,370.916 355.1463,371.1816 Q355.412,371.4316 355.412,371.7754 Q355.412,372.1191 355.0682,372.5254 Q354.5682,373.1035 353.7713,373.4316 Q352.6932,373.8848 351.3963,373.8848 Q349.8807,373.8848 348.6776,373.2598 Q347.6932,372.7598 347.0057,371.6973 Q346.3182,370.6191 346.3182,369.3379 L346.3182,368.1816 Q346.3182,366.8535 346.9276,365.7129 Q347.5526,364.5566 348.6463,363.9473 Q349.7401,363.3223 350.9745,363.3223 Q351.7088,363.3223 352.3495,363.4941 Q353.0057,363.6504 353.5526,364.0098 Z " fill="#000000"/><text fill="#000000" font-family="sans-serif" font-size="14" lengthAdjust="spacing" textLength="142.3789" x="364.8507" y="373.9316">RegisterUserController</text><line style="stroke:#181818;stroke-width:0.5;" x1="336.5" x2="509.5166" y1="384.1348" y2="384.1348"/><line style="stroke:#181818;stroke-width:0.5;" x1="336.5" x2="509.5166" y1="392.1348" y2="392.1348"/><text fill="#000000" font-family="sans-serif" font-size="14" lengthAdjust="spacing" textLength="163.0166" x="341.5" y="411.2422">+registerUser(...): boolean</text></g><!--class CostumerRepository--><g id="elem_CostumerRepository"><rect codeLine="72" fill="#F1F1F1" height="66.6211" id="CostumerRepository" rx="2.5" ry="2.5" style="stroke:#181818;stroke-width:0.5;" width="332.1816" x="546" y="352.1348"/><ellipse cx="644.041" cy="368.1348" fill="#B4A7E5" rx="11" ry="11" style="stroke:#181818;stroke-width:1.0;"/><path d="M644.9941,364.7754 L644.9941,371.4316 L646.7129,371.4316 Q647.3223,371.4316 647.5879,371.666 Q647.8535,371.9004 647.8535,372.291 Q647.8535,372.666 647.5879,372.9004 Q647.3223,373.1348 646.7129,373.1348 L641.5723,373.1348 Q640.9629,373.1348 640.6973,372.9004 Q640.4316,372.666 640.4316,372.2754 Q640.4316,371.9004 640.6973,371.666 Q640.9629,371.4316 641.5723,371.4316 L643.291,371.4316 L643.291,364.7754 L641.5723,364.7754 Q640.9629,364.7754 640.6973,364.541 Q640.4316,364.3066 640.4316,363.916 Q640.4316,363.541 640.6973,363.3066 Q640.9629,363.0723 641.5723,363.0723 L646.7129,363.0723 Q647.3223,363.0723 647.5879,363.3066 Q647.8535,363.541 647.8535,363.916 Q647.8535,364.3066 647.5879,364.541 Q647.3223,364.7754 646.7129,364.7754 L644.9941,364.7754 Z " fill="#000000"/><text fill="#000000" font-family="sans-serif" font-size="14" font-style="italic" lengthAdjust="spacing" textLength="127.5996" x="664.541" y="373.9316">CostumerRepository</text><line style="stroke:#181818;stroke-width:0.5;" x1="547" x2="877.1816" y1="384.1348" y2="384.1348"/><line style="stroke:#181818;stroke-width:0.5;" x1="547" x2="877.1816" y1="392.1348" y2="392.1348"/><text fill="#000000" font-family="sans-serif" font-size="14" lengthAdjust="spacing" textLength="320.1816" x="552" y="411.2422">+saveInStore(Costumer, NIF): Optional&lt;Costumer&gt;</text></g><!--class CustomerRepresentativeRepository--><g id="elem_CustomerRepresentativeRepository"><rect codeLine="76" fill="#F1F1F1" height="66.6211" id="CustomerRepresentativeRepository" rx="2.5" ry="2.5" style="stroke:#181818;stroke-width:0.5;" width="253.7646" x="46" y="352.1348"/><ellipse cx="61" cy="368.1348" fill="#B4A7E5" rx="11" ry="11" style="stroke:#181818;stroke-width:1.0;"/><path d="M61.9531,364.7754 L61.9531,371.4316 L63.6719,371.4316 Q64.2813,371.4316 64.5469,371.666 Q64.8125,371.9004 64.8125,372.291 Q64.8125,372.666 64.5469,372.9004 Q64.2813,373.1348 63.6719,373.1348 L58.5313,373.1348 Q57.9219,373.1348 57.6563,372.9004 Q57.3906,372.666 57.3906,372.2754 Q57.3906,371.9004 57.6563,371.666 Q57.9219,371.4316 58.5313,371.4316 L60.25,371.4316 L60.25,364.7754 L58.5313,364.7754 Q57.9219,364.7754 57.6563,364.541 Q57.3906,364.3066 57.3906,363.916 Q57.3906,363.541 57.6563,363.3066 Q57.9219,363.0723 58.5313,363.0723 L63.6719,363.0723 Q64.2813,363.0723 64.5469,363.3066 Q64.8125,363.541 64.8125,363.916 Q64.8125,364.3066 64.5469,364.541 Q64.2813,364.7754 63.6719,364.7754 L61.9531,364.7754 Z " fill="#000000"/><text fill="#000000" font-family="sans-serif" font-size="14" font-style="italic" lengthAdjust="spacing" textLength="221.7646" x="75" y="373.9316">CustomerRepresentativeRepository</text><line style="stroke:#181818;stroke-width:0.5;" x1="47" x2="298.7646" y1="384.1348" y2="384.1348"/><line style="stroke:#181818;stroke-width:0.5;" x1="47" x2="298.7646" y1="392.1348" y2="392.1348"/><text fill="#000000" font-family="sans-serif" font-size="14" lengthAdjust="spacing" textLength="235.3818" x="52" y="411.2422">+save(CustomerRepresentative): void</text></g><!--link Costumer to Name--><g id="link_Costumer_Name"><path codeLine="48" d="M1188.93,472.8648 C1169.51,495.1848 1153.6999,513.3396 1138.3499,530.9696 " fill="none" id="Costumer-to-Name" style="stroke:#181818;stroke-width:1.0;"/><polygon fill="#181818" points="1134.41,535.4948,1143.3367,531.3337,1137.6933,531.7238,1137.3031,526.0804,1134.41,535.4948" style="stroke:#181818;stroke-width:1.0;"/></g><!--link Costumer to EmailAddress--><g id="link_Costumer_EmailAddress"><path codeLine="49" d="M1339.32,432.2048 C1392.43,464.3348 1457.1766,503.5086 1504.8066,532.3286 " fill="none" id="Costumer-to-EmailAddress" style="stroke:#181818;stroke-width:1.0;"/><polygon fill="#181818" points="1509.94,535.4348,1504.3106,527.3533,1505.6622,532.8463,1500.1691,534.1978,1509.94,535.4348" style="stroke:#181818;stroke-width:1.0;"/></g><!--link Costumer to PhoneNumber--><g id="link_Costumer_PhoneNumber"><path codeLine="50" d="M1256.23,474.7248 C1254.32,496.4048 1252.9169,512.3079 1251.4069,529.4379 " fill="none" id="Costumer-to-PhoneNumber" style="stroke:#181818;stroke-width:1.0;"/><polygon fill="#181818" points="1250.88,535.4148,1255.6548,526.8008,1251.319,530.4341,1247.6857,526.0983,1250.88,535.4148" style="stroke:#181818;stroke-width:1.0;"/></g><!--link Costumer to NIF--><g id="link_Costumer_NIF"><path codeLine="51" d="M1339.31,413.8648 C1416.08,442.2148 1538.15,488.9248 1641,535.6348 C1646.71,538.2348 1647.2743,538.4199 1653.1243,541.3199 " fill="none" id="Costumer-to-NIF" style="stroke:#181818;stroke-width:1.0;"/><polygon fill="#181818" points="1658.5,543.9848,1652.213,536.4036,1654.0202,541.764,1648.6598,543.5712,1658.5,543.9848" style="stroke:#181818;stroke-width:1.0;"/></g><!--link Costumer to Address--><g id="link_Costumer_Address"><path codeLine="52" d="M1333.41,474.7248 C1350.48,496.4048 1364.0061,513.5723 1377.5061,530.7023 " fill="none" id="Costumer-to-Address" style="stroke:#181818;stroke-width:1.0;"/><polygon fill="#181818" points="1381.22,535.4148,1378.7909,525.8702,1378.1251,531.4877,1372.5076,530.822,1381.22,535.4148" style="stroke:#181818;stroke-width:1.0;"/></g><!--link CustomerRepresentative to Name--><g id="link_CustomerRepresentative_Name"><path codeLine="54" d="M1070.87,456.2848 C1079.41,483.4848 1086.9919,507.6205 1093.9119,529.6505 " fill="none" id="CustomerRepresentative-to-Name" style="stroke:#181818;stroke-width:1.0;"/><polygon fill="#181818" points="1095.71,535.3748,1096.829,525.5897,1094.2116,530.6046,1089.1967,527.9871,1095.71,535.3748" style="stroke:#181818;stroke-width:1.0;"/></g><!--link CustomerRepresentative to Email--><g id="link_CustomerRepresentative_Email"><path codeLine="55" d="M1022.52,456.2848 C1012.18,483.4848 1002.961,507.7359 994.591,529.7659 " fill="none" id="CustomerRepresentative-to-Email" style="stroke:#181818;stroke-width:1.0;"/><polygon fill="#181818" points="992.46,535.3748,999.3957,528.3822,994.2358,530.7007,991.9173,525.5409,992.46,535.3748" style="stroke:#181818;stroke-width:1.0;"/></g><!--link CustomerRepresentative to PhoneNumber--><g id="link_CustomerRepresentative_PhoneNumber"><path codeLine="56" d="M1125.37,456.2848 C1155.29,483.5848 1183.7374,509.521 1207.9074,531.571 " fill="none" id="CustomerRepresentative-to-PhoneNumber" style="stroke:#181818;stroke-width:1.0;"/><polygon fill="#181818" points="1212.34,535.6148,1208.387,526.594,1208.6462,532.2449,1202.9953,532.5041,1212.34,535.6148" style="stroke:#181818;stroke-width:1.0;"/></g><!--link RegisterCustomerController to CostumerRepository--><g id="link_RegisterCustomerController_CostumerRepository"><path codeLine="80" d="M725.64,194.9648 C722.61,237.1548 717.8009,303.9703 714.7709,346.0503 " fill="none" id="RegisterCustomerController-to-CostumerRepository" style="stroke:#181818;stroke-width:1.0;"/><polygon fill="#181818" points="714.34,352.0348,718.976,343.3453,714.6991,347.0477,710.9967,342.7707,714.34,352.0348" style="stroke:#181818;stroke-width:1.0;"/></g><!--link RegisterCustomerController to Costumer--><g id="link_RegisterCustomerController_Costumer"><path codeLine="81" d="M870.67,166.9748 C959.6,175.7148 1073.22,197.7448 1160,251.6348 C1178.68,263.2348 1191.4961,274.8395 1205.7261,291.9695 " fill="none" id="RegisterCustomerController-to-Costumer" style="stroke:#181818;stroke-width:1.0;"/><polygon fill="#181818" points="1209.56,296.5848,1206.8859,287.1059,1206.365,292.7387,1200.7322,292.2178,1209.56,296.5848" style="stroke:#181818;stroke-width:1.0;"/><polygon fill="#000000" points="1148.6846,236.0279,1141.2373,230.1129,1139.1828,235.62,1148.6846,236.0279" style="stroke:#000000;stroke-width:1.0;"/><text fill="#000000" font-family="sans-serif" font-size="13" lengthAdjust="spacing" textLength="42.6309" x="1153" y="239.6631">creates</text></g><!--link RegisterRepresentativeController to CustomerRepresentativeRepository--><g id="link_RegisterRepresentativeController_CustomerRepresentativeRepository"><path codeLine="83" d="M383.82,194.9548 C363.95,211.7348 339.53,232.5948 318,251.6348 C279.87,285.3548 241.402,320.7869 212.232,347.9369 " fill="none" id="RegisterRepresentativeController-to-CustomerRepresentativeRepository" style="stroke:#181818;stroke-width:1.0;"/><polygon fill="#181818" points="207.84,352.0248,217.1532,348.821,211.5,348.6182,211.7027,342.965,207.84,352.0248" style="stroke:#181818;stroke-width:1.0;"/></g><!--link RegisterRepresentativeController to CustomerRepresentative--><g id="link_RegisterRepresentativeController_CustomerRepresentative"><path codeLine="84" d="M543.17,189.5348 C551.57,191.3048 559.9,193.0248 568,194.6348 C712.25,223.3948 760.99,188.8348 894,251.6348 C926.71,267.0748 953.5351,287.2726 979.2951,310.8626 " fill="none" id="RegisterRepresentativeController-to-CustomerRepresentative" style="stroke:#181818;stroke-width:1.0;"/><polygon fill="#181818" points="983.72,314.9148,979.7841,305.8866,980.0326,311.538,974.3812,311.7865,983.72,314.9148" style="stroke:#181818;stroke-width:1.0;"/><polygon fill="#000000" points="879.8171,235.6204,871.8906,230.3647,870.3152,236.0275,879.8171,235.6204" style="stroke:#000000;stroke-width:1.0;"/><text fill="#000000" font-family="sans-serif" font-size="13" lengthAdjust="spacing" textLength="42.6309" x="884" y="239.6631">creates</text></g><!--link RegisterRepresentativeController to RegisterUserController--><g id="link_RegisterRepresentativeController_RegisterUserController"><path codeLine="85" d="M423,194.9648 C423,237.1548 423,303.9548 423,346.0348 " fill="none" id="RegisterRepresentativeController-to-RegisterUserController" style="stroke:#181818;stroke-width:1.0;"/><polygon fill="#181818" points="423,352.0348,427,343.0348,423,347.0348,419,343.0348,423,352.0348" style="stroke:#181818;stroke-width:1.0;"/><polygon fill="#000000" points="428,239.2803,430.9389,230.2352,425.0611,230.2352,428,239.2803" style="stroke:#000000;stroke-width:1.0;"/><text fill="#000000" font-family="sans-serif" font-size="13" lengthAdjust="spacing" textLength="27.46" x="437" y="239.6631">uses</text></g><!--SRC=[fLJ1Rk8m4BtdAqOziUg2K8zeXLJHLk92LqNzW24CMQkE7TaEKhVYttUSnjGkIG1j3eJCl7bldcSI-oPKXGPBo2LQU- -S4PlQqJBNQYt-4aopp0ad2HO-3my22uyUm-lwxcxAznSgX7LaO55RfqioMLPX_eO5mKtUXafK_5oISfEjBb6e6_Z8WAz651RQkffXRT1VOrXXIQ3u9uezSgsytsuDSHNvXoZv-uzMjAhB3HDL_dzCjdm29NPH9B3Wv_sOkOM27CD7FsQ-wbkSssaIeQr35jjetRvGnPHi5ftOqsMchdApvY6f0YfjXHDQfJqsTBx9noDZqcNJmiSfsnvbtM4gEV8hoxhmrDrLRFTo5J_Moz43BdQr32RZkkDYZiVphw4dqVXyJhEHhGx2ThsIOA3wp7HlLDfDF-Ph0mP0SOk7uNSNgqgA7FtEfIzm-0O4cOLMpcWfas7UWla66qqc4rxKvyepelmL3c9-EhkWa1euevE2MxMDrf9GzKkyshC6FAIVJYY6x32dusIv4V-kQlEUq5dSqrAjEKwZ0Ftfr-BieKGIdPCT41nrLx3aNejjB38mLRyuf-QkgO8Pv8RGaOLvAjSxugRyZDt_PKhQkfYhPtLcKDk6w93z0m00]--></g></svg>