<svg xmlns="http://www.w3.org/2000/svg" xmlns:xlink="http://www.w3.org/1999/xlink" contentStyleType="text/css" height="853px" preserveAspectRatio="none" style="width:1616px;height:853px;background:#FFFFFF;" version="1.1" viewBox="0 0 1616 853" width="1616px" zoomAndPan="magnify"><title>UI Sequence Diagram (SSD) - Register Customer Flow (US220)</title><defs/><g><text fill="#000000" font-family="sans-serif" font-size="14" font-weight="bold" lengthAdjust="spacing" textLength="415.4268" x="596.7163" y="30.1074">UI Sequence Diagram (SSD) - Register Customer Flow (US220)</text><rect fill="#FFFFFF" height="550.5781" style="stroke:#181818;stroke-width:1.0;" width="10" x="241.416" y="201.8242"/><rect fill="#FFFFFF" height="156.4551" style="stroke:#181818;stroke-width:1.0;" width="10" x="470.9204" y="233.1152"/><rect fill="#FFFFFF" height="219.0371" style="stroke:#181818;stroke-width:1.0;" width="10" x="689.0542" y="447.1523"/><rect fill="#FFFFFF" height="31.291" style="stroke:#181818;stroke-width:1.0;" width="10" x="940.9785" y="264.4063"/><rect fill="#FFFFFF" height="31.291" style="stroke:#181818;stroke-width:1.0;" width="10" x="940.9785" y="478.4434"/><rect fill="#FFFFFF" height="31.291" style="stroke:#181818;stroke-width:1.0;" width="10" x="1092.1919" y="326.9883"/><rect fill="#FFFFFF" height="31.291" style="stroke:#181818;stroke-width:1.0;" width="10" x="1294.7637" y="541.0254"/><rect fill="#FFFFFF" height="31.291" style="stroke:#181818;stroke-width:1.0;" width="10" x="1504.7251" y="603.6074"/><rect fill="none" height="317.541" style="stroke:#000000;stroke-width:1.5;" width="1589.8594" x="10" y="404.5703"/><line style="stroke:#181818;stroke-width:0.5;stroke-dasharray:5.0,5.0;" x1="79" x2="79" y1="123.2422" y2="770.4023"/><line style="stroke:#181818;stroke-width:0.5;stroke-dasharray:5.0,5.0;" x1="246.0645" x2="246.0645" y1="123.2422" y2="770.4023"/><line style="stroke:#181818;stroke-width:0.5;stroke-dasharray:5.0,5.0;" x1="475.2241" x2="475.2241" y1="123.2422" y2="770.4023"/><line style="stroke:#181818;stroke-width:0.5;stroke-dasharray:5.0,5.0;" x1="693.6167" x2="693.6167" y1="123.2422" y2="770.4023"/><line style="stroke:#181818;stroke-width:0.5;stroke-dasharray:5.0,5.0;" x1="945.5098" x2="945.5098" y1="123.2422" y2="770.4023"/><line style="stroke:#181818;stroke-width:0.5;stroke-dasharray:5.0,5.0;" x1="1096.4473" x2="1096.4473" y1="123.2422" y2="770.4023"/><line style="stroke:#181818;stroke-width:0.5;stroke-dasharray:5.0,5.0;" x1="1298.9365" x2="1298.9365" y1="123.2422" y2="770.4023"/><line style="stroke:#181818;stroke-width:0.5;stroke-dasharray:5.0,5.0;" x1="1509.5908" x2="1509.5908" y1="123.2422" y2="770.4023"/><text fill="#000000" font-family="sans-serif" font-size="14" lengthAdjust="spacing" textLength="112.0342" x="20" y="119.7285">CRM Collaborator</text><ellipse cx="79.0171" cy="53.1211" fill="#E3E3E3" rx="8" ry="8" style="stroke:#181818;stroke-width:0.5;"/><path d="M79.0171,61.1211 L79.0171,88.1211 M66.0171,69.1211 L92.0171,69.1211 M79.0171,88.1211 L66.0171,103.1211 M79.0171,88.1211 L92.0171,103.1211 " fill="none" style="stroke:#181818;stroke-width:0.5;"/><text fill="#000000" font-family="sans-serif" font-size="14" lengthAdjust="spacing" textLength="112.0342" x="20" y="784.5098">CRM Collaborator</text><ellipse cx="79.0171" cy="796.5234" fill="#E3E3E3" rx="8" ry="8" style="stroke:#181818;stroke-width:0.5;"/><path d="M79.0171,804.5234 L79.0171,831.5234 M66.0171,812.5234 L92.0171,812.5234 M79.0171,831.5234 L66.0171,846.5234 M79.0171,831.5234 L92.0171,846.5234 " fill="none" style="stroke:#181818;stroke-width:0.5;"/><rect fill="#E3E3E3" height="32.6211" rx="2.5" ry="2.5" style="stroke:#181818;stroke-width:0.5;" width="144.7031" x="174.0645" y="89.6211"/><text fill="#000000" font-family="sans-serif" font-size="14" lengthAdjust="spacing" textLength="130.7031" x="181.0645" y="111.7285">:RegisterCustomerUI</text><rect fill="#E3E3E3" height="32.6211" rx="2.5" ry="2.5" style="stroke:#181818;stroke-width:0.5;" width="144.7031" x="174.0645" y="769.4023"/><text fill="#000000" font-family="sans-serif" font-size="14" lengthAdjust="spacing" textLength="130.7031" x="181.0645" y="791.5098">:RegisterCustomerUI</text><rect fill="#E3E3E3" height="32.6211" rx="2.5" ry="2.5" style="stroke:#181818;stroke-width:0.5;" width="191.3926" x="380.2241" y="89.6211"/><text fill="#000000" font-family="sans-serif" font-size="14" lengthAdjust="spacing" textLength="177.3926" x="387.2241" y="111.7285">:RegisterCustomerController</text><rect fill="#E3E3E3" height="32.6211" rx="2.5" ry="2.5" style="stroke:#181818;stroke-width:0.5;" width="191.3926" x="380.2241" y="769.4023"/><text fill="#000000" font-family="sans-serif" font-size="14" lengthAdjust="spacing" textLength="177.3926" x="387.2241" y="791.5098">:RegisterCustomerController</text><rect fill="#E3E3E3" height="32.6211" rx="2.5" ry="2.5" style="stroke:#181818;stroke-width:0.5;" width="224.875" x="581.6167" y="89.6211"/><text fill="#000000" font-family="sans-serif" font-size="14" lengthAdjust="spacing" textLength="210.875" x="588.6167" y="111.7285">:RegisterRepresentativeController</text><rect fill="#E3E3E3" height="32.6211" rx="2.5" ry="2.5" style="stroke:#181818;stroke-width:0.5;" width="224.875" x="581.6167" y="769.4023"/><text fill="#000000" font-family="sans-serif" font-size="14" lengthAdjust="spacing" textLength="210.875" x="588.6167" y="791.5098">:RegisterRepresentativeController</text><rect fill="#E3E3E3" height="32.6211" rx="2.5" ry="2.5" style="stroke:#181818;stroke-width:0.5;" width="136.9375" x="877.5098" y="89.6211"/><text fill="#000000" font-family="sans-serif" font-size="14" lengthAdjust="spacing" textLength="122.9375" x="884.5098" y="111.7285">:RepositoryProvider</text><rect fill="#E3E3E3" height="32.6211" rx="2.5" ry="2.5" style="stroke:#181818;stroke-width:0.5;" width="136.9375" x="877.5098" y="769.4023"/><text fill="#000000" font-family="sans-serif" font-size="14" lengthAdjust="spacing" textLength="122.9375" x="884.5098" y="791.5098">:RepositoryProvider</text><rect fill="#E3E3E3" height="32.6211" rx="2.5" ry="2.5" style="stroke:#181818;stroke-width:0.5;" width="145.4893" x="1024.4473" y="89.6211"/><text fill="#000000" font-family="sans-serif" font-size="14" lengthAdjust="spacing" textLength="131.4893" x="1031.4473" y="111.7285">:CostumerRepository</text><rect fill="#E3E3E3" height="32.6211" rx="2.5" ry="2.5" style="stroke:#181818;stroke-width:0.5;" width="145.4893" x="1024.4473" y="769.4023"/><text fill="#000000" font-family="sans-serif" font-size="14" lengthAdjust="spacing" textLength="131.4893" x="1031.4473" y="791.5098">:CostumerRepository</text><rect fill="#E3E3E3" height="32.6211" rx="2.5" ry="2.5" style="stroke:#181818;stroke-width:0.5;" width="239.6543" x="1179.9365" y="89.6211"/><text fill="#000000" font-family="sans-serif" font-size="14" lengthAdjust="spacing" textLength="225.6543" x="1186.9365" y="111.7285">:CustomerRepresentativeRepository</text><rect fill="#E3E3E3" height="32.6211" rx="2.5" ry="2.5" style="stroke:#181818;stroke-width:0.5;" width="239.6543" x="1179.9365" y="769.4023"/><text fill="#000000" font-family="sans-serif" font-size="14" lengthAdjust="spacing" textLength="225.6543" x="1186.9365" y="791.5098">:CustomerRepresentativeRepository</text><rect fill="#E3E3E3" height="32.6211" rx="2.5" ry="2.5" style="stroke:#181818;stroke-width:0.5;" width="160.2686" x="1429.5908" y="89.6211"/><text fill="#000000" font-family="sans-serif" font-size="14" lengthAdjust="spacing" textLength="146.2686" x="1436.5908" y="111.7285">:RegisterUserController</text><rect fill="#E3E3E3" height="32.6211" rx="2.5" ry="2.5" style="stroke:#181818;stroke-width:0.5;" width="160.2686" x="1429.5908" y="769.4023"/><text fill="#000000" font-family="sans-serif" font-size="14" lengthAdjust="spacing" textLength="146.2686" x="1436.5908" y="791.5098">:RegisterUserController</text><rect fill="#FFFFFF" height="550.5781" style="stroke:#181818;stroke-width:1.0;" width="10" x="241.416" y="201.8242"/><rect fill="#FFFFFF" height="156.4551" style="stroke:#181818;stroke-width:1.0;" width="10" x="470.9204" y="233.1152"/><rect fill="#FFFFFF" height="219.0371" style="stroke:#181818;stroke-width:1.0;" width="10" x="689.0542" y="447.1523"/><rect fill="#FFFFFF" height="31.291" style="stroke:#181818;stroke-width:1.0;" width="10" x="940.9785" y="264.4063"/><rect fill="#FFFFFF" height="31.291" style="stroke:#181818;stroke-width:1.0;" width="10" x="940.9785" y="478.4434"/><rect fill="#FFFFFF" height="31.291" style="stroke:#181818;stroke-width:1.0;" width="10" x="1092.1919" y="326.9883"/><rect fill="#FFFFFF" height="31.291" style="stroke:#181818;stroke-width:1.0;" width="10" x="1294.7637" y="541.0254"/><rect fill="#FFFFFF" height="31.291" style="stroke:#181818;stroke-width:1.0;" width="10" x="1504.7251" y="603.6074"/><rect fill="#EEEEEE" height="3" style="stroke:#EEEEEE;stroke-width:1.0;" width="1609.8594" x="0" y="154.8877"/><line style="stroke:#000000;stroke-width:1.0;" x1="0" x2="1609.8594" y1="154.8877" y2="154.8877"/><line style="stroke:#000000;stroke-width:1.0;" x1="0" x2="1609.8594" y1="157.8877" y2="157.8877"/><rect fill="#EEEEEE" height="25.291" style="stroke:#000000;stroke-width:2.0;" width="60.9409" x="774.4592" y="143.2422"/><text fill="#000000" font-family="sans-serif" font-size="13" font-weight="bold" lengthAdjust="spacing" textLength="43.3291" x="780.4592" y="161.2705">START</text><polygon fill="#181818" points="229.416,197.8242,239.416,201.8242,229.416,205.8242,233.416,201.8242" style="stroke:#181818;stroke-width:1.0;"/><line style="stroke:#181818;stroke-width:1.0;" x1="79.0171" x2="235.416" y1="201.8242" y2="201.8242"/><text fill="#000000" font-family="sans-serif" font-size="13" font-weight="bold" lengthAdjust="spacing" textLength="7.23" x="86.0171" y="196.5615">1</text><text fill="#000000" font-family="sans-serif" font-size="13" lengthAdjust="spacing" textLength="27.4473" x="97.2471" y="196.5615">run()</text><polygon fill="#181818" points="458.9204,229.1152,468.9204,233.1152,458.9204,237.1152,462.9204,233.1152" style="stroke:#181818;stroke-width:1.0;"/><line style="stroke:#181818;stroke-width:1.0;" x1="251.416" x2="464.9204" y1="233.1152" y2="233.1152"/><text fill="#000000" font-family="sans-serif" font-size="13" font-weight="bold" lengthAdjust="spacing" textLength="7.23" x="258.416" y="227.8525">2</text><text fill="#000000" font-family="sans-serif" font-size="13" lengthAdjust="spacing" textLength="189.2744" x="269.646" y="227.8525">registerCustomer(customerData)</text><polygon fill="#181818" points="928.9785,260.4063,938.9785,264.4063,928.9785,268.4063,932.9785,264.4063" style="stroke:#181818;stroke-width:1.0;"/><line style="stroke:#181818;stroke-width:1.0;" x1="480.9204" x2="934.9785" y1="264.4063" y2="264.4063"/><text fill="#000000" font-family="sans-serif" font-size="13" font-weight="bold" lengthAdjust="spacing" textLength="7.23" x="487.9204" y="259.1436">3</text><text fill="#000000" font-family="sans-serif" font-size="13" lengthAdjust="spacing" textLength="124.2554" x="499.1504" y="259.1436">costumerRepository()</text><polygon fill="#181818" points="491.9204,291.6973,481.9204,295.6973,491.9204,299.6973,487.9204,295.6973" style="stroke:#181818;stroke-width:1.0;"/><line style="stroke:#181818;stroke-width:1.0;stroke-dasharray:2.0,2.0;" x1="485.9204" x2="944.9785" y1="295.6973" y2="295.6973"/><text fill="#000000" font-family="sans-serif" font-size="13" font-weight="bold" lengthAdjust="spacing" textLength="7.23" x="497.9204" y="290.4346">4</text><text fill="#000000" font-family="sans-serif" font-size="13" lengthAdjust="spacing" textLength="84.5381" x="509.1504" y="290.4346">costumerRepo</text><polygon fill="#181818" points="1080.1919,322.9883,1090.1919,326.9883,1080.1919,330.9883,1084.1919,326.9883" style="stroke:#181818;stroke-width:1.0;"/><line style="stroke:#181818;stroke-width:1.0;" x1="480.9204" x2="1086.1919" y1="326.9883" y2="326.9883"/><text fill="#000000" font-family="sans-serif" font-size="13" font-weight="bold" lengthAdjust="spacing" textLength="7.23" x="487.9204" y="321.7256">5</text><text fill="#000000" font-family="sans-serif" font-size="13" lengthAdjust="spacing" textLength="152.4453" x="499.1504" y="321.7256">saveInStore(customer, nif)</text><polygon fill="#181818" points="491.9204,354.2793,481.9204,358.2793,491.9204,362.2793,487.9204,358.2793" style="stroke:#181818;stroke-width:1.0;"/><line style="stroke:#181818;stroke-width:1.0;stroke-dasharray:2.0,2.0;" x1="485.9204" x2="1096.1919" y1="358.2793" y2="358.2793"/><text fill="#000000" font-family="sans-serif" font-size="13" font-weight="bold" lengthAdjust="spacing" textLength="7.23" x="497.9204" y="353.0166">6</text><text fill="#000000" font-family="sans-serif" font-size="13" lengthAdjust="spacing" textLength="119.9517" x="509.1504" y="353.0166">Optional&lt;Costumer&gt;</text><polygon fill="#181818" points="262.416,385.5703,252.416,389.5703,262.416,393.5703,258.416,389.5703" style="stroke:#181818;stroke-width:1.0;"/><line style="stroke:#181818;stroke-width:1.0;stroke-dasharray:2.0,2.0;" x1="256.416" x2="474.9204" y1="389.5703" y2="389.5703"/><text fill="#000000" font-family="sans-serif" font-size="13" font-weight="bold" lengthAdjust="spacing" textLength="7.23" x="268.416" y="384.3076">7</text><text fill="#000000" font-family="sans-serif" font-size="13" lengthAdjust="spacing" textLength="119.9517" x="279.646" y="384.3076">Optional&lt;Costumer&gt;</text><path d="M10,404.5703 L70.1709,404.5703 L70.1709,413.8613 L60.1709,423.8613 L10,423.8613 L10,404.5703 " fill="#EEEEEE" style="stroke:#000000;stroke-width:1.5;"/><rect fill="none" height="317.541" style="stroke:#000000;stroke-width:1.5;" width="1589.8594" x="10" y="404.5703"/><text fill="#000000" font-family="sans-serif" font-size="13" font-weight="bold" lengthAdjust="spacing" textLength="15.1709" x="25" y="419.5986">alt</text><text fill="#000000" font-family="sans-serif" font-size="11" font-weight="bold" lengthAdjust="spacing" textLength="169.9521" x="85.1709" y="418.4404">[Customer created successfully]</text><polygon fill="#181818" points="677.0542,443.1523,687.0542,447.1523,677.0542,451.1523,681.0542,447.1523" style="stroke:#181818;stroke-width:1.0;"/><line style="stroke:#181818;stroke-width:1.0;" x1="251.416" x2="683.0542" y1="447.1523" y2="447.1523"/><text fill="#000000" font-family="sans-serif" font-size="13" font-weight="bold" lengthAdjust="spacing" textLength="7.23" x="258.416" y="441.8896">8</text><text fill="#000000" font-family="sans-serif" font-size="13" lengthAdjust="spacing" textLength="246.3779" x="269.646" y="441.8896">registerRepresentative(customer, repData)</text><polygon fill="#181818" points="928.9785,474.4434,938.9785,478.4434,928.9785,482.4434,932.9785,478.4434" style="stroke:#181818;stroke-width:1.0;"/><line style="stroke:#181818;stroke-width:1.0;" x1="699.0542" x2="934.9785" y1="478.4434" y2="478.4434"/><text fill="#000000" font-family="sans-serif" font-size="13" font-weight="bold" lengthAdjust="spacing" textLength="7.23" x="706.0542" y="473.1807">9</text><text fill="#000000" font-family="sans-serif" font-size="13" lengthAdjust="spacing" textLength="211.6943" x="717.2842" y="473.1807">customerRepresentativeRepository()</text><polygon fill="#181818" points="710.0542,505.7344,700.0542,509.7344,710.0542,513.7344,706.0542,509.7344" style="stroke:#181818;stroke-width:1.0;"/><line style="stroke:#181818;stroke-width:1.0;stroke-dasharray:2.0,2.0;" x1="704.0542" x2="944.9785" y1="509.7344" y2="509.7344"/><text fill="#000000" font-family="sans-serif" font-size="13" font-weight="bold" lengthAdjust="spacing" textLength="14.46" x="716.0542" y="504.4717">10</text><text fill="#000000" font-family="sans-serif" font-size="13" lengthAdjust="spacing" textLength="49.8672" x="734.5142" y="504.4717">repRepo</text><polygon fill="#181818" points="1282.7637,537.0254,1292.7637,541.0254,1282.7637,545.0254,1286.7637,541.0254" style="stroke:#181818;stroke-width:1.0;"/><line style="stroke:#181818;stroke-width:1.0;" x1="699.0542" x2="1288.7637" y1="541.0254" y2="541.0254"/><text fill="#000000" font-family="sans-serif" font-size="13" font-weight="bold" lengthAdjust="spacing" textLength="14.46" x="706.0542" y="535.7627">11</text><text fill="#000000" font-family="sans-serif" font-size="13" lengthAdjust="spacing" textLength="118.498" x="724.5142" y="535.7627">save(representative)</text><polygon fill="#181818" points="710.0542,568.3164,700.0542,572.3164,710.0542,576.3164,706.0542,572.3164" style="stroke:#181818;stroke-width:1.0;"/><line style="stroke:#181818;stroke-width:1.0;stroke-dasharray:2.0,2.0;" x1="704.0542" x2="1298.7637" y1="572.3164" y2="572.3164"/><text fill="#000000" font-family="sans-serif" font-size="13" font-weight="bold" lengthAdjust="spacing" textLength="14.46" x="716.0542" y="567.0537">12</text><text fill="#000000" font-family="sans-serif" font-size="13" lengthAdjust="spacing" textLength="23.8481" x="734.5142" y="567.0537">void</text><polygon fill="#181818" points="1492.7251,599.6074,1502.7251,603.6074,1492.7251,607.6074,1496.7251,603.6074" style="stroke:#181818;stroke-width:1.0;"/><line style="stroke:#181818;stroke-width:1.0;" x1="699.0542" x2="1498.7251" y1="603.6074" y2="603.6074"/><text fill="#000000" font-family="sans-serif" font-size="13" font-weight="bold" lengthAdjust="spacing" textLength="14.46" x="706.0542" y="598.3447">13</text><text fill="#000000" font-family="sans-serif" font-size="13" lengthAdjust="spacing" textLength="242.0234" x="724.5142" y="598.3447">registerUser(name, email, password, role)</text><polygon fill="#181818" points="710.0542,630.8984,700.0542,634.8984,710.0542,638.8984,706.0542,634.8984" style="stroke:#181818;stroke-width:1.0;"/><line style="stroke:#181818;stroke-width:1.0;stroke-dasharray:2.0,2.0;" x1="704.0542" x2="1508.7251" y1="634.8984" y2="634.8984"/><text fill="#000000" font-family="sans-serif" font-size="13" font-weight="bold" lengthAdjust="spacing" textLength="14.46" x="716.0542" y="629.6357">14</text><text fill="#000000" font-family="sans-serif" font-size="13" lengthAdjust="spacing" textLength="46.2681" x="734.5142" y="629.6357">boolean</text><polygon fill="#181818" points="262.416,662.1895,252.416,666.1895,262.416,670.1895,258.416,666.1895" style="stroke:#181818;stroke-width:1.0;"/><line style="stroke:#181818;stroke-width:1.0;stroke-dasharray:2.0,2.0;" x1="256.416" x2="693.0542" y1="666.1895" y2="666.1895"/><text fill="#000000" font-family="sans-serif" font-size="13" font-weight="bold" lengthAdjust="spacing" textLength="14.46" x="268.416" y="660.9268">15</text><text fill="#000000" font-family="sans-serif" font-size="13" lengthAdjust="spacing" textLength="85.979" x="286.876" y="660.9268">success/failure</text><line style="stroke:#000000;stroke-width:1.0;stroke-dasharray:2.0,2.0;" x1="10" x2="1599.8594" y1="675.1895" y2="675.1895"/><text fill="#000000" font-family="sans-serif" font-size="11" font-weight="bold" lengthAdjust="spacing" textLength="134.4976" x="15" y="687.0596">[Customer already exists]</text><polygon fill="#181818" points="90.0171,710.1113,80.0171,714.1113,90.0171,718.1113,86.0171,714.1113" style="stroke:#181818;stroke-width:1.0;"/><line style="stroke:#181818;stroke-width:1.0;stroke-dasharray:2.0,2.0;" x1="84.0171" x2="240.416" y1="714.1113" y2="714.1113"/><text fill="#000000" font-family="sans-serif" font-size="13" font-weight="bold" lengthAdjust="spacing" textLength="14.46" x="96.0171" y="708.8486">16</text><text fill="#000000" font-family="sans-serif" font-size="13" lengthAdjust="spacing" textLength="117.7681" x="114.4771" y="708.8486">show error message</text><polygon fill="#181818" points="90.0171,748.4023,80.0171,752.4023,90.0171,756.4023,86.0171,752.4023" style="stroke:#181818;stroke-width:1.0;"/><line style="stroke:#181818;stroke-width:1.0;stroke-dasharray:2.0,2.0;" x1="84.0171" x2="245.416" y1="752.4023" y2="752.4023"/><text fill="#000000" font-family="sans-serif" font-size="13" font-weight="bold" lengthAdjust="spacing" textLength="14.46" x="96.0171" y="747.1396">17</text><text fill="#000000" font-family="sans-serif" font-size="13" lengthAdjust="spacing" textLength="119.939" x="114.4771" y="747.1396">show success/failure</text><!--SRC=[XLLDZzem4BtxLumu1GdKQe-hib85giIXQaKsFy0a0rZhsAa_eFpxJZO4xCGfEKNsl3TlPfvj-o5KmmsleTPAboUZQmHdF39xtsbu-S6FcBkhH31OEgwECWom9rxfYr17E71faJ4d78KMMyZnZqTL8cm4FxQXMPvlvh247Hw5TMXWxQsZd0P-I7s1hCXVNhxE6UFUQUNhFHhwBvqsC5llVi9QIydtsd1QcG6tu2r5a0edIj5mvM3ssbFtpCNsCxBOFebRQ-KCyMF7N8wM9_0xR0nQL8uxSSO1Yy7cFmIDje8gkVus-Yog1qJt2mF4Mbldwy-KDsGdDLWU8cvLn287UCgOWFRr5NRK6nyjCRPQGVx-VVSEgnLZxIOitzhnluBnAfkt4nHdxbfBC4Rhj3jkRniz64dMHssuum5DOZOiGKXfmcPIWdBKm51TrFa8kPnI7BM-mZJLXBOGIrIMdt6hSXA5zxeNeCGXB3nC5-4d5VvgdD2Aos-zUTv2dH5XKcS_oISyYObmwHx7kpH8SHLONvPexS5BUML0NsU7w9m4JeXz6_I509qfMewmxQ62TYzcJbZYoGd9nYaUaxqbY8qohgKxNctmf4Mcf0Rco4maSQphdgN7fTISjQWIKZe395N4fpqOJdipP8hNk02ikP0BUYgilMXJqNoq72eSt1hjte0wfNUlYOcheUJX5PHGtZltPhal1vBe3IQA3ucGNh27RRaatrPNmBzKiRqRzjQLbln4pnOQGozKJKdedMIegkwM6qGDTGGQYkq_]--></g></svg>