<svg xmlns="http://www.w3.org/2000/svg" xmlns:xlink="http://www.w3.org/1999/xlink" contentStyleType="text/css" height="759px" preserveAspectRatio="none" style="width:1133px;height:759px;background:#FFFFFF;" version="1.1" viewBox="0 0 1133 759" width="1133px" zoomAndPan="magnify"><title>System Sequence Diagram (SSD) - Edit Figure Category</title><defs/><g><text fill="#000000" font-family="sans-serif" font-size="14" font-weight="bold" lengthAdjust="spacing" textLength="397.5439" x="369.2034" y="28.5352">System Sequence Diagram (SSD) - Edit Figure Category</text><rect fill="#FFFFFF" height="539.2129" style="stroke:#181818;stroke-width:1.0;" width="10" x="88.2305" y="128.9766"/><rect fill="#FFFFFF" height="517.9023" style="stroke:#181818;stroke-width:1.0;" width="10" x="598.0518" y="150.2871"/><rect fill="none" height="453.5918" style="stroke:#000000;stroke-width:1.5;" width="1116.9507" x="10" y="207.5977"/><rect fill="none" height="335.7051" style="stroke:#000000;stroke-width:1.5;" width="1096.9507" x="20" y="318.4844"/><rect fill="none" height="133.1973" style="stroke:#000000;stroke-width:1.5;" width="1076.9507" x="30" y="513.9922"/><line style="stroke:#181818;stroke-width:0.5;stroke-dasharray:5.0,5.0;" x1="93" x2="93" y1="118.9766" y2="678.1895"/><line style="stroke:#181818;stroke-width:0.5;stroke-dasharray:5.0,5.0;" x1="602.7881" x2="602.7881" y1="118.9766" y2="678.1895"/><text fill="#000000" font-family="sans-serif" font-size="14" lengthAdjust="spacing" textLength="100.4609" x="40" y="116.0234">Show Designer</text><ellipse cx="93.2305" cy="50.9883" fill="#E3E3E3" rx="8" ry="8" style="stroke:#181818;stroke-width:0.5;"/><path d="M93.2305,58.9883 L93.2305,85.9883 M80.2305,66.9883 L106.2305,66.9883 M93.2305,85.9883 L80.2305,100.9883 M93.2305,85.9883 L106.2305,100.9883 " fill="none" style="stroke:#181818;stroke-width:0.5;"/><text fill="#000000" font-family="sans-serif" font-size="14" lengthAdjust="spacing" textLength="100.4609" x="40" y="690.7246">Show Designer</text><ellipse cx="93.2305" cy="702.1777" fill="#E3E3E3" rx="8" ry="8" style="stroke:#181818;stroke-width:0.5;"/><path d="M93.2305,710.1777 L93.2305,737.1777 M80.2305,718.1777 L106.2305,718.1777 M93.2305,737.1777 L80.2305,752.1777 M93.2305,737.1777 L106.2305,752.1777 " fill="none" style="stroke:#181818;stroke-width:0.5;"/><rect fill="#E3E3E3" height="30.4883" rx="2.5" ry="2.5" style="stroke:#181818;stroke-width:0.5;" width="66.5273" x="569.7881" y="87.4883"/><text fill="#000000" font-family="sans-serif" font-size="14" lengthAdjust="spacing" textLength="52.5273" x="576.7881" y="108.0234">:System</text><rect fill="#E3E3E3" height="30.4883" rx="2.5" ry="2.5" style="stroke:#181818;stroke-width:0.5;" width="66.5273" x="569.7881" y="677.1895"/><text fill="#000000" font-family="sans-serif" font-size="14" lengthAdjust="spacing" textLength="52.5273" x="576.7881" y="697.7246">:System</text><rect fill="#FFFFFF" height="539.2129" style="stroke:#181818;stroke-width:1.0;" width="10" x="88.2305" y="128.9766"/><rect fill="#FFFFFF" height="517.9023" style="stroke:#181818;stroke-width:1.0;" width="10" x="598.0518" y="150.2871"/><polygon fill="#181818" points="586.0518,146.2871,596.0518,150.2871,586.0518,154.2871,590.0518,150.2871" style="stroke:#181818;stroke-width:1.0;"/><line style="stroke:#181818;stroke-width:1.0;" x1="98.2305" x2="592.0518" y1="150.2871" y2="150.2871"/><text fill="#000000" font-family="sans-serif" font-size="13" font-weight="bold" lengthAdjust="spacing" textLength="8.5757" x="105.2305" y="145.5449">1</text><text fill="#000000" font-family="sans-serif" font-size="13" lengthAdjust="spacing" textLength="323.7368" x="117.8062" y="145.5449">requestEditCategory(id, newName, newDescription)</text><line style="stroke:#181818;stroke-width:1.0;" x1="608.0518" x2="650.0518" y1="179.5977" y2="179.5977"/><line style="stroke:#181818;stroke-width:1.0;" x1="650.0518" x2="650.0518" y1="179.5977" y2="192.5977"/><line style="stroke:#181818;stroke-width:1.0;" x1="609.0518" x2="650.0518" y1="192.5977" y2="192.5977"/><polygon fill="#181818" points="619.0518,188.5977,609.0518,192.5977,619.0518,196.5977,615.0518,192.5977" style="stroke:#181818;stroke-width:1.0;"/><text fill="#000000" font-family="sans-serif" font-size="13" font-weight="bold" lengthAdjust="spacing" textLength="8.5757" x="615.0518" y="174.8555">2</text><text fill="#000000" font-family="sans-serif" font-size="13" lengthAdjust="spacing" textLength="162.6587" x="627.6274" y="174.8555">validateCategoryExists(id)</text><path d="M10,207.5977 L72.1387,207.5977 L72.1387,214.9082 L62.1387,224.9082 L10,224.9082 L10,207.5977 " fill="#EEEEEE" style="stroke:#000000;stroke-width:1.5;"/><rect fill="none" height="453.5918" style="stroke:#000000;stroke-width:1.5;" width="1116.9507" x="10" y="207.5977"/><text fill="#000000" font-family="sans-serif" font-size="13" font-weight="bold" lengthAdjust="spacing" textLength="17.1387" x="25" y="221.166">alt</text><text fill="#000000" font-family="sans-serif" font-size="11" font-weight="bold" lengthAdjust="spacing" textLength="142.8174" x="87.1387" y="220.2324">[Category does not exist]</text><polygon fill="#181818" points="109.2305,242.2188,99.2305,246.2188,109.2305,250.2188,105.2305,246.2188" style="stroke:#181818;stroke-width:1.0;"/><line style="stroke:#181818;stroke-width:1.0;stroke-dasharray:2.0,2.0;" x1="103.2305" x2="597.0518" y1="246.2188" y2="246.2188"/><text fill="#000000" font-family="sans-serif" font-size="13" font-weight="bold" lengthAdjust="spacing" textLength="8.5757" x="115.2305" y="241.4766">3</text><text fill="#000000" font-family="sans-serif" font-size="13" lengthAdjust="spacing" textLength="226.2813" x="127.8062" y="241.4766">errorMessage("Category not found")</text><line style="stroke:#000000;stroke-width:1.0;stroke-dasharray:2.0,2.0;" x1="10" x2="1126.9507" y1="255.2188" y2="255.2188"/><text fill="#000000" font-family="sans-serif" font-size="11" font-weight="bold" lengthAdjust="spacing" textLength="96.0996" x="15" y="265.8535">[Category exists]</text><line style="stroke:#181818;stroke-width:1.0;" x1="608.0518" x2="650.0518" y1="290.4844" y2="290.4844"/><line style="stroke:#181818;stroke-width:1.0;" x1="650.0518" x2="650.0518" y1="290.4844" y2="303.4844"/><line style="stroke:#181818;stroke-width:1.0;" x1="609.0518" x2="650.0518" y1="303.4844" y2="303.4844"/><polygon fill="#181818" points="619.0518,299.4844,609.0518,303.4844,619.0518,307.4844,615.0518,303.4844" style="stroke:#181818;stroke-width:1.0;"/><text fill="#000000" font-family="sans-serif" font-size="13" font-weight="bold" lengthAdjust="spacing" textLength="8.5757" x="615.0518" y="285.7422">4</text><text fill="#000000" font-family="sans-serif" font-size="13" lengthAdjust="spacing" textLength="151.3218" x="627.6274" y="285.7422">checkCategoryActive(id)</text><path d="M20,318.4844 L82.1387,318.4844 L82.1387,325.7949 L72.1387,335.7949 L20,335.7949 L20,318.4844 " fill="#EEEEEE" style="stroke:#000000;stroke-width:1.5;"/><rect fill="none" height="335.7051" style="stroke:#000000;stroke-width:1.5;" width="1096.9507" x="20" y="318.4844"/><text fill="#000000" font-family="sans-serif" font-size="13" font-weight="bold" lengthAdjust="spacing" textLength="17.1387" x="35" y="332.0527">alt</text><text fill="#000000" font-family="sans-serif" font-size="11" font-weight="bold" lengthAdjust="spacing" textLength="120.2319" x="97.1387" y="331.1191">[Category is inactive]</text><polygon fill="#181818" points="109.2305,353.1055,99.2305,357.1055,109.2305,361.1055,105.2305,357.1055" style="stroke:#181818;stroke-width:1.0;"/><line style="stroke:#181818;stroke-width:1.0;stroke-dasharray:2.0,2.0;" x1="103.2305" x2="597.0518" y1="357.1055" y2="357.1055"/><text fill="#000000" font-family="sans-serif" font-size="13" font-weight="bold" lengthAdjust="spacing" textLength="8.5757" x="115.2305" y="352.3633">5</text><text fill="#000000" font-family="sans-serif" font-size="13" lengthAdjust="spacing" textLength="287.5171" x="127.8062" y="352.3633">errorMessage("Cannot edit inactive category")</text><line style="stroke:#000000;stroke-width:1.0;stroke-dasharray:2.0,2.0;" x1="20" x2="1116.9507" y1="366.1055" y2="366.1055"/><text fill="#000000" font-family="sans-serif" font-size="11" font-weight="bold" lengthAdjust="spacing" textLength="109.4307" x="25" y="376.7402">[Category is active]</text><line style="stroke:#181818;stroke-width:1.0;" x1="608.0518" x2="650.0518" y1="401.3711" y2="401.3711"/><line style="stroke:#181818;stroke-width:1.0;" x1="650.0518" x2="650.0518" y1="401.3711" y2="414.3711"/><line style="stroke:#181818;stroke-width:1.0;" x1="609.0518" x2="650.0518" y1="414.3711" y2="414.3711"/><polygon fill="#181818" points="619.0518,410.3711,609.0518,414.3711,619.0518,418.3711,615.0518,414.3711" style="stroke:#181818;stroke-width:1.0;"/><text fill="#000000" font-family="sans-serif" font-size="13" font-weight="bold" lengthAdjust="spacing" textLength="8.5757" x="615.0518" y="396.6289">6</text><text fill="#000000" font-family="sans-serif" font-size="13" lengthAdjust="spacing" textLength="211.4785" x="627.6274" y="396.6289">validateCategoryName(newName)</text><line style="stroke:#181818;stroke-width:1.0;" x1="608.0518" x2="650.0518" y1="443.6816" y2="443.6816"/><line style="stroke:#181818;stroke-width:1.0;" x1="650.0518" x2="650.0518" y1="443.6816" y2="456.6816"/><line style="stroke:#181818;stroke-width:1.0;" x1="609.0518" x2="650.0518" y1="456.6816" y2="456.6816"/><polygon fill="#181818" points="619.0518,452.6816,609.0518,456.6816,619.0518,460.6816,615.0518,456.6816" style="stroke:#181818;stroke-width:1.0;"/><text fill="#000000" font-family="sans-serif" font-size="13" font-weight="bold" lengthAdjust="spacing" textLength="8.5757" x="615.0518" y="438.9395">7</text><text fill="#000000" font-family="sans-serif" font-size="13" lengthAdjust="spacing" textLength="255.709" x="627.6274" y="438.9395">checkCategoryUniqueness(newName, id)</text><line style="stroke:#181818;stroke-width:1.0;" x1="608.0518" x2="650.0518" y1="485.9922" y2="485.9922"/><line style="stroke:#181818;stroke-width:1.0;" x1="650.0518" x2="650.0518" y1="485.9922" y2="498.9922"/><line style="stroke:#181818;stroke-width:1.0;" x1="609.0518" x2="650.0518" y1="498.9922" y2="498.9922"/><polygon fill="#181818" points="619.0518,494.9922,609.0518,498.9922,619.0518,502.9922,615.0518,498.9922" style="stroke:#181818;stroke-width:1.0;"/><text fill="#000000" font-family="sans-serif" font-size="13" font-weight="bold" lengthAdjust="spacing" textLength="8.5757" x="615.0518" y="481.25">8</text><text fill="#000000" font-family="sans-serif" font-size="13" lengthAdjust="spacing" textLength="227.0684" x="627.6274" y="481.25">validateDescription(newDescription)</text><path d="M30,513.9922 L92.1387,513.9922 L92.1387,521.3027 L82.1387,531.3027 L30,531.3027 L30,513.9922 " fill="#EEEEEE" style="stroke:#000000;stroke-width:1.5;"/><rect fill="none" height="133.1973" style="stroke:#000000;stroke-width:1.5;" width="1076.9507" x="30" y="513.9922"/><text fill="#000000" font-family="sans-serif" font-size="13" font-weight="bold" lengthAdjust="spacing" textLength="17.1387" x="45" y="527.5605">alt</text><text fill="#000000" font-family="sans-serif" font-size="11" font-weight="bold" lengthAdjust="spacing" textLength="268.3882" x="107.1387" y="526.627">[Name invalid, duplicate, or description invalid]</text><polygon fill="#181818" points="109.2305,548.6133,99.2305,552.6133,109.2305,556.6133,105.2305,552.6133" style="stroke:#181818;stroke-width:1.0;"/><line style="stroke:#181818;stroke-width:1.0;stroke-dasharray:2.0,2.0;" x1="103.2305" x2="597.0518" y1="552.6133" y2="552.6133"/><text fill="#000000" font-family="sans-serif" font-size="13" font-weight="bold" lengthAdjust="spacing" textLength="8.5757" x="115.2305" y="547.8711">9</text><text fill="#000000" font-family="sans-serif" font-size="13" lengthAdjust="spacing" textLength="463.2456" x="127.8062" y="547.8711">errorMessage("Invalid or duplicate category name, or invalid description")</text><line style="stroke:#000000;stroke-width:1.0;stroke-dasharray:2.0,2.0;" x1="30" x2="1106.9507" y1="561.6133" y2="561.6133"/><text fill="#000000" font-family="sans-serif" font-size="11" font-weight="bold" lengthAdjust="spacing" textLength="230.6509" x="35" y="572.248">[Name and description valid and unique]</text><line style="stroke:#181818;stroke-width:1.0;" x1="608.0518" x2="650.0518" y1="596.8789" y2="596.8789"/><line style="stroke:#181818;stroke-width:1.0;" x1="650.0518" x2="650.0518" y1="596.8789" y2="609.8789"/><line style="stroke:#181818;stroke-width:1.0;" x1="609.0518" x2="650.0518" y1="609.8789" y2="609.8789"/><polygon fill="#181818" points="619.0518,605.8789,609.0518,609.8789,619.0518,613.8789,615.0518,609.8789" style="stroke:#181818;stroke-width:1.0;"/><text fill="#000000" font-family="sans-serif" font-size="13" font-weight="bold" lengthAdjust="spacing" textLength="17.1514" x="615.0518" y="592.1367">10</text><text fill="#000000" font-family="sans-serif" font-size="13" lengthAdjust="spacing" textLength="448.7476" x="636.2031" y="592.1367">updateCategory(id, newName, newDescription, updatedOn, updatedBy)</text><polygon fill="#181818" points="109.2305,635.1895,99.2305,639.1895,109.2305,643.1895,105.2305,639.1895" style="stroke:#181818;stroke-width:1.0;"/><line style="stroke:#181818;stroke-width:1.0;stroke-dasharray:2.0,2.0;" x1="103.2305" x2="597.0518" y1="639.1895" y2="639.1895"/><text fill="#000000" font-family="sans-serif" font-size="13" font-weight="bold" lengthAdjust="spacing" textLength="17.1514" x="115.2305" y="634.4473">11</text><text fill="#000000" font-family="sans-serif" font-size="13" lengthAdjust="spacing" textLength="345.2173" x="136.3818" y="634.4473">confirmationMessage("Category updated successfully")</text><!--SRC=[ZLFBZjGm4BpxArev9TBi3ym12SWYSG0E4HzWx9vCQv9sy6E7_3ssyrxOWP6YiT9LrLNTZhiH3zBA7dh3HbsjwH6y3IZSMXcakiaM6pzs21QLbznsUu2xIctkn2rSPETG24y-GflHUUoXmPy1MI7K9Di4Bvkchk09dZLv-4Hji0WVfSVMs5486RpXqFz06y_A6mj5SpLtgD5HosWBa0wQMiJMdXGDaZqKvwdNLCl7JAQNA9l0egdXwTrSEiSGqPBpoS3Ik2Hz0iRxLzbZFiH-ojBWoN2rqvh5vsmxpHVPaOwGHV3v5pdlecnaTtuD2DgW0pOUC044nDyYbjJgCw2rndv1v-BGos8b9ix51DP59J2EUPFCIkuWjVbILrIt1Ve-vS1iAg4FniW1SGwAkVWVpZZdI6jScA1ckMBgS3GQMxpHuEqvfeMKysAg1xn3pkzCwT95f-MwqoNquxQxjPUlRy72JcDBcZ5rffr0Xw6Z5Fq4ySBgZRH0Lku_f_fv8cITHNMTAd2E4ckpxhvNiJdCOyyM9HymKyxyDkGP_TNODfOmx7Vnw2CvpLZzRJj-6Aj7mPNX2zbU9lgVzttM01UKYiLBwBfn7v6deQR_z0YDhx_I_PjQ_0O0]--></g></svg>