<svg xmlns="http://www.w3.org/2000/svg" xmlns:xlink="http://www.w3.org/1999/xlink" contentStyleType="text/css" height="657px" preserveAspectRatio="none" style="width:676px;height:657px;background:#FFFFFF;" version="1.1" viewBox="0 0 676 657" width="676px" zoomAndPan="magnify"><title>System Sequence Diagram (SSD) - Edit Figure Category</title><defs/><g><text fill="#000000" font-family="sans-serif" font-size="14" font-weight="bold" lengthAdjust="spacing" textLength="397.5439" x="146.6052" y="28.5352">System Sequence Diagram (SSD) - Edit Figure Category</text><rect fill="#FFFFFF" height="437.6367" style="stroke:#181818;stroke-width:1.0;" width="10" x="78.2305" y="128.9766"/><rect fill="#FFFFFF" height="416.3262" style="stroke:#181818;stroke-width:1.0;" width="10" x="412.3232" y="150.2871"/><rect fill="none" height="166.4629" style="stroke:#000000;stroke-width:1.5;" width="460.5869" x="10" y="393.1504"/><rect fill="none" height="90.8867" style="stroke:#000000;stroke-width:1.5;" width="440.5869" x="20" y="461.7266"/><line style="stroke:#181818;stroke-width:0.5;stroke-dasharray:5.0,5.0;" x1="83" x2="83" y1="118.9766" y2="576.6133"/><line style="stroke:#181818;stroke-width:0.5;stroke-dasharray:5.0,5.0;" x1="417.0596" x2="417.0596" y1="118.9766" y2="576.6133"/><text fill="#000000" font-family="sans-serif" font-size="14" lengthAdjust="spacing" textLength="100.4609" x="30" y="116.0234">Show Designer</text><ellipse cx="83.2305" cy="50.9883" fill="#E3E3E3" rx="8" ry="8" style="stroke:#181818;stroke-width:0.5;"/><path d="M83.2305,58.9883 L83.2305,85.9883 M70.2305,66.9883 L96.2305,66.9883 M83.2305,85.9883 L70.2305,100.9883 M83.2305,85.9883 L96.2305,100.9883 " fill="none" style="stroke:#181818;stroke-width:0.5;"/><text fill="#000000" font-family="sans-serif" font-size="14" lengthAdjust="spacing" textLength="100.4609" x="30" y="589.1484">Show Designer</text><ellipse cx="83.2305" cy="600.6016" fill="#E3E3E3" rx="8" ry="8" style="stroke:#181818;stroke-width:0.5;"/><path d="M83.2305,608.6016 L83.2305,635.6016 M70.2305,616.6016 L96.2305,616.6016 M83.2305,635.6016 L70.2305,650.6016 M83.2305,635.6016 L96.2305,650.6016 " fill="none" style="stroke:#181818;stroke-width:0.5;"/><rect fill="#E3E3E3" height="30.4883" rx="2.5" ry="2.5" style="stroke:#181818;stroke-width:0.5;" width="66.5273" x="384.0596" y="87.4883"/><text fill="#000000" font-family="sans-serif" font-size="14" lengthAdjust="spacing" textLength="52.5273" x="391.0596" y="108.0234">:System</text><rect fill="#E3E3E3" height="30.4883" rx="2.5" ry="2.5" style="stroke:#181818;stroke-width:0.5;" width="66.5273" x="384.0596" y="575.6133"/><text fill="#000000" font-family="sans-serif" font-size="14" lengthAdjust="spacing" textLength="52.5273" x="391.0596" y="596.1484">:System</text><rect fill="#FFFFFF" height="437.6367" style="stroke:#181818;stroke-width:1.0;" width="10" x="78.2305" y="128.9766"/><rect fill="#FFFFFF" height="416.3262" style="stroke:#181818;stroke-width:1.0;" width="10" x="412.3232" y="150.2871"/><polygon fill="#181818" points="400.3232,146.2871,410.3232,150.2871,400.3232,154.2871,404.3232,150.2871" style="stroke:#181818;stroke-width:1.0;"/><line style="stroke:#181818;stroke-width:1.0;" x1="88.2305" x2="406.3232" y1="150.2871" y2="150.2871"/><text fill="#000000" font-family="sans-serif" font-size="13" font-weight="bold" lengthAdjust="spacing" textLength="8.5757" x="95.2305" y="145.5449">1</text><text fill="#000000" font-family="sans-serif" font-size="13" lengthAdjust="spacing" textLength="203.4614" x="107.8062" y="145.5449">requests to edit Figure Category</text><line style="stroke:#181818;stroke-width:1.0;" x1="422.3232" x2="464.3232" y1="179.5977" y2="179.5977"/><line style="stroke:#181818;stroke-width:1.0;" x1="464.3232" x2="464.3232" y1="179.5977" y2="192.5977"/><line style="stroke:#181818;stroke-width:1.0;" x1="423.3232" x2="464.3232" y1="192.5977" y2="192.5977"/><polygon fill="#181818" points="433.3232,188.5977,423.3232,192.5977,433.3232,196.5977,429.3232,192.5977" style="stroke:#181818;stroke-width:1.0;"/><text fill="#000000" font-family="sans-serif" font-size="13" font-weight="bold" lengthAdjust="spacing" textLength="8.5757" x="429.3232" y="174.8555">2</text><text fill="#000000" font-family="sans-serif" font-size="13" lengthAdjust="spacing" textLength="133.3833" x="441.8989" y="174.8555">fetches all categories</text><polygon fill="#181818" points="99.2305,217.9082,89.2305,221.9082,99.2305,225.9082,95.2305,221.9082" style="stroke:#181818;stroke-width:1.0;"/><line style="stroke:#181818;stroke-width:1.0;stroke-dasharray:2.0,2.0;" x1="93.2305" x2="411.3232" y1="221.9082" y2="221.9082"/><text fill="#000000" font-family="sans-serif" font-size="13" font-weight="bold" lengthAdjust="spacing" textLength="8.5757" x="105.2305" y="217.166">3</text><text fill="#000000" font-family="sans-serif" font-size="13" lengthAdjust="spacing" textLength="243.8579" x="117.8062" y="217.166">sends all categories for user to choose</text><polygon fill="#181818" points="400.3232,247.2188,410.3232,251.2188,400.3232,255.2188,404.3232,251.2188" style="stroke:#181818;stroke-width:1.0;"/><line style="stroke:#181818;stroke-width:1.0;" x1="88.2305" x2="406.3232" y1="251.2188" y2="251.2188"/><text fill="#000000" font-family="sans-serif" font-size="13" font-weight="bold" lengthAdjust="spacing" textLength="8.5757" x="95.2305" y="246.4766">4</text><text fill="#000000" font-family="sans-serif" font-size="13" lengthAdjust="spacing" textLength="279.646" x="107.8062" y="246.4766">chooses the category to edit and edits fields</text><line style="stroke:#181818;stroke-width:1.0;" x1="422.3232" x2="464.3232" y1="280.5293" y2="280.5293"/><line style="stroke:#181818;stroke-width:1.0;" x1="464.3232" x2="464.3232" y1="280.5293" y2="293.5293"/><line style="stroke:#181818;stroke-width:1.0;" x1="423.3232" x2="464.3232" y1="293.5293" y2="293.5293"/><polygon fill="#181818" points="433.3232,289.5293,423.3232,293.5293,433.3232,297.5293,429.3232,293.5293" style="stroke:#181818;stroke-width:1.0;"/><text fill="#000000" font-family="sans-serif" font-size="13" font-weight="bold" lengthAdjust="spacing" textLength="8.5757" x="429.3232" y="275.7871">5</text><text fill="#000000" font-family="sans-serif" font-size="13" lengthAdjust="spacing" textLength="154.8511" x="441.8989" y="275.7871">validates Category name</text><line style="stroke:#181818;stroke-width:1.0;" x1="422.3232" x2="464.3232" y1="322.8398" y2="322.8398"/><line style="stroke:#181818;stroke-width:1.0;" x1="464.3232" x2="464.3232" y1="322.8398" y2="335.8398"/><line style="stroke:#181818;stroke-width:1.0;" x1="423.3232" x2="464.3232" y1="335.8398" y2="335.8398"/><polygon fill="#181818" points="433.3232,331.8398,423.3232,335.8398,433.3232,339.8398,429.3232,335.8398" style="stroke:#181818;stroke-width:1.0;"/><text fill="#000000" font-family="sans-serif" font-size="13" font-weight="bold" lengthAdjust="spacing" textLength="8.5757" x="429.3232" y="318.0977">6</text><text fill="#000000" font-family="sans-serif" font-size="13" lengthAdjust="spacing" textLength="227.8555" x="441.8989" y="318.0977">checks Category's name uniqueness</text><line style="stroke:#181818;stroke-width:1.0;" x1="422.3232" x2="464.3232" y1="365.1504" y2="365.1504"/><line style="stroke:#181818;stroke-width:1.0;" x1="464.3232" x2="464.3232" y1="365.1504" y2="378.1504"/><line style="stroke:#181818;stroke-width:1.0;" x1="423.3232" x2="464.3232" y1="378.1504" y2="378.1504"/><polygon fill="#181818" points="433.3232,374.1504,423.3232,378.1504,433.3232,382.1504,429.3232,378.1504" style="stroke:#181818;stroke-width:1.0;"/><text fill="#000000" font-family="sans-serif" font-size="13" font-weight="bold" lengthAdjust="spacing" textLength="8.5757" x="429.3232" y="360.4082">7</text><text fill="#000000" font-family="sans-serif" font-size="13" lengthAdjust="spacing" textLength="130.2729" x="441.8989" y="360.4082">validates description</text><path d="M10,393.1504 L72.1387,393.1504 L72.1387,400.4609 L62.1387,410.4609 L10,410.4609 L10,393.1504 " fill="#EEEEEE" style="stroke:#000000;stroke-width:1.5;"/><rect fill="none" height="166.4629" style="stroke:#000000;stroke-width:1.5;" width="460.5869" x="10" y="393.1504"/><text fill="#000000" font-family="sans-serif" font-size="13" font-weight="bold" lengthAdjust="spacing" textLength="17.1387" x="25" y="406.7188">alt</text><text fill="#000000" font-family="sans-serif" font-size="11" font-weight="bold" lengthAdjust="spacing" textLength="103.4849" x="87.1387" y="405.7852">[Duplicated name]</text><polygon fill="#181818" points="99.2305,427.7715,89.2305,431.7715,99.2305,435.7715,95.2305,431.7715" style="stroke:#181818;stroke-width:1.0;"/><line style="stroke:#181818;stroke-width:1.0;stroke-dasharray:2.0,2.0;" x1="93.2305" x2="411.3232" y1="431.7715" y2="431.7715"/><text fill="#000000" font-family="sans-serif" font-size="13" font-weight="bold" lengthAdjust="spacing" textLength="8.5757" x="105.2305" y="427.0293">8</text><text fill="#000000" font-family="sans-serif" font-size="13" lengthAdjust="spacing" textLength="207.8413" x="117.8062" y="427.0293">error message (duplicated name)</text><line style="stroke:#000000;stroke-width:1.0;stroke-dasharray:2.0,2.0;" x1="10" x2="470.5869" y1="440.7715" y2="440.7715"/><text fill="#000000" font-family="sans-serif" font-size="11" font-weight="bold" lengthAdjust="spacing" textLength="96.0996" x="15" y="451.4063">[Category exists]</text><path d="M20,461.7266 L82.1387,461.7266 L82.1387,469.0371 L72.1387,479.0371 L20,479.0371 L20,461.7266 " fill="#EEEEEE" style="stroke:#000000;stroke-width:1.5;"/><rect fill="none" height="90.8867" style="stroke:#000000;stroke-width:1.5;" width="440.5869" x="20" y="461.7266"/><text fill="#000000" font-family="sans-serif" font-size="13" font-weight="bold" lengthAdjust="spacing" textLength="17.1387" x="35" y="475.2949">alt</text><text fill="#000000" font-family="sans-serif" font-size="11" font-weight="bold" lengthAdjust="spacing" textLength="120.2319" x="97.1387" y="474.3613">[Category is inactive]</text><polygon fill="#181818" points="99.2305,496.3477,89.2305,500.3477,99.2305,504.3477,95.2305,500.3477" style="stroke:#181818;stroke-width:1.0;"/><line style="stroke:#181818;stroke-width:1.0;stroke-dasharray:2.0,2.0;" x1="93.2305" x2="411.3232" y1="500.3477" y2="500.3477"/><text fill="#000000" font-family="sans-serif" font-size="13" font-weight="bold" lengthAdjust="spacing" textLength="8.5757" x="105.2305" y="495.6055">9</text><text fill="#000000" font-family="sans-serif" font-size="13" lengthAdjust="spacing" textLength="287.5171" x="117.8062" y="495.6055">errorMessage("Cannot edit inactive category")</text><line style="stroke:#000000;stroke-width:1.0;stroke-dasharray:2.0,2.0;" x1="20" x2="460.5869" y1="509.3477" y2="509.3477"/><text fill="#000000" font-family="sans-serif" font-size="11" font-weight="bold" lengthAdjust="spacing" textLength="109.4307" x="25" y="519.9824">[Category is active]</text><polygon fill="#181818" points="99.2305,540.6133,89.2305,544.6133,99.2305,548.6133,95.2305,544.6133" style="stroke:#181818;stroke-width:1.0;"/><line style="stroke:#181818;stroke-width:1.0;stroke-dasharray:2.0,2.0;" x1="93.2305" x2="411.3232" y1="544.6133" y2="544.6133"/><text fill="#000000" font-family="sans-serif" font-size="13" font-weight="bold" lengthAdjust="spacing" textLength="17.1514" x="105.2305" y="539.8711">10</text><text fill="#000000" font-family="sans-serif" font-size="13" lengthAdjust="spacing" textLength="278.6431" x="126.3818" y="539.8711">informs user about the successful operation</text><!--SRC=[VLBBRkCm3BphAmXVDZdq1tBefTwzzUGlO2N69Y9BhaYrpTylRQTE6WGL840GXpF3XvmuJLXmX36dx8UIHm8jbPniaGdz2Nlgz1m92dd5rCTRW0mOyYUd7euOXPnJLeDsPr4QeQFtIiaJj8pz3DzrNRk79_WRME4VzxKGlA1IdylPEQoQKntVgDZRQoxGT4F-X9Q4-qIb0HJeMcVIofudJ0hDOTLQOyjpIUOFevt1hclXwVaIEbWHPabKG3FG8nVNt9NiKieDnP7K3oI0CO9VqvXa0yx8zW12ATnZu6WrLQ4og_iXP-lOhJquN7xDta3VYUVDAwQmF8o8AGPvOEu38mVBawqYI3ZI0wJLu4zNs1zPW50JpqCZ-PqzaFZ2at9Erk-eqDOfykmuh89mrmygnOeVZTSM2dRX9tploDRdwfc-s8Ra7DYPsRS02t1QPaHBS3wFb5vNeLtpWYbbNVltdRbrjjal93-rJU9t0Kusnr7MIU9RhhgCIwhtfdgi4V941TVUBFmfkFcwGFVhTVlJkly0]--></g></svg>