<svg xmlns="http://www.w3.org/2000/svg" xmlns:xlink="http://www.w3.org/1999/xlink" contentStyleType="text/css" height="615px" preserveAspectRatio="none" style="width:676px;height:615px;background:#FFFFFF;" version="1.1" viewBox="0 0 676 615" width="676px" zoomAndPan="magnify"><title>System Sequence Diagram (SSD) - Edit Figure Category</title><defs/><g><text fill="#000000" font-family="sans-serif" font-size="14" font-weight="bold" lengthAdjust="spacing" textLength="397.5439" x="146.6052" y="28.5352">System Sequence Diagram (SSD) - Edit Figure Category</text><rect fill="#FFFFFF" height="395.3262" style="stroke:#181818;stroke-width:1.0;" width="10" x="78.2305" y="128.9766"/><rect fill="#FFFFFF" height="374.0156" style="stroke:#181818;stroke-width:1.0;" width="10" x="412.3232" y="150.2871"/><rect fill="none" height="166.4629" style="stroke:#000000;stroke-width:1.5;" width="460.5869" x="10" y="350.8398"/><rect fill="none" height="90.8867" style="stroke:#000000;stroke-width:1.5;" width="440.5869" x="20" y="419.416"/><line style="stroke:#181818;stroke-width:0.5;stroke-dasharray:5.0,5.0;" x1="83" x2="83" y1="118.9766" y2="534.3027"/><line style="stroke:#181818;stroke-width:0.5;stroke-dasharray:5.0,5.0;" x1="417.0596" x2="417.0596" y1="118.9766" y2="534.3027"/><text fill="#000000" font-family="sans-serif" font-size="14" lengthAdjust="spacing" textLength="100.4609" x="30" y="116.0234">Show Designer</text><ellipse cx="83.2305" cy="50.9883" fill="#E3E3E3" rx="8" ry="8" style="stroke:#181818;stroke-width:0.5;"/><path d="M83.2305,58.9883 L83.2305,85.9883 M70.2305,66.9883 L96.2305,66.9883 M83.2305,85.9883 L70.2305,100.9883 M83.2305,85.9883 L96.2305,100.9883 " fill="none" style="stroke:#181818;stroke-width:0.5;"/><text fill="#000000" font-family="sans-serif" font-size="14" lengthAdjust="spacing" textLength="100.4609" x="30" y="546.8379">Show Designer</text><ellipse cx="83.2305" cy="558.291" fill="#E3E3E3" rx="8" ry="8" style="stroke:#181818;stroke-width:0.5;"/><path d="M83.2305,566.291 L83.2305,593.291 M70.2305,574.291 L96.2305,574.291 M83.2305,593.291 L70.2305,608.291 M83.2305,593.291 L96.2305,608.291 " fill="none" style="stroke:#181818;stroke-width:0.5;"/><rect fill="#E3E3E3" height="30.4883" rx="2.5" ry="2.5" style="stroke:#181818;stroke-width:0.5;" width="66.5273" x="384.0596" y="87.4883"/><text fill="#000000" font-family="sans-serif" font-size="14" lengthAdjust="spacing" textLength="52.5273" x="391.0596" y="108.0234">:System</text><rect fill="#E3E3E3" height="30.4883" rx="2.5" ry="2.5" style="stroke:#181818;stroke-width:0.5;" width="66.5273" x="384.0596" y="533.3027"/><text fill="#000000" font-family="sans-serif" font-size="14" lengthAdjust="spacing" textLength="52.5273" x="391.0596" y="553.8379">:System</text><rect fill="#FFFFFF" height="395.3262" style="stroke:#181818;stroke-width:1.0;" width="10" x="78.2305" y="128.9766"/><rect fill="#FFFFFF" height="374.0156" style="stroke:#181818;stroke-width:1.0;" width="10" x="412.3232" y="150.2871"/><polygon fill="#181818" points="400.3232,146.2871,410.3232,150.2871,400.3232,154.2871,404.3232,150.2871" style="stroke:#181818;stroke-width:1.0;"/><line style="stroke:#181818;stroke-width:1.0;" x1="88.2305" x2="406.3232" y1="150.2871" y2="150.2871"/><text fill="#000000" font-family="sans-serif" font-size="13" font-weight="bold" lengthAdjust="spacing" textLength="8.5757" x="95.2305" y="145.5449">1</text><text fill="#000000" font-family="sans-serif" font-size="13" lengthAdjust="spacing" textLength="203.4614" x="107.8062" y="145.5449">requests to edit Figure Category</text><polygon fill="#181818" points="99.2305,175.5977,89.2305,179.5977,99.2305,183.5977,95.2305,179.5977" style="stroke:#181818;stroke-width:1.0;"/><line style="stroke:#181818;stroke-width:1.0;stroke-dasharray:2.0,2.0;" x1="93.2305" x2="411.3232" y1="179.5977" y2="179.5977"/><text fill="#000000" font-family="sans-serif" font-size="13" font-weight="bold" lengthAdjust="spacing" textLength="8.5757" x="105.2305" y="174.8555">2</text><text fill="#000000" font-family="sans-serif" font-size="13" lengthAdjust="spacing" textLength="243.8579" x="117.8062" y="174.8555">sends all categories for user to choose</text><polygon fill="#181818" points="400.3232,204.9082,410.3232,208.9082,400.3232,212.9082,404.3232,208.9082" style="stroke:#181818;stroke-width:1.0;"/><line style="stroke:#181818;stroke-width:1.0;" x1="88.2305" x2="406.3232" y1="208.9082" y2="208.9082"/><text fill="#000000" font-family="sans-serif" font-size="13" font-weight="bold" lengthAdjust="spacing" textLength="8.5757" x="95.2305" y="204.166">3</text><text fill="#000000" font-family="sans-serif" font-size="13" lengthAdjust="spacing" textLength="279.646" x="107.8062" y="204.166">chooses the category to edit and edits fields</text><line style="stroke:#181818;stroke-width:1.0;" x1="422.3232" x2="464.3232" y1="238.2188" y2="238.2188"/><line style="stroke:#181818;stroke-width:1.0;" x1="464.3232" x2="464.3232" y1="238.2188" y2="251.2188"/><line style="stroke:#181818;stroke-width:1.0;" x1="423.3232" x2="464.3232" y1="251.2188" y2="251.2188"/><polygon fill="#181818" points="433.3232,247.2188,423.3232,251.2188,433.3232,255.2188,429.3232,251.2188" style="stroke:#181818;stroke-width:1.0;"/><text fill="#000000" font-family="sans-serif" font-size="13" font-weight="bold" lengthAdjust="spacing" textLength="8.5757" x="429.3232" y="233.4766">4</text><text fill="#000000" font-family="sans-serif" font-size="13" lengthAdjust="spacing" textLength="154.8511" x="441.8989" y="233.4766">validates Category name</text><line style="stroke:#181818;stroke-width:1.0;" x1="422.3232" x2="464.3232" y1="280.5293" y2="280.5293"/><line style="stroke:#181818;stroke-width:1.0;" x1="464.3232" x2="464.3232" y1="280.5293" y2="293.5293"/><line style="stroke:#181818;stroke-width:1.0;" x1="423.3232" x2="464.3232" y1="293.5293" y2="293.5293"/><polygon fill="#181818" points="433.3232,289.5293,423.3232,293.5293,433.3232,297.5293,429.3232,293.5293" style="stroke:#181818;stroke-width:1.0;"/><text fill="#000000" font-family="sans-serif" font-size="13" font-weight="bold" lengthAdjust="spacing" textLength="8.5757" x="429.3232" y="275.7871">5</text><text fill="#000000" font-family="sans-serif" font-size="13" lengthAdjust="spacing" textLength="227.8555" x="441.8989" y="275.7871">checks Category's name uniqueness</text><line style="stroke:#181818;stroke-width:1.0;" x1="422.3232" x2="464.3232" y1="322.8398" y2="322.8398"/><line style="stroke:#181818;stroke-width:1.0;" x1="464.3232" x2="464.3232" y1="322.8398" y2="335.8398"/><line style="stroke:#181818;stroke-width:1.0;" x1="423.3232" x2="464.3232" y1="335.8398" y2="335.8398"/><polygon fill="#181818" points="433.3232,331.8398,423.3232,335.8398,433.3232,339.8398,429.3232,335.8398" style="stroke:#181818;stroke-width:1.0;"/><text fill="#000000" font-family="sans-serif" font-size="13" font-weight="bold" lengthAdjust="spacing" textLength="8.5757" x="429.3232" y="318.0977">6</text><text fill="#000000" font-family="sans-serif" font-size="13" lengthAdjust="spacing" textLength="130.2729" x="441.8989" y="318.0977">validates description</text><path d="M10,350.8398 L72.1387,350.8398 L72.1387,358.1504 L62.1387,368.1504 L10,368.1504 L10,350.8398 " fill="#EEEEEE" style="stroke:#000000;stroke-width:1.5;"/><rect fill="none" height="166.4629" style="stroke:#000000;stroke-width:1.5;" width="460.5869" x="10" y="350.8398"/><text fill="#000000" font-family="sans-serif" font-size="13" font-weight="bold" lengthAdjust="spacing" textLength="17.1387" x="25" y="364.4082">alt</text><text fill="#000000" font-family="sans-serif" font-size="11" font-weight="bold" lengthAdjust="spacing" textLength="103.4849" x="87.1387" y="363.4746">[Duplicated name]</text><polygon fill="#181818" points="99.2305,385.4609,89.2305,389.4609,99.2305,393.4609,95.2305,389.4609" style="stroke:#181818;stroke-width:1.0;"/><line style="stroke:#181818;stroke-width:1.0;stroke-dasharray:2.0,2.0;" x1="93.2305" x2="411.3232" y1="389.4609" y2="389.4609"/><text fill="#000000" font-family="sans-serif" font-size="13" font-weight="bold" lengthAdjust="spacing" textLength="8.5757" x="105.2305" y="384.7188">7</text><text fill="#000000" font-family="sans-serif" font-size="13" lengthAdjust="spacing" textLength="207.8413" x="117.8062" y="384.7188">error message (duplicated name)</text><line style="stroke:#000000;stroke-width:1.0;stroke-dasharray:2.0,2.0;" x1="10" x2="470.5869" y1="398.4609" y2="398.4609"/><text fill="#000000" font-family="sans-serif" font-size="11" font-weight="bold" lengthAdjust="spacing" textLength="96.0996" x="15" y="409.0957">[Category exists]</text><path d="M20,419.416 L82.1387,419.416 L82.1387,426.7266 L72.1387,436.7266 L20,436.7266 L20,419.416 " fill="#EEEEEE" style="stroke:#000000;stroke-width:1.5;"/><rect fill="none" height="90.8867" style="stroke:#000000;stroke-width:1.5;" width="440.5869" x="20" y="419.416"/><text fill="#000000" font-family="sans-serif" font-size="13" font-weight="bold" lengthAdjust="spacing" textLength="17.1387" x="35" y="432.9844">alt</text><text fill="#000000" font-family="sans-serif" font-size="11" font-weight="bold" lengthAdjust="spacing" textLength="120.2319" x="97.1387" y="432.0508">[Category is inactive]</text><polygon fill="#181818" points="99.2305,454.0371,89.2305,458.0371,99.2305,462.0371,95.2305,458.0371" style="stroke:#181818;stroke-width:1.0;"/><line style="stroke:#181818;stroke-width:1.0;stroke-dasharray:2.0,2.0;" x1="93.2305" x2="411.3232" y1="458.0371" y2="458.0371"/><text fill="#000000" font-family="sans-serif" font-size="13" font-weight="bold" lengthAdjust="spacing" textLength="8.5757" x="105.2305" y="453.2949">8</text><text fill="#000000" font-family="sans-serif" font-size="13" lengthAdjust="spacing" textLength="287.5171" x="117.8062" y="453.2949">errorMessage("Cannot edit inactive category")</text><line style="stroke:#000000;stroke-width:1.0;stroke-dasharray:2.0,2.0;" x1="20" x2="460.5869" y1="467.0371" y2="467.0371"/><text fill="#000000" font-family="sans-serif" font-size="11" font-weight="bold" lengthAdjust="spacing" textLength="109.4307" x="25" y="477.6719">[Category is active]</text><polygon fill="#181818" points="99.2305,498.3027,89.2305,502.3027,99.2305,506.3027,95.2305,502.3027" style="stroke:#181818;stroke-width:1.0;"/><line style="stroke:#181818;stroke-width:1.0;stroke-dasharray:2.0,2.0;" x1="93.2305" x2="411.3232" y1="502.3027" y2="502.3027"/><text fill="#000000" font-family="sans-serif" font-size="13" font-weight="bold" lengthAdjust="spacing" textLength="8.5757" x="105.2305" y="497.5605">9</text><text fill="#000000" font-family="sans-serif" font-size="13" lengthAdjust="spacing" textLength="278.6431" x="117.8062" y="497.5605">informs user about the successful operation</text><!--SRC=[VL91RkCm3Bph5OGlcnpoWHnwgNTlFVa5hCJOH6J95QMs-VrISkgaHL010WHnE3CQIiuS5amumnn3j5EACq5EXOnibGNj6KSQyiKJ9B8Pm-Zl0JAXYnySHZYX5p8cSrReS95CCmpqLYXOWfvnhF3TCFHxEC1Vnnd-yLWImJDc6cEw68Cbnr3cLqfwjZacw8OfVa1FmcEWr04A3BrHwSoM5mmPkkEgjTRQiJNpkz9Mi1bwE3nTIqTzX5gIB90Zq2CNjzuhsVKjXqhI7q4eE07q7kpQmYHmKgz5A5LMEyMeITpBml5wgx8JVJLUDWyON3ie4PDticdUVB-ZPwTziZc5W3CzGDg9xFa6-oCD22Lm7GR9x-oEn2PUCiUWEVeCVLayLyTk5OGVUL1A-lXPUVMZmCvzX-yDwRUuUQPFrl2D0LsLVIkm08UMFRLYNO-KNbQXNVUC8SIyvlVLkINRxHl9TssL-5s0WyvnbdMI-1fBRkEIOgsgdeg7k532DPl67vofspZw-MtkRthp7m00]--></g></svg>