<svg xmlns="http://www.w3.org/2000/svg" xmlns:xlink="http://www.w3.org/1999/xlink" contentStyleType="text/css" height="405px" preserveAspectRatio="none" style="width:508px;height:405px;background:#FFFFFF;" version="1.1" viewBox="0 0 508 405" width="508px" zoomAndPan="magnify"><title>System Sequence Diagram (SSD) - List Figure Categories</title><defs/><g><text fill="#000000" font-family="sans-serif" font-size="14" font-weight="bold" lengthAdjust="spacing" textLength="408.4268" x="57.2019" y="28.5352">System Sequence Diagram (SSD) - List Figure Categories</text><rect fill="#FFFFFF" height="177.5527" style="stroke:#181818;stroke-width:1.0;" width="10" x="53.2305" y="128.9766"/><rect fill="#FFFFFF" height="156.2422" style="stroke:#181818;stroke-width:1.0;" width="10" x="321.2568" y="150.2871"/><line style="stroke:#181818;stroke-width:0.5;stroke-dasharray:5.0,5.0;" x1="58" x2="58" y1="118.9766" y2="324.5293"/><line style="stroke:#181818;stroke-width:0.5;stroke-dasharray:5.0,5.0;" x1="325.9932" x2="325.9932" y1="118.9766" y2="324.5293"/><text fill="#000000" font-family="sans-serif" font-size="14" lengthAdjust="spacing" textLength="100.4609" x="5" y="116.0234">Show Designer</text><ellipse cx="58.2305" cy="50.9883" fill="#E3E3E3" rx="8" ry="8" style="stroke:#181818;stroke-width:0.5;"/><path d="M58.2305,58.9883 L58.2305,85.9883 M45.2305,66.9883 L71.2305,66.9883 M58.2305,85.9883 L45.2305,100.9883 M58.2305,85.9883 L71.2305,100.9883 " fill="none" style="stroke:#181818;stroke-width:0.5;"/><text fill="#000000" font-family="sans-serif" font-size="14" lengthAdjust="spacing" textLength="100.4609" x="5" y="337.0645">Show Designer</text><ellipse cx="58.2305" cy="348.5176" fill="#E3E3E3" rx="8" ry="8" style="stroke:#181818;stroke-width:0.5;"/><path d="M58.2305,356.5176 L58.2305,383.5176 M45.2305,364.5176 L71.2305,364.5176 M58.2305,383.5176 L45.2305,398.5176 M58.2305,383.5176 L71.2305,398.5176 " fill="none" style="stroke:#181818;stroke-width:0.5;"/><rect fill="#E3E3E3" height="30.4883" rx="2.5" ry="2.5" style="stroke:#181818;stroke-width:0.5;" width="66.5273" x="292.9932" y="87.4883"/><text fill="#000000" font-family="sans-serif" font-size="14" lengthAdjust="spacing" textLength="52.5273" x="299.9932" y="108.0234">:System</text><rect fill="#E3E3E3" height="30.4883" rx="2.5" ry="2.5" style="stroke:#181818;stroke-width:0.5;" width="66.5273" x="292.9932" y="323.5293"/><text fill="#000000" font-family="sans-serif" font-size="14" lengthAdjust="spacing" textLength="52.5273" x="299.9932" y="344.0645">:System</text><rect fill="#FFFFFF" height="177.5527" style="stroke:#181818;stroke-width:1.0;" width="10" x="53.2305" y="128.9766"/><rect fill="#FFFFFF" height="156.2422" style="stroke:#181818;stroke-width:1.0;" width="10" x="321.2568" y="150.2871"/><polygon fill="#181818" points="309.2568,146.2871,319.2568,150.2871,309.2568,154.2871,313.2568,150.2871" style="stroke:#181818;stroke-width:1.0;"/><line style="stroke:#181818;stroke-width:1.0;" x1="63.2305" x2="315.2568" y1="150.2871" y2="150.2871"/><text fill="#000000" font-family="sans-serif" font-size="13" font-weight="bold" lengthAdjust="spacing" textLength="8.5757" x="70.2305" y="145.5449">1</text><text fill="#000000" font-family="sans-serif" font-size="13" lengthAdjust="spacing" textLength="145.4946" x="82.8062" y="145.5449">requestListCategories()</text><line style="stroke:#181818;stroke-width:1.0;" x1="331.2568" x2="373.2568" y1="179.5977" y2="179.5977"/><line style="stroke:#181818;stroke-width:1.0;" x1="373.2568" x2="373.2568" y1="179.5977" y2="192.5977"/><line style="stroke:#181818;stroke-width:1.0;" x1="332.2568" x2="373.2568" y1="192.5977" y2="192.5977"/><polygon fill="#181818" points="342.2568,188.5977,332.2568,192.5977,342.2568,196.5977,338.2568,192.5977" style="stroke:#181818;stroke-width:1.0;"/><text fill="#000000" font-family="sans-serif" font-size="13" font-weight="bold" lengthAdjust="spacing" textLength="8.5757" x="338.2568" y="174.8555">2</text><text fill="#000000" font-family="sans-serif" font-size="13" lengthAdjust="spacing" textLength="123.8682" x="350.8325" y="174.8555">fetchAllCategories()</text><line style="stroke:#181818;stroke-width:1.0;" x1="331.2568" x2="373.2568" y1="221.9082" y2="221.9082"/><line style="stroke:#181818;stroke-width:1.0;" x1="373.2568" x2="373.2568" y1="221.9082" y2="234.9082"/><line style="stroke:#181818;stroke-width:1.0;" x1="332.2568" x2="373.2568" y1="234.9082" y2="234.9082"/><polygon fill="#181818" points="342.2568,230.9082,332.2568,234.9082,342.2568,238.9082,338.2568,234.9082" style="stroke:#181818;stroke-width:1.0;"/><text fill="#000000" font-family="sans-serif" font-size="13" font-weight="bold" lengthAdjust="spacing" textLength="8.5757" x="338.2568" y="217.166">3</text><text fill="#000000" font-family="sans-serif" font-size="13" lengthAdjust="spacing" textLength="136.519" x="350.8325" y="217.166">filterByStatus(ACTIVE)</text><line style="stroke:#181818;stroke-width:1.0;" x1="331.2568" x2="373.2568" y1="264.2188" y2="264.2188"/><line style="stroke:#181818;stroke-width:1.0;" x1="373.2568" x2="373.2568" y1="264.2188" y2="277.2188"/><line style="stroke:#181818;stroke-width:1.0;" x1="332.2568" x2="373.2568" y1="277.2188" y2="277.2188"/><polygon fill="#181818" points="342.2568,273.2188,332.2568,277.2188,342.2568,281.2188,338.2568,277.2188" style="stroke:#181818;stroke-width:1.0;"/><text fill="#000000" font-family="sans-serif" font-size="13" font-weight="bold" lengthAdjust="spacing" textLength="8.5757" x="338.2568" y="259.4766">4</text><text fill="#000000" font-family="sans-serif" font-size="13" lengthAdjust="spacing" textLength="150.998" x="350.8325" y="259.4766">sortCategoriesByName()</text><polygon fill="#181818" points="69.2305,302.5293,59.2305,306.5293,69.2305,310.5293,65.2305,306.5293" style="stroke:#181818;stroke-width:1.0;"/><line style="stroke:#181818;stroke-width:1.0;" x1="63.2305" x2="325.2568" y1="306.5293" y2="306.5293"/><text fill="#000000" font-family="sans-serif" font-size="13" font-weight="bold" lengthAdjust="spacing" textLength="8.5757" x="75.2305" y="301.7871">5</text><text fill="#000000" font-family="sans-serif" font-size="13" lengthAdjust="spacing" textLength="221.4507" x="87.8062" y="301.7871">displayCategories(listOfCategories)</text><!--SRC=[ROzBRW8n38RtEON5QbXm0HQLWBHI9TGkKdNl1fEno2JJs5Cqjszug0mLEyl-_eVbmAd7WXrqEMNVbjmHQ1d8oD-bHt_0G4x7I538AwOGfu2qkCj7JW7s68MCKTQAkb6KEd3qFL3o19OndF36EJk71MnP55uu38LWWqeX5oOn1WVDQUY-gDJPQoumSsq-WYNXaAZC00MSDJLSsNEFIM6slAHTRkVnBEQVQdo2ZREmUBgUblMDMahqLE4MtSmdagl7zOc9T4_gsrMCTxe764UbiXwTeWxIh3OVhv_FZq39PT9XFRvXH_UETWaxbZxYECcCjVhx_hQO6xEZ__Md6sj-0G00]--></g></svg>