<svg xmlns="http://www.w3.org/2000/svg" xmlns:xlink="http://www.w3.org/1999/xlink" contentStyleType="text/css" height="835px" preserveAspectRatio="none" style="width:1551px;height:835px;background:#FFFFFF;" version="1.1" viewBox="0 0 1551 835" width="1551px" zoomAndPan="magnify"><defs/><g><rect fill="none" height="356.541" style="stroke:#000000;stroke-width:1.5;" width="1252.7646" x="181.064" y="378.9492"/><line style="stroke:#181818;stroke-width:0.5;stroke-dasharray:5.0,5.0;" x1="38" x2="38" y1="83.6211" y2="752.4902"/><line style="stroke:#181818;stroke-width:0.5;stroke-dasharray:5.0,5.0;" x1="242.064" x2="242.064" y1="83.6211" y2="752.4902"/><line style="stroke:#181818;stroke-width:0.5;stroke-dasharray:5.0,5.0;" x1="454.4849" x2="454.4849" y1="83.6211" y2="752.4902"/><line style="stroke:#181818;stroke-width:0.5;stroke-dasharray:5.0,5.0;" x1="810.1753" x2="810.1753" y1="83.6211" y2="752.4902"/><line style="stroke:#181818;stroke-width:0.5;stroke-dasharray:5.0,5.0;" x1="1275.1182" x2="1275.1182" y1="83.6211" y2="752.4902"/><line style="stroke:#181818;stroke-width:0.5;stroke-dasharray:5.0,5.0;" x1="1459.083" x2="1459.083" y1="83.6211" y2="752.4902"/><text fill="#000000" font-family="sans-serif" font-size="14" lengthAdjust="spacing" textLength="60.6826" x="5" y="80.1074">Customer</text><ellipse cx="38.3413" cy="13.5" fill="#E2E2F0" rx="8" ry="8" style="stroke:#181818;stroke-width:0.5;"/><path d="M38.3413,21.5 L38.3413,48.5 M25.3413,29.5 L51.3413,29.5 M38.3413,48.5 L25.3413,63.5 M38.3413,48.5 L51.3413,63.5 " fill="none" style="stroke:#181818;stroke-width:0.5;"/><text fill="#000000" font-family="sans-serif" font-size="14" lengthAdjust="spacing" textLength="60.6826" x="5" y="766.5977">Customer</text><ellipse cx="38.3413" cy="778.6113" fill="#E2E2F0" rx="8" ry="8" style="stroke:#181818;stroke-width:0.5;"/><path d="M38.3413,786.6113 L38.3413,813.6113 M25.3413,794.6113 L51.3413,794.6113 M38.3413,813.6113 L25.3413,828.6113 M38.3413,813.6113 L51.3413,828.6113 " fill="none" style="stroke:#181818;stroke-width:0.5;"/><rect fill="#E2E2F0" height="32.6211" rx="2.5" ry="2.5" style="stroke:#181818;stroke-width:0.5;" width="103.4824" x="191.064" y="50"/><text fill="#000000" font-family="sans-serif" font-size="14" lengthAdjust="spacing" textLength="89.4824" x="198.064" y="72.1074">Customer App</text><rect fill="#E2E2F0" height="32.6211" rx="2.5" ry="2.5" style="stroke:#181818;stroke-width:0.5;" width="103.4824" x="191.064" y="751.4902"/><text fill="#000000" font-family="sans-serif" font-size="14" lengthAdjust="spacing" textLength="89.4824" x="198.064" y="773.5977">Customer App</text><rect fill="#E2E2F0" height="32.6211" rx="2.5" ry="2.5" style="stroke:#181818;stroke-width:0.5;" width="77.793" x="416.4849" y="50"/><text fill="#000000" font-family="sans-serif" font-size="14" lengthAdjust="spacing" textLength="63.793" x="423.4849" y="72.1074">TCPClient</text><rect fill="#E2E2F0" height="32.6211" rx="2.5" ry="2.5" style="stroke:#181818;stroke-width:0.5;" width="77.793" x="416.4849" y="751.4902"/><text fill="#000000" font-family="sans-serif" font-size="14" lengthAdjust="spacing" textLength="63.793" x="423.4849" y="773.5977">TCPClient</text><rect fill="#E2E2F0" height="32.6211" rx="2.5" ry="2.5" style="stroke:#181818;stroke-width:0.5;" width="83.2344" x="769.1753" y="50"/><text fill="#000000" font-family="sans-serif" font-size="14" lengthAdjust="spacing" textLength="69.2344" x="776.1753" y="72.1074">TCPServer</text><rect fill="#E2E2F0" height="32.6211" rx="2.5" ry="2.5" style="stroke:#181818;stroke-width:0.5;" width="83.2344" x="769.1753" y="751.4902"/><text fill="#000000" font-family="sans-serif" font-size="14" lengthAdjust="spacing" textLength="69.2344" x="776.1753" y="773.5977">TCPServer</text><rect fill="#E2E2F0" height="32.6211" rx="2.5" ry="2.5" style="stroke:#181818;stroke-width:0.5;" width="185.9648" x="1183.1182" y="50"/><text fill="#000000" font-family="sans-serif" font-size="14" lengthAdjust="spacing" textLength="171.9648" x="1190.1182" y="72.1074">CheckShowDatesController</text><rect fill="#E2E2F0" height="32.6211" rx="2.5" ry="2.5" style="stroke:#181818;stroke-width:0.5;" width="185.9648" x="1183.1182" y="751.4902"/><text fill="#000000" font-family="sans-serif" font-size="14" lengthAdjust="spacing" textLength="171.9648" x="1190.1182" y="773.5977">CheckShowDatesController</text><text fill="#000000" font-family="sans-serif" font-size="14" lengthAdjust="spacing" textLength="154.082" x="1379.083" y="80.1074">ShowRequestRepository</text><path d="M1441.124,29 C1441.124,19 1459.124,19 1459.124,19 C1459.124,19 1477.124,19 1477.124,29 L1477.124,55 C1477.124,65 1459.124,65 1459.124,65 C1459.124,65 1441.124,65 1441.124,55 L1441.124,29 " fill="#E2E2F0" style="stroke:#181818;stroke-width:1.5;"/><path d="M1441.124,29 C1441.124,39 1459.124,39 1459.124,39 C1459.124,39 1477.124,39 1477.124,29 " fill="none" style="stroke:#181818;stroke-width:1.5;"/><text fill="#000000" font-family="sans-serif" font-size="14" lengthAdjust="spacing" textLength="154.082" x="1379.083" y="766.5977">ShowRequestRepository</text><path d="M1441.124,780.1113 C1441.124,770.1113 1459.124,770.1113 1459.124,770.1113 C1459.124,770.1113 1477.124,770.1113 1477.124,780.1113 L1477.124,806.1113 C1477.124,816.1113 1459.124,816.1113 1459.124,816.1113 C1459.124,816.1113 1441.124,816.1113 1441.124,806.1113 L1441.124,780.1113 " fill="#E2E2F0" style="stroke:#181818;stroke-width:1.5;"/><path d="M1441.124,780.1113 C1441.124,790.1113 1459.124,790.1113 1459.124,790.1113 C1459.124,790.1113 1477.124,790.1113 1477.124,780.1113 " fill="none" style="stroke:#181818;stroke-width:1.5;"/><rect fill="#EEEEEE" height="3" style="stroke:#EEEEEE;stroke-width:1.0;" width="1544.165" x="0" y="115.2666"/><line style="stroke:#000000;stroke-width:1.0;" x1="0" x2="1544.165" y1="115.2666" y2="115.2666"/><line style="stroke:#000000;stroke-width:1.0;" x1="0" x2="1544.165" y1="118.2666" y2="118.2666"/><rect fill="#EEEEEE" height="25.291" style="stroke:#000000;stroke-width:2.0;" width="153.4263" x="695.3694" y="103.6211"/><text fill="#000000" font-family="sans-serif" font-size="13" font-weight="bold" lengthAdjust="spacing" textLength="135.8145" x="701.3694" y="121.6494">Cliente solicita shows</text><polygon fill="#181818" points="230.8052,158.2031,240.8052,162.2031,230.8052,166.2031,234.8052,162.2031" style="stroke:#181818;stroke-width:1.0;"/><line style="stroke:#181818;stroke-width:1.0;" x1="38.3413" x2="236.8052" y1="162.2031" y2="162.2031"/><text fill="#000000" font-family="sans-serif" font-size="13" lengthAdjust="spacing" textLength="180.4639" x="45.3413" y="156.9404">Select "Check My Show Dates"</text><polygon fill="#181818" points="443.3813,189.4941,453.3813,193.4941,443.3813,197.4941,447.3813,193.4941" style="stroke:#181818;stroke-width:1.0;"/><line style="stroke:#181818;stroke-width:1.0;" x1="242.8052" x2="449.3813" y1="193.4941" y2="193.4941"/><text fill="#000000" font-family="sans-serif" font-size="13" lengthAdjust="spacing" textLength="188.5762" x="249.8052" y="188.2314">Send request with Customer NIF</text><polygon fill="#181818" points="798.7925,220.7852,808.7925,224.7852,798.7925,228.7852,802.7925,224.7852" style="stroke:#181818;stroke-width:1.0;"/><line style="stroke:#181818;stroke-width:1.0;" x1="455.3813" x2="804.7925" y1="224.7852" y2="224.7852"/><text fill="#000000" font-family="sans-serif" font-size="13" lengthAdjust="spacing" textLength="331.4111" x="462.3813" y="219.5225">JSON ObjectDTO (action: "CHECK_SHOW_DATES", nif)</text><rect fill="#EEEEEE" height="3" style="stroke:#EEEEEE;stroke-width:1.0;" width="1544.165" x="0" y="254.4307"/><line style="stroke:#000000;stroke-width:1.0;" x1="0" x2="1544.165" y1="254.4307" y2="254.4307"/><line style="stroke:#000000;stroke-width:1.0;" x1="0" x2="1544.165" y1="257.4307" y2="257.4307"/><rect fill="#EEEEEE" height="25.291" style="stroke:#000000;stroke-width:2.0;" width="188.8271" x="677.6689" y="242.7852"/><text fill="#000000" font-family="sans-serif" font-size="13" font-weight="bold" lengthAdjust="spacing" textLength="171.2153" x="683.6689" y="260.8135">Servidor processa o pedido</text><polygon fill="#181818" points="1264.1006,297.3672,1274.1006,301.3672,1264.1006,305.3672,1268.1006,301.3672" style="stroke:#181818;stroke-width:1.0;"/><line style="stroke:#181818;stroke-width:1.0;" x1="810.7925" x2="1270.1006" y1="301.3672" y2="301.3672"/><text fill="#000000" font-family="sans-serif" font-size="13" lengthAdjust="spacing" textLength="150.998" x="817.7925" y="296.1045">getShowsByCustomer(nif)</text><polygon fill="#181818" points="1447.124,328.6582,1457.124,332.6582,1447.124,336.6582,1451.124,332.6582" style="stroke:#181818;stroke-width:1.0;"/><line style="stroke:#181818;stroke-width:1.0;" x1="1276.1006" x2="1453.124" y1="332.6582" y2="332.6582"/><text fill="#000000" font-family="sans-serif" font-size="13" lengthAdjust="spacing" textLength="114.8672" x="1283.1006" y="327.3955">findByCustomer(nif)</text><polygon fill="#181818" points="1287.1006,359.9492,1277.1006,363.9492,1287.1006,367.9492,1283.1006,363.9492" style="stroke:#181818;stroke-width:1.0;"/><line style="stroke:#181818;stroke-width:1.0;stroke-dasharray:2.0,2.0;" x1="1281.1006" x2="1458.124" y1="363.9492" y2="363.9492"/><text fill="#000000" font-family="sans-serif" font-size="13" lengthAdjust="spacing" textLength="116.3525" x="1293.1006" y="358.6865">List&lt;ShowRequest&gt;</text><path d="M181.064,378.9492 L241.2349,378.9492 L241.2349,388.2402 L231.2349,398.2402 L181.064,398.2402 L181.064,378.9492 " fill="#EEEEEE" style="stroke:#000000;stroke-width:1.5;"/><rect fill="none" height="356.541" style="stroke:#000000;stroke-width:1.5;" width="1252.7646" x="181.064" y="378.9492"/><text fill="#000000" font-family="sans-serif" font-size="13" font-weight="bold" lengthAdjust="spacing" textLength="15.1709" x="196.064" y="393.9775">alt</text><text fill="#000000" font-family="sans-serif" font-size="11" font-weight="bold" lengthAdjust="spacing" textLength="97.147" x="256.2349" y="392.8193">[No Shows Found]</text><polygon fill="#181818" points="821.7925,417.5313,811.7925,421.5313,821.7925,425.5313,817.7925,421.5313" style="stroke:#181818;stroke-width:1.0;"/><line style="stroke:#181818;stroke-width:1.0;stroke-dasharray:2.0,2.0;" x1="815.7925" x2="1275.1006" y1="421.5313" y2="421.5313"/><text fill="#000000" font-family="sans-serif" font-size="13" lengthAdjust="spacing" textLength="441.3081" x="827.7925" y="416.2686">JSON ObjectDTO (message: "No scheduled shows found for your account.")</text><polygon fill="#181818" points="466.3813,448.8223,456.3813,452.8223,466.3813,456.8223,462.3813,452.8223" style="stroke:#181818;stroke-width:1.0;"/><line style="stroke:#181818;stroke-width:1.0;stroke-dasharray:2.0,2.0;" x1="460.3813" x2="809.7925" y1="452.8223" y2="452.8223"/><text fill="#000000" font-family="sans-serif" font-size="13" lengthAdjust="spacing" textLength="53.479" x="472.3813" y="447.5596">response</text><polygon fill="#181818" points="253.8052,480.1133,243.8052,484.1133,253.8052,488.1133,249.8052,484.1133" style="stroke:#181818;stroke-width:1.0;"/><line style="stroke:#181818;stroke-width:1.0;stroke-dasharray:2.0,2.0;" x1="247.8052" x2="454.3813" y1="484.1133" y2="484.1133"/><text fill="#000000" font-family="sans-serif" font-size="13" lengthAdjust="spacing" textLength="88.8799" x="259.8052" y="478.8506">Show message</text><line style="stroke:#000000;stroke-width:1.0;stroke-dasharray:2.0,2.0;" x1="181.064" x2="1433.8286" y1="493.1133" y2="493.1133"/><text fill="#000000" font-family="sans-serif" font-size="11" font-weight="bold" lengthAdjust="spacing" textLength="79.4277" x="186.064" y="504.9834">[Shows Found]</text><line style="stroke:#181818;stroke-width:1.0;" x1="1276.1006" x2="1318.1006" y1="532.0352" y2="532.0352"/><line style="stroke:#181818;stroke-width:1.0;" x1="1318.1006" x2="1318.1006" y1="532.0352" y2="545.0352"/><line style="stroke:#181818;stroke-width:1.0;" x1="1277.1006" x2="1318.1006" y1="545.0352" y2="545.0352"/><polygon fill="#181818" points="1287.1006,541.0352,1277.1006,545.0352,1287.1006,549.0352,1283.1006,545.0352" style="stroke:#181818;stroke-width:1.0;"/><text fill="#000000" font-family="sans-serif" font-size="13" lengthAdjust="spacing" textLength="132.209" x="1283.1006" y="526.7725">Filter out CANCELLED</text><line style="stroke:#181818;stroke-width:1.0;" x1="1276.1006" x2="1318.1006" y1="576.3262" y2="576.3262"/><line style="stroke:#181818;stroke-width:1.0;" x1="1318.1006" x2="1318.1006" y1="576.3262" y2="589.3262"/><line style="stroke:#181818;stroke-width:1.0;" x1="1277.1006" x2="1318.1006" y1="589.3262" y2="589.3262"/><polygon fill="#181818" points="1287.1006,585.3262,1277.1006,589.3262,1287.1006,593.3262,1283.1006,589.3262" style="stroke:#181818;stroke-width:1.0;"/><text fill="#000000" font-family="sans-serif" font-size="13" lengthAdjust="spacing" textLength="132.9771" x="1283.1006" y="571.0635">Sort by date ascending</text><line style="stroke:#181818;stroke-width:1.0;" x1="1276.1006" x2="1318.1006" y1="620.6172" y2="620.6172"/><line style="stroke:#181818;stroke-width:1.0;" x1="1318.1006" x2="1318.1006" y1="620.6172" y2="633.6172"/><line style="stroke:#181818;stroke-width:1.0;" x1="1277.1006" x2="1318.1006" y1="633.6172" y2="633.6172"/><polygon fill="#181818" points="1287.1006,629.6172,1277.1006,633.6172,1287.1006,637.6172,1283.1006,633.6172" style="stroke:#181818;stroke-width:1.0;"/><text fill="#000000" font-family="sans-serif" font-size="13" lengthAdjust="spacing" textLength="138.728" x="1283.1006" y="615.3545">Map to List&lt;ShowDTO&gt;</text><polygon fill="#181818" points="821.7925,660.9082,811.7925,664.9082,821.7925,668.9082,817.7925,664.9082" style="stroke:#181818;stroke-width:1.0;"/><line style="stroke:#181818;stroke-width:1.0;stroke-dasharray:2.0,2.0;" x1="815.7925" x2="1275.1006" y1="664.9082" y2="664.9082"/><text fill="#000000" font-family="sans-serif" font-size="13" lengthAdjust="spacing" textLength="186.3672" x="827.7925" y="659.6455">JSON ObjectDTO (list of shows)</text><polygon fill="#181818" points="466.3813,692.1992,456.3813,696.1992,466.3813,700.1992,462.3813,696.1992" style="stroke:#181818;stroke-width:1.0;"/><line style="stroke:#181818;stroke-width:1.0;stroke-dasharray:2.0,2.0;" x1="460.3813" x2="809.7925" y1="696.1992" y2="696.1992"/><text fill="#000000" font-family="sans-serif" font-size="13" lengthAdjust="spacing" textLength="53.479" x="472.3813" y="690.9365">response</text><polygon fill="#181818" points="253.8052,723.4902,243.8052,727.4902,253.8052,731.4902,249.8052,727.4902" style="stroke:#181818;stroke-width:1.0;"/><line style="stroke:#181818;stroke-width:1.0;stroke-dasharray:2.0,2.0;" x1="247.8052" x2="454.3813" y1="727.4902" y2="727.4902"/><text fill="#000000" font-family="sans-serif" font-size="13" lengthAdjust="spacing" textLength="106.9326" x="259.8052" y="722.2275">Show list of shows</text><!--SRC=[fL9TJ-Cm47pthrZb2QJZVW2wLkgbhU0eBIALxh5odMrhCBQnDw3y-rixAIr50ft8G-IFcPtPMKj5Ba1HDf7S4uO2P8HHEXDU1j9AUsdfS0yZxpkCz-yHo_AkD1ejvUjk-G5HONZfHRhbYSeErMErSwzZIHXBPoauOth2OIjgIN8j8qAHmFVut62aU_GkQdRUPdZQ2Z4Oz5OGeZCiH18YSo8C1aBaHk5YcBg1IxPaKErjm6qBgJfaBuL844PsrJBOrX0wQNZLj8EtZERNKz7ZcD4roem_rM8EY_K3QuoN2pYJYhIpbwntDIblLjNLukzgF5fEgk87MBqvp-uJMzViqWUdC4O93ZpMV9Gxw8idOs_niDGMANcFlzkzgRDSyGZ4b1GHWpVQrgV0V7LnMdQc8_qwYdmeX3G4SvUJYZ1rZQq5y7Siz5a6JwcbBN88N2Ig7TQDmReVqIQLut-0rZK1f59yG3-ByoonR_ruA06ZTpPYvw4VmM6-QPozea33x-SpsoUzJxKXNhY6e1pDoybiDXb_nQbS85YtmEyL-KqgVZBQRhzYtKeFv0vXSr33_mhLC1FSfalnMs6zgoJO_Zy0]--></g></svg>