<svg xmlns="http://www.w3.org/2000/svg" xmlns:xlink="http://www.w3.org/1999/xlink" contentStyleType="text/css" height="709px" preserveAspectRatio="none" style="width:982px;height:709px;background:#FFFFFF;" version="1.1" viewBox="0 0 982 709" width="982px" zoomAndPan="magnify"><title>Initialization and Cleanup Sequence Diagram - US263</title><defs/><g><text fill="#000000" font-family="sans-serif" font-size="14" font-weight="bold" lengthAdjust="spacing" textLength="369.6126" x="307.8715" y="29.9659">Initialization and Cleanup Sequence Diagram - US263</text><rect fill="#FFFFFF" height="452.8842" style="stroke:#181818;stroke-width:1.0;" width="10" x="55.5208" y="134.1358"/><rect fill="#FFFFFF" height="458.8842" style="stroke:#181818;stroke-width:1.0;" width="10" x="235.559" y="157.8419"/><rect fill="#FFFFFF" height="147.5301" style="stroke:#181818;stroke-width:1.0;" width="10" x="240.559" y="439.49"/><rect fill="#FFFFFF" height="132.8241" style="stroke:#181818;stroke-width:1.0;" width="10" x="517.8162" y="189.5479"/><rect fill="#FFFFFF" height="52.412" style="stroke:#181818;stroke-width:1.0;" width="10" x="517.8162" y="534.608"/><rect fill="#FFFFFF" height="31.706" style="stroke:#181818;stroke-width:1.0;" width="10" x="644.9118" y="252.9599"/><rect fill="none" height="64.412" style="stroke:#000000;stroke-width:1.5;" width="323.0431" x="199.773" y="344.3719"/><line style="stroke:#181818;stroke-width:0.5;stroke-dasharray:5.0,5.0;" x1="60" x2="60" y1="124.1358" y2="625.7261"/><line style="stroke:#181818;stroke-width:0.5;stroke-dasharray:5.0,5.0;" x1="239.773" x2="239.773" y1="124.1358" y2="625.7261"/><line style="stroke:#181818;stroke-width:0.5;stroke-dasharray:5.0,5.0;" x1="522.6054" x2="522.6054" y1="124.1358" y2="625.7261"/><line style="stroke:#181818;stroke-width:0.5;stroke-dasharray:5.0,5.0;" x1="649.027" x2="649.027" y1="124.1358" y2="625.7261"/><text fill="#000000" font-family="sans-serif" font-size="14" lengthAdjust="spacing" textLength="105.0416" x="5" y="120.0339">Drone Operator</text><ellipse cx="60.5208" cy="53.5679" fill="#E3E3E3" rx="8" ry="8" style="stroke:#181818;stroke-width:0.5;"/><path d="M60.5208,61.5679 L60.5208,88.5679 M47.5208,69.5679 L73.5208,69.5679 M60.5208,88.5679 L47.5208,103.5679 M60.5208,88.5679 L73.5208,103.5679 " fill="none" style="stroke:#181818;stroke-width:0.5;"/><text fill="#000000" font-family="sans-serif" font-size="14" lengthAdjust="spacing" textLength="105.0416" x="5" y="639.692">Drone Operator</text><ellipse cx="60.5208" cy="652.294" fill="#E3E3E3" rx="8" ry="8" style="stroke:#181818;stroke-width:0.5;"/><path d="M60.5208,660.294 L60.5208,687.294 M47.5208,668.294 L73.5208,668.294 M60.5208,687.294 L47.5208,702.294 M60.5208,687.294 L73.5208,702.294 " fill="none" style="stroke:#181818;stroke-width:0.5;"/><rect fill="#E3E3E3" height="33.0679" rx="2.5" ry="2.5" style="stroke:#181818;stroke-width:0.5;" width="61.5718" x="209.773" y="90.0679"/><text fill="#000000" font-family="sans-serif" font-size="14" lengthAdjust="spacing" textLength="47.5718" x="216.773" y="112.0339">System</text><rect fill="#E3E3E3" height="33.0679" rx="2.5" ry="2.5" style="stroke:#181818;stroke-width:0.5;" width="61.5718" x="209.773" y="624.7261"/><text fill="#000000" font-family="sans-serif" font-size="14" lengthAdjust="spacing" textLength="47.5718" x="216.773" y="646.692">System</text><rect fill="#E3E3E3" height="33.0679" rx="2.5" ry="2.5" style="stroke:#181818;stroke-width:0.5;" width="128.4216" x="458.6054" y="90.0679"/><text fill="#000000" font-family="sans-serif" font-size="14" lengthAdjust="spacing" textLength="114.4216" x="465.6054" y="112.0339">MemoryManager</text><rect fill="#E3E3E3" height="33.0679" rx="2.5" ry="2.5" style="stroke:#181818;stroke-width:0.5;" width="128.4216" x="458.6054" y="624.7261"/><text fill="#000000" font-family="sans-serif" font-size="14" lengthAdjust="spacing" textLength="114.4216" x="465.6054" y="646.692">MemoryManager</text><rect fill="#E3E3E3" height="33.0679" rx="2.5" ry="2.5" style="stroke:#181818;stroke-width:0.5;" width="105.7697" x="597.027" y="90.0679"/><text fill="#000000" font-family="sans-serif" font-size="14" lengthAdjust="spacing" textLength="91.7697" x="604.027" y="112.0339">DroneProcess</text><rect fill="#E3E3E3" height="33.0679" rx="2.5" ry="2.5" style="stroke:#181818;stroke-width:0.5;" width="105.7697" x="597.027" y="624.7261"/><text fill="#000000" font-family="sans-serif" font-size="14" lengthAdjust="spacing" textLength="91.7697" x="604.027" y="646.692">DroneProcess</text><rect fill="#FFFFFF" height="452.8842" style="stroke:#181818;stroke-width:1.0;" width="10" x="55.5208" y="134.1358"/><rect fill="#FFFFFF" height="458.8842" style="stroke:#181818;stroke-width:1.0;" width="10" x="235.559" y="157.8419"/><rect fill="#FFFFFF" height="147.5301" style="stroke:#181818;stroke-width:1.0;" width="10" x="240.559" y="439.49"/><rect fill="#FFFFFF" height="132.8241" style="stroke:#181818;stroke-width:1.0;" width="10" x="517.8162" y="189.5479"/><rect fill="#FFFFFF" height="52.412" style="stroke:#181818;stroke-width:1.0;" width="10" x="517.8162" y="534.608"/><rect fill="#FFFFFF" height="31.706" style="stroke:#181818;stroke-width:1.0;" width="10" x="644.9118" y="252.9599"/><polygon fill="#181818" points="223.559,153.8419,233.559,157.8419,223.559,161.8419,227.559,157.8419" style="stroke:#181818;stroke-width:1.0;"/><line style="stroke:#181818;stroke-width:1.0;" x1="65.5208" x2="229.559" y1="157.8419" y2="157.8419"/><text fill="#000000" font-family="sans-serif" font-size="13" font-weight="bold" lengthAdjust="spacing" textLength="7.436" x="72.5208" y="152.0328">1</text><text fill="#000000" font-family="sans-serif" font-size="13" lengthAdjust="spacing" textLength="136.0971" x="83.9568" y="152.0328">start show monitoring</text><polygon fill="#181818" points="505.8162,185.5479,515.8162,189.5479,505.8162,193.5479,509.8162,189.5479" style="stroke:#181818;stroke-width:1.0;"/><line style="stroke:#181818;stroke-width:1.0;" x1="245.559" x2="511.8162" y1="189.5479" y2="189.5479"/><text fill="#000000" font-family="sans-serif" font-size="13" font-weight="bold" lengthAdjust="spacing" textLength="7.436" x="252.559" y="183.7389">2</text><text fill="#000000" font-family="sans-serif" font-size="13" lengthAdjust="spacing" textLength="218.3092" x="263.995" y="183.7389">allocate historyOfRadar and stamps</text><polygon fill="#181818" points="256.559,217.2539,246.559,221.2539,256.559,225.2539,252.559,221.2539" style="stroke:#181818;stroke-width:1.0;"/><line style="stroke:#181818;stroke-width:1.0;stroke-dasharray:2.0,2.0;" x1="250.559" x2="516.8162" y1="221.2539" y2="221.2539"/><text fill="#000000" font-family="sans-serif" font-size="13" font-weight="bold" lengthAdjust="spacing" textLength="7.436" x="262.559" y="215.4449">3</text><text fill="#000000" font-family="sans-serif" font-size="13" lengthAdjust="spacing" textLength="110.3051" x="273.995" y="215.4449">memory allocated</text><polygon fill="#181818" points="632.9118,248.9599,642.9118,252.9599,632.9118,256.9599,636.9118,252.9599" style="stroke:#181818;stroke-width:1.0;"/><line style="stroke:#181818;stroke-width:1.0;" x1="245.559" x2="638.9118" y1="252.9599" y2="252.9599"/><text fill="#000000" font-family="sans-serif" font-size="13" font-weight="bold" lengthAdjust="spacing" textLength="7.436" x="252.559" y="247.1509">4</text><text fill="#000000" font-family="sans-serif" font-size="13" lengthAdjust="spacing" textLength="143.9361" x="263.995" y="247.1509">spawn drone processes</text><polygon fill="#181818" points="256.559,280.6659,246.559,284.6659,256.559,288.6659,252.559,284.6659" style="stroke:#181818;stroke-width:1.0;"/><line style="stroke:#181818;stroke-width:1.0;stroke-dasharray:2.0,2.0;" x1="250.559" x2="648.9118" y1="284.6659" y2="284.6659"/><text fill="#000000" font-family="sans-serif" font-size="13" font-weight="bold" lengthAdjust="spacing" textLength="7.436" x="262.559" y="278.8569">5</text><text fill="#000000" font-family="sans-serif" font-size="13" lengthAdjust="spacing" textLength="107.7961" x="273.995" y="278.8569">processes started</text><line style="stroke:#181818;stroke-width:1.0;" x1="245.559" x2="287.559" y1="316.3719" y2="316.3719"/><line style="stroke:#181818;stroke-width:1.0;" x1="287.559" x2="287.559" y1="316.3719" y2="329.3719"/><line style="stroke:#181818;stroke-width:1.0;" x1="246.559" x2="287.559" y1="329.3719" y2="329.3719"/><polygon fill="#181818" points="256.559,325.3719,246.559,329.3719,256.559,333.3719,252.559,329.3719" style="stroke:#181818;stroke-width:1.0;"/><text fill="#000000" font-family="sans-serif" font-size="13" font-weight="bold" lengthAdjust="spacing" textLength="7.436" x="252.559" y="310.5629">6</text><text fill="#000000" font-family="sans-serif" font-size="13" lengthAdjust="spacing" textLength="179.1142" x="263.995" y="310.5629">begin collision detection loop</text><path d="M199.773,344.3719 L273.0611,344.3719 L273.0611,354.0779 L263.0611,364.0779 L199.773,364.0779 L199.773,344.3719 " fill="#EEEEEE" style="stroke:#000000;stroke-width:1.5;"/><rect fill="none" height="64.412" style="stroke:#000000;stroke-width:1.5;" width="323.0431" x="199.773" y="344.3719"/><text fill="#000000" font-family="sans-serif" font-size="13" font-weight="bold" lengthAdjust="spacing" textLength="28.288" x="214.773" y="359.2689">loop</text><text fill="#000000" font-family="sans-serif" font-size="11" font-weight="bold" lengthAdjust="spacing" textLength="115.1692" x="288.0611" y="358.1308">[for each timestamp]</text><line style="stroke:#181818;stroke-width:1.0;stroke-dasharray:2.0,2.0;" x1="245.559" x2="287.559" y1="387.784" y2="387.784"/><line style="stroke:#181818;stroke-width:1.0;stroke-dasharray:2.0,2.0;" x1="287.559" x2="287.559" y1="387.784" y2="400.784"/><line style="stroke:#181818;stroke-width:1.0;stroke-dasharray:2.0,2.0;" x1="246.559" x2="287.559" y1="400.784" y2="400.784"/><polygon fill="#181818" points="256.559,396.784,246.559,400.784,256.559,404.784,252.559,400.784" style="stroke:#181818;stroke-width:1.0;"/><text fill="#000000" font-family="sans-serif" font-size="13" font-weight="bold" lengthAdjust="spacing" textLength="7.436" x="252.559" y="381.975">7</text><text fill="#000000" font-family="sans-serif" font-size="13" lengthAdjust="spacing" textLength="236.8212" x="263.995" y="381.975">...(collision detection process as above)</text><polygon fill="#181818" points="228.559,435.49,238.559,439.49,228.559,443.49,232.559,439.49" style="stroke:#181818;stroke-width:1.0;"/><line style="stroke:#181818;stroke-width:1.0;" x1="65.5208" x2="234.559" y1="439.49" y2="439.49"/><text fill="#000000" font-family="sans-serif" font-size="13" font-weight="bold" lengthAdjust="spacing" textLength="7.436" x="72.5208" y="433.681">8</text><text fill="#000000" font-family="sans-serif" font-size="13" lengthAdjust="spacing" textLength="134.6021" x="83.9568" y="433.681">stop show monitoring</text><polygon fill="#181818" points="637.9118,467.196,647.9118,471.196,637.9118,475.196,641.9118,471.196" style="stroke:#181818;stroke-width:1.0;"/><line style="stroke:#181818;stroke-width:1.0;" x1="250.559" x2="643.9118" y1="471.196" y2="471.196"/><text fill="#000000" font-family="sans-serif" font-size="13" font-weight="bold" lengthAdjust="spacing" textLength="7.436" x="257.559" y="465.387">9</text><text fill="#000000" font-family="sans-serif" font-size="13" lengthAdjust="spacing" textLength="238.4462" x="268.995" y="465.387">send SIGCONT and wait for completion</text><polygon fill="#181818" points="261.559,498.902,251.559,502.902,261.559,506.902,257.559,502.902" style="stroke:#181818;stroke-width:1.0;"/><line style="stroke:#181818;stroke-width:1.0;stroke-dasharray:2.0,2.0;" x1="255.559" x2="648.9118" y1="502.902" y2="502.902"/><text fill="#000000" font-family="sans-serif" font-size="13" font-weight="bold" lengthAdjust="spacing" textLength="14.872" x="267.559" y="497.093">10</text><text fill="#000000" font-family="sans-serif" font-size="13" lengthAdjust="spacing" textLength="132.4441" x="286.431" y="497.093">processes terminated</text><polygon fill="#181818" points="505.8162,530.608,515.8162,534.608,505.8162,538.608,509.8162,534.608" style="stroke:#181818;stroke-width:1.0;"/><line style="stroke:#181818;stroke-width:1.0;" x1="250.559" x2="511.8162" y1="534.608" y2="534.608"/><text fill="#000000" font-family="sans-serif" font-size="13" font-weight="bold" lengthAdjust="spacing" textLength="14.872" x="257.559" y="528.799">11</text><text fill="#000000" font-family="sans-serif" font-size="13" lengthAdjust="spacing" textLength="195.3902" x="276.431" y="528.799">free historyOfRadar and stamps</text><polygon fill="#181818" points="256.559,583.0201,246.559,587.0201,256.559,591.0201,252.559,587.0201" style="stroke:#181818;stroke-width:1.0;"/><line style="stroke:#181818;stroke-width:1.0;stroke-dasharray:2.0,2.0;" x1="250.559" x2="521.8162" y1="587.0201" y2="587.0201"/><text fill="#000000" font-family="sans-serif" font-size="13" font-weight="bold" lengthAdjust="spacing" textLength="14.872" x="262.559" y="581.2111">12</text><text fill="#000000" font-family="sans-serif" font-size="13" lengthAdjust="spacing" textLength="87.3861" x="281.431" y="581.2111">memory freed</text><path d="M532,547.608 L532,610.608 L975,610.608 L975,557.608 L965,547.608 L532,547.608 " fill="#FAFAFA" style="stroke:#181818;stroke-width:0.5;"/><path d="M965,547.608 L965,557.608 L975,557.608 L965,547.608 " fill="#FAFAFA" style="stroke:#181818;stroke-width:0.5;"/><text fill="#000000" font-family="sans-serif" font-size="13" lengthAdjust="spacing" textLength="289.2893" x="538" y="566.505">Updated as of 11:27 AM WEST on May 16, 2025.</text><text fill="#000000" font-family="sans-serif" font-size="13" lengthAdjust="spacing" textLength="422.5394" x="538" y="584.2111">- Dynamic memory management for stamps and drones_that_collied.</text><text fill="#000000" font-family="sans-serif" font-size="13" lengthAdjust="spacing" textLength="221.9362" x="538" y="601.9171">- Cleanup ensures no memory leaks.</text><!--SRC=[hLHDZzCm4BtxLunw0ebMj8X5wW49RH7QGoaYkzeBqchgJ1EhiHriPwlmwndRIPj5oyU1N6BFnvitRoRnHsLQTAX1MsDbxQmc2AuZuS-U5kKHAof2tn0uaW5DrKm3V8sbFIbJmG4RJq845JZqngYWi54_C2Xh04q9rmsXwLeew7j7HX9i55OHOWvtnUhgZH3O1MiwlIV7PnciWzd6MKEmQyaXtsU0_dmHJ20egLeq0MP5xmFf592FJzrRqjRrMpJSJ8R9bgTHgTeNPoLvduAI8P5HZnWkH8GOJp1_FnHSWmyCnehOKrHKiPTrkIGFlF8hvcKAQy2ciJ96rCfpKhyxVCKINLADCNNhBo03xVo2-QIwpgOHh9mKIcqmlnPF1ieaQPkxf0bqRZOhFWK-X-O66RcaNv8kfSQaFLNAWBHDetpSW982RqyyDTQsKuIX8n7jS615sLL3K9fIxmBu6V4d1HQBnOldu0UsSNguju_qKX3Bc8h-PcXSzjzdDaePGOkRJzUxpxTfJYTK8R6NLhSDHIf_b3AGqyhWNzGSD-JWwFziHmGgdr5_OXbQdfekQsyiNvsgwh26kxQC_AFIzW3BvNhr3ZviuVvZSGiyY2tsiBnw1QlNgxUBRsOEczwWLdAaejF7gCbatN8hgQkqeVuXr1WUqeYfJ03Z7uICxnnhQEo8nOwZNuYV]--></g></svg>