<svg xmlns="http://www.w3.org/2000/svg" xmlns:xlink="http://www.w3.org/1999/xlink" contentStyleType="text/css" height="784px" preserveAspectRatio="none" style="width:526px;height:784px;background:#FFFFFF;" version="1.1" viewBox="0 0 526 784" width="526px" zoomAndPan="magnify"><title>Complete Domain Model - US315 (ShowProposal)</title><defs/><g><text fill="#000000" font-family="sans-serif" font-size="14" font-weight="bold" lengthAdjust="spacing" textLength="338.1688" x="86.9156" y="24.9659">Complete Domain Model - US315 (ShowProposal)</text><!--cluster Show Proposal Aggregate--><g id="cluster_Show Proposal Aggregate"><rect fill="none" height="731" rx="2.5" ry="2.5" style="stroke:#000000;stroke-width:1.5;" width="513" x="7" y="47.0679"/><text fill="#000000" font-family="sans-serif" font-size="14" font-weight="bold" lengthAdjust="spacing" textLength="179.5493" x="173.7253" y="64.0339">Show Proposal Aggregate</text></g><!--class ShowProposal--><g id="elem_ShowProposal"><rect codeLine="14" fill="#F1F1F1" height="53.412" id="ShowProposal" rx="2.5" ry="2.5" style="stroke:#181818;stroke-width:0.5;" width="99.7857" x="23" y="389.5679"/><text fill="#000000" font-family="sans-serif" font-size="12" font-style="italic" lengthAdjust="spacing" textLength="90.9606" x="27.4125" y="407.396">&#171;AggregateRoot&#187;</text><text fill="#000000" font-family="sans-serif" font-size="14" lengthAdjust="spacing" textLength="93.7857" x="26" y="425.878">ShowProposal</text><line style="stroke:#181818;stroke-width:0.5;" x1="24" x2="121.7857" y1="434.9799" y2="434.9799"/></g><!--class ShowRequest--><g id="elem_ShowRequest"><rect codeLine="17" fill="#F1F1F1" height="37.0679" id="ShowRequest" rx="2.5" ry="2.5" style="stroke:#181818;stroke-width:0.5;" width="95.3336" x="386" y="708.5679"/><text fill="#000000" font-family="sans-serif" font-size="14" lengthAdjust="spacing" textLength="89.3336" x="389" y="728.5339">ShowRequest</text><line style="stroke:#181818;stroke-width:0.5;" x1="387" x2="480.3336" y1="737.6358" y2="737.6358"/></g><!--class ProposalTemplate--><g id="elem_ProposalTemplate"><rect codeLine="18" fill="#F1F1F1" height="37.0679" id="ProposalTemplate" rx="2.5" ry="2.5" style="stroke:#181818;stroke-width:0.5;" width="125.7696" x="370.5" y="619.5679"/><text fill="#000000" font-family="sans-serif" font-size="14" lengthAdjust="spacing" textLength="119.7696" x="373.5" y="639.5339">ProposalTemplate</text><line style="stroke:#181818;stroke-width:0.5;" x1="371.5" x2="495.2696" y1="648.6358" y2="648.6358"/></g><!--class Figure--><g id="elem_Figure"><rect codeLine="19" fill="#F1F1F1" height="37.0679" id="Figure" rx="2.5" ry="2.5" style="stroke:#181818;stroke-width:0.5;" width="47.8178" x="409.5" y="530.5679"/><text fill="#000000" font-family="sans-serif" font-size="14" lengthAdjust="spacing" textLength="41.8178" x="412.5" y="550.5339">Figure</text><line style="stroke:#181818;stroke-width:0.5;" x1="410.5" x2="456.3178" y1="559.6358" y2="559.6358"/></g><!--class DroneModel--><g id="elem_DroneModel"><rect codeLine="20" fill="#F1F1F1" height="37.0679" id="DroneModel" rx="2.5" ry="2.5" style="stroke:#181818;stroke-width:0.5;" width="88.3057" x="389.5" y="441.5679"/><text fill="#000000" font-family="sans-serif" font-size="14" lengthAdjust="spacing" textLength="82.3057" x="392.5" y="461.5339">DroneModel</text><line style="stroke:#181818;stroke-width:0.5;" x1="390.5" x2="476.8057" y1="470.6358" y2="470.6358"/></g><!--class Description--><g id="elem_Description"><rect codeLine="21" fill="#F1F1F1" height="37.0679" id="Description" rx="2.5" ry="2.5" style="stroke:#181818;stroke-width:0.5;" width="81.3337" x="393" y="352.5679"/><text fill="#000000" font-family="sans-serif" font-size="14" lengthAdjust="spacing" textLength="75.3337" x="396" y="372.5339">Description</text><line style="stroke:#181818;stroke-width:0.5;" x1="394" x2="473.3337" y1="381.6358" y2="381.6358"/></g><!--class Location--><g id="elem_Location"><rect codeLine="22" fill="#F1F1F1" height="37.0679" id="Location" rx="2.5" ry="2.5" style="stroke:#181818;stroke-width:0.5;" width="62.1678" x="402.5" y="263.5679"/><text fill="#000000" font-family="sans-serif" font-size="14" lengthAdjust="spacing" textLength="56.1678" x="405.5" y="283.5339">Location</text><line style="stroke:#181818;stroke-width:0.5;" x1="403.5" x2="463.6678" y1="292.6358" y2="292.6358"/></g><!--class Video--><g id="elem_Video"><rect codeLine="23" fill="#F1F1F1" height="37.0679" id="Video" rx="2.5" ry="2.5" style="stroke:#181818;stroke-width:0.5;" width="42.9879" x="412" y="174.5679"/><text fill="#000000" font-family="sans-serif" font-size="14" lengthAdjust="spacing" textLength="36.9879" x="415" y="194.5339">Video</text><line style="stroke:#181818;stroke-width:0.5;" x1="413" x2="453.9879" y1="203.6358" y2="203.6358"/></g><!--class ShowProposalStatus--><g id="elem_ShowProposalStatus"><rect codeLine="24" fill="#F1F1F1" height="37.0679" id="ShowProposalStatus" rx="2.5" ry="2.5" style="stroke:#181818;stroke-width:0.5;" width="140.7915" x="363" y="85.5679"/><text fill="#000000" font-family="sans-serif" font-size="14" lengthAdjust="spacing" textLength="134.7915" x="366" y="105.5339">ShowProposalStatus</text><line style="stroke:#181818;stroke-width:0.5;" x1="364" x2="502.7915" y1="114.6358" y2="114.6358"/></g><!--link ShowProposal to ShowRequest--><g id="link_ShowProposal_ShowRequest"><path codeLine="27" d="M81.14,442.6279 C94.32,486.8979 126.51,576.0379 184,628.0679 C242.02,680.5779 331.32,706.8579 385.59,718.6779 " fill="none" id="ShowProposal-ShowRequest" style="stroke:#181818;stroke-width:1.0;"/><polygon fill="#000000" points="226.2041,622.2795,221.4774,614.0266,217.5292,618.381,226.2041,622.2795" style="stroke:#000000;stroke-width:1.0;"/><text fill="#000000" font-family="sans-serif" font-size="13" lengthAdjust="spacing" textLength="36.101" x="231.5" y="623.9649">refers</text><text fill="#000000" font-family="sans-serif" font-size="13" lengthAdjust="spacing" textLength="7.436" x="75.2882" y="464.6665">1</text><text fill="#000000" font-family="sans-serif" font-size="13" lengthAdjust="spacing" textLength="7.436" x="370.4047" y="732.6433">1</text></g><!--link ShowProposal to ProposalTemplate--><g id="link_ShowProposal_ProposalTemplate"><path codeLine="28" d="M91.29,442.6079 C110.82,470.7279 144.99,514.7479 184,542.0679 C241.21,582.1279 317.38,608.3279 370.25,623.0779 " fill="none" id="ShowProposal-ProposalTemplate" style="stroke:#181818;stroke-width:1.0;"/><polygon fill="#000000" points="231.1981,535.6368,225.2,528.2561,222.0073,533.1913,231.1981,535.6368" style="stroke:#000000;stroke-width:1.0;"/><text fill="#000000" font-family="sans-serif" font-size="13" lengthAdjust="spacing" textLength="27.82" x="236" y="537.9649">uses</text><text fill="#000000" font-family="sans-serif" font-size="13" lengthAdjust="spacing" textLength="7.436" x="87.9743" y="465.0818">1</text><text fill="#000000" font-family="sans-serif" font-size="13" lengthAdjust="spacing" textLength="7.436" x="355.1555" y="636.2228">1</text></g><!--link ShowProposal to Figure--><g id="link_ShowProposal_Figure"><path codeLine="29" d="M119.62,442.6479 C139.05,453.2979 162.23,465.1379 184,474.0679 C264.47,507.0679 364.85,532.9379 409.38,543.6679 " fill="none" id="ShowProposal-Figure" style="stroke:#181818;stroke-width:1.0;"/><polygon fill="#000000" points="193.7213,466.5669,186.1479,460.8142,184.2129,466.3644,193.7213,466.5669" style="stroke:#000000;stroke-width:1.0;"/><text fill="#000000" font-family="sans-serif" font-size="13" lengthAdjust="spacing" textLength="103.5841" x="198" y="469.9649">sequenceFigures</text><text fill="#000000" font-family="sans-serif" font-size="13" lengthAdjust="spacing" textLength="7.436" x="122.6667" y="464.6912">1</text><text fill="#000000" font-family="sans-serif" font-size="13" lengthAdjust="spacing" textLength="7.163" x="394.3173" y="558.5693">*</text></g><!--link ShowProposal to DroneModel--><g id="link_ShowProposal_DroneModel"><path codeLine="30" d="M123.21,424.1579 C142.18,427.1479 164.07,430.4479 184,433.0679 C255.85,442.5179 339.71,451.1279 389.33,455.9779 " fill="none" id="ShowProposal-DroneModel" style="stroke:#181818;stroke-width:1.0;"/><polygon fill="#000000" points="207.9646,424.5145,199.3324,420.5225,198.6346,426.3588,207.9646,424.5145" style="stroke:#000000;stroke-width:1.0;"/><text fill="#000000" font-family="sans-serif" font-size="13" lengthAdjust="spacing" textLength="75.9851" x="212" y="428.9649">modelsUsed</text><text fill="#000000" font-family="sans-serif" font-size="13" lengthAdjust="spacing" textLength="7.436" x="130.8087" y="440.4086">1</text><text fill="#000000" font-family="sans-serif" font-size="13" lengthAdjust="spacing" textLength="7.163" x="374.4228" y="470.6582">*</text></g><!--link ShowProposal to Description--><g id="link_ShowProposal_Description"><path codeLine="32" d="M123.1,409.9079 C194.82,400.8979 326.85,384.3279 392.82,376.0479 " fill="none" id="ShowProposal-Description" style="stroke:#181818;stroke-width:1.0;"/><polygon fill="#000000" points="212.4611,378.2981,203.1203,376.5087,203.8525,382.3408,212.4611,378.2981" style="stroke:#000000;stroke-width:1.0;"/><text fill="#000000" font-family="sans-serif" font-size="13" lengthAdjust="spacing" textLength="66.1311" x="216.5" y="383.9649">embedded</text><text fill="#000000" font-family="sans-serif" font-size="13" lengthAdjust="spacing" textLength="7.436" x="130.6832" y="404.764">1</text><text fill="#000000" font-family="sans-serif" font-size="13" lengthAdjust="spacing" textLength="7.436" x="377.6837" y="392.4891">1</text></g><!--link ShowProposal to Location--><g id="link_ShowProposal_Location"><path codeLine="33" d="M123.07,389.4779 C141.84,379.8579 163.62,369.3379 184,361.0679 C260.76,329.8979 354.76,302.9279 402.13,290.0679 " fill="none" id="ShowProposal-Location" style="stroke:#181818;stroke-width:1.0;"/><polygon fill="#000000" points="212.2101,309.2431,202.7032,309.5098,204.6757,315.0469,212.2101,309.2431" style="stroke:#000000;stroke-width:1.0;"/><text fill="#000000" font-family="sans-serif" font-size="13" lengthAdjust="spacing" textLength="66.1311" x="216.5" y="315.9649">embedded</text><text fill="#000000" font-family="sans-serif" font-size="13" lengthAdjust="spacing" textLength="7.436" x="127.5007" y="377.8576">1</text><text fill="#000000" font-family="sans-serif" font-size="13" lengthAdjust="spacing" textLength="7.436" x="387.0973" y="307.8543">1</text></g><!--link ShowProposal to Video--><g id="link_ShowProposal_Video"><path codeLine="34" d="M92.05,389.5279 C111.84,362.1579 145.89,319.8079 184,293.0679 C259.56,240.0479 367.35,209.1279 411.96,197.9079 " fill="none" id="ShowProposal-Video" style="stroke:#181818;stroke-width:1.0;"/><polygon fill="#000000" points="211.7894,222.3517,202.5196,224.4783,205.54,229.5207,211.7894,222.3517" style="stroke:#000000;stroke-width:1.0;"/><text fill="#000000" font-family="sans-serif" font-size="13" lengthAdjust="spacing" textLength="66.1311" x="216.5" y="229.9649">embedded</text><text fill="#000000" font-family="sans-serif" font-size="13" lengthAdjust="spacing" textLength="7.436" x="88.9196" y="377.9198">1</text><text fill="#000000" font-family="sans-serif" font-size="13" lengthAdjust="spacing" textLength="7.436" x="396.4295" y="216.5002">1</text></g><!--link ShowProposal to ShowProposalStatus--><g id="link_ShowProposal_ShowProposalStatus"><path codeLine="35" d="M81.54,389.2679 C95.12,345.5079 127.66,258.4679 184,207.0679 C234.54,160.9579 308.62,133.8879 362.74,119.1679 " fill="none" id="ShowProposal-ShowProposalStatus" style="stroke:#181818;stroke-width:1.0;"/><polygon fill="#000000" points="225.606,127.4573,217.0468,131.6035,221.1186,135.8426,225.606,127.4573" style="stroke:#000000;stroke-width:1.0;"/><text fill="#000000" font-family="sans-serif" font-size="13" lengthAdjust="spacing" textLength="37.167" x="231" y="135.9649">status</text><text fill="#000000" font-family="sans-serif" font-size="13" lengthAdjust="spacing" textLength="7.436" x="75.8478" y="377.5964">1</text><text fill="#000000" font-family="sans-serif" font-size="13" lengthAdjust="spacing" textLength="7.436" x="347.6531" y="135.6811">1</text></g><!--SRC=[ZP5FIyGm4CNl-HH3Johqi8WNMGhYuab1jgxtcCocOPDCpQGi8dvtq-w_kbAnbxGlxvVEU-6D3QsCqeEdGAg9v15Ix53mSQULQYCDrkd38KHKIGRZnWPkfAQj3GRMqZ4AX-i4YI1QqoJGjcSi1I6IJVc8U_AjmuIm82zjW2VIwA24LNqzku6Bkg7jSwIMMBfB8Hgh4PIDoY7lFZocXZGBiHyCYXw10mDtnaGqCc41dq90VfIJp30-6ERpesr9bAegUtlhrpcnnFSEEOtKmnalc7DaVhJrO4qNny8YKi0Xu5X4Lj6sGoSdzP6KF9DUSroQI50dcJeMUTuVkOfP0MLP3kjeVBZDDxV6o51D-y-3PQXZd4QkYdtWREJ-Fq7XJlYJENMIET-ll6BK6PaURLHPXj2_eTO3CaaSwlodVQZwdzxVrz0Ni7kfn3S0]--></g></svg>