<svg xmlns="http://www.w3.org/2000/svg" xmlns:xlink="http://www.w3.org/1999/xlink" contentStyleType="text/css" height="624px" preserveAspectRatio="none" style="width:599px;height:624px;background:#FFFFFF;" version="1.1" viewBox="0 0 599 624" width="599px" zoomAndPan="magnify"><title>System Sequence Diagram (SSD) - US340: DSL Plugin Deployment and Execution</title><defs/><g><text fill="#000000" font-family="sans-serif" font-size="14" font-weight="bold" lengthAdjust="spacing" textLength="552.3258" x="19.6167" y="29.9659">System Sequence Diagram (SSD) - US340: DSL Plugin Deployment and Execution</text><rect fill="#FFFFFF" height="389.0602" style="stroke:#181818;stroke-width:1.0;" width="10" x="52.3988" y="134.1358"/><rect fill="#FFFFFF" height="121.118" style="stroke:#181818;stroke-width:1.0;" width="10" x="376.49" y="203.5479"/><rect fill="#FFFFFF" height="121.118" style="stroke:#181818;stroke-width:1.0;" width="10" x="376.49" y="402.0779"/><line style="stroke:#181818;stroke-width:0.5;stroke-dasharray:5.0,5.0;" x1="57" x2="57" y1="124.1358" y2="541.196"/><line style="stroke:#181818;stroke-width:0.5;stroke-dasharray:5.0,5.0;" x1="380.8281" x2="380.8281" y1="124.1358" y2="541.196"/><text fill="#000000" font-family="sans-serif" font-size="14" lengthAdjust="spacing" textLength="98.7976" x="5" y="120.0339">Show Manager</text><ellipse cx="57.3988" cy="53.5679" fill="#E3E3E3" rx="8" ry="8" style="stroke:#181818;stroke-width:0.5;"/><path d="M57.3988,61.5679 L57.3988,88.5679 M44.3988,69.5679 L70.3988,69.5679 M57.3988,88.5679 L44.3988,103.5679 M57.3988,88.5679 L70.3988,103.5679 " fill="none" style="stroke:#181818;stroke-width:0.5;"/><text fill="#000000" font-family="sans-serif" font-size="14" lengthAdjust="spacing" textLength="98.7976" x="5" y="555.1619">Show Manager</text><ellipse cx="57.3988" cy="567.7639" fill="#E3E3E3" rx="8" ry="8" style="stroke:#181818;stroke-width:0.5;"/><path d="M57.3988,575.7639 L57.3988,602.7639 M44.3988,583.7639 L70.3988,583.7639 M57.3988,602.7639 L44.3988,617.7639 M57.3988,602.7639 L70.3988,617.7639 " fill="none" style="stroke:#181818;stroke-width:0.5;"/><rect fill="#E3E3E3" height="33.0679" rx="2.5" ry="2.5" style="stroke:#181818;stroke-width:0.5;" width="65.3238" x="348.8281" y="90.0679"/><text fill="#000000" font-family="sans-serif" font-size="14" lengthAdjust="spacing" textLength="51.3238" x="355.8281" y="112.0339">:System</text><rect fill="#E3E3E3" height="33.0679" rx="2.5" ry="2.5" style="stroke:#181818;stroke-width:0.5;" width="65.3238" x="348.8281" y="540.196"/><text fill="#000000" font-family="sans-serif" font-size="14" lengthAdjust="spacing" textLength="51.3238" x="355.8281" y="562.1619">:System</text><rect fill="#FFFFFF" height="389.0602" style="stroke:#181818;stroke-width:1.0;" width="10" x="52.3988" y="134.1358"/><rect fill="#FFFFFF" height="121.118" style="stroke:#181818;stroke-width:1.0;" width="10" x="376.49" y="203.5479"/><rect fill="#FFFFFF" height="121.118" style="stroke:#181818;stroke-width:1.0;" width="10" x="376.49" y="402.0779"/><rect fill="#EEEEEE" height="3" style="stroke:#EEEEEE;stroke-width:1.0;" width="592.5592" x="0" y="155.9888"/><line style="stroke:#000000;stroke-width:1.0;" x1="0" x2="592.5592" y1="155.9888" y2="155.9888"/><line style="stroke:#000000;stroke-width:1.0;" x1="0" x2="592.5592" y1="158.9888" y2="158.9888"/><rect fill="#EEEEEE" height="25.706" style="stroke:#000000;stroke-width:2.0;" width="141.7381" x="225.4105" y="144.1358"/><text fill="#000000" font-family="sans-serif" font-size="13" font-weight="bold" lengthAdjust="spacing" textLength="124.3581" x="231.4105" y="162.0328">Plugin Deployment</text><polygon fill="#181818" points="364.49,199.5479,374.49,203.5479,364.49,207.5479,368.49,203.5479" style="stroke:#181818;stroke-width:1.0;"/><line style="stroke:#181818;stroke-width:1.0;" x1="62.3988" x2="370.49" y1="203.5479" y2="203.5479"/><text fill="#000000" font-family="sans-serif" font-size="13" font-weight="bold" lengthAdjust="spacing" textLength="7.436" x="69.3988" y="197.7389">1</text><text fill="#000000" font-family="sans-serif" font-size="13" lengthAdjust="spacing" textLength="253.2273" x="80.8348" y="197.7389">uploadDSLPlugin(Figures.g4, VisitorClass)</text><line style="stroke:#181818;stroke-width:1.0;" x1="386.49" x2="428.49" y1="235.2539" y2="235.2539"/><line style="stroke:#181818;stroke-width:1.0;" x1="428.49" x2="428.49" y1="235.2539" y2="248.2539"/><line style="stroke:#181818;stroke-width:1.0;" x1="387.49" x2="428.49" y1="248.2539" y2="248.2539"/><polygon fill="#181818" points="397.49,244.2539,387.49,248.2539,397.49,252.2539,393.49,248.2539" style="stroke:#181818;stroke-width:1.0;"/><text fill="#000000" font-family="sans-serif" font-size="13" font-weight="bold" lengthAdjust="spacing" textLength="7.436" x="393.49" y="229.4449">2</text><text fill="#000000" font-family="sans-serif" font-size="13" lengthAdjust="spacing" textLength="165.6331" x="404.926" y="229.4449">generateParserAndVisitor()</text><line style="stroke:#181818;stroke-width:1.0;" x1="386.49" x2="428.49" y1="279.9599" y2="279.9599"/><line style="stroke:#181818;stroke-width:1.0;" x1="428.49" x2="428.49" y1="279.9599" y2="292.9599"/><line style="stroke:#181818;stroke-width:1.0;" x1="387.49" x2="428.49" y1="292.9599" y2="292.9599"/><polygon fill="#181818" points="397.49,288.9599,387.49,292.9599,397.49,296.9599,393.49,292.9599" style="stroke:#181818;stroke-width:1.0;"/><text fill="#000000" font-family="sans-serif" font-size="13" font-weight="bold" lengthAdjust="spacing" textLength="7.436" x="393.49" y="274.1509">3</text><text fill="#000000" font-family="sans-serif" font-size="13" lengthAdjust="spacing" textLength="77.9221" x="404.926" y="274.1509">storePlugin()</text><polygon fill="#181818" points="73.3988,320.6659,63.3988,324.6659,73.3988,328.6659,69.3988,324.6659" style="stroke:#181818;stroke-width:1.0;"/><line style="stroke:#181818;stroke-width:1.0;stroke-dasharray:2.0,2.0;" x1="67.3988" x2="380.49" y1="324.6659" y2="324.6659"/><text fill="#000000" font-family="sans-serif" font-size="13" font-weight="bold" lengthAdjust="spacing" textLength="7.436" x="79.3988" y="318.8569">4</text><text fill="#000000" font-family="sans-serif" font-size="13" lengthAdjust="spacing" textLength="168.8052" x="90.8348" y="318.8569">confirmPluginDeployment()</text><rect fill="#EEEEEE" height="3" style="stroke:#EEEEEE;stroke-width:1.0;" width="592.5592" x="0" y="354.5189"/><line style="stroke:#000000;stroke-width:1.0;" x1="0" x2="592.5592" y1="354.5189" y2="354.5189"/><line style="stroke:#000000;stroke-width:1.0;" x1="0" x2="592.5592" y1="357.5189" y2="357.5189"/><rect fill="#EEEEEE" height="25.706" style="stroke:#000000;stroke-width:2.0;" width="111.3961" x="240.5816" y="342.6659"/><text fill="#000000" font-family="sans-serif" font-size="13" font-weight="bold" lengthAdjust="spacing" textLength="94.0161" x="246.5816" y="360.5629">DSL Validation</text><polygon fill="#181818" points="364.49,398.0779,374.49,402.0779,364.49,406.0779,368.49,402.0779" style="stroke:#181818;stroke-width:1.0;"/><line style="stroke:#181818;stroke-width:1.0;" x1="62.3988" x2="370.49" y1="402.0779" y2="402.0779"/><text fill="#000000" font-family="sans-serif" font-size="13" font-weight="bold" lengthAdjust="spacing" textLength="7.436" x="69.3988" y="396.2689">5</text><text fill="#000000" font-family="sans-serif" font-size="13" lengthAdjust="spacing" textLength="146.3412" x="80.8348" y="396.2689">submitDSLFile(input.txt)</text><line style="stroke:#181818;stroke-width:1.0;" x1="386.49" x2="428.49" y1="433.784" y2="433.784"/><line style="stroke:#181818;stroke-width:1.0;" x1="428.49" x2="428.49" y1="433.784" y2="446.784"/><line style="stroke:#181818;stroke-width:1.0;" x1="387.49" x2="428.49" y1="446.784" y2="446.784"/><polygon fill="#181818" points="397.49,442.784,387.49,446.784,397.49,450.784,393.49,446.784" style="stroke:#181818;stroke-width:1.0;"/><text fill="#000000" font-family="sans-serif" font-size="13" font-weight="bold" lengthAdjust="spacing" textLength="7.436" x="393.49" y="427.975">6</text><text fill="#000000" font-family="sans-serif" font-size="13" lengthAdjust="spacing" textLength="143.6372" x="404.926" y="427.975">parseAndVisit(input.txt)</text><line style="stroke:#181818;stroke-width:1.0;" x1="386.49" x2="428.49" y1="478.49" y2="478.49"/><line style="stroke:#181818;stroke-width:1.0;" x1="428.49" x2="428.49" y1="478.49" y2="491.49"/><line style="stroke:#181818;stroke-width:1.0;" x1="387.49" x2="428.49" y1="491.49" y2="491.49"/><polygon fill="#181818" points="397.49,487.49,387.49,491.49,397.49,495.49,393.49,491.49" style="stroke:#181818;stroke-width:1.0;"/><text fill="#000000" font-family="sans-serif" font-size="13" font-weight="bold" lengthAdjust="spacing" textLength="7.436" x="393.49" y="472.681">7</text><text fill="#000000" font-family="sans-serif" font-size="13" lengthAdjust="spacing" textLength="134.7191" x="404.926" y="472.681">build DSLFigureModel</text><polygon fill="#181818" points="68.3988,519.196,58.3988,523.196,68.3988,527.196,64.3988,523.196" style="stroke:#181818;stroke-width:1.0;"/><line style="stroke:#181818;stroke-width:1.0;stroke-dasharray:2.0,2.0;" x1="62.3988" x2="380.49" y1="523.196" y2="523.196"/><text fill="#000000" font-family="sans-serif" font-size="13" font-weight="bold" lengthAdjust="spacing" textLength="7.436" x="74.3988" y="517.387">8</text><text fill="#000000" font-family="sans-serif" font-size="13" lengthAdjust="spacing" textLength="278.6552" x="85.8348" y="517.387">parsingFeedback(success/failure, diagnostics)</text><!--SRC=[ZP91QoCn38Nl_XKYfmcqtK9x2cIXD1joQA5WjdV5LYQY7djgsTlctwyccTqE98VUXj6df_TaoHl77ZDsqAMOt3wdZg3aIaR-LtfqRzYIBOT0aCaLZ6sO0h97dpuujh3386HCuQAeFKYX3YozLugEOCNO3dXZxMeEr_3RtjtVBc1bd-0br9OZhAWFwT1HB83HmwzFShLmYWPhIR5sMyh6e2ifmypkqmSyOrHdUGOeO3T6xHHstACAp1Qd-QVQyVFOot-mq02RvVB2tENI6Bk1wvzZpmAgrj2honFShBcjcUIclR-2LnPMDuy1HUOJzN7Sk869M4kHiY8lc8NoG_IZGZE_08iMQ9mw_r8RYCq2N8expjsf_fL0IKzdJZJhiETN3EnnMEc5e5At7HV5rXoeqSUjvQPybc_bweSy_-9CUy_HRUNWuJXcMEHpyXJEmWrwUb1h8h_LyskaEaSYFtR8GPkkmEinnIJwt78nyFJNnlm5]--></g></svg>