<svg xmlns="http://www.w3.org/2000/svg" xmlns:xlink="http://www.w3.org/1999/xlink" contentStyleType="text/css" height="528px" preserveAspectRatio="none" style="width:602px;height:528px;background:#FFFFFF;" version="1.1" viewBox="0 0 602 528" width="602px" zoomAndPan="magnify"><title>System Sequence Diagram (SSD) - US263 Detect Drone Collisions in Real Time</title><defs/><g><text fill="#000000" font-family="sans-serif" font-size="14" font-weight="bold" lengthAdjust="spacing" textLength="534.0421" x="35.6841" y="29.9659">System Sequence Diagram (SSD) - US263 Detect Drone Collisions in Real Time</text><rect fill="#FFFFFF" height="292.63" style="stroke:#181818;stroke-width:1.0;" width="10" x="80.5208" y="134.1358"/><rect fill="#FFFFFF" height="268.924" style="stroke:#181818;stroke-width:1.0;" width="10" x="364.0651" y="157.8419"/><rect fill="none" height="223.218" style="stroke:#000000;stroke-width:1.5;" width="586.4102" x="10" y="172.8419"/><rect fill="none" height="144.806" style="stroke:#000000;stroke-width:1.5;" width="504.1172" x="20" y="244.2539"/><line style="stroke:#181818;stroke-width:0.5;stroke-dasharray:5.0,5.0;" x1="85" x2="85" y1="124.1358" y2="444.7659"/><line style="stroke:#181818;stroke-width:0.5;stroke-dasharray:5.0,5.0;" x1="368.4032" x2="368.4032" y1="124.1358" y2="444.7659"/><text fill="#000000" font-family="sans-serif" font-size="14" lengthAdjust="spacing" textLength="105.0416" x="30" y="120.0339">Drone Operator</text><ellipse cx="85.5208" cy="53.5679" fill="#E3E3E3" rx="8" ry="8" style="stroke:#181818;stroke-width:0.5;"/><path d="M85.5208,61.5679 L85.5208,88.5679 M72.5208,69.5679 L98.5208,69.5679 M85.5208,88.5679 L72.5208,103.5679 M85.5208,88.5679 L98.5208,103.5679 " fill="none" style="stroke:#181818;stroke-width:0.5;"/><text fill="#000000" font-family="sans-serif" font-size="14" lengthAdjust="spacing" textLength="105.0416" x="30" y="458.7318">Drone Operator</text><ellipse cx="85.5208" cy="471.3338" fill="#E3E3E3" rx="8" ry="8" style="stroke:#181818;stroke-width:0.5;"/><path d="M85.5208,479.3338 L85.5208,506.3338 M72.5208,487.3338 L98.5208,487.3338 M85.5208,506.3338 L72.5208,521.3338 M85.5208,506.3338 L98.5208,521.3338 " fill="none" style="stroke:#181818;stroke-width:0.5;"/><rect fill="#E3E3E3" height="33.0679" rx="2.5" ry="2.5" style="stroke:#181818;stroke-width:0.5;" width="65.3238" x="336.4032" y="90.0679"/><text fill="#000000" font-family="sans-serif" font-size="14" lengthAdjust="spacing" textLength="51.3238" x="343.4032" y="112.0339">:System</text><rect fill="#E3E3E3" height="33.0679" rx="2.5" ry="2.5" style="stroke:#181818;stroke-width:0.5;" width="65.3238" x="336.4032" y="443.7659"/><text fill="#000000" font-family="sans-serif" font-size="14" lengthAdjust="spacing" textLength="51.3238" x="343.4032" y="465.7318">:System</text><rect fill="#FFFFFF" height="292.63" style="stroke:#181818;stroke-width:1.0;" width="10" x="80.5208" y="134.1358"/><rect fill="#FFFFFF" height="268.924" style="stroke:#181818;stroke-width:1.0;" width="10" x="364.0651" y="157.8419"/><polygon fill="#181818" points="352.0651,153.8419,362.0651,157.8419,352.0651,161.8419,356.0651,157.8419" style="stroke:#181818;stroke-width:1.0;"/><line style="stroke:#181818;stroke-width:1.0;" x1="90.5208" x2="358.0651" y1="157.8419" y2="157.8419"/><text fill="#000000" font-family="sans-serif" font-size="13" font-weight="bold" lengthAdjust="spacing" textLength="7.436" x="97.5208" y="152.0328">1</text><text fill="#000000" font-family="sans-serif" font-size="13" lengthAdjust="spacing" textLength="136.0971" x="108.9568" y="152.0328">start show monitoring</text><path d="M10,172.8419 L83.288,172.8419 L83.288,182.5479 L73.288,192.5479 L10,192.5479 L10,172.8419 " fill="#EEEEEE" style="stroke:#000000;stroke-width:1.5;"/><rect fill="none" height="223.218" style="stroke:#000000;stroke-width:1.5;" width="586.4102" x="10" y="172.8419"/><text fill="#000000" font-family="sans-serif" font-size="13" font-weight="bold" lengthAdjust="spacing" textLength="28.288" x="25" y="187.7389">loop</text><text fill="#000000" font-family="sans-serif" font-size="11" font-weight="bold" lengthAdjust="spacing" textLength="63.2825" x="98.288" y="186.6008">[every xms]</text><line style="stroke:#181818;stroke-width:1.0;" x1="374.0651" x2="416.0651" y1="216.2539" y2="216.2539"/><line style="stroke:#181818;stroke-width:1.0;" x1="416.0651" x2="416.0651" y1="216.2539" y2="229.2539"/><line style="stroke:#181818;stroke-width:1.0;" x1="375.0651" x2="416.0651" y1="229.2539" y2="229.2539"/><polygon fill="#181818" points="385.0651,225.2539,375.0651,229.2539,385.0651,233.2539,381.0651,229.2539" style="stroke:#181818;stroke-width:1.0;"/><text fill="#000000" font-family="sans-serif" font-size="13" font-weight="bold" lengthAdjust="spacing" textLength="7.436" x="381.0651" y="210.4449">2</text><text fill="#000000" font-family="sans-serif" font-size="13" lengthAdjust="spacing" textLength="181.9091" x="392.5011" y="210.4449">process GPS and velocity data</text><path d="M20,244.2539 L82.459,244.2539 L82.459,253.9599 L72.459,263.9599 L20,263.9599 L20,244.2539 " fill="#EEEEEE" style="stroke:#000000;stroke-width:1.5;"/><rect fill="none" height="144.806" style="stroke:#000000;stroke-width:1.5;" width="504.1172" x="20" y="244.2539"/><text fill="#000000" font-family="sans-serif" font-size="13" font-weight="bold" lengthAdjust="spacing" textLength="17.459" x="35" y="259.1509">alt</text><text fill="#000000" font-family="sans-serif" font-size="11" font-weight="bold" lengthAdjust="spacing" textLength="104.1583" x="97.459" y="258.0128">[collision detected]</text><polygon fill="#181818" points="101.5208,283.6659,91.5208,287.6659,101.5208,291.6659,97.5208,287.6659" style="stroke:#181818;stroke-width:1.0;"/><line style="stroke:#181818;stroke-width:1.0;stroke-dasharray:2.0,2.0;" x1="95.5208" x2="363.0651" y1="287.6659" y2="287.6659"/><text fill="#000000" font-family="sans-serif" font-size="13" font-weight="bold" lengthAdjust="spacing" textLength="7.436" x="107.5208" y="281.8569">3</text><text fill="#000000" font-family="sans-serif" font-size="13" lengthAdjust="spacing" textLength="74.0871" x="118.9568" y="281.8569">alert (visual)</text><line style="stroke:#181818;stroke-width:1.0;" x1="374.0651" x2="416.0651" y1="319.3719" y2="319.3719"/><line style="stroke:#181818;stroke-width:1.0;" x1="416.0651" x2="416.0651" y1="319.3719" y2="332.3719"/><line style="stroke:#181818;stroke-width:1.0;" x1="375.0651" x2="416.0651" y1="332.3719" y2="332.3719"/><polygon fill="#181818" points="385.0651,328.3719,375.0651,332.3719,385.0651,336.3719,381.0651,332.3719" style="stroke:#181818;stroke-width:1.0;"/><text fill="#000000" font-family="sans-serif" font-size="13" font-weight="bold" lengthAdjust="spacing" textLength="7.436" x="381.0651" y="313.5629">4</text><text fill="#000000" font-family="sans-serif" font-size="13" lengthAdjust="spacing" textLength="109.6161" x="392.5011" y="313.5629">log collision event</text><line style="stroke:#000000;stroke-width:1.0;stroke-dasharray:2.0,2.0;" x1="20" x2="524.1172" y1="341.3719" y2="341.3719"/><text fill="#000000" font-family="sans-serif" font-size="11" font-weight="bold" lengthAdjust="spacing" textLength="69.5635" x="25" y="353.1308">[no collision]</text><polygon fill="#181818" points="101.5208,377.0598,91.5208,381.0598,101.5208,385.0598,97.5208,381.0598" style="stroke:#181818;stroke-width:1.0;"/><line style="stroke:#181818;stroke-width:1.0;stroke-dasharray:2.0,2.0;" x1="95.5208" x2="363.0651" y1="381.0598" y2="381.0598"/><text fill="#000000" font-family="sans-serif" font-size="13" font-weight="bold" lengthAdjust="spacing" textLength="7.436" x="107.5208" y="375.2508">5</text><text fill="#000000" font-family="sans-serif" font-size="13" lengthAdjust="spacing" textLength="238.1082" x="118.9568" y="375.2508">update drone positions (normal status)</text><polygon fill="#181818" points="357.0651,422.7659,367.0651,426.7659,357.0651,430.7659,361.0651,426.7659" style="stroke:#181818;stroke-width:1.0;"/><line style="stroke:#181818;stroke-width:1.0;" x1="85.5208" x2="363.0651" y1="426.7659" y2="426.7659"/><text fill="#000000" font-family="sans-serif" font-size="13" font-weight="bold" lengthAdjust="spacing" textLength="7.436" x="92.5208" y="420.9569">6</text><text fill="#000000" font-family="sans-serif" font-size="13" lengthAdjust="spacing" textLength="134.6021" x="103.9568" y="420.9569">stop show monitoring</text><!--SRC=[TP6nKiCm38PtFuMkKpjqWJk63YpaZX6Em0C8HwG-RClOIalU7YLjqXoKAR8jVVd_N-NJnOGP0mIERFUP0u7aZaoPNnBQJsofbjuJPBA2iVNBXhB7Xeykjl21lf0nuaHRwxu81QZfgwDe2Ig7xT2-hkjg0rjugs_kRg4YKIHKcIF10tllYkDOm4Lu8VJmwe8IiHEENNYdhBKLph0wJJmbogZd5M2P3qPrYRCkOHHOxKv2nevJEJBS0UKoRynKmVR-tBQ38WfIVtmSyd7wgYulmnFDCoUW0-KUlaCnP-CBJifigHHuVAu1OmC7ycoTzD2We44lO2Vdq8o1K3DZb3Dfsm5wKaNhWoiT-isLNtbk5p0L5SMGRWKYN-wlixlK3AwQCTZ4nScuYNNa77GJ6ePqPMD83QZayJiu_oywpUHtSWtzoMvnDU_Y1m00]--></g></svg>