<svg xmlns="http://www.w3.org/2000/svg" xmlns:xlink="http://www.w3.org/1999/xlink" contentStyleType="text/css" height="1447px" preserveAspectRatio="none" style="width:2738px;height:1447px;background:#FFFFFF;" version="1.1" viewBox="0 0 2738 1447" width="2738px" zoomAndPan="magnify"><title>UI Sequence Diagram (SD) - Remove Drone from Inventory</title><defs/><g><text fill="#000000" font-family="sans-serif" font-size="14" font-weight="bold" lengthAdjust="spacing" textLength="389.751" x="1180.8867" y="30.1074">UI Sequence Diagram (SD) - Remove Drone from Inventory</text><rect fill="#FFFFFF" height="451.0742" style="stroke:#181818;stroke-width:1.0;" width="10" x="54.5723" y="133.2422"/><rect fill="#FFFFFF" height="427.7832" style="stroke:#181818;stroke-width:1.0;" width="10" x="349.8174" y="156.5332"/><rect fill="#FFFFFF" height="333.9102" style="stroke:#181818;stroke-width:1.0;" width="10" x="685.7065" y="250.4063"/><rect fill="#FFFFFF" height="167.4551" style="stroke:#181818;stroke-width:1.0;" width="10" x="690.7065" y="289.6973"/><rect fill="#FFFFFF" height="167.4551" style="stroke:#181818;stroke-width:1.0;" width="10" x="685.7065" y="671.5293"/><rect fill="#FFFFFF" height="31.291" style="stroke:#181818;stroke-width:1.0;" width="10" x="935.6436" y="325.9883"/><rect fill="#FFFFFF" height="31.291" style="stroke:#181818;stroke-width:1.0;" width="10" x="935.6436" y="707.8203"/><rect fill="#FFFFFF" height="31.291" style="stroke:#181818;stroke-width:1.0;" width="10" x="1041.3467" y="388.5703"/><rect fill="#FFFFFF" height="31.291" style="stroke:#181818;stroke-width:1.0;" width="10" x="1041.3467" y="770.4023"/><rect fill="#FFFFFF" height="31.291" style="stroke:#181818;stroke-width:1.0;" width="10" x="1160.667" y="495.4434"/><rect fill="#FFFFFF" height="31.291" style="stroke:#181818;stroke-width:1.0;" width="10" x="1523.7935" y="877.2754"/><rect fill="#FFFFFF" height="93.5332" style="stroke:#181818;stroke-width:1.0;" width="10" x="1706.8999" y="1065.0215"/><rect fill="#FFFFFF" height="31.291" style="stroke:#181818;stroke-width:1.0;" width="10" x="2102.3091" y="1189.8457"/><rect fill="#FFFFFF" height="31.291" style="stroke:#181818;stroke-width:1.0;" width="10" x="2359.3394" y="1252.4277"/><rect fill="#FFFFFF" height="31.291" style="stroke:#181818;stroke-width:1.0;" width="10" x="2568.1318" y="939.8574"/><rect fill="#FFFFFF" height="31.291" style="stroke:#181818;stroke-width:1.0;" width="10" x="2680.8384" y="1002.4395"/><line style="stroke:#181818;stroke-width:0.5;stroke-dasharray:5.0,5.0;" x1="59" x2="59" y1="123.2422" y2="1364.3008"/><line style="stroke:#181818;stroke-width:0.5;stroke-dasharray:5.0,5.0;" x1="354.6177" x2="354.6177" y1="123.2422" y2="1364.3008"/><line style="stroke:#181818;stroke-width:0.5;stroke-dasharray:5.0,5.0;" x1="690.1621" x2="690.1621" y1="123.2422" y2="1364.3008"/><line style="stroke:#181818;stroke-width:0.5;stroke-dasharray:5.0,5.0;" x1="939.792" x2="939.792" y1="123.2422" y2="1364.3008"/><line style="stroke:#181818;stroke-width:0.5;stroke-dasharray:5.0,5.0;" x1="1045.4951" x2="1045.4951" y1="123.2422" y2="1364.3008"/><line style="stroke:#181818;stroke-width:0.5;stroke-dasharray:5.0,5.0;" x1="1165.1982" x2="1165.1982" y1="123.2422" y2="1364.3008"/><line style="stroke:#181818;stroke-width:0.5;stroke-dasharray:5.0,5.0;" x1="1348.1357" x2="1348.1357" y1="123.2422" y2="1364.3008"/><line style="stroke:#181818;stroke-width:0.5;stroke-dasharray:5.0,5.0;" x1="1528.4453" x2="1528.4453" y1="123.2422" y2="1364.3008"/><line style="stroke:#181818;stroke-width:0.5;stroke-dasharray:5.0,5.0;" x1="1711.1416" x2="1711.1416" y1="123.2422" y2="1364.3008"/><line style="stroke:#181818;stroke-width:0.5;stroke-dasharray:5.0,5.0;" x1="1914.6582" x2="1914.6582" y1="1114.1426" y2="1364.3008"/><line style="stroke:#181818;stroke-width:0.5;stroke-dasharray:5.0,5.0;" x1="2107.0508" x2="2107.0508" y1="123.2422" y2="1364.3008"/><line style="stroke:#181818;stroke-width:0.5;stroke-dasharray:5.0,5.0;" x1="2363.5674" x2="2363.5674" y1="123.2422" y2="1364.3008"/><line style="stroke:#181818;stroke-width:0.5;stroke-dasharray:5.0,5.0;" x1="2573.1113" x2="2573.1113" y1="123.2422" y2="1364.3008"/><line style="stroke:#181818;stroke-width:0.5;stroke-dasharray:5.0,5.0;" x1="2685.1523" x2="2685.1523" y1="123.2422" y2="1364.3008"/><text fill="#000000" font-family="sans-serif" font-size="14" lengthAdjust="spacing" textLength="73.1445" x="20" y="119.7285">Drone Tech</text><ellipse cx="59.5723" cy="53.1211" fill="#E3E3E3" rx="8" ry="8" style="stroke:#181818;stroke-width:0.5;"/><path d="M59.5723,61.1211 L59.5723,88.1211 M46.5723,69.1211 L72.5723,69.1211 M59.5723,88.1211 L46.5723,103.1211 M59.5723,88.1211 L72.5723,103.1211 " fill="none" style="stroke:#181818;stroke-width:0.5;"/><text fill="#000000" font-family="sans-serif" font-size="14" lengthAdjust="spacing" textLength="73.1445" x="20" y="1378.4082">Drone Tech</text><ellipse cx="59.5723" cy="1390.4219" fill="#E3E3E3" rx="8" ry="8" style="stroke:#181818;stroke-width:0.5;"/><path d="M59.5723,1398.4219 L59.5723,1425.4219 M46.5723,1406.4219 L72.5723,1406.4219 M59.5723,1425.4219 L46.5723,1440.4219 M59.5723,1425.4219 L72.5723,1440.4219 " fill="none" style="stroke:#181818;stroke-width:0.5;"/><rect fill="#E3E3E3" height="32.6211" rx="2.5" ry="2.5" style="stroke:#181818;stroke-width:0.5;" width="212.3994" x="248.6177" y="89.6211"/><text fill="#000000" font-family="sans-serif" font-size="14" lengthAdjust="spacing" textLength="198.3994" x="255.6177" y="111.7285">:RemoveDroneFromInventoryUI</text><rect fill="#E3E3E3" height="32.6211" rx="2.5" ry="2.5" style="stroke:#181818;stroke-width:0.5;" width="212.3994" x="248.6177" y="1363.3008"/><text fill="#000000" font-family="sans-serif" font-size="14" lengthAdjust="spacing" textLength="198.3994" x="255.6177" y="1385.4082">:RemoveDroneFromInventoryUI</text><rect fill="#E3E3E3" height="32.6211" rx="2.5" ry="2.5" style="stroke:#181818;stroke-width:0.5;" width="259.0889" x="561.1621" y="89.6211"/><text fill="#000000" font-family="sans-serif" font-size="14" lengthAdjust="spacing" textLength="245.0889" x="568.1621" y="111.7285">:RemoveDroneFromInventoryController</text><rect fill="#E3E3E3" height="32.6211" rx="2.5" ry="2.5" style="stroke:#181818;stroke-width:0.5;" width="259.0889" x="561.1621" y="1363.3008"/><text fill="#000000" font-family="sans-serif" font-size="14" lengthAdjust="spacing" textLength="245.0889" x="568.1621" y="1385.4082">:RemoveDroneFromInventoryController</text><rect fill="#E3E3E3" height="32.6211" rx="2.5" ry="2.5" style="stroke:#181818;stroke-width:0.5;" width="95.7031" x="892.792" y="89.6211"/><text fill="#000000" font-family="sans-serif" font-size="14" lengthAdjust="spacing" textLength="81.7031" x="899.792" y="111.7285">:Repositories</text><rect fill="#E3E3E3" height="32.6211" rx="2.5" ry="2.5" style="stroke:#181818;stroke-width:0.5;" width="95.7031" x="892.792" y="1363.3008"/><text fill="#000000" font-family="sans-serif" font-size="14" lengthAdjust="spacing" textLength="81.7031" x="899.792" y="1385.4082">:Repositories</text><rect fill="#E3E3E3" height="51.2422" rx="2.5" ry="2.5" style="stroke:#181818;stroke-width:0.5;" width="95.7031" x="998.4951" y="71"/><text fill="#000000" font-family="sans-serif" font-size="14" lengthAdjust="spacing" textLength="72.3652" x="1010.1641" y="93.1074">repositories</text><text fill="#000000" font-family="sans-serif" font-size="14" lengthAdjust="spacing" textLength="81.7031" x="1005.4951" y="111.7285">:Repositories</text><rect fill="#E3E3E3" height="51.2422" rx="2.5" ry="2.5" style="stroke:#181818;stroke-width:0.5;" width="95.7031" x="998.4951" y="1363.3008"/><text fill="#000000" font-family="sans-serif" font-size="14" lengthAdjust="spacing" textLength="72.3652" x="1010.1641" y="1385.4082">repositories</text><text fill="#000000" font-family="sans-serif" font-size="14" lengthAdjust="spacing" textLength="81.7031" x="1005.4951" y="1404.0293">:Repositories</text><rect fill="#E3E3E3" height="51.2422" rx="2.5" ry="2.5" style="stroke:#181818;stroke-width:0.5;" width="122.9375" x="1104.1982" y="71"/><text fill="#000000" font-family="sans-serif" font-size="14" lengthAdjust="spacing" textLength="102.7236" x="1114.3052" y="93.1074">droneRepository</text><text fill="#000000" font-family="sans-serif" font-size="14" lengthAdjust="spacing" textLength="108.9375" x="1111.1982" y="111.7285">:DroneRepository</text><rect fill="#E3E3E3" height="51.2422" rx="2.5" ry="2.5" style="stroke:#181818;stroke-width:0.5;" width="122.9375" x="1104.1982" y="1363.3008"/><text fill="#000000" font-family="sans-serif" font-size="14" lengthAdjust="spacing" textLength="102.7236" x="1114.3052" y="1385.4082">droneRepository</text><text fill="#000000" font-family="sans-serif" font-size="14" lengthAdjust="spacing" textLength="108.9375" x="1111.1982" y="1404.0293">:DroneRepository</text><rect fill="#E3E3E3" height="51.2422" rx="2.5" ry="2.5" style="stroke:#181818;stroke-width:0.5;" width="223.3096" x="1237.1357" y="71"/><text fill="#000000" font-family="sans-serif" font-size="14" lengthAdjust="spacing" textLength="203.0957" x="1247.2427" y="93.1074">droneRemovalRecordRepository</text><text fill="#000000" font-family="sans-serif" font-size="14" lengthAdjust="spacing" textLength="209.3096" x="1244.1357" y="111.7285">:DroneRemovalRecordRepository</text><rect fill="#E3E3E3" height="51.2422" rx="2.5" ry="2.5" style="stroke:#181818;stroke-width:0.5;" width="223.3096" x="1237.1357" y="1363.3008"/><text fill="#000000" font-family="sans-serif" font-size="14" lengthAdjust="spacing" textLength="203.0957" x="1247.2427" y="1385.4082">droneRemovalRecordRepository</text><text fill="#000000" font-family="sans-serif" font-size="14" lengthAdjust="spacing" textLength="209.3096" x="1244.1357" y="1404.0293">:DroneRemovalRecordRepository</text><rect fill="#E3E3E3" height="51.2422" rx="2.5" ry="2.5" style="stroke:#181818;stroke-width:0.5;" width="116.6963" x="1470.4453" y="71"/><text fill="#000000" font-family="sans-serif" font-size="14" lengthAdjust="spacing" textLength="94.1445" x="1481.7212" y="93.1074">factoryProvider</text><text fill="#000000" font-family="sans-serif" font-size="14" lengthAdjust="spacing" textLength="102.6963" x="1477.4453" y="111.7285">:FactoryProvider</text><rect fill="#E3E3E3" height="51.2422" rx="2.5" ry="2.5" style="stroke:#181818;stroke-width:0.5;" width="116.6963" x="1470.4453" y="1363.3008"/><text fill="#000000" font-family="sans-serif" font-size="14" lengthAdjust="spacing" textLength="94.1445" x="1481.7212" y="1385.4082">factoryProvider</text><text fill="#000000" font-family="sans-serif" font-size="14" lengthAdjust="spacing" textLength="102.6963" x="1477.4453" y="1404.0293">:FactoryProvider</text><rect fill="#E3E3E3" height="51.2422" rx="2.5" ry="2.5" style="stroke:#181818;stroke-width:0.5;" width="229.5166" x="1597.1416" y="71"/><text fill="#000000" font-family="sans-serif" font-size="14" lengthAdjust="spacing" textLength="209.3027" x="1607.2485" y="93.1074">droneRemovalRecordFactoryImpl</text><text fill="#000000" font-family="sans-serif" font-size="14" lengthAdjust="spacing" textLength="215.5166" x="1604.1416" y="111.7285">:DroneRemovalRecordFactoryImpl</text><rect fill="#E3E3E3" height="51.2422" rx="2.5" ry="2.5" style="stroke:#181818;stroke-width:0.5;" width="229.5166" x="1597.1416" y="1363.3008"/><text fill="#000000" font-family="sans-serif" font-size="14" lengthAdjust="spacing" textLength="209.3027" x="1607.2485" y="1385.4082">droneRemovalRecordFactoryImpl</text><text fill="#000000" font-family="sans-serif" font-size="14" lengthAdjust="spacing" textLength="215.5166" x="1604.1416" y="1404.0293">:DroneRemovalRecordFactoryImpl</text><rect fill="#E3E3E3" height="51.2422" rx="2.5" ry="2.5" style="stroke:#181818;stroke-width:0.5;" width="156.3926" x="1836.6582" y="1363.3008"/><text fill="#000000" font-family="sans-serif" font-size="14" lengthAdjust="spacing" textLength="136.1787" x="1846.7651" y="1385.4082">droneRemovalRecord</text><text fill="#000000" font-family="sans-serif" font-size="14" lengthAdjust="spacing" textLength="142.3926" x="1843.6582" y="1404.0293">:DroneRemovalRecord</text><rect fill="#E3E3E3" height="51.2422" rx="2.5" ry="2.5" style="stroke:#181818;stroke-width:0.5;" width="208.5166" x="2003.0508" y="71"/><text fill="#000000" font-family="sans-serif" font-size="14" lengthAdjust="spacing" textLength="188.3027" x="2013.1577" y="93.1074">droneRemovalRecordJPAImpl</text><text fill="#000000" font-family="sans-serif" font-size="14" lengthAdjust="spacing" textLength="194.5166" x="2010.0508" y="111.7285">:DroneRemovalRecordJPAImpl</text><rect fill="#E3E3E3" height="51.2422" rx="2.5" ry="2.5" style="stroke:#181818;stroke-width:0.5;" width="208.5166" x="2003.0508" y="1363.3008"/><text fill="#000000" font-family="sans-serif" font-size="14" lengthAdjust="spacing" textLength="188.3027" x="2013.1577" y="1385.4082">droneRemovalRecordJPAImpl</text><text fill="#000000" font-family="sans-serif" font-size="14" lengthAdjust="spacing" textLength="194.5166" x="2010.0508" y="1404.0293">:DroneRemovalRecordJPAImpl</text><rect fill="#E3E3E3" height="51.2422" rx="2.5" ry="2.5" style="stroke:#181818;stroke-width:0.5;" width="285.5439" x="2221.5674" y="71"/><text fill="#000000" font-family="sans-serif" font-size="14" lengthAdjust="spacing" textLength="266.875" x="2230.9019" y="93.1074">inMemoryDroneRemovalRecordRepository</text><text fill="#000000" font-family="sans-serif" font-size="14" lengthAdjust="spacing" textLength="271.5439" x="2228.5674" y="111.7285">:InMemoryDroneRemovalRecordRepository</text><rect fill="#E3E3E3" height="51.2422" rx="2.5" ry="2.5" style="stroke:#181818;stroke-width:0.5;" width="285.5439" x="2221.5674" y="1363.3008"/><text fill="#000000" font-family="sans-serif" font-size="14" lengthAdjust="spacing" textLength="266.875" x="2230.9019" y="1385.4082">inMemoryDroneRemovalRecordRepository</text><text fill="#000000" font-family="sans-serif" font-size="14" lengthAdjust="spacing" textLength="271.5439" x="2228.5674" y="1404.0293">:InMemoryDroneRemovalRecordRepository</text><rect fill="#E3E3E3" height="51.2422" rx="2.5" ry="2.5" style="stroke:#181818;stroke-width:0.5;" width="112.041" x="2517.1113" y="71"/><text fill="#000000" font-family="sans-serif" font-size="14" lengthAdjust="spacing" textLength="89.4756" x="2528.394" y="93.1074">localDateTime</text><text fill="#000000" font-family="sans-serif" font-size="14" lengthAdjust="spacing" textLength="98.041" x="2524.1113" y="111.7285">:LocalDateTime</text><rect fill="#E3E3E3" height="51.2422" rx="2.5" ry="2.5" style="stroke:#181818;stroke-width:0.5;" width="112.041" x="2517.1113" y="1363.3008"/><text fill="#000000" font-family="sans-serif" font-size="14" lengthAdjust="spacing" textLength="89.4756" x="2528.394" y="1385.4082">localDateTime</text><text fill="#000000" font-family="sans-serif" font-size="14" lengthAdjust="spacing" textLength="98.041" x="2524.1113" y="1404.0293">:LocalDateTime</text><rect fill="#E3E3E3" height="51.2422" rx="2.5" ry="2.5" style="stroke:#181818;stroke-width:0.5;" width="93.3721" x="2639.1523" y="71"/><text fill="#000000" font-family="sans-serif" font-size="14" lengthAdjust="spacing" textLength="73.9307" x="2648.873" y="93.1074">authService</text><text fill="#000000" font-family="sans-serif" font-size="14" lengthAdjust="spacing" textLength="79.3721" x="2646.1523" y="111.7285">:AuthService</text><rect fill="#E3E3E3" height="51.2422" rx="2.5" ry="2.5" style="stroke:#181818;stroke-width:0.5;" width="93.3721" x="2639.1523" y="1363.3008"/><text fill="#000000" font-family="sans-serif" font-size="14" lengthAdjust="spacing" textLength="73.9307" x="2648.873" y="1385.4082">authService</text><text fill="#000000" font-family="sans-serif" font-size="14" lengthAdjust="spacing" textLength="79.3721" x="2646.1523" y="1404.0293">:AuthService</text><rect fill="#FFFFFF" height="451.0742" style="stroke:#181818;stroke-width:1.0;" width="10" x="54.5723" y="133.2422"/><rect fill="#FFFFFF" height="427.7832" style="stroke:#181818;stroke-width:1.0;" width="10" x="349.8174" y="156.5332"/><rect fill="#FFFFFF" height="333.9102" style="stroke:#181818;stroke-width:1.0;" width="10" x="685.7065" y="250.4063"/><rect fill="#FFFFFF" height="167.4551" style="stroke:#181818;stroke-width:1.0;" width="10" x="690.7065" y="289.6973"/><rect fill="#FFFFFF" height="167.4551" style="stroke:#181818;stroke-width:1.0;" width="10" x="685.7065" y="671.5293"/><rect fill="#FFFFFF" height="31.291" style="stroke:#181818;stroke-width:1.0;" width="10" x="935.6436" y="325.9883"/><rect fill="#FFFFFF" height="31.291" style="stroke:#181818;stroke-width:1.0;" width="10" x="935.6436" y="707.8203"/><rect fill="#FFFFFF" height="31.291" style="stroke:#181818;stroke-width:1.0;" width="10" x="1041.3467" y="388.5703"/><rect fill="#FFFFFF" height="31.291" style="stroke:#181818;stroke-width:1.0;" width="10" x="1041.3467" y="770.4023"/><rect fill="#FFFFFF" height="31.291" style="stroke:#181818;stroke-width:1.0;" width="10" x="1160.667" y="495.4434"/><rect fill="#FFFFFF" height="31.291" style="stroke:#181818;stroke-width:1.0;" width="10" x="1523.7935" y="877.2754"/><rect fill="#FFFFFF" height="93.5332" style="stroke:#181818;stroke-width:1.0;" width="10" x="1706.8999" y="1065.0215"/><rect fill="#FFFFFF" height="31.291" style="stroke:#181818;stroke-width:1.0;" width="10" x="2102.3091" y="1189.8457"/><rect fill="#FFFFFF" height="31.291" style="stroke:#181818;stroke-width:1.0;" width="10" x="2359.3394" y="1252.4277"/><rect fill="#FFFFFF" height="31.291" style="stroke:#181818;stroke-width:1.0;" width="10" x="2568.1318" y="939.8574"/><rect fill="#FFFFFF" height="31.291" style="stroke:#181818;stroke-width:1.0;" width="10" x="2680.8384" y="1002.4395"/><polygon fill="#181818" points="337.8174,152.5332,347.8174,156.5332,337.8174,160.5332,341.8174,156.5332" style="stroke:#181818;stroke-width:1.0;"/><line style="stroke:#181818;stroke-width:1.0;" x1="64.5723" x2="343.8174" y1="156.5332" y2="156.5332"/><text fill="#000000" font-family="sans-serif" font-size="13" font-weight="bold" lengthAdjust="spacing" textLength="7.23" x="71.5723" y="151.2705">1</text><text fill="#000000" font-family="sans-serif" font-size="13" lengthAdjust="spacing" textLength="141.6353" x="82.8022" y="151.2705">request to remove drone</text><polygon fill="#181818" points="75.5723,183.8242,65.5723,187.8242,75.5723,191.8242,71.5723,187.8242" style="stroke:#181818;stroke-width:1.0;"/><line style="stroke:#181818;stroke-width:1.0;" x1="69.5723" x2="348.8174" y1="187.8242" y2="187.8242"/><text fill="#000000" font-family="sans-serif" font-size="13" font-weight="bold" lengthAdjust="spacing" textLength="7.23" x="81.5723" y="182.5615">2</text><text fill="#000000" font-family="sans-serif" font-size="13" lengthAdjust="spacing" textLength="239.8906" x="92.8022" y="182.5615">ask for serial number and removal reason</text><polygon fill="#181818" points="337.8174,215.1152,347.8174,219.1152,337.8174,223.1152,341.8174,219.1152" style="stroke:#181818;stroke-width:1.0;"/><line style="stroke:#181818;stroke-width:1.0;" x1="64.5723" x2="343.8174" y1="219.1152" y2="219.1152"/><text fill="#000000" font-family="sans-serif" font-size="13" font-weight="bold" lengthAdjust="spacing" textLength="7.23" x="71.5723" y="213.8525">3</text><text fill="#000000" font-family="sans-serif" font-size="13" lengthAdjust="spacing" textLength="250.0151" x="82.8022" y="213.8525">provides serial number and removal reason</text><polygon fill="#181818" points="673.7065,246.4063,683.7065,250.4063,673.7065,254.4063,677.7065,250.4063" style="stroke:#181818;stroke-width:1.0;"/><line style="stroke:#181818;stroke-width:1.0;" x1="359.8174" x2="679.7065" y1="250.4063" y2="250.4063"/><text fill="#000000" font-family="sans-serif" font-size="13" font-weight="bold" lengthAdjust="spacing" textLength="7.23" x="366.8174" y="245.1436">4</text><text fill="#000000" font-family="sans-serif" font-size="13" lengthAdjust="spacing" textLength="262.9834" x="378.0474" y="245.1436">removeDrone(serialNumber, removalReason)</text><line style="stroke:#181818;stroke-width:1.0;" x1="695.7065" x2="742.7065" y1="276.6973" y2="276.6973"/><line style="stroke:#181818;stroke-width:1.0;" x1="742.7065" x2="742.7065" y1="276.6973" y2="289.6973"/><line style="stroke:#181818;stroke-width:1.0;" x1="701.7065" x2="742.7065" y1="289.6973" y2="289.6973"/><polygon fill="#181818" points="711.7065,285.6973,701.7065,289.6973,711.7065,293.6973,707.7065,289.6973" style="stroke:#181818;stroke-width:1.0;"/><text fill="#000000" font-family="sans-serif" font-size="13" font-weight="bold" lengthAdjust="spacing" textLength="7.23" x="707.7065" y="271.4346">5</text><text fill="#000000" font-family="sans-serif" font-size="13" lengthAdjust="spacing" textLength="124.2744" x="718.9365" y="271.4346">getDroneRepository()</text><polygon fill="#181818" points="923.6436,321.9883,933.6436,325.9883,923.6436,329.9883,927.6436,325.9883" style="stroke:#181818;stroke-width:1.0;"/><line style="stroke:#181818;stroke-width:1.0;" x1="700.7065" x2="929.6436" y1="325.9883" y2="325.9883"/><text fill="#000000" font-family="sans-serif" font-size="13" font-weight="bold" lengthAdjust="spacing" textLength="7.23" x="707.7065" y="320.7256">6</text><text fill="#000000" font-family="sans-serif" font-size="13" lengthAdjust="spacing" textLength="75.8735" x="718.9365" y="320.7256">getInstance()</text><polygon fill="#181818" points="711.7065,353.2793,701.7065,357.2793,711.7065,361.2793,707.7065,357.2793" style="stroke:#181818;stroke-width:1.0;"/><line style="stroke:#181818;stroke-width:1.0;stroke-dasharray:2.0,2.0;" x1="705.7065" x2="939.6436" y1="357.2793" y2="357.2793"/><text fill="#000000" font-family="sans-serif" font-size="13" font-weight="bold" lengthAdjust="spacing" textLength="7.23" x="717.7065" y="352.0166">7</text><text fill="#000000" font-family="sans-serif" font-size="13" lengthAdjust="spacing" textLength="67.1963" x="728.9365" y="352.0166">repositories</text><polygon fill="#181818" points="1029.3467,384.5703,1039.3467,388.5703,1029.3467,392.5703,1033.3467,388.5703" style="stroke:#181818;stroke-width:1.0;"/><line style="stroke:#181818;stroke-width:1.0;" x1="700.7065" x2="1035.3467" y1="388.5703" y2="388.5703"/><text fill="#000000" font-family="sans-serif" font-size="13" font-weight="bold" lengthAdjust="spacing" textLength="7.23" x="707.7065" y="383.3076">8</text><text fill="#000000" font-family="sans-serif" font-size="13" lengthAdjust="spacing" textLength="124.2744" x="718.9365" y="383.3076">getDroneRepository()</text><polygon fill="#181818" points="711.7065,415.8613,701.7065,419.8613,711.7065,423.8613,707.7065,419.8613" style="stroke:#181818;stroke-width:1.0;"/><line style="stroke:#181818;stroke-width:1.0;stroke-dasharray:2.0,2.0;" x1="705.7065" x2="1045.3467" y1="419.8613" y2="419.8613"/><text fill="#000000" font-family="sans-serif" font-size="13" font-weight="bold" lengthAdjust="spacing" textLength="7.23" x="717.7065" y="414.5986">9</text><text fill="#000000" font-family="sans-serif" font-size="13" lengthAdjust="spacing" textLength="95.3862" x="728.9365" y="414.5986">droneRepository</text><line style="stroke:#181818;stroke-width:1.0;stroke-dasharray:2.0,2.0;" x1="700.7065" x2="742.7065" y1="456.1523" y2="456.1523"/><line style="stroke:#181818;stroke-width:1.0;stroke-dasharray:2.0,2.0;" x1="742.7065" x2="742.7065" y1="456.1523" y2="469.1523"/><line style="stroke:#181818;stroke-width:1.0;stroke-dasharray:2.0,2.0;" x1="695.7065" x2="742.7065" y1="469.1523" y2="469.1523"/><polygon fill="#181818" points="705.7065,465.1523,695.7065,469.1523,705.7065,473.1523,701.7065,469.1523" style="stroke:#181818;stroke-width:1.0;"/><text fill="#000000" font-family="sans-serif" font-size="13" font-weight="bold" lengthAdjust="spacing" textLength="14.46" x="707.7065" y="450.8896">10</text><text fill="#000000" font-family="sans-serif" font-size="13" lengthAdjust="spacing" textLength="95.3862" x="726.1665" y="450.8896">droneRepository</text><polygon fill="#181818" points="1148.667,491.4434,1158.667,495.4434,1148.667,499.4434,1152.667,495.4434" style="stroke:#181818;stroke-width:1.0;"/><line style="stroke:#181818;stroke-width:1.0;" x1="695.7065" x2="1154.667" y1="495.4434" y2="495.4434"/><text fill="#000000" font-family="sans-serif" font-size="13" font-weight="bold" lengthAdjust="spacing" textLength="14.46" x="702.7065" y="490.1807">11</text><text fill="#000000" font-family="sans-serif" font-size="13" lengthAdjust="spacing" textLength="213.8335" x="721.1665" y="490.1807">existsBySerialNumber(serialNumber)</text><polygon fill="#181818" points="706.7065,522.7344,696.7065,526.7344,706.7065,530.7344,702.7065,526.7344" style="stroke:#181818;stroke-width:1.0;"/><line style="stroke:#181818;stroke-width:1.0;stroke-dasharray:2.0,2.0;" x1="700.7065" x2="1164.667" y1="526.7344" y2="526.7344"/><text fill="#000000" font-family="sans-serif" font-size="13" font-weight="bold" lengthAdjust="spacing" textLength="14.46" x="712.7065" y="521.4717">12</text><text fill="#000000" font-family="sans-serif" font-size="13" lengthAdjust="spacing" textLength="33.23" x="731.1665" y="521.4717">exists</text><polygon fill="#181818" points="365.8174,580.3164,355.8174,584.3164,365.8174,588.3164,361.8174,584.3164" style="stroke:#181818;stroke-width:1.0;"/><line style="stroke:#181818;stroke-width:1.0;" x1="359.8174" x2="689.7065" y1="584.3164" y2="584.3164"/><text fill="#000000" font-family="sans-serif" font-size="13" font-weight="bold" lengthAdjust="spacing" textLength="14.46" x="371.8174" y="579.0537">13</text><text fill="#000000" font-family="sans-serif" font-size="13" lengthAdjust="spacing" textLength="283.4292" x="390.2773" y="579.0537">error("Serial number not found: " + serialNumber)</text><polygon fill="#181818" points="678.7065,611.6074,688.7065,615.6074,678.7065,619.6074,682.7065,615.6074" style="stroke:#181818;stroke-width:1.0;"/><line style="stroke:#181818;stroke-width:1.0;stroke-dasharray:2.0,2.0;" x1="354.8174" x2="684.7065" y1="615.6074" y2="615.6074"/><text fill="#000000" font-family="sans-serif" font-size="13" font-weight="bold" lengthAdjust="spacing" textLength="14.46" x="361.8174" y="610.3447">14</text><text fill="#000000" font-family="sans-serif" font-size="13" lengthAdjust="spacing" textLength="3.6118" x="380.2773" y="610.3447">&#160;</text><line style="stroke:#181818;stroke-width:1.0;" x1="690.7065" x2="737.7065" y1="658.5293" y2="658.5293"/><line style="stroke:#181818;stroke-width:1.0;" x1="737.7065" x2="737.7065" y1="658.5293" y2="671.5293"/><line style="stroke:#181818;stroke-width:1.0;" x1="696.7065" x2="737.7065" y1="671.5293" y2="671.5293"/><polygon fill="#181818" points="706.7065,667.5293,696.7065,671.5293,706.7065,675.5293,702.7065,671.5293" style="stroke:#181818;stroke-width:1.0;"/><text fill="#000000" font-family="sans-serif" font-size="13" font-weight="bold" lengthAdjust="spacing" textLength="14.46" x="702.7065" y="653.2666">15</text><text fill="#000000" font-family="sans-serif" font-size="13" lengthAdjust="spacing" textLength="217.4771" x="721.1665" y="653.2666">getDroneRemovalRecordRepository()</text><polygon fill="#181818" points="923.6436,703.8203,933.6436,707.8203,923.6436,711.8203,927.6436,707.8203" style="stroke:#181818;stroke-width:1.0;"/><line style="stroke:#181818;stroke-width:1.0;" x1="695.7065" x2="929.6436" y1="707.8203" y2="707.8203"/><text fill="#000000" font-family="sans-serif" font-size="13" font-weight="bold" lengthAdjust="spacing" textLength="14.46" x="702.7065" y="702.5576">16</text><text fill="#000000" font-family="sans-serif" font-size="13" lengthAdjust="spacing" textLength="75.8735" x="721.1665" y="702.5576">getInstance()</text><polygon fill="#181818" points="706.7065,735.1113,696.7065,739.1113,706.7065,743.1113,702.7065,739.1113" style="stroke:#181818;stroke-width:1.0;"/><line style="stroke:#181818;stroke-width:1.0;stroke-dasharray:2.0,2.0;" x1="700.7065" x2="939.6436" y1="739.1113" y2="739.1113"/><text fill="#000000" font-family="sans-serif" font-size="13" font-weight="bold" lengthAdjust="spacing" textLength="14.46" x="712.7065" y="733.8486">17</text><text fill="#000000" font-family="sans-serif" font-size="13" lengthAdjust="spacing" textLength="67.1963" x="731.1665" y="733.8486">repositories</text><polygon fill="#181818" points="1029.3467,766.4023,1039.3467,770.4023,1029.3467,774.4023,1033.3467,770.4023" style="stroke:#181818;stroke-width:1.0;"/><line style="stroke:#181818;stroke-width:1.0;" x1="695.7065" x2="1035.3467" y1="770.4023" y2="770.4023"/><text fill="#000000" font-family="sans-serif" font-size="13" font-weight="bold" lengthAdjust="spacing" textLength="14.46" x="702.7065" y="765.1396">18</text><text fill="#000000" font-family="sans-serif" font-size="13" lengthAdjust="spacing" textLength="217.4771" x="721.1665" y="765.1396">getDroneRemovalRecordRepository()</text><polygon fill="#181818" points="706.7065,797.6934,696.7065,801.6934,706.7065,805.6934,702.7065,801.6934" style="stroke:#181818;stroke-width:1.0;"/><line style="stroke:#181818;stroke-width:1.0;stroke-dasharray:2.0,2.0;" x1="700.7065" x2="1045.3467" y1="801.6934" y2="801.6934"/><text fill="#000000" font-family="sans-serif" font-size="13" font-weight="bold" lengthAdjust="spacing" textLength="14.46" x="712.7065" y="796.4307">19</text><text fill="#000000" font-family="sans-serif" font-size="13" lengthAdjust="spacing" textLength="188.5889" x="731.1665" y="796.4307">droneRemovalRecordRepository</text><line style="stroke:#181818;stroke-width:1.0;stroke-dasharray:2.0,2.0;" x1="695.7065" x2="737.7065" y1="837.9844" y2="837.9844"/><line style="stroke:#181818;stroke-width:1.0;stroke-dasharray:2.0,2.0;" x1="737.7065" x2="737.7065" y1="837.9844" y2="850.9844"/><line style="stroke:#181818;stroke-width:1.0;stroke-dasharray:2.0,2.0;" x1="690.7065" x2="737.7065" y1="850.9844" y2="850.9844"/><polygon fill="#181818" points="700.7065,846.9844,690.7065,850.9844,700.7065,854.9844,696.7065,850.9844" style="stroke:#181818;stroke-width:1.0;"/><text fill="#000000" font-family="sans-serif" font-size="13" font-weight="bold" lengthAdjust="spacing" textLength="14.46" x="702.7065" y="832.7217">20</text><text fill="#000000" font-family="sans-serif" font-size="13" lengthAdjust="spacing" textLength="188.5889" x="721.1665" y="832.7217">droneRemovalRecordRepository</text><polygon fill="#181818" points="1511.7935,873.2754,1521.7935,877.2754,1511.7935,881.2754,1515.7935,877.2754" style="stroke:#181818;stroke-width:1.0;"/><line style="stroke:#181818;stroke-width:1.0;" x1="690.7065" x2="1517.7935" y1="877.2754" y2="877.2754"/><text fill="#000000" font-family="sans-serif" font-size="13" font-weight="bold" lengthAdjust="spacing" textLength="14.46" x="697.7065" y="872.0127">21</text><text fill="#000000" font-family="sans-serif" font-size="13" lengthAdjust="spacing" textLength="198.6816" x="716.1665" y="872.0127">getDroneRemovalRecordFactory()</text><polygon fill="#181818" points="701.7065,904.5664,691.7065,908.5664,701.7065,912.5664,697.7065,908.5664" style="stroke:#181818;stroke-width:1.0;"/><line style="stroke:#181818;stroke-width:1.0;stroke-dasharray:2.0,2.0;" x1="695.7065" x2="1527.7935" y1="908.5664" y2="908.5664"/><text fill="#000000" font-family="sans-serif" font-size="13" font-weight="bold" lengthAdjust="spacing" textLength="14.46" x="707.7065" y="903.3037">22</text><text fill="#000000" font-family="sans-serif" font-size="13" lengthAdjust="spacing" textLength="169.7935" x="726.1665" y="903.3037">droneRemovalRecordFactory</text><polygon fill="#181818" points="2556.1318,935.8574,2566.1318,939.8574,2556.1318,943.8574,2560.1318,939.8574" style="stroke:#181818;stroke-width:1.0;"/><line style="stroke:#181818;stroke-width:1.0;" x1="690.7065" x2="2562.1318" y1="939.8574" y2="939.8574"/><text fill="#000000" font-family="sans-serif" font-size="13" font-weight="bold" lengthAdjust="spacing" textLength="14.46" x="697.7065" y="934.5947">23</text><text fill="#000000" font-family="sans-serif" font-size="13" lengthAdjust="spacing" textLength="117.0381" x="716.1665" y="934.5947">getCurrentMoment()</text><polygon fill="#181818" points="701.7065,967.1484,691.7065,971.1484,701.7065,975.1484,697.7065,971.1484" style="stroke:#181818;stroke-width:1.0;"/><line style="stroke:#181818;stroke-width:1.0;stroke-dasharray:2.0,2.0;" x1="695.7065" x2="2572.1318" y1="971.1484" y2="971.1484"/><text fill="#000000" font-family="sans-serif" font-size="13" font-weight="bold" lengthAdjust="spacing" textLength="14.46" x="707.7065" y="965.8857">24</text><text fill="#000000" font-family="sans-serif" font-size="13" lengthAdjust="spacing" textLength="73.6963" x="726.1665" y="965.8857">removalDate</text><polygon fill="#181818" points="2668.8384,998.4395,2678.8384,1002.4395,2668.8384,1006.4395,2672.8384,1002.4395" style="stroke:#181818;stroke-width:1.0;"/><line style="stroke:#181818;stroke-width:1.0;" x1="690.7065" x2="2674.8384" y1="1002.4395" y2="1002.4395"/><text fill="#000000" font-family="sans-serif" font-size="13" font-weight="bold" lengthAdjust="spacing" textLength="14.46" x="697.7065" y="997.1768">25</text><text fill="#000000" font-family="sans-serif" font-size="13" lengthAdjust="spacing" textLength="97.5254" x="716.1665" y="997.1768">getCurrentUser()</text><polygon fill="#181818" points="701.7065,1029.7305,691.7065,1033.7305,701.7065,1037.7305,697.7065,1033.7305" style="stroke:#181818;stroke-width:1.0;"/><line style="stroke:#181818;stroke-width:1.0;stroke-dasharray:2.0,2.0;" x1="695.7065" x2="2684.8384" y1="1033.7305" y2="1033.7305"/><text fill="#000000" font-family="sans-serif" font-size="13" font-weight="bold" lengthAdjust="spacing" textLength="14.46" x="707.7065" y="1028.4678">26</text><text fill="#000000" font-family="sans-serif" font-size="13" lengthAdjust="spacing" textLength="65.749" x="726.1665" y="1028.4678">removedBy</text><polygon fill="#181818" points="1694.8999,1061.0215,1704.8999,1065.0215,1694.8999,1069.0215,1698.8999,1065.0215" style="stroke:#181818;stroke-width:1.0;"/><line style="stroke:#181818;stroke-width:1.0;" x1="690.7065" x2="1700.8999" y1="1065.0215" y2="1065.0215"/><text fill="#000000" font-family="sans-serif" font-size="13" font-weight="bold" lengthAdjust="spacing" textLength="14.46" x="697.7065" y="1059.7588">27</text><text fill="#000000" font-family="sans-serif" font-size="13" lengthAdjust="spacing" textLength="502.8613" x="716.1665" y="1059.7588">createDroneRemovalRecord(serialNumber, removalReason, removalDate, removedBy)</text><polygon fill="#181818" points="1824.6582,1092.3125,1834.6582,1096.3125,1824.6582,1100.3125,1828.6582,1096.3125" style="stroke:#181818;stroke-width:1.0;"/><line style="stroke:#181818;stroke-width:1.0;" x1="1716.8999" x2="1830.6582" y1="1096.3125" y2="1096.3125"/><text fill="#000000" font-family="sans-serif" font-size="13" font-weight="bold" lengthAdjust="spacing" textLength="14.46" x="1723.8999" y="1091.0498">28</text><text fill="#000000" font-family="sans-serif" font-size="13" lengthAdjust="spacing" textLength="36.1309" x="1742.3599" y="1091.0498">create</text><rect fill="#E3E3E3" height="51.2422" rx="2.5" ry="2.5" style="stroke:#181818;stroke-width:0.5;" width="156.3926" x="1836.6582" y="1073.0215"/><text fill="#000000" font-family="sans-serif" font-size="14" lengthAdjust="spacing" textLength="136.1787" x="1846.7651" y="1095.1289">droneRemovalRecord</text><text fill="#000000" font-family="sans-serif" font-size="14" lengthAdjust="spacing" textLength="142.3926" x="1843.6582" y="1113.75">:DroneRemovalRecord</text><polygon fill="#181818" points="701.7065,1154.5547,691.7065,1158.5547,701.7065,1162.5547,697.7065,1158.5547" style="stroke:#181818;stroke-width:1.0;"/><line style="stroke:#181818;stroke-width:1.0;stroke-dasharray:2.0,2.0;" x1="695.7065" x2="1710.8999" y1="1158.5547" y2="1158.5547"/><text fill="#000000" font-family="sans-serif" font-size="13" font-weight="bold" lengthAdjust="spacing" textLength="14.46" x="707.7065" y="1153.292">29</text><text fill="#000000" font-family="sans-serif" font-size="13" lengthAdjust="spacing" textLength="164.0234" x="726.1665" y="1153.292">droneRemovalRecordObject</text><polygon fill="#181818" points="2090.3091,1185.8457,2100.3091,1189.8457,2090.3091,1193.8457,2094.3091,1189.8457" style="stroke:#181818;stroke-width:1.0;"/><line style="stroke:#181818;stroke-width:1.0;" x1="690.7065" x2="2096.3091" y1="1189.8457" y2="1189.8457"/><text fill="#000000" font-family="sans-serif" font-size="13" font-weight="bold" lengthAdjust="spacing" textLength="14.46" x="697.7065" y="1184.583">30</text><text fill="#000000" font-family="sans-serif" font-size="13" lengthAdjust="spacing" textLength="194.3716" x="716.1665" y="1184.583">add(droneRemovalRecordObject)</text><polygon fill="#181818" points="701.7065,1217.1367,691.7065,1221.1367,701.7065,1225.1367,697.7065,1221.1367" style="stroke:#181818;stroke-width:1.0;"/><line style="stroke:#181818;stroke-width:1.0;stroke-dasharray:2.0,2.0;" x1="695.7065" x2="2106.3091" y1="1221.1367" y2="1221.1367"/><text fill="#000000" font-family="sans-serif" font-size="13" font-weight="bold" lengthAdjust="spacing" textLength="14.46" x="707.7065" y="1215.874">31</text><text fill="#000000" font-family="sans-serif" font-size="13" lengthAdjust="spacing" textLength="70.8081" x="726.1665" y="1215.874">confirmation</text><polygon fill="#181818" points="2347.3394,1248.4277,2357.3394,1252.4277,2347.3394,1256.4277,2351.3394,1252.4277" style="stroke:#181818;stroke-width:1.0;"/><line style="stroke:#181818;stroke-width:1.0;" x1="690.7065" x2="2353.3394" y1="1252.4277" y2="1252.4277"/><text fill="#000000" font-family="sans-serif" font-size="13" font-weight="bold" lengthAdjust="spacing" textLength="14.46" x="697.7065" y="1247.165">32</text><text fill="#000000" font-family="sans-serif" font-size="13" lengthAdjust="spacing" textLength="194.3716" x="716.1665" y="1247.165">add(droneRemovalRecordObject)</text><polygon fill="#181818" points="701.7065,1279.7188,691.7065,1283.7188,701.7065,1287.7188,697.7065,1283.7188" style="stroke:#181818;stroke-width:1.0;"/><line style="stroke:#181818;stroke-width:1.0;stroke-dasharray:2.0,2.0;" x1="695.7065" x2="2363.3394" y1="1283.7188" y2="1283.7188"/><text fill="#000000" font-family="sans-serif" font-size="13" font-weight="bold" lengthAdjust="spacing" textLength="14.46" x="707.7065" y="1278.4561">33</text><text fill="#000000" font-family="sans-serif" font-size="13" lengthAdjust="spacing" textLength="70.8081" x="726.1665" y="1278.4561">confirmation</text><polygon fill="#181818" points="365.8174,1311.0098,355.8174,1315.0098,365.8174,1319.0098,361.8174,1315.0098" style="stroke:#181818;stroke-width:1.0;"/><line style="stroke:#181818;stroke-width:1.0;" x1="359.8174" x2="689.7065" y1="1315.0098" y2="1315.0098"/><text fill="#000000" font-family="sans-serif" font-size="13" font-weight="bold" lengthAdjust="spacing" textLength="14.46" x="371.8174" y="1309.7471">34</text><text fill="#000000" font-family="sans-serif" font-size="13" lengthAdjust="spacing" textLength="77.3018" x="390.2773" y="1309.7471">serialNumber</text><polygon fill="#181818" points="70.5723,1342.3008,60.5723,1346.3008,70.5723,1350.3008,66.5723,1346.3008" style="stroke:#181818;stroke-width:1.0;"/><line style="stroke:#181818;stroke-width:1.0;" x1="64.5723" x2="353.8174" y1="1346.3008" y2="1346.3008"/><text fill="#000000" font-family="sans-serif" font-size="13" font-weight="bold" lengthAdjust="spacing" textLength="14.46" x="76.5723" y="1341.0381">35</text><text fill="#000000" font-family="sans-serif" font-size="13" lengthAdjust="spacing" textLength="164.0171" x="95.0322" y="1341.0381">shows operation (in)success</text><!--SRC=[dLTDSziW4BthLp0-EQdz1tpeJ19FPjn9sem_RhqGjBPf9701EVM_xuA-G49oafmCx7iyqBvbez-uE555Sv9B8TbHoHo8KGKakbavKVP63x0nbmo80cQeE6H-W3xILBvpSI1xccb84iCDXkvMP0D_2n0Co9BJWmsTRfOtP4xMaCippYefWEnnKx8IPn16gakIqC98KUIleF0tmpaoAGEtm8uJGZL9xT2E4XHWEECdAWoPB4fQ5_o8f0tdRkLWkzK7un-aC4fc6IY7UzYkdth8azGSOpbe5zDCN3RSNWyU8OGe3_5Rz0bUdkws8SATikL5q3ASAU_2ZgD0F1lDri2aIcCiqUNgUfKZ3LdtxbjSNfGyynGK4Zs6Cmvhe-p4DKKLTfMVigWaRxtMPAVi-1frbA_Dcs3w6jUFbxj1YTLQBG-78HiNpnYkBilnpx7wG5Yz1qPslaec6SsMrC2Mvu1iJ_xOmLo47OL0TDbn0-hCcONTjIC7ybQT2VaPAJtV9GJ_cY6PVxTkNs1rGBzhGup4dyxYBiP5DoneGpU12CIr90lS-8tiqUyQ5ASPAOi0eI8jsN1A0TNehFZkfp8HzNMyjxyrjrFUb89f2V_fqBCQkdR8c_0ehZAuAKVJqXt0TCmw7OJwy4WPATbMGcFTPL3H15InsjD4sRyOwxmIQu_Ubg86biB7w6lXjdoDdJiGx6fTeD31MqcTqXTJvJX25UtrT_591zp_RiviY8H_N1jzVzbuEH0aHESpbkMt5UXeF2KbNtT_3qKpqydNL68A2sbARE-cNQg3Kb9D9vi0Q35xMOXqGIRa6-chZjr2P1uD6fbjpLylAZ25Aiq8-EvtZk6TVDGWqO8NovhGCLzrpUUSyqNtVCP1eowwTZbNR3LihIZnaFx0QoD-YvCEfbulD-hcOUWAggOWbXnDtn7eR0X7jLQqCPrzsbfhywoMOXyAfR1vVCR-MPYOmFOP3XIsDFFEOrG-up5H4QfQbVTk1xfswCsOgk2T3vBA8-egW_G-UbbHigR0jWqSyZ1yY0tql_3OsplpxsNMIeaSo-yMmwJsLDJDHo3WzhPHDmmSIwPVht_mNwHu0Os8ygu76qZR0wNfT8WrVbBRU7QrMYvF9fDYprLE3Q-QfxwqWCLJXItdbrIvLhMZod9zJbN04ho0Vg8CF-_z7bCVvRicyWJAxKkcNDpeWZ7GEad2Hp3w-Fq7]--></g></svg>