<svg xmlns="http://www.w3.org/2000/svg" xmlns:xlink="http://www.w3.org/1999/xlink" contentStyleType="text/css" height="647px" preserveAspectRatio="none" style="width:1719px;height:647px;background:#FFFFFF;" version="1.1" viewBox="0 0 1719 647" width="1719px" zoomAndPan="magnify"><title>UI Sequence Diagram (SSD) - List Figure Categories</title><defs/><g><text fill="#000000" font-family="sans-serif" font-size="14" font-weight="bold" lengthAdjust="spacing" textLength="371.8477" x="674.8682" y="28.5352">UI Sequence Diagram (SSD) - List Figure Categories</text><rect fill="#FFFFFF" height="427.125" style="stroke:#181818;stroke-width:1.0;" width="10" x="68.2305" y="128.9766"/><rect fill="#FFFFFF" height="405.8145" style="stroke:#181818;stroke-width:1.0;" width="10" x="439.8379" y="150.2871"/><rect fill="#FFFFFF" height="263.6172" style="stroke:#181818;stroke-width:1.0;" width="10" x="699.7646" y="179.5977"/><rect fill="#FFFFFF" height="31.4883" style="stroke:#181818;stroke-width:1.0;" width="10" x="981.437" y="218.9082"/><rect fill="#FFFFFF" height="29.3105" style="stroke:#181818;stroke-width:1.0;" width="10" x="1390.1729" y="304.0176"/><rect fill="#FFFFFF" height="29.3105" style="stroke:#181818;stroke-width:1.0;" width="10" x="1613.0645" y="377.5938"/><rect fill="none" height="149.5078" style="stroke:#000000;stroke-width:1.5;" width="1130.1885" x="582.3955" y="265.3965"/><rect fill="none" height="90.8867" style="stroke:#000000;stroke-width:1.5;" width="539.2354" x="10" y="458.2148"/><line style="stroke:#181818;stroke-width:0.5;stroke-dasharray:5.0,5.0;" x1="73" x2="73" y1="118.9766" y2="566.1016"/><line style="stroke:#181818;stroke-width:0.5;stroke-dasharray:5.0,5.0;" x1="444.4404" x2="444.4404" y1="118.9766" y2="566.1016"/><line style="stroke:#181818;stroke-width:0.5;stroke-dasharray:5.0,5.0;" x1="704.3955" x2="704.3955" y1="118.9766" y2="566.1016"/><line style="stroke:#181818;stroke-width:0.5;stroke-dasharray:5.0,5.0;" x1="985.5244" x2="985.5244" y1="218.3418" y2="566.1016"/><line style="stroke:#181818;stroke-width:0.5;stroke-dasharray:5.0,5.0;" x1="1161.3496" x2="1161.3496" y1="118.9766" y2="566.1016"/><line style="stroke:#181818;stroke-width:0.5;stroke-dasharray:5.0,5.0;" x1="1394.8008" x2="1394.8008" y1="118.9766" y2="566.1016"/><line style="stroke:#181818;stroke-width:0.5;stroke-dasharray:5.0,5.0;" x1="1617.5449" x2="1617.5449" y1="118.9766" y2="566.1016"/><text fill="#000000" font-family="sans-serif" font-size="14" lengthAdjust="spacing" textLength="100.4609" x="20" y="116.0234">Show Designer</text><ellipse cx="73.2305" cy="50.9883" fill="#E3E3E3" rx="8" ry="8" style="stroke:#181818;stroke-width:0.5;"/><path d="M73.2305,58.9883 L73.2305,85.9883 M60.2305,66.9883 L86.2305,66.9883 M73.2305,85.9883 L60.2305,100.9883 M73.2305,85.9883 L86.2305,100.9883 " fill="none" style="stroke:#181818;stroke-width:0.5;"/><text fill="#000000" font-family="sans-serif" font-size="14" lengthAdjust="spacing" textLength="100.4609" x="20" y="578.6367">Show Designer</text><ellipse cx="73.2305" cy="590.0898" fill="#E3E3E3" rx="8" ry="8" style="stroke:#181818;stroke-width:0.5;"/><path d="M73.2305,598.0898 L73.2305,625.0898 M60.2305,606.0898 L86.2305,606.0898 M73.2305,625.0898 L60.2305,640.0898 M73.2305,625.0898 L86.2305,640.0898 " fill="none" style="stroke:#181818;stroke-width:0.5;"/><rect fill="#E3E3E3" height="30.4883" rx="2.5" ry="2.5" style="stroke:#181818;stroke-width:0.5;" width="188.7949" x="350.4404" y="87.4883"/><text fill="#000000" font-family="sans-serif" font-size="14" lengthAdjust="spacing" textLength="174.7949" x="357.4404" y="108.0234">:ListAllFigureCategoriesUI</text><rect fill="#E3E3E3" height="30.4883" rx="2.5" ry="2.5" style="stroke:#181818;stroke-width:0.5;" width="188.7949" x="350.4404" y="565.1016"/><text fill="#000000" font-family="sans-serif" font-size="14" lengthAdjust="spacing" textLength="174.7949" x="357.4404" y="585.6367">:ListAllFigureCategoriesUI</text><rect fill="#E3E3E3" height="30.4883" rx="2.5" ry="2.5" style="stroke:#181818;stroke-width:0.5;" width="224.7383" x="592.3955" y="87.4883"/><text fill="#000000" font-family="sans-serif" font-size="14" lengthAdjust="spacing" textLength="210.7383" x="599.3955" y="108.0234">:GetFigureCategoriesController</text><rect fill="#E3E3E3" height="30.4883" rx="2.5" ry="2.5" style="stroke:#181818;stroke-width:0.5;" width="224.7383" x="592.3955" y="565.1016"/><text fill="#000000" font-family="sans-serif" font-size="14" lengthAdjust="spacing" textLength="210.7383" x="599.3955" y="585.6367">:GetFigureCategoriesController</text><rect fill="#E3E3E3" height="30.4883" rx="2.5" ry="2.5" style="stroke:#181818;stroke-width:0.5;" width="141.8252" x="915.5244" y="565.1016"/><text fill="#000000" font-family="sans-serif" font-size="14" lengthAdjust="spacing" textLength="127.8252" x="922.5244" y="585.6367">RepositoryProvider</text><rect fill="#E3E3E3" height="30.4883" rx="2.5" ry="2.5" style="stroke:#181818;stroke-width:0.5;" width="189.4512" x="1067.3496" y="87.4883"/><text fill="#000000" font-family="sans-serif" font-size="14" lengthAdjust="spacing" textLength="175.4512" x="1074.3496" y="108.0234">FigureCategoryRepository</text><rect fill="#E3E3E3" height="30.4883" rx="2.5" ry="2.5" style="stroke:#181818;stroke-width:0.5;" width="189.4512" x="1067.3496" y="565.1016"/><text fill="#000000" font-family="sans-serif" font-size="14" lengthAdjust="spacing" textLength="175.4512" x="1074.3496" y="585.6367">FigureCategoryRepository</text><rect fill="#E3E3E3" height="30.4883" rx="2.5" ry="2.5" style="stroke:#181818;stroke-width:0.5;" width="256.7441" x="1266.8008" y="87.4883"/><text fill="#000000" font-family="sans-serif" font-size="14" lengthAdjust="spacing" textLength="242.7441" x="1273.8008" y="108.0234">InMemoryFigureCategoryRepository</text><rect fill="#E3E3E3" height="30.4883" rx="2.5" ry="2.5" style="stroke:#181818;stroke-width:0.5;" width="256.7441" x="1266.8008" y="565.1016"/><text fill="#000000" font-family="sans-serif" font-size="14" lengthAdjust="spacing" textLength="242.7441" x="1273.8008" y="585.6367">InMemoryFigureCategoryRepository</text><rect fill="#E3E3E3" height="30.4883" rx="2.5" ry="2.5" style="stroke:#181818;stroke-width:0.5;" width="169.0391" x="1533.5449" y="87.4883"/><text fill="#000000" font-family="sans-serif" font-size="14" lengthAdjust="spacing" textLength="155.0391" x="1540.5449" y="108.0234">FigureCategoryJPAImpl</text><rect fill="#E3E3E3" height="30.4883" rx="2.5" ry="2.5" style="stroke:#181818;stroke-width:0.5;" width="169.0391" x="1533.5449" y="565.1016"/><text fill="#000000" font-family="sans-serif" font-size="14" lengthAdjust="spacing" textLength="155.0391" x="1540.5449" y="585.6367">FigureCategoryJPAImpl</text><rect fill="#FFFFFF" height="427.125" style="stroke:#181818;stroke-width:1.0;" width="10" x="68.2305" y="128.9766"/><rect fill="#FFFFFF" height="405.8145" style="stroke:#181818;stroke-width:1.0;" width="10" x="439.8379" y="150.2871"/><rect fill="#FFFFFF" height="263.6172" style="stroke:#181818;stroke-width:1.0;" width="10" x="699.7646" y="179.5977"/><rect fill="#FFFFFF" height="31.4883" style="stroke:#181818;stroke-width:1.0;" width="10" x="981.437" y="218.9082"/><rect fill="#FFFFFF" height="29.3105" style="stroke:#181818;stroke-width:1.0;" width="10" x="1390.1729" y="304.0176"/><rect fill="#FFFFFF" height="29.3105" style="stroke:#181818;stroke-width:1.0;" width="10" x="1613.0645" y="377.5938"/><polygon fill="#181818" points="427.8379,146.2871,437.8379,150.2871,427.8379,154.2871,431.8379,150.2871" style="stroke:#181818;stroke-width:1.0;"/><line style="stroke:#181818;stroke-width:1.0;" x1="78.2305" x2="433.8379" y1="150.2871" y2="150.2871"/><text fill="#000000" font-family="sans-serif" font-size="13" font-weight="bold" lengthAdjust="spacing" textLength="8.5757" x="85.2305" y="145.5449">1</text><text fill="#000000" font-family="sans-serif" font-size="13" lengthAdjust="spacing" textLength="182.1523" x="97.8062" y="145.5449">requests to list all categories</text><polygon fill="#181818" points="687.7646,175.5977,697.7646,179.5977,687.7646,183.5977,691.7646,179.5977" style="stroke:#181818;stroke-width:1.0;"/><line style="stroke:#181818;stroke-width:1.0;" x1="449.8379" x2="693.7646" y1="179.5977" y2="179.5977"/><text fill="#000000" font-family="sans-serif" font-size="13" font-weight="bold" lengthAdjust="spacing" textLength="8.5757" x="456.8379" y="174.8555">2</text><text fill="#000000" font-family="sans-serif" font-size="13" lengthAdjust="spacing" textLength="151.9312" x="469.4136" y="174.8555">getAllFigureCategories()</text><polygon fill="#181818" points="903.5244,204.9082,913.5244,208.9082,903.5244,212.9082,907.5244,208.9082" style="stroke:#181818;stroke-width:1.0;"/><line style="stroke:#181818;stroke-width:1.0;" x1="709.7646" x2="909.5244" y1="208.9082" y2="208.9082"/><text fill="#000000" font-family="sans-serif" font-size="13" font-weight="bold" lengthAdjust="spacing" textLength="8.5757" x="716.7646" y="204.166">3</text><text fill="#000000" font-family="sans-serif" font-size="13" lengthAdjust="spacing" textLength="169.1841" x="729.3403" y="204.166">figureCategoryRepository()</text><rect fill="#E3E3E3" height="30.4883" rx="2.5" ry="2.5" style="stroke:#181818;stroke-width:0.5;" width="141.8252" x="915.5244" y="187.5977"/><text fill="#000000" font-family="sans-serif" font-size="14" lengthAdjust="spacing" textLength="127.8252" x="922.5244" y="208.1328">RepositoryProvider</text><polygon fill="#181818" points="720.7646,246.3965,710.7646,250.3965,720.7646,254.3965,716.7646,250.3965" style="stroke:#181818;stroke-width:1.0;"/><line style="stroke:#181818;stroke-width:1.0;stroke-dasharray:2.0,2.0;" x1="714.7646" x2="985.437" y1="250.3965" y2="250.3965"/><text fill="#000000" font-family="sans-serif" font-size="13" font-weight="bold" lengthAdjust="spacing" textLength="8.5757" x="726.7646" y="245.6543">4</text><text fill="#000000" font-family="sans-serif" font-size="13" lengthAdjust="spacing" textLength="120.6499" x="739.3403" y="245.6543">repository instance</text><path d="M582.3955,265.3965 L644.5342,265.3965 L644.5342,272.707 L634.5342,282.707 L582.3955,282.707 L582.3955,265.3965 " fill="#EEEEEE" style="stroke:#000000;stroke-width:1.5;"/><rect fill="none" height="149.5078" style="stroke:#000000;stroke-width:1.5;" width="1130.1885" x="582.3955" y="265.3965"/><text fill="#000000" font-family="sans-serif" font-size="13" font-weight="bold" lengthAdjust="spacing" textLength="17.1387" x="597.3955" y="278.9648">alt</text><text fill="#000000" font-family="sans-serif" font-size="11" font-weight="bold" lengthAdjust="spacing" textLength="290.415" x="659.5342" y="278.0313">[Repository is InMemoryFigureCategoryRepository]</text><polygon fill="#181818" points="1378.1729,300.0176,1388.1729,304.0176,1378.1729,308.0176,1382.1729,304.0176" style="stroke:#181818;stroke-width:1.0;"/><line style="stroke:#181818;stroke-width:1.0;" x1="709.7646" x2="1384.1729" y1="304.0176" y2="304.0176"/><text fill="#000000" font-family="sans-serif" font-size="13" font-weight="bold" lengthAdjust="spacing" textLength="8.5757" x="716.7646" y="299.2754">5</text><text fill="#000000" font-family="sans-serif" font-size="13" lengthAdjust="spacing" textLength="49.7275" x="729.3403" y="299.2754">findAll()</text><polygon fill="#181818" points="720.7646,329.3281,710.7646,333.3281,720.7646,337.3281,716.7646,333.3281" style="stroke:#181818;stroke-width:1.0;"/><line style="stroke:#181818;stroke-width:1.0;stroke-dasharray:2.0,2.0;" x1="714.7646" x2="1394.1729" y1="333.3281" y2="333.3281"/><text fill="#000000" font-family="sans-serif" font-size="13" font-weight="bold" lengthAdjust="spacing" textLength="8.5757" x="726.7646" y="328.5859">6</text><text fill="#000000" font-family="sans-serif" font-size="13" lengthAdjust="spacing" textLength="213.3511" x="739.3403" y="328.5859">Optional&lt;List&lt;FigureCategory&gt;&gt;</text><line style="stroke:#000000;stroke-width:1.0;stroke-dasharray:2.0,2.0;" x1="582.3955" x2="1712.584" y1="342.3281" y2="342.3281"/><text fill="#000000" font-family="sans-serif" font-size="11" font-weight="bold" lengthAdjust="spacing" textLength="217.5938" x="587.3955" y="352.9629">[Repository is FigureCategoryJPAImpl]</text><polygon fill="#181818" points="1601.0645,373.5938,1611.0645,377.5938,1601.0645,381.5938,1605.0645,377.5938" style="stroke:#181818;stroke-width:1.0;"/><line style="stroke:#181818;stroke-width:1.0;" x1="709.7646" x2="1607.0645" y1="377.5938" y2="377.5938"/><text fill="#000000" font-family="sans-serif" font-size="13" font-weight="bold" lengthAdjust="spacing" textLength="8.5757" x="716.7646" y="372.8516">7</text><text fill="#000000" font-family="sans-serif" font-size="13" lengthAdjust="spacing" textLength="49.7275" x="729.3403" y="372.8516">findAll()</text><polygon fill="#181818" points="720.7646,402.9043,710.7646,406.9043,720.7646,410.9043,716.7646,406.9043" style="stroke:#181818;stroke-width:1.0;"/><line style="stroke:#181818;stroke-width:1.0;stroke-dasharray:2.0,2.0;" x1="714.7646" x2="1617.0645" y1="406.9043" y2="406.9043"/><text fill="#000000" font-family="sans-serif" font-size="13" font-weight="bold" lengthAdjust="spacing" textLength="8.5757" x="726.7646" y="402.1621">8</text><text fill="#000000" font-family="sans-serif" font-size="13" lengthAdjust="spacing" textLength="213.3511" x="739.3403" y="402.1621">Optional&lt;List&lt;FigureCategory&gt;&gt;</text><polygon fill="#181818" points="460.8379,439.2148,450.8379,443.2148,460.8379,447.2148,456.8379,443.2148" style="stroke:#181818;stroke-width:1.0;"/><line style="stroke:#181818;stroke-width:1.0;stroke-dasharray:2.0,2.0;" x1="454.8379" x2="703.7646" y1="443.2148" y2="443.2148"/><text fill="#000000" font-family="sans-serif" font-size="13" font-weight="bold" lengthAdjust="spacing" textLength="8.5757" x="466.8379" y="438.4727">9</text><text fill="#000000" font-family="sans-serif" font-size="13" lengthAdjust="spacing" textLength="213.3511" x="479.4136" y="438.4727">Optional&lt;List&lt;FigureCategory&gt;&gt;</text><path d="M10,458.2148 L72.1387,458.2148 L72.1387,465.5254 L62.1387,475.5254 L10,475.5254 L10,458.2148 " fill="#EEEEEE" style="stroke:#000000;stroke-width:1.5;"/><rect fill="none" height="90.8867" style="stroke:#000000;stroke-width:1.5;" width="539.2354" x="10" y="458.2148"/><text fill="#000000" font-family="sans-serif" font-size="13" font-weight="bold" lengthAdjust="spacing" textLength="17.1387" x="25" y="471.7832">alt</text><text fill="#000000" font-family="sans-serif" font-size="11" font-weight="bold" lengthAdjust="spacing" textLength="103.458" x="87.1387" y="470.8496">[List is not empty]</text><polygon fill="#181818" points="89.2305,492.8359,79.2305,496.8359,89.2305,500.8359,85.2305,496.8359" style="stroke:#181818;stroke-width:1.0;"/><line style="stroke:#181818;stroke-width:1.0;" x1="83.2305" x2="438.8379" y1="496.8359" y2="496.8359"/><text fill="#000000" font-family="sans-serif" font-size="13" font-weight="bold" lengthAdjust="spacing" textLength="17.1514" x="95.2305" y="492.0938">10</text><text fill="#000000" font-family="sans-serif" font-size="13" lengthAdjust="spacing" textLength="153.5688" x="116.3818" y="492.0938">display list of categories</text><line style="stroke:#000000;stroke-width:1.0;stroke-dasharray:2.0,2.0;" x1="10" x2="549.2354" y1="505.8359" y2="505.8359"/><text fill="#000000" font-family="sans-serif" font-size="11" font-weight="bold" lengthAdjust="spacing" textLength="81.125" x="15" y="516.4707">[List is empty]</text><polygon fill="#181818" points="89.2305,537.1016,79.2305,541.1016,89.2305,545.1016,85.2305,541.1016" style="stroke:#181818;stroke-width:1.0;"/><line style="stroke:#181818;stroke-width:1.0;" x1="83.2305" x2="438.8379" y1="541.1016" y2="541.1016"/><text fill="#000000" font-family="sans-serif" font-size="13" font-weight="bold" lengthAdjust="spacing" textLength="17.1514" x="95.2305" y="536.3594">11</text><text fill="#000000" font-family="sans-serif" font-size="13" lengthAdjust="spacing" textLength="316.4561" x="116.3818" y="536.3594">show message "No categories in the system yet..."</text><!--SRC=[dPJTRgCm48Nl_HGZhjfAoGD4LQGgQ5TKtMuLDW_WXGcnQcng3wru-nsRy9TDkzBc8i9mll7ud07_gamZdQoXjiOM9sTh178j2Zy-QMJnAYlCgTC83WkIfj9pWJ_9qdueKy5HQez2a2AM7ZB8yQr5Ko2aIbP1UfFdwIsiu4bvWc-gQXt2JX9MrYdqGiYMh6dht-ZukY3h8CbFzWDIzAeow1AG7l9KyCQa2jL8Gv1iGhK7hVjwKxb35kM7x4B-7UbIkhE6dDNwlCFkr_vf2UsniLvnGzsBi- -gF0k7nLAygDvDQ4J2SYdFp0-i-V6NM1JzpIwPnvU7h6vq11uR6UN1H_NEWk1Rdi9g6vBPS9ASZISFP467EAJMK4nPZ1Zx9vXWBjZ2P8NNtBwvdP3eduXonWQJxkuOFdvoo3a-kYg6ArXDsxkH0MKyJsE1eiGhiDG4-vduRE8NJWlWtz3sw7ZisfHyPcuoACQzfb3Y_OcOjVkp8MMDrFTXIk-NEs-taPjrFrL4VfKkshyQzgBdS-YVTpnCHRW9yNz0_hlbeIIQSiXycB5_59eLwISc91O_3NnOOmcmRgWFfHz07jyDbCetMdRzqDhZV6QZPqE1gx0FNvCQlUSl6YJFTaRpD06T47pd2MleaDRhTHAFDMkKtuRPAa__0000]--></g></svg>