<svg xmlns="http://www.w3.org/2000/svg" xmlns:xlink="http://www.w3.org/1999/xlink" contentStyleType="text/css" height="669px" preserveAspectRatio="none" style="width:1320px;height:669px;background:#FFFFFF;" version="1.1" viewBox="0 0 1320 669" width="1320px" zoomAndPan="magnify"><title>UI Sequence Diagram (SSD) - List Figure Categories</title><defs/><g><text fill="#000000" font-family="sans-serif" font-size="14" font-weight="bold" lengthAdjust="spacing" textLength="371.8477" x="473.2498" y="28.5352">UI Sequence Diagram (SSD) - List Figure Categories</text><rect fill="#FFFFFF" height="441.3477" style="stroke:#181818;stroke-width:1.0;" width="10" x="53.2305" y="128.9766"/><rect fill="#FFFFFF" height="420.0371" style="stroke:#181818;stroke-width:1.0;" width="10" x="271.2964" y="150.2871"/><rect fill="#FFFFFF" height="361.416" style="stroke:#181818;stroke-width:1.0;" width="10" x="547.8984" y="179.5977"/><rect fill="#FFFFFF" height="157.5527" style="stroke:#181818;stroke-width:1.0;" width="10" x="552.8984" y="216.9082"/><rect fill="#FFFFFF" height="29.3105" style="stroke:#181818;stroke-width:1.0;" width="10" x="942.1294" y="251.2188"/><rect fill="#FFFFFF" height="29.3105" style="stroke:#181818;stroke-width:1.0;" width="10" x="1054.354" y="309.8398"/><rect fill="#FFFFFF" height="29.3105" style="stroke:#181818;stroke-width:1.0;" width="10" x="1212.4067" y="482.3926"/><line style="stroke:#181818;stroke-width:0.5;stroke-dasharray:5.0,5.0;" x1="58" x2="58" y1="118.9766" y2="588.3242"/><line style="stroke:#181818;stroke-width:0.5;stroke-dasharray:5.0,5.0;" x1="275.7754" x2="275.7754" y1="118.9766" y2="588.3242"/><line style="stroke:#181818;stroke-width:0.5;stroke-dasharray:5.0,5.0;" x1="552.1636" x2="552.1636" y1="118.9766" y2="588.3242"/><line style="stroke:#181818;stroke-width:0.5;stroke-dasharray:5.0,5.0;" x1="790.1011" x2="790.1011" y1="118.9766" y2="588.3242"/><line style="stroke:#181818;stroke-width:0.5;stroke-dasharray:5.0,5.0;" x1="947.0171" x2="947.0171" y1="118.9766" y2="588.3242"/><line style="stroke:#181818;stroke-width:0.5;stroke-dasharray:5.0,5.0;" x1="1059.2417" x2="1059.2417" y1="118.9766" y2="588.3242"/><line style="stroke:#181818;stroke-width:0.5;stroke-dasharray:5.0,5.0;" x1="1216.4663" x2="1216.4663" y1="118.9766" y2="588.3242"/><text fill="#000000" font-family="sans-serif" font-size="14" lengthAdjust="spacing" textLength="100.4609" x="5" y="116.0234">Show Designer</text><ellipse cx="58.2305" cy="50.9883" fill="#E3E3E3" rx="8" ry="8" style="stroke:#181818;stroke-width:0.5;"/><path d="M58.2305,58.9883 L58.2305,85.9883 M45.2305,66.9883 L71.2305,66.9883 M58.2305,85.9883 L45.2305,100.9883 M58.2305,85.9883 L71.2305,100.9883 " fill="none" style="stroke:#181818;stroke-width:0.5;"/><text fill="#000000" font-family="sans-serif" font-size="14" lengthAdjust="spacing" textLength="100.4609" x="5" y="600.8594">Show Designer</text><ellipse cx="58.2305" cy="612.3125" fill="#E3E3E3" rx="8" ry="8" style="stroke:#181818;stroke-width:0.5;"/><path d="M58.2305,620.3125 L58.2305,647.3125 M45.2305,628.3125 L71.2305,628.3125 M58.2305,647.3125 L45.2305,662.3125 M58.2305,647.3125 L71.2305,662.3125 " fill="none" style="stroke:#181818;stroke-width:0.5;"/><rect fill="#E3E3E3" height="30.4883" rx="2.5" ry="2.5" style="stroke:#181818;stroke-width:0.5;" width="171.042" x="190.7754" y="87.4883"/><text fill="#000000" font-family="sans-serif" font-size="14" lengthAdjust="spacing" textLength="157.042" x="197.7754" y="108.0234">:ListFigureCategoriesUI</text><rect fill="#E3E3E3" height="30.4883" rx="2.5" ry="2.5" style="stroke:#181818;stroke-width:0.5;" width="171.042" x="190.7754" y="587.3242"/><text fill="#000000" font-family="sans-serif" font-size="14" lengthAdjust="spacing" textLength="157.042" x="197.7754" y="607.8594">:ListFigureCategoriesUI</text><rect fill="#E3E3E3" height="30.4883" rx="2.5" ry="2.5" style="stroke:#181818;stroke-width:0.5;" width="225.4697" x="440.1636" y="87.4883"/><text fill="#000000" font-family="sans-serif" font-size="14" lengthAdjust="spacing" textLength="211.4697" x="447.1636" y="108.0234">:ListFigureCategoriesController</text><rect fill="#E3E3E3" height="30.4883" rx="2.5" ry="2.5" style="stroke:#181818;stroke-width:0.5;" width="225.4697" x="440.1636" y="587.3242"/><text fill="#000000" font-family="sans-serif" font-size="14" lengthAdjust="spacing" textLength="211.4697" x="447.1636" y="607.8594">:ListFigureCategoriesController</text><rect fill="#E3E3E3" height="46.9766" rx="2.5" ry="2.5" style="stroke:#181818;stroke-width:0.5;" width="189.916" x="696.1011" y="71"/><text fill="#000000" font-family="sans-serif" font-size="14" lengthAdjust="spacing" textLength="169.1279" x="706.4951" y="91.5352">figureCategoryController</text><text fill="#000000" font-family="sans-serif" font-size="14" lengthAdjust="spacing" textLength="175.916" x="703.1011" y="108.0234">:FigureCategoryController</text><rect fill="#E3E3E3" height="46.9766" rx="2.5" ry="2.5" style="stroke:#181818;stroke-width:0.5;" width="189.916" x="696.1011" y="587.3242"/><text fill="#000000" font-family="sans-serif" font-size="14" lengthAdjust="spacing" textLength="169.1279" x="706.4951" y="607.8594">figureCategoryController</text><text fill="#000000" font-family="sans-serif" font-size="14" lengthAdjust="spacing" textLength="175.916" x="703.1011" y="624.3477">:FigureCategoryController</text><rect fill="#E3E3E3" height="30.4883" rx="2.5" ry="2.5" style="stroke:#181818;stroke-width:0.5;" width="102.2246" x="896.0171" y="87.4883"/><text fill="#000000" font-family="sans-serif" font-size="14" lengthAdjust="spacing" textLength="88.2246" x="903.0171" y="108.0234">:Repositories</text><rect fill="#E3E3E3" height="30.4883" rx="2.5" ry="2.5" style="stroke:#181818;stroke-width:0.5;" width="102.2246" x="896.0171" y="587.3242"/><text fill="#000000" font-family="sans-serif" font-size="14" lengthAdjust="spacing" textLength="88.2246" x="903.0171" y="607.8594">:Repositories</text><rect fill="#E3E3E3" height="46.9766" rx="2.5" ry="2.5" style="stroke:#181818;stroke-width:0.5;" width="102.2246" x="1008.2417" y="71"/><text fill="#000000" font-family="sans-serif" font-size="14" lengthAdjust="spacing" textLength="80.6709" x="1019.0186" y="91.5352">repositories</text><text fill="#000000" font-family="sans-serif" font-size="14" lengthAdjust="spacing" textLength="88.2246" x="1015.2417" y="108.0234">:Repositories</text><rect fill="#E3E3E3" height="46.9766" rx="2.5" ry="2.5" style="stroke:#181818;stroke-width:0.5;" width="102.2246" x="1008.2417" y="587.3242"/><text fill="#000000" font-family="sans-serif" font-size="14" lengthAdjust="spacing" textLength="80.6709" x="1019.0186" y="607.8594">repositories</text><text fill="#000000" font-family="sans-serif" font-size="14" lengthAdjust="spacing" textLength="88.2246" x="1015.2417" y="624.3477">:Repositories</text><rect fill="#E3E3E3" height="46.9766" rx="2.5" ry="2.5" style="stroke:#181818;stroke-width:0.5;" width="193.8809" x="1120.4663" y="71"/><text fill="#000000" font-family="sans-serif" font-size="14" lengthAdjust="spacing" textLength="173.0928" x="1130.8604" y="91.5352">figureCategoryRepository</text><text fill="#000000" font-family="sans-serif" font-size="14" lengthAdjust="spacing" textLength="179.8809" x="1127.4663" y="108.0234">:FigureCategoryRepository</text><rect fill="#E3E3E3" height="46.9766" rx="2.5" ry="2.5" style="stroke:#181818;stroke-width:0.5;" width="193.8809" x="1120.4663" y="587.3242"/><text fill="#000000" font-family="sans-serif" font-size="14" lengthAdjust="spacing" textLength="173.0928" x="1130.8604" y="607.8594">figureCategoryRepository</text><text fill="#000000" font-family="sans-serif" font-size="14" lengthAdjust="spacing" textLength="179.8809" x="1127.4663" y="624.3477">:FigureCategoryRepository</text><rect fill="#FFFFFF" height="441.3477" style="stroke:#181818;stroke-width:1.0;" width="10" x="53.2305" y="128.9766"/><rect fill="#FFFFFF" height="420.0371" style="stroke:#181818;stroke-width:1.0;" width="10" x="271.2964" y="150.2871"/><rect fill="#FFFFFF" height="361.416" style="stroke:#181818;stroke-width:1.0;" width="10" x="547.8984" y="179.5977"/><rect fill="#FFFFFF" height="157.5527" style="stroke:#181818;stroke-width:1.0;" width="10" x="552.8984" y="216.9082"/><rect fill="#FFFFFF" height="29.3105" style="stroke:#181818;stroke-width:1.0;" width="10" x="942.1294" y="251.2188"/><rect fill="#FFFFFF" height="29.3105" style="stroke:#181818;stroke-width:1.0;" width="10" x="1054.354" y="309.8398"/><rect fill="#FFFFFF" height="29.3105" style="stroke:#181818;stroke-width:1.0;" width="10" x="1212.4067" y="482.3926"/><polygon fill="#181818" points="259.2964,146.2871,269.2964,150.2871,259.2964,154.2871,263.2964,150.2871" style="stroke:#181818;stroke-width:1.0;"/><line style="stroke:#181818;stroke-width:1.0;" x1="63.2305" x2="265.2964" y1="150.2871" y2="150.2871"/><text fill="#000000" font-family="sans-serif" font-size="13" font-weight="bold" lengthAdjust="spacing" textLength="8.5757" x="70.2305" y="145.5449">1</text><text fill="#000000" font-family="sans-serif" font-size="13" lengthAdjust="spacing" textLength="176.4902" x="82.8062" y="145.5449">ask to list Figure Categories</text><polygon fill="#181818" points="535.8984,175.5977,545.8984,179.5977,535.8984,183.5977,539.8984,179.5977" style="stroke:#181818;stroke-width:1.0;"/><line style="stroke:#181818;stroke-width:1.0;" x1="281.2964" x2="541.8984" y1="179.5977" y2="179.5977"/><text fill="#000000" font-family="sans-serif" font-size="13" font-weight="bold" lengthAdjust="spacing" textLength="8.5757" x="288.2964" y="174.8555">2</text><text fill="#000000" font-family="sans-serif" font-size="13" lengthAdjust="spacing" textLength="38.5049" x="300.8721" y="174.8555">create</text><line style="stroke:#181818;stroke-width:1.0;" x1="557.8984" x2="604.8984" y1="203.9082" y2="203.9082"/><line style="stroke:#181818;stroke-width:1.0;" x1="604.8984" x2="604.8984" y1="203.9082" y2="216.9082"/><line style="stroke:#181818;stroke-width:1.0;" x1="563.8984" x2="604.8984" y1="216.9082" y2="216.9082"/><polygon fill="#181818" points="573.8984,212.9082,563.8984,216.9082,573.8984,220.9082,569.8984,216.9082" style="stroke:#181818;stroke-width:1.0;"/><text fill="#000000" font-family="sans-serif" font-size="13" font-weight="bold" lengthAdjust="spacing" textLength="8.5757" x="569.8984" y="199.166">3</text><text fill="#000000" font-family="sans-serif" font-size="13" lengthAdjust="spacing" textLength="191.585" x="582.4741" y="199.166">getFigureCategoryRepository()</text><polygon fill="#181818" points="930.1294,247.2188,940.1294,251.2188,930.1294,255.2188,934.1294,251.2188" style="stroke:#181818;stroke-width:1.0;"/><line style="stroke:#181818;stroke-width:1.0;" x1="562.8984" x2="936.1294" y1="251.2188" y2="251.2188"/><text fill="#000000" font-family="sans-serif" font-size="13" font-weight="bold" lengthAdjust="spacing" textLength="8.5757" x="569.8984" y="246.4766">4</text><text fill="#000000" font-family="sans-serif" font-size="13" lengthAdjust="spacing" textLength="81.1167" x="582.4741" y="246.4766">getInstance()</text><polygon fill="#181818" points="573.8984,276.5293,563.8984,280.5293,573.8984,284.5293,569.8984,280.5293" style="stroke:#181818;stroke-width:1.0;"/><line style="stroke:#181818;stroke-width:1.0;stroke-dasharray:2.0,2.0;" x1="567.8984" x2="946.1294" y1="280.5293" y2="280.5293"/><text fill="#000000" font-family="sans-serif" font-size="13" font-weight="bold" lengthAdjust="spacing" textLength="8.5757" x="579.8984" y="275.7871">5</text><text fill="#000000" font-family="sans-serif" font-size="13" lengthAdjust="spacing" textLength="74.9087" x="592.4741" y="275.7871">repositories</text><polygon fill="#181818" points="1042.354,305.8398,1052.354,309.8398,1042.354,313.8398,1046.354,309.8398" style="stroke:#181818;stroke-width:1.0;"/><line style="stroke:#181818;stroke-width:1.0;" x1="562.8984" x2="1048.354" y1="309.8398" y2="309.8398"/><text fill="#000000" font-family="sans-serif" font-size="13" font-weight="bold" lengthAdjust="spacing" textLength="8.5757" x="569.8984" y="305.0977">6</text><text fill="#000000" font-family="sans-serif" font-size="13" lengthAdjust="spacing" textLength="191.585" x="582.4741" y="305.0977">getFigureCategoryRepository()</text><polygon fill="#181818" points="573.8984,335.1504,563.8984,339.1504,573.8984,343.1504,569.8984,339.1504" style="stroke:#181818;stroke-width:1.0;"/><line style="stroke:#181818;stroke-width:1.0;stroke-dasharray:2.0,2.0;" x1="567.8984" x2="1058.354" y1="339.1504" y2="339.1504"/><text fill="#000000" font-family="sans-serif" font-size="13" font-weight="bold" lengthAdjust="spacing" textLength="8.5757" x="579.8984" y="334.4082">7</text><text fill="#000000" font-family="sans-serif" font-size="13" lengthAdjust="spacing" textLength="160.729" x="592.4741" y="334.4082">figureCategoryRepository</text><line style="stroke:#181818;stroke-width:1.0;stroke-dasharray:2.0,2.0;" x1="562.8984" x2="604.8984" y1="373.4609" y2="373.4609"/><line style="stroke:#181818;stroke-width:1.0;stroke-dasharray:2.0,2.0;" x1="604.8984" x2="604.8984" y1="373.4609" y2="386.4609"/><line style="stroke:#181818;stroke-width:1.0;stroke-dasharray:2.0,2.0;" x1="557.8984" x2="604.8984" y1="386.4609" y2="386.4609"/><polygon fill="#181818" points="567.8984,382.4609,557.8984,386.4609,567.8984,390.4609,563.8984,386.4609" style="stroke:#181818;stroke-width:1.0;"/><text fill="#000000" font-family="sans-serif" font-size="13" font-weight="bold" lengthAdjust="spacing" textLength="8.5757" x="569.8984" y="368.7188">8</text><text fill="#000000" font-family="sans-serif" font-size="13" lengthAdjust="spacing" textLength="160.729" x="582.4741" y="368.7188">figureCategoryRepository</text><line style="stroke:#181818;stroke-width:1.0;" x1="281.2964" x2="323.2964" y1="410.7715" y2="410.7715"/><line style="stroke:#181818;stroke-width:1.0;" x1="323.2964" x2="323.2964" y1="410.7715" y2="423.7715"/><line style="stroke:#181818;stroke-width:1.0;" x1="282.2964" x2="323.2964" y1="423.7715" y2="423.7715"/><polygon fill="#181818" points="292.2964,419.7715,282.2964,423.7715,292.2964,427.7715,288.2964,423.7715" style="stroke:#181818;stroke-width:1.0;"/><text fill="#000000" font-family="sans-serif" font-size="13" font-weight="bold" lengthAdjust="spacing" textLength="8.5757" x="288.2964" y="406.0293">9</text><text fill="#000000" font-family="sans-serif" font-size="13" lengthAdjust="spacing" textLength="57.6938" x="300.8721" y="406.0293">doShow()</text><polygon fill="#181818" points="535.8984,449.082,545.8984,453.082,535.8984,457.082,539.8984,453.082" style="stroke:#181818;stroke-width:1.0;"/><line style="stroke:#181818;stroke-width:1.0;" x1="281.2964" x2="541.8984" y1="453.082" y2="453.082"/><text fill="#000000" font-family="sans-serif" font-size="13" font-weight="bold" lengthAdjust="spacing" textLength="17.1514" x="288.2964" y="448.3398">10</text><text fill="#000000" font-family="sans-serif" font-size="13" lengthAdjust="spacing" textLength="134.2402" x="309.4478" y="448.3398">listFigureCategories()</text><polygon fill="#181818" points="1200.4067,478.3926,1210.4067,482.3926,1200.4067,486.3926,1204.4067,482.3926" style="stroke:#181818;stroke-width:1.0;"/><line style="stroke:#181818;stroke-width:1.0;" x1="557.8984" x2="1206.4067" y1="482.3926" y2="482.3926"/><text fill="#000000" font-family="sans-serif" font-size="13" font-weight="bold" lengthAdjust="spacing" textLength="17.1514" x="564.8984" y="477.6504">11</text><text fill="#000000" font-family="sans-serif" font-size="13" lengthAdjust="spacing" textLength="189.9663" x="586.0498" y="477.6504">findAllActiveOrderedByName()</text><polygon fill="#181818" points="568.8984,507.7031,558.8984,511.7031,568.8984,515.7031,564.8984,511.7031" style="stroke:#181818;stroke-width:1.0;"/><line style="stroke:#181818;stroke-width:1.0;stroke-dasharray:2.0,2.0;" x1="562.8984" x2="1216.4067" y1="511.7031" y2="511.7031"/><text fill="#000000" font-family="sans-serif" font-size="13" font-weight="bold" lengthAdjust="spacing" textLength="17.1514" x="574.8984" y="506.9609">12</text><text fill="#000000" font-family="sans-serif" font-size="13" lengthAdjust="spacing" textLength="101.2007" x="596.0498" y="506.9609">listOfCategories</text><polygon fill="#181818" points="292.2964,537.0137,282.2964,541.0137,292.2964,545.0137,288.2964,541.0137" style="stroke:#181818;stroke-width:1.0;"/><line style="stroke:#181818;stroke-width:1.0;" x1="286.2964" x2="551.8984" y1="541.0137" y2="541.0137"/><text fill="#000000" font-family="sans-serif" font-size="13" font-weight="bold" lengthAdjust="spacing" textLength="17.1514" x="298.2964" y="536.2715">13</text><text fill="#000000" font-family="sans-serif" font-size="13" lengthAdjust="spacing" textLength="221.4507" x="319.4478" y="536.2715">displayCategories(listOfCategories)</text><polygon fill="#181818" points="69.2305,566.3242,59.2305,570.3242,69.2305,574.3242,65.2305,570.3242" style="stroke:#181818;stroke-width:1.0;"/><line style="stroke:#181818;stroke-width:1.0;" x1="63.2305" x2="275.2964" y1="570.3242" y2="570.3242"/><text fill="#000000" font-family="sans-serif" font-size="13" font-weight="bold" lengthAdjust="spacing" textLength="17.1514" x="75.2305" y="565.582">14</text><text fill="#000000" font-family="sans-serif" font-size="13" lengthAdjust="spacing" textLength="148.4146" x="96.3818" y="565.582">shows list of categories</text><!--SRC=[ZLJBRkiW4DtxAqPPjOlyW1ULqaILB4NjLTtikk7YYOE2mHTm8_zz0R_0iQ_2oXxcd3dpGb-Pg8aY5LHII7fHia8mgi54ZpSreLTIOcvQZg2G6Y9A7Zhe2odaZOaIpeHhJ1B3Z7KzPP3ZlmO5HJWmKZhNfpm_FCCMZamRU6Dben3sn60f5KET9AGnKZJLNrJscngfO9DVv0qEg5afK6s0Q1jFtWP3OYKOHbbDX85DwdWxsedrb7dKANl0To-5KPBpFjB-w_COeyuXe9tSlqNwjdBbcIWnUwFuJC8drb8puqDxjz7GvinLsLOZXgW0OMFU4Vmvxhx-ftWASATukXeKEull0_knFd7T4x0djC3snRKyjTWh60bykSKEDZBQddY3nLcqgxR5KuNsBdRqZV0cTxpZ12ZHh6Noz3o2LhX2leNgT_IPq7RgAGPq4ULIso9FTvROjtqMAOIDZQ05FXvcICHDmSE5YJBnytCdtVDDMjT6Qast9xtNENLmbJ1PO8lxrutEAKkXaEwfi8dDxZhDV67RWo8CbUkdtaaInOxpdOkA7wf0XSLh-qugN9gfOLd297jRK3UduUCyMuPPTdEcGPZFaEcQapP8OCxO9xzOhQuQqSgc_bTtkohFBlZu50SSTas3l-WP-0K0]--></g></svg>