<svg xmlns="http://www.w3.org/2000/svg" xmlns:xlink="http://www.w3.org/1999/xlink" contentStyleType="text/css" height="517px" preserveAspectRatio="none" style="width:1222px;height:517px;background:#FFFFFF;" version="1.1" viewBox="0 0 1222 517" width="1222px" zoomAndPan="magnify"><defs/><g><rect fill="#FFFFFF" height="327.416" style="stroke:#181818;stroke-width:1.0;" width="10" x="51.0156" y="91.4883"/><rect fill="#FFFFFF" height="306.1055" style="stroke:#181818;stroke-width:1.0;" width="10" x="297.2397" y="112.7988"/><rect fill="#FFFFFF" height="276.7949" style="stroke:#181818;stroke-width:1.0;" width="10" x="573.8418" y="142.1094"/><rect fill="#FFFFFF" height="87.9316" style="stroke:#181818;stroke-width:1.0;" width="10" x="783.3364" y="171.4199"/><rect fill="#FFFFFF" height="29.3105" style="stroke:#181818;stroke-width:1.0;" width="10" x="937.5303" y="200.7305"/><line style="stroke:#181818;stroke-width:0.5;stroke-dasharray:5.0,5.0;" x1="56" x2="56" y1="81.4883" y2="436.9043"/><line style="stroke:#181818;stroke-width:0.5;stroke-dasharray:5.0,5.0;" x1="301.7188" x2="301.7188" y1="81.4883" y2="436.9043"/><line style="stroke:#181818;stroke-width:0.5;stroke-dasharray:5.0,5.0;" x1="578.1069" x2="578.1069" y1="81.4883" y2="436.9043"/><line style="stroke:#181818;stroke-width:0.5;stroke-dasharray:5.0,5.0;" x1="788.064" x2="788.064" y1="81.4883" y2="436.9043"/><line style="stroke:#181818;stroke-width:0.5;stroke-dasharray:5.0,5.0;" x1="941.6089" x2="941.6089" y1="81.4883" y2="436.9043"/><line style="stroke:#181818;stroke-width:0.5;stroke-dasharray:5.0,5.0;" x1="1118.4517" x2="1118.4517" y1="81.4883" y2="436.9043"/><text fill="#000000" font-family="sans-serif" font-size="14" lengthAdjust="spacing" textLength="96.0313" x="5" y="78.5352">ShowDesigner</text><ellipse cx="56.0156" cy="13.5" fill="#E3E3E3" rx="8" ry="8" style="stroke:#181818;stroke-width:0.5;"/><path d="M56.0156,21.5 L56.0156,48.5 M43.0156,29.5 L69.0156,29.5 M56.0156,48.5 L43.0156,63.5 M56.0156,48.5 L69.0156,63.5 " fill="none" style="stroke:#181818;stroke-width:0.5;"/><text fill="#000000" font-family="sans-serif" font-size="14" lengthAdjust="spacing" textLength="96.0313" x="5" y="449.4395">ShowDesigner</text><ellipse cx="56.0156" cy="460.8926" fill="#E3E3E3" rx="8" ry="8" style="stroke:#181818;stroke-width:0.5;"/><path d="M56.0156,468.8926 L56.0156,495.8926 M43.0156,476.8926 L69.0156,476.8926 M56.0156,495.8926 L43.0156,510.8926 M56.0156,495.8926 L69.0156,510.8926 " fill="none" style="stroke:#181818;stroke-width:0.5;"/><rect fill="#E3E3E3" height="30.4883" rx="2.5" ry="2.5" style="stroke:#181818;stroke-width:0.5;" width="171.042" x="216.7188" y="50"/><text fill="#000000" font-family="sans-serif" font-size="14" lengthAdjust="spacing" textLength="157.042" x="223.7188" y="70.5352">:ListFigureCategoriesUI</text><rect fill="#E3E3E3" height="30.4883" rx="2.5" ry="2.5" style="stroke:#181818;stroke-width:0.5;" width="171.042" x="216.7188" y="435.9043"/><text fill="#000000" font-family="sans-serif" font-size="14" lengthAdjust="spacing" textLength="157.042" x="223.7188" y="456.4395">:ListFigureCategoriesUI</text><rect fill="#E3E3E3" height="30.4883" rx="2.5" ry="2.5" style="stroke:#181818;stroke-width:0.5;" width="225.4697" x="466.1069" y="50"/><text fill="#000000" font-family="sans-serif" font-size="14" lengthAdjust="spacing" textLength="211.4697" x="473.1069" y="70.5352">:ListFigureCategoriesController</text><rect fill="#E3E3E3" height="30.4883" rx="2.5" ry="2.5" style="stroke:#181818;stroke-width:0.5;" width="225.4697" x="466.1069" y="435.9043"/><text fill="#000000" font-family="sans-serif" font-size="14" lengthAdjust="spacing" textLength="211.4697" x="473.1069" y="456.4395">:ListFigureCategoriesController</text><rect fill="#E3E3E3" height="30.4883" rx="2.5" ry="2.5" style="stroke:#181818;stroke-width:0.5;" width="148.5449" x="714.064" y="50"/><text fill="#000000" font-family="sans-serif" font-size="14" lengthAdjust="spacing" textLength="134.5449" x="721.064" y="70.5352">:PersistenceContext</text><rect fill="#E3E3E3" height="30.4883" rx="2.5" ry="2.5" style="stroke:#181818;stroke-width:0.5;" width="148.5449" x="714.064" y="435.9043"/><text fill="#000000" font-family="sans-serif" font-size="14" lengthAdjust="spacing" textLength="134.5449" x="721.064" y="456.4395">:PersistenceContext</text><rect fill="#E3E3E3" height="46.9766" rx="2.5" ry="2.5" style="stroke:#181818;stroke-width:0.5;" width="139.8428" x="872.6089" y="33.5117"/><text fill="#000000" font-family="sans-serif" font-size="14" lengthAdjust="spacing" textLength="46.9287" x="919.0659" y="54.0469">factory</text><text fill="#000000" font-family="sans-serif" font-size="14" lengthAdjust="spacing" textLength="125.8428" x="879.6089" y="70.5352">:RepositoryFactory</text><rect fill="#E3E3E3" height="46.9766" rx="2.5" ry="2.5" style="stroke:#181818;stroke-width:0.5;" width="139.8428" x="872.6089" y="435.9043"/><text fill="#000000" font-family="sans-serif" font-size="14" lengthAdjust="spacing" textLength="46.9287" x="919.0659" y="456.4395">factory</text><text fill="#000000" font-family="sans-serif" font-size="14" lengthAdjust="spacing" textLength="125.8428" x="879.6089" y="472.9277">:RepositoryFactory</text><rect fill="#E3E3E3" height="46.9766" rx="2.5" ry="2.5" style="stroke:#181818;stroke-width:0.5;" width="193.8809" x="1022.4517" y="33.5117"/><text fill="#000000" font-family="sans-serif" font-size="14" lengthAdjust="spacing" textLength="69.002" x="1084.8911" y="54.0469">repository</text><text fill="#000000" font-family="sans-serif" font-size="14" lengthAdjust="spacing" textLength="179.8809" x="1029.4517" y="70.5352">:FigureCategoryRepository</text><rect fill="#E3E3E3" height="46.9766" rx="2.5" ry="2.5" style="stroke:#181818;stroke-width:0.5;" width="193.8809" x="1022.4517" y="435.9043"/><text fill="#000000" font-family="sans-serif" font-size="14" lengthAdjust="spacing" textLength="69.002" x="1084.8911" y="456.4395">repository</text><text fill="#000000" font-family="sans-serif" font-size="14" lengthAdjust="spacing" textLength="179.8809" x="1029.4517" y="472.9277">:FigureCategoryRepository</text><rect fill="#FFFFFF" height="327.416" style="stroke:#181818;stroke-width:1.0;" width="10" x="51.0156" y="91.4883"/><rect fill="#FFFFFF" height="306.1055" style="stroke:#181818;stroke-width:1.0;" width="10" x="297.2397" y="112.7988"/><rect fill="#FFFFFF" height="276.7949" style="stroke:#181818;stroke-width:1.0;" width="10" x="573.8418" y="142.1094"/><rect fill="#FFFFFF" height="87.9316" style="stroke:#181818;stroke-width:1.0;" width="10" x="783.3364" y="171.4199"/><rect fill="#FFFFFF" height="29.3105" style="stroke:#181818;stroke-width:1.0;" width="10" x="937.5303" y="200.7305"/><polygon fill="#181818" points="285.2397,108.7988,295.2397,112.7988,285.2397,116.7988,289.2397,112.7988" style="stroke:#181818;stroke-width:1.0;"/><line style="stroke:#181818;stroke-width:1.0;" x1="61.0156" x2="291.2397" y1="112.7988" y2="112.7988"/><text fill="#000000" font-family="sans-serif" font-size="13" font-weight="bold" lengthAdjust="spacing" textLength="8.5757" x="68.0156" y="108.0566">1</text><text fill="#000000" font-family="sans-serif" font-size="13" lengthAdjust="spacing" textLength="204.6484" x="80.5913" y="108.0566">requests list of figure categories</text><polygon fill="#181818" points="561.8418,138.1094,571.8418,142.1094,561.8418,146.1094,565.8418,142.1094" style="stroke:#181818;stroke-width:1.0;"/><line style="stroke:#181818;stroke-width:1.0;" x1="307.2397" x2="567.8418" y1="142.1094" y2="142.1094"/><text fill="#000000" font-family="sans-serif" font-size="13" font-weight="bold" lengthAdjust="spacing" textLength="8.5757" x="314.2397" y="137.3672">2</text><text fill="#000000" font-family="sans-serif" font-size="13" lengthAdjust="spacing" textLength="46.96" x="326.8154" y="137.3672">create()</text><polygon fill="#181818" points="771.3364,167.4199,781.3364,171.4199,771.3364,175.4199,775.3364,171.4199" style="stroke:#181818;stroke-width:1.0;"/><line style="stroke:#181818;stroke-width:1.0;" x1="583.8418" x2="777.3364" y1="171.4199" y2="171.4199"/><text fill="#000000" font-family="sans-serif" font-size="13" font-weight="bold" lengthAdjust="spacing" textLength="8.5757" x="590.8418" y="166.6777">3</text><text fill="#000000" font-family="sans-serif" font-size="13" lengthAdjust="spacing" textLength="83.3638" x="603.4175" y="166.6777">repositories()</text><polygon fill="#181818" points="925.5303,196.7305,935.5303,200.7305,925.5303,204.7305,929.5303,200.7305" style="stroke:#181818;stroke-width:1.0;"/><line style="stroke:#181818;stroke-width:1.0;" x1="793.3364" x2="931.5303" y1="200.7305" y2="200.7305"/><text fill="#000000" font-family="sans-serif" font-size="13" font-weight="bold" lengthAdjust="spacing" textLength="8.5757" x="800.3364" y="195.9883">4</text><text fill="#000000" font-family="sans-serif" font-size="13" lengthAdjust="spacing" textLength="46.96" x="812.9121" y="195.9883">create()</text><polygon fill="#181818" points="1107.3921,226.041,1117.3921,230.041,1107.3921,234.041,1111.3921,230.041" style="stroke:#181818;stroke-width:1.0;"/><line style="stroke:#181818;stroke-width:1.0;" x1="942.5303" x2="1113.3921" y1="230.041" y2="230.041"/><text fill="#000000" font-family="sans-serif" font-size="13" font-weight="bold" lengthAdjust="spacing" textLength="8.5757" x="949.5303" y="225.2988">5</text><text fill="#000000" font-family="sans-serif" font-size="13" lengthAdjust="spacing" textLength="46.96" x="962.106" y="225.2988">create()</text><polygon fill="#181818" points="594.8418,255.3516,584.8418,259.3516,594.8418,263.3516,590.8418,259.3516" style="stroke:#181818;stroke-width:1.0;"/><line style="stroke:#181818;stroke-width:1.0;" x1="588.8418" x2="787.3364" y1="259.3516" y2="259.3516"/><text fill="#000000" font-family="sans-serif" font-size="13" font-weight="bold" lengthAdjust="spacing" textLength="8.5757" x="600.8418" y="254.6094">6</text><text fill="#000000" font-family="sans-serif" font-size="13" lengthAdjust="spacing" textLength="162.9189" x="613.4175" y="254.6094">FigureCategoryRepository</text><line style="stroke:#181818;stroke-width:1.0;" x1="307.2397" x2="349.2397" y1="288.6621" y2="288.6621"/><line style="stroke:#181818;stroke-width:1.0;" x1="349.2397" x2="349.2397" y1="288.6621" y2="301.6621"/><line style="stroke:#181818;stroke-width:1.0;" x1="308.2397" x2="349.2397" y1="301.6621" y2="301.6621"/><polygon fill="#181818" points="318.2397,297.6621,308.2397,301.6621,318.2397,305.6621,314.2397,301.6621" style="stroke:#181818;stroke-width:1.0;"/><text fill="#000000" font-family="sans-serif" font-size="13" font-weight="bold" lengthAdjust="spacing" textLength="8.5757" x="314.2397" y="283.9199">7</text><text fill="#000000" font-family="sans-serif" font-size="13" lengthAdjust="spacing" textLength="57.6938" x="326.8154" y="283.9199">doShow()</text><polygon fill="#181818" points="561.8418,326.9727,571.8418,330.9727,561.8418,334.9727,565.8418,330.9727" style="stroke:#181818;stroke-width:1.0;"/><line style="stroke:#181818;stroke-width:1.0;" x1="307.2397" x2="567.8418" y1="330.9727" y2="330.9727"/><text fill="#000000" font-family="sans-serif" font-size="13" font-weight="bold" lengthAdjust="spacing" textLength="8.5757" x="314.2397" y="326.2305">8</text><text fill="#000000" font-family="sans-serif" font-size="13" lengthAdjust="spacing" textLength="134.2402" x="326.8154" y="326.2305">listFigureCategories()</text><polygon fill="#181818" points="1107.3921,356.2832,1117.3921,360.2832,1107.3921,364.2832,1111.3921,360.2832" style="stroke:#181818;stroke-width:1.0;"/><line style="stroke:#181818;stroke-width:1.0;" x1="583.8418" x2="1113.3921" y1="360.2832" y2="360.2832"/><text fill="#000000" font-family="sans-serif" font-size="13" font-weight="bold" lengthAdjust="spacing" textLength="8.5757" x="590.8418" y="355.541">9</text><text fill="#000000" font-family="sans-serif" font-size="13" lengthAdjust="spacing" textLength="189.9663" x="603.4175" y="355.541">findAllActiveOrderedByName()</text><polygon fill="#181818" points="594.8418,385.5938,584.8418,389.5938,594.8418,393.5938,590.8418,389.5938" style="stroke:#181818;stroke-width:1.0;"/><line style="stroke:#181818;stroke-width:1.0;" x1="588.8418" x2="1118.3921" y1="389.5938" y2="389.5938"/><text fill="#000000" font-family="sans-serif" font-size="13" font-weight="bold" lengthAdjust="spacing" textLength="17.1514" x="600.8418" y="384.8516">10</text><text fill="#000000" font-family="sans-serif" font-size="13" lengthAdjust="spacing" textLength="101.2007" x="621.9932" y="384.8516">listOfCategories</text><polygon fill="#181818" points="313.2397,414.9043,303.2397,418.9043,313.2397,422.9043,309.2397,418.9043" style="stroke:#181818;stroke-width:1.0;"/><line style="stroke:#181818;stroke-width:1.0;" x1="307.2397" x2="577.8418" y1="418.9043" y2="418.9043"/><text fill="#000000" font-family="sans-serif" font-size="13" font-weight="bold" lengthAdjust="spacing" textLength="17.1514" x="319.2397" y="414.1621">11</text><text fill="#000000" font-family="sans-serif" font-size="13" lengthAdjust="spacing" textLength="221.4507" x="340.3911" y="414.1621">displayCategories(listOfCategories)</text><!--SRC=[ZP9HJuCm58NV-HNDdlJ1Fy232Q9BbYo3iEt1nCJKSc7DIejjSVBllIt82cQ9Jz3odTDp3pLdBbkgQKCQ9HKxQTK0iRg3o4nVMihEj8QzxGKG3SnIMOiGC2TQgWkNDQceC115jBDATiq7Q7ndLccosf_KvHaChoNe5Q669EaXAo8qi9pnbafBLl6M6xlcTQSXfHPgfJcOuyRZnyq_s5H9gvKGun7feTWkL3beWqAG31mCtzQJUJhdAf-wVvDn0Qqot2tMmvxdrpxzw_jcjpyak_HbhjQJ1Wrc6VkhdVSfNlBCLyI_41WxYVo3F3pYq2J6nZyxCDOGWS69gaZb7GcRnWuSi2OKeTJDZcAc0RVlxWF4j-8_8vQdxe0n4reXEO5OIfuwQ3bjO3l1VnfPRZWZDsuWBk6sV3ZPnOp9hGf30mmxJdxSnAHKxhwviQzjnBx0vPL1vhUB8Lt5PPa8aJXZo7G96igdVaSRbzWXSx-ikdfDJZu2DwsWVN3I4iTqmG3-jmHh_9F1QhWPFm00]--></g></svg>