<svg xmlns="http://www.w3.org/2000/svg" xmlns:xlink="http://www.w3.org/1999/xlink" contentStyleType="text/css" height="694px" preserveAspectRatio="none" style="width:1530px;height:694px;background:#FFFFFF;" version="1.1" viewBox="0 0 1530 694" width="1530px" zoomAndPan="magnify"><defs/><g><rect fill="#FFFFFF" height="511.9238" style="stroke:#181818;stroke-width:1.0;" width="10" x="66.0156" y="91.4883"/><rect fill="#FFFFFF" height="490.6133" style="stroke:#181818;stroke-width:1.0;" width="10" x="497.5576" y="112.7988"/><rect fill="#FFFFFF" height="276.7949" style="stroke:#181818;stroke-width:1.0;" width="10" x="774.1597" y="267.3516"/><rect fill="#FFFFFF" height="87.9316" style="stroke:#181818;stroke-width:1.0;" width="10" x="983.6543" y="296.6621"/><rect fill="#FFFFFF" height="29.3105" style="stroke:#181818;stroke-width:1.0;" width="10" x="1137.8481" y="325.9727"/><rect fill="none" height="367.6816" style="stroke:#000000;stroke-width:1.5;" width="1416.6504" x="10" y="228.7305"/><line style="stroke:#181818;stroke-width:0.5;stroke-dasharray:5.0,5.0;" x1="71" x2="71" y1="81.4883" y2="613.4121"/><line style="stroke:#181818;stroke-width:0.5;stroke-dasharray:5.0,5.0;" x1="502.0366" x2="502.0366" y1="81.4883" y2="613.4121"/><line style="stroke:#181818;stroke-width:0.5;stroke-dasharray:5.0,5.0;" x1="778.4248" x2="778.4248" y1="81.4883" y2="613.4121"/><line style="stroke:#181818;stroke-width:0.5;stroke-dasharray:5.0,5.0;" x1="988.3818" x2="988.3818" y1="81.4883" y2="613.4121"/><line style="stroke:#181818;stroke-width:0.5;stroke-dasharray:5.0,5.0;" x1="1141.9268" x2="1141.9268" y1="81.4883" y2="613.4121"/><line style="stroke:#181818;stroke-width:0.5;stroke-dasharray:5.0,5.0;" x1="1318.7695" x2="1318.7695" y1="81.4883" y2="613.4121"/><line style="stroke:#181818;stroke-width:0.5;stroke-dasharray:5.0,5.0;" x1="1474.6504" x2="1474.6504" y1="81.4883" y2="613.4121"/><text fill="#000000" font-family="sans-serif" font-size="14" lengthAdjust="spacing" textLength="96.0313" x="20" y="78.5352">ShowDesigner</text><ellipse cx="71.0156" cy="13.5" fill="#E3E3E3" rx="8" ry="8" style="stroke:#181818;stroke-width:0.5;"/><path d="M71.0156,21.5 L71.0156,48.5 M58.0156,29.5 L84.0156,29.5 M71.0156,48.5 L58.0156,63.5 M71.0156,48.5 L84.0156,63.5 " fill="none" style="stroke:#181818;stroke-width:0.5;"/><text fill="#000000" font-family="sans-serif" font-size="14" lengthAdjust="spacing" textLength="96.0313" x="20" y="625.9473">ShowDesigner</text><ellipse cx="71.0156" cy="637.4004" fill="#E3E3E3" rx="8" ry="8" style="stroke:#181818;stroke-width:0.5;"/><path d="M71.0156,645.4004 L71.0156,672.4004 M58.0156,653.4004 L84.0156,653.4004 M71.0156,672.4004 L58.0156,687.4004 M71.0156,672.4004 L84.0156,687.4004 " fill="none" style="stroke:#181818;stroke-width:0.5;"/><rect fill="#E3E3E3" height="30.4883" rx="2.5" ry="2.5" style="stroke:#181818;stroke-width:0.5;" width="171.042" x="417.0366" y="50"/><text fill="#000000" font-family="sans-serif" font-size="14" lengthAdjust="spacing" textLength="157.042" x="424.0366" y="70.5352">:ListFigureCategoriesUI</text><rect fill="#E3E3E3" height="30.4883" rx="2.5" ry="2.5" style="stroke:#181818;stroke-width:0.5;" width="171.042" x="417.0366" y="612.4121"/><text fill="#000000" font-family="sans-serif" font-size="14" lengthAdjust="spacing" textLength="157.042" x="424.0366" y="632.9473">:ListFigureCategoriesUI</text><rect fill="#E3E3E3" height="30.4883" rx="2.5" ry="2.5" style="stroke:#181818;stroke-width:0.5;" width="225.4697" x="666.4248" y="50"/><text fill="#000000" font-family="sans-serif" font-size="14" lengthAdjust="spacing" textLength="211.4697" x="673.4248" y="70.5352">:ListFigureCategoriesController</text><rect fill="#E3E3E3" height="30.4883" rx="2.5" ry="2.5" style="stroke:#181818;stroke-width:0.5;" width="225.4697" x="666.4248" y="612.4121"/><text fill="#000000" font-family="sans-serif" font-size="14" lengthAdjust="spacing" textLength="211.4697" x="673.4248" y="632.9473">:ListFigureCategoriesController</text><rect fill="#E3E3E3" height="30.4883" rx="2.5" ry="2.5" style="stroke:#181818;stroke-width:0.5;" width="148.5449" x="914.3818" y="50"/><text fill="#000000" font-family="sans-serif" font-size="14" lengthAdjust="spacing" textLength="134.5449" x="921.3818" y="70.5352">:PersistenceContext</text><rect fill="#E3E3E3" height="30.4883" rx="2.5" ry="2.5" style="stroke:#181818;stroke-width:0.5;" width="148.5449" x="914.3818" y="612.4121"/><text fill="#000000" font-family="sans-serif" font-size="14" lengthAdjust="spacing" textLength="134.5449" x="921.3818" y="632.9473">:PersistenceContext</text><rect fill="#E3E3E3" height="46.9766" rx="2.5" ry="2.5" style="stroke:#181818;stroke-width:0.5;" width="139.8428" x="1072.9268" y="33.5117"/><text fill="#000000" font-family="sans-serif" font-size="14" lengthAdjust="spacing" textLength="46.9287" x="1119.3838" y="54.0469">factory</text><text fill="#000000" font-family="sans-serif" font-size="14" lengthAdjust="spacing" textLength="125.8428" x="1079.9268" y="70.5352">:RepositoryFactory</text><rect fill="#E3E3E3" height="46.9766" rx="2.5" ry="2.5" style="stroke:#181818;stroke-width:0.5;" width="139.8428" x="1072.9268" y="612.4121"/><text fill="#000000" font-family="sans-serif" font-size="14" lengthAdjust="spacing" textLength="46.9287" x="1119.3838" y="632.9473">factory</text><text fill="#000000" font-family="sans-serif" font-size="14" lengthAdjust="spacing" textLength="125.8428" x="1079.9268" y="649.4355">:RepositoryFactory</text><rect fill="#E3E3E3" height="46.9766" rx="2.5" ry="2.5" style="stroke:#181818;stroke-width:0.5;" width="193.8809" x="1222.7695" y="33.5117"/><text fill="#000000" font-family="sans-serif" font-size="14" lengthAdjust="spacing" textLength="69.002" x="1285.209" y="54.0469">repository</text><text fill="#000000" font-family="sans-serif" font-size="14" lengthAdjust="spacing" textLength="179.8809" x="1229.7695" y="70.5352">:FigureCategoryRepository</text><rect fill="#E3E3E3" height="46.9766" rx="2.5" ry="2.5" style="stroke:#181818;stroke-width:0.5;" width="193.8809" x="1222.7695" y="612.4121"/><text fill="#000000" font-family="sans-serif" font-size="14" lengthAdjust="spacing" textLength="69.002" x="1285.209" y="632.9473">repository</text><text fill="#000000" font-family="sans-serif" font-size="14" lengthAdjust="spacing" textLength="179.8809" x="1229.7695" y="649.4355">:FigureCategoryRepository</text><rect fill="#E3E3E3" height="30.4883" rx="2.5" ry="2.5" style="stroke:#181818;stroke-width:0.5;" width="97.4531" x="1426.6504" y="50"/><text fill="#000000" font-family="sans-serif" font-size="14" lengthAdjust="spacing" textLength="83.4531" x="1433.6504" y="70.5352">:AuthFacade</text><rect fill="#E3E3E3" height="30.4883" rx="2.5" ry="2.5" style="stroke:#181818;stroke-width:0.5;" width="97.4531" x="1426.6504" y="612.4121"/><text fill="#000000" font-family="sans-serif" font-size="14" lengthAdjust="spacing" textLength="83.4531" x="1433.6504" y="632.9473">:AuthFacade</text><rect fill="#FFFFFF" height="511.9238" style="stroke:#181818;stroke-width:1.0;" width="10" x="66.0156" y="91.4883"/><rect fill="#FFFFFF" height="490.6133" style="stroke:#181818;stroke-width:1.0;" width="10" x="497.5576" y="112.7988"/><rect fill="#FFFFFF" height="276.7949" style="stroke:#181818;stroke-width:1.0;" width="10" x="774.1597" y="267.3516"/><rect fill="#FFFFFF" height="87.9316" style="stroke:#181818;stroke-width:1.0;" width="10" x="983.6543" y="296.6621"/><rect fill="#FFFFFF" height="29.3105" style="stroke:#181818;stroke-width:1.0;" width="10" x="1137.8481" y="325.9727"/><polygon fill="#181818" points="485.5576,108.7988,495.5576,112.7988,485.5576,116.7988,489.5576,112.7988" style="stroke:#181818;stroke-width:1.0;"/><line style="stroke:#181818;stroke-width:1.0;" x1="76.0156" x2="491.5576" y1="112.7988" y2="112.7988"/><text fill="#000000" font-family="sans-serif" font-size="13" font-weight="bold" lengthAdjust="spacing" textLength="8.5757" x="83.0156" y="108.0566">1</text><text fill="#000000" font-family="sans-serif" font-size="13" lengthAdjust="spacing" textLength="204.6484" x="95.5913" y="108.0566">requests list of figure categories</text><polygon fill="#181818" points="1463.377,138.1094,1473.377,142.1094,1463.377,146.1094,1467.377,142.1094" style="stroke:#181818;stroke-width:1.0;"/><line style="stroke:#181818;stroke-width:1.0;" x1="507.5576" x2="1469.377" y1="142.1094" y2="142.1094"/><text fill="#000000" font-family="sans-serif" font-size="13" font-weight="bold" lengthAdjust="spacing" textLength="8.5757" x="514.5576" y="137.3672">2</text><text fill="#000000" font-family="sans-serif" font-size="13" lengthAdjust="spacing" textLength="104.7363" x="527.1333" y="137.3672">getCurrentUser()</text><polygon fill="#181818" points="518.5576,167.4199,508.5576,171.4199,518.5576,175.4199,514.5576,171.4199" style="stroke:#181818;stroke-width:1.0;"/><line style="stroke:#181818;stroke-width:1.0;" x1="512.5576" x2="1474.377" y1="171.4199" y2="171.4199"/><text fill="#000000" font-family="sans-serif" font-size="13" font-weight="bold" lengthAdjust="spacing" textLength="8.5757" x="524.5576" y="166.6777">3</text><text fill="#000000" font-family="sans-serif" font-size="13" lengthAdjust="spacing" textLength="128.9971" x="537.1333" y="166.6777">user (ShowDesigner)</text><line style="stroke:#181818;stroke-width:1.0;" x1="507.5576" x2="549.5576" y1="200.7305" y2="200.7305"/><line style="stroke:#181818;stroke-width:1.0;" x1="549.5576" x2="549.5576" y1="200.7305" y2="213.7305"/><line style="stroke:#181818;stroke-width:1.0;" x1="508.5576" x2="549.5576" y1="213.7305" y2="213.7305"/><polygon fill="#181818" points="518.5576,209.7305,508.5576,213.7305,518.5576,217.7305,514.5576,213.7305" style="stroke:#181818;stroke-width:1.0;"/><text fill="#000000" font-family="sans-serif" font-size="13" font-weight="bold" lengthAdjust="spacing" textLength="8.5757" x="514.5576" y="195.9883">4</text><text fill="#000000" font-family="sans-serif" font-size="13" lengthAdjust="spacing" textLength="170.771" x="527.1333" y="195.9883">checkRole("ShowDesigner")</text><path d="M10,228.7305 L72.1387,228.7305 L72.1387,236.041 L62.1387,246.041 L10,246.041 L10,228.7305 " fill="#EEEEEE" style="stroke:#000000;stroke-width:1.5;"/><rect fill="none" height="367.6816" style="stroke:#000000;stroke-width:1.5;" width="1416.6504" x="10" y="228.7305"/><text fill="#000000" font-family="sans-serif" font-size="13" font-weight="bold" lengthAdjust="spacing" textLength="17.1387" x="25" y="242.2988">alt</text><text fill="#000000" font-family="sans-serif" font-size="11" font-weight="bold" lengthAdjust="spacing" textLength="128.165" x="87.1387" y="241.3652">[role is ShowDesigner]</text><polygon fill="#181818" points="762.1597,263.3516,772.1597,267.3516,762.1597,271.3516,766.1597,267.3516" style="stroke:#181818;stroke-width:1.0;"/><line style="stroke:#181818;stroke-width:1.0;" x1="507.5576" x2="768.1597" y1="267.3516" y2="267.3516"/><text fill="#000000" font-family="sans-serif" font-size="13" font-weight="bold" lengthAdjust="spacing" textLength="8.5757" x="514.5576" y="262.6094">5</text><text fill="#000000" font-family="sans-serif" font-size="13" lengthAdjust="spacing" textLength="46.96" x="527.1333" y="262.6094">create()</text><polygon fill="#181818" points="971.6543,292.6621,981.6543,296.6621,971.6543,300.6621,975.6543,296.6621" style="stroke:#181818;stroke-width:1.0;"/><line style="stroke:#181818;stroke-width:1.0;" x1="784.1597" x2="977.6543" y1="296.6621" y2="296.6621"/><text fill="#000000" font-family="sans-serif" font-size="13" font-weight="bold" lengthAdjust="spacing" textLength="8.5757" x="791.1597" y="291.9199">6</text><text fill="#000000" font-family="sans-serif" font-size="13" lengthAdjust="spacing" textLength="83.3638" x="803.7354" y="291.9199">repositories()</text><polygon fill="#181818" points="1125.8481,321.9727,1135.8481,325.9727,1125.8481,329.9727,1129.8481,325.9727" style="stroke:#181818;stroke-width:1.0;"/><line style="stroke:#181818;stroke-width:1.0;" x1="993.6543" x2="1131.8481" y1="325.9727" y2="325.9727"/><text fill="#000000" font-family="sans-serif" font-size="13" font-weight="bold" lengthAdjust="spacing" textLength="8.5757" x="1000.6543" y="321.2305">7</text><text fill="#000000" font-family="sans-serif" font-size="13" lengthAdjust="spacing" textLength="46.96" x="1013.23" y="321.2305">create()</text><polygon fill="#181818" points="1307.71,351.2832,1317.71,355.2832,1307.71,359.2832,1311.71,355.2832" style="stroke:#181818;stroke-width:1.0;"/><line style="stroke:#181818;stroke-width:1.0;" x1="1142.8481" x2="1313.71" y1="355.2832" y2="355.2832"/><text fill="#000000" font-family="sans-serif" font-size="13" font-weight="bold" lengthAdjust="spacing" textLength="8.5757" x="1149.8481" y="350.541">8</text><text fill="#000000" font-family="sans-serif" font-size="13" lengthAdjust="spacing" textLength="46.96" x="1162.4238" y="350.541">create()</text><polygon fill="#181818" points="795.1597,380.5938,785.1597,384.5938,795.1597,388.5938,791.1597,384.5938" style="stroke:#181818;stroke-width:1.0;"/><line style="stroke:#181818;stroke-width:1.0;" x1="789.1597" x2="987.6543" y1="384.5938" y2="384.5938"/><text fill="#000000" font-family="sans-serif" font-size="13" font-weight="bold" lengthAdjust="spacing" textLength="8.5757" x="801.1597" y="379.8516">9</text><text fill="#000000" font-family="sans-serif" font-size="13" lengthAdjust="spacing" textLength="162.9189" x="813.7354" y="379.8516">FigureCategoryRepository</text><line style="stroke:#181818;stroke-width:1.0;" x1="507.5576" x2="549.5576" y1="413.9043" y2="413.9043"/><line style="stroke:#181818;stroke-width:1.0;" x1="549.5576" x2="549.5576" y1="413.9043" y2="426.9043"/><line style="stroke:#181818;stroke-width:1.0;" x1="508.5576" x2="549.5576" y1="426.9043" y2="426.9043"/><polygon fill="#181818" points="518.5576,422.9043,508.5576,426.9043,518.5576,430.9043,514.5576,426.9043" style="stroke:#181818;stroke-width:1.0;"/><text fill="#000000" font-family="sans-serif" font-size="13" font-weight="bold" lengthAdjust="spacing" textLength="17.1514" x="514.5576" y="409.1621">10</text><text fill="#000000" font-family="sans-serif" font-size="13" lengthAdjust="spacing" textLength="57.6938" x="535.709" y="409.1621">doShow()</text><polygon fill="#181818" points="762.1597,452.2148,772.1597,456.2148,762.1597,460.2148,766.1597,456.2148" style="stroke:#181818;stroke-width:1.0;"/><line style="stroke:#181818;stroke-width:1.0;" x1="507.5576" x2="768.1597" y1="456.2148" y2="456.2148"/><text fill="#000000" font-family="sans-serif" font-size="13" font-weight="bold" lengthAdjust="spacing" textLength="17.1514" x="514.5576" y="451.4727">11</text><text fill="#000000" font-family="sans-serif" font-size="13" lengthAdjust="spacing" textLength="134.2402" x="535.709" y="451.4727">listFigureCategories()</text><polygon fill="#181818" points="1307.71,481.5254,1317.71,485.5254,1307.71,489.5254,1311.71,485.5254" style="stroke:#181818;stroke-width:1.0;"/><line style="stroke:#181818;stroke-width:1.0;" x1="784.1597" x2="1313.71" y1="485.5254" y2="485.5254"/><text fill="#000000" font-family="sans-serif" font-size="13" font-weight="bold" lengthAdjust="spacing" textLength="17.1514" x="791.1597" y="480.7832">12</text><text fill="#000000" font-family="sans-serif" font-size="13" lengthAdjust="spacing" textLength="189.9663" x="812.311" y="480.7832">findAllActiveOrderedByName()</text><polygon fill="#181818" points="795.1597,510.8359,785.1597,514.8359,795.1597,518.8359,791.1597,514.8359" style="stroke:#181818;stroke-width:1.0;"/><line style="stroke:#181818;stroke-width:1.0;" x1="789.1597" x2="1318.71" y1="514.8359" y2="514.8359"/><text fill="#000000" font-family="sans-serif" font-size="13" font-weight="bold" lengthAdjust="spacing" textLength="17.1514" x="801.1597" y="510.0938">13</text><text fill="#000000" font-family="sans-serif" font-size="13" lengthAdjust="spacing" textLength="101.2007" x="822.311" y="510.0938">listOfCategories</text><polygon fill="#181818" points="518.5576,540.1465,508.5576,544.1465,518.5576,548.1465,514.5576,544.1465" style="stroke:#181818;stroke-width:1.0;"/><line style="stroke:#181818;stroke-width:1.0;" x1="512.5576" x2="778.1597" y1="544.1465" y2="544.1465"/><text fill="#000000" font-family="sans-serif" font-size="13" font-weight="bold" lengthAdjust="spacing" textLength="17.1514" x="524.5576" y="539.4043">14</text><text fill="#000000" font-family="sans-serif" font-size="13" lengthAdjust="spacing" textLength="221.4507" x="545.709" y="539.4043">displayCategories(listOfCategories)</text><line style="stroke:#000000;stroke-width:1.0;stroke-dasharray:2.0,2.0;" x1="10" x2="1426.6504" y1="553.1465" y2="553.1465"/><text fill="#000000" font-family="sans-serif" font-size="11" font-weight="bold" lengthAdjust="spacing" textLength="150.498" x="15" y="563.7813">[role is not ShowDesigner]</text><polygon fill="#181818" points="87.0156,584.4121,77.0156,588.4121,87.0156,592.4121,83.0156,588.4121" style="stroke:#181818;stroke-width:1.0;"/><line style="stroke:#181818;stroke-width:1.0;" x1="81.0156" x2="496.5576" y1="588.4121" y2="588.4121"/><text fill="#000000" font-family="sans-serif" font-size="13" font-weight="bold" lengthAdjust="spacing" textLength="17.1514" x="93.0156" y="583.6699">15</text><text fill="#000000" font-family="sans-serif" font-size="13" lengthAdjust="spacing" textLength="376.3906" x="114.167" y="583.6699">errorMessage("Access denied: ShowDesigner role required")</text><!--SRC=[ZLJ1hfim4Bpp5QkSaaD_W4CbIb-aIAz9H993fKgLQnQmujXqRVgQl-_Q409KhoeNi7TtTdR6nbsLQGM96zoiiR8XUqFmr67YnaWhv5NKUF9tZK0elJ2rdYQuHfJsJPaQAg4T9edel3NTxGSIVqjl2LQdnhvzHgTgWxG2uI3BpuSYOG2lf6g5yR1ANvNpMrLtXBdmM5jIw2wxc7xP_KTkReqdg_NG8ZyNhukg8vBZGZGIGpB-zZ7pcC_pgiZw_isa1RRMgR3OzdinVnlPV_s-sv_EsJv_cLVJMCC0Cuxt9rp4ALwEXmN3hFCDjn8bzZADooYb-iL0WtP9VC67ZomEfEpCpmwTTw1vGB0LLB4po56U2GBBoKLS-iHFeKQVTqHe_CKXhJV9CzXtIQ7Z0AodPcu6e12L3SfhOJMkvtvl4g4zi3C8oi4qb00_FK1mYyUGX4oGcyVGI3Xw6NPY6gSVyp3oe2OFnnMp0hOqh8zvI5xwDMapA_hBrn1TRWR0ODm2fCH_m_HC0lqKtZiKIo0UOg9GaBYqGRw7F4_bqcZxya8Cr1wQzQmhPSfCwomqmGELI5X-kk_5xJ59I9lZ7gedvWmnKbAkrU8-wRei6TXE1ejs8lyinbDXh7_lP4GrKq0YIr_GEVuPhLUPbFp9c4PXcSvAUynm7nIFngSFJPaaa-vy-YUh_ZRz0G00]--></g></svg>