<svg xmlns="http://www.w3.org/2000/svg" xmlns:xlink="http://www.w3.org/1999/xlink" contentStyleType="text/css" height="944px" preserveAspectRatio="none" style="width:659px;height:944px;background:#FFFFFF;" version="1.1" viewBox="0 0 659 944" width="659px" zoomAndPan="magnify"><title>System Sequence Diagram (SSD) - US261 Initiate Simulation for a Figure</title><defs/><g><text fill="#000000" font-family="sans-serif" font-size="14" font-weight="bold" lengthAdjust="spacing" textLength="498.2161" x="89.5966" y="29.9659">System Sequence Diagram (SSD) - US261 Initiate Simulation for a Figure</text><rect fill="#FFFFFF" height="670.6902" style="stroke:#181818;stroke-width:1.0;" width="10" x="90.5208" y="134.1358"/><rect fill="#FFFFFF" height="646.9842" style="stroke:#181818;stroke-width:1.0;" width="10" x="342.732" y="157.8419"/><rect fill="none" height="178.512" style="stroke:#000000;stroke-width:1.5;" width="538.8271" x="20" y="467.784"/><rect fill="none" height="68.3939" style="stroke:#000000;stroke-width:1.5;" width="360.3939" x="30" y="570.902"/><line style="stroke:#181818;stroke-width:0.5;stroke-dasharray:5.0,5.0;" x1="95" x2="95" y1="124.1358" y2="861.2381"/><line style="stroke:#181818;stroke-width:0.5;stroke-dasharray:5.0,5.0;" x1="347.0701" x2="347.0701" y1="124.1358" y2="861.2381"/><text fill="#000000" font-family="sans-serif" font-size="14" lengthAdjust="spacing" textLength="105.0416" x="40" y="120.0339">Drone Operator</text><ellipse cx="95.5208" cy="53.5679" fill="#E3E3E3" rx="8" ry="8" style="stroke:#181818;stroke-width:0.5;"/><path d="M95.5208,61.5679 L95.5208,88.5679 M82.5208,69.5679 L108.5208,69.5679 M95.5208,88.5679 L82.5208,103.5679 M95.5208,88.5679 L108.5208,103.5679 " fill="none" style="stroke:#181818;stroke-width:0.5;"/><text fill="#000000" font-family="sans-serif" font-size="14" lengthAdjust="spacing" textLength="105.0416" x="40" y="875.204">Drone Operator</text><ellipse cx="95.5208" cy="887.806" fill="#E3E3E3" rx="8" ry="8" style="stroke:#181818;stroke-width:0.5;"/><path d="M95.5208,895.806 L95.5208,922.806 M82.5208,903.806 L108.5208,903.806 M95.5208,922.806 L82.5208,937.806 M95.5208,922.806 L108.5208,937.806 " fill="none" style="stroke:#181818;stroke-width:0.5;"/><rect fill="#E3E3E3" height="33.0679" rx="2.5" ry="2.5" style="stroke:#181818;stroke-width:0.5;" width="65.3238" x="315.0701" y="90.0679"/><text fill="#000000" font-family="sans-serif" font-size="14" lengthAdjust="spacing" textLength="51.3238" x="322.0701" y="112.0339">:System</text><rect fill="#E3E3E3" height="33.0679" rx="2.5" ry="2.5" style="stroke:#181818;stroke-width:0.5;" width="65.3238" x="315.0701" y="860.2381"/><text fill="#000000" font-family="sans-serif" font-size="14" lengthAdjust="spacing" textLength="51.3238" x="322.0701" y="882.204">:System</text><rect fill="#FFFFFF" height="670.6902" style="stroke:#181818;stroke-width:1.0;" width="10" x="90.5208" y="134.1358"/><rect fill="#FFFFFF" height="646.9842" style="stroke:#181818;stroke-width:1.0;" width="10" x="342.732" y="157.8419"/><polygon fill="#181818" points="330.732,153.8419,340.732,157.8419,330.732,161.8419,334.732,157.8419" style="stroke:#181818;stroke-width:1.0;"/><line style="stroke:#181818;stroke-width:1.0;" x1="100.5208" x2="336.732" y1="157.8419" y2="157.8419"/><text fill="#000000" font-family="sans-serif" font-size="13" font-weight="bold" lengthAdjust="spacing" textLength="7.436" x="107.5208" y="152.0328">1</text><text fill="#000000" font-family="sans-serif" font-size="13" lengthAdjust="spacing" textLength="205.4522" x="118.9568" y="152.0328">start simulation (script, tolerance)</text><line style="stroke:#181818;stroke-width:1.0;" x1="352.732" x2="394.732" y1="189.5479" y2="189.5479"/><line style="stroke:#181818;stroke-width:1.0;" x1="394.732" x2="394.732" y1="189.5479" y2="202.5479"/><line style="stroke:#181818;stroke-width:1.0;" x1="353.732" x2="394.732" y1="202.5479" y2="202.5479"/><polygon fill="#181818" points="363.732,198.5479,353.732,202.5479,363.732,206.5479,359.732,202.5479" style="stroke:#181818;stroke-width:1.0;"/><text fill="#000000" font-family="sans-serif" font-size="13" font-weight="bold" lengthAdjust="spacing" textLength="7.436" x="359.732" y="183.7389">2</text><text fill="#000000" font-family="sans-serif" font-size="13" lengthAdjust="spacing" textLength="180.1412" x="371.168" y="183.7389">read environment + script file</text><line style="stroke:#181818;stroke-width:1.0;" x1="352.732" x2="394.732" y1="234.2539" y2="234.2539"/><line style="stroke:#181818;stroke-width:1.0;" x1="394.732" x2="394.732" y1="234.2539" y2="247.2539"/><line style="stroke:#181818;stroke-width:1.0;" x1="353.732" x2="394.732" y1="247.2539" y2="247.2539"/><polygon fill="#181818" points="363.732,243.2539,353.732,247.2539,363.732,251.2539,359.732,247.2539" style="stroke:#181818;stroke-width:1.0;"/><text fill="#000000" font-family="sans-serif" font-size="13" font-weight="bold" lengthAdjust="spacing" textLength="7.436" x="359.732" y="228.4449">3</text><text fill="#000000" font-family="sans-serif" font-size="13" lengthAdjust="spacing" textLength="210.2232" x="371.168" y="228.4449">create pipes, fork drone processes</text><line style="stroke:#181818;stroke-width:1.0;" x1="352.732" x2="394.732" y1="278.9599" y2="278.9599"/><line style="stroke:#181818;stroke-width:1.0;" x1="394.732" x2="394.732" y1="278.9599" y2="291.9599"/><line style="stroke:#181818;stroke-width:1.0;" x1="353.732" x2="394.732" y1="291.9599" y2="291.9599"/><polygon fill="#181818" points="363.732,287.9599,353.732,291.9599,363.732,295.9599,359.732,291.9599" style="stroke:#181818;stroke-width:1.0;"/><text fill="#000000" font-family="sans-serif" font-size="13" font-weight="bold" lengthAdjust="spacing" textLength="7.436" x="359.732" y="273.1509">4</text><text fill="#000000" font-family="sans-serif" font-size="13" lengthAdjust="spacing" textLength="204.5682" x="371.168" y="273.1509">send environment data to drones</text><line style="stroke:#181818;stroke-width:1.0;" x1="352.732" x2="394.732" y1="350.3719" y2="350.3719"/><line style="stroke:#181818;stroke-width:1.0;" x1="394.732" x2="394.732" y1="350.3719" y2="363.3719"/><line style="stroke:#181818;stroke-width:1.0;" x1="353.732" x2="394.732" y1="363.3719" y2="363.3719"/><polygon fill="#181818" points="363.732,359.3719,353.732,363.3719,363.732,367.3719,359.732,363.3719" style="stroke:#181818;stroke-width:1.0;"/><text fill="#000000" font-family="sans-serif" font-size="13" font-weight="bold" lengthAdjust="spacing" textLength="7.436" x="359.732" y="344.5629">5</text><text fill="#000000" font-family="sans-serif" font-size="13" lengthAdjust="spacing" textLength="182.0002" x="371.168" y="344.5629">receive positions from drones</text><line style="stroke:#181818;stroke-width:1.0;" x1="352.732" x2="394.732" y1="395.0779" y2="395.0779"/><line style="stroke:#181818;stroke-width:1.0;" x1="394.732" x2="394.732" y1="395.0779" y2="408.0779"/><line style="stroke:#181818;stroke-width:1.0;" x1="353.732" x2="394.732" y1="408.0779" y2="408.0779"/><polygon fill="#181818" points="363.732,404.0779,353.732,408.0779,363.732,412.0779,359.732,408.0779" style="stroke:#181818;stroke-width:1.0;"/><text fill="#000000" font-family="sans-serif" font-size="13" font-weight="bold" lengthAdjust="spacing" textLength="7.436" x="359.732" y="389.2689">6</text><text fill="#000000" font-family="sans-serif" font-size="13" lengthAdjust="spacing" textLength="96.3301" x="371.168" y="389.2689">update timeline</text><line style="stroke:#181818;stroke-width:1.0;" x1="352.732" x2="394.732" y1="439.784" y2="439.784"/><line style="stroke:#181818;stroke-width:1.0;" x1="394.732" x2="394.732" y1="439.784" y2="452.784"/><line style="stroke:#181818;stroke-width:1.0;" x1="353.732" x2="394.732" y1="452.784" y2="452.784"/><polygon fill="#181818" points="363.732,448.784,353.732,452.784,363.732,456.784,359.732,452.784" style="stroke:#181818;stroke-width:1.0;"/><text fill="#000000" font-family="sans-serif" font-size="13" font-weight="bold" lengthAdjust="spacing" textLength="7.436" x="359.732" y="433.975">7</text><text fill="#000000" font-family="sans-serif" font-size="13" lengthAdjust="spacing" textLength="97.5391" x="371.168" y="433.975">detect collisions</text><path d="M20,467.784 L82.459,467.784 L82.459,477.49 L72.459,487.49 L20,487.49 L20,467.784 " fill="#EEEEEE" style="stroke:#000000;stroke-width:1.5;"/><rect fill="none" height="178.512" style="stroke:#000000;stroke-width:1.5;" width="538.8271" x="20" y="467.784"/><text fill="#000000" font-family="sans-serif" font-size="13" font-weight="bold" lengthAdjust="spacing" textLength="17.459" x="35" y="482.681">alt</text><text fill="#000000" font-family="sans-serif" font-size="11" font-weight="bold" lengthAdjust="spacing" textLength="113.1782" x="97.459" y="481.5429">[too many collisions]</text><polygon fill="#181818" points="111.5208,507.196,101.5208,511.196,111.5208,515.196,107.5208,511.196" style="stroke:#181818;stroke-width:1.0;"/><line style="stroke:#181818;stroke-width:1.0;stroke-dasharray:2.0,2.0;" x1="105.5208" x2="341.732" y1="511.196" y2="511.196"/><text fill="#000000" font-family="sans-serif" font-size="13" font-weight="bold" lengthAdjust="spacing" textLength="7.436" x="117.5208" y="505.387">8</text><text fill="#000000" font-family="sans-serif" font-size="13" lengthAdjust="spacing" textLength="206.7751" x="128.9568" y="505.387">&#9888;&#65039; Alert - max collisions exceeded</text><line style="stroke:#181818;stroke-width:1.0;" x1="352.732" x2="394.732" y1="542.902" y2="542.902"/><line style="stroke:#181818;stroke-width:1.0;" x1="394.732" x2="394.732" y1="542.902" y2="555.902"/><line style="stroke:#181818;stroke-width:1.0;" x1="353.732" x2="394.732" y1="555.902" y2="555.902"/><polygon fill="#181818" points="363.732,551.902,353.732,555.902,363.732,559.902,359.732,555.902" style="stroke:#181818;stroke-width:1.0;"/><text fill="#000000" font-family="sans-serif" font-size="13" font-weight="bold" lengthAdjust="spacing" textLength="7.436" x="359.732" y="537.093">9</text><text fill="#000000" font-family="sans-serif" font-size="13" lengthAdjust="spacing" textLength="165.6591" x="371.168" y="537.093">send SIGUSR1 to all drones</text><path d="M30,570.902 L112.726,570.902 L112.726,580.608 L102.726,590.608 L30,590.608 L30,570.902 " fill="#EEEEEE" style="stroke:#000000;stroke-width:1.5;"/><rect fill="none" height="68.3939" style="stroke:#000000;stroke-width:1.5;" width="360.3939" x="30" y="570.902"/><text fill="#000000" font-family="sans-serif" font-size="13" font-weight="bold" lengthAdjust="spacing" textLength="37.726" x="45" y="585.799">break</text><line style="stroke:#000000;stroke-width:1.0;stroke-dasharray:2.0,2.0;" x1="30" x2="390.3939" y1="591.608" y2="591.608"/><text fill="#000000" font-family="sans-serif" font-size="11" font-weight="bold" lengthAdjust="spacing" textLength="89.0444" x="35" y="603.3669">[normal update]</text><polygon fill="#181818" points="111.5208,627.2959,101.5208,631.2959,111.5208,635.2959,107.5208,631.2959" style="stroke:#181818;stroke-width:1.0;"/><line style="stroke:#181818;stroke-width:1.0;stroke-dasharray:2.0,2.0;" x1="105.5208" x2="341.732" y1="631.2959" y2="631.2959"/><text fill="#000000" font-family="sans-serif" font-size="13" font-weight="bold" lengthAdjust="spacing" textLength="14.872" x="117.5208" y="625.4869">10</text><text fill="#000000" font-family="sans-serif" font-size="13" lengthAdjust="spacing" textLength="150.3062" x="136.3928" y="625.4869">updated drone positions</text><line style="stroke:#181818;stroke-width:1.0;" x1="352.732" x2="394.732" y1="677.002" y2="677.002"/><line style="stroke:#181818;stroke-width:1.0;" x1="394.732" x2="394.732" y1="677.002" y2="690.002"/><line style="stroke:#181818;stroke-width:1.0;" x1="353.732" x2="394.732" y1="690.002" y2="690.002"/><polygon fill="#181818" points="363.732,686.002,353.732,690.002,363.732,694.002,359.732,690.002" style="stroke:#181818;stroke-width:1.0;"/><text fill="#000000" font-family="sans-serif" font-size="13" font-weight="bold" lengthAdjust="spacing" textLength="14.872" x="359.732" y="671.1929">11</text><text fill="#000000" font-family="sans-serif" font-size="13" lengthAdjust="spacing" textLength="118.4821" x="378.604" y="671.1929">wait for drone exits</text><line style="stroke:#181818;stroke-width:1.0;" x1="352.732" x2="394.732" y1="721.708" y2="721.708"/><line style="stroke:#181818;stroke-width:1.0;" x1="394.732" x2="394.732" y1="721.708" y2="734.708"/><line style="stroke:#181818;stroke-width:1.0;" x1="353.732" x2="394.732" y1="734.708" y2="734.708"/><polygon fill="#181818" points="363.732,730.708,353.732,734.708,363.732,738.708,359.732,734.708" style="stroke:#181818;stroke-width:1.0;"/><text fill="#000000" font-family="sans-serif" font-size="13" font-weight="bold" lengthAdjust="spacing" textLength="14.872" x="359.732" y="715.899">12</text><text fill="#000000" font-family="sans-serif" font-size="13" lengthAdjust="spacing" textLength="127.2701" x="378.604" y="715.899">generate final report</text><polygon fill="#181818" points="106.5208,800.826,96.5208,804.826,106.5208,808.826,102.5208,804.826" style="stroke:#181818;stroke-width:1.0;"/><line style="stroke:#181818;stroke-width:1.0;stroke-dasharray:2.0,2.0;" x1="100.5208" x2="346.732" y1="804.826" y2="804.826"/><text fill="#000000" font-family="sans-serif" font-size="13" font-weight="bold" lengthAdjust="spacing" textLength="14.872" x="112.5208" y="799.017">13</text><text fill="#000000" font-family="sans-serif" font-size="13" lengthAdjust="spacing" textLength="76.6221" x="131.3928" y="799.017">report ready</text><path d="M357,747.708 L357,845.708 L652,845.708 L652,757.708 L642,747.708 L357,747.708 " fill="#FAFAFA" style="stroke:#181818;stroke-width:0.5;"/><path d="M642,747.708 L642,757.708 L652,757.708 L642,747.708 " fill="#FAFAFA" style="stroke:#181818;stroke-width:0.5;"/><text fill="#000000" font-family="sans-serif" font-size="13" lengthAdjust="spacing" textLength="274.6772" x="363" y="766.605">Updated from C function `run_simulation()`\n</text><text fill="#000000" font-family="sans-serif" font-size="13" lengthAdjust="spacing" textLength="200.6162" x="363" y="784.311">- One drone process per drone\n</text><text fill="#000000" font-family="sans-serif" font-size="13" lengthAdjust="spacing" textLength="174.6422" x="363" y="802.017">- Communication via pipes\n</text><text fill="#000000" font-family="sans-serif" font-size="13" lengthAdjust="spacing" textLength="263.6793" x="363" y="819.723">- Collisions trigger alerts and termination\n</text><text fill="#000000" font-family="sans-serif" font-size="13" lengthAdjust="spacing" textLength="217.4772" x="363" y="837.429">- Simulation generates a text report</text><!--SRC=[VLGxRXin4ErvYe4h2R4BfqYX8a1W8u4h0rce2n2FkQFLGFnio5bPEaNwL3b6pfCBv0ePxcgbjQs4ZSZbcpTlPXwLDnnQJEZ1nn3jEaLF8AaZauytBTeDDbJ9tX4aieAXSLD0NcCTdpWqi4ANoHXXKMYrpq8UAlhMKR04junDWS-gwdOELx2ithwxXhl0mYWAPzyv58u1LZ41maTkkgHis4aCdN-af7ihUdTncs8Wk6yfePul0FFnO5IJiEKMWy35OX3H8uPjpy7Ral4OOiOTNBq_m1QGHOaWdrJDiatSoYL8T0hNakOdhf7yKFI49n7MG67BgjcJYde30n6iMDluEi1gX3Ast5A-BBtOGDtNswPeAMVAPu8oXUTPQXHKfKDeDiR5sFQD9RHh4FQa1VeMPjgipTo0hdFQBV5MCyVCfGSPLkgGaVDyJDVMHNx9u3ZGFr0rYJe9R7IESs4sFH2TgEW87iD-UWc7DH8fqpYp1Vp-yVFFh-_mGQSYwYkFkqaeqCuIrLI_udZHlEhkqxBwV5rwXivDQophKOUowK-a5eSGaqTtgFN_wWPCFSvmxEJ0fNcrP5D-ou3E-US9MVh13GIqOpbdW8P2oKZggg3A4hKnYJchQBZhZRatfgQN9fvyEJsH4FMOk5cBMHugwhrm0wiksFw1FAGkV3qzcDdyuKimLt2lgfyP69Hq-DBVtqJlky1sU6LRni7wXxlZ74MJDng8PSmPK5icbBnMM-9wzEGlP6o70XMsax4XfTEb5FCN]--></g></svg>