<svg xmlns="http://www.w3.org/2000/svg" xmlns:xlink="http://www.w3.org/1999/xlink" contentStyleType="text/css" height="982px" preserveAspectRatio="none" style="width:1694px;height:982px;background:#FFFFFF;" version="1.1" viewBox="0 0 1694 982" width="1694px" zoomAndPan="magnify"><title>Edit Show Request Domain Model - US236</title><defs/><g><text fill="#000000" font-family="sans-serif" font-size="14" font-weight="bold" lengthAdjust="spacing" textLength="288.1329" x="695.9335" y="24.9659">Edit Show Request Domain Model - US236</text><!--cluster CRM Collaborator Subsystem--><g id="cluster_CRM Collaborator Subsystem"><rect fill="none" height="929" rx="2.5" ry="2.5" style="stroke:#000000;stroke-width:1.5;" width="1681" x="7" y="47.0679"/><text fill="#000000" font-family="sans-serif" font-size="14" font-weight="bold" lengthAdjust="spacing" textLength="202.4112" x="746.2944" y="64.0339">CRM Collaborator Subsystem</text></g><!--class Customer--><g id="elem_Customer"><rect codeLine="13" fill="#F1F1F1" height="102.2717" id="Customer" rx="2.5" ry="2.5" style="stroke:#181818;stroke-width:0.5;" width="312.0749" x="779" y="85.0679"/><text fill="#000000" font-family="sans-serif" font-size="14" lengthAdjust="spacing" textLength="64.4978" x="902.7886" y="105.0339">Customer</text><line style="stroke:#181818;stroke-width:0.5;" x1="780" x2="1090.0749" y1="114.1358" y2="114.1358"/><ellipse cx="790" cy="129.1698" fill="#000000" rx="3" ry="3" style="stroke:#000000;stroke-width:1.0;"/><text fill="#000000" font-family="sans-serif" font-size="14" lengthAdjust="spacing" textLength="148.7914" x="799" y="133.1018">id : String &#171;generated&#187;</text><line style="stroke:#181818;stroke-width:1.0;" x1="780" x2="1090.0749" y1="141.2038" y2="141.2038"/><ellipse cx="790" cy="156.2377" fill="#000000" rx="3" ry="3" style="stroke:#000000;stroke-width:1.0;"/><text fill="#000000" font-family="sans-serif" font-size="14" lengthAdjust="spacing" textLength="87.9197" x="799" y="160.1697">name : String</text><ellipse cx="790" cy="175.3056" fill="#000000" rx="3" ry="3" style="stroke:#000000;stroke-width:1.0;"/><text fill="#000000" font-family="sans-serif" font-size="14" lengthAdjust="spacing" textLength="286.0749" x="799" y="179.2376">status : String &#171;enum&#187; {active, VIP, inactive}</text></g><!--class ShowRequest--><g id="elem_ShowRequest"><rect codeLine="20" fill="#F1F1F1" height="140.4075" id="ShowRequest" rx="2.5" ry="2.5" style="stroke:#181818;stroke-width:0.5;" width="201.8253" x="834" y="266.0679"/><text fill="#000000" font-family="sans-serif" font-size="14" lengthAdjust="spacing" textLength="89.3336" x="890.2458" y="286.0339">ShowRequest</text><line style="stroke:#181818;stroke-width:0.5;" x1="835" x2="1034.8253" y1="295.1358" y2="295.1358"/><ellipse cx="845" cy="310.1698" fill="#000000" rx="3" ry="3" style="stroke:#000000;stroke-width:1.0;"/><text fill="#000000" font-family="sans-serif" font-size="14" lengthAdjust="spacing" textLength="148.7914" x="854" y="314.1018">id : String &#171;generated&#187;</text><line style="stroke:#181818;stroke-width:1.0;" x1="835" x2="1034.8253" y1="322.2038" y2="322.2038"/><ellipse cx="845" cy="337.2377" fill="#000000" rx="3" ry="3" style="stroke:#000000;stroke-width:1.0;"/><text fill="#000000" font-family="sans-serif" font-size="14" lengthAdjust="spacing" textLength="175.8253" x="854" y="341.1697">numberOfDrones : Integer</text><ellipse cx="845" cy="356.3056" fill="#000000" rx="3" ry="3" style="stroke:#000000;stroke-width:1.0;"/><text fill="#000000" font-family="sans-serif" font-size="14" lengthAdjust="spacing" textLength="116.3536" x="854" y="360.2376">duration : Integer</text><ellipse cx="845" cy="375.3735" fill="#000000" rx="3" ry="3" style="stroke:#000000;stroke-width:1.0;"/><text fill="#000000" font-family="sans-serif" font-size="14" lengthAdjust="spacing" textLength="159.5014" x="854" y="379.3055">creationDate : DateTime</text><ellipse cx="845" cy="394.4415" fill="#000000" rx="3" ry="3" style="stroke:#000000;stroke-width:1.0;"/><text fill="#000000" font-family="sans-serif" font-size="14" lengthAdjust="spacing" textLength="90.4537" x="854" y="398.3734">status : String</text></g><!--class ShowProposal--><g id="elem_ShowProposal"><rect codeLine="29" fill="#F1F1F1" height="140.4075" id="ShowProposal" rx="2.5" ry="2.5" style="stroke:#181818;stroke-width:0.5;" width="392.5326" x="475.5" y="485.0679"/><text fill="#000000" font-family="sans-serif" font-size="14" lengthAdjust="spacing" textLength="93.7857" x="624.8735" y="505.0339">ShowProposal</text><line style="stroke:#181818;stroke-width:0.5;" x1="476.5" x2="867.0326" y1="514.1358" y2="514.1358"/><ellipse cx="486.5" cy="529.1698" fill="#000000" rx="3" ry="3" style="stroke:#000000;stroke-width:1.0;"/><text fill="#000000" font-family="sans-serif" font-size="14" lengthAdjust="spacing" textLength="148.7914" x="495.5" y="533.1018">id : String &#171;generated&#187;</text><line style="stroke:#181818;stroke-width:1.0;" x1="476.5" x2="867.0326" y1="541.2038" y2="541.2038"/><ellipse cx="486.5" cy="556.2377" fill="#000000" rx="3" ry="3" style="stroke:#000000;stroke-width:1.0;"/><text fill="#000000" font-family="sans-serif" font-size="14" lengthAdjust="spacing" textLength="163.5754" x="495.5" y="560.1697">proposalDate : DateTime</text><ellipse cx="486.5" cy="575.3056" fill="#000000" rx="3" ry="3" style="stroke:#000000;stroke-width:1.0;"/><text fill="#000000" font-family="sans-serif" font-size="14" lengthAdjust="spacing" textLength="366.5326" x="495.5" y="579.2376">status : String &#171;enum&#187; {Draft, Sent, Approved, Rejected}</text><ellipse cx="486.5" cy="594.3735" fill="#000000" rx="3" ry="3" style="stroke:#000000;stroke-width:1.0;"/><text fill="#000000" font-family="sans-serif" font-size="14" lengthAdjust="spacing" textLength="148.0354" x="495.5" y="598.3055">costEstimate : Decimal</text><ellipse cx="486.5" cy="613.4415" fill="#000000" rx="3" ry="3" style="stroke:#000000;stroke-width:1.0;"/><text fill="#000000" font-family="sans-serif" font-size="14" lengthAdjust="spacing" textLength="151.7174" x="495.5" y="617.3734">feasibilityNotes : String</text></g><!--class ShowDescription--><g id="elem_ShowDescription"><rect codeLine="38" fill="#F1F1F1" height="113.3396" id="ShowDescription" rx="2.5" ry="2.5" style="stroke:#181818;stroke-width:0.5;" width="147.6595" x="1124" y="498.5679"/><text fill="#000000" font-family="sans-serif" font-size="14" lengthAdjust="spacing" textLength="111.1456" x="1142.257" y="518.5339">ShowDescription</text><line style="stroke:#181818;stroke-width:0.5;" x1="1125" x2="1270.6595" y1="527.6358" y2="527.6358"/><ellipse cx="1135" cy="542.6698" fill="#000000" rx="3" ry="3" style="stroke:#000000;stroke-width:1.0;"/><text fill="#000000" font-family="sans-serif" font-size="14" lengthAdjust="spacing" textLength="85.1197" x="1144" y="546.6018">place : String</text><ellipse cx="1135" cy="561.7377" fill="#000000" rx="3" ry="3" style="stroke:#000000;stroke-width:1.0;"/><text fill="#000000" font-family="sans-serif" font-size="14" lengthAdjust="spacing" textLength="108.8356" x="1144" y="565.6697">latitude : Double</text><ellipse cx="1135" cy="580.8056" fill="#000000" rx="3" ry="3" style="stroke:#000000;stroke-width:1.0;"/><text fill="#000000" font-family="sans-serif" font-size="14" lengthAdjust="spacing" textLength="121.6595" x="1144" y="584.7376">longitude : Double</text><ellipse cx="1135" cy="599.8735" fill="#000000" rx="3" ry="3" style="stroke:#000000;stroke-width:1.0;"/><text fill="#000000" font-family="sans-serif" font-size="14" lengthAdjust="spacing" textLength="104.0896" x="1144" y="603.8055">time : DateTime</text></g><!--class FigureExecution--><g id="elem_FigureExecution"><rect codeLine="45" fill="#F1F1F1" height="56.1358" id="FigureExecution" rx="2.5" ry="2.5" style="stroke:#181818;stroke-width:0.5;" width="122.2076" x="1137" y="704.0679"/><text fill="#000000" font-family="sans-serif" font-size="14" lengthAdjust="spacing" textLength="106.0636" x="1145.072" y="724.0339">FigureExecution</text><line style="stroke:#181818;stroke-width:0.5;" x1="1138" x2="1258.2076" y1="733.1358" y2="733.1358"/><ellipse cx="1148" cy="748.1698" fill="#000000" rx="3" ry="3" style="stroke:#000000;stroke-width:1.0;"/><text fill="#000000" font-family="sans-serif" font-size="14" lengthAdjust="spacing" textLength="96.2076" x="1157" y="752.1018">order : Integer</text></g><!--class Figure--><g id="elem_Figure"><rect codeLine="49" fill="#F1F1F1" height="121.3396" id="Figure" rx="2.5" ry="2.5" style="stroke:#181818;stroke-width:0.5;" width="174.7914" x="1110.5" y="839.0679"/><text fill="#000000" font-family="sans-serif" font-size="14" lengthAdjust="spacing" textLength="41.8178" x="1176.9868" y="859.0339">Figure</text><line style="stroke:#181818;stroke-width:0.5;" x1="1111.5" x2="1284.2914" y1="868.1358" y2="868.1358"/><ellipse cx="1121.5" cy="883.1698" fill="#000000" rx="3" ry="3" style="stroke:#000000;stroke-width:1.0;"/><text fill="#000000" font-family="sans-serif" font-size="14" lengthAdjust="spacing" textLength="148.7914" x="1130.5" y="887.1018">id : String &#171;generated&#187;</text><line style="stroke:#181818;stroke-width:1.0;" x1="1111.5" x2="1284.2914" y1="895.2038" y2="895.2038"/><ellipse cx="1121.5" cy="910.2377" fill="#000000" rx="3" ry="3" style="stroke:#000000;stroke-width:1.0;"/><text fill="#000000" font-family="sans-serif" font-size="14" lengthAdjust="spacing" textLength="87.9197" x="1130.5" y="914.1697">name : String</text><ellipse cx="1121.5" cy="929.3056" fill="#000000" rx="3" ry="3" style="stroke:#000000;stroke-width:1.0;"/><text fill="#000000" font-family="sans-serif" font-size="14" lengthAdjust="spacing" textLength="115.0795" x="1130.5" y="933.2376">isPublic : Boolean</text><ellipse cx="1121.5" cy="948.3735" fill="#000000" rx="3" ry="3" style="stroke:#000000;stroke-width:1.0;"/><text fill="#000000" font-family="sans-serif" font-size="14" lengthAdjust="spacing" textLength="117.9495" x="1130.5" y="952.3055">exclusivity : String</text></g><!--class ShowRequestAuthor--><g id="elem_ShowRequestAuthor"><rect codeLine="57" fill="#F1F1F1" height="75.2038" id="ShowRequestAuthor" rx="2.5" ry="2.5" style="stroke:#181818;stroke-width:0.5;" width="142.9556" x="1528.5" y="517.5679"/><text fill="#000000" font-family="sans-serif" font-size="14" lengthAdjust="spacing" textLength="134.8895" x="1532.533" y="537.5339">ShowRequestAuthor</text><line style="stroke:#181818;stroke-width:0.5;" x1="1529.5" x2="1670.4556" y1="546.6358" y2="546.6358"/><ellipse cx="1539.5" cy="561.6698" fill="#000000" rx="3" ry="3" style="stroke:#000000;stroke-width:1.0;"/><text fill="#000000" font-family="sans-serif" font-size="14" lengthAdjust="spacing" textLength="92.8197" x="1548.5" y="565.6018">userId : String</text><ellipse cx="1539.5" cy="580.7377" fill="#000000" rx="3" ry="3" style="stroke:#000000;stroke-width:1.0;"/><text fill="#000000" font-family="sans-serif" font-size="14" lengthAdjust="spacing" textLength="116.9556" x="1548.5" y="584.6697">username : String</text></g><!--class ShowRequestStatus--><g id="elem_ShowRequestStatus"><rect codeLine="62" fill="#F1F1F1" height="94.2717" id="ShowRequestStatus" rx="2.5" ry="2.5" style="stroke:#181818;stroke-width:0.5;" width="171.4034" x="23.5" y="508.0679"/><text fill="#000000" font-family="sans-serif" font-size="14" lengthAdjust="spacing" textLength="130.3395" x="44.032" y="528.0339">ShowRequestStatus</text><line style="stroke:#181818;stroke-width:0.5;" x1="24.5" x2="193.9034" y1="537.1358" y2="537.1358"/><ellipse cx="34.5" cy="552.1698" fill="#000000" rx="3" ry="3" style="stroke:#000000;stroke-width:1.0;"/><text fill="#000000" font-family="sans-serif" font-size="14" lengthAdjust="spacing" textLength="90.4537" x="43.5" y="556.1018">status : String</text><ellipse cx="34.5" cy="571.2377" fill="#000000" rx="3" ry="3" style="stroke:#000000;stroke-width:1.0;"/><text fill="#000000" font-family="sans-serif" font-size="14" lengthAdjust="spacing" textLength="145.4034" x="43.5" y="575.1697">timestamp : DateTime</text><ellipse cx="34.5" cy="590.3056" fill="#000000" rx="3" ry="3" style="stroke:#000000;stroke-width:1.0;"/><text fill="#000000" font-family="sans-serif" font-size="14" lengthAdjust="spacing" textLength="123.6615" x="43.5" y="594.2376">changedBy : String</text></g><g id="elem_GMN18"><path d="M1126,122.0679 L1126,132.0679 L1091.07,136.0679 L1126,140.0679 L1126,149.7739 A0,0 0 0 0 1126,149.7739 L1382.0532,149.7739 A0,0 0 0 0 1382.0532,149.7739 L1382.0532,132.0679 L1372.0532,122.0679 L1126,122.0679 A0,0 0 0 0 1126,122.0679 " fill="#FAFAFA" style="stroke:#181818;stroke-width:0.5;"/><path d="M1372.0532,122.0679 L1372.0532,132.0679 L1382.0532,132.0679 L1372.0532,122.0679 " fill="#FAFAFA" style="stroke:#181818;stroke-width:0.5;"/><text fill="#000000" font-family="sans-serif" font-size="13" lengthAdjust="spacing" textLength="235.0532" x="1132" y="140.9649">Must be active or VIP for new requests</text></g><g id="elem_GMN21"><path d="M1320.5,885.5679 L1320.5,895.5679 L1285.81,899.5679 L1320.5,903.5679 L1320.5,913.2739 A0,0 0 0 0 1320.5,913.2739 L1583.8852,913.2739 A0,0 0 0 0 1583.8852,913.2739 L1583.8852,895.5679 L1573.8852,885.5679 L1320.5,885.5679 A0,0 0 0 0 1320.5,885.5679 " fill="#FAFAFA" style="stroke:#181818;stroke-width:0.5;"/><path d="M1573.8852,885.5679 L1573.8852,895.5679 L1583.8852,895.5679 L1573.8852,885.5679 " fill="#FAFAFA" style="stroke:#181818;stroke-width:0.5;"/><text fill="#000000" font-family="sans-serif" font-size="13" lengthAdjust="spacing" textLength="242.3852" x="1326.5" y="904.4649">Must be public or exclusive to customer</text></g><g id="elem_GMN24"><path d="M229.5,541.0679 L229.5,551.0679 L194.63,555.0679 L229.5,559.0679 L229.5,568.7739 A0,0 0 0 0 229.5,568.7739 L440.1572,568.7739 A0,0 0 0 0 440.1572,568.7739 L440.1572,551.0679 L430.1572,541.0679 L229.5,541.0679 A0,0 0 0 0 229.5,541.0679 " fill="#FAFAFA" style="stroke:#181818;stroke-width:0.5;"/><path d="M430.1572,541.0679 L430.1572,551.0679 L440.1572,551.0679 L430.1572,541.0679 " fill="#FAFAFA" style="stroke:#181818;stroke-width:0.5;"/><text fill="#000000" font-family="sans-serif" font-size="13" lengthAdjust="spacing" textLength="189.6572" x="235.5" y="559.9649">Adds "Edited" status on update</text></g><g id="elem_GMN27"><path d="M903.5,541.0679 L903.5,551.0679 L868.8,555.0679 L903.5,559.0679 L903.5,568.7739 A0,0 0 0 0 903.5,568.7739 L1088.2611,568.7739 A0,0 0 0 0 1088.2611,568.7739 L1088.2611,551.0679 L1078.2611,541.0679 L903.5,541.0679 A0,0 0 0 0 903.5,541.0679 " fill="#FAFAFA" style="stroke:#181818;stroke-width:0.5;"/><path d="M1078.2611,541.0679 L1078.2611,551.0679 L1088.2611,551.0679 L1078.2611,541.0679 " fill="#FAFAFA" style="stroke:#181818;stroke-width:0.5;"/><text fill="#000000" font-family="sans-serif" font-size="13" lengthAdjust="spacing" textLength="163.7611" x="909.5" y="559.9649">Created with "Draft" status</text></g><g id="elem_GMN30"><path d="M1071,313.5679 L1071,332.0679 L1036.14,336.0679 L1071,340.0679 L1071,358.9799 A0,0 0 0 0 1071,358.9799 L1336.6862,358.9799 A0,0 0 0 0 1336.6862,358.9799 L1336.6862,323.5679 L1326.6862,313.5679 L1071,313.5679 A0,0 0 0 0 1071,313.5679 " fill="#FAFAFA" style="stroke:#181818;stroke-width:0.5;"/><path d="M1326.6862,313.5679 L1326.6862,323.5679 L1336.6862,323.5679 L1326.6862,313.5679 " fill="#FAFAFA" style="stroke:#181818;stroke-width:0.5;"/><text fill="#000000" font-family="sans-serif" font-size="13" lengthAdjust="spacing" textLength="244.6862" x="1077" y="332.4649">Cannot be edited if ShowProposal exists</text><text fill="#000000" font-family="sans-serif" font-size="13" lengthAdjust="spacing" textLength="203.3982" x="1077" y="350.1709">Creation date cannot be changed</text></g><g id="elem_GMN33"><path d="M1307,523.5679 L1307,551.0679 L1272.17,555.0679 L1307,559.0679 L1307,586.686 A0,0 0 0 0 1307,586.686 L1492.5802,586.686 A0,0 0 0 0 1492.5802,586.686 L1492.5802,533.5679 L1482.5802,523.5679 L1307,523.5679 A0,0 0 0 0 1307,523.5679 " fill="#FAFAFA" style="stroke:#181818;stroke-width:0.5;"/><path d="M1482.5802,523.5679 L1482.5802,533.5679 L1492.5802,533.5679 L1482.5802,523.5679 " fill="#FAFAFA" style="stroke:#181818;stroke-width:0.5;"/><text fill="#000000" font-family="sans-serif" font-size="13" lengthAdjust="spacing" textLength="128.2581" x="1313" y="542.4649">Latitude: [-90.0, 90.0]</text><text fill="#000000" font-family="sans-serif" font-size="13" lengthAdjust="spacing" textLength="155.0382" x="1313" y="560.1709">Longitude: [-180.0, 180.0]</text><text fill="#000000" font-family="sans-serif" font-size="13" lengthAdjust="spacing" textLength="164.5802" x="1313" y="577.877">Time: At least 72h in future</text></g><!--link Customer to ShowRequest--><g id="link_Customer_ShowRequest"><path codeLine="69" d="M935,195.2879 C935,219.1179 935,221.9779 935,247.8479 " fill="none" id="Customer-ShowRequest" style="stroke:#181818;stroke-width:1.0;"/><line style="stroke:#181818;stroke-width:1.0;" x1="931" x2="939" y1="191.2879" y2="191.2879"/><line style="stroke:#181818;stroke-width:1.0;" x1="931" x2="939" y1="194.2879" y2="194.2879"/><line style="stroke:#181818;stroke-width:1.0;" x1="935" x2="935" y1="195.2879" y2="187.2879"/><line style="stroke:#181818;stroke-width:1.0;" x1="935" x2="941" y1="257.8479" y2="265.8479"/><line style="stroke:#181818;stroke-width:1.0;" x1="935" x2="929" y1="257.8479" y2="265.8479"/><line style="stroke:#181818;stroke-width:1.0;" x1="935" x2="935" y1="257.8479" y2="265.8479"/><ellipse cx="935" cy="251.8479" fill="none" rx="4" ry="4" style="stroke:#181818;stroke-width:1.0;"/><text fill="#000000" font-family="sans-serif" font-size="13" lengthAdjust="spacing" textLength="53.209" x="936" y="231.9649">requests</text></g><!--link ShowRequest to ShowDescription--><g id="link_ShowRequest_ShowDescription"><path codeLine="70" d="M1025.1107,411.4194 C1061.1907,441.1894 1085.0514,460.8698 1119.0614,488.9398 " fill="none" id="ShowRequest-ShowDescription" style="stroke:#181818;stroke-width:1.0;"/><line style="stroke:#181818;stroke-width:1.0;" x1="1019.4796" x2="1024.5711" y1="411.959" y2="405.7883"/><line style="stroke:#181818;stroke-width:1.0;" x1="1021.7936" x2="1026.8851" y1="413.8683" y2="407.6976"/><line style="stroke:#181818;stroke-width:1.0;" x1="1025.1107" x2="1018.94" y1="411.4194" y2="406.3279"/><line style="stroke:#181818;stroke-width:1.0;" x1="1122.1463" x2="1130.63" y1="491.486" y2="498.4879"/><ellipse cx="1122.1463" cy="491.486" fill="none" rx="4" ry="4" style="stroke:#181818;stroke-width:1.0;"/><line style="stroke:#181818;stroke-width:1.0;" x1="1130.0912" x2="1124.9989" y1="492.8568" y2="499.0267"/><text fill="#000000" font-family="sans-serif" font-size="13" lengthAdjust="spacing" textLength="58.071" x="1075" y="450.9649">describes</text></g><!--link ShowDescription to FigureExecution--><g id="link_ShowDescription_FigureExecution"><path codeLine="71" d="M1198,619.9179 C1198,650.5279 1198,661.1079 1198,685.5879 " fill="none" id="ShowDescription-FigureExecution" style="stroke:#181818;stroke-width:1.0;"/><line style="stroke:#181818;stroke-width:1.0;" x1="1194" x2="1202" y1="615.9179" y2="615.9179"/><line style="stroke:#181818;stroke-width:1.0;" x1="1194" x2="1202" y1="618.9179" y2="618.9179"/><line style="stroke:#181818;stroke-width:1.0;" x1="1198" x2="1198" y1="619.9179" y2="611.9179"/><line style="stroke:#181818;stroke-width:1.0;" x1="1198" x2="1204" y1="695.5879" y2="703.5879"/><line style="stroke:#181818;stroke-width:1.0;" x1="1198" x2="1192" y1="695.5879" y2="703.5879"/><line style="stroke:#181818;stroke-width:1.0;" x1="1198" x2="1198" y1="695.5879" y2="703.5879"/><ellipse cx="1198" cy="689.5879" fill="none" rx="4" ry="4" style="stroke:#181818;stroke-width:1.0;"/><text fill="#000000" font-family="sans-serif" font-size="13" lengthAdjust="spacing" textLength="50.5701" x="1199" y="669.9649">includes</text></g><!--link FigureExecution to Figure--><g id="link_FigureExecution_Figure"><path codeLine="72" d="M1198,768.3979 C1198,789.6979 1198,794.0679 1198,820.9079 " fill="none" id="FigureExecution-Figure" style="stroke:#181818;stroke-width:1.0;"/><line style="stroke:#181818;stroke-width:1.0;" x1="1194" x2="1202" y1="764.3979" y2="764.3979"/><line style="stroke:#181818;stroke-width:1.0;" x1="1194" x2="1202" y1="767.3979" y2="767.3979"/><line style="stroke:#181818;stroke-width:1.0;" x1="1198" x2="1198" y1="768.3979" y2="760.3979"/><line style="stroke:#181818;stroke-width:1.0;" x1="1198" x2="1204" y1="830.9079" y2="838.9079"/><line style="stroke:#181818;stroke-width:1.0;" x1="1198" x2="1192" y1="830.9079" y2="838.9079"/><line style="stroke:#181818;stroke-width:1.0;" x1="1198" x2="1198" y1="830.9079" y2="838.9079"/><ellipse cx="1198" cy="824.9079" fill="none" rx="4" ry="4" style="stroke:#181818;stroke-width:1.0;"/><text fill="#000000" font-family="sans-serif" font-size="13" lengthAdjust="spacing" textLength="56.784" x="1199" y="804.9649">performs</text></g><!--link ShowRequest to ShowRequestAuthor--><g id="link_ShowRequest_ShowRequestAuthor"><path codeLine="73" d="M1043.4054,402.0584 C1049.3654,404.7184 1048.05,403.9079 1054,406.0679 C1247.75,476.4179 1322.4,401.8979 1511,485.0679 C1528.89,492.9579 1534.7703,495.7098 1549.4503,507.7198 " fill="none" id="ShowRequest-ShowRequestAuthor" style="stroke:#181818;stroke-width:1.0;"/><line style="stroke:#181818;stroke-width:1.0;" x1="1038.1225" x2="1041.383" y1="404.0809" y2="396.7754"/><line style="stroke:#181818;stroke-width:1.0;" x1="1040.862" x2="1044.1225" y1="405.3035" y2="397.9981"/><line style="stroke:#181818;stroke-width:1.0;" x1="1043.4054" x2="1036.1" y1="402.0584" y2="398.7979"/><line style="stroke:#181818;stroke-width:1.0;" x1="1552.5462" x2="1561.06" y1="510.2526" y2="517.2179"/><ellipse cx="1552.5462" cy="510.2526" fill="none" rx="4" ry="4" style="stroke:#181818;stroke-width:1.0;"/><line style="stroke:#181818;stroke-width:1.0;" x1="1560.4969" x2="1555.4312" y1="511.5892" y2="517.781"/><text fill="#000000" font-family="sans-serif" font-size="13" lengthAdjust="spacing" textLength="61.334" x="1419" y="450.9649">createdBy</text></g><!--link ShowRequest to ShowRequestStatus--><g id="link_ShowRequest_ShowRequestStatus"><path codeLine="74" d="M825.7804,346.1509 C682.5504,360.6009 422.7,396.9579 212,485.0679 C197.5,491.1279 198.0511,489.6296 184.5811,498.2696 " fill="none" id="ShowRequest-ShowRequestStatus" style="stroke:#181818;stroke-width:1.0;"/><line style="stroke:#181818;stroke-width:1.0;" x1="829.3587" x2="830.1617" y1="341.7696" y2="349.7292"/><line style="stroke:#181818;stroke-width:1.0;" x1="826.3738" x2="827.1769" y1="342.0708" y2="350.0304"/><line style="stroke:#181818;stroke-width:1.0;" x1="825.7804" x2="833.74" y1="346.1509" y2="345.3479"/><line style="stroke:#181818;stroke-width:1.0;" x1="176.1638" x2="172.6694" y1="503.6687" y2="513.0383"/><line style="stroke:#181818;stroke-width:1.0;" x1="176.1638" x2="166.1906" y1="503.6687" y2="502.9376"/><line style="stroke:#181818;stroke-width:1.0;" x1="176.1638" x2="169.43" y1="503.6687" y2="507.9879"/><ellipse cx="181.2142" cy="500.4293" fill="none" rx="4" ry="4" style="stroke:#181818;stroke-width:1.0;"/><text fill="#000000" font-family="sans-serif" font-size="13" lengthAdjust="spacing" textLength="59.6311" x="345" y="450.9649">hasStatus</text></g><!--link ShowRequest to ShowProposal--><g id="link_ShowRequest_ShowProposal"><path codeLine="75" d="M844.8893,411.4193 C814.5293,436.4693 797.9894,450.1107 767.6094,475.1807 " fill="none" id="ShowRequest-ShowProposal" style="stroke:#181818;stroke-width:1.0;"/><line style="stroke:#181818;stroke-width:1.0;" x1="845.4289" x2="850.5204" y1="405.7883" y2="411.959"/><line style="stroke:#181818;stroke-width:1.0;" x1="843.1149" x2="848.2064" y1="407.6976" y2="413.8683"/><line style="stroke:#181818;stroke-width:1.0;" x1="844.8893" x2="851.06" y1="411.4193" y2="406.3279"/><line style="stroke:#181818;stroke-width:1.0;" x1="764.5242" x2="756.04" y1="477.7266" y2="484.7279"/><ellipse cx="764.5242" cy="477.7266" fill="none" rx="4" ry="4" style="stroke:#181818;stroke-width:1.0;"/><line style="stroke:#181818;stroke-width:1.0;" x1="761.6711" x2="756.5792" y1="485.2672" y2="479.0968"/><text fill="#000000" font-family="sans-serif" font-size="13" lengthAdjust="spacing" textLength="73.1771" x="812" y="450.9649">proposedAs</text></g><!--SRC=[hLLPRzf047xthnZnKgc2Aasb7bQ4H22L8YLj5Dg-D7rOTWUypNhNtICa8lptZayCcAIAwWUmTwvllZdMtKgTCSjII8qsFB4cHV0sOEGQISRuBLlWr3ye18lSCxrGRGMNC66MKYzWpfJ3AFBIa-gPa1wcYLd2DVu9w3nCJCgaXaiZKC40la-FtxsFeaGA12ujL-ZAZnHzOeIBeYeqzCRNbp0sIh6PiSmR2zCmSm_EOzg3LHG1FQWfx0Ef1kSf2zi3vg3-82KedjSW1SGmzJR7UtAoG8ta4SLmM6aC1esgPiH6hToSEizyS6qdg4Cw7CAASI_li0y_pg_w87NvkIuCrziWSregLWgShUyNGWtf3EtN-SGQZJcuS-rnWRPH485ifT4T8cwn44t8EOdplsyonKC97yhdofhCEAQQXEg3bsMKLTR_YAfLXebbSz-7AO7hmoWZHtSe-jI5lwbvKQmtYHldpvoNQHK2ERsgHZn7vkHCAihmY_7uF0CJTDpABEUo8Q5rrk8XKuntj9QYElWW2Z0cpDGcMsNque28yEyHj0Fkirm4YsVto4C3RkUi1SvOGHEptIUT3bj-_kU0INT52KfEabDZ53BTYF2Ug-3aNGxYkMfKypGAj4pixfILfotKmQ4z5_jWylDzc8V3JOkst0rNdhR2TSrKNKoIfLbNo_E4LY-Aq-xSNr67gsAGNI8pLvmr- -_nSJ0mgwqz4zCoBzvArRQeq7xSwzyOHF4rmur9Mru5sUsic7OXbKrKLhlYBIjIpj3EZKsVHBLTnRXSOJaptKQhZbh4a31NlZyLgLbYSRMHK8nSJNYv5YW7JgHxIvTRHQOc0LYvI3oOULE562xf3MO8vTL0avRV5K3fWiRbTZssNPJiR1navOIGOJqIT6yRu5Ma3Wzx3CGm4i91Bx-dKVJgbgHiGYQ8pGC-Qa9Y69UamrBw17h5rgszF1sVJ9acQPu85j51RZkdh2GHSQF7rTq4EIBWZLar2WVYj9eoXejggSRmS_3fwCrH7_BVNpVwejwfkUJjnq9K_94idpiYo0Ej7sBymt52JGppuAaAKRIE_W80]--></g></svg>