<svg xmlns="http://www.w3.org/2000/svg" xmlns:xlink="http://www.w3.org/1999/xlink" contentStyleType="text/css" height="734px" preserveAspectRatio="none" style="width:1041px;height:734px;background:#FFFFFF;" version="1.1" viewBox="0 0 1041 734" width="1041px" zoomAndPan="magnify"><title>UI Sequence Diagram (SSD) - List public figures in Figure Catalogue</title><defs/><g><text fill="#000000" font-family="sans-serif" font-size="14" font-weight="bold" lengthAdjust="spacing" textLength="453.5098" x="293.0547" y="30.1074">UI Sequence Diagram (SSD) - List public figures in Figure Catalogue</text><rect fill="#FFFFFF" height="499.6953" style="stroke:#181818;stroke-width:1.0;" width="10" x="50.4688" y="133.2422"/><rect fill="#FFFFFF" height="476.4043" style="stroke:#181818;stroke-width:1.0;" width="10" x="303.1084" y="156.5332"/><rect fill="#FFFFFF" height="341.2402" style="stroke:#181818;stroke-width:1.0;" width="10" x="571.6299" y="260.4063"/><rect fill="#FFFFFF" height="167.4551" style="stroke:#181818;stroke-width:1.0;" width="10" x="576.6299" y="302.0273"/><rect fill="#FFFFFF" height="31.291" style="stroke:#181818;stroke-width:1.0;" width="10" x="742.5752" y="338.3184"/><rect fill="#FFFFFF" height="31.291" style="stroke:#181818;stroke-width:1.0;" width="10" x="848.2783" y="400.9004"/><rect fill="#FFFFFF" height="31.291" style="stroke:#181818;stroke-width:1.0;" width="10" x="968.3745" y="539.0645"/><line style="stroke:#181818;stroke-width:0.5;stroke-dasharray:5.0,5.0;" x1="55" x2="55" y1="123.2422" y2="650.9375"/><line style="stroke:#181818;stroke-width:0.5;stroke-dasharray:5.0,5.0;" x1="307.4292" x2="307.4292" y1="123.2422" y2="650.9375"/><line style="stroke:#181818;stroke-width:0.5;stroke-dasharray:5.0,5.0;" x1="576.606" x2="576.606" y1="258.9258" y2="650.9375"/><line style="stroke:#181818;stroke-width:0.5;stroke-dasharray:5.0,5.0;" x1="746.7236" x2="746.7236" y1="123.2422" y2="650.9375"/><line style="stroke:#181818;stroke-width:0.5;stroke-dasharray:5.0,5.0;" x1="852.4268" x2="852.4268" y1="123.2422" y2="650.9375"/><line style="stroke:#181818;stroke-width:0.5;stroke-dasharray:5.0,5.0;" x1="973.1299" x2="973.1299" y1="123.2422" y2="650.9375"/><text fill="#000000" font-family="sans-serif" font-size="14" lengthAdjust="spacing" textLength="94.9375" x="5" y="119.7285">Show Designer</text><ellipse cx="55.4688" cy="53.1211" fill="#E3E3E3" rx="8" ry="8" style="stroke:#181818;stroke-width:0.5;"/><path d="M55.4688,61.1211 L55.4688,88.1211 M42.4688,69.1211 L68.4688,69.1211 M55.4688,88.1211 L42.4688,103.1211 M55.4688,88.1211 L68.4688,103.1211 " fill="none" style="stroke:#181818;stroke-width:0.5;"/><text fill="#000000" font-family="sans-serif" font-size="14" lengthAdjust="spacing" textLength="94.9375" x="5" y="665.0449">Show Designer</text><ellipse cx="55.4688" cy="677.0586" fill="#E3E3E3" rx="8" ry="8" style="stroke:#181818;stroke-width:0.5;"/><path d="M55.4688,685.0586 L55.4688,712.0586 M42.4688,693.0586 L68.4688,693.0586 M55.4688,712.0586 L42.4688,727.0586 M55.4688,712.0586 L68.4688,727.0586 " fill="none" style="stroke:#181818;stroke-width:0.5;"/><rect fill="#E3E3E3" height="32.6211" rx="2.5" ry="2.5" style="stroke:#181818;stroke-width:0.5;" width="93.3584" x="261.4292" y="89.6211"/><text fill="#000000" font-family="sans-serif" font-size="14" lengthAdjust="spacing" textLength="79.3584" x="268.4292" y="111.7285">:ListFigureUI</text><rect fill="#E3E3E3" height="32.6211" rx="2.5" ry="2.5" style="stroke:#181818;stroke-width:0.5;" width="93.3584" x="261.4292" y="649.9375"/><text fill="#000000" font-family="sans-serif" font-size="14" lengthAdjust="spacing" textLength="79.3584" x="268.4292" y="672.0449">:ListFigureUI</text><rect fill="#E3E3E3" height="32.6211" rx="2.5" ry="2.5" style="stroke:#181818;stroke-width:0.5;" width="140.0479" x="506.606" y="649.9375"/><text fill="#000000" font-family="sans-serif" font-size="14" lengthAdjust="spacing" textLength="126.0479" x="513.606" y="672.0449">:ListFigureController</text><rect fill="#E3E3E3" height="32.6211" rx="2.5" ry="2.5" style="stroke:#181818;stroke-width:0.5;" width="95.7031" x="699.7236" y="89.6211"/><text fill="#000000" font-family="sans-serif" font-size="14" lengthAdjust="spacing" textLength="81.7031" x="706.7236" y="111.7285">:Repositories</text><rect fill="#E3E3E3" height="32.6211" rx="2.5" ry="2.5" style="stroke:#181818;stroke-width:0.5;" width="95.7031" x="699.7236" y="649.9375"/><text fill="#000000" font-family="sans-serif" font-size="14" lengthAdjust="spacing" textLength="81.7031" x="706.7236" y="672.0449">:Repositories</text><rect fill="#E3E3E3" height="51.2422" rx="2.5" ry="2.5" style="stroke:#181818;stroke-width:0.5;" width="95.7031" x="805.4268" y="71"/><text fill="#000000" font-family="sans-serif" font-size="14" lengthAdjust="spacing" textLength="72.3652" x="817.0957" y="93.1074">repositories</text><text fill="#000000" font-family="sans-serif" font-size="14" lengthAdjust="spacing" textLength="81.7031" x="812.4268" y="111.7285">:Repositories</text><rect fill="#E3E3E3" height="51.2422" rx="2.5" ry="2.5" style="stroke:#181818;stroke-width:0.5;" width="95.7031" x="805.4268" y="649.9375"/><text fill="#000000" font-family="sans-serif" font-size="14" lengthAdjust="spacing" textLength="72.3652" x="817.0957" y="672.0449">repositories</text><text fill="#000000" font-family="sans-serif" font-size="14" lengthAdjust="spacing" textLength="81.7031" x="812.4268" y="690.666">:Repositories</text><rect fill="#E3E3E3" height="51.2422" rx="2.5" ry="2.5" style="stroke:#181818;stroke-width:0.5;" width="124.4893" x="911.1299" y="71"/><text fill="#000000" font-family="sans-serif" font-size="14" lengthAdjust="spacing" textLength="101.9375" x="922.4058" y="93.1074">figureRepository</text><text fill="#000000" font-family="sans-serif" font-size="14" lengthAdjust="spacing" textLength="110.4893" x="918.1299" y="111.7285">:FigureRepository</text><rect fill="#E3E3E3" height="51.2422" rx="2.5" ry="2.5" style="stroke:#181818;stroke-width:0.5;" width="124.4893" x="911.1299" y="649.9375"/><text fill="#000000" font-family="sans-serif" font-size="14" lengthAdjust="spacing" textLength="101.9375" x="922.4058" y="672.0449">figureRepository</text><text fill="#000000" font-family="sans-serif" font-size="14" lengthAdjust="spacing" textLength="110.4893" x="918.1299" y="690.666">:FigureRepository</text><rect fill="#FFFFFF" height="499.6953" style="stroke:#181818;stroke-width:1.0;" width="10" x="50.4688" y="133.2422"/><rect fill="#FFFFFF" height="476.4043" style="stroke:#181818;stroke-width:1.0;" width="10" x="303.1084" y="156.5332"/><rect fill="#FFFFFF" height="341.2402" style="stroke:#181818;stroke-width:1.0;" width="10" x="571.6299" y="260.4063"/><rect fill="#FFFFFF" height="167.4551" style="stroke:#181818;stroke-width:1.0;" width="10" x="576.6299" y="302.0273"/><rect fill="#FFFFFF" height="31.291" style="stroke:#181818;stroke-width:1.0;" width="10" x="742.5752" y="338.3184"/><rect fill="#FFFFFF" height="31.291" style="stroke:#181818;stroke-width:1.0;" width="10" x="848.2783" y="400.9004"/><rect fill="#FFFFFF" height="31.291" style="stroke:#181818;stroke-width:1.0;" width="10" x="968.3745" y="539.0645"/><polygon fill="#181818" points="291.1084,152.5332,301.1084,156.5332,291.1084,160.5332,295.1084,156.5332" style="stroke:#181818;stroke-width:1.0;"/><line style="stroke:#181818;stroke-width:1.0;" x1="60.4688" x2="297.1084" y1="156.5332" y2="156.5332"/><text fill="#000000" font-family="sans-serif" font-size="13" font-weight="bold" lengthAdjust="spacing" textLength="7.23" x="67.4688" y="151.2705">1</text><text fill="#000000" font-family="sans-serif" font-size="13" lengthAdjust="spacing" textLength="134.3926" x="78.6987" y="151.2705">ask to list public figures</text><polygon fill="#181818" points="71.4688,183.8242,61.4688,187.8242,71.4688,191.8242,67.4688,187.8242" style="stroke:#181818;stroke-width:1.0;"/><line style="stroke:#181818;stroke-width:1.0;" x1="65.4688" x2="302.1084" y1="187.8242" y2="187.8242"/><text fill="#000000" font-family="sans-serif" font-size="13" font-weight="bold" lengthAdjust="spacing" textLength="7.23" x="77.4688" y="182.5615">2</text><text fill="#000000" font-family="sans-serif" font-size="13" lengthAdjust="spacing" textLength="207.4097" x="88.6987" y="182.5615">ask for pages data (page, pagesize)</text><polygon fill="#181818" points="291.1084,215.1152,301.1084,219.1152,291.1084,223.1152,295.1084,219.1152" style="stroke:#181818;stroke-width:1.0;"/><line style="stroke:#181818;stroke-width:1.0;" x1="60.4688" x2="297.1084" y1="219.1152" y2="219.1152"/><text fill="#000000" font-family="sans-serif" font-size="13" font-weight="bold" lengthAdjust="spacing" textLength="7.23" x="67.4688" y="213.8525">3</text><text fill="#000000" font-family="sans-serif" font-size="13" lengthAdjust="spacing" textLength="117.0825" x="78.6987" y="213.8525">provides pages data</text><polygon fill="#181818" points="494.606,246.4063,504.606,250.4063,494.606,254.4063,498.606,250.4063" style="stroke:#181818;stroke-width:1.0;"/><line style="stroke:#181818;stroke-width:1.0;" x1="313.1084" x2="500.606" y1="250.4063" y2="250.4063"/><text fill="#000000" font-family="sans-serif" font-size="13" font-weight="bold" lengthAdjust="spacing" textLength="7.23" x="320.1084" y="245.1436">4</text><text fill="#000000" font-family="sans-serif" font-size="13" lengthAdjust="spacing" textLength="36.1309" x="331.3384" y="245.1436">create</text><rect fill="#E3E3E3" height="32.6211" rx="2.5" ry="2.5" style="stroke:#181818;stroke-width:0.5;" width="140.0479" x="506.606" y="227.1152"/><text fill="#000000" font-family="sans-serif" font-size="14" lengthAdjust="spacing" textLength="126.0479" x="513.606" y="249.2227">:ListFigureController</text><line style="stroke:#181818;stroke-width:1.0;" x1="581.6299" x2="628.6299" y1="289.0273" y2="289.0273"/><line style="stroke:#181818;stroke-width:1.0;" x1="628.6299" x2="628.6299" y1="289.0273" y2="302.0273"/><line style="stroke:#181818;stroke-width:1.0;" x1="587.6299" x2="628.6299" y1="302.0273" y2="302.0273"/><polygon fill="#181818" points="597.6299,298.0273,587.6299,302.0273,597.6299,306.0273,593.6299,302.0273" style="stroke:#181818;stroke-width:1.0;"/><text fill="#000000" font-family="sans-serif" font-size="13" font-weight="bold" lengthAdjust="spacing" textLength="7.23" x="593.6299" y="283.7646">5</text><text fill="#000000" font-family="sans-serif" font-size="13" lengthAdjust="spacing" textLength="125.7153" x="604.8599" y="283.7646">getFigureRepository()</text><polygon fill="#181818" points="730.5752,334.3184,740.5752,338.3184,730.5752,342.3184,734.5752,338.3184" style="stroke:#181818;stroke-width:1.0;"/><line style="stroke:#181818;stroke-width:1.0;" x1="586.6299" x2="736.5752" y1="338.3184" y2="338.3184"/><text fill="#000000" font-family="sans-serif" font-size="13" font-weight="bold" lengthAdjust="spacing" textLength="7.23" x="593.6299" y="333.0557">6</text><text fill="#000000" font-family="sans-serif" font-size="13" lengthAdjust="spacing" textLength="75.8735" x="604.8599" y="333.0557">getInstance()</text><polygon fill="#181818" points="597.6299,365.6094,587.6299,369.6094,597.6299,373.6094,593.6299,369.6094" style="stroke:#181818;stroke-width:1.0;"/><line style="stroke:#181818;stroke-width:1.0;stroke-dasharray:2.0,2.0;" x1="591.6299" x2="746.5752" y1="369.6094" y2="369.6094"/><text fill="#000000" font-family="sans-serif" font-size="13" font-weight="bold" lengthAdjust="spacing" textLength="7.23" x="603.6299" y="364.3467">7</text><text fill="#000000" font-family="sans-serif" font-size="13" lengthAdjust="spacing" textLength="67.1963" x="614.8599" y="364.3467">repositories</text><polygon fill="#181818" points="836.2783,396.9004,846.2783,400.9004,836.2783,404.9004,840.2783,400.9004" style="stroke:#181818;stroke-width:1.0;"/><line style="stroke:#181818;stroke-width:1.0;" x1="586.6299" x2="842.2783" y1="400.9004" y2="400.9004"/><text fill="#000000" font-family="sans-serif" font-size="13" font-weight="bold" lengthAdjust="spacing" textLength="7.23" x="593.6299" y="395.6377">8</text><text fill="#000000" font-family="sans-serif" font-size="13" lengthAdjust="spacing" textLength="125.7153" x="604.8599" y="395.6377">getFigureRepository()</text><polygon fill="#181818" points="597.6299,428.1914,587.6299,432.1914,597.6299,436.1914,593.6299,432.1914" style="stroke:#181818;stroke-width:1.0;"/><line style="stroke:#181818;stroke-width:1.0;stroke-dasharray:2.0,2.0;" x1="591.6299" x2="852.2783" y1="432.1914" y2="432.1914"/><text fill="#000000" font-family="sans-serif" font-size="13" font-weight="bold" lengthAdjust="spacing" textLength="7.23" x="603.6299" y="426.9287">9</text><text fill="#000000" font-family="sans-serif" font-size="13" lengthAdjust="spacing" textLength="94.6563" x="614.8599" y="426.9287">figureRepository</text><line style="stroke:#181818;stroke-width:1.0;stroke-dasharray:2.0,2.0;" x1="586.6299" x2="628.6299" y1="468.4824" y2="468.4824"/><line style="stroke:#181818;stroke-width:1.0;stroke-dasharray:2.0,2.0;" x1="628.6299" x2="628.6299" y1="468.4824" y2="481.4824"/><line style="stroke:#181818;stroke-width:1.0;stroke-dasharray:2.0,2.0;" x1="581.6299" x2="628.6299" y1="481.4824" y2="481.4824"/><polygon fill="#181818" points="591.6299,477.4824,581.6299,481.4824,591.6299,485.4824,587.6299,481.4824" style="stroke:#181818;stroke-width:1.0;"/><text fill="#000000" font-family="sans-serif" font-size="13" font-weight="bold" lengthAdjust="spacing" textLength="14.46" x="593.6299" y="463.2197">10</text><text fill="#000000" font-family="sans-serif" font-size="13" lengthAdjust="spacing" textLength="94.6563" x="612.0898" y="463.2197">figureRepository</text><polygon fill="#181818" points="559.6299,503.7734,569.6299,507.7734,559.6299,511.7734,563.6299,507.7734" style="stroke:#181818;stroke-width:1.0;"/><line style="stroke:#181818;stroke-width:1.0;" x1="313.1084" x2="565.6299" y1="507.7734" y2="507.7734"/><text fill="#000000" font-family="sans-serif" font-size="13" font-weight="bold" lengthAdjust="spacing" textLength="14.46" x="320.1084" y="502.5107">11</text><text fill="#000000" font-family="sans-serif" font-size="13" lengthAdjust="spacing" textLength="216.0615" x="338.5684" y="502.5107">displayPublicFigures(page, pagesize)</text><polygon fill="#181818" points="956.3745,535.0645,966.3745,539.0645,956.3745,543.0645,960.3745,539.0645" style="stroke:#181818;stroke-width:1.0;"/><line style="stroke:#181818;stroke-width:1.0;" x1="581.6299" x2="962.3745" y1="539.0645" y2="539.0645"/><text fill="#000000" font-family="sans-serif" font-size="13" font-weight="bold" lengthAdjust="spacing" textLength="14.46" x="588.6299" y="533.8018">12</text><text fill="#000000" font-family="sans-serif" font-size="13" lengthAdjust="spacing" textLength="122.8208" x="607.0898" y="533.8018">findAllPublicFigures()</text><polygon fill="#181818" points="592.6299,566.3555,582.6299,570.3555,592.6299,574.3555,588.6299,570.3555" style="stroke:#181818;stroke-width:1.0;"/><line style="stroke:#181818;stroke-width:1.0;stroke-dasharray:2.0,2.0;" x1="586.6299" x2="972.3745" y1="570.3555" y2="570.3555"/><text fill="#000000" font-family="sans-serif" font-size="13" font-weight="bold" lengthAdjust="spacing" textLength="14.46" x="598.6299" y="565.0928">13</text><text fill="#000000" font-family="sans-serif" font-size="13" lengthAdjust="spacing" textLength="108.3672" x="617.0898" y="565.0928">listOfPublicFigures</text><polygon fill="#181818" points="324.1084,597.6465,314.1084,601.6465,324.1084,605.6465,320.1084,601.6465" style="stroke:#181818;stroke-width:1.0;"/><line style="stroke:#181818;stroke-width:1.0;" x1="318.1084" x2="575.6299" y1="601.6465" y2="601.6465"/><text fill="#000000" font-family="sans-serif" font-size="13" font-weight="bold" lengthAdjust="spacing" textLength="14.46" x="330.1084" y="596.3838">14</text><text fill="#000000" font-family="sans-serif" font-size="13" lengthAdjust="spacing" textLength="108.3672" x="348.5684" y="596.3838">listOfPublicFigures</text><polygon fill="#181818" points="66.4688,628.9375,56.4688,632.9375,66.4688,636.9375,62.4688,632.9375" style="stroke:#181818;stroke-width:1.0;"/><line style="stroke:#181818;stroke-width:1.0;" x1="60.4688" x2="307.1084" y1="632.9375" y2="632.9375"/><text fill="#000000" font-family="sans-serif" font-size="13" font-weight="bold" lengthAdjust="spacing" textLength="14.46" x="72.4688" y="627.6748">15</text><text fill="#000000" font-family="sans-serif" font-size="13" lengthAdjust="spacing" textLength="156.7808" x="90.9287" y="627.6748">shows list of Public Figures</text><!--SRC=[ZPJ1RgCm48RlFCKefwJQl40EbQf4bP0YRLMQsrvSCn0hZitQfb7wz3is2TW1jFK9Xla_Vi-CRKz2DSomCvorqlnez1d1cHOpstzf63-n6WjtbGW6kMEgbd62FR9INuIgeMBIOfOvuIZra4E1VrjK764dMErJbqMnMy4Qzi8wQDfFAJXKecuDMX0ANiCZR9bZKjVa8cEjqwezVwAXP-wqWKLnr1VOeHMrGhC0Pic0ljm36NboWek6AGUBZVzHHpta8VUGpsPijN96ItcZRZ_Uzm-vxzXeAyY5G1jo-i2r4BugP3QLc4ZnHuq1R_kNZrJHbMC0a-hr8HIKd3aV2MKHNynXMeOCQCKHM3_xbcn8UmAdGOvR43GzZYeL0YGYQOBg81Lrew79i51Ims3fdtzr4V6Dgta7ZT5VeYJTe8v_vGl_z4Hvt20PoL9ReIqXv9T_ksj8KQDxBDPorIVFC6BEH4CxRAui3Jx729SWfoOXoVHhYhw-kTz0F2k9jCIV_-Q-4JzO_or8ieCmYYFBWJDuV9pEEPy1DlOrT6e4oYOeQP-6wTX0AMmZsVKjp6-tGpivW5ErkHqTRqALBrAcbB6kzzEVEPXOjuzHiVmH-rqbz94osksTFcVxa4yZvtemdlB9e-nVRNSTw0ewDFJiY4SNGlIMt3R_0000]--></g></svg>