<svg xmlns="http://www.w3.org/2000/svg" xmlns:xlink="http://www.w3.org/1999/xlink" contentStyleType="text/css" height="547px" preserveAspectRatio="none" style="width:512px;height:547px;background:#FFFFFF;" version="1.1" viewBox="0 0 512 547" width="512px" zoomAndPan="magnify"><title>System Sequence Diagram (SSD) - US210 - Authenticate User</title><defs/><g><text fill="#000000" font-family="sans-serif" font-size="14" font-weight="bold" lengthAdjust="spacing" textLength="409.2402" x="58.7761" y="30.1074">System Sequence Diagram (SSD) - US210 - Authenticate User</text><rect fill="#FFFFFF" height="320.959" style="stroke:#181818;stroke-width:1.0;" width="10" x="58.062" y="133.2422"/><rect fill="#FFFFFF" height="297.668" style="stroke:#181818;stroke-width:1.0;" width="10" x="264.4146" y="156.5332"/><rect fill="none" height="142.7949" style="stroke:#000000;stroke-width:1.5;" width="437.5708" x="10" y="304.4063"/><line style="stroke:#181818;stroke-width:0.5;stroke-dasharray:5.0,5.0;" x1="63" x2="63" y1="123.2422" y2="464.2012"/><line style="stroke:#181818;stroke-width:0.5;stroke-dasharray:5.0,5.0;" x1="269.1318" x2="269.1318" y1="123.2422" y2="464.2012"/><text fill="#000000" font-family="sans-serif" font-size="14" lengthAdjust="spacing" textLength="80.124" x="20" y="119.7285">System User</text><ellipse cx="63.062" cy="53.1211" fill="#E3E3E3" rx="8" ry="8" style="stroke:#181818;stroke-width:0.5;"/><path d="M63.062,61.1211 L63.062,88.1211 M50.062,69.1211 L76.062,69.1211 M63.062,88.1211 L50.062,103.1211 M63.062,88.1211 L76.062,103.1211 " fill="none" style="stroke:#181818;stroke-width:0.5;"/><text fill="#000000" font-family="sans-serif" font-size="14" lengthAdjust="spacing" textLength="80.124" x="20" y="478.3086">System User</text><ellipse cx="63.062" cy="490.3223" fill="#E3E3E3" rx="8" ry="8" style="stroke:#181818;stroke-width:0.5;"/><path d="M63.062,498.3223 L63.062,525.3223 M50.062,506.3223 L76.062,506.3223 M63.062,525.3223 L50.062,540.3223 M63.062,525.3223 L76.062,540.3223 " fill="none" style="stroke:#181818;stroke-width:0.5;"/><rect fill="#E3E3E3" height="32.6211" rx="2.5" ry="2.5" style="stroke:#181818;stroke-width:0.5;" width="64.5654" x="237.1318" y="89.6211"/><text fill="#000000" font-family="sans-serif" font-size="14" lengthAdjust="spacing" textLength="50.5654" x="244.1318" y="111.7285">:System</text><rect fill="#E3E3E3" height="32.6211" rx="2.5" ry="2.5" style="stroke:#181818;stroke-width:0.5;" width="64.5654" x="237.1318" y="463.2012"/><text fill="#000000" font-family="sans-serif" font-size="14" lengthAdjust="spacing" textLength="50.5654" x="244.1318" y="485.3086">:System</text><rect fill="#FFFFFF" height="320.959" style="stroke:#181818;stroke-width:1.0;" width="10" x="58.062" y="133.2422"/><rect fill="#FFFFFF" height="297.668" style="stroke:#181818;stroke-width:1.0;" width="10" x="264.4146" y="156.5332"/><polygon fill="#181818" points="252.4146,152.5332,262.4146,156.5332,252.4146,160.5332,256.4146,156.5332" style="stroke:#181818;stroke-width:1.0;"/><line style="stroke:#181818;stroke-width:1.0;" x1="68.062" x2="258.4146" y1="156.5332" y2="156.5332"/><text fill="#000000" font-family="sans-serif" font-size="13" font-weight="bold" lengthAdjust="spacing" textLength="7.23" x="75.062" y="151.2705">1</text><text fill="#000000" font-family="sans-serif" font-size="13" lengthAdjust="spacing" textLength="130.0508" x="86.292" y="151.2705">login(email, password)</text><line style="stroke:#181818;stroke-width:1.0;" x1="274.4146" x2="316.4146" y1="187.8242" y2="187.8242"/><line style="stroke:#181818;stroke-width:1.0;" x1="316.4146" x2="316.4146" y1="187.8242" y2="200.8242"/><line style="stroke:#181818;stroke-width:1.0;" x1="275.4146" x2="316.4146" y1="200.8242" y2="200.8242"/><polygon fill="#181818" points="285.4146,196.8242,275.4146,200.8242,285.4146,204.8242,281.4146,200.8242" style="stroke:#181818;stroke-width:1.0;"/><text fill="#000000" font-family="sans-serif" font-size="13" font-weight="bold" lengthAdjust="spacing" textLength="7.23" x="281.4146" y="182.5615">2</text><text fill="#000000" font-family="sans-serif" font-size="13" lengthAdjust="spacing" textLength="213.1479" x="292.6445" y="182.5615">validateCredentials(email, password)</text><line style="stroke:#181818;stroke-width:1.0;" x1="274.4146" x2="316.4146" y1="232.1152" y2="232.1152"/><line style="stroke:#181818;stroke-width:1.0;" x1="316.4146" x2="316.4146" y1="232.1152" y2="245.1152"/><line style="stroke:#181818;stroke-width:1.0;" x1="275.4146" x2="316.4146" y1="245.1152" y2="245.1152"/><polygon fill="#181818" points="285.4146,241.1152,275.4146,245.1152,285.4146,249.1152,281.4146,245.1152" style="stroke:#181818;stroke-width:1.0;"/><text fill="#000000" font-family="sans-serif" font-size="13" font-weight="bold" lengthAdjust="spacing" textLength="7.23" x="281.4146" y="226.8525">3</text><text fill="#000000" font-family="sans-serif" font-size="13" lengthAdjust="spacing" textLength="158.1963" x="292.6445" y="226.8525">retrieveUserByEmail(email)</text><line style="stroke:#181818;stroke-width:1.0;" x1="274.4146" x2="316.4146" y1="276.4063" y2="276.4063"/><line style="stroke:#181818;stroke-width:1.0;" x1="316.4146" x2="316.4146" y1="276.4063" y2="289.4063"/><line style="stroke:#181818;stroke-width:1.0;" x1="275.4146" x2="316.4146" y1="289.4063" y2="289.4063"/><polygon fill="#181818" points="285.4146,285.4063,275.4146,289.4063,285.4146,293.4063,281.4146,289.4063" style="stroke:#181818;stroke-width:1.0;"/><text fill="#000000" font-family="sans-serif" font-size="13" font-weight="bold" lengthAdjust="spacing" textLength="7.23" x="281.4146" y="271.1436">4</text><text fill="#000000" font-family="sans-serif" font-size="13" lengthAdjust="spacing" textLength="152.4326" x="292.6445" y="271.1436">verifyPassword(password)</text><path d="M10,304.4063 L70.1709,304.4063 L70.1709,313.6973 L60.1709,323.6973 L10,323.6973 L10,304.4063 " fill="#EEEEEE" style="stroke:#000000;stroke-width:1.5;"/><rect fill="none" height="142.7949" style="stroke:#000000;stroke-width:1.5;" width="437.5708" x="10" y="304.4063"/><text fill="#000000" font-family="sans-serif" font-size="13" font-weight="bold" lengthAdjust="spacing" textLength="15.1709" x="25" y="319.4346">alt</text><text fill="#000000" font-family="sans-serif" font-size="11" font-weight="bold" lengthAdjust="spacing" textLength="93.5322" x="85.1709" y="318.2764">[valid credentials]</text><line style="stroke:#181818;stroke-width:1.0;" x1="274.4146" x2="316.4146" y1="346.9883" y2="346.9883"/><line style="stroke:#181818;stroke-width:1.0;" x1="316.4146" x2="316.4146" y1="346.9883" y2="359.9883"/><line style="stroke:#181818;stroke-width:1.0;" x1="275.4146" x2="316.4146" y1="359.9883" y2="359.9883"/><polygon fill="#181818" points="285.4146,355.9883,275.4146,359.9883,285.4146,363.9883,281.4146,359.9883" style="stroke:#181818;stroke-width:1.0;"/><text fill="#000000" font-family="sans-serif" font-size="13" font-weight="bold" lengthAdjust="spacing" textLength="7.23" x="281.4146" y="341.7256">5</text><text fill="#000000" font-family="sans-serif" font-size="13" lengthAdjust="spacing" textLength="132.9263" x="292.6445" y="341.7256">startUserSession(user)</text><polygon fill="#181818" points="79.062,387.2793,69.062,391.2793,79.062,395.2793,75.062,391.2793" style="stroke:#181818;stroke-width:1.0;"/><line style="stroke:#181818;stroke-width:1.0;stroke-dasharray:2.0,2.0;" x1="73.062" x2="263.4146" y1="391.2793" y2="391.2793"/><text fill="#000000" font-family="sans-serif" font-size="13" font-weight="bold" lengthAdjust="spacing" textLength="7.23" x="85.062" y="386.0166">6</text><text fill="#000000" font-family="sans-serif" font-size="13" lengthAdjust="spacing" textLength="161.1226" x="96.292" y="386.0166">session started successfully</text><line style="stroke:#000000;stroke-width:1.0;stroke-dasharray:2.0,2.0;" x1="10" x2="447.5708" y1="400.2793" y2="400.2793"/><text fill="#000000" font-family="sans-serif" font-size="11" font-weight="bold" lengthAdjust="spacing" textLength="103.3076" x="15" y="412.1494">[invalid credentials]</text><polygon fill="#181818" points="79.062,435.2012,69.062,439.2012,79.062,443.2012,75.062,439.2012" style="stroke:#181818;stroke-width:1.0;"/><line style="stroke:#181818;stroke-width:1.0;stroke-dasharray:2.0,2.0;" x1="73.062" x2="263.4146" y1="439.2012" y2="439.2012"/><text fill="#000000" font-family="sans-serif" font-size="13" font-weight="bold" lengthAdjust="spacing" textLength="7.23" x="85.062" y="433.9385">7</text><text fill="#000000" font-family="sans-serif" font-size="13" lengthAdjust="spacing" textLength="112.0107" x="96.292" y="433.9385">authentication error</text><!--SRC=[ZP9DJiCm48NtESMegrIY4h3i0WaeUoIh1nZiQMhLiOCzJfNROyTfKeaMuKr6dlUz-Od3ITiEFRRGEklaqRkMW7saAioP3kK96n8y609Faj4svbeGZgZSMTi63cW2LHLhJb8n1AOM17r7if9Wfx79ybg8tHesi1VFJu_f-nhvI9QrH2RO1_9LXP6TZUtN64js7bQJMywl04CHflg9qnrQXjMsICPi2KTOzuilf9CZsBnSsjk2SOssDRMepKCQDeIpysezQcVyuWVJcU1hcnwDLadxxadbST8gRflUuJsnrzHJxkzj-CXauV-aUlBwC7nE1UgbqWoXuT8RoAMpENl7Dd3QREv4K0ZQsJgcU7sJIjYuqWGLRO59GOXIfgj3D6QOKKel1BJzNqUBDowF99SWxvrVFAqgyohwzSUkhhBL3m00]--></g></svg>