<svg xmlns="http://www.w3.org/2000/svg" xmlns:xlink="http://www.w3.org/1999/xlink" contentStyleType="text/css" height="591px" preserveAspectRatio="none" style="width:740px;height:591px;background:#FFFFFF;" version="1.1" viewBox="0 0 740 591" width="740px" zoomAndPan="magnify"><title>System Sequence Diagram (SSD) - US317 - Mark Show Proposal as Accepted</title><defs/><g><text fill="#000000" font-family="sans-serif" font-size="14" font-weight="bold" lengthAdjust="spacing" textLength="513.502" x="114.3213" y="30.1074">System Sequence Diagram (SSD) - US317 - Mark Show Proposal as Accepted</text><rect fill="#FFFFFF" height="365.25" style="stroke:#181818;stroke-width:1.0;" width="10" x="74.0171" y="133.2422"/><rect fill="#FFFFFF" height="341.959" style="stroke:#181818;stroke-width:1.0;" width="10" x="439.4058" y="156.5332"/><rect fill="none" height="187.0859" style="stroke:#000000;stroke-width:1.5;" width="723.1445" x="10" y="304.4063"/><line style="stroke:#181818;stroke-width:0.5;stroke-dasharray:5.0,5.0;" x1="79" x2="79" y1="123.2422" y2="508.4922"/><line style="stroke:#181818;stroke-width:0.5;stroke-dasharray:5.0,5.0;" x1="444.123" x2="444.123" y1="123.2422" y2="508.4922"/><text fill="#000000" font-family="sans-serif" font-size="14" lengthAdjust="spacing" textLength="112.0342" x="20" y="119.7285">CRM Collaborator</text><ellipse cx="79.0171" cy="53.1211" fill="#E3E3E3" rx="8" ry="8" style="stroke:#181818;stroke-width:0.5;"/><path d="M79.0171,61.1211 L79.0171,88.1211 M66.0171,69.1211 L92.0171,69.1211 M79.0171,88.1211 L66.0171,103.1211 M79.0171,88.1211 L92.0171,103.1211 " fill="none" style="stroke:#181818;stroke-width:0.5;"/><text fill="#000000" font-family="sans-serif" font-size="14" lengthAdjust="spacing" textLength="112.0342" x="20" y="522.5996">CRM Collaborator</text><ellipse cx="79.0171" cy="534.6133" fill="#E3E3E3" rx="8" ry="8" style="stroke:#181818;stroke-width:0.5;"/><path d="M79.0171,542.6133 L79.0171,569.6133 M66.0171,550.6133 L92.0171,550.6133 M79.0171,569.6133 L66.0171,584.6133 M79.0171,569.6133 L92.0171,584.6133 " fill="none" style="stroke:#181818;stroke-width:0.5;"/><rect fill="#E3E3E3" height="32.6211" rx="2.5" ry="2.5" style="stroke:#181818;stroke-width:0.5;" width="64.5654" x="412.123" y="89.6211"/><text fill="#000000" font-family="sans-serif" font-size="14" lengthAdjust="spacing" textLength="50.5654" x="419.123" y="111.7285">:System</text><rect fill="#E3E3E3" height="32.6211" rx="2.5" ry="2.5" style="stroke:#181818;stroke-width:0.5;" width="64.5654" x="412.123" y="507.4922"/><text fill="#000000" font-family="sans-serif" font-size="14" lengthAdjust="spacing" textLength="50.5654" x="419.123" y="529.5996">:System</text><rect fill="#FFFFFF" height="365.25" style="stroke:#181818;stroke-width:1.0;" width="10" x="74.0171" y="133.2422"/><rect fill="#FFFFFF" height="341.959" style="stroke:#181818;stroke-width:1.0;" width="10" x="439.4058" y="156.5332"/><polygon fill="#181818" points="427.4058,152.5332,437.4058,156.5332,427.4058,160.5332,431.4058,156.5332" style="stroke:#181818;stroke-width:1.0;"/><line style="stroke:#181818;stroke-width:1.0;" x1="84.0171" x2="433.4058" y1="156.5332" y2="156.5332"/><text fill="#000000" font-family="sans-serif" font-size="13" font-weight="bold" lengthAdjust="spacing" textLength="7.23" x="91.0171" y="151.2705">1</text><text fill="#000000" font-family="sans-serif" font-size="13" lengthAdjust="spacing" textLength="325.1587" x="102.2471" y="151.2705">markProposalAsAccepted(proposalId, acceptanceEmail)</text><line style="stroke:#181818;stroke-width:1.0;" x1="449.4058" x2="491.4058" y1="187.8242" y2="187.8242"/><line style="stroke:#181818;stroke-width:1.0;" x1="491.4058" x2="491.4058" y1="187.8242" y2="200.8242"/><line style="stroke:#181818;stroke-width:1.0;" x1="450.4058" x2="491.4058" y1="200.8242" y2="200.8242"/><polygon fill="#181818" points="460.4058,196.8242,450.4058,200.8242,460.4058,204.8242,456.4058,200.8242" style="stroke:#181818;stroke-width:1.0;"/><text fill="#000000" font-family="sans-serif" font-size="13" font-weight="bold" lengthAdjust="spacing" textLength="7.23" x="456.4058" y="182.5615">2</text><text fill="#000000" font-family="sans-serif" font-size="13" lengthAdjust="spacing" textLength="135.0972" x="467.6357" y="182.5615">validateUserRole(User)</text><line style="stroke:#181818;stroke-width:1.0;" x1="449.4058" x2="491.4058" y1="232.1152" y2="232.1152"/><line style="stroke:#181818;stroke-width:1.0;" x1="491.4058" x2="491.4058" y1="232.1152" y2="245.1152"/><line style="stroke:#181818;stroke-width:1.0;" x1="450.4058" x2="491.4058" y1="245.1152" y2="245.1152"/><polygon fill="#181818" points="460.4058,241.1152,450.4058,245.1152,460.4058,249.1152,456.4058,245.1152" style="stroke:#181818;stroke-width:1.0;"/><text fill="#000000" font-family="sans-serif" font-size="13" font-weight="bold" lengthAdjust="spacing" textLength="7.23" x="456.4058" y="226.8525">3</text><text fill="#000000" font-family="sans-serif" font-size="13" lengthAdjust="spacing" textLength="164.0234" x="467.6357" y="226.8525">retrieveProposal(proposalId)</text><line style="stroke:#181818;stroke-width:1.0;" x1="449.4058" x2="491.4058" y1="276.4063" y2="276.4063"/><line style="stroke:#181818;stroke-width:1.0;" x1="491.4058" x2="491.4058" y1="276.4063" y2="289.4063"/><line style="stroke:#181818;stroke-width:1.0;" x1="450.4058" x2="491.4058" y1="289.4063" y2="289.4063"/><polygon fill="#181818" points="460.4058,285.4063,450.4058,289.4063,460.4058,293.4063,456.4058,289.4063" style="stroke:#181818;stroke-width:1.0;"/><text fill="#000000" font-family="sans-serif" font-size="13" font-weight="bold" lengthAdjust="spacing" textLength="7.23" x="456.4058" y="271.1436">4</text><text fill="#000000" font-family="sans-serif" font-size="13" lengthAdjust="spacing" textLength="124.2808" x="467.6357" y="271.1436">checkProposalState()</text><path d="M10,304.4063 L70.1709,304.4063 L70.1709,313.6973 L60.1709,323.6973 L10,323.6973 L10,304.4063 " fill="#EEEEEE" style="stroke:#000000;stroke-width:1.5;"/><rect fill="none" height="187.0859" style="stroke:#000000;stroke-width:1.5;" width="723.1445" x="10" y="304.4063"/><text fill="#000000" font-family="sans-serif" font-size="13" font-weight="bold" lengthAdjust="spacing" textLength="15.1709" x="25" y="319.4346">alt</text><text fill="#000000" font-family="sans-serif" font-size="11" font-weight="bold" lengthAdjust="spacing" textLength="107.5776" x="85.1709" y="318.2764">[Proposal is eligible]</text><line style="stroke:#181818;stroke-width:1.0;" x1="449.4058" x2="491.4058" y1="346.9883" y2="346.9883"/><line style="stroke:#181818;stroke-width:1.0;" x1="491.4058" x2="491.4058" y1="346.9883" y2="359.9883"/><line style="stroke:#181818;stroke-width:1.0;" x1="450.4058" x2="491.4058" y1="359.9883" y2="359.9883"/><polygon fill="#181818" points="460.4058,355.9883,450.4058,359.9883,460.4058,363.9883,456.4058,359.9883" style="stroke:#181818;stroke-width:1.0;"/><text fill="#000000" font-family="sans-serif" font-size="13" font-weight="bold" lengthAdjust="spacing" textLength="7.23" x="456.4058" y="341.7256">5</text><text fill="#000000" font-family="sans-serif" font-size="13" lengthAdjust="spacing" textLength="243.5088" x="467.6357" y="341.7256">attachAcceptanceEmail(acceptanceEmail)</text><line style="stroke:#181818;stroke-width:1.0;" x1="449.4058" x2="491.4058" y1="391.2793" y2="391.2793"/><line style="stroke:#181818;stroke-width:1.0;" x1="491.4058" x2="491.4058" y1="391.2793" y2="404.2793"/><line style="stroke:#181818;stroke-width:1.0;" x1="450.4058" x2="491.4058" y1="404.2793" y2="404.2793"/><polygon fill="#181818" points="460.4058,400.2793,450.4058,404.2793,460.4058,408.2793,456.4058,404.2793" style="stroke:#181818;stroke-width:1.0;"/><text fill="#000000" font-family="sans-serif" font-size="13" font-weight="bold" lengthAdjust="spacing" textLength="7.23" x="456.4058" y="386.0166">6</text><text fill="#000000" font-family="sans-serif" font-size="13" lengthAdjust="spacing" textLength="200.0146" x="467.6357" y="386.0166">updateProposalStatus("Accepted")</text><polygon fill="#181818" points="95.0171,431.5703,85.0171,435.5703,95.0171,439.5703,91.0171,435.5703" style="stroke:#181818;stroke-width:1.0;"/><line style="stroke:#181818;stroke-width:1.0;stroke-dasharray:2.0,2.0;" x1="89.0171" x2="438.4058" y1="435.5703" y2="435.5703"/><text fill="#000000" font-family="sans-serif" font-size="13" font-weight="bold" lengthAdjust="spacing" textLength="7.23" x="101.0171" y="430.3076">7</text><text fill="#000000" font-family="sans-serif" font-size="13" lengthAdjust="spacing" textLength="126.4263" x="112.2471" y="430.3076">confirmation(success)</text><line style="stroke:#000000;stroke-width:1.0;stroke-dasharray:2.0,2.0;" x1="10" x2="733.1445" y1="444.5703" y2="444.5703"/><text fill="#000000" font-family="sans-serif" font-size="11" font-weight="bold" lengthAdjust="spacing" textLength="191.9683" x="15" y="456.4404">[Proposal already accepted/rejected]</text><polygon fill="#181818" points="95.0171,479.4922,85.0171,483.4922,95.0171,487.4922,91.0171,483.4922" style="stroke:#181818;stroke-width:1.0;"/><line style="stroke:#181818;stroke-width:1.0;stroke-dasharray:2.0,2.0;" x1="89.0171" x2="438.4058" y1="483.4922" y2="483.4922"/><text fill="#000000" font-family="sans-serif" font-size="13" font-weight="bold" lengthAdjust="spacing" textLength="7.23" x="101.0171" y="478.2295">8</text><text fill="#000000" font-family="sans-serif" font-size="13" lengthAdjust="spacing" textLength="213.7319" x="112.2471" y="478.2295">error("Proposal cannot be accepted")</text><!--SRC=[VL9DQyCm3BtdLuYSKbWPOuT13uFIxh33O2pq1wYEcdXrx4nMMlhlfwHDch5INInalQUdZxYtla766khWWwaur0J2BILn_6dGxB6aN4wEWCa8-j9D4sA5HJXQNy8ENQGa4IkQcf-YK0qv_RJa3S7QOjcbPtc-di4SDldpquk-7yXxoAjmX4yEJOZe02CiZQ56g4WIR2NujjuIgsyaCAIhhmzO1UTm6nWradQ8JTGCLIJMs0QzGBeuI-X_psxFO0yeT4vFGAtpOFuw25v0hOe6BSiuACcQI-YzU03iWwXzlTLetQmd6hc7Od2n2_EqnW6TBJItA_uL76MTCxk7O1AsTA11sKJFNPofo8pjvA8rizbL6Zgvpjr686TBkzNzmiHkiA88cchvTmpPpR7SOMcRRWPJSMtCqc7YwMsy4lGhqzQ2trckKMpmMMmL5kCLGtgCavjoJ5YSBfkZuf7fMuzPB-n-3M8EdAKZZq7lWy2MHgQ9JFB5URG5_Jk6IQYZ_WK0]--></g></svg>