<?xml version="1.0" encoding="UTF-8" standalone="no"?><svg xmlns="http://www.w3.org/2000/svg" xmlns:xlink="http://www.w3.org/1999/xlink" contentScriptType="application/ecmascript" contentStyleType="text/css" height="221px" preserveAspectRatio="none" style="width:200px;height:221px;" version="1.1" viewBox="0 0 200 221" width="200px" zoomAndPan="magnify"><defs><filter height="300%" id="fl5u688dgxgzs" width="300%" x="-1" y="-1"><feGaussianBlur result="blurOut" stdDeviation="2.0"/><feColorMatrix in="blurOut" result="blurOut2" type="matrix" values="0 0 0 0 0 0 0 0 0 0 0 0 0 0 0 0 0 0 .4 0"/><feOffset dx="4.0" dy="4.0" in="blurOut2" result="blurOut3"/><feBlend in="SourceGraphic" in2="blurOut3" mode="normal"/></filter></defs><g><!--MD5=[8d996103350b9a904586d39ee3d95253]
class ui.AdminUI--><a href="AdminUI.html" target="_top" title="AdminUI.html" xlink:actuate="onRequest" xlink:href="AdminUI.html" xlink:show="new" xlink:title="AdminUI.html" xlink:type="simple"><rect codeLine="5" fill="#FEFECE" filter="url(#fl5u688dgxgzs)" height="59.2207" id="ui.AdminUI" style="stroke: #A80036; stroke-width: 1.5;" width="91" x="51.5" y="126.22"/><ellipse cx="66.5" cy="145.3528" fill="#ADD1B2" rx="11" ry="11" style="stroke: #A80036; stroke-width: 1.0;"/><path d="M68.9731,151.4959 Q68.3921,151.7947 67.7529,151.9441 Q67.1138,152.0935 66.4082,152.0935 Q63.9014,152.0935 62.5815,150.4417 Q61.2617,148.7898 61.2617,145.6687 Q61.2617,142.5393 62.5815,140.8875 Q63.9014,139.2356 66.4082,139.2356 Q67.1138,139.2356 67.7612,139.385 Q68.4087,139.5345 68.9731,139.8333 L68.9731,142.5559 Q68.3423,141.9749 67.7488,141.7051 Q67.1553,141.4353 66.5244,141.4353 Q65.1797,141.4353 64.4949,142.502 Q63.8101,143.5686 63.8101,145.6687 Q63.8101,147.7605 64.4949,148.8272 Q65.1797,149.8938 66.5244,149.8938 Q67.1553,149.8938 67.7488,149.6241 Q68.3423,149.3543 68.9731,148.7732 Z "/><text fill="#000000" font-family="sans-serif" font-size="14" lengthAdjust="spacingAndGlyphs" textLength="59" x="80.5" y="144.7552">AdminUI</text><text fill="#000000" font-family="sans-serif" font-size="10" lengthAdjust="spacingAndGlyphs" textLength="9" x="105.5" y="157.3763">ui</text><line style="stroke: #A80036; stroke-width: 1.5;" x1="52.5" x2="141.5" y1="164.4856" y2="164.4856"/><ellipse cx="62.5" cy="175.4856" fill="#84BE84" rx="3" ry="3" style="stroke: #038048; stroke-width: 1.0;"/><text fill="#000000" font-family="sans-serif" font-size="11" lengthAdjust="spacingAndGlyphs" textLength="56" x="71.5" y="179.1204">run(): void</text></a><!--MD5=[8dac795f9edbf65a524ac462449c98fb]
class java.lang.Runnable--><rect codeLine="9" fill="#FEFECE" filter="url(#fl5u688dgxgzs)" height="59.2207" id="java.lang.Runnable" style="stroke: #A80036; stroke-width: 1.5;" width="97" x="48.5" y="7"/><ellipse cx="63.5" cy="26.1328" fill="#B4A7E5" rx="11" ry="11" style="stroke: #A80036; stroke-width: 1.0;"/><path d="M59.9277,22.3979 L59.9277,20.2397 L67.3071,20.2397 L67.3071,22.3979 L64.8418,22.3979 L64.8418,30.4746 L67.3071,30.4746 L67.3071,32.6328 L59.9277,32.6328 L59.9277,30.4746 L62.3931,30.4746 L62.3931,22.3979 Z "/><text fill="#000000" font-family="sans-serif" font-size="14" font-style="italic" lengthAdjust="spacingAndGlyphs" textLength="65" x="77.5" y="25.5352">Runnable</text><text fill="#000000" font-family="sans-serif" font-size="10" font-style="italic" lengthAdjust="spacingAndGlyphs" textLength="44" x="88" y="38.1563">java.lang</text><line style="stroke: #A80036; stroke-width: 1.5;" x1="49.5" x2="144.5" y1="45.2656" y2="45.2656"/><ellipse cx="59.5" cy="56.2656" fill="#84BE84" rx="3" ry="3" style="stroke: #038048; stroke-width: 1.0;"/><text fill="#000000" font-family="sans-serif" font-size="11" font-style="italic" lengthAdjust="spacingAndGlyphs" textLength="56" x="68.5" y="59.9004">run(): void</text><!--MD5=[8c27e3bdd7cc4824d5fbecfd2aad4ba8]
reverse link java.lang.Runnable to ui.AdminUI--><path codeLine="13" d="M97,88 C97,100.91 97,114.36 97,125.78 " fill="none" id="java.lang.Runnable-backto-ui.AdminUI" style="stroke: #A80036; stroke-width: 1.0; stroke-dasharray: 7.0,7.0;"/><polygon fill="none" points="90,88.1,97,68.1,104,88.1,90,88.1" style="stroke: #A80036; stroke-width: 1.0;"/><text fill="#888888" font-family="sans-serif" font-size="10" lengthAdjust="spacingAndGlyphs" textLength="188" x="0" y="208.1087">UMLDoclet 2.0.12, PlantUML 1.2020.16</text><!--MD5=[5800788f7d1cb452bc9a118de94ae14b]
@startuml
    set namespaceSeparator none
    hide empty fields
    hide empty methods

    class "<size:14>AdminUI\n<size:10>ui" as ui.AdminUI [[AdminUI.html]] {
        +run(): void
    }

    interface "<size:14>Runnable\n<size:10>java.lang" as java.lang.Runnable {
        {abstract} +run(): void
    }

    java.lang.Runnable <|.. ui.AdminUI

    center footer UMLDoclet 2.0.12, PlantUML 1.2020.16
@enduml

PlantUML version 1.2020.16(Sun Aug 23 21:20:43 WEST 2020)
(APACHE source distribution)
Java Runtime: OpenJDK Runtime Environment
JVM: OpenJDK 64-Bit Server VM
Default Encoding: UTF-8
Language: pt
Country: PT
--></g></svg>