<?xml version="1.0" encoding="UTF-8" standalone="no"?><svg xmlns="http://www.w3.org/2000/svg" xmlns:xlink="http://www.w3.org/1999/xlink" contentScriptType="application/ecmascript" contentStyleType="text/css" height="221px" preserveAspectRatio="none" style="width:200px;height:221px;" version="1.1" viewBox="0 0 200 221" width="200px" zoomAndPan="magnify"><defs><filter height="300%" id="f1w41mqh7z7aqu" width="300%" x="-1" y="-1"><feGaussianBlur result="blurOut" stdDeviation="2.0"/><feColorMatrix in="blurOut" result="blurOut2" type="matrix" values="0 0 0 0 0 0 0 0 0 0 0 0 0 0 0 0 0 0 .4 0"/><feOffset dx="4.0" dy="4.0" in="blurOut2" result="blurOut3"/><feBlend in="SourceGraphic" in2="blurOut3" mode="normal"/></filter></defs><g><!--MD5=[55895b14ffae7445c2d319334cd54855]
class ui.CRMManagerUI--><a href="CRMManagerUI.html" target="_top" title="CRMManagerUI.html" xlink:actuate="onRequest" xlink:href="CRMManagerUI.html" xlink:show="new" xlink:title="CRMManagerUI.html" xlink:type="simple"><rect codeLine="5" fill="#FEFECE" filter="url(#f1w41mqh7z7aqu)" height="59.2207" id="ui.CRMManagerUI" style="stroke: #A80036; stroke-width: 1.5;" width="137" x="28.5" y="126.22"/><ellipse cx="43.5" cy="145.3528" fill="#ADD1B2" rx="11" ry="11" style="stroke: #A80036; stroke-width: 1.0;"/><path d="M45.9731,151.4959 Q45.3921,151.7947 44.7529,151.9441 Q44.1138,152.0935 43.4082,152.0935 Q40.9014,152.0935 39.5815,150.4417 Q38.2617,148.7898 38.2617,145.6687 Q38.2617,142.5393 39.5815,140.8875 Q40.9014,139.2356 43.4082,139.2356 Q44.1138,139.2356 44.7612,139.385 Q45.4087,139.5345 45.9731,139.8333 L45.9731,142.5559 Q45.3423,141.9749 44.7488,141.7051 Q44.1553,141.4353 43.5244,141.4353 Q42.1797,141.4353 41.4949,142.502 Q40.8101,143.5686 40.8101,145.6687 Q40.8101,147.7605 41.4949,148.8272 Q42.1797,149.8938 43.5244,149.8938 Q44.1553,149.8938 44.7488,149.6241 Q45.3423,149.3543 45.9731,148.7732 Z "/><text fill="#000000" font-family="sans-serif" font-size="14" lengthAdjust="spacingAndGlyphs" textLength="105" x="57.5" y="144.7552">CRMManagerUI</text><text fill="#000000" font-family="sans-serif" font-size="10" lengthAdjust="spacingAndGlyphs" textLength="9" x="105.5" y="157.3763">ui</text><line style="stroke: #A80036; stroke-width: 1.5;" x1="29.5" x2="164.5" y1="164.4856" y2="164.4856"/><ellipse cx="39.5" cy="175.4856" fill="#84BE84" rx="3" ry="3" style="stroke: #038048; stroke-width: 1.0;"/><text fill="#000000" font-family="sans-serif" font-size="11" lengthAdjust="spacingAndGlyphs" textLength="56" x="48.5" y="179.1204">run(): void</text></a><!--MD5=[8dac795f9edbf65a524ac462449c98fb]
class java.lang.Runnable--><rect codeLine="9" fill="#FEFECE" filter="url(#f1w41mqh7z7aqu)" height="59.2207" id="java.lang.Runnable" style="stroke: #A80036; stroke-width: 1.5;" width="97" x="48.5" y="7"/><ellipse cx="63.5" cy="26.1328" fill="#B4A7E5" rx="11" ry="11" style="stroke: #A80036; stroke-width: 1.0;"/><path d="M59.9277,22.3979 L59.9277,20.2397 L67.3071,20.2397 L67.3071,22.3979 L64.8418,22.3979 L64.8418,30.4746 L67.3071,30.4746 L67.3071,32.6328 L59.9277,32.6328 L59.9277,30.4746 L62.3931,30.4746 L62.3931,22.3979 Z "/><text fill="#000000" font-family="sans-serif" font-size="14" font-style="italic" lengthAdjust="spacingAndGlyphs" textLength="65" x="77.5" y="25.5352">Runnable</text><text fill="#000000" font-family="sans-serif" font-size="10" font-style="italic" lengthAdjust="spacingAndGlyphs" textLength="44" x="88" y="38.1563">java.lang</text><line style="stroke: #A80036; stroke-width: 1.5;" x1="49.5" x2="144.5" y1="45.2656" y2="45.2656"/><ellipse cx="59.5" cy="56.2656" fill="#84BE84" rx="3" ry="3" style="stroke: #038048; stroke-width: 1.0;"/><text fill="#000000" font-family="sans-serif" font-size="11" font-style="italic" lengthAdjust="spacingAndGlyphs" textLength="56" x="68.5" y="59.9004">run(): void</text><!--MD5=[6c3054037db093448f02b7cbb018d7c7]
reverse link java.lang.Runnable to ui.CRMManagerUI--><path codeLine="13" d="M97,88 C97,100.91 97,114.36 97,125.78 " fill="none" id="java.lang.Runnable-backto-ui.CRMManagerUI" style="stroke: #A80036; stroke-width: 1.0; stroke-dasharray: 7.0,7.0;"/><polygon fill="none" points="90,88.1,97,68.1,104,88.1,90,88.1" style="stroke: #A80036; stroke-width: 1.0;"/><text fill="#888888" font-family="sans-serif" font-size="10" lengthAdjust="spacingAndGlyphs" textLength="188" x="0" y="208.1087">UMLDoclet 2.0.12, PlantUML 1.2020.16</text><!--MD5=[eb52764efb4f57503c9d70ca99486a3b]
@startuml
    set namespaceSeparator none
    hide empty fields
    hide empty methods

    class "<size:14>CRMManagerUI\n<size:10>ui" as ui.CRMManagerUI [[CRMManagerUI.html]] {
        +run(): void
    }

    interface "<size:14>Runnable\n<size:10>java.lang" as java.lang.Runnable {
        {abstract} +run(): void
    }

    java.lang.Runnable <|.. ui.CRMManagerUI

    center footer UMLDoclet 2.0.12, PlantUML 1.2020.16
@enduml

PlantUML version 1.2020.16(Sun Aug 23 21:20:43 WEST 2020)
(APACHE source distribution)
Java Runtime: OpenJDK Runtime Environment
JVM: OpenJDK 64-Bit Server VM
Default Encoding: UTF-8
Language: pt
Country: PT
--></g></svg>