<?xml version="1.0" encoding="UTF-8" standalone="no"?><svg xmlns="http://www.w3.org/2000/svg" xmlns:xlink="http://www.w3.org/1999/xlink" contentScriptType="application/ecmascript" contentStyleType="text/css" height="276px" preserveAspectRatio="none" style="width:570px;height:276px;" version="1.1" viewBox="0 0 570 276" width="570px" zoomAndPan="magnify"><defs><filter height="300%" id="fxu28simik021" width="300%" x="-1" y="-1"><feGaussianBlur result="blurOut" stdDeviation="2.0"/><feColorMatrix in="blurOut" result="blurOut2" type="matrix" values="0 0 0 0 0 0 0 0 0 0 0 0 0 0 0 0 0 0 .4 0"/><feOffset dx="4.0" dy="4.0" in="blurOut2" result="blurOut3"/><feBlend in="SourceGraphic" in2="blurOut3" mode="normal"/></filter></defs><g><!--MD5=[64e2e010ba86d7988e5cd73bd64f61f9]
cluster ui--><polygon fill="#FFFFFF" filter="url(#fxu28simik021)" points="16,6.602,35,6.602,42,31.6699,548,31.6699,548,246.602,16,246.602,16,6.602" style="stroke: #000000; stroke-width: 1.5;"/><line style="stroke: #000000; stroke-width: 1.5;" x1="16" x2="42" y1="31.6699" y2="31.6699"/><text fill="#000000" font-family="sans-serif" font-size="14" font-weight="bold" lengthAdjust="spacingAndGlyphs" textLength="13" x="20" y="23.5679">ui</text><!--MD5=[729c8f430fe9cc58eca632f3568a3096]
class ui.RegisterShowRequestUI--><a href="RegisterShowRequestUI.html" target="_top" title="RegisterShowRequestUI.html" xlink:actuate="onRequest" xlink:href="RegisterShowRequestUI.html" xlink:show="new" xlink:title="RegisterShowRequestUI.html" xlink:type="simple"><rect codeLine="3" fill="#FEFECE" filter="url(#fxu28simik021)" height="62.9819" id="ui.RegisterShowRequestUI" style="stroke: #A80036; stroke-width: 1.5;" width="166" x="32" y="44.602"/><ellipse cx="47" cy="60.602" fill="#ADD1B2" rx="11" ry="11" style="stroke: #A80036; stroke-width: 1.0;"/><path d="M49.9688,66.2426 Q49.3906,66.5395 48.75,66.6801 Q48.1094,66.8364 47.4063,66.8364 Q44.9063,66.8364 43.5781,65.1957 Q42.2656,63.5395 42.2656,60.4145 Q42.2656,57.2895 43.5781,55.6332 Q44.9063,53.977 47.4063,53.977 Q48.1094,53.977 48.75,54.1332 Q49.4063,54.2895 49.9688,54.5864 L49.9688,57.3051 Q49.3438,56.727 48.75,56.4614 Q48.1563,56.1801 47.5313,56.1801 Q46.1875,56.1801 45.5,57.2582 Q44.8125,58.3207 44.8125,60.4145 Q44.8125,62.5082 45.5,63.5864 Q46.1875,64.6489 47.5313,64.6489 Q48.1563,64.6489 48.75,64.3832 Q49.3438,64.102 49.9688,63.5239 L49.9688,66.2426 Z "/><text fill="#000000" font-family="sans-serif" font-size="12" lengthAdjust="spacingAndGlyphs" textLength="134" x="61" y="65.258">RegisterShowRequestUI</text><line style="stroke: #A80036; stroke-width: 1.5;" x1="33" x2="197" y1="76.602" y2="76.602"/><line style="stroke: #A80036; stroke-width: 1.5;" x1="33" x2="197" y1="84.602" y2="84.602"/><ellipse cx="43" cy="95.602" fill="#84BE84" rx="3" ry="3" style="stroke: #038048; stroke-width: 1.0;"/><text fill="#000000" font-family="sans-serif" font-size="11" lengthAdjust="spacingAndGlyphs" textLength="54" x="52" y="100.3609">run(): void</text></a><!--MD5=[349843a5402cf1c817ed7cef1596aa8e]
class ui.CRMCollaboratorUI--><a href="CRMCollaboratorUI.html" target="_top" title="CRMCollaboratorUI.html" xlink:actuate="onRequest" xlink:href="CRMCollaboratorUI.html" xlink:show="new" xlink:title="CRMCollaboratorUI.html" xlink:type="simple"><rect codeLine="7" fill="#FEFECE" filter="url(#fxu28simik021)" height="62.9819" id="ui.CRMCollaboratorUI" style="stroke: #A80036; stroke-width: 1.5;" width="141" x="233.5" y="44.602"/><ellipse cx="248.5" cy="60.602" fill="#ADD1B2" rx="11" ry="11" style="stroke: #A80036; stroke-width: 1.0;"/><path d="M251.4688,66.2426 Q250.8906,66.5395 250.25,66.6801 Q249.6094,66.8364 248.9063,66.8364 Q246.4063,66.8364 245.0781,65.1957 Q243.7656,63.5395 243.7656,60.4145 Q243.7656,57.2895 245.0781,55.6332 Q246.4063,53.977 248.9063,53.977 Q249.6094,53.977 250.25,54.1332 Q250.9063,54.2895 251.4688,54.5864 L251.4688,57.3051 Q250.8438,56.727 250.25,56.4614 Q249.6563,56.1801 249.0313,56.1801 Q247.6875,56.1801 247,57.2582 Q246.3125,58.3207 246.3125,60.4145 Q246.3125,62.5082 247,63.5864 Q247.6875,64.6489 249.0313,64.6489 Q249.6563,64.6489 250.25,64.3832 Q250.8438,64.102 251.4688,63.5239 L251.4688,66.2426 Z "/><text fill="#000000" font-family="sans-serif" font-size="12" lengthAdjust="spacingAndGlyphs" textLength="109" x="262.5" y="65.258">CRMCollaboratorUI</text><line style="stroke: #A80036; stroke-width: 1.5;" x1="234.5" x2="373.5" y1="76.602" y2="76.602"/><line style="stroke: #A80036; stroke-width: 1.5;" x1="234.5" x2="373.5" y1="84.602" y2="84.602"/><ellipse cx="244.5" cy="95.602" fill="#84BE84" rx="3" ry="3" style="stroke: #038048; stroke-width: 1.0;"/><text fill="#000000" font-family="sans-serif" font-size="11" lengthAdjust="spacingAndGlyphs" textLength="54" x="253.5" y="100.3609">run(): void</text></a><!--MD5=[55895b14ffae7445c2d319334cd54855]
class ui.CRMManagerUI--><a href="CRMManagerUI.html" target="_top" title="CRMManagerUI.html" xlink:actuate="onRequest" xlink:href="CRMManagerUI.html" xlink:show="new" xlink:title="CRMManagerUI.html" xlink:type="simple"><rect codeLine="11" fill="#FEFECE" filter="url(#fxu28simik021)" height="62.9819" id="ui.CRMManagerUI" style="stroke: #A80036; stroke-width: 1.5;" width="122" x="410" y="44.602"/><ellipse cx="425" cy="60.602" fill="#ADD1B2" rx="11" ry="11" style="stroke: #A80036; stroke-width: 1.0;"/><path d="M427.9688,66.2426 Q427.3906,66.5395 426.75,66.6801 Q426.1094,66.8364 425.4063,66.8364 Q422.9063,66.8364 421.5781,65.1957 Q420.2656,63.5395 420.2656,60.4145 Q420.2656,57.2895 421.5781,55.6332 Q422.9063,53.977 425.4063,53.977 Q426.1094,53.977 426.75,54.1332 Q427.4063,54.2895 427.9688,54.5864 L427.9688,57.3051 Q427.3438,56.727 426.75,56.4614 Q426.1563,56.1801 425.5313,56.1801 Q424.1875,56.1801 423.5,57.2582 Q422.8125,58.3207 422.8125,60.4145 Q422.8125,62.5082 423.5,63.5864 Q424.1875,64.6489 425.5313,64.6489 Q426.1563,64.6489 426.75,64.3832 Q427.3438,64.102 427.9688,63.5239 L427.9688,66.2426 Z "/><text fill="#000000" font-family="sans-serif" font-size="12" lengthAdjust="spacingAndGlyphs" textLength="90" x="439" y="65.258">CRMManagerUI</text><line style="stroke: #A80036; stroke-width: 1.5;" x1="411" x2="531" y1="76.602" y2="76.602"/><line style="stroke: #A80036; stroke-width: 1.5;" x1="411" x2="531" y1="84.602" y2="84.602"/><ellipse cx="421" cy="95.602" fill="#84BE84" rx="3" ry="3" style="stroke: #038048; stroke-width: 1.0;"/><text fill="#000000" font-family="sans-serif" font-size="11" lengthAdjust="spacingAndGlyphs" textLength="54" x="430" y="100.3609">run(): void</text></a><!--MD5=[622f1fab38f322a4025136d8cc256b29]
class ui.RepresentativeUI--><a href="RepresentativeUI.html" target="_top" title="RepresentativeUI.html" xlink:actuate="onRequest" xlink:href="RepresentativeUI.html" xlink:show="new" xlink:title="RepresentativeUI.html" xlink:type="simple"><rect codeLine="15" fill="#FEFECE" filter="url(#fxu28simik021)" height="62.9819" id="ui.RepresentativeUI" style="stroke: #A80036; stroke-width: 1.5;" width="129" x="50.5" y="167.602"/><ellipse cx="65.5" cy="183.602" fill="#ADD1B2" rx="11" ry="11" style="stroke: #A80036; stroke-width: 1.0;"/><path d="M68.4688,189.2426 Q67.8906,189.5395 67.25,189.6801 Q66.6094,189.8364 65.9063,189.8364 Q63.4063,189.8364 62.0781,188.1957 Q60.7656,186.5395 60.7656,183.4145 Q60.7656,180.2895 62.0781,178.6332 Q63.4063,176.977 65.9063,176.977 Q66.6094,176.977 67.25,177.1332 Q67.9063,177.2895 68.4688,177.5864 L68.4688,180.3051 Q67.8438,179.727 67.25,179.4614 Q66.6563,179.1801 66.0313,179.1801 Q64.6875,179.1801 64,180.2582 Q63.3125,181.3207 63.3125,183.4145 Q63.3125,185.5082 64,186.5864 Q64.6875,187.6489 66.0313,187.6489 Q66.6563,187.6489 67.25,187.3832 Q67.8438,187.102 68.4688,186.5239 L68.4688,189.2426 Z "/><text fill="#000000" font-family="sans-serif" font-size="12" lengthAdjust="spacingAndGlyphs" textLength="97" x="79.5" y="188.258">RepresentativeUI</text><line style="stroke: #A80036; stroke-width: 1.5;" x1="51.5" x2="178.5" y1="199.602" y2="199.602"/><line style="stroke: #A80036; stroke-width: 1.5;" x1="51.5" x2="178.5" y1="207.602" y2="207.602"/><ellipse cx="61.5" cy="218.602" fill="#84BE84" rx="3" ry="3" style="stroke: #038048; stroke-width: 1.0;"/><text fill="#000000" font-family="sans-serif" font-size="11" lengthAdjust="spacingAndGlyphs" textLength="54" x="70.5" y="223.3609">run(): void</text></a><!--MD5=[8d996103350b9a904586d39ee3d95253]
class ui.AdminUI--><a href="AdminUI.html" target="_top" title="AdminUI.html" xlink:actuate="onRequest" xlink:href="AdminUI.html" xlink:show="new" xlink:title="AdminUI.html" xlink:type="simple"><rect codeLine="19" fill="#FEFECE" filter="url(#fxu28simik021)" height="62.9819" id="ui.AdminUI" style="stroke: #A80036; stroke-width: 1.5;" width="81" x="214.5" y="167.602"/><ellipse cx="229.5" cy="183.602" fill="#ADD1B2" rx="11" ry="11" style="stroke: #A80036; stroke-width: 1.0;"/><path d="M232.4688,189.2426 Q231.8906,189.5395 231.25,189.6801 Q230.6094,189.8364 229.9063,189.8364 Q227.4063,189.8364 226.0781,188.1957 Q224.7656,186.5395 224.7656,183.4145 Q224.7656,180.2895 226.0781,178.6332 Q227.4063,176.977 229.9063,176.977 Q230.6094,176.977 231.25,177.1332 Q231.9063,177.2895 232.4688,177.5864 L232.4688,180.3051 Q231.8438,179.727 231.25,179.4614 Q230.6563,179.1801 230.0313,179.1801 Q228.6875,179.1801 228,180.2582 Q227.3125,181.3207 227.3125,183.4145 Q227.3125,185.5082 228,186.5864 Q228.6875,187.6489 230.0313,187.6489 Q230.6563,187.6489 231.25,187.3832 Q231.8438,187.102 232.4688,186.5239 L232.4688,189.2426 Z "/><text fill="#000000" font-family="sans-serif" font-size="12" lengthAdjust="spacingAndGlyphs" textLength="49" x="243.5" y="188.258">AdminUI</text><line style="stroke: #A80036; stroke-width: 1.5;" x1="215.5" x2="294.5" y1="199.602" y2="199.602"/><line style="stroke: #A80036; stroke-width: 1.5;" x1="215.5" x2="294.5" y1="207.602" y2="207.602"/><ellipse cx="225.5" cy="218.602" fill="#84BE84" rx="3" ry="3" style="stroke: #038048; stroke-width: 1.0;"/><text fill="#000000" font-family="sans-serif" font-size="11" lengthAdjust="spacingAndGlyphs" textLength="54" x="234.5" y="223.3609">run(): void</text></a><!--MD5=[e5c18f7947efbfbe6c35cd67d56fcb3f]
class ui.ShowDesignerUI--><a href="ShowDesignerUI.html" target="_top" title="ShowDesignerUI.html" xlink:actuate="onRequest" xlink:href="ShowDesignerUI.html" xlink:show="new" xlink:title="ShowDesignerUI.html" xlink:type="simple"><rect codeLine="23" fill="#FEFECE" filter="url(#fxu28simik021)" height="62.9819" id="ui.ShowDesignerUI" style="stroke: #A80036; stroke-width: 1.5;" width="126" x="331" y="167.602"/><ellipse cx="346" cy="183.602" fill="#ADD1B2" rx="11" ry="11" style="stroke: #A80036; stroke-width: 1.0;"/><path d="M348.9688,189.2426 Q348.3906,189.5395 347.75,189.6801 Q347.1094,189.8364 346.4063,189.8364 Q343.9063,189.8364 342.5781,188.1957 Q341.2656,186.5395 341.2656,183.4145 Q341.2656,180.2895 342.5781,178.6332 Q343.9063,176.977 346.4063,176.977 Q347.1094,176.977 347.75,177.1332 Q348.4063,177.2895 348.9688,177.5864 L348.9688,180.3051 Q348.3438,179.727 347.75,179.4614 Q347.1563,179.1801 346.5313,179.1801 Q345.1875,179.1801 344.5,180.2582 Q343.8125,181.3207 343.8125,183.4145 Q343.8125,185.5082 344.5,186.5864 Q345.1875,187.6489 346.5313,187.6489 Q347.1563,187.6489 347.75,187.3832 Q348.3438,187.102 348.9688,186.5239 L348.9688,189.2426 Z "/><text fill="#000000" font-family="sans-serif" font-size="12" lengthAdjust="spacingAndGlyphs" textLength="94" x="360" y="188.258">ShowDesignerUI</text><line style="stroke: #A80036; stroke-width: 1.5;" x1="332" x2="456" y1="199.602" y2="199.602"/><line style="stroke: #A80036; stroke-width: 1.5;" x1="332" x2="456" y1="207.602" y2="207.602"/><ellipse cx="342" cy="218.602" fill="#84BE84" rx="3" ry="3" style="stroke: #038048; stroke-width: 1.0;"/><text fill="#000000" font-family="sans-serif" font-size="11" lengthAdjust="spacingAndGlyphs" textLength="54" x="351" y="223.3609">run(): void</text></a><!--MD5=[400297cc7794de262aff6c5dc8ad11d1]
link ui.RegisterShowRequestUI to ui.CRMCollaboratorUI--><!--MD5=[975610cdd676e7578f05fd6d1e8aae14]
link ui.CRMCollaboratorUI to ui.CRMManagerUI--><!--MD5=[694ad189d1e2f4b6944aa571ee54b754]
link ui.RegisterShowRequestUI to ui.RepresentativeUI--><!--MD5=[baef693fc438222bb02ad2ae428d4af9]
link ui.RepresentativeUI to ui.AdminUI--><!--MD5=[108383ccb00762214c50c64d158b521f]
link ui.AdminUI to ui.ShowDesignerUI--><text fill="#888888" font-family="sans-serif" font-size="10" lengthAdjust="spacingAndGlyphs" textLength="188" x="182" y="263.292">UMLDoclet 2.0.12, PlantUML 1.2020.16</text><!--MD5=[04b388b1ad90f16e9ab59061719a418e]
@startuml
    namespace ui {

        class RegisterShowRequestUI [[RegisterShowRequestUI.html]] {
            +run(): void
        }

        class CRMCollaboratorUI [[CRMCollaboratorUI.html]] {
            +run(): void
        }

        class CRMManagerUI [[CRMManagerUI.html]] {
            +run(): void
        }

        class RepresentativeUI [[RepresentativeUI.html]] {
            +run(): void
        }

        class AdminUI [[AdminUI.html]] {
            +run(): void
        }

        class ShowDesignerUI [[ShowDesignerUI.html]] {
            +run(): void
        }

    }

    center footer UMLDoclet 2.0.12, PlantUML 1.2020.16
@enduml

PlantUML version 1.2020.16(Sun Aug 23 21:20:43 WEST 2020)
(APACHE source distribution)
Java Runtime: Java(TM) SE Runtime Environment
JVM: Java HotSpot(TM) 64-Bit Server VM
Default Encoding: UTF-8
Language: en
Country: US
--></g></svg>