<?xml version="1.0" encoding="UTF-8" standalone="no"?><svg xmlns="http://www.w3.org/2000/svg" xmlns:xlink="http://www.w3.org/1999/xlink" contentScriptType="application/ecmascript" contentStyleType="text/css" height="276px" preserveAspectRatio="none" style="width:534px;height:276px;" version="1.1" viewBox="0 0 534 276" width="534px" zoomAndPan="magnify"><defs><filter height="300%" id="ffjpsyq3rppvp" width="300%" x="-1" y="-1"><feGaussianBlur result="blurOut" stdDeviation="2.0"/><feColorMatrix in="blurOut" result="blurOut2" type="matrix" values="0 0 0 0 0 0 0 0 0 0 0 0 0 0 0 0 0 0 .4 0"/><feOffset dx="4.0" dy="4.0" in="blurOut2" result="blurOut3"/><feBlend in="SourceGraphic" in2="blurOut3" mode="normal"/></filter></defs><g><!--MD5=[64e2e010ba86d7988e5cd73bd64f61f9]
cluster ui--><polygon fill="#FFFFFF" filter="url(#ffjpsyq3rppvp)" points="16,6.602,35,6.602,42,31.6699,512,31.6699,512,246.602,16,246.602,16,6.602" style="stroke: #000000; stroke-width: 1.5;"/><line style="stroke: #000000; stroke-width: 1.5;" x1="16" x2="42" y1="31.6699" y2="31.6699"/><text fill="#000000" font-family="sans-serif" font-size="14" font-weight="bold" lengthAdjust="spacingAndGlyphs" textLength="13" x="20" y="23.5679">ui</text><!--MD5=[349843a5402cf1c817ed7cef1596aa8e]
class ui.CRMCollaboratorUI--><a href="CRMCollaboratorUI.html" target="_top" title="CRMCollaboratorUI.html" xlink:actuate="onRequest" xlink:href="CRMCollaboratorUI.html" xlink:show="new" xlink:title="CRMCollaboratorUI.html" xlink:type="simple"><rect codeLine="3" fill="#FEFECE" filter="url(#ffjpsyq3rppvp)" height="62.9819" id="ui.CRMCollaboratorUI" style="stroke: #A80036; stroke-width: 1.5;" width="141" x="32.5" y="44.602"/><ellipse cx="47.5" cy="60.602" fill="#ADD1B2" rx="11" ry="11" style="stroke: #A80036; stroke-width: 1.0;"/><path d="M50.4688,66.2426 Q49.8906,66.5395 49.25,66.6801 Q48.6094,66.8364 47.9063,66.8364 Q45.4063,66.8364 44.0781,65.1957 Q42.7656,63.5395 42.7656,60.4145 Q42.7656,57.2895 44.0781,55.6332 Q45.4063,53.977 47.9063,53.977 Q48.6094,53.977 49.25,54.1332 Q49.9063,54.2895 50.4688,54.5864 L50.4688,57.3051 Q49.8438,56.727 49.25,56.4614 Q48.6563,56.1801 48.0313,56.1801 Q46.6875,56.1801 46,57.2582 Q45.3125,58.3207 45.3125,60.4145 Q45.3125,62.5082 46,63.5864 Q46.6875,64.6489 48.0313,64.6489 Q48.6563,64.6489 49.25,64.3832 Q49.8438,64.102 50.4688,63.5239 L50.4688,66.2426 Z "/><text fill="#000000" font-family="sans-serif" font-size="12" lengthAdjust="spacingAndGlyphs" textLength="109" x="61.5" y="65.258">CRMCollaboratorUI</text><line style="stroke: #A80036; stroke-width: 1.5;" x1="33.5" x2="172.5" y1="76.602" y2="76.602"/><line style="stroke: #A80036; stroke-width: 1.5;" x1="33.5" x2="172.5" y1="84.602" y2="84.602"/><ellipse cx="43.5" cy="95.602" fill="#84BE84" rx="3" ry="3" style="stroke: #038048; stroke-width: 1.0;"/><text fill="#000000" font-family="sans-serif" font-size="11" lengthAdjust="spacingAndGlyphs" textLength="54" x="52.5" y="100.3609">run(): void</text></a><!--MD5=[55895b14ffae7445c2d319334cd54855]
class ui.CRMManagerUI--><a href="CRMManagerUI.html" target="_top" title="CRMManagerUI.html" xlink:actuate="onRequest" xlink:href="CRMManagerUI.html" xlink:show="new" xlink:title="CRMManagerUI.html" xlink:type="simple"><rect codeLine="7" fill="#FEFECE" filter="url(#ffjpsyq3rppvp)" height="62.9819" id="ui.CRMManagerUI" style="stroke: #A80036; stroke-width: 1.5;" width="122" x="209" y="44.602"/><ellipse cx="224" cy="60.602" fill="#ADD1B2" rx="11" ry="11" style="stroke: #A80036; stroke-width: 1.0;"/><path d="M226.9688,66.2426 Q226.3906,66.5395 225.75,66.6801 Q225.1094,66.8364 224.4063,66.8364 Q221.9063,66.8364 220.5781,65.1957 Q219.2656,63.5395 219.2656,60.4145 Q219.2656,57.2895 220.5781,55.6332 Q221.9063,53.977 224.4063,53.977 Q225.1094,53.977 225.75,54.1332 Q226.4063,54.2895 226.9688,54.5864 L226.9688,57.3051 Q226.3438,56.727 225.75,56.4614 Q225.1563,56.1801 224.5313,56.1801 Q223.1875,56.1801 222.5,57.2582 Q221.8125,58.3207 221.8125,60.4145 Q221.8125,62.5082 222.5,63.5864 Q223.1875,64.6489 224.5313,64.6489 Q225.1563,64.6489 225.75,64.3832 Q226.3438,64.102 226.9688,63.5239 L226.9688,66.2426 Z "/><text fill="#000000" font-family="sans-serif" font-size="12" lengthAdjust="spacingAndGlyphs" textLength="90" x="238" y="65.258">CRMManagerUI</text><line style="stroke: #A80036; stroke-width: 1.5;" x1="210" x2="330" y1="76.602" y2="76.602"/><line style="stroke: #A80036; stroke-width: 1.5;" x1="210" x2="330" y1="84.602" y2="84.602"/><ellipse cx="220" cy="95.602" fill="#84BE84" rx="3" ry="3" style="stroke: #038048; stroke-width: 1.0;"/><text fill="#000000" font-family="sans-serif" font-size="11" lengthAdjust="spacingAndGlyphs" textLength="54" x="229" y="100.3609">run(): void</text></a><!--MD5=[622f1fab38f322a4025136d8cc256b29]
class ui.RepresentativeUI--><a href="RepresentativeUI.html" target="_top" title="RepresentativeUI.html" xlink:actuate="onRequest" xlink:href="RepresentativeUI.html" xlink:show="new" xlink:title="RepresentativeUI.html" xlink:type="simple"><rect codeLine="11" fill="#FEFECE" filter="url(#ffjpsyq3rppvp)" height="62.9819" id="ui.RepresentativeUI" style="stroke: #A80036; stroke-width: 1.5;" width="129" x="366.5" y="44.602"/><ellipse cx="381.5" cy="60.602" fill="#ADD1B2" rx="11" ry="11" style="stroke: #A80036; stroke-width: 1.0;"/><path d="M384.4688,66.2426 Q383.8906,66.5395 383.25,66.6801 Q382.6094,66.8364 381.9063,66.8364 Q379.4063,66.8364 378.0781,65.1957 Q376.7656,63.5395 376.7656,60.4145 Q376.7656,57.2895 378.0781,55.6332 Q379.4063,53.977 381.9063,53.977 Q382.6094,53.977 383.25,54.1332 Q383.9063,54.2895 384.4688,54.5864 L384.4688,57.3051 Q383.8438,56.727 383.25,56.4614 Q382.6563,56.1801 382.0313,56.1801 Q380.6875,56.1801 380,57.2582 Q379.3125,58.3207 379.3125,60.4145 Q379.3125,62.5082 380,63.5864 Q380.6875,64.6489 382.0313,64.6489 Q382.6563,64.6489 383.25,64.3832 Q383.8438,64.102 384.4688,63.5239 L384.4688,66.2426 Z "/><text fill="#000000" font-family="sans-serif" font-size="12" lengthAdjust="spacingAndGlyphs" textLength="97" x="395.5" y="65.258">RepresentativeUI</text><line style="stroke: #A80036; stroke-width: 1.5;" x1="367.5" x2="494.5" y1="76.602" y2="76.602"/><line style="stroke: #A80036; stroke-width: 1.5;" x1="367.5" x2="494.5" y1="84.602" y2="84.602"/><ellipse cx="377.5" cy="95.602" fill="#84BE84" rx="3" ry="3" style="stroke: #038048; stroke-width: 1.0;"/><text fill="#000000" font-family="sans-serif" font-size="11" lengthAdjust="spacingAndGlyphs" textLength="54" x="386.5" y="100.3609">run(): void</text></a><!--MD5=[8d996103350b9a904586d39ee3d95253]
class ui.AdminUI--><a href="AdminUI.html" target="_top" title="AdminUI.html" xlink:actuate="onRequest" xlink:href="AdminUI.html" xlink:show="new" xlink:title="AdminUI.html" xlink:type="simple"><rect codeLine="15" fill="#FEFECE" filter="url(#ffjpsyq3rppvp)" height="62.9819" id="ui.AdminUI" style="stroke: #A80036; stroke-width: 1.5;" width="81" x="62.5" y="167.602"/><ellipse cx="77.5" cy="183.602" fill="#ADD1B2" rx="11" ry="11" style="stroke: #A80036; stroke-width: 1.0;"/><path d="M80.4688,189.2426 Q79.8906,189.5395 79.25,189.6801 Q78.6094,189.8364 77.9063,189.8364 Q75.4063,189.8364 74.0781,188.1957 Q72.7656,186.5395 72.7656,183.4145 Q72.7656,180.2895 74.0781,178.6332 Q75.4063,176.977 77.9063,176.977 Q78.6094,176.977 79.25,177.1332 Q79.9063,177.2895 80.4688,177.5864 L80.4688,180.3051 Q79.8438,179.727 79.25,179.4614 Q78.6563,179.1801 78.0313,179.1801 Q76.6875,179.1801 76,180.2582 Q75.3125,181.3207 75.3125,183.4145 Q75.3125,185.5082 76,186.5864 Q76.6875,187.6489 78.0313,187.6489 Q78.6563,187.6489 79.25,187.3832 Q79.8438,187.102 80.4688,186.5239 L80.4688,189.2426 Z "/><text fill="#000000" font-family="sans-serif" font-size="12" lengthAdjust="spacingAndGlyphs" textLength="49" x="91.5" y="188.258">AdminUI</text><line style="stroke: #A80036; stroke-width: 1.5;" x1="63.5" x2="142.5" y1="199.602" y2="199.602"/><line style="stroke: #A80036; stroke-width: 1.5;" x1="63.5" x2="142.5" y1="207.602" y2="207.602"/><ellipse cx="73.5" cy="218.602" fill="#84BE84" rx="3" ry="3" style="stroke: #038048; stroke-width: 1.0;"/><text fill="#000000" font-family="sans-serif" font-size="11" lengthAdjust="spacingAndGlyphs" textLength="54" x="82.5" y="223.3609">run(): void</text></a><!--MD5=[e5c18f7947efbfbe6c35cd67d56fcb3f]
class ui.ShowDesignerUI--><a href="ShowDesignerUI.html" target="_top" title="ShowDesignerUI.html" xlink:actuate="onRequest" xlink:href="ShowDesignerUI.html" xlink:show="new" xlink:title="ShowDesignerUI.html" xlink:type="simple"><rect codeLine="19" fill="#FEFECE" filter="url(#ffjpsyq3rppvp)" height="62.9819" id="ui.ShowDesignerUI" style="stroke: #A80036; stroke-width: 1.5;" width="126" x="179" y="167.602"/><ellipse cx="194" cy="183.602" fill="#ADD1B2" rx="11" ry="11" style="stroke: #A80036; stroke-width: 1.0;"/><path d="M196.9688,189.2426 Q196.3906,189.5395 195.75,189.6801 Q195.1094,189.8364 194.4063,189.8364 Q191.9063,189.8364 190.5781,188.1957 Q189.2656,186.5395 189.2656,183.4145 Q189.2656,180.2895 190.5781,178.6332 Q191.9063,176.977 194.4063,176.977 Q195.1094,176.977 195.75,177.1332 Q196.4063,177.2895 196.9688,177.5864 L196.9688,180.3051 Q196.3438,179.727 195.75,179.4614 Q195.1563,179.1801 194.5313,179.1801 Q193.1875,179.1801 192.5,180.2582 Q191.8125,181.3207 191.8125,183.4145 Q191.8125,185.5082 192.5,186.5864 Q193.1875,187.6489 194.5313,187.6489 Q195.1563,187.6489 195.75,187.3832 Q196.3438,187.102 196.9688,186.5239 L196.9688,189.2426 Z "/><text fill="#000000" font-family="sans-serif" font-size="12" lengthAdjust="spacingAndGlyphs" textLength="94" x="208" y="188.258">ShowDesignerUI</text><line style="stroke: #A80036; stroke-width: 1.5;" x1="180" x2="304" y1="199.602" y2="199.602"/><line style="stroke: #A80036; stroke-width: 1.5;" x1="180" x2="304" y1="207.602" y2="207.602"/><ellipse cx="190" cy="218.602" fill="#84BE84" rx="3" ry="3" style="stroke: #038048; stroke-width: 1.0;"/><text fill="#000000" font-family="sans-serif" font-size="11" lengthAdjust="spacingAndGlyphs" textLength="54" x="199" y="223.3609">run(): void</text></a><!--MD5=[975610cdd676e7578f05fd6d1e8aae14]
link ui.CRMCollaboratorUI to ui.CRMManagerUI--><!--MD5=[d8868cc1b2c075d1a72affd944d3d425]
link ui.CRMManagerUI to ui.RepresentativeUI--><!--MD5=[2e2bee8e6b0082837b3f4a9566ae787c]
link ui.CRMCollaboratorUI to ui.AdminUI--><!--MD5=[108383ccb00762214c50c64d158b521f]
link ui.AdminUI to ui.ShowDesignerUI--><text fill="#888888" font-family="sans-serif" font-size="10" lengthAdjust="spacingAndGlyphs" textLength="188" x="164" y="263.292">UMLDoclet 2.0.12, PlantUML 1.2020.16</text><!--MD5=[64d5edeed5cd23b554938558d2ae2300]
@startuml
    namespace ui {

        class CRMCollaboratorUI [[CRMCollaboratorUI.html]] {
            +run(): void
        }

        class CRMManagerUI [[CRMManagerUI.html]] {
            +run(): void
        }

        class RepresentativeUI [[RepresentativeUI.html]] {
            +run(): void
        }

        class AdminUI [[AdminUI.html]] {
            +run(): void
        }

        class ShowDesignerUI [[ShowDesignerUI.html]] {
            +run(): void
        }

    }

    center footer UMLDoclet 2.0.12, PlantUML 1.2020.16
@enduml

PlantUML version 1.2020.16(Sun Aug 23 21:20:43 WEST 2020)
(APACHE source distribution)
Java Runtime: Java(TM) SE Runtime Environment
JVM: Java HotSpot(TM) 64-Bit Server VM
Default Encoding: UTF-8
Language: en
Country: US
--></g></svg>