<?xml version="1.0" encoding="UTF-8" standalone="no"?><svg xmlns="http://www.w3.org/2000/svg" xmlns:xlink="http://www.w3.org/1999/xlink" contentScriptType="application/ecmascript" contentStyleType="text/css" height="332px" preserveAspectRatio="none" style="width:762px;height:332px;" version="1.1" viewBox="0 0 762 332" width="762px" zoomAndPan="magnify"><defs><filter height="300%" id="fiheg1w1pz3hn" width="300%" x="-1" y="-1"><feGaussianBlur result="blurOut" stdDeviation="2.0"/><feColorMatrix in="blurOut" result="blurOut2" type="matrix" values="0 0 0 0 0 0 0 0 0 0 0 0 0 0 0 0 0 0 .4 0"/><feOffset dx="4.0" dy="4.0" in="blurOut2" result="blurOut3"/><feBlend in="SourceGraphic" in2="blurOut3" mode="normal"/></filter></defs><g><!--MD5=[64e2e010ba86d7988e5cd73bd64f61f9]
cluster ui--><polygon fill="#FFFFFF" filter="url(#fiheg1w1pz3hn)" points="16,6,36,6,43,28.4883,740,28.4883,740,303.69,16,303.69,16,6" style="stroke: #000000; stroke-width: 1.5;"/><line style="stroke: #000000; stroke-width: 1.5;" x1="16" x2="43" y1="28.4883" y2="28.4883"/><text fill="#000000" font-family="sans-serif" font-size="14" font-weight="bold" lengthAdjust="spacingAndGlyphs" textLength="14" x="20" y="21.5352">ui</text><!--MD5=[55895b14ffae7445c2d319334cd54855]
class ui.CRMManagerUI--><a href="CRMManagerUI.html" target="_top" title="CRMManagerUI.html" xlink:actuate="onRequest" xlink:href="CRMManagerUI.html" xlink:show="new" xlink:title="CRMManagerUI.html" xlink:type="simple"><rect codeLine="3" fill="#FEFECE" filter="url(#fiheg1w1pz3hn)" height="60.9551" id="ui.CRMManagerUI" style="stroke: #A80036; stroke-width: 1.5;" width="119" x="42.5" y="41"/><ellipse cx="57.5" cy="57" fill="#ADD1B2" rx="11" ry="11" style="stroke: #A80036; stroke-width: 1.0;"/><path d="M59.9731,63.1431 Q59.3921,63.4419 58.7529,63.5913 Q58.1138,63.7407 57.4082,63.7407 Q54.9014,63.7407 53.5815,62.0889 Q52.2617,60.437 52.2617,57.3159 Q52.2617,54.1865 53.5815,52.5347 Q54.9014,50.8828 57.4082,50.8828 Q58.1138,50.8828 58.7612,51.0322 Q59.4087,51.1816 59.9731,51.4805 L59.9731,54.2031 Q59.3423,53.6221 58.7488,53.3523 Q58.1553,53.0825 57.5244,53.0825 Q56.1797,53.0825 55.4949,54.1492 Q54.8101,55.2158 54.8101,57.3159 Q54.8101,59.4077 55.4949,60.4744 Q56.1797,61.541 57.5244,61.541 Q58.1553,61.541 58.7488,61.2712 Q59.3423,61.0015 59.9731,60.4204 Z "/><text fill="#000000" font-family="sans-serif" font-size="12" lengthAdjust="spacingAndGlyphs" textLength="87" x="71.5" y="61.5352">CRMManagerUI</text><line style="stroke: #A80036; stroke-width: 1.5;" x1="43.5" x2="160.5" y1="73" y2="73"/><line style="stroke: #A80036; stroke-width: 1.5;" x1="43.5" x2="160.5" y1="81" y2="81"/><ellipse cx="53.5" cy="92" fill="#84BE84" rx="3" ry="3" style="stroke: #038048; stroke-width: 1.0;"/><text fill="#000000" font-family="sans-serif" font-size="11" lengthAdjust="spacingAndGlyphs" textLength="56" x="62.5" y="95.6348">run(): void</text></a><!--MD5=[e5c18f7947efbfbe6c35cd67d56fcb3f]
class ui.ShowDesignerUI--><a href="ShowDesignerUI.html" target="_top" title="ShowDesignerUI.html" xlink:actuate="onRequest" xlink:href="ShowDesignerUI.html" xlink:show="new" xlink:title="ShowDesignerUI.html" xlink:type="simple"><rect codeLine="7" fill="#FEFECE" filter="url(#fiheg1w1pz3hn)" height="60.9551" id="ui.ShowDesignerUI" style="stroke: #A80036; stroke-width: 1.5;" width="123" x="196.5" y="41"/><ellipse cx="211.5" cy="57" fill="#ADD1B2" rx="11" ry="11" style="stroke: #A80036; stroke-width: 1.0;"/><path d="M213.9731,63.1431 Q213.3921,63.4419 212.7529,63.5913 Q212.1138,63.7407 211.4082,63.7407 Q208.9014,63.7407 207.5815,62.0889 Q206.2617,60.437 206.2617,57.3159 Q206.2617,54.1865 207.5815,52.5347 Q208.9014,50.8828 211.4082,50.8828 Q212.1138,50.8828 212.7612,51.0322 Q213.4087,51.1816 213.9731,51.4805 L213.9731,54.2031 Q213.3423,53.6221 212.7488,53.3523 Q212.1553,53.0825 211.5244,53.0825 Q210.1797,53.0825 209.4949,54.1492 Q208.8101,55.2158 208.8101,57.3159 Q208.8101,59.4077 209.4949,60.4744 Q210.1797,61.541 211.5244,61.541 Q212.1553,61.541 212.7488,61.2712 Q213.3423,61.0015 213.9731,60.4204 Z "/><text fill="#000000" font-family="sans-serif" font-size="12" lengthAdjust="spacingAndGlyphs" textLength="91" x="225.5" y="61.5352">ShowDesignerUI</text><line style="stroke: #A80036; stroke-width: 1.5;" x1="197.5" x2="318.5" y1="73" y2="73"/><line style="stroke: #A80036; stroke-width: 1.5;" x1="197.5" x2="318.5" y1="81" y2="81"/><ellipse cx="207.5" cy="92" fill="#84BE84" rx="3" ry="3" style="stroke: #038048; stroke-width: 1.0;"/><text fill="#000000" font-family="sans-serif" font-size="11" lengthAdjust="spacingAndGlyphs" textLength="56" x="216.5" y="95.6348">run(): void</text></a><!--MD5=[8d996103350b9a904586d39ee3d95253]
class ui.AdminUI--><a href="AdminUI.html" target="_top" title="AdminUI.html" xlink:actuate="onRequest" xlink:href="AdminUI.html" xlink:show="new" xlink:title="AdminUI.html" xlink:type="simple"><rect codeLine="11" fill="#FEFECE" filter="url(#fiheg1w1pz3hn)" height="60.9551" id="ui.AdminUI" style="stroke: #A80036; stroke-width: 1.5;" width="82" x="354" y="41"/><ellipse cx="369.9" cy="57" fill="#ADD1B2" rx="11" ry="11" style="stroke: #A80036; stroke-width: 1.0;"/><path d="M372.3731,63.1431 Q371.7921,63.4419 371.1529,63.5913 Q370.5138,63.7407 369.8082,63.7407 Q367.3014,63.7407 365.9815,62.0889 Q364.6617,60.437 364.6617,57.3159 Q364.6617,54.1865 365.9815,52.5347 Q367.3014,50.8828 369.8082,50.8828 Q370.5138,50.8828 371.1612,51.0322 Q371.8087,51.1816 372.3731,51.4805 L372.3731,54.2031 Q371.7423,53.6221 371.1488,53.3523 Q370.5553,53.0825 369.9244,53.0825 Q368.5797,53.0825 367.8949,54.1492 Q367.2101,55.2158 367.2101,57.3159 Q367.2101,59.4077 367.8949,60.4744 Q368.5797,61.541 369.9244,61.541 Q370.5553,61.541 371.1488,61.2712 Q371.7423,61.0015 372.3731,60.4204 Z "/><text fill="#000000" font-family="sans-serif" font-size="12" lengthAdjust="spacingAndGlyphs" textLength="48" x="384.1" y="61.5352">AdminUI</text><line style="stroke: #A80036; stroke-width: 1.5;" x1="355" x2="435" y1="73" y2="73"/><line style="stroke: #A80036; stroke-width: 1.5;" x1="355" x2="435" y1="81" y2="81"/><ellipse cx="365" cy="92" fill="#84BE84" rx="3" ry="3" style="stroke: #038048; stroke-width: 1.0;"/><text fill="#000000" font-family="sans-serif" font-size="11" lengthAdjust="spacingAndGlyphs" textLength="56" x="374" y="95.6348">run(): void</text></a><!--MD5=[349843a5402cf1c817ed7cef1596aa8e]
class ui.CRMCollaboratorUI--><a href="CRMCollaboratorUI.html" target="_top" title="CRMCollaboratorUI.html" xlink:actuate="onRequest" xlink:href="CRMCollaboratorUI.html" xlink:show="new" xlink:title="CRMCollaboratorUI.html" xlink:type="simple"><rect codeLine="15" fill="#FEFECE" filter="url(#fiheg1w1pz3hn)" height="60.9551" id="ui.CRMCollaboratorUI" style="stroke: #A80036; stroke-width: 1.5;" width="140" x="32" y="194.35"/><ellipse cx="47" cy="210.35" fill="#ADD1B2" rx="11" ry="11" style="stroke: #A80036; stroke-width: 1.0;"/><path d="M49.4731,216.4931 Q48.8921,216.7919 48.2529,216.9413 Q47.6138,217.0907 46.9082,217.0907 Q44.4014,217.0907 43.0815,215.4389 Q41.7617,213.787 41.7617,210.6659 Q41.7617,207.5365 43.0815,205.8847 Q44.4014,204.2328 46.9082,204.2328 Q47.6138,204.2328 48.2612,204.3822 Q48.9087,204.5316 49.4731,204.8305 L49.4731,207.5531 Q48.8423,206.9721 48.2488,206.7023 Q47.6553,206.4325 47.0244,206.4325 Q45.6797,206.4325 44.9949,207.4992 Q44.3101,208.5658 44.3101,210.6659 Q44.3101,212.7577 44.9949,213.8244 Q45.6797,214.891 47.0244,214.891 Q47.6553,214.891 48.2488,214.6212 Q48.8423,214.3515 49.4731,213.7704 Z "/><text fill="#000000" font-family="sans-serif" font-size="12" lengthAdjust="spacingAndGlyphs" textLength="108" x="61" y="214.8852">CRMCollaboratorUI</text><line style="stroke: #A80036; stroke-width: 1.5;" x1="33" x2="171" y1="226.35" y2="226.35"/><line style="stroke: #A80036; stroke-width: 1.5;" x1="33" x2="171" y1="234.35" y2="234.35"/><ellipse cx="43" cy="245.35" fill="#84BE84" rx="3" ry="3" style="stroke: #038048; stroke-width: 1.0;"/><text fill="#000000" font-family="sans-serif" font-size="11" lengthAdjust="spacingAndGlyphs" textLength="56" x="52" y="248.9848">run(): void</text></a><!--MD5=[729c8f430fe9cc58eca632f3568a3096]
class ui.RegisterShowRequestUI--><a href="RegisterShowRequestUI.html" target="_top" title="RegisterShowRequestUI.html" xlink:actuate="onRequest" xlink:href="RegisterShowRequestUI.html" xlink:show="new" xlink:title="RegisterShowRequestUI.html" xlink:type="simple"><rect codeLine="19" fill="#FEFECE" filter="url(#fiheg1w1pz3hn)" height="125.7305" id="ui.RegisterShowRequestUI" style="stroke: #A80036; stroke-width: 1.5;" width="352" x="207" y="161.96"/><ellipse cx="311.75" cy="177.96" fill="#ADD1B2" rx="11" ry="11" style="stroke: #A80036; stroke-width: 1.0;"/><path d="M314.2231,184.1031 Q313.6421,184.4019 313.0029,184.5513 Q312.3638,184.7007 311.6582,184.7007 Q309.1514,184.7007 307.8315,183.0489 Q306.5117,181.397 306.5117,178.2759 Q306.5117,175.1465 307.8315,173.4947 Q309.1514,171.8428 311.6582,171.8428 Q312.3638,171.8428 313.0112,171.9922 Q313.6587,172.1416 314.2231,172.4405 L314.2231,175.1631 Q313.5923,174.5821 312.9988,174.3123 Q312.4053,174.0425 311.7744,174.0425 Q310.4297,174.0425 309.7449,175.1092 Q309.0601,176.1758 309.0601,178.2759 Q309.0601,180.3677 309.7449,181.4344 Q310.4297,182.501 311.7744,182.501 Q312.4053,182.501 312.9988,182.2312 Q313.5923,181.9615 314.2231,181.3804 Z "/><text fill="#000000" font-family="sans-serif" font-size="12" lengthAdjust="spacingAndGlyphs" textLength="134" x="332.25" y="182.4952">RegisterShowRequestUI</text><line style="stroke: #A80036; stroke-width: 1.5;" x1="208" x2="558" y1="193.96" y2="193.96"/><rect fill="none" height="6" style="stroke: #C82930; stroke-width: 1.0;" width="6" x="215" y="201.96"/><text fill="#000000" font-family="sans-serif" font-size="11" lengthAdjust="spacingAndGlyphs" textLength="299" x="227" y="208.5948">registerShowcontroller: RegisterShowRequestController</text><rect fill="none" height="6" style="stroke: #C82930; stroke-width: 1.0;" width="6" x="215" y="214.9151"/><text fill="#000000" font-family="sans-serif" font-size="11" lengthAdjust="spacingAndGlyphs" textLength="265" x="227" y="221.5498">listcustomerscontroller: ListCostumersController</text><line style="stroke: #A80036; stroke-width: 1.5;" x1="208" x2="558" y1="227.8702" y2="227.8702"/><rect fill="#F24D5C" height="6" style="stroke: #C82930; stroke-width: 1.0;" width="6" x="215" y="235.8702"/><text fill="#000000" font-family="sans-serif" font-size="11" lengthAdjust="spacingAndGlyphs" textLength="326" x="227" y="242.5049">getRegisterShowcontroller(): RegisterShowRequestController</text><rect fill="#F24D5C" height="6" style="stroke: #C82930; stroke-width: 1.0;" width="6" x="215" y="248.8252"/><text fill="#000000" font-family="sans-serif" font-size="11" lengthAdjust="spacingAndGlyphs" textLength="293" x="227" y="255.46">getListcustomerscontroller(): ListCostumersController</text><ellipse cx="218" cy="264.7803" fill="#84BE84" rx="3" ry="3" style="stroke: #038048; stroke-width: 1.0;"/><text fill="#000000" font-family="sans-serif" font-size="11" lengthAdjust="spacingAndGlyphs" textLength="56" x="227" y="268.4151">run(): void</text><rect fill="#F24D5C" height="6" style="stroke: #C82930; stroke-width: 1.0;" width="6" x="215" y="274.7354"/><text fill="#000000" font-family="sans-serif" font-size="11" lengthAdjust="spacingAndGlyphs" textLength="139" x="227" y="281.3702">foundCustomersUI(): void</text></a><!--MD5=[622f1fab38f322a4025136d8cc256b29]
class ui.RepresentativeUI--><a href="RepresentativeUI.html" target="_top" title="RepresentativeUI.html" xlink:actuate="onRequest" xlink:href="RepresentativeUI.html" xlink:show="new" xlink:title="RepresentativeUI.html" xlink:type="simple"><rect codeLine="28" fill="#FEFECE" filter="url(#fiheg1w1pz3hn)" height="60.9551" id="ui.RepresentativeUI" style="stroke: #A80036; stroke-width: 1.5;" width="129" x="594.5" y="194.35"/><ellipse cx="609.5" cy="210.35" fill="#ADD1B2" rx="11" ry="11" style="stroke: #A80036; stroke-width: 1.0;"/><path d="M611.9731,216.4931 Q611.3921,216.7919 610.7529,216.9413 Q610.1138,217.0907 609.4082,217.0907 Q606.9014,217.0907 605.5815,215.4389 Q604.2617,213.787 604.2617,210.6659 Q604.2617,207.5365 605.5815,205.8847 Q606.9014,204.2328 609.4082,204.2328 Q610.1138,204.2328 610.7612,204.3822 Q611.4087,204.5316 611.9731,204.8305 L611.9731,207.5531 Q611.3423,206.9721 610.7488,206.7023 Q610.1553,206.4325 609.5244,206.4325 Q608.1797,206.4325 607.4949,207.4992 Q606.8101,208.5658 606.8101,210.6659 Q606.8101,212.7577 607.4949,213.8244 Q608.1797,214.891 609.5244,214.891 Q610.1553,214.891 610.7488,214.6212 Q611.3423,214.3515 611.9731,213.7704 Z "/><text fill="#000000" font-family="sans-serif" font-size="12" lengthAdjust="spacingAndGlyphs" textLength="97" x="623.5" y="214.8852">RepresentativeUI</text><line style="stroke: #A80036; stroke-width: 1.5;" x1="595.5" x2="722.5" y1="226.35" y2="226.35"/><line style="stroke: #A80036; stroke-width: 1.5;" x1="595.5" x2="722.5" y1="234.35" y2="234.35"/><ellipse cx="605.5" cy="245.35" fill="#84BE84" rx="3" ry="3" style="stroke: #038048; stroke-width: 1.0;"/><text fill="#000000" font-family="sans-serif" font-size="11" lengthAdjust="spacingAndGlyphs" textLength="56" x="614.5" y="248.9848">run(): void</text></a><!--MD5=[7b47803995298bb421e581be08cb19d4]
link ui.CRMManagerUI to ui.ShowDesignerUI--><!--MD5=[593a3b6abee6883f9507198c801b6afa]
link ui.ShowDesignerUI to ui.AdminUI--><!--MD5=[9699572e470affefd1ce497a72f12a56]
link ui.CRMManagerUI to ui.CRMCollaboratorUI--><!--MD5=[efb7616059ae66f1fab65551ad8f51c3]
link ui.CRMCollaboratorUI to ui.RegisterShowRequestUI--><!--MD5=[694ad189d1e2f4b6944aa571ee54b754]
link ui.RegisterShowRequestUI to ui.RepresentativeUI--><text fill="#888888" font-family="sans-serif" font-size="10" lengthAdjust="spacingAndGlyphs" textLength="188" x="278" y="319.358">UMLDoclet 2.0.12, PlantUML 1.2020.16</text><!--MD5=[8878dcb18bb10d64e5f083536ebb67e6]
@startuml
    namespace ui {

        class CRMManagerUI [[CRMManagerUI.html]] {
            +run(): void
        }

        class ShowDesignerUI [[ShowDesignerUI.html]] {
            +run(): void
        }

        class AdminUI [[AdminUI.html]] {
            +run(): void
        }

        class CRMCollaboratorUI [[CRMCollaboratorUI.html]] {
            +run(): void
        }

        class RegisterShowRequestUI [[RegisterShowRequestUI.html]] {
            -registerShowcontroller: RegisterShowRequestController
            -listcustomerscontroller: ListCostumersController
            -getRegisterShowcontroller(): RegisterShowRequestController
            -getListcustomerscontroller(): ListCostumersController
            +run(): void
            -foundCustomersUI(): void
        }

        class RepresentativeUI [[RepresentativeUI.html]] {
            +run(): void
        }

    }

    center footer UMLDoclet 2.0.12, PlantUML 1.2020.16
@enduml

PlantUML version 1.2020.16(Sun Aug 23 21:20:43 WEST 2020)
(APACHE source distribution)
Java Runtime: OpenJDK Runtime Environment
JVM: OpenJDK 64-Bit Server VM
Default Encoding: UTF-8
Language: pt
Country: PT
--></g></svg>