<?xml version="1.0" encoding="UTF-8" standalone="no"?><svg xmlns="http://www.w3.org/2000/svg" xmlns:xlink="http://www.w3.org/1999/xlink" contentScriptType="application/ecmascript" contentStyleType="text/css" height="235px" preserveAspectRatio="none" style="width:220px;height:235px;" version="1.1" viewBox="0 0 220 235" width="220px" zoomAndPan="magnify"><defs><filter height="300%" id="f1qmraq1ee5x6w" width="300%" x="-1" y="-1"><feGaussianBlur result="blurOut" stdDeviation="2.0"/><feColorMatrix in="blurOut" result="blurOut2" type="matrix" values="0 0 0 0 0 0 0 0 0 0 0 0 0 0 0 0 0 0 .4 0"/><feOffset dx="4.0" dy="4.0" in="blurOut2" result="blurOut3"/><feBlend in="SourceGraphic" in2="blurOut3" mode="normal"/></filter></defs><g><!--MD5=[729c8f430fe9cc58eca632f3568a3096]
class ui.RegisterShowRequestUI--><a href="RegisterShowRequestUI.html" target="_top" title="RegisterShowRequestUI.html" xlink:actuate="onRequest" xlink:href="RegisterShowRequestUI.html" xlink:show="new" xlink:title="RegisterShowRequestUI.html" xlink:type="simple"><rect codeLine="5" fill="#FEFECE" filter="url(#f1qmraq1ee5x6w)" height="65.6698" id="ui.RegisterShowRequestUI" style="stroke: #A80036; stroke-width: 1.5;" width="194" x="7" y="133"/><ellipse cx="22" cy="154.344" fill="#ADD1B2" rx="11" ry="11" style="stroke: #A80036; stroke-width: 1.0;"/><path d="M24.9688,159.9846 Q24.3906,160.2815 23.75,160.4221 Q23.1094,160.5783 22.4063,160.5783 Q19.9063,160.5783 18.5781,158.9377 Q17.2656,157.2815 17.2656,154.1565 Q17.2656,151.0315 18.5781,149.3752 Q19.9063,147.719 22.4063,147.719 Q23.1094,147.719 23.75,147.8752 Q24.4063,148.0315 24.9688,148.3283 L24.9688,151.0471 Q24.3438,150.469 23.75,150.2033 Q23.1563,149.9221 22.5313,149.9221 Q21.1875,149.9221 20.5,151.0002 Q19.8125,152.0627 19.8125,154.1565 Q19.8125,156.2502 20.5,157.3283 Q21.1875,158.3908 22.5313,158.3908 Q23.1563,158.3908 23.75,158.1252 Q24.3438,157.844 24.9688,157.2658 L24.9688,159.9846 Z "/><text fill="#000000" font-family="sans-serif" font-size="14" lengthAdjust="spacingAndGlyphs" textLength="162" x="36" y="152.9659">RegisterShowRequestUI</text><text fill="#000000" font-family="sans-serif" font-size="10" lengthAdjust="spacingAndGlyphs" textLength="9" x="112.5" y="167.7579">ui</text><line style="stroke: #A80036; stroke-width: 1.5;" x1="8" x2="200" y1="175.6879" y2="175.6879"/><ellipse cx="18" cy="186.6879" fill="#84BE84" rx="3" ry="3" style="stroke: #038048; stroke-width: 1.0;"/><text fill="#000000" font-family="sans-serif" font-size="11" lengthAdjust="spacingAndGlyphs" textLength="54" x="27" y="191.4468">run(): void</text></a><!--MD5=[8dac795f9edbf65a524ac462449c98fb]
class java.lang.Runnable--><rect codeLine="9" fill="#FEFECE" filter="url(#f1qmraq1ee5x6w)" height="65.6698" id="java.lang.Runnable" style="stroke: #A80036; stroke-width: 1.5;" width="91" x="58.5" y="7"/><ellipse cx="73.5" cy="28.344" fill="#B4A7E5" rx="11" ry="11" style="stroke: #A80036; stroke-width: 1.0;"/><path d="M69.4219,24.1096 L69.4219,21.9533 L76.8125,21.9533 L76.8125,24.1096 L74.3438,24.1096 L74.3438,32.1877 L76.8125,32.1877 L76.8125,34.344 L69.4219,34.344 L69.4219,32.1877 L71.8906,32.1877 L71.8906,24.1096 L69.4219,24.1096 Z "/><text fill="#000000" font-family="sans-serif" font-size="14" font-style="italic" lengthAdjust="spacingAndGlyphs" textLength="59" x="87.5" y="26.9659">Runnable</text><text fill="#000000" font-family="sans-serif" font-size="10" font-style="italic" lengthAdjust="spacingAndGlyphs" textLength="44" x="95" y="41.7579">java.lang</text><line style="stroke: #A80036; stroke-width: 1.5;" x1="59.5" x2="148.5" y1="49.6879" y2="49.6879"/><ellipse cx="69.5" cy="60.6879" fill="#84BE84" rx="3" ry="3" style="stroke: #038048; stroke-width: 1.0;"/><text fill="#000000" font-family="sans-serif" font-size="11" font-style="italic" lengthAdjust="spacingAndGlyphs" textLength="48" x="78.5" y="65.4468">run(): void</text><!--MD5=[10cda99dabaea892a1b35a643054f1d3]
reverse link java.lang.Runnable to ui.RegisterShowRequestUI--><path codeLine="13" d="M104,93.45 C104,106.85 104,120.87 104,132.91 " fill="none" id="java.lang.Runnable-backto-ui.RegisterShowRequestUI" style="stroke: #A80036; stroke-width: 1.0; stroke-dasharray: 7.0,7.0;"/><polygon fill="none" points="97,93.26,104,73.26,111,93.26,97,93.26" style="stroke: #A80036; stroke-width: 1.0;"/><text fill="#888888" font-family="sans-serif" font-size="10" lengthAdjust="spacingAndGlyphs" textLength="188" x="7" y="222.3598">UMLDoclet 2.0.12, PlantUML 1.2020.16</text><!--MD5=[79e8b4e37fa9c118988df96191b133e7]
@startuml
    set namespaceSeparator none
    hide empty fields
    hide empty methods

    class "<size:14>RegisterShowRequestUI\n<size:10>ui" as ui.RegisterShowRequestUI [[RegisterShowRequestUI.html]] {
        +run(): void
    }

    interface "<size:14>Runnable\n<size:10>java.lang" as java.lang.Runnable {
        {abstract} +run(): void
    }

    java.lang.Runnable <|.. ui.RegisterShowRequestUI

    center footer UMLDoclet 2.0.12, PlantUML 1.2020.16
@enduml

PlantUML version 1.2020.16(Sun Aug 23 21:20:43 WEST 2020)
(APACHE source distribution)
Java Runtime: Java(TM) SE Runtime Environment
JVM: Java HotSpot(TM) 64-Bit Server VM
Default Encoding: UTF-8
Language: en
Country: US
--></g></svg>