<?xml version="1.0" encoding="UTF-8" standalone="no"?><svg xmlns="http://www.w3.org/2000/svg" xmlns:xlink="http://www.w3.org/1999/xlink" contentScriptType="application/ecmascript" contentStyleType="text/css" height="294px" preserveAspectRatio="none" style="width:378px;height:294px;" version="1.1" viewBox="0 0 378 294" width="378px" zoomAndPan="magnify"><defs><filter height="300%" id="ffn9n0klri3ji" width="300%" x="-1" y="-1"><feGaussianBlur result="blurOut" stdDeviation="2.0"/><feColorMatrix in="blurOut" result="blurOut2" type="matrix" values="0 0 0 0 0 0 0 0 0 0 0 0 0 0 0 0 0 0 .4 0"/><feOffset dx="4.0" dy="4.0" in="blurOut2" result="blurOut3"/><feBlend in="SourceGraphic" in2="blurOut3" mode="normal"/></filter></defs><g><!--MD5=[729c8f430fe9cc58eca632f3568a3096]
class ui.RegisterShowRequestUI--><a href="RegisterShowRequestUI.html" target="_top" title="RegisterShowRequestUI.html" xlink:actuate="onRequest" xlink:href="RegisterShowRequestUI.html" xlink:show="new" xlink:title="RegisterShowRequestUI.html" xlink:type="simple"><rect codeLine="5" fill="#FEFECE" filter="url(#ffn9n0klri3ji)" height="131.9961" id="ui.RegisterShowRequestUI" style="stroke: #A80036; stroke-width: 1.5;" width="352" x="7" y="126.22"/><ellipse cx="97.75" cy="145.3528" fill="#ADD1B2" rx="11" ry="11" style="stroke: #A80036; stroke-width: 1.0;"/><path d="M100.2231,151.4959 Q99.6421,151.7947 99.0029,151.9441 Q98.3638,152.0935 97.6582,152.0935 Q95.1514,152.0935 93.8315,150.4417 Q92.5117,148.7898 92.5117,145.6687 Q92.5117,142.5393 93.8315,140.8875 Q95.1514,139.2356 97.6582,139.2356 Q98.3638,139.2356 99.0112,139.385 Q99.6587,139.5345 100.2231,139.8333 L100.2231,142.5559 Q99.5923,141.9749 98.9988,141.7051 Q98.4053,141.4353 97.7744,141.4353 Q96.4297,141.4353 95.7449,142.502 Q95.0601,143.5686 95.0601,145.6687 Q95.0601,147.7605 95.7449,148.8272 Q96.4297,149.8938 97.7744,149.8938 Q98.4053,149.8938 98.9988,149.6241 Q99.5923,149.3543 100.2231,148.7732 Z "/><text fill="#000000" font-family="sans-serif" font-size="14" lengthAdjust="spacingAndGlyphs" textLength="162" x="118.25" y="144.7552">RegisterShowRequestUI</text><text fill="#000000" font-family="sans-serif" font-size="10" lengthAdjust="spacingAndGlyphs" textLength="9" x="194.75" y="157.3763">ui</text><line style="stroke: #A80036; stroke-width: 1.5;" x1="8" x2="358" y1="164.4856" y2="164.4856"/><rect fill="none" height="6" style="stroke: #C82930; stroke-width: 1.0;" width="6" x="15" y="172.4856"/><text fill="#000000" font-family="sans-serif" font-size="11" lengthAdjust="spacingAndGlyphs" textLength="299" x="27" y="179.1204">registerShowcontroller: RegisterShowRequestController</text><rect fill="none" height="6" style="stroke: #C82930; stroke-width: 1.0;" width="6" x="15" y="185.4407"/><text fill="#000000" font-family="sans-serif" font-size="11" lengthAdjust="spacingAndGlyphs" textLength="265" x="27" y="192.0755">listcustomerscontroller: ListCostumersController</text><line style="stroke: #A80036; stroke-width: 1.5;" x1="8" x2="358" y1="198.3958" y2="198.3958"/><rect fill="#F24D5C" height="6" style="stroke: #C82930; stroke-width: 1.0;" width="6" x="15" y="206.3958"/><text fill="#000000" font-family="sans-serif" font-size="11" lengthAdjust="spacingAndGlyphs" textLength="326" x="27" y="213.0305">getRegisterShowcontroller(): RegisterShowRequestController</text><rect fill="#F24D5C" height="6" style="stroke: #C82930; stroke-width: 1.0;" width="6" x="15" y="219.3509"/><text fill="#000000" font-family="sans-serif" font-size="11" lengthAdjust="spacingAndGlyphs" textLength="293" x="27" y="225.9856">getListcustomerscontroller(): ListCostumersController</text><ellipse cx="18" cy="235.3059" fill="#84BE84" rx="3" ry="3" style="stroke: #038048; stroke-width: 1.0;"/><text fill="#000000" font-family="sans-serif" font-size="11" lengthAdjust="spacingAndGlyphs" textLength="56" x="27" y="238.9407">run(): void</text><rect fill="#F24D5C" height="6" style="stroke: #C82930; stroke-width: 1.0;" width="6" x="15" y="245.261"/><text fill="#000000" font-family="sans-serif" font-size="11" lengthAdjust="spacingAndGlyphs" textLength="139" x="27" y="251.8958">foundCustomersUI(): void</text></a><!--MD5=[8dac795f9edbf65a524ac462449c98fb]
class java.lang.Runnable--><rect codeLine="14" fill="#FEFECE" filter="url(#ffn9n0klri3ji)" height="59.2207" id="java.lang.Runnable" style="stroke: #A80036; stroke-width: 1.5;" width="97" x="134.5" y="7"/><ellipse cx="149.5" cy="26.1328" fill="#B4A7E5" rx="11" ry="11" style="stroke: #A80036; stroke-width: 1.0;"/><path d="M145.9277,22.3979 L145.9277,20.2397 L153.3071,20.2397 L153.3071,22.3979 L150.8418,22.3979 L150.8418,30.4746 L153.3071,30.4746 L153.3071,32.6328 L145.9277,32.6328 L145.9277,30.4746 L148.3931,30.4746 L148.3931,22.3979 Z "/><text fill="#000000" font-family="sans-serif" font-size="14" font-style="italic" lengthAdjust="spacingAndGlyphs" textLength="65" x="163.5" y="25.5352">Runnable</text><text fill="#000000" font-family="sans-serif" font-size="10" font-style="italic" lengthAdjust="spacingAndGlyphs" textLength="44" x="174" y="38.1563">java.lang</text><line style="stroke: #A80036; stroke-width: 1.5;" x1="135.5" x2="230.5" y1="45.2656" y2="45.2656"/><ellipse cx="145.5" cy="56.2656" fill="#84BE84" rx="3" ry="3" style="stroke: #038048; stroke-width: 1.0;"/><text fill="#000000" font-family="sans-serif" font-size="11" font-style="italic" lengthAdjust="spacingAndGlyphs" textLength="56" x="154.5" y="59.9004">run(): void</text><!--MD5=[10cda99dabaea892a1b35a643054f1d3]
reverse link java.lang.Runnable to ui.RegisterShowRequestUI--><path codeLine="18" d="M183,87.65 C183,99.84 183,113.06 183,125.84 " fill="none" id="java.lang.Runnable-backto-ui.RegisterShowRequestUI" style="stroke: #A80036; stroke-width: 1.0; stroke-dasharray: 7.0,7.0;"/><polygon fill="none" points="176,88.02,183,68.02,190,88.02,176,88.02" style="stroke: #A80036; stroke-width: 1.0;"/><text fill="#888888" font-family="sans-serif" font-size="10" lengthAdjust="spacingAndGlyphs" textLength="188" x="86" y="280.8841">UMLDoclet 2.0.12, PlantUML 1.2020.16</text><!--MD5=[f3514248a6cb61fd580047825f4b9fbe]
@startuml
    set namespaceSeparator none
    hide empty fields
    hide empty methods

    class "<size:14>RegisterShowRequestUI\n<size:10>ui" as ui.RegisterShowRequestUI [[RegisterShowRequestUI.html]] {
        -registerShowcontroller: RegisterShowRequestController
        -listcustomerscontroller: ListCostumersController
        -getRegisterShowcontroller(): RegisterShowRequestController
        -getListcustomerscontroller(): ListCostumersController
        +run(): void
        -foundCustomersUI(): void
    }

    interface "<size:14>Runnable\n<size:10>java.lang" as java.lang.Runnable {
        {abstract} +run(): void
    }

    java.lang.Runnable <|.. ui.RegisterShowRequestUI

    center footer UMLDoclet 2.0.12, PlantUML 1.2020.16
@enduml

PlantUML version 1.2020.16(Sun Aug 23 21:20:43 WEST 2020)
(APACHE source distribution)
Java Runtime: OpenJDK Runtime Environment
JVM: OpenJDK 64-Bit Server VM
Default Encoding: UTF-8
Language: pt
Country: PT
--></g></svg>