<?xml version="1.0" encoding="UTF-8" standalone="no"?><svg xmlns="http://www.w3.org/2000/svg" xmlns:xlink="http://www.w3.org/1999/xlink" contentScriptType="application/ecmascript" contentStyleType="text/css" height="221px" preserveAspectRatio="none" style="width:200px;height:221px;" version="1.1" viewBox="0 0 200 221" width="200px" zoomAndPan="magnify"><defs><filter height="300%" id="f1km6p66h4raba" width="300%" x="-1" y="-1"><feGaussianBlur result="blurOut" stdDeviation="2.0"/><feColorMatrix in="blurOut" result="blurOut2" type="matrix" values="0 0 0 0 0 0 0 0 0 0 0 0 0 0 0 0 0 0 .4 0"/><feOffset dx="4.0" dy="4.0" in="blurOut2" result="blurOut3"/><feBlend in="SourceGraphic" in2="blurOut3" mode="normal"/></filter></defs><g><!--MD5=[622f1fab38f322a4025136d8cc256b29]
class ui.RepresentativeUI--><a href="RepresentativeUI.html" target="_top" title="RepresentativeUI.html" xlink:actuate="onRequest" xlink:href="RepresentativeUI.html" xlink:show="new" xlink:title="RepresentativeUI.html" xlink:type="simple"><rect codeLine="5" fill="#FEFECE" filter="url(#f1km6p66h4raba)" height="59.2207" id="ui.RepresentativeUI" style="stroke: #A80036; stroke-width: 1.5;" width="147" x="23.5" y="126.22"/><ellipse cx="38.5" cy="145.3528" fill="#ADD1B2" rx="11" ry="11" style="stroke: #A80036; stroke-width: 1.0;"/><path d="M40.9731,151.4959 Q40.3921,151.7947 39.7529,151.9441 Q39.1138,152.0935 38.4082,152.0935 Q35.9014,152.0935 34.5815,150.4417 Q33.2617,148.7898 33.2617,145.6687 Q33.2617,142.5393 34.5815,140.8875 Q35.9014,139.2356 38.4082,139.2356 Q39.1138,139.2356 39.7612,139.385 Q40.4087,139.5345 40.9731,139.8333 L40.9731,142.5559 Q40.3423,141.9749 39.7488,141.7051 Q39.1553,141.4353 38.5244,141.4353 Q37.1797,141.4353 36.4949,142.502 Q35.8101,143.5686 35.8101,145.6687 Q35.8101,147.7605 36.4949,148.8272 Q37.1797,149.8938 38.5244,149.8938 Q39.1553,149.8938 39.7488,149.6241 Q40.3423,149.3543 40.9731,148.7732 Z "/><text fill="#000000" font-family="sans-serif" font-size="14" lengthAdjust="spacingAndGlyphs" textLength="115" x="52.5" y="144.7552">RepresentativeUI</text><text fill="#000000" font-family="sans-serif" font-size="10" lengthAdjust="spacingAndGlyphs" textLength="9" x="105.5" y="157.3763">ui</text><line style="stroke: #A80036; stroke-width: 1.5;" x1="24.5" x2="169.5" y1="164.4856" y2="164.4856"/><ellipse cx="34.5" cy="175.4856" fill="#84BE84" rx="3" ry="3" style="stroke: #038048; stroke-width: 1.0;"/><text fill="#000000" font-family="sans-serif" font-size="11" lengthAdjust="spacingAndGlyphs" textLength="56" x="43.5" y="179.1204">run(): void</text></a><!--MD5=[8dac795f9edbf65a524ac462449c98fb]
class java.lang.Runnable--><rect codeLine="9" fill="#FEFECE" filter="url(#f1km6p66h4raba)" height="59.2207" id="java.lang.Runnable" style="stroke: #A80036; stroke-width: 1.5;" width="97" x="48.5" y="7"/><ellipse cx="63.5" cy="26.1328" fill="#B4A7E5" rx="11" ry="11" style="stroke: #A80036; stroke-width: 1.0;"/><path d="M59.9277,22.3979 L59.9277,20.2397 L67.3071,20.2397 L67.3071,22.3979 L64.8418,22.3979 L64.8418,30.4746 L67.3071,30.4746 L67.3071,32.6328 L59.9277,32.6328 L59.9277,30.4746 L62.3931,30.4746 L62.3931,22.3979 Z "/><text fill="#000000" font-family="sans-serif" font-size="14" font-style="italic" lengthAdjust="spacingAndGlyphs" textLength="65" x="77.5" y="25.5352">Runnable</text><text fill="#000000" font-family="sans-serif" font-size="10" font-style="italic" lengthAdjust="spacingAndGlyphs" textLength="44" x="88" y="38.1563">java.lang</text><line style="stroke: #A80036; stroke-width: 1.5;" x1="49.5" x2="144.5" y1="45.2656" y2="45.2656"/><ellipse cx="59.5" cy="56.2656" fill="#84BE84" rx="3" ry="3" style="stroke: #038048; stroke-width: 1.0;"/><text fill="#000000" font-family="sans-serif" font-size="11" font-style="italic" lengthAdjust="spacingAndGlyphs" textLength="56" x="68.5" y="59.9004">run(): void</text><!--MD5=[717fbbbdc32e7104bf33416f9dc89d65]
reverse link java.lang.Runnable to ui.RepresentativeUI--><path codeLine="13" d="M97,88 C97,100.91 97,114.36 97,125.78 " fill="none" id="java.lang.Runnable-backto-ui.RepresentativeUI" style="stroke: #A80036; stroke-width: 1.0; stroke-dasharray: 7.0,7.0;"/><polygon fill="none" points="90,88.1,97,68.1,104,88.1,90,88.1" style="stroke: #A80036; stroke-width: 1.0;"/><text fill="#888888" font-family="sans-serif" font-size="10" lengthAdjust="spacingAndGlyphs" textLength="188" x="0" y="208.1087">UMLDoclet 2.0.12, PlantUML 1.2020.16</text><!--MD5=[b9241b1adc2941e3d8e28fb4c103aa80]
@startuml
    set namespaceSeparator none
    hide empty fields
    hide empty methods

    class "<size:14>RepresentativeUI\n<size:10>ui" as ui.RepresentativeUI [[RepresentativeUI.html]] {
        +run(): void
    }

    interface "<size:14>Runnable\n<size:10>java.lang" as java.lang.Runnable {
        {abstract} +run(): void
    }

    java.lang.Runnable <|.. ui.RepresentativeUI

    center footer UMLDoclet 2.0.12, PlantUML 1.2020.16
@enduml

PlantUML version 1.2020.16(Sun Aug 23 21:20:43 WEST 2020)
(APACHE source distribution)
Java Runtime: OpenJDK Runtime Environment
JVM: OpenJDK 64-Bit Server VM
Default Encoding: UTF-8
Language: pt
Country: PT
--></g></svg>