<?xml version="1.0" encoding="UTF-8" standalone="no"?><svg xmlns="http://www.w3.org/2000/svg" xmlns:xlink="http://www.w3.org/1999/xlink" contentScriptType="application/ecmascript" contentStyleType="text/css" height="221px" preserveAspectRatio="none" style="width:200px;height:221px;" version="1.1" viewBox="0 0 200 221" width="200px" zoomAndPan="magnify"><defs><filter height="300%" id="fh2uc26y3on6c" width="300%" x="-1" y="-1"><feGaussianBlur result="blurOut" stdDeviation="2.0"/><feColorMatrix in="blurOut" result="blurOut2" type="matrix" values="0 0 0 0 0 0 0 0 0 0 0 0 0 0 0 0 0 0 .4 0"/><feOffset dx="4.0" dy="4.0" in="blurOut2" result="blurOut3"/><feBlend in="SourceGraphic" in2="blurOut3" mode="normal"/></filter></defs><g><!--MD5=[e5c18f7947efbfbe6c35cd67d56fcb3f]
class ui.ShowDesignerUI--><a href="ShowDesignerUI.html" target="_top" title="ShowDesignerUI.html" xlink:actuate="onRequest" xlink:href="ShowDesignerUI.html" xlink:show="new" xlink:title="ShowDesignerUI.html" xlink:type="simple"><rect codeLine="5" fill="#FEFECE" filter="url(#fh2uc26y3on6c)" height="59.2207" id="ui.ShowDesignerUI" style="stroke: #A80036; stroke-width: 1.5;" width="144" x="25" y="126.22"/><ellipse cx="40" cy="145.3528" fill="#ADD1B2" rx="11" ry="11" style="stroke: #A80036; stroke-width: 1.0;"/><path d="M42.4731,151.4959 Q41.8921,151.7947 41.2529,151.9441 Q40.6138,152.0935 39.9082,152.0935 Q37.4014,152.0935 36.0815,150.4417 Q34.7617,148.7898 34.7617,145.6687 Q34.7617,142.5393 36.0815,140.8875 Q37.4014,139.2356 39.9082,139.2356 Q40.6138,139.2356 41.2612,139.385 Q41.9087,139.5345 42.4731,139.8333 L42.4731,142.5559 Q41.8423,141.9749 41.2488,141.7051 Q40.6553,141.4353 40.0244,141.4353 Q38.6797,141.4353 37.9949,142.502 Q37.3101,143.5686 37.3101,145.6687 Q37.3101,147.7605 37.9949,148.8272 Q38.6797,149.8938 40.0244,149.8938 Q40.6553,149.8938 41.2488,149.6241 Q41.8423,149.3543 42.4731,148.7732 Z "/><text fill="#000000" font-family="sans-serif" font-size="14" lengthAdjust="spacingAndGlyphs" textLength="112" x="54" y="144.7552">ShowDesignerUI</text><text fill="#000000" font-family="sans-serif" font-size="10" lengthAdjust="spacingAndGlyphs" textLength="9" x="105.5" y="157.3763">ui</text><line style="stroke: #A80036; stroke-width: 1.5;" x1="26" x2="168" y1="164.4856" y2="164.4856"/><ellipse cx="36" cy="175.4856" fill="#84BE84" rx="3" ry="3" style="stroke: #038048; stroke-width: 1.0;"/><text fill="#000000" font-family="sans-serif" font-size="11" lengthAdjust="spacingAndGlyphs" textLength="56" x="45" y="179.1204">run(): void</text></a><!--MD5=[8dac795f9edbf65a524ac462449c98fb]
class java.lang.Runnable--><rect codeLine="9" fill="#FEFECE" filter="url(#fh2uc26y3on6c)" height="59.2207" id="java.lang.Runnable" style="stroke: #A80036; stroke-width: 1.5;" width="97" x="48.5" y="7"/><ellipse cx="63.5" cy="26.1328" fill="#B4A7E5" rx="11" ry="11" style="stroke: #A80036; stroke-width: 1.0;"/><path d="M59.9277,22.3979 L59.9277,20.2397 L67.3071,20.2397 L67.3071,22.3979 L64.8418,22.3979 L64.8418,30.4746 L67.3071,30.4746 L67.3071,32.6328 L59.9277,32.6328 L59.9277,30.4746 L62.3931,30.4746 L62.3931,22.3979 Z "/><text fill="#000000" font-family="sans-serif" font-size="14" font-style="italic" lengthAdjust="spacingAndGlyphs" textLength="65" x="77.5" y="25.5352">Runnable</text><text fill="#000000" font-family="sans-serif" font-size="10" font-style="italic" lengthAdjust="spacingAndGlyphs" textLength="44" x="88" y="38.1563">java.lang</text><line style="stroke: #A80036; stroke-width: 1.5;" x1="49.5" x2="144.5" y1="45.2656" y2="45.2656"/><ellipse cx="59.5" cy="56.2656" fill="#84BE84" rx="3" ry="3" style="stroke: #038048; stroke-width: 1.0;"/><text fill="#000000" font-family="sans-serif" font-size="11" font-style="italic" lengthAdjust="spacingAndGlyphs" textLength="56" x="68.5" y="59.9004">run(): void</text><!--MD5=[97224cb5fd420308d2113aab6062073b]
reverse link java.lang.Runnable to ui.ShowDesignerUI--><path codeLine="13" d="M97,88 C97,100.91 97,114.36 97,125.78 " fill="none" id="java.lang.Runnable-backto-ui.ShowDesignerUI" style="stroke: #A80036; stroke-width: 1.0; stroke-dasharray: 7.0,7.0;"/><polygon fill="none" points="90,88.1,97,68.1,104,88.1,90,88.1" style="stroke: #A80036; stroke-width: 1.0;"/><text fill="#888888" font-family="sans-serif" font-size="10" lengthAdjust="spacingAndGlyphs" textLength="188" x="0" y="208.1087">UMLDoclet 2.0.12, PlantUML 1.2020.16</text><!--MD5=[e58956dfadcfbe7d16a4092490487f6d]
@startuml
    set namespaceSeparator none
    hide empty fields
    hide empty methods

    class "<size:14>ShowDesignerUI\n<size:10>ui" as ui.ShowDesignerUI [[ShowDesignerUI.html]] {
        +run(): void
    }

    interface "<size:14>Runnable\n<size:10>java.lang" as java.lang.Runnable {
        {abstract} +run(): void
    }

    java.lang.Runnable <|.. ui.ShowDesignerUI

    center footer UMLDoclet 2.0.12, PlantUML 1.2020.16
@enduml

PlantUML version 1.2020.16(Sun Aug 23 21:20:43 WEST 2020)
(APACHE source distribution)
Java Runtime: OpenJDK Runtime Environment
JVM: OpenJDK 64-Bit Server VM
Default Encoding: UTF-8
Language: pt
Country: PT
--></g></svg>