<svg xmlns="http://www.w3.org/2000/svg" xmlns:xlink="http://www.w3.org/1999/xlink" contentStyleType="text/css" height="741px" preserveAspectRatio="none" style="width:1864px;height:741px;background:#FFFFFF;" version="1.1" viewBox="0 0 1864 741" width="1864px" zoomAndPan="magnify"><title>UI Sequence Diagram (SSD) - List public figures in Figure Catalogue</title><defs/><g><text fill="#000000" font-family="sans-serif" font-size="14" font-weight="bold" lengthAdjust="spacing" textLength="466.2123" x="698.0177" y="29.9659">UI Sequence Diagram (SSD) - List public figures in Figure Catalogue</text><rect fill="#FFFFFF" height="505.9521" style="stroke:#181818;stroke-width:1.0;" width="10" x="52.4128" y="134.1358"/><rect fill="#FFFFFF" height="482.2461" style="stroke:#181818;stroke-width:1.0;" width="10" x="713.2302" y="157.8419"/><rect fill="#FFFFFF" height="345.4221" style="stroke:#181818;stroke-width:1.0;" width="10" x="1376.8165" y="262.9599"/><rect fill="#FFFFFF" height="169.5301" style="stroke:#181818;stroke-width:1.0;" width="10" x="1381.8165" y="305.0278"/><rect fill="#FFFFFF" height="31.706" style="stroke:#181818;stroke-width:1.0;" width="10" x="1554.3197" y="341.7338"/><rect fill="#FFFFFF" height="31.706" style="stroke:#181818;stroke-width:1.0;" width="10" x="1663.5933" y="405.1459"/><rect fill="#FFFFFF" height="31.706" style="stroke:#181818;stroke-width:1.0;" width="10" x="1788.239" y="544.9699"/><line style="stroke:#181818;stroke-width:0.5;stroke-dasharray:5.0,5.0;" x1="57" x2="57" y1="124.1358" y2="658.088"/><line style="stroke:#181818;stroke-width:0.5;stroke-dasharray:5.0,5.0;" x1="717.7634" x2="717.7634" y1="124.1358" y2="658.088"/><line style="stroke:#181818;stroke-width:0.5;stroke-dasharray:5.0,5.0;" x1="1381.7509" x2="1381.7509" y1="261.2878" y2="658.088"/><line style="stroke:#181818;stroke-width:0.5;stroke-dasharray:5.0,5.0;" x1="1558.6828" x2="1558.6828" y1="124.1358" y2="658.088"/><line style="stroke:#181818;stroke-width:0.5;stroke-dasharray:5.0,5.0;" x1="1667.9565" x2="1667.9565" y1="124.1358" y2="658.088"/><line style="stroke:#181818;stroke-width:0.5;stroke-dasharray:5.0,5.0;" x1="1793.2302" x2="1793.2302" y1="124.1358" y2="658.088"/><text fill="#000000" font-family="sans-serif" font-size="14" lengthAdjust="spacing" textLength="98.8256" x="5" y="120.0339">Show Designer</text><ellipse cx="57.4128" cy="53.5679" fill="#E3E3E3" rx="8" ry="8" style="stroke:#181818;stroke-width:0.5;"/><path d="M57.4128,61.5679 L57.4128,88.5679 M44.4128,69.5679 L70.4128,69.5679 M57.4128,88.5679 L44.4128,103.5679 M57.4128,88.5679 L70.4128,103.5679 " fill="none" style="stroke:#181818;stroke-width:0.5;"/><text fill="#000000" font-family="sans-serif" font-size="14" lengthAdjust="spacing" textLength="98.8256" x="5" y="672.0539">Show Designer</text><ellipse cx="57.4128" cy="684.6559" fill="#E3E3E3" rx="8" ry="8" style="stroke:#181818;stroke-width:0.5;"/><path d="M57.4128,692.6559 L57.4128,719.6559 M44.4128,700.6559 L70.4128,700.6559 M57.4128,719.6559 L44.4128,734.6559 M57.4128,719.6559 L70.4128,734.6559 " fill="none" style="stroke:#181818;stroke-width:0.5;"/><rect fill="#E3E3E3" height="33.0679" rx="2.5" ry="2.5" style="stroke:#181818;stroke-width:0.5;" width="136.9335" x="649.7634" y="90.0679"/><text fill="#000000" font-family="sans-serif" font-size="14" lengthAdjust="spacing" textLength="122.9335" x="656.7634" y="112.0339">:ListPublicFigureUI</text><rect fill="#E3E3E3" height="33.0679" rx="2.5" ry="2.5" style="stroke:#181818;stroke-width:0.5;" width="136.9335" x="649.7634" y="657.088"/><text fill="#000000" font-family="sans-serif" font-size="14" lengthAdjust="spacing" textLength="122.9335" x="656.7634" y="679.0539">:ListPublicFigureUI</text><rect fill="#E3E3E3" height="33.0679" rx="2.5" ry="2.5" style="stroke:#181818;stroke-width:0.5;" width="188.1313" x="1287.7509" y="657.088"/><text fill="#000000" font-family="sans-serif" font-size="14" lengthAdjust="spacing" textLength="174.1313" x="1294.7509" y="679.0539">:ListPublicFigureController</text><rect fill="#E3E3E3" height="33.0679" rx="2.5" ry="2.5" style="stroke:#181818;stroke-width:0.5;" width="99.2737" x="1509.6828" y="90.0679"/><text fill="#000000" font-family="sans-serif" font-size="14" lengthAdjust="spacing" textLength="85.2737" x="1516.6828" y="112.0339">:Repositories</text><rect fill="#E3E3E3" height="33.0679" rx="2.5" ry="2.5" style="stroke:#181818;stroke-width:0.5;" width="99.2737" x="1509.6828" y="657.088"/><text fill="#000000" font-family="sans-serif" font-size="14" lengthAdjust="spacing" textLength="85.2737" x="1516.6828" y="679.0539">:Repositories</text><rect fill="#E3E3E3" height="52.1358" rx="2.5" ry="2.5" style="stroke:#181818;stroke-width:0.5;" width="99.2737" x="1618.9565" y="71"/><text fill="#000000" font-family="sans-serif" font-size="14" lengthAdjust="spacing" textLength="78.5957" x="1629.2955" y="92.9659">repositories</text><text fill="#000000" font-family="sans-serif" font-size="14" lengthAdjust="spacing" textLength="85.2737" x="1625.9565" y="112.0339">:Repositories</text><rect fill="#E3E3E3" height="52.1358" rx="2.5" ry="2.5" style="stroke:#181818;stroke-width:0.5;" width="99.2737" x="1618.9565" y="657.088"/><text fill="#000000" font-family="sans-serif" font-size="14" lengthAdjust="spacing" textLength="78.5957" x="1629.2955" y="679.0539">repositories</text><text fill="#000000" font-family="sans-serif" font-size="14" lengthAdjust="spacing" textLength="85.2737" x="1625.9565" y="698.1218">:Repositories</text><rect fill="#E3E3E3" height="52.1358" rx="2.5" ry="2.5" style="stroke:#181818;stroke-width:0.5;" width="130.0176" x="1728.2302" y="71"/><text fill="#000000" font-family="sans-serif" font-size="14" lengthAdjust="spacing" textLength="109.8156" x="1738.3312" y="92.9659">figureRepository</text><text fill="#000000" font-family="sans-serif" font-size="14" lengthAdjust="spacing" textLength="116.0176" x="1735.2302" y="112.0339">:FigureRepository</text><rect fill="#E3E3E3" height="52.1358" rx="2.5" ry="2.5" style="stroke:#181818;stroke-width:0.5;" width="130.0176" x="1728.2302" y="657.088"/><text fill="#000000" font-family="sans-serif" font-size="14" lengthAdjust="spacing" textLength="109.8156" x="1738.3312" y="679.0539">figureRepository</text><text fill="#000000" font-family="sans-serif" font-size="14" lengthAdjust="spacing" textLength="116.0176" x="1735.2302" y="698.1218">:FigureRepository</text><rect fill="#FFFFFF" height="505.9521" style="stroke:#181818;stroke-width:1.0;" width="10" x="52.4128" y="134.1358"/><rect fill="#FFFFFF" height="482.2461" style="stroke:#181818;stroke-width:1.0;" width="10" x="713.2302" y="157.8419"/><rect fill="#FFFFFF" height="345.4221" style="stroke:#181818;stroke-width:1.0;" width="10" x="1376.8165" y="262.9599"/><rect fill="#FFFFFF" height="169.5301" style="stroke:#181818;stroke-width:1.0;" width="10" x="1381.8165" y="305.0278"/><rect fill="#FFFFFF" height="31.706" style="stroke:#181818;stroke-width:1.0;" width="10" x="1554.3197" y="341.7338"/><rect fill="#FFFFFF" height="31.706" style="stroke:#181818;stroke-width:1.0;" width="10" x="1663.5933" y="405.1459"/><rect fill="#FFFFFF" height="31.706" style="stroke:#181818;stroke-width:1.0;" width="10" x="1788.239" y="544.9699"/><polygon fill="#181818" points="701.2302,153.8419,711.2302,157.8419,701.2302,161.8419,705.2302,157.8419" style="stroke:#181818;stroke-width:1.0;"/><line style="stroke:#181818;stroke-width:1.0;" x1="62.4128" x2="707.2302" y1="157.8419" y2="157.8419"/><text fill="#000000" font-family="sans-serif" font-size="13" font-weight="bold" lengthAdjust="spacing" textLength="7.436" x="69.4128" y="152.0328">1</text><text fill="#000000" font-family="sans-serif" font-size="13" lengthAdjust="spacing" textLength="143.9231" x="80.8488" y="152.0328">ask to list public figures</text><polygon fill="#181818" points="73.4128,185.5479,63.4128,189.5479,73.4128,193.5479,69.4128,189.5479" style="stroke:#181818;stroke-width:1.0;"/><line style="stroke:#181818;stroke-width:1.0;" x1="67.4128" x2="712.2302" y1="189.5479" y2="189.5479"/><text fill="#000000" font-family="sans-serif" font-size="13" font-weight="bold" lengthAdjust="spacing" textLength="7.436" x="79.4128" y="183.7389">2</text><text fill="#000000" font-family="sans-serif" font-size="13" lengthAdjust="spacing" textLength="615.3813" x="90.8488" y="183.7389">ask for optional data (id, name, description, version, availability, category, dsl, status, page, pagesize)</text><polygon fill="#181818" points="701.2302,217.2539,711.2302,221.2539,701.2302,225.2539,705.2302,221.2539" style="stroke:#181818;stroke-width:1.0;"/><line style="stroke:#181818;stroke-width:1.0;" x1="62.4128" x2="707.2302" y1="221.2539" y2="221.2539"/><text fill="#000000" font-family="sans-serif" font-size="13" font-weight="bold" lengthAdjust="spacing" textLength="7.436" x="69.4128" y="215.4449">3</text><text fill="#000000" font-family="sans-serif" font-size="13" lengthAdjust="spacing" textLength="137.2281" x="80.8488" y="215.4449">provides optional data</text><polygon fill="#181818" points="1275.7509,248.9599,1285.7509,252.9599,1275.7509,256.9599,1279.7509,252.9599" style="stroke:#181818;stroke-width:1.0;"/><line style="stroke:#181818;stroke-width:1.0;" x1="723.2302" x2="1281.7509" y1="252.9599" y2="252.9599"/><text fill="#000000" font-family="sans-serif" font-size="13" font-weight="bold" lengthAdjust="spacing" textLength="7.436" x="730.2302" y="247.1509">4</text><text fill="#000000" font-family="sans-serif" font-size="13" lengthAdjust="spacing" textLength="38.259" x="741.6662" y="247.1509">create</text><rect fill="#E3E3E3" height="33.0679" rx="2.5" ry="2.5" style="stroke:#181818;stroke-width:0.5;" width="188.1313" x="1287.7509" y="229.2539"/><text fill="#000000" font-family="sans-serif" font-size="14" lengthAdjust="spacing" textLength="174.1313" x="1294.7509" y="251.2198">:ListPublicFigureController</text><line style="stroke:#181818;stroke-width:1.0;" x1="1386.8165" x2="1433.8165" y1="292.0278" y2="292.0278"/><line style="stroke:#181818;stroke-width:1.0;" x1="1433.8165" x2="1433.8165" y1="292.0278" y2="305.0278"/><line style="stroke:#181818;stroke-width:1.0;" x1="1392.8165" x2="1433.8165" y1="305.0278" y2="305.0278"/><polygon fill="#181818" points="1402.8165,301.0278,1392.8165,305.0278,1402.8165,309.0278,1398.8165,305.0278" style="stroke:#181818;stroke-width:1.0;"/><text fill="#000000" font-family="sans-serif" font-size="13" font-weight="bold" lengthAdjust="spacing" textLength="7.436" x="1398.8165" y="286.2188">5</text><text fill="#000000" font-family="sans-serif" font-size="13" lengthAdjust="spacing" textLength="132.0671" x="1410.2525" y="286.2188">getFigureRepository()</text><polygon fill="#181818" points="1542.3197,337.7338,1552.3197,341.7338,1542.3197,345.7338,1546.3197,341.7338" style="stroke:#181818;stroke-width:1.0;"/><line style="stroke:#181818;stroke-width:1.0;" x1="1391.8165" x2="1548.3197" y1="341.7338" y2="341.7338"/><text fill="#000000" font-family="sans-serif" font-size="13" font-weight="bold" lengthAdjust="spacing" textLength="7.436" x="1398.8165" y="335.9248">6</text><text fill="#000000" font-family="sans-serif" font-size="13" lengthAdjust="spacing" textLength="80.0801" x="1410.2525" y="335.9248">getInstance()</text><polygon fill="#181818" points="1402.8165,369.4398,1392.8165,373.4398,1402.8165,377.4398,1398.8165,373.4398" style="stroke:#181818;stroke-width:1.0;"/><line style="stroke:#181818;stroke-width:1.0;stroke-dasharray:2.0,2.0;" x1="1396.8165" x2="1558.3197" y1="373.4398" y2="373.4398"/><text fill="#000000" font-family="sans-serif" font-size="13" font-weight="bold" lengthAdjust="spacing" textLength="7.436" x="1408.8165" y="367.6308">7</text><text fill="#000000" font-family="sans-serif" font-size="13" lengthAdjust="spacing" textLength="72.9821" x="1420.2525" y="367.6308">repositories</text><polygon fill="#181818" points="1651.5933,401.1459,1661.5933,405.1459,1651.5933,409.1459,1655.5933,405.1459" style="stroke:#181818;stroke-width:1.0;"/><line style="stroke:#181818;stroke-width:1.0;" x1="1391.8165" x2="1657.5933" y1="405.1459" y2="405.1459"/><text fill="#000000" font-family="sans-serif" font-size="13" font-weight="bold" lengthAdjust="spacing" textLength="7.436" x="1398.8165" y="399.3369">8</text><text fill="#000000" font-family="sans-serif" font-size="13" lengthAdjust="spacing" textLength="132.0671" x="1410.2525" y="399.3369">getFigureRepository()</text><polygon fill="#181818" points="1402.8165,432.8519,1392.8165,436.8519,1402.8165,440.8519,1398.8165,436.8519" style="stroke:#181818;stroke-width:1.0;"/><line style="stroke:#181818;stroke-width:1.0;stroke-dasharray:2.0,2.0;" x1="1396.8165" x2="1667.5933" y1="436.8519" y2="436.8519"/><text fill="#000000" font-family="sans-serif" font-size="13" font-weight="bold" lengthAdjust="spacing" textLength="7.436" x="1408.8165" y="431.0429">9</text><text fill="#000000" font-family="sans-serif" font-size="13" lengthAdjust="spacing" textLength="101.9721" x="1420.2525" y="431.0429">figureRepository</text><line style="stroke:#181818;stroke-width:1.0;stroke-dasharray:2.0,2.0;" x1="1391.8165" x2="1433.8165" y1="473.5579" y2="473.5579"/><line style="stroke:#181818;stroke-width:1.0;stroke-dasharray:2.0,2.0;" x1="1433.8165" x2="1433.8165" y1="473.5579" y2="486.5579"/><line style="stroke:#181818;stroke-width:1.0;stroke-dasharray:2.0,2.0;" x1="1386.8165" x2="1433.8165" y1="486.5579" y2="486.5579"/><polygon fill="#181818" points="1396.8165,482.5579,1386.8165,486.5579,1396.8165,490.5579,1392.8165,486.5579" style="stroke:#181818;stroke-width:1.0;"/><text fill="#000000" font-family="sans-serif" font-size="13" font-weight="bold" lengthAdjust="spacing" textLength="14.872" x="1398.8165" y="467.7489">10</text><text fill="#000000" font-family="sans-serif" font-size="13" lengthAdjust="spacing" textLength="101.9721" x="1417.6885" y="467.7489">figureRepository</text><polygon fill="#181818" points="1364.8165,509.2639,1374.8165,513.2639,1364.8165,517.2639,1368.8165,513.2639" style="stroke:#181818;stroke-width:1.0;"/><line style="stroke:#181818;stroke-width:1.0;" x1="723.2302" x2="1370.8165" y1="513.2639" y2="513.2639"/><text fill="#000000" font-family="sans-serif" font-size="13" font-weight="bold" lengthAdjust="spacing" textLength="14.872" x="730.2302" y="507.4549">11</text><text fill="#000000" font-family="sans-serif" font-size="13" lengthAdjust="spacing" textLength="610.7144" x="749.1022" y="507.4549">displayPublicFigures(id, name, description, version, availability, category, dsl, status, page, pagesize)</text><polygon fill="#181818" points="1776.239,540.9699,1786.239,544.9699,1776.239,548.9699,1780.239,544.9699" style="stroke:#181818;stroke-width:1.0;"/><line style="stroke:#181818;stroke-width:1.0;" x1="1386.8165" x2="1782.239" y1="544.9699" y2="544.9699"/><text fill="#000000" font-family="sans-serif" font-size="13" font-weight="bold" lengthAdjust="spacing" textLength="14.872" x="1393.8165" y="539.1609">12</text><text fill="#000000" font-family="sans-serif" font-size="13" lengthAdjust="spacing" textLength="76.7131" x="1412.6885" y="539.1609">findFigures()</text><polygon fill="#181818" points="1397.8165,572.6759,1387.8165,576.6759,1397.8165,580.6759,1393.8165,576.6759" style="stroke:#181818;stroke-width:1.0;"/><line style="stroke:#181818;stroke-width:1.0;stroke-dasharray:2.0,2.0;" x1="1391.8165" x2="1792.239" y1="576.6759" y2="576.6759"/><text fill="#000000" font-family="sans-serif" font-size="13" font-weight="bold" lengthAdjust="spacing" textLength="14.872" x="1403.8165" y="570.8669">13</text><text fill="#000000" font-family="sans-serif" font-size="13" lengthAdjust="spacing" textLength="77.3111" x="1422.6885" y="570.8669">listOfFigures</text><polygon fill="#181818" points="734.2302,604.382,724.2302,608.382,734.2302,612.382,730.2302,608.382" style="stroke:#181818;stroke-width:1.0;"/><line style="stroke:#181818;stroke-width:1.0;" x1="728.2302" x2="1380.8165" y1="608.382" y2="608.382"/><text fill="#000000" font-family="sans-serif" font-size="13" font-weight="bold" lengthAdjust="spacing" textLength="14.872" x="740.2302" y="602.573">14</text><text fill="#000000" font-family="sans-serif" font-size="13" lengthAdjust="spacing" textLength="77.3111" x="759.1022" y="602.573">listOfFigures</text><polygon fill="#181818" points="68.4128,636.088,58.4128,640.088,68.4128,644.088,64.4128,640.088" style="stroke:#181818;stroke-width:1.0;"/><line style="stroke:#181818;stroke-width:1.0;" x1="62.4128" x2="717.2302" y1="640.088" y2="640.088"/><text fill="#000000" font-family="sans-serif" font-size="13" font-weight="bold" lengthAdjust="spacing" textLength="14.872" x="74.4128" y="634.279">15</text><text fill="#000000" font-family="sans-serif" font-size="13" lengthAdjust="spacing" textLength="182.9362" x="93.2848" y="634.279">shows list of searched Figures</text><!--SRC=[jLHDZzem4BtdLumumIhy0GwLAX0I4b9Nc-NMYqc6CCBOgUs0wA_ls84GaqIxb_eGnUDvps- -R4-aAc746SvQwVnez1d1cHeJsvvK8Z-94ZDtamW6SoTKARiEzYWAVILLma58YqdYoB7hRWCP_gbHvGWh4gLtdMRPQWPps99rKDLxIJaSgAmDMY05w_0BI-64r2MhI4JjjAhFUpJydpjjO98TzHLMQAbKQ2OWB0lGruSXOKsESgg4SZ1P-8lUmpqDzsuJ4BlD5tvBhPpHKjvlM7v-R5yG7rXfIwo8q0QVrd3Bo6U8XSSGqq7yLds2z-tFpnZHfEP9pAZrYoaWS-6y9QI8Bi9Xd984U7KjCF_XoxDWx0cS1jalHy2qT9olO60GGoEgXkJ0bT6L8ws4X8Bh1rCgKb3YZ2aKQ7D3uJI52neRViH5a1HxakHkgGy1Iuw7lQrCmJhXQfjoyvNOV2tznTbu99NH5-ABOXLTrRw6Rs_icXlao-80Gu63oI-_Uq0OKA9xJVjqrZgFS7Hv1bgZeTqe3fG7f4CNKGxrLEJfrn3x_Av-0TskYw05Vl-QHo2-HRzCI1H1QEgUvC3prFZQvsCw0rbVrxDIFQ9aW2MkqxCv5b2GhQIuTHy2-__wU2Z1zqdsaQZYeQ3ltiRIJZuChFjX9z5-q7yTrfqH7ydqWtTCvsxpIZPMi_vK33uYVckRXqWVmA8m-H4BQDaxZFmOTNRHI_SF]--></g></svg>