<svg xmlns="http://www.w3.org/2000/svg" xmlns:xlink="http://www.w3.org/1999/xlink" contentStyleType="text/css" height="444.6px" preserveAspectRatio="none" style="width:750px;height:444px;background:#FFFFFF;" version="1.1" viewBox="0 0 750 444" width="750.6px" zoomAndPan="magnify"><title>UI Sequence Diagram (SSD) - Disable/Enable User Flow (US212)</title><defs/><g><text fill="#000000" font-family="sans-serif" font-size="8.4" font-weight="bold" lengthAdjust="spacing" textLength="254.8711" x="245.7385" y="18.0645">UI Sequence Diagram (SSD) - Disable/Enable User Flow (US212)</text><rect fill="#FFFFFF" height="263.0484" style="stroke:#181818;stroke-width:0.6;" width="6" x="146.7217" y="121.0945"/><rect fill="#FFFFFF" height="37.5492" style="stroke:#181818;stroke-width:0.6;" width="6" x="267.518" y="139.8691"/><rect fill="#FFFFFF" height="18.7746" style="stroke:#181818;stroke-width:0.6;" width="6" x="371.3115" y="222.7676"/><rect fill="#FFFFFF" height="105.0516" style="stroke:#181818;stroke-width:0.6;" width="6" x="475.5788" y="260.3168"/><rect fill="#FFFFFF" height="37.7531" style="stroke:#181818;stroke-width:0.6;" width="6" x="547.8067" y="294.866"/><rect fill="#FFFFFF" height="18.7746" style="stroke:#181818;stroke-width:0.6;" width="6" x="600.017" y="158.6437"/><rect fill="none" height="59.1023" style="stroke:#000000;stroke-width:0.8999999999999999;" width="140.4768" x="429.3976" y="269.3168"/><line style="stroke:#181818;stroke-width:0.3;stroke-dasharray:5.0,5.0;" x1="26.4" x2="26.4" y1="73.9453" y2="394.943"/><line style="stroke:#181818;stroke-width:0.3;stroke-dasharray:5.0,5.0;" x1="149.6763" x2="149.6763" y1="73.9453" y2="394.943"/><line style="stroke:#181818;stroke-width:0.3;stroke-dasharray:5.0,5.0;" x1="270.4104" x2="270.4104" y1="73.9453" y2="394.943"/><line style="stroke:#181818;stroke-width:0.3;stroke-dasharray:5.0,5.0;" x1="373.8255" x2="373.8255" y1="73.9453" y2="394.943"/><line style="stroke:#181818;stroke-width:0.3;stroke-dasharray:5.0,5.0;" x1="477.9976" x2="477.9976" y1="73.9453" y2="394.943"/><line style="stroke:#181818;stroke-width:0.3;stroke-dasharray:5.0,5.0;" x1="550.3392" x2="550.3392" y1="73.9453" y2="394.943"/><line style="stroke:#181818;stroke-width:0.3;stroke-dasharray:5.0,5.0;" x1="602.8743" x2="602.8743" y1="73.9453" y2="394.943"/><line style="stroke:#181818;stroke-width:0.3;stroke-dasharray:5.0,5.0;" x1="692.5597" x2="692.5597" y1="73.9453" y2="394.943"/><text fill="#000000" font-family="sans-serif" font-size="8.4" lengthAdjust="spacing" textLength="43.8785" x="3" y="71.8371">Admin User</text><ellipse cx="26.7393" cy="31.8727" fill="#E3E3E3" rx="4.8" ry="4.8" style="stroke:#181818;stroke-width:0.3;"/><path d="M26.7393,36.6727 L26.7393,52.8727 M18.9393,41.4727 L34.5393,41.4727 M26.7393,52.8727 L18.9393,61.8727 M26.7393,52.8727 L34.5393,61.8727 " fill="none" style="stroke:#181818;stroke-width:0.3;"/><text fill="#000000" font-family="sans-serif" font-size="8.4" lengthAdjust="spacing" textLength="43.8785" x="3" y="403.4074">Admin User</text><ellipse cx="26.7393" cy="410.6156" fill="#E3E3E3" rx="4.8" ry="4.8" style="stroke:#181818;stroke-width:0.3;"/><path d="M26.7393,415.4156 L26.7393,431.6156 M18.9393,420.2156 L34.5393,420.2156 M26.7393,431.6156 L18.9393,440.6156 M26.7393,431.6156 L34.5393,440.6156 " fill="none" style="stroke:#181818;stroke-width:0.3;"/><rect fill="#E3E3E3" height="19.5727" rx="1.5" ry="1.5" style="stroke:#181818;stroke-width:0.3;" width="64.8908" x="117.2763" y="53.7727"/><text fill="#000000" font-family="sans-serif" font-size="8.4" lengthAdjust="spacing" textLength="56.4908" x="121.4763" y="67.0371">ManageUserUI</text><rect fill="#E3E3E3" height="19.5727" rx="1.5" ry="1.5" style="stroke:#181818;stroke-width:0.3;" width="64.8908" x="117.2763" y="394.343"/><text fill="#000000" font-family="sans-serif" font-size="8.4" lengthAdjust="spacing" textLength="56.4908" x="121.4763" y="407.6074">ManageUserUI</text><rect fill="#E3E3E3" height="19.5727" rx="1.5" ry="1.5" style="stroke:#181818;stroke-width:0.3;" width="85.415" x="227.8104" y="53.7727"/><text fill="#000000" font-family="sans-serif" font-size="8.4" lengthAdjust="spacing" textLength="77.015" x="232.0104" y="67.0371">FilterUsersController</text><rect fill="#E3E3E3" height="19.5727" rx="1.5" ry="1.5" style="stroke:#181818;stroke-width:0.3;" width="85.415" x="227.8104" y="394.343"/><text fill="#000000" font-family="sans-serif" font-size="8.4" lengthAdjust="spacing" textLength="77.015" x="232.0104" y="407.6074">FilterUsersController</text><rect fill="#E3E3E3" height="19.5727" rx="1.5" ry="1.5" style="stroke:#181818;stroke-width:0.3;" width="110.1721" x="319.2255" y="53.7727"/><text fill="#000000" font-family="sans-serif" font-size="8.4" lengthAdjust="spacing" textLength="101.7721" x="323.4255" y="67.0371">CheckUserStatusController</text><rect fill="#E3E3E3" height="19.5727" rx="1.5" ry="1.5" style="stroke:#181818;stroke-width:0.3;" width="110.1721" x="319.2255" y="394.343"/><text fill="#000000" font-family="sans-serif" font-size="8.4" lengthAdjust="spacing" textLength="101.7721" x="323.4255" y="407.6074">CheckUserStatusController</text><rect fill="#E3E3E3" height="19.5727" rx="1.5" ry="1.5" style="stroke:#181818;stroke-width:0.3;" width="86.3625" x="435.3976" y="53.7727"/><text fill="#000000" font-family="sans-serif" font-size="8.4" lengthAdjust="spacing" textLength="77.9625" x="439.5976" y="67.0371">UserStatusController</text><rect fill="#E3E3E3" height="19.5727" rx="1.5" ry="1.5" style="stroke:#181818;stroke-width:0.3;" width="86.3625" x="435.3976" y="394.343"/><text fill="#000000" font-family="sans-serif" font-size="8.4" lengthAdjust="spacing" textLength="77.9625" x="439.5976" y="407.6074">UserStatusController</text><rect fill="#E3E3E3" height="19.5727" rx="1.5" ry="1.5" style="stroke:#181818;stroke-width:0.3;" width="26.1352" x="537.7392" y="53.7727"/><text fill="#000000" font-family="sans-serif" font-size="8.4" lengthAdjust="spacing" textLength="17.7352" x="541.9392" y="67.0371">User</text><rect fill="#E3E3E3" height="19.5727" rx="1.5" ry="1.5" style="stroke:#181818;stroke-width:0.3;" width="26.1352" x="537.7392" y="394.343"/><text fill="#000000" font-family="sans-serif" font-size="8.4" lengthAdjust="spacing" textLength="17.7352" x="541.9392" y="407.6074">User</text><rect fill="#E3E3E3" height="19.5727" rx="1.5" ry="1.5" style="stroke:#181818;stroke-width:0.3;" width="66.2854" x="569.8743" y="53.7727"/><text fill="#000000" font-family="sans-serif" font-size="8.4" lengthAdjust="spacing" textLength="57.8854" x="574.0743" y="67.0371">UserRepository</text><rect fill="#E3E3E3" height="19.5727" rx="1.5" ry="1.5" style="stroke:#181818;stroke-width:0.3;" width="66.2854" x="569.8743" y="394.343"/><text fill="#000000" font-family="sans-serif" font-size="8.4" lengthAdjust="spacing" textLength="57.8854" x="574.0743" y="407.6074">UserRepository</text><rect fill="#E3E3E3" height="19.5727" rx="1.5" ry="1.5" style="stroke:#181818;stroke-width:0.3;" width="101.7885" x="642.1597" y="53.7727"/><text fill="#000000" font-family="sans-serif" font-size="8.4" lengthAdjust="spacing" textLength="93.3885" x="646.3597" y="67.0371">AuthenticationRepository</text><rect fill="#E3E3E3" height="19.5727" rx="1.5" ry="1.5" style="stroke:#181818;stroke-width:0.3;" width="101.7885" x="642.1597" y="394.343"/><text fill="#000000" font-family="sans-serif" font-size="8.4" lengthAdjust="spacing" textLength="93.3885" x="646.3597" y="407.6074">AuthenticationRepository</text><rect fill="#FFFFFF" height="263.0484" style="stroke:#181818;stroke-width:0.6;" width="6" x="146.7217" y="121.0945"/><rect fill="#FFFFFF" height="37.5492" style="stroke:#181818;stroke-width:0.6;" width="6" x="267.518" y="139.8691"/><rect fill="#FFFFFF" height="18.7746" style="stroke:#181818;stroke-width:0.6;" width="6" x="371.3115" y="222.7676"/><rect fill="#FFFFFF" height="105.0516" style="stroke:#181818;stroke-width:0.6;" width="6" x="475.5788" y="260.3168"/><rect fill="#FFFFFF" height="37.7531" style="stroke:#181818;stroke-width:0.6;" width="6" x="547.8067" y="294.866"/><rect fill="#FFFFFF" height="18.7746" style="stroke:#181818;stroke-width:0.6;" width="6" x="600.017" y="158.6437"/><rect fill="#EEEEEE" height="1.8" style="stroke:#EEEEEE;stroke-width:0.6;" width="746.9481" x="0" y="92.9326"/><line style="stroke:#000000;stroke-width:0.6;" x1="0" x2="746.9481" y1="92.9326" y2="92.9326"/><line style="stroke:#000000;stroke-width:0.6;" x1="0" x2="746.9481" y1="94.7326" y2="94.7326"/><rect fill="#EEEEEE" height="15.1746" style="stroke:#000000;stroke-width:1.2;" width="36.5646" x="355.1918" y="85.9453"/><text fill="#000000" font-family="sans-serif" font-size="7.8" font-weight="bold" lengthAdjust="spacing" textLength="25.9975" x="358.7918" y="96.7623">START</text><polygon fill="#181818" points="139.5217,118.6945,145.5217,121.0945,139.5217,123.4945,141.9217,121.0945" style="stroke:#181818;stroke-width:0.6;"/><line style="stroke:#181818;stroke-width:0.6;" x1="26.7393" x2="143.1217" y1="121.0945" y2="121.0945"/><text fill="#000000" font-family="sans-serif" font-size="7.8" font-weight="bold" lengthAdjust="spacing" textLength="4.338" x="30.9393" y="117.9369">1</text><text fill="#000000" font-family="sans-serif" font-size="7.8" lengthAdjust="spacing" textLength="16.4684" x="37.6772" y="117.9369">run()</text><polygon fill="#181818" points="260.318,137.4691,266.318,139.8691,260.318,142.2691,262.718,139.8691" style="stroke:#181818;stroke-width:0.6;"/><line style="stroke:#181818;stroke-width:0.6;" x1="152.7217" x2="263.918" y1="139.8691" y2="139.8691"/><text fill="#000000" font-family="sans-serif" font-size="7.8" font-weight="bold" lengthAdjust="spacing" textLength="4.338" x="156.9217" y="136.7115">2</text><text fill="#000000" font-family="sans-serif" font-size="7.8" lengthAdjust="spacing" textLength="96.6583" x="163.6597" y="136.7115">getUsersByFilter(filterIndex)</text><polygon fill="#181818" points="592.817,156.2438,598.817,158.6437,592.817,161.0438,595.217,158.6437" style="stroke:#181818;stroke-width:0.6;"/><line style="stroke:#181818;stroke-width:0.6;" x1="273.518" x2="596.417" y1="158.6437" y2="158.6437"/><text fill="#000000" font-family="sans-serif" font-size="7.8" font-weight="bold" lengthAdjust="spacing" textLength="4.338" x="277.718" y="155.4861">3</text><text fill="#000000" font-family="sans-serif" font-size="7.8" lengthAdjust="spacing" textLength="45.0747" x="284.456" y="155.4861">getAllUsers()</text><polygon fill="#181818" points="277.118,175.0184,271.118,177.4184,277.118,179.8184,274.718,177.4184" style="stroke:#181818;stroke-width:0.6;"/><line style="stroke:#181818;stroke-width:0.6;stroke-dasharray:2.0,2.0;" x1="273.518" x2="602.417" y1="177.4184" y2="177.4184"/><text fill="#000000" font-family="sans-serif" font-size="7.8" font-weight="bold" lengthAdjust="spacing" textLength="4.338" x="280.718" y="174.2607">4</text><text fill="#000000" font-family="sans-serif" font-size="7.8" lengthAdjust="spacing" textLength="37.7165" x="287.456" y="174.2607">List&lt;User&gt;</text><line style="stroke:#181818;stroke-width:0.6;" x1="152.7217" x2="177.9217" y1="196.193" y2="196.193"/><line style="stroke:#181818;stroke-width:0.6;" x1="177.9217" x2="177.9217" y1="196.193" y2="203.993"/><line style="stroke:#181818;stroke-width:0.6;" x1="153.3217" x2="177.9217" y1="203.993" y2="203.993"/><polygon fill="#181818" points="159.3217,201.593,153.3217,203.993,159.3217,206.393,156.9217,203.993" style="stroke:#181818;stroke-width:0.6;"/><text fill="#000000" font-family="sans-serif" font-size="7.8" font-weight="bold" lengthAdjust="spacing" textLength="4.338" x="156.9217" y="193.0354">5</text><text fill="#000000" font-family="sans-serif" font-size="7.8" lengthAdjust="spacing" textLength="91.0521" x="163.6597" y="193.0354">show list and get selection</text><polygon fill="#181818" points="364.1115,220.3676,370.1115,222.7676,364.1115,225.1676,366.5115,222.7676" style="stroke:#181818;stroke-width:0.6;"/><line style="stroke:#181818;stroke-width:0.6;" x1="152.7217" x2="367.7115" y1="222.7676" y2="222.7676"/><text fill="#000000" font-family="sans-serif" font-size="7.8" font-weight="bold" lengthAdjust="spacing" textLength="4.338" x="156.9217" y="219.61">6</text><text fill="#000000" font-family="sans-serif" font-size="7.8" lengthAdjust="spacing" textLength="63.7102" x="163.6597" y="219.61">isUserActive(user)</text><polygon fill="#181818" points="159.3217,239.1422,153.3217,241.5422,159.3217,243.9422,156.9217,241.5422" style="stroke:#181818;stroke-width:0.6;"/><line style="stroke:#181818;stroke-width:0.6;stroke-dasharray:2.0,2.0;" x1="155.7217" x2="373.7115" y1="241.5422" y2="241.5422"/><text fill="#000000" font-family="sans-serif" font-size="7.8" font-weight="bold" lengthAdjust="spacing" textLength="4.338" x="162.9217" y="238.3846">7</text><text fill="#000000" font-family="sans-serif" font-size="7.8" lengthAdjust="spacing" textLength="27.7608" x="169.6597" y="238.3846">boolean</text><polygon fill="#181818" points="468.3788,257.9168,474.3788,260.3168,468.3788,262.7168,470.7788,260.3168" style="stroke:#181818;stroke-width:0.6;"/><line style="stroke:#181818;stroke-width:0.6;" x1="152.7217" x2="471.9788" y1="260.3168" y2="260.3168"/><text fill="#000000" font-family="sans-serif" font-size="7.8" font-weight="bold" lengthAdjust="spacing" textLength="4.338" x="156.9217" y="257.1592">8</text><text fill="#000000" font-family="sans-serif" font-size="7.8" lengthAdjust="spacing" textLength="140.4495" x="163.6597" y="257.1592">changeUserStatus(user, !user.isActive())</text><path d="M429.3976,269.3168 L465.5001,269.3168 L465.5001,274.8914 L459.5001,280.8914 L429.3976,280.8914 L429.3976,269.3168 " fill="#EEEEEE" style="stroke:#000000;stroke-width:0.8999999999999999;"/><rect fill="none" height="59.1023" style="stroke:#000000;stroke-width:0.8999999999999999;" width="140.4768" x="429.3976" y="269.3168"/><text fill="#000000" font-family="sans-serif" font-size="7.8" font-weight="bold" lengthAdjust="spacing" textLength="9.1025" x="438.3976" y="278.3338">alt</text><text fill="#000000" font-family="sans-serif" font-size="6.6" font-weight="bold" lengthAdjust="spacing" textLength="35.2043" x="474.5001" y="277.6389">[activating]</text><polygon fill="#181818" points="540.6067,292.466,546.6067,294.866,540.6067,297.266,543.0067,294.866" style="stroke:#181818;stroke-width:0.6;"/><line style="stroke:#181818;stroke-width:0.6;" x1="481.5788" x2="544.2067" y1="294.866" y2="294.866"/><text fill="#000000" font-family="sans-serif" font-size="7.8" font-weight="bold" lengthAdjust="spacing" textLength="4.338" x="485.7788" y="291.7084">9</text><text fill="#000000" font-family="sans-serif" font-size="7.8" lengthAdjust="spacing" textLength="32.076" x="492.5168" y="291.7084">activate()</text><line style="stroke:#000000;stroke-width:0.6;stroke-dasharray:2.0,2.0;" x1="429.3976" x2="569.8743" y1="300.266" y2="300.266"/><text fill="#000000" font-family="sans-serif" font-size="6.6" font-weight="bold" lengthAdjust="spacing" textLength="42.9064" x="432.3976" y="307.3881">[deactivating]</text><polygon fill="#181818" points="540.6067,321.2191,546.6067,323.6191,540.6067,326.0191,543.0067,323.6191" style="stroke:#181818;stroke-width:0.6;"/><line style="stroke:#181818;stroke-width:0.6;" x1="481.5788" x2="544.2067" y1="323.6191" y2="323.6191"/><text fill="#000000" font-family="sans-serif" font-size="7.8" font-weight="bold" lengthAdjust="spacing" textLength="8.676" x="485.7788" y="320.4615">10</text><text fill="#000000" font-family="sans-serif" font-size="7.8" lengthAdjust="spacing" textLength="40.752" x="496.8548" y="320.4615">deactivate()</text><polygon fill="#181818" points="595.817,344.1937,601.817,346.5938,595.817,348.9938,598.217,346.5938" style="stroke:#181818;stroke-width:0.6;"/><line style="stroke:#181818;stroke-width:0.6;" x1="481.5788" x2="599.417" y1="346.5938" y2="346.5938"/><text fill="#000000" font-family="sans-serif" font-size="7.8" font-weight="bold" lengthAdjust="spacing" textLength="8.676" x="485.7788" y="343.4361">11</text><text fill="#000000" font-family="sans-serif" font-size="7.8" lengthAdjust="spacing" textLength="36.8443" x="496.8548" y="343.4361">save(user)</text><polygon fill="#181818" points="685.8539,362.9684,691.8539,365.3684,685.8539,367.7684,688.2539,365.3684" style="stroke:#181818;stroke-width:0.6;"/><line style="stroke:#181818;stroke-width:0.6;" x1="478.5788" x2="689.4539" y1="365.3684" y2="365.3684"/><text fill="#000000" font-family="sans-serif" font-size="7.8" font-weight="bold" lengthAdjust="spacing" textLength="8.676" x="482.7788" y="362.2107">12</text><text fill="#000000" font-family="sans-serif" font-size="7.8" lengthAdjust="spacing" textLength="100.1317" x="493.8548" y="362.2107">setUserActive(userId, status)</text><polygon fill="#181818" points="33.3393,381.743,27.3393,384.143,33.3393,386.543,30.9393,384.143" style="stroke:#181818;stroke-width:0.6;"/><line style="stroke:#181818;stroke-width:0.6;" x1="29.7393" x2="149.1217" y1="384.143" y2="384.143"/><text fill="#000000" font-family="sans-serif" font-size="7.8" font-weight="bold" lengthAdjust="spacing" textLength="8.676" x="36.9393" y="380.9854">13</text><text fill="#000000" font-family="sans-serif" font-size="7.8" lengthAdjust="spacing" textLength="94.5064" x="48.0152" y="380.9854">show success/fail message</text><!--SRC=[bLJBRjim4BppAxO-IK3Se3aMTG3LIG01xIMAFe2crX9XYdH5ggd_lalgHSlfeRg8uixCBcUNiYUfpxpZBRH66z5qfaLmNO_Cpf4p5oTUO-4k2g53uRYkLGom3Q_CkzGr7Bcoo9YJZg1b3WN-wb4BX2V9QmzDYk8fXIrzMtvGUF-i_GjAYnsyAFCEILayV7b86UEzCxfl3zZHMZZJmIQhMga3TWFSGayBHXKuAUIPQmURdrnJeHvGvW5IvjU05waS1GbWzqQxpYWrYXr3PEywTStODoXEdb0uxlerI_ZeBUcVU3jiVaYOp_IioR_BBU0LpyPASk8oG_tMDJ3hNOCa8BYJHgyev6aJA6otW-8jUts3tOunhmJRHz-mhz3rEac3vV8tTxwB3EYX624MbmXPemjEVhyCjYP3DDSL_aa3QHQ9t8NnYQH8U3hC89if5PIJbSnyv4bafctNnVsGrdtp8ey1NE778j5-L6Dquk29RMWo5Ia2rvKl42mgkWZaS8oTfu4eqlhacHV7nATS7MMP7B-zCBTJpeCn2hbULxdmeiJBM15HD7G_SHd1aFqEFldNPsd7aj9LFT5aJkPovQOutUrvspzHmh5vmz1I-abnxDqi5ji_JlWKG_ffB6VyZroBBr4srDMyNhLzbVTMUHn1ow-QTekTBfB73hSWwdHUtOtmbAtR5zaSzIzSm77CR2y4Mdj_v591Iolwep4MIPJvNm00]--></g></svg>