<svg xmlns="http://www.w3.org/2000/svg" xmlns:xlink="http://www.w3.org/1999/xlink" contentStyleType="text/css" height="650.4px" preserveAspectRatio="none" style="width:885px;height:650px;background:#FFFFFF;" version="1.1" viewBox="0 0 885 650" width="885px" zoomAndPan="magnify"><title>UI Sequence Diagram (SSD) - Generate Drone Program Flow (US344)</title><defs/><g><text fill="#000000" font-family="sans-serif" font-size="8.4" font-weight="bold" lengthAdjust="spacing" textLength="274.0008" x="303.1591" y="18.0645">UI Sequence Diagram (SSD) - Generate Drone Program Flow (US344)</text><rect fill="#FFFFFF" height="469.016" style="stroke:#181818;stroke-width:0.6;" width="6" x="184.7813" y="121.0945"/><rect fill="#FFFFFF" height="367.343" style="stroke:#181818;stroke-width:0.6;" width="6" x="369.7638" y="203.993"/><rect fill="#FFFFFF" height="18.7746" style="stroke:#181818;stroke-width:0.6;" width="6" x="508.5583" y="139.8691"/><rect fill="#FFFFFF" height="18.7746" style="stroke:#181818;stroke-width:0.6;" width="6" x="612.1427" y="319.6406"/><rect fill="#FFFFFF" height="18.7746" style="stroke:#181818;stroke-width:0.6;" width="6" x="717.1236" y="395.9391"/><rect fill="#FFFFFF" height="18.7746" style="stroke:#181818;stroke-width:0.6;" width="6" x="817.8984" y="433.4883"/><rect fill="none" height="30.3492" style="stroke:#000000;stroke-width:0.8999999999999999;" width="316.0345" x="129.2587" y="239.5676"/><rect fill="none" height="248.2699" style="stroke:#000000;stroke-width:0.8999999999999999;" width="757.6603" x="117.2587" y="278.3168"/><rect fill="none" height="228.2953" style="stroke:#000000;stroke-width:0.8999999999999999;" width="745.6603" x="123.2587" y="294.0914"/><rect fill="none" height="30.3492" style="stroke:#000000;stroke-width:0.8999999999999999;" width="316.0345" x="129.2587" y="347.4152"/><rect fill="none" height="30.3492" style="stroke:#000000;stroke-width:0.8999999999999999;" width="316.0345" x="129.2587" y="461.2629"/><line style="stroke:#181818;stroke-width:0.3;stroke-dasharray:5.0,5.0;" x1="26.4" x2="26.4" y1="73.9453" y2="600.9105"/><line style="stroke:#181818;stroke-width:0.3;stroke-dasharray:5.0,5.0;" x1="187.4587" x2="187.4587" y1="73.9453" y2="600.9105"/><line style="stroke:#181818;stroke-width:0.3;stroke-dasharray:5.0,5.0;" x1="372.2344" x2="372.2344" y1="73.9453" y2="600.9105"/><line style="stroke:#181818;stroke-width:0.3;stroke-dasharray:5.0,5.0;" x1="511.2006" x2="511.2006" y1="73.9453" y2="600.9105"/><line style="stroke:#181818;stroke-width:0.3;stroke-dasharray:5.0,5.0;" x1="615.116" x2="615.116" y1="73.9453" y2="600.9105"/><line style="stroke:#181818;stroke-width:0.3;stroke-dasharray:5.0,5.0;" x1="719.5693" x2="719.5693" y1="73.9453" y2="600.9105"/><line style="stroke:#181818;stroke-width:0.3;stroke-dasharray:5.0,5.0;" x1="820.8779" x2="820.8779" y1="73.9453" y2="600.9105"/><text fill="#000000" font-family="sans-serif" font-size="8.4" lengthAdjust="spacing" textLength="43.8867" x="3" y="71.8371">Drone Tech</text><ellipse cx="26.7434" cy="31.8727" fill="#E3E3E3" rx="4.8" ry="4.8" style="stroke:#181818;stroke-width:0.3;"/><path d="M26.7434,36.6727 L26.7434,52.8727 M18.9434,41.4727 L34.5434,41.4727 M26.7434,52.8727 L18.9434,61.8727 M26.7434,52.8727 L34.5434,61.8727 " fill="none" style="stroke:#181818;stroke-width:0.3;"/><text fill="#000000" font-family="sans-serif" font-size="8.4" lengthAdjust="spacing" textLength="43.8867" x="3" y="609.375">Drone Tech</text><ellipse cx="26.7434" cy="616.5832" fill="#E3E3E3" rx="4.8" ry="4.8" style="stroke:#181818;stroke-width:0.3;"/><path d="M26.7434,621.3832 L26.7434,637.5832 M18.9434,626.1832 L34.5434,626.1832 M26.7434,637.5832 L18.9434,646.5832 M26.7434,637.5832 L34.5434,646.5832 " fill="none" style="stroke:#181818;stroke-width:0.3;"/><rect fill="#E3E3E3" height="19.5727" rx="1.5" ry="1.5" style="stroke:#181818;stroke-width:0.3;" width="105.0451" x="135.2587" y="53.7727"/><text fill="#000000" font-family="sans-serif" font-size="8.4" lengthAdjust="spacing" textLength="96.6451" x="139.4587" y="67.0371">GenerateShowProgramUI</text><rect fill="#E3E3E3" height="19.5727" rx="1.5" ry="1.5" style="stroke:#181818;stroke-width:0.3;" width="105.0451" x="135.2587" y="600.3105"/><text fill="#000000" font-family="sans-serif" font-size="8.4" lengthAdjust="spacing" textLength="96.6451" x="139.4587" y="613.575">GenerateShowProgramUI</text><rect fill="#E3E3E3" height="19.5727" rx="1.5" ry="1.5" style="stroke:#181818;stroke-width:0.3;" width="133.0588" x="306.2344" y="53.7727"/><text fill="#000000" font-family="sans-serif" font-size="8.4" lengthAdjust="spacing" textLength="124.6588" x="310.4344" y="67.0371">GenerateShowProgramController</text><rect fill="#E3E3E3" height="19.5727" rx="1.5" ry="1.5" style="stroke:#181818;stroke-width:0.3;" width="133.0588" x="306.2344" y="600.3105"/><text fill="#000000" font-family="sans-serif" font-size="8.4" lengthAdjust="spacing" textLength="124.6588" x="310.4344" y="613.575">GenerateShowProgramController</text><rect fill="#E3E3E3" height="19.5727" rx="1.5" ry="1.5" style="stroke:#181818;stroke-width:0.3;" width="102.7154" x="460.2006" y="53.7727"/><text fill="#000000" font-family="sans-serif" font-size="8.4" lengthAdjust="spacing" textLength="94.3154" x="464.4006" y="67.0371">ShowProposalRepository</text><rect fill="#E3E3E3" height="19.5727" rx="1.5" ry="1.5" style="stroke:#181818;stroke-width:0.3;" width="102.7154" x="460.2006" y="600.3105"/><text fill="#000000" font-family="sans-serif" font-size="8.4" lengthAdjust="spacing" textLength="94.3154" x="464.4006" y="613.575">ShowProposalRepository</text><rect fill="#E3E3E3" height="19.5727" rx="1.5" ry="1.5" style="stroke:#181818;stroke-width:0.3;" width="92.4533" x="568.916" y="53.7727"/><text fill="#000000" font-family="sans-serif" font-size="8.4" lengthAdjust="spacing" textLength="84.0533" x="573.116" y="67.0371">FigureValidationPlugin</text><rect fill="#E3E3E3" height="19.5727" rx="1.5" ry="1.5" style="stroke:#181818;stroke-width:0.3;" width="92.4533" x="568.916" y="600.3105"/><text fill="#000000" font-family="sans-serif" font-size="8.4" lengthAdjust="spacing" textLength="84.0533" x="573.116" y="613.575">FigureValidationPlugin</text><rect fill="#E3E3E3" height="19.5727" rx="1.5" ry="1.5" style="stroke:#181818;stroke-width:0.3;" width="105.5086" x="667.3693" y="53.7727"/><text fill="#000000" font-family="sans-serif" font-size="8.4" lengthAdjust="spacing" textLength="97.1086" x="671.5693" y="67.0371">DroneProgramsGenerator</text><rect fill="#E3E3E3" height="19.5727" rx="1.5" ry="1.5" style="stroke:#181818;stroke-width:0.3;" width="105.5086" x="667.3693" y="600.3105"/><text fill="#000000" font-family="sans-serif" font-size="8.4" lengthAdjust="spacing" textLength="97.1086" x="671.5693" y="613.575">DroneProgramsGenerator</text><rect fill="#E3E3E3" height="19.5727" rx="1.5" ry="1.5" style="stroke:#181818;stroke-width:0.3;" width="84.041" x="778.8779" y="53.7727"/><text fill="#000000" font-family="sans-serif" font-size="8.4" lengthAdjust="spacing" textLength="75.641" x="783.0779" y="67.0371">DroneGenericPlugin</text><rect fill="#E3E3E3" height="19.5727" rx="1.5" ry="1.5" style="stroke:#181818;stroke-width:0.3;" width="84.041" x="778.8779" y="600.3105"/><text fill="#000000" font-family="sans-serif" font-size="8.4" lengthAdjust="spacing" textLength="75.641" x="783.0779" y="613.575">DroneGenericPlugin</text><rect fill="#FFFFFF" height="469.016" style="stroke:#181818;stroke-width:0.6;" width="6" x="184.7813" y="121.0945"/><rect fill="#FFFFFF" height="367.343" style="stroke:#181818;stroke-width:0.6;" width="6" x="369.7638" y="203.993"/><rect fill="#FFFFFF" height="18.7746" style="stroke:#181818;stroke-width:0.6;" width="6" x="508.5583" y="139.8691"/><rect fill="#FFFFFF" height="18.7746" style="stroke:#181818;stroke-width:0.6;" width="6" x="612.1427" y="319.6406"/><rect fill="#FFFFFF" height="18.7746" style="stroke:#181818;stroke-width:0.6;" width="6" x="717.1236" y="395.9391"/><rect fill="#FFFFFF" height="18.7746" style="stroke:#181818;stroke-width:0.6;" width="6" x="817.8984" y="433.4883"/><rect fill="#EEEEEE" height="1.8" style="stroke:#EEEEEE;stroke-width:0.6;" width="880.9189" x="0" y="92.9326"/><line style="stroke:#000000;stroke-width:0.6;" x1="0" x2="880.9189" y1="92.9326" y2="92.9326"/><line style="stroke:#000000;stroke-width:0.6;" x1="0" x2="880.9189" y1="94.7326" y2="94.7326"/><rect fill="#EEEEEE" height="15.1746" style="stroke:#000000;stroke-width:1.2;" width="36.5646" x="422.1772" y="85.9453"/><text fill="#000000" font-family="sans-serif" font-size="7.8" font-weight="bold" lengthAdjust="spacing" textLength="25.9975" x="425.7772" y="96.7623">START</text><polygon fill="#181818" points="177.5812,118.6945,183.5812,121.0945,177.5812,123.4945,179.9813,121.0945" style="stroke:#181818;stroke-width:0.6;"/><line style="stroke:#181818;stroke-width:0.6;" x1="26.7434" x2="181.1813" y1="121.0945" y2="121.0945"/><text fill="#000000" font-family="sans-serif" font-size="7.8" font-weight="bold" lengthAdjust="spacing" textLength="4.338" x="30.9434" y="117.9369">1</text><text fill="#000000" font-family="sans-serif" font-size="7.8" lengthAdjust="spacing" textLength="16.4684" x="37.6813" y="117.9369">run()</text><polygon fill="#181818" points="501.3583,137.4691,507.3583,139.8691,501.3583,142.2691,503.7583,139.8691" style="stroke:#181818;stroke-width:0.6;"/><line style="stroke:#181818;stroke-width:0.6;" x1="190.7813" x2="504.9583" y1="139.8691" y2="139.8691"/><text fill="#000000" font-family="sans-serif" font-size="7.8" font-weight="bold" lengthAdjust="spacing" textLength="4.338" x="194.9813" y="136.7115">2</text><text fill="#000000" font-family="sans-serif" font-size="7.8" lengthAdjust="spacing" textLength="78.4723" x="201.7192" y="136.7115">getCreatedProposals()</text><polygon fill="#181818" points="197.3813,156.2438,191.3813,158.6437,197.3813,161.0438,194.9813,158.6437" style="stroke:#181818;stroke-width:0.6;"/><line style="stroke:#181818;stroke-width:0.6;stroke-dasharray:2.0,2.0;" x1="193.7813" x2="510.9583" y1="158.6437" y2="158.6437"/><text fill="#000000" font-family="sans-serif" font-size="7.8" font-weight="bold" lengthAdjust="spacing" textLength="4.338" x="200.9813" y="155.4861">3</text><text fill="#000000" font-family="sans-serif" font-size="7.8" lengthAdjust="spacing" textLength="71.5444" x="207.7192" y="155.4861">List&lt;ShowProposal&gt;</text><line style="stroke:#181818;stroke-width:0.6;" x1="190.7813" x2="215.9813" y1="177.4184" y2="177.4184"/><line style="stroke:#181818;stroke-width:0.6;" x1="215.9813" x2="215.9813" y1="177.4184" y2="185.2184"/><line style="stroke:#181818;stroke-width:0.6;" x1="191.3813" x2="215.9813" y1="185.2184" y2="185.2184"/><polygon fill="#181818" points="197.3813,182.8184,191.3813,185.2184,197.3813,187.6184,194.9813,185.2184" style="stroke:#181818;stroke-width:0.6;"/><text fill="#000000" font-family="sans-serif" font-size="7.8" font-weight="bold" lengthAdjust="spacing" textLength="4.338" x="194.9813" y="174.2607">4</text><text fill="#000000" font-family="sans-serif" font-size="7.8" lengthAdjust="spacing" textLength="106.4426" x="201.7192" y="174.2607">show proposal list + select one</text><polygon fill="#181818" points="362.5638,201.593,368.5638,203.993,362.5638,206.393,364.9638,203.993" style="stroke:#181818;stroke-width:0.6;"/><line style="stroke:#181818;stroke-width:0.6;" x1="190.7813" x2="366.1638" y1="203.993" y2="203.993"/><text fill="#000000" font-family="sans-serif" font-size="7.8" font-weight="bold" lengthAdjust="spacing" textLength="4.338" x="194.9813" y="200.8354">5</text><text fill="#000000" font-family="sans-serif" font-size="7.8" lengthAdjust="spacing" textLength="160.8445" x="201.7192" y="200.8354">generateProgramsForShow(selectedProposal)</text><line style="stroke:#181818;stroke-width:0.6;" x1="375.7638" x2="400.9638" y1="222.7676" y2="222.7676"/><line style="stroke:#181818;stroke-width:0.6;" x1="400.9638" x2="400.9638" y1="222.7676" y2="230.5676"/><line style="stroke:#181818;stroke-width:0.6;" x1="376.3638" x2="400.9638" y1="230.5676" y2="230.5676"/><polygon fill="#181818" points="382.3638,228.1676,376.3638,230.5676,382.3638,232.9676,379.9638,230.5676" style="stroke:#181818;stroke-width:0.6;"/><text fill="#000000" font-family="sans-serif" font-size="7.8" font-weight="bold" lengthAdjust="spacing" textLength="4.338" x="379.9638" y="219.61">6</text><text fill="#000000" font-family="sans-serif" font-size="7.8" lengthAdjust="spacing" textLength="91.4824" x="386.7018" y="219.61">validate proposal structure</text><path d="M129.2587,239.5676 L165.3612,239.5676 L165.3612,245.1422 L159.3612,251.1422 L129.2587,251.1422 L129.2587,239.5676 " fill="#EEEEEE" style="stroke:#000000;stroke-width:0.8999999999999999;"/><rect fill="none" height="30.3492" style="stroke:#000000;stroke-width:0.8999999999999999;" width="316.0345" x="129.2587" y="239.5676"/><text fill="#000000" font-family="sans-serif" font-size="7.8" font-weight="bold" lengthAdjust="spacing" textLength="9.1025" x="138.2587" y="248.5846">alt</text><text fill="#000000" font-family="sans-serif" font-size="6.6" font-weight="bold" lengthAdjust="spacing" textLength="44.7401" x="174.3612" y="247.8896">[missing data]</text><polygon fill="#181818" points="197.3813,262.7168,191.3813,265.1168,197.3813,267.5168,194.9813,265.1168" style="stroke:#181818;stroke-width:0.6;"/><line style="stroke:#181818;stroke-width:0.6;stroke-dasharray:2.0,2.0;" x1="193.7813" x2="369.1638" y1="265.1168" y2="265.1168"/><text fill="#000000" font-family="sans-serif" font-size="7.8" font-weight="bold" lengthAdjust="spacing" textLength="4.338" x="200.9813" y="261.9592">7</text><text fill="#000000" font-family="sans-serif" font-size="7.8" lengthAdjust="spacing" textLength="102.2112" x="207.7192" y="261.9592">error("Invalid show proposal")</text><path d="M117.2587,278.3168 L160.7194,278.3168 L160.7194,283.8914 L154.7194,289.8914 L117.2587,289.8914 L117.2587,278.3168 " fill="#EEEEEE" style="stroke:#000000;stroke-width:0.8999999999999999;"/><rect fill="none" height="248.2699" style="stroke:#000000;stroke-width:0.8999999999999999;" width="757.6603" x="117.2587" y="278.3168"/><text fill="#000000" font-family="sans-serif" font-size="7.8" font-weight="bold" lengthAdjust="spacing" textLength="16.4607" x="126.2587" y="287.3338">loop</text><text fill="#000000" font-family="sans-serif" font-size="6.6" font-weight="bold" lengthAdjust="spacing" textLength="70.038" x="169.7194" y="286.6389">[for each DroneModel]</text><path d="M123.2587,294.0914 L166.7194,294.0914 L166.7194,299.666 L160.7194,305.666 L123.2587,305.666 L123.2587,294.0914 " fill="#EEEEEE" style="stroke:#000000;stroke-width:0.8999999999999999;"/><rect fill="none" height="228.2953" style="stroke:#000000;stroke-width:0.8999999999999999;" width="745.6603" x="123.2587" y="294.0914"/><text fill="#000000" font-family="sans-serif" font-size="7.8" font-weight="bold" lengthAdjust="spacing" textLength="16.4607" x="132.2587" y="303.1084">loop</text><text fill="#000000" font-family="sans-serif" font-size="6.6" font-weight="bold" lengthAdjust="spacing" textLength="52.0717" x="175.7194" y="302.4135">[for each Figure]</text><polygon fill="#181818" points="604.9427,317.2406,610.9427,319.6406,604.9427,322.0406,607.3427,319.6406" style="stroke:#181818;stroke-width:0.6;"/><line style="stroke:#181818;stroke-width:0.6;" x1="375.7638" x2="608.5427" y1="319.6406" y2="319.6406"/><text fill="#000000" font-family="sans-serif" font-size="7.8" font-weight="bold" lengthAdjust="spacing" textLength="4.338" x="379.9638" y="316.483">8</text><text fill="#000000" font-family="sans-serif" font-size="7.8" lengthAdjust="spacing" textLength="63.7292" x="386.7018" y="316.483">validate(figure.dsl)</text><polygon fill="#181818" points="382.3638,336.0152,376.3638,338.4152,382.3638,340.8152,379.9638,338.4152" style="stroke:#181818;stroke-width:0.6;"/><line style="stroke:#181818;stroke-width:0.6;" x1="378.7638" x2="614.5427" y1="338.4152" y2="338.4152"/><text fill="#000000" font-family="sans-serif" font-size="7.8" font-weight="bold" lengthAdjust="spacing" textLength="4.338" x="385.9638" y="335.2576">9</text><text fill="#000000" font-family="sans-serif" font-size="7.8" lengthAdjust="spacing" textLength="31.2229" x="392.7018" y="335.2576">validated</text><path d="M129.2587,347.4152 L165.3612,347.4152 L165.3612,352.9898 L159.3612,358.9898 L129.2587,358.9898 L129.2587,347.4152 " fill="#EEEEEE" style="stroke:#000000;stroke-width:0.8999999999999999;"/><rect fill="none" height="30.3492" style="stroke:#000000;stroke-width:0.8999999999999999;" width="316.0345" x="129.2587" y="347.4152"/><text fill="#000000" font-family="sans-serif" font-size="7.8" font-weight="bold" lengthAdjust="spacing" textLength="9.1025" x="138.2587" y="356.4322">alt</text><text fill="#000000" font-family="sans-serif" font-size="6.6" font-weight="bold" lengthAdjust="spacing" textLength="40.3348" x="174.3612" y="355.7373">[DSL invalid]</text><polygon fill="#181818" points="197.3813,370.5645,191.3813,372.9645,197.3813,375.3645,194.9813,372.9645" style="stroke:#181818;stroke-width:0.6;"/><line style="stroke:#181818;stroke-width:0.6;stroke-dasharray:2.0,2.0;" x1="193.7813" x2="369.1638" y1="372.9645" y2="372.9645"/><text fill="#000000" font-family="sans-serif" font-size="7.8" font-weight="bold" lengthAdjust="spacing" textLength="8.676" x="200.9813" y="369.8068">10</text><text fill="#000000" font-family="sans-serif" font-size="7.8" lengthAdjust="spacing" textLength="98.3112" x="212.0572" y="369.8068">error("DSL validation failed")</text><polygon fill="#181818" points="709.9236,393.5391,715.9236,395.9391,709.9236,398.3391,712.3236,395.9391" style="stroke:#181818;stroke-width:0.6;"/><line style="stroke:#181818;stroke-width:0.6;" x1="375.7638" x2="713.5236" y1="395.9391" y2="395.9391"/><text fill="#000000" font-family="sans-serif" font-size="7.8" font-weight="bold" lengthAdjust="spacing" textLength="8.676" x="379.9638" y="392.7814">11</text><text fill="#000000" font-family="sans-serif" font-size="7.8" lengthAdjust="spacing" textLength="72.3976" x="391.0397" y="392.7814">generateProgram(...)</text><polygon fill="#181818" points="382.3638,412.3137,376.3638,414.7137,382.3638,417.1137,379.9638,414.7137" style="stroke:#181818;stroke-width:0.6;"/><line style="stroke:#181818;stroke-width:0.6;" x1="378.7638" x2="719.5236" y1="414.7137" y2="414.7137"/><text fill="#000000" font-family="sans-serif" font-size="7.8" font-weight="bold" lengthAdjust="spacing" textLength="8.676" x="385.9638" y="411.5561">12</text><text fill="#000000" font-family="sans-serif" font-size="7.8" lengthAdjust="spacing" textLength="65.0394" x="397.0397" y="411.5561">generatedProgram</text><polygon fill="#181818" points="810.6984,431.0883,816.6984,433.4883,810.6984,435.8883,813.0984,433.4883" style="stroke:#181818;stroke-width:0.6;"/><line style="stroke:#181818;stroke-width:0.6;" x1="375.7638" x2="814.2984" y1="433.4883" y2="433.4883"/><text fill="#000000" font-family="sans-serif" font-size="7.8" font-weight="bold" lengthAdjust="spacing" textLength="8.676" x="379.9638" y="430.3307">13</text><text fill="#000000" font-family="sans-serif" font-size="7.8" lengthAdjust="spacing" textLength="61.1241" x="391.0397" y="430.3307">validate(program)</text><polygon fill="#181818" points="382.3638,449.8629,376.3638,452.2629,382.3638,454.6629,379.9638,452.2629" style="stroke:#181818;stroke-width:0.6;"/><line style="stroke:#181818;stroke-width:0.6;" x1="378.7638" x2="820.2984" y1="452.2629" y2="452.2629"/><text fill="#000000" font-family="sans-serif" font-size="7.8" font-weight="bold" lengthAdjust="spacing" textLength="8.676" x="385.9638" y="449.1053">14</text><text fill="#000000" font-family="sans-serif" font-size="7.8" lengthAdjust="spacing" textLength="31.2229" x="397.0397" y="449.1053">validated</text><path d="M129.2587,461.2629 L165.3612,461.2629 L165.3612,466.8375 L159.3612,472.8375 L129.2587,472.8375 L129.2587,461.2629 " fill="#EEEEEE" style="stroke:#000000;stroke-width:0.8999999999999999;"/><rect fill="none" height="30.3492" style="stroke:#000000;stroke-width:0.8999999999999999;" width="316.0345" x="129.2587" y="461.2629"/><text fill="#000000" font-family="sans-serif" font-size="7.8" font-weight="bold" lengthAdjust="spacing" textLength="9.1025" x="138.2587" y="470.2799">alt</text><text fill="#000000" font-family="sans-serif" font-size="6.6" font-weight="bold" lengthAdjust="spacing" textLength="62.7064" x="174.3612" y="469.585">[drone code invalid]</text><polygon fill="#181818" points="197.3813,484.4121,191.3813,486.8121,197.3813,489.2121,194.9813,486.8121" style="stroke:#181818;stroke-width:0.6;"/><line style="stroke:#181818;stroke-width:0.6;stroke-dasharray:2.0,2.0;" x1="193.7813" x2="369.1638" y1="486.8121" y2="486.8121"/><text fill="#000000" font-family="sans-serif" font-size="7.8" font-weight="bold" lengthAdjust="spacing" textLength="8.676" x="200.9813" y="483.6545">15</text><text fill="#000000" font-family="sans-serif" font-size="7.8" lengthAdjust="spacing" textLength="123.4632" x="212.0572" y="483.6545">error("Drone code validation failed")</text><line style="stroke:#181818;stroke-width:0.6;" x1="375.7638" x2="400.9638" y1="509.7867" y2="509.7867"/><line style="stroke:#181818;stroke-width:0.6;" x1="400.9638" x2="400.9638" y1="509.7867" y2="517.5867"/><line style="stroke:#181818;stroke-width:0.6;" x1="376.3638" x2="400.9638" y1="517.5867" y2="517.5867"/><polygon fill="#181818" points="382.3638,515.1867,376.3638,517.5867,382.3638,519.9867,379.9638,517.5867" style="stroke:#181818;stroke-width:0.6;"/><text fill="#000000" font-family="sans-serif" font-size="7.8" font-weight="bold" lengthAdjust="spacing" textLength="8.676" x="379.9638" y="506.6291">16</text><text fill="#000000" font-family="sans-serif" font-size="7.8" lengthAdjust="spacing" textLength="85.8495" x="391.0397" y="506.6291">store generated program</text><line style="stroke:#181818;stroke-width:0.6;" x1="375.7638" x2="400.9638" y1="544.7613" y2="544.7613"/><line style="stroke:#181818;stroke-width:0.6;" x1="400.9638" x2="400.9638" y1="544.7613" y2="552.5613"/><line style="stroke:#181818;stroke-width:0.6;" x1="376.3638" x2="400.9638" y1="552.5613" y2="552.5613"/><polygon fill="#181818" points="382.3638,550.1613,376.3638,552.5613,382.3638,554.9613,379.9638,552.5613" style="stroke:#181818;stroke-width:0.6;"/><text fill="#000000" font-family="sans-serif" font-size="7.8" font-weight="bold" lengthAdjust="spacing" textLength="8.676" x="379.9638" y="541.6037">17</text><text fill="#000000" font-family="sans-serif" font-size="7.8" lengthAdjust="spacing" textLength="107.3186" x="391.0397" y="541.6037">generate script + update status</text><polygon fill="#181818" points="504.3583,568.9359,510.3583,571.3359,504.3583,573.7359,506.7583,571.3359" style="stroke:#181818;stroke-width:0.6;"/><line style="stroke:#181818;stroke-width:0.6;" x1="372.7638" x2="507.9583" y1="571.3359" y2="571.3359"/><text fill="#000000" font-family="sans-serif" font-size="7.8" font-weight="bold" lengthAdjust="spacing" textLength="8.676" x="376.9638" y="568.1783">18</text><text fill="#000000" font-family="sans-serif" font-size="7.8" lengthAdjust="spacing" textLength="95.8128" x="388.0397" y="568.1783">saveInStore(showProposal)</text><polygon fill="#181818" points="33.3434,587.7105,27.3434,590.1105,33.3434,592.5105,30.9434,590.1105" style="stroke:#181818;stroke-width:0.6;"/><line style="stroke:#181818;stroke-width:0.6;" x1="29.7434" x2="187.1813" y1="590.1105" y2="590.1105"/><text fill="#000000" font-family="sans-serif" font-size="7.8" font-weight="bold" lengthAdjust="spacing" textLength="8.676" x="36.9434" y="586.9529">19</text><text fill="#000000" font-family="sans-serif" font-size="7.8" lengthAdjust="spacing" textLength="132.5619" x="48.0193" y="586.9529">success("Drone programs generated")</text><!--SRC=[hLLDRzim3BtxLn0vEHYIoteQbW93Wmm1Eg2eazqrcNM4Af8doGdwxqV9dxBJf2ZcI-BelKVoaMBigr0bC-m8HwqqFnXzH72cmiHs9oNZhwp0pBr918FSCLN88S0UMAxFGXNmmgJ597724NI_XGp_LgWumbgmmaFJB5lFOG4_KQ5XZWwCLWXFHeVZZTHdIFVPrxkxUPAmocbL7V-WeU_SQGEp6hv3VfW1i-3eIq99EC55oPI3MIkS7VIvKTrl0tQ_lObyqCePBIMQmE3TQyni6AMsJ3uZVGZAxIrG3Bt6u8qeAeE_cHGvSqAh9raLGWLmRcNpknv526KsITacKLqdLRHl5nW1AVWmXF-v3vAiLf3jVZplOBMYDf5xiBZtZVe6fbBftDiiJhulv5O2zD0P8NnPX2dGFHYauxmjtnB7mpfUC02Q9z0MROH7OTtteNVt0PXZJ1w43JHB32WR2aWIWIzWKT8W0XKtnFSD2ydM_Mrjt6ZZWwSrjIzXLC2WwLqT0zrnb5FjBVOPMhe-t57FEpgJ3ex2Mdz32CkwWx5sMp8QeqqwswgW7ZimctTqL7cVezIwX1Uw8sJdeRvMltIECWeMW-hHZ03JQeT3EgWtVGda9HtF9mgTcT64Zr6Hydk-vbCQVapUkxxE7a7KBaxERvZlgQVkrj9c4nBpsRJMg0cNBUokx7Ggq-LoUSM__hAF8RtcUtEVDo6k6TZhtvg2Q8yCvw2iermRWdW7JTA9fJyt2ACrTsaM0eQqS_pqIFGA_saoeaejfOvz-w2yq3-lUL7_Ycwh29ORKVhjMPLXPLd7N6NVaMXMlcKdtAhCfvRQmUwU9-FbFLwSzKeE_p4aKt6ErhOUDgNPlbhoBnc8xRV_0000]--></g></svg>