<svg xmlns="http://www.w3.org/2000/svg" xmlns:xlink="http://www.w3.org/1999/xlink" contentStyleType="text/css" height="1002px" preserveAspectRatio="none" style="width:1657px;height:1002px;background:#FFFFFF;" version="1.1" viewBox="0 0 1657 1002" width="1657px" zoomAndPan="magnify"><title>UI Sequence Diagram (SSD) - Add Video to Show Proposal (US315)</title><defs/><g><text fill="#000000" font-family="sans-serif" font-size="14" font-weight="bold" lengthAdjust="spacing" textLength="451.4142" x="604.1664" y="29.9659">UI Sequence Diagram (SSD) - Add Video to Show Proposal (US315)</text><rect fill="#FFFFFF" height="774.4961" style="stroke:#181818;stroke-width:1.0;" width="10" x="43.3089" y="134.1358"/><rect fill="#FFFFFF" height="750.7901" style="stroke:#181818;stroke-width:1.0;" width="10" x="506.8942" y="157.8419"/><rect fill="#FFFFFF" height="95.118" style="stroke:#181818;stroke-width:1.0;" width="10" x="847.8555" y="361.0779"/><rect fill="#FFFFFF" height="126.8241" style="stroke:#181818;stroke-width:1.0;" width="10" x="847.8555" y="604.0201"/><rect fill="#FFFFFF" height="31.706" style="stroke:#181818;stroke-width:1.0;" width="10" x="1114.6916" y="392.784"/><rect fill="#FFFFFF" height="31.706" style="stroke:#181818;stroke-width:1.0;" width="10" x="1114.6916" y="667.4321"/><rect fill="#FFFFFF" height="31.706" style="stroke:#181818;stroke-width:1.0;" width="10" x="1287.455" y="189.5479"/><rect fill="#FFFFFF" height="31.706" style="stroke:#181818;stroke-width:1.0;" width="10" x="1434.3046" y="252.9599"/><rect fill="none" height="430.436" style="stroke:#000000;stroke-width:1.5;" width="1640.7469" x="10" y="471.196"/><rect fill="none" height="100.0999" style="stroke:#000000;stroke-width:1.5;" width="642.1387" x="20" y="745.8441"/><line style="stroke:#181818;stroke-width:0.5;stroke-dasharray:5.0,5.0;" x1="48" x2="48" y1="124.1358" y2="918.632"/><line style="stroke:#181818;stroke-width:0.5;stroke-dasharray:5.0,5.0;" x1="511.6497" x2="511.6497" y1="124.1358" y2="918.632"/><line style="stroke:#181818;stroke-width:0.5;stroke-dasharray:5.0,5.0;" x1="852.0121" x2="852.0121" y1="124.1358" y2="918.632"/><line style="stroke:#181818;stroke-width:0.5;stroke-dasharray:5.0,5.0;" x1="1118.6989" x2="1118.6989" y1="124.1358" y2="918.632"/><line style="stroke:#181818;stroke-width:0.5;stroke-dasharray:5.0,5.0;" x1="1291.6843" x2="1291.6843" y1="124.1358" y2="918.632"/><line style="stroke:#181818;stroke-width:0.5;stroke-dasharray:5.0,5.0;" x1="1439.2258" x2="1439.2258" y1="124.1358" y2="918.632"/><line style="stroke:#181818;stroke-width:0.5;stroke-dasharray:5.0,5.0;" x1="1577.3833" x2="1577.3833" y1="124.1358" y2="918.632"/><text fill="#000000" font-family="sans-serif" font-size="14" lengthAdjust="spacing" textLength="30.6179" x="30" y="120.0339">User</text><ellipse cx="48.3089" cy="53.5679" fill="#E3E3E3" rx="8" ry="8" style="stroke:#181818;stroke-width:0.5;"/><path d="M48.3089,61.5679 L48.3089,88.5679 M35.3089,69.5679 L61.3089,69.5679 M48.3089,88.5679 L35.3089,103.5679 M48.3089,88.5679 L61.3089,103.5679 " fill="none" style="stroke:#181818;stroke-width:0.5;"/><text fill="#000000" font-family="sans-serif" font-size="14" lengthAdjust="spacing" textLength="30.6179" x="30" y="932.5979">User</text><ellipse cx="48.3089" cy="945.1999" fill="#E3E3E3" rx="8" ry="8" style="stroke:#181818;stroke-width:0.5;"/><path d="M48.3089,953.1999 L48.3089,980.1999 M35.3089,961.1999 L61.3089,961.1999 M48.3089,980.1999 L35.3089,995.1999 M48.3089,980.1999 L61.3089,995.1999 " fill="none" style="stroke:#181818;stroke-width:0.5;"/><rect fill="#E3E3E3" height="33.0679" rx="2.5" ry="2.5" style="stroke:#181818;stroke-width:0.5;" width="280.489" x="371.6497" y="90.0679"/><text fill="#000000" font-family="sans-serif" font-size="14" lengthAdjust="spacing" textLength="266.489" x="378.6497" y="112.0339">:AddVideoOfSimulationToTheProposalUI</text><rect fill="#E3E3E3" height="33.0679" rx="2.5" ry="2.5" style="stroke:#181818;stroke-width:0.5;" width="280.489" x="371.6497" y="917.632"/><text fill="#000000" font-family="sans-serif" font-size="14" lengthAdjust="spacing" textLength="266.489" x="378.6497" y="939.5979">:AddVideoOfSimulationToTheProposalUI</text><rect fill="#E3E3E3" height="33.0679" rx="2.5" ry="2.5" style="stroke:#181818;stroke-width:0.5;" width="331.6868" x="687.0121" y="90.0679"/><text fill="#000000" font-family="sans-serif" font-size="14" lengthAdjust="spacing" textLength="317.6868" x="694.0121" y="112.0339">:AddVideoOfSimulationToTheProposalController</text><rect fill="#E3E3E3" height="33.0679" rx="2.5" ry="2.5" style="stroke:#181818;stroke-width:0.5;" width="331.6868" x="687.0121" y="917.632"/><text fill="#000000" font-family="sans-serif" font-size="14" lengthAdjust="spacing" textLength="317.6868" x="694.0121" y="939.5979">:AddVideoOfSimulationToTheProposalController</text><rect fill="#E3E3E3" height="33.0679" rx="2.5" ry="2.5" style="stroke:#181818;stroke-width:0.5;" width="181.9854" x="1028.6989" y="90.0679"/><text fill="#000000" font-family="sans-serif" font-size="14" lengthAdjust="spacing" textLength="167.9854" x="1035.6989" y="112.0339">:ShowProposalRepository</text><rect fill="#E3E3E3" height="33.0679" rx="2.5" ry="2.5" style="stroke:#181818;stroke-width:0.5;" width="181.9854" x="1028.6989" y="917.632"/><text fill="#000000" font-family="sans-serif" font-size="14" lengthAdjust="spacing" textLength="167.9854" x="1035.6989" y="939.5979">:ShowProposalRepository</text><rect fill="#E3E3E3" height="33.0679" rx="2.5" ry="2.5" style="stroke:#181818;stroke-width:0.5;" width="143.5415" x="1220.6843" y="90.0679"/><text fill="#000000" font-family="sans-serif" font-size="14" lengthAdjust="spacing" textLength="129.5415" x="1227.6843" y="112.0339">Drone3DSimulation</text><rect fill="#E3E3E3" height="33.0679" rx="2.5" ry="2.5" style="stroke:#181818;stroke-width:0.5;" width="143.5415" x="1220.6843" y="917.632"/><text fill="#000000" font-family="sans-serif" font-size="14" lengthAdjust="spacing" textLength="129.5415" x="1227.6843" y="939.5979">Drone3DSimulation</text><rect fill="#E3E3E3" height="33.0679" rx="2.5" ry="2.5" style="stroke:#181818;stroke-width:0.5;" width="130.1576" x="1374.2258" y="90.0679"/><text fill="#000000" font-family="sans-serif" font-size="14" lengthAdjust="spacing" textLength="116.1576" x="1381.2258" y="112.0339">javafx.Application</text><rect fill="#E3E3E3" height="33.0679" rx="2.5" ry="2.5" style="stroke:#181818;stroke-width:0.5;" width="130.1576" x="1374.2258" y="917.632"/><text fill="#000000" font-family="sans-serif" font-size="14" lengthAdjust="spacing" textLength="116.1576" x="1381.2258" y="939.5979">javafx.Application</text><rect fill="#E3E3E3" height="33.0679" rx="2.5" ry="2.5" style="stroke:#181818;stroke-width:0.5;" width="126.3636" x="1514.3833" y="90.0679"/><text fill="#000000" font-family="sans-serif" font-size="14" lengthAdjust="spacing" textLength="112.3636" x="1521.3833" y="112.0339">selectedProposal</text><rect fill="#E3E3E3" height="33.0679" rx="2.5" ry="2.5" style="stroke:#181818;stroke-width:0.5;" width="126.3636" x="1514.3833" y="917.632"/><text fill="#000000" font-family="sans-serif" font-size="14" lengthAdjust="spacing" textLength="112.3636" x="1521.3833" y="939.5979">selectedProposal</text><rect fill="#FFFFFF" height="774.4961" style="stroke:#181818;stroke-width:1.0;" width="10" x="43.3089" y="134.1358"/><rect fill="#FFFFFF" height="750.7901" style="stroke:#181818;stroke-width:1.0;" width="10" x="506.8942" y="157.8419"/><rect fill="#FFFFFF" height="95.118" style="stroke:#181818;stroke-width:1.0;" width="10" x="847.8555" y="361.0779"/><rect fill="#FFFFFF" height="126.8241" style="stroke:#181818;stroke-width:1.0;" width="10" x="847.8555" y="604.0201"/><rect fill="#FFFFFF" height="31.706" style="stroke:#181818;stroke-width:1.0;" width="10" x="1114.6916" y="392.784"/><rect fill="#FFFFFF" height="31.706" style="stroke:#181818;stroke-width:1.0;" width="10" x="1114.6916" y="667.4321"/><rect fill="#FFFFFF" height="31.706" style="stroke:#181818;stroke-width:1.0;" width="10" x="1287.455" y="189.5479"/><rect fill="#FFFFFF" height="31.706" style="stroke:#181818;stroke-width:1.0;" width="10" x="1434.3046" y="252.9599"/><polygon fill="#181818" points="494.8942,153.8419,504.8942,157.8419,494.8942,161.8419,498.8942,157.8419" style="stroke:#181818;stroke-width:1.0;"/><line style="stroke:#181818;stroke-width:1.0;" x1="53.3089" x2="500.8942" y1="157.8419" y2="157.8419"/><text fill="#000000" font-family="sans-serif" font-size="13" lengthAdjust="spacing" textLength="233.4672" x="60.3089" y="152.0328">launch Add Video to Show Proposal UI</text><polygon fill="#181818" points="1275.455,185.5479,1285.455,189.5479,1275.455,193.5479,1279.455,189.5479" style="stroke:#181818;stroke-width:1.0;"/><line style="stroke:#181818;stroke-width:1.0;" x1="516.8942" x2="1281.455" y1="189.5479" y2="189.5479"/><text fill="#000000" font-family="sans-serif" font-size="13" lengthAdjust="spacing" textLength="279.7862" x="523.8942" y="183.7389">loadDroneDataFromCustomFormat(fileName)</text><polygon fill="#181818" points="527.8942,217.2539,517.8942,221.2539,527.8942,225.2539,523.8942,221.2539" style="stroke:#181818;stroke-width:1.0;"/><line style="stroke:#181818;stroke-width:1.0;stroke-dasharray:2.0,2.0;" x1="521.8942" x2="1291.455" y1="221.2539" y2="221.2539"/><text fill="#000000" font-family="sans-serif" font-size="13" lengthAdjust="spacing" textLength="112.4631" x="533.8942" y="215.4449">drone data loaded</text><polygon fill="#181818" points="1422.3046,248.9599,1432.3046,252.9599,1422.3046,256.9599,1426.3046,252.9599" style="stroke:#181818;stroke-width:1.0;"/><line style="stroke:#181818;stroke-width:1.0;" x1="516.8942" x2="1428.3046" y1="252.9599" y2="252.9599"/><text fill="#000000" font-family="sans-serif" font-size="13" lengthAdjust="spacing" textLength="191.3212" x="523.8942" y="247.1509">launch Drone3DSimulation app</text><polygon fill="#181818" points="527.8942,280.6659,517.8942,284.6659,527.8942,288.6659,523.8942,284.6659" style="stroke:#181818;stroke-width:1.0;"/><line style="stroke:#181818;stroke-width:1.0;stroke-dasharray:2.0,2.0;" x1="521.8942" x2="1438.3046" y1="284.6659" y2="284.6659"/><text fill="#000000" font-family="sans-serif" font-size="13" lengthAdjust="spacing" textLength="82.9791" x="533.8942" y="278.8569">app launched</text><line style="stroke:#181818;stroke-width:1.0;" x1="516.8942" x2="558.8942" y1="316.3719" y2="316.3719"/><line style="stroke:#181818;stroke-width:1.0;" x1="558.8942" x2="558.8942" y1="316.3719" y2="329.3719"/><line style="stroke:#181818;stroke-width:1.0;" x1="517.8942" x2="558.8942" y1="329.3719" y2="329.3719"/><polygon fill="#181818" points="527.8942,325.3719,517.8942,329.3719,527.8942,333.3719,523.8942,329.3719" style="stroke:#181818;stroke-width:1.0;"/><text fill="#000000" font-family="sans-serif" font-size="13" lengthAdjust="spacing" textLength="242.9182" x="523.8942" y="310.5629">read video file "drone_&lt;fileName&gt;.mov"</text><polygon fill="#181818" points="835.8555,357.0779,845.8555,361.0779,835.8555,365.0779,839.8555,361.0779" style="stroke:#181818;stroke-width:1.0;"/><line style="stroke:#181818;stroke-width:1.0;" x1="516.8942" x2="841.8555" y1="361.0779" y2="361.0779"/><text fill="#000000" font-family="sans-serif" font-size="13" lengthAdjust="spacing" textLength="102.8951" x="523.8942" y="355.2689">getAllProposals()</text><polygon fill="#181818" points="1102.6916,388.784,1112.6916,392.784,1102.6916,396.784,1106.6916,392.784" style="stroke:#181818;stroke-width:1.0;"/><line style="stroke:#181818;stroke-width:1.0;" x1="857.8555" x2="1108.6916" y1="392.784" y2="392.784"/><text fill="#000000" font-family="sans-serif" font-size="13" lengthAdjust="spacing" textLength="102.8951" x="864.8555" y="386.975">getAllProposals()</text><polygon fill="#181818" points="868.8555,420.49,858.8555,424.49,868.8555,428.49,864.8555,424.49" style="stroke:#181818;stroke-width:1.0;"/><line style="stroke:#181818;stroke-width:1.0;stroke-dasharray:2.0,2.0;" x1="862.8555" x2="1118.6916" y1="424.49" y2="424.49"/><text fill="#000000" font-family="sans-serif" font-size="13" lengthAdjust="spacing" textLength="190.6582" x="874.8555" y="418.681">Optional&lt;List&lt;ShowProposal&gt;&gt;</text><polygon fill="#181818" points="527.8942,452.196,517.8942,456.196,527.8942,460.196,523.8942,456.196" style="stroke:#181818;stroke-width:1.0;"/><line style="stroke:#181818;stroke-width:1.0;stroke-dasharray:2.0,2.0;" x1="521.8942" x2="851.8555" y1="456.196" y2="456.196"/><text fill="#000000" font-family="sans-serif" font-size="13" lengthAdjust="spacing" textLength="123.0451" x="533.8942" y="450.387">List&lt;ShowProposal&gt;</text><path d="M10,471.196 L72.459,471.196 L72.459,480.902 L62.459,490.902 L10,490.902 L10,471.196 " fill="#EEEEEE" style="stroke:#000000;stroke-width:1.5;"/><rect fill="none" height="430.436" style="stroke:#000000;stroke-width:1.5;" width="1640.7469" x="10" y="471.196"/><text fill="#000000" font-family="sans-serif" font-size="13" font-weight="bold" lengthAdjust="spacing" textLength="17.459" x="25" y="486.093">alt</text><text fill="#000000" font-family="sans-serif" font-size="11" font-weight="bold" lengthAdjust="spacing" textLength="150.4899" x="87.459" y="484.9549">[listOfProposals not empty]</text><line style="stroke:#181818;stroke-width:1.0;" x1="516.8942" x2="558.8942" y1="514.608" y2="514.608"/><line style="stroke:#181818;stroke-width:1.0;" x1="558.8942" x2="558.8942" y1="514.608" y2="527.608"/><line style="stroke:#181818;stroke-width:1.0;" x1="517.8942" x2="558.8942" y1="527.608" y2="527.608"/><polygon fill="#181818" points="527.8942,523.608,517.8942,527.608,527.8942,531.608,523.8942,527.608" style="stroke:#181818;stroke-width:1.0;"/><text fill="#000000" font-family="sans-serif" font-size="13" lengthAdjust="spacing" textLength="229.8792" x="523.8942" y="508.799">show proposals and prompt selection</text><line style="stroke:#181818;stroke-width:1.0;" x1="516.8942" x2="558.8942" y1="559.314" y2="559.314"/><line style="stroke:#181818;stroke-width:1.0;" x1="558.8942" x2="558.8942" y1="559.314" y2="572.314"/><line style="stroke:#181818;stroke-width:1.0;" x1="517.8942" x2="558.8942" y1="572.314" y2="572.314"/><polygon fill="#181818" points="527.8942,568.314,517.8942,572.314,527.8942,576.314,523.8942,572.314" style="stroke:#181818;stroke-width:1.0;"/><text fill="#000000" font-family="sans-serif" font-size="13" lengthAdjust="spacing" textLength="129.4931" x="523.8942" y="553.505">select proposal index</text><polygon fill="#181818" points="835.8555,600.0201,845.8555,604.0201,835.8555,608.0201,839.8555,604.0201" style="stroke:#181818;stroke-width:1.0;"/><line style="stroke:#181818;stroke-width:1.0;" x1="516.8942" x2="841.8555" y1="604.0201" y2="604.0201"/><text fill="#000000" font-family="sans-serif" font-size="13" lengthAdjust="spacing" textLength="311.9613" x="523.8942" y="598.2111">addVideoToShowProposal(selectedProposal, video)</text><polygon fill="#181818" points="1565.5651,631.7261,1575.5651,635.7261,1565.5651,639.7261,1569.5651,635.7261" style="stroke:#181818;stroke-width:1.0;"/><line style="stroke:#181818;stroke-width:1.0;" x1="857.8555" x2="1571.5651" y1="635.7261" y2="635.7261"/><text fill="#000000" font-family="sans-serif" font-size="13" lengthAdjust="spacing" textLength="98.6701" x="864.8555" y="629.9171">editVideo(video)</text><polygon fill="#181818" points="1102.6916,663.4321,1112.6916,667.4321,1102.6916,671.4321,1106.6916,667.4321" style="stroke:#181818;stroke-width:1.0;"/><line style="stroke:#181818;stroke-width:1.0;" x1="857.8555" x2="1108.6916" y1="667.4321" y2="667.4321"/><text fill="#000000" font-family="sans-serif" font-size="13" lengthAdjust="spacing" textLength="235.9892" x="864.8555" y="661.6231">updateInStoreProposal(showProposal)</text><polygon fill="#181818" points="868.8555,695.1381,858.8555,699.1381,868.8555,703.1381,864.8555,699.1381" style="stroke:#181818;stroke-width:1.0;"/><line style="stroke:#181818;stroke-width:1.0;stroke-dasharray:2.0,2.0;" x1="862.8555" x2="1118.6916" y1="699.1381" y2="699.1381"/><text fill="#000000" font-family="sans-serif" font-size="13" lengthAdjust="spacing" textLength="154.7001" x="874.8555" y="693.3291">Optional&lt;ShowProposal&gt;</text><polygon fill="#181818" points="527.8942,726.8441,517.8942,730.8441,527.8942,734.8441,523.8942,730.8441" style="stroke:#181818;stroke-width:1.0;"/><line style="stroke:#181818;stroke-width:1.0;stroke-dasharray:2.0,2.0;" x1="521.8942" x2="851.8555" y1="730.8441" y2="730.8441"/><text fill="#000000" font-family="sans-serif" font-size="13" lengthAdjust="spacing" textLength="154.7001" x="533.8942" y="725.0351">Optional&lt;ShowProposal&gt;</text><path d="M20,745.8441 L82.459,745.8441 L82.459,755.5501 L72.459,765.5501 L20,765.5501 L20,745.8441 " fill="#EEEEEE" style="stroke:#000000;stroke-width:1.5;"/><rect fill="none" height="100.0999" style="stroke:#000000;stroke-width:1.5;" width="642.1387" x="20" y="745.8441"/><text fill="#000000" font-family="sans-serif" font-size="13" font-weight="bold" lengthAdjust="spacing" textLength="17.459" x="35" y="760.7411">alt</text><text fill="#000000" font-family="sans-serif" font-size="11" font-weight="bold" lengthAdjust="spacing" textLength="84.8864" x="97.459" y="759.603">[result present]</text><polygon fill="#181818" points="64.3089,785.2562,54.3089,789.2562,64.3089,793.2562,60.3089,789.2562" style="stroke:#181818;stroke-width:1.0;"/><line style="stroke:#181818;stroke-width:1.0;" x1="58.3089" x2="505.8942" y1="789.2562" y2="789.2562"/><text fill="#000000" font-family="sans-serif" font-size="13" lengthAdjust="spacing" textLength="378.3522" x="70.3089" y="783.4472">printSuccessMessage("Video added successfully to proposal!")</text><line style="stroke:#000000;stroke-width:1.0;stroke-dasharray:2.0,2.0;" x1="20" x2="662.1387" y1="798.2562" y2="798.2562"/><text fill="#000000" font-family="sans-serif" font-size="11" font-weight="bold" lengthAdjust="spacing" textLength="77.7585" x="25" y="810.0151">[result empty]</text><polygon fill="#181818" points="64.3089,833.9441,54.3089,837.9441,64.3089,841.9441,60.3089,837.9441" style="stroke:#181818;stroke-width:1.0;"/><line style="stroke:#181818;stroke-width:1.0;" x1="58.3089" x2="505.8942" y1="837.9441" y2="837.9441"/><text fill="#000000" font-family="sans-serif" font-size="13" lengthAdjust="spacing" textLength="429.5853" x="70.3089" y="832.1351">printFailMessage("Something went wrong saving the Show Proposal!")</text><line style="stroke:#000000;stroke-width:1.0;stroke-dasharray:2.0,2.0;" x1="10" x2="1650.7469" y1="853.9441" y2="853.9441"/><text fill="#000000" font-family="sans-serif" font-size="11" font-weight="bold" lengthAdjust="spacing" textLength="101.0783" x="15" y="865.703">[list empty or null]</text><polygon fill="#181818" points="64.3089,889.632,54.3089,893.632,64.3089,897.632,60.3089,893.632" style="stroke:#181818;stroke-width:1.0;"/><line style="stroke:#181818;stroke-width:1.0;" x1="58.3089" x2="505.8942" y1="893.632" y2="893.632"/><text fill="#000000" font-family="sans-serif" font-size="13" lengthAdjust="spacing" textLength="234.3902" x="70.3089" y="887.823">printFailMessage("No Show Proposal")</text><!--SRC=[bLNVQzim47xNNt7BKm9BOPIzb1883ON0rewvsUiuh4kiLPOyIqxQ_tudEROLfmrT88cbq_VTTpzySi_AL5XZ2QKrDYzgMnBukY7XUak5-JFkAFElcg2ctAFPwVI0Ar3QWp8xsA9s98HNdezkrf3HtuPCJh1Ik0j7frcsci4SbbB2BoN9WhUG5VO0FsfRMOSQffli-ilNcH2OUrl3PEEedW0wQFX1i4UlSbMXyJ2vOPh8yhZDLDbezCgQ9_jKKCUsMKVePls_m3jhV6srFleUbYEYeBt3_2J-KopwDMA6POn5xT5J6uG8lp1VX1JTWCR6vCMbbB3yde2V1SCOlAgjeUlL443WiYZZ_WeztdCrxnhdRNblwnBzTAiqFM19iu7kZ4ISqyuxfJAOG39rT4HIIBh0TDJv1_UuVRbQLfLMUI-q3VhS6LRLeEuSAjvWw_KnzaXyAkqDcgEs2Ai99UnZwaE6O1BZ_7tRfMjnLThzv8WOEe6HE_9BhRiwkMcIsAHZH89XXg4lBZEa_PDWvcCHZrM82FNjD-NyRTgGYqMQXPGlLTIbuHoUejDuK7lGVFfnsmi7OprGMNac1_uawNMXbwl-81ePLdmK76aU9w4SOqWqz21GHj9BIdoI03o-p4ysLJzjIKXs6v_R6iyYpPjn1SDfhSOSx8sayj7TDA6xKE6cuXU6rYRZDGtY4gKZHMcTWk53jJ-jMu2zK_cnsYxb7sCQPojqGaskqQ5OvCZuk3qKAaww6pOguxCcpycvx_pb-sGwQQSTLuyakDQsRRH-3GEmA_sdIPiTuekbyzIssVj-xb7ftad6DvelmkLqO7Lmu5Tx1mxtOSSNT3ffUsz62X5TXZPl7G9VHeRbYGyuVHXDSAQDb4acUOudgtWj_0C0]--></g></svg>