<svg xmlns="http://www.w3.org/2000/svg" xmlns:xlink="http://www.w3.org/1999/xlink" contentStyleType="text/css" height="1153px" preserveAspectRatio="none" style="width:1516px;height:1153px;background:#FFFFFF;" version="1.1" viewBox="0 0 1516 1153" width="1516px" zoomAndPan="magnify"><title>UI Sequence Diagram (SSD) - Add Video to Show Proposal (US315)</title><defs/><g><text fill="#000000" font-family="sans-serif" font-size="14" font-weight="bold" lengthAdjust="spacing" textLength="445.7373" x="536.2395" y="30.1074">UI Sequence Diagram (SSD) - Add Video to Show Proposal (US315)</text><rect fill="#FFFFFF" height="926.75" style="stroke:#181818;stroke-width:1.0;" width="10" x="52.7793" y="133.2422"/><rect fill="#FFFFFF" height="903.459" style="stroke:#181818;stroke-width:1.0;" width="10" x="447.1421" y="156.5332"/><rect fill="#FFFFFF" height="93.873" style="stroke:#181818;stroke-width:1.0;" width="10" x="790.9775" y="187.8242"/><rect fill="#FFFFFF" height="125.1641" style="stroke:#181818;stroke-width:1.0;" width="10" x="790.9775" y="704.4805"/><rect fill="#FFFFFF" height="31.291" style="stroke:#181818;stroke-width:1.0;" width="10" x="1046.0972" y="219.1152"/><rect fill="#FFFFFF" height="31.291" style="stroke:#181818;stroke-width:1.0;" width="10" x="1046.0972" y="767.0625"/><rect fill="#FFFFFF" height="31.291" style="stroke:#181818;stroke-width:1.0;" width="10" x="1211.3345" y="401.8613"/><rect fill="#FFFFFF" height="31.291" style="stroke:#181818;stroke-width:1.0;" width="10" x="1329.4858" y="579.3164"/><rect fill="none" height="756.2949" style="stroke:#000000;stroke-width:1.5;" width="1499.2163" x="10" y="296.6973"/><rect fill="none" height="505.627" style="stroke:#000000;stroke-width:1.5;" width="1479.2163" x="20" y="492.4434"/><rect fill="none" height="98.5039" style="stroke:#000000;stroke-width:1.5;" width="566.376" x="30" y="844.6445"/><line style="stroke:#181818;stroke-width:0.5;stroke-dasharray:5.0,5.0;" x1="57" x2="57" y1="123.2422" y2="1069.9922"/><line style="stroke:#181818;stroke-width:0.5;stroke-dasharray:5.0,5.0;" x1="451.9082" x2="451.9082" y1="123.2422" y2="1069.9922"/><line style="stroke:#181818;stroke-width:0.5;stroke-dasharray:5.0,5.0;" x1="795.3989" x2="795.3989" y1="123.2422" y2="1069.9922"/><line style="stroke:#181818;stroke-width:0.5;stroke-dasharray:5.0,5.0;" x1="1050.5562" x2="1050.5562" y1="123.2422" y2="1069.9922"/><line style="stroke:#181818;stroke-width:0.5;stroke-dasharray:5.0,5.0;" x1="1215.6382" x2="1215.6382" y1="123.2422" y2="1069.9922"/><line style="stroke:#181818;stroke-width:0.5;stroke-dasharray:5.0,5.0;" x1="1334.0308" x2="1334.0308" y1="123.2422" y2="1069.9922"/><line style="stroke:#181818;stroke-width:0.5;stroke-dasharray:5.0,5.0;" x1="1436.9409" x2="1436.9409" y1="123.2422" y2="1069.9922"/><text fill="#000000" font-family="sans-serif" font-size="14" lengthAdjust="spacing" textLength="29.5586" x="40" y="119.7285">User</text><ellipse cx="57.7793" cy="53.1211" fill="#E3E3E3" rx="8" ry="8" style="stroke:#181818;stroke-width:0.5;"/><path d="M57.7793,61.1211 L57.7793,88.1211 M44.7793,69.1211 L70.7793,69.1211 M57.7793,88.1211 L44.7793,103.1211 M57.7793,88.1211 L70.7793,103.1211 " fill="none" style="stroke:#181818;stroke-width:0.5;"/><text fill="#000000" font-family="sans-serif" font-size="14" lengthAdjust="spacing" textLength="29.5586" x="40" y="1084.0996">User</text><ellipse cx="57.7793" cy="1096.1133" fill="#E3E3E3" rx="8" ry="8" style="stroke:#181818;stroke-width:0.5;"/><path d="M57.7793,1104.1133 L57.7793,1131.1133 M44.7793,1112.1133 L70.7793,1112.1133 M57.7793,1131.1133 L44.7793,1146.1133 M57.7793,1131.1133 L70.7793,1146.1133 " fill="none" style="stroke:#181818;stroke-width:0.5;"/><rect fill="#E3E3E3" height="32.6211" rx="2.5" ry="2.5" style="stroke:#181818;stroke-width:0.5;" width="268.4678" x="317.9082" y="89.6211"/><text fill="#000000" font-family="sans-serif" font-size="14" lengthAdjust="spacing" textLength="254.4678" x="324.9082" y="111.7285">:AddVideoOfSimulationToTheProposalUI</text><rect fill="#E3E3E3" height="32.6211" rx="2.5" ry="2.5" style="stroke:#181818;stroke-width:0.5;" width="268.4678" x="317.9082" y="1068.9922"/><text fill="#000000" font-family="sans-serif" font-size="14" lengthAdjust="spacing" textLength="254.4678" x="324.9082" y="1091.0996">:AddVideoOfSimulationToTheProposalUI</text><rect fill="#E3E3E3" height="32.6211" rx="2.5" ry="2.5" style="stroke:#181818;stroke-width:0.5;" width="315.1572" x="638.3989" y="89.6211"/><text fill="#000000" font-family="sans-serif" font-size="14" lengthAdjust="spacing" textLength="301.1572" x="645.3989" y="111.7285">:AddVideoOfSimulationToTheProposalController</text><rect fill="#E3E3E3" height="32.6211" rx="2.5" ry="2.5" style="stroke:#181818;stroke-width:0.5;" width="315.1572" x="638.3989" y="1068.9922"/><text fill="#000000" font-family="sans-serif" font-size="14" lengthAdjust="spacing" textLength="301.1572" x="645.3989" y="1091.0996">:AddVideoOfSimulationToTheProposalController</text><rect fill="#E3E3E3" height="32.6211" rx="2.5" ry="2.5" style="stroke:#181818;stroke-width:0.5;" width="175.082" x="963.5562" y="89.6211"/><text fill="#000000" font-family="sans-serif" font-size="14" lengthAdjust="spacing" textLength="161.082" x="970.5562" y="111.7285">:ShowProposalRepository</text><rect fill="#E3E3E3" height="32.6211" rx="2.5" ry="2.5" style="stroke:#181818;stroke-width:0.5;" width="175.082" x="963.5562" y="1068.9922"/><text fill="#000000" font-family="sans-serif" font-size="14" lengthAdjust="spacing" textLength="161.082" x="970.5562" y="1091.0996">:ShowProposalRepository</text><rect fill="#E3E3E3" height="32.6211" rx="2.5" ry="2.5" style="stroke:#181818;stroke-width:0.5;" width="135.3926" x="1148.6382" y="89.6211"/><text fill="#000000" font-family="sans-serif" font-size="14" lengthAdjust="spacing" textLength="121.3926" x="1155.6382" y="111.7285">Drone3DSimulation</text><rect fill="#E3E3E3" height="32.6211" rx="2.5" ry="2.5" style="stroke:#181818;stroke-width:0.5;" width="135.3926" x="1148.6382" y="1068.9922"/><text fill="#000000" font-family="sans-serif" font-size="14" lengthAdjust="spacing" textLength="121.3926" x="1155.6382" y="1091.0996">Drone3DSimulation</text><rect fill="#E3E3E3" height="32.6211" rx="2.5" ry="2.5" style="stroke:#181818;stroke-width:0.5;" width="80.9102" x="1294.0308" y="89.6211"/><text fill="#000000" font-family="sans-serif" font-size="14" lengthAdjust="spacing" textLength="66.9102" x="1301.0308" y="111.7285">HttpServer</text><rect fill="#E3E3E3" height="32.6211" rx="2.5" ry="2.5" style="stroke:#181818;stroke-width:0.5;" width="80.9102" x="1294.0308" y="1068.9922"/><text fill="#000000" font-family="sans-serif" font-size="14" lengthAdjust="spacing" textLength="66.9102" x="1301.0308" y="1091.0996">HttpServer</text><rect fill="#E3E3E3" height="32.6211" rx="2.5" ry="2.5" style="stroke:#181818;stroke-width:0.5;" width="104.2754" x="1384.9409" y="89.6211"/><text fill="#000000" font-family="sans-serif" font-size="14" lengthAdjust="spacing" textLength="90.2754" x="1391.9409" y="111.7285">ShowProposal</text><rect fill="#E3E3E3" height="32.6211" rx="2.5" ry="2.5" style="stroke:#181818;stroke-width:0.5;" width="104.2754" x="1384.9409" y="1068.9922"/><text fill="#000000" font-family="sans-serif" font-size="14" lengthAdjust="spacing" textLength="90.2754" x="1391.9409" y="1091.0996">ShowProposal</text><rect fill="#FFFFFF" height="926.75" style="stroke:#181818;stroke-width:1.0;" width="10" x="52.7793" y="133.2422"/><rect fill="#FFFFFF" height="903.459" style="stroke:#181818;stroke-width:1.0;" width="10" x="447.1421" y="156.5332"/><rect fill="#FFFFFF" height="93.873" style="stroke:#181818;stroke-width:1.0;" width="10" x="790.9775" y="187.8242"/><rect fill="#FFFFFF" height="125.1641" style="stroke:#181818;stroke-width:1.0;" width="10" x="790.9775" y="704.4805"/><rect fill="#FFFFFF" height="31.291" style="stroke:#181818;stroke-width:1.0;" width="10" x="1046.0972" y="219.1152"/><rect fill="#FFFFFF" height="31.291" style="stroke:#181818;stroke-width:1.0;" width="10" x="1046.0972" y="767.0625"/><rect fill="#FFFFFF" height="31.291" style="stroke:#181818;stroke-width:1.0;" width="10" x="1211.3345" y="401.8613"/><rect fill="#FFFFFF" height="31.291" style="stroke:#181818;stroke-width:1.0;" width="10" x="1329.4858" y="579.3164"/><polygon fill="#181818" points="435.1421,152.5332,445.1421,156.5332,435.1421,160.5332,439.1421,156.5332" style="stroke:#181818;stroke-width:1.0;"/><line style="stroke:#181818;stroke-width:1.0;" x1="62.7793" x2="441.1421" y1="156.5332" y2="156.5332"/><text fill="#000000" font-family="sans-serif" font-size="13" lengthAdjust="spacing" textLength="221.1396" x="69.7793" y="151.2705">start adding a Video to Show Proposal</text><polygon fill="#181818" points="778.9775,183.8242,788.9775,187.8242,778.9775,191.8242,782.9775,187.8242" style="stroke:#181818;stroke-width:1.0;"/><line style="stroke:#181818;stroke-width:1.0;" x1="457.1421" x2="784.9775" y1="187.8242" y2="187.8242"/><text fill="#000000" font-family="sans-serif" font-size="13" lengthAdjust="spacing" textLength="98.9854" x="464.1421" y="182.5615">getAllProposals()</text><polygon fill="#181818" points="1034.0972,215.1152,1044.0972,219.1152,1034.0972,223.1152,1038.0972,219.1152" style="stroke:#181818;stroke-width:1.0;"/><line style="stroke:#181818;stroke-width:1.0;" x1="800.9775" x2="1040.0972" y1="219.1152" y2="219.1152"/><text fill="#000000" font-family="sans-serif" font-size="13" lengthAdjust="spacing" textLength="98.9854" x="807.9775" y="213.8525">getAllProposals()</text><polygon fill="#181818" points="811.9775,246.4063,801.9775,250.4063,811.9775,254.4063,807.9775,250.4063" style="stroke:#181818;stroke-width:1.0;"/><line style="stroke:#181818;stroke-width:1.0;stroke-dasharray:2.0,2.0;" x1="805.9775" x2="1050.0972" y1="250.4063" y2="250.4063"/><text fill="#000000" font-family="sans-serif" font-size="13" lengthAdjust="spacing" textLength="182.8442" x="817.9775" y="245.1436">Optional&lt;List&lt;ShowProposal&gt;&gt;</text><polygon fill="#181818" points="468.1421,277.6973,458.1421,281.6973,468.1421,285.6973,464.1421,281.6973" style="stroke:#181818;stroke-width:1.0;"/><line style="stroke:#181818;stroke-width:1.0;stroke-dasharray:2.0,2.0;" x1="462.1421" x2="794.9775" y1="281.6973" y2="281.6973"/><text fill="#000000" font-family="sans-serif" font-size="13" lengthAdjust="spacing" textLength="119.2407" x="474.1421" y="276.4346">List&lt;ShowProposal&gt;</text><path d="M10,296.6973 L70.1709,296.6973 L70.1709,305.9883 L60.1709,315.9883 L10,315.9883 L10,296.6973 " fill="#EEEEEE" style="stroke:#000000;stroke-width:1.5;"/><rect fill="none" height="756.2949" style="stroke:#000000;stroke-width:1.5;" width="1499.2163" x="10" y="296.6973"/><text fill="#000000" font-family="sans-serif" font-size="13" font-weight="bold" lengthAdjust="spacing" textLength="15.1709" x="25" y="311.7256">alt</text><text fill="#000000" font-family="sans-serif" font-size="11" font-weight="bold" lengthAdjust="spacing" textLength="144.2354" x="85.1709" y="310.5674">[listOfProposals not empty]</text><polygon fill="#181818" points="73.7793,335.2793,63.7793,339.2793,73.7793,343.2793,69.7793,339.2793" style="stroke:#181818;stroke-width:1.0;"/><line style="stroke:#181818;stroke-width:1.0;" x1="67.7793" x2="446.1421" y1="339.2793" y2="339.2793"/><text fill="#000000" font-family="sans-serif" font-size="13" lengthAdjust="spacing" textLength="134.4116" x="79.7793" y="334.0166">request video file name</text><polygon fill="#181818" points="435.1421,366.5703,445.1421,370.5703,435.1421,374.5703,439.1421,370.5703" style="stroke:#181818;stroke-width:1.0;"/><line style="stroke:#181818;stroke-width:1.0;stroke-dasharray:2.0,2.0;" x1="62.7793" x2="441.1421" y1="370.5703" y2="370.5703"/><text fill="#000000" font-family="sans-serif" font-size="13" lengthAdjust="spacing" textLength="94.6499" x="69.7793" y="365.3076">inserts file name</text><polygon fill="#181818" points="1199.3345,397.8613,1209.3345,401.8613,1199.3345,405.8613,1203.3345,401.8613" style="stroke:#181818;stroke-width:1.0;"/><line style="stroke:#181818;stroke-width:1.0;" x1="457.1421" x2="1205.3345" y1="401.8613" y2="401.8613"/><text fill="#000000" font-family="sans-serif" font-size="13" lengthAdjust="spacing" textLength="172.6753" x="464.1421" y="396.5986">Drone3DSimulation(fileName)</text><polygon fill="#181818" points="468.1421,429.1523,458.1421,433.1523,468.1421,437.1523,464.1421,433.1523" style="stroke:#181818;stroke-width:1.0;"/><line style="stroke:#181818;stroke-width:1.0;stroke-dasharray:2.0,2.0;" x1="462.1421" x2="1215.3345" y1="433.1523" y2="433.1523"/><text fill="#000000" font-family="sans-serif" font-size="13" lengthAdjust="spacing" textLength="98.2871" x="474.1421" y="427.8896">simulation ended</text><line style="stroke:#181818;stroke-width:1.0;" x1="457.1421" x2="499.1421" y1="464.4434" y2="464.4434"/><line style="stroke:#181818;stroke-width:1.0;" x1="499.1421" x2="499.1421" y1="464.4434" y2="477.4434"/><line style="stroke:#181818;stroke-width:1.0;" x1="458.1421" x2="499.1421" y1="477.4434" y2="477.4434"/><polygon fill="#181818" points="468.1421,473.4434,458.1421,477.4434,468.1421,481.4434,464.1421,477.4434" style="stroke:#181818;stroke-width:1.0;"/><text fill="#000000" font-family="sans-serif" font-size="13" lengthAdjust="spacing" textLength="309.8354" x="464.1421" y="459.1807">check existence of video file "drone_&lt;fileName&gt;.mov"</text><path d="M20,492.4434 L80.1709,492.4434 L80.1709,501.7344 L70.1709,511.7344 L20,511.7344 L20,492.4434 " fill="#EEEEEE" style="stroke:#000000;stroke-width:1.5;"/><rect fill="none" height="505.627" style="stroke:#000000;stroke-width:1.5;" width="1479.2163" x="20" y="492.4434"/><text fill="#000000" font-family="sans-serif" font-size="13" font-weight="bold" lengthAdjust="spacing" textLength="15.1709" x="35" y="507.4717">alt</text><text fill="#000000" font-family="sans-serif" font-size="11" font-weight="bold" lengthAdjust="spacing" textLength="57.4653" x="95.1709" y="506.3135">[file exists]</text><line style="stroke:#181818;stroke-width:1.0;" x1="457.1421" x2="499.1421" y1="535.0254" y2="535.0254"/><line style="stroke:#181818;stroke-width:1.0;" x1="499.1421" x2="499.1421" y1="535.0254" y2="548.0254"/><line style="stroke:#181818;stroke-width:1.0;" x1="458.1421" x2="499.1421" y1="548.0254" y2="548.0254"/><polygon fill="#181818" points="468.1421,544.0254,458.1421,548.0254,468.1421,552.0254,464.1421,548.0254" style="stroke:#181818;stroke-width:1.0;"/><text fill="#000000" font-family="sans-serif" font-size="13" lengthAdjust="spacing" textLength="156.0698" x="464.1421" y="529.7627">read video file into memory</text><polygon fill="#181818" points="1317.4858,575.3164,1327.4858,579.3164,1317.4858,583.3164,1321.4858,579.3164" style="stroke:#181818;stroke-width:1.0;"/><line style="stroke:#181818;stroke-width:1.0;" x1="457.1421" x2="1323.4858" y1="579.3164" y2="579.3164"/><text fill="#000000" font-family="sans-serif" font-size="13" lengthAdjust="spacing" textLength="197.2407" x="464.1421" y="574.0537">start local server for video preview</text><polygon fill="#181818" points="468.1421,606.6074,458.1421,610.6074,468.1421,614.6074,464.1421,610.6074" style="stroke:#181818;stroke-width:1.0;"/><line style="stroke:#181818;stroke-width:1.0;stroke-dasharray:2.0,2.0;" x1="462.1421" x2="1333.4858" y1="610.6074" y2="610.6074"/><text fill="#000000" font-family="sans-serif" font-size="13" lengthAdjust="spacing" textLength="79.4727" x="474.1421" y="605.3447">server started</text><polygon fill="#181818" points="73.7793,637.8984,63.7793,641.8984,73.7793,645.8984,69.7793,641.8984" style="stroke:#181818;stroke-width:1.0;"/><line style="stroke:#181818;stroke-width:1.0;" x1="67.7793" x2="446.1421" y1="641.8984" y2="641.8984"/><text fill="#000000" font-family="sans-serif" font-size="13" lengthAdjust="spacing" textLength="124.2808" x="79.7793" y="636.6357">show list of proposals</text><polygon fill="#181818" points="435.1421,669.1895,445.1421,673.1895,435.1421,677.1895,439.1421,673.1895" style="stroke:#181818;stroke-width:1.0;"/><line style="stroke:#181818;stroke-width:1.0;stroke-dasharray:2.0,2.0;" x1="62.7793" x2="441.1421" y1="673.1895" y2="673.1895"/><text fill="#000000" font-family="sans-serif" font-size="13" lengthAdjust="spacing" textLength="93.939" x="69.7793" y="667.9268">selects proposal</text><polygon fill="#181818" points="778.9775,700.4805,788.9775,704.4805,778.9775,708.4805,782.9775,704.4805" style="stroke:#181818;stroke-width:1.0;"/><line style="stroke:#181818;stroke-width:1.0;" x1="457.1421" x2="784.9775" y1="704.4805" y2="704.4805"/><text fill="#000000" font-family="sans-serif" font-size="13" lengthAdjust="spacing" textLength="300.625" x="464.1421" y="699.2178">addVideoToShowProposal(selectedProposal, video)</text><polygon fill="#181818" points="1425.0786,731.7715,1435.0786,735.7715,1425.0786,739.7715,1429.0786,735.7715" style="stroke:#181818;stroke-width:1.0;"/><line style="stroke:#181818;stroke-width:1.0;" x1="800.9775" x2="1431.0786" y1="735.7715" y2="735.7715"/><text fill="#000000" font-family="sans-serif" font-size="13" lengthAdjust="spacing" textLength="93.9453" x="807.9775" y="730.5088">editVideo(video)</text><polygon fill="#181818" points="1034.0972,763.0625,1044.0972,767.0625,1034.0972,771.0625,1038.0972,767.0625" style="stroke:#181818;stroke-width:1.0;"/><line style="stroke:#181818;stroke-width:1.0;" x1="800.9775" x2="1040.0972" y1="767.0625" y2="767.0625"/><text fill="#000000" font-family="sans-serif" font-size="13" lengthAdjust="spacing" textLength="159.688" x="807.9775" y="761.7998">saveInStore(showProposal)</text><polygon fill="#181818" points="811.9775,794.3535,801.9775,798.3535,811.9775,802.3535,807.9775,798.3535" style="stroke:#181818;stroke-width:1.0;"/><line style="stroke:#181818;stroke-width:1.0;stroke-dasharray:2.0,2.0;" x1="805.9775" x2="1050.0972" y1="798.3535" y2="798.3535"/><text fill="#000000" font-family="sans-serif" font-size="13" lengthAdjust="spacing" textLength="147.4307" x="817.9775" y="793.0908">Optional&lt;ShowProposal&gt;</text><polygon fill="#181818" points="468.1421,825.6445,458.1421,829.6445,468.1421,833.6445,464.1421,829.6445" style="stroke:#181818;stroke-width:1.0;"/><line style="stroke:#181818;stroke-width:1.0;stroke-dasharray:2.0,2.0;" x1="462.1421" x2="794.9775" y1="829.6445" y2="829.6445"/><text fill="#000000" font-family="sans-serif" font-size="13" lengthAdjust="spacing" textLength="147.4307" x="474.1421" y="824.3818">Optional&lt;ShowProposal&gt;</text><path d="M30,844.6445 L90.1709,844.6445 L90.1709,853.9355 L80.1709,863.9355 L30,863.9355 L30,844.6445 " fill="#EEEEEE" style="stroke:#000000;stroke-width:1.5;"/><rect fill="none" height="98.5039" style="stroke:#000000;stroke-width:1.5;" width="566.376" x="30" y="844.6445"/><text fill="#000000" font-family="sans-serif" font-size="13" font-weight="bold" lengthAdjust="spacing" textLength="15.1709" x="45" y="859.6729">alt</text><text fill="#000000" font-family="sans-serif" font-size="11" font-weight="bold" lengthAdjust="spacing" textLength="80.0723" x="105.1709" y="858.5146">[result present]</text><polygon fill="#181818" points="73.7793,883.2266,63.7793,887.2266,73.7793,891.2266,69.7793,887.2266" style="stroke:#181818;stroke-width:1.0;"/><line style="stroke:#181818;stroke-width:1.0;" x1="67.7793" x2="446.1421" y1="887.2266" y2="887.2266"/><text fill="#000000" font-family="sans-serif" font-size="13" lengthAdjust="spacing" textLength="239.7065" x="79.7793" y="881.9639">&#10004;&#65039; Video added successfully to proposal!</text><line style="stroke:#000000;stroke-width:1.0;stroke-dasharray:2.0,2.0;" x1="30" x2="596.376" y1="896.2266" y2="896.2266"/><text fill="#000000" font-family="sans-serif" font-size="11" font-weight="bold" lengthAdjust="spacing" textLength="72.7354" x="35" y="908.0967">[result empty]</text><polygon fill="#181818" points="73.7793,931.1484,63.7793,935.1484,73.7793,939.1484,69.7793,935.1484" style="stroke:#181818;stroke-width:1.0;"/><line style="stroke:#181818;stroke-width:1.0;" x1="67.7793" x2="446.1421" y1="935.1484" y2="935.1484"/><text fill="#000000" font-family="sans-serif" font-size="13" lengthAdjust="spacing" textLength="311.2383" x="79.7793" y="929.8857">&#10060; Something went wrong saving the Show Proposal!</text><line style="stroke:#000000;stroke-width:1.0;stroke-dasharray:2.0,2.0;" x1="20" x2="1499.2163" y1="951.1484" y2="951.1484"/><text fill="#000000" font-family="sans-serif" font-size="11" font-weight="bold" lengthAdjust="spacing" textLength="76.9731" x="25" y="963.0186">[file not found]</text><polygon fill="#181818" points="73.7793,986.0703,63.7793,990.0703,73.7793,994.0703,69.7793,990.0703" style="stroke:#181818;stroke-width:1.0;"/><line style="stroke:#181818;stroke-width:1.0;" x1="67.7793" x2="446.1421" y1="990.0703" y2="990.0703"/><text fill="#000000" font-family="sans-serif" font-size="13" lengthAdjust="spacing" textLength="132.7676" x="79.7793" y="984.8076">&#10060; Video file not found</text><line style="stroke:#000000;stroke-width:1.0;stroke-dasharray:2.0,2.0;" x1="10" x2="1509.2163" y1="1006.0703" y2="1006.0703"/><text fill="#000000" font-family="sans-serif" font-size="11" font-weight="bold" lengthAdjust="spacing" textLength="95.3369" x="15" y="1017.9404">[list empty or null]</text><polygon fill="#181818" points="73.7793,1040.9922,63.7793,1044.9922,73.7793,1048.9922,69.7793,1044.9922" style="stroke:#181818;stroke-width:1.0;"/><line style="stroke:#181818;stroke-width:1.0;" x1="67.7793" x2="446.1421" y1="1044.9922" y2="1044.9922"/><text fill="#000000" font-family="sans-serif" font-size="13" lengthAdjust="spacing" textLength="360.3628" x="79.7793" y="1039.7295">&#10060; No Show Proposals available. Add them first and try again.</text><!--SRC=[bLRDRXCn4BxlKmmv9HAjX2ekLHMf8WSYeHQn3LTarhDPgrvxMNiJ-Wv8N3Z2U_0yl02lmDWRUxsRj2ev9BKztpVZRtvSSozKmrfMGwsLBgfMrmYsxJ0pyQHXnJtROcuV94ABXMLgArC3Kp6kzq9jeMJIO9PPOSbqiuOSltIe2eILO5jdEi_prGBEu9fp-2WuQh0QyahluNsh6ssOXFacltZrUf5bhB2wXTd6O3i3Pg2ZFpBoQ4KX6gOip2w9nhFSbhceEyciqEfEtrKOs3Ph3zsi_nVuHYlRQYaFleVbXCZ57Z0Va7u41VtWCSDoZ5crMk75Qd3ihVqkxOrjtrhRvDZk3c4Cox5P6eKtJ3UyacB7BFOIPkuRpfOkGPTWB141uzpbZpsIb861bCm8H-X14cBPehsMCfYR-M909D9b2OOO1e6UPaY4J21dqnXk6oScarVlXB5NgGBBPSRn5DqeeA38CJn5fzTXqe8awzionWrAMy2wiKGEzEcryefVKlDGEnWBEozoAQX95AlH6_P92J48HKjh4fk4BPGAsHtLqjmXRWYmy80OTYmljni9eZyJ2G0LH-xDabj7U1A61nOL5lU0Nqa5t-YwJ6ytumxtwIe4jJolzMxMHqRQUHkFDNvlmjqYuocRK5INDTOkSsFpeIzYHKjTq30n_MP9WwGdQbhS2Tn7VBnXqbhXB64TXEhNtiT1febK2T4aoaCL6DTPhcoSM4qed6WxBWI3aYQkYNPJpb47iCDKkzDf-Svx3kHXusMlnU9OXBIum-6uPrDYyeXSMEzoFg5yejCDs-5QvRJ2kKdeJiIJj6euUzO467VlYIIbC-1Ko47-vpEUaixLU8kcen-gEuFAngEZglZpyyVVtzyFyvSIYHnCLnHeJDb9-U16SgY15v45wRaD7lgXypZ_hs-Gq-jkApVeznGBxAavjouTRiTME9xvYHV5-pjvT_r8eYbNwaxnx55d7vCXDxBsT9xADu6F6wX15TqpEqbrCtcE3B0T4v9zbdZk_vMWu6jorH8TKxIauc1R9jHvvfqbQQBtArdvz_0V]--></g></svg>