<svg xmlns="http://www.w3.org/2000/svg" xmlns:xlink="http://www.w3.org/1999/xlink" contentStyleType="text/css" height="632px" preserveAspectRatio="none" style="width:821px;height:632px;background:#FFFFFF;" version="1.1" viewBox="0 0 821 632" width="821px" zoomAndPan="magnify"><title>System Sequence Diagram (SSD) - US263 Detect Drone Collisions in Real Time</title><defs/><g><text fill="#000000" font-family="sans-serif" font-size="14" font-weight="bold" lengthAdjust="spacing" textLength="534.0421" x="144.8227" y="29.9659">System Sequence Diagram (SSD) - US263 Detect Drone Collisions in Real Time</text><rect fill="#FFFFFF" height="366.8951" style="stroke:#181818;stroke-width:1.0;" width="10" x="80.5208" y="134.1358"/><rect fill="#FFFFFF" height="343.189" style="stroke:#181818;stroke-width:1.0;" width="10" x="364.0651" y="157.8419"/><rect fill="none" height="267.924" style="stroke:#000000;stroke-width:1.5;" width="638.9333" x="10" y="172.8419"/><rect fill="none" height="189.512" style="stroke:#000000;stroke-width:1.5;" width="618.9333" x="20" y="244.2539"/><line style="stroke:#181818;stroke-width:0.5;stroke-dasharray:5.0,5.0;" x1="85" x2="85" y1="124.1358" y2="548.5899"/><line style="stroke:#181818;stroke-width:0.5;stroke-dasharray:5.0,5.0;" x1="368.4032" x2="368.4032" y1="124.1358" y2="548.5899"/><text fill="#000000" font-family="sans-serif" font-size="14" lengthAdjust="spacing" textLength="105.0416" x="30" y="120.0339">Drone Operator</text><ellipse cx="85.5208" cy="53.5679" fill="#E3E3E3" rx="8" ry="8" style="stroke:#181818;stroke-width:0.5;"/><path d="M85.5208,61.5679 L85.5208,88.5679 M72.5208,69.5679 L98.5208,69.5679 M85.5208,88.5679 L72.5208,103.5679 M85.5208,88.5679 L98.5208,103.5679 " fill="none" style="stroke:#181818;stroke-width:0.5;"/><text fill="#000000" font-family="sans-serif" font-size="14" lengthAdjust="spacing" textLength="105.0416" x="30" y="562.5559">Drone Operator</text><ellipse cx="85.5208" cy="575.1578" fill="#E3E3E3" rx="8" ry="8" style="stroke:#181818;stroke-width:0.5;"/><path d="M85.5208,583.1578 L85.5208,610.1578 M72.5208,591.1578 L98.5208,591.1578 M85.5208,610.1578 L72.5208,625.1578 M85.5208,610.1578 L98.5208,625.1578 " fill="none" style="stroke:#181818;stroke-width:0.5;"/><rect fill="#E3E3E3" height="33.0679" rx="2.5" ry="2.5" style="stroke:#181818;stroke-width:0.5;" width="65.3238" x="336.4032" y="90.0679"/><text fill="#000000" font-family="sans-serif" font-size="14" lengthAdjust="spacing" textLength="51.3238" x="343.4032" y="112.0339">:System</text><rect fill="#E3E3E3" height="33.0679" rx="2.5" ry="2.5" style="stroke:#181818;stroke-width:0.5;" width="65.3238" x="336.4032" y="547.5899"/><text fill="#000000" font-family="sans-serif" font-size="14" lengthAdjust="spacing" textLength="51.3238" x="343.4032" y="569.5559">:System</text><rect fill="#FFFFFF" height="366.8951" style="stroke:#181818;stroke-width:1.0;" width="10" x="80.5208" y="134.1358"/><rect fill="#FFFFFF" height="343.189" style="stroke:#181818;stroke-width:1.0;" width="10" x="364.0651" y="157.8419"/><polygon fill="#181818" points="352.0651,153.8419,362.0651,157.8419,352.0651,161.8419,356.0651,157.8419" style="stroke:#181818;stroke-width:1.0;"/><line style="stroke:#181818;stroke-width:1.0;" x1="90.5208" x2="358.0651" y1="157.8419" y2="157.8419"/><text fill="#000000" font-family="sans-serif" font-size="13" font-weight="bold" lengthAdjust="spacing" textLength="7.436" x="97.5208" y="152.0328">1</text><text fill="#000000" font-family="sans-serif" font-size="13" lengthAdjust="spacing" textLength="136.0971" x="108.9568" y="152.0328">start show monitoring</text><path d="M10,172.8419 L83.288,172.8419 L83.288,182.5479 L73.288,192.5479 L10,192.5479 L10,172.8419 " fill="#EEEEEE" style="stroke:#000000;stroke-width:1.5;"/><rect fill="none" height="267.924" style="stroke:#000000;stroke-width:1.5;" width="638.9333" x="10" y="172.8419"/><text fill="#000000" font-family="sans-serif" font-size="13" font-weight="bold" lengthAdjust="spacing" textLength="28.288" x="25" y="187.7389">loop</text><text fill="#000000" font-family="sans-serif" font-size="11" font-weight="bold" lengthAdjust="spacing" textLength="115.1692" x="98.288" y="186.6008">[for each timestamp]</text><line style="stroke:#181818;stroke-width:1.0;" x1="374.0651" x2="416.0651" y1="216.2539" y2="216.2539"/><line style="stroke:#181818;stroke-width:1.0;" x1="416.0651" x2="416.0651" y1="216.2539" y2="229.2539"/><line style="stroke:#181818;stroke-width:1.0;" x1="375.0651" x2="416.0651" y1="229.2539" y2="229.2539"/><polygon fill="#181818" points="385.0651,225.2539,375.0651,229.2539,385.0651,233.2539,381.0651,229.2539" style="stroke:#181818;stroke-width:1.0;"/><text fill="#000000" font-family="sans-serif" font-size="13" font-weight="bold" lengthAdjust="spacing" textLength="7.436" x="381.0651" y="210.4449">2</text><text fill="#000000" font-family="sans-serif" font-size="13" lengthAdjust="spacing" textLength="146.2241" x="392.5011" y="210.4449">process drone positions</text><path d="M20,244.2539 L82.459,244.2539 L82.459,253.9599 L72.459,263.9599 L20,263.9599 L20,244.2539 " fill="#EEEEEE" style="stroke:#000000;stroke-width:1.5;"/><rect fill="none" height="189.512" style="stroke:#000000;stroke-width:1.5;" width="618.9333" x="20" y="244.2539"/><text fill="#000000" font-family="sans-serif" font-size="13" font-weight="bold" lengthAdjust="spacing" textLength="17.459" x="35" y="259.1509">alt</text><text fill="#000000" font-family="sans-serif" font-size="11" font-weight="bold" lengthAdjust="spacing" textLength="264.8561" x="97.459" y="258.0128">[collision detected (distance &lt; combined radius)]</text><polygon fill="#181818" points="101.5208,283.6659,91.5208,287.6659,101.5208,291.6659,97.5208,287.6659" style="stroke:#181818;stroke-width:1.0;"/><line style="stroke:#181818;stroke-width:1.0;stroke-dasharray:2.0,2.0;" x1="95.5208" x2="363.0651" y1="287.6659" y2="287.6659"/><text fill="#000000" font-family="sans-serif" font-size="13" font-weight="bold" lengthAdjust="spacing" textLength="7.436" x="107.5208" y="281.8569">3</text><text fill="#000000" font-family="sans-serif" font-size="13" lengthAdjust="spacing" textLength="224.9262" x="118.9568" y="281.8569">alert (visual: "&#128165; Collision detected...")</text><line style="stroke:#181818;stroke-width:1.0;" x1="374.0651" x2="416.0651" y1="319.3719" y2="319.3719"/><line style="stroke:#181818;stroke-width:1.0;" x1="416.0651" x2="416.0651" y1="319.3719" y2="332.3719"/><line style="stroke:#181818;stroke-width:1.0;" x1="375.0651" x2="416.0651" y1="332.3719" y2="332.3719"/><polygon fill="#181818" points="385.0651,328.3719,375.0651,332.3719,385.0651,336.3719,381.0651,332.3719" style="stroke:#181818;stroke-width:1.0;"/><text fill="#000000" font-family="sans-serif" font-size="13" font-weight="bold" lengthAdjust="spacing" textLength="7.436" x="381.0651" y="313.5629">4</text><text fill="#000000" font-family="sans-serif" font-size="13" lengthAdjust="spacing" textLength="224.4322" x="392.5011" y="313.5629">log collision event in Collision_Stamp</text><line style="stroke:#181818;stroke-width:1.0;" x1="374.0651" x2="416.0651" y1="364.0779" y2="364.0779"/><line style="stroke:#181818;stroke-width:1.0;" x1="416.0651" x2="416.0651" y1="364.0779" y2="377.0779"/><line style="stroke:#181818;stroke-width:1.0;" x1="375.0651" x2="416.0651" y1="377.0779" y2="377.0779"/><polygon fill="#181818" points="385.0651,373.0779,375.0651,377.0779,385.0651,381.0779,381.0651,377.0779" style="stroke:#181818;stroke-width:1.0;"/><text fill="#000000" font-family="sans-serif" font-size="13" font-weight="bold" lengthAdjust="spacing" textLength="7.436" x="381.0651" y="358.2689">5</text><text fill="#000000" font-family="sans-serif" font-size="13" lengthAdjust="spacing" textLength="202.8002" x="392.5011" y="358.2689">send SIGUSR1 to involved drones</text><line style="stroke:#000000;stroke-width:1.0;stroke-dasharray:2.0,2.0;" x1="20" x2="638.9333" y1="386.0779" y2="386.0779"/><text fill="#000000" font-family="sans-serif" font-size="11" font-weight="bold" lengthAdjust="spacing" textLength="69.5635" x="25" y="397.8369">[no collision]</text><polygon fill="#181818" points="101.5208,421.7659,91.5208,425.7659,101.5208,429.7659,97.5208,425.7659" style="stroke:#181818;stroke-width:1.0;"/><line style="stroke:#181818;stroke-width:1.0;stroke-dasharray:2.0,2.0;" x1="95.5208" x2="363.0651" y1="425.7659" y2="425.7659"/><text fill="#000000" font-family="sans-serif" font-size="13" font-weight="bold" lengthAdjust="spacing" textLength="7.436" x="107.5208" y="419.9569">6</text><text fill="#000000" font-family="sans-serif" font-size="13" lengthAdjust="spacing" textLength="238.1082" x="118.9568" y="419.9569">update drone positions (normal status)</text><polygon fill="#181818" points="357.0651,497.0309,367.0651,501.0309,357.0651,505.0309,361.0651,501.0309" style="stroke:#181818;stroke-width:1.0;"/><line style="stroke:#181818;stroke-width:1.0;" x1="85.5208" x2="363.0651" y1="501.0309" y2="501.0309"/><text fill="#000000" font-family="sans-serif" font-size="13" font-weight="bold" lengthAdjust="spacing" textLength="7.436" x="92.5208" y="495.2219">7</text><text fill="#000000" font-family="sans-serif" font-size="13" lengthAdjust="spacing" textLength="134.6021" x="103.9568" y="495.2219">stop show monitoring</text><path d="M379,452.7659 L379,532.7659 L814,532.7659 L814,462.7659 L804,452.7659 L379,452.7659 " fill="#FAFAFA" style="stroke:#181818;stroke-width:0.5;"/><path d="M804,452.7659 L804,462.7659 L814,462.7659 L804,452.7659 " fill="#FAFAFA" style="stroke:#181818;stroke-width:0.5;"/><text fill="#000000" font-family="sans-serif" font-size="13" lengthAdjust="spacing" textLength="333.5413" x="385" y="471.6629">Updated as of 11:12 AM WEST on Friday, May 16, 2025.</text><text fill="#000000" font-family="sans-serif" font-size="13" lengthAdjust="spacing" textLength="414.6224" x="385" y="489.3689">- Collision detection uses distance &lt; (biggestDimension/200 + 0.5m).</text><text fill="#000000" font-family="sans-serif" font-size="13" lengthAdjust="spacing" textLength="276.2762" x="385" y="507.0749">- Drones marked as terminated are excluded.</text><text fill="#000000" font-family="sans-serif" font-size="13" lengthAdjust="spacing" textLength="215.0722" x="385" y="524.7809">- Visual alert is a terminal message.</text><!--SRC=[TLFBRjj03BphAmYVR3HMRHV9GGWA57LRz10KYEBsKY2WjRHCU1_gxigfVwC_q5F_BvzGhloGaST9N2qv6iwCmePjWnuD66TTjVRE44JVKXPEDmrM6wofZ3jDuAcAQ6jztX3MgDm3snfMg0DbMUGehUKkH39Gqg-MR4KmPwnJ-x0ivoCOmwASNRs3EKM1XBbtbk2Zqve3Enk0BTmIQhXZ8uZOHcTRioGlTHMTXy5-ubj37kKy00odGoQy8bVSe8qmAFP4kevzsM7m5cC_dsN72iRl3sq5X2X0ifzxIFgmtCgM_V0HJJlNm4f62QirH64iWwR93WgS0JRULHG2g8vyumB7j6s6Ea9rN1vKfmaf62eMf2JUjLoR9LjvwL5n6qOdT84_SYy0DGdZuPP3Yxg0mUFVF_zwMK_8UPuFHY_mqwu-uq5R4W75YHF0VVdAOe6iWlBhbqLvEuNeP6Zhz5ROTfk6Z2GOO5qF_ZBzjb59s2VomD0wRoGC8aPCgwUFYMJTCud_cdjYorFp53spx-nL7mVhvEYvNiS25XqhbGBaLZ2T5jCPVBY17v_AEn2PFdjMkBk06zp1zEe2PfFPPVxJZf_fdgesaDZVspfSSbrBNkQI6fjwtyuc4tW3a_pIZ3gKBkW13FhDdaCaRzZk6Na2-btfLecdgVbxP_mX1Xm0ZzqQ99L1_kCy-my0]--></g></svg>