<svg xmlns="http://www.w3.org/2000/svg" xmlns:xlink="http://www.w3.org/1999/xlink" contentStyleType="text/css" height="591px" preserveAspectRatio="none" style="width:573px;height:591px;background:#FFFFFF;" version="1.1" viewBox="0 0 573 591" width="573px" zoomAndPan="magnify"><title>System Sequence Diagram (SSD) - US211 - Register User</title><defs/><g><text fill="#000000" font-family="sans-serif" font-size="14" font-weight="bold" lengthAdjust="spacing" textLength="380.4746" x="97.3408" y="30.1074">System Sequence Diagram (SSD) - US211 - Register User</text><rect fill="#FFFFFF" height="365.25" style="stroke:#181818;stroke-width:1.0;" width="10" x="37.8413" y="133.2422"/><rect fill="#FFFFFF" height="341.959" style="stroke:#181818;stroke-width:1.0;" width="10" x="300.6074" y="156.5332"/><rect fill="none" height="187.0859" style="stroke:#000000;stroke-width:1.5;" width="556.1563" x="10" y="304.4063"/><line style="stroke:#181818;stroke-width:0.5;stroke-dasharray:5.0,5.0;" x1="42" x2="42" y1="123.2422" y2="508.4922"/><line style="stroke:#181818;stroke-width:0.5;stroke-dasharray:5.0,5.0;" x1="305.3247" x2="305.3247" y1="123.2422" y2="508.4922"/><text fill="#000000" font-family="sans-serif" font-size="14" lengthAdjust="spacing" textLength="39.6826" x="20" y="119.7285">Admin</text><ellipse cx="42.8413" cy="53.1211" fill="#E3E3E3" rx="8" ry="8" style="stroke:#181818;stroke-width:0.5;"/><path d="M42.8413,61.1211 L42.8413,88.1211 M29.8413,69.1211 L55.8413,69.1211 M42.8413,88.1211 L29.8413,103.1211 M42.8413,88.1211 L55.8413,103.1211 " fill="none" style="stroke:#181818;stroke-width:0.5;"/><text fill="#000000" font-family="sans-serif" font-size="14" lengthAdjust="spacing" textLength="39.6826" x="20" y="522.5996">Admin</text><ellipse cx="42.8413" cy="534.6133" fill="#E3E3E3" rx="8" ry="8" style="stroke:#181818;stroke-width:0.5;"/><path d="M42.8413,542.6133 L42.8413,569.6133 M29.8413,550.6133 L55.8413,550.6133 M42.8413,569.6133 L29.8413,584.6133 M42.8413,569.6133 L55.8413,584.6133 " fill="none" style="stroke:#181818;stroke-width:0.5;"/><rect fill="#E3E3E3" height="32.6211" rx="2.5" ry="2.5" style="stroke:#181818;stroke-width:0.5;" width="64.5654" x="273.3247" y="89.6211"/><text fill="#000000" font-family="sans-serif" font-size="14" lengthAdjust="spacing" textLength="50.5654" x="280.3247" y="111.7285">:System</text><rect fill="#E3E3E3" height="32.6211" rx="2.5" ry="2.5" style="stroke:#181818;stroke-width:0.5;" width="64.5654" x="273.3247" y="507.4922"/><text fill="#000000" font-family="sans-serif" font-size="14" lengthAdjust="spacing" textLength="50.5654" x="280.3247" y="529.5996">:System</text><rect fill="#FFFFFF" height="365.25" style="stroke:#181818;stroke-width:1.0;" width="10" x="37.8413" y="133.2422"/><rect fill="#FFFFFF" height="341.959" style="stroke:#181818;stroke-width:1.0;" width="10" x="300.6074" y="156.5332"/><polygon fill="#181818" points="288.6074,152.5332,298.6074,156.5332,288.6074,160.5332,292.6074,156.5332" style="stroke:#181818;stroke-width:1.0;"/><line style="stroke:#181818;stroke-width:1.0;" x1="47.8413" x2="294.6074" y1="156.5332" y2="156.5332"/><text fill="#000000" font-family="sans-serif" font-size="13" font-weight="bold" lengthAdjust="spacing" textLength="7.23" x="54.8413" y="151.2705">1</text><text fill="#000000" font-family="sans-serif" font-size="13" lengthAdjust="spacing" textLength="222.5361" x="66.0713" y="151.2705">registerUser(name, email, phone, role)</text><line style="stroke:#181818;stroke-width:1.0;" x1="310.6074" x2="352.6074" y1="187.8242" y2="187.8242"/><line style="stroke:#181818;stroke-width:1.0;" x1="352.6074" x2="352.6074" y1="187.8242" y2="200.8242"/><line style="stroke:#181818;stroke-width:1.0;" x1="311.6074" x2="352.6074" y1="200.8242" y2="200.8242"/><polygon fill="#181818" points="321.6074,196.8242,311.6074,200.8242,321.6074,204.8242,317.6074,200.8242" style="stroke:#181818;stroke-width:1.0;"/><text fill="#000000" font-family="sans-serif" font-size="13" font-weight="bold" lengthAdjust="spacing" textLength="7.23" x="317.6074" y="182.5615">2</text><text fill="#000000" font-family="sans-serif" font-size="13" lengthAdjust="spacing" textLength="158.209" x="328.8374" y="182.5615">validateEmailFormat(email)</text><line style="stroke:#181818;stroke-width:1.0;" x1="310.6074" x2="352.6074" y1="232.1152" y2="232.1152"/><line style="stroke:#181818;stroke-width:1.0;" x1="352.6074" x2="352.6074" y1="232.1152" y2="245.1152"/><line style="stroke:#181818;stroke-width:1.0;" x1="311.6074" x2="352.6074" y1="245.1152" y2="245.1152"/><polygon fill="#181818" points="321.6074,241.1152,311.6074,245.1152,321.6074,249.1152,317.6074,245.1152" style="stroke:#181818;stroke-width:1.0;"/><text fill="#000000" font-family="sans-serif" font-size="13" font-weight="bold" lengthAdjust="spacing" textLength="7.23" x="317.6074" y="226.8525">3</text><text fill="#000000" font-family="sans-serif" font-size="13" lengthAdjust="spacing" textLength="150.9854" x="328.8374" y="226.8525">checkEmailDomain(email)</text><line style="stroke:#181818;stroke-width:1.0;" x1="310.6074" x2="352.6074" y1="276.4063" y2="276.4063"/><line style="stroke:#181818;stroke-width:1.0;" x1="352.6074" x2="352.6074" y1="276.4063" y2="289.4063"/><line style="stroke:#181818;stroke-width:1.0;" x1="311.6074" x2="352.6074" y1="289.4063" y2="289.4063"/><polygon fill="#181818" points="321.6074,285.4063,311.6074,289.4063,321.6074,293.4063,317.6074,289.4063" style="stroke:#181818;stroke-width:1.0;"/><text fill="#000000" font-family="sans-serif" font-size="13" font-weight="bold" lengthAdjust="spacing" textLength="7.23" x="317.6074" y="271.1436">4</text><text fill="#000000" font-family="sans-serif" font-size="13" lengthAdjust="spacing" textLength="160.3862" x="328.8374" y="271.1436">checkDuplicateEmail(email)</text><path d="M10,304.4063 L70.1709,304.4063 L70.1709,313.6973 L60.1709,323.6973 L10,323.6973 L10,304.4063 " fill="#EEEEEE" style="stroke:#000000;stroke-width:1.5;"/><rect fill="none" height="187.0859" style="stroke:#000000;stroke-width:1.5;" width="556.1563" x="10" y="304.4063"/><text fill="#000000" font-family="sans-serif" font-size="13" font-weight="bold" lengthAdjust="spacing" textLength="15.1709" x="25" y="319.4346">alt</text><text fill="#000000" font-family="sans-serif" font-size="11" font-weight="bold" lengthAdjust="spacing" textLength="147.3076" x="85.1709" y="318.2764">[email is valid and not used]</text><line style="stroke:#181818;stroke-width:1.0;" x1="310.6074" x2="352.6074" y1="346.9883" y2="346.9883"/><line style="stroke:#181818;stroke-width:1.0;" x1="352.6074" x2="352.6074" y1="346.9883" y2="359.9883"/><line style="stroke:#181818;stroke-width:1.0;" x1="311.6074" x2="352.6074" y1="359.9883" y2="359.9883"/><polygon fill="#181818" points="321.6074,355.9883,311.6074,359.9883,321.6074,363.9883,317.6074,359.9883" style="stroke:#181818;stroke-width:1.0;"/><text fill="#000000" font-family="sans-serif" font-size="13" font-weight="bold" lengthAdjust="spacing" textLength="7.23" x="317.6074" y="341.7256">5</text><text fill="#000000" font-family="sans-serif" font-size="13" lengthAdjust="spacing" textLength="215.3188" x="328.8374" y="341.7256">createUser(name, email, phone, role)</text><line style="stroke:#181818;stroke-width:1.0;" x1="310.6074" x2="352.6074" y1="391.2793" y2="391.2793"/><line style="stroke:#181818;stroke-width:1.0;" x1="352.6074" x2="352.6074" y1="391.2793" y2="404.2793"/><line style="stroke:#181818;stroke-width:1.0;" x1="311.6074" x2="352.6074" y1="404.2793" y2="404.2793"/><polygon fill="#181818" points="321.6074,400.2793,311.6074,404.2793,321.6074,408.2793,317.6074,404.2793" style="stroke:#181818;stroke-width:1.0;"/><text fill="#000000" font-family="sans-serif" font-size="13" font-weight="bold" lengthAdjust="spacing" textLength="7.23" x="317.6074" y="386.0166">6</text><text fill="#000000" font-family="sans-serif" font-size="13" lengthAdjust="spacing" textLength="99.6836" x="328.8374" y="386.0166">persistUser(user)</text><polygon fill="#181818" points="58.8413,431.5703,48.8413,435.5703,58.8413,439.5703,54.8413,435.5703" style="stroke:#181818;stroke-width:1.0;"/><line style="stroke:#181818;stroke-width:1.0;stroke-dasharray:2.0,2.0;" x1="52.8413" x2="299.6074" y1="435.5703" y2="435.5703"/><text fill="#000000" font-family="sans-serif" font-size="13" font-weight="bold" lengthAdjust="spacing" textLength="7.23" x="64.8413" y="430.3076">7</text><text fill="#000000" font-family="sans-serif" font-size="13" lengthAdjust="spacing" textLength="128.6099" x="76.0713" y="430.3076">registration successful</text><line style="stroke:#000000;stroke-width:1.0;stroke-dasharray:2.0,2.0;" x1="10" x2="566.1563" y1="444.5703" y2="444.5703"/><text fill="#000000" font-family="sans-serif" font-size="11" font-weight="bold" lengthAdjust="spacing" textLength="157.7222" x="15" y="456.4404">[invalid email or already used]</text><polygon fill="#181818" points="58.8413,479.4922,48.8413,483.4922,58.8413,487.4922,54.8413,483.4922" style="stroke:#181818;stroke-width:1.0;"/><line style="stroke:#181818;stroke-width:1.0;stroke-dasharray:2.0,2.0;" x1="52.8413" x2="299.6074" y1="483.4922" y2="483.4922"/><text fill="#000000" font-family="sans-serif" font-size="13" font-weight="bold" lengthAdjust="spacing" textLength="7.23" x="64.8413" y="478.2295">8</text><text fill="#000000" font-family="sans-serif" font-size="13" lengthAdjust="spacing" textLength="151.0171" x="76.0713" y="478.2295">registration failed (reason)</text><!--SRC=[ZL9BRi8m4Dtd52DMGQ8BkcHHgLBQ0pJY05Dx21RsEFM7Yjjti4cAr8Bm8fxOxpCVnuFX4GCwS9wzsWVl25B8rCJvPaHrm87wTB84WLH27kmr8EvH-s_30-pGHcgQP990-rDCvA2dhqoi23g3mndUzdstX2VOzi_hjUmVD1X11jX62as3ENdExhF4Ala0YrVj32y08vIe4Tjab1cH4omsrQTSrx3mp14JNV0Do2eXFBrCUMsabcfyzcqP7Qs071gxWd7lMVw2jxGiv5bmSe3BkeXTonxH6YtOjxFMkmyEKrjqb_TOQa_gK2YTboy_IkdoQ8sQx2RMJ4ERQb5WOiqCa3MmJv0ZwHbtooAGI3_Ge3iQ8uKeVIuYuXd-9mYZJcYQIy1aF4FCIb6Cksnd6iaZ0yErcbgSl1Aqagi-tIxhbiDE14X3A_Je-JSxObtxgEdF-A-EYkOF]--></g></svg>