<svg xmlns="http://www.w3.org/2000/svg" xmlns:xlink="http://www.w3.org/1999/xlink" contentStyleType="text/css" height="638.4px" preserveAspectRatio="none" style="width:719px;height:638px;background:#FFFFFF;" version="1.1" viewBox="0 0 719 638" width="719.2px" zoomAndPan="magnify"><title>System Sequence Diagram (SSD) - US311 - Add Drones to a Proposal</title><defs/><g><text fill="#000000" font-family="sans-serif" font-size="11.2" font-weight="bold" lengthAdjust="spacing" textLength="369.075" x="176.0369" y="24.0859">System Sequence Diagram (SSD) - US311 - Add Drones to a Proposal</text><rect fill="#FFFFFF" height="457.5734" style="stroke:#181818;stroke-width:0.8000000000000002;" width="8" x="75.2137" y="106.5938"/><rect fill="#FFFFFF" height="438.9406" style="stroke:#181818;stroke-width:0.8000000000000002;" width="8" x="378.534" y="125.2266"/><rect fill="none" height="315.0422" style="stroke:#000000;stroke-width:1.2000000000000002;" width="705.9488" x="8" y="243.525"/><rect fill="none" height="214.6391" style="stroke:#000000;stroke-width:1.2000000000000002;" width="689.9488" x="16" y="299.9906"/><rect fill="none" height="114.2359" style="stroke:#000000;stroke-width:1.2000000000000002;" width="673.9488" x="24" y="356.4563"/><line style="stroke:#181818;stroke-width:0.4000000000000001;stroke-dasharray:5.0,5.0;" x1="79.2" x2="79.2" y1="98.5938" y2="572.1672"/><line style="stroke:#181818;stroke-width:0.4000000000000001;stroke-dasharray:5.0,5.0;" x1="382.3078" x2="382.3078" y1="98.5938" y2="572.1672"/><text fill="#000000" font-family="sans-serif" font-size="11.2" lengthAdjust="spacing" textLength="89.6273" x="32" y="95.7828">CRM Collaborator</text><ellipse cx="79.2137" cy="42.4969" fill="#E3E3E3" rx="6.4" ry="6.4" style="stroke:#181818;stroke-width:0.4000000000000001;"/><path d="M79.2137,48.8969 L79.2137,70.4969 M68.8137,55.2969 L89.6137,55.2969 M79.2137,70.4969 L68.8137,82.4969 M79.2137,70.4969 L89.6137,82.4969 " fill="none" style="stroke:#181818;stroke-width:0.4000000000000001;"/><text fill="#000000" font-family="sans-serif" font-size="11.2" lengthAdjust="spacing" textLength="89.6273" x="32" y="583.4531">CRM Collaborator</text><ellipse cx="79.2137" cy="593.0641" fill="#E3E3E3" rx="6.4" ry="6.4" style="stroke:#181818;stroke-width:0.4000000000000001;"/><path d="M79.2137,599.4641 L79.2137,621.0641 M68.8137,605.8641 L89.6137,605.8641 M79.2137,621.0641 L68.8137,633.0641 M79.2137,621.0641 L89.6137,633.0641 " fill="none" style="stroke:#181818;stroke-width:0.4000000000000001;"/><rect fill="#E3E3E3" height="26.0969" rx="2" ry="2" style="stroke:#181818;stroke-width:0.4000000000000001;" width="51.6523" x="356.7078" y="71.6969"/><text fill="#000000" font-family="sans-serif" font-size="11.2" lengthAdjust="spacing" textLength="40.4523" x="362.3078" y="89.3828">:System</text><rect fill="#E3E3E3" height="26.0969" rx="2" ry="2" style="stroke:#181818;stroke-width:0.4000000000000001;" width="51.6523" x="356.7078" y="571.3672"/><text fill="#000000" font-family="sans-serif" font-size="11.2" lengthAdjust="spacing" textLength="40.4523" x="362.3078" y="589.0531">:System</text><rect fill="#FFFFFF" height="457.5734" style="stroke:#181818;stroke-width:0.8000000000000002;" width="8" x="75.2137" y="106.5938"/><rect fill="#FFFFFF" height="438.9406" style="stroke:#181818;stroke-width:0.8000000000000002;" width="8" x="378.534" y="125.2266"/><polygon fill="#181818" points="368.934,122.0266,376.934,125.2266,368.934,128.4266,372.134,125.2266" style="stroke:#181818;stroke-width:0.8000000000000002;"/><line style="stroke:#181818;stroke-width:0.8000000000000002;" x1="83.2137" x2="373.734" y1="125.2266" y2="125.2266"/><text fill="#000000" font-family="sans-serif" font-size="10.4" font-weight="bold" lengthAdjust="spacing" textLength="5.784" x="88.8137" y="121.0164">1</text><text fill="#000000" font-family="sans-serif" font-size="10.4" lengthAdjust="spacing" textLength="271.1363" x="97.7977" y="121.0164">addDronesToProposal(proposalId, droneModelId, quantity)</text><line style="stroke:#181818;stroke-width:0.8000000000000002;" x1="386.534" x2="420.134" y1="150.2594" y2="150.2594"/><line style="stroke:#181818;stroke-width:0.8000000000000002;" x1="420.134" x2="420.134" y1="150.2594" y2="160.6594"/><line style="stroke:#181818;stroke-width:0.8000000000000002;" x1="387.334" x2="420.134" y1="160.6594" y2="160.6594"/><polygon fill="#181818" points="395.334,157.4594,387.334,160.6594,395.334,163.8594,392.134,160.6594" style="stroke:#181818;stroke-width:0.8000000000000002;"/><text fill="#000000" font-family="sans-serif" font-size="10.4" font-weight="bold" lengthAdjust="spacing" textLength="5.784" x="392.134" y="146.0492">2</text><text fill="#000000" font-family="sans-serif" font-size="10.4" lengthAdjust="spacing" textLength="108.0777" x="401.118" y="146.0492">validateUserRole(User)</text><line style="stroke:#181818;stroke-width:0.8000000000000002;" x1="386.534" x2="420.134" y1="185.6922" y2="185.6922"/><line style="stroke:#181818;stroke-width:0.8000000000000002;" x1="420.134" x2="420.134" y1="185.6922" y2="196.0922"/><line style="stroke:#181818;stroke-width:0.8000000000000002;" x1="387.334" x2="420.134" y1="196.0922" y2="196.0922"/><polygon fill="#181818" points="395.334,192.8922,387.334,196.0922,395.334,199.2922,392.134,196.0922" style="stroke:#181818;stroke-width:0.8000000000000002;"/><text fill="#000000" font-family="sans-serif" font-size="10.4" font-weight="bold" lengthAdjust="spacing" textLength="5.784" x="392.134" y="181.482">3</text><text fill="#000000" font-family="sans-serif" font-size="10.4" lengthAdjust="spacing" textLength="131.2188" x="401.118" y="181.482">retrieveProposal(proposalId)</text><line style="stroke:#181818;stroke-width:0.8000000000000002;" x1="386.534" x2="420.134" y1="221.125" y2="221.125"/><line style="stroke:#181818;stroke-width:0.8000000000000002;" x1="420.134" x2="420.134" y1="221.125" y2="231.525"/><line style="stroke:#181818;stroke-width:0.8000000000000002;" x1="387.334" x2="420.134" y1="231.525" y2="231.525"/><polygon fill="#181818" points="395.334,228.325,387.334,231.525,395.334,234.725,392.134,231.525" style="stroke:#181818;stroke-width:0.8000000000000002;"/><text fill="#000000" font-family="sans-serif" font-size="10.4" font-weight="bold" lengthAdjust="spacing" textLength="5.784" x="392.134" y="216.9148">4</text><text fill="#000000" font-family="sans-serif" font-size="10.4" lengthAdjust="spacing" textLength="112.7242" x="401.118" y="216.9148">checkProposalEditable()</text><path d="M8,243.525 L56.1367,243.525 L56.1367,250.9578 L48.1367,258.9578 L8,258.9578 L8,243.525 " fill="#EEEEEE" style="stroke:#000000;stroke-width:1.2000000000000002;"/><rect fill="none" height="315.0422" style="stroke:#000000;stroke-width:1.2000000000000002;" width="705.9488" x="8" y="243.525"/><text fill="#000000" font-family="sans-serif" font-size="10.4" font-weight="bold" lengthAdjust="spacing" textLength="12.1367" x="20" y="255.5477">alt</text><text fill="#000000" font-family="sans-serif" font-size="8.8" font-weight="bold" lengthAdjust="spacing" textLength="88.9969" x="68.1367" y="254.6211">[Proposal is editable]</text><line style="stroke:#181818;stroke-width:0.8000000000000002;" x1="386.534" x2="420.134" y1="277.5906" y2="277.5906"/><line style="stroke:#181818;stroke-width:0.8000000000000002;" x1="420.134" x2="420.134" y1="277.5906" y2="287.9906"/><line style="stroke:#181818;stroke-width:0.8000000000000002;" x1="387.334" x2="420.134" y1="287.9906" y2="287.9906"/><polygon fill="#181818" points="395.334,284.7906,387.334,287.9906,395.334,291.1906,392.134,287.9906" style="stroke:#181818;stroke-width:0.8000000000000002;"/><text fill="#000000" font-family="sans-serif" font-size="10.4" font-weight="bold" lengthAdjust="spacing" textLength="5.784" x="392.134" y="273.3805">5</text><text fill="#000000" font-family="sans-serif" font-size="10.4" lengthAdjust="spacing" textLength="161.8551" x="401.118" y="273.3805">retrieveDroneModel(droneModelId)</text><path d="M16,299.9906 L64.1367,299.9906 L64.1367,307.4234 L56.1367,315.4234 L16,315.4234 L16,299.9906 " fill="#EEEEEE" style="stroke:#000000;stroke-width:1.2000000000000002;"/><rect fill="none" height="214.6391" style="stroke:#000000;stroke-width:1.2000000000000002;" width="689.9488" x="16" y="299.9906"/><text fill="#000000" font-family="sans-serif" font-size="10.4" font-weight="bold" lengthAdjust="spacing" textLength="12.1367" x="28" y="312.0133">alt</text><text fill="#000000" font-family="sans-serif" font-size="8.8" font-weight="bold" lengthAdjust="spacing" textLength="164.2953" x="76.1367" y="311.0867">[Drone model exists and quantity valid]</text><line style="stroke:#181818;stroke-width:0.8000000000000002;" x1="386.534" x2="420.134" y1="334.0563" y2="334.0563"/><line style="stroke:#181818;stroke-width:0.8000000000000002;" x1="420.134" x2="420.134" y1="334.0563" y2="344.4563"/><line style="stroke:#181818;stroke-width:0.8000000000000002;" x1="387.334" x2="420.134" y1="344.4563" y2="344.4563"/><polygon fill="#181818" points="395.334,341.2563,387.334,344.4563,395.334,347.6563,392.134,344.4563" style="stroke:#181818;stroke-width:0.8000000000000002;"/><text fill="#000000" font-family="sans-serif" font-size="10.4" font-weight="bold" lengthAdjust="spacing" textLength="5.784" x="392.134" y="329.8461">6</text><text fill="#000000" font-family="sans-serif" font-size="10.4" lengthAdjust="spacing" textLength="239.3219" x="401.118" y="329.8461">checkForDuplicateModel(proposalId, droneModelId)</text><path d="M24,356.4563 L72.1367,356.4563 L72.1367,363.8891 L64.1367,371.8891 L24,371.8891 L24,356.4563 " fill="#EEEEEE" style="stroke:#000000;stroke-width:1.2000000000000002;"/><rect fill="none" height="114.2359" style="stroke:#000000;stroke-width:1.2000000000000002;" width="673.9488" x="24" y="356.4563"/><text fill="#000000" font-family="sans-serif" font-size="10.4" font-weight="bold" lengthAdjust="spacing" textLength="12.1367" x="36" y="368.4789">alt</text><text fill="#000000" font-family="sans-serif" font-size="8.8" font-weight="bold" lengthAdjust="spacing" textLength="61.5957" x="84.1367" y="367.5523">[Not duplicate]</text><line style="stroke:#181818;stroke-width:0.8000000000000002;" x1="386.534" x2="420.134" y1="390.5219" y2="390.5219"/><line style="stroke:#181818;stroke-width:0.8000000000000002;" x1="420.134" x2="420.134" y1="390.5219" y2="400.9219"/><line style="stroke:#181818;stroke-width:0.8000000000000002;" x1="387.334" x2="420.134" y1="400.9219" y2="400.9219"/><polygon fill="#181818" points="395.334,397.7219,387.334,400.9219,395.334,404.1219,392.134,400.9219" style="stroke:#181818;stroke-width:0.8000000000000002;"/><text fill="#000000" font-family="sans-serif" font-size="10.4" font-weight="bold" lengthAdjust="spacing" textLength="5.784" x="392.134" y="386.3117">7</text><text fill="#000000" font-family="sans-serif" font-size="10.4" lengthAdjust="spacing" textLength="279.2309" x="401.118" y="386.3117">saveDroneConfiguration(proposalId, droneModelId, quantity)</text><polygon fill="#181818" points="92.0137,422.7547,84.0137,425.9547,92.0137,429.1547,88.8137,425.9547" style="stroke:#181818;stroke-width:0.8000000000000002;"/><line style="stroke:#181818;stroke-width:0.8000000000000002;stroke-dasharray:2.0,2.0;" x1="87.2137" x2="377.734" y1="425.9547" y2="425.9547"/><text fill="#000000" font-family="sans-serif" font-size="10.4" font-weight="bold" lengthAdjust="spacing" textLength="5.784" x="96.8137" y="421.7445">8</text><text fill="#000000" font-family="sans-serif" font-size="10.4" lengthAdjust="spacing" textLength="101.141" x="105.7977" y="421.7445">confirmation(success)</text><line style="stroke:#000000;stroke-width:0.8000000000000002;stroke-dasharray:2.0,2.0;" x1="24" x2="697.9488" y1="433.1547" y2="433.1547"/><text fill="#000000" font-family="sans-serif" font-size="8.8" font-weight="bold" lengthAdjust="spacing" textLength="73.8289" x="28" y="442.6508">[Duplicate model]</text><polygon fill="#181818" points="92.0137,461.0922,84.0137,464.2922,92.0137,467.4922,88.8137,464.2922" style="stroke:#181818;stroke-width:0.8000000000000002;"/><line style="stroke:#181818;stroke-width:0.8000000000000002;stroke-dasharray:2.0,2.0;" x1="87.2137" x2="377.734" y1="464.2922" y2="464.2922"/><text fill="#000000" font-family="sans-serif" font-size="10.4" font-weight="bold" lengthAdjust="spacing" textLength="5.784" x="96.8137" y="460.082">9</text><text fill="#000000" font-family="sans-serif" font-size="10.4" lengthAdjust="spacing" textLength="164.6176" x="105.7977" y="460.082">error("Drone model already added")</text><line style="stroke:#000000;stroke-width:0.8000000000000002;stroke-dasharray:2.0,2.0;" x1="16" x2="705.9488" y1="477.0922" y2="477.0922"/><text fill="#000000" font-family="sans-serif" font-size="8.8" font-weight="bold" lengthAdjust="spacing" textLength="136.8941" x="20" y="486.5883">[Invalid drone model or quantity]</text><polygon fill="#181818" points="92.0137,505.0297,84.0137,508.2297,92.0137,511.4297,88.8137,508.2297" style="stroke:#181818;stroke-width:0.8000000000000002;"/><line style="stroke:#181818;stroke-width:0.8000000000000002;stroke-dasharray:2.0,2.0;" x1="87.2137" x2="377.734" y1="508.2297" y2="508.2297"/><text fill="#000000" font-family="sans-serif" font-size="10.4" font-weight="bold" lengthAdjust="spacing" textLength="11.568" x="96.8137" y="504.0195">10</text><text fill="#000000" font-family="sans-serif" font-size="10.4" lengthAdjust="spacing" textLength="178.4859" x="111.5816" y="504.0195">error("Invalid drone model or quantity")</text><line style="stroke:#000000;stroke-width:0.8000000000000002;stroke-dasharray:2.0,2.0;" x1="8" x2="713.9488" y1="521.0297" y2="521.0297"/><text fill="#000000" font-family="sans-serif" font-size="8.8" font-weight="bold" lengthAdjust="spacing" textLength="105.123" x="12" y="530.5258">[Proposal is not editable]</text><polygon fill="#181818" points="92.0137,548.9672,84.0137,552.1672,92.0137,555.3672,88.8137,552.1672" style="stroke:#181818;stroke-width:0.8000000000000002;"/><line style="stroke:#181818;stroke-width:0.8000000000000002;stroke-dasharray:2.0,2.0;" x1="87.2137" x2="377.734" y1="552.1672" y2="552.1672"/><text fill="#000000" font-family="sans-serif" font-size="10.4" font-weight="bold" lengthAdjust="spacing" textLength="11.568" x="96.8137" y="547.957">11</text><text fill="#000000" font-family="sans-serif" font-size="10.4" lengthAdjust="spacing" textLength="180.8016" x="111.5816" y="547.957">error("Proposal is not in editable state")</text><!--SRC=[ZLFBRjim4BphAnOwIK1p27hBeK1XDK0EAOAe-O0rkP49Kro5f9pwxqjIZyfHx5WNhSJPcTa7tLwP3YssqB9XiRFS4dZRK-Rcamx57Xkg_L4JM18UJQEN0BT3oU_ADF2Asb6MUUK3j3uwJotKzDQJ4GILmYR2YxgkIhY1b_hxxMru_vGIAik677W6X2VB7JlKMOQzPzEtMx8X5fujv9ldHzYmrhXbY-5F3kZWnGL4yEALK1qQ3_dT89vEXp0ng0Dw6k0PX2T6SFDZide7AELWvGzFDefk31xaDv3ny94bfQ-tFeWfVomJsSm_2SBuZEnBdGDg9GCs6dXcJKKCoaiPbhnLTA1FR5tC4piI-odfbrGUjq6k_EyEjPzR3ie1ZPWPy8MXQcv9iUnEUP8VHH8mx5au1lghd7U0HivD77foadMff7ksLTzf9K8N1_LpSofNdD7DR_OW9u8Lueoomx7U3PjNrVHX1HMRgpVad4AGI9iOIekyjXreNIy4ERVEfN3BOAv-QEcL0cGjso9VpWAr9PJ7kFiayq_KpEbKalg3IUCQoXs9mlsSwiskTl85qGS_Io_9nt9pJHZfnUrTYN_CLcOc0ET3RnVoKJfzI5hTzCMlAF0F]--></g></svg>