<svg xmlns="http://www.w3.org/2000/svg" xmlns:xlink="http://www.w3.org/1999/xlink" contentStyleType="text/css" height="669px" preserveAspectRatio="none" style="width:711px;height:669px;background:#FFFFFF;" version="1.1" viewBox="0 0 711 669" width="711px" zoomAndPan="magnify"><title>System Sequence Diagram (SSD) - US344 - Generation of a Drone Program</title><defs/><g><text fill="#000000" font-family="sans-serif" font-size="14" font-weight="bold" lengthAdjust="spacing" textLength="497.916" x="108.2039" y="30.1074">System Sequence Diagram (SSD) - US344 - Generation of a Drone Program</text><rect fill="#FFFFFF" height="434.832" style="stroke:#181818;stroke-width:1.0;" width="10" x="64.5723" y="133.2422"/><rect fill="#FFFFFF" height="411.541" style="stroke:#181818;stroke-width:1.0;" width="10" x="417.4604" y="156.5332"/><rect fill="none" height="277.668" style="stroke:#000000;stroke-width:1.5;" width="695.3237" x="10" y="260.1152"/><rect fill="none" height="155.7949" style="stroke:#000000;stroke-width:1.5;" width="675.3237" x="20" y="374.9883"/><line style="stroke:#181818;stroke-width:0.5;stroke-dasharray:5.0,5.0;" x1="69" x2="69" y1="123.2422" y2="586.0742"/><line style="stroke:#181818;stroke-width:0.5;stroke-dasharray:5.0,5.0;" x1="422.1777" x2="422.1777" y1="123.2422" y2="586.0742"/><text fill="#000000" font-family="sans-serif" font-size="14" lengthAdjust="spacing" textLength="73.1445" x="30" y="119.7285">Drone Tech</text><ellipse cx="69.5723" cy="53.1211" fill="#E3E3E3" rx="8" ry="8" style="stroke:#181818;stroke-width:0.5;"/><path d="M69.5723,61.1211 L69.5723,88.1211 M56.5723,69.1211 L82.5723,69.1211 M69.5723,88.1211 L56.5723,103.1211 M69.5723,88.1211 L82.5723,103.1211 " fill="none" style="stroke:#181818;stroke-width:0.5;"/><text fill="#000000" font-family="sans-serif" font-size="14" lengthAdjust="spacing" textLength="73.1445" x="30" y="600.1816">Drone Tech</text><ellipse cx="69.5723" cy="612.1953" fill="#E3E3E3" rx="8" ry="8" style="stroke:#181818;stroke-width:0.5;"/><path d="M69.5723,620.1953 L69.5723,647.1953 M56.5723,628.1953 L82.5723,628.1953 M69.5723,647.1953 L56.5723,662.1953 M69.5723,647.1953 L82.5723,662.1953 " fill="none" style="stroke:#181818;stroke-width:0.5;"/><rect fill="#E3E3E3" height="32.6211" rx="2.5" ry="2.5" style="stroke:#181818;stroke-width:0.5;" width="64.5654" x="390.1777" y="89.6211"/><text fill="#000000" font-family="sans-serif" font-size="14" lengthAdjust="spacing" textLength="50.5654" x="397.1777" y="111.7285">:System</text><rect fill="#E3E3E3" height="32.6211" rx="2.5" ry="2.5" style="stroke:#181818;stroke-width:0.5;" width="64.5654" x="390.1777" y="585.0742"/><text fill="#000000" font-family="sans-serif" font-size="14" lengthAdjust="spacing" textLength="50.5654" x="397.1777" y="607.1816">:System</text><rect fill="#FFFFFF" height="434.832" style="stroke:#181818;stroke-width:1.0;" width="10" x="64.5723" y="133.2422"/><rect fill="#FFFFFF" height="411.541" style="stroke:#181818;stroke-width:1.0;" width="10" x="417.4604" y="156.5332"/><polygon fill="#181818" points="405.4604,152.5332,415.4604,156.5332,405.4604,160.5332,409.4604,156.5332" style="stroke:#181818;stroke-width:1.0;"/><line style="stroke:#181818;stroke-width:1.0;" x1="74.5723" x2="411.4604" y1="156.5332" y2="156.5332"/><text fill="#000000" font-family="sans-serif" font-size="13" font-weight="bold" lengthAdjust="spacing" textLength="7.23" x="81.5723" y="151.2705">1</text><text fill="#000000" font-family="sans-serif" font-size="13" lengthAdjust="spacing" textLength="239.897" x="92.8022" y="151.2705">generateDronePrograms(figureId/showId)</text><line style="stroke:#181818;stroke-width:1.0;" x1="427.4604" x2="469.4604" y1="187.8242" y2="187.8242"/><line style="stroke:#181818;stroke-width:1.0;" x1="469.4604" x2="469.4604" y1="187.8242" y2="200.8242"/><line style="stroke:#181818;stroke-width:1.0;" x1="428.4604" x2="469.4604" y1="200.8242" y2="200.8242"/><polygon fill="#181818" points="438.4604,196.8242,428.4604,200.8242,438.4604,204.8242,434.4604,200.8242" style="stroke:#181818;stroke-width:1.0;"/><text fill="#000000" font-family="sans-serif" font-size="13" font-weight="bold" lengthAdjust="spacing" textLength="7.23" x="434.4604" y="182.5615">2</text><text fill="#000000" font-family="sans-serif" font-size="13" lengthAdjust="spacing" textLength="205.207" x="445.6904" y="182.5615">getDSLDescription(figureId/showId)</text><line style="stroke:#181818;stroke-width:1.0;" x1="427.4604" x2="469.4604" y1="232.1152" y2="232.1152"/><line style="stroke:#181818;stroke-width:1.0;" x1="469.4604" x2="469.4604" y1="232.1152" y2="245.1152"/><line style="stroke:#181818;stroke-width:1.0;" x1="428.4604" x2="469.4604" y1="245.1152" y2="245.1152"/><polygon fill="#181818" points="438.4604,241.1152,428.4604,245.1152,438.4604,249.1152,434.4604,245.1152" style="stroke:#181818;stroke-width:1.0;"/><text fill="#000000" font-family="sans-serif" font-size="13" font-weight="bold" lengthAdjust="spacing" textLength="7.23" x="434.4604" y="226.8525">3</text><text fill="#000000" font-family="sans-serif" font-size="13" lengthAdjust="spacing" textLength="141.6226" x="445.6904" y="226.8525">getDroneModelConfigs()</text><path d="M10,260.1152 L82.4346,260.1152 L82.4346,269.4063 L72.4346,279.4063 L10,279.4063 L10,260.1152 " fill="#EEEEEE" style="stroke:#000000;stroke-width:1.5;"/><rect fill="none" height="277.668" style="stroke:#000000;stroke-width:1.5;" width="695.3237" x="10" y="260.1152"/><text fill="#000000" font-family="sans-serif" font-size="13" font-weight="bold" lengthAdjust="spacing" textLength="27.4346" x="25" y="275.1436">loop</text><text fill="#000000" font-family="sans-serif" font-size="11" font-weight="bold" lengthAdjust="spacing" textLength="174.1792" x="97.4346" y="273.9854">[For each drone type in mapping]</text><line style="stroke:#181818;stroke-width:1.0;" x1="427.4604" x2="469.4604" y1="302.6973" y2="302.6973"/><line style="stroke:#181818;stroke-width:1.0;" x1="469.4604" x2="469.4604" y1="302.6973" y2="315.6973"/><line style="stroke:#181818;stroke-width:1.0;" x1="428.4604" x2="469.4604" y1="315.6973" y2="315.6973"/><polygon fill="#181818" points="438.4604,311.6973,428.4604,315.6973,438.4604,319.6973,434.4604,315.6973" style="stroke:#181818;stroke-width:1.0;"/><text fill="#000000" font-family="sans-serif" font-size="13" font-weight="bold" lengthAdjust="spacing" textLength="7.23" x="434.4604" y="297.4346">4</text><text fill="#000000" font-family="sans-serif" font-size="13" lengthAdjust="spacing" textLength="159.6943" x="445.6904" y="297.4346">getDroneModel(droneType)</text><line style="stroke:#181818;stroke-width:1.0;" x1="427.4604" x2="469.4604" y1="346.9883" y2="346.9883"/><line style="stroke:#181818;stroke-width:1.0;" x1="469.4604" x2="469.4604" y1="346.9883" y2="359.9883"/><line style="stroke:#181818;stroke-width:1.0;" x1="428.4604" x2="469.4604" y1="359.9883" y2="359.9883"/><polygon fill="#181818" points="438.4604,355.9883,428.4604,359.9883,438.4604,363.9883,434.4604,359.9883" style="stroke:#181818;stroke-width:1.0;"/><text fill="#000000" font-family="sans-serif" font-size="13" font-weight="bold" lengthAdjust="spacing" textLength="7.23" x="434.4604" y="341.7256">5</text><text fill="#000000" font-family="sans-serif" font-size="13" lengthAdjust="spacing" textLength="221.127" x="445.6904" y="341.7256">generateDroneCode(droneType, DSL)</text><path d="M20,374.9883 L80.1709,374.9883 L80.1709,384.2793 L70.1709,394.2793 L20,394.2793 L20,374.9883 " fill="#EEEEEE" style="stroke:#000000;stroke-width:1.5;"/><rect fill="none" height="155.7949" style="stroke:#000000;stroke-width:1.5;" width="675.3237" x="20" y="374.9883"/><text fill="#000000" font-family="sans-serif" font-size="13" font-weight="bold" lengthAdjust="spacing" textLength="15.1709" x="35" y="390.0166">alt</text><text fill="#000000" font-family="sans-serif" font-size="11" font-weight="bold" lengthAdjust="spacing" textLength="125.313" x="95.1709" y="388.8584">[Generation successful]</text><line style="stroke:#181818;stroke-width:1.0;" x1="427.4604" x2="469.4604" y1="417.5703" y2="417.5703"/><line style="stroke:#181818;stroke-width:1.0;" x1="469.4604" x2="469.4604" y1="417.5703" y2="430.5703"/><line style="stroke:#181818;stroke-width:1.0;" x1="428.4604" x2="469.4604" y1="430.5703" y2="430.5703"/><polygon fill="#181818" points="438.4604,426.5703,428.4604,430.5703,438.4604,434.5703,434.4604,430.5703" style="stroke:#181818;stroke-width:1.0;"/><text fill="#000000" font-family="sans-serif" font-size="13" font-weight="bold" lengthAdjust="spacing" textLength="7.23" x="434.4604" y="412.3076">6</text><text fill="#000000" font-family="sans-serif" font-size="13" lengthAdjust="spacing" textLength="227.6333" x="445.6904" y="412.3076">storeGeneratedCode(droneType, code)</text><line style="stroke:#000000;stroke-width:1.0;stroke-dasharray:2.0,2.0;" x1="20" x2="695.3237" y1="439.5703" y2="439.5703"/><text fill="#000000" font-family="sans-serif" font-size="11" font-weight="bold" lengthAdjust="spacing" textLength="97.1792" x="25" y="451.4404">[Generation failed]</text><line style="stroke:#181818;stroke-width:1.0;" x1="427.4604" x2="469.4604" y1="478.4922" y2="478.4922"/><line style="stroke:#181818;stroke-width:1.0;" x1="469.4604" x2="469.4604" y1="478.4922" y2="491.4922"/><line style="stroke:#181818;stroke-width:1.0;" x1="428.4604" x2="469.4604" y1="491.4922" y2="491.4922"/><polygon fill="#181818" points="438.4604,487.4922,428.4604,491.4922,438.4604,495.4922,434.4604,491.4922" style="stroke:#181818;stroke-width:1.0;"/><text fill="#000000" font-family="sans-serif" font-size="13" font-weight="bold" lengthAdjust="spacing" textLength="7.23" x="434.4604" y="473.2295">7</text><text fill="#000000" font-family="sans-serif" font-size="13" lengthAdjust="spacing" textLength="85.249" x="445.6904" y="473.2295">abortProcess()</text><polygon fill="#181818" points="85.5723,518.7832,75.5723,522.7832,85.5723,526.7832,81.5723,522.7832" style="stroke:#181818;stroke-width:1.0;"/><line style="stroke:#181818;stroke-width:1.0;stroke-dasharray:2.0,2.0;" x1="79.5723" x2="416.4604" y1="522.7832" y2="522.7832"/><text fill="#000000" font-family="sans-serif" font-size="13" font-weight="bold" lengthAdjust="spacing" textLength="7.23" x="91.5723" y="517.5205">8</text><text fill="#000000" font-family="sans-serif" font-size="13" lengthAdjust="spacing" textLength="228.8901" x="102.8022" y="517.5205">error("Generation failed for droneType")</text><polygon fill="#181818" points="80.5723,564.0742,70.5723,568.0742,80.5723,572.0742,76.5723,568.0742" style="stroke:#181818;stroke-width:1.0;"/><line style="stroke:#181818;stroke-width:1.0;stroke-dasharray:2.0,2.0;" x1="74.5723" x2="421.4604" y1="568.0742" y2="568.0742"/><text fill="#000000" font-family="sans-serif" font-size="13" font-weight="bold" lengthAdjust="spacing" textLength="7.23" x="86.5723" y="562.8115">9</text><text fill="#000000" font-family="sans-serif" font-size="13" lengthAdjust="spacing" textLength="307.6582" x="97.8022" y="562.8115">confirmation("All drone code generated successfully")</text><!--SRC=[XPBFJgqm4CRtVOe9AqWqBgwhip0n4es9Dxa9-W1ZEq1ZwN3ReZblxnJmY9uS9G4Ayts_pf_65-j733Z0m9vr7tWWI64Y5G-H4VKBTjIalIC8f1Fwpcq5iKV3RzPtqAABf5IoIQJDFYOQeA7_4tbDK5liihnichg2StXg_bnUolkEF0LCbZrm2mXrO4_mBt1MAuLJOZyDpnHahHC7A1R58-c-08pm52KcgIIhxOW-GR5RzfwZotBssbTCjCXLViBvrKUME-YMD6Y6hxl7ihNT5EZUNCIUt-vDzOdvuAw0hwXKDmyrHHtic0ixnfnmvRt_iY5tmruyiQoKSimZt4hTXBe7CzUUzYE1zJ3WE4hZ5SZr6xAShO_Yh4xhDpsu4TEdvmoafCM8Bcs75YUjASPsSdFq13hAv6XraVdErlAzm4bEq9RUedLaVYBZCuSa0yj9bDMHKgJph7T08N0eYoCujDBSGpB5ceStAj_gcAFpRC8m8yhYshbrABc8GmlDfYzkBr1bwFlPsVp9w7S0]--></g></svg>