<svg xmlns="http://www.w3.org/2000/svg" xmlns:xlink="http://www.w3.org/1999/xlink" contentStyleType="text/css" height="780px" preserveAspectRatio="none" style="width:936px;height:780px;background:#FFFFFF;" version="1.1" viewBox="0 0 936 780" width="936px" zoomAndPan="magnify"><title>System Sequence Diagram (SSD) - Alternative One</title><defs/><g><text fill="#000000" font-family="sans-serif" font-size="14" font-weight="bold" lengthAdjust="spacing" textLength="347.3527" x="299.1634" y="29.9659">System Sequence Diagram (SSD) - Alternative One</text><rect fill="#FFFFFF" height="544.4722" style="stroke:#181818;stroke-width:1.0;" width="10" x="61.1558" y="134.1358"/><rect fill="#FFFFFF" height="55.412" style="stroke:#181818;stroke-width:1.0;" width="10" x="559.9592" y="134.1358"/><rect fill="#FFFFFF" height="31.706" style="stroke:#181818;stroke-width:1.0;" width="10" x="559.9592" y="221.2539"/><rect fill="#FFFFFF" height="31.706" style="stroke:#181818;stroke-width:1.0;" width="10" x="559.9592" y="284.6659"/><rect fill="#FFFFFF" height="330.5301" style="stroke:#181818;stroke-width:1.0;" width="10" x="559.9592" y="348.0779"/><rect fill="#FFFFFF" height="28" style="stroke:#181818;stroke-width:1.0;" width="10" x="564.9592" y="387.784"/><rect fill="#FFFFFF" height="28" style="stroke:#181818;stroke-width:1.0;" width="10" x="564.9592" y="462.49"/><rect fill="#FFFFFF" height="28" style="stroke:#181818;stroke-width:1.0;" width="10" x="564.9592" y="537.196"/><rect fill="#FFFFFF" height="28" style="stroke:#181818;stroke-width:1.0;" width="10" x="564.9592" y="611.902"/><line style="stroke:#181818;stroke-width:0.5;stroke-dasharray:5.0,5.0;" x1="66" x2="66" y1="124.1358" y2="696.608"/><line style="stroke:#181818;stroke-width:0.5;stroke-dasharray:5.0,5.0;" x1="564.2973" x2="564.2973" y1="124.1358" y2="696.608"/><text fill="#000000" font-family="sans-serif" font-size="14" lengthAdjust="spacing" textLength="116.3116" x="5" y="120.0339">CRM Collaborator</text><ellipse cx="66.1558" cy="53.5679" fill="#E3E3E3" rx="8" ry="8" style="stroke:#181818;stroke-width:0.5;"/><path d="M66.1558,61.5679 L66.1558,88.5679 M53.1558,69.5679 L79.1558,69.5679 M66.1558,88.5679 L53.1558,103.5679 M66.1558,88.5679 L79.1558,103.5679 " fill="none" style="stroke:#181818;stroke-width:0.5;"/><text fill="#000000" font-family="sans-serif" font-size="14" lengthAdjust="spacing" textLength="116.3116" x="5" y="710.574">CRM Collaborator</text><ellipse cx="66.1558" cy="723.1759" fill="#E3E3E3" rx="8" ry="8" style="stroke:#181818;stroke-width:0.5;"/><path d="M66.1558,731.1759 L66.1558,758.1759 M53.1558,739.1759 L79.1558,739.1759 M66.1558,758.1759 L53.1558,773.1759 M66.1558,758.1759 L79.1558,773.1759 " fill="none" style="stroke:#181818;stroke-width:0.5;"/><rect fill="#E3E3E3" height="33.0679" rx="2.5" ry="2.5" style="stroke:#181818;stroke-width:0.5;" width="65.3238" x="532.2973" y="90.0679"/><text fill="#000000" font-family="sans-serif" font-size="14" lengthAdjust="spacing" textLength="51.3238" x="539.2973" y="112.0339">:System</text><rect fill="#E3E3E3" height="33.0679" rx="2.5" ry="2.5" style="stroke:#181818;stroke-width:0.5;" width="65.3238" x="532.2973" y="695.608"/><text fill="#000000" font-family="sans-serif" font-size="14" lengthAdjust="spacing" textLength="51.3238" x="539.2973" y="717.574">:System</text><rect fill="#FFFFFF" height="544.4722" style="stroke:#181818;stroke-width:1.0;" width="10" x="61.1558" y="134.1358"/><rect fill="#FFFFFF" height="55.412" style="stroke:#181818;stroke-width:1.0;" width="10" x="559.9592" y="134.1358"/><rect fill="#FFFFFF" height="31.706" style="stroke:#181818;stroke-width:1.0;" width="10" x="559.9592" y="221.2539"/><rect fill="#FFFFFF" height="31.706" style="stroke:#181818;stroke-width:1.0;" width="10" x="559.9592" y="284.6659"/><rect fill="#FFFFFF" height="330.5301" style="stroke:#181818;stroke-width:1.0;" width="10" x="559.9592" y="348.0779"/><rect fill="#FFFFFF" height="28" style="stroke:#181818;stroke-width:1.0;" width="10" x="564.9592" y="387.784"/><rect fill="#FFFFFF" height="28" style="stroke:#181818;stroke-width:1.0;" width="10" x="564.9592" y="462.49"/><rect fill="#FFFFFF" height="28" style="stroke:#181818;stroke-width:1.0;" width="10" x="564.9592" y="537.196"/><rect fill="#FFFFFF" height="28" style="stroke:#181818;stroke-width:1.0;" width="10" x="564.9592" y="611.902"/><polygon fill="#181818" points="547.9592,153.8419,557.9592,157.8419,547.9592,161.8419,551.9592,157.8419" style="stroke:#181818;stroke-width:1.0;"/><line style="stroke:#181818;stroke-width:1.0;" x1="71.1558" x2="553.9592" y1="157.8419" y2="157.8419"/><text fill="#000000" font-family="sans-serif" font-size="13" font-weight="bold" lengthAdjust="spacing" textLength="7.436" x="78.1558" y="152.0328">1</text><text fill="#000000" font-family="sans-serif" font-size="13" lengthAdjust="spacing" textLength="38.4021" x="89.5918" y="152.0328">login()</text><polygon fill="#181818" points="82.1558,185.5479,72.1558,189.5479,82.1558,193.5479,78.1558,189.5479" style="stroke:#181818;stroke-width:1.0;"/><line style="stroke:#181818;stroke-width:1.0;stroke-dasharray:2.0,2.0;" x1="76.1558" x2="563.9592" y1="189.5479" y2="189.5479"/><text fill="#000000" font-family="sans-serif" font-size="13" font-weight="bold" lengthAdjust="spacing" textLength="7.436" x="88.1558" y="183.7389">2</text><text fill="#000000" font-family="sans-serif" font-size="13" lengthAdjust="spacing" textLength="85.0201" x="99.5918" y="183.7389">authenticated</text><polygon fill="#181818" points="547.9592,217.2539,557.9592,221.2539,547.9592,225.2539,551.9592,221.2539" style="stroke:#181818;stroke-width:1.0;"/><line style="stroke:#181818;stroke-width:1.0;" x1="71.1558" x2="553.9592" y1="221.2539" y2="221.2539"/><text fill="#000000" font-family="sans-serif" font-size="13" font-weight="bold" lengthAdjust="spacing" textLength="7.436" x="78.1558" y="215.4449">3</text><text fill="#000000" font-family="sans-serif" font-size="13" lengthAdjust="spacing" textLength="184.2101" x="89.5918" y="215.4449">ask to register a show request</text><polygon fill="#181818" points="82.1558,248.9599,72.1558,252.9599,82.1558,256.9599,78.1558,252.9599" style="stroke:#181818;stroke-width:1.0;"/><line style="stroke:#181818;stroke-width:1.0;stroke-dasharray:2.0,2.0;" x1="76.1558" x2="563.9592" y1="252.9599" y2="252.9599"/><text fill="#000000" font-family="sans-serif" font-size="13" font-weight="bold" lengthAdjust="spacing" textLength="7.436" x="88.1558" y="247.1509">4</text><text fill="#000000" font-family="sans-serif" font-size="13" lengthAdjust="spacing" textLength="262.9513" x="99.5918" y="247.1509">request data (customer,duration, figures...)</text><polygon fill="#181818" points="547.9592,280.6659,557.9592,284.6659,547.9592,288.6659,551.9592,284.6659" style="stroke:#181818;stroke-width:1.0;"/><line style="stroke:#181818;stroke-width:1.0;" x1="71.1558" x2="553.9592" y1="284.6659" y2="284.6659"/><text fill="#000000" font-family="sans-serif" font-size="13" font-weight="bold" lengthAdjust="spacing" textLength="7.436" x="78.1558" y="278.8569">5</text><text fill="#000000" font-family="sans-serif" font-size="13" lengthAdjust="spacing" textLength="314.5353" x="89.5918" y="278.8569">types requested data (customer,duration, figures...)</text><polygon fill="#181818" points="82.1558,312.3719,72.1558,316.3719,82.1558,320.3719,78.1558,316.3719" style="stroke:#181818;stroke-width:1.0;"/><line style="stroke:#181818;stroke-width:1.0;stroke-dasharray:2.0,2.0;" x1="76.1558" x2="563.9592" y1="316.3719" y2="316.3719"/><text fill="#000000" font-family="sans-serif" font-size="13" font-weight="bold" lengthAdjust="spacing" textLength="7.436" x="88.1558" y="310.5629">6</text><text fill="#000000" font-family="sans-serif" font-size="13" lengthAdjust="spacing" textLength="249.9512" x="99.5918" y="310.5629">show all data registered for confirmation</text><polygon fill="#181818" points="547.9592,344.0779,557.9592,348.0779,547.9592,352.0779,551.9592,348.0779" style="stroke:#181818;stroke-width:1.0;"/><line style="stroke:#181818;stroke-width:1.0;" x1="71.1558" x2="553.9592" y1="348.0779" y2="348.0779"/><text fill="#000000" font-family="sans-serif" font-size="13" font-weight="bold" lengthAdjust="spacing" textLength="7.436" x="78.1558" y="342.2689">7</text><text fill="#000000" font-family="sans-serif" font-size="13" lengthAdjust="spacing" textLength="458.3674" x="89.5918" y="342.2689">registerShowRequest(customer, place, time, numDrones, duration, figures)</text><line style="stroke:#181818;stroke-width:1.0;" x1="574.9592" x2="616.9592" y1="379.784" y2="379.784"/><line style="stroke:#181818;stroke-width:1.0;" x1="616.9592" x2="616.9592" y1="379.784" y2="392.784"/><line style="stroke:#181818;stroke-width:1.0;" x1="575.9592" x2="616.9592" y1="392.784" y2="392.784"/><polygon fill="#181818" points="585.9592,388.784,575.9592,392.784,585.9592,396.784,581.9592,392.784" style="stroke:#181818;stroke-width:1.0;"/><text fill="#000000" font-family="sans-serif" font-size="13" font-weight="bold" lengthAdjust="spacing" textLength="7.436" x="581.9592" y="373.975">8</text><text fill="#000000" font-family="sans-serif" font-size="13" lengthAdjust="spacing" textLength="84.3181" x="593.3952" y="373.975">validations(...)</text><line style="stroke:#181818;stroke-width:1.0;" x1="574.9592" x2="616.9592" y1="454.49" y2="454.49"/><line style="stroke:#181818;stroke-width:1.0;" x1="616.9592" x2="616.9592" y1="454.49" y2="467.49"/><line style="stroke:#181818;stroke-width:1.0;" x1="575.9592" x2="616.9592" y1="467.49" y2="467.49"/><polygon fill="#181818" points="585.9592,463.49,575.9592,467.49,585.9592,471.49,581.9592,467.49" style="stroke:#181818;stroke-width:1.0;"/><text fill="#000000" font-family="sans-serif" font-size="13" font-weight="bold" lengthAdjust="spacing" textLength="7.436" x="581.9592" y="448.681">9</text><text fill="#000000" font-family="sans-serif" font-size="13" lengthAdjust="spacing" textLength="336.2843" x="593.3952" y="448.681">createShowRequest(customer, numDrones, duration...)</text><line style="stroke:#181818;stroke-width:1.0;" x1="574.9592" x2="616.9592" y1="529.196" y2="529.196"/><line style="stroke:#181818;stroke-width:1.0;" x1="616.9592" x2="616.9592" y1="529.196" y2="542.196"/><line style="stroke:#181818;stroke-width:1.0;" x1="575.9592" x2="616.9592" y1="542.196" y2="542.196"/><polygon fill="#181818" points="585.9592,538.196,575.9592,542.196,585.9592,546.196,581.9592,542.196" style="stroke:#181818;stroke-width:1.0;"/><text fill="#000000" font-family="sans-serif" font-size="13" font-weight="bold" lengthAdjust="spacing" textLength="14.872" x="581.9592" y="523.387">10</text><text fill="#000000" font-family="sans-serif" font-size="13" lengthAdjust="spacing" textLength="283.7123" x="600.8312" y="523.387">addShowRequestStatus("Created", timestamp)</text><line style="stroke:#181818;stroke-width:1.0;" x1="574.9592" x2="616.9592" y1="603.902" y2="603.902"/><line style="stroke:#181818;stroke-width:1.0;" x1="616.9592" x2="616.9592" y1="603.902" y2="616.902"/><line style="stroke:#181818;stroke-width:1.0;" x1="575.9592" x2="616.9592" y1="616.902" y2="616.902"/><polygon fill="#181818" points="585.9592,612.902,575.9592,616.902,585.9592,620.902,581.9592,616.902" style="stroke:#181818;stroke-width:1.0;"/><text fill="#000000" font-family="sans-serif" font-size="13" font-weight="bold" lengthAdjust="spacing" textLength="14.872" x="581.9592" y="598.093">11</text><text fill="#000000" font-family="sans-serif" font-size="13" lengthAdjust="spacing" textLength="131.9501" x="600.8312" y="598.093">persistShowRequest()</text><polygon fill="#181818" points="77.1558,674.608,67.1558,678.608,77.1558,682.608,73.1558,678.608" style="stroke:#181818;stroke-width:1.0;"/><line style="stroke:#181818;stroke-width:1.0;stroke-dasharray:2.0,2.0;" x1="71.1558" x2="563.9592" y1="678.608" y2="678.608"/><text fill="#000000" font-family="sans-serif" font-size="13" font-weight="bold" lengthAdjust="spacing" textLength="14.872" x="83.1558" y="672.799">12</text><text fill="#000000" font-family="sans-serif" font-size="13" lengthAdjust="spacing" textLength="264.6282" x="102.0278" y="672.799">show outputs and status of the registration</text><!--SRC=[jLH1RkCm3Bpx5OHF3f3a0Jaii4YknGBr2rY9TeJ8aYjIAVBxidQIEjkiKGHT7GoP775cA49ySA77X1rqCKIpJx4Za9Ifu6kcHtF0bcevUO94HZ2qVWhWFThuva8B3NgceX0d2grFBDH1JQ-PWY7OEMm_u5LTxnQmWjzUA0KKToJu4_GOPeaXTo-KT6ya9YYtpq-mZTxZIqoeaHAGRmA5IX1dN8z1eDoCd0Dgt0wLt165ReyLeEkQkc0_WbCOh7wTSnlmiNMXMWoOixMLfgVm3QY5FGKLf5NjMC_ItpHpBCW7aAXjRfq64g1sDxxflpQHPKRsFoMTZu95GQXCPj4xJakRDUzYM4BZsfo8r-lruW71Skg9BoHalqVpW8sX3UZzI73fZn8sgiV4qBZK3KmFUBXKgvNZUNJowG1wZuQM8AxJhyxdBiL0l8GlrkPyJRrz4X_HEpiKuUhQ_zaQNutDb3U957ZVrHqZ_q41MZkXhmKbSrLk1rss79lAWbt_qyGz9TOxdNh_6OhxWncpz5aOC5ZWmIN41lGjECzMcXjDNPFWxJDL5Ey0]--></g></svg>