<svg xmlns="http://www.w3.org/2000/svg" xmlns:xlink="http://www.w3.org/1999/xlink" contentStyleType="text/css" height="792px" preserveAspectRatio="none" style="width:935px;height:792px;background:#FFFFFF;" version="1.1" viewBox="0 0 935 792" width="935px" zoomAndPan="magnify"><defs/><g><rect fill="none" height="450.73" style="stroke:#000000;stroke-width:1.5;" width="918.3555" x="10" y="240.892"/><rect fill="none" height="323.63" style="stroke:#000000;stroke-width:1.5;" width="898.3555" x="20" y="312.304"/><line style="stroke:#181818;stroke-width:0.5;stroke-dasharray:5.0,5.0;" x1="91" x2="91" y1="84.0679" y2="708.6219"/><line style="stroke:#181818;stroke-width:0.5;stroke-dasharray:5.0,5.0;" x1="572.8613" x2="572.8613" y1="84.0679" y2="708.6219"/><text fill="#000000" font-family="sans-serif" font-size="14" lengthAdjust="spacing" textLength="116.3116" x="30" y="79.9659">CRM Collaborator</text><ellipse cx="91.1558" cy="13.5" fill="#E2E2F0" rx="8" ry="8" style="stroke:#181818;stroke-width:0.5;"/><path d="M91.1558,21.5 L91.1558,48.5 M78.1558,29.5 L104.1558,29.5 M91.1558,48.5 L78.1558,63.5 M91.1558,48.5 L104.1558,63.5 " fill="none" style="stroke:#181818;stroke-width:0.5;"/><text fill="#000000" font-family="sans-serif" font-size="14" lengthAdjust="spacing" textLength="116.3116" x="30" y="722.5879">CRM Collaborator</text><ellipse cx="91.1558" cy="735.1899" fill="#E2E2F0" rx="8" ry="8" style="stroke:#181818;stroke-width:0.5;"/><path d="M91.1558,743.1899 L91.1558,770.1899 M78.1558,751.1899 L104.1558,751.1899 M91.1558,770.1899 L78.1558,785.1899 M91.1558,770.1899 L104.1558,785.1899 " fill="none" style="stroke:#181818;stroke-width:0.5;"/><rect fill="#E2E2F0" height="33.0679" rx="2.5" ry="2.5" style="stroke:#181818;stroke-width:0.5;" width="65.3238" x="540.8613" y="50"/><text fill="#000000" font-family="sans-serif" font-size="14" lengthAdjust="spacing" textLength="51.3238" x="547.8613" y="71.9659">:System</text><rect fill="#E2E2F0" height="33.0679" rx="2.5" ry="2.5" style="stroke:#181818;stroke-width:0.5;" width="65.3238" x="540.8613" y="707.6219"/><text fill="#000000" font-family="sans-serif" font-size="14" lengthAdjust="spacing" textLength="51.3238" x="547.8613" y="729.5879">:System</text><polygon fill="#181818" points="561.5232,113.7739,571.5232,117.7739,561.5232,121.7739,565.5232,117.7739" style="stroke:#181818;stroke-width:1.0;"/><line style="stroke:#181818;stroke-width:1.0;" x1="91.1558" x2="567.5232" y1="117.7739" y2="117.7739"/><text fill="#000000" font-family="sans-serif" font-size="13" lengthAdjust="spacing" textLength="38.4021" x="98.1558" y="111.9649">login()</text><polygon fill="#181818" points="102.1558,145.4799,92.1558,149.4799,102.1558,153.4799,98.1558,149.4799" style="stroke:#181818;stroke-width:1.0;"/><line style="stroke:#181818;stroke-width:1.0;" x1="96.1558" x2="572.5232" y1="149.4799" y2="149.4799"/><text fill="#000000" font-family="sans-serif" font-size="13" lengthAdjust="spacing" textLength="85.0201" x="108.1558" y="143.6709">authenticated</text><polygon fill="#181818" points="561.5232,177.186,571.5232,181.186,561.5232,185.186,565.5232,181.186" style="stroke:#181818;stroke-width:1.0;"/><line style="stroke:#181818;stroke-width:1.0;" x1="91.1558" x2="567.5232" y1="181.186" y2="181.186"/><text fill="#000000" font-family="sans-serif" font-size="13" lengthAdjust="spacing" textLength="458.3674" x="98.1558" y="175.377">registerShowRequest(customer, place, time, numDrones, duration, figures)</text><line style="stroke:#181818;stroke-width:1.0;" x1="573.5232" x2="615.5232" y1="212.892" y2="212.892"/><line style="stroke:#181818;stroke-width:1.0;" x1="615.5232" x2="615.5232" y1="212.892" y2="225.892"/><line style="stroke:#181818;stroke-width:1.0;" x1="574.5232" x2="615.5232" y1="225.892" y2="225.892"/><polygon fill="#181818" points="584.5232,221.892,574.5232,225.892,584.5232,229.892,580.5232,225.892" style="stroke:#181818;stroke-width:1.0;"/><text fill="#000000" font-family="sans-serif" font-size="13" lengthAdjust="spacing" textLength="173.5242" x="580.5232" y="207.083">validateCustomer(customer)</text><path d="M10,240.892 L72.459,240.892 L72.459,250.598 L62.459,260.598 L10,260.598 L10,240.892 " fill="#EEEEEE" style="stroke:#000000;stroke-width:1.5;"/><rect fill="none" height="450.73" style="stroke:#000000;stroke-width:1.5;" width="918.3555" x="10" y="240.892"/><text fill="#000000" font-family="sans-serif" font-size="13" font-weight="bold" lengthAdjust="spacing" textLength="17.459" x="25" y="255.789">alt</text><text fill="#000000" font-family="sans-serif" font-size="11" font-weight="bold" lengthAdjust="spacing" textLength="143.098" x="87.459" y="254.6509">[customer is active or VIP]</text><line style="stroke:#181818;stroke-width:1.0;" x1="573.5232" x2="615.5232" y1="284.304" y2="284.304"/><line style="stroke:#181818;stroke-width:1.0;" x1="615.5232" x2="615.5232" y1="284.304" y2="297.304"/><line style="stroke:#181818;stroke-width:1.0;" x1="574.5232" x2="615.5232" y1="297.304" y2="297.304"/><polygon fill="#181818" points="584.5232,293.304,574.5232,297.304,584.5232,301.304,580.5232,297.304" style="stroke:#181818;stroke-width:1.0;"/><text fill="#000000" font-family="sans-serif" font-size="13" lengthAdjust="spacing" textLength="208.3382" x="580.5232" y="278.495">validateFigures(figures, customer)</text><path d="M20,312.304 L82.459,312.304 L82.459,322.01 L72.459,332.01 L20,332.01 L20,312.304 " fill="#EEEEEE" style="stroke:#000000;stroke-width:1.5;"/><rect fill="none" height="323.63" style="stroke:#000000;stroke-width:1.5;" width="898.3555" x="20" y="312.304"/><text fill="#000000" font-family="sans-serif" font-size="13" font-weight="bold" lengthAdjust="spacing" textLength="17.459" x="35" y="327.201">alt</text><text fill="#000000" font-family="sans-serif" font-size="11" font-weight="bold" lengthAdjust="spacing" textLength="96.4803" x="97.459" y="326.0629">[figures are valid]</text><line style="stroke:#181818;stroke-width:1.0;" x1="573.5232" x2="615.5232" y1="355.716" y2="355.716"/><line style="stroke:#181818;stroke-width:1.0;" x1="615.5232" x2="615.5232" y1="355.716" y2="368.716"/><line style="stroke:#181818;stroke-width:1.0;" x1="574.5232" x2="615.5232" y1="368.716" y2="368.716"/><polygon fill="#181818" points="584.5232,364.716,574.5232,368.716,584.5232,372.716,580.5232,368.716" style="stroke:#181818;stroke-width:1.0;"/><text fill="#000000" font-family="sans-serif" font-size="13" lengthAdjust="spacing" textLength="325.8323" x="580.5232" y="349.907">createShowRequest(customer, numDrones, duration)</text><line style="stroke:#181818;stroke-width:1.0;" x1="573.5232" x2="615.5232" y1="400.4221" y2="400.4221"/><line style="stroke:#181818;stroke-width:1.0;" x1="615.5232" x2="615.5232" y1="400.4221" y2="413.4221"/><line style="stroke:#181818;stroke-width:1.0;" x1="574.5232" x2="615.5232" y1="413.4221" y2="413.4221"/><polygon fill="#181818" points="584.5232,409.4221,574.5232,413.4221,584.5232,417.4221,580.5232,413.4221" style="stroke:#181818;stroke-width:1.0;"/><text fill="#000000" font-family="sans-serif" font-size="13" lengthAdjust="spacing" textLength="265.5253" x="580.5232" y="394.6131">createShowDescription(place, time, figures)</text><line style="stroke:#181818;stroke-width:1.0;" x1="573.5232" x2="615.5232" y1="445.1281" y2="445.1281"/><line style="stroke:#181818;stroke-width:1.0;" x1="615.5232" x2="615.5232" y1="445.1281" y2="458.1281"/><line style="stroke:#181818;stroke-width:1.0;" x1="574.5232" x2="615.5232" y1="458.1281" y2="458.1281"/><polygon fill="#181818" points="584.5232,454.1281,574.5232,458.1281,584.5232,462.1281,580.5232,458.1281" style="stroke:#181818;stroke-width:1.0;"/><text fill="#000000" font-family="sans-serif" font-size="13" lengthAdjust="spacing" textLength="225.8622" x="580.5232" y="439.3191">setShowRequestAuthor(collaborator)</text><line style="stroke:#181818;stroke-width:1.0;" x1="573.5232" x2="615.5232" y1="489.8341" y2="489.8341"/><line style="stroke:#181818;stroke-width:1.0;" x1="615.5232" x2="615.5232" y1="489.8341" y2="502.8341"/><line style="stroke:#181818;stroke-width:1.0;" x1="574.5232" x2="615.5232" y1="502.8341" y2="502.8341"/><polygon fill="#181818" points="584.5232,498.8341,574.5232,502.8341,584.5232,506.8341,580.5232,502.8341" style="stroke:#181818;stroke-width:1.0;"/><text fill="#000000" font-family="sans-serif" font-size="13" lengthAdjust="spacing" textLength="283.7123" x="580.5232" y="484.0251">addShowRequestStatus("Created", timestamp)</text><line style="stroke:#181818;stroke-width:1.0;" x1="573.5232" x2="615.5232" y1="534.5401" y2="534.5401"/><line style="stroke:#181818;stroke-width:1.0;" x1="615.5232" x2="615.5232" y1="534.5401" y2="547.5401"/><line style="stroke:#181818;stroke-width:1.0;" x1="574.5232" x2="615.5232" y1="547.5401" y2="547.5401"/><polygon fill="#181818" points="584.5232,543.5401,574.5232,547.5401,584.5232,551.5401,580.5232,547.5401" style="stroke:#181818;stroke-width:1.0;"/><text fill="#000000" font-family="sans-serif" font-size="13" lengthAdjust="spacing" textLength="131.9501" x="580.5232" y="528.7311">persistShowRequest()</text><polygon fill="#181818" points="102.1558,575.2461,92.1558,579.2461,102.1558,583.2461,98.1558,579.2461" style="stroke:#181818;stroke-width:1.0;"/><line style="stroke:#181818;stroke-width:1.0;" x1="96.1558" x2="572.5232" y1="579.2461" y2="579.2461"/><text fill="#000000" font-family="sans-serif" font-size="13" lengthAdjust="spacing" textLength="328.4063" x="108.1558" y="573.4371">"Show request registered successfully with ID SR-001"</text><line style="stroke:#000000;stroke-width:1.0;stroke-dasharray:2.0,2.0;" x1="20" x2="918.3555" y1="588.2461" y2="588.2461"/><text fill="#000000" font-family="sans-serif" font-size="11" font-weight="bold" lengthAdjust="spacing" textLength="86.0634" x="25" y="600.005">[figures invalid]</text><polygon fill="#181818" points="102.1558,623.934,92.1558,627.934,102.1558,631.934,98.1558,627.934" style="stroke:#181818;stroke-width:1.0;"/><line style="stroke:#181818;stroke-width:1.0;" x1="96.1558" x2="572.5232" y1="627.934" y2="627.934"/><text fill="#000000" font-family="sans-serif" font-size="13" lengthAdjust="spacing" textLength="309.2963" x="108.1558" y="622.125">error("Invalid figures: must be public or exclusive")</text><line style="stroke:#000000;stroke-width:1.0;stroke-dasharray:2.0,2.0;" x1="10" x2="928.3555" y1="643.934" y2="643.934"/><text fill="#000000" font-family="sans-serif" font-size="11" font-weight="bold" lengthAdjust="spacing" textLength="99.5273" x="15" y="655.6929">[customer invalid]</text><polygon fill="#181818" points="102.1558,679.6219,92.1558,683.6219,102.1558,687.6219,98.1558,683.6219" style="stroke:#181818;stroke-width:1.0;"/><line style="stroke:#181818;stroke-width:1.0;" x1="96.1558" x2="572.5232" y1="683.6219" y2="683.6219"/><text fill="#000000" font-family="sans-serif" font-size="13" lengthAdjust="spacing" textLength="275.1583" x="108.1558" y="677.8129">error("Only active or VIP customers allowed")</text><!--SRC=[ZP9DQyCm38Rl-HN2fnGowAuz34RBe8UnqS3khgss1iVEBBjT__sKf4qJQBhb4FmXFQyilL957q0iD- -mzDRAhG-IJmH86XrajGpHA5DB5q4ioZD5hDgeRfbbmsXuUhcSBy3wlN7vBElspSqmSW4onGCwPik8Uf8IS6zu5Sg3FstmEo75N2MAli9GG6sbmWAYgVZlKhKAtY4Le1E3Z7S5xCm-1QHX6LVqKLgZMNnvmVNSMIPjXEiE385KqHmHkBIlzMS6_4tZtZh5_A9Sm0tR93ReonN8W5rQUtCVgm8ozFxpxxnuzY_K2aa5KpS9-QY7VRkcAOHnKCqhJz5pwmRZUvGijHuabr76HBbOjeLfqLL1KLRr8qYDWTWKmvxS2n_RJJJXRASslhSLQg2a51BjahLdE9buWFKAoitJVFuiMYfQmdvanaqDR2o78N1RnBeBlwOleEBXmHQXJbjhLECe_54s4TjBT8z0fxDMycR0WUOVUX-E7p5oQuzXkrdhJzpcMTPe_080]--></g></svg>